<?xml version="1.0" encoding="UTF-8" standalone="no"?>
<svg
   xmlns:dc="http://purl.org/dc/elements/1.1/"
   xmlns:cc="http://creativecommons.org/ns#"
   xmlns:rdf="http://www.w3.org/1999/02/22-rdf-syntax-ns#"
   xmlns:svg="http://www.w3.org/2000/svg"
   xmlns="http://www.w3.org/2000/svg"
   xmlns:sodipodi="http://sodipodi.sourceforge.net/DTD/sodipodi-0.dtd"
   xmlns:inkscape="http://www.inkscape.org/namespaces/inkscape"
   viewBox="0 0 64 64"
   id="svg2"
   version="1.1"
   inkscape:version="0.91 r13725"
   sodipodi:docname="application-vnd.ms-powerpoint.svg">
  <metadata
     id="metadata19">
    <rdf:RDF>
      <cc:Work
         rdf:about="">
        <dc:format>image/svg+xml</dc:format>
        <dc:type
           rdf:resource="http://purl.org/dc/dcmitype/StillImage" />
        <dc:title></dc:title>
      </cc:Work>
    </rdf:RDF>
  </metadata>
  <sodipodi:namedview
     pagecolor="#ffffff"
     bordercolor="#666666"
     borderopacity="1"
     objecttolerance="10"
     gridtolerance="10"
     guidetolerance="10"
     inkscape:pageopacity="0"
     inkscape:pageshadow="2"
     inkscape:window-width="1280"
     inkscape:window-height="694"
     id="namedview17"
     showgrid="true"
     inkscape:zoom="3.6875"
     inkscape:cx="-30.581486"
     inkscape:cy="32"
     inkscape:window-x="0"
     inkscape:window-y="0"
     inkscape:window-maximized="1"
     inkscape:current-layer="svg2">
    <inkscape:grid
       type="xygrid"
       id="grid4137" />
  </sodipodi:namedview>
  <defs
     id="defs4">
    <linearGradient
       id="0"
       x1="-74.929"
       y1="52.2"
       x2="-75.26"
       y2="2.356"
       gradientUnits="userSpaceOnUse"
       gradientTransform="matrix(1.07499,0,0,1.02929,113.079,0.073)">
      <stop
         stop-color="#dc3c30"
         id="stop7" />
      <stop
         offset="1"
         stop-color="#ff786d"
         id="stop9" />
    </linearGradient>
  </defs>
  <rect
     style="fill:#ff5555;stroke-width:1"
     id="rect13"
     rx="3.5939908"
     y="0.37806776"
     x="0.50847554"
     height="52.936775"
     width="63.254234" />
  <path
     d="m 44.687949,32.203694 -17.951729,3.355373 0,24.609983 17.951729,3.355373 0,-31.322034 m 1.05584,4.475136 0,1.118458 11.616694,0 0,14.542558 1.055839,0 0,-14.542558 0,-1.118458 -1.055839,0 -11.616694,0 m 0,2.236915 0,2.411796 c 0.337572,-0.09266 0.691161,-0.174881 1.055839,-0.174881 l 0,4.475136 4.224588,0 c 0,2.47183 -1.891147,4.475136 -4.224588,4.475136 -0.36591,0 -0.718267,-0.08222 -1.055839,-0.174882 l 0,1.293339 7.392105,0 0,1.118457 -7.392105,0 0,2.236916 7.392105,0 0,1.118457 -7.392105,0 0,3.355373 10.559623,0 0,-20.136153 -10.559623,0 m 2.111678,1.118458 c 2.333441,0 4.224588,2.003306 4.224588,4.475136 l -4.224588,0 0,-4.475136 m -11.74852,2.517509 c 1.058303,0.01958 1.595462,0.24144 2.046381,0.699526 0.587672,0.596423 0.831612,1.380779 0.825452,2.761558 -0.01109,2.266933 -1.287459,3.671204 -3.300576,3.671204 l -0.758923,0 -0.06653,1.817983 -0.03327,1.85322 -0.792187,-0.07047 -0.825452,-0.03524 0,-5.279069 0,-5.279067 1.649672,-0.104403 c 0.487879,-0.02871 0.901836,-0.04176 1.254193,-0.03524 m -1.220929,1.887153 0,1.607864 c 0,0.882237 0.07515,1.653543 0.131826,1.713576 0.16509,0.174882 0.623401,0.144865 1.187665,-0.104403 0.685002,-0.30278 0.99547,-1.250272 0.725658,-2.202983 -0.198355,-0.702136 -0.639417,-1.014051 -1.484581,-1.014051 l -0.560568,0"
     id="path15"
     inkscape:connector-curvature="0"
     style="color:#000000;fill:#ffaaaa;fill-opacity:0.85" />
</svg>
