<?xml version="1.0" encoding="UTF-8" standalone="no"?>
<svg
   xmlns:dc="http://purl.org/dc/elements/1.1/"
   xmlns:cc="http://creativecommons.org/ns#"
   xmlns:rdf="http://www.w3.org/1999/02/22-rdf-syntax-ns#"
   xmlns:svg="http://www.w3.org/2000/svg"
   xmlns="http://www.w3.org/2000/svg"
   xmlns:sodipodi="http://sodipodi.sourceforge.net/DTD/sodipodi-0.dtd"
   xmlns:inkscape="http://www.inkscape.org/namespaces/inkscape"
   viewBox="0 0 64 64"
   id="svg2"
   version="1.1"
   inkscape:version="0.91 r13725"
   sodipodi:docname="libreoffice-drawing-template.svg">
  <metadata
     id="metadata19">
    <rdf:RDF>
      <cc:Work
         rdf:about="">
        <dc:format>image/svg+xml</dc:format>
        <dc:type
           rdf:resource="http://purl.org/dc/dcmitype/StillImage" />
        <dc:title></dc:title>
      </cc:Work>
    </rdf:RDF>
  </metadata>
  <sodipodi:namedview
     pagecolor="#ffffff"
     bordercolor="#666666"
     borderopacity="1"
     objecttolerance="10"
     gridtolerance="10"
     guidetolerance="10"
     inkscape:pageopacity="0"
     inkscape:pageshadow="2"
     inkscape:window-width="1280"
     inkscape:window-height="694"
     id="namedview17"
     showgrid="true"
     inkscape:zoom="3.6875"
     inkscape:cx="-12.20339"
     inkscape:cy="32"
     inkscape:window-x="0"
     inkscape:window-y="0"
     inkscape:window-maximized="1"
     inkscape:current-layer="svg2">
    <inkscape:grid
       type="xygrid"
       id="grid4147" />
  </sodipodi:namedview>
  <defs
     id="defs4">
    <linearGradient
       id="0"
       x1="-74.929"
       y1="52.2"
       x2="-75.26"
       y2="2.356"
       gradientUnits="userSpaceOnUse"
       gradientTransform="matrix(1.5454017,0,0,0.90017013,148.69446,-0.80338067)">
      <stop
         stop-color="#8798a9"
         id="stop7" />
      <stop
         offset="1"
         stop-color="#aeb6be"
         id="stop9" />
    </linearGradient>
  </defs>
  <rect
     style="fill:url(#0)"
     id="rect13"
     rx="3.5939908"
     width="63.254234"
     height="52.936779"
     x="0.50847554"
     y="0.6492542" />
  <path
     style="fill:#373e44"
     inkscape:connector-curvature="0"
     id="path15"
     d="m 30.493063,62.397891 10.088518,0 0,1.240998 3.668411,0 0,-1.240998 10.131842,0 0,1.403148 3.668411,0 0,-3.474533 -1.353568,0 0,-9.71726 1.31017,0 0,-3.474532 -1.31017,0 0,-9.021183 1.353645,0 0,-3.474532 -3.668411,0 0,0.706776 -10.131842,0 0,-1.240925 -3.668411,0 0,1.240925 -10.088518,0 0,-0.868706 -3.668413,0 0,3.474532 1.310169,0 0,9.183113 -1.310169,0 0,3.474532 1.310169,0 0,9.55533 -1.310169,0 0,3.474533 3.668413,0 0,-1.240999 m -1.048074,0 0,0.248244 -1.572265,0 0,-1.489169 0.262095,0 1.048151,0 0.262096,0 0,0.248244 0,0.992681 z m 12.184975,-27.052555 0,-0.248243 1.572265,0 0,0.248243 0,0.519129 0,0.473553 0,0.248171 -1.572265,0 0,-0.248171 0,-0.473553 0,-0.519129 m 1.572265,27.052555 0,0.248244 -1.572265,0 0,-0.248244 0,-0.519128 0,-0.47348 0,-0.248244 1.572265,0 0,0.248244 0,0.47348 0,0.519128 m 0.174601,-12.967582 c 0.10188,0.09694 0.10188,0.253958 0,0.350896 -0.05168,0.04843 -0.118208,0.07269 -0.185741,0.07269 -0.06653,0 -0.13391,-0.02425 -0.185354,-0.07269 l -0.589561,-0.558474 -0.589639,0.558474 c -0.05144,0.04843 -0.11843,0.07269 -0.185508,0.07269 -0.06707,0 -0.134065,-0.02425 -0.185587,-0.07269 -0.102036,-0.09694 -0.102036,-0.253958 0,-0.350896 l 0.589638,-0.558475 -0.589638,-0.558476 c -0.102036,-0.09664 -0.102036,-0.254251 0,-0.35097 0.102115,-0.09672 0.26844,-0.09672 0.370555,0 l 0.590101,0.558475 0.589562,-0.558475 c 0.102349,-0.09672 0.268206,-0.09672 0.370554,0 0.10235,0.09672 0.10235,0.254252 0,0.35097 l -0.589638,0.558476 0.590102,0.558475 m 13.626193,13.377902 -1.572188,0 0,-0.410027 0,-0.992681 0,-0.08631 0.218542,0 1.048151,0 0.305495,0 0,1.489096 z m -2.620339,-2.481777 0,1.079069 -8.207897,0 c 4.574297,-1.228397 8.177726,-4.641015 9.47428,-8.974289 l 0,7.895 -1.266693,0 m 2.576862,-10.710089 -0.262018,0 -0.548096,0 -0.499978,0 -0.262018,0 0,-1.48917 0.262018,0 0.499978,0 0.548096,0 0.262018,0 0,1.48917 m -1.528633,-13.98459 1.266615,0 0.305495,0 0,1.489169 -0.305495,0 -1.048151,0 -0.218541,0 0,-0.782393 0,-0.706776 z m -1.048151,0.706776 0,1.775367 1.266615,0 0,7.198921 C 54.352127,40.979544 50.749007,37.567292 46.17471,36.33853 l 8.207897,0 z m -26.508955,-0.86878 0.262096,0 1.310169,0 0,0.868706 0,0.620463 -0.262095,0 -1.048152,0 -0.262095,0 0,-1.489169 z m 2.620339,2.481924 0,-1.613437 8.163801,0 c -4.574297,1.228469 -8.176953,4.641015 -9.47428,8.973555 l 0,-7.360118 1.310169,0 m -2.620338,10.175941 0.262095,0 0.548096,0 0.499978,0 0.262095,0 0,1.489169 -0.262095,0 -0.499978,0 -0.548096,0 -0.262095,0 0,-1.489169 m 1.310169,4.304111 c 1.297173,4.333275 4.899983,7.745526 9.47428,8.974289 l -8.163801,0 0,-1.240998 -1.310169,0 0,-7.73307" />
</svg>
