<?xml version="1.0" encoding="UTF-8" standalone="no"?>
<svg
   xmlns:dc="http://purl.org/dc/elements/1.1/"
   xmlns:cc="http://creativecommons.org/ns#"
   xmlns:rdf="http://www.w3.org/1999/02/22-rdf-syntax-ns#"
   xmlns:svg="http://www.w3.org/2000/svg"
   xmlns="http://www.w3.org/2000/svg"
   xmlns:sodipodi="http://sodipodi.sourceforge.net/DTD/sodipodi-0.dtd"
   xmlns:inkscape="http://www.inkscape.org/namespaces/inkscape"
   viewBox="0 0 64 64"
   id="svg2"
   version="1.1"
   inkscape:version="0.91 r13725"
   sodipodi:docname="text-x-lilypond.svg">
  <metadata
     id="metadata19">
    <rdf:RDF>
      <cc:Work
         rdf:about="">
        <dc:format>image/svg+xml</dc:format>
        <dc:type
           rdf:resource="http://purl.org/dc/dcmitype/StillImage" />
        <dc:title></dc:title>
      </cc:Work>
    </rdf:RDF>
  </metadata>
  <sodipodi:namedview
     pagecolor="#ffffff"
     bordercolor="#666666"
     borderopacity="1"
     objecttolerance="10"
     gridtolerance="10"
     guidetolerance="10"
     inkscape:pageopacity="0"
     inkscape:pageshadow="2"
     inkscape:window-width="1280"
     inkscape:window-height="694"
     id="namedview17"
     showgrid="true"
     inkscape:zoom="3.6875"
     inkscape:cx="-12.20339"
     inkscape:cy="32"
     inkscape:window-x="0"
     inkscape:window-y="0"
     inkscape:window-maximized="1"
     inkscape:current-layer="svg2">
    <inkscape:grid
       type="xygrid"
       id="grid4137" />
  </sodipodi:namedview>
  <defs
     id="defs4">
    <linearGradient
       id="0"
       x1="-73.69"
       y1="60.12"
       x2="-75.26"
       y2="2.356"
       gradientUnits="userSpaceOnUse"
       gradientTransform="matrix(1.07499,0,0,1.02929,113.082,0.074)">
      <stop
         stop-color="#d1d7df"
         id="stop7" />
      <stop
         offset="1"
         stop-color="#eaf0f2"
         id="stop9" />
    </linearGradient>
  </defs>
  <rect
     style="fill:#dbe2e3"
     id="rect13"
     rx="3.5939908"
     y="0.65025425"
     x="0.51047444"
     height="52.665592"
     width="63.254234" />
  <path
     style="fill:#374548;stroke:none;stroke-width:0.071;stroke-opacity:0.8"
     inkscape:connector-curvature="0"
     id="path15"
     d="M 42.31258,36.856638 30.779066,50.810317 c -2.161984,2.615407 -1.557156,7.276305 1.209655,9.319722 2.769012,2.043417 7.697807,1.471425 9.861991,-1.143982 l 11.533513,-13.953679 1.440589,-1.744987 c 1.44279,-1.744986 1.038105,-4.851561 -0.80717,-6.213148 -1.845274,-1.36366 -5.133337,-0.98026 -6.573927,0.762655 l -1.442789,1.744987 -8.650135,10.465777 -1.442789,1.744987 c -0.721395,0.872493 -0.519052,2.424745 0.402485,3.106573 0.923737,0.68183 2.566669,0.491168 3.288064,-0.381326 l 10.092924,-12.208691 1.845274,1.363658 -10.092924,12.208692 c -1.442789,1.744987 -4.728653,2.126314 -6.573927,0.762655 -1.845274,-1.36366 -2.249958,-4.470234 -0.80717,-6.213149 l 1.442789,-1.744987 10.092924,-12.208691 c 2.161984,-2.615407 7.092979,-3.187399 9.86199,-1.143981 2.769012,2.043416 3.373839,6.704314 1.211856,9.319721 l -1.44279,1.744988 -11.533513,13.953678 c -2.883378,3.487901 -9.457305,4.250556 -13.147854,1.525309 -3.690548,-2.725246 -4.497719,-8.938394 -1.61434,-12.428369 L 40.467305,35.495051 42.31258,36.85871" />
</svg>
