<?xml version="1.0" encoding="UTF-8" standalone="no"?>
<svg
   xmlns:dc="http://purl.org/dc/elements/1.1/"
   xmlns:cc="http://creativecommons.org/ns#"
   xmlns:rdf="http://www.w3.org/1999/02/22-rdf-syntax-ns#"
   xmlns:svg="http://www.w3.org/2000/svg"
   xmlns="http://www.w3.org/2000/svg"
   xmlns:sodipodi="http://sodipodi.sourceforge.net/DTD/sodipodi-0.dtd"
   xmlns:inkscape="http://www.inkscape.org/namespaces/inkscape"
   viewBox="0 0 48 48"
   id="svg2"
   version="1.1"
   inkscape:version="0.91 r13725"
   sodipodi:docname="applications-education-language.svg">
  <metadata
     id="metadata33">
    <rdf:RDF>
      <cc:Work
         rdf:about="">
        <dc:format>image/svg+xml</dc:format>
        <dc:type
           rdf:resource="http://purl.org/dc/dcmitype/StillImage" />
        <dc:title></dc:title>
      </cc:Work>
    </rdf:RDF>
  </metadata>
  <sodipodi:namedview
     pagecolor="#ffffff"
     bordercolor="#666666"
     borderopacity="1"
     objecttolerance="10"
     gridtolerance="10"
     guidetolerance="10"
     inkscape:pageopacity="0"
     inkscape:pageshadow="2"
     inkscape:window-width="1280"
     inkscape:window-height="694"
     id="namedview31"
     showgrid="false"
     inkscape:zoom="4.9166667"
     inkscape:cx="-12.796725"
     inkscape:cy="24"
     inkscape:window-x="0"
     inkscape:window-y="0"
     inkscape:window-maximized="1"
     inkscape:current-layer="svg2" />
  <defs
     id="defs4">
    <linearGradient
       id="0"
       gradientUnits="userSpaceOnUse"
       x1="-32.727"
       y1="77.6"
       x2="-32.406"
       y2="29.08"
       gradientTransform="matrix(0.99999,0,0,0.99999,56.629,-29.12)">
      <stop
         stop-color="#0a80fd"
         id="stop7" />
      <stop
         offset="1"
         stop-color="#56c5fa"
         id="stop9" />
    </linearGradient>
  </defs>
  <g
     id="g3"
     transform="matrix(0.09618723,0,0,0.11445197,0.40673916,-4.0926413)">
    <g
       id="g5">
      <g
         id="g7">
        <path
           d="m 151.684,153.592 c 12,-9.333 18.667,-14 20,-14 l 33,-2 6.5,6 c 4.333,4 9.5,7.5 15.5,10.5 6,3 10.667,3.167 14,0.5 4.669,-2.667 7.667,-6.333 9,-11 -1.332,-3.336 -6.667,-7.669 -16,-13 -2.667,-2 -6,-5 -10,-9 -4,-4 -8,-6.667 -12,-8 -4.667,-0.667 -11.167,-1.167 -19.5,-1.5 -8.333,-0.333 -13.5,-0.5 -15.5,-0.5 -1.334,-0.667 -7.667,0.833 -19,4.5 -11.333,3.667 -21,7.5 -29,11.5 -4.667,2.656 -4.667,2.323 0,-1 18,-13.333 28.667,-22.333 32,-27 10,-2.667 17,-5 21,-7 4,-2 8,-3.667 12,-5 12.667,-2 19.667,-3.333 21,-4 4.667,-1.333 8,-4.333 10,-9 2,-4.667 1,-8.667 -3,-12 -2.667,-1.333 -5.333,-1.833 -8,-1.5 -2.667,0.333 -7,1 -13,2 -6,1 -10.667,1.5 -14,1.5 -8.667,0.667 -22.333,6.334 -41,17 -6.667,3.333 -14.167,8.333 -22.5,15 -8.333,6.669 -13.167,10.336 -14.5,11 -8.667,6.667 0,-6 26,-38 1.333,-1.339 2.833,-3.173 4.5,-5.5 1.667,-2.34 3.167,-4.173 4.5,-5.5 2,-3.336 2.833,-6.67 2.5,-10 -0.333,-3.334 -1.5,-6.167 -3.5,-8.5 -2,-2.346 -3.667,-3.18 -5,-2.5 -1.334,0.667 -3.668,3.167 -7,7.5 -3.333,4.333 -6,7.167 -8,8.5 -0.667,0 -1.833,1.167 -3.5,3.5 -1.667,2.333 -3.834,5.167 -6.5,8.5 -2.667,3.333 -5,6 -7,8 -0.667,1.333 -2.667,3.5 -6,6.5 -3.333,3 -6,5.833 -8,8.5 -2.667,4 -5.667,9.167 -9,15.5 -3.333,6.333 -6,10.833 -8,13.5 -1.333,1.333 -3.333,3.5 -6,6.5 -2.667,3 -4.667,5.833 -6,8.5 -6.667,13.333 -12.667,29 -18,47 -5.333,18 -11.667,32 -19,42 -2.667,4.667 -10.667,10.333 -24,17 -5.333,44.667 2,80.667 22,108 14.667,-8.668 26.5,-14.334 35.5,-17 9,-2.668 19.833,-4 32.5,-4 3.334,0.666 7.667,1.666 13,3 5.334,1.332 9.667,2 13,2 0.667,-0.668 8.667,-3 24,-7 4.667,-2 10.834,-4.334 18.5,-7 7.667,-2.668 13.834,-5 18.5,-7 2.667,-0.668 6.834,-1.668 12.5,-3 5.667,-1.334 10.5,-2.668 14.5,-4 1.333,-0.668 3,-1 5,-1 1.333,-0.668 2.333,-1.5 3,-2.5 0.667,-1 1.667,-2.168 3,-3.5 2.667,-3.334 5,-8.334 7,-15 2,-6.668 3.667,-11.668 5,-15 4.667,-9.334 7.167,-15.668 7.5,-19 0.333,-3.333 -0.833,-5.333 -3.5,-6 2.667,-8.667 3.667,-17.667 3,-27 0,-2.667 0.167,-5.167 0.5,-7.5 0.333,-2.337 0,-4.671 -1,-7 -1,-2.337 -2.833,-4.171 -5.5,-5.5 -26,-20.667 -40.333,-31 -43,-31 -26.667,0.667 -44,3.667 -52,9 -1.592,0.796 -2.576,1.349 -2.98,1.669 -0.012,0.127 -0.02,0.24 -0.02,0.331 -0.269,0 -0.253,-0.114 0.02,-0.331 0.078,-0.811 0.404,-2.365 0.98,-4.669 0.667,-0.666 7,-5.666 19,-15 z m -19.5,64 c 0.333,-0.667 0.833,-1.5 1.5,-2.5 0.667,-1 1.5,-1.833 2.5,-2.5 1,-0.667 2.167,-1.333 3.5,-2 3.333,-2.663 8.166,-4.829 14.5,-6.5 6.333,-1.667 14.5,-5.167 24.5,-10.5 l 1,1 c 0.667,0.667 1.833,1.667 3.5,3 1.667,1.333 3.667,2.833 6,4.5 2.333,1.667 5,3.167 8,4.5 3,1.329 6.167,2.663 9.5,4 l 1.5,5.5 c 1,3.667 2.667,8 5,13 2.333,5 4.833,8.833 7.5,11.5 -6.666,4.667 -11.832,9.667 -15.5,15 -3.667,5.332 -6,9.332 -7,12 -1,2.666 -1.833,4 -2.5,4 -17.333,-2.668 -32.333,-1.668 -45,3 -3.333,-6.668 -7.667,-12.334 -13,-17 -5.333,-4.668 -9,-8.334 -11,-11 -2,-2.667 -2.333,-6.333 -1,-11 0.667,-1.333 1.333,-3.333 2,-6 0.667,-2.667 1.167,-4.333 1.5,-5 0.333,-0.667 0.833,-1.833 1.5,-3.5 0.667,-1.667 1.167,-2.833 1.5,-3.5 z"
           id="path9"
           inkscape:connector-curvature="0"
           style="fill:#006df0" />
        <path
           d="m 491.684,212.594 c -0.666,-6 -1.5,-11.667 -2.5,-17 -1,-5.334 -2.166,-10.167 -3.5,-14.5 -1.332,-4.333 -2.832,-8.5 -4.5,-12.5 -1.666,-4 -3.166,-7.333 -4.5,-10 -1.332,-2.667 -2.666,-4.833 -4,-6.5 -1.332,-1.667 -2.332,-3 -3,-4 l -1,-1.5 c -14,8 -25.5,13.5 -34.5,16.5 -9,3 -20.166,4.167 -33.5,3.5 -2.666,0 -6.666,-0.667 -12,-2 -5.332,-1.333 -10,-2 -14,-2 -2,0 -10,2.667 -24,8 -4.666,1.333 -10.83,3.333 -18.498,6 -7.668,2.667 -13.836,5 -18.5,7 -2.668,0.667 -6.835,1.5 -12.499,2.5 -5.666,1 -10.166,2.167 -13.5,3.5 -1.332,0.671 -2.832,1.338 -4.5,2 -1.666,0.667 -3,1.5 -4,2.5 -1,1 -1.832,2.167 -2.5,3.5 -2.666,3.333 -5,8.167 -7,14.5 -2,6.333 -4,11.5 -6,15.5 -4.666,9.334 -7,15.667 -7,18.999 0,3.334 1.334,5.334 4,6 -3.332,8.668 -4.666,17.668 -4,27 0.668,2.668 0.834,5.168 0.5,7.5 -0.332,2.334 0,4.5 1,6.5 1,2 2.834,4 5.5,6 26.668,20 41,30.334 43,31 27.333,-1.332 44.665,-4.666 51.997,-10 l 3,-1 c 0.668,-0.666 0.334,1 -1,5 -0.666,0.668 -7,5.5 -18.998,14.5 -12,9 -19,13.5 -21,13.5 l -31.999,3 -7,-6.5 c -4.668,-4.332 -9.834,-7.832 -15.5,-10.5 -5.666,-2.666 -10.5,-2.666 -14.5,0 -4,2.668 -7,6.334 -9,11 1.333,2.668 7,7.334 17,14 2.668,1.334 6,4 10,8 4,4 8,6.668 12,8 4.668,0.668 11.168,1 19.5,1 8.336,0 13.17,0.334 14.499,1 2,0 8.669,-1.832 20,-5.5 11.332,-3.666 20.998,-7.5 28.998,-11.5 4.668,-2.666 4.668,-2 0,2 -18,13.334 -28.664,22 -31.998,26 -10,3.334 -17,6 -21,8 -4,2 -7.999,3.334 -11.999,4 -12.666,2.668 -19.666,4.334 -21,5 -4.666,1.334 -8,4.168 -10,8.5 -2,4.334 -1.332,8.168 2,11.5 3.338,1.334 6.172,1.834 8.5,1.5 2.334,-0.332 6.5,-1 12.5,-2 6,-1 11,-1.5 15,-1.5 7.334,0 20.999,-5.332 40.997,-16 4.668,-2.666 9.168,-5.666 13.5,-9 4.336,-3.332 8.671,-6.832 13,-10.5 4.334,-3.666 7.5,-6.166 9.5,-7.5 9.332,-6 0.666,7 -26,39 -0.678,1.334 -1.844,3 -3.5,5 -1.666,2 -3.5,4 -5.5,5.999 -2,3.335 -2.666,6.669 -2,10 0.668,3.335 1.834,6.169 3.5,8.498 1.668,2.339 3.5,2.839 5.5,1.5 1.334,-0.661 3.5,-3 6.5,-6.998 3,-4 5.5,-6.665 7.5,-8 0.668,-0.665 1.834,-2 3.5,-4 1.668,-1.999 3.834,-4.665 6.5,-7.999 2.668,-3.332 5,-6 7,-8 l 7.5,-7.5 c 3,-3 5.168,-5.5 6.5,-7.5 3.342,-4 6.676,-9.166 10,-15.5 3.334,-6.332 6,-11.166 8,-14.5 0.668,-0.666 2.334,-2.5 5,-5.5 2.668,-3 5,-5.832 7,-8.5 6.668,-13.332 12.5,-29.167 17.5,-47.5 5,-18.332 11.168,-32.5 18.5,-42.5 3.334,-4 11.334,-9.332 24,-16 1.334,-7.333 2,-14.667 2,-22 0,-7.333 -0.332,-13.999 -1,-19.999 z m -124,43.998 c -3.332,10 -5.5,16 -6.5,18 -1,2 -3.5,4.668 -7.5,8 -4,2.666 -9.166,4.832 -15.498,6.5 -6.332,1.668 -14.163,5.168 -23.5,10.5 l -3,-3 c -2,-2 -5.499,-4.5 -10.499,-7.5 -5,-3 -9.832,-5.166 -14.5,-6.5 l 0,-1 c 0,-0.666 -0.166,-1.332 -0.5,-2 -0.328,-0.666 -0.662,-1.666 -1,-3 -0.332,-1.332 -0.832,-2.664 -1.5,-4 -0.666,-1.332 -1.166,-2.664 -1.5,-4 -0.332,-1.332 -0.832,-2.832 -1.5,-4.5 -0.666,-1.666 -1.5,-3.166 -2.5,-4.5 l -3,-4 c -1,-1.332 -1.832,-2.332 -2.5,-3 6,-4.667 11,-9.667 15,-15 4,-5.333 6.5,-9.333 7.5,-12 1,-2.667 1.834,-4 2.5,-4 17.999,2 32.667,0.667 43.999,-4 3.998,7.333 8.498,13.333 13.498,18 5,4.666 8.668,8.332 11,10.999 2.334,2.669 2.834,6.001 1.5,10.001 z"
           id="path11"
           inkscape:connector-curvature="0"
           style="fill:#006df0" />
      </g>
    </g>
  </g>
</svg>
