<?xml version="1.0" encoding="UTF-8" standalone="no"?>
<!-- Generator: Adobe Illustrator 12.0.0, SVG Export Plug-In . SVG Version: 6.00 Build 51448)  -->

<svg
   xmlns:dc="http://purl.org/dc/elements/1.1/"
   xmlns:cc="http://creativecommons.org/ns#"
   xmlns:rdf="http://www.w3.org/1999/02/22-rdf-syntax-ns#"
   xmlns:svg="http://www.w3.org/2000/svg"
   xmlns="http://www.w3.org/2000/svg"
   xmlns:sodipodi="http://sodipodi.sourceforge.net/DTD/sodipodi-0.dtd"
   xmlns:inkscape="http://www.inkscape.org/namespaces/inkscape"
   version="1.1"
   id="图层_1"
   width="248"
   height="248"
   viewBox="0 0 248 248"
   style="overflow:visible;enable-background:new 0 0 248 248;"
   xml:space="preserve"
   inkscape:version="0.91 r13725"
   sodipodi:docname="face-kiss.svg"><metadata
     id="metadata23"><rdf:RDF><cc:Work
         rdf:about=""><dc:format>image/svg+xml</dc:format><dc:type
           rdf:resource="http://purl.org/dc/dcmitype/StillImage" /><dc:title></dc:title></cc:Work></rdf:RDF></metadata><defs
     id="defs21" /><sodipodi:namedview
     pagecolor="#ffffff"
     bordercolor="#666666"
     borderopacity="1"
     objecttolerance="10"
     gridtolerance="10"
     guidetolerance="10"
     inkscape:pageopacity="0"
     inkscape:pageshadow="2"
     inkscape:window-width="1280"
     inkscape:window-height="694"
     id="namedview19"
     showgrid="false"
     inkscape:zoom="0.9516129"
     inkscape:cx="-47.288136"
     inkscape:cy="124"
     inkscape:window-x="0"
     inkscape:window-y="0"
     inkscape:window-maximized="1"
     inkscape:current-layer="图层_1" /><circle
     style="fill:#ffdd55"
     cx="124"
     cy="124"
     r="124"
     id="circle3" /><path
     style="fill:none;stroke:#000000;stroke-width:13;stroke-linecap:round;"
     d="M42.667,83.668  c0-17.305,13.631-31.333,30.446-31.333c16.815,0,30.447,14.028,30.447,31.333"
     id="path5" /><path
     style="fill:none;stroke:#000000;stroke-width:13;stroke-linecap:round;"
     d="M137.975,83.668  c0-17.305,13.63-31.333,30.446-31.333c16.815,0,30.446,14.028,30.446,31.333"
     id="path7" /><path
     inkscape:connector-curvature="0"
     id="path11"
     d="m 156.97,209.924 c -12.114,12.613 -17.899,24.224 -31.295,24.224 -18.188,0 -35.446,-33.583 -59.675,-50.934 0,0 32.333,-60.835 58.667,-10.374 0,0 16,-50.934 65.333,5.659 -17.513,15.442 -17.647,15.406 -33.03,31.425 z"
     style="fill:#ff2a2a" /><path
     inkscape:connector-curvature="0"
     id="path13"
     d="M 124.667,172.84 C 98.333,122.379 66,183.214 66,183.214 c 0.37,0.393 0.739,0.794 1.109,1.19 14.923,4.564 33.897,7.299 54.558,7.299 27.37,0 51.783,-4.797 67.731,-12.295 0.393,-0.588 0.602,-0.909 0.602,-0.909 -49.333,-56.593 -65.333,-5.659 -65.333,-5.659 z"
     style="fill:#ff2a2a" /><circle
     cx="210.376"
     cy="108.286"
     r="5"
     id="circle17"
     style="fill:#2b2200" /></svg>