<?xml version="1.0" encoding="UTF-8" standalone="no"?>
<svg
   xmlns:dc="http://purl.org/dc/elements/1.1/"
   xmlns:cc="http://creativecommons.org/ns#"
   xmlns:rdf="http://www.w3.org/1999/02/22-rdf-syntax-ns#"
   xmlns:svg="http://www.w3.org/2000/svg"
   xmlns="http://www.w3.org/2000/svg"
   xmlns:sodipodi="http://sodipodi.sourceforge.net/DTD/sodipodi-0.dtd"
   xmlns:inkscape="http://www.inkscape.org/namespaces/inkscape"
   viewBox="0 0 48 48"
   id="svg2"
   version="1.1"
   inkscape:version="0.91 r13725"
   sodipodi:docname="media-optical-recordable.svg">
  <metadata
     id="metadata24">
    <rdf:RDF>
      <cc:Work
         rdf:about="">
        <dc:format>image/svg+xml</dc:format>
        <dc:type
           rdf:resource="http://purl.org/dc/dcmitype/StillImage" />
        <dc:title></dc:title>
      </cc:Work>
    </rdf:RDF>
  </metadata>
  <sodipodi:namedview
     pagecolor="#ffffff"
     bordercolor="#666666"
     borderopacity="1"
     objecttolerance="10"
     gridtolerance="10"
     guidetolerance="10"
     inkscape:pageopacity="0"
     inkscape:pageshadow="2"
     inkscape:window-width="1280"
     inkscape:window-height="694"
     id="namedview22"
     showgrid="false"
     inkscape:zoom="4.9166667"
     inkscape:cx="-9.1525424"
     inkscape:cy="24"
     inkscape:window-x="0"
     inkscape:window-y="0"
     inkscape:window-maximized="1"
     inkscape:current-layer="svg2" />
  <defs
     id="defs4">
    <linearGradient
       y2="506.8"
       x2="408.57"
       y1="544.88"
       x1="408.26"
       gradientTransform="matrix(1.52928 0 0 1.52941-592.82-769.1)"
       gradientUnits="userSpaceOnUse"
       id="0">
      <stop
         stop-color="#f0a23a"
         id="stop7" />
      <stop
         offset="1"
         stop-color="#fde46a"
         id="stop9" />
    </linearGradient>
    <linearGradient
       id="1"
       gradientUnits="userSpaceOnUse"
       y1="41"
       x2="0"
       y2="23">
      <stop
         stop-color="#ffffb0"
         id="stop12" />
      <stop
         offset="1"
         stop-color="#fbfbf6"
         id="stop14" />
    </linearGradient>
  </defs>
  <path
     transform="matrix(.92308 0 0 .92308-5.534-5.541)"
     d="m32 6c-14.403 0-25.998 11.596-25.998 26 0 14.404 11.595 26 25.998 26 14.403 0 25.998-11.596 25.998-26 0-14.404-11.595-26-25.998-26m0 23c1.662 0 3 1.338 3 3 0 1.662-1.338 3-3 3-1.662 0-3-1.338-3-3 0-1.662 1.338-3 3-3z"
     fill="url(#0)"
     id="path16"
     style="fill:#ffdd55" />
</svg>
