<?xml version="1.0" encoding="UTF-8" standalone="no"?>
<svg
   xmlns:dc="http://purl.org/dc/elements/1.1/"
   xmlns:cc="http://creativecommons.org/ns#"
   xmlns:rdf="http://www.w3.org/1999/02/22-rdf-syntax-ns#"
   xmlns:svg="http://www.w3.org/2000/svg"
   xmlns="http://www.w3.org/2000/svg"
   xmlns:sodipodi="http://sodipodi.sourceforge.net/DTD/sodipodi-0.dtd"
   xmlns:inkscape="http://www.inkscape.org/namespaces/inkscape"
   viewBox="0 0 64 64"
   id="svg2"
   version="1.1"
   inkscape:version="0.91 r13725"
   sodipodi:docname="battery-charging-low.svg">
  <metadata
     id="metadata19">
    <rdf:RDF>
      <cc:Work
         rdf:about="">
        <dc:format>image/svg+xml</dc:format>
        <dc:type
           rdf:resource="http://purl.org/dc/dcmitype/StillImage" />
        <dc:title></dc:title>
      </cc:Work>
    </rdf:RDF>
  </metadata>
  <sodipodi:namedview
     pagecolor="#ffffff"
     bordercolor="#666666"
     borderopacity="1"
     objecttolerance="10"
     gridtolerance="10"
     guidetolerance="10"
     inkscape:pageopacity="0"
     inkscape:pageshadow="2"
     inkscape:window-width="1280"
     inkscape:window-height="694"
     id="namedview17"
     showgrid="false"
     inkscape:zoom="3.6875"
     inkscape:cx="-12.20339"
     inkscape:cy="32"
     inkscape:window-x="0"
     inkscape:window-y="0"
     inkscape:window-maximized="1"
     inkscape:current-layer="svg2" />
  <defs
     id="defs4">
    <linearGradient
       id="0"
       x1="763.57"
       y1="223.34"
       x2="763.35"
       y2="167.27"
       gradientUnits="userSpaceOnUse"
       gradientTransform="matrix(0.92857,0,0,0.92857,-676.94,-149.37)">
      <stop
         stop-color="#dc3c30"
         id="stop7" />
      <stop
         offset="1"
         stop-color="#ff786d"
         id="stop9" />
    </linearGradient>
  </defs>
  <g
     id="g4149"
     transform="matrix(1.6901274,0,0,1.2190278,-21.94847,-7.0087163)">
    <path
       d="m 25.207491,5.9983324 c -0.737284,0 -1.206212,0.5970705 -1.206212,1.3334265 l 0,4.0012081 -9.460271,0 c -0.737285,0 -1.206213,0.597071 -1.206213,1.333427 l 0,35.99973 0,8.000559 c 0,0.736356 0.482857,1.333427 1.219213,1.333427 l 34.663518,0 c 0.736356,0 1.44764,-0.597071 1.44764,-1.333427 l 0,-8.000559 0,-35.99973 c 0,-0.736356 -0.724284,-1.333427 -1.459712,-1.333427 l -9.205843,0 0,-4.0012081 c 0,-0.736356 -0.724284,-1.3334265 -1.459712,-1.3334265 l -13.334265,0"
       id="path13"
       style="fill:#ff5555"
       inkscape:connector-curvature="0" />
    <path
       d="m 34.892476,20.62331 -11.57741,14.083621 7.812059,4.226851 -2.023354,9.85677 11.577411,-14.083621 -7.81206,-4.226851 z"
       id="path15"
       inkscape:connector-curvature="0"
       style="fill:#1c1f24;fill-opacity:0.90700001" />
  </g>
</svg>
