<?xml version="1.0" encoding="UTF-8" standalone="no"?>
<svg
   xmlns:dc="http://purl.org/dc/elements/1.1/"
   xmlns:cc="http://creativecommons.org/ns#"
   xmlns:rdf="http://www.w3.org/1999/02/22-rdf-syntax-ns#"
   xmlns:svg="http://www.w3.org/2000/svg"
   xmlns="http://www.w3.org/2000/svg"
   xmlns:sodipodi="http://sodipodi.sourceforge.net/DTD/sodipodi-0.dtd"
   xmlns:inkscape="http://www.inkscape.org/namespaces/inkscape"
   viewBox="0 0 64 64"
   id="svg2"
   version="1.1"
   inkscape:version="0.91 r13725"
   sodipodi:docname="battery-040.svg">
  <metadata
     id="metadata24">
    <rdf:RDF>
      <cc:Work
         rdf:about="">
        <dc:format>image/svg+xml</dc:format>
        <dc:type
           rdf:resource="http://purl.org/dc/dcmitype/StillImage" />
        <dc:title></dc:title>
      </cc:Work>
    </rdf:RDF>
  </metadata>
  <sodipodi:namedview
     pagecolor="#ffffff"
     bordercolor="#666666"
     borderopacity="1"
     objecttolerance="10"
     gridtolerance="10"
     guidetolerance="10"
     inkscape:pageopacity="0"
     inkscape:pageshadow="2"
     inkscape:window-width="1280"
     inkscape:window-height="694"
     id="namedview22"
     showgrid="false"
     inkscape:zoom="3.6875"
     inkscape:cx="-12.20339"
     inkscape:cy="32"
     inkscape:window-x="0"
     inkscape:window-y="0"
     inkscape:window-maximized="1"
     inkscape:current-layer="svg2" />
  <defs
     id="defs4">
    <linearGradient
       id="0"
       x1="23.796"
       y1="42.992"
       x2="24.07"
       y2="5.516"
       gradientUnits="userSpaceOnUse"
       gradientTransform="matrix(1.3334,0,0,1.3334,0.053,-0.664)">
      <stop
         stop-color="#dbdbdb"
         id="stop7" />
      <stop
         offset="1"
         stop-color="#fcf9f9"
         id="stop9" />
    </linearGradient>
    <linearGradient
       id="1"
       x1="24.812"
       y1="43.906"
       x2="24.375"
       y2="22.781"
       gradientUnits="userSpaceOnUse"
       gradientTransform="matrix(1.3334,0,0,1.3334,0.053,-0.664)">
      <stop
         stop-color="#49b903"
         id="stop12" />
      <stop
         offset="1"
         stop-color="#8cff07"
         id="stop14" />
    </linearGradient>
  </defs>
  <g
     id="g4154"
     transform="matrix(1.6900381,0,0,1.2138094,-21.968582,-6.7072266)">
    <path
       d="m 13.365666,56.6722 c 0,0.736037 0.484024,1.3334 1.220061,1.3334 l 34.6684,0 c 0.736036,0 1.446739,-0.597363 1.446739,-1.3334 l 0,-17.3342 -37.3352,0 0,17.3342"
       id="path18"
       style="fill:#00d455"
       inkscape:connector-curvature="0" />
    <path
       d="m 50.700866,39.338 0,-26.668 c 0,-0.736037 -0.724037,-1.3334 -1.460073,-1.3334 l -9.207127,0 0,-4.0002 c 0,-0.7360368 -0.724037,-1.3334 -1.460073,-1.3334 l -13.334,0 c -0.736037,0 -1.206727,0.5973632 -1.206727,1.3334 l 0,4.0002 -9.460473,0 c -0.736037,0 -1.206727,0.597363 -1.206727,1.3334 l 0,26.668 37.3352,0"
       id="path20"
       style="fill:#dbe2e3"
       inkscape:connector-curvature="0" />
  </g>
</svg>
