<?xml version="1.0" encoding="UTF-8" standalone="no"?>
<svg
   xmlns:dc="http://purl.org/dc/elements/1.1/"
   xmlns:cc="http://creativecommons.org/ns#"
   xmlns:rdf="http://www.w3.org/1999/02/22-rdf-syntax-ns#"
   xmlns:svg="http://www.w3.org/2000/svg"
   xmlns="http://www.w3.org/2000/svg"
   xmlns:sodipodi="http://sodipodi.sourceforge.net/DTD/sodipodi-0.dtd"
   xmlns:inkscape="http://www.inkscape.org/namespaces/inkscape"
   viewBox="0 0 64 64"
   id="svg2"
   version="1.1"
   inkscape:version="0.91 r13725"
   sodipodi:docname="battery-charging-040.svg">
  <metadata
     id="metadata28">
    <rdf:RDF>
      <cc:Work
         rdf:about="">
        <dc:format>image/svg+xml</dc:format>
        <dc:type
           rdf:resource="http://purl.org/dc/dcmitype/StillImage" />
        <dc:title></dc:title>
      </cc:Work>
    </rdf:RDF>
  </metadata>
  <sodipodi:namedview
     pagecolor="#ffffff"
     bordercolor="#666666"
     borderopacity="1"
     objecttolerance="10"
     gridtolerance="10"
     guidetolerance="10"
     inkscape:pageopacity="0"
     inkscape:pageshadow="2"
     inkscape:window-width="1280"
     inkscape:window-height="694"
     id="namedview26"
     showgrid="false"
     inkscape:zoom="3.6875"
     inkscape:cx="-12.20339"
     inkscape:cy="32"
     inkscape:window-x="0"
     inkscape:window-y="0"
     inkscape:window-maximized="1"
     inkscape:current-layer="svg2" />
  <defs
     id="defs4">
    <linearGradient
       id="0"
       x1="23.796"
       y1="42.992"
       x2="24.07"
       y2="5.516"
       gradientUnits="userSpaceOnUse"
       gradientTransform="matrix(1.3333301,0,0,1.3333301,0.0230565,-0.6658613)">
      <stop
         stop-color="#dbdbdb"
         id="stop7" />
      <stop
         offset="1"
         stop-color="#fcf9f9"
         id="stop9" />
    </linearGradient>
    <linearGradient
       id="1"
       x1="24.812"
       y1="43.906"
       x2="24.375"
       y2="22.781"
       gradientUnits="userSpaceOnUse"
       gradientTransform="matrix(1.3333301,0,0,1.3333301,0.0230565,-0.6658613)">
      <stop
         stop-color="#49b903"
         id="stop12" />
      <stop
         offset="1"
         stop-color="#8cff07"
         id="stop14" />
    </linearGradient>
  </defs>
  <g
     id="g4166"
     transform="matrix(1.6900743,0,0,1.2138206,-21.94792,-6.7068211)">
    <g
       id="g4162">
      <path
         d="m 13.335024,56.667333 c 0,0.735998 0.483999,1.33333 1.219997,1.33333 l 34.666583,0 c 0.735998,0 1.446663,-0.597332 1.446663,-1.33333 l 0,-17.333291 -37.333243,0 0,17.333291"
         id="path20"
         style="fill:#00d455"
         inkscape:connector-curvature="0" />
      <path
         d="m 50.668267,39.334042 0,-26.666602 c 0,-0.735999 -0.723998,-1.33333 -1.459996,-1.33333 l -9.206645,0 0,-3.9999907 c 0,-0.7359982 -0.723998,-1.3333301 -1.459996,-1.3333301 l -13.333301,0 c -0.735998,0 -1.206664,0.5973319 -1.206664,1.3333301 l 0,3.9999907 -9.459977,0 c -0.735998,0 -1.206664,0.597331 -1.206664,1.33333 l 0,26.666602 37.333243,0"
         id="path22"
         style="fill:#dbdee3"
         inkscape:connector-curvature="0" />
    </g>
    <path
       d="m 34.899786,20.631129 -11.576269,14.083052 7.8114,4.227263 -2.023265,9.855789 11.576268,-14.083052 -7.811399,-4.227263 z"
       id="path24"
       inkscape:connector-curvature="0"
       style="fill:#1c1f24;fill-opacity:0.69100001" />
  </g>
</svg>
