<?xml version="1.0" encoding="UTF-8" standalone="no"?>
<svg
   xmlns:dc="http://purl.org/dc/elements/1.1/"
   xmlns:cc="http://creativecommons.org/ns#"
   xmlns:rdf="http://www.w3.org/1999/02/22-rdf-syntax-ns#"
   xmlns:svg="http://www.w3.org/2000/svg"
   xmlns="http://www.w3.org/2000/svg"
   xmlns:sodipodi="http://sodipodi.sourceforge.net/DTD/sodipodi-0.dtd"
   xmlns:inkscape="http://www.inkscape.org/namespaces/inkscape"
   viewBox="0 0 64 64"
   id="svg2"
   version="1.1"
   inkscape:version="0.91 r13725"
   sodipodi:docname="battery-080.svg">
  <metadata
     id="metadata24">
    <rdf:RDF>
      <cc:Work
         rdf:about="">
        <dc:format>image/svg+xml</dc:format>
        <dc:type
           rdf:resource="http://purl.org/dc/dcmitype/StillImage" />
        <dc:title></dc:title>
      </cc:Work>
    </rdf:RDF>
  </metadata>
  <sodipodi:namedview
     pagecolor="#ffffff"
     bordercolor="#666666"
     borderopacity="1"
     objecttolerance="10"
     gridtolerance="10"
     guidetolerance="10"
     inkscape:pageopacity="0"
     inkscape:pageshadow="2"
     inkscape:window-width="1280"
     inkscape:window-height="694"
     id="namedview22"
     showgrid="false"
     inkscape:zoom="3.6875"
     inkscape:cx="-12.20339"
     inkscape:cy="32"
     inkscape:window-x="0"
     inkscape:window-y="0"
     inkscape:window-maximized="1"
     inkscape:current-layer="svg2" />
  <defs
     id="defs4">
    <linearGradient
       id="0"
       x1="24.01"
       y1="45.44"
       x2="23.978"
       y2="5.02"
       gradientUnits="userSpaceOnUse"
       gradientTransform="matrix(1.3334,0,0,1.3334,0.043,-0.664)">
      <stop
         stop-color="#dbdbdb"
         id="stop7" />
      <stop
         offset="1"
         stop-color="#fcf9f9"
         id="stop9" />
    </linearGradient>
    <linearGradient
       id="1"
       x1="24.416"
       y1="44.22"
       x2="24.588"
       y2="16.188"
       gradientUnits="userSpaceOnUse"
       gradientTransform="matrix(1.3334,0,0,1.3334,0.043,-0.664)">
      <stop
         stop-color="#49b903"
         id="stop12" />
      <stop
         offset="1"
         stop-color="#8cff07"
         id="stop14" />
    </linearGradient>
  </defs>
  <g
     id="g4154"
     transform="matrix(1.6900381,0,0,1.2190242,-21.970882,-7.0097178)">
    <path
       d="m 50.7042,56.6722 c 0,0.736037 -0.710703,1.3334 -1.446739,1.3334 l -34.6684,0 c -0.736037,0 -1.220061,-0.597363 -1.220061,-1.3334 l 0,-36.0018 37.3352,0 0,36.0018"
       id="path18"
       style="fill:#00d455"
       inkscape:connector-curvature="0" />
    <path
       d="m 50.7042,20.6704 0,-8.0004 c 0,-0.736037 -0.724037,-1.3334 -1.460073,-1.3334 l -9.207127,0 0,-4.0002 c 0,-0.7360368 -0.724037,-1.3334 -1.460073,-1.3334 l -13.334,0 C 24.50689,6.003 24.0362,6.6003632 24.0362,7.3364 l 0,4.0002 -9.460473,0 C 13.83969,11.3366 13.369,11.933963 13.369,12.67 l 0,8.0004 37.3352,0"
       id="path20"
       style="fill:#dbe2e3"
       inkscape:connector-curvature="0" />
  </g>
</svg>
