<?xml version="1.0" encoding="UTF-8" standalone="no"?>
<svg
   xmlns:dc="http://purl.org/dc/elements/1.1/"
   xmlns:cc="http://creativecommons.org/ns#"
   xmlns:rdf="http://www.w3.org/1999/02/22-rdf-syntax-ns#"
   xmlns:svg="http://www.w3.org/2000/svg"
   xmlns="http://www.w3.org/2000/svg"
   xmlns:sodipodi="http://sodipodi.sourceforge.net/DTD/sodipodi-0.dtd"
   xmlns:inkscape="http://www.inkscape.org/namespaces/inkscape"
   viewBox="0 0 64 64"
   id="svg2"
   version="1.1"
   inkscape:version="0.91 r13725"
   sodipodi:docname="battery-charging-080.svg">
  <metadata
     id="metadata28">
    <rdf:RDF>
      <cc:Work
         rdf:about="">
        <dc:format>image/svg+xml</dc:format>
        <dc:type
           rdf:resource="http://purl.org/dc/dcmitype/StillImage" />
        <dc:title></dc:title>
      </cc:Work>
    </rdf:RDF>
  </metadata>
  <sodipodi:namedview
     pagecolor="#ffffff"
     bordercolor="#666666"
     borderopacity="1"
     objecttolerance="10"
     gridtolerance="10"
     guidetolerance="10"
     inkscape:pageopacity="0"
     inkscape:pageshadow="2"
     inkscape:window-width="1280"
     inkscape:window-height="694"
     id="namedview26"
     showgrid="false"
     inkscape:zoom="3.6875"
     inkscape:cx="-12.20339"
     inkscape:cy="32"
     inkscape:window-x="0"
     inkscape:window-y="0"
     inkscape:window-maximized="1"
     inkscape:current-layer="svg2" />
  <defs
     id="defs4">
    <linearGradient
       id="0"
       x1="24.01"
       y1="45.44"
       x2="23.978"
       y2="5.02"
       gradientUnits="userSpaceOnUse"
       gradientTransform="matrix(1.3333926,0,0,1.3333926,0.0423,-0.65524)">
      <stop
         stop-color="#dbdbdb"
         id="stop7" />
      <stop
         offset="1"
         stop-color="#fcf9f9"
         id="stop9" />
    </linearGradient>
    <linearGradient
       id="1"
       x1="24.416"
       y1="44.22"
       x2="24.588"
       y2="16.188"
       gradientUnits="userSpaceOnUse"
       gradientTransform="matrix(1.3333926,0,0,1.3333926,0.0423,-0.65524)">
      <stop
         stop-color="#49b903"
         id="stop12" />
      <stop
         offset="1"
         stop-color="#8cff07"
         id="stop14" />
    </linearGradient>
  </defs>
  <g
     id="g4162"
     transform="matrix(1.6827784,0,0,1.2138105,-21.873299,-6.7090987)">
    <path
       inkscape:connector-curvature="0"
       style="fill:#00d455"
       id="path20"
       d="m 50.703218,56.680642 c 0,0.736033 -0.710698,1.333392 -1.446731,1.333392 l -34.668207,0 c -0.736033,0 -1.220054,-0.597359 -1.220054,-1.333392 l 0,-36.0016 37.334992,0 0,36.0016" />
    <path
       inkscape:connector-curvature="0"
       style="fill:#dbdee3"
       id="path22"
       d="m 50.703218,20.679042 0,-8.000356 c 0,-0.736033 -0.724032,-1.333393 -1.460064,-1.333393 l -9.207076,0 0,-4.0001774 c 0,-0.7360327 -0.724033,-1.3333926 -1.460065,-1.3333926 l -13.333926,0 c -0.736033,0 -1.206721,0.5973599 -1.206721,1.3333926 l 0,4.0001774 -9.46042,0 c -0.736033,0 -1.20672,0.59736 -1.20672,1.333393 l 0,8.000356 37.334992,0" />
    <path
       d="m 34.93193,20.633627 -11.577329,14.084342 7.812115,4.22765 -2.02345,9.856692 11.577329,-14.084342 -7.812115,-4.22765 z"
       id="path24"
       inkscape:connector-curvature="0"
       style="fill:#1c1f24;fill-opacity:0.69100001" />
  </g>
</svg>
