<?xml version="1.0" encoding="UTF-8" standalone="no"?>
<svg
   xmlns:dc="http://purl.org/dc/elements/1.1/"
   xmlns:cc="http://creativecommons.org/ns#"
   xmlns:rdf="http://www.w3.org/1999/02/22-rdf-syntax-ns#"
   xmlns:svg="http://www.w3.org/2000/svg"
   xmlns="http://www.w3.org/2000/svg"
   xmlns:sodipodi="http://sodipodi.sourceforge.net/DTD/sodipodi-0.dtd"
   xmlns:inkscape="http://www.inkscape.org/namespaces/inkscape"
   viewBox="0 0 64 64"
   id="svg2"
   version="1.1"
   inkscape:version="0.91 r13725"
   sodipodi:docname="wallet-closed.svg">
  <metadata
     id="metadata30">
    <rdf:RDF>
      <cc:Work
         rdf:about="">
        <dc:format>image/svg+xml</dc:format>
        <dc:type
           rdf:resource="http://purl.org/dc/dcmitype/StillImage" />
        <dc:title></dc:title>
      </cc:Work>
    </rdf:RDF>
  </metadata>
  <sodipodi:namedview
     pagecolor="#ffffff"
     bordercolor="#666666"
     borderopacity="1"
     objecttolerance="10"
     gridtolerance="10"
     guidetolerance="10"
     inkscape:pageopacity="0"
     inkscape:pageshadow="2"
     inkscape:window-width="1280"
     inkscape:window-height="694"
     id="namedview28"
     showgrid="false"
     inkscape:zoom="3.6875"
     inkscape:cx="-19.450478"
     inkscape:cy="32"
     inkscape:window-x="0"
     inkscape:window-y="0"
     inkscape:window-maximized="1"
     inkscape:current-layer="svg2" />
  <defs
     id="defs4">
    <linearGradient
       id="0"
       y1="542.8"
       x2="0"
       y2="507.8"
       gradientUnits="userSpaceOnUse"
       gradientTransform="matrix(1.1818189,0,0,1.5294105,-450.86106,-770.63475)">
      <stop
         stop-color="#2a2c2f"
         id="stop7" />
      <stop
         offset="1"
         stop-color="#424649"
         id="stop9" />
    </linearGradient>
    <linearGradient
       id="1"
       y1="219.94"
       x2="0"
       y2="161.94"
       gradientUnits="userSpaceOnUse"
       gradientTransform="matrix(0.41456008,0,0,0.41456008,-305.68843,-27.648751)">
      <stop
         stop-color="#ff9300"
         id="stop12" />
      <stop
         offset="1"
         stop-color="#ffd702"
         id="stop14" />
    </linearGradient>
  </defs>
  <g
     id="g3"
     transform="matrix(0.14459788,0,0,0.11921971,-6.0471559,0.67796333)"
     style="fill:#6f7c91">
    <g
       id="g5"
       style="fill:#6f7c91">
      <path
         d="m 145.1,229.6 c 17.2,56.4 61.4,115 121,115 59.6,0 103.9,-58.6 121,-115 14.7,-5.1 27,-19.8 31.801,-38.8 6.6,-26.1 -3.101,-50.3 -21.9,-57.6 1.7,-6.9 2.6,-14 2.6,-21.3 C 399.599,50 337.9,0 261.799,0 c -76.1,0 -138,50.1 -138,111.9 0,8.8 1.4,17.4 3.7,25.6 -13.6,10.3 -19.8,31.1 -14.2,53.4 4.801,18.9 17.1,33.6 31.801,38.7 z m -9.201,-71.9 c 2,-3.3 4.6,-5.5 7.9,-6.4 0.6,-0.1 1.4,-0.2 2.1,-0.2 0.6,0 1.1,0 1.7,0.1 l 9.5,0.9 1.4,-9.4 c 2.9,-19.6 9,-37.2 17.6,-52.2 16.1,18.1 48.1,30.4 85,30.4 41.7,0 77.2,-15.7 90.3,-37.7 11,16.5 18.8,36.6 22.199,59.5 l 1.4,9.4 9.5,-0.9 c 1.4,-0.1 2.7,-0.1 3.8,0.1 0.7,0.1 1.101,0.6 1.8,0.8 8.601,3.8 13,18.9 9.301,33.9 -3.801,15.3 -13.801,24.3 -21.7,25.3 l -6.601,0.9 -1.8,6.4 c -14.399,52.6 -54.399,106 -103.4,106 -49,0 -89,-53.3 -103.2,-106 l -1.8,-6.4 -6.6,-0.9 c -7.9,-1 -17.9,-10.2 -21.7,-25.3 -2.498,-10.8 -0.998,-21.7 3.301,-28.3 z"
         id="path7"
         inkscape:connector-curvature="0"
         style="fill:#6f7c91" />
      <path
         d="m 383.599,299.4 c -12.8,21.8 -27.6,40.3 -47.3,50.199 -40.5,20.7 -70.6,37.5 -70.6,37.5 l -0.1,-0.1 0,-0.5 -0.5,0.2 -0.5,-0.2 0,0.5 -0.1,0.1 c 0,0 -30.1,-16.699 -70.6,-37.5 -19.6,-10.1 -34.4,-28.5 -47.3,-50.199 -59.899,24.3 -101.8,80.4 -101.8,129.2 0,51.5 0,101.4 0,101.4 l 219.7,0 0.8,0 219.9,0 c 0,0 0,-49.9 0,-101.4 C 485.4,379.8 443.5,323.8 383.599,299.4 Z"
         id="path9"
         inkscape:connector-curvature="0"
         style="fill:#6f7c91" />
    </g>
  </g>
  <g
     transform="matrix(0.50657013,0,0,0.49002274,31.856664,31.84605)"
     id="g4148">
    <g
       style="fill:#b7bec8"
       transform="matrix(0.25281356,0,0,0.1710261,-14.634911,0.49576298)"
       id="XMLID_503_">
      <g
         style="fill:#b7bec8"
         id="XMLID_511_">
        <g
           style="fill:#b7bec8"
           id="XMLID_1307_">
          <g
             style="fill:#b7bec8"
             id="XMLID_1308_">
            <g
               style="fill:#b7bec8"
               id="XMLID_1309_">
              <path
                 id="XMLID_1310_"
                 style="fill:#b7bec8"
                 d="M 185,290 C 129.86,290 85,245.14 85,190 l 0,-90 C 85,44.86 129.86,0 185,0 240.14,0 285,44.86 285,100 l 0,90 c 0,55.14 -44.86,100 -100,100 z m 0,-250 c -33.084,0 -60,26.916 -60,60 l 0,90 c 0,33.084 26.916,60 60,60 33.084,0 60,-26.916 60,-60 l 0,-90 C 245,66.916 218.084,40 185,40 Z"
                 inkscape:connector-curvature="0" />
            </g>
          </g>
        </g>
      </g>
      <path
         id="XMLID_524_"
         style="fill:#b7bec8"
         d="m 185,0 0,40 c 33.084,0 60,26.916 60,60 l 0,90 c 0,33.084 -26.916,60 -60,60 l 0,40 c 55.14,0 100,-44.86 100,-100 l 0,-90 C 285,44.86 240.14,0 185,0 Z"
         inkscape:connector-curvature="0" />
    </g>
    <g
       style="fill:#939dac"
       transform="matrix(0.25281356,0,0,0.1710261,-14.634911,0.49576298)"
       id="XMLID_525_">
      <circle
         id="XMLID_526_"
         style="fill:#939dac"
         cx="185"
         cy="245"
         r="125" />
      <path
         id="XMLID_531_"
         style="fill:#939dac"
         d="m 185,120 0,250 c 69.036,0 125,-55.964 125,-125 0,-69.036 -55.964,-125 -125,-125 z"
         inkscape:connector-curvature="0" />
    </g>
    <g
       style="fill:#b7bec8"
       transform="matrix(0.25281356,0,0,0.1710261,-14.634911,0.49576298)"
       id="XMLID_532_">
      <path
         id="XMLID_535_"
         style="fill:#b7bec8"
         d="m 216.25,231.607 c 0,-17.259 -13.991,-31.25 -31.25,-31.25 -17.259,0 -31.25,13.991 -31.25,31.25 0,11.565 6.287,21.655 15.625,27.059 l 0,30.977 31.25,0 0,-30.977 c 9.338,-5.404 15.625,-15.494 15.625,-27.059 z"
         inkscape:connector-curvature="0" />
      <path
         id="XMLID_783_"
         style="fill:#b7bec8"
         d="m 185,200.357 0,89.286 15.625,0 0,-30.977 c 9.338,-5.404 15.625,-15.494 15.625,-27.059 0,-17.259 -13.991,-31.25 -31.25,-31.25 z"
         inkscape:connector-curvature="0" />
    </g>
  </g>
</svg>
