<?xml version="1.0" encoding="UTF-8" standalone="no"?>
<svg
   xmlns:dc="http://purl.org/dc/elements/1.1/"
   xmlns:cc="http://creativecommons.org/ns#"
   xmlns:rdf="http://www.w3.org/1999/02/22-rdf-syntax-ns#"
   xmlns:svg="http://www.w3.org/2000/svg"
   xmlns="http://www.w3.org/2000/svg"
   xmlns:sodipodi="http://sodipodi.sourceforge.net/DTD/sodipodi-0.dtd"
   xmlns:inkscape="http://www.inkscape.org/namespaces/inkscape"
   viewBox="0 0 48 48"
   id="svg2"
   version="1.1"
   inkscape:version="0.91 r13725"
   sodipodi:docname="org.kde.contrib.takeabreak.svg">
  <metadata
     id="metadata23">
    <rdf:RDF>
      <cc:Work
         rdf:about="">
        <dc:format>image/svg+xml</dc:format>
        <dc:type
           rdf:resource="http://purl.org/dc/dcmitype/StillImage" />
        <dc:title></dc:title>
      </cc:Work>
    </rdf:RDF>
  </metadata>
  <sodipodi:namedview
     pagecolor="#ffffff"
     bordercolor="#666666"
     borderopacity="1"
     objecttolerance="10"
     gridtolerance="10"
     guidetolerance="10"
     inkscape:pageopacity="0"
     inkscape:pageshadow="2"
     inkscape:window-width="1280"
     inkscape:window-height="694"
     id="namedview21"
     showgrid="false"
     inkscape:zoom="4.9166667"
     inkscape:cx="-9.1525424"
     inkscape:cy="24"
     inkscape:window-x="0"
     inkscape:window-y="0"
     inkscape:window-maximized="1"
     inkscape:current-layer="svg2" />
  <defs
     id="defs4">
    <linearGradient
       id="0"
       gradientUnits="userSpaceOnUse"
       y1="53.939"
       x2="0"
       y2="5.141"
       gradientTransform="translate(-117.97,-5.695)">
      <stop
         stop-color="#5dae33"
         id="stop7" />
      <stop
         offset="1"
         stop-color="#9be058"
         id="stop9" />
    </linearGradient>
  </defs>
  <g
     style="fill:#71c837;fill-opacity:0.85399996"
     id="g15"
     transform="matrix(0.13026808,0,0,0.15134994,0.25372117,-3.4943862)">
    <path
       inkscape:connector-curvature="0"
       id="path17"
       d="m 99.31,119.09 c -1.236,4.771 1.639,9.658 6.41,10.896 4.771,1.234 9.658,-1.641 10.895,-6.409 1.236,-4.771 -1.639,-9.658 -6.41,-10.896 -4.772,-1.237 -9.659,1.638 -10.895,6.409"
       style="fill:#71c837" />
    <path
       inkscape:connector-curvature="0"
       id="path19"
       d="m 297.69,70.5 -8.552,0 0,-2.311 c 0,-11.05 -8.954,-20 -20,-20 l -78.1,0 C 185.093,30.642 175.649,26.179 168.7,25.665 154.792,24.64 132.21,41.974 122.106,86.235 l 27.91,35.24 c 1.521,1.922 2.055,4.445 1.439,6.817 l -17.762,68.52 c -1.084,4.182 -5.352,6.691 -9.531,5.607 l -69.75,-18.08 c -4.182,-1.083 -6.693,-5.352 -5.609,-9.533 l 17.762,-68.52 c 0.615,-2.372 2.307,-4.319 4.57,-5.262 l 41.2,-17.12 c 0.992,-6.336 4.08,-21.398 12.422,-35.723 l -104.76,0 c -11.05,0 -20,8.954 -20,20 l 0,177.78 c 0,40.958 33.02,74.33 73.844,74.932 4.342,11.219 15.229,19.18 27.98,19.18 l 85.5,0 c 12.752,0 23.637,-7.961 27.979,-19.18 36.39,-0.535 66.56,-27.13 72.69,-61.911 l 9.707,0 c 37.496,0 68,-30.506 68,-68 l 0,-52.49 C 365.6971,101 335.194,70.495 297.698,70.495 m -148.02,-22.31 c 5.03,-6.678 12.09,-12.05 18.13,-11.562 5.389,0.442 9.08,5.864 11.486,11.562 l -29.615,0 z m 176.02,142.81 c 0,15.438 -12.562,28 -28,28 l -8.552,0 0,-108.5 8.552,0 c 15.438,0 28,12.561 28,28 l 0,52.5"
       style="fill:#71c837" />
  </g>
</svg>
