<?xml version="1.0" encoding="UTF-8" standalone="no"?>
<svg
   xmlns:dc="http://purl.org/dc/elements/1.1/"
   xmlns:cc="http://creativecommons.org/ns#"
   xmlns:rdf="http://www.w3.org/1999/02/22-rdf-syntax-ns#"
   xmlns:svg="http://www.w3.org/2000/svg"
   xmlns="http://www.w3.org/2000/svg"
   xmlns:sodipodi="http://sodipodi.sourceforge.net/DTD/sodipodi-0.dtd"
   xmlns:inkscape="http://www.inkscape.org/namespaces/inkscape"
   viewBox="0 0 64 64"
   id="svg2"
   version="1.1"
   inkscape:version="0.91 r13725"
   sodipodi:docname="image-svg+xml-compressed.svg">
  <metadata
     id="metadata19">
    <rdf:RDF>
      <cc:Work
         rdf:about="">
        <dc:format>image/svg+xml</dc:format>
        <dc:type
           rdf:resource="http://purl.org/dc/dcmitype/StillImage" />
        <dc:title></dc:title>
      </cc:Work>
    </rdf:RDF>
  </metadata>
  <sodipodi:namedview
     pagecolor="#ffffff"
     bordercolor="#666666"
     borderopacity="1"
     objecttolerance="10"
     gridtolerance="10"
     guidetolerance="10"
     inkscape:pageopacity="0"
     inkscape:pageshadow="2"
     inkscape:window-width="1280"
     inkscape:window-height="694"
     id="namedview17"
     showgrid="true"
     inkscape:zoom="3.6875"
     inkscape:cx="-12.20339"
     inkscape:cy="32"
     inkscape:window-x="0"
     inkscape:window-y="0"
     inkscape:window-maximized="1"
     inkscape:current-layer="svg2">
    <inkscape:grid
       type="xygrid"
       id="grid4147" />
  </sodipodi:namedview>
  <defs
     id="defs4">
    <linearGradient
       id="0"
       x1="-74.929"
       y1="52.2"
       x2="-75.26"
       y2="2.356"
       gradientUnits="userSpaceOnUse"
       gradientTransform="matrix(1.5586527,0,0,0.90478153,149.6939,-1.0820088)">
      <stop
         stop-color="#924db1"
         id="stop7" />
      <stop
         offset="1"
         stop-color="#be6ce0"
         id="stop9" />
    </linearGradient>
  </defs>
  <rect
     style="fill:url(#0)"
     id="rect13"
     rx="3.6248074"
     width="63.796608"
     height="53.207962"
     x="0.23728909"
     y="0.37806776" />
  <path
     style="fill:#ffffff;fill-opacity:0.85"
     inkscape:connector-curvature="0"
     id="path15"
     d="m 30.46516,62.136474 10.000706,0 0,1.240989 3.636597,0 0,-1.240989 10.044031,0 0,1.402829 3.636513,0 0,-3.474512 -1.341426,0 0,-9.716786 1.298767,0 0,-3.474591 -1.298767,0 0,-9.021025 1.34226,0 0,-3.474591 -3.636514,0 0,0.706748 -10.044031,0 0,-1.240908 -3.636597,0 0,1.240908 -10.000705,0 0,-0.868667 -3.636597,0 0,3.474591 1.298767,0 0,9.182626 -1.298767,0 0,3.47459 1.298767,0 0,9.555186 -1.298767,0 0,3.47467 3.636597,0 0,-1.240987 m -1.038981,0 0,0.248213 -1.558553,0 0,-1.489122 0.259786,0 1.039064,0 0.259786,0 0,0.248213 0,0.992696 m 12.078666,-27.05193 0,-0.248213 1.558554,0 0,0.248213 0,0.519115 0,0.47358 0,0.248135 -1.558554,0 0,-0.248135 0,-0.47358 0,-0.519115 m 1.558554,27.05193 0,0.248213 -1.558554,0 0,-0.248213 0,-0.519115 0,-0.473501 0,-0.248214 1.558554,0 0,0.248214 0,0.473501 0,0.519115 m 0.173052,-12.967922 c 0.100981,0.09696 0.100981,0.253944 0,0.350905 -0.05124,0.0484 -0.117143,0.07268 -0.184134,0.07268 -0.06599,0 -0.132726,-0.02428 -0.183717,-0.07268 l -0.584061,-0.558042 -0.584063,0.558042 c -0.051,0.0484 -0.117402,0.07268 -0.183883,0.07268 -0.06648,0 -0.132892,-0.02428 -0.183967,-0.07268 -0.101151,-0.09697 -0.101151,-0.253945 0,-0.350905 l 0.584062,-0.558044 -0.584062,-0.558042 c -0.101151,-0.09664 -0.101151,-0.254263 0,-0.350985 0.101227,-0.09672 0.266119,-0.09672 0.36735,0 l 0.584896,0.558042 0.584062,-0.558042 c 0.101487,-0.09672 0.265869,-0.09672 0.367351,0 0.101487,0.09672 0.101487,0.254263 0,0.350985 l -0.584063,0.558042 0.584895,0.558044 m 13.507576,13.377896 -1.55847,0 0,-0.410055 0,-0.992694 0,-0.08629 0.216627,0 1.039064,0 0.302862,0 0,1.489043 z m -2.597866,-2.482135 0,1.079067 -8.13604,0 c 4.535019,-1.228409 8.106044,-4.641067 9.391646,-8.974056 l 0,7.894591 -1.255606,0 m 2.554373,-10.709482 -0.259702,0 -0.54332,0 -0.49566,0 -0.259704,0 0,-1.489122 0.259704,0 0.49566,0 0.54332,0 0.259702,0 0,1.489122 m -1.51556,-13.984499 1.255608,0 0.302861,0 0,1.489122 -0.302861,0 -1.039064,0 -0.216628,0 0,-0.782375 0,-0.706747 z m -1.039063,0.706747 0,1.77507 1.255607,0 0,7.198828 c -1.285603,-4.332989 -4.857462,-7.745726 -9.391647,-8.974056 l 8.13604,0 z m -26.278617,-0.868746 0.259786,0 1.298767,0 0,0.868667 0,0.620454 -0.259786,0 -1.039065,0 -0.259786,0 0,-1.489121 z m 2.597867,2.482134 0,-1.613149 8.092714,0 c -4.53502,1.22849 -8.106046,4.640272 -9.391648,8.973261 l 0,-7.360429 1.298767,0 m -2.597867,10.175321 0.259786,0 0.543319,0 0.495662,0 0.259786,0 0,1.489121 -0.259786,0 -0.495662,0 -0.543319,0 -0.259786,0 0,-1.489121 m 1.298767,4.30433 c 1.285852,4.33299 4.856629,7.745726 9.391648,8.974057 l -8.093548,0 0,-1.240988 -1.298767,0 0,-7.732989" />
</svg>
