<?xml version="1.0" encoding="UTF-8" standalone="no"?>
<svg
   xmlns:dc="http://purl.org/dc/elements/1.1/"
   xmlns:cc="http://creativecommons.org/ns#"
   xmlns:rdf="http://www.w3.org/1999/02/22-rdf-syntax-ns#"
   xmlns:svg="http://www.w3.org/2000/svg"
   xmlns="http://www.w3.org/2000/svg"
   xmlns:sodipodi="http://sodipodi.sourceforge.net/DTD/sodipodi-0.dtd"
   xmlns:inkscape="http://www.inkscape.org/namespaces/inkscape"
   viewBox="0 0 64 64"
   id="svg2"
   version="1.1"
   inkscape:version="0.91 r13725"
   sodipodi:docname="text-x-markdown.svg">
  <metadata
     id="metadata17">
    <rdf:RDF>
      <cc:Work
         rdf:about="">
        <dc:format>image/svg+xml</dc:format>
        <dc:type
           rdf:resource="http://purl.org/dc/dcmitype/StillImage" />
        <dc:title></dc:title>
      </cc:Work>
    </rdf:RDF>
  </metadata>
  <sodipodi:namedview
     pagecolor="#ffffff"
     bordercolor="#666666"
     borderopacity="1"
     objecttolerance="10"
     gridtolerance="10"
     guidetolerance="10"
     inkscape:pageopacity="0"
     inkscape:pageshadow="2"
     inkscape:window-width="1280"
     inkscape:window-height="694"
     id="namedview15"
     showgrid="true"
     inkscape:zoom="3.6875"
     inkscape:cx="-56.40678"
     inkscape:cy="32"
     inkscape:window-x="0"
     inkscape:window-y="0"
     inkscape:window-maximized="1"
     inkscape:current-layer="svg2">
    <inkscape:grid
       type="xygrid"
       id="grid4145" />
  </sodipodi:namedview>
  <defs
     id="defs4">
    <linearGradient
       gradientTransform="matrix(1.5387762,0,0,0.89094729,148.33034,-0.78849744)"
       gradientUnits="userSpaceOnUse"
       y2="2.356"
       x2="-75.26"
       y1="61.05"
       x1="-74.929"
       id="0">
      <stop
         stop-color="#d1d7df"
         id="stop7" />
      <stop
         offset="1"
         stop-color="#e8eef0"
         id="stop9" />
    </linearGradient>
  </defs>
  <rect
     y="0.64925426"
     x="0.77966195"
     height="52.394405"
     width="62.983051"
     rx="3.5785823"
     id="rect11"
     style="fill:url(#0);stroke-width:1" />
  <path
     d="m 28.54672,34.579647 c -0.865078,0 -1.561316,1.096734 -1.561316,2.458925 l 0,24.099599 c 0,1.362417 0.696382,2.458925 1.561316,2.458925 l 27.791915,0 c 0.865079,0 1.561316,-1.096735 1.561316,-2.458925 l 0,-24.099599 c 0,-1.362417 -0.696381,-2.458925 -1.561316,-2.458925 l -27.791915,0 m 2.342046,6.14788 3.122776,0 3.122776,6.14788 3.122776,-6.14788 3.122776,0 0,16.720782 -3.122776,0 0,-9.591327 -3.122776,6.14788 -3.122776,-6.14788 0,9.591327 -3.122776,0 0,-16.720782 m 17.956502,0 3.122776,0 0,8.606578 3.122776,0 -4.684092,8.114884 -4.684092,-8.114884 3.122776,0 0,-8.606578"
     id="path13"
     inkscape:connector-curvature="0"
     style="fill:#000000;fill-opacity:0.71499999;stroke:none" />
</svg>
