<?xml version="1.0" encoding="UTF-8" standalone="no"?>
<svg
   xmlns:dc="http://purl.org/dc/elements/1.1/"
   xmlns:cc="http://creativecommons.org/ns#"
   xmlns:rdf="http://www.w3.org/1999/02/22-rdf-syntax-ns#"
   xmlns:svg="http://www.w3.org/2000/svg"
   xmlns="http://www.w3.org/2000/svg"
   xmlns:sodipodi="http://sodipodi.sourceforge.net/DTD/sodipodi-0.dtd"
   xmlns:inkscape="http://www.inkscape.org/namespaces/inkscape"
   viewBox="0 0 48 48"
   id="svg2"
   version="1.1"
   inkscape:version="0.91 r13725"
   sodipodi:docname="accessories-document-viewer.svg">
  <metadata
     id="metadata19">
    <rdf:RDF>
      <cc:Work
         rdf:about="">
        <dc:format>image/svg+xml</dc:format>
        <dc:type
           rdf:resource="http://purl.org/dc/dcmitype/StillImage" />
        <dc:title></dc:title>
      </cc:Work>
    </rdf:RDF>
  </metadata>
  <sodipodi:namedview
     pagecolor="#ffffff"
     bordercolor="#666666"
     borderopacity="1"
     objecttolerance="10"
     gridtolerance="10"
     guidetolerance="10"
     inkscape:pageopacity="0"
     inkscape:pageshadow="2"
     inkscape:window-width="1280"
     inkscape:window-height="694"
     id="namedview17"
     showgrid="false"
     inkscape:zoom="4.9166667"
     inkscape:cx="-42.305085"
     inkscape:cy="24"
     inkscape:window-x="0"
     inkscape:window-y="0"
     inkscape:window-maximized="1"
     inkscape:current-layer="svg2" />
  <defs
     id="defs4">
    <linearGradient
       id="0"
       gradientUnits="userSpaceOnUse"
       y1="47.37"
       x2="0"
       y2="-1.429"
       gradientTransform="matrix(0.99999,0,0,0.99999,-58.3698,0.88225)">
      <stop
         stop-color="#c52828"
         id="stop7" />
      <stop
         offset="1"
         stop-color="#ff5454"
         id="stop9" />
    </linearGradient>
  </defs>
  <path
     style="fill:#c83737;fill-opacity:0.86299995"
     inkscape:connector-curvature="0"
     id="path15"
     d="m 46.886585,29.339297 c -0.950159,-0.955594 -3.056456,-1.463096 -6.262409,-1.505528 -2.171081,-0.03564 -4.782357,0.169733 -7.529844,0.563513 -1.230889,-0.72476 -2.49832,-1.514016 -3.493329,-2.46452 -2.67772,-2.554476 -4.911923,-6.100191 -6.305599,-10.000648 0.09136,-0.364925 0.167773,-0.684023 0.2392,-1.011606 0,0 1.508294,-8.7531128 1.109626,-11.713251 -0.05481,-0.4056601 -0.08803,-0.5244741 -0.196011,-0.8401767 L 24.316989,2.0242204 C 23.906695,1.0567446 23.102714,0.03325662 21.841927,0.08926844 l -0.739197,-0.03564421 -0.01993,0 c -1.406966,0 -2.551477,0.73494227 -2.853799,1.83311277 -0.915275,3.4455734 0.02824,8.598656 1.739189,15.274242 l -0.438535,1.087987 c -1.224243,3.050096 -2.759115,6.120557 -4.112925,8.831189 l -0.176079,0.353043 c -1.423576,2.848115 -2.715924,5.265107 -3.888673,7.31378 l -1.209294,0.653473 c -0.08803,0.04583 -2.1611134,1.16776 -2.6478205,1.468186 -4.1245519,2.517136 -6.85875103,5.373736 -7.31223617,7.639667 -0.14451842,0.723062 -0.0365466,1.649801 0.69766955,2.077528 l 1.16942672,0.600853 c 0.5083012,0.261389 1.0431803,0.392083 1.591349,0.392083 2.9385148,0 6.3487894,-3.73921 11.0464274,-12.117215 5.425207,-1.804257 11.60124,-3.304694 17.01482,-4.131293 4.124552,2.372863 9.199265,4.020967 12.400237,4.020967 0.568101,0 1.05813,-0.05602 1.4568,-0.162944 0.614612,-0.16634 1.13122,-0.524475 1.446833,-1.00991 0.621256,-0.955595 0.747503,-2.271023 0.578068,-3.6187 -0.04984,-0.398872 -0.362124,-0.894491 -0.700991,-1.23226 z M 3.0065224,45.312837 c 0.5348804,-1.497042 2.656126,-4.455483 5.7923136,-7.081246 0.1976742,-0.162945 0.6827196,-0.62801 1.1278989,-1.059132 -3.2790444,5.343184 -5.4750411,7.473328 -6.9185508,8.142076 M 21.579469,1.6151657 c 0.945175,0 1.481717,2.4322677 1.526567,4.7134754 0.04485,2.281206 -0.47674,3.8800879 -1.124576,5.0648219 -0.53654,-1.7533386 -0.795674,-4.516585 -0.795674,-6.3242389 0,0 -0.03987,-3.4540584 0.393683,-3.4540584 M 16.039646,32.756015 c 0.657802,-1.203404 1.342181,-2.471307 2.041512,-3.817287 1.704306,-3.294511 2.78237,-5.872751 3.58303,-7.991013 1.594671,2.965229 3.581367,5.485758 5.916897,7.505576 0.290695,0.251206 0.599662,0.505805 0.92358,0.757009 -4.747471,0.960686 -8.852091,2.128446 -12.465019,3.545715 M 45.97297,32.484443 c -0.289034,0.183312 -1.117931,0.293638 -1.65115,0.293638 -1.719254,0 -3.847147,-0.802836 -6.830512,-2.109778 1.14617,-0.08827 2.197658,-0.130696 3.139511,-0.130696 1.724239,0 2.235864,0 3.921897,0.431122 1.686034,0.439607 1.707628,1.332401 1.418593,1.51741 z" />
</svg>
