<?xml version="1.0" encoding="UTF-8" standalone="no"?>
<svg
   xmlns:dc="http://purl.org/dc/elements/1.1/"
   xmlns:cc="http://creativecommons.org/ns#"
   xmlns:rdf="http://www.w3.org/1999/02/22-rdf-syntax-ns#"
   xmlns:svg="http://www.w3.org/2000/svg"
   xmlns="http://www.w3.org/2000/svg"
   xmlns:sodipodi="http://sodipodi.sourceforge.net/DTD/sodipodi-0.dtd"
   xmlns:inkscape="http://www.inkscape.org/namespaces/inkscape"
   viewBox="0 0 48 48"
   id="svg2"
   version="1.1"
   inkscape:version="0.91 r13725"
   sodipodi:docname="aim_protocol.svg">
  <metadata
     id="metadata23">
    <rdf:RDF>
      <cc:Work
         rdf:about="">
        <dc:format>image/svg+xml</dc:format>
        <dc:type
           rdf:resource="http://purl.org/dc/dcmitype/StillImage" />
        <dc:title></dc:title>
      </cc:Work>
    </rdf:RDF>
  </metadata>
  <sodipodi:namedview
     pagecolor="#ffffff"
     bordercolor="#666666"
     borderopacity="1"
     objecttolerance="10"
     gridtolerance="10"
     guidetolerance="10"
     inkscape:pageopacity="0"
     inkscape:pageshadow="2"
     inkscape:window-width="1280"
     inkscape:window-height="694"
     id="namedview21"
     showgrid="false"
     inkscape:zoom="4.9166667"
     inkscape:cx="-9.1525424"
     inkscape:cy="24"
     inkscape:window-x="0"
     inkscape:window-y="0"
     inkscape:window-maximized="1"
     inkscape:current-layer="svg2" />
  <defs
     id="defs4">
    <linearGradient
       y2="-1.429"
       x2="0"
       y1="47.37"
       gradientUnits="userSpaceOnUse"
       id="0"
       gradientTransform="matrix(0.99999,0,0,0.99999,-58.37,0.882)">
      <stop
         stop-color="#ff9300"
         id="stop7" />
      <stop
         offset="1"
         stop-color="#ffd702"
         id="stop9" />
    </linearGradient>
  </defs>
  <g
     style="fill:#552200"
     id="g15"
     transform="matrix(2.2971566,0,0,1.6972768,-19.354006,-10.151623)">
    <path
       inkscape:connector-curvature="0"
       id="path17"
       d="m 15.874,15.575 c 0.54,0.254 3.258,-0.277 3.538,-0.038 0.28,0.242 -0.685,1.158 -0.143,1.56 1.289,0.96 4.696,1.242 7.755,0.114 l 1.158,3.185 c -1.68,0.928 -4.197,1.464 -7.417,1.158 l 8.458,8.517 -3.133,2.82 -6.507,-6.834 c -2.634,4.611 -6.075,6.417 -8.782,8.07 L 8.526,30.539 c 10.739,-6.781 4.786,-9.817 7.391,-13.691 0.207,-0.309 -0.397,-0.974 -0.044,-1.272"
       style="fill:#552200" />
    <path
       inkscape:connector-curvature="0"
       id="path19"
       d="m 23.1,11.25 c 0,2.829 -2.293,5.125 -5.122,5.125 -2.832,0 -5.125,-2.295 -5.125,-5.125 0,-2.829 2.293,-5.125 5.125,-5.125 2.829,0 5.122,2.295 5.122,5.125"
       style="fill:#552200" />
  </g>
</svg>
