<?xml version="1.0" encoding="UTF-8" standalone="no"?>
<!-- Generator: Adobe Illustrator 18.0.0, SVG Export Plug-In . SVG Version: 6.00 Build 0)  -->

<svg
   xmlns:dc="http://purl.org/dc/elements/1.1/"
   xmlns:cc="http://creativecommons.org/ns#"
   xmlns:rdf="http://www.w3.org/1999/02/22-rdf-syntax-ns#"
   xmlns:svg="http://www.w3.org/2000/svg"
   xmlns="http://www.w3.org/2000/svg"
   xmlns:sodipodi="http://sodipodi.sourceforge.net/DTD/sodipodi-0.dtd"
   xmlns:inkscape="http://www.inkscape.org/namespaces/inkscape"
   version="1.1"
   id="Capa_1"
   x="0px"
   y="0px"
   viewBox="0 0 58 58"
   style="enable-background:new 0 0 58 58;"
   xml:space="preserve"
   inkscape:version="0.91 r13725"
   sodipodi:docname="chrome-pkbfakcphdokdnbdhlndlpcehebmplab-Default.svg"><metadata
     id="metadata49"><rdf:RDF><cc:Work
         rdf:about=""><dc:format>image/svg+xml</dc:format><dc:type
           rdf:resource="http://purl.org/dc/dcmitype/StillImage" /><dc:title></dc:title></cc:Work></rdf:RDF></metadata><defs
     id="defs47" /><sodipodi:namedview
     pagecolor="#ffffff"
     bordercolor="#666666"
     borderopacity="1"
     objecttolerance="10"
     gridtolerance="10"
     guidetolerance="10"
     inkscape:pageopacity="0"
     inkscape:pageshadow="2"
     inkscape:window-width="1280"
     inkscape:window-height="694"
     id="namedview45"
     showgrid="false"
     inkscape:zoom="4.0689655"
     inkscape:cx="-11.059322"
     inkscape:cy="29"
     inkscape:window-x="0"
     inkscape:window-y="0"
     inkscape:window-maximized="1"
     inkscape:current-layer="Capa_1" /><path
     inkscape:connector-curvature="0"
     id="path5"
     d="m 44,17.657452 0,23.099044 c 0,2.974107 -2.207,5.385515 -4.929,5.385515 L 22,46.219587 12,58.238389 l 0,-12.018802 -7.071,0 C 2.207,46.219587 0,43.808179 0,40.834072 L 0,17.735028 c 0,-2.974107 2.207,-5.385515 4.929,-5.385515 l 34.141,-0.07758 c 2.723,0 4.93,2.411408 4.93,5.385515 z"
     style="fill:#5fd35f" /><path
     inkscape:connector-curvature="0"
     id="path7"
     d="M 53.071,0.32961879 18.93,0.25313551 c -2.723,0 -4.93,2.41140859 -4.93,5.38551559 l 0,6.6890089 25.071,-0.05682 c 2.722,0 4.929,2.411409 4.929,5.386608 l 0,20.148974 7,8.413161 0,-12.018801 2.071,0 c 2.722,0 4.929,-2.411408 4.929,-5.385516 L 58,5.716227 C 58,2.7410274 55.793,0.32961879 53.071,0.32961879 Z"
     style="fill:#217821" /><ellipse
     id="circle9"
     cy="29.737442"
     cx="11"
     style="fill:#0b280b"
     rx="3"
     ry="3.2778549" /><ellipse
     id="circle11"
     cy="29.737442"
     cx="22"
     style="fill:#0b280b"
     rx="3"
     ry="3.2778549" /><ellipse
     id="circle13"
     cy="29.737442"
     cx="33"
     style="fill:#0b280b"
     rx="3"
     ry="3.2778549" /><g
     id="g15" /><g
     id="g17" /><g
     id="g19" /><g
     id="g21" /><g
     id="g23" /><g
     id="g25" /><g
     id="g27" /><g
     id="g29" /><g
     id="g31" /><g
     id="g33" /><g
     id="g35" /><g
     id="g37" /><g
     id="g39" /><g
     id="g41" /><g
     id="g43" /></svg>