<?xml version="1.0" encoding="UTF-8" standalone="no"?>
<svg
   xmlns:dc="http://purl.org/dc/elements/1.1/"
   xmlns:cc="http://creativecommons.org/ns#"
   xmlns:rdf="http://www.w3.org/1999/02/22-rdf-syntax-ns#"
   xmlns:svg="http://www.w3.org/2000/svg"
   xmlns="http://www.w3.org/2000/svg"
   xmlns:sodipodi="http://sodipodi.sourceforge.net/DTD/sodipodi-0.dtd"
   xmlns:inkscape="http://www.inkscape.org/namespaces/inkscape"
   viewBox="0 0 48 48"
   id="svg2"
   version="1.1"
   inkscape:version="0.91 r13725"
   sodipodi:docname="chrome-fnibmbcdeepaahjmddiihohjanlimlmj-Default.svg">
  <metadata
     id="metadata22">
    <rdf:RDF>
      <cc:Work
         rdf:about="">
        <dc:format>image/svg+xml</dc:format>
        <dc:type
           rdf:resource="http://purl.org/dc/dcmitype/StillImage" />
        <dc:title></dc:title>
      </cc:Work>
    </rdf:RDF>
  </metadata>
  <sodipodi:namedview
     pagecolor="#ffffff"
     bordercolor="#666666"
     borderopacity="1"
     objecttolerance="10"
     gridtolerance="10"
     guidetolerance="10"
     inkscape:pageopacity="0"
     inkscape:pageshadow="2"
     inkscape:window-width="1280"
     inkscape:window-height="694"
     id="namedview20"
     showgrid="false"
     inkscape:zoom="4.9166667"
     inkscape:cx="-9.1525424"
     inkscape:cy="24"
     inkscape:window-x="0"
     inkscape:window-y="0"
     inkscape:window-maximized="1"
     inkscape:current-layer="svg2" />
  <defs
     id="defs4">
    <linearGradient
       id="0"
       gradientUnits="userSpaceOnUse"
       gradientTransform="matrix(.49433 0 0 .4778 86.64 13.1)"
       x1="-123.97"
       y1="73.5"
       x2="-125.19"
       y2="-26.05">
      <stop
         stop-color="#e1e1e1"
         id="stop7" />
      <stop
         offset="1"
         stop-color="#f4f4ff"
         id="stop9" />
    </linearGradient>
    <linearGradient
       gradientUnits="userSpaceOnUse"
       y2="12.32"
       x2="23.15"
       y1="36.727"
       x1="23.509"
       id="1">
      <stop
         stop-color="#f16419"
         id="stop12" />
      <stop
         stop-color="#feb600"
         offset="1"
         id="stop14" />
    </linearGradient>
  </defs>
  <path
     d="m 3.1900068,0.13961017 c -1.4943727,0 -2.69848138,1.77459923 -2.69848138,3.97698553 0,2.2023863 1.20410868,3.9769855 2.69848138,3.9769855 l 8.1898842,0 c -0.05555,0.3193051 -0.09444,0.6488443 -0.09444,0.9947582 l 0,34.7960646 c 0,2.202386 1.204109,3.976986 2.698482,3.976986 1.494372,0 2.698481,-1.7746 2.698481,-3.976986 l 0,-34.7960646 c 0,-0.3459139 -0.03889,-0.6754531 -0.09444,-0.9947582 l 8.189885,0 c 1.494372,0 2.698481,-1.7745992 2.698481,-3.9769855 0,-2.2023863 -1.204109,-3.97698553 -2.698481,-3.97698553 l -21.5864624,0 m 25.6334894,0 0,6.95921303 0.674967,0 c 6.352472,0 11.467505,7.5384648 11.467505,16.9006528 0,9.36219 -5.115033,16.900654 -11.467505,16.900654 l -7.420477,0 0,6.959214 9.443991,0 c 8.969013,0 16.189499,-10.641456 16.189499,-23.859868 0,-13.21841 -7.220486,-23.85986583 -16.189499,-23.85986583 l -2.698481,0"
     id="path18"
     style="fill:#ff6600"
     inkscape:connector-curvature="0" />
</svg>
