<?xml version="1.0" encoding="UTF-8" standalone="no"?>
<svg
   xmlns:dc="http://purl.org/dc/elements/1.1/"
   xmlns:cc="http://creativecommons.org/ns#"
   xmlns:rdf="http://www.w3.org/1999/02/22-rdf-syntax-ns#"
   xmlns:svg="http://www.w3.org/2000/svg"
   xmlns="http://www.w3.org/2000/svg"
   xmlns:sodipodi="http://sodipodi.sourceforge.net/DTD/sodipodi-0.dtd"
   xmlns:inkscape="http://www.inkscape.org/namespaces/inkscape"
   viewBox="0 0 48 48"
   id="svg2"
   version="1.1"
   inkscape:version="0.91 r13725"
   sodipodi:docname="chrome-ijfecbiladpinddbjfodaaiahggomhaf-Default.svg">
  <metadata
     id="metadata24">
    <rdf:RDF>
      <cc:Work
         rdf:about="">
        <dc:format>image/svg+xml</dc:format>
        <dc:type
           rdf:resource="http://purl.org/dc/dcmitype/StillImage" />
        <dc:title></dc:title>
      </cc:Work>
    </rdf:RDF>
  </metadata>
  <sodipodi:namedview
     pagecolor="#ffffff"
     bordercolor="#666666"
     borderopacity="1"
     objecttolerance="10"
     gridtolerance="10"
     guidetolerance="10"
     inkscape:pageopacity="0"
     inkscape:pageshadow="2"
     inkscape:window-width="1280"
     inkscape:window-height="694"
     id="namedview22"
     showgrid="false"
     inkscape:zoom="4.9166667"
     inkscape:cx="-9.1525424"
     inkscape:cy="24"
     inkscape:window-x="0"
     inkscape:window-y="0"
     inkscape:window-maximized="1"
     inkscape:current-layer="svg2" />
  <defs
     id="defs4">
    <linearGradient
       gradientUnits="userSpaceOnUse"
       y2="831.44"
       x2="0"
       y1="870.09"
       id="0"
       gradientTransform="matrix(2.6571039,0,0,2.6605716,-1686.327,-2215.5799)">
      <stop
         stop-color="#2e3e46"
         id="stop7" />
      <stop
         stop-color="#47606a"
         offset="1"
         id="stop9" />
    </linearGradient>
    <linearGradient
       y2="1.218"
       x2="27.572"
       y1="16.239"
       x1="27.427"
       gradientUnits="userSpaceOnUse"
       id="1"
       gradientTransform="matrix(1.71427,0,0,1.71427,-24.22,8.503)">
      <stop
         stop-color="#ff9300"
         id="stop12" />
      <stop
         stop-color="#ffd702"
         offset="1"
         id="stop14" />
    </linearGradient>
  </defs>
  <path
     inkscape:connector-curvature="0"
     style="fill:#ffcc00"
     id="path20"
     d="m 46.521371,41.551699 -9.718748,-9.8023 c 2.341079,-3.411678 3.513175,-7.212185 3.513175,-11.40466 0,-2.72495 -0.525424,-5.330745 -1.573157,-7.81738 C 37.694906,10.040723 36.277199,7.8958812 34.492632,6.0959706 32.708063,4.2960602 30.581505,2.8661664 28.116062,1.8094244 25.650622,0.75268263 23.06704,0.22274498 20.365315,0.22274498 c -2.701724,0 -5.285307,0.52993765 -7.750748,1.58667942 C 10.149127,2.8661664 8.0225674,4.2960602 6.2380006,6.0959706 4.453432,7.8958812 3.0357244,10.040723 1.98799,12.527359 c -1.04773458,2.486635 -1.57315519,5.09243 -1.57315519,7.81738 0,2.724953 0.52542061,5.330745 1.57315519,7.817381 1.0477344,2.486636 2.465442,4.628343 4.2500106,6.431388 1.7845668,1.799911 3.9111264,3.229804 6.3765664,4.286547 2.465441,1.056741 5.049024,1.586681 7.750748,1.586681 4.156739,0 7.924853,-1.182172 11.30745,-3.543377 l 9.718746,9.774077 c 0.680874,0.724355 1.529631,1.084964 2.549386,1.084964 0.982445,0 1.834311,-0.360609 2.549383,-1.084964 0.718181,-0.724354 1.075716,-1.58041 1.075716,-2.571301 0,-1.009705 -0.348209,-1.865761 -1.047735,-2.571299 M 29.331684,29.394464 c -2.484094,2.50545 -5.474955,3.759742 -8.969477,3.759742 -3.494521,0 -6.485383,-1.254292 -8.969478,-3.759742 -2.4840952,-2.505449 -3.727697,-5.522025 -3.727697,-9.046588 0,-3.524564 1.2436018,-6.541138 3.727697,-9.046588 2.484095,-2.5054506 5.474957,-3.7597436 8.969478,-3.7597436 3.494522,0 6.485383,1.254293 8.969477,3.7597436 2.484096,2.50545 3.727698,5.522024 3.727698,9.046588 0,3.524563 -1.243602,6.541139 -3.727698,9.046588" />
</svg>
