<?xml version="1.0" encoding="UTF-8" standalone="no"?>
<svg
   xmlns:dc="http://purl.org/dc/elements/1.1/"
   xmlns:cc="http://creativecommons.org/ns#"
   xmlns:rdf="http://www.w3.org/1999/02/22-rdf-syntax-ns#"
   xmlns:svg="http://www.w3.org/2000/svg"
   xmlns="http://www.w3.org/2000/svg"
   xmlns:sodipodi="http://sodipodi.sourceforge.net/DTD/sodipodi-0.dtd"
   xmlns:inkscape="http://www.inkscape.org/namespaces/inkscape"
   viewBox="0 0 48 48"
   id="svg2"
   version="1.1"
   inkscape:version="0.91 r13725"
   sodipodi:docname="cxmenu-cxoffice-0-cxreset.svg">
  <metadata
     id="metadata44">
    <rdf:RDF>
      <cc:Work
         rdf:about="">
        <dc:format>image/svg+xml</dc:format>
        <dc:type
           rdf:resource="http://purl.org/dc/dcmitype/StillImage" />
        <dc:title></dc:title>
      </cc:Work>
    </rdf:RDF>
  </metadata>
  <sodipodi:namedview
     pagecolor="#ffffff"
     bordercolor="#666666"
     borderopacity="1"
     objecttolerance="10"
     gridtolerance="10"
     guidetolerance="10"
     inkscape:pageopacity="0"
     inkscape:pageshadow="2"
     inkscape:window-width="1280"
     inkscape:window-height="694"
     id="namedview42"
     showgrid="false"
     inkscape:zoom="4.9166667"
     inkscape:cx="-8.6942251"
     inkscape:cy="24"
     inkscape:window-x="0"
     inkscape:window-y="0"
     inkscape:window-maximized="1"
     inkscape:current-layer="svg2" />
  <defs
     id="defs4">
    <linearGradient
       id="3"
       y1="923.15"
       x2="0"
       y2="859.58"
       gradientUnits="userSpaceOnUse"
       gradientTransform="matrix(0.28097991,0,0,0.28097991,-5.3719049,-212.78276)">
      <stop
         stop-color="#eb4646"
         id="stop7" />
      <stop
         offset="1"
         stop-color="#ff8651"
         id="stop9" />
    </linearGradient>
    <linearGradient
       id="2"
       y1="547.8"
       x2="0"
       y2="499.8"
       gradientUnits="userSpaceOnUse"
       gradientTransform="translate(-384.57,-499.8)">
      <stop
         stop-color="#e7e7e7"
         id="stop12" />
      <stop
         offset="1"
         stop-color="#fcfcfc"
         id="stop14" />
    </linearGradient>
    <linearGradient
       id="0"
       y1="536.64"
       x2="0"
       y2="515.74"
       gradientUnits="userSpaceOnUse"
       gradientTransform="matrix(1.24675,0,0,1.24675,-485.39,-629.05)">
      <stop
         stop-color="#197ff1"
         id="stop17" />
      <stop
         offset="1"
         stop-color="#21c6fb"
         id="stop19" />
    </linearGradient>
    <linearGradient
       id="1"
       y1="532.29"
       x2="0"
       y2="510.68"
       gradientUnits="userSpaceOnUse"
       gradientTransform="matrix(1.24675,0,0,1.24675,-485.39,-629.05)">
      <stop
         stop-color="#ff9300"
         id="stop22" />
      <stop
         offset="1"
         stop-color="#ffd702"
         id="stop24" />
    </linearGradient>
  </defs>
  <g
     id="g4183"
     transform="matrix(1.7806661,0,0,1.4701692,-18.633032,-11.281784)">
    <path
       inkscape:connector-curvature="0"
       style="fill:#ffd42a"
       id="path32"
       d="M 25.391007,7.98938 C 42.945248,29.321272 38.09165,37.723121 10.841435,33.186198 29.131258,32.545368 33.982362,24.146013 25.391007,7.98938" />
    <path
       inkscape:connector-curvature="0"
       style="fill:#2a7fff"
       id="path34"
       d="M 24.18166,13.599755 C 11.229174,13.817936 8.8902713,20.145193 17.088899,32.57529 17.861884,32.440641 18.601207,32.297265 19.30188,32.120226 16.168798,21.102697 22.118289,15.307803 37.15534,14.781674 32.046159,13.931391 27.716196,13.539911 24.18166,13.599755 m -6.031777,20.551427 c 1.280413,1.826489 2.752825,3.777653 4.455885,5.849751 -1.073452,-2.019735 -1.95241,-3.921029 -2.606954,-5.698894 -0.597194,-0.03616 -1.218075,-0.096 -1.848931,-0.152104" />
  </g>
  <path
     d="m 47.539723,34.56982 c -0.03652,-0.330461 -0.415512,-0.578796 -0.742642,-0.578796 -1.058718,0 -1.998308,-0.632568 -2.392686,-1.61124 -0.402542,-1.002137 -0.143151,-2.170969 0.646088,-2.907663 0.24835,-0.231224 0.278611,-0.617903 0.07013,-0.88677 -0.54185,-0.700518 -1.157675,-1.333086 -1.830662,-1.881084 -0.263239,-0.215091 -0.649932,-0.185273 -0.878103,0.07236 -0.688842,0.77629 -1.926256,1.064711 -2.881696,0.658968 -0.994833,-0.425787 -1.622187,-1.451877 -1.5607,-2.55276 0.02018,-0.346104 -0.228172,-0.646746 -0.566829,-0.686831 -0.863211,-0.101685 -1.733629,-0.104617 -2.599242,-0.0068 -0.334814,0.03764 -0.583162,0.331438 -0.572112,0.672654 0.03747,1.090129 -0.597091,2.098133 -1.582316,2.508765 -0.944393,0.392545 -2.172681,0.106562 -2.860079,-0.662878 -0.227212,-0.253222 -0.60718,-0.284509 -0.871859,-0.0748 -0.692682,0.552887 -1.322439,1.185944 -1.869093,1.880596 -0.213281,0.269844 -0.182056,0.661409 0.06917,0.893613 0.804129,0.741091 1.064004,1.920191 0.646088,2.933083 -0.398702,0.96645 -1.384886,1.589243 -2.514218,1.589243 -0.366519,-0.0118 -0.627355,0.238067 -0.667225,0.577327 -0.101827,0.883348 -0.102801,1.783315 -4.81e-4,2.673996 0.03604,0.331927 0.426562,0.578307 0.757533,0.578307 1.00636,-0.02591 1.971889,0.607635 2.377315,1.611239 0.403985,1.002137 0.144109,2.170482 -0.646089,2.907663 -0.247386,0.231225 -0.278609,0.617414 -0.07013,0.885791 0.537044,0.695631 1.152869,1.329177 1.827779,1.882063 0.264679,0.217048 0.649931,0.186251 0.879544,-0.07088 0.691243,-0.778245 1.926255,-1.066176 2.880256,-0.659455 0.997233,0.424319 1.624588,1.45041 1.5631,2.552271 -0.02018,0.346103 0.229614,0.647234 0.566829,0.68683 0.441454,0.05231 0.885787,0.0787 1.331084,0.0787 0.42272,0 0.84544,-0.02346 1.268159,-0.07137 0.335293,-0.03765 0.58316,-0.331439 0.572112,-0.673631 -0.0389,-1.089642 0.59709,-2.097644 1.580873,-2.507299 0.950638,-0.394987 2.174123,-0.106075 2.861521,0.662388 0.228654,0.252736 0.605739,0.283532 0.871859,0.0743 0.691243,-0.55142 1.319558,-1.183989 1.869093,-1.880595 0.213281,-0.269354 0.183019,-0.661411 -0.06917,-0.893613 -0.804129,-0.741093 -1.064963,-1.920193 -0.64753,-2.933083 0.392938,-0.953741 1.342135,-1.594131 2.363865,-1.594131 l 0.142676,0.004 c 0.33145,0.02737 0.636,-0.232201 0.67635,-0.576348 0.101827,-0.884327 0.102801,-1.783317 0.0053,-2.673995 m -11.463377,5.252164 c -2.125124,0 -3.85251,-1.759361 -3.85251,-3.920554 0,-2.162661 1.728827,-3.920556 3.85251,-3.920556 2.125127,0 3.85251,1.759362 3.85251,3.920556 0,2.16266 -1.728825,3.920554 -3.85251,3.920554"
     id="path40"
     inkscape:connector-curvature="0"
     style="fill:#f4d7d7;fill-opacity:1;fill-rule:evenodd;stroke-width:1.31700003" />
</svg>
