<?xml version="1.0" encoding="UTF-8" standalone="no"?>
<svg
   xmlns:dc="http://purl.org/dc/elements/1.1/"
   xmlns:cc="http://creativecommons.org/ns#"
   xmlns:rdf="http://www.w3.org/1999/02/22-rdf-syntax-ns#"
   xmlns:svg="http://www.w3.org/2000/svg"
   xmlns="http://www.w3.org/2000/svg"
   xmlns:sodipodi="http://sodipodi.sourceforge.net/DTD/sodipodi-0.dtd"
   xmlns:inkscape="http://www.inkscape.org/namespaces/inkscape"
   viewBox="0 0 48 48"
   id="svg2"
   version="1.1"
   inkscape:version="0.91 r13725"
   sodipodi:docname="desktop-enviroment-kde.svg">
  <metadata
     id="metadata25">
    <rdf:RDF>
      <cc:Work
         rdf:about="">
        <dc:format>image/svg+xml</dc:format>
        <dc:type
           rdf:resource="http://purl.org/dc/dcmitype/StillImage" />
        <dc:title></dc:title>
      </cc:Work>
    </rdf:RDF>
  </metadata>
  <sodipodi:namedview
     pagecolor="#ffffff"
     bordercolor="#666666"
     borderopacity="1"
     objecttolerance="10"
     gridtolerance="10"
     guidetolerance="10"
     inkscape:pageopacity="0"
     inkscape:pageshadow="2"
     inkscape:window-width="1280"
     inkscape:window-height="694"
     id="namedview23"
     showgrid="false"
     inkscape:zoom="4.9166667"
     inkscape:cx="-9.1525424"
     inkscape:cy="24"
     inkscape:window-x="0"
     inkscape:window-y="0"
     inkscape:window-maximized="1"
     inkscape:current-layer="svg2" />
  <defs
     id="defs4">
    <linearGradient
       gradientUnits="userSpaceOnUse"
       y2="517.8"
       x2="0"
       y1="545.8"
       id="linearGradient6">
      <stop
         stop-color="#3889e9"
         id="stop8" />
      <stop
         offset="1"
         stop-color="#5ea5fb"
         id="stop10" />
    </linearGradient>
    <linearGradient
       y2="518.14"
       x2="0"
       y1="545.14"
       gradientUnits="userSpaceOnUse"
       id="0"
       gradientTransform="matrix(1.71428,0,0,1.71428,-662.7,-887.66)">
      <stop
         stop-color="#1a85f2"
         id="stop13" />
      <stop
         offset="1"
         stop-color="#20bafa"
         id="stop15" />
    </linearGradient>
  </defs>
  <path
     style="fill:#2a7fff;fill-opacity:0.85"
     inkscape:connector-curvature="0"
     id="path21"
     d="m 27.996241,-0.07587436 -8.293744,0.76412956 0,32.7186388 8.206685,-1.189264 0,-13.948839 11.041881,15.477098 8.647779,-2.631385 L 36.289984,16.232039 47.6859,2.1998419 38.858202,0.26589924 27.90628,14.298097 27.996237,-0.07587436 M 9.1916663,7.9016383 c -0.092867,0.00552 -0.1944303,0.033341 -0.2669788,0.1028129 l -3.261779,3.1232058 c -0.1363891,0.130595 -0.1538081,0.333438 -0.049328,0.491821 l 3.8102474,6.02412 C 8.7476744,18.73283 8.1992077,19.899865 7.8103486,21.139145 l -6.99947835,1.392104 c -0.19443002,0.04168 -0.33662503,0.216735 -0.33662503,0.408461 l 0,4.412502 c 0,0.186169 0.14799844,0.347332 0.33662503,0.389011 l 6.78763585,1.578274 c 0.3627424,1.433785 0.9228184,2.806441 1.6657138,4.056835 l -3.935029,5.735139 c -0.1102694,0.161165 -0.087061,0.375118 0.049328,0.508494 l 3.2617806,3.123205 c 0.1363891,0.130596 0.3482334,0.147274 0.513644,0.04723 l 6.1666226,-3.581684 c 1.210107,0.669656 2.518883,1.203158 3.900205,1.561604 l 1.436459,6.618751 c 0.04354,0.18617 0.208941,0.322323 0.406273,0.322323 l 4.608279,0 c 0.194431,0 0.362743,-0.125035 0.406273,-0.305652 l 1.700537,-6.652094 c 1.42195,-0.366782 2.765547,-0.911399 4.004676,-1.611619 l 6.079564,3.817869 c 0.168315,0.105586 0.388859,0.08336 0.531055,-0.04723 l 3.244367,-3.123206 c 0.139284,-0.130595 0.171214,-0.333439 0.06964,-0.491822 l -2.214181,-3.495545 -0.725484,0.219513 c -0.104461,0.03334 -0.220547,-0.01394 -0.284389,-0.102816 0,0 -1.398735,-1.970065 -3.226959,-4.531984 -2.18516,4.092957 -6.639636,6.89106 -11.767364,6.89106 -7.289673,0 -13.203825,-5.662895 -13.203825,-12.64287 0,-5.134951 3.206643,-9.544673 7.797512,-11.523075 l 0,-3.259359 c -0.83576,0.280643 -1.642498,0.61686 -2.411513,1.016987 0,0 0,-0.01394 0,-0.01945 L 9.4499357,7.9460961 C 9.3657864,7.8905161 9.2787222,7.8849721 9.1829568,7.8988641" />
</svg>
