<?xml version="1.0" encoding="UTF-8" standalone="no"?>
<svg
   xmlns:dc="http://purl.org/dc/elements/1.1/"
   xmlns:cc="http://creativecommons.org/ns#"
   xmlns:rdf="http://www.w3.org/1999/02/22-rdf-syntax-ns#"
   xmlns:svg="http://www.w3.org/2000/svg"
   xmlns="http://www.w3.org/2000/svg"
   xmlns:sodipodi="http://sodipodi.sourceforge.net/DTD/sodipodi-0.dtd"
   xmlns:inkscape="http://www.inkscape.org/namespaces/inkscape"
   viewBox="0 0 48 48"
   id="svg2"
   version="1.1"
   inkscape:version="0.91 r13725"
   sodipodi:docname="desura.svg">
  <metadata
     id="metadata19">
    <rdf:RDF>
      <cc:Work
         rdf:about="">
        <dc:format>image/svg+xml</dc:format>
        <dc:type
           rdf:resource="http://purl.org/dc/dcmitype/StillImage" />
        <dc:title></dc:title>
      </cc:Work>
    </rdf:RDF>
  </metadata>
  <sodipodi:namedview
     pagecolor="#ffffff"
     bordercolor="#666666"
     borderopacity="1"
     objecttolerance="10"
     gridtolerance="10"
     guidetolerance="10"
     inkscape:pageopacity="0"
     inkscape:pageshadow="2"
     inkscape:window-width="1280"
     inkscape:window-height="694"
     id="namedview17"
     showgrid="false"
     inkscape:zoom="4.9166667"
     inkscape:cx="24"
     inkscape:cy="24"
     inkscape:window-x="0"
     inkscape:window-y="0"
     inkscape:window-maximized="1"
     inkscape:current-layer="svg2" />
  <defs
     id="defs4">
    <linearGradient
       id="0"
       gradientUnits="userSpaceOnUse"
       y1="-2.471"
       x2="0"
       y2="-51.27"
       gradientTransform="matrix(0.9999917,0,0,0.9999917,-53.370085,50.71795)">
      <stop
         stop-color="#0a80fd"
         id="stop7" />
      <stop
         offset="1"
         stop-color="#56c5fa"
         id="stop9" />
    </linearGradient>
  </defs>
  <path
     style="fill:#002255;fill-opacity:1"
     inkscape:connector-curvature="0"
     id="path15"
     d="M 23.926352,0.39339727 C 23.883959,0.36964374 21.914848,2.4859171 19.545261,5.1161571 16.112855,8.9285443 15.171673,9.9072777 14.953499,9.9068601 14.802506,9.9068177 12.368349,9.614241 9.5164349,9.2320025 6.6645192,8.8497621 4.3135235,8.5621458 4.292,8.5913234 4.2470011,8.6500908 0.30812336,25.298136 0.25398751,25.6612 0.23050634,25.817521 1.8072948,27.60491 5.6646372,31.800787 l 5.4370638,5.903658 1.95313,0 c 1.070324,0 2.141627,-0.05712 2.401871,-0.09753 l 0.475155,-0.06628 -5.727311,-6.07206 C 7.0526008,28.135967 4.4804972,25.330241 4.4772353,25.227281 c -3.253e-4,-0.0992 0.532553,-2.260505 1.1877272,-4.824049 0.655501,-2.56313 1.3077401,-5.219213 1.4779743,-5.903241 0.3081833,-1.233836 0.3163352,-1.254679 0.6333239,-1.248009 0.1757779,0 2.2635953,0.300955 4.6188313,0.674858 l 4.275427,0.674859 3.351856,-3.676917 C 21.865929,8.8889526 23.494243,7.0790482 23.63904,6.9098131 l 0.263831,-0.3034582 2.639287,2.9011829 c 1.447643,1.6010702 3.066827,3.4109742 3.616664,4.0145532 l 1.002817,1.079608 4.565674,-0.708623 c 2.514708,-0.396828 4.575458,-0.712791 4.591763,-0.674441 0.05154,0.121308 3.061611,11.962793 3.061611,12.043243 0,0.04251 -2.590368,2.819484 -5.753727,6.172933 l -5.753727,6.105824 0.501571,0.06628 c 0.268071,0.04253 1.346222,0.09379 2.401871,0.09753 l 1.926713,0.03127 5.41065,-5.90449 c 2.97845,-3.235487 5.421737,-5.924915 5.437065,-6.004532 C 47.573933,25.707052 43.611579,8.6446842 43.539507,8.5529801 43.527128,8.5292263 41.166009,8.84143 38.285721,9.227422 35.407064,9.6125722 32.943557,9.9218647 32.796151,9.9018573 32.607328,9.8743503 31.251649,8.4691886 28.256568,5.1449171 25.917965,2.5501087 23.971357,0.4079861 23.928309,0.38922798 Z m -0.05283,10.28919673 -2.428286,3.137111 -2.40187,3.171292 0,2.732782 c -0.0072,4.292168 0.378951,7.93657 1.16131,11.030748 0.719095,2.84616 1.557875,4.755689 2.82387,6.375933 0.424933,0.543138 0.795732,0.977898 0.84465,0.977898 0.195998,0 1.212838,-1.280522 1.741804,-2.192143 0.787254,-1.35722 1.447971,-3.02415 1.95313,-4.992868 0.819866,-3.195887 1.140767,-5.98244 1.214142,-10.592653 l 0.05283,-3.338862 -2.480791,-3.171293 -2.480791,-3.137112 m 14.885399,6.409281 c -0.02479,-0.03125 -1.435578,0.154646 -3.140857,0.405164 -1.705279,0.248434 -3.16238,0.472275 -3.219778,0.472275 -0.06751,0 -0.105663,0.586907 -0.105663,1.653176 0,5.618122 -1.58168,12.390051 -3.933002,16.867292 -0.544619,1.037091 -0.597451,1.232587 -0.369492,1.045844 1.522651,-1.25051 12.370364,-12.980293 12.32536,-13.325433 -0.04924,-0.379738 -1.510911,-7.058295 -1.55722,-7.11957 m -29.7192741,0.06628 c -0.040767,0.05712 -0.4001475,1.711949 -0.8182326,3.676499 l -0.7654028,3.542696 0.2638308,0.337637 c 2.5476447,2.850747 9.5389957,10.33463 11.1891607,11.975718 0.572991,0.568981 1.065759,0.99874 1.082064,0.977898 0.0163,-0.02375 -0.248502,-0.58524 -0.606908,-1.281773 -2.302404,-4.471406 -3.683846,-10.340884 -3.906259,-16.597182 -0.0362,-1.014167 -0.09947,-1.821161 -0.132074,-1.821161 -0.03229,0 -1.444385,-0.224675 -3.140857,-0.472692 -1.696474,-0.248019 -3.1261836,-0.39266 -3.1672741,-0.336388 m 9.1574371,23.005214 -5.753727,0.03127 5.727311,3.744028 c 3.138899,2.047918 5.72405,3.690253 5.753726,3.676915 0.02935,-0.02375 2.618741,-1.675685 5.753728,-3.711096 l 5.700895,-3.710264 -5.727312,-0.03127 c -3.150639,-0.02209 -8.301697,-0.02209 -11.453318,0.0012 z" />
</svg>
