<?xml version="1.0" encoding="UTF-8" standalone="no"?>
<svg
   xmlns:dc="http://purl.org/dc/elements/1.1/"
   xmlns:cc="http://creativecommons.org/ns#"
   xmlns:rdf="http://www.w3.org/1999/02/22-rdf-syntax-ns#"
   xmlns:svg="http://www.w3.org/2000/svg"
   xmlns="http://www.w3.org/2000/svg"
   xmlns:sodipodi="http://sodipodi.sourceforge.net/DTD/sodipodi-0.dtd"
   xmlns:inkscape="http://www.inkscape.org/namespaces/inkscape"
   viewBox="0 0 48 48"
   id="svg2"
   version="1.1"
   inkscape:version="0.91 r13725"
   sodipodi:docname="ebay.svg">
  <metadata
     id="metadata35">
    <rdf:RDF>
      <cc:Work
         rdf:about="">
        <dc:format>image/svg+xml</dc:format>
        <dc:type
           rdf:resource="http://purl.org/dc/dcmitype/StillImage" />
        <dc:title></dc:title>
      </cc:Work>
    </rdf:RDF>
  </metadata>
  <sodipodi:namedview
     pagecolor="#ffffff"
     bordercolor="#666666"
     borderopacity="1"
     objecttolerance="10"
     gridtolerance="10"
     guidetolerance="10"
     inkscape:pageopacity="0"
     inkscape:pageshadow="2"
     inkscape:window-width="1280"
     inkscape:window-height="694"
     id="namedview33"
     showgrid="false"
     inkscape:zoom="4.9166667"
     inkscape:cx="-9.1525424"
     inkscape:cy="24"
     inkscape:window-x="0"
     inkscape:window-y="0"
     inkscape:window-maximized="1"
     inkscape:current-layer="svg2" />
  <defs
     id="defs4">
    <filter
       color-interpolation-filters="sRGB"
       id="filter6">
      <feGaussianBlur
         stdDeviation="1.71"
         id="feGaussianBlur8" />
    </filter>
    <linearGradient
       gradientTransform="scale(1.0059.99417)"
       gradientUnits="userSpaceOnUse"
       y2="7.02"
       x2="0"
       y1="92.54"
       id="linearGradient10">
      <stop
         id="stop12" />
      <stop
         offset="1"
         stop-opacity=".588"
         id="stop14" />
    </linearGradient>
    <linearGradient
       gradientUnits="userSpaceOnUse"
       y2="-26.05"
       x2="-125.19"
       y1="73.5"
       x1="-123.97"
       id="0"
       gradientTransform="matrix(1.03458 0 0 1 4.382 0)">
      <stop
         stop-color="#d3d3d3"
         id="stop17" />
      <stop
         offset="1"
         stop-color="#fcf9f9"
         id="stop19" />
    </linearGradient>
  </defs>
  <g
     id="g4167"
     transform="matrix(1.1779563,0,0,2.955276,-4.3732817,-46.934279)">
    <path
       d="m 9.174993,19.484627 c -2.8210853,0 -5.1725235,1.196533 -5.1725235,4.808547 0,2.860578 1.5807898,4.662316 5.2451053,4.662316 4.3122152,0 4.5897342,-2.841366 4.5897342,-2.841366 l -2.08993,0 c 0,0 -0.4483,1.529556 -2.6268224,1.529556 -1.7750529,0 -3.0516394,-1.198668 -3.0516394,-2.879791 l 7.9872048,0 0,-1.054572 c 0,-1.662978 -1.055639,-4.225757 -4.881129,-4.225757 m -0.072582,1.348101 c 1.689663,0 2.841366,1.035358 2.841366,2.586262 l -5.8278953,0 c 0,-1.646968 1.5028711,-2.586262 2.9865293,-2.586262"
       id="path25"
       inkscape:connector-curvature="0"
       style="fill:#ff5555" />
    <path
       d="m 14.05292,15.994295 0,11.154121 c 0,0.632956 -0.04483,1.522083 -0.04483,1.522083 l 1.992798,0 c 0,0 0.07152,-0.638293 0.07152,-1.22215 0,0 0.985191,1.54023 3.66218,1.54023 2.820018,0 4.734898,-1.957575 4.734898,-4.76265 0,-2.609744 -1.759042,-4.708213 -4.730628,-4.708213 -2.78266,0 -3.647238,1.502871 -3.647238,1.502871 l 0,-5.026292 z m 5.172523,4.903543 c 1.91488,0 3.13276,1.420683 3.13276,3.328091 0,2.0451 -1.406806,3.382527 -3.118884,3.382527 -2.044033,0 -3.146636,-1.595733 -3.146636,-3.364381 0,-1.648035 0.989461,-3.346237 3.13276,-3.346237"
       id="path27"
       inkscape:connector-curvature="0"
       style="fill:#3771c8" />
    <path
       d="m 29.423192,19.484627 c -4.244971,0 -4.517153,2.323686 -4.517153,2.695135 l 2.112345,0 c 0,0 0.111008,-1.35664 2.258577,-1.35664 1.395065,0 2.477389,0.638293 2.477389,1.866847 l 0,0.436559 -2.477389,0 c -3.288598,0 -5.026293,0.961709 -5.026293,2.913947 0,1.921284 1.606407,2.966249 3.776391,2.966249 2.95771,0 3.91088,-1.634159 3.91088,-1.634159 0,0.650035 0.05017,1.290463 0.05017,1.290463 l 1.878589,0 c 0,0 -0.07258,-0.794131 -0.07258,-1.302204 l 0,-4.391201 c 0,-2.879791 -2.322619,-3.484996 -4.370921,-3.484996 m 2.331158,4.953711 0,0.582789 c 0,0.759975 -0.46858,2.650305 -3.234162,2.650305 -1.512477,0 -2.160377,-0.754638 -2.160377,-1.629889 0,-1.592531 2.182792,-1.603205 5.390269,-1.603205"
       id="path29"
       inkscape:connector-curvature="0"
       style="fill:#ffd42a" />
    <path
       d="m 32.657353,19.847536 2.377055,0 3.411347,6.833367 3.402807,-6.833367 2.156108,0 -6.198276,12.165998 -2.258576,0 1.788929,-3.391067 z"
       id="path31"
       inkscape:connector-curvature="0"
       style="fill:#abc837" />
  </g>
</svg>
