<?xml version="1.0" encoding="UTF-8" standalone="no"?>
<svg
   xmlns:dc="http://purl.org/dc/elements/1.1/"
   xmlns:cc="http://creativecommons.org/ns#"
   xmlns:rdf="http://www.w3.org/1999/02/22-rdf-syntax-ns#"
   xmlns:svg="http://www.w3.org/2000/svg"
   xmlns="http://www.w3.org/2000/svg"
   xmlns:sodipodi="http://sodipodi.sourceforge.net/DTD/sodipodi-0.dtd"
   xmlns:inkscape="http://www.inkscape.org/namespaces/inkscape"
   viewBox="0 0 48 48"
   id="svg2"
   version="1.1"
   inkscape:version="0.91 r13725"
   sodipodi:docname="kalgebra.svg">
  <metadata
     id="metadata29">
    <rdf:RDF>
      <cc:Work
         rdf:about="">
        <dc:format>image/svg+xml</dc:format>
        <dc:type
           rdf:resource="http://purl.org/dc/dcmitype/StillImage" />
        <dc:title></dc:title>
      </cc:Work>
    </rdf:RDF>
  </metadata>
  <sodipodi:namedview
     pagecolor="#ffffff"
     bordercolor="#666666"
     borderopacity="1"
     objecttolerance="10"
     gridtolerance="10"
     guidetolerance="10"
     inkscape:pageopacity="0"
     inkscape:pageshadow="2"
     inkscape:window-width="1280"
     inkscape:window-height="694"
     id="namedview27"
     showgrid="false"
     inkscape:zoom="4.9166667"
     inkscape:cx="-42"
     inkscape:cy="24"
     inkscape:window-x="0"
     inkscape:window-y="0"
     inkscape:window-maximized="1"
     inkscape:current-layer="svg2" />
  <defs
     id="defs4">
    <linearGradient
       id="0"
       x1="-123.97"
       y1="73.5"
       x2="-125.19"
       y2="-26.05"
       gradientUnits="userSpaceOnUse"
       gradientTransform="matrix(0.4778,0,0,0.4778,84.54805,13.101736)">
      <stop
         stop-color="#8798a9"
         id="stop7" />
      <stop
         offset="1"
         stop-color="#aeb6be"
         id="stop9" />
    </linearGradient>
  </defs>
  <path
     style="opacity:0.9;fill:#917c6f;fill-opacity:1"
     inkscape:connector-curvature="0"
     id="path25"
     d="M 37.05623,38.805575 C 30.29492,33.163598 35.066687,9.9559807 35.066687,9.9559807 c 0,0 7.401221,0 8.263709,0 0.86249,0 4.243651,-0.5787202 4.243651,-4.9018399 0,-5.31536487 -4.131855,-4.98875611 -4.131855,-4.98875611 0,0 -22.649324,0 -30.427411,0 -4.9943437,0 -9.5020514,6.10246571 -12.08952069,10.46715531 C -0.45219266,12.863614 0.3268301,13.516832 2.6922256,12.418237 10.984265,8.5431926 13.32032,9.9387047 13.32032,9.9387047 13.904588,12.922996 14.099342,26.389559 11.971196,31.705465 9.8147184,36.709336 5.8351267,43.047717 11.678808,46.775382 16.241655,49.536716 21.027587,43.86505 20.554608,34.214148 20.33203,29.106626 19.956178,9.9543597 19.956178,9.9543597 l 7.623293,0 c -0.237249,2.9842923 -1.527693,18.2172443 -0.1806,27.2462383 1.40477,15.069919 16.748986,12.14501 19.61569,3.608899 0.709213,-2.360764 0.542785,-4.172502 0.01362,-5.538863 -0.974284,-2.538375 -2.602138,-2.671718 -2.420535,-1.484587 0.111794,0.756869 0.04198,1.499163 -0.06981,2.170197 -0.334373,2.063848 -4.285129,5.29971 -7.485193,2.850949" />
</svg>
