<?xml version="1.0" encoding="UTF-8" standalone="no"?>
<svg
   xmlns:dc="http://purl.org/dc/elements/1.1/"
   xmlns:cc="http://creativecommons.org/ns#"
   xmlns:rdf="http://www.w3.org/1999/02/22-rdf-syntax-ns#"
   xmlns:svg="http://www.w3.org/2000/svg"
   xmlns="http://www.w3.org/2000/svg"
   xmlns:sodipodi="http://sodipodi.sourceforge.net/DTD/sodipodi-0.dtd"
   xmlns:inkscape="http://www.inkscape.org/namespaces/inkscape"
   viewBox="0 0 48 48"
   id="svg2"
   version="1.1"
   inkscape:version="0.91 r13725"
   sodipodi:docname="kipi-jalbum.svg">
  <metadata
     id="metadata29">
    <rdf:RDF>
      <cc:Work
         rdf:about="">
        <dc:format>image/svg+xml</dc:format>
        <dc:type
           rdf:resource="http://purl.org/dc/dcmitype/StillImage" />
        <dc:title></dc:title>
      </cc:Work>
    </rdf:RDF>
  </metadata>
  <sodipodi:namedview
     pagecolor="#ffffff"
     bordercolor="#666666"
     borderopacity="1"
     objecttolerance="10"
     gridtolerance="10"
     guidetolerance="10"
     inkscape:pageopacity="0"
     inkscape:pageshadow="2"
     inkscape:window-width="1280"
     inkscape:window-height="694"
     id="namedview27"
     showgrid="false"
     inkscape:zoom="4.9166667"
     inkscape:cx="-9.1525424"
     inkscape:cy="24"
     inkscape:window-x="0"
     inkscape:window-y="0"
     inkscape:window-maximized="1"
     inkscape:current-layer="svg2" />
  <defs
     id="defs4">
    <linearGradient
       y1="545.8"
       x2="0"
       y2="517.8"
       gradientUnits="userSpaceOnUse"
       id="linearGradient6">
      <stop
         stop-color="#3889e9"
         id="stop8" />
      <stop
         offset="1"
         stop-color="#5ea5fb"
         id="stop10" />
    </linearGradient>
    <linearGradient
       id="0"
       gradientUnits="userSpaceOnUse"
       y1="545.14"
       x2="0"
       y2="518.14">
      <stop
         stop-color="#5dae33"
         id="stop13" />
      <stop
         offset="1"
         stop-color="#9be058"
         id="stop15" />
    </linearGradient>
  </defs>
  <path
     style="fill:#2d5016;fill-opacity:1;fill-rule:evenodd"
     inkscape:connector-curvature="0"
     id="path25"
     d="m 9.7208258,0.15477966 c -4.5385922,0 -8.2184195,4.97845844 -8.2184195,11.11492434 0,4.092924 1.6442371,7.666203 4.083627,9.594918 -3.1806103,3.950848 -5.09450788,8.506975 -5.09450788,12.418899 0,8.567308 10.52505358,14.561699 23.50885758,14.561699 12.981038,0 23.506092,-6.480948 23.506092,-14.561699 0,-4.028698 -1.887624,-8.567308 -5.023982,-12.475339 2.402052,-1.940393 4.0131,-5.482533 4.0131,-9.536532 0,-6.1364656 -3.674296,-11.1149241 -8.21842,-11.1149241 -4.538592,0 -8.218419,4.9784585 -8.218419,11.1149241 0,0.321128 0.01522,0.636418 0.03458,0.949761 -1.945704,-0.5936 -3.982676,-0.949761 -6.092942,-0.949761 -2.114414,0 -4.148622,0.369784 -6.10124,0.977008 0.02074,-0.323074 0.03734,-0.648095 0.03734,-0.977008 0,-6.1364656 -3.674297,-11.1149241 -8.2184202,-11.1149241 m 0,5.1691891 c 2.4615152,0 4.4542362,2.6896911 4.4542362,6.009961 0,0.9809 -0.190836,1.891736 -0.499218,2.7111 -1.659448,0.906943 -3.220712,1.983208 -4.6326274,3.207388 -2.1337742,-0.443741 -3.775246,-2.919346 -3.775246,-5.918488 0,-3.3202699 1.9954876,-6.009961 4.4542376,-6.009961 m 28.5591138,0 c 2.461515,0 4.454236,2.6896911 4.454236,6.009961 0,2.950486 -1.582008,5.40079 -3.667382,5.902918 -1.447868,-1.255319 -3.054768,-2.3491 -4.766766,-3.265776 -0.291786,-0.7999 -0.472943,-1.687381 -0.472943,-2.637142 0,-3.3202699 1.995487,-6.009961 4.454237,-6.009961 M 9.6738091,8.9439581 c -0.9624813,0 -1.7451876,1.0353949 -1.7451876,2.3257459 0,1.284512 0.7813239,2.325746 1.7451876,2.325746 0.9652459,0 1.7451859,-1.041234 1.7451859,-2.325746 0,-1.290351 -0.778558,-2.3257459 -1.7451859,-2.3257459 m 28.5591129,0 c -0.962481,0 -1.745187,1.0353949 -1.745187,2.3257459 0,1.284512 0.781324,2.325746 1.745187,2.325746 0.965246,0 1.745187,-1.041234 1.745187,-2.325746 0,-1.290351 -0.778558,-2.3257459 -1.745187,-2.3257459 M 19.68305,19.284282 c 0.456349,0 0.826959,0.492397 0.826959,1.091836 0,0.615009 -0.37061,1.105459 -0.826959,1.105459 -0.456348,0 -0.826958,-0.49045 -0.826958,-1.105459 0,-0.597493 0.37061,-1.091836 0.826958,-1.091836 m 8.631899,0 c 0.454966,0 0.826959,0.492397 0.826959,1.091836 0,0.615009 -0.37061,1.105459 -0.826959,1.105459 -0.456348,0 -0.826958,-0.49045 -0.826958,-1.105459 0,-0.597493 0.37061,-1.091836 0.826958,-1.091836" />
</svg>
