<?xml version="1.0" encoding="UTF-8" standalone="no"?>
<svg
   xmlns:dc="http://purl.org/dc/elements/1.1/"
   xmlns:cc="http://creativecommons.org/ns#"
   xmlns:rdf="http://www.w3.org/1999/02/22-rdf-syntax-ns#"
   xmlns:svg="http://www.w3.org/2000/svg"
   xmlns="http://www.w3.org/2000/svg"
   xmlns:sodipodi="http://sodipodi.sourceforge.net/DTD/sodipodi-0.dtd"
   xmlns:inkscape="http://www.inkscape.org/namespaces/inkscape"
   viewBox="0 0 48 48"
   id="svg2"
   version="1.1"
   inkscape:version="0.91 r13725"
   sodipodi:docname="mailru-mail.ru.svg">
  <metadata
     id="metadata33">
    <rdf:RDF>
      <cc:Work
         rdf:about="">
        <dc:format>image/svg+xml</dc:format>
        <dc:type
           rdf:resource="http://purl.org/dc/dcmitype/StillImage" />
        <dc:title></dc:title>
      </cc:Work>
    </rdf:RDF>
  </metadata>
  <sodipodi:namedview
     pagecolor="#ffffff"
     bordercolor="#666666"
     borderopacity="1"
     objecttolerance="10"
     gridtolerance="10"
     guidetolerance="10"
     inkscape:pageopacity="0"
     inkscape:pageshadow="2"
     inkscape:window-width="1280"
     inkscape:window-height="694"
     id="namedview31"
     showgrid="false"
     inkscape:zoom="4.9166667"
     inkscape:cx="-20.657412"
     inkscape:cy="24"
     inkscape:window-x="0"
     inkscape:window-y="0"
     inkscape:window-maximized="1"
     inkscape:current-layer="svg2" />
  <defs
     id="defs4">
    <linearGradient
       id="0"
       x1=".152"
       y1="18.836"
       x2=".021"
       y2="7.269"
       gradientUnits="userSpaceOnUse"
       gradientTransform="matrix(1.71427,0,0,1.71427,15.789,13.512)">
      <stop
         stop-color="#535e66"
         id="stop7" />
      <stop
         offset="1"
         stop-color="#7d8b98"
         id="stop9" />
    </linearGradient>
    <linearGradient
       id="1"
       x1="5.71"
       y1="18.227"
       x2="4.751"
       y2="-6.444"
       gradientUnits="userSpaceOnUse"
       gradientTransform="matrix(1.71427,0,0,1.71427,15.789,13.512)">
      <stop
         stop-color="#566069"
         id="stop12" />
      <stop
         offset="1"
         stop-color="#6c7884"
         id="stop14" />
    </linearGradient>
    <linearGradient
       id="2"
       x1="4.199"
       y1="12.926"
       x2="4.065"
       y2="-6.998"
       gradientUnits="userSpaceOnUse"
       gradientTransform="matrix(1.71427,0,0,1.71427,15.789,13.512)">
      <stop
         stop-color="#197cf1"
         id="stop17" />
      <stop
         offset="1"
         stop-color="#59d0ff"
         id="stop19" />
    </linearGradient>
  </defs>
  <g
     id="g3"
     transform="matrix(0.14915063,0,0,0.09308779,-14.182564,0.47456358)"
     style="fill:#535d6c">
    <path
       d="m 384,409.938 0,-307.875 C 403.844,91.375 416,78.313 416,64 416,28.656 344.375,0 256,0 167.625,0 96,28.656 96,64 c 0,14.313 12.156,27.375 32,38.063 l 0,307.875 c -19.844,10.688 -32,23.75 -32,38.063 0,35.344 71.625,64 160,64 88.375,0 160,-28.656 160,-64 0,-14.313 -12.156,-27.376 -32,-38.063 z M 192,256 l 0,-32 128,0 0,32 -48,0 0,96 -32,0 0,-96 -48,0 z m 0,-64 0,-32 128,0 0,32 -128,0 z"
       id="path5"
       inkscape:connector-curvature="0"
       style="fill:#535d6c" />
  </g>
  <path
     style="fill:#80b3ff;fill-opacity:1"
     inkscape:connector-curvature="0"
     id="path29"
     d="m 30.418065,32.79289 c 0.252346,0 0.499693,0.03584 0.729552,0.105152 0.874463,-0.936788 1.843866,-1.789935 2.893222,-2.545102 -0.04498,-0.176843 -0.06746,-0.363244 -0.06746,-0.552035 0,-0.262875 0.04498,-0.516189 0.129917,-0.752777 -1.176778,-0.805351 -2.455992,-1.481654 -3.815156,-2.005015 -1.274216,0.752777 -2.386034,1.734971 -3.272988,2.88684 0.657097,1.116021 1.439115,2.153179 2.328568,3.099527 0.3248,-0.150556 0.687079,-0.234198 1.07434,-0.234198 M 27.93708,35.16832 c 0,-0.332177 0.07245,-0.650016 0.202376,-0.936788 -0.79701,-0.838808 -1.516568,-1.73975 -2.148679,-2.702826 -0.792014,1.505552 -1.241737,3.207067 -1.241737,5.006561 0,2.083876 0.599632,4.033926 1.641491,5.704372 0.37227,-2.005013 1.079337,-3.902489 2.053737,-5.639849 -0.317304,-0.396701 -0.504689,-0.896162 -0.504689,-1.43386 m 8.517265,-7.738063 c 0.654598,0 1.249232,0.243755 1.693958,0.640457 1.294205,-0.532918 2.655868,-0.941568 4.074995,-1.202053 -1.711448,-0.943957 -3.697726,-1.486434 -5.813926,-1.486434 -1.444112,0 -2.825763,0.253315 -4.09998,0.71215 1.011878,0.477953 1.978784,1.037158 2.885727,1.665667 0.369773,-0.2103 0.799508,-0.332177 1.261724,-0.332177 z m 3.707721,11.174547 c 0.154904,-0.308278 0.374769,-0.580712 0.644603,-0.795791 -0.73205,-2.15318 -1.891337,-4.127128 -3.385419,-5.821471 -0.297317,0.121881 -0.624616,0.186401 -0.969403,0.186401 -0.53967,0 -1.034365,-0.164894 -1.441615,-0.442107 -0.899447,0.652407 -1.731435,1.386064 -2.48847,2.186637 0.237354,0.363244 0.377268,0.791012 0.377268,1.249847 0,0.246147 -0.03998,0.485123 -0.114934,0.709761 2.176163,1.388454 4.682122,2.344361 7.377966,2.726723 m 3.218021,3.204677 c 0.03249,0.449277 0.05247,0.900942 0.05247,1.359778 0,0.805351 -0.05247,1.598754 -0.154905,2.377818 1.976286,-1.381285 3.48286,-3.343284 4.242393,-5.623122 -0.899447,0.207911 -1.821381,0.358466 -2.763302,0.442107 -0.219865,0.650018 -0.724554,1.175766 -1.374155,1.44581 m -3.797666,-1.608313 c -2.878231,-0.456446 -5.546591,-1.507943 -7.870162,-3.011106 -0.377269,0.219859 -0.819497,0.351296 -1.294205,0.351296 -0.177391,0 -0.344788,-0.01673 -0.509687,-0.05018 -1.111816,2.014572 -1.82138,4.263344 -2.026254,6.64833 1.109318,1.139919 2.463485,2.057588 3.985051,2.671759 1.891337,-2.779298 4.532213,-5.078254 7.715257,-6.610094 m 4.654639,-11.932105 c -1.868852,0.174454 -3.652754,0.623729 -5.314234,1.295253 0.0074,0.07886 0.01253,0.157725 0.01253,0.238977 0,0.375194 -0.09494,0.726489 -0.254843,1.041939 1.661478,1.866408 2.948187,4.036315 3.762686,6.414134 1.009381,0.01911 1.871351,0.60939 2.243622,1.448197 1.12181,-0.109934 2.216137,-0.315448 3.267991,-0.61178 0.07496,-0.509019 0.117427,-1.029989 0.117427,-1.560517 0,-3.27876 -1.479091,-6.225341 -3.832644,-8.266203 M 40.839187,41.46775 c -2.970674,1.331101 -5.454148,3.381519 -7.253042,5.885995 0.906942,0.217469 1.85386,0.332178 2.83076,0.332178 1.758919,0 3.425394,-0.375194 4.919475,-1.041939 0.239853,-1.125579 0.367275,-2.287006 0.367275,-3.47711 0,-0.430157 -0.01998,-0.857926 -0.05496,-1.278525 -0.299815,-0.0932 -0.574647,-0.234198 -0.812002,-0.422989" />
</svg>
