<?xml version="1.0" encoding="UTF-8" standalone="no"?>
<svg
   xmlns:dc="http://purl.org/dc/elements/1.1/"
   xmlns:cc="http://creativecommons.org/ns#"
   xmlns:rdf="http://www.w3.org/1999/02/22-rdf-syntax-ns#"
   xmlns:svg="http://www.w3.org/2000/svg"
   xmlns="http://www.w3.org/2000/svg"
   xmlns:xlink="http://www.w3.org/1999/xlink"
   xmlns:sodipodi="http://sodipodi.sourceforge.net/DTD/sodipodi-0.dtd"
   xmlns:inkscape="http://www.inkscape.org/namespaces/inkscape"
   viewBox="0 0 48 48"
   id="svg2"
   version="1.1"
   inkscape:version="0.91 r13725"
   sodipodi:docname="maps.svg">
  <metadata
     id="metadata45">
    <rdf:RDF>
      <cc:Work
         rdf:about="">
        <dc:format>image/svg+xml</dc:format>
        <dc:type
           rdf:resource="http://purl.org/dc/dcmitype/StillImage" />
        <dc:title></dc:title>
      </cc:Work>
    </rdf:RDF>
  </metadata>
  <sodipodi:namedview
     pagecolor="#ffffff"
     bordercolor="#666666"
     borderopacity="1"
     objecttolerance="10"
     gridtolerance="10"
     guidetolerance="10"
     inkscape:pageopacity="0"
     inkscape:pageshadow="2"
     inkscape:window-width="1280"
     inkscape:window-height="694"
     id="namedview43"
     showgrid="false"
     inkscape:zoom="4.9166667"
     inkscape:cx="-9.1525424"
     inkscape:cy="24"
     inkscape:window-x="0"
     inkscape:window-y="0"
     inkscape:window-maximized="1"
     inkscape:current-layer="svg2" />
  <defs
     id="defs4">
    <linearGradient
       id="3">
      <stop
         stop-color="#0ba97d"
         id="stop7" />
      <stop
         offset="1"
         stop-color="#11e19b"
         id="stop9" />
    </linearGradient>
    <linearGradient
       xlink:href="#3"
       id="4"
       x1="13.223"
       y1="36.05"
       x2="13.614"
       y2="15.458"
       gradientUnits="userSpaceOnUse"
       gradientTransform="matrix(1.8157697,0,0,1.7821949,5.6830655,-27.334322)" />
    <linearGradient
       gradientUnits="userSpaceOnUse"
       y2="15.827"
       x2="10.467"
       y1="42.526"
       x1="10.795"
       id="2"
       xlink:href="#3"
       gradientTransform="matrix(1.8157697,0,0,1.7821949,5.6830655,-27.334322)" />
    <linearGradient
       id="0"
       gradientUnits="userSpaceOnUse"
       y1="42.475"
       x2="0"
       y2="28.899"
       gradientTransform="matrix(1.71427,0,0,1.71427,5.3822203,-26.28461)">
      <stop
         stop-color="#c52828"
         id="stop14" />
      <stop
         offset="1"
         stop-color="#ff5454"
         id="stop16" />
    </linearGradient>
    <linearGradient
       gradientUnits="userSpaceOnUse"
       y2="15.827"
       x2="10.467"
       y1="42.526"
       x1="10.795"
       id="1"
       gradientTransform="matrix(1.8157697,0,0,1.7821949,5.6830655,-27.334322)">
      <stop
         stop-color="#197cf1"
         id="stop19" />
      <stop
         offset="1"
         stop-color="#20bcfa"
         id="stop21" />
    </linearGradient>
  </defs>
  <path
     d="m 3.2390395,0.21484676 41.4140755,0 c 1.626929,0 2.937915,1.33129964 2.937915,2.98339424 l 0,42.054453 c 0,1.652095 -1.310986,2.983394 -2.937915,2.983394 l -41.4140755,0 c -1.6269297,0 -2.93791539,-1.331299 -2.93791539,-2.983394 l 0,-42.054453 c 0,-1.6520946 1.31098569,-2.98339424 2.93791539,-2.98339424"
     id="path27"
     style="fill:url(#1);fill-rule:evenodd"
     inkscape:connector-curvature="0" />
  <path
     d="m 3.2390395,0.21484676 41.4140755,0 c 1.626929,0 2.937915,1.33129964 2.937915,2.98339424 l 0,16.057576 c 0,1.652095 -1.381801,2.514677 -2.937915,2.983394 L 3.2390395,34.714576 0.30112411,34.226254 l 0,-31.0351418 c 0,-1.6520946 1.30916999,-2.98339422 2.93791539,-2.98339422"
     id="path29"
     style="fill:url(#2);fill-rule:evenodd"
     inkscape:connector-curvature="0" />
  <path
     d="m 16.372502,0.21484676 28.280613,0 c 1.626929,0 2.937915,1.33129964 2.937915,2.98339424 l 0,16.057576 c 0,1.652095 -1.381801,2.514677 -2.937915,2.983394 L 31.732098,26.190337 28.794182,25.702016 13.436402,3.1911122 C 12.499465,1.81704 14.745572,0.20771798 16.374317,0.20771798"
     id="path31"
     style="fill:url(#4);fill-rule:evenodd"
     inkscape:connector-curvature="0" />
  <path
     style="fill:#dafcfc;fill-rule:evenodd"
     inkscape:connector-curvature="0"
     id="path35"
     d="M 0.30112411,32.932381 47.601925,18.377195 l 0,3.746174 -47.30080089,14.555185 z" />
  <path
     style="fill:#dafcfc;fill-rule:evenodd"
     inkscape:connector-curvature="0"
     id="path37"
     d="M 26.14679,26.86628 11.317399,0.26118383 l 4.452267,0 L 30.599057,26.86628 Z" />
  <path
     style="fill:#ff2a2a;fill-opacity:1;stroke-width:1.31700003"
     inkscape:connector-curvature="0"
     id="path41"
     d="m 36.003261,24.06612 c -6.302986,0 -11.410875,3.759208 -11.410875,8.397956 0,0.353868 0.03833,0.700043 0.09756,1.043654 0.975587,6.559382 10.574661,14.121388 10.574661,14.121388 0.170729,0.141028 0.334484,0.228219 0.494761,0.289761 l 0.0069,2.57e-4 0.32055,0.07436 0.32055,-0.07436 0.0069,-2.57e-4 c 0.160282,-0.06411 0.324034,-0.153856 0.494761,-0.289761 0,0 9.459703,-7.574829 10.4109,-14.136774 0.05575,-0.338481 0.09406,-0.682093 0.09406,-1.030832 -3.48e-4,-4.636184 -5.107892,-8.397958 -11.410876,-8.397958 m 0,13.800857 c -4.0452,0 -7.341287,-2.423229 -7.341287,-5.402899 0,-2.977108 3.292603,-5.402899 7.341287,-5.402899 4.045199,0 7.337802,2.423227 7.337802,5.402899 0,2.977107 -3.292603,5.402899 -7.337802,5.402899" />
</svg>
