<?xml version="1.0" encoding="UTF-8" standalone="no"?>
<svg
   xmlns:dc="http://purl.org/dc/elements/1.1/"
   xmlns:cc="http://creativecommons.org/ns#"
   xmlns:rdf="http://www.w3.org/1999/02/22-rdf-syntax-ns#"
   xmlns:svg="http://www.w3.org/2000/svg"
   xmlns="http://www.w3.org/2000/svg"
   xmlns:xlink="http://www.w3.org/1999/xlink"
   xmlns:sodipodi="http://sodipodi.sourceforge.net/DTD/sodipodi-0.dtd"
   xmlns:inkscape="http://www.inkscape.org/namespaces/inkscape"
   viewBox="0 0 48 48"
   id="svg2"
   version="1.1"
   inkscape:version="0.91 r13725"
   sodipodi:docname="mkvtoolnix-gui.svg">
  <metadata
     id="metadata39">
    <rdf:RDF>
      <cc:Work
         rdf:about="">
        <dc:format>image/svg+xml</dc:format>
        <dc:type
           rdf:resource="http://purl.org/dc/dcmitype/StillImage" />
        <dc:title></dc:title>
      </cc:Work>
    </rdf:RDF>
  </metadata>
  <sodipodi:namedview
     pagecolor="#ffffff"
     bordercolor="#666666"
     borderopacity="1"
     objecttolerance="10"
     gridtolerance="10"
     guidetolerance="10"
     inkscape:pageopacity="0"
     inkscape:pageshadow="2"
     inkscape:window-width="1280"
     inkscape:window-height="694"
     id="namedview37"
     showgrid="false"
     inkscape:zoom="4.9166667"
     inkscape:cx="-14.390981"
     inkscape:cy="24"
     inkscape:window-x="0"
     inkscape:window-y="0"
     inkscape:window-maximized="1"
     inkscape:current-layer="svg2" />
  <defs
     id="defs4">
    <linearGradient
       xlink:href="#0"
       id="3"
       x1="96.68"
       y1="490.36"
       x2="96.33"
       y2="462.83"
       gradientUnits="userSpaceOnUse" />
    <linearGradient
       xlink:href="#0"
       id="4"
       x1="44.16"
       y1="490.59"
       x2="44.26"
       y2="461.93"
       gradientUnits="userSpaceOnUse" />
    <linearGradient
       xlink:href="#0"
       id="2"
       x1="72.85"
       y1="491.15"
       x2="72.29"
       y2="462.68"
       gradientUnits="userSpaceOnUse"
       gradientTransform="matrix(1.0021,0,0,1,-0.15,0.002)" />
    <linearGradient
       id="0">
      <stop
         stop-color="#2e3436"
         id="stop10" />
      <stop
         offset="1"
         stop-color="#555753"
         id="stop12" />
    </linearGradient>
    <linearGradient
       id="1"
       x1="70.03"
       y1="569.24"
       x2="66.53"
       y2="491.06"
       gradientUnits="userSpaceOnUse">
      <stop
         stop-color="#0bac83"
         id="stop15" />
      <stop
         offset="1"
         stop-color="#10da96"
         id="stop17" />
    </linearGradient>
  </defs>
  <path
     d="m 44.83474,0.33898082 -10.366522,0 -20.733057,0 -10.3665223,0 c -1.635684,0 -2.96185453,1.30051728 -2.96185453,2.94790738 l 0,41.7627128 c 0,1.647391 1.32617053,3.018197 2.96185453,3.018197 l 10.3665223,0 20.733057,0 10.366522,0 c 1.635697,0 2.961867,-1.370806 2.961867,-3.018197 l 0,-41.7627128 c 0,-1.6473901 -1.32617,-2.94790738 -2.961867,-2.94790738 z M 10.773306,42.101694 l -4.4428003,0 0,-4.474576 4.4428003,0 0,4.474576 z m 0,-10.440678 -4.4428003,0 0,-4.474577 4.4428003,0 0,4.474577 z m 0,-10.440679 -4.4428003,0 0,-4.474575 4.4428003,0 0,4.474575 z m 0,-10.440678 -4.4428003,0 0,-4.4745763 4.4428003,0 0,4.4745763 z m 10.366523,19.354688 0,-10.440679 8.885588,5.220339 -8.885588,5.22034 z m 20.733044,11.967347 -4.442788,0 0,-4.474576 4.442788,0 0,4.474576 z m 0,-10.440678 -4.442788,0 0,-4.474577 4.442788,0 0,4.474577 z m 0,-10.440679 -4.442788,0 0,-4.474575 4.442788,0 0,4.474575 z m 0,-10.440678 -4.442788,0 0,-4.4745763 4.442788,0 0,4.4745763 z"
     id="path3"
     inkscape:connector-curvature="0"
     style="fill:#2ca02c" />
  <path
     style="fill:#37c837;fill-opacity:1"
     inkscape:connector-curvature="0"
     id="path35"
     d="m 47.538305,33.813119 c -0.07795,-0.107017 -0.179407,-0.170966 -0.304373,-0.191848 l -2.652746,-0.428067 c -0.144763,-0.489407 -0.342729,-0.989255 -0.595136,-1.498238 0.174458,-0.254491 0.434289,-0.614695 0.783204,-1.078 0.347678,-0.46461 0.593898,-0.802627 0.739898,-1.016661 0.07795,-0.112237 0.116305,-0.229695 0.116305,-0.352373 0,-0.142254 -0.03341,-0.254491 -0.101457,-0.336712 -0.347678,-0.520728 -1.145729,-1.387305 -2.392916,-2.599728 -0.116305,-0.101797 -0.236322,-0.152695 -0.362525,-0.152695 -0.144763,0 -0.261068,0.04568 -0.347678,0.137034 l -2.058848,1.636576 C 39.966101,27.718373 39.530576,27.529136 39.056694,27.366 l -0.40583,-2.813763 c -0.0099,-0.133118 -0.06558,-0.242745 -0.167034,-0.328881 -0.101458,-0.08744 -0.220237,-0.130508 -0.355102,-0.130508 l -3.218186,0 c -0.280864,0 -0.454085,0.142254 -0.522136,0.428067 -0.126203,0.510289 -0.266017,1.45778 -0.420678,2.845085 -0.454084,0.152695 -0.894559,0.347153 -1.318949,0.580763 l -2.000695,-1.636576 c -0.126203,-0.101797 -0.251169,-0.152695 -0.377373,-0.152695 -0.212813,0 -0.669372,0.364118 -1.369678,1.093661 -0.700305,0.729542 -1.176661,1.277678 -1.42783,1.644406 -0.08661,0.133119 -0.129915,0.249272 -0.129915,0.352373 0,0.122678 0.04825,0.245356 0.144762,0.366729 0.647102,0.826119 1.164289,1.529559 1.55156,2.110322 -0.241271,0.468526 -0.430577,0.938356 -0.565441,1.406882 l -2.697288,0.428067 c -0.106407,0.02088 -0.197966,0.08744 -0.275915,0.198373 -0.07795,0.112237 -0.116305,0.229695 -0.116305,0.351068 l 0,3.395831 c 0,0.133118 0.03835,0.251881 0.116305,0.358898 0.07795,0.107017 0.179406,0.170966 0.304373,0.191847 l 2.653983,0.412407 c 0.134864,0.499848 0.33283,1.00361 0.593898,1.513898 -0.174458,0.254492 -0.435526,0.614695 -0.783204,1.078 -0.347677,0.464611 -0.595135,0.802627 -0.739898,1.016661 -0.07795,0.112238 -0.116305,0.229695 -0.116305,0.352373 0,0.133119 0.03341,0.249271 0.101458,0.351068 0.377373,0.550746 1.174186,1.406881 2.392915,2.569712 0.106407,0.112237 0.227661,0.168356 0.362525,0.168356 0.144763,0 0.266017,-0.04568 0.362526,-0.137034 l 2.044,-1.636576 c 0.395932,0.214034 0.831457,0.403271 1.305339,0.566406 l 0.40583,2.813763 c 0.0099,0.133119 0.06558,0.242746 0.167034,0.328882 0.101458,0.08744 0.220238,0.130508 0.355102,0.130508 l 3.219424,0 c 0.280864,0 0.454084,-0.142254 0.522135,-0.428068 0.124966,-0.510288 0.266017,-1.457779 0.420678,-2.845085 0.454085,-0.152694 0.89456,-0.347152 1.318949,-0.580762 l 2.000695,1.652237 c 0.134865,0.09136 0.261068,0.137034 0.377373,0.137034 0.212814,0 0.666898,-0.361509 1.362254,-1.085831 0.696594,-0.724322 1.174187,-1.275067 1.435255,-1.652237 0.08661,-0.101796 0.131152,-0.219254 0.131152,-0.351068 0,-0.133118 -0.04825,-0.259712 -0.144763,-0.382389 -0.695355,-0.897899 -1.212542,-1.601339 -1.551559,-2.110323 0.193017,-0.377169 0.382322,-0.841779 0.565441,-1.39122 l 2.68244,-0.428068 c 0.116306,-0.02088 0.212814,-0.08744 0.289526,-0.199678 0.07671,-0.112237 0.116305,-0.229695 0.116305,-0.352373 l 0,-3.394525 c 0,-0.133119 -0.03836,-0.251881 -0.116305,-0.358898 m -8.395,4.794881 c -0.725051,0.76478 -1.599814,1.14717 -2.624288,1.14717 -1.024475,0 -1.899238,-0.38239 -2.624288,-1.14717 -0.725051,-0.76478 -1.087577,-1.687474 -1.087577,-2.768085 0,-1.08061 0.362526,-2.003305 1.087577,-2.768084 0.72505,-0.76478 1.599813,-1.14717 2.624288,-1.14717 1.024474,0 1.899237,0.38239 2.624288,1.14717 0.725051,0.764779 1.087576,1.687474 1.087576,2.768084 0,1.080611 -0.362525,2.003305 -1.087576,2.768085" />
</svg>
