<?xml version="1.0" encoding="UTF-8" standalone="no"?>
<svg
   xmlns:dc="http://purl.org/dc/elements/1.1/"
   xmlns:cc="http://creativecommons.org/ns#"
   xmlns:rdf="http://www.w3.org/1999/02/22-rdf-syntax-ns#"
   xmlns:svg="http://www.w3.org/2000/svg"
   xmlns="http://www.w3.org/2000/svg"
   xmlns:xlink="http://www.w3.org/1999/xlink"
   xmlns:sodipodi="http://sodipodi.sourceforge.net/DTD/sodipodi-0.dtd"
   xmlns:inkscape="http://www.inkscape.org/namespaces/inkscape"
   viewBox="0 0 48 48"
   id="svg2"
   version="1.1"
   inkscape:version="0.91 r13725"
   sodipodi:docname="roccat.svg">
  <metadata
     id="metadata38">
    <rdf:RDF>
      <cc:Work
         rdf:about="">
        <dc:format>image/svg+xml</dc:format>
        <dc:type
           rdf:resource="http://purl.org/dc/dcmitype/StillImage" />
        <dc:title></dc:title>
      </cc:Work>
    </rdf:RDF>
  </metadata>
  <sodipodi:namedview
     pagecolor="#ffffff"
     bordercolor="#666666"
     borderopacity="1"
     objecttolerance="10"
     gridtolerance="10"
     guidetolerance="10"
     inkscape:pageopacity="0"
     inkscape:pageshadow="2"
     inkscape:window-width="1280"
     inkscape:window-height="694"
     id="namedview36"
     showgrid="false"
     inkscape:zoom="4.9166667"
     inkscape:cx="-9.1525424"
     inkscape:cy="24"
     inkscape:window-x="0"
     inkscape:window-y="0"
     inkscape:window-maximized="1"
     inkscape:current-layer="svg2" />
  <defs
     id="defs4">
    <clipPath
       id="clipPath6">
      <path
         transform="matrix(15.33333 0 0 11.5 415-125.5)"
         d="m-24 13c0 1.105-.672 2-1.5 2-.828 0-1.5-.895-1.5-2 0-1.105.672-2 1.5-2 .828 0 1.5.895 1.5 2"
         fill="#1890d0"
         id="path8" />
    </clipPath>
    <linearGradient
       xlink:href="#0"
       id="3"
       x1="24.737"
       y1="48.45"
       x2="23.982"
       y2="-.737"
       gradientUnits="userSpaceOnUse"
       gradientTransform="matrix(0.96,0,0,0.96,0.96,0.96)" />
    <linearGradient
       gradientUnits="userSpaceOnUse"
       y2=".989"
       x2="24.13"
       y1="47.874"
       x1="23.299"
       id="2"
       xlink:href="#0"
       gradientTransform="matrix(0.96,0,0,0.96,0.96,0.96)" />
    <linearGradient
       id="1"
       x1="25.959"
       y1="47.586"
       x2="24.414"
       y2=".414"
       gradientUnits="userSpaceOnUse"
       gradientTransform="matrix(0.96,0,0,0.96,0.96,0.96)">
      <stop
         stop-color="#197cf1"
         id="stop13" />
      <stop
         stop-color="#21c9fb"
         offset="1"
         id="stop15" />
    </linearGradient>
    <linearGradient
       gradientUnits="userSpaceOnUse"
       y2="24.587"
       x2="82.74"
       y1="30.487"
       x1="82.46"
       id="0">
      <stop
         stop-color="#060606"
         id="stop18" />
      <stop
         stop-color="#343434"
         offset="1"
         id="stop20" />
    </linearGradient>
    <linearGradient
       y2="-.449"
       x2="23.694"
       y1="47.73"
       x1="24.306"
       gradientUnits="userSpaceOnUse"
       id="linearGradient22">
      <stop
         stop-color="#fa183c"
         id="stop24" />
      <stop
         offset="1"
         stop-color="#fe590a"
         id="stop26" />
    </linearGradient>
  </defs>
  <path
     inkscape:connector-curvature="0"
     style="fill:#2a7fff"
     id="path32"
     d="m 8.0808254,18.582378 -2.1024016,0.459203 c 0,0 0.2108823,-1.652735 3.3741192,-2.145587 z M 47.816645,21.936343 C 46.633776,9.8337634 35.632564,0.34983051 22.233499,0.34983051 c -2.137726,0 -4.215507,0.24444656 -6.201228,0.69870159 4.028176,0.051462 15.911456,1.1816567 21.363356,12.3697889 -4.884551,-1.921925 -9.411566,-2.66912 -9.411566,-2.66912 -0.492416,2.818558 -2.016764,4.021988 -2.016764,4.021988 1.927915,-3.235206 0.905617,-7.1255683 -0.01499,-6.8702355 C 21.595497,9.1123 23.142325,8.6342933 19.91379,9.2993463 14.100071,10.492879 10.793391,12.983859 10.793391,12.983859 l 0.662621,-1.61117 c -1.26101,0.121728 -4.2593942,3.272813 -4.2593942,3.272813 l 0.3778757,-1.81801 c -1.936479,2.014953 -3.2221126,6.00725 -3.4501225,6.435774 -0.2312214,0.429513 -3.79053181,3.291616 -3.56680373,4.330762 0.18197978,0.837254 2.83246173,0.308775 2.83246173,0.308775 0,0 -0.02462,0.185066 -0.066369,0.266218 -0.2322918,0.460194 -1.2781404,0.08412 -1.8979421,0.371124 -0.6187312,0.286012 -0.62836542,0.662084 -0.093131,2.685943 0.5352347,2.02188 2.2115896,1.687375 2.2115896,1.687375 0.4271172,1.706177 2.8271094,2.84132 2.8271094,2.84132 -1.6206902,-2.942266 0.658339,-4.068502 0.658339,-4.068502 0.6604795,1.625026 2.5894651,2.238617 2.5894651,2.238617 -1.3937509,-2.718603 -1.8722507,-3.921043 -0.6968755,-4.721679 2.4749245,-1.686385 3.1621665,-2.163402 6.5662585,0.70167 3.404092,2.860124 -2.762881,4.695947 -2.762881,4.695947 -0.68403,-0.110842 -2.60017,-2.148556 -2.60017,-2.148556 0.04389,1.105452 0.705439,2.726519 0.705439,2.726519 -2.1216698,-0.110841 -3.9147059,-1.740816 -3.9147059,-1.740816 0,0 -0.00747,1.076753 1.3081135,4.349566 1.6324657,4.057615 5.7259404,0.428524 5.7259404,0.428524 4.488477,-2.860124 7.955727,-2.542443 7.955727,-2.542443 2.926664,0.749175 5.966796,10.032207 5.966796,10.032207 0,0 -10.700411,6.41796 -23.2281127,-0.294919 4.5965952,3.988339 10.7796257,6.440721 17.5867397,6.440721 9.896488,0 18.483793,-5.173954 22.775305,-12.756746 l 1.194643,-2.436549 c 0.190543,-0.455244 0.367171,-0.918406 0.526671,-1.385527 l 0.882067,-3.471735 c 0.105976,-0.624477 0.187332,-1.257861 0.238714,-1.897183" />
</svg>
