<?xml version="1.0" encoding="UTF-8" standalone="no"?>
<svg
   xmlns:dc="http://purl.org/dc/elements/1.1/"
   xmlns:cc="http://creativecommons.org/ns#"
   xmlns:rdf="http://www.w3.org/1999/02/22-rdf-syntax-ns#"
   xmlns:svg="http://www.w3.org/2000/svg"
   xmlns="http://www.w3.org/2000/svg"
   xmlns:xlink="http://www.w3.org/1999/xlink"
   xmlns:sodipodi="http://sodipodi.sourceforge.net/DTD/sodipodi-0.dtd"
   xmlns:inkscape="http://www.inkscape.org/namespaces/inkscape"
   viewBox="0 0 48 48"
   id="svg2"
   version="1.1"
   inkscape:version="0.91 r13725"
   sodipodi:docname="setroubleshoot_icon.svg">
  <metadata
     id="metadata44">
    <rdf:RDF>
      <cc:Work
         rdf:about="">
        <dc:format>image/svg+xml</dc:format>
        <dc:type
           rdf:resource="http://purl.org/dc/dcmitype/StillImage" />
        <dc:title></dc:title>
      </cc:Work>
    </rdf:RDF>
  </metadata>
  <sodipodi:namedview
     pagecolor="#ffffff"
     bordercolor="#666666"
     borderopacity="1"
     objecttolerance="10"
     gridtolerance="10"
     guidetolerance="10"
     inkscape:pageopacity="0"
     inkscape:pageshadow="2"
     inkscape:window-width="1280"
     inkscape:window-height="694"
     id="namedview42"
     showgrid="false"
     inkscape:zoom="4.9166667"
     inkscape:cx="-9.1525424"
     inkscape:cy="24"
     inkscape:window-x="0"
     inkscape:window-y="0"
     inkscape:window-maximized="1"
     inkscape:current-layer="svg2" />
  <defs
     id="defs4">
    <clipPath
       id="clipPath6">
      <path
         transform="matrix(15.33333 0 0 11.5 415-125.5)"
         d="m-24 13c0 1.105-.672 2-1.5 2-.828 0-1.5-.895-1.5-2 0-1.105.672-2 1.5-2 .828 0 1.5.895 1.5 2"
         fill="#1890d0"
         id="path8" />
    </clipPath>
    <clipPath
       id="clipPath10">
      <path
         d="m69.63 12.145h-.052c-22.727-.292-46.47 4.077-46.709 4.122-2.424.451-4.946 2.974-5.397 5.397-.044.237-4.414 23.983-4.122 46.71-.292 22.777 4.078 46.523 4.122 46.761.451 2.423 2.974 4.945 5.398 5.398.237.044 23.982 4.413 46.709 4.121 22.779.292 46.524-4.077 46.761-4.121 2.423-.452 4.946-2.976 5.398-5.399.044-.236 4.413-23.981 4.121-46.709.292-22.777-4.077-46.523-4.121-46.761-.453-2.423-2.976-4.946-5.398-5.397-.238-.045-23.984-4.414-46.71-4.122"
         id="path12" />
    </clipPath>
    <clipPath
       id="clipPath14">
      <path
         transform="matrix(15.33333 0 0 11.5 415-125.5)"
         d="m-24 13c0 1.105-.672 2-1.5 2-.828 0-1.5-.895-1.5-2 0-1.105.672-2 1.5-2 .828 0 1.5.895 1.5 2"
         fill="#1890d0"
         id="path16" />
    </clipPath>
    <linearGradient
       xlink:href="#3"
       id="4"
       x1="25.519"
       y1="34.998"
       x2="25.18"
       y2="13.57"
       gradientUnits="userSpaceOnUse" />
    <linearGradient
       y2="176.47"
       x2="0"
       y1="232.47"
       gradientUnits="userSpaceOnUse"
       id="3">
      <stop
         stop-color="#ffc515"
         id="stop20" />
      <stop
         stop-color="#ffd55b"
         offset="1"
         id="stop22" />
    </linearGradient>
    <linearGradient
       xlink:href="#1"
       id="0"
       x1="-10.767"
       y1="4.675"
       x2="-11.233"
       y2="-22.851"
       gradientUnits="userSpaceOnUse"
       gradientTransform="matrix(1.77384 0 0 1.71427 42.46 39.38)" />
    <linearGradient
       xlink:href="#1"
       id="5"
       x1="-22.13"
       y1="44.499"
       x2="-23.25"
       y2="5.703"
       gradientUnits="userSpaceOnUse" />
    <linearGradient
       id="1">
      <stop
         stop-color="#141414"
         id="stop27" />
      <stop
         offset="1"
         stop-color="#2d2d2f"
         id="stop29" />
    </linearGradient>
    <linearGradient
       y2="62.56"
       x2="326.33"
       y1="85.89"
       x1="325.31"
       gradientTransform="matrix(0.76952,0,0,0.77349,-266.66,-31.07)"
       gradientUnits="userSpaceOnUse"
       id="2"
       xlink:href="#3" />
  </defs>
  <g
     transform="matrix(1.6973733,0,0,2.430625,60.92265,-37.788189)"
     id="g36">
    <path
       d="m 18.92,14.883 8.668,0 -8.668,0 z m 2.166,0.543 0,2.166 4.334,0 0,-2.166 -4.334,0 z m -3.693,2.727 -1.182,2.047 -1.32,0 -0.848,0.846 0,3.59 -4.266,0 4.234,0.137 0,4.703 0.709,0.641 3.188,-0.068 3.518,4.357 4.178,0 4.18,0 2.184,-1.711 0,-1.488 3.748,0 0,2.1 2.912,0 c 0.757,0 1.219,-4.539 1.287,-6.367 0.068,-1.829 -1.422,-5.553 -1.422,-5.553 l -2.777,0 0,2.166 -2.168,0 0,-2.166 -2.156,0 -1.094,-0.949 0,-1.141 -1.219,-1.143 -11.686,0 z m -8.768,1.031 0,4.74 0.723,2.146 -0.723,-6.887 z m 0.723,6.887 0.361,3.438 0,-2.365 -0.361,-1.072 z"
       transform="matrix(0.84035,0,0,0.84035,-42.17,5.252)"
       id="path38"
       style="fill:none;stroke:url(#4);stroke-width:2.16700006"
       inkscape:connector-curvature="0" />
    <path
       d="m -16.615,25.423 -4.915,3.091 0.735,-3.091 c 0.138,-0.065 1.238,0.065 1.324,0 l 1.627,-3.04 -0.869,-0.022 c 0,0 -0.273,-0.016 -0.329,-0.258 -0.071,-0.308 -0.031,-0.461 0.194,-0.743 l 3.287,-5.594 4.03,0 -5.03,4.633 2.963,0.004 -4.896,5.02 1.876,0"
       id="path40"
       style="fill:url(#2);stroke:none"
       inkscape:connector-curvature="0" />
  </g>
</svg>
