<?xml version="1.0" encoding="UTF-8" standalone="no"?>
<svg
   xmlns:dc="http://purl.org/dc/elements/1.1/"
   xmlns:cc="http://creativecommons.org/ns#"
   xmlns:rdf="http://www.w3.org/1999/02/22-rdf-syntax-ns#"
   xmlns:svg="http://www.w3.org/2000/svg"
   xmlns="http://www.w3.org/2000/svg"
   xmlns:xlink="http://www.w3.org/1999/xlink"
   xmlns:sodipodi="http://sodipodi.sourceforge.net/DTD/sodipodi-0.dtd"
   xmlns:inkscape="http://www.inkscape.org/namespaces/inkscape"
   viewBox="0 0 48 48"
   id="svg2"
   version="1.1"
   inkscape:version="0.91 r13725"
   sodipodi:docname="sound-juicer.svg">
  <metadata
     id="metadata1773">
    <rdf:RDF>
      <cc:Work
         rdf:about="">
        <dc:format>image/svg+xml</dc:format>
        <dc:type
           rdf:resource="http://purl.org/dc/dcmitype/StillImage" />
        <dc:title></dc:title>
      </cc:Work>
    </rdf:RDF>
  </metadata>
  <sodipodi:namedview
     pagecolor="#ffffff"
     bordercolor="#666666"
     borderopacity="1"
     objecttolerance="10"
     gridtolerance="10"
     guidetolerance="10"
     inkscape:pageopacity="0"
     inkscape:pageshadow="2"
     inkscape:window-width="1280"
     inkscape:window-height="694"
     id="namedview1771"
     showgrid="false"
     inkscape:zoom="4.9166667"
     inkscape:cx="1.5752289"
     inkscape:cy="24"
     inkscape:window-x="0"
     inkscape:window-y="0"
     inkscape:window-maximized="1"
     inkscape:current-layer="svg2" />
  <defs
     id="defs4">
    <clipPath
       id="clipPath6">
      <path
         d="m108.81 58c-1.56 0-2.81 1.254-2.81 2.812v24.375c0 1.559 1.25 2.813 2.81 2.813h24.375c1.57 0 2.82-1.254 2.82-2.812v-24.375c0-1.559-1.25-2.813-2.81-2.813h-24.375zm7.188 4.5h10v8.75h5l-10 13.75-10-13.75h5v-8.75"
         id="path8" />
    </clipPath>
    <filter
       color-interpolation-filters="sRGB"
       id="filter10">
      <feGaussianBlur
         stdDeviation="1.2"
         id="feGaussianBlur12" />
    </filter>
    <filter
       color-interpolation-filters="sRGB"
       id="filter14">
      <feGaussianBlur
         stdDeviation="1.71"
         id="feGaussianBlur16" />
    </filter>
    <filter
       color-interpolation-filters="sRGB"
       id="filter18">
      <feGaussianBlur
         stdDeviation=".6375"
         id="feGaussianBlur20" />
    </filter>
    <linearGradient
       id="2"
       x1="410.53"
       y1="547.29"
       x2="408.57"
       y2="500.31"
       gradientUnits="userSpaceOnUse">
      <stop
         stop-color="#ff6835"
         id="stop23" />
      <stop
         offset="1"
         stop-color="#ff956f"
         id="stop25" />
    </linearGradient>
    <linearGradient
       y1="92.54"
       gradientTransform="scale(1.0059.99417)"
       x2="0"
       gradientUnits="userSpaceOnUse"
       y2="7.02"
       id="linearGradient27">
      <stop
         id="stop29" />
      <stop
         offset="1"
         stop-opacity=".588"
         id="stop31" />
    </linearGradient>
    <linearGradient
       id="1">
      <stop
         stop-color="#fff"
         id="stop34" />
      <stop
         offset="1"
         stop-opacity="0"
         stop-color="#fff"
         id="stop36" />
    </linearGradient>
    <linearGradient
       y1="58"
       x2="0"
       gradientUnits="userSpaceOnUse"
       xlink:href="#1"
       y2="79.09"
       id="linearGradient38" />
    <linearGradient
       gradientUnits="userSpaceOnUse"
       x2="47"
       x1="0"
       id="linearGradient40">
      <stop
         stop-color="#a9a3d4"
         id="stop42" />
      <stop
         offset=".47"
         stop-color="#87baff"
         id="stop44" />
      <stop
         offset="1"
         stop-color="#89ec85"
         id="stop46" />
    </linearGradient>
    <linearGradient
       y1="71.38"
       x2="0"
       gradientUnits="userSpaceOnUse"
       xlink:href="#1"
       y2="62.54"
       id="linearGradient48" />
    <linearGradient
       y2="500.8"
       x2="0"
       y1="546.8"
       gradientUnits="userSpaceOnUse"
       id="0">
      <stop
         stop-color="#1f2121"
         id="stop51" />
      <stop
         offset="1"
         stop-color="#404447"
         id="stop53" />
    </linearGradient>
    <linearGradient
       gradientUnits="userSpaceOnUse"
       x1="-88"
       x2="-58"
       id="linearGradient55">
      <stop
         stop-color="#499119"
         id="stop57" />
      <stop
         offset="1"
         stop-color="#8fd625"
         id="stop59" />
    </linearGradient>
    <linearGradient
       y1="72.38"
       x2="0"
       gradientUnits="userSpaceOnUse"
       y2="63.54"
       id="linearGradient61">
      <stop
         id="stop63" />
      <stop
         offset="1"
         stop-opacity="0"
         id="stop65" />
    </linearGradient>
    <clipPath
       id="clipPath-730514797">
      <g
         transform="translate(0,-1004.3622)"
         id="g17">
        <path
           d="m -24,13 c 0,1.105 -0.672,2 -1.5,2 -0.828,0 -1.5,-0.895 -1.5,-2 0,-1.105 0.672,-2 1.5,-2 0.828,0 1.5,0.895 1.5,2 z"
           transform="matrix(15.333333,0,0,11.5,414.99999,878.8622)"
           id="path19"
           inkscape:connector-curvature="0"
           style="fill:#1890d0" />
      </g>
    </clipPath>
  </defs>
  <ellipse
     style="fill:#00ccff;fill-opacity:1;fill-rule:nonzero;stroke:none"
     id="path5993"
     cx="23.966236"
     cy="24.197008"
     rx="23.663332"
     ry="23.608992" />
  <g
     id="g4151"
     transform="matrix(0.49545395,0,0,0.48001619,-8.4935129,-6.6179705)">
    <path
       inkscape:transform-center-x="-9.7385468"
       inkscape:transform-center-y="21.087271"
       transform="matrix(0.34388389,0.59602937,-0.59562435,0.34411773,82.946533,14.422768)"
       d="m 64,59.820312 a 4.1806682,4.1806682 0 0 0 -2.089844,7.798829 l 44.375004,25.625 a 4.1806682,4.1806682 0 0 0 5.70703,-1.525391 c 4.85754,-8.389313 7.44964,-18.025334 7.4375,-27.724609 A 4.1806682,4.1806682 0 0 0 115.25,59.820312 l -51.25,0 z"
       id="path3764"
       style="fill:#ff6600;fill-opacity:1;stroke:#ffffff;stroke-width:2.05232096;stroke-linejoin:round;stroke-miterlimit:4;stroke-dasharray:none;stroke-opacity:1"
       inkscape:original="M 64 64 L 108.375 89.625 C 112.85836 81.881923 115.2612 72.947383 115.25 64 L 64 64 z "
       inkscape:radius="4.1802502"
       sodipodi:type="inkscape:offset" />
    <path
       inkscape:transform-center-x="-23.009403"
       sodipodi:type="inkscape:offset"
       inkscape:radius="4.1802502"
       inkscape:original="M 64 64 L 108.375 89.625 C 112.85836 81.881923 115.2612 72.947383 115.25 64 L 64 64 z "
       style="fill:#ff6600;fill-opacity:1;stroke:#ffffff;stroke-width:2.05232096;stroke-linejoin:round;stroke-miterlimit:4;stroke-dasharray:none;stroke-opacity:1"
       id="path3772"
       d="m 64,59.820312 a 4.1806682,4.1806682 0 0 0 -2.089844,7.798829 l 44.375004,25.625 a 4.1806682,4.1806682 0 0 0 5.70703,-1.525391 c 4.85754,-8.389313 7.44964,-18.025334 7.4375,-27.724609 A 4.1806682,4.1806682 0 0 0 115.25,59.820312 l -51.25,0 z"
       transform="matrix(0.59562435,0.34411773,-0.34388389,0.59602937,55.636269,11.584451)"
       inkscape:transform-center-y="23.022262" />
    <path
       inkscape:transform-center-y="11.656228"
       transform="matrix(0.68776777,0,0,0.68823544,30.566693,22.790815)"
       d="m 64,59.820312 a 4.1806682,4.1806682 0 0 0 -2.089844,7.798829 l 44.375004,25.625 a 4.1806682,4.1806682 0 0 0 5.70703,-1.525391 c 4.85754,-8.389313 7.44964,-18.025334 7.4375,-27.724609 A 4.1806682,4.1806682 0 0 0 115.25,59.820312 l -51.25,0 z"
       id="path3774"
       style="fill:#ff6600;fill-opacity:1;stroke:#ffffff;stroke-width:2.05232096;stroke-linejoin:round;stroke-miterlimit:4;stroke-dasharray:none;stroke-opacity:1"
       inkscape:original="M 64 64 L 108.375 89.625 C 112.85836 81.881923 115.2612 72.947383 115.25 64 L 64 64 z "
       inkscape:radius="4.1802502"
       sodipodi:type="inkscape:offset"
       inkscape:transform-center-x="-28.203648" />
    <path
       inkscape:transform-center-y="-11.656249"
       inkscape:transform-center-x="-28.20034"
       sodipodi:type="inkscape:offset"
       inkscape:radius="4.1802502"
       inkscape:original="M 64 64 L 108.375 89.625 C 112.85836 81.881923 115.2612 72.947383 115.25 64 L 64 64 z "
       style="fill:#ff6600;fill-opacity:1;stroke:#ffffff;stroke-width:2.05232096;stroke-linejoin:round;stroke-miterlimit:4;stroke-dasharray:none;stroke-opacity:1"
       id="path3776"
       d="m 64,59.820312 a 4.1806682,4.1806682 0 0 0 -2.089844,7.798829 l 44.375004,25.625 a 4.1806682,4.1806682 0 0 0 5.70703,-1.525391 c 4.85754,-8.389313 7.44964,-18.025334 7.4375,-27.724609 A 4.1806682,4.1806682 0 0 0 115.25,59.820312 l -51.25,0 z"
       transform="matrix(0.59562435,-0.34411773,0.34388389,0.59602937,14.455176,45.039122)" />
    <path
       inkscape:transform-center-y="-23.025048"
       transform="matrix(0.34388389,-0.59602937,0.59562435,0.34411773,11.618788,72.367956)"
       d="m 64,59.820312 a 4.1806682,4.1806682 0 0 0 -2.089844,7.798829 l 44.375004,25.625 a 4.1806682,4.1806682 0 0 0 5.70703,-1.525391 c 4.85754,-8.389313 7.44964,-18.025334 7.4375,-27.724609 A 4.1806682,4.1806682 0 0 0 115.25,59.820312 l -51.25,0 z"
       id="path3778"
       style="fill:#ff6600;fill-opacity:1;stroke:#ffffff;stroke-width:2.05232096;stroke-linejoin:round;stroke-miterlimit:4;stroke-dasharray:none;stroke-opacity:1"
       inkscape:original="M 64 64 L 108.375 89.625 C 112.85836 81.881923 115.2612 72.947383 115.25 64 L 64 64 z "
       inkscape:radius="4.1802502"
       sodipodi:type="inkscape:offset"
       inkscape:transform-center-x="-23.006619" />
    <path
       inkscape:transform-center-x="-11.648307"
       sodipodi:type="inkscape:offset"
       inkscape:radius="4.1802502"
       inkscape:original="M 64 64 L 108.375 89.625 C 112.85836 81.881923 115.2612 72.947383 115.25 64 L 64 64 z "
       style="fill:#ff6600;fill-opacity:1;stroke:#ffffff;stroke-width:2.05232096;stroke-linejoin:round;stroke-miterlimit:4;stroke-dasharray:none;stroke-opacity:1"
       id="path3780"
       d="m 64,59.820312 a 4.1806682,4.1806682 0 0 0 -2.089844,7.798829 l 44.375004,25.625 a 4.1806682,4.1806682 0 0 0 5.70703,-1.525391 c 4.85754,-8.389313 7.44964,-18.025334 7.4375,-27.724609 A 4.1806682,4.1806682 0 0 0 115.25,59.820312 l -51.25,0 z"
       transform="matrix(0,-0.68823544,0.68776777,0,22.817536,97.45458)"
       inkscape:transform-center-y="-28.222826" />
  </g>
</svg>
