<?xml version="1.0" encoding="UTF-8" standalone="no"?>
<svg
   xmlns:dc="http://purl.org/dc/elements/1.1/"
   xmlns:cc="http://creativecommons.org/ns#"
   xmlns:rdf="http://www.w3.org/1999/02/22-rdf-syntax-ns#"
   xmlns:svg="http://www.w3.org/2000/svg"
   xmlns="http://www.w3.org/2000/svg"
   xmlns:sodipodi="http://sodipodi.sourceforge.net/DTD/sodipodi-0.dtd"
   xmlns:inkscape="http://www.inkscape.org/namespaces/inkscape"
   viewBox="0 0 48 48"
   id="svg2"
   version="1.1"
   inkscape:version="0.91 r13725"
   sodipodi:docname="truecrypt.svg">
  <metadata
     id="metadata17">
    <rdf:RDF>
      <cc:Work
         rdf:about="">
        <dc:format>image/svg+xml</dc:format>
        <dc:type
           rdf:resource="http://purl.org/dc/dcmitype/StillImage" />
        <dc:title></dc:title>
      </cc:Work>
    </rdf:RDF>
  </metadata>
  <sodipodi:namedview
     pagecolor="#ffffff"
     bordercolor="#666666"
     borderopacity="1"
     objecttolerance="10"
     gridtolerance="10"
     guidetolerance="10"
     inkscape:pageopacity="0"
     inkscape:pageshadow="2"
     inkscape:window-width="1280"
     inkscape:window-height="694"
     id="namedview15"
     showgrid="false"
     inkscape:zoom="4.9166667"
     inkscape:cx="-11.59322"
     inkscape:cy="24"
     inkscape:window-x="0"
     inkscape:window-y="0"
     inkscape:window-maximized="1"
     inkscape:current-layer="svg2" />
  <defs
     id="defs4">
    <linearGradient
       id="0"
       gradientUnits="userSpaceOnUse"
       y1="232.47"
       x2="0"
       y2="176.47">
      <stop
         stop-color="#ffc515"
         id="stop7" />
      <stop
         offset="1"
         stop-color="#ffd55b"
         id="stop9" />
    </linearGradient>
  </defs>
  <g
     id="g4182"
     transform="matrix(0.06204586,0,0,0.06008107,50.887128,-5.075528)">
    <path
       style="fill:#b3b3b3;fill-opacity:1;fill-rule:evenodd;stroke:none;stroke-opacity:1"
       inkscape:connector-curvature="0"
       d="m -242.98729,269.88814 c 1.85,2.95 4.05,5.8 6.7,8.45 8.65,8.64999 19,13 31.25,13 12.15,0 22.5,-4.35001 31.1,-13 8.65,-8.55001 12.95,-18.95 12.95,-31.10001 0,-12.2 -4.3,-22.6 -12.95,-31.25 -2.65,-2.7 -5.5,-4.95 -8.55,-6.8 4.1,6.75 6.15,14.3 6.15,22.7 0,12.15 -4.3,22.55 -12.9,31.15 -8.65,8.6 -19,12.95 -31.15,12.95 -8.4,0 -15.95,-2.05 -22.6,-6.1 z m -52.2,-179.500005 c 4.1,6.7 6.15,14.250005 6.15,22.650005 0,12.15 -4.3,22.55 -12.95,31.1 -8.6,8.64999 -18.95,13 -31.1,13 -8.4,0 -15.95,-2.05 -22.65,-6.15001 1.85,3 4.1,5.85001 6.75,8.5 8.6,8.60001 19,13 31.2,13 12.15,0 22.5,-4.39999 31.15,-13 q 12.9,-12.89999 12.9,-31.14999 c 0,-12.15 -4.3,-22.6 -12.9,-31.200005 -2.65,-2.65 -5.5,-4.9 -8.55,-6.75 z m -112.7,0 c 4.05,6.7 6.1,14.250005 6.1,22.650005 0,12.15 -4.3,22.55 -12.9,31.1 -8.65,8.64999 -19,13 -31.15,13 -8.4,0 -15.95,-2.05 -22.65,-6.15001 1.85,3 4.1,5.85001 6.75,8.5 8.6,8.60001 19,13 31.2,13 12.2,0 22.55,-4.39999 31.15,-13 8.6,-8.55 12.95,-18.95 12.95,-31.14999 0,-12.15 -4.35,-22.6 -12.95,-31.200005 -2.65,-2.65 -5.5,-4.9 -8.5,-6.75 z m 8.5,125.599995 c -2.65,-2.64999 -5.5,-4.89999 -8.55,-6.75 4.1,6.7 6.15,14.25001 6.15,22.65001 0,12.14999 -4.3,22.55 -12.9,31.14999 -8.65,8.60001 -19,12.95 -31.15,12.95 -8.4,0 -15.95,-2.05 -22.65,-6.14999 1.85,3 4.1,5.85 6.75,8.5 8.6,8.64999 19,13 31.2,13 12.2,0 22.55,-4.35001 31.15,-13 8.6,-8.55001 12.95,-18.95 12.95,-31.10001 0,-12.2 -4.35,-22.6 -12.95,-31.25 z m 112.75,0 c -2.7,-2.7 -5.55,-4.95 -8.6,-6.8 4.15,6.75 6.2,14.3 6.2,22.70001 0,12.14999 -4.3,22.55 -12.95,31.14999 -8.6,8.60001 -18.95,12.95 -31.1,12.95 -8.4,0 -15.95,-2.05 -22.6,-6.1 1.8,2.95 4.05,5.8 6.7,8.45 8.6,8.65 19,13 31.2,13 12.15,0 22.5,-4.35 31.15,-13 8.6,-8.55 12.9,-18.95 12.9,-31.1 0,-12.2 -4.3,-22.6 -12.9,-31.25 z m -8.55,112.10001 c 4.1,6.69999 6.15,14.25 6.15,22.64999 0,12.2 -4.3,22.55 -12.95,31.2 -8.6,8.55 -18.95,12.9 -31.1,12.9 -8.4,0 -15.95,-2.05 -22.65,-6.1 1.85,3 4.1,5.85 6.75,8.5 8.6,8.6 19,12.95 31.2,12.95 12.15,0 22.5,-4.35 31.15,-12.95 8.6,-8.6 12.9,-19 12.9,-31.15 0,-12.2 -4.3,-22.6 -12.9,-31.25 -2.65,-2.65 -5.5,-4.9 -8.55,-6.75 z m -112.7,0 c 4.05,6.69999 6.1,14.25 6.1,22.64999 0,12.2 -4.3,22.55 -12.9,31.2 -8.65,8.55 -19,12.9 -31.15,12.9 -8.4,0 -15.95,-2.05 -22.65,-6.1 1.85,3 4.1,5.85 6.75,8.5 8.6,8.6 19,12.95 31.2,12.95 12.2,0 22.55,-4.35 31.15,-12.95 8.6,-8.6 12.95,-19 12.95,-31.15 0,-12.2 -4.35,-22.6 -12.95,-31.25 -2.65,-2.65 -5.5,-4.9 -8.5,-6.75 z m -0.05,118.84999 c 4.1,6.75 6.15,14.3 6.15,22.65 0,12.2 -4.3,22.6 -12.9,31.2 -8.65,8.55 -19,12.95001 -31.15,12.95001 -8.4,0 -15.95,-2.05 -22.65,-6.15 1.85,3 4.1,5.85 6.75,8.5 8.6,8.6 19,12.95 31.2,12.95 12.2,0 22.55,-4.35 31.15,-12.95 8.6,-8.6 12.95,-19 12.95,-31.15 0,-12.15 -4.35,-22.6 -12.95,-31.25 -2.65,-2.65 -5.5,-4.9 -8.55,-6.75 z m 112.7,0 c 4.15,6.7 6.2,14.25 6.2,22.65 0,12.2 -4.3,22.6 -12.95,31.2 -8.6,8.55 -18.95,12.95001 -31.1,12.95001 -8.4,0 -15.95,-2.05 -22.6,-6.1 1.8,2.95 4.05,5.79999 6.7,8.45 8.6,8.6 19,12.95 31.2,12.95 12.15,0 22.5,-4.35 31.15,-12.95 8.6,-8.6 12.9,-19 12.9,-31.15 0,-12.15 -4.3,-22.6 -12.9,-31.25 -2.7,-2.65 -5.55,-4.9 -8.6,-6.75 z m 134.25,-80.84999 c 0,-12.2 -4.3,-22.60001 -12.95,-31.25 -2.65,-2.65 -5.5,-4.9 -8.55,-6.75 4.1,6.69999 6.15,14.25 6.15,22.64999 0,12.2 -4.3,22.55 -12.9,31.2 -8.65,8.55 -19,12.9 -31.15,12.9 -8.4,0 -15.95,-2.05 -22.6,-6.1 1.8,3 4.05,5.85 6.7,8.5 8.65,8.6 19,12.95 31.25,12.95 12.15,0 22.5,-4.35 31.1,-12.95 8.65,-8.6 12.95,-19 12.95,-31.15 z m 30.7,22.64999 c 1.85,3 4.1,5.85001 6.75,8.5 8.6,8.60001 19,12.95 31.2,12.95 12.15,0 22.5,-4.35 31.15,-12.95 8.6,-8.6 12.9,-19 12.9,-31.14999 0,-12.2 -4.3,-22.60001 -12.9,-31.25 -2.65,-2.65 -5.5,-4.9 -8.55,-6.75 4.1,6.69999 6.15,14.25 6.15,22.64999 0,12.2 -4.3,22.55 -12.95,31.2 -8.6,8.55 -18.95,12.9 -31.1,12.9 -8.4,0 -15.95,-2.05 -22.65,-6.1 z m -52.2,58.2 c 4.1,6.7 6.15,14.25 6.15,22.65 0,12.2 -4.3,22.6 -12.9,31.2 -8.65,8.55 -19,12.95001 -31.15,12.95001 -8.4,0 -15.95,-2.05 -22.6,-6.1 1.85,2.95 4.05,5.79999 6.7,8.45 8.65,8.6 19,12.95 31.25,12.95 12.15,0 22.5,-4.35 31.1,-12.95 8.65,-8.6 12.95,-19 12.95,-31.15 0,-12.15 -4.3,-22.6 -12.95,-31.25 -2.65,-2.65 -5.5,-4.9 -8.55,-6.75 z m 112.7,0 c 4.15,6.7 6.2,14.25 6.2,22.65 0,12.2 -4.3,22.6 -12.95,31.2 -8.6,8.55 -18.95,12.95001 -31.1,12.95001 -8.4,0 -15.95,-2.05 -22.6,-6.1 1.8,2.95 4.05,5.79999 6.7,8.45 8.6,8.6 19,12.95 31.2,12.95 12.15,0 22.5,-4.35 31.15,-12.95 8.6,-8.6 12.9,-19 12.9,-31.15 0,-12.15 -4.3,-22.6 -12.9,-31.25 -2.7,-2.65 -5.55,-4.9 -8.6,-6.75 z m 8.6,125.65 c -2.7,-2.7 -5.55,-4.95 -8.55,-6.8 4.1,6.75 6.15,14.3 6.15,22.70001 0,12.15 -4.3,22.54999 -12.95,31.15 -8.6,8.6 -18.95,12.95 -31.1,12.95 -8.4,0 -15.95,-2.05 -22.65,-6.1 1.85,3 4.1,5.85 6.75,8.5 8.6,8.54999 19,12.9 31.2,12.9 12.15,0 22.5,-4.35001 31.15,-12.9 8.6,-8.65 12.9,-19.05 12.9,-31.20001 0,-12.14999 -4.3,-22.6 -12.9,-31.2 z m -112.75,0 c -2.65,-2.7 -5.5,-4.95 -8.55,-6.8 4.1,6.75 6.15,14.3 6.15,22.70001 0,12.15 -4.3,22.54999 -12.9,31.15 -8.65,8.6 -19,12.95 -31.15,12.95 -8.4,0 -15.95,-2.05 -22.6,-6.1 1.8,3 4.05,5.85 6.7,8.5 8.65,8.54999 19,12.9 31.25,12.9 12.15,0 22.5,-4.35001 31.1,-12.9 8.65,-8.65 12.95,-19.05 12.95,-31.20001 0,-12.14999 -4.3,-22.6 -12.95,-31.2 z m -112.7,0 c -2.7,-2.7 -5.55,-4.95 -8.55,-6.8 4.1,6.75 6.15,14.3 6.15,22.70001 0,12.15 -4.3,22.54999 -12.95,31.15 -8.6,8.6 -18.95,12.95 -31.1,12.95 -8.4,0 -15.95,-2.05 -22.65,-6.1 1.85,3 4.1,5.85 6.75,8.5 8.6,8.54999 19,12.9 31.2,12.9 12.15,0 22.5,-4.35001 31.15,-12.9 8.6,-8.65 12.9,-19.05 12.9,-31.20001 0,-12.14999 -4.3,-22.6 -12.9,-31.2 z m -112.75,0 c -2.65,-2.65 -5.5,-4.9 -8.5,-6.75 4.05,6.7 6.1,14.25 6.1,22.65 0,12.15 -4.3,22.55 -12.9,31.15 -8.65,8.6 -19,12.95 -31.15,12.95 -8.4,0 -15.95,-2.05 -22.65,-6.15 1.85,3.05 4.1,5.9 6.75,8.55 8.6,8.55 19,12.9 31.2,12.9 12.2,0 22.55,-4.35 31.15,-12.9 8.6,-8.65 12.95,-19.05 12.95,-31.2 0,-12.15 -4.35,-22.6 -12.95,-31.2 z m 104.2,112.05 c 4.1,6.75 6.15,14.3 6.15,22.7 0,12.15 -4.3,22.55 -12.95,31.15 -8.6,8.6 -18.95,12.95 -31.1,12.95 -8.4,0 -15.95,-2.04999 -22.65,-6.1 1.85,3 4.1,5.85 6.75,8.5 8.6,8.55 19,12.9 31.2,12.9 12.15,0 22.5,-4.35 31.15,-12.9 8.6,-8.65 12.9,-19 12.9,-31.2 0,-12.15 -4.3,-22.6 -12.9,-31.2 -2.7,-2.7 -5.55,-4.95 -8.55,-6.8 z m -112.7,0.05 c 4.05,6.7 6.1,14.25 6.1,22.65 0,12.15 -4.3,22.55 -12.9,31.15 -8.65,8.6 -19,12.95 -31.15,12.95 -8.4,0 -15.95,-2.05 -22.65,-6.15 1.85,3.05 4.1,5.9 6.75,8.55 8.6,8.55 19,12.9 31.2,12.9 12.2,0 22.55,-4.35 31.15,-12.9 8.6,-8.65 12.95,-19 12.95,-31.2 0,-12.15 -4.35,-22.6 -12.95,-31.2 -2.65,-2.65 -5.5,-4.9 -8.5,-6.75 z m 8.5,125.6 c -2.65,-2.65 -5.5,-4.9 -8.5,-6.75 4.05,6.7 6.1,14.25 6.1,22.65 0,12.15 -4.3,22.55 -12.9,31.15 -8.65,8.6 -19,12.95 -31.15,12.95 -8.4,0 -15.95,-2.05 -22.65,-6.15 1.85,3.05 4.1,5.9 6.75,8.55 8.6,8.55 19,12.95 31.2,12.95 12.2,0 22.55,-4.4 31.15,-12.95 8.6,-8.6 12.95,-19 12.95,-31.2 0,-12.15 -4.35,-22.6 -12.95,-31.2 z m 112.75,0 c -2.7,-2.7 -5.55,-4.95 -8.55,-6.8 4.1,6.75 6.15,14.3 6.15,22.7 0,12.15 -4.3,22.55 -12.95,31.15 -8.6,8.6 -18.95,12.95 -31.1,12.95 -8.4,0 -15.95,-2.04999 -22.65,-6.1 1.85,3 4.1,5.85 6.75,8.5 8.6,8.55 19,12.95001 31.2,12.95001 12.15,0 22.5,-4.4 31.15,-12.95001 8.6,-8.6 12.9,-19 12.9,-31.2 0,-12.15 -4.3,-22.6 -12.9,-31.2 z m 104.15,-125.64999 c 4.1,6.75 6.15,14.29999 6.15,22.7 0,12.15 -4.3,22.55 -12.9,31.15 -8.65,8.6 -19,12.95 -31.15,12.95 -8.4,0 -15.95,-2.05 -22.6,-6.1 1.8,3 4.05,5.85 6.7,8.5 8.65,8.55 19,12.9 31.25,12.9 12.15,0 22.5,-4.35 31.1,-12.9 8.65,-8.65 12.95,-19 12.95,-31.2 0,-12.15 -4.3,-22.60001 -12.95,-31.20001 -2.65,-2.7 -5.5,-4.95 -8.55,-6.79999 z m -617.45,-287.40001 c 8.65,8.60001 19.05,12.95 31.25,12.95 12.15,0 22.5,-4.35 31.1,-12.95 8.65,-8.6 13,-19 13,-31.14999 0,-12.2 -4.35,-22.60001 -13,-31.25 -2.65,-2.65 -5.5,-4.9 -8.5,-6.75 4.1,6.69999 6.15,14.25 6.15,22.64999 0,12.2 -4.35,22.55 -12.95,31.2 -8.65,8.55 -18.95,12.9 -31.15,12.9 -8.4,0 -15.95,-2.05 -22.6,-6.1 1.8,3 4.05,5.85 6.7,8.5 z m 53.85,49.7 c 4.1,6.75 6.15,14.3 6.15,22.65 0,12.2 -4.35,22.6 -12.95,31.2 -8.65,8.55 -18.95,12.95001 -31.15,12.95001 -8.4,0 -15.95,-2.05 -22.6,-6.1 1.85,2.95 4.05,5.79999 6.7,8.45 8.65,8.6 19.05,12.95 31.25,12.95 12.15,0 22.5,-4.35 31.1,-12.95 8.65,-8.6 13,-19 13,-31.15 0,-12.15 -4.35,-22.6 -13,-31.25 -2.65,-2.65 -5.5,-4.9 -8.5,-6.75 z m 246.95,-318.59999 c 0,-12.15 -4.35,-22.6 -13,-31.200005 -2.65,-2.65 -5.45,-4.9 -8.45,-6.7 4.1,6.65 6.15,14.200005 6.15,22.600005 0,12.15 -4.4,22.55 -13,31.1 -8.6,8.64999 -18.95,13 -31.15,13 -8.4,0 -15.95,-2.05 -22.65,-6.15001 1.85,3 4.1,5.85001 6.75,8.5 8.65,8.60001 19.05,13 31.25,13 12.15,0 22.5,-4.39999 31.1,-13 8.65,-8.55 13,-18.95 13,-31.14999 z m -82.05,141.5 c 1.8,3 4.05,5.85 6.7,8.5 8.65,8.64999 19.05,13 31.25,13 12.15,0 22.5,-4.35001 31.1,-13 8.65,-8.55001 13,-18.95 13,-31.10001 0,-12.2 -4.35,-22.6 -13,-31.25 -2.65,-2.65 -5.5,-4.9 -8.5,-6.75 4.15,6.7 6.2,14.25 6.2,22.65 0,12.15 -4.4,22.55 -13,31.15 -8.6,8.6 -18.95,12.95 -31.15,12.95 -8.35,0 -15.9,-2.05 -22.6,-6.15 z m -112.7,0.05 c 1.8,2.95 4.05,5.8 6.7,8.45 8.6,8.64999 19,13 31.2,13 12.2,0 22.5,-4.35001 31.15,-13 8.6,-8.55001 12.95,-18.95 12.95,-31.10001 0,-12.2 -4.35,-22.6 -12.95,-31.25 -2.65,-2.65 -5.5,-4.9 -8.55,-6.75 4.15,6.7 6.2,14.25 6.2,22.65 0,12.15 -4.35,22.55 -13,31.15 -8.6,8.6 -18.95,12.95 -31.1,12.95 -8.4,0 -15.95,-2.05 -22.6,-6.1 z m 82,96.2 c 0,-12.2 -4.35,-22.60001 -12.95,-31.25 -2.65,-2.65 -5.5,-4.9 -8.5,-6.75 4.1,6.69999 6.15,14.25 6.15,22.64999 0,12.2 -4.35,22.55 -13,31.2 -8.6,8.55 -18.95,12.9 -31.1,12.9 -8.4,0 -15.95,-2.05 -22.65,-6.1 1.85,3 4.1,5.85 6.75,8.5 8.6,8.6 19,12.95 31.2,12.95 12.2,0 22.5,-4.35 31.15,-12.95 8.6,-8.6 12.95,-19 12.95,-31.15 z m -21.5,80.84999 c 4.15,6.75 6.2,14.3 6.2,22.65 0,12.2 -4.35,22.6 -13,31.2 -8.6,8.55 -18.95,12.95001 -31.1,12.95001 -8.4,0 -15.95,-2.05 -22.6,-6.1 1.8,2.95 4.05,5.79999 6.7,8.45 8.6,8.6 19,12.95 31.2,12.95 12.2,0 22.5,-4.35 31.15,-12.95 8.6,-8.6 12.95,-19 12.95,-31.15 0,-12.15 -4.35,-22.6 -12.95,-31.25 -2.65,-2.65 -5.5,-4.9 -8.55,-6.75 z m 134.25,-80.84999 c 0,-12.2 -4.35,-22.60001 -13,-31.25 -2.65,-2.65 -5.45,-4.85001 -8.45,-6.7 4.1,6.7 6.15,14.25 6.15,22.6 0,12.2 -4.4,22.55 -13,31.2 -8.6,8.55 -18.95,12.9 -31.15,12.9 -8.4,0 -15.95,-2.05001 -22.65,-6.10001 1.85,3 4.1,5.85001 6.75,8.5 8.65,8.60001 19.05,12.95 31.25,12.95 12.15,0 22.5,-4.35 31.1,-12.95 8.65,-8.6 13,-19 13,-31.14999 z m -21.45,80.9 c 4.1,6.7 6.15,14.25 6.15,22.6 0,12.2 -4.4,22.6 -13,31.2 -8.6,8.55 -18.95,12.95 -31.15,12.95 -8.35,0 -15.9,-2.05 -22.6,-6.15 1.85,3 4.05,5.85 6.7,8.5 8.65,8.6 19.05,12.95 31.25,12.95 12.15,0 22.5,-4.35 31.1,-12.95 8.65,-8.6 13,-19 13,-31.15 0,-12.15 -4.35,-22.6 -13,-31.25 -2.65,-2.65 -5.5,-4.9 -8.45,-6.7 z m -60.65,179.44999 c 1.85,3.05 4.1,5.9 6.75,8.55 8.65,8.55 19.05,12.9 31.25,12.9 12.15,0 22.5,-4.35 31.1,-12.9 8.65,-8.65 13,-19.05 13,-31.2 0,-12.15 -4.35,-22.6 -13,-31.2 -2.65,-2.65 -5.45,-4.9 -8.45,-6.75 4.1,6.75 6.15,14.3 6.15,22.65 0,12.15 -4.4,22.55 -13,31.15 -8.6,8.6 -18.95,12.95 -31.15,12.95 -8.4,0 -15.95,-2.05 -22.65,-6.15 z m -43.6,-53.85 c -2.65,-2.65 -5.5,-4.9 -8.5,-6.75 4.1,6.7 6.15,14.25 6.15,22.65 0,12.15 -4.35,22.55 -13,31.15 -8.6,8.6 -18.95,12.95 -31.1,12.95 -8.4,0 -15.95,-2.05 -22.65,-6.1 1.85,3 4.1,5.85 6.75,8.5 8.6,8.55 19,12.9 31.2,12.9 12.2,0 22.5,-4.35 31.15,-12.9 8.6,-8.65 12.95,-19.05 12.95,-31.2 0,-12.15 -4.35,-22.6 -12.95,-31.2 z m -112.75,0 c -2.65,-2.65 -5.5,-4.9 -8.5,-6.75 4.1,6.7 6.15,14.25 6.15,22.65 0,12.15 -4.35,22.55 -12.95,31.15 -8.65,8.6 -18.95,12.95 -31.15,12.95 -8.4,0 -15.95,-2.05 -22.6,-6.1 1.8,3 4.05,5.85 6.7,8.5 8.65,8.55 19.05,12.9 31.25,12.9 12.15,0 22.5,-4.35 31.1,-12.9 8.65,-8.65 13,-19.05 13,-31.2 0,-12.15 -4.35,-22.6 -13,-31.2 z m 104.25,112.1 c 4.1,6.70001 6.15,14.25 6.15,22.65 0,12.15 -4.35,22.55 -13,31.15 -8.6,8.6 -18.95,12.95 -31.1,12.95 -8.4,0 -15.95,-2.04999 -22.65,-6.1 1.85,3 4.1,5.85 6.75,8.5 8.6,8.55 19,12.9 31.2,12.9 12.2,0 22.5,-4.35 31.15,-12.9 8.6,-8.65 12.95,-19 12.95,-31.2 0,-12.15 -4.35,-22.6 -12.95,-31.2 -2.65,-2.65 -5.5,-4.9 -8.5,-6.75 z m 134.2,37.95001 c 0,-12.15 -4.35,-22.60001 -13,-31.20001 -2.65,-2.65 -5.45,-4.9 -8.45,-6.75 4.1,6.75 6.15,14.3 6.15,22.65 0,12.15 -4.4,22.55 -13,31.15 -8.6,8.6 -18.95,12.95 -31.15,12.95 -8.4,0 -15.95,-2.04999 -22.65,-6.15 1.85,3.05 4.1,5.9 6.75,8.55 8.65,8.55 19.05,12.9 31.25,12.9 12.15,0 22.5,-4.35 31.1,-12.9 8.65,-8.65 13,-19 13,-31.2 z m -82.1,141.5 c 1.85,3.04999 4.1,5.89999 6.75,8.54999 8.65,8.55 19.05,12.95001 31.25,12.95001 12.15,0 22.5,-4.4 31.1,-12.95001 8.65,-8.6 13,-19 13,-31.2 0,-12.15 -4.35,-22.6 -13,-31.2 -2.65,-2.65 -5.45,-4.9 -8.45,-6.75 4.1,6.75 6.15,14.3 6.15,22.65 0,12.15 -4.4,22.55 -13,31.15 -8.6,8.6 -18.95,12.95 -31.15,12.95 -8.4,0 -15.95,-2.05 -22.65,-6.15 z"
       id="path148" />
    <path
       style="fill:#64a2f1;fill-opacity:1"
       inkscape:connector-curvature="0"
       d="m -394.92034,226.59406 c -1.85,-3.05 -4.1,-5.9 -6.75,-8.55 -8.65,-8.65 -19,-12.9 -31.15,-12.9 -12.2,0 -22.6,4.25 -31.2,12.9 -8.65,8.6 -12.9,19.05 -12.9,31.2 0,12.15 4.25,22.55 12.9,31.15 2.65,2.7 5.5,4.95 8.55,6.8 6.7,4.1 14.25,6.15 22.65,6.15 12.15,0 22.5,-4.35 31.15,-12.95 8.6,-8.6 12.9,-19 12.9,-31.15 0,-8.4 -2.05,-15.95 -6.15,-22.65 z m 30.7,22.65001 c 0,12.14999 4.3,22.55 12.9,31.14999 2.7,2.7 5.6,5 8.65,6.85001 6.65,4.05 14.2,6.1 22.6,6.1 12.15,0 22.5,-4.35 31.1,-12.95 8.65,-8.6 12.95,-19 12.95,-31.15 0,-8.4 -2.05,-15.95 -6.2,-22.7 -1.85,-3 -4.1,-5.85 -6.75,-8.5 -8.6,-8.65 -18.95,-12.9 -31.1,-12.9 -12.25,0 -22.6,4.25 -31.25,12.9 -8.6,8.6 -12.9,19.05 -12.9,31.2 z m 12.9,206.5 c -8.6,8.6 -12.9,19.05 -12.9,31.2 0,12.19999 4.3,22.59999 12.9,31.19999 2.7,2.70001 5.6,5 8.65,6.85001 6.65,4.04999 14.2,6.1 22.6,6.1 12.15,0 22.5,-4.4 31.1,-12.95001 8.65,-8.6 12.95,-19 12.95,-31.19999 0,-8.4 -2.05,-15.95 -6.2,-22.65 -1.85,-3.05 -4.1,-5.9 -6.75,-8.55 -8.6,-8.60001 -18.95,-12.9 -31.1,-12.9 -12.25,0 -22.6,4.3 -31.25,12.9 z m 181.85,-110.3 c -1.85,-3.05001 -4.1,-5.9 -6.75,-8.55001 -8.65,-8.64999 -19,-12.89999 -31.15,-12.89999 -12.2,0 -22.6,4.25 -31.2,12.89999 -8.65,8.60001 -12.9,19.05001 -12.9,31.2 0,12.2 4.25,22.55 12.9,31.2 2.65,2.65 5.55,4.95 8.6,6.8 6.65,4.05 14.2,6.10001 22.6,6.10001 12.15,0 22.5,-4.35001 31.15,-12.9 8.6,-8.65 12.9,-19 12.9,-31.2 0,-8.4 -2.05,-15.95 -6.15,-22.65 z m 43.6,-8.55001 c -8.6,8.60001 -12.85,19.05001 -12.85,31.2 0,12.2 4.25,22.55 12.85,31.2 2.7,2.65 5.55,4.95 8.6,6.8 6.7,4.05 14.25,6.10001 22.649998,6.10001 12.15,0 22.5,-4.35001 31.1,-12.9 8.65,-8.65 12.95,-19 12.95,-31.2 0,-8.4 -2.05,-15.95 -6.15,-22.65 -1.85,-3.05 -4.15,-5.9 -6.8,-8.55 -8.6,-8.65 -18.95,-12.9 -31.1,-12.9 -12.249998,0 -22.599998,4.25 -31.249998,12.9 z m -112.7,118.85001 c -8.65,8.6 -12.9,19.05 -12.9,31.2 0,12.19999 4.25,22.59999 12.9,31.19999 2.7,2.70001 5.55,5 8.6,6.85001 6.65,4.04999 14.2,6.1 22.6,6.1 12.15,0 22.5,-4.4 31.15,-12.95001 8.6,-8.6 12.9,-19 12.9,-31.19999 0,-8.4 -2.05,-15.95 -6.15,-22.65 -1.85,-3.05 -4.1,-5.9 -6.75,-8.55 -8.65,-8.60001 -19,-12.9 -31.15,-12.9 -12.2,0 -22.6,4.3 -31.2,12.9 z m 112.7,0 c -8.6,8.6 -12.85,19.05 -12.85,31.2 0,12.19999 4.25,22.59999 12.85,31.19999 2.7,2.70001 5.6,5 8.65,6.85001 6.65,4.04999 14.2,6.1 22.599998,6.1 12.15,0 22.5,-4.4 31.1,-12.95001 8.65,-8.6 12.95,-19 12.95,-31.19999 0,-8.4 -2.05,-15.95 -6.2,-22.65 -1.85,-3.05 -4.1,-5.9 -6.75,-8.55 -8.6,-8.60001 -18.95,-12.9 -31.1,-12.9 -12.249998,0 -22.599998,4.3 -31.249998,12.9 z m 62.349998,118.85 c -8.6,-8.55 -18.95,-12.9 -31.1,-12.9 -12.249998,0 -22.599998,4.35 -31.249998,12.9 -8.6,8.65 -12.85,19.04999 -12.85,31.25 0,12.15 4.25,22.54999 12.85,31.15 2.7,2.7 5.55,5 8.6,6.85 6.7,4.04999 14.25,6.1 22.649998,6.1 12.15,0 22.5,-4.35 31.1,-12.95 8.65,-8.60001 12.95,-19 12.95,-31.15 0,-8.4 -2.05,-15.95001 -6.15,-22.70001 -1.85,-3 -4.15,-5.85 -6.8,-8.54999 z m -105.949998,8.54999 c -1.85,-3 -4.1,-5.85 -6.75,-8.54999 -8.65,-8.55 -19,-12.9 -31.15,-12.9 -12.2,0 -22.6,4.35 -31.2,12.9 -8.65,8.65 -12.9,19.04999 -12.9,31.25 0,12.15 4.25,22.54999 12.9,31.15 2.65,2.7 5.55,5 8.6,6.85 6.65,4.04999 14.2,6.1 22.6,6.1 12.15,0 22.5,-4.35 31.15,-12.95 8.6,-8.60001 12.9,-19 12.9,-31.15 0,-8.4 -2.05,-15.95001 -6.15,-22.70001 z m -112.7,0 c -1.85,-3 -4.15,-5.85 -6.8,-8.54999 -8.6,-8.55 -18.95,-12.9 -31.1,-12.9 -12.25,0 -22.6,4.35 -31.25,12.9 -8.6,8.65 -12.9,19.04999 -12.9,31.25 0,12.15 4.3,22.54999 12.9,31.15 2.7,2.7 5.55,5 8.6,6.85 6.7,4.04999 14.25,6.1 22.65,6.1 12.15,0 22.5,-4.35 31.1,-12.95 8.65,-8.60001 12.95,-19 12.95,-31.15 0,-8.4 -2.05,-15.95001 -6.15,-22.70001 z m 6.15,141.55 c 0,-8.4 -2.05,-15.95 -6.15,-22.7 -1.85,-3 -4.15,-5.85 -6.8,-8.55 -8.6,-8.55 -18.95,-12.85 -31.1,-12.85 -12.25,0 -22.6,4.3 -31.25,12.85 -8.6,8.65 -12.9,19.05 -12.9,31.25 0,12.15 4.3,22.55 12.9,31.15 2.7,2.7 5.55,5 8.6,6.85 6.7,4.05 14.25,6.1 22.65,6.1 12.15,0 22.5,-4.35 31.1,-12.95 8.65,-8.6 12.95,-19 12.95,-31.15 z m -88.2,118.85 c 0,12.15 4.3,22.55 12.9,31.15 2.7,2.7 5.55,5 8.6,6.85 6.7,4.05 14.25,6.1 22.65,6.1 12.15,0 22.5,-4.35 31.1,-12.95 8.65,-8.6 12.95,-19 12.95,-31.15 0,-8.4 -2.05,-15.95 -6.15,-22.7 -1.85,-3 -4.15,-5.85 -6.8,-8.55 -8.6,-8.54999 -18.95,-12.85 -31.1,-12.85 -12.25,0 -22.6,4.3 -31.25,12.85 -8.6,8.65 -12.9,19.1 -12.9,31.25 z m 200.9,-118.85 c 0,-8.4 -2.05,-15.95 -6.15,-22.7 -1.85,-3 -4.1,-5.85 -6.75,-8.55 -8.65,-8.55 -19,-12.85 -31.15,-12.85 -12.2,0 -22.6,4.3 -31.2,12.85 -8.65,8.65 -12.9,19.05 -12.9,31.25 0,12.15 4.25,22.55 12.9,31.15 2.65,2.7 5.55,5 8.6,6.85 6.65,4.05 14.2,6.1 22.6,6.1 12.15,0 22.5,-4.35 31.15,-12.95 8.6,-8.6 12.9,-19 12.9,-31.15 z m -638.9,-387.8 c -8.65,8.60001 -12.9,19.05001 -12.9,31.2 0,12.2 4.25,22.55 12.9,31.2 2.65,2.65 5.55,4.95 8.6,6.8 6.65,4.05 14.2,6.10001 22.6,6.10001 12.2,0 22.5,-4.35001 31.15,-12.9 8.6,-8.65 12.95,-19 12.95,-31.2 0,-8.4 -2.05,-15.95 -6.15,-22.65 -1.85,-3.05 -4.15,-5.9 -6.8,-8.55 -8.65,-8.65 -18.95,-12.9 -31.15,-12.9 -12.2,0 -22.6,4.25 -31.2,12.9 z m 0,118.85001 c -8.65,8.6 -12.9,19.05 -12.9,31.2 0,12.19999 4.25,22.59999 12.9,31.19999 2.7,2.70001 5.55,5 8.6,6.85001 6.65,4.04999 14.2,6.1 22.6,6.1 12.2,0 22.5,-4.4 31.15,-12.95001 8.6,-8.6 12.95,-19 12.95,-31.19999 0,-8.35001 -2.05,-15.9 -6.15,-22.65 -1.85,-3.05 -4.15,-5.9 -6.8,-8.55 -8.65,-8.60001 -18.95,-12.9 -31.15,-12.9 -12.2,0 -22.6,4.3 -31.2,12.9 z m 294.6,-229.15001 c -1.85,-3.05 -4.1,-5.9 -6.8,-8.55 -8.6,-8.65 -18.95,-12.9 -31.15,-12.9 -12.2,0 -22.6,4.25 -31.2,12.9 -8.6,8.6 -12.9,19.05 -12.9,31.2 0,12.15 4.3,22.55 12.9,31.15 2.7,2.7 5.55,4.95 8.6,6.8 6.7,4.1 14.25,6.15 22.6,6.15 12.2,0 22.55,-4.35 31.15,-12.95 8.6,-8.6 13,-19 13,-31.15 0,-8.4 -2.05,-15.95 -6.2,-22.65 z m -112.7,118.85001 c -1.85,-3.05001 -4.15,-5.9 -6.85,-8.55001 -8.6,-8.64999 -18.95,-12.89999 -31.1,-12.89999 -12.2,0 -22.6,4.25 -31.25,12.89999 -8.6,8.60001 -12.85,19.05001 -12.85,31.2 0,12.2 4.25,22.55 12.85,31.2 2.7,2.65 5.55,4.95 8.6,6.8 6.7,4.05 14.25,6.10001 22.65,6.10001 12.15,0 22.5,-4.35001 31.1,-12.9 8.65,-8.65 13,-19 13,-31.2 0,-8.4 -2.05,-15.95 -6.15,-22.65 z m -69.2,110.3 c -8.6,8.6 -12.85,19.05 -12.85,31.2 0,12.19999 4.25,22.59999 12.85,31.19999 2.7,2.70001 5.6,5 8.65,6.85001 6.65,4.04999 14.2,6.1 22.6,6.1 12.15,0 22.5,-4.4 31.1,-12.95001 8.65,-8.6 13,-19 13,-31.19999 0,-8.35001 -2.05,-15.9 -6.2,-22.65 -1.85,-3.05 -4.15,-5.9 -6.8,-8.55 -8.6,-8.60001 -18.95,-12.9 -31.1,-12.9 -12.2,0 -22.6,4.3 -31.25,12.9 z m 181.95,8.6 c -1.85,-3.05 -4.15,-5.9 -6.85,-8.6 -8.6,-8.60001 -18.95,-12.9 -31.15,-12.9 -12.2,0 -22.6,4.3 -31.2,12.9 -8.6,8.6 -12.9,19.05 -12.9,31.2 0,12.19999 4.3,22.59999 12.9,31.19999 2.7,2.70001 5.55,4.95001 8.6,6.8 6.7,4.1 14.25,6.15 22.6,6.15 12.2,0 22.55,-4.4 31.15,-12.95 8.6,-8.6 13,-19 13,-31.2 0,-8.35 -2.05,-15.9 -6.15,-22.6 z m 0,118.85 c -1.85,-3.05 -4.15,-5.9 -6.85,-8.6 -8.6,-8.55 -18.95,-12.9 -31.15,-12.9 -12.2,0 -22.6,4.35 -31.2,12.9 -8.6,8.65 -12.9,19.04999 -12.9,31.25 0,12.15 4.3,22.54999 12.9,31.15 2.65,2.64999 5.5,4.95 8.55,6.79999 6.7,4.1 14.25,6.15 22.65,6.15 12.2,0 22.55,-4.35 31.15,-12.95 8.6,-8.6 13,-19 13,-31.15 0,-8.35 -2.05,-15.9 -6.15,-22.65 z m -112.75,0 c -1.85,-3.05 -4.15,-5.9 -6.85,-8.6 -8.6,-8.55 -18.95,-12.9 -31.1,-12.9 -12.2,0 -22.6,4.35 -31.25,12.9 -8.6,8.65 -12.85,19.04999 -12.85,31.25 0,12.15 4.25,22.54999 12.85,31.15 2.7,2.7 5.55,5 8.6,6.85 6.7,4.04999 14.25,6.1 22.65,6.1 12.15,0 22.5,-4.35 31.1,-12.95 8.65,-8.60001 13,-19 13,-31.15 0,-8.4 -2.05,-15.95001 -6.15,-22.65 z m -112.75,0 c -1.85,-3.05 -4.15,-5.9 -6.8,-8.6 -8.65,-8.55 -18.95,-12.9 -31.15,-12.9 -12.2,0 -22.6,4.35 -31.2,12.9 -8.65,8.65 -12.9,19.04999 -12.9,31.25 0,12.15 4.25,22.54999 12.9,31.15 2.65,2.7 5.55,5 8.6,6.85 6.65,4.04999 14.2,6.1 22.6,6.1 12.2,0 22.5,-4.35 31.15,-12.95 8.6,-8.60001 12.95,-19 12.95,-31.15 0,-8.4 -2.05,-15.95001 -6.15,-22.65 z m 118.9,141.5 c 0,-8.4 -2.05,-15.95 -6.15,-22.65 -1.85,-3.05 -4.15,-5.9 -6.85,-8.6 -8.6,-8.55 -18.95,-12.85 -31.1,-12.85 -12.2,0 -22.6,4.29999 -31.25,12.85 -8.6,8.65 -12.85,19.05 -12.85,31.25 0,12.15 4.25,22.55 12.85,31.15 2.7,2.7 5.55,5 8.6,6.85 6.7,4.05 14.25,6.1 22.65,6.1 12.15,0 22.5,-4.35 31.1,-12.95 8.65,-8.6 13,-19 13,-31.15 z m 106.6,-22.65 c -1.85,-3.05 -4.15,-5.9 -6.85,-8.6 -8.6,-8.55 -18.95,-12.85 -31.15,-12.85 -12.2,0 -22.6,4.29999 -31.2,12.85 -8.6,8.65 -12.9,19.05 -12.9,31.25 0,12.15 4.3,22.55 12.9,31.15 2.65,2.65 5.5,4.95 8.55,6.79999 6.7,4.10001 14.25,6.15 22.65,6.15 12.2,0 22.55,-4.35 31.15,-12.95 8.6,-8.6 13,-19 13,-31.15 0,-8.35 -2.05,-15.9 -6.15,-22.65 z"
       id="path149" />
  </g>
</svg>
