<?xml version="1.0" encoding="UTF-8" standalone="no"?>
<svg
   xmlns:dc="http://purl.org/dc/elements/1.1/"
   xmlns:cc="http://creativecommons.org/ns#"
   xmlns:rdf="http://www.w3.org/1999/02/22-rdf-syntax-ns#"
   xmlns:svg="http://www.w3.org/2000/svg"
   xmlns="http://www.w3.org/2000/svg"
   xmlns:xlink="http://www.w3.org/1999/xlink"
   xmlns:sodipodi="http://sodipodi.sourceforge.net/DTD/sodipodi-0.dtd"
   xmlns:inkscape="http://www.inkscape.org/namespaces/inkscape"
   viewBox="0 0 48 48"
   id="svg2"
   version="1.1"
   inkscape:version="0.91 r13725"
   sodipodi:docname="vineyard.svg">
  <metadata
     id="metadata50">
    <rdf:RDF>
      <cc:Work
         rdf:about="">
        <dc:format>image/svg+xml</dc:format>
        <dc:type
           rdf:resource="http://purl.org/dc/dcmitype/StillImage" />
        <dc:title></dc:title>
      </cc:Work>
    </rdf:RDF>
  </metadata>
  <sodipodi:namedview
     pagecolor="#ffffff"
     bordercolor="#666666"
     borderopacity="1"
     objecttolerance="10"
     gridtolerance="10"
     guidetolerance="10"
     inkscape:pageopacity="0"
     inkscape:pageshadow="2"
     inkscape:window-width="1280"
     inkscape:window-height="694"
     id="namedview48"
     showgrid="false"
     inkscape:zoom="4.9166667"
     inkscape:cx="-9.1525424"
     inkscape:cy="24"
     inkscape:window-x="0"
     inkscape:window-y="0"
     inkscape:window-maximized="1"
     inkscape:current-layer="svg2" />
  <defs
     id="defs4">
    <clipPath
       id="clipPath6">
      <path
         d="m-24 13c0 1.105-.672 2-1.5 2-.828 0-1.5-.895-1.5-2 0-1.105.672-2 1.5-2 .828 0 1.5.895 1.5 2"
         transform="matrix(15.33333 0 0 11.5 415-125.5)"
         fill="#1890d0"
         id="path8" />
    </clipPath>
    <clipPath
       id="clipPath10">
      <path
         fill="#1890d0"
         transform="matrix(15.33333 0 0 11.5 415-125.5)"
         d="m-24 13c0 1.105-.672 2-1.5 2-.828 0-1.5-.895-1.5-2 0-1.105.672-2 1.5-2 .828 0 1.5.895 1.5 2"
         id="path12" />
    </clipPath>
    <clipPath
       id="clipPath14">
      <path
         transform="matrix(15.33333 0 0 11.5 415-125.5)"
         d="m-24 13c0 1.105-.672 2-1.5 2-.828 0-1.5-.895-1.5-2 0-1.105.672-2 1.5-2 .828 0 1.5.895 1.5 2"
         fill="#1890d0"
         id="path16" />
    </clipPath>
    <clipPath
       id="clipPath18">
      <path
         fill="#1890d0"
         transform="matrix(15.33333 0 0 11.5 415-125.5)"
         d="m-24 13c0 1.105-.672 2-1.5 2-.828 0-1.5-.895-1.5-2 0-1.105.672-2 1.5-2 .828 0 1.5.895 1.5 2"
         id="path20" />
    </clipPath>
    <clipPath
       id="clipPath22">
      <path
         d="m-24 13c0 1.105-.672 2-1.5 2-.828 0-1.5-.895-1.5-2 0-1.105.672-2 1.5-2 .828 0 1.5.895 1.5 2"
         transform="matrix(15.33333 0 0 11.5 415-125.5)"
         fill="#1890d0"
         id="path24" />
    </clipPath>
    <clipPath
       id="clipPath26">
      <path
         d="m-24 13c0 1.105-.672 2-1.5 2-.828 0-1.5-.895-1.5-2 0-1.105.672-2 1.5-2 .828 0 1.5.895 1.5 2"
         transform="matrix(15.33333 0 0 11.5 415-125.5)"
         fill="#1890d0"
         id="path28" />
    </clipPath>
    <linearGradient
       y2="-26.429"
       x2="0"
       y1="22.369"
       gradientUnits="userSpaceOnUse"
       id="0">
      <stop
         stop-color="#d8d8d8"
         id="stop31" />
      <stop
         stop-color="#fff"
         offset="1"
         id="stop33" />
    </linearGradient>
    <linearGradient
       id="3"
       x1="316.89"
       y1="298.34"
       x2="319.75"
       y2="151.37"
       gradientUnits="userSpaceOnUse"
       gradientTransform="matrix(0.18959,0,0,0.32821782,-38.35,-51.635659)">
      <stop
         stop-color="#494c86"
         id="stop36" />
      <stop
         offset="1"
         stop-color="#7277d1"
         id="stop38" />
    </linearGradient>
    <linearGradient
       gradientTransform="matrix(1.4 0 0 1.39991 109.94 1027.47)"
       gradientUnits="userSpaceOnUse"
       y2="4.445"
       x2="0"
       y1="35.14"
       id="1"
       xlink:href="#0" />
    <linearGradient
       xlink:href="#0"
       id="2"
       x1="24.791"
       y1="47.32"
       x2="24.2"
       y2=".483"
       gradientUnits="userSpaceOnUse" />
  </defs>
  <path
     d="M 27.930664,6.3866864 C 38.168524,17.771906 48.10304,6.6069205 48.10304,6.6069205 45.549452,25.940919 42.934817,45.779717 21.858096,47.936108 6.8918617,42.713178 -0.1457191,22.807752 0.1822716,9.3803611 3.5507171,8.8368324 8.1545311,7.5853378 9.730024,6.0263032 c 3.7918,-3.7433242 7.96278,-11.0258211 18.20064,0.3593985"
     id="path44"
     style="fill:#5f5fd3"
     inkscape:connector-curvature="0" />
</svg>
