<?xml version="1.0" encoding="UTF-8" standalone="no"?>
<svg
   xmlns:dc="http://purl.org/dc/elements/1.1/"
   xmlns:cc="http://creativecommons.org/ns#"
   xmlns:rdf="http://www.w3.org/1999/02/22-rdf-syntax-ns#"
   xmlns:svg="http://www.w3.org/2000/svg"
   xmlns="http://www.w3.org/2000/svg"
   xmlns:sodipodi="http://sodipodi.sourceforge.net/DTD/sodipodi-0.dtd"
   xmlns:inkscape="http://www.inkscape.org/namespaces/inkscape"
   viewBox="0 0 64 64"
   id="svg2"
   version="1.1"
   inkscape:version="0.91 r13725"
   sodipodi:docname="application-x-pak.svg">
  <metadata
     id="metadata19">
    <rdf:RDF>
      <cc:Work
         rdf:about="">
        <dc:format>image/svg+xml</dc:format>
        <dc:type
           rdf:resource="http://purl.org/dc/dcmitype/StillImage" />
        <dc:title></dc:title>
      </cc:Work>
    </rdf:RDF>
  </metadata>
  <sodipodi:namedview
     pagecolor="#ffffff"
     bordercolor="#666666"
     borderopacity="1"
     objecttolerance="10"
     gridtolerance="10"
     guidetolerance="10"
     inkscape:pageopacity="0"
     inkscape:pageshadow="2"
     inkscape:window-width="1280"
     inkscape:window-height="694"
     id="namedview17"
     showgrid="true"
     inkscape:zoom="3.6875"
     inkscape:cx="-12.20339"
     inkscape:cy="32"
     inkscape:window-x="0"
     inkscape:window-y="0"
     inkscape:window-maximized="1"
     inkscape:current-layer="svg2">
    <inkscape:grid
       type="xygrid"
       id="grid4137" />
  </sodipodi:namedview>
  <defs
     id="defs4">
    <linearGradient
       id="0"
       x1="-74.929"
       y1="59.57"
       x2="-75.26"
       y2="2.356"
       gradientUnits="userSpaceOnUse"
       gradientTransform="matrix(1.07499,0,0,1.02929,113.079,0.074)">
      <stop
         stop-color="#d1d7df"
         id="stop7" />
      <stop
         offset="1"
         stop-color="#eaf0f2"
         id="stop9" />
    </linearGradient>
  </defs>
  <rect
     style="fill:#dbe2e3"
     id="rect13"
     rx="3.5785823"
     y="0.65025425"
     x="0.50847554"
     height="52.665592"
     width="62.983047" />
  <path
     style="fill:#374548"
     inkscape:connector-curvature="0"
     id="path15"
     d="m 28.652543,34.099495 c -0.973878,0 -1.758839,0.660707 -1.758839,1.483496 l 0,26.727683 c 0,0.822789 0.784961,1.483496 1.758839,1.483496 l 28.118003,0 c 0.973879,0 1.75884,-0.660707 1.75884,-1.483496 l 0,-26.727683 c 0,-0.822789 -0.784961,-1.483496 -1.75884,-1.483496 l -28.118003,0 m 13.146631,0.824027 1.950687,0 c 0.432021,0 0.780568,0.294472 0.780568,0.659469 l 0,0.167033 c 0,0.364997 -0.348547,0.659469 -0.780568,0.659469 l -1.950687,0 c -0.432021,0 -0.780567,-0.294472 -0.780567,-0.659469 l 0,-0.167033 c 0,-0.364997 0.348546,-0.659469 0.780567,-0.659469 m -0.0088,2.147915 1.953616,0 c 0.432021,0 0.780568,0.294473 0.780568,0.65947 l 0,0.164557 c 0,0.364997 -0.348547,0.659469 -0.780568,0.659469 l -1.953616,0 c -0.432021,0 -0.780567,-0.294472 -0.780567,-0.659469 l 0,-0.164557 c 0,-0.364997 0.348546,-0.65947 0.780567,-0.65947 m -0.02343,2.121932 1.953616,0 c 0.432021,0 0.780568,0.294471 0.780568,0.65947 l 0,0.164557 c 0,0.364997 -0.348547,0.65947 -0.780568,0.65947 l -1.953616,0 c -0.432021,0 -0.780566,-0.294473 -0.780566,-0.65947 l 0,-0.164557 c 0,-0.364999 0.348545,-0.65947 0.780566,-0.65947 m 0.03954,2.208541 1.953616,0 c 0.432022,0 0.780568,0.294473 0.780568,0.65947 l 0,0.164557 c 0,0.364997 -0.348546,0.65947 -0.780568,0.65947 l -1.953616,0 c -0.432021,0 -0.780566,-0.294473 -0.780566,-0.65947 l 0,-0.164557 c 0,-0.364997 0.348545,-0.65947 0.780566,-0.65947 m 0,2.170186 1.953616,0 c 0.432022,0 0.780568,0.294472 0.780568,0.659469 l 0,0.164559 c 0,0.364997 -0.348546,0.659468 -0.780568,0.659468 l -1.953616,0 c -0.432021,0 -0.780566,-0.294471 -0.780566,-0.659468 l 0,-0.164559 c 0,-0.364997 0.348545,-0.659469 0.780566,-0.659469 m 0,2.220914 1.953616,0 c 0.432022,0 0.780568,0.294472 0.780568,0.659469 l 0,0.164559 c 0,0.364997 -0.348546,0.65947 -0.780568,0.65947 l -1.953616,0 c -0.432021,0 -0.780566,-0.294473 -0.780566,-0.65947 l 0,-0.164559 c 0,-0.364997 0.348545,-0.659469 0.780566,-0.659469 m 0.1567,2.244423 1.547955,0 c 0.30754,0 0.557967,0.210338 0.557967,0.471403 l 0,0.937857 0.861113,2.14544 c 0.241639,0.597606 0.125947,1.26326 -0.309005,1.779206 -0.43495,0.514708 -1.139365,0.821553 -1.884785,0.821553 -0.74542,0 -1.449834,-0.308083 -1.884784,-0.821553 -0.434951,-0.514708 -0.550646,-1.180363 -0.309006,-1.779206 l 0.864043,-2.14544 0,-0.937857 c 0,-0.261065 0.250425,-0.471403 0.557966,-0.471403 m -0.06883,3.141449 -0.291431,0.720096 c -0.124482,0.30932 -0.06444,0.652046 0.159627,0.918061 0.446666,0.530791 1.498162,0.530791 1.944829,0 0.224066,-0.266015 0.284108,-0.609978 0.159628,-0.918061 l -0.288502,-0.720096 -1.684151,0" />
</svg>
