<?xml version="1.0" encoding="UTF-8" standalone="no"?>
<svg
   xmlns:dc="http://purl.org/dc/elements/1.1/"
   xmlns:cc="http://creativecommons.org/ns#"
   xmlns:rdf="http://www.w3.org/1999/02/22-rdf-syntax-ns#"
   xmlns:svg="http://www.w3.org/2000/svg"
   xmlns="http://www.w3.org/2000/svg"
   xmlns:sodipodi="http://sodipodi.sourceforge.net/DTD/sodipodi-0.dtd"
   xmlns:inkscape="http://www.inkscape.org/namespaces/inkscape"
   viewBox="0 0 64 64"
   id="svg2"
   version="1.1"
   inkscape:version="0.91 r13725"
   sodipodi:docname="text-x-changelog.svg">
  <metadata
     id="metadata21">
    <rdf:RDF>
      <cc:Work
         rdf:about="">
        <dc:format>image/svg+xml</dc:format>
        <dc:type
           rdf:resource="http://purl.org/dc/dcmitype/StillImage" />
        <dc:title></dc:title>
      </cc:Work>
    </rdf:RDF>
  </metadata>
  <sodipodi:namedview
     pagecolor="#ffffff"
     bordercolor="#666666"
     borderopacity="1"
     objecttolerance="10"
     gridtolerance="10"
     guidetolerance="10"
     inkscape:pageopacity="0"
     inkscape:pageshadow="2"
     inkscape:window-width="1280"
     inkscape:window-height="694"
     id="namedview19"
     showgrid="true"
     inkscape:zoom="3.6875"
     inkscape:cx="-12.20339"
     inkscape:cy="32"
     inkscape:window-x="0"
     inkscape:window-y="0"
     inkscape:window-maximized="1"
     inkscape:current-layer="svg2">
    <inkscape:grid
       type="xygrid"
       id="grid4152" />
  </sodipodi:namedview>
  <defs
     id="defs4">
    <linearGradient
       id="0"
       x1="-74.929"
       y1="52.2"
       x2="-75.26"
       y2="2.356"
       gradientUnits="userSpaceOnUse"
       gradientTransform="matrix(1.5520272,0,0,0.89555871,149.32977,-0.79493906)">
      <stop
         stop-color="#8798a9"
         id="stop7" />
      <stop
         offset="1"
         stop-color="#aeb6be"
         id="stop9" />
    </linearGradient>
  </defs>
  <rect
     style="fill:url(#0)"
     id="rect13"
     rx="3.6093988"
     y="0.65025425"
     x="0.50847554"
     height="52.665592"
     width="63.525425" />
  <g
     id="g4154"
     transform="matrix(1.3179271,0,0,1.2137832,0.40302745,10.378166)">
    <path
       d="m 31.9087,25.82675 c -2.9185,0 -5.36555,2.04295 -5.99415,4.78185 l 2.94095,0 c 0.5388,-1.1674 1.7062,-1.9756 3.0532,-1.9756 1.86335,0 3.3675,1.50415 3.3675,3.3675 0,1.86335 -1.50415,3.3675 -3.3675,3.3675 -1.347,0 -2.5144,-0.8082 -3.0532,-1.95315 l -2.94095,0 c 0.6286,2.71645 3.07565,4.7594 5.99415,4.7594 3.4124,0 6.17375,-2.76135 6.17375,-6.17375 0,-3.4124 -2.76135,-6.17375 -6.17375,-6.17375"
       id="path15"
       inkscape:connector-curvature="0"
       style="fill:#6f7c91;stroke:none" />
    <path
       d="m 20.212939,20.219462 0,1.07143 23.57146,0 0,-1.07143 -23.57146,0 z m 0,2.14286 0,1.07143 1.07143,0 0,-1.07143 -1.07143,0 z m 4.28572,3.21429 c -0.593572,0 -1.07143,0.477858 -1.07143,1.07143 0,0.593572 0.477858,1.07143 1.07143,1.07143 0.593572,0 1.07143,-0.477858 1.07143,-1.07143 0,-0.593572 -0.477858,-1.07143 -1.07143,-1.07143 z m 3.21429,0 0,1.07143 11.78573,0 0,-1.07143 -11.78573,0 z m 0,2.14286 0,1.07143 4.28572,0 0,-1.07143 -4.28572,0 z m -3.21429,6.42858 c -0.593572,0 -1.07143,0.477858 -1.07143,1.07143 0,0.593572 0.477858,1.07143 1.07143,1.07143 0.593572,0 1.07143,-0.477858 1.07143,-1.07143 0,-0.593572 -0.477858,-1.07143 -1.07143,-1.07143 z m 3.21429,0 0,1.07143 5.35715,0 0,-1.07143 -5.35715,0 z m 0,2.14286 0,1.07143 7.50001,0 0,-1.07143 -7.50001,0 z m 0,2.14286 0,1.07143 15.00002,0 0,-1.07143 -15.00002,0 z m -7.50001,2.14286 0,1.07143 1.07143,0 0,-1.07143 -1.07143,0 z m 0,2.14286 0,1.07143 23.57146,0 0,-1.07143 -23.57146,0 z"
       id="path17"
       inkscape:connector-curvature="0"
       style="fill:#3d434a;stroke:#3d434a;stroke-width:0.428572" />
  </g>
</svg>
