<?xml version="1.0" encoding="UTF-8" standalone="no"?>
<svg
   xmlns:dc="http://purl.org/dc/elements/1.1/"
   xmlns:cc="http://creativecommons.org/ns#"
   xmlns:rdf="http://www.w3.org/1999/02/22-rdf-syntax-ns#"
   xmlns:svg="http://www.w3.org/2000/svg"
   xmlns="http://www.w3.org/2000/svg"
   xmlns:sodipodi="http://sodipodi.sourceforge.net/DTD/sodipodi-0.dtd"
   xmlns:inkscape="http://www.inkscape.org/namespaces/inkscape"
   viewBox="0 0 48 48"
   id="svg2"
   version="1.1"
   inkscape:version="0.91 r13725"
   sodipodi:docname="akregator_empty.svg">
  <metadata
     id="metadata29">
    <rdf:RDF>
      <cc:Work
         rdf:about="">
        <dc:format>image/svg+xml</dc:format>
        <dc:type
           rdf:resource="http://purl.org/dc/dcmitype/StillImage" />
        <dc:title></dc:title>
      </cc:Work>
    </rdf:RDF>
  </metadata>
  <sodipodi:namedview
     pagecolor="#ffffff"
     bordercolor="#666666"
     borderopacity="1"
     objecttolerance="10"
     gridtolerance="10"
     guidetolerance="10"
     inkscape:pageopacity="0"
     inkscape:pageshadow="2"
     inkscape:window-width="1280"
     inkscape:window-height="694"
     id="namedview27"
     showgrid="false"
     inkscape:zoom="4.9166667"
     inkscape:cx="-9.1525424"
     inkscape:cy="24"
     inkscape:window-x="0"
     inkscape:window-y="0"
     inkscape:window-maximized="1"
     inkscape:current-layer="svg2" />
  <defs
     id="defs4">
    <linearGradient
       y1="545.8"
       x2="0"
       y2="517.8"
       gradientUnits="userSpaceOnUse"
       id="linearGradient6">
      <stop
         stop-color="#3889e9"
         id="stop8" />
      <stop
         offset="1"
         stop-color="#5ea5fb"
         id="stop10" />
    </linearGradient>
    <linearGradient
       id="0"
       gradientUnits="userSpaceOnUse"
       y1="545.14"
       x2="0"
       y2="518.14">
      <stop
         stop-color="#f15f19"
         id="stop13" />
      <stop
         offset="1"
         stop-color="#fbb521"
         id="stop15" />
    </linearGradient>
  </defs>
  <path
     style="fill:#d45500"
     inkscape:connector-curvature="0"
     id="path25"
     d="m 4.7377061,0.41242345 c 3.9594353,0 7.7712589,0.51027829 11.4351319,1.52998435 3.663874,1.0205545 7.093647,2.4640806 10.289321,4.3314267 3.195418,1.8673443 6.104469,4.1067995 8.726386,6.7175225 2.622173,2.611062 4.870977,5.507437 6.746328,8.689128 1.875351,3.181945 3.325068,6.597159 4.349999,10.24539 1.024932,3.64823 1.536546,7.443948 1.536546,11.386308 0,1.24501 -0.442747,2.308117 -1.328409,3.190251 -0.885664,0.882137 -1.953584,1.322654 -3.203932,1.322654 -1.250434,0 -2.318014,-0.440686 -3.204272,-1.322654 -0.885493,-0.88188 -1.328326,-1.945241 -1.328326,-3.190251 0,-3.112777 -0.408182,-6.11316 -1.224382,-9.001057 -0.8162,-2.887053 -1.963034,-5.585167 -3.438287,-8.092392 C 32.617705,23.711339 30.84706,21.428736 28.780172,19.371521 26.713541,17.313798 24.421661,15.550374 21.9036,14.080571 19.385538,12.610769 16.676792,11.46951 13.776508,10.656964 10.876226,9.8442511 7.8635758,9.4378936 4.7377061,9.4378936 c -1.250349,0 -2.3180126,-0.4409413 -3.204016,-1.3228217 C 0.64802609,7.2331893 0.20519478,6.1697442 0.20519478,4.9247341 c 0,-1.2450099 0.44283131,-2.3081157 1.32849532,-3.1903356 C 2.4192675,0.85260089 3.4872719,0.41165966 4.7376209,0.41165966 m 0,17.06717334 c 3.5770424,0 6.9378651,0.683194 10.0807581,2.04874 3.143236,1.366389 5.887395,3.216272 8.231798,5.550326 2.344487,2.334477 4.202729,5.066413 5.574127,8.195803 1.37225,3.130155 2.057523,6.475948 2.057523,10.038566 0,1.24501 -0.442746,2.308116 -1.328322,3.190251 -0.885664,0.881883 -1.953584,1.322654 -3.204274,1.322654 -1.250347,0 -2.318013,-0.440687 -3.20393,-1.322654 -0.885664,-0.88188 -1.328494,-1.945241 -1.328494,-3.190251 0,-2.317271 -0.442832,-4.495867 -1.328496,-6.536128 -0.885662,-2.040263 -2.092596,-3.821149 -3.6208,-5.343506 C 15.13931,29.910873 13.350617,28.709178 11.301096,27.82721 9.2520849,26.945497 7.0638058,26.504557 4.7369393,26.504557 c -1.2503463,0 -2.3180126,-0.440856 -3.204016,-1.322737 -0.885664,-0.881966 -1.32849396,-1.945412 -1.32849396,-3.190422 0,-1.24501 0.44282996,-2.308115 1.32849396,-3.190337 0.8856639,-0.88205 1.9536697,-1.322991 3.204016,-1.322991 m 8.3356537,23.706715 c 0,0.899257 -0.164969,1.729178 -0.494931,2.490102 -0.329952,0.761093 -0.781466,1.426573 -1.354543,1.997287 -0.573076,0.570375 -1.2503476,1.019708 -2.031816,1.34876 -0.7814658,0.32846 -1.6063491,0.492562 -2.4746461,0.492562 -0.9030296,0 -1.7365938,-0.164264 -2.5006952,-0.492562 C 3.4518603,46.692476 2.7832722,46.242464 2.2101948,45.672174 1.6371188,45.101544 1.1852645,44.435811 0.85565169,43.674887 0.52569808,42.913963 0.36072195,42.084042 0.36072195,41.184785 c 0,-0.864337 0.16496801,-1.685868 0.49492974,-2.464081 0.32995231,-0.778472 0.78146711,-1.45285 1.35454311,-2.023227 0.5730774,-0.570627 1.2416655,-1.020554 2.0057669,-1.348758 0.7641014,-0.32846 1.5976656,-0.492816 2.5006952,-0.492816 0.868297,0 1.6931803,0.164361 2.4746461,0.492816 0.7814684,0.328628 1.459081,0.778131 2.031816,1.348758 0.573077,0.570459 1.024932,1.24501 1.354543,2.023227 0.329954,0.777962 0.494931,1.599236 0.494931,2.464081 z" />
</svg>
