<?xml version="1.0" encoding="UTF-8" standalone="no"?>
<svg
   xmlns:dc="http://purl.org/dc/elements/1.1/"
   xmlns:cc="http://creativecommons.org/ns#"
   xmlns:rdf="http://www.w3.org/1999/02/22-rdf-syntax-ns#"
   xmlns:svg="http://www.w3.org/2000/svg"
   xmlns="http://www.w3.org/2000/svg"
   xmlns:sodipodi="http://sodipodi.sourceforge.net/DTD/sodipodi-0.dtd"
   xmlns:inkscape="http://www.inkscape.org/namespaces/inkscape"
   viewBox="0 0 48 48"
   id="svg2"
   version="1.1"
   inkscape:version="0.91 r13725"
   sodipodi:docname="audio-player.svg">
  <metadata
     id="metadata19">
    <rdf:RDF>
      <cc:Work
         rdf:about="">
        <dc:format>image/svg+xml</dc:format>
        <dc:type
           rdf:resource="http://purl.org/dc/dcmitype/StillImage" />
        <dc:title></dc:title>
      </cc:Work>
    </rdf:RDF>
  </metadata>
  <sodipodi:namedview
     pagecolor="#ffffff"
     bordercolor="#666666"
     borderopacity="1"
     objecttolerance="10"
     gridtolerance="10"
     guidetolerance="10"
     inkscape:pageopacity="0"
     inkscape:pageshadow="2"
     inkscape:window-width="1280"
     inkscape:window-height="694"
     id="namedview17"
     showgrid="false"
     inkscape:zoom="4.9166667"
     inkscape:cx="-42.305085"
     inkscape:cy="24"
     inkscape:window-x="0"
     inkscape:window-y="0"
     inkscape:window-maximized="1"
     inkscape:current-layer="svg2" />
  <defs
     id="defs4">
    <linearGradient
       id="0"
       y1="546.29"
       x2="0"
       y2="501.51"
       gradientUnits="userSpaceOnUse"
       gradientTransform="matrix(1.07196,0,0,1.07196,-413.17,-537.6)">
      <stop
         stop-color="#197cf1"
         id="stop7" />
      <stop
         offset="1"
         stop-color="#20bcfa"
         id="stop9" />
    </linearGradient>
  </defs>
  <path
     style="fill:#aa8800;stroke-width:1.31700003"
     inkscape:connector-curvature="0"
     id="path15"
     d="M 44.414906,7.7222647 C 40.824621,3.5666767 34.380581,1.1552232 25.279683,0.55425619 l -0.01452,0 c -0.6709,-0.0587683 -1.31506,-0.0890987 -1.915466,-0.0890987 -4.586912,0 -6.215545,1.79152761 -6.215545,3.32522801 l 0,26.6928195 C 15.330511,30.058546 13.393166,29.937216 11.48256,30.1249 8.1523706,30.452872 5.1673534,31.671869 3.0792994,33.560083 0.99124738,35.446402 0.05052841,37.774441 0.42973306,40.115749 1.132232,44.460915 6.3462902,47.736852 12.559402,47.736852 c 0.583392,0 1.174075,-0.02844 1.759895,-0.0872 6.439178,-0.633195 11.1136,-4.616264 11.1136,-9.4714 l 0,-26.194226 c 0.483728,-0.02465 0.967456,-0.03792 1.43903,-0.03792 5.678338,0 10.897257,1.852193 15.095239,5.355626 1.730728,1.444598 2.946126,2.881613 3.660778,3.829511 0.175016,0.233183 0.517762,0.358305 0.860502,0.310911 0.340312,-0.0474 0.61013,-0.255933 0.670901,-0.521345 0.687915,-2.949861 1.249427,-8.586065 -2.744369,-13.2042249" />
</svg>
