<?xml version="1.0" encoding="UTF-8" standalone="no"?>
<svg
   xmlns:dc="http://purl.org/dc/elements/1.1/"
   xmlns:cc="http://creativecommons.org/ns#"
   xmlns:rdf="http://www.w3.org/1999/02/22-rdf-syntax-ns#"
   xmlns:svg="http://www.w3.org/2000/svg"
   xmlns="http://www.w3.org/2000/svg"
   xmlns:sodipodi="http://sodipodi.sourceforge.net/DTD/sodipodi-0.dtd"
   xmlns:inkscape="http://www.inkscape.org/namespaces/inkscape"
   viewBox="0 0 48 48"
   id="svg2"
   version="1.1"
   inkscape:version="0.91 r13725"
   sodipodi:docname="blogger.svg">
  <metadata
     id="metadata19">
    <rdf:RDF>
      <cc:Work
         rdf:about="">
        <dc:format>image/svg+xml</dc:format>
        <dc:type
           rdf:resource="http://purl.org/dc/dcmitype/StillImage" />
        <dc:title></dc:title>
      </cc:Work>
    </rdf:RDF>
  </metadata>
  <sodipodi:namedview
     pagecolor="#ffffff"
     bordercolor="#666666"
     borderopacity="1"
     objecttolerance="10"
     gridtolerance="10"
     guidetolerance="10"
     inkscape:pageopacity="0"
     inkscape:pageshadow="2"
     inkscape:window-width="1280"
     inkscape:window-height="694"
     id="namedview17"
     showgrid="false"
     inkscape:zoom="4.9166667"
     inkscape:cx="-9.1525424"
     inkscape:cy="24"
     inkscape:window-x="0"
     inkscape:window-y="0"
     inkscape:window-maximized="1"
     inkscape:current-layer="svg2" />
  <defs
     id="defs4">
    <linearGradient
       id="0"
       gradientUnits="userSpaceOnUse"
       y1="653.96"
       x2="0"
       y2="301.3"
       gradientTransform="matrix(0.13837231,0,0,0.13837231,69.093696,-42.225572)">
      <stop
         stop-color="#f15f19"
         id="stop7" />
      <stop
         offset="1"
         stop-color="#fbb521"
         id="stop9" />
    </linearGradient>
  </defs>
  <path
     style="fill:#ff6600;fill-opacity:0.85"
     inkscape:connector-curvature="0"
     id="path15"
     d="m 23.017629,0.24844213 c -1.037544,0 -2.325924,0 -3.956349,0 -6.077046,0.005774 -6.077046,0.005774 -7.490843,0.43501241 C 8.6915364,1.4618969 5.653014,3.4766897 3.7831544,5.6746433 1.7251685,8.1015509 0.20305683,10.854719 0.20305683,14.168823 c 0,1.568331 0,11.058459 0,17.01125 0.3249446,12.850022 7.78728277,16.519004 13.88143017,16.839538 1.299781,0 17.84348,0 19.827358,0 7.582054,-0.618175 13.687603,-7.710011 13.88143,-12.815678 l 0,-7.12618 c 0.0228,-5.901278 0.0228,-7.938967 -0.64419,-8.73458 -0.695496,-0.829957 -1.22567,-1.219177 -3.329262,-1.219177 -2.052288,0 -2.787689,0.09159 -3.460382,-0.417842 C 39.504321,17.05936 39.293392,16.4927 39.150872,14.649624 38.689109,8.0557617 34.60164,2.772656 28.507493,0.85516953 27.013885,0.38009183 26.11316,0.23127243 23.000526,0.20837683 m -7.724572,11.98572017 8.727913,0 c 1.750144,0 3.17534,1.413788 3.17534,3.188179 0,1.768666 -1.419495,2.781786 -3.17534,2.781786 l -8.727913,0 c -1.761546,0 -3.175342,-1.018843 -3.175342,-2.781786 0,-1.768668 1.408095,-3.188179 3.175342,-3.188179 m 0,17.91562 17.450125,0 c 1.761546,0 3.175341,1.024567 3.175341,2.781785 0,1.768666 -1.408094,3.188179 -3.175341,3.188179 l -17.450125,0 c -1.761546,0 -3.175342,-1.413788 -3.175342,-3.188179 0,-1.757218 1.408095,-2.781785 3.175342,-2.781785" />
</svg>
