<?xml version="1.0" encoding="UTF-8" standalone="no"?>
<svg
   xmlns:dc="http://purl.org/dc/elements/1.1/"
   xmlns:cc="http://creativecommons.org/ns#"
   xmlns:rdf="http://www.w3.org/1999/02/22-rdf-syntax-ns#"
   xmlns:svg="http://www.w3.org/2000/svg"
   xmlns="http://www.w3.org/2000/svg"
   xmlns:sodipodi="http://sodipodi.sourceforge.net/DTD/sodipodi-0.dtd"
   xmlns:inkscape="http://www.inkscape.org/namespaces/inkscape"
   viewBox="0 0 48 48"
   id="svg2"
   version="1.1"
   inkscape:version="0.91 r13725"
   sodipodi:docname="eric.svg">
  <metadata
     id="metadata23">
    <rdf:RDF>
      <cc:Work
         rdf:about="">
        <dc:format>image/svg+xml</dc:format>
        <dc:type
           rdf:resource="http://purl.org/dc/dcmitype/StillImage" />
        <dc:title></dc:title>
      </cc:Work>
    </rdf:RDF>
  </metadata>
  <sodipodi:namedview
     pagecolor="#ffffff"
     bordercolor="#666666"
     borderopacity="1"
     objecttolerance="10"
     gridtolerance="10"
     guidetolerance="10"
     inkscape:pageopacity="0"
     inkscape:pageshadow="2"
     inkscape:window-width="1280"
     inkscape:window-height="694"
     id="namedview21"
     showgrid="false"
     inkscape:zoom="4.9166667"
     inkscape:cx="-9.1525422"
     inkscape:cy="24"
     inkscape:window-x="0"
     inkscape:window-y="0"
     inkscape:window-maximized="1"
     inkscape:current-layer="svg2" />
  <defs
     id="defs4">
    <linearGradient
       id="0"
       gradientUnits="userSpaceOnUse"
       y1="20.995"
       x2="0"
       y2="-25.291"
       gradientTransform="matrix(0.99999,0,0,0.99999,-38.37,25.882)">
      <stop
         stop-color="#566069"
         id="stop7" />
      <stop
         offset="1"
         stop-color="#6c7884"
         id="stop9" />
    </linearGradient>
  </defs>
  <g
     style="fill:#917c6f;fill-opacity:0.85"
     id="g15"
     transform="matrix(2.1606891,0,0,2.1234494,-207.04504,-112.49395)">
    <path
       inkscape:connector-curvature="0"
       id="path17"
       d="m 106.73,53.19 c -0.903,0.004 -1.765,0.082 -2.524,0.218 -2.235,0.399 -2.641,1.233 -2.641,2.772 l 0,2.033 5.282,0 0,0.678 -5.282,0 -1.982,0 c -1.535,0 -2.879,0.932 -3.3,2.704 -0.485,2.031 -0.506,3.299 0,5.42 0.375,1.579 1.272,2.704 2.807,2.704 l 1.816,0 0,-2.437 c 0,-1.76 1.508,-3.313 3.3,-3.313 l 5.276,0 c 1.469,0 2.641,-1.221 2.641,-2.71 l 0,-5.078 c 0,-1.445 -1.207,-2.531 -2.641,-2.772 -0.907,-0.153 -1.849,-0.222 -2.752,-0.218"
       style="fill:#917c6f" />
    <path
       inkscape:connector-curvature="0"
       id="path19"
       d="m 112.82,58.846 0,2.351 c 0,1.823 -1.545,3.356 -3.306,3.356 l -5.286,0 c -1.448,0 -2.646,1.24 -2.646,2.69 l 0,5.04 c 0,1.435 1.247,2.278 2.646,2.69 1.675,0.493 3.282,0.582 5.286,0 1.332,-0.386 2.646,-1.162 2.646,-2.69 l 0,-2.02 -5.286,0 0,-0.672 5.286,0 2.646,0 c 1.538,0 2.111,-1.073 2.646,-2.684 0.553,-1.658 0.529,-3.253 0,-5.38 -0.38,-1.532 -1.106,-2.684 -2.646,-2.684 z"
       style="fill:#917c6f" />
  </g>
</svg>
