<?xml version="1.0" encoding="UTF-8" standalone="no"?>
<!-- Generator: Adobe Illustrator 18.0.0, SVG Export Plug-In . SVG Version: 6.00 Build 0)  -->

<svg
   xmlns:dc="http://purl.org/dc/elements/1.1/"
   xmlns:cc="http://creativecommons.org/ns#"
   xmlns:rdf="http://www.w3.org/1999/02/22-rdf-syntax-ns#"
   xmlns:svg="http://www.w3.org/2000/svg"
   xmlns="http://www.w3.org/2000/svg"
   xmlns:sodipodi="http://sodipodi.sourceforge.net/DTD/sodipodi-0.dtd"
   xmlns:inkscape="http://www.inkscape.org/namespaces/inkscape"
   version="1.1"
   id="Capa_1"
   x="0px"
   y="0px"
   viewBox="0 0 369 369"
   style="enable-background:new 0 0 369 369;"
   xml:space="preserve"
   inkscape:version="0.91 r13725"
   sodipodi:docname="fatrat.svg"><metadata
     id="metadata51"><rdf:RDF><cc:Work
         rdf:about=""><dc:format>image/svg+xml</dc:format><dc:type
           rdf:resource="http://purl.org/dc/dcmitype/StillImage" /><dc:title></dc:title></cc:Work></rdf:RDF></metadata><defs
     id="defs49" /><sodipodi:namedview
     pagecolor="#ffffff"
     bordercolor="#666666"
     borderopacity="1"
     objecttolerance="10"
     gridtolerance="10"
     guidetolerance="10"
     inkscape:pageopacity="0"
     inkscape:pageshadow="2"
     inkscape:window-width="1280"
     inkscape:window-height="694"
     id="namedview47"
     showgrid="false"
     inkscape:zoom="0.6395664"
     inkscape:cx="-325.22034"
     inkscape:cy="184.5"
     inkscape:window-x="0"
     inkscape:window-y="0"
     inkscape:window-maximized="1"
     inkscape:current-layer="Capa_1" /><path
     inkscape:connector-curvature="0"
     id="path7"
     d="m 346.75,156.6991 -8.07,-4.48619 -122.17,-67.876875 c 6.233,-21.127719 13.006,-56.376926 -4.371,-73.160054 -22.616,-21.844509 -71.5,-8.1891847 -59.605,51.568678 -10.215,-0.04762 -20.46,1.521296 -30.485,4.75687 L 12.009,103.02768 C 4.26,127.41353 0,154.01741 0,181.86189 c 0,45.78926 11.52,88.2076 31.12,122.96934 5.47,9.68667 11.57,18.78437 18.23,27.19286 8.81,11.14029 18.6,21.05253 29.18,29.54873 l 86.803,-21.17283 -2.288,19.66406 c -0.553,4.75311 4.454,7.10022 6.525,3.05638 l 15.085,-29.44598 c 4.614,-9.00747 -0.547,-20.84326 -9.088,-20.84326 l -63.697,0 50.771,-74.22646 136.159,0 c 12.525,0 24.475,-4.08394 34.917,-11.40346 l -13.205,0 c 0,-8.76687 5.671,-15.87335 12.667,-15.87335 l 17.031,0 c 3.374,-4.35211 6.427,-9.12778 9.06,-14.31447 3.02,-5.95236 5.51,-12.41849 7.38,-19.31069 L 369,169.05619 346.75,156.6991 Z"
     style="fill:#999999" /><path
     inkscape:connector-curvature="0"
     id="path9"
     d="m 261.038,144.41971 c 5.059,4.68043 6.072,13.61773 2.261,19.96106 -3.811,6.34333 -11.002,7.69044 -16.061,3.01001 -5.059,-4.68043 -6.072,-13.61773 -2.261,-19.96106 3.81,-6.34333 11.001,-7.69044 16.061,-3.01001 z"
     style="fill:#333333" /><path
     inkscape:connector-curvature="0"
     id="path13"
     d="m 190,79.748338 14,5.848343 c 0,0 19.333,-44.276733 -2,-69.339271 -21.333,-25.0625378 -38,45.112569 -12,63.490928 z"
     style="fill:#cccccc" /><path
     inkscape:connector-curvature="0"
     id="path15"
     d="m 369,169.05493 -2.35,8.64658 c -1.87,6.8922 -4.36,13.35833 -7.38,19.31068 -8.6,-4.69922 -14.61,-15.45105 -14.61,-27.95726 0,-4.39847 0.74,-8.58392 2.09,-12.35583 L 369,169.05493 Z"
     style="fill:#333333" /><g
     id="g17" /><g
     id="g19" /><g
     id="g21" /><g
     id="g23" /><g
     id="g25" /><g
     id="g27" /><g
     id="g29" /><g
     id="g31" /><g
     id="g33" /><g
     id="g35" /><g
     id="g37" /><g
     id="g39" /><g
     id="g41" /><g
     id="g43" /><g
     id="g45" /></svg>