<?xml version="1.0" encoding="UTF-8" standalone="no"?>
<svg
   xmlns:dc="http://purl.org/dc/elements/1.1/"
   xmlns:cc="http://creativecommons.org/ns#"
   xmlns:rdf="http://www.w3.org/1999/02/22-rdf-syntax-ns#"
   xmlns:svg="http://www.w3.org/2000/svg"
   xmlns="http://www.w3.org/2000/svg"
   xmlns:sodipodi="http://sodipodi.sourceforge.net/DTD/sodipodi-0.dtd"
   xmlns:inkscape="http://www.inkscape.org/namespaces/inkscape"
   viewBox="0 0 48 48"
   id="svg2"
   version="1.1"
   inkscape:version="0.91 r13725"
   sodipodi:docname="fifteenpuzzle.svg">
  <metadata
     id="metadata19">
    <rdf:RDF>
      <cc:Work
         rdf:about="">
        <dc:format>image/svg+xml</dc:format>
        <dc:type
           rdf:resource="http://purl.org/dc/dcmitype/StillImage" />
        <dc:title></dc:title>
      </cc:Work>
    </rdf:RDF>
  </metadata>
  <sodipodi:namedview
     pagecolor="#ffffff"
     bordercolor="#666666"
     borderopacity="1"
     objecttolerance="10"
     gridtolerance="10"
     guidetolerance="10"
     inkscape:pageopacity="0"
     inkscape:pageshadow="2"
     inkscape:window-width="1280"
     inkscape:window-height="694"
     id="namedview17"
     showgrid="false"
     inkscape:zoom="4.9166667"
     inkscape:cx="24"
     inkscape:cy="24"
     inkscape:window-x="0"
     inkscape:window-y="0"
     inkscape:window-maximized="1"
     inkscape:current-layer="svg2" />
  <defs
     id="defs4">
    <linearGradient
       id="0"
       x1="-123.97"
       y1="73.5"
       x2="-125.19"
       y2="-26.05"
       gradientUnits="userSpaceOnUse"
       gradientTransform="matrix(1.03459 0 0 1 140.3 142.57)">
      <stop
         stop-color="#5dae33"
         id="stop7" />
      <stop
         offset="1"
         stop-color="#9be058"
         id="stop9" />
    </linearGradient>
  </defs>
  <g
     id="g13"
     style="fill:#8dd35f;fill-opacity:0.84899998"
     transform="matrix(2.6744242,0,0,1.4766952,-38.734653,-11.889118)">
    <path
       d="m -81.85,88.9 q -0.76,0.8 -1.92,0.8 -1.16,0 -1.96,-0.8 -0.76,-0.8 -0.76,-1.92 0,-1.12 0.76,-1.92 0.8,-0.8 1.96,-0.8 1.16,0 1.92,0.8 0.8,0.8 0.8,1.92 0,1.12 -0.8,1.92 m -0.04,-8.32 -3.76,0 0,-1.88 q 0,-1.8 0.76,-3.08 0.76,-1.32 2.68,-3.08 1.08,-1 1.52,-1.48 0.48,-0.52 0.92,-1.4 0.48,-0.92 0.48,-1.88 0,-1.84 -1.2,-2.96 -1.16,-1.12 -3.24,-1.12 -3.44,0 -4.72,3.84 l -3.44,-1.44 q 0.84,-2.28 2.88,-4.08 2.08,-1.84 5.28,-1.84 3.64,0 5.92,2.16 2.28,2.12 2.28,5.44 0,1.44 -0.76,2.92 -0.76,1.48 -1.36,2.12 -0.56,0.6 -1.6,1.56 -0.12,0.12 -0.2,0.2 -2.44,2.2 -2.44,4.4 l 0,1.6"
       transform="matrix(1.08401,0,0,1.08401,114.24,-56.935)"
       id="path15"
       style="fill:#8dd35f;fill-opacity:0.84899998"
       inkscape:connector-curvature="0" />
  </g>
</svg>
