<?xml version="1.0" encoding="UTF-8" standalone="no"?>
<!-- Created with Inkscape (http://www.inkscape.org/) -->

<svg
   xmlns:dc="http://purl.org/dc/elements/1.1/"
   xmlns:cc="http://creativecommons.org/ns#"
   xmlns:rdf="http://www.w3.org/1999/02/22-rdf-syntax-ns#"
   xmlns:svg="http://www.w3.org/2000/svg"
   xmlns="http://www.w3.org/2000/svg"
   xmlns:sodipodi="http://sodipodi.sourceforge.net/DTD/sodipodi-0.dtd"
   xmlns:inkscape="http://www.inkscape.org/namespaces/inkscape"
   id="svg2"
   version="1.1"
   inkscape:version="0.91 r13725"
   width="512"
   height="512"
   sodipodi:docname="kipi-dropbox.svg">
  <metadata
     id="metadata8">
    <rdf:RDF>
      <cc:Work
         rdf:about="">
        <dc:format>image/svg+xml</dc:format>
        <dc:type
           rdf:resource="http://purl.org/dc/dcmitype/StillImage" />
        <dc:title></dc:title>
      </cc:Work>
    </rdf:RDF>
  </metadata>
  <defs
     id="defs6" />
  <sodipodi:namedview
     pagecolor="#ffffff"
     bordercolor="#666666"
     borderopacity="1"
     objecttolerance="10"
     gridtolerance="10"
     guidetolerance="10"
     inkscape:pageopacity="0"
     inkscape:pageshadow="2"
     inkscape:window-width="1280"
     inkscape:window-height="694"
     id="namedview4"
     showgrid="false"
     inkscape:zoom="0.4609375"
     inkscape:cx="-451.25424"
     inkscape:cy="256"
     inkscape:window-x="0"
     inkscape:window-y="0"
     inkscape:window-maximized="1"
     inkscape:current-layer="svg2" />
  <path
     inkscape:connector-curvature="0"
     id="path2984"
     d="m 181.7051,465.2228 -74.8598,-48.86076 -0.29012,-14.81423 c -0.15955,-8.14781 0.1063,-14.81421 0.59077,-14.81421 0.48448,0 10.18386,6.29033 21.55417,13.9785 11.37032,7.68817 21.40315,13.9785 22.29519,13.9785 0.89203,0 25.01012,-21.1187 53.59574,-46.93045 28.58561,-25.81176 52.20778,-46.93045 52.49371,-46.93045 0.28592,0 23.9081,21.11869 52.4937,46.93045 28.58563,25.81175 52.7037,46.93045 53.59574,46.93045 0.89204,0 10.92488,-6.29033 22.29518,-13.9785 11.37032,-7.68817 21.0697,-13.9785 21.55418,-13.9785 0.48448,0 0.75032,6.66221 0.59076,14.80492 l -0.2901,14.8049 -74.8598,48.87075 c -41.1729,26.87891 -75.09374,48.87043 -75.37966,48.87006 -0.28593,-3.7e-4 -34.20677,-21.98802 -75.37966,-48.86143 z M 75.949965,339.37739 C 35.511867,310.99105 2.4097985,287.45283 2.3898152,287.07023 2.3415762,286.14627 102.85924,199.42177 103.97843,199.42177 c 1.29758,0 148.92248,98.28602 148.93591,99.15887 0.018,1.16858 -101.22139,92.63986 -102.39697,92.51718 -0.57396,-0.0599 -34.1293,-23.33408 -74.567405,-51.72043 z m 235.979995,5.90127 c -27.87749,-25.27956 -50.68114,-46.29705 -50.67478,-46.70556 0.0135,-0.86792 147.64567,-99.15133 148.9359,-99.15133 1.11837,0 101.63649,86.7238 101.58987,87.64846 -0.0391,0.77524 -146.33199,103.40478 -148.06723,103.87429 -0.6036,0.16333 -23.90629,-20.38632 -51.78376,-45.66586 z M 52.649302,149.5618 C 24.700677,125.52162 1.6973724,105.45616 1.5308511,104.97193 1.1911854,103.98423 144.86124,2.109847 147.73286,1.3021584 c 1.26651,-0.35621687 17.73606,13.7033986 53.25337,45.4609746 28.28088,25.287183 51.55554,46.389126 51.72146,46.893201 0.26151,0.794515 -147.25196,99.614896 -148.69946,99.614896 -0.29879,0 -23.410303,-19.66924 -51.358928,-43.70943 z M 335.58357,144.09093 C 294.98253,117.07336 261.7635,94.471068 261.7635,93.863585 c 0,-0.607483 23.13889,-21.798356 51.41979,-47.090824 C 348.70275,15.006597 365.17007,0.94591916 366.43664,1.3021584 369.30828,2.109847 512.97832,103.98423 512.63865,104.97193 c -0.38575,1.12173 -101.71152,88.30914 -102.58456,88.27056 -0.35775,-0.0158 -33.86947,-22.13402 -74.47052,-49.15156 z"
     style="fill:#3176e2" />
</svg>
