<?xml version="1.0" encoding="UTF-8" standalone="no"?>
<svg
   xmlns:dc="http://purl.org/dc/elements/1.1/"
   xmlns:cc="http://creativecommons.org/ns#"
   xmlns:rdf="http://www.w3.org/1999/02/22-rdf-syntax-ns#"
   xmlns:svg="http://www.w3.org/2000/svg"
   xmlns="http://www.w3.org/2000/svg"
   xmlns:sodipodi="http://sodipodi.sourceforge.net/DTD/sodipodi-0.dtd"
   xmlns:inkscape="http://www.inkscape.org/namespaces/inkscape"
   viewBox="0 0 48 48"
   id="svg2"
   version="1.1"
   inkscape:version="0.91 r13725"
   sodipodi:docname="kipi-dlna.svg">
  <metadata
     id="metadata29">
    <rdf:RDF>
      <cc:Work
         rdf:about="">
        <dc:format>image/svg+xml</dc:format>
        <dc:type
           rdf:resource="http://purl.org/dc/dcmitype/StillImage" />
        <dc:title></dc:title>
      </cc:Work>
    </rdf:RDF>
  </metadata>
  <sodipodi:namedview
     pagecolor="#ffffff"
     bordercolor="#666666"
     borderopacity="1"
     objecttolerance="10"
     gridtolerance="10"
     guidetolerance="10"
     inkscape:pageopacity="0"
     inkscape:pageshadow="2"
     inkscape:window-width="1280"
     inkscape:window-height="694"
     id="namedview27"
     showgrid="false"
     inkscape:zoom="4.9166667"
     inkscape:cx="-9.1525424"
     inkscape:cy="24"
     inkscape:window-x="0"
     inkscape:window-y="0"
     inkscape:window-maximized="1"
     inkscape:current-layer="svg2" />
  <defs
     id="defs4">
    <filter
       color-interpolation-filters="sRGB"
       id="filter6">
      <feGaussianBlur
         stdDeviation="1.71"
         id="feGaussianBlur8" />
    </filter>
    <linearGradient
       gradientTransform="scale(1.0059.99417)"
       gradientUnits="userSpaceOnUse"
       y2="7.02"
       x2="0"
       y1="92.54"
       id="linearGradient10">
      <stop
         id="stop12" />
      <stop
         offset="1"
         stop-opacity=".588"
         id="stop14" />
    </linearGradient>
    <linearGradient
       gradientUnits="userSpaceOnUse"
       y2="-26.05"
       x2="-125.19"
       y1="73.5"
       x1="-123.97"
       id="0"
       gradientTransform="matrix(0.49432232,0,0,0.4778,86.64372,13.1)">
      <stop
         stop-color="#2fae61"
         id="stop17" />
      <stop
         offset="1"
         stop-color="#4bdf88"
         id="stop19" />
    </linearGradient>
  </defs>
  <path
     style="color:#000000;isolation:auto;mix-blend-mode:normal;color-interpolation:sRGB;color-interpolation-filters:linearRGB;solid-color:#000000;solid-opacity:1;fill:#5fd38d;fill-opacity:0.84600004;fill-rule:evenodd;color-rendering:auto;image-rendering:auto;shape-rendering:auto"
     inkscape:connector-curvature="0"
     id="path25"
     isolation="auto"
     mix-blend-mode="normal"
     d="m 0.31717386,37.459631 a 7.2151192,10.490841 0 0 0 7.21997154,10.483784 7.2151192,10.490841 0 0 0 7.0527336,-8.32837 l 18.081455,-0.01731 c 0.705966,0 1.273119,-0.826565 1.273119,-1.853046 l 0,-0.634342 c 0,-1.02648 -0.568475,-1.851124 -1.274441,-1.851124 l -18.086743,0.01731 A 7.2151192,10.490841 0 0 0 7.5281216,26.961957 7.2151192,10.490841 0 0 0 0.31785598,37.459854 M 0.30560075,10.961272 a 7.2151192,10.490841 0 0 0 7.21997075,10.483783 7.2151192,10.490841 0 0 0 7.0527355,-8.32837 l 18.081455,-0.01731 c 0.705966,0 1.273119,-0.826567 1.273119,-1.853047 l 0,-0.634342 c 0,-1.0264799 -0.568474,-1.8511241 -1.274441,-1.8511241 l -18.086743,0.0173 A 7.2151192,10.490841 0 0 0 7.5165488,0.46359732 7.2151192,10.490841 0 0 0 0.30628287,10.961493 M 14.272247,24.655585 c 0,1.02648 0.568474,1.851123 1.274441,1.851123 l 18.081455,-0.01731 a 7.2151192,10.490841 0 0 0 7.060431,8.314566 7.2151192,10.490841 0 0 0 7.210267,-10.497891 7.2151192,10.490841 0 0 0 -7.219971,-10.483785 7.2151192,10.490841 0 0 0 -7.04745,8.328361 l -18.086743,0.01731 c -0.705966,0 -1.273119,0.826567 -1.273119,1.853048 l 0,0.634341" />
</svg>
