<?xml version="1.0" encoding="UTF-8" standalone="no"?>
<svg
   xmlns:dc="http://purl.org/dc/elements/1.1/"
   xmlns:cc="http://creativecommons.org/ns#"
   xmlns:rdf="http://www.w3.org/1999/02/22-rdf-syntax-ns#"
   xmlns:svg="http://www.w3.org/2000/svg"
   xmlns="http://www.w3.org/2000/svg"
   xmlns:sodipodi="http://sodipodi.sourceforge.net/DTD/sodipodi-0.dtd"
   xmlns:inkscape="http://www.inkscape.org/namespaces/inkscape"
   viewBox="0 0 48 48"
   id="svg2"
   version="1.1"
   inkscape:version="0.91 r13725"
   sodipodi:docname="kmplot.svg">
  <metadata
     id="metadata22">
    <rdf:RDF>
      <cc:Work
         rdf:about="">
        <dc:format>image/svg+xml</dc:format>
        <dc:type
           rdf:resource="http://purl.org/dc/dcmitype/StillImage" />
        <dc:title></dc:title>
      </cc:Work>
    </rdf:RDF>
  </metadata>
  <sodipodi:namedview
     pagecolor="#ffffff"
     bordercolor="#666666"
     borderopacity="1"
     objecttolerance="10"
     gridtolerance="10"
     guidetolerance="10"
     inkscape:pageopacity="0"
     inkscape:pageshadow="2"
     inkscape:window-width="1280"
     inkscape:window-height="694"
     id="namedview20"
     showgrid="false"
     inkscape:zoom="4.9166667"
     inkscape:cx="-9.1525424"
     inkscape:cy="24"
     inkscape:window-x="0"
     inkscape:window-y="0"
     inkscape:window-maximized="1"
     inkscape:current-layer="svg2" />
  <defs
     id="defs4">
    <linearGradient
       id="0"
       gradientUnits="userSpaceOnUse"
       gradientTransform="matrix(.49433 0 0 .4778 86.64 13.1)"
       x1="-123.97"
       y1="73.5"
       x2="-125.19"
       y2="-26.05">
      <stop
         stop-color="#2e3e46"
         id="stop7" />
      <stop
         stop-color="#435a64"
         offset="1"
         id="stop9" />
    </linearGradient>
    <linearGradient
       id="1"
       x1="398.98"
       y1="546.43"
       x2="398.21"
       y2="525.81"
       gradientUnits="userSpaceOnUse">
      <stop
         stop-color="#0973d9"
         id="stop12" />
      <stop
         stop-color="#0cbffe"
         offset="1"
         id="stop14" />
    </linearGradient>
  </defs>
  <path
     d="m 37.225951,38.649595 c -6.744639,-5.565241 -1.985102,-28.460457 -1.985102,-28.460457 0,0 7.380816,0 8.24083,0 0.860017,0 4.232336,-0.5720691 4.232336,-4.8346085 0,-5.24500666 -4.120416,-4.92166304 -4.120416,-4.92166304 0,0 -22.590126,0 -30.347935,0 -4.9804309,0 -9.4778397,6.01916584 -12.0578854,10.32523254 -1.37249045,2.300714 -0.5978876,2.944292 1.7612634,1.859226 8.270285,-3.8241605 10.599983,-2.446841 10.599983,-2.446841 0.58316,2.944292 0.777549,16.229363 -1.345983,21.47437 -2.150037,4.937207 -6.120245,11.189554 -0.29158,14.867587 4.550424,2.723548 9.324686,-2.869674 8.865227,-12.392766 -0.220896,-5.039808 -0.597888,-23.933646 -0.597888,-23.933646 l 7.601709,0 c -0.23562,2.944292 -1.522698,17.970444 -0.179659,26.877939 1.401942,14.867588 16.705501,11.982369 19.562401,3.559889 0.706861,-2.328696 0.541928,-4.116413 0.01477,-5.465751 -0.971934,-2.502804 -2.594771,-2.636494 -2.415111,-1.464373 0.111915,0.746176 0.04124,1.479918 -0.07069,2.142152 -0.332813,2.036442 -4.273567,5.22946 -7.466228,2.81371"
     id="path18"
     style="opacity:0.9;fill:#37abc8"
     inkscape:connector-curvature="0" />
</svg>
