<?xml version="1.0" encoding="UTF-8" standalone="no"?>
<svg
   xmlns:dc="http://purl.org/dc/elements/1.1/"
   xmlns:cc="http://creativecommons.org/ns#"
   xmlns:rdf="http://www.w3.org/1999/02/22-rdf-syntax-ns#"
   xmlns:svg="http://www.w3.org/2000/svg"
   xmlns="http://www.w3.org/2000/svg"
   xmlns:xlink="http://www.w3.org/1999/xlink"
   xmlns:sodipodi="http://sodipodi.sourceforge.net/DTD/sodipodi-0.dtd"
   xmlns:inkscape="http://www.inkscape.org/namespaces/inkscape"
   viewBox="0 0 48 48"
   id="svg2"
   version="1.1"
   inkscape:version="0.91 r13725"
   sodipodi:docname="kodi.svg">
  <metadata
     id="metadata32">
    <rdf:RDF>
      <cc:Work
         rdf:about="">
        <dc:format>image/svg+xml</dc:format>
        <dc:type
           rdf:resource="http://purl.org/dc/dcmitype/StillImage" />
        <dc:title></dc:title>
      </cc:Work>
    </rdf:RDF>
  </metadata>
  <sodipodi:namedview
     pagecolor="#ffffff"
     bordercolor="#666666"
     borderopacity="1"
     objecttolerance="10"
     gridtolerance="10"
     guidetolerance="10"
     inkscape:pageopacity="0"
     inkscape:pageshadow="2"
     inkscape:window-width="1280"
     inkscape:window-height="694"
     id="namedview30"
     showgrid="false"
     inkscape:zoom="4.9166667"
     inkscape:cx="-9.1525424"
     inkscape:cy="24"
     inkscape:window-x="0"
     inkscape:window-y="0"
     inkscape:window-maximized="1"
     inkscape:current-layer="svg2" />
  <defs
     id="defs4">
    <clipPath
       id="clipPath6">
      <path
         fill="#1890d0"
         transform="matrix(15.33333 0 0 11.5 415-125.5)"
         d="m-24 13c0 1.105-.672 2-1.5 2-.828 0-1.5-.895-1.5-2 0-1.105.672-2 1.5-2 .828 0 1.5.895 1.5 2"
         id="path8" />
    </clipPath>
    <clipPath
       id="clipPath10">
      <path
         fill="#1890d0"
         transform="matrix(15.33333 0 0 11.5 415-125.5)"
         d="m-24 13c0 1.105-.672 2-1.5 2-.828 0-1.5-.895-1.5-2 0-1.105.672-2 1.5-2 .828 0 1.5.895 1.5 2"
         id="path12" />
    </clipPath>
    <linearGradient
       xlink:href="#0"
       id="3"
       x1="96.56"
       y1="42.796"
       x2="96.79"
       y2="11.206"
       gradientUnits="userSpaceOnUse" />
    <linearGradient
       id="0">
      <stop
         stop-color="#1584d8"
         id="stop16" />
      <stop
         offset="1"
         stop-color="#1cb2ff"
         id="stop18" />
    </linearGradient>
    <linearGradient
       id="1"
       x1="347.75"
       y1="540.87"
       x2="347.97"
       y2="501.65"
       gradientUnits="userSpaceOnUse"
       gradientTransform="matrix(1.20192,0,0,1.20192,-434.50102,-600.68644)">
      <stop
         stop-color="#2e3e46"
         id="stop21" />
      <stop
         offset="1"
         stop-color="#435a64"
         id="stop23" />
    </linearGradient>
    <linearGradient
       xlink:href="#0"
       id="2"
       x1="353.1"
       y1="543.11"
       x2="352.75"
       y2="500.26"
       gradientUnits="userSpaceOnUse"
       gradientTransform="matrix(1.20192,0,0,1.20192,-434.50102,-600.68644)" />
  </defs>
  <path
     d="m 24.21339,0.47457627 -9.048467,9.04846603 0,18.0969317 L 33.261856,9.5230423 24.21339,0.47457627 M 38.690347,14.951534 29.641882,24 38.690347,33.048466 47.738814,24 38.690347,14.951534 M 7.926445,16.761522 0.6879661,24 l 7.2384789,7.238479 0,-14.476957 M 24.2178,29.428492 15.169335,38.476958 24.2178,47.525424 33.266267,38.476958 24.2178,29.428492"
     id="path28"
     style="fill:#0066ff"
     inkscape:connector-curvature="0" />
</svg>
