<?xml version="1.0" encoding="UTF-8" standalone="no"?>
<svg
   xmlns:dc="http://purl.org/dc/elements/1.1/"
   xmlns:cc="http://creativecommons.org/ns#"
   xmlns:rdf="http://www.w3.org/1999/02/22-rdf-syntax-ns#"
   xmlns:svg="http://www.w3.org/2000/svg"
   xmlns="http://www.w3.org/2000/svg"
   xmlns:xlink="http://www.w3.org/1999/xlink"
   xmlns:sodipodi="http://sodipodi.sourceforge.net/DTD/sodipodi-0.dtd"
   xmlns:inkscape="http://www.inkscape.org/namespaces/inkscape"
   viewBox="0 0 48 48"
   id="svg2"
   version="1.1"
   inkscape:version="0.91 r13725"
   sodipodi:docname="kraft.svg">
  <metadata
     id="metadata21">
    <rdf:RDF>
      <cc:Work
         rdf:about="">
        <dc:format>image/svg+xml</dc:format>
        <dc:type
           rdf:resource="http://purl.org/dc/dcmitype/StillImage" />
        <dc:title></dc:title>
      </cc:Work>
    </rdf:RDF>
  </metadata>
  <sodipodi:namedview
     pagecolor="#ffffff"
     bordercolor="#666666"
     borderopacity="1"
     objecttolerance="10"
     gridtolerance="10"
     guidetolerance="10"
     inkscape:pageopacity="0"
     inkscape:pageshadow="2"
     inkscape:window-width="1280"
     inkscape:window-height="694"
     id="namedview19"
     showgrid="false"
     inkscape:zoom="4.9166667"
     inkscape:cx="-6.4067797"
     inkscape:cy="24"
     inkscape:window-x="0"
     inkscape:window-y="0"
     inkscape:window-maximized="1"
     inkscape:current-layer="svg2" />
  <defs
     id="defs4">
    <linearGradient
       xlink:href="#1"
       id="0"
       gradientUnits="userSpaceOnUse"
       gradientTransform="matrix(.49433 0 0 .4778 86.64 13.1)"
       x1="-123.97"
       y1="73.5"
       x2="-125.19"
       y2="-26.05" />
    <linearGradient
       id="1"
       x1="-123.97"
       y1="73.5"
       x2="-125.19"
       y2="-26.05"
       gradientUnits="userSpaceOnUse"
       gradientTransform="matrix(.49433 0 0 .4778 86.64 13.1)">
      <stop
         stop-color="#2b65bd"
         id="stop8" />
      <stop
         stop-color="#64a3dc"
         offset="1"
         id="stop10" />
    </linearGradient>
    <linearGradient
       xlink:href="#1"
       id="2"
       x1="22.62"
       y1="47.47"
       x2="23.803"
       y2=".53"
       gradientUnits="userSpaceOnUse" />
  </defs>
  <path
     d="m 46.774439,16.728351 c 0.666846,0.490505 1.154199,0.140144 1.082401,-0.778439 L 46.741804,1.5647321 C 46.670006,0.64614959 46.008599,0.15946648 45.271043,0.48307253 L 33.720353,5.5473799 c -0.737556,0.323606 -0.795211,0.9899287 -0.128365,1.4804339 l 2.141958,1.575987 c 0.666846,0.4905052 0.858306,1.5224772 0.425346,2.2932712 L 27.434811,26.42634 c -0.43296,0.770794 -1.39026,1.133896 -2.126728,0.806468 L 11.740537,21.215519 C 11.004069,20.889364 9.9912892,21.204053 9.4897947,21.914967 L 0.96874035,33.995409 C 0.4672459,34.706323 0.05277868,36.042791 0.04951516,36.965195 l -0.04351362,9.866163 c -0.00326352,0.922404 0.41229154,1.104593 0.92575224,0.405145 L 11.908064,32.267812 c 0.513461,-0.699448 1.536031,-1.005217 2.271411,-0.677789 L 27.84819,37.657 c 0.736468,0.327428 1.695944,-0.0344 2.132168,-0.801372 L 42.214212,15.347292 c 0.436224,-0.768245 1.339131,-0.99375 2.005977,-0.503245 l 2.562953,1.886853"
     id="path15"
     style="fill:#2c89a0;fill-opacity:0.85100002"
     inkscape:connector-curvature="0" />
</svg>
