<?xml version="1.0" encoding="UTF-8" standalone="no"?>
<svg
   xmlns:dc="http://purl.org/dc/elements/1.1/"
   xmlns:cc="http://creativecommons.org/ns#"
   xmlns:rdf="http://www.w3.org/1999/02/22-rdf-syntax-ns#"
   xmlns:svg="http://www.w3.org/2000/svg"
   xmlns="http://www.w3.org/2000/svg"
   xmlns:sodipodi="http://sodipodi.sourceforge.net/DTD/sodipodi-0.dtd"
   xmlns:inkscape="http://www.inkscape.org/namespaces/inkscape"
   viewBox="0 0 48 48"
   id="svg2"
   version="1.1"
   inkscape:version="0.91 r13725"
   sodipodi:docname="lyx.svg">
  <metadata
     id="metadata28">
    <rdf:RDF>
      <cc:Work
         rdf:about="">
        <dc:format>image/svg+xml</dc:format>
        <dc:type
           rdf:resource="http://purl.org/dc/dcmitype/StillImage" />
        <dc:title></dc:title>
      </cc:Work>
    </rdf:RDF>
  </metadata>
  <sodipodi:namedview
     pagecolor="#ffffff"
     bordercolor="#666666"
     borderopacity="1"
     objecttolerance="10"
     gridtolerance="10"
     guidetolerance="10"
     inkscape:pageopacity="0"
     inkscape:pageshadow="2"
     inkscape:window-width="1280"
     inkscape:window-height="694"
     id="namedview26"
     showgrid="false"
     inkscape:zoom="4.9166667"
     inkscape:cx="-9.1525424"
     inkscape:cy="24"
     inkscape:window-x="0"
     inkscape:window-y="0"
     inkscape:window-maximized="1"
     inkscape:current-layer="svg2" />
  <defs
     id="defs4">
    <clipPath
       id="clipPath6">
      <path
         transform="matrix(15.33333 0 0 11.5 415-125.5)"
         d="m-24 13c0 1.105-.672 2-1.5 2-.828 0-1.5-.895-1.5-2 0-1.105.672-2 1.5-2 .828 0 1.5.895 1.5 2"
         fill="#1890d0"
         id="path8" />
    </clipPath>
    <linearGradient
       id="0"
       gradientUnits="userSpaceOnUse"
       x1="24.61"
       y1="47.593"
       x2="23.593"
       y2="-.203">
      <stop
         stop-color="#dce2ff"
         id="stop11" />
      <stop
         stop-color="#f8feff"
         offset="1"
         id="stop13" />
    </linearGradient>
    <linearGradient
       id="1"
       x1="98.14"
       y1="1033.45"
       x2="98.75"
       y2="1007.62"
       gradientUnits="userSpaceOnUse"
       gradientTransform="translate(-75.05,-996.23)">
      <stop
         stop-color="#0973d9"
         id="stop16" />
      <stop
         stop-color="#0cbffe"
         offset="1"
         id="stop18" />
    </linearGradient>
  </defs>
  <path
     inkscape:connector-curvature="0"
     style="fill:#2a7fff;fill-rule:evenodd"
     id="path24"
     d="m 29.547104,0.54661017 1.985047,11.98063983 2.809866,0.611385 -7.4821,18.167775 5.296068,2.809861 3.475464,-8.073637 1.367737,9.813571 7.693525,1.270929 L 41.068467,19.024266 47.489525,6.8740294 40.342835,4.3112361 37.475545,9.8681423 36.073875,2.6780837 29.548409,0.54870395 M 6.6270566,5.6638215 6.4808864,5.9883582 0.50747458,10.745438 7.9256245,39.945369 18.083165,31.406912 15.539538,21.966034 11.444156,25.508719 6.6270566,5.6617277 m 6.4549914,4.8408313 5.638003,20.914822 -1.204602,14.352898 6.986164,1.886501 1.686181,-15.992332 6.888282,-16.73772 -7.516032,-1.63734 -2.792899,6.808989 -2.216049,-7.87682 -7.467743,-1.721092" />
</svg>
