<?xml version="1.0" encoding="UTF-8" standalone="no"?>
<svg
   xmlns:dc="http://purl.org/dc/elements/1.1/"
   xmlns:cc="http://creativecommons.org/ns#"
   xmlns:rdf="http://www.w3.org/1999/02/22-rdf-syntax-ns#"
   xmlns:svg="http://www.w3.org/2000/svg"
   xmlns="http://www.w3.org/2000/svg"
   xmlns:sodipodi="http://sodipodi.sourceforge.net/DTD/sodipodi-0.dtd"
   xmlns:inkscape="http://www.inkscape.org/namespaces/inkscape"
   viewBox="0 0 48 48"
   id="svg2"
   version="1.1"
   inkscape:version="0.91 r13725"
   sodipodi:docname="mendeley.svg">
  <metadata
     id="metadata43">
    <rdf:RDF>
      <cc:Work
         rdf:about="">
        <dc:format>image/svg+xml</dc:format>
        <dc:type
           rdf:resource="http://purl.org/dc/dcmitype/StillImage" />
        <dc:title></dc:title>
      </cc:Work>
    </rdf:RDF>
  </metadata>
  <sodipodi:namedview
     pagecolor="#ffffff"
     bordercolor="#666666"
     borderopacity="1"
     objecttolerance="10"
     gridtolerance="10"
     guidetolerance="10"
     inkscape:pageopacity="0"
     inkscape:pageshadow="2"
     inkscape:window-width="1280"
     inkscape:window-height="694"
     id="namedview41"
     showgrid="false"
     inkscape:zoom="4.9166667"
     inkscape:cx="-9.1525424"
     inkscape:cy="24"
     inkscape:window-x="0"
     inkscape:window-y="0"
     inkscape:window-maximized="1"
     inkscape:current-layer="svg2" />
  <defs
     id="defs4">
    <clipPath
       id="clipPath6">
      <rect
         y="6"
         x="6"
         rx="6"
         height="84"
         width="84"
         fill="#fff"
         id="rect8" />
    </clipPath>
    <filter
       color-interpolation-filters="sRGB"
       id="filter10">
      <feGaussianBlur
         stdDeviation="1.71"
         id="feGaussianBlur12" />
    </filter>
    <filter
       color-interpolation-filters="sRGB"
       height="1.384"
       width="1.384"
       y="-.192"
       x="-.192"
       id="filter14">
      <feGaussianBlur
         stdDeviation="5.28"
         id="feGaussianBlur16" />
    </filter>
    <linearGradient
       id="0"
       gradientUnits="userSpaceOnUse"
       x1="24.61"
       y1="47.593"
       x2="23.593"
       y2="-.203">
      <stop
         stop-color="#c52828"
         id="stop19" />
      <stop
         offset="1"
         stop-color="#ff5454"
         id="stop21" />
    </linearGradient>
    <linearGradient
       gradientUnits="userSpaceOnUse"
       y2="138.66"
       x2="0"
       y1="20.221"
       id="linearGradient23">
      <stop
         stop-color="#fff"
         id="stop25" />
      <stop
         offset="1"
         stop-color="#fff"
         stop-opacity="0"
         id="stop27" />
    </linearGradient>
    <linearGradient
       gradientTransform="scale(1.0059.99417)"
       gradientUnits="userSpaceOnUse"
       y2="7.02"
       x2="0"
       y1="92.54"
       id="linearGradient29">
      <stop
         id="stop31" />
      <stop
         offset="1"
         stop-opacity=".588"
         id="stop33" />
    </linearGradient>
  </defs>
  <path
     style="color:#000000;fill:#c83737;fill-opacity:0.84799966"
     inkscape:connector-curvature="0"
     id="path39"
     d="M 14.446601,0.38988136 C 13.409276,0.41825736 12.350889,0.891192 11.322778,1.8039557 8.2568779,4.5256942 6.9997136,10.375895 7.9514731,17.349315 c 0.454158,3.334189 0.6121261,7.836526 0.336998,9.65023 -0.389654,2.568035 -1.5836308,3.913534 -3.506895,3.915898 -1.8995684,0.0048 -3.767543,2.622423 -4.13613573,5.814732 -0.37780735,3.263248 0.0539726,6.221454 1.23610173,8.356754 1.3901207,2.513646 3.3186503,3.220684 4.9904811,1.816068 C 9.29157,44.869379 10.084044,40.622426 9.0519847,35.3161 8.5543844,32.757524 8.5320061,32.414647 8.7821228,30.794845 9.8418264,23.939659 18.54851,23.435983 19.97549,30.149289 c 0.337,1.586696 0.28171,2.672081 -0.336999,5.450572 -0.379123,1.7002 -0.425198,2.293732 -0.359377,4.11926 0.118475,3.334188 1.008364,5.670486 2.764444,7.117666 1.068919,0.874928 3.289689,0.870199 4.337546,0 2.576198,-2.137665 3.543754,-6.774788 2.405067,-11.4663 -0.978088,-4.029402 -0.483121,-6.706212 1.5731,-8.560116 2.588047,-2.331567 6.325312,-1.799516 8.203818,1.170514 1.344047,2.12584 1.54414,3.965556 0.831967,7.630799 -0.946494,4.866497 -0.188246,9.075615 2.000931,11.184903 0.945177,0.910399 3.034306,0.910399 3.975534,0 0.854345,-0.825271 1.820585,-2.63661 2.135205,-3.996298 0.920166,-3.965556 0.167183,-8.95738 -1.640237,-10.860942 -0.625291,-0.657379 -1.096563,-0.858376 -2.360309,-1.049914 -1.028111,-0.156069 -1.746866,-0.446924 -2.090448,-0.806354 -0.685845,-0.71886 -1.233468,-2.501824 -1.371691,-4.481056 -0.125057,-1.80188 0.15402,-6.292394 0.539725,-8.680714 0.39887,-2.468718 0.239585,-7.0940182 -0.314619,-9.2860699 C 38.572304,0.94085014 33.777967,-1.6792074 30.379016,2.265067 29.845874,2.8846112 29.162661,3.9841841 28.850674,4.686492 27.75806,7.1575751 25.998031,10.321507 25.456989,10.782619 24.094513,11.943673 22.696493,10.993075 21.164201,7.8764357 18.84865,3.1660073 18.505069,2.5701098 17.478275,1.6597107 16.509404,0.8036991 15.481293,0.37805798 14.443968,0.40879874 M 24.243266,14.135725 c 3.136987,-0.0094 5.265609,5.143164 4.38362,10.619746 -0.387023,2.38832 -1.654718,4.70097 -2.922413,5.370172 -1.084715,0.572251 -1.978553,0.600627 -2.98955,0.0402 -1.757396,-0.971881 -3.068533,-4.33681 -3.056685,-7.874362 0.0079,-2.364672 0.302771,-3.7149 1.213722,-5.49077 0.951759,-1.853904 1.981185,-2.660256 3.371306,-2.664986" />
</svg>
