<?xml version="1.0" encoding="UTF-8" standalone="no"?>
<svg
   xmlns:dc="http://purl.org/dc/elements/1.1/"
   xmlns:cc="http://creativecommons.org/ns#"
   xmlns:rdf="http://www.w3.org/1999/02/22-rdf-syntax-ns#"
   xmlns:svg="http://www.w3.org/2000/svg"
   xmlns="http://www.w3.org/2000/svg"
   xmlns:sodipodi="http://sodipodi.sourceforge.net/DTD/sodipodi-0.dtd"
   xmlns:inkscape="http://www.inkscape.org/namespaces/inkscape"
   viewBox="0 0 48 48"
   id="svg2"
   version="1.1"
   inkscape:version="0.91 r13725"
   sodipodi:docname="mirror-check.svg">
  <metadata
     id="metadata17">
    <rdf:RDF>
      <cc:Work
         rdf:about="">
        <dc:format>image/svg+xml</dc:format>
        <dc:type
           rdf:resource="http://purl.org/dc/dcmitype/StillImage" />
        <dc:title></dc:title>
      </cc:Work>
    </rdf:RDF>
  </metadata>
  <sodipodi:namedview
     pagecolor="#ffffff"
     bordercolor="#666666"
     borderopacity="1"
     objecttolerance="10"
     gridtolerance="10"
     guidetolerance="10"
     inkscape:pageopacity="0"
     inkscape:pageshadow="2"
     inkscape:window-width="1280"
     inkscape:window-height="694"
     id="namedview15"
     showgrid="false"
     inkscape:zoom="4.9166667"
     inkscape:cx="-9.1525424"
     inkscape:cy="24"
     inkscape:window-x="0"
     inkscape:window-y="0"
     inkscape:window-maximized="1"
     inkscape:current-layer="svg2" />
  <defs
     id="defs4">
    <linearGradient
       id="0"
       gradientUnits="userSpaceOnUse"
       y1="211.23"
       x2="0"
       y2="157.23">
      <stop
         stop-color="#197ff1"
         id="stop7" />
      <stop
         offset="1"
         stop-color="#21c6fb"
         id="stop9" />
    </linearGradient>
  </defs>
  <path
     d="M 47.175659,7.0128762 42.994463,1.5909925 C 42.421484,0.84799365 41.724619,0.47505984 40.903866,0.47505984 c -0.820756,0 -1.517621,0.37293381 -2.0906,1.11593266 L 18.646182,27.782421 9.6090462,16.02353 C 9.0360677,15.280531 8.3391996,14.907598 7.5184471,14.907598 c -0.8207538,0 -1.5176206,0.372933 -2.0905991,1.115932 l -4.1811956,5.421884 c -0.57297979,0.742999 -0.86057476,1.646647 -0.86057476,2.710943 0,1.061426 0.28759497,1.967942 0.86057476,2.710941 l 11.1277336,14.42967 4.181199,5.421884 c 0.572978,0.742998 1.269844,1.115932 2.090597,1.115932 0.818541,0 1.515408,-0.372934 2.090599,-1.115932 l 4.181196,-5.421884 22.255471,-28.859339 c 0.572978,-0.742999 0.860573,-1.646647 0.860573,-2.7109422 0,-1.061427 -0.287595,-1.9650742 -0.860573,-2.7109418"
     id="path13"
     style="fill:#00aad4;fill-opacity:0.85100002"
     inkscape:connector-curvature="0" />
</svg>
