<?xml version="1.0" encoding="UTF-8" standalone="no"?>
<svg
   xmlns:dc="http://purl.org/dc/elements/1.1/"
   xmlns:cc="http://creativecommons.org/ns#"
   xmlns:rdf="http://www.w3.org/1999/02/22-rdf-syntax-ns#"
   xmlns:svg="http://www.w3.org/2000/svg"
   xmlns="http://www.w3.org/2000/svg"
   xmlns:xlink="http://www.w3.org/1999/xlink"
   xmlns:sodipodi="http://sodipodi.sourceforge.net/DTD/sodipodi-0.dtd"
   xmlns:inkscape="http://www.inkscape.org/namespaces/inkscape"
   viewBox="0 0 48 48"
   id="svg2"
   version="1.1"
   inkscape:version="0.91 r13725"
   sodipodi:docname="monodevelop.svg">
  <metadata
     id="metadata30">
    <rdf:RDF>
      <cc:Work
         rdf:about="">
        <dc:format>image/svg+xml</dc:format>
        <dc:type
           rdf:resource="http://purl.org/dc/dcmitype/StillImage" />
        <dc:title></dc:title>
      </cc:Work>
    </rdf:RDF>
  </metadata>
  <sodipodi:namedview
     pagecolor="#ffffff"
     bordercolor="#666666"
     borderopacity="1"
     objecttolerance="10"
     gridtolerance="10"
     guidetolerance="10"
     inkscape:pageopacity="0"
     inkscape:pageshadow="2"
     inkscape:window-width="1280"
     inkscape:window-height="694"
     id="namedview28"
     showgrid="false"
     inkscape:zoom="4.9166667"
     inkscape:cx="-9.1525424"
     inkscape:cy="24"
     inkscape:window-x="0"
     inkscape:window-y="0"
     inkscape:window-maximized="1"
     inkscape:current-layer="svg2" />
  <defs
     id="defs4">
    <filter
       color-interpolation-filters="sRGB"
       id="filter6">
      <feGaussianBlur
         stdDeviation="1.71"
         id="feGaussianBlur8" />
    </filter>
    <linearGradient
       xlink:href="#0"
       id="1"
       y1="46.45"
       x2="0"
       y2="1.155"
       gradientUnits="userSpaceOnUse" />
    <linearGradient
       gradientTransform="matrix(.49433 0 0 .4778 86.64 13.1)"
       gradientUnits="userSpaceOnUse"
       y2="-26.05"
       x2="-125.19"
       y1="73.5"
       x1="-123.97"
       id="0">
      <stop
         stop-color="#2b65bd"
         id="stop12" />
      <stop
         offset="1"
         stop-color="#64a3dc"
         id="stop14" />
    </linearGradient>
    <linearGradient
       y1="92.54"
       x2="0"
       y2="7.02"
       gradientUnits="userSpaceOnUse"
       gradientTransform="scale(1.0059.99417)"
       id="linearGradient16">
      <stop
         id="stop18" />
      <stop
         offset="1"
         stop-opacity=".588"
         id="stop20" />
    </linearGradient>
  </defs>
  <path
     d="m 25.65273,0.49234275 c -0.784848,0 -1.474327,0.0430542 -2.080943,0.0999967 -2.101269,0.19443813 -4.271328,0.63609045 -4.943609,1.02357785 -0.189177,0.1097187 1.161638,0.4110978 3.494296,0.7930299 2.093452,0.3416555 3.611555,0.6541454 3.383293,0.6930329 C 25.277504,3.1422566 22.013033,2.8408775 18.220119,2.4089472 11.561412,1.6492496 11.286246,1.6061955 10.823467,1.9797945 9.8572587,2.7575469 8.4704842,4.9046994 8.184374,6.0421625 7.9076444,7.1435156 7.9389133,7.2671226 8.5564736,8.3865307 c 1.0521976,1.9096603 2.9846144,3.2846153 7.4341744,5.2831613 2.104396,0.945803 3.780407,1.761054 3.717869,1.816608 -0.06254,0.05556 -1.844863,-0.537482 -3.9774,-1.32079 L 11.86472,12.746112 6.1769123,14.16551 C 3.0500249,14.943262 0.22488212,15.584908 0.09667973,15.584908 L 0.006,47.708864 l 5.0561769,0 c 0,-0.331933 12.4872251,-13.820384 12.7498831,-13.768997 0.150091,0.02778 5.714387,2.145764 12.379347,4.688737 11.38187,4.342915 12.144831,4.592906 12.452829,4.226251 0.465907,-0.554148 2.088761,-3.529051 2.936148,-5.415101 l 0.706676,-1.584672 -1.227303,-0.594424 c -1.718225,-0.834695 -4.221298,-2.697135 -5.798813,-4.292917 -1.439931,-1.456897 -4.052446,-4.990115 -4.052446,-5.481766 0,-0.162494 0.850514,0.583315 1.858935,1.651335 2.83296,2.998514 9.366591,7.701139 9.776213,7.033106 0.486231,-0.79303 0.795793,-3.134622 0.780159,-5.844255 -0.01876,-3.309616 -0.539389,-5.888697 -1.821412,-9.444138 l -0.706677,-1.98188 -3.531819,-0.990245 -4.349501,-1.222183 c -1.535301,-0.429152 -0.611306,-0.412487 1.635363,0.03473 2.685996,0.533316 5.447037,0.999968 7.13712,1.18885 1.488398,0.166661 1.810468,-0.113889 1.969939,-1.584671 C 48.160066,12.451676 46.802997,7.2629561 45.42873,4.6838733 44.879961,3.65474 44.631373,3.4464135 43.532272,2.9992058 40.333467,1.6978591 31.148235,0.47428778 25.65273,0.48956506 Z"
     id="path24"
     style="fill:#5f8dd3"
     inkscape:connector-curvature="0" />
</svg>
