<?xml version="1.0" encoding="UTF-8" standalone="no"?>
<svg
   xmlns:dc="http://purl.org/dc/elements/1.1/"
   xmlns:cc="http://creativecommons.org/ns#"
   xmlns:rdf="http://www.w3.org/1999/02/22-rdf-syntax-ns#"
   xmlns:svg="http://www.w3.org/2000/svg"
   xmlns="http://www.w3.org/2000/svg"
   xmlns:sodipodi="http://sodipodi.sourceforge.net/DTD/sodipodi-0.dtd"
   xmlns:inkscape="http://www.inkscape.org/namespaces/inkscape"
   viewBox="0 0 48 48"
   id="svg2"
   version="1.1"
   inkscape:version="0.91 r13725"
   sodipodi:docname="muon.svg">
  <metadata
     id="metadata19">
    <rdf:RDF>
      <cc:Work
         rdf:about="">
        <dc:format>image/svg+xml</dc:format>
        <dc:type
           rdf:resource="http://purl.org/dc/dcmitype/StillImage" />
        <dc:title></dc:title>
      </cc:Work>
    </rdf:RDF>
  </metadata>
  <sodipodi:namedview
     pagecolor="#ffffff"
     bordercolor="#666666"
     borderopacity="1"
     objecttolerance="10"
     gridtolerance="10"
     guidetolerance="10"
     inkscape:pageopacity="0"
     inkscape:pageshadow="2"
     inkscape:window-width="1280"
     inkscape:window-height="694"
     id="namedview17"
     showgrid="false"
     inkscape:zoom="4.9166667"
     inkscape:cx="-9.1525424"
     inkscape:cy="24"
     inkscape:window-x="0"
     inkscape:window-y="0"
     inkscape:window-maximized="1"
     inkscape:current-layer="svg2" />
  <defs
     id="defs4">
    <linearGradient
       id="0"
       gradientUnits="userSpaceOnUse"
       y1="12.529"
       x2="0"
       y2="-36.27"
       gradientTransform="matrix(0.99999,0,0,0.99999,11.629,35.722)">
      <stop
         stop-color="#0a80fd"
         id="stop7" />
      <stop
         offset="1"
         stop-color="#56c5fa"
         id="stop9" />
    </linearGradient>
  </defs>
  <path
     style="fill:#0066ff;fill-opacity:0.85199998"
     inkscape:connector-curvature="0"
     id="path15"
     d="m 5.0888719,44.921224 c 1.4142039,-1.480944 2.8898295,-3.019251 3.2793343,-3.417299 0.389506,-0.398048 0.7100974,-0.764809 0.7130929,-0.815215 0.00445,-0.09038 -4.1392403,-3.326913 -4.3265035,-3.377321 -0.055436,-0.0139 -0.1363285,0.106033 -0.182767,0.27116 -0.1018645,0.370236 -1.3917326,5.970713 -2.1108187,9.162047 -0.1528061,0.681374 -0.1558023,0.870838 -0.010462,0.870838 0.035955,0 1.2224469,-1.211525 2.6366508,-2.69421 m 39.1452741,2.39524 c 0.753543,-1.145475 1.174507,-3.624147 0.994736,-5.845565 -0.203743,-2.52734 -0.796988,-4.277707 -1.934044,-5.706507 -0.843428,-1.060301 -1.556523,-1.291481 -2.372985,-0.768284 -1.273383,0.815215 -2.479351,1.680838 -2.659122,1.905067 -0.534821,0.669206 -0.498866,1.759055 0.106362,3.153092 0.611223,1.407941 1.276377,2.212729 2.756499,3.333865 1.526559,1.155905 2.146771,2.040648 2.480847,3.538974 0.107866,0.481482 0.217225,0.681374 0.37752,0.686589 0.02997,1.74e-4 0.14232,-0.132104 0.250183,-0.297231 M 11.169647,36.92377 c 2.888331,-5.97419 6.572152,-13.385871 8.861244,-17.825231 0.498866,-0.968177 0.907846,-1.788607 0.907846,-1.823372 0,-0.111246 -4.296542,-3.175688 -4.410396,-3.146138 -0.115357,0.02955 -3.956475,7.531616 -6.683012,13.053873 -0.864401,1.755582 -2.149768,4.241206 -2.8553728,5.536166 -0.7056036,1.294957 -1.390233,2.549937 -1.520567,2.789809 -0.1363285,0.252039 -0.2082362,0.467576 -0.1677874,0.512769 0.1932541,0.215536 4.5242514,3.434682 4.5931648,3.412085 0.041944,-0.0139 0.6157184,-1.143735 1.2763784,-2.509961 M 39.23949,34.801431 c 1.116082,-0.736997 2.095837,-1.411419 2.178233,-1.500067 0.145318,-0.158178 0.140823,-0.179036 -0.271156,-1.004679 -0.230706,-0.464098 -0.79399,-1.597406 -1.249412,-2.51865 -0.455421,-0.921246 -0.880881,-1.687793 -0.9453,-1.701698 -0.170782,-0.03825 -4.387926,2.815882 -4.417888,2.989702 -0.02397,0.144273 2.191717,4.675756 2.437404,4.985155 0.07041,0.08865 0.154304,0.14601 0.184266,0.125149 0.02997,-0.01912 0.96927,-0.63792 2.085351,-1.374915 m 8.404324,-4.78874 c 0.03146,-0.06605 0.04944,-1.458348 0.04045,-3.09747 l -0.01648,-2.979274 -4.745972,-0.0226 c -4.142237,-0.02086 -4.742975,-0.007 -4.722,0.109513 0.01348,0.073 0.674143,1.477467 1.468134,3.120067 l 1.442668,2.987964 0.313102,0.02608 c 0.17228,0.0139 1.628431,0.0139 3.237387,0 2.313061,-0.02086 2.937768,-0.05215 2.982712,-0.146009 M 32.63438,29.884063 c 0.01203,-0.04519 -0.588752,-1.361009 -1.3378,-2.925388 l -1.361771,-2.841957 -5.787148,0 -5.787149,0 -1.366263,2.871507 c -0.752044,1.578284 -1.349785,2.902792 -1.328813,2.942771 0.05393,0.102553 16.94048,0.05563 16.968944,-0.04694 M 7.7734608,29.392155 c 0.1543048,-0.311138 0.7939928,-1.593929 1.4201971,-2.850648 0.6262032,-1.256718 1.1400511,-2.327447 1.1400511,-2.377856 0,-0.06258 -1.5984693,-0.08517 -4.8583289,-0.06953 l -4.85832766,0.0226 -0.025468,0.634441 c -0.0134825,0.349379 -1.4983e-4,1.663457 0.0284646,2.920176 l 0.0539325,2.285732 3.40817087,0 3.40817,0 z M 36.402094,28.23799 c 1.981983,-1.265408 1.950522,-1.242811 1.950522,-1.404466 0,-0.158177 -1.044174,-2.299635 -4.58867,-9.415823 C 29.867395,9.5975433 28.150576,6.1489548 27.010525,3.851057 25.886951,1.586183 25.62029,1.1638008 25.137903,0.87699781 24.757387,0.65277014 24.150658,0.61800616 23.758155,0.79704072 23.383632,0.96912241 22.066805,1.85908 21.717748,2.1754319 21.158959,2.682986 20.946228,3.6859282 21.232365,4.476808 c 0.154303,0.4258595 0.04943,0.2137989 3.734754,7.597668 5.803629,11.625077 8.78634,17.486284 8.970606,17.630554 0.04494,0.03477 0.25917,-0.0504 0.473398,-0.191202 0.214229,-0.140796 1.11009,-0.7144 1.990971,-1.275838 M 22.068304,14.859071 c 0.924325,-1.788606 1.059154,-2.101483 1.116081,-2.581226 0.118351,-0.995987 -0.334076,-1.661717 -1.760265,-2.6003455 -0.808972,-0.5318889 -0.939306,-0.5892484 -1.414203,-0.6205363 -0.647176,-0.041717 -0.96777,0.1147221 -1.414203,0.6987562 -0.334076,0.4362866 -1.626933,3.1061616 -1.623937,3.3547236 1.5e-4,0.08865 0.804477,0.7144 2.125801,1.654765 1.168514,0.830859 2.149768,1.513972 2.179729,1.517448 0.02997,1.74e-4 0.385011,-0.637918 0.790997,-1.421847" />
</svg>
