<?xml version="1.0" encoding="UTF-8" standalone="no"?>
<svg
   xmlns:dc="http://purl.org/dc/elements/1.1/"
   xmlns:cc="http://creativecommons.org/ns#"
   xmlns:rdf="http://www.w3.org/1999/02/22-rdf-syntax-ns#"
   xmlns:svg="http://www.w3.org/2000/svg"
   xmlns="http://www.w3.org/2000/svg"
   xmlns:sodipodi="http://sodipodi.sourceforge.net/DTD/sodipodi-0.dtd"
   xmlns:inkscape="http://www.inkscape.org/namespaces/inkscape"
   viewBox="0 0 48 48"
   id="svg2"
   version="1.1"
   inkscape:version="0.91 r13725"
   sodipodi:docname="palemoon.svg">
  <metadata
     id="metadata24">
    <rdf:RDF>
      <cc:Work
         rdf:about="">
        <dc:format>image/svg+xml</dc:format>
        <dc:type
           rdf:resource="http://purl.org/dc/dcmitype/StillImage" />
        <dc:title></dc:title>
      </cc:Work>
    </rdf:RDF>
  </metadata>
  <sodipodi:namedview
     pagecolor="#ffffff"
     bordercolor="#666666"
     borderopacity="1"
     objecttolerance="10"
     gridtolerance="10"
     guidetolerance="10"
     inkscape:pageopacity="0"
     inkscape:pageshadow="2"
     inkscape:window-width="1280"
     inkscape:window-height="694"
     id="namedview22"
     showgrid="false"
     inkscape:zoom="4.9166667"
     inkscape:cx="-6.4067797"
     inkscape:cy="24"
     inkscape:window-x="0"
     inkscape:window-y="0"
     inkscape:window-maximized="1"
     inkscape:current-layer="svg2" />
  <defs
     id="defs4">
    <linearGradient
       id="0"
       gradientUnits="userSpaceOnUse"
       x1="62.6"
       y1="11.846"
       x2="62.15"
       y2="-35.476"
       gradientTransform="matrix(0.9999917,0,0,0.9999917,-38.470118,35.817757)">
      <stop
         stop-color="#92ccff"
         id="stop7" />
      <stop
         offset="1"
         stop-color="#e5f9fd"
         id="stop9" />
    </linearGradient>
    <linearGradient
       id="1"
       x1="142.33"
       y1="307.83"
       x2="191.98"
       y2="15.446"
       gradientUnits="userSpaceOnUse"
       gradientTransform="matrix(0.1661631,0,0,0.1661631,-2.3972415,-2.3966975)">
      <stop
         stop-color="#4469b9"
         id="stop12" />
      <stop
         offset="1"
         stop-color="#5d91ff"
         id="stop14" />
    </linearGradient>
  </defs>
  <path
     inkscape:connector-curvature="0"
     style="fill:#0055d4"
     id="path20"
     d="m 24.104447,0.37619581 c -0.61867,0 -1.11995,0.5014592 -1.11995,1.11994959 0,0.6186694 0.50128,1.1199495 1.11995,1.1199495 11.848273,0 21.488551,9.6397381 21.488551,21.4885511 0,10.617028 -7.740539,19.459773 -17.875464,21.183875 0.206642,-0.702724 0.312741,-1.433766 0.312741,-2.172154 0,-4.272082 -3.475268,-7.747707 -7.747707,-7.747707 -2.201187,0 -4.306673,0.940192 -5.776281,2.581852 -0.412565,0.460955 -0.372241,1.169056 0.0889,1.581443 0.460955,0.412566 1.168878,0.374213 1.581443,-0.08692 1.044318,-1.167085 2.540631,-1.836473 4.105405,-1.836473 3.036715,0 5.507271,2.470556 5.507271,5.50727 0,0.851477 -0.201982,1.686824 -0.583185,2.448512 -0.365071,0.01846 -0.733191,0.02904 -1.102564,0.02904 C 12.25528,45.593402 2.6150044,35.953467 2.6150044,24.104835 2.6150044,18.178008 4.9764151,12.65891 9.2640883,8.5646153 9.7114235,8.1373533 9.728092,7.4285359 9.3008279,6.9812013 8.8735628,6.5336781 8.1647454,6.5170106 7.7174108,6.9444517 2.9834778,11.466188 0.37563876,17.56148 0.37563876,24.104825 c 0,13.083103 10.64391224,23.728807 23.72880824,23.728807 13.083103,0 23.728807,-10.64391 23.728807,-23.728807 0,-13.083105 -10.64391,-23.72880844 -23.728807,-23.72880844 M 18.88375,6.2888628 c -0.295713,0 -0.584438,0.1191817 -0.793587,0.3283321 -0.207538,0.2091505 -0.326362,0.4975164 -0.326362,0.7917967 0,0.295714 0.118824,0.5846175 0.326362,0.7935887 0.209329,0.2075375 0.497874,0.3263608 0.793587,0.3263608 0.294281,0 0.582468,-0.1188233 0.791797,-0.3263608 0.209151,-0.2091503 0.328332,-0.4978747 0.328332,-0.7935887 0,-0.2942803 -0.119181,-0.5826462 -0.328332,-0.7917967 C 19.466397,6.4080445 19.178031,6.2888628 18.88375,6.2888628 m 10.945003,1.0753236 c -4.464744,0 -8.097187,3.6322636 -8.097187,8.0971876 0,4.464565 3.632085,8.097187 8.097187,8.097187 4.464744,0 8.097187,-3.632265 8.097187,-8.097187 0,-4.464565 -3.632085,-8.0971876 -8.097187,-8.0971876 m 0,2.2400779 c 3.229555,0 5.85675,2.6275537 5.85675,5.8567497 0,3.229556 -2.627553,5.85675 -5.85675,5.85675 -3.229556,0 -5.85675,-2.627552 -5.85675,-5.85675 0,-3.229555 2.627553,-5.8567497 5.85675,-5.8567497 M 15.053806,14.341065 c -0.295535,0 -0.584439,0.119182 -0.793589,0.328332 -0.207537,0.207538 -0.32636,0.497517 -0.32636,0.791798 0,0.294279 0.118823,0.584079 0.32636,0.791796 0.20933,0.20915 0.498054,0.328332 0.793589,0.328332 0.294281,0 0.582467,-0.119182 0.791797,-0.328332 0.208971,-0.207538 0.328332,-0.497517 0.328332,-0.791796 0,-0.294281 -0.119361,-0.584081 -0.328332,-0.791798 -0.20915,-0.20915 -0.497337,-0.328332 -0.791797,-0.328332 m -3.454656,5.90514 c -2.5216335,0 -4.5726346,2.052613 -4.5726346,4.574606 0,2.521634 2.0506418,4.572635 4.5726346,4.572635 2.521634,0 4.574605,-2.050643 4.574605,-4.572635 0,-2.521634 -2.052612,-4.574606 -4.574605,-4.574606 m 0,2.240079 c 1.286624,0 2.335245,1.047723 2.335245,2.335244 0,1.286803 -1.047903,2.333451 -2.335245,2.333451 -1.286625,0 -2.3334526,-1.04593 -2.3334526,-2.333451 0,-1.286804 1.0461106,-2.335244 2.3334526,-2.335244 M 36.804736,25.1685 c -2.303702,0 -4.178708,1.872854 -4.178708,4.176735 0,2.30388 1.875006,4.178708 4.178708,4.178708 2.303701,0 4.178707,-1.874828 4.178707,-4.178708 0,-0.61867 -0.503251,-1.11995 -1.121921,-1.11995 -0.618669,0 -1.11995,0.50146 -1.11995,1.11995 0,1.068514 -0.868144,1.938808 -1.936836,1.938808 -1.068693,0 -1.938809,-0.870116 -1.938809,-1.938808 0,-1.068693 0.870296,-1.936837 1.938809,-1.936837 0.61867,0 1.11995,-0.501459 1.11995,-1.119949 0,-0.61867 -0.50128,-1.119949 -1.11995,-1.119949 m -13.953579,1.985763 c -0.294281,0 -0.583901,0.120616 -0.791797,0.328333 -0.20897,0.20915 -0.328332,0.496082 -0.328332,0.791795 0,0.294281 0.119362,0.582647 0.328332,0.791798 0.207717,0.209149 0.497696,0.328332 0.791797,0.328332 0.295713,0 0.583901,-0.119183 0.791797,-0.328332 0.208971,-0.209151 0.328332,-0.497517 0.328332,-0.791798 0,-0.295713 -0.119361,-0.582645 -0.328332,-0.791795 -0.207717,-0.207538 -0.495903,-0.328333 -0.791797,-0.328333 M 9.363014,34.061605 c -0.2957137,0 -0.5844379,0.120615 -0.7935884,0.328332 -0.2075375,0.20915 -0.3283321,0.496082 -0.3283321,0.791796 0,0.29428 0.1207946,0.582646 0.3283321,0.791797 0.2091505,0.209151 0.4978747,0.330124 0.7935884,0.330124 0.2942806,0 0.5804968,-0.121152 0.789826,-0.330124 0.207537,-0.209151 0.330124,-0.497517 0.330124,-0.791797 0,-0.295714 -0.122766,-0.582646 -0.330124,-0.791796 C 9.9436889,34.1824 9.6572946,34.061605 9.363014,34.061605 m 21.841615,1.307234 c -0.295714,0 -0.584438,0.120616 -0.793588,0.328333 -0.207538,0.209151 -0.326362,0.496082 -0.326362,0.791796 0,0.294281 0.118824,0.582646 0.326362,0.791796 0.20915,0.209151 0.497874,0.328332 0.793588,0.328332 0.29428,0 0.582467,-0.119181 0.791797,-0.328332 0.207537,-0.20915 0.32636,-0.497515 0.32636,-0.791796 0,-0.295714 -0.118823,-0.582645 -0.32636,-0.791796 -0.20915,-0.207538 -0.497517,-0.328333 -0.791797,-0.328333" />
</svg>
