<?xml version="1.0" encoding="UTF-8" standalone="no"?>
<!-- Generator: Adobe Illustrator 19.0.0, SVG Export Plug-In . SVG Version: 6.00 Build 0)  -->

<svg
   xmlns:dc="http://purl.org/dc/elements/1.1/"
   xmlns:cc="http://creativecommons.org/ns#"
   xmlns:rdf="http://www.w3.org/1999/02/22-rdf-syntax-ns#"
   xmlns:svg="http://www.w3.org/2000/svg"
   xmlns="http://www.w3.org/2000/svg"
   xmlns:sodipodi="http://sodipodi.sourceforge.net/DTD/sodipodi-0.dtd"
   xmlns:inkscape="http://www.inkscape.org/namespaces/inkscape"
   version="1.1"
   id="Capa_1"
   x="0px"
   y="0px"
   viewBox="0 0 58 58"
   style="enable-background:new 0 0 58 58;"
   xml:space="preserve"
   inkscape:version="0.91 r13725"
   sodipodi:docname="preferences-system-privacy.svg"><metadata
     id="metadata79"><rdf:RDF><cc:Work
         rdf:about=""><dc:format>image/svg+xml</dc:format><dc:type
           rdf:resource="http://purl.org/dc/dcmitype/StillImage" /><dc:title></dc:title></cc:Work></rdf:RDF></metadata><defs
     id="defs77" /><sodipodi:namedview
     pagecolor="#ffffff"
     bordercolor="#666666"
     borderopacity="1"
     objecttolerance="10"
     gridtolerance="10"
     guidetolerance="10"
     inkscape:pageopacity="0"
     inkscape:pageshadow="2"
     inkscape:window-width="1280"
     inkscape:window-height="694"
     id="namedview75"
     showgrid="false"
     inkscape:zoom="4.0689655"
     inkscape:cx="-3.3177966"
     inkscape:cy="29"
     inkscape:window-x="0"
     inkscape:window-y="0"
     inkscape:window-maximized="1"
     inkscape:current-layer="Capa_1" /><path
     style="fill:#8CA40E;"
     d="M48,16c-0.256,0-0.512-0.098-0.707-0.293l-4-4c-0.391-0.391-0.391-1.023,0-1.414s1.023-0.391,1.414,0  l4,4c0.391,0.391,0.391,1.023,0,1.414C48.512,15.902,48.256,16,48,16z"
     id="path29" /><path
     style="fill:#8CA40E;"
     d="M40,16c-0.256,0-0.512-0.098-0.707-0.293l-4-4c-0.391-0.391-0.391-1.023,0-1.414s1.023-0.391,1.414,0  l4,4c0.391,0.391,0.391,1.023,0,1.414C40.512,15.902,40.256,16,40,16z"
     id="path33" /><path
     style="fill:#8CA40E;"
     d="M32,16c-0.256,0-0.512-0.098-0.707-0.293l-4-4c-0.391-0.391-0.391-1.023,0-1.414s1.023-0.391,1.414,0  l4,4c0.391,0.391,0.391,1.023,0,1.414C32.512,15.902,32.256,16,32,16z"
     id="path37" /><path
     style="fill:#8CA40E;"
     d="M24,16c-0.256,0-0.512-0.098-0.707-0.293l-4-4c-0.391-0.391-0.391-1.023,0-1.414s1.023-0.391,1.414,0  l4,4c0.391,0.391,0.391,1.023,0,1.414C24.512,15.902,24.256,16,24,16z"
     id="path41" /><g
     id="g4207"
     transform="matrix(1,0,0,1.0637163,0,-1.6020088)"><path
       id="path3"
       d="M 55.281,56 2.719,56 C 1.217,56 0,54.783 0,53.281 L 0,4.719 C 0,3.217 1.217,2 2.719,2 L 55.282,2 C 56.783,2 58,3.217 58,4.719 l 0,48.563 C 58,54.783 56.783,56 55.281,56 Z"
       style="fill:#ecf0f1"
       inkscape:connector-curvature="0" /><rect
       id="rect5"
       height="10"
       width="46"
       style="fill:#c6e700"
       y="8"
       x="6" /><circle
       id="circle7"
       r="3"
       cy="27"
       cx="9"
       style="fill:#556080" /><circle
       id="circle9"
       r="3"
       cy="27"
       cx="19"
       style="fill:#556080" /><circle
       id="circle11"
       r="3"
       cy="27"
       cx="29"
       style="fill:#556080" /><circle
       id="circle13"
       r="3"
       cy="37"
       cx="9"
       style="fill:#556080" /><circle
       id="circle15"
       r="3"
       cy="37"
       cx="19"
       style="fill:#556080" /><circle
       id="circle17"
       r="3"
       cy="37"
       cx="29"
       style="fill:#556080" /><circle
       id="circle19"
       r="3"
       cy="47"
       cx="9"
       style="fill:#556080" /><circle
       id="circle21"
       r="3"
       cy="47"
       cx="19"
       style="fill:#556080" /><circle
       id="circle23"
       r="3"
       cy="47"
       cx="29"
       style="fill:#556080" /><rect
       id="rect25"
       height="14"
       width="14"
       style="fill:#24ae5f"
       y="35"
       x="37" /><rect
       id="rect27"
       height="6"
       width="14"
       style="fill:#f0785a"
       y="24"
       x="37" /><path
       id="path31"
       d="m 44,16 c -0.256,0 -0.512,-0.098 -0.707,-0.293 -0.391,-0.391 -0.391,-1.023 0,-1.414 l 4,-4 c 0.391,-0.391 1.023,-0.391 1.414,0 0.391,0.391 0.391,1.023 0,1.414 l -4,4 C 44.512,15.902 44.256,16 44,16 Z"
       style="fill:#8ca40e"
       inkscape:connector-curvature="0" /><path
       id="path35"
       d="m 36,16 c -0.256,0 -0.512,-0.098 -0.707,-0.293 -0.391,-0.391 -0.391,-1.023 0,-1.414 l 4,-4 c 0.391,-0.391 1.023,-0.391 1.414,0 0.391,0.391 0.391,1.023 0,1.414 l -4,4 C 36.512,15.902 36.256,16 36,16 Z"
       style="fill:#8ca40e"
       inkscape:connector-curvature="0" /><path
       id="path39"
       d="m 28,16 c -0.256,0 -0.512,-0.098 -0.707,-0.293 -0.391,-0.391 -0.391,-1.023 0,-1.414 l 4,-4 c 0.391,-0.391 1.023,-0.391 1.414,0 0.391,0.391 0.391,1.023 0,1.414 l -4,4 C 28.512,15.902 28.256,16 28,16 Z"
       style="fill:#8ca40e"
       inkscape:connector-curvature="0" /><path
       id="path43"
       d="m 20,16 c -0.256,0 -0.512,-0.098 -0.707,-0.293 -0.391,-0.391 -0.391,-1.023 0,-1.414 l 4,-4 c 0.391,-0.391 1.023,-0.391 1.414,0 0.391,0.391 0.391,1.023 0,1.414 l -4,4 C 20.512,15.902 20.256,16 20,16 Z"
       style="fill:#8ca40e"
       inkscape:connector-curvature="0" /></g><g
     id="g45" /><g
     id="g47" /><g
     id="g49" /><g
     id="g51" /><g
     id="g53" /><g
     id="g55" /><g
     id="g57" /><g
     id="g59" /><g
     id="g61" /><g
     id="g63" /><g
     id="g65" /><g
     id="g67" /><g
     id="g69" /><g
     id="g71" /><g
     id="g73" /></svg>