<?xml version="1.0" encoding="UTF-8" standalone="no"?>
<svg
   xmlns:dc="http://purl.org/dc/elements/1.1/"
   xmlns:cc="http://creativecommons.org/ns#"
   xmlns:rdf="http://www.w3.org/1999/02/22-rdf-syntax-ns#"
   xmlns:svg="http://www.w3.org/2000/svg"
   xmlns="http://www.w3.org/2000/svg"
   xmlns:sodipodi="http://sodipodi.sourceforge.net/DTD/sodipodi-0.dtd"
   xmlns:inkscape="http://www.inkscape.org/namespaces/inkscape"
   x="0px"
   y="0px"
   width="48px"
   height="48px"
   viewBox="0 0 48 48"
   id="svg2"
   version="1.1"
   inkscape:version="0.91 r13725"
   sodipodi:docname="rawconverter.svg">
  <metadata
     id="metadata24">
    <rdf:RDF>
      <cc:Work
         rdf:about="">
        <dc:format>image/svg+xml</dc:format>
        <dc:type
           rdf:resource="http://purl.org/dc/dcmitype/StillImage" />
        <dc:title></dc:title>
      </cc:Work>
    </rdf:RDF>
  </metadata>
  <defs
     id="defs22" />
  <sodipodi:namedview
     pagecolor="#ffffff"
     bordercolor="#666666"
     borderopacity="1"
     objecttolerance="10"
     gridtolerance="10"
     guidetolerance="10"
     inkscape:pageopacity="0"
     inkscape:pageshadow="2"
     inkscape:window-width="1280"
     inkscape:window-height="694"
     id="namedview20"
     showgrid="false"
     inkscape:zoom="4.9166667"
     inkscape:cx="-9.1525424"
     inkscape:cy="24"
     inkscape:window-x="0"
     inkscape:window-y="0"
     inkscape:window-maximized="1"
     inkscape:current-layer="svg2" />
  <path
     style="fill:#939dac"
     inkscape:connector-curvature="0"
     id="path6"
     d="m 43.672073,7.1099046 -10.353722,0 -2.533328,-5.4973221 C 30.433918,0.85065277 29.71742,0.36960232 28.933757,0.36960232 l -9.867511,0 c -0.783673,0 -1.500161,0.48106171 -1.851266,1.24298018 l -2.533328,5.4973221 -10.3537225,0 c -2.2873132,0 -4.14148876,2.0163832 -4.14148876,4.5037964 l 0,31.526572 c 0,2.487412 1.85417556,4.503796 4.14148876,4.503796 l 39.3441435,0 c 2.287313,0 4.141489,-2.016384 4.141489,-4.503796 l 0,-31.526572 c 0,-2.4874132 -1.854176,-4.5037964 -4.141489,-4.5037964 z" />
  <ellipse
     style="fill:#939dac"
     id="circle10"
     cy="27.376987"
     cx="24.000002"
     rx="11.389094"
     ry="12.385439" />
  <path
     style="fill:#b7bec8"
     inkscape:connector-curvature="0"
     id="path12"
     d="m 24.000001,40.888375 c -6.851254,0 -12.424466,-6.061322 -12.424466,-13.511388 0,-7.450067 5.573212,-13.511388 12.424466,-13.511388 6.851255,0 12.424467,6.061321 12.424467,13.511388 0,7.450066 -5.573212,13.511388 -12.424467,13.511388 z m 0,-24.770878 c -5.7087,0 -10.353722,5.050827 -10.353722,11.25949 0,6.208663 4.645022,11.25949 10.353722,11.25949 5.708701,0 10.353722,-5.050827 10.353722,-11.25949 0,-6.208663 -4.645021,-11.25949 -10.353722,-11.25949 z" />
  <ellipse
     style="fill:#5f8dd3"
     id="circle14"
     cy="27.376987"
     cx="24.000002"
     rx="6.2122331"
     ry="6.7556939" />
  <path
     style="fill:#5f8dd3"
     inkscape:connector-curvature="0"
     id="path16"
     d="m 27.106118,9.3618026 -6.212233,0 c -0.571816,0 -1.035372,-0.5040986 -1.035372,-1.125949 l 0,-3.377847 c 0,-0.6218391 0.463556,-1.125949 1.035372,-1.125949 l 6.212233,0 c 0.571815,0 1.035372,0.5041099 1.035372,1.125949 l 0,3.377847 c 0,0.6218504 -0.463557,1.125949 -1.035372,1.125949 z" />
  <path
     style="fill:#d7e3f4"
     inkscape:connector-curvature="0"
     id="path18"
     d="m 43.672073,13.865599 -6.212233,0 c -0.571815,0 -1.035372,-0.504099 -1.035372,-1.125949 l 0,-1.125949 c 0,-0.621851 0.463557,-1.125949 1.035372,-1.125949 l 6.212233,0 c 0.571815,0 1.035372,0.504098 1.035372,1.125949 l 0,1.125949 c 0,0.62185 -0.463557,1.125949 -1.035372,1.125949 z" />
</svg>
