<?xml version="1.0" encoding="UTF-8" standalone="no"?>
<svg
   xmlns:dc="http://purl.org/dc/elements/1.1/"
   xmlns:cc="http://creativecommons.org/ns#"
   xmlns:rdf="http://www.w3.org/1999/02/22-rdf-syntax-ns#"
   xmlns:svg="http://www.w3.org/2000/svg"
   xmlns="http://www.w3.org/2000/svg"
   xmlns:sodipodi="http://sodipodi.sourceforge.net/DTD/sodipodi-0.dtd"
   xmlns:inkscape="http://www.inkscape.org/namespaces/inkscape"
   viewBox="0 0 48 48"
   id="svg2"
   version="1.1"
   inkscape:version="0.91 r13725"
   sodipodi:docname="recoll.svg">
  <metadata
     id="metadata23">
    <rdf:RDF>
      <cc:Work
         rdf:about="">
        <dc:format>image/svg+xml</dc:format>
        <dc:type
           rdf:resource="http://purl.org/dc/dcmitype/StillImage" />
        <dc:title></dc:title>
      </cc:Work>
    </rdf:RDF>
  </metadata>
  <sodipodi:namedview
     pagecolor="#ffffff"
     bordercolor="#666666"
     borderopacity="1"
     objecttolerance="10"
     gridtolerance="10"
     guidetolerance="10"
     inkscape:pageopacity="0"
     inkscape:pageshadow="2"
     inkscape:window-width="1280"
     inkscape:window-height="694"
     id="namedview21"
     showgrid="false"
     inkscape:zoom="4.9166667"
     inkscape:cx="-9.1525424"
     inkscape:cy="24"
     inkscape:window-x="0"
     inkscape:window-y="0"
     inkscape:window-maximized="1"
     inkscape:current-layer="svg2" />
  <defs
     id="defs4">
    <linearGradient
       id="0"
       gradientUnits="userSpaceOnUse"
       y1="545.14"
       x2="0"
       y2="518.14">
      <stop
         stop-color="#197ff1"
         id="stop7" />
      <stop
         offset="1"
         stop-color="#21c6fb"
         id="stop9" />
    </linearGradient>
  </defs>
  <path
     style="fill:#37abc8;fill-opacity:1"
     inkscape:connector-curvature="0"
     id="path19"
     d="m 46.545018,41.414403 -9.726577,-9.726507 c 2.344192,-3.38383 3.515418,-7.155744 3.515418,-11.314701 0,-2.703375 -0.524876,-5.288757 -1.574282,-7.755798 C 37.711913,10.150007 36.292519,8.0233653 34.50592,6.2367791 32.71932,4.4501929 30.593011,3.0321997 28.125951,1.9831513 25.658195,0.93549282 23.072795,0.40922866 20.3694,0.40922866 c -2.703392,0 -5.288792,0.52452422 -7.755853,1.57392264 C 10.146138,3.0308077 8.0194836,4.4501929 6.2328845,6.2367791 4.4462828,8.0233653 3.0282816,10.150355 1.979223,12.617397 c -1.04766402,2.46739 -1.57393334,5.052423 -1.57393334,7.755798 0,2.703373 0.52452999,5.288059 1.57393334,7.755799 1.0476667,2.467042 2.4670598,4.593333 4.2536615,6.37992 1.7865991,1.786934 3.9136025,3.204579 6.3806625,4.253977 2.467408,1.051136 5.052461,1.573923 7.755853,1.573923 4.159684,0 7.931279,-1.172611 11.315132,-3.515396 l 9.726579,9.697968 c 0.68046,0.718392 1.530427,1.077589 2.551985,1.077589 0.982929,0 1.834286,-0.359197 2.551989,-1.077589 0.718398,-0.718047 1.077598,-1.569051 1.077598,-2.551969 0,-1.001366 -0.348061,-1.852371 -1.047665,-2.551622 M 29.3473,29.349287 c -2.486204,2.486185 -5.477792,3.729104 -8.975462,3.729104 -3.49802,0 -6.488911,-1.243267 -8.975114,-3.729104 -2.4862032,-2.486185 -3.7291304,-5.477403 -3.7291304,-8.975048 0,-3.497992 1.2432758,-6.489213 3.7291304,-8.975049 2.485856,-2.4861855 5.477793,-3.729104 8.975114,-3.729104 3.498019,0 6.48891,1.2432665 8.975462,3.729104 2.486203,2.485836 3.729478,5.477753 3.729478,8.975049 0,3.497993 -1.243624,6.488863 -3.729478,8.975048" />
</svg>
