<?xml version="1.0" encoding="UTF-8" standalone="no"?>
<svg
   xmlns:dc="http://purl.org/dc/elements/1.1/"
   xmlns:cc="http://creativecommons.org/ns#"
   xmlns:rdf="http://www.w3.org/1999/02/22-rdf-syntax-ns#"
   xmlns:svg="http://www.w3.org/2000/svg"
   xmlns="http://www.w3.org/2000/svg"
   xmlns:sodipodi="http://sodipodi.sourceforge.net/DTD/sodipodi-0.dtd"
   xmlns:inkscape="http://www.inkscape.org/namespaces/inkscape"
   viewBox="0 0 48 48"
   id="svg2"
   version="1.1"
   inkscape:version="0.91 r13725"
   sodipodi:docname="setroubleshoot.svg">
  <metadata
     id="metadata17">
    <rdf:RDF>
      <cc:Work
         rdf:about="">
        <dc:format>image/svg+xml</dc:format>
        <dc:type
           rdf:resource="http://purl.org/dc/dcmitype/StillImage" />
        <dc:title></dc:title>
      </cc:Work>
    </rdf:RDF>
  </metadata>
  <sodipodi:namedview
     pagecolor="#ffffff"
     bordercolor="#666666"
     borderopacity="1"
     objecttolerance="10"
     gridtolerance="10"
     guidetolerance="10"
     inkscape:pageopacity="0"
     inkscape:pageshadow="2"
     inkscape:window-width="1280"
     inkscape:window-height="694"
     id="namedview15"
     showgrid="false"
     inkscape:zoom="4.9166667"
     inkscape:cx="-9.1525424"
     inkscape:cy="24"
     inkscape:window-x="0"
     inkscape:window-y="0"
     inkscape:window-maximized="1"
     inkscape:current-layer="svg2" />
  <defs
     id="defs4">
    <linearGradient
       id="0"
       gradientUnits="userSpaceOnUse"
       y1="232.47"
       x2="0"
       y2="176.47"
       gradientTransform="matrix(0.935143,0,0,0.86418,-674.89554,-152.63)">
      <stop
         stop-color="#ffc515"
         id="stop7" />
      <stop
         offset="1"
         stop-color="#ffd55b"
         id="stop9" />
    </linearGradient>
  </defs>
  <path
     d="M 48.119616,10.112378 C 48.103718,8.9872152 47.166705,8.0582217 45.95476,7.9553843 35.881399,7.0825625 27.660557,2.1100708 24.950513,0.29010772 c -0.566697,-0.38196756 -1.333515,-0.38196756 -1.90021,0 C 20.344934,2.1100708 12.125026,7.0851551 2.0507312,7.9553843 0.8387858,8.0582217 -0.09355176,8.9872152 -0.11412491,10.112378 -0.23569349,17.455315 1.0398416,42.380859 23.39537,47.930623 c 0.397436,0.09765 0.815444,0.09765 1.211945,0 C 46.961908,42.388636 48.238379,17.450994 48.11681,10.112378"
     id="path11"
     style="fill:#ffcc00"
     inkscape:connector-curvature="0" />
  <path
     d="M 35.79462,23.965907 A 11.813621,11.813621 0 0 0 23.98098,35.779545 11.813621,11.813621 0 0 0 35.79462,47.593185 11.813621,11.813621 0 0 0 47.608259,35.779545 11.813621,11.813621 0 0 0 35.79462,23.965907 m 4.57097,7.544826 c 0.224459,0 0.41484,0.07815 0.571598,0.235363 l 1.145015,1.145016 -9.1e-4,9.08e-4 c 0.156759,0.157212 0.236274,0.347594 0.236274,0.571599 0,0.224459 -0.07906,0.415748 -0.236274,0.572506 L 35.99,40.12742 34.845894,41.272433 c -0.157212,0.156759 -0.348502,0.235366 -0.572507,0.235366 -0.224459,0 -0.41575,-0.07815 -0.572507,-0.235366 L 32.555865,40.12742 29.510218,37.081773 c -0.156758,-0.156759 -0.235363,-0.348503 -0.235363,-0.572507 0,-0.22446 0.07815,-0.41484 0.235363,-0.571599 l 1.145015,-1.145013 c 0.156757,-0.156759 0.347594,-0.235366 0.572506,-0.235366 0.22446,0 0.414841,0.07815 0.571599,0.235366 l 2.474049,2.482226 5.519695,-5.528784 c 0.156759,-0.156756 0.347595,-0.235363 0.572508,-0.235363"
     id="path13"
     inkscape:connector-curvature="0"
     style="fill:#806600" />
</svg>
