<?xml version="1.0" encoding="UTF-8" standalone="no"?>
<svg
   xmlns:dc="http://purl.org/dc/elements/1.1/"
   xmlns:cc="http://creativecommons.org/ns#"
   xmlns:rdf="http://www.w3.org/1999/02/22-rdf-syntax-ns#"
   xmlns:svg="http://www.w3.org/2000/svg"
   xmlns="http://www.w3.org/2000/svg"
   xmlns:xlink="http://www.w3.org/1999/xlink"
   xmlns:sodipodi="http://sodipodi.sourceforge.net/DTD/sodipodi-0.dtd"
   xmlns:inkscape="http://www.inkscape.org/namespaces/inkscape"
   viewBox="0 0 48 48"
   id="svg2"
   version="1.1"
   inkscape:version="0.91 r13725"
   sodipodi:docname="vbam.svg">
  <metadata
     id="metadata51">
    <rdf:RDF>
      <cc:Work
         rdf:about="">
        <dc:format>image/svg+xml</dc:format>
        <dc:type
           rdf:resource="http://purl.org/dc/dcmitype/StillImage" />
        <dc:title></dc:title>
      </cc:Work>
    </rdf:RDF>
  </metadata>
  <sodipodi:namedview
     pagecolor="#ffffff"
     bordercolor="#666666"
     borderopacity="1"
     objecttolerance="10"
     gridtolerance="10"
     guidetolerance="10"
     inkscape:pageopacity="0"
     inkscape:pageshadow="2"
     inkscape:window-width="1280"
     inkscape:window-height="694"
     id="namedview49"
     showgrid="false"
     inkscape:zoom="4.9166667"
     inkscape:cx="-8.9790629"
     inkscape:cy="24"
     inkscape:window-x="0"
     inkscape:window-y="0"
     inkscape:window-maximized="1"
     inkscape:current-layer="svg2" />
  <defs
     id="defs4">
    <linearGradient
       id="8">
      <stop
         stop-color="#e0e0e0"
         id="stop7" />
      <stop
         offset="1"
         stop-color="#fcf9f9"
         id="stop9" />
    </linearGradient>
    <linearGradient
       id="5"
       x1="-43.715"
       y1="9.663"
       x2="-43.47"
       y2="-13.524"
       gradientUnits="userSpaceOnUse"
       gradientTransform="matrix(1.43114,0,0,1.4818148,85.03,20.326149)">
      <stop
         stop-color="#c52828"
         id="stop12" />
      <stop
         offset="1"
         stop-color="#ff5454"
         id="stop14" />
    </linearGradient>
    <linearGradient
       xlink:href="#8"
       id="7"
       x1="-43.3"
       y1="4.793"
       x2="-43.474"
       y2="-11.173"
       gradientUnits="userSpaceOnUse"
       gradientTransform="matrix(1.43114,0,0,1.4818148,85.03,20.326149)" />
    <linearGradient
       xlink:href="#8"
       id="6"
       x1="-26.599"
       y1="6.02"
       x2="-28.01"
       y2="-4.658"
       gradientUnits="userSpaceOnUse" />
    <linearGradient
       xlink:href="#8"
       id="4"
       x1="-58.804"
       y1="5.511"
       x2="-56.15"
       y2="-4.15"
       gradientUnits="userSpaceOnUse" />
    <linearGradient
       id="3">
      <stop
         stop-color="#141414"
         id="stop20" />
      <stop
         offset="1"
         stop-color="#2d2d2f"
         id="stop22" />
    </linearGradient>
    <linearGradient
       id="0"
       x1="-42.74"
       y1="20.17"
       x2="-42.945"
       y2="8.222"
       gradientUnits="userSpaceOnUse"
       gradientTransform="matrix(1.43114,0,0,1.4818148,85.03,20.326149)">
      <stop
         stop-color="#ceb270"
         id="stop25" />
      <stop
         offset="1"
         stop-color="#ffe6b5"
         id="stop27" />
    </linearGradient>
    <linearGradient
       xlink:href="#3"
       id="2"
       x1="-39.02"
       y1="14.978"
       x2="-39.27"
       y2="8.351"
       gradientUnits="userSpaceOnUse"
       gradientTransform="matrix(1.43114,0,0,1.4818148,85.03,20.326149)" />
    <linearGradient
       xlink:href="#3"
       id="1"
       x1="-46.35"
       y1="14.902"
       x2="-46.46"
       y2="7.834"
       gradientUnits="userSpaceOnUse"
       gradientTransform="matrix(1.43114,0,0,1.4818148,85.03,20.326149)" />
    <clipPath
       clipPathUnits="userSpaceOnUse"
       id="clipPath3808">
      <path
         sodipodi:nodetypes="ssccccss"
         inkscape:connector-curvature="0"
         id="path3810"
         d="m 484.17116,-74.18074 c -161.07908,0 -291.63794,130.607712 -291.63794,291.68679 0,3.9473 0.0791,7.87559 0.2355,11.78368 -0.49881,38.83803 6.14545,46.18893 40.08833,49.52013 170.02557,16.63547 333.44735,12.87945 503.79577,-0.84823 34.51812,1.75157 36.63963,-12.54502 38.60536,-41.84856 0.3965,-6.1515 0.59976,-12.35543 0.59976,-18.60702 0,-161.079078 -130.60771,-291.68679 -291.68678,-291.68679 z"
         style="fill:#fc5367;fill-opacity:1;fill-rule:evenodd;stroke:none" />
    </clipPath>
    <clipPath
       clipPathUnits="userSpaceOnUse"
       id="clipPath3804">
      <path
         sodipodi:nodetypes="ssccccss"
         inkscape:connector-curvature="0"
         id="path3806"
         d="m 948.22321,-55.006873 c -142.99877,0 -258.90306,115.947662 -258.90306,258.946433 0,3.50423 0.0702,6.99159 0.20906,10.46102 -0.44282,34.47867 5.45566,41.00446 35.58862,43.96175 150.94107,14.76823 296.01957,11.4338 447.24727,-0.75302 30.6436,1.55496 32.527,-11.1369 34.2721,-37.15128 0.352,-5.46102 0.5324,-10.96859 0.5324,-16.51847 0,-142.998771 -115.9476,-258.946433 -258.94639,-258.946433 z"
         style="fill:#fc5367;fill-opacity:1;fill-rule:evenodd;stroke:none" />
    </clipPath>
  </defs>
  <g
     id="g4147"
     transform="matrix(0.11104905,0,0,0.1141503,-4.5940128,-5.7874773)">
    <rect
       style="color:#000000;display:inline;overflow:visible;visibility:visible;fill:#ffaaaa;fill-opacity:1;fill-rule:evenodd;stroke:none;stroke-width:38;marker:none;enable-background:accumulate"
       id="rect3769"
       width="317.43311"
       height="229.39502"
       x="99.689133"
       y="239.87704"
       ry="56.044163" />
    <path
       sodipodi:nodetypes="ssccccss"
       inkscape:connector-curvature="0"
       id="path2992"
       d="m 258.38783,52.62718 c -117.78873,0 -213.259612,95.50662 -213.259612,213.29535 0,2.88645 0.05784,5.75901 0.172208,8.61679 -0.364752,28.40024 4.493847,33.77556 29.314507,36.2115 124.330837,12.16465 243.832667,9.41807 368.399577,-0.62027 25.24131,1.28083 26.79266,-9.17352 28.2301,-30.60167 0.28993,-4.49828 0.43857,-9.03489 0.43857,-13.60635 0,-117.78873 -95.50661,-213.29535 -213.29535,-213.29535 z"
       style="fill:#ff2a2a;fill-opacity:1;fill-rule:evenodd;stroke:none" />
    <circle
       transform="matrix(1.0614502,0,0,1.2791835,-330.50596,-10.331812)"
       style="fill:#2b0000;fill-opacity:1;fill-rule:evenodd;stroke:none"
       id="path3792"
       cx="631.32202"
       cy="312.40677"
       r="22.779661" />
    <circle
       id="path3794"
       style="fill:#2b0000;fill-opacity:1;fill-rule:evenodd;stroke:none"
       transform="matrix(1.0614502,0,0,1.2791835,-490.46249,-10.331812)"
       cx="631.32202"
       cy="312.40677"
       r="22.779661" />
    <circle
       transform="matrix(1.1431002,0,0,1.1431002,-567.41636,17.92186)"
       id="path3796"
       style="fill:#ffaaaa;fill-opacity:1;fill-rule:evenodd;stroke:none"
       cx="722.44067"
       cy="130.16948"
       r="73.762711" />
    <circle
       clip-path="url(#clipPath3808)"
       style="fill:#ffaaaa;fill-opacity:1;fill-rule:evenodd;stroke:none"
       id="path3798"
       transform="matrix(0.73124788,0,0,0.73124788,-95.661291,106.8717)"
       cx="722.44067"
       cy="130.16948"
       r="73.762711" />
    <circle
       clip-path="url(#clipPath3804)"
       transform="matrix(0.82370452,0,0,0.82370452,-522.66791,97.936596)"
       id="path3800"
       style="fill:#ffaaaa;fill-opacity:1;fill-rule:evenodd;stroke:none"
       cx="722.44067"
       cy="130.16948"
       r="73.762711" />
  </g>
</svg>
