<?xml version="1.0" encoding="UTF-8" standalone="no"?>
<svg
   xmlns:dc="http://purl.org/dc/elements/1.1/"
   xmlns:cc="http://creativecommons.org/ns#"
   xmlns:rdf="http://www.w3.org/1999/02/22-rdf-syntax-ns#"
   xmlns:svg="http://www.w3.org/2000/svg"
   xmlns="http://www.w3.org/2000/svg"
   xmlns:sodipodi="http://sodipodi.sourceforge.net/DTD/sodipodi-0.dtd"
   xmlns:inkscape="http://www.inkscape.org/namespaces/inkscape"
   viewBox="0 0 48 48"
   id="svg2"
   version="1.1"
   inkscape:version="0.91 r13725"
   sodipodi:docname="vmware.svg">
  <metadata
     id="metadata17">
    <rdf:RDF>
      <cc:Work
         rdf:about="">
        <dc:format>image/svg+xml</dc:format>
        <dc:type
           rdf:resource="http://purl.org/dc/dcmitype/StillImage" />
        <dc:title></dc:title>
      </cc:Work>
    </rdf:RDF>
  </metadata>
  <sodipodi:namedview
     pagecolor="#ffffff"
     bordercolor="#666666"
     borderopacity="1"
     objecttolerance="10"
     gridtolerance="10"
     guidetolerance="10"
     inkscape:pageopacity="0"
     inkscape:pageshadow="2"
     inkscape:window-width="1280"
     inkscape:window-height="694"
     id="namedview15"
     showgrid="false"
     inkscape:zoom="4.9166667"
     inkscape:cx="-39.559322"
     inkscape:cy="24"
     inkscape:window-x="0"
     inkscape:window-y="0"
     inkscape:window-maximized="1"
     inkscape:current-layer="svg2" />
  <defs
     id="defs4">
    <linearGradient
       id="0"
       x1="61.57"
       y1="22.939"
       x2="60.753"
       y2="-27.706"
       gradientUnits="userSpaceOnUse">
      <stop
         stop-color="#2b65bd"
         id="stop7" />
      <stop
         stop-color="#64a3dc"
         offset="1"
         id="stop9" />
    </linearGradient>
  </defs>
  <g
     id="g4145"
     transform="matrix(0.05069069,0,0,0.05065084,-1.8248237,-1.5520658)">
    <g
       id="g4138">
      <path
         style="opacity:1;fill:none;fill-opacity:1;stroke:#6b9bd8;stroke-width:124.22172546;stroke-miterlimit:4;stroke-dasharray:none;stroke-dashoffset:0;stroke-opacity:1"
         d="m 116.37611,99.82881 c -8.4619,0 -15.27342,6.81155 -15.27342,15.27346 l 0,551.81426 c 0,8.46191 6.81152,15.2754 15.27342,15.2754 l 380.37279,0 -61.47227,-63.52972 -262.18555,0 c -8.46189,0 -15.2754,-6.81153 -15.2754,-15.27345 l 0,-426.52113 c 0,-8.4619 6.81351,-15.27345 15.2754,-15.27345 l 422.20829,0 c 8.46197,0 15.2735,6.81155 15.2735,15.27345 l 0,253.03773 60.69594,62.72614 0,-377.52923 c 0,-8.46191 -6.81164,-15.27346 -15.27352,-15.27346 l -539.61918,0 z"
         id="rect3336"
         inkscape:connector-curvature="0" />
      <path
         style="opacity:1;fill:none;fill-opacity:1;stroke:#c42f41;stroke-width:124.22172546;stroke-miterlimit:4;stroke-dasharray:none;stroke-dashoffset:0;stroke-opacity:1"
         d="m 910.56634,929.19832 c 8.46188,0 15.2734,-6.81155 15.2734,-15.27346 l 0,-551.81426 c 0,-8.4619 -6.81152,-15.27544 -15.2734,-15.27544 l -380.37278,0 61.47227,63.52976 262.18554,0 c 8.46188,0 15.2754,6.81153 15.2754,15.27345 l 0,426.52113 c 0,8.4619 -6.81352,15.27345 -15.2754,15.27345 l -422.20827,0 c -8.46199,0 -15.27351,-6.81155 -15.27351,-15.27345 l 0,-253.03773 -60.69593,-62.72614 0,377.52923 c 0,8.46191 6.81162,15.27346 15.27351,15.27346 l 539.61917,0 z"
         id="rect3336-30"
         inkscape:connector-curvature="0" />
      <rect
         style="opacity:1;fill:#c42f41;fill-opacity:1;stroke:none;stroke-width:125;stroke-miterlimit:4;stroke-dasharray:none;stroke-dashoffset:0;stroke-opacity:1"
         id="rect4259"
         width="184.84694"
         height="187.51483"
         x="293.61508"
         y="556.29901"
         ry="41.161793" />
      <rect
         style="opacity:1;fill:#6b9bd8;fill-opacity:1;stroke:none;stroke-width:125;stroke-miterlimit:4;stroke-dasharray:none;stroke-dashoffset:0;stroke-opacity:1"
         id="rect4259-4"
         width="184.84694"
         height="187.51483"
         x="548.77997"
         y="267.85641"
         ry="0" />
      <rect
         style="opacity:1;fill:#6b9bd8;fill-opacity:1;stroke:none;stroke-width:125;stroke-miterlimit:4;stroke-dasharray:none;stroke-dashoffset:0;stroke-opacity:1"
         id="rect4259-4-6"
         width="84.241714"
         height="85.457573"
         x="708.76227"
         y="-164.09425"
         ry="0"
         transform="matrix(0.69445119,0.71953981,-0.71953981,0.69445119,0,0)" />
    </g>
    <rect
       y="452.63232"
       x="640.5542"
       height="23.7845"
       width="93.073135"
       id="rect4291"
       style="opacity:1;fill:#6b9bd8;fill-opacity:1;stroke:none;stroke-width:125;stroke-miterlimit:4;stroke-dasharray:none;stroke-dashoffset:0;stroke-opacity:1" />
  </g>
</svg>
