<?xml version="1.0" encoding="UTF-8" standalone="no"?>
<svg
   xmlns:dc="http://purl.org/dc/elements/1.1/"
   xmlns:cc="http://creativecommons.org/ns#"
   xmlns:rdf="http://www.w3.org/1999/02/22-rdf-syntax-ns#"
   xmlns:svg="http://www.w3.org/2000/svg"
   xmlns="http://www.w3.org/2000/svg"
   xmlns:sodipodi="http://sodipodi.sourceforge.net/DTD/sodipodi-0.dtd"
   xmlns:inkscape="http://www.inkscape.org/namespaces/inkscape"
   viewBox="0 0 48 48"
   id="svg2"
   version="1.1"
   inkscape:version="0.91 r13725"
   sodipodi:docname="wikipedia.svg">
  <metadata
     id="metadata29">
    <rdf:RDF>
      <cc:Work
         rdf:about="">
        <dc:format>image/svg+xml</dc:format>
        <dc:type
           rdf:resource="http://purl.org/dc/dcmitype/StillImage" />
        <dc:title></dc:title>
      </cc:Work>
    </rdf:RDF>
  </metadata>
  <sodipodi:namedview
     pagecolor="#ffffff"
     bordercolor="#666666"
     borderopacity="1"
     objecttolerance="10"
     gridtolerance="10"
     guidetolerance="10"
     inkscape:pageopacity="0"
     inkscape:pageshadow="2"
     inkscape:window-width="1280"
     inkscape:window-height="694"
     id="namedview27"
     showgrid="false"
     inkscape:zoom="4.9166667"
     inkscape:cx="-9.1525424"
     inkscape:cy="24"
     inkscape:window-x="0"
     inkscape:window-y="0"
     inkscape:window-maximized="1"
     inkscape:current-layer="svg2" />
  <defs
     id="defs4">
    <filter
       color-interpolation-filters="sRGB"
       id="filter6">
      <feGaussianBlur
         stdDeviation="1.71"
         id="feGaussianBlur8" />
    </filter>
    <linearGradient
       gradientTransform="scale(1.0059.99417)"
       gradientUnits="userSpaceOnUse"
       y2="7.02"
       x2="0"
       y1="92.54"
       id="linearGradient10">
      <stop
         id="stop12" />
      <stop
         offset="1"
         stop-opacity=".588"
         id="stop14" />
    </linearGradient>
    <linearGradient
       gradientUnits="userSpaceOnUse"
       y2="-26.05"
       x2="-125.19"
       y1="73.5"
       x1="-123.97"
       id="0"
       gradientTransform="matrix(0.49432232,0,0,0.4778,86.64372,13.1)">
      <stop
         stop-color="#d3d3d3"
         id="stop17" />
      <stop
         offset="1"
         stop-color="#fcf9f9"
         id="stop19" />
    </linearGradient>
  </defs>
  <path
     style="fill:#4d4d4d;fill-opacity:0.74900004;fill-rule:evenodd;shape-rendering:geometricPrecision"
     inkscape:connector-curvature="0"
     id="path25"
     d="m 48.084221,0.97541085 c 0,0.27131415 -0.05427,0.51688325 -0.160306,0.74066795 -0.109815,0.2178436 -0.223419,0.330726 -0.354693,0.330726 -1.050193,0.1584318 -1.914836,0.6891778 -2.581305,1.5942186 -0.670256,0.90108 -1.358183,2.6279849 -2.071355,5.1688325 l -10.8844,38.4810661 c -0.07195,0.356472 -0.270122,0.536688 -0.59957,0.536688 -0.257499,0 -0.455672,-0.178236 -0.59957,-0.536688 l -6.10425,-20.02774 -7.019384,20.02774 c -0.143896,0.356472 -0.34207,0.536688 -0.59957,0.536688 -0.311776,0 -0.518785,-0.178236 -0.619765,-0.536688 L 5.7962541,8.8098559 C 5.1297847,6.4195184 4.425448,4.7520253 3.6832438,3.8053962 2.9448264,2.858767 1.9110419,2.2705896 0.59072636,2.0448245 c -0.1136027,0 -0.22341865,-0.093079 -0.3206121,-0.285177 C 0.16913417,1.5734904 0.11864407,1.3556468 0.11864407,1.1100777 c 0,-0.62976575 0.1136027,-0.94068787 0.34207035,-0.94068787 0.95300018,0 1.94891708,0.065353 2.99153718,0.19803956 0.9656229,0.1386277 1.8769689,0.20596114 2.7289887,0.20596114 0.8684296,0 1.8946404,-0.065353 3.0748461,-0.20596114 1.2357446,-0.13268657 2.3326416,-0.19803956 3.2869046,-0.19803956 0.227205,0 0.34207,0.31092212 0.34207,0.94068787 0,0.6218443 -0.07195,0.9327664 -0.210796,0.9327664 -0.953,0.1128822 -1.704041,0.4970793 -2.25312,1.1387275 -0.5478176,0.6495698 -0.8229887,1.4951986 -0.8229887,2.5487691 0,0.5366873 0.1136036,1.2040805 0.342071,2.0061407 L 18.775991,39.050496 23.792181,24.185648 19.118062,8.8098559 C 18.278664,6.0689884 17.58695,4.2965343 17.046706,3.5023956 16.506462,2.7141982 15.688522,2.2250405 14.591625,2.0468048 c -0.100975,0 -0.194386,-0.093078 -0.286531,-0.2851769 -0.09341,-0.1861571 -0.138847,-0.4040007 -0.138847,-0.6495698 0,-0.62976577 0.09719,-0.94068787 0.299153,-0.94068787 0.953001,0 1.82648,0.065353 2.624223,0.19803956 0.767449,0.1386277 1.586651,0.20596114 2.45508,0.20596114 0.85202,0 1.754531,-0.065353 2.708793,-0.20596114 0.983294,-0.13268644 1.948917,-0.19803956 2.901917,-0.19803956 0.227205,0 0.34207,0.3109221 0.34207,0.94068787 0,0.6218443 -0.0669,0.9327664 -0.210796,0.9327664 -1.907263,0.2059611 -2.860263,1.0515901 -2.860263,2.5487691 0,0.6693738 0.219632,1.707101 0.662683,3.1112016 l 3.092517,9.8485068 3.074846,-9.0088192 c 0.426641,-1.2714139 0.641224,-2.342808 0.641224,-3.2161624 0,-2.0516898 -0.953,-3.1448682 -2.860263,-3.2834959 -0.172928,0 -0.2575,-0.3109221 -0.2575,-0.9327664 0,-0.22576505 0.04166,-0.43766739 0.126225,-0.63570695 0.08836,-0.20596114 0.172929,-0.30498092 0.2575,-0.30498092 0.682879,0 1.523538,0.065353 2.518193,0.19803956 0.953001,0.1386277 1.73812,0.20596114 2.350313,0.20596114 0.439264,0 1.088062,-0.0594118 1.940081,-0.17229442 1.080489,-0.15249046 1.986786,-0.23170628 2.71258,-0.23170628 0.169142,0 0.253713,0.265373 0.253713,0.80007982 0,0.71492275 -0.156519,1.07139405 -0.468296,1.07139405 -1.10952,0.1782356 -2.004456,0.6614521 -2.678499,1.4437084 -0.675305,0.7802759 -1.518488,2.5547103 -2.524504,5.321323 L 27.16618,20.710052 32.717565,38.454398 40.914629,8.550424 c 0.282745,-1.091198 0.426642,-2.0972389 0.426642,-3.0121816 0,-2.1903176 -0.953,-3.348849 -2.860263,-3.4874768 -0.172929,0 -0.2575,-0.310922 -0.2575,-0.9327663 0,-0.62976577 0.126226,-0.94068789 0.383725,-0.94068789 0.695501,0 1.523538,0.065353 2.476539,0.19803956 0.882314,0.1386277 1.624518,0.20596114 2.219039,0.20596114 0.628601,0 1.354396,-0.065353 2.177385,-0.20596114 0.855806,-0.13268643 1.624518,-0.19803956 2.307396,-0.19803956 0.198174,0 0.299154,0.26537302 0.299154,0.80007982" />
</svg>
