<?xml version="1.0" encoding="UTF-8" standalone="no"?>
<svg
   xmlns:dc="http://purl.org/dc/elements/1.1/"
   xmlns:cc="http://creativecommons.org/ns#"
   xmlns:rdf="http://www.w3.org/1999/02/22-rdf-syntax-ns#"
   xmlns:svg="http://www.w3.org/2000/svg"
   xmlns="http://www.w3.org/2000/svg"
   xmlns:sodipodi="http://sodipodi.sourceforge.net/DTD/sodipodi-0.dtd"
   xmlns:inkscape="http://www.inkscape.org/namespaces/inkscape"
   viewBox="0 0 48 48"
   id="svg2"
   version="1.1"
   inkscape:version="0.91 r13725"
   sodipodi:docname="wine-winecfg.svg">
  <metadata
     id="metadata32">
    <rdf:RDF>
      <cc:Work
         rdf:about="">
        <dc:format>image/svg+xml</dc:format>
        <dc:type
           rdf:resource="http://purl.org/dc/dcmitype/StillImage" />
        <dc:title></dc:title>
      </cc:Work>
    </rdf:RDF>
  </metadata>
  <sodipodi:namedview
     pagecolor="#ffffff"
     bordercolor="#666666"
     borderopacity="1"
     objecttolerance="10"
     gridtolerance="10"
     guidetolerance="10"
     inkscape:pageopacity="0"
     inkscape:pageshadow="2"
     inkscape:window-width="1280"
     inkscape:window-height="694"
     id="namedview30"
     showgrid="false"
     inkscape:zoom="4.9166667"
     inkscape:cx="-9.1525424"
     inkscape:cy="24"
     inkscape:window-x="0"
     inkscape:window-y="0"
     inkscape:window-maximized="1"
     inkscape:current-layer="svg2" />
  <defs
     id="defs4">
    <linearGradient
       gradientUnits="userSpaceOnUse"
       y2="-29.389"
       x2="-127.3"
       y1="69.3"
       x1="-126.09"
       id="0">
      <stop
         stop-color="#197cf1"
         id="stop7" />
      <stop
         offset="1"
         stop-color="#20bcfa"
         id="stop9" />
    </linearGradient>
    <linearGradient
       id="1"
       y1="923.15"
       x2="0"
       y2="859.58"
       gradientUnits="userSpaceOnUse">
      <stop
         stop-color="#2e3436"
         id="stop12" />
      <stop
         offset="1"
         stop-color="#555753"
         id="stop14" />
    </linearGradient>
  </defs>
  <path
     style="fill:#c83737;fill-opacity:1;stroke:none"
     d="m 8.058261,0.09081503 c 0,0 -9.683703,10.51389897 -7.51911894,15.84110397 1.13129904,5.831271 15.62897894,7.890923 17.94441994,12.681759 2.778229,5.272986 2.300775,10.819414 1.741071,16.249151 l -17.3578972,2.842966 42.2613152,0 -17.357884,-2.842966 C 27.22867,39.298497 27.206909,33.756829 29.394989,28.520536 33.110497,23.135707 44.895812,21.075727 47.460933,15.931919 49.625517,10.604714 39.93917,0.09081503 39.93917,0.09081503 l -31.880909,0 z M 22.414837,11.433136 c 0.110687,-3.29e-4 0.224422,8.16e-4 0.335542,0.003 2.641027,0.04999 5.031203,0.996274 7.661783,1.136884 3.016739,0.161261 6.079155,-0.07538 9.069957,-0.3489 1.222796,-0.111842 2.364109,-0.450834 3.595748,-0.526312 0.574616,-0.03525 1.387612,-0.0237 2.147938,-9.96e-4 0.399468,1.360349 0.484289,2.643807 0.05289,3.701927 -1.805474,3.607919 -8.647874,5.537118 -13.196754,8.494914 -5.935942,2.814308 -11.871103,1.874383 -17.80703,-0.65789 C 9.6586519,20.970237 3.4157791,18.965102 2.7214747,15.398726 2.2951875,14.353232 2.3740841,13.087897 2.7610677,11.745581 c 3.0411454,0.40029 6.9316139,0.831488 9.5111853,0.827913 3.446393,-0.005 6.709402,-1.1307 10.142603,-1.139851 z"
     id="path3774"
     inkscape:connector-curvature="0" />
  <path
     d="m 47.801353,35.223262 c -0.03753,-0.325269 -0.427167,-0.569703 -0.763469,-0.569703 -1.088412,0 -2.054353,-0.622633 -2.459791,-1.585932 -0.413834,-0.986396 -0.147162,-2.136869 0.664208,-2.861991 0.255312,-0.227591 0.286424,-0.608197 0.0721,-0.872838 -0.557046,-0.689516 -1.190142,-1.312147 -1.882005,-1.851537 -0.270621,-0.211714 -0.668159,-0.182364 -0.90273,0.07121 -0.708159,0.764095 -1.980278,1.047985 -2.962515,0.648615 -1.022733,-0.419097 -1.66768,-1.42907 -1.60447,-2.512662 0.02074,-0.340667 -0.23457,-0.636586 -0.582724,-0.676041 -0.887421,-0.100087 -1.782251,-0.102969 -2.672141,-0.0067 -0.344203,0.03705 -0.599516,0.326232 -0.588156,0.662088 0.03852,1.073005 -0.613837,2.065176 -1.626693,2.469357 -0.970879,0.386378 -2.233614,0.104901 -2.940292,-0.652465 -0.233585,-0.249245 -0.624207,-0.28004 -0.89631,-0.07361 -0.71211,0.544202 -1.359528,1.167316 -1.921512,1.851055 -0.219263,0.265606 -0.187163,0.651021 0.07111,0.879577 0.826679,0.729451 1.093844,1.890029 0.664208,2.887011 -0.409883,0.95127 -1.423727,1.564278 -2.584733,1.564278 -0.376795,-0.01154 -0.644947,0.23433 -0.685936,0.568262 -0.104698,0.869471 -0.105681,1.755303 -4.94e-4,2.631991 0.03704,0.326716 0.438526,0.569224 0.778778,0.569224 1.034583,-0.0255 2.027191,0.598092 2.443989,1.585931 0.415315,0.986396 0.148149,2.136389 -0.664208,2.861991 -0.254325,0.227593 -0.286425,0.607716 -0.0721,0.871877 0.552107,0.684702 1.185203,1.308297 1.879042,1.852498 0.272102,0.213641 0.668158,0.183327 0.904211,-0.06978 0.710628,-0.76602 1.980278,-1.049429 2.961034,-0.649096 1.025201,0.417654 1.670149,1.427627 1.606938,2.51218 -0.02075,0.340668 0.236052,0.637069 0.582725,0.676041 0.453834,0.05148 0.910632,0.07747 1.368417,0.07747 0.434574,0 0.869149,-0.0231 1.303723,-0.07024 0.344697,-0.03705 0.599516,-0.326233 0.588157,-0.663051 -0.04,-1.072524 0.613837,-2.064694 1.625211,-2.467913 0.977299,-0.388784 2.235096,-0.104415 2.941774,0.651983 0.235066,0.248764 0.622726,0.279078 0.89631,0.07315 0.710628,-0.542759 1.356565,-1.16539 1.921512,-1.851056 0.219262,-0.265123 0.18815,-0.651021 -0.07111,-0.879577 -0.82668,-0.729451 -1.094832,-1.890029 -0.66569,-2.88701 0.403958,-0.93876 1.379775,-1.569091 2.430163,-1.569091 l 0.146668,0.0038 c 0.340746,0.02694 0.653837,-0.228556 0.69532,-0.567299 0.104698,-0.870434 0.10568,-1.755303 0.0054,-2.631992 m -11.784875,5.169676 c -2.184724,0 -3.960554,-1.731726 -3.960554,-3.858973 0,-2.128689 1.777311,-3.858972 3.960554,-3.858972 2.184726,0 3.960556,1.731727 3.960556,3.858972 0,2.12869 -1.777311,3.858973 -3.960556,3.858973"
     id="path28"
     inkscape:connector-curvature="0"
     style="fill:#de8787;fill-opacity:1;fill-rule:evenodd;stroke-width:1.31700003" />
</svg>
