<?xml version="1.0" encoding="UTF-8" standalone="no"?>
<svg
   xmlns:dc="http://purl.org/dc/elements/1.1/"
   xmlns:cc="http://creativecommons.org/ns#"
   xmlns:rdf="http://www.w3.org/1999/02/22-rdf-syntax-ns#"
   xmlns:svg="http://www.w3.org/2000/svg"
   xmlns="http://www.w3.org/2000/svg"
   xmlns:sodipodi="http://sodipodi.sourceforge.net/DTD/sodipodi-0.dtd"
   xmlns:inkscape="http://www.inkscape.org/namespaces/inkscape"
   viewBox="0 0 48 48"
   id="svg2"
   version="1.1"
   inkscape:version="0.91 r13725"
   sodipodi:docname="zaz.svg">
  <metadata
     id="metadata31">
    <rdf:RDF>
      <cc:Work
         rdf:about="">
        <dc:format>image/svg+xml</dc:format>
        <dc:type
           rdf:resource="http://purl.org/dc/dcmitype/StillImage" />
        <dc:title></dc:title>
      </cc:Work>
    </rdf:RDF>
  </metadata>
  <sodipodi:namedview
     pagecolor="#ffffff"
     bordercolor="#666666"
     borderopacity="1"
     objecttolerance="10"
     gridtolerance="10"
     guidetolerance="10"
     inkscape:pageopacity="0"
     inkscape:pageshadow="2"
     inkscape:window-width="1280"
     inkscape:window-height="694"
     id="namedview29"
     showgrid="false"
     inkscape:zoom="4.9166667"
     inkscape:cx="-9.1525424"
     inkscape:cy="24"
     inkscape:window-x="0"
     inkscape:window-y="0"
     inkscape:window-maximized="1"
     inkscape:current-layer="svg2" />
  <defs
     id="defs4">
    <clipPath
       id="clipPath6">
      <path
         d="m-24 13c0 1.105-.672 2-1.5 2-.828 0-1.5-.895-1.5-2 0-1.105.672-2 1.5-2 .828 0 1.5.895 1.5 2"
         transform="matrix(15.33333 0 0 11.5 415-125.5)"
         fill="#1890d0"
         id="path8" />
    </clipPath>
    <clipPath
       id="clipPath10">
      <path
         d="m-24 13c0 1.105-.672 2-1.5 2-.828 0-1.5-.895-1.5-2 0-1.105.672-2 1.5-2 .828 0 1.5.895 1.5 2"
         transform="matrix(15.33333 0 0 11.5 415-125.5)"
         fill="#1890d0"
         id="path12" />
    </clipPath>
    <linearGradient
       gradientUnits="userSpaceOnUse"
       y2="517.8"
       x2="0"
       y1="545.8"
       id="linearGradient14">
      <stop
         stop-color="#3889e9"
         id="stop16" />
      <stop
         offset="1"
         stop-color="#5ea5fb"
         id="stop18" />
    </linearGradient>
    <linearGradient
       gradientUnits="userSpaceOnUse"
       y2="301.3"
       x2="0"
       y1="653.96"
       id="0">
      <stop
         stop-color="#0a80fd"
         id="stop21" />
      <stop
         offset="1"
         stop-color="#56c5fa"
         id="stop23" />
    </linearGradient>
  </defs>
  <path
     d="m-374.67 462.39c-4.616-21.581 13.517-40.585 34.07-43.34 29-3.889 53.57 20.405 56.1 48.32 3.303 36.39-27.298 66.62-62.58 68.866-43.756 2.783-79.71-34.19-81.63-76.83-2.298-51.12 41.09-92.82 91.09-94.39 58.48-1.834 105.95 47.982 107.15 105.34 1.384 65.843-54.877 119.08-119.6 119.92-73.2.943-132.22-61.772-132.68-133.85-.509-80.56 68.67-145.37 148.11-145.44 87.92-.079 158.52 75.56 158.2 162.36-.138 37.805-13.384 74.98-36.838 104.59"
     transform="matrix(.1086 0 0 .11147 60.2-26.539)"
     stroke-opacity=".851"
     fill="none"
     fill-rule="evenodd"
     stroke="#fff"
     stroke-linejoin="round"
     stroke-linecap="round"
     stroke-width="26.01"
     id="path27" />
  <g
     id="g4142"
     transform="matrix(0.39871933,0,0,0.39698485,-1.4128544,-1.3186163)">
    <path
       inkscape:connector-curvature="0"
       style="fill:#5599ff;fill-opacity:1;fill-rule:evenodd;stroke:none"
       id="path26"
       d="m 80.182846,15.25846 c -1.154315,0.05435 -2.290513,0.191523 -3.478475,0.323519 C 54.322041,18.027782 35.586416,27.500414 38.852663,51.492574 41.966209,61.81412 58.962596,66.454675 64.250189,64.029577 66.160244,56.790519 76.20227,43.052614 90.94179,49.87498 c 12.89417,7.399523 23.98698,27.832976 21.99928,48.367365 6.80943,-9.679684 10.83918,-21.476476 10.83918,-34.212768 0,-17.301789 -7.384,-32.87987 -19.16785,-43.75528 -0.0543,-0.02588 -0.10611,-0.05694 -0.16305,-0.08023 -6.447084,-2.963433 -13.427327,-4.749257 -20.782853,-4.933016 -1.149139,-0.02847 -2.321571,-0.05435 -3.478474,0 z" />
    <path
       inkscape:connector-curvature="0"
       style="fill:#ff2a2a;fill-opacity:1;fill-rule:evenodd;stroke:none"
       id="path28"
       d="m 64.239836,4.5021059 c -21.908698,0 -41.024781,11.8123201 -51.359268,29.4402161 -1.814294,16.095711 5.103833,30.242545 16.662516,36.881152 14.729167,6.824954 32.786697,0.445162 34.696752,-6.793897 C 58.952244,66.457263 41.958444,61.816708 38.84231,51.492574 35.576064,27.500414 54.311689,18.027782 76.694019,15.581979 86.676517,14.492367 96.053388,16.283368 104.51664,20.191476 93.918164,10.447087 79.773918,4.5072822 64.237248,4.5072822 Z M 87.289909,48.578316 c 0.499513,0.129408 1.024908,0.30799 1.537362,0.486572 -0.527983,-0.18117 -1.02232,-0.357164 -1.537362,-0.486572 z" />
    <path
       inkscape:connector-curvature="0"
       style="fill:#00ff66;fill-opacity:1;fill-rule:nonzero;stroke:none"
       id="path30"
       d="M 83.15922,48.016687 C 72.70309,47.964927 65.790139,58.157063 64.232072,64.032166 65.132748,63.729352 83.32745,58.773043 86.717928,68.077446 89.984174,92.07737 74.160219,110.03395 51.777889,112.4901 c -9.982498,1.08961 -19.356781,-0.70139 -27.822623,-4.6095 10.598478,9.74439 24.742723,15.6842 40.279394,15.6842 20.140991,0 37.919,-10.00579 48.69088,-25.314685 1.97476,-20.518866 -9.11288,-40.952318 -21.999279,-48.367371 -2.758969,-1.283723 -5.357473,-1.850528 -7.764453,-1.86088 z" />
    <path
       inkscape:connector-curvature="0"
       style="fill:#ffdd55;fill-opacity:1;fill-rule:nonzero;stroke:none"
       id="path32"
       d="m 12.880568,33.942322 c -5.173714,8.823007 -8.1682047,19.118672 -8.1682047,30.087255 0,17.3432 7.4150527,32.957518 19.2506667,43.838083 8.465842,3.9107 17.837537,5.69911 27.822623,4.6095 22.38233,-2.4458 38.206286,-20.392026 34.940039,-44.412655 -0.170818,-0.5461 -0.403752,-1.061142 -0.647038,-1.537362 -0.05176,-0.09059 -0.03106,-0.163053 -0.08023,-0.243286 -0.232934,-0.393399 -0.53316,-0.706565 -0.810092,-1.050789 -0.10094,-0.121643 -0.163055,-0.292461 -0.243288,-0.403752 -0.323519,-0.344224 -0.706565,-0.678095 -1.050789,-0.970556 -0.100938,-0.06988 -0.170818,-0.170818 -0.243286,-0.243287 -0.263992,-0.170818 -0.579746,-0.253638 -0.810092,-0.403751 -0.263991,-0.152701 -0.51763,-0.354577 -0.810091,-0.486573 -0.191523,-0.09059 -0.434809,-0.163053 -0.647038,-0.243286 -0.375282,-0.152701 -0.706565,-0.282108 -1.13361,-0.403751 -0.131996,-0.04141 -0.271756,-0.121643 -0.403751,-0.163054 -0.737623,-0.201876 -1.558067,-0.302814 -2.344865,-0.403751 -0.375282,-0.05176 -0.810091,-0.05176 -1.213843,-0.08023 -0.859266,-0.06988 -1.697827,-0.170818 -2.588151,-0.163054 -1.102552,0.01035 -2.212869,0.121643 -3.315421,0.243287 -1.081848,0.11129 -2.122284,0.212228 -3.154957,0.403751 -1.951465,0.789386 -2.153341,1.395014 -2.831437,2.021346 0.0207,-0.01035 -0.06988,-0.01035 -0.08023,0 -0.02071,0.01035 -0.05176,0.06988 -0.08023,0.08023 C 62.33755,71.245342 44.259315,77.635487 29.540501,70.810533 17.981813,64.177102 11.068862,50.027681 12.877979,33.929381 Z" />
  </g>
</svg>
