<?xml version="1.0" encoding="UTF-8" standalone="no"?>
<svg
   xmlns:dc="http://purl.org/dc/elements/1.1/"
   xmlns:cc="http://creativecommons.org/ns#"
   xmlns:rdf="http://www.w3.org/1999/02/22-rdf-syntax-ns#"
   xmlns:svg="http://www.w3.org/2000/svg"
   xmlns="http://www.w3.org/2000/svg"
   xmlns:sodipodi="http://sodipodi.sourceforge.net/DTD/sodipodi-0.dtd"
   xmlns:inkscape="http://www.inkscape.org/namespaces/inkscape"
   viewBox="0 0 48 48"
   id="svg2"
   version="1.1"
   inkscape:version="0.91 r13725"
   sodipodi:docname="distributor-logo-blag.svg">
  <metadata
     id="metadata35">
    <rdf:RDF>
      <cc:Work
         rdf:about="">
        <dc:format>image/svg+xml</dc:format>
        <dc:type
           rdf:resource="http://purl.org/dc/dcmitype/StillImage" />
        <dc:title></dc:title>
      </cc:Work>
    </rdf:RDF>
  </metadata>
  <sodipodi:namedview
     pagecolor="#ffffff"
     bordercolor="#666666"
     borderopacity="1"
     objecttolerance="10"
     gridtolerance="10"
     guidetolerance="10"
     inkscape:pageopacity="0"
     inkscape:pageshadow="2"
     inkscape:window-width="1280"
     inkscape:window-height="694"
     id="namedview33"
     showgrid="false"
     inkscape:zoom="4.9166667"
     inkscape:cx="-9.1525424"
     inkscape:cy="24"
     inkscape:window-x="0"
     inkscape:window-y="0"
     inkscape:window-maximized="1"
     inkscape:current-layer="svg2" />
  <defs
     id="defs4">
    <linearGradient
       y2="517.8"
       x2="0"
       y1="545.8"
       gradientUnits="userSpaceOnUse"
       id="linearGradient6">
      <stop
         stop-color="#3889e9"
         id="stop8" />
      <stop
         offset="1"
         stop-color="#5ea5fb"
         id="stop10" />
    </linearGradient>
    <linearGradient
       x1="-324.94"
       y1="649.74"
       x2="-328.21"
       y2="307.75"
       gradientUnits="userSpaceOnUse"
       id="linearGradient12">
      <stop
         stop-color="#016ed4"
         id="stop14" />
      <stop
         offset="1"
         stop-color="#00b1ff"
         id="stop16" />
    </linearGradient>
    <linearGradient
       gradientUnits="userSpaceOnUse"
       x1="346.57"
       y1="513.8"
       x2="361.57"
       y2="528.8"
       id="linearGradient18">
      <stop
         stop-color="#2e5d89"
         id="stop20" />
      <stop
         offset="1"
         stop-color="#1b92f4"
         id="stop22" />
    </linearGradient>
    <linearGradient
       gradientUnits="userSpaceOnUse"
       y2="516.48"
       x2="0"
       y1="546.93"
       id="0">
      <stop
         stop-color="#9662ff"
         id="stop25" />
      <stop
         offset="1"
         stop-color="#bc9bff"
         id="stop27" />
    </linearGradient>
  </defs>
  <path
     d="m 48.00406,18.728991 c 0,-0.742311 -0.537977,-1.204016 -1.615839,-1.385117 L 31.906722,15.146793 25.414752,1.4528484 C 25.050378,0.6309331 24.577265,0.21898039 24.001133,0.21898039 c -0.576132,0 -1.047338,0.41195271 -1.413621,1.23386801 L 16.095542,15.146793 1.6121362,17.343874 c -1.07595361,0.181101 -1.61583756,0.642806 -1.61583756,1.385117 0,0.421903 0.24037165,0.90351 0.7211167,1.444819 L 11.219412,30.826867 8.7393767,45.874086 c -0.03816,0.280605 -0.057232,0.481607 -0.057232,0.603004 0,0.421903 0.1011158,0.778132 0.3033283,1.068689 0.2022165,0.290555 0.5055449,0.435833 0.9080743,0.435833 0.3472046,0 0.7306556,-0.119408 1.1541696,-0.36021 l 12.953415,-7.102701 12.955324,7.102701 c 0.404436,0.240803 0.789797,0.36021 1.154171,0.36021 0.385358,0 0.679147,-0.145278 0.879459,-0.435833 0.202218,-0.290557 0.303327,-0.646786 0.303327,-1.068689 0,-0.260705 -0.0096,-0.461706 -0.02861,-0.603004 L 36.782854,30.826867 47.254326,20.17381 c 0.499824,-0.521409 0.749734,-1.003015 0.749734,-1.444819"
     id="path31"
     style="fill:#5a2ca0;fill-opacity:1;stroke-width:1.31700003"
     inkscape:connector-curvature="0" />
</svg>
