<?xml version="1.0" encoding="UTF-8" standalone="no"?>
<svg
   xmlns:dc="http://purl.org/dc/elements/1.1/"
   xmlns:cc="http://creativecommons.org/ns#"
   xmlns:rdf="http://www.w3.org/1999/02/22-rdf-syntax-ns#"
   xmlns:svg="http://www.w3.org/2000/svg"
   xmlns="http://www.w3.org/2000/svg"
   xmlns:sodipodi="http://sodipodi.sourceforge.net/DTD/sodipodi-0.dtd"
   xmlns:inkscape="http://www.inkscape.org/namespaces/inkscape"
   viewBox="0 0 48 48"
   id="svg2"
   version="1.1"
   inkscape:version="0.91 r13725"
   sodipodi:docname="AdobeBridge.svg">
  <metadata
     id="metadata23">
    <rdf:RDF>
      <cc:Work
         rdf:about="">
        <dc:format>image/svg+xml</dc:format>
        <dc:type
           rdf:resource="http://purl.org/dc/dcmitype/StillImage" />
        <dc:title></dc:title>
      </cc:Work>
    </rdf:RDF>
  </metadata>
  <sodipodi:namedview
     pagecolor="#ffffff"
     bordercolor="#666666"
     borderopacity="1"
     objecttolerance="10"
     gridtolerance="10"
     guidetolerance="10"
     inkscape:pageopacity="0"
     inkscape:pageshadow="2"
     inkscape:window-width="1280"
     inkscape:window-height="694"
     id="namedview21"
     showgrid="false"
     inkscape:zoom="4.9166667"
     inkscape:cx="-14.96958"
     inkscape:cy="24"
     inkscape:window-x="0"
     inkscape:window-y="0"
     inkscape:window-maximized="1"
     inkscape:current-layer="svg2" />
  <defs
     id="defs4">
    <clipPath
       id="clipPath6">
      <path
         d="m7 1023.36h1v1h-1z"
         id="path8" />
    </clipPath>
    <linearGradient
       id="0"
       gradientUnits="userSpaceOnUse"
       y1="61.831"
       x2="0"
       y2="-.203">
      <stop
         stop-color="#673508"
         id="stop11" />
      <stop
         stop-color="#ce873f"
         offset="1"
         id="stop13" />
    </linearGradient>
  </defs>
  <path
     style="fill:#a02c2c;fill-rule:evenodd"
     inkscape:connector-curvature="0"
     id="path19"
     d="m 47.888383,19.943335 c -0.165317,-0.214669 -0.381272,-0.342589 -0.652334,-0.383759 l -5.677385,-0.857208 c -0.309783,-0.980716 -0.734247,-1.980546 -1.271901,-3.002432 0.372336,-0.510207 0.930841,-1.230674 1.675514,-2.159928 0.744673,-0.929254 1.271901,-1.60855 1.581685,-2.036419 0.165317,-0.224962 0.247232,-0.458746 0.247232,-0.704292 0,-0.285246 -0.07149,-0.510208 -0.217445,-0.673416 C 42.829077,9.083411 41.122286,7.348411 38.453378,4.9179407 38.206148,4.7135635 37.947,4.6121101 37.678919,4.6121101 c -0.309784,0 -0.558504,0.091162 -0.744672,0.2749534 L 32.528763,8.1644491 C 31.679835,7.7351101 30.748994,7.3572331 29.736239,7.0293475 L 28.86795,1.3935381 c -0.02085,-0.2661314 -0.139999,-0.48521183 -0.357442,-0.65871183 -0.217446,-0.1735 -0.470634,-0.26025 -0.761056,-0.26025 l -6.889712,0 c -0.600208,0 -0.972544,0.28524576 -1.11701,0.85720763 -0.269571,1.0204152 -0.568931,2.9200932 -0.899565,5.6960932 -0.972543,0.3073008 -1.91232,0.6954704 -2.823799,1.1645085 L 11.737498,4.915 C 11.467927,4.7106229 11.199843,4.6091695 10.930272,4.6091695 c -0.45574,0 -1.4327508,0.7292881 -2.9325213,2.190805 -1.5042392,1.4600467 -2.5184841,2.5583899 -3.0576271,3.2935595 -0.186168,0.266131 -0.2785078,0.499915 -0.2785078,0.704292 0,0.245547 0.1027695,0.489623 0.3097847,0.73517 1.3865798,1.654131 2.4931646,3.062716 3.3197506,4.227224 -0.5168025,0.939547 -0.9204155,1.879094 -1.2093482,2.81864 l -5.7697251,0.857208 c -0.2278699,0.04116 -0.42446348,0.1735 -0.5897808,0.398462 -0.16531733,0.224962 -0.24872073,0.458746 -0.24872073,0.704292 l 0,6.801788 c 0,0.266132 0.0819138,0.505797 0.24872073,0.718996 0.16531732,0.21467 0.3812724,0.342589 0.6523333,0.383758 l 5.6788749,0.827802 c 0.2889328,0.99983 0.7133965,2.011423 1.2719007,3.030368 -0.3723361,0.510208 -0.9308402,1.230674 -1.6755137,2.159928 -0.7446721,0.929254 -1.2719007,1.60855 -1.5816842,2.03642 -0.1653185,0.224962 -0.2487206,0.458745 -0.2487206,0.704292 0,0.266131 0.072978,0.499915 0.2174437,0.704292 0.8072259,1.102754 2.5125257,2.81864 5.1203709,5.146186 0.22787,0.224962 0.487016,0.336708 0.775949,0.336708 0.309783,0 0.56893,-0.09116 0.775949,-0.274953 l 4.375697,-3.278856 c 0.848927,0.429339 1.779768,0.807216 2.792524,1.135101 l 0.868287,5.63581 c 0.02085,0.266132 0.139998,0.485212 0.357444,0.658712 0.217443,0.1735 0.470633,0.26025 0.759565,0.26025 l 6.889713,0 c 0.600207,0 0.972543,-0.285246 1.1185,-0.857208 0.268081,-1.021886 0.568929,-2.920093 0.899564,-5.696093 0.972543,-0.305831 1.915297,-0.695471 2.823799,-1.164509 l 4.281869,3.308263 c 0.288933,0.183793 0.558504,0.274953 0.807224,0.274953 0.454251,0 1.426794,-0.724876 2.916139,-2.174631 1.489346,-1.449754 2.514015,-2.552509 3.069542,-3.308263 0.186168,-0.204376 0.279997,-0.43816 0.279997,-0.704292 0,-0.266132 -0.102769,-0.52197 -0.309783,-0.766046 -1.489346,-1.796754 -2.595931,-3.20534 -3.319753,-4.227225 0.414038,-0.755755 0.817651,-1.685009 1.210838,-2.787763 l 5.739938,-0.857208 c 0.247233,-0.04116 0.45574,-0.1735 0.621059,-0.398462 0.165316,-0.224961 0.24723,-0.460216 0.24723,-0.704292 l 0,-6.801788 c 0,-0.266131 -0.08191,-0.504326 -0.24723,-0.718996 m -17.961509,9.602784 c -1.551899,1.532094 -3.424006,2.29814 -5.616322,2.29814 -2.192317,0 -4.064424,-0.766046 -5.616322,-2.29814 C 17.145312,28.012555 16.370852,26.16581 16.370852,24 c 0,-2.164339 0.775949,-4.012555 2.326358,-5.544648 1.551898,-1.532094 3.424005,-2.29667 5.616322,-2.29667 2.192316,0 4.064423,0.766047 5.616322,2.29667 1.551898,1.532093 2.326358,3.380309 2.326358,5.544648 0,2.164339 -0.77595,4.012555 -2.326358,5.544648" />
  <path
     style="fill:#c83737;fill-rule:evenodd"
     inkscape:connector-curvature="0"
     id="path19-4"
     d="m 47.706148,33.381358 c -0.08349,-0.111665 -0.19255,-0.178205 -0.329443,-0.19962 l -2.867194,-0.445897 c -0.156446,-0.510142 -0.370809,-1.030226 -0.642336,-1.561784 0.188038,-0.265396 0.470094,-0.640163 0.846169,-1.123536 0.376075,-0.483372 0.642336,-0.836724 0.798783,-1.05929 0.08349,-0.117019 0.124857,-0.238628 0.124857,-0.366354 0,-0.148377 -0.0361,-0.265396 -0.109814,-0.350292 -0.376074,-0.542265 -1.238038,-1.444765 -2.585891,-2.709029 -0.124856,-0.106312 -0.255731,-0.159086 -0.391118,-0.159086 -0.156447,0 -0.282056,0.04742 -0.376074,0.143024 l -2.224858,1.704807 c -0.428727,-0.223331 -0.89882,-0.419892 -1.410281,-0.59045 l -0.438504,-2.931595 c -0.01053,-0.138434 -0.07071,-0.252393 -0.180515,-0.342643 -0.109815,-0.09025 -0.23768,-0.135375 -0.384349,-0.135375 l -3.479444,0 c -0.303117,0 -0.491154,0.148377 -0.564112,0.445895 -0.13614,0.530793 -0.287322,1.518954 -0.454299,2.962954 -0.491154,0.15985 -0.96576,0.361764 -1.426076,0.605746 l -2.16243,-1.704807 c -0.136138,-0.106312 -0.271526,-0.159086 -0.407665,-0.159086 -0.230158,0 -0.723568,0.379357 -1.480982,1.139598 -0.759671,0.759477 -1.271886,1.330805 -1.544163,1.71322 -0.09402,0.138435 -0.140653,0.260043 -0.140653,0.366355 0,0.127726 0.0519,0.254688 0.156447,0.382415 0.700251,0.860434 1.259099,1.593141 1.676542,2.198887 -0.260996,0.488727 -0.464828,0.977454 -0.610745,1.46618 l -2.913828,0.445897 c -0.115079,0.02141 -0.214363,0.09025 -0.297852,0.207269 -0.08349,0.117019 -0.125609,0.238627 -0.125609,0.366354 l 0,3.538105 c 0,0.138435 0.04136,0.263102 0.125609,0.374003 0.08349,0.111665 0.19255,0.178206 0.329442,0.19962 l 2.867946,0.4306 c 0.145917,0.520085 0.36028,1.046288 0.642336,1.576316 -0.188037,0.265396 -0.470093,0.640163 -0.846168,1.123536 -0.376075,0.483372 -0.642336,0.836724 -0.798783,1.059291 -0.08349,0.117018 -0.125609,0.238626 -0.125609,0.366353 0,0.138434 0.03686,0.260042 0.109814,0.366353 0.407665,0.573623 1.268877,1.466181 2.58589,2.676907 0.11508,0.117019 0.245954,0.175146 0.391871,0.175146 0.156446,0 0.28732,-0.04742 0.39187,-0.143023 l 2.209815,-1.705572 c 0.428725,0.223331 0.898819,0.419892 1.410281,0.590449 l 0.438502,2.931596 c 0.01053,0.138434 0.07071,0.252394 0.180517,0.342644 0.109813,0.09025 0.237679,0.135375 0.383596,0.135375 l 3.479444,0 c 0.303116,0 0.491153,-0.148377 0.564865,-0.445897 0.135386,-0.531556 0.287321,-1.518953 0.454298,-2.962953 0.491154,-0.159085 0.967264,-0.361765 1.426076,-0.605746 l 2.16243,1.720869 c 0.145917,0.0956 0.282056,0.143024 0.407665,0.143024 0.229405,0 0.720559,-0.377062 1.472709,-1.131185 0.75215,-0.754122 1.269628,-1.327746 1.550181,-1.720869 0.09402,-0.10631 0.141404,-0.227919 0.141404,-0.366353 0,-0.138435 -0.0519,-0.271515 -0.156447,-0.398477 -0.75215,-0.934623 -1.310998,-1.667331 -1.676542,-2.198888 0.209097,-0.393123 0.41293,-0.876496 0.611497,-1.450119 l 2.898784,-0.445896 c 0.124859,-0.02141 0.230159,-0.09025 0.313648,-0.207269 0.08349,-0.117019 0.124856,-0.239392 0.124856,-0.366354 l 0,-3.538106 c 0,-0.138434 -0.04136,-0.262337 -0.124856,-0.374002 m -9.070925,4.995108 c -0.78374,0.796954 -1.729192,1.19543 -2.836357,1.19543 -1.107164,0 -2.052615,-0.398476 -2.836355,-1.19543 -0.78374,-0.796953 -1.174858,-1.757579 -1.174858,-2.884175 0,-1.125831 0.39187,-2.087222 1.174858,-2.884176 0.78374,-0.796954 1.729191,-1.194666 2.836355,-1.194666 1.107165,0 2.052617,0.398477 2.836357,1.194666 0.78374,0.796954 1.174858,1.758345 1.174858,2.884176 0,1.12583 -0.391871,2.087222 -1.174858,2.884175" />
</svg>
