<?xml version="1.0" encoding="UTF-8" standalone="no"?>
<svg
   xmlns:dc="http://purl.org/dc/elements/1.1/"
   xmlns:cc="http://creativecommons.org/ns#"
   xmlns:rdf="http://www.w3.org/1999/02/22-rdf-syntax-ns#"
   xmlns:svg="http://www.w3.org/2000/svg"
   xmlns="http://www.w3.org/2000/svg"
   xmlns:sodipodi="http://sodipodi.sourceforge.net/DTD/sodipodi-0.dtd"
   xmlns:inkscape="http://www.inkscape.org/namespaces/inkscape"
   viewBox="0 0 48 48"
   id="svg2"
   version="1.1"
   inkscape:version="0.91 r13725"
   sodipodi:docname="amazon-store.svg">
  <metadata
     id="metadata25">
    <rdf:RDF>
      <cc:Work
         rdf:about="">
        <dc:format>image/svg+xml</dc:format>
        <dc:type
           rdf:resource="http://purl.org/dc/dcmitype/StillImage" />
        <dc:title></dc:title>
      </cc:Work>
    </rdf:RDF>
  </metadata>
  <sodipodi:namedview
     pagecolor="#ffffff"
     bordercolor="#666666"
     borderopacity="1"
     objecttolerance="10"
     gridtolerance="10"
     guidetolerance="10"
     inkscape:pageopacity="0"
     inkscape:pageshadow="2"
     inkscape:window-width="1280"
     inkscape:window-height="694"
     id="namedview23"
     showgrid="false"
     inkscape:zoom="4.9166667"
     inkscape:cx="-9.1525424"
     inkscape:cy="24"
     inkscape:window-x="0"
     inkscape:window-y="0"
     inkscape:window-maximized="1"
     inkscape:current-layer="svg2" />
  <defs
     id="defs4">
    <linearGradient
       id="0"
       x1="62.4"
       y1="29.832"
       x2="61.709"
       y2="-15.09"
       gradientUnits="userSpaceOnUse"
       gradientTransform="matrix(0.99999,0,0,0.99999,-38.37,15.882)">
      <stop
         stop-color="#2e3e46"
         id="stop7" />
      <stop
         offset="1"
         stop-color="#435a64"
         id="stop9" />
    </linearGradient>
  </defs>
  <g
     style="fill:#ff6600;fill-opacity:0.85;fill-rule:evenodd"
     id="g15"
     transform="matrix(1.8135644,0,0,1.813831,-89.116915,9.2699485)">
    <path
       inkscape:connector-curvature="0"
       id="path17"
       d="m 64.24,6.295 c 0,1.367 0.035,2.504 -0.625,3.715 -0.531,0.984 -1.375,1.59 -2.316,1.59 -1.285,0 -2.031,-1.023 -2.031,-2.535 0,-2.984 2.555,-3.527 4.973,-3.527 l 0,0.758 m 3.375,8.531 c -0.219,0.207 -0.539,0.223 -0.789,0.086 -1.109,-0.965 -1.309,-1.414 -1.922,-2.336 -1.836,1.961 -3.133,2.547 -5.516,2.547 -2.816,0 -5.01,-1.816 -5.01,-5.453 0,-2.84 1.473,-4.777 3.566,-5.723 1.813,-0.836 4.352,-0.984 6.293,-1.215 l 0,-0.453 c 0,-0.832 0.063,-1.816 -0.402,-2.535 -0.41,-0.645 -1.191,-0.91 -1.879,-0.91 -1.277,0 -2.414,0.684 -2.691,2.102 -0.059,0.316 -0.277,0.625 -0.582,0.641 L 55.438,1.215 c -0.273,-0.066 -0.574,-0.297 -0.5,-0.734 0.75,-4.109 4.305,-5.352 7.484,-5.352 1.629,0 3.758,0.453 5.04,1.742 1.629,1.59 1.473,3.711 1.473,6.02 l 0,5.453 c 0,1.641 0.648,2.359 1.262,3.246 0.215,0.313 0.262,0.695 -0.008,0.93 -0.684,0.602 -1.898,1.703 -2.566,2.324 l -0.012,-0.012"
       style="fill:#ff6600" />
    <path
       inkscape:connector-curvature="0"
       id="path19"
       d="m 72.876,17.823 c -2.848,2.148 -6.973,3.297 -10.527,3.297 -4.98,0 -9.465,-1.887 -12.859,-5.03 -0.266,-0.246 -0.027,-0.582 0.293,-0.391 3.66,2.184 8.191,3.496 12.867,3.496 3.152,0 6.625,-0.668 9.813,-2.059 0.484,-0.207 0.887,0.324 0.414,0.684"
       style="fill:#ff6600" />
    <path
       inkscape:connector-curvature="0"
       id="path21"
       d="m 74.06,16.435 c -0.363,-0.477 -2.406,-0.227 -3.32,-0.113 -0.281,0.035 -0.324,-0.215 -0.07,-0.395 1.625,-1.172 4.297,-0.836 4.605,-0.441 0.313,0.395 -0.078,3.137 -1.609,4.445 -0.234,0.203 -0.457,0.094 -0.352,-0.172 0.34,-0.879 1.113,-2.848 0.746,-3.324"
       style="fill:#ff6600" />
  </g>
</svg>
