<?xml version="1.0" encoding="UTF-8" standalone="no"?>
<svg
   xmlns:dc="http://purl.org/dc/elements/1.1/"
   xmlns:cc="http://creativecommons.org/ns#"
   xmlns:rdf="http://www.w3.org/1999/02/22-rdf-syntax-ns#"
   xmlns:svg="http://www.w3.org/2000/svg"
   xmlns="http://www.w3.org/2000/svg"
   xmlns:sodipodi="http://sodipodi.sourceforge.net/DTD/sodipodi-0.dtd"
   xmlns:inkscape="http://www.inkscape.org/namespaces/inkscape"
   viewBox="0 0 48 48"
   id="svg2"
   version="1.1"
   inkscape:version="0.91 r13725"
   sodipodi:docname="cxmenu-cxoffice-0-cxrun.svg">
  <metadata
     id="metadata44">
    <rdf:RDF>
      <cc:Work
         rdf:about="">
        <dc:format>image/svg+xml</dc:format>
        <dc:type
           rdf:resource="http://purl.org/dc/dcmitype/StillImage" />
        <dc:title></dc:title>
      </cc:Work>
    </rdf:RDF>
  </metadata>
  <sodipodi:namedview
     pagecolor="#ffffff"
     bordercolor="#666666"
     borderopacity="1"
     objecttolerance="10"
     gridtolerance="10"
     guidetolerance="10"
     inkscape:pageopacity="0"
     inkscape:pageshadow="2"
     inkscape:window-width="1280"
     inkscape:window-height="694"
     id="namedview42"
     showgrid="false"
     inkscape:zoom="4.9166667"
     inkscape:cx="-14.960657"
     inkscape:cy="24"
     inkscape:window-x="0"
     inkscape:window-y="0"
     inkscape:window-maximized="1"
     inkscape:current-layer="svg2" />
  <defs
     id="defs4">
    <linearGradient
       id="3"
       y1="923.15"
       x2="0"
       y2="859.58"
       gradientUnits="userSpaceOnUse"
       gradientTransform="matrix(0.28097991,0,0,0.28097991,-5.3719049,-212.78276)">
      <stop
         stop-color="#2e3436"
         id="stop7" />
      <stop
         offset="1"
         stop-color="#555753"
         id="stop9" />
    </linearGradient>
    <linearGradient
       id="2"
       y1="547.8"
       x2="0"
       y2="499.8"
       gradientUnits="userSpaceOnUse"
       gradientTransform="translate(-384.57,-499.8)">
      <stop
         stop-color="#e7e7e7"
         id="stop12" />
      <stop
         offset="1"
         stop-color="#fcfcfc"
         id="stop14" />
    </linearGradient>
    <linearGradient
       id="0"
       y1="536.64"
       x2="0"
       y2="515.74"
       gradientUnits="userSpaceOnUse"
       gradientTransform="matrix(1.24675,0,0,1.24675,-485.39,-629.05)">
      <stop
         stop-color="#197ff1"
         id="stop17" />
      <stop
         offset="1"
         stop-color="#21c6fb"
         id="stop19" />
    </linearGradient>
    <linearGradient
       id="1"
       y1="532.29"
       x2="0"
       y2="510.68"
       gradientUnits="userSpaceOnUse"
       gradientTransform="matrix(1.24675,0,0,1.24675,-485.39,-629.05)">
      <stop
         stop-color="#ff9300"
         id="stop22" />
      <stop
         offset="1"
         stop-color="#ffd702"
         id="stop24" />
    </linearGradient>
  </defs>
  <g
     id="g4183"
     transform="matrix(1.7883954,0,0,1.4701692,-18.920219,-11.281784)">
    <path
       inkscape:connector-curvature="0"
       style="fill:#ffd42a"
       id="path32"
       d="M 25.391007,7.98938 C 42.945248,29.321272 38.09165,37.723121 10.841435,33.186198 29.131258,32.545368 33.982362,24.146013 25.391007,7.98938" />
    <path
       inkscape:connector-curvature="0"
       style="fill:#2a7fff"
       id="path34"
       d="M 24.18166,13.599755 C 11.229174,13.817936 8.8902713,20.145193 17.088899,32.57529 17.861884,32.440641 18.601207,32.297265 19.30188,32.120226 16.168798,21.102697 22.118289,15.307803 37.15534,14.781674 32.046159,13.931391 27.716196,13.539911 24.18166,13.599755 m -6.031777,20.551427 c 1.280413,1.826489 2.752825,3.777653 4.455885,5.849751 -1.073452,-2.019735 -1.95241,-3.921029 -2.606954,-5.698894 -0.597194,-0.03616 -1.218075,-0.096 -1.848931,-0.152104" />
  </g>
  <path
     d="m 47.537717,33.891891 c -0.03748,-0.34761 -0.426482,-0.608833 -0.762248,-0.608833 -1.086671,0 -2.051068,-0.665395 -2.455859,-1.694855 -0.41317,-1.054144 -0.146931,-2.283632 0.663146,-3.058556 0.254907,-0.243225 0.285968,-0.64997 0.07198,-0.932788 -0.556157,-0.736872 -1.188241,-1.402267 -1.878996,-1.978703 -0.270189,-0.226254 -0.667091,-0.194888 -0.901287,0.07611 -0.707028,0.816575 -1.977114,1.119964 -2.957779,0.693165 -1.021097,-0.447883 -1.665015,-1.527222 -1.601904,-2.685236 0.02071,-0.364065 -0.234197,-0.68031 -0.581796,-0.722474 -0.886001,-0.106961 -1.7794,-0.110047 -2.667866,-0.0071 -0.343653,0.0396 -0.598559,0.348638 -0.587219,0.707561 0.03846,1.146702 -0.612853,2.207016 -1.62409,2.638958 -0.969327,0.412915 -2.230045,0.112091 -2.935591,-0.697278 -0.233211,-0.266364 -0.62321,-0.299274 -0.894878,-0.07868 -0.710971,0.581578 -1.357355,1.247488 -1.91844,1.978189 -0.218913,0.283848 -0.186864,0.695733 0.071,0.939987 0.82536,0.779551 1.092096,2.01984 0.663146,3.085296 -0.409228,1.016603 -1.421449,1.671716 -2.580598,1.671716 -0.376196,-0.01241 -0.643918,0.250423 -0.684841,0.607288 -0.104515,0.929189 -0.105515,1.87586 -4.93e-4,2.812761 0.03699,0.349153 0.437823,0.608318 0.777532,0.608318 1.03293,-0.02726 2.023951,0.639169 2.440082,1.694856 0.41465,1.054142 0.147913,2.283118 -0.663147,3.058555 -0.253918,0.243225 -0.285966,0.649456 -0.07198,0.93176 0.551225,0.73173 1.183308,1.398154 1.876037,1.979732 0.271667,0.228311 0.667092,0.195916 0.902766,-0.07456 0.709493,-0.818632 1.977111,-1.121505 2.9563,-0.693677 1.023562,0.446338 1.66748,1.525679 1.604369,2.684721 -0.0207,0.364064 0.235677,0.680823 0.581795,0.722472 0.453109,0.05502 0.909173,0.08279 1.366227,0.08279 0.43388,0 0.867761,-0.02468 1.30164,-0.07507 0.344146,-0.0396 0.598557,-0.348638 0.587218,-0.708589 -0.03994,-1.146188 0.612854,-2.206501 1.622611,-2.637414 0.975738,-0.415486 2.231525,-0.11158 2.93707,0.696762 0.234691,0.265851 0.621732,0.298247 0.894878,0.07815 0.709495,-0.580036 1.354397,-1.245432 1.918441,-1.978188 0.218912,-0.283333 0.187851,-0.695735 -0.071,-0.939988 -0.825359,-0.779551 -1.09308,-2.01984 -0.664624,-3.085295 0.403311,-1.003235 1.377568,-1.676859 2.426275,-1.676859 l 0.146442,0.0043 c 0.340201,0.02879 0.652791,-0.244253 0.694207,-0.60626 0.104515,-0.930218 0.105516,-1.875861 0.0054,-2.812761 M 35.775632,39.41688 c -2.181233,0 -3.954225,-1.850662 -3.954225,-4.12401 0,-2.274893 1.774471,-4.124014 3.954225,-4.124014 2.181233,0 3.954223,1.850665 3.954223,4.124014 0,2.274891 -1.77447,4.12401 -3.954223,4.12401"
     id="path40"
     inkscape:connector-curvature="0"
     style="fill:#dbdee3;fill-opacity:1;fill-rule:evenodd;stroke-width:1.31700003" />
</svg>
