<?xml version="1.0" encoding="UTF-8" standalone="no"?>
<svg
   xmlns:dc="http://purl.org/dc/elements/1.1/"
   xmlns:cc="http://creativecommons.org/ns#"
   xmlns:rdf="http://www.w3.org/1999/02/22-rdf-syntax-ns#"
   xmlns:svg="http://www.w3.org/2000/svg"
   xmlns="http://www.w3.org/2000/svg"
   xmlns:sodipodi="http://sodipodi.sourceforge.net/DTD/sodipodi-0.dtd"
   xmlns:inkscape="http://www.inkscape.org/namespaces/inkscape"
   viewBox="0 0 48 48"
   id="svg2"
   version="1.1"
   inkscape:version="0.91 r13725"
   sodipodi:docname="docky.svg">
  <metadata
     id="metadata19">
    <rdf:RDF>
      <cc:Work
         rdf:about="">
        <dc:format>image/svg+xml</dc:format>
        <dc:type
           rdf:resource="http://purl.org/dc/dcmitype/StillImage" />
        <dc:title></dc:title>
      </cc:Work>
    </rdf:RDF>
  </metadata>
  <sodipodi:namedview
     pagecolor="#ffffff"
     bordercolor="#666666"
     borderopacity="1"
     objecttolerance="10"
     gridtolerance="10"
     guidetolerance="10"
     inkscape:pageopacity="0"
     inkscape:pageshadow="2"
     inkscape:window-width="1280"
     inkscape:window-height="694"
     id="namedview17"
     showgrid="false"
     inkscape:zoom="4.9166667"
     inkscape:cx="-9.1525424"
     inkscape:cy="24"
     inkscape:window-x="0"
     inkscape:window-y="0"
     inkscape:window-maximized="1"
     inkscape:current-layer="svg2" />
  <defs
     id="defs4">
    <linearGradient
       id="0"
       y1="546.93"
       x2="0"
       y2="516.48"
       gradientUnits="userSpaceOnUse"
       gradientTransform="matrix(2.660633,0,0,2.6606236,-1656.0187,-2219.1962)">
      <stop
         stop-color="#197cf1"
         id="stop7" />
      <stop
         offset="1"
         stop-color="#20bcfa"
         id="stop9" />
    </linearGradient>
  </defs>
  <path
     style="fill:#2c89a0;fill-opacity:0.878"
     inkscape:connector-curvature="0"
     id="path15"
     d="m 47.149179,27.58296 -6.570885,-6.252764 c -0.144734,-0.136607 -0.342085,-0.214822 -0.543828,-0.214822 -0.206127,0 -0.400195,0.07717 -0.543827,0.214822 l -6.573077,6.250678 c -0.66882,0.637166 -0.86837,1.611162 -0.50655,2.444377 0.362918,0.831129 1.213744,1.391125 2.162154,1.391125 l 1.119452,0 c -1.026256,3.138897 -3.455938,5.802266 -6.611453,7.18192 L 27.470514,11.781069 c 1.832129,-1.098092 3.051356,-3.0429565 3.051356,-5.2558266 0,-3.4277581 -2.919785,-6.20688085 -6.522643,-6.20688085 -3.600665,0 -6.522641,2.77703725 -6.522641,6.20270865 0,2.2128701 1.219225,4.1514778 3.051354,5.2453998 L 18.917291,38.593082 C 15.76287,37.21447 13.330996,34.552145 12.305838,31.411162 l 1.119452,0 c 0.946216,0 1.801429,-0.559995 2.163248,-1.391125 0.362919,-0.833216 0.161176,-1.798869 -0.506548,-2.436034 L 8.5089116,21.331239 C 8.3652864,21.19359 8.1668276,21.114331 7.9650852,21.114331 c -0.2061292,0 -0.4001966,0.07509 -0.544925,0.212736 l -6.57307703,6.251722 c -0.66882024,0.636122 -0.86946634,1.611161 -0.50654908,2.442291 0.36291712,0.83113 1.21374431,1.391126 2.16215331,1.391126 l 0.8848166,0 c 1.6983642,9.312406 10.279,16.531867 20.610628,16.531867 10.331627,0 18.913359,-7.219461 20.611723,-16.531867 l 0.88372,0 c 0.946217,0 1.801428,-0.559996 2.163249,-1.391126 0.361822,-0.832173 0.161176,-1.806169 -0.509838,-2.442291" />
</svg>
