<?xml version="1.0" encoding="UTF-8" standalone="no"?>
<svg
   xmlns:dc="http://purl.org/dc/elements/1.1/"
   xmlns:cc="http://creativecommons.org/ns#"
   xmlns:rdf="http://www.w3.org/1999/02/22-rdf-syntax-ns#"
   xmlns:svg="http://www.w3.org/2000/svg"
   xmlns="http://www.w3.org/2000/svg"
   xmlns:xlink="http://www.w3.org/1999/xlink"
   xmlns:sodipodi="http://sodipodi.sourceforge.net/DTD/sodipodi-0.dtd"
   xmlns:inkscape="http://www.inkscape.org/namespaces/inkscape"
   viewBox="0 0 48 48"
   id="svg2"
   version="1.1"
   inkscape:version="0.91 r13725"
   sodipodi:docname="fluid.svg">
  <metadata
     id="metadata25">
    <rdf:RDF>
      <cc:Work
         rdf:about="">
        <dc:format>image/svg+xml</dc:format>
        <dc:type
           rdf:resource="http://purl.org/dc/dcmitype/StillImage" />
        <dc:title></dc:title>
      </cc:Work>
    </rdf:RDF>
  </metadata>
  <sodipodi:namedview
     pagecolor="#ffffff"
     bordercolor="#666666"
     borderopacity="1"
     objecttolerance="10"
     gridtolerance="10"
     guidetolerance="10"
     inkscape:pageopacity="0"
     inkscape:pageshadow="2"
     inkscape:window-width="1280"
     inkscape:window-height="694"
     id="namedview23"
     showgrid="false"
     inkscape:zoom="4.9166667"
     inkscape:cx="-9.1525424"
     inkscape:cy="24"
     inkscape:window-x="0"
     inkscape:window-y="0"
     inkscape:window-maximized="1"
     inkscape:current-layer="svg2" />
  <defs
     id="defs4">
    <linearGradient
       xlink:href="#0"
       id="2"
       x1="23.333"
       y1="45.542"
       x2="22.486"
       y2="-9.917"
       gradientUnits="userSpaceOnUse" />
    <linearGradient
       xlink:href="#0"
       x1="12.613"
       y1="24.02"
       x2="11.598"
       y2="-.7"
       gradientUnits="userSpaceOnUse"
       id="linearGradient7" />
    <linearGradient
       id="0">
      <stop
         stop-color="#00cafe"
         id="stop10" />
      <stop
         offset="1"
         stop-color="#1460f3"
         id="stop12" />
    </linearGradient>
    <linearGradient
       id="1"
       x1="401.49"
       y1="546.9"
       x2="401.62"
       y2="517.44"
       gradientUnits="userSpaceOnUse">
      <stop
         stop-color="#ececec"
         id="stop15" />
      <stop
         offset="1"
         stop-color="#fcfcfc"
         id="stop17" />
    </linearGradient>
  </defs>
  <path
     d="m 46.636309,39.250005 -13.311225,-22.884169 0,-13.6344179 c 0,-1.2831665 -1.155033,-2.30598031 -2.534625,-2.30598031 l -13.586919,0 c -1.380704,0 -2.516839,1.02281381 -2.516839,2.30598031 l 0,13.6344179 -13.3223407,22.884169 c -1.01607259,1.744982 -0.96493614,3.863964 0.1278417,5.569687 1.0927792,1.703657 3.0748984,2.756431 5.2093204,2.756431 l 34.5842806,0 c 2.134421,0 4.12099,-1.052774 5.213768,-2.756431 1.091668,-1.705723 1.147251,-3.824705 0.131179,-5.569687 M 26.191449,29.674814 c 1.192829,0 2.158876,0.897804 2.158876,2.006368 0,1.107533 -0.96827,2.006369 -2.158876,2.006369 -1.191719,0 -2.158878,-0.898836 -2.158878,-2.006369 0,-1.105465 0.966049,-2.006368 2.158878,-2.006368 M 20.12058,17.610777 c 1.192831,0 2.158877,0.898836 2.158877,2.007401 0,1.107533 -0.966046,2.006369 -2.158877,2.006369 -1.19283,0 -2.158877,-0.898836 -2.158877,-2.006369 1.12e-4,-1.108565 0.966047,-2.007401 2.158877,-2.007401 m 0,7.004726 c 1.932096,0 3.49956,1.456734 3.49956,3.251308 0,1.795605 -1.567464,3.251308 -3.49956,3.251308 -1.933206,0 -3.499559,-1.455703 -3.499559,-3.251308 0,-1.795607 1.566353,-3.251308 3.499559,-3.251308 m 20.099126,16.674964 c -0.449116,0.710804 -1.270646,1.130261 -2.15443,1.130261 l -28.1443352,0 c -0.8848945,0 -1.7053122,-0.419457 -2.1544305,-1.130261 C 7.3173919,40.579663 7.3051639,39.711821 7.7353843,38.990686 L 11.11822,33.339382 c 0.482467,-0.80792 1.434063,-1.27077 2.423456,-1.182953 4.491176,0.397761 9.541526,3.969344 14.053824,3.81024 2.416787,-0.08576 4.660152,-0.904002 6.796797,-1.998102 1.206169,-0.619888 2.723609,-0.213862 3.392838,0.906068 l 2.466811,4.113984 c 0.427998,0.722169 0.416881,1.592078 -0.03224,2.301848"
     id="path21"
     style="fill:#00aad4;fill-opacity:0.85100002"
     inkscape:connector-curvature="0" />
</svg>
