<?xml version="1.0" encoding="UTF-8" standalone="no"?>
<svg
   xmlns:dc="http://purl.org/dc/elements/1.1/"
   xmlns:cc="http://creativecommons.org/ns#"
   xmlns:rdf="http://www.w3.org/1999/02/22-rdf-syntax-ns#"
   xmlns:svg="http://www.w3.org/2000/svg"
   xmlns="http://www.w3.org/2000/svg"
   xmlns:xlink="http://www.w3.org/1999/xlink"
   xmlns:sodipodi="http://sodipodi.sourceforge.net/DTD/sodipodi-0.dtd"
   xmlns:inkscape="http://www.inkscape.org/namespaces/inkscape"
   viewBox="0 0 48 48"
   id="svg2"
   version="1.1"
   inkscape:version="0.91 r13725"
   sodipodi:docname="fogger.svg">
  <metadata
     id="metadata25">
    <rdf:RDF>
      <cc:Work
         rdf:about="">
        <dc:format>image/svg+xml</dc:format>
        <dc:type
           rdf:resource="http://purl.org/dc/dcmitype/StillImage" />
        <dc:title></dc:title>
      </cc:Work>
    </rdf:RDF>
  </metadata>
  <sodipodi:namedview
     pagecolor="#ffffff"
     bordercolor="#666666"
     borderopacity="1"
     objecttolerance="10"
     gridtolerance="10"
     guidetolerance="10"
     inkscape:pageopacity="0"
     inkscape:pageshadow="2"
     inkscape:window-width="1280"
     inkscape:window-height="694"
     id="namedview23"
     showgrid="false"
     inkscape:zoom="4.9166667"
     inkscape:cx="-12.508474"
     inkscape:cy="24"
     inkscape:window-x="0"
     inkscape:window-y="0"
     inkscape:window-maximized="1"
     inkscape:current-layer="svg2" />
  <defs
     id="defs4">
    <linearGradient
       gradientTransform="matrix(2.51381 0 0 2.52731-1038.86-1347.67)"
       xlink:href="#0"
       id="2"
       gradientUnits="userSpaceOnUse"
       x1="395.09"
       y1="550.5"
       x2="394.69"
       y2="537.45" />
    <linearGradient
       xlink:href="#0"
       x1="12.613"
       y1="24.02"
       x2="11.598"
       y2="-.7"
       gradientUnits="userSpaceOnUse"
       id="linearGradient7" />
    <linearGradient
       id="0">
      <stop
         stop-color="#00cafe"
         id="stop10" />
      <stop
         offset="1"
         stop-color="#1460f3"
         id="stop12" />
    </linearGradient>
    <linearGradient
       id="1"
       x1="401.49"
       y1="546.9"
       x2="401.62"
       y2="517.44"
       gradientUnits="userSpaceOnUse">
      <stop
         stop-color="#ececec"
         id="stop15" />
      <stop
         offset="1"
         stop-color="#fcfcfc"
         id="stop17" />
    </linearGradient>
  </defs>
  <g
     id="g4176"
     transform="matrix(0.09966241,0,0,0.14514473,0.17232297,-12.158891)">
    <path
       style="fill:#2488ff"
       d="m 238.063,84.644 c -12.659,0 -24.991,1.55 -36.81,4.467 C 145.79,102.804 101.694,146.755 88.719,203.447 38.476,211.623 0,255.322 0,307.838 0,366.156 47.445,413.601 105.763,413.601 l 132.3,0 0,-328.957 z"
       id="path7"
       inkscape:connector-curvature="0" />
    <path
       style="fill:#006df0"
       d="M 387.407,203.448 C 371.668,134.676 310.136,84.644 238.064,84.644 l 0,328.958 132.3,0 c 58.318,0 105.763,-47.445 105.763,-105.763 0,-20.127 -5.657,-38.956 -15.457,-54.99 -15.77,-25.802 -42.276,-44.359 -73.263,-49.401 z"
       id="path9"
       inkscape:connector-curvature="0" />
  </g>
  <path
     style="fill:#80b3ff"
     inkscape:connector-curvature="0"
     id="path9-3"
     d="m 28.523993,40.906422 -2.305829,2.34817 2.35741,2.395714 2.305822,-2.346496 c 0.962898,0.666233 2.064338,1.132245 3.249464,1.363579 l 0,3.329413 3.326726,0 0,-3.329413 c 1.183557,-0.231334 2.284923,-0.697422 3.249456,-1.363579 l 2.304261,2.346496 2.358978,-2.395714 -2.307471,-2.351441 c 0.650565,-0.981244 1.107864,-2.102003 1.336514,-3.308114 l 3.270362,0 0,-3.390118 -3.272002,0 c -0.230298,-1.209381 -0.68595,-2.331738 -1.339722,-3.311385 l 2.30903,-2.35471 -2.35897,-2.392443 -2.30262,2.349767 c -0.966101,-0.664559 -2.06434,-1.128975 -3.251032,-1.365252 l 0,-3.331088 -3.326718,0 0,3.331088 c -1.183559,0.236277 -2.286566,0.699019 -3.249465,1.365252 l -2.302613,-2.349767 -2.35741,2.395713 2.305829,2.354711 c -0.648923,0.979647 -1.107864,2.098733 -1.336513,3.311385 l -3.263945,0 0,3.391792 3.263945,0 c 0.228649,1.202764 0.68759,2.323522 1.336513,3.30644 z m 7.270189,-8.705069 c 2.006334,0 3.624646,1.657289 3.624646,3.701934 0,2.044645 -1.619879,3.69372 -3.624646,3.69372 -2.004766,0 -3.63271,-1.64915 -3.63271,-3.69372 0,-2.044568 1.628017,-3.701934 3.63271,-3.701934 z" />
</svg>
