<?xml version="1.0" encoding="UTF-8" standalone="no"?>
<svg
   xmlns:dc="http://purl.org/dc/elements/1.1/"
   xmlns:cc="http://creativecommons.org/ns#"
   xmlns:rdf="http://www.w3.org/1999/02/22-rdf-syntax-ns#"
   xmlns:svg="http://www.w3.org/2000/svg"
   xmlns="http://www.w3.org/2000/svg"
   xmlns:sodipodi="http://sodipodi.sourceforge.net/DTD/sodipodi-0.dtd"
   xmlns:inkscape="http://www.inkscape.org/namespaces/inkscape"
   viewBox="0 0 48 48"
   id="svg2"
   version="1.1"
   inkscape:version="0.91 r13725"
   sodipodi:docname="gensgs.svg">
  <metadata
     id="metadata24">
    <rdf:RDF>
      <cc:Work
         rdf:about="">
        <dc:format>image/svg+xml</dc:format>
        <dc:type
           rdf:resource="http://purl.org/dc/dcmitype/StillImage" />
        <dc:title></dc:title>
      </cc:Work>
    </rdf:RDF>
  </metadata>
  <sodipodi:namedview
     pagecolor="#ffffff"
     bordercolor="#666666"
     borderopacity="1"
     objecttolerance="10"
     gridtolerance="10"
     guidetolerance="10"
     inkscape:pageopacity="0"
     inkscape:pageshadow="2"
     inkscape:window-width="1280"
     inkscape:window-height="694"
     id="namedview22"
     showgrid="false"
     inkscape:zoom="4.9166667"
     inkscape:cx="-9.1525424"
     inkscape:cy="24"
     inkscape:window-x="0"
     inkscape:window-y="0"
     inkscape:window-maximized="1"
     inkscape:current-layer="svg2" />
  <defs
     id="defs4">
    <clipPath
       id="1">
      <path
         transform="matrix(15.33333 0 0 11.5 415-125.5)"
         d="m-24 13c0 1.105-.672 2-1.5 2-.828 0-1.5-.895-1.5-2 0-1.105.672-2 1.5-2 .828 0 1.5.895 1.5 2"
         fill="#1890d0"
         id="path7" />
    </clipPath>
    <linearGradient
       gradientTransform="matrix(1.0909009,0,0,1.1430369,-421.70793,-577.17951)"
       gradientUnits="userSpaceOnUse"
       y2="507.8"
       x2="0"
       y1="542.8"
       id="0">
      <stop
         stop-color="#197ff1"
         id="stop10" />
      <stop
         offset="1"
         stop-color="#21c6fb"
         id="stop12" />
    </linearGradient>
  </defs>
  <path
     d="m 39.617058,0.18106424 c -1.718062,0 -3.170093,3.03054416 -3.761606,7.27675176 l -1.486214,13.2042 0,-19.80414154 -7.245288,0 c -1.306382,0 -2.479006,1.50018104 -3.343982,4.04359584 l 0,-4.04359584 -7.431066,0 c -1.382179,0 -2.652891,1.80194234 -3.529757,4.58245624 l 0,-4.58245624 -6.9673677,0 c -3.0184994,0 -5.52128258,7.07413994 -5.52722739,16.43735254 0,4.362599 0.65096144,8.26825 1.57984479,11.1824 l -1.57984479,0 0,19.144578 7.05951299,0 c 1.9796366,-0.01706 3.9191451,-3.655615 4.5983441,-7.966489 l 0.04607,-0.11638 c 0.78918,4.76351 2.415098,8.082882 4.318936,8.082882 l 7.431068,0 0,-4.194477 c 0.87092,2.560658 2.031653,4.194477 3.34398,4.194477 l 20.760914,0 L 43.424734,7.4621359 C 42.815386,3.2029937 41.341063,0.18538424 39.615569,0.18538424 M 39.150385,3.5521735 c 0.161996,-0.068976 0.295755,0 0.465184,0 1.340565,0 2.490894,2.392534 2.832723,5.7938142 l 3.90131,34.8921923 -7.524699,0 0,-5.522229 4.969898,0 -3.204275,-28.425883 C 40.434473,9.1778635 40.045085,8.4019037 39.615569,8.4019037 c -0.429515,0 -0.77283,0.892353 -0.928883,2.0218013 l -3.855238,33.814475 -7.710474,0 c -2.061378,0 -3.715534,-5.000611 -3.715534,-11.182402 l 0,-17.782343 c 0,-6.1817901 1.654156,-11.182401 3.715534,-11.182401 l 6.176702,0 0,5.6601738 -6.176702,0 c -1.026973,0 -1.857767,2.4270212 -1.857767,5.5222272 l 0,17.782343 c 0,3.09952 0.876866,5.660173 1.90384,5.660173 l 4.22679,0 0,-15.221683 -3.390053,0 0,-5.487741 5.295379,0 0,22.192367 3.529756,-30.8141096 c 0.301702,-2.978813 1.202346,-5.3023723 2.322952,-5.8282982 m -33.347655,0.5388569 5.944852,0 0,5.6731084 -5.944852,0 c -1.3881232,0 -2.5087281,3.3840325 -2.5087281,7.5440255 0,4.177233 1.11466,7.544026 2.5087281,7.544026 l 1.5322861,0 c 1.148842,0 2.0896154,2.896903 2.0896154,6.332671 0,3.453008 -0.9407734,6.211965 -2.0896154,6.211965 l -5.9448535,0 0,-5.522227 5.9448535,0 c 0.1159199,0 0.2318485,-0.318992 0.2318485,-0.672498 0,-0.353479 -0.1159198,-0.672494 -0.2318485,-0.672494 l -1.5322861,0 c -2.4269864,0 -4.4125674,-5.910204 -4.4125674,-13.204199 0,-7.289683 1.985581,-13.2171342 4.4125674,-13.2171342 m 10.543196,0 6.362481,0 0,5.6731084 -6.362481,0 c -1.032916,0 -1.857765,2.4916838 -1.857765,5.5222278 l 0,17.782343 c 0,3.134003 0.824849,5.660173 1.857765,5.660173 l 6.316409,0 0,5.522229 -6.316409,0 c -2.067322,0 -3.715533,-5.000611 -3.715533,-11.182402 l 0,-17.782343 c 0,-6.1990344 1.648211,-11.1996452 3.715533,-11.1996452 m 23.268157,5.6731047 c 0.267518,0 0.523147,0.5043725 0.603402,1.2113575 l 2.972427,26.404086 -4.366495,0 0,-4.983367 -1.346508,11.854896 -2.183248,0 3.761607,-33.275615 c 0.08174,-0.706985 0.28981,-1.2113575 0.557328,-1.2113575 m -33.8113522,1.3493035 5.9448532,0 0,5.522228 -5.9448532,0 c -0.1218698,0 -0.2318493,0.301748 -0.2318493,0.672494 0,0.370736 0.1099806,0.672498 0.2318493,0.672498 l 1.5322855,0 c 2.432932,0 4.4125677,5.910203 4.4125677,13.204199 0,7.276751 -1.9796357,13.2042 -4.4125677,13.2042 l -5.9448529,0 0,-5.660175 5.9448529,0 c 1.3940685,0 2.5548006,-3.384033 2.5548006,-7.544025 0,-4.159993 -1.1607321,-7.544026 -2.5548006,-7.544026 L 5.8027298,23.524454 c -1.148843,0 -2.0896159,-2.746026 -2.0896159,-6.199035 0,-3.435763 0.9407729,-6.211964 2.0896159,-6.211964 m 10.5431972,0 6.36248,0 0,5.522228 -5.485614,0 c -0.441406,0 -0.411681,1.362235 -0.411681,1.362235 l 4.552272,0 0,5.504983 -6.410038,0 0,-8.199279 c 0,-2.358047 0.597457,-4.194476 1.394066,-4.194476 m 10.775048,0 6.176703,0 0,5.522224 -5.299837,0 c -0.441406,0.03449 -0.411681,1.362234 -0.411681,1.362234 l 0,12.510149 c 0,0.724229 0.179831,1.36224 0.411681,1.36224 l 1.11466,0 0,-1.36224 -1.11466,0 0,-5.660173 2.972427,0 0,12.527393 -3.855238,0 c -0.789179,0 -1.394068,-1.93558 -1.394068,-4.31087 l 0,-17.782346 c 0,-2.375291 0.603402,-4.194477 1.394068,-4.194477 M 14.9474,24.83927 l 6.410039,0 0,5.660175 -4.552271,0 c 0.0059,1.33206 0.417625,1.362235 0.417625,1.362235 l 5.433595,0 0,5.522227 -6.316406,0 c -0.783234,0 -1.394068,-1.952827 -1.394068,-4.310872 m 24.662224,-7.694907 -0.65542,5.793814 1.300437,0"
     id="path20"
     inkscape:connector-curvature="0"
     style="fill:#0066ff;fill-opacity:0.897;stroke:none" />
</svg>
