<?xml version="1.0" encoding="UTF-8" standalone="no"?>
<svg
   xmlns:dc="http://purl.org/dc/elements/1.1/"
   xmlns:cc="http://creativecommons.org/ns#"
   xmlns:rdf="http://www.w3.org/1999/02/22-rdf-syntax-ns#"
   xmlns:svg="http://www.w3.org/2000/svg"
   xmlns="http://www.w3.org/2000/svg"
   xmlns:sodipodi="http://sodipodi.sourceforge.net/DTD/sodipodi-0.dtd"
   xmlns:inkscape="http://www.inkscape.org/namespaces/inkscape"
   viewBox="0 0 48 48"
   id="svg2"
   version="1.1"
   inkscape:version="0.91 r13725"
   sodipodi:docname="geogebra.svg">
  <metadata
     id="metadata19">
    <rdf:RDF>
      <cc:Work
         rdf:about="">
        <dc:format>image/svg+xml</dc:format>
        <dc:type
           rdf:resource="http://purl.org/dc/dcmitype/StillImage" />
        <dc:title></dc:title>
      </cc:Work>
    </rdf:RDF>
  </metadata>
  <sodipodi:namedview
     pagecolor="#ffffff"
     bordercolor="#666666"
     borderopacity="1"
     objecttolerance="10"
     gridtolerance="10"
     guidetolerance="10"
     inkscape:pageopacity="0"
     inkscape:pageshadow="2"
     inkscape:window-width="1280"
     inkscape:window-height="694"
     id="namedview17"
     showgrid="false"
     inkscape:zoom="4.9166667"
     inkscape:cx="-9.1525424"
     inkscape:cy="24"
     inkscape:window-x="0"
     inkscape:window-y="0"
     inkscape:window-maximized="1"
     inkscape:current-layer="svg2" />
  <defs
     id="defs4">
    <linearGradient
       id="0"
       gradientUnits="userSpaceOnUse"
       x1="62.6"
       y1="11.846"
       x2="62.15"
       y2="-35.476"
       gradientTransform="matrix(0.99999,0,0,0.99999,-38.469,35.815)">
      <stop
         stop-color="#0164c2"
         id="stop7" />
      <stop
         stop-color="#00a9f3"
         offset="1"
         id="stop9" />
    </linearGradient>
  </defs>
  <path
     style="fill:#0055d4;fill-opacity:1;stroke:none"
     inkscape:connector-curvature="0"
     id="path15"
     d="m 24.204264,0.37321956 c -1.71578,0 -3.3839,0.1825728 -4.992445,0.52623954 l 1.557634,2.6806 6.876122,0 1.558717,-2.6806 C 27.593582,0.55471848 25.922211,0.37321956 24.205347,0.37321956 M 17.494955,1.3322643 C 13.571623,2.4771039 10.069654,4.5756185 7.2685119,7.3840196 l 1.8360156,3.1531424 6.8782875,0 3.433727,-5.9046237 -1.920504,-3.2992001 m 13.603846,0.050476 -1.893425,3.2540938 3.43806,5.904622 6.873956,0 1.755859,-3.0167481 C 38.492688,4.6969758 35.014549,2.5587247 31.099884,1.3881101 m -9.802915,4.6062074 -2.905128,4.9917585 2.905128,4.991758 5.813507,0 2.90513,-4.991758 -2.90513,-4.9917585 -5.813507,0 M 6.407372,8.3312509 C 4.2074028,10.783098 2.501371,13.679563 1.4777513,16.887477 l 3.0405283,0 L 7.95634,10.98715 6.407372,8.3312509 m 35.84292,0.2727853 -1.385407,2.3831138 3.440228,5.900327 2.625664,0 C 45.94832,13.803068 44.336525,10.998963 42.251376,8.6040362 m -32.5391765,4.0864108 -2.826056,4.852144 2.826056,4.843553 5.6445285,0 2.826056,-4.843553 -2.826056,-4.852144 -5.6445285,0 m 23.5367425,0 -2.823889,4.852144 2.823889,4.843553 5.646696,0 2.821723,-4.843553 -2.821723,-4.852144 -5.646696,0 M 1.1527928,18.081718 c -0.49285319,1.891241 -0.78531657,3.870546 -0.78531657,5.917511 0,2.036225 0.28921377,4.003717 0.77665097,5.884217 l 3.3676531,0 3.4380605,-5.898179 -3.4380605,-5.902475 -3.3600707,0 m 43.1479874,0 -3.440227,5.902475 3.440227,5.900327 2.956038,0 c 0.488522,-1.8805 0.772318,-3.849066 0.772318,-5.884217 0,-2.046965 -0.289212,-4.02627 -0.783149,-5.919659 l -2.945207,0 m -23.439255,0.169687 -3.338407,5.732788 3.338407,5.734939 6.67898,0 3.33624,-5.734939 -3.33624,-5.732788 -6.67898,0 m -11.2511459,7.676653 -2.9192107,5.013239 2.9192107,5.017533 5.8449199,0 2.91921,-5.017533 -2.91921,-5.013239 -5.8449199,0 m 23.6775579,0.239493 -2.777312,4.773746 2.777312,4.778039 5.564372,0 2.777312,-4.778039 -2.777312,-4.773746 -5.564372,0 M 1.5709059,31.385914 c 1.004122,3.027489 2.6094167,5.772527 4.6750695,8.122348 L 7.533894,37.289463 4.098,31.386988 l -2.5281773,0 m 42.7266253,0 -3.440227,5.902475 1.290085,2.218799 c 2.064569,-2.349821 3.669864,-5.094859 4.672903,-8.122348 l -2.523845,0 m -23.009227,0.906422 -2.911628,4.996053 2.911628,4.998203 5.820007,0 2.911628,-4.998203 -2.911628,-4.996053 -5.820007,0 M 9.0915291,38.346239 7.5891376,40.928035 c 2.8477194,2.751481 6.3930164,4.776966 10.3434284,5.845554 l 1.469896,-2.523801 -3.433729,-5.904623 -6.8782871,0 m 23.5378261,0 -3.438061,5.906771 1.440649,2.479769 c 3.940664,-1.098659 7.469712,-3.154215 10.30335,-5.92825 l -1.431984,-2.45829 -6.873954,0 m -11.8729,6.342798 -1.425485,2.438959 c 1.571716,0.328631 3.194342,0.495095 4.861379,0.495095 1.667037,0 3.293996,-0.166464 4.86138,-0.495095 l -1.420069,-2.438959 -6.878288,0" />
</svg>
