<?xml version="1.0" encoding="UTF-8" standalone="no"?>
<!-- Generator: Adobe Illustrator 19.0.0, SVG Export Plug-In . SVG Version: 6.00 Build 0)  -->

<svg
   xmlns:dc="http://purl.org/dc/elements/1.1/"
   xmlns:cc="http://creativecommons.org/ns#"
   xmlns:rdf="http://www.w3.org/1999/02/22-rdf-syntax-ns#"
   xmlns:svg="http://www.w3.org/2000/svg"
   xmlns="http://www.w3.org/2000/svg"
   xmlns:sodipodi="http://sodipodi.sourceforge.net/DTD/sodipodi-0.dtd"
   xmlns:inkscape="http://www.inkscape.org/namespaces/inkscape"
   version="1.1"
   id="Capa_1"
   x="0px"
   y="0px"
   viewBox="0 0 58 58"
   style="enable-background:new 0 0 58 58;"
   xml:space="preserve"
   inkscape:version="0.91 r13725"
   sodipodi:docname="gwenview.svg"><metadata
     id="metadata69"><rdf:RDF><cc:Work
         rdf:about=""><dc:format>image/svg+xml</dc:format><dc:type
           rdf:resource="http://purl.org/dc/dcmitype/StillImage" /><dc:title></dc:title></cc:Work></rdf:RDF></metadata><defs
     id="defs67" /><sodipodi:namedview
     pagecolor="#ffffff"
     bordercolor="#666666"
     borderopacity="1"
     objecttolerance="10"
     gridtolerance="10"
     guidetolerance="10"
     inkscape:pageopacity="0"
     inkscape:pageshadow="2"
     inkscape:window-width="1280"
     inkscape:window-height="694"
     id="namedview65"
     showgrid="false"
     inkscape:zoom="4.0689655"
     inkscape:cx="-11.059322"
     inkscape:cy="29"
     inkscape:window-x="0"
     inkscape:window-y="0"
     inkscape:window-maximized="1"
     inkscape:current-layer="Capa_1" /><g
     id="g4197"
     transform="matrix(1.3287796,0,0,1,-9.2890086,0)"><rect
       id="rect3"
       height="11"
       width="24"
       style="fill:#c8d2d6"
       y="47"
       x="25.677" /><path
       id="path5"
       d="m 41.677,58 -16,0 0,-11 9.426,0 c 3.631,0 6.574,2.943 6.574,6.574 l 0,4.426 z"
       style="fill:#e7eced"
       inkscape:connector-curvature="0" /><circle
       id="circle7"
       r="2.5"
       cy="52.5"
       cx="35.176998"
       style="fill:#7383bf" /><path
       id="path9"
       d="M 33.581,10.702 C 34.814,10.16 35.677,8.932 35.677,7.5 35.677,5.567 34.11,4 32.177,4 30.744,4 29.516,4.863 28.975,6.096 l 4.606,4.606 z"
       style="fill:#fbce9d"
       inkscape:connector-curvature="0" /><path
       id="path11"
       d="m 38.581,15.702 c 1.233,-0.542 2.096,-1.77 2.096,-3.202 0,-1.933 -1.567,-3.5 -3.5,-3.5 -1.433,0 -2.661,0.863 -3.202,2.096 l 4.606,4.606 z"
       style="fill:#fbce9d"
       inkscape:connector-curvature="0" /><path
       id="path13"
       d="m 43.581,20.702 c 1.233,-0.542 2.096,-1.77 2.096,-3.202 0,-1.933 -1.567,-3.5 -3.5,-3.5 -1.433,0 -2.661,0.863 -3.202,2.096 l 4.606,4.606 z"
       style="fill:#fbce9d"
       inkscape:connector-curvature="0" /><path
       id="path15"
       d="m 48.581,25.702 c 1.233,-0.542 2.096,-1.77 2.096,-3.202 0,-1.933 -1.567,-3.5 -3.5,-3.5 -1.433,0 -2.661,0.863 -3.202,2.096 l 4.606,4.606 z"
       style="fill:#fbce9d"
       inkscape:connector-curvature="0" /><path
       id="path17"
       d="m 28.177,33 -10,0 c -1.925,0 -3.5,-1.575 -3.5,-3.5 l 0,0 c 0,-1.925 1.575,-3.5 3.5,-3.5 l 10,0 c 1.925,0 3.5,1.575 3.5,3.5 l 0,0 c 0,1.925 -1.575,3.5 -3.5,3.5 z"
       style="fill:#fbce9d"
       inkscape:connector-curvature="0" /><g
       id="g19"><path
         id="path21"
         d="m 48.813,31.563 -11.12,11.12 c -0.896,0.896 -2.349,0.896 -3.244,0 L 24.767,33 18.178,33 c -0.578,0.283 -2.155,-0.738 -1.55,-0.219 l 10.812,10.77 c 0.074,0.074 0.16,0.127 0.238,0.194 l 0,3.255 20,0 0,-4.51 c 1.819,-1.369 3,-3.538 3,-5.99 -10e-4,-1.893 -0.708,-3.617 -1.865,-4.937 z"
         style="fill:#f7b563"
         inkscape:connector-curvature="0" /></g><path
       id="path23"
       d="m 25.769,2.889 -15.557,15.557 7.592,7.592 C 17.929,26.025 18.05,26 18.177,26 l 10,0 c 1.925,0 3.5,1.575 3.5,3.5 0,1.925 -1.575,3.5 -3.5,3.5 l -3.411,0 6.355,6.355 L 46.677,23.798 25.769,2.889 Z"
       style="fill:#424a60"
       inkscape:connector-curvature="0" /><g
       id="g25"><path
         id="path27"
         d="M 25.769,2.889 23.552,0.672 c -0.896,-0.896 -2.349,-0.896 -3.244,0 L 7.995,12.984 c -0.896,0.896 -0.896,2.349 0,3.245 l 2.217,2.217 15.557,-15.557 z"
         style="fill:#e7eced"
         inkscape:connector-curvature="0" /><path
         id="path29"
         d="m 50.005,27.126 -3.328,-3.328 -15.556,15.557 3.327,3.327 c 0.896,0.896 2.349,0.896 3.244,0 L 50.004,30.37 c 0.897,-0.895 0.897,-2.348 0.001,-3.244 z"
         style="fill:#e7eced"
         inkscape:connector-curvature="0" /></g><circle
       id="circle31"
       r="2"
       cy="33.5"
       cx="41.176998"
       style="fill:#ffffff" /><path
       id="path33"
       d="m 15.677,11 c -0.256,0 -0.512,-0.098 -0.707,-0.293 -0.391,-0.391 -0.391,-1.023 0,-1.414 l 2,-2 c 0.391,-0.391 1.023,-0.391 1.414,0 0.391,0.391 0.391,1.023 0,1.414 l -2,2 C 16.189,10.902 15.933,11 15.677,11 Z"
       style="fill:#424a60"
       inkscape:connector-curvature="0" /></g><g
     id="g35" /><g
     id="g37" /><g
     id="g39" /><g
     id="g41" /><g
     id="g43" /><g
     id="g45" /><g
     id="g47" /><g
     id="g49" /><g
     id="g51" /><g
     id="g53" /><g
     id="g55" /><g
     id="g57" /><g
     id="g59" /><g
     id="g61" /><g
     id="g63" /></svg>