<?xml version="1.0" encoding="UTF-8" standalone="no"?>
<svg
   xmlns:dc="http://purl.org/dc/elements/1.1/"
   xmlns:cc="http://creativecommons.org/ns#"
   xmlns:rdf="http://www.w3.org/1999/02/22-rdf-syntax-ns#"
   xmlns:svg="http://www.w3.org/2000/svg"
   xmlns="http://www.w3.org/2000/svg"
   xmlns:sodipodi="http://sodipodi.sourceforge.net/DTD/sodipodi-0.dtd"
   xmlns:inkscape="http://www.inkscape.org/namespaces/inkscape"
   viewBox="0 0 48 48"
   id="svg2"
   version="1.1"
   inkscape:version="0.91 r13725"
   sodipodi:docname="keysync.svg">
  <metadata
     id="metadata82">
    <rdf:RDF>
      <cc:Work
         rdf:about="">
        <dc:format>image/svg+xml</dc:format>
        <dc:type
           rdf:resource="http://purl.org/dc/dcmitype/StillImage" />
        <dc:title></dc:title>
      </cc:Work>
    </rdf:RDF>
  </metadata>
  <sodipodi:namedview
     pagecolor="#ffffff"
     bordercolor="#666666"
     borderopacity="1"
     objecttolerance="10"
     gridtolerance="10"
     guidetolerance="10"
     inkscape:pageopacity="0"
     inkscape:pageshadow="2"
     inkscape:window-width="1280"
     inkscape:window-height="694"
     id="namedview80"
     showgrid="false"
     inkscape:zoom="4.9166667"
     inkscape:cx="-8.1245495"
     inkscape:cy="24"
     inkscape:window-x="0"
     inkscape:window-y="0"
     inkscape:window-maximized="1"
     inkscape:current-layer="svg2" />
  <defs
     id="defs4">
    <clipPath
       id="clipPath6">
      <path
         fill="#1890d0"
         transform="matrix(15.33333 0 0 11.5 415-125.5)"
         d="m-24 13c0 1.105-.672 2-1.5 2-.828 0-1.5-.895-1.5-2 0-1.105.672-2 1.5-2 .828 0 1.5.895 1.5 2"
         id="path8" />
    </clipPath>
    <clipPath
       id="clipPath10">
      <path
         fill="#1890d0"
         transform="matrix(15.33333 0 0 11.5 415-125.5)"
         d="m-24 13c0 1.105-.672 2-1.5 2-.828 0-1.5-.895-1.5-2 0-1.105.672-2 1.5-2 .828 0 1.5.895 1.5 2"
         id="path12" />
    </clipPath>
    <clipPath
       id="clipPath14">
      <path
         d="m69.63 12.145h-.052c-22.727-.292-46.47 4.077-46.709 4.122-2.424.451-4.946 2.974-5.397 5.397-.044.237-4.414 23.983-4.122 46.71-.292 22.777 4.078 46.523 4.122 46.761.451 2.423 2.974 4.945 5.398 5.398.237.044 23.982 4.413 46.709 4.121 22.779.292 46.524-4.077 46.761-4.121 2.423-.452 4.946-2.976 5.398-5.399.044-.236 4.413-23.981 4.121-46.709.292-22.777-4.077-46.523-4.121-46.761-.453-2.423-2.976-4.946-5.398-5.397-.238-.045-23.984-4.414-46.71-4.122"
         id="path16" />
    </clipPath>
    <clipPath
       id="clipPath18">
      <path
         d="m-24 13c0 1.105-.672 2-1.5 2-.828 0-1.5-.895-1.5-2 0-1.105.672-2 1.5-2 .828 0 1.5.895 1.5 2"
         transform="matrix(15.33333 0 0 11.5 415-125.5)"
         fill="#1890d0"
         id="path20" />
    </clipPath>
    <clipPath
       id="clipPath22">
      <path
         fill="#1890d0"
         transform="matrix(15.33333 0 0 11.5 415-125.5)"
         d="m-24 13c0 1.105-.672 2-1.5 2-.828 0-1.5-.895-1.5-2 0-1.105.672-2 1.5-2 .828 0 1.5.895 1.5 2"
         id="path24" />
    </clipPath>
    <clipPath
       id="clipPath26">
      <path
         d="m-24 13c0 1.105-.672 2-1.5 2-.828 0-1.5-.895-1.5-2 0-1.105.672-2 1.5-2 .828 0 1.5.895 1.5 2"
         transform="matrix(15.33333 0 0 11.5 415-125.5)"
         fill="#1890d0"
         id="path28" />
    </clipPath>
    <clipPath
       id="clipPath30">
      <path
         fill="#1890d0"
         transform="matrix(15.33333 0 0 11.5 415-125.5)"
         d="m-24 13c0 1.105-.672 2-1.5 2-.828 0-1.5-.895-1.5-2 0-1.105.672-2 1.5-2 .828 0 1.5.895 1.5 2"
         id="path32" />
    </clipPath>
    <clipPath
       id="clipPath34">
      <path
         fill="#1890d0"
         transform="matrix(15.33333 0 0 11.5 415-125.5)"
         d="m-24 13c0 1.105-.672 2-1.5 2-.828 0-1.5-.895-1.5-2 0-1.105.672-2 1.5-2 .828 0 1.5.895 1.5 2"
         id="path36" />
    </clipPath>
    <clipPath
       id="clipPath38">
      <path
         fill="#1890d0"
         transform="matrix(15.33333 0 0 11.5 415-125.5)"
         d="m-24 13c0 1.105-.672 2-1.5 2-.828 0-1.5-.895-1.5-2 0-1.105.672-2 1.5-2 .828 0 1.5.895 1.5 2"
         id="path40" />
    </clipPath>
    <clipPath
       id="clipPath42">
      <path
         d="m-24 13c0 1.105-.672 2-1.5 2-.828 0-1.5-.895-1.5-2 0-1.105.672-2 1.5-2 .828 0 1.5.895 1.5 2"
         transform="matrix(15.33333 0 0 11.5 415-125.5)"
         fill="#1890d0"
         id="path44" />
    </clipPath>
    <clipPath
       id="clipPath46">
      <path
         d="m-24 13c0 1.105-.672 2-1.5 2-.828 0-1.5-.895-1.5-2 0-1.105.672-2 1.5-2 .828 0 1.5.895 1.5 2"
         transform="matrix(15.33333 0 0 11.5 415-125.5)"
         fill="#1890d0"
         id="path48" />
    </clipPath>
    <linearGradient
       id="0"
       y1="653.96"
       x2="0"
       y2="301.3"
       gradientUnits="userSpaceOnUse">
      <stop
         stop-color="#0a80fd"
         id="stop51" />
      <stop
         offset="1"
         stop-color="#56c5fa"
         id="stop53" />
    </linearGradient>
    <linearGradient
       y2="301.3"
       x2="0"
       y1="653.96"
       gradientUnits="userSpaceOnUse"
       id="1">
      <stop
         stop-color="#00a661"
         id="stop56" />
      <stop
         offset="1"
         stop-color="#37ce97"
         id="stop58" />
    </linearGradient>
    <linearGradient
       x2="409.33"
       x1="398.31"
       gradientUnits="userSpaceOnUse"
       id="linearGradient60">
      <stop
         stop-color="#b9b9b9"
         id="stop62" />
      <stop
         offset="1"
         stop-color="#d1d1d1"
         id="stop64" />
    </linearGradient>
    <linearGradient
       y1="545.8"
       x2="0"
       y2="517.8"
       gradientUnits="userSpaceOnUse"
       id="linearGradient66">
      <stop
         stop-color="#3889e9"
         id="stop68" />
      <stop
         offset="1"
         stop-color="#5ea5fb"
         id="stop70" />
    </linearGradient>
  </defs>
  <path
     inkscape:connector-curvature="0"
     d="M 0.44275647,20.388 C 0.60697944,20.007653 0.95759045,19.764319 1.3454791,19.764319 l 2.948961,0 C 6.169403,8.6937046 15.103939,0.28003791 25.812687,0.28003791 c 12.068877,0 21.889008,10.68369109 21.889008,23.81387709 0,13.130187 -9.819123,23.812781 -21.889008,23.812781 -7.789005,0 -15.053101,-4.560873 -18.9571746,-11.900362 -0.5500966,-1.035815 -0.2256806,-2.358808 0.7274171,-2.958375 0.9510828,-0.599567 2.1681463,-0.246622 2.7172355,0.789193 3.195799,6.007726 9.138051,9.741044 15.512522,9.741044 9.874536,0 17.909372,-8.740305 17.909372,-19.482089 0,-10.743976 -8.034836,-19.4842803 -17.909372,-19.4842803 -8.505339,0 -15.631407,6.4900103 -17.4469277,15.1535883 l 2.9257887,0 c 0.387888,0 0.737492,0.243334 0.902722,0.623681 0.164223,0.380347 0.110826,0.828652 -0.13702,1.152001 l -4.9750494,6.494395 c -0.1894106,0.246623 -0.4684889,0.389116 -0.7646947,0.389116 -0.2951984,0 -0.5752842,-0.143589 -0.7636872,-0.389116 L 0.57876936,21.541097 C 0.33092365,21.216652 0.2785335,20.768347 0.44275647,20.388"
     id="path74"
     style="fill:#5fd38d;fill-opacity:0.86299995" />
  <path
     d="m 34.90135,15.812631 c -1.062893,-2.81496 -2.900295,-3.666466 -4.465368,-3.81721 -0.210852,-0.577629 -0.47942,-1.120854 -0.807842,-1.60855 -0.888821,-1.3198857 -2.0705,-2.0465996 -3.327374,-2.0465996 -1.256979,0 -2.438658,0.7267139 -3.327385,2.0465996 -1.298537,1.928298 -1.716584,4.73164 -1.109837,7.268349 l -6.180117,9.17718 c -0.08307,0.1236 -0.134945,0.286098 -0.146324,0.459932 l -0.107255,1.62575 c -0.01484,0.224684 0.03879,0.447405 0.146336,0.607055 l 1.347,2.000274 c 0.08389,0.124641 0.1946,0.201595 0.312779,0.217743 l 0.569031,0.07771 c 0.01554,0.0021 0.03108,0.0031 0.0465,0.0031 0.134033,0 0.263486,-0.07891 0.359209,-0.220909 l 1.037283,-1.540346 c 0.09534,-0.141541 0.148765,-0.333479 0.148765,-0.533567 l 0,-0.154975 0.104334,0 c 0.134746,0 0.264,-0.07952 0.359315,-0.221063 l 0.204145,-0.303121 c 0.09522,-0.141526 0.148765,-0.333479 0.148765,-0.533417 l 0,-1.181213 0.795435,0 c 0.134746,0 0.264,-0.07952 0.359314,-0.220909 l 0.717191,-1.065024 c 0.09534,-0.141542 0.148766,-0.33333 0.148766,-0.533568 l 0,-0.09279 0.06251,0 c 0.134746,0 0.264,-0.07952 0.359313,-0.220912 L 23.3207,24.014861 c 0.09534,-0.141542 0.148767,-0.333479 0.148767,-0.533567 l 0,-0.310543 0.209122,0 c 0.134746,0 0.264,-0.07952 0.359313,-0.220912 l 0.695961,-1.033485 c 0.502787,0.264067 1.028953,0.39761 1.568731,0.39761 1.25637,0 2.437442,-0.726261 3.325761,-2.045392 1.216636,-1.806827 1.625533,-4.364509 1.228623,-6.677441 1.178933,0.248677 2.425443,1.018245 3.15829,2.959067 1.294272,3.427748 0.169387,6.462112 -0.469256,7.758307 l -3.312851,-1.067889 c -0.168475,-0.05447 -0.344779,0.02218 -0.467024,0.20386 l -5.837569,8.668661 c -0.09534,0.141542 -0.148765,0.33348 -0.148765,0.533568 0,0.200087 0.05351,0.392026 0.148765,0.533567 l 4.351653,6.461962 c 0.09931,0.147272 0.229241,0.220912 0.359314,0.220912 0.130072,0 0.260028,-0.07363 0.359313,-0.220912 l 5.837572,-8.668511 c 0.122244,-0.181528 0.173861,-0.442728 0.13728,-0.693519 l -0.71323,-4.879063 c 0.267751,-0.52059 0.636821,-1.344179 0.923778,-2.390642 0.669639,-2.444662 0.572094,-4.933688 -0.282891,-7.19788 z m -7.155419,-0.68899 c -0.349255,0 -0.677572,-0.201899 -0.924595,-0.568726 -0.509798,-0.757195 -0.509798,-1.988958 0,-2.746002 0.247023,-0.366827 0.575446,-0.568727 0.9247,-0.568727 0.349242,0 0.67756,0.202049 0.924584,0.568727 0.05269,0.07832 0.09931,0.163119 0.14165,0.251695 -0.676345,0.113465 -1.139092,0.295302 -1.200477,0.3202 -0.270601,0.110014 -0.429929,0.524967 -0.35575,0.926953 0.07408,0.401836 0.353519,0.638288 0.624224,0.528285 0.01413,-0.0057 0.474747,-0.186808 1.149469,-0.284286 -0.04884,0.377842 -0.171934,0.725355 -0.359116,1.003305 -0.247024,0.366528 -0.575447,0.568576 -0.924689,0.568576 z"
     id="path3"
     inkscape:connector-curvature="0"
     style="fill:#87deaa" />
</svg>
