<?xml version="1.0" encoding="UTF-8" standalone="no"?>
<svg
   xmlns:dc="http://purl.org/dc/elements/1.1/"
   xmlns:cc="http://creativecommons.org/ns#"
   xmlns:rdf="http://www.w3.org/1999/02/22-rdf-syntax-ns#"
   xmlns:svg="http://www.w3.org/2000/svg"
   xmlns="http://www.w3.org/2000/svg"
   xmlns:sodipodi="http://sodipodi.sourceforge.net/DTD/sodipodi-0.dtd"
   xmlns:inkscape="http://www.inkscape.org/namespaces/inkscape"
   viewBox="0 0 48 48"
   id="svg2"
   version="1.1"
   inkscape:version="0.91 r13725"
   sodipodi:docname="kipi-imageshack.svg">
  <metadata
     id="metadata36">
    <rdf:RDF>
      <cc:Work
         rdf:about="">
        <dc:format>image/svg+xml</dc:format>
        <dc:type
           rdf:resource="http://purl.org/dc/dcmitype/StillImage" />
        <dc:title></dc:title>
      </cc:Work>
    </rdf:RDF>
  </metadata>
  <sodipodi:namedview
     pagecolor="#ffffff"
     bordercolor="#666666"
     borderopacity="1"
     objecttolerance="10"
     gridtolerance="10"
     guidetolerance="10"
     inkscape:pageopacity="0"
     inkscape:pageshadow="2"
     inkscape:window-width="1280"
     inkscape:window-height="694"
     id="namedview34"
     showgrid="false"
     inkscape:zoom="4.9166667"
     inkscape:cx="-9.1525424"
     inkscape:cy="24"
     inkscape:window-x="0"
     inkscape:window-y="0"
     inkscape:window-maximized="1"
     inkscape:current-layer="svg2" />
  <defs
     id="defs4">
    <linearGradient
       y1="545.8"
       x2="0"
       y2="517.8"
       gradientUnits="userSpaceOnUse"
       id="linearGradient6">
      <stop
         stop-color="#3889e9"
         id="stop8" />
      <stop
         offset="1"
         stop-color="#5ea5fb"
         id="stop10" />
    </linearGradient>
    <linearGradient
       id="0"
       gradientUnits="userSpaceOnUse"
       y1="545.14"
       x2="0"
       y2="518.14">
      <stop
         stop-color="#ff9300"
         id="stop13" />
      <stop
         offset="1"
         stop-color="#ffd702"
         id="stop15" />
    </linearGradient>
    <linearGradient
       id="1"
       y1="545.71"
       x2="0"
       y2="500.71"
       gradientUnits="userSpaceOnUse"
       gradientTransform="translate(-384.57,-499.8)">
      <stop
         stop-color="#2e3e46"
         id="stop18" />
      <stop
         offset="1"
         stop-color="#435a64"
         id="stop20" />
    </linearGradient>
  </defs>
  <ellipse
     style="color:#000000;color-interpolation:sRGB;color-interpolation-filters:linearRGB;fill:#ffffff;fill-opacity:0.85;fill-rule:evenodd;color-rendering:auto;image-rendering:auto;shape-rendering:auto"
     id="ellipse30"
     cx="28.209999"
     cy="17.390003"
     rx="4.5"
     ry="4.3330002" />
  <path
     inkscape:connector-curvature="0"
     style="fill:#ffd42a"
     id="path32"
     d="M 21.88,47.94 C 18.77,47.621 16.208,46.895 13.453,45.55 7.67,42.727 3.308,37.735 1.253,31.589 0.407,29.058 0.056,26.821 0.06,23.987 0.066,20.12 0.768,17.017 2.406,13.606 7.405,3.203 19.031,-2.15 30.215,0.802 c 7.367,1.945 13.411,7.345 16.208,14.481 0.762,1.945 1.522,5.234 1.522,6.593 l 0,0.375 -1.282,-0.82 c -3.01,-1.926 -5.372,-3.046 -7.877,-3.741 -0.71,-0.197 -1.304,-0.275 -2.408,-0.319 -0.806,-0.032 -1.542,-0.097 -1.635,-0.146 -0.104,-0.054 -0.255,-0.439 -0.391,-0.994 -0.27,-1.107 -0.584,-1.802 -1.145,-2.544 -1.138,-1.503 -2.876,-2.354 -4.785,-2.344 -1.254,0.007 -2.196,0.247 -3.426,0.872 -0.561,0.285 -1.162,0.518 -1.338,0.518 -0.176,0 -1,-0.118 -1.84,-0.262 -0.836,-0.144 -1.863,-0.262 -2.282,-0.262 -0.824,0 -2.108,0.284 -2.75,0.609 -0.878,0.444 -2.101,0.763 -3.703,0.965 -1.931,0.245 -2.61,0.427 -3.048,0.818 -0.293,0.261 -0.332,0.375 -0.43,1.227 -0.14,1.219 0.058,2.157 0.754,3.573 1.398,2.844 3.808,5.793 8.965,10.971 1.32,1.325 3.044,3.096 3.832,3.936 1.201,1.28 1.544,1.582 2.124,1.87 1.139,0.566 1.589,1.323 1.457,2.45 -0.11,0.935 0.219,1.47 2.098,3.406 2.267,2.337 2.598,2.844 2.718,4.155 l 0.058,0.641 -0.965,0.272 c -2.256,0.637 -4.342,0.913 -6.72,0.889 -0.923,-0.009 -1.843,-0.034 -2.044,-0.054 m 5.02,-25.459 c -0.942,-0.301 -1.643,-0.742 -2.305,-1.45 -1.016,-1.086 -1.458,-2.19 -1.458,-3.639 0,-1.524 0.549,-2.801 1.643,-3.825 1.09,-1.02 2.192,-1.462 3.643,-1.462 1.503,0 2.771,0.538 3.802,1.611 1.615,1.682 1.955,4.068 0.882,6.187 -0.345,0.682 -1.504,1.834 -2.197,2.185 -1.188,0.602 -2.848,0.764 -4.01,0.392 m 0.413,-1.576 c 0.27,-0.145 0.498,-0.747 0.796,-2.1 0.146,-0.662 0.375,-1.416 0.509,-1.675 0.134,-0.259 0.44,-0.839 0.679,-1.288 0.239,-0.449 0.435,-0.949 0.435,-1.111 0,-0.448 -0.359,-0.82 -0.967,-1 -2.482,-0.737 -4.921,1.247 -4.764,3.877 0.081,1.36 0.811,2.491 1.988,3.079 0.66,0.33 1.01,0.388 1.324,0.22" />
</svg>
