<?xml version="1.0" encoding="UTF-8" standalone="no"?>
<!-- Generator: Adobe Illustrator 19.1.0, SVG Export Plug-In . SVG Version: 6.00 Build 0)  -->

<svg
   xmlns:dc="http://purl.org/dc/elements/1.1/"
   xmlns:cc="http://creativecommons.org/ns#"
   xmlns:rdf="http://www.w3.org/1999/02/22-rdf-syntax-ns#"
   xmlns:svg="http://www.w3.org/2000/svg"
   xmlns="http://www.w3.org/2000/svg"
   xmlns:sodipodi="http://sodipodi.sourceforge.net/DTD/sodipodi-0.dtd"
   xmlns:inkscape="http://www.inkscape.org/namespaces/inkscape"
   version="1.1"
   id="Capa_1"
   x="0px"
   y="0px"
   viewBox="0 0 421.141 421.141"
   style="enable-background:new 0 0 421.141 421.141;"
   xml:space="preserve"
   inkscape:version="0.91 r13725"
   sodipodi:docname="kmail.svg"><metadata
     id="metadata131"><rdf:RDF><cc:Work
         rdf:about=""><dc:format>image/svg+xml</dc:format><dc:type
           rdf:resource="http://purl.org/dc/dcmitype/StillImage" /><dc:title></dc:title></cc:Work></rdf:RDF></metadata><defs
     id="defs129" /><sodipodi:namedview
     pagecolor="#ffffff"
     bordercolor="#666666"
     borderopacity="1"
     objecttolerance="10"
     gridtolerance="10"
     guidetolerance="10"
     inkscape:pageopacity="0"
     inkscape:pageshadow="2"
     inkscape:window-width="1280"
     inkscape:window-height="694"
     id="namedview127"
     showgrid="false"
     inkscape:zoom="0.5603824"
     inkscape:cx="-80.302308"
     inkscape:cy="210.5705"
     inkscape:window-x="0"
     inkscape:window-y="0"
     inkscape:window-maximized="1"
     inkscape:current-layer="Capa_1" /><g
     id="g3"
     transform="matrix(1.2294654,0,0,1,-46.534167,0)"><g
       id="g5"><path
         style="fill:#ffe1b2"
         d="m 121.521,176.024 c -9.864,-2.468 -16.326,2.805 -16.326,13.161 0,13.709 13.265,47.296 27.21,26.321 13.945,-20.975 -10.884,-39.482 -10.884,-39.482 z"
         id="path7"
         inkscape:connector-curvature="0" /></g><g
       id="g9"><path
         style="fill:#ffe1b2"
         d="m 297.944,176.024 c 10.767,-2.468 17.821,2.805 17.821,13.161 0,13.709 -14.479,47.296 -29.701,26.321 -15.222,-20.975 11.88,-39.482 11.88,-39.482 z"
         id="path11"
         inkscape:connector-curvature="0" /></g><g
       id="g13"><path
         style="fill:#ffd7a3"
         d="m 138.277,294.307 c 14.716,-9.475 13.07,-37.675 13.07,-44.255 l 118.446,0 c 0,6.58 -1.825,34.78 12.89,44.255 l -72.113,80.771 -72.293,-80.771 z"
         id="path15"
         inkscape:connector-curvature="0" /></g><g
       id="g17"><path
         style="fill:#fdc88e"
         d="m 256.632,322.436 26.051,-28.129 c -14.716,-9.474 -12.89,-37.675 -12.89,-44.255 l -118.446,0 c 8.498,24.433 64.707,66.352 105.285,72.384 z"
         id="path19"
         inkscape:connector-curvature="0" /></g><g
       id="g21"><path
         style="fill:#ffe1b2"
         d="m 302.695,164.508 c 0,52.696 -30.343,118.446 -92.124,118.446 -61.781,0 -92.124,-65.75 -92.124,-118.446 0,-52.696 41.246,-72.384 92.124,-72.384 50.878,0 92.124,19.688 92.124,72.384 z"
         id="path23"
         inkscape:connector-curvature="0" /></g><g
       id="g25"><path
         style="fill:#543d38"
         d="m 138.187,147.146 c -2.742,7.887 -6.58,43.683 -6.58,43.683 l -13.161,-7.281 -3.701,-48.234 23.442,11.832 z"
         id="path27"
         inkscape:connector-curvature="0" /></g><g
       id="g29"><path
         style="fill:#543d38"
         d="m 282.954,147.146 c 2.742,7.887 6.58,43.683 6.58,43.683 l 13.161,-7.281 3.701,-48.234 -23.442,11.832 z"
         id="path31"
         inkscape:connector-curvature="0" /></g><g
       id="g33"><path
         style="fill:#2582b1"
         d="m 361.918,421.141 c 10.903,0 19.741,-8.838 19.741,-19.741 l 0,-30.562 c 0,-28.954 -22.562,-59.864 -50.138,-68.687 l -41.168,-13.173 c -22.149,16.936 -53.802,40.039 -79.782,40.039 -25.98,0 -57.633,-23.103 -79.782,-40.039 L 89.62,302.151 c -27.576,8.823 -50.138,39.733 -50.138,68.687 l 0,30.562 c 0,10.903 8.838,19.741 19.741,19.741 l 302.695,0 z"
         id="path35"
         inkscape:connector-curvature="0" /></g><g
       id="g37"><rect
         x="175.612"
         y="329.01599"
         style="fill:#d0d7dc"
         width="72.384003"
         height="92.124001"
         id="rect39" /></g><g
       id="g41"><path
         style="fill:#545465"
         d="m 223.731,348.757 c 0,3.619 -2.961,6.58 -6.58,6.58 l -13.161,0 c -3.619,0 -6.58,-2.961 -6.58,-6.58 l 0,-13.161 c 0,-3.619 2.961,-6.58 6.58,-6.58 l 13.161,0 c 3.619,0 6.58,2.961 6.58,6.58 l 0,13.161 z"
         id="path43"
         inkscape:connector-curvature="0" /></g><g
       id="g45"><circle
         style="fill:#d0d7dc"
         cx="210.57001"
         cy="388.23901"
         r="6.5799999"
         id="circle47" /></g><g
       id="g49"><path
         style="fill:#e4ebf0"
         d="m 210.57,329.016 -27.456,27.456 c -2.859,2.859 -7.596,2.487 -9.975,-0.783 l -48.113,-66.156 15.326,-15.326 c 2.475,-2.475 6.454,-2.579 9.055,-0.238 l 61.163,55.047 z"
         id="path51"
         inkscape:connector-curvature="0" /></g><g
       id="g53"><path
         style="fill:#e4ebf0"
         d="m 210.57,329.016 27.456,27.456 c 2.859,2.859 7.596,2.487 9.975,-0.783 l 48.113,-66.156 -15.326,-15.326 c -2.475,-2.475 -6.454,-2.579 -9.055,-0.238 l -61.163,55.047 z"
         id="path55"
         inkscape:connector-curvature="0" /></g><g
       id="g57"><polygon
         style="fill:#545465"
         points="197.41,421.141 210.57,421.141 223.731,421.141 219.611,351.636 210.57,355.337 201.53,351.636 "
         id="polygon59" /></g><g
       id="g61"><path
         style="fill:#2582b1"
         d="m 342.177,85.544 c 0,36.342 -58.922,46.062 -131.606,46.062 -72.684,0 -131.606,-9.72 -131.606,-46.062 C 78.965,49.202 137.886,0 210.57,0 283.254,0 342.177,49.202 342.177,85.544 Z"
         id="path63"
         inkscape:connector-curvature="0" /></g><g
       id="g65"><ellipse
         style="fill:#29394a"
         cx="210.57001"
         cy="131.606"
         rx="98.705002"
         ry="26.320999"
         id="ellipse67" /></g><g
       id="g69"><path
         style="fill:#1464a2"
         d="m 111.865,108.39 0,23.216 c 21.558,-3.809 57.709,-6.311 98.705,-6.311 40.996,0 77.147,2.502 98.705,6.311 l 0,-23.216 C 287.718,97.843 251.567,90.917 210.57,90.917 c -40.997,0 -77.146,6.926 -98.705,17.473 z"
         id="path71"
         inkscape:connector-curvature="0" /></g><g
       id="g73"><path
         style="fill:#543d38"
         d="m 212.627,233.505 c 0,-8.689 -8.431,-10.656 -13.983,-8.55 -10.179,3.861 -21.386,14.632 -30.845,7.971 0,0 3.29,13.903 8.841,13.903 11.103,-0.001 35.987,1.448 35.987,-13.324 z"
         id="path75"
         inkscape:connector-curvature="0" /></g><g
       id="g77"><path
         style="fill:#543d38"
         d="m 209.966,233.505 c 0,-8.689 8.431,-10.656 13.983,-8.55 10.179,3.861 21.386,14.632 30.845,7.971 0,0 -3.29,13.903 -8.841,13.903 -11.104,-0.001 -35.987,1.448 -35.987,-13.324 z"
         id="path79"
         inkscape:connector-curvature="0" /></g><g
       id="g81"><path
         style="fill:#1464a2"
         d="m 327.81,315.5 c -3.657,-15.003 -17.009,-53.296 -58.016,-53.296 0,13.06 -2.283,26.02 -6.746,38.294 l -39.729,120.642 35.595,0 46.325,-56.196 c 2.316,-2.315 2.576,-5.981 0.611,-8.601 l -16.317,-21.756 33.95,-11.317 c 3.251,-1.082 5.138,-4.442 4.327,-7.77 z"
         id="path83"
         inkscape:connector-curvature="0" /></g><g
       id="g85"><path
         style="fill:#1464a2"
         d="m 115.29,356.343 c -1.965,2.62 -1.705,6.286 0.611,8.601 l 46.325,56.196 35.595,0 -39.728,-120.643 c -4.463,-12.274 -6.746,-25.233 -6.746,-38.294 -41.008,0 -54.359,38.294 -58.016,53.296 -0.811,3.328 1.076,6.688 4.326,7.771 l 33.95,11.317 -16.317,21.756 z"
         id="path87"
         inkscape:connector-curvature="0" /></g><g
       id="g89"><circle
         style="fill:#ffd267"
         cx="209.966"
         cy="51.381001"
         r="17.273001"
         id="circle91" /></g><g
       id="g93"><path
         style="fill:#543d38"
         d="m 103.78,297.619 -14.16,4.531 c -4.419,1.414 -8.686,3.447 -12.775,5.896 L 191.8,421.14 l 37.535,0 L 103.78,297.619 Z"
         id="path95"
         inkscape:connector-curvature="0" /></g></g><g
     id="g97" /><g
     id="g99" /><g
     id="g101" /><g
     id="g103" /><g
     id="g105" /><g
     id="g107" /><g
     id="g109" /><g
     id="g111" /><g
     id="g113" /><g
     id="g115" /><g
     id="g117" /><g
     id="g119" /><g
     id="g121" /><g
     id="g123" /><g
     id="g125" /></svg>