<?xml version="1.0" encoding="UTF-8" standalone="no"?>
<svg
   xmlns:dc="http://purl.org/dc/elements/1.1/"
   xmlns:cc="http://creativecommons.org/ns#"
   xmlns:rdf="http://www.w3.org/1999/02/22-rdf-syntax-ns#"
   xmlns:svg="http://www.w3.org/2000/svg"
   xmlns="http://www.w3.org/2000/svg"
   xmlns:sodipodi="http://sodipodi.sourceforge.net/DTD/sodipodi-0.dtd"
   xmlns:inkscape="http://www.inkscape.org/namespaces/inkscape"
   viewBox="0 0 48 48"
   id="svg2"
   version="1.1"
   inkscape:version="0.91 r13725"
   sodipodi:docname="kpager.svg">
  <metadata
     id="metadata24">
    <rdf:RDF>
      <cc:Work
         rdf:about="">
        <dc:format>image/svg+xml</dc:format>
        <dc:type
           rdf:resource="http://purl.org/dc/dcmitype/StillImage" />
        <dc:title></dc:title>
      </cc:Work>
    </rdf:RDF>
  </metadata>
  <sodipodi:namedview
     pagecolor="#ffffff"
     bordercolor="#666666"
     borderopacity="1"
     objecttolerance="10"
     gridtolerance="10"
     guidetolerance="10"
     inkscape:pageopacity="0"
     inkscape:pageshadow="2"
     inkscape:window-width="1280"
     inkscape:window-height="694"
     id="namedview22"
     showgrid="false"
     inkscape:zoom="4.9166667"
     inkscape:cx="-9.1525424"
     inkscape:cy="24"
     inkscape:window-x="0"
     inkscape:window-y="0"
     inkscape:window-maximized="1"
     inkscape:current-layer="svg2" />
  <defs
     id="defs4">
    <linearGradient
       gradientUnits="userSpaceOnUse"
       y2="836.28"
       x2="642.04"
       y1="866.78"
       id="0"
       gradientTransform="matrix(.90417 0 0 .90535-551.46-761.78)"
       x1="642.31">
      <stop
         stop-color="#2e3e46"
         id="stop7" />
      <stop
         stop-color="#47606a"
         offset="1"
         id="stop9" />
    </linearGradient>
    <linearGradient
       id="1"
       y1="540.63"
       x2="0"
       y2="523.26"
       gradientUnits="userSpaceOnUse">
      <stop
         stop-color="#ff9300"
         id="stop12" />
      <stop
         stop-color="#ffd702"
         offset="1"
         id="stop14" />
    </linearGradient>
  </defs>
  <path
     d="m 27.795718,0.39429494 -8.222285,0.75437286 0,32.3008722 8.135976,-1.174079 0,-13.770733 10.946744,15.279479 8.57327,-2.597785 L 36.018002,16.493982 47.315731,2.6409543 38.564091,0.73170532 27.706533,14.584733 27.795718,0.39429494 M 9.1531684,8.269947 C 9.061106,8.275427 8.9604142,8.302865 8.8884909,8.3714445 L 5.6548146,11.454772 c -0.1352134,0.128929 -0.1524822,0.329181 -0.048897,0.485542 l 3.7774175,5.947201 c -0.6703264,1.075323 -1.2140676,2.227456 -1.5995761,3.450912 l -6.9391713,1.37433 c -0.19275488,0.04115 -0.33372471,0.213968 -0.33372471,0.403247 l 0,4.356159 c 0,0.183794 0.1467233,0.342897 0.33372471,0.384045 l 6.7291531,1.558123 c 0.3596177,1.415478 0.9148673,2.770606 1.6513628,4.005033 l -3.901125,5.661912 c -0.1093164,0.159104 -0.086307,0.370327 0.048909,0.502 l 3.2336775,3.083328 c 0.1352134,0.128929 0.3452327,0.145388 0.5092184,0.04663 l 6.1134901,-3.535951 c 1.199681,0.661105 2.49718,1.187794 3.866601,1.541663 l 1.424084,6.534241 c 0.04314,0.183792 0.20714,0.318207 0.402772,0.318207 l 4.568574,0 c 0.192755,0 0.359617,-0.123442 0.402772,-0.301749 l 1.685884,-6.567157 c 1.4097,-0.362099 2.741719,-0.899762 3.970172,-1.591042 l 6.027183,3.769121 c 0.166865,0.104236 0.385509,0.0823 0.526479,-0.04663 L 41.32021,39.75061 c 0.138084,-0.12893 0.169739,-0.329181 0.06904,-0.485542 l -2.195103,-3.450912 -0.719234,0.21671 c -0.103561,0.03291 -0.218648,-0.01372 -0.281939,-0.101495 0,0 -1.386684,-1.94491 -3.199155,-4.474117 -2.166334,4.040696 -6.582429,6.803071 -11.665977,6.803071 -7.226865,0 -13.09006,-5.590588 -13.09006,-12.48144 0,-5.069385 3.179013,-9.422802 7.730327,-11.375942 l 0,-3.217743 c -0.828558,0.277061 -1.628345,0.608985 -2.390735,1.004002 0,0 0,-0.01372 0,-0.0192 L 9.4092165,8.3138378 C 9.3257873,8.2589738 9.2394778,8.2534878 9.1445377,8.2672038"
     id="path20"
     style="fill:#ffd42a"
     inkscape:connector-curvature="0" />
</svg>
