<?xml version="1.0" encoding="UTF-8" standalone="no"?>
<svg
   xmlns:dc="http://purl.org/dc/elements/1.1/"
   xmlns:cc="http://creativecommons.org/ns#"
   xmlns:rdf="http://www.w3.org/1999/02/22-rdf-syntax-ns#"
   xmlns:svg="http://www.w3.org/2000/svg"
   xmlns="http://www.w3.org/2000/svg"
   xmlns:sodipodi="http://sodipodi.sourceforge.net/DTD/sodipodi-0.dtd"
   xmlns:inkscape="http://www.inkscape.org/namespaces/inkscape"
   viewBox="0 0 48 48"
   id="svg2"
   version="1.1"
   inkscape:version="0.91 r13725"
   sodipodi:docname="librecad.svg">
  <metadata
     id="metadata19">
    <rdf:RDF>
      <cc:Work
         rdf:about="">
        <dc:format>image/svg+xml</dc:format>
        <dc:type
           rdf:resource="http://purl.org/dc/dcmitype/StillImage" />
        <dc:title></dc:title>
      </cc:Work>
    </rdf:RDF>
  </metadata>
  <sodipodi:namedview
     pagecolor="#ffffff"
     bordercolor="#666666"
     borderopacity="1"
     objecttolerance="10"
     gridtolerance="10"
     guidetolerance="10"
     inkscape:pageopacity="0"
     inkscape:pageshadow="2"
     inkscape:window-width="1280"
     inkscape:window-height="694"
     id="namedview17"
     showgrid="false"
     inkscape:zoom="4.9166667"
     inkscape:cx="-9.1525424"
     inkscape:cy="24"
     inkscape:window-x="0"
     inkscape:window-y="0"
     inkscape:window-maximized="1"
     inkscape:current-layer="svg2" />
  <defs
     id="defs4">
    <linearGradient
       id="0"
       x1="23.795"
       y1="46.576"
       x2="23.595"
       y2=".407"
       gradientUnits="userSpaceOnUse">
      <stop
         stop-color="#74cb32"
         id="stop7" />
      <stop
         offset="1"
         stop-color="#abeb6b"
         id="stop9" />
    </linearGradient>
  </defs>
  <g
     id="g4147"
     transform="matrix(1.1786223,0,0,1.188183,-4.1852406,-4.6180866)">
    <circle
       style="fill:none;fill-opacity:1;stroke:#2c3e1b;stroke-width:3.0769999;stroke-linecap:round;stroke-linejoin:round"
       id="circle13"
       cx="24"
       cy="24"
       r="18.462" />
    <path
       style="fill:#112b00"
       id="path15"
       d="m 11.236,20 c -0.451,0 -0.813,0.364 -0.813,0.814 l 0,6.371 c 0,0.451 0.362,0.814 0.813,0.814 l 6.373,0 c 0.451,0 0.814,-0.364 0.814,-0.814 l 0,-1.254 18.746,0 c 0.225,0 0.406,-0.181 0.406,-0.406 l 0,-2.848 c 0,-0.225 -0.181,-0.406 -0.406,-0.406 l -18.746,0 0,-1.457 C 18.423,20.363 18.059,20 17.609,20 l -6.373,0"
       inkscape:connector-curvature="0" />
  </g>
</svg>
