<?xml version="1.0" encoding="UTF-8" standalone="no"?>
<svg
   xmlns:dc="http://purl.org/dc/elements/1.1/"
   xmlns:cc="http://creativecommons.org/ns#"
   xmlns:rdf="http://www.w3.org/1999/02/22-rdf-syntax-ns#"
   xmlns:svg="http://www.w3.org/2000/svg"
   xmlns="http://www.w3.org/2000/svg"
   xmlns:sodipodi="http://sodipodi.sourceforge.net/DTD/sodipodi-0.dtd"
   xmlns:inkscape="http://www.inkscape.org/namespaces/inkscape"
   viewBox="0 0 48 48"
   id="svg2"
   version="1.1"
   inkscape:version="0.91 r13725"
   sodipodi:docname="moinmoin.svg">
  <metadata
     id="metadata30">
    <rdf:RDF>
      <cc:Work
         rdf:about="">
        <dc:format>image/svg+xml</dc:format>
        <dc:type
           rdf:resource="http://purl.org/dc/dcmitype/StillImage" />
        <dc:title></dc:title>
      </cc:Work>
    </rdf:RDF>
  </metadata>
  <sodipodi:namedview
     pagecolor="#ffffff"
     bordercolor="#666666"
     borderopacity="1"
     objecttolerance="10"
     gridtolerance="10"
     guidetolerance="10"
     inkscape:pageopacity="0"
     inkscape:pageshadow="2"
     inkscape:window-width="1280"
     inkscape:window-height="694"
     id="namedview28"
     showgrid="false"
     inkscape:zoom="4.9166667"
     inkscape:cx="-9.1525424"
     inkscape:cy="24"
     inkscape:window-x="0"
     inkscape:window-y="0"
     inkscape:window-maximized="1"
     inkscape:current-layer="svg2" />
  <defs
     id="defs4">
    <clipPath
       id="1">
      <path
         fill="#1890d0"
         transform="matrix(15.33333 0 0 11.5 415-125.5)"
         d="m-24 13c0 1.105-.672 2-1.5 2-.828 0-1.5-.895-1.5-2 0-1.105.672-2 1.5-2 .828 0 1.5.895 1.5 2"
         id="path7" />
    </clipPath>
    <linearGradient
       id="0"
       gradientUnits="userSpaceOnUse"
       x1="400.51"
       y1="546.07"
       x2="400.7"
       y2="517.77">
      <stop
         stop-color="#197ff1"
         id="stop10" />
      <stop
         offset="1"
         stop-color="#21c6fb"
         id="stop12" />
    </linearGradient>
  </defs>
  <circle
     cx="400.57"
     cy="531.8"
     r="14"
     transform="matrix(1.71434 0 0 1.71434-662.72-887.68)"
     fill="#5ea5fb"
     fill-opacity="0"
     id="circle16" />
  <g
     id="g4167"
     transform="matrix(1.5098946,0,0,1.394815,-12.341155,-9.4744486)">
    <path
       d="m 23.915299,6.998602 c -2.526953,0 -4.592888,2.0659351 -4.592888,4.592888 l -3.466276,2.836699 -4.906956,2.792038 0.135424,9.095012 6.167551,4.006532 4.502125,-2.836699 3.781785,-0.450933 4.953058,3.196869 -3.826446,2.431868 c -0.770764,-0.573391 -1.705765,-0.945087 -2.745936,-0.945087 -1.086273,0 -2.087546,0.365933 -2.88136,0.99551 l -3.557039,-2.256105 -6.527721,0.871612 8.328571,5.251278 c 0.118135,2.459241 2.149494,4.417125 4.637549,4.417125 2.380003,0 4.32204,-1.789324 4.592887,-4.097294 l 3.336615,-2.842461 2.88136,-6.663145 -6.48306,-3.692463 -6.707806,-1.891613 -6.933993,4.906956 c 0,0 -0.635339,-3.24153 -0.321271,-3.466276 0.321271,-0.224746 2.616275,-4.862295 2.616275,-4.862295 l 4.277379,-3.152208 c 0.759238,0.573391 1.715849,0.900425 2.745936,0.900425 1.012798,0 1.942036,-0.342882 2.701275,-0.900425 l 3.557039,3.061445 3.557038,-2.745936 -5.222465,-3.917209 c 0,-0.01729 0,-0.02881 0,-0.04466 l 0,-0.180085 C 28.413102,8.9564861 26.37598,6.9971613 23.921062,6.9971613"
       id="path24"
       inkscape:connector-curvature="0"
       style="fill:#0055d4;fill-opacity:1" />
    <path
       d="m 13.334945,12.896746 c -2.807885,0 -5.0870411,2.279156 -5.0870411,5.087041 0,1.789325 0.9393234,3.371191 2.3411051,4.277379 l 0,3.826446 c -1.4017817,0.906188 -2.3411051,2.482292 -2.3411051,4.277379 0,2.807885 2.2791561,5.087041 5.0870411,5.087041 2.807885,0 5.087041,-2.279156 5.087041,-5.087041 l 0,-0.180085 c -0.07348,-1.845511 -1.136696,-3.398564 -2.656614,-4.232718 l -0.04466,-3.512378 c 0.10661,-0.06195 0.25356,-0.06771 0.36017,-0.135424 l 2.745936,1.711528 c 0,0.02881 0,0.05619 0,0.09076 0,2.807885 2.279156,5.087041 5.087041,5.087041 2.763224,0 5.013567,-2.205681 5.087041,-4.953058 l 2.836699,-2.025596 c 0.157034,0.10661 0.327035,0.180085 0.495594,0.270848 l 0.04466,3.376954 c -1.649578,0.844238 -2.792038,2.526953 -2.792038,4.502125 0,2.807885 2.273393,5.087041 5.087041,5.087041 2.807886,0 5.087042,-2.279156 5.087042,-5.087041 l 0,-0.180085 c -0.085,-1.812376 -1.109324,-3.342378 -2.565852,-4.186616 l 0.04466,-3.646361 c 1.496866,-0.883137 2.52119,-2.498139 2.52119,-4.365261 l 0,-0.224746 c -0.112373,-2.73441 -2.369919,-4.862295 -5.087042,-4.862295 -2.554325,0 -4.676447,1.874325 -5.04238,4.32204 l -3.376953,2.385766 c -0.703052,-0.383221 -1.496867,-0.584916 -2.341105,-0.584916 -0.811103,0 -1.535765,0.208899 -2.205682,0.540255 L 18.37012,17.537173 c -0.218984,-2.616275 -2.385766,-4.637549 -5.04238,-4.637549"
       id="path26"
       inkscape:connector-curvature="0"
       style="fill:#aaccff" />
  </g>
</svg>
