<?xml version="1.0" encoding="UTF-8" standalone="no"?>
<svg
   xmlns:dc="http://purl.org/dc/elements/1.1/"
   xmlns:cc="http://creativecommons.org/ns#"
   xmlns:rdf="http://www.w3.org/1999/02/22-rdf-syntax-ns#"
   xmlns:svg="http://www.w3.org/2000/svg"
   xmlns="http://www.w3.org/2000/svg"
   xmlns:sodipodi="http://sodipodi.sourceforge.net/DTD/sodipodi-0.dtd"
   xmlns:inkscape="http://www.inkscape.org/namespaces/inkscape"
   viewBox="0 0 48 48"
   id="svg2"
   version="1.1"
   inkscape:version="0.91 r13725"
   sodipodi:docname="patchage.svg">
  <metadata
     id="metadata26">
    <rdf:RDF>
      <cc:Work
         rdf:about="">
        <dc:format>image/svg+xml</dc:format>
        <dc:type
           rdf:resource="http://purl.org/dc/dcmitype/StillImage" />
        <dc:title></dc:title>
      </cc:Work>
    </rdf:RDF>
  </metadata>
  <sodipodi:namedview
     pagecolor="#ffffff"
     bordercolor="#666666"
     borderopacity="1"
     objecttolerance="10"
     gridtolerance="10"
     guidetolerance="10"
     inkscape:pageopacity="0"
     inkscape:pageshadow="2"
     inkscape:window-width="1280"
     inkscape:window-height="694"
     id="namedview24"
     showgrid="false"
     inkscape:zoom="4.9166667"
     inkscape:cx="-9.1525424"
     inkscape:cy="24"
     inkscape:window-x="0"
     inkscape:window-y="0"
     inkscape:window-maximized="1"
     inkscape:current-layer="svg2" />
  <defs
     id="defs4">
    <clipPath
       id="clipPath6">
      <path
         transform="matrix(15.33333 0 0 11.5 415-125.5)"
         d="m-24 13c0 1.105-.672 2-1.5 2-.828 0-1.5-.895-1.5-2 0-1.105.672-2 1.5-2 .828 0 1.5.895 1.5 2"
         fill="#1890d0"
         id="path8" />
    </clipPath>
    <linearGradient
       gradientTransform="matrix(1.77384 0 0 1.71427 42.46 39.38)"
       gradientUnits="userSpaceOnUse"
       y2="-22.851"
       x2="-11.233"
       y1="4.675"
       x1="-10.767"
       id="0">
      <stop
         stop-color="#e1e1e1"
         id="stop11" />
      <stop
         stop-color="#f4f4ff"
         offset="1"
         id="stop13" />
    </linearGradient>
    <linearGradient
       id="1"
       x1="-24.479"
       y1="42.832"
       x2="-23.449"
       y2="19.534"
       gradientUnits="userSpaceOnUse">
      <stop
         stop-color="#1b92f4"
         id="stop16" />
      <stop
         stop-color="#20b9fa"
         offset="1"
         id="stop18" />
    </linearGradient>
  </defs>
  <path
     d="m 47.843553,14.609441 0,9.521713 -7.450833,0 0,-9.521713 z m -6.813961,-4.6860365 0,9.5217135 -7.450833,0 0,-9.5217135 z m -6.549068,-4.6860372 0,9.5217127 -7.450834,0 0,-9.5217127 z m -6.656153,-4.76085641 0,29.82918611 -7.332474,0 0,-29.82918611 z m -7.016857,32.37697311 0,14.877185 -13.7350086,0 0,-14.877185 z m -20.44752066,0.500107 21.29292466,0 0,9.596531 -21.29292466,0 z m 6.17709116,-4.611218 21.2929235,0 0,14.282568 -21.2929235,0 z"
     id="path22"
     style="opacity:0.98000004;fill:#5599ff"
     inkscape:connector-curvature="0" />
</svg>
