<?xml version="1.0" encoding="UTF-8" standalone="no"?>
<svg
   xmlns:dc="http://purl.org/dc/elements/1.1/"
   xmlns:cc="http://creativecommons.org/ns#"
   xmlns:rdf="http://www.w3.org/1999/02/22-rdf-syntax-ns#"
   xmlns:svg="http://www.w3.org/2000/svg"
   xmlns="http://www.w3.org/2000/svg"
   xmlns:sodipodi="http://sodipodi.sourceforge.net/DTD/sodipodi-0.dtd"
   xmlns:inkscape="http://www.inkscape.org/namespaces/inkscape"
   viewBox="0 0 48 48"
   id="svg2"
   version="1.1"
   inkscape:version="0.91 r13725"
   sodipodi:docname="selinux.svg">
  <metadata
     id="metadata17">
    <rdf:RDF>
      <cc:Work
         rdf:about="">
        <dc:format>image/svg+xml</dc:format>
        <dc:type
           rdf:resource="http://purl.org/dc/dcmitype/StillImage" />
        <dc:title></dc:title>
      </cc:Work>
    </rdf:RDF>
  </metadata>
  <sodipodi:namedview
     pagecolor="#ffffff"
     bordercolor="#666666"
     borderopacity="1"
     objecttolerance="10"
     gridtolerance="10"
     guidetolerance="10"
     inkscape:pageopacity="0"
     inkscape:pageshadow="2"
     inkscape:window-width="1280"
     inkscape:window-height="694"
     id="namedview15"
     showgrid="false"
     inkscape:zoom="4.9166667"
     inkscape:cx="-9.1525424"
     inkscape:cy="24"
     inkscape:window-x="0"
     inkscape:window-y="0"
     inkscape:window-maximized="1"
     inkscape:current-layer="svg2" />
  <defs
     id="defs4">
    <linearGradient
       id="0"
       gradientUnits="userSpaceOnUse"
       y1="232.47"
       x2="0"
       y2="176.47"
       gradientTransform="matrix(0.91937344,0,0,0.86418,-663.10987,-152.63)">
      <stop
         stop-color="#ffc515"
         id="stop7" />
      <stop
         offset="1"
         stop-color="#ffd55b"
         id="stop9" />
    </linearGradient>
  </defs>
  <path
     d="M 47.712902,10.112378 C 47.697273,8.9872152 46.776061,8.0582217 45.584553,7.9553843 35.681062,7.0825625 27.59885,2.1100708 24.934506,0.29010772 c -0.557139,-0.38196756 -1.311026,-0.38196756 -1.868166,0 C 20.406592,2.1100708 12.3253,7.0851551 2.4208898,7.9553843 1.2293818,8.0582217 0.31276653,8.9872152 0.29254031,10.112378 0.17302177,17.455315 1.4270471,42.380859 23.405589,47.930623 c 0.390733,0.09765 0.801693,0.09765 1.191507,0 21.977623,-5.541987 23.232567,-30.479629 23.113049,-37.818245"
     id="path11"
     style="fill:#ffd42a"
     inkscape:connector-curvature="0" />
  <g
     id="g4196"
     transform="matrix(0.78666667,0,0,0.56929728,69.556611,18.445348)">
    <g
       transform="matrix(0.1220339,0,0,0.1059322,-65.491526,12.131357)"
       id="XMLID_511_"
       style="fill:#ffdd55">
      <g
         id="XMLID_1307_"
         style="fill:#ffdd55">
        <g
           id="XMLID_1308_"
           style="fill:#ffdd55">
          <g
             id="XMLID_1309_"
             style="fill:#ffdd55">
            <path
               inkscape:connector-curvature="0"
               d="M 185,290 C 129.86,290 85,245.14 85,190 l 0,-90 C 85,44.86 129.86,0 185,0 240.14,0 285,44.86 285,100 l 0,90 c 0,55.14 -44.86,100 -100,100 z m 0,-250 c -33.084,0 -60,26.916 -60,60 l 0,90 c 0,33.084 26.916,60 60,60 33.084,0 60,-26.916 60,-60 l 0,-90 C 245,66.916 218.084,40 185,40 Z"
               style="fill:#ffdd55"
               id="XMLID_1310_" />
          </g>
        </g>
      </g>
    </g>
    <path
       inkscape:connector-curvature="0"
       d="m -42.915254,12.131357 0,4.237288 c 4.037369,0 7.322034,2.851271 7.322034,6.355932 l 0,9.533898 c 0,3.504661 -3.284665,6.355932 -7.322034,6.355932 l 0,4.237288 c 6.728949,0 12.20339,-4.752118 12.20339,-10.59322 l 0,-9.533898 c 0,-5.841102 -5.474441,-10.59322 -12.20339,-10.59322 z"
       style="fill:#ffdd55"
       id="XMLID_524_" />
    <g
       style="fill:#d4aa00"
       transform="matrix(0.1220339,0,0,0.1059322,-65.491526,12.131357)"
       id="XMLID_525_">
      <circle
         id="XMLID_526_"
         style="fill:#d4aa00"
         cx="185"
         cy="245"
         r="125" />
      <path
         id="XMLID_531_"
         style="fill:#d4aa00"
         d="m 185,120 0,250 c 69.036,0 125,-55.964 125,-125 0,-69.036 -55.964,-125 -125,-125 z"
         inkscape:connector-curvature="0" />
    </g>
    <g
       style="fill:#ffdd55"
       transform="matrix(0.1220339,0,0,0.1059322,-65.491526,12.131357)"
       id="XMLID_532_">
      <path
         id="XMLID_535_"
         style="fill:#ffdd55"
         d="m 216.25,231.607 c 0,-17.259 -13.991,-31.25 -31.25,-31.25 -17.259,0 -31.25,13.991 -31.25,31.25 0,11.565 6.287,21.655 15.625,27.059 l 0,30.977 31.25,0 0,-30.977 c 9.338,-5.404 15.625,-15.494 15.625,-27.059 z"
         inkscape:connector-curvature="0" />
      <path
         id="XMLID_783_"
         style="fill:#ffdd55"
         d="m 185,200.357 0,89.286 15.625,0 0,-30.977 c 9.338,-5.404 15.625,-15.494 15.625,-27.059 0,-17.259 -13.991,-31.25 -31.25,-31.25 z"
         inkscape:connector-curvature="0" />
    </g>
  </g>
</svg>
