<?xml version="1.0" encoding="UTF-8" standalone="no"?>
<svg
   xmlns:dc="http://purl.org/dc/elements/1.1/"
   xmlns:cc="http://creativecommons.org/ns#"
   xmlns:rdf="http://www.w3.org/1999/02/22-rdf-syntax-ns#"
   xmlns:svg="http://www.w3.org/2000/svg"
   xmlns="http://www.w3.org/2000/svg"
   xmlns:sodipodi="http://sodipodi.sourceforge.net/DTD/sodipodi-0.dtd"
   xmlns:inkscape="http://www.inkscape.org/namespaces/inkscape"
   viewBox="0 0 48 48"
   id="svg2"
   version="1.1"
   inkscape:version="0.91 r13725"
   sodipodi:docname="synfigstudio.svg">
  <metadata
     id="metadata24">
    <rdf:RDF>
      <cc:Work
         rdf:about="">
        <dc:format>image/svg+xml</dc:format>
        <dc:type
           rdf:resource="http://purl.org/dc/dcmitype/StillImage" />
        <dc:title></dc:title>
      </cc:Work>
    </rdf:RDF>
  </metadata>
  <sodipodi:namedview
     pagecolor="#ffffff"
     bordercolor="#666666"
     borderopacity="1"
     objecttolerance="10"
     gridtolerance="10"
     guidetolerance="10"
     inkscape:pageopacity="0"
     inkscape:pageshadow="2"
     inkscape:window-width="1280"
     inkscape:window-height="694"
     id="namedview22"
     showgrid="false"
     inkscape:zoom="4.9166667"
     inkscape:cx="-5.7966102"
     inkscape:cy="24"
     inkscape:window-x="0"
     inkscape:window-y="0"
     inkscape:window-maximized="1"
     inkscape:current-layer="svg2" />
  <defs
     id="defs4">
    <linearGradient
       id="0"
       gradientUnits="userSpaceOnUse"
       y1="22.369"
       x2="0"
       y2="-26.429"
       gradientTransform="matrix(0.99999,0,0,0.99999,-38.37,25.882)">
      <stop
         stop-color="#d8d8d8"
         id="stop7" />
      <stop
         offset="1"
         stop-color="#fff"
         id="stop9" />
    </linearGradient>
    <linearGradient
       id="1"
       y1="-17.875"
       x2="0"
       y2="17.12"
       gradientUnits="userSpaceOnUse"
       gradientTransform="matrix(0.99999,0,0,0.99999,-38.37,25.882)">
      <stop
         stop-color="#0a80fd"
         id="stop12" />
      <stop
         offset="1"
         stop-color="#56c5fa"
         id="stop14" />
    </linearGradient>
  </defs>
  <path
     inkscape:connector-curvature="0"
     style="fill:#00aad4"
     id="path20"
     d="m 24.191662,0.48363499 c -0.210141,-0.004412 -0.412119,0.0544022 -0.556973,0.16467528 -2.093237,1.57323823 -4.219117,3.33908793 -6.140976,5.01965843 0,0 -0.004,0.00442 -0.0062,0.00588 C 12.752271,9.9304136 9.151333,14.304605 6.5419265,18.98021 4.1120576,23.342637 2.690044,27.11694 1.3986034,32.612981 c -0.2835866,1.204188 -0.56921417,2.662742 -0.7671132,3.836054 -0.0979371,0.586656 -0.17545835,1.101268 -0.21830014,1.485019 -0.0224434,0.189671 -0.0346888,0.346996 -0.0367231,0.473443 0,0.06322 0,0.116158 0.006156,0.180849 0.004015,0.03234 0.008164,0.06764 0.030607,0.127918 0.0224434,0.05882 0.004015,0.180848 0.33663298,0.327879 0.1795375,0.0794 0.20402043,0.06322 0.24686088,0.07204 0.0448867,0.0074 0.0795621,0.01324 0.11425103,0.01764 0.071412,0.0088 0.1489358,1.48e-4 0.2366617,0.02058 0.1754583,0.01324 0.3917175,0.02646 0.6202196,0.03528 1.8157694,0.07204 4.4945428,0.404338 6.2695086,0.779268 1.1975921,0.252894 1.987146,0.46168 3.158218,0.836611 0.271344,0.08674 0.518208,0.166145 0.701824,0.223487 0.09181,0.0294 0.167298,0.05146 0.224422,0.0691 0.02653,0.0088 0.051,1.46e-4 0.07345,0.02058 0,0 0,0 0.004,0 0,0 0.004,0 0.004,0 0.0082,0.003 0.01633,0.0058 0.03061,0.01178 0,0 -0.004,-0.0044 -0.0062,-0.0044 0.004,0 0.0062,0 0.01017,0.003 0.01017,0.003 2.04e-4,0.0058 0.04284,0.01178 0.0082,0 0.01633,0.0058 0.02653,0.0088 -0.0062,0 -0.02448,0 -0.02856,0 0.051,0.02058 0.114252,0.04558 0.195861,0.07792 0.197901,0.07792 0.469244,0.186729 0.767111,0.307296 2.864429,1.160079 5.008672,2.356917 8.430073,4.719714 0.450884,0.311707 0.871164,0.594008 1.189433,0.802793 0.159136,0.104397 0.291747,0.191141 0.395796,0.254364 0.05305,0.03234 0.09589,0.05882 0.142815,0.0838 0.02448,0.01324 0.04692,0.02646 0.08569,0.04412 2.05e-4,0.0088 0.04489,0.01912 0.08773,0.03528 0.04489,1.46e-4 0.08773,0.04558 0.291746,0.05294 0.244823,0.0088 0.293789,-0.03088 0.344794,-0.04558 0.051,-0.01618 0.07549,-0.02646 0.09794,-0.03676 0.04284,-0.01912 0.06733,-0.03234 0.09181,-0.04558 0.051,-0.02646 0.09589,-0.0544 0.153016,-0.08968 0.112217,-0.0691 0.257065,-0.161735 0.430481,-0.273479 0.346832,-0.224957 0.805875,-0.530783 1.299603,-0.867486 2.829746,-1.934936 4.200754,-2.752432 6.18178,-3.694904 4.304805,-2.058443 8.140365,-2.970039 14.028361,-3.330266 l 0.477404,-0.0294 c 0.383555,-0.02352 0.679384,-0.254364 0.677343,-0.532254 l 0,-0.202904 c 0,-0.421981 -0.138734,-1.292408 -0.326431,-2.37162 -0.1877,-1.079213 -0.428439,-2.306926 -0.6447,-3.239106 -1.291442,-5.546033 -2.76038,-9.452663 -5.220852,-13.870962 -2.217688,-3.980145 -5.392225,-7.99852 -9.184944,-11.6375514 -0.0082,-0.00882 -0.01836,-0.016174 -0.02652,-0.023526 C 29.889928,5.0577932 27.421295,2.7714512 24.726202,0.65125534 24.591547,0.545393 24.401812,0.48216907 24.201873,0.47775807" />
</svg>
