<?xml version="1.0" encoding="UTF-8" standalone="no"?>
<svg
   xmlns:dc="http://purl.org/dc/elements/1.1/"
   xmlns:cc="http://creativecommons.org/ns#"
   xmlns:rdf="http://www.w3.org/1999/02/22-rdf-syntax-ns#"
   xmlns:svg="http://www.w3.org/2000/svg"
   xmlns="http://www.w3.org/2000/svg"
   xmlns:sodipodi="http://sodipodi.sourceforge.net/DTD/sodipodi-0.dtd"
   xmlns:inkscape="http://www.inkscape.org/namespaces/inkscape"
   viewBox="0 0 48 48"
   id="svg2"
   version="1.1"
   inkscape:version="0.91 r13725"
   sodipodi:docname="syspeek.svg">
  <metadata
     id="metadata46">
    <rdf:RDF>
      <cc:Work
         rdf:about="">
        <dc:format>image/svg+xml</dc:format>
        <dc:type
           rdf:resource="http://purl.org/dc/dcmitype/StillImage" />
        <dc:title></dc:title>
      </cc:Work>
    </rdf:RDF>
  </metadata>
  <sodipodi:namedview
     pagecolor="#ffffff"
     bordercolor="#666666"
     borderopacity="1"
     objecttolerance="10"
     gridtolerance="10"
     guidetolerance="10"
     inkscape:pageopacity="0"
     inkscape:pageshadow="2"
     inkscape:window-width="1280"
     inkscape:window-height="694"
     id="namedview44"
     showgrid="false"
     inkscape:zoom="4.9166667"
     inkscape:cx="-11.59322"
     inkscape:cy="24"
     inkscape:window-x="0"
     inkscape:window-y="0"
     inkscape:window-maximized="1"
     inkscape:current-layer="svg2" />
  <defs
     id="defs4">
    <clipPath
       id="clipPath6">
      <rect
         y="6"
         x="6"
         rx="6"
         height="84"
         width="84"
         fill="#fff"
         id="rect8" />
    </clipPath>
    <clipPath
       id="clipPath10">
      <path
         d="m-24 13c0 1.105-.672 2-1.5 2-.828 0-1.5-.895-1.5-2 0-1.105.672-2 1.5-2 .828 0 1.5.895 1.5 2"
         transform="matrix(15.33333 0 0 11.5 415-125.5)"
         fill="#1890d0"
         id="path12" />
    </clipPath>
    <clipPath
       id="1">
      <path
         transform="matrix(15.33333 0 0 11.5 415-125.5)"
         d="m-24 13c0 1.105-.672 2-1.5 2-.828 0-1.5-.895-1.5-2 0-1.105.672-2 1.5-2 .828 0 1.5.895 1.5 2"
         fill="#1890d0"
         id="path15" />
    </clipPath>
    <filter
       color-interpolation-filters="sRGB"
       id="filter17">
      <feGaussianBlur
         stdDeviation="1.71"
         id="feGaussianBlur19" />
    </filter>
    <linearGradient
       id="0"
       x1="24.2"
       y1="41.695"
       x2="23.797"
       y2="6.305"
       gradientUnits="userSpaceOnUse"
       gradientTransform="translate(-0.40677966,0)">
      <stop
         stop-color="#ffbc00"
         id="stop22" />
      <stop
         stop-color="#ffec00"
         offset="1"
         id="stop24" />
    </linearGradient>
    <linearGradient
       gradientTransform="scale(1.0059.99417)"
       gradientUnits="userSpaceOnUse"
       y2="7.02"
       x2="0"
       y1="92.54"
       id="linearGradient26">
      <stop
         id="stop28" />
      <stop
         offset="1"
         stop-opacity=".588"
         id="stop30" />
    </linearGradient>
  </defs>
  <g
     transform="matrix(1.9901096,0,0,1.9901097,-23.661017,-23.661017)"
     id="g34"
     style="fill:#806600">
    <g
       clip-path="url(#1)"
       id="g36"
       style="fill:#806600">
      <g
         id="g38"
         style="fill:#806600">
        <path
           d="m 15,12 c -1.66,0 -3,1.34 -3,3 l 0,18 c 0,1.66 1.34,3 3,3 l 18,0 c 1.66,0 3,-1.34 3,-3 l 0,-18 c 0,-1.66 -1.34,-3 -3,-3 m -18,3 18,0 0,18 -18,0"
           id="path40"
           inkscape:connector-curvature="0"
           style="fill:#806600" />
        <path
           d="m 17,28 14,0 0,3 -14,0"
           id="path42"
           inkscape:connector-curvature="0"
           style="fill:#806600" />
      </g>
    </g>
  </g>
</svg>
