<?xml version="1.0" encoding="UTF-8" standalone="no"?>
<svg
   xmlns:dc="http://purl.org/dc/elements/1.1/"
   xmlns:cc="http://creativecommons.org/ns#"
   xmlns:rdf="http://www.w3.org/1999/02/22-rdf-syntax-ns#"
   xmlns:svg="http://www.w3.org/2000/svg"
   xmlns="http://www.w3.org/2000/svg"
   xmlns:sodipodi="http://sodipodi.sourceforge.net/DTD/sodipodi-0.dtd"
   xmlns:inkscape="http://www.inkscape.org/namespaces/inkscape"
   viewBox="0 0 48 48"
   id="svg2"
   version="1.1"
   inkscape:version="0.91 r13725"
   sodipodi:docname="xmradio.svg">
  <metadata
     id="metadata41">
    <rdf:RDF>
      <cc:Work
         rdf:about="">
        <dc:format>image/svg+xml</dc:format>
        <dc:type
           rdf:resource="http://purl.org/dc/dcmitype/StillImage" />
        <dc:title></dc:title>
      </cc:Work>
    </rdf:RDF>
  </metadata>
  <sodipodi:namedview
     pagecolor="#ffffff"
     bordercolor="#666666"
     borderopacity="1"
     objecttolerance="10"
     gridtolerance="10"
     guidetolerance="10"
     inkscape:pageopacity="0"
     inkscape:pageshadow="2"
     inkscape:window-width="1280"
     inkscape:window-height="694"
     id="namedview39"
     showgrid="false"
     inkscape:zoom="4.9166667"
     inkscape:cx="-9.1525424"
     inkscape:cy="24"
     inkscape:window-x="0"
     inkscape:window-y="0"
     inkscape:window-maximized="1"
     inkscape:current-layer="svg2" />
  <defs
     id="defs4">
    <linearGradient
       y1="545.8"
       x2="0"
       y2="517.8"
       gradientUnits="userSpaceOnUse"
       id="linearGradient6">
      <stop
         stop-color="#3889e9"
         id="stop8" />
      <stop
         offset="1"
         stop-color="#5ea5fb"
         id="stop10" />
    </linearGradient>
    <linearGradient
       y2="1060.36"
       x2="0"
       y1="1031.36"
       gradientTransform="matrix(1.2 0 0 1.19802-119.45-1221.66)"
       gradientUnits="userSpaceOnUse"
       id="2">
      <stop
         stop-color="#f7f7f7"
         id="stop13" />
      <stop
         offset="1"
         stop-color="#d8d8d8"
         id="stop15" />
    </linearGradient>
    <linearGradient
       gradientTransform="matrix(.49433 0 0 .4778 99.25 50.12)"
       gradientUnits="userSpaceOnUse"
       y2="-26.05"
       x2="-125.19"
       y1="73.5"
       x1="-123.97"
       id="0">
      <stop
         stop-color="#f15400"
         id="stop18" />
      <stop
         offset="1"
         stop-color="#fa8c00"
         id="stop20" />
    </linearGradient>
    <radialGradient
       r="13.688"
       cy="1048.31"
       cx="90.38"
       gradientTransform="matrix(-1.75732.47087-.30087-1.12286 530.97 2208.72)"
       gradientUnits="userSpaceOnUse"
       id="1">
      <stop
         stop-color="#f7f7f7"
         id="stop23" />
      <stop
         offset=".497"
         stop-color="#efefef"
         id="stop25" />
      <stop
         offset="1"
         stop-color="#d8d8d8"
         stop-opacity="0"
         id="stop27" />
    </radialGradient>
  </defs>
  <g
     id="g4169"
     transform="matrix(1,0,0,1.3935643,0,-18.89939)">
    <path
       style="fill:#ffccaa"
       id="path31"
       d="m 29.789,13.913 c -5.128,0 -9.393,3.405 -10.492,7.968 -1.216,-1.508 -2.992,-2.455 -4.946,-2.455 -3.67,0 -6.632,3.354 -6.632,7.477 0,0.425 0.052,0.84 0.112,1.246 C 6.91,27.563 5.804,27.205 4.609,27.205 2.744,27.205 1.055,28.063 0,29.357 -0.058,33.741 0,40.91 0,45.35 c 0,0 -0.229,2.954 4.244,2.649 l 19.76,0 20.16,0 c 4.215,0.098 3.799,-3.249 3.799,-3.249 L 48,28.413 c -10e-4,-0.014 -0.028,-0.023 -0.037,-0.037 -0.006,-0.012 0.006,-0.029 0,-0.037 -1.01,-1.552 -2.796,-2.605 -4.834,-2.605 -1.055,0 -2,0.311 -2.848,0.793 0.184,-0.752 0.3,-1.536 0.3,-2.341 0,-5.673 -4.832,-10.272 -10.792,-10.272 z"
       inkscape:connector-curvature="0" />
    <g
       style="fill:#ff6600"
       id="g33"
       transform="translate(-383.75,-496.48)">
      <path
         style="fill:#ff6600;stroke-width:1.31700003"
         id="path35"
         transform="matrix(0.85022,0,0,0.85022,62.55,81.13)"
         d="m 416.22,515.26 c -1.477,-2.192 -4.128,-3.464 -7.872,-3.781 l -0.006,0 c -0.276,-0.031 -0.541,-0.047 -0.788,-0.047 -1.887,0 -2.557,0.945 -2.557,1.754 l 0,14.08 c -0.742,-0.224 -1.539,-0.288 -2.325,-0.189 -1.37,0.173 -2.598,0.816 -3.457,1.812 -0.859,0.995 -1.246,2.223 -1.09,3.458 0.289,2.292 2.434,4.02 4.99,4.02 0.24,0 0.483,-0.015 0.724,-0.046 2.649,-0.334 4.572,-2.435 4.572,-4.996 l 0,-13.817 c 0.199,-0.013 0.398,-0.02 0.592,-0.02 2.336,0 4.483,0.977 6.21,2.825 0.712,0.762 1.212,1.52 1.506,2.02 0.072,0.123 0.213,0.189 0.354,0.164 0.14,-0.025 0.251,-0.135 0.276,-0.275 0.283,-1.556 0.514,-4.529 -1.129,-6.965"
         inkscape:connector-curvature="0" />
    </g>
    <path
       style="fill:#ffe6d5"
       id="path37"
       transform="matrix(0.99149,0,0,1,-41.719,-1038.68)"
       d="m 51.43,1072.04 c -3.843,0 -7.229,2.262 -9.292,5.732 l 0,2.473 c 0,3.319 2.676,6.03 5.995,6.03 l 25.702,0 c 0.706,-0.927 1.124,-2.01 1.124,-3.185 0,-3.307 -3.228,-5.957 -7.194,-5.957 -2.542,0 -4.756,1.073 -6.03,2.735 -1.818,-4.625 -5.738,-7.83 -10.303,-7.83"
       inkscape:connector-curvature="0" />
  </g>
</svg>
