<?xml version="1.0" encoding="UTF-8" standalone="no"?>
<!-- Created with Inkscape (http://www.inkscape.org/) -->

<svg
   xmlns:dc="http://purl.org/dc/elements/1.1/"
   xmlns:cc="http://creativecommons.org/ns#"
   xmlns:rdf="http://www.w3.org/1999/02/22-rdf-syntax-ns#"
   xmlns:svg="http://www.w3.org/2000/svg"
   xmlns="http://www.w3.org/2000/svg"
   xmlns:sodipodi="http://sodipodi.sourceforge.net/DTD/sodipodi-0.dtd"
   xmlns:inkscape="http://www.inkscape.org/namespaces/inkscape"
   width="10"
   height="10"
   id="svg3795"
   version="1.1"
   inkscape:version="0.91 r13725"
   sodipodi:docname="help_hover.svg">
  <defs
     id="defs3797">
    <linearGradient
       id="0"
       x1="409.57"
       y1="542.8"
       x2="409.94"
       y2="508.63"
       gradientUnits="userSpaceOnUse"
       gradientTransform="matrix(1.05233,0,0,1.02761,-22.768,-10.984)">
      <stop
         id="stop4148"
         stop-color="#197cf1" />
      <stop
         id="stop4150"
         stop-color="#20bcfa"
         offset="1" />
    </linearGradient>
    <linearGradient
       id="1"
       x1="3.147"
       x2="18.772"
       gradientUnits="userSpaceOnUse">
      <stop
         id="stop4153"
         stop-color="#e6f3ff" />
      <stop
         id="stop4155"
         stop-color="#dcffe7"
         offset="1" />
    </linearGradient>
  </defs>
  <sodipodi:namedview
     id="base"
     pagecolor="#808080"
     bordercolor="#ffffff"
     borderopacity="0.0"
     inkscape:pageopacity="0.50196078"
     inkscape:pageshadow="0"
     inkscape:zoom="28.963094"
     inkscape:cx="-3.4263646"
     inkscape:cy="6.1132922"
     inkscape:document-units="px"
     inkscape:current-layer="svg3795"
     showgrid="true"
     inkscape:window-width="1280"
     inkscape:window-height="688"
     inkscape:window-x="0"
     inkscape:window-y="0"
     inkscape:window-maximized="1"
     borderlayer="true"
     showborder="true">
    <inkscape:grid
       type="xygrid"
       id="grid3556"
       empspacing="5"
       visible="true"
       enabled="true"
       snapvisiblegridlinesonly="true" />
  </sodipodi:namedview>
  <metadata
     id="metadata3800">
    <rdf:RDF>
      <cc:Work
         rdf:about="">
        <dc:format>image/svg+xml</dc:format>
        <dc:type
           rdf:resource="http://purl.org/dc/dcmitype/StillImage" />
        <dc:title />
      </cc:Work>
    </rdf:RDF>
  </metadata>
  <path
     style="fill:#0064ff;fill-opacity:1;fill-rule:evenodd;stroke:#0064ff;stroke-width:0.24164553;stroke-linecap:round;stroke-linejoin:round;stroke-miterlimit:4;stroke-dasharray:none;stroke-opacity:1"
     d="m 4.4895795,0.12298735 c -1.1214516,0 -2.0444942,0.20043541 -2.7737693,0.60324992 C 1.0015535,1.1214991 0.49389273,1.5708553 0.20017769,2.0719486 L 2.0091591,2.5465352 C 2.4564015,1.7041798 3.2846854,1.2788668 4.4895795,1.2788668 c 0.7292769,0 1.2943834,0.1249928 1.6949008,0.3712279 0.4272197,0.2462247 0.6388466,0.5684723 0.6388466,0.9723719 0,0.2095113 -0.085687,0.4202815 -0.2542334,0.6222329 C 6.4155521,3.436927 6.2519131,3.5890188 6.0866981,3.7024077 5.9331558,3.8082418 5.665291,3.9671254 5.288139,4.1917596 4.6156015,4.5773018 4.1454073,4.9168973 3.880064,5.2063226 3.6130681,5.4871058 3.479152,5.8245899 3.479152,6.2187709 l 0,0.6201243 1.9752132,0 0,-0.5273171 c 0,-0.4827343 0.429773,-0.9642212 1.2842151,-1.4469565 L 6.8396258,4.7992345 C 7.2051216,4.5886451 7.4885667,4.4152462 7.6838206,4.2845728 7.8874286,4.1430999 8.1306198,3.9136258 8.397636,3.5864049 8.6629763,3.2613357 8.7985435,2.9388937 8.7985435,2.622471 8.7985435,1.8945873 8.3951831,1.299269 7.595817,0.83381321 6.7981107,0.35971376 5.7645631,0.12298735 4.4895795,0.12298735 Z M 4.463702,8.0517194 c -0.4055261,0 -0.7496159,0.087524 -1.0299785,0.2678739 C 3.168364,8.491308 3.0393478,8.6998141 3.0393478,8.9460456 c 0,0.2462246 0.1290437,0.4535122 0.3943752,0.6327806 0.2803722,0.1749549 0.6244614,0.2636594 1.0299859,0.2636594 0.4071875,0 0.7466665,-0.088698 1.0136777,-0.2636594 C 5.7577496,9.3995505 5.8978515,9.192275 5.8978515,8.9460456 5.8978515,8.6998212 5.7577467,8.4913057 5.4773863,8.3195933 5.2103575,8.1392433 4.870876,8.0517194 4.4636843,8.0517194 Z"
     id="path4186"
     inkscape:connector-curvature="0" />
</svg>
