<?xml version="1.0" encoding="UTF-8" standalone="no"?>
<svg
   xmlns:dc="http://purl.org/dc/elements/1.1/"
   xmlns:cc="http://creativecommons.org/ns#"
   xmlns:rdf="http://www.w3.org/1999/02/22-rdf-syntax-ns#"
   xmlns:svg="http://www.w3.org/2000/svg"
   xmlns="http://www.w3.org/2000/svg"
   xmlns:sodipodi="http://sodipodi.sourceforge.net/DTD/sodipodi-0.dtd"
   xmlns:inkscape="http://www.inkscape.org/namespaces/inkscape"
   viewBox="0 0 64 64"
   id="svg2"
   version="1.1"
   inkscape:version="0.91 r13725"
   sodipodi:docname="battery-100.svg">
  <metadata
     id="metadata15">
    <rdf:RDF>
      <cc:Work
         rdf:about="">
        <dc:format>image/svg+xml</dc:format>
        <dc:type
           rdf:resource="http://purl.org/dc/dcmitype/StillImage" />
        <dc:title></dc:title>
      </cc:Work>
    </rdf:RDF>
  </metadata>
  <sodipodi:namedview
     pagecolor="#ffffff"
     bordercolor="#666666"
     borderopacity="1"
     objecttolerance="10"
     gridtolerance="10"
     guidetolerance="10"
     inkscape:pageopacity="0"
     inkscape:pageshadow="2"
     inkscape:window-width="1280"
     inkscape:window-height="694"
     id="namedview13"
     showgrid="false"
     inkscape:zoom="3.6875"
     inkscape:cx="-12.20339"
     inkscape:cy="32"
     inkscape:window-x="0"
     inkscape:window-y="0"
     inkscape:window-maximized="1"
     inkscape:current-layer="svg2" />
  <defs
     id="defs4">
    <linearGradient
       id="0"
       x1="32.519"
       y1="56.27"
       x2="33.981"
       y2="7.769"
       gradientUnits="userSpaceOnUse">
      <stop
         stop-color="#49b903"
         id="stop7" />
      <stop
         offset="1"
         stop-color="#8cff07"
         id="stop9" />
    </linearGradient>
  </defs>
  <path
     d="m 20.748564,0.30772475 c -1.248541,0 -2.046574,0.72766605 -2.046574,1.62437245 l 0,4.8770793 -16.0563115,0 c -1.2485382,0 -2.04657421,0.7276661 -2.04657421,1.6243725 l 0,9.752838 0,43.884469 c 0,0.896707 0.82010151,1.624372 2.06863971,1.624372 l 58.841271,0 c 1.248539,0 2.456624,-0.727665 2.456624,-1.624372 l 0,-43.884469 0,-9.752838 c 0,-0.8967064 -1.228313,-1.6243725 -2.478689,-1.6243725 l -15.626037,0 0,-4.8770793 c 0,-0.8967064 -1.22831,-1.62437245 -2.478686,-1.62437245 l -22.633663,0"
     id="path11"
     style="fill:#00d455"
     inkscape:connector-curvature="0" />
</svg>
