<?xml version="1.0" encoding="UTF-8" standalone="no"?>
<svg
   xmlns:dc="http://purl.org/dc/elements/1.1/"
   xmlns:cc="http://creativecommons.org/ns#"
   xmlns:rdf="http://www.w3.org/1999/02/22-rdf-syntax-ns#"
   xmlns:svg="http://www.w3.org/2000/svg"
   xmlns="http://www.w3.org/2000/svg"
   xmlns:sodipodi="http://sodipodi.sourceforge.net/DTD/sodipodi-0.dtd"
   xmlns:inkscape="http://www.inkscape.org/namespaces/inkscape"
   viewBox="0 0 64 64"
   id="svg2"
   version="1.1"
   inkscape:version="0.91 r13725"
   sodipodi:docname="battery-low.svg">
  <metadata
     id="metadata19">
    <rdf:RDF>
      <cc:Work
         rdf:about="">
        <dc:format>image/svg+xml</dc:format>
        <dc:type
           rdf:resource="http://purl.org/dc/dcmitype/StillImage" />
        <dc:title></dc:title>
      </cc:Work>
    </rdf:RDF>
  </metadata>
  <sodipodi:namedview
     pagecolor="#ffffff"
     bordercolor="#666666"
     borderopacity="1"
     objecttolerance="10"
     gridtolerance="10"
     guidetolerance="10"
     inkscape:pageopacity="0"
     inkscape:pageshadow="2"
     inkscape:window-width="1280"
     inkscape:window-height="694"
     id="namedview17"
     showgrid="false"
     inkscape:zoom="3.6875"
     inkscape:cx="-12.20339"
     inkscape:cy="32"
     inkscape:window-x="0"
     inkscape:window-y="0"
     inkscape:window-maximized="1"
     inkscape:current-layer="svg2" />
  <defs
     id="defs4">
    <linearGradient
       id="0"
       x1="795.88"
       y1="222.19"
       x2="795.82"
       y2="167.6"
       gradientUnits="userSpaceOnUse"
       gradientTransform="matrix(0.92857,0,0,0.92857,-706.94,-149.37)">
      <stop
         stop-color="#dc3c30"
         id="stop7" />
      <stop
         offset="1"
         stop-color="#ff786d"
         id="stop9" />
    </linearGradient>
  </defs>
  <g
     id="g4149"
     transform="matrix(1.7046563,0,0,1.2190278,-22.408332,-7.0087163)">
    <path
       d="m 25.200302,5.9983324 c -0.737284,0 -1.206212,0.5970705 -1.206212,1.3334265 l 0,4.0012081 -9.460271,0 c -0.737285,0 -1.206213,0.597071 -1.206213,1.333427 l 0,35.99973 0,8.000559 c 0,0.736356 0.482857,1.333427 1.219213,1.333427 l 34.663518,0 c 0.736356,0 1.44764,-0.597071 1.44764,-1.333427 l 0,-8.000559 0,-35.99973 c 0,-0.736356 -0.724284,-1.333427 -1.459712,-1.333427 l -9.205843,0 0,-4.0012081 c 0,-0.736356 -0.724284,-1.3334265 -1.459712,-1.3334265 l -13.334265,0"
       id="path13"
       style="fill:#ff5555"
       inkscape:connector-curvature="0" />
    <path
       d="m 31.746721,21.654023 c -1.153284,0 -2.085569,0.945284 -2.085569,2.079996 l 0,12.522695 c 0,1.148642 0.925785,2.079069 2.085569,2.079069 1.155141,0 2.085568,-0.945285 2.085568,-2.079069 l 0,-12.522695 c 0,-1.148641 -0.923927,-2.079996 -2.085568,-2.079996 m 0,20.852896 c -1.153284,0 -2.085569,0.92857 -2.085569,2.085568 0,1.153284 0.92857,2.085569 2.085569,2.085569 1.153284,0 2.085568,-0.92857 2.085568,-2.085569 0,-1.153284 -0.92857,-2.085568 -2.085568,-2.085568"
       id="path15"
       inkscape:connector-curvature="0"
       style="fill:#1c1f24" />
  </g>
</svg>
