<?xml version="1.0" encoding="UTF-8" standalone="no"?>
<svg
   xmlns:dc="http://purl.org/dc/elements/1.1/"
   xmlns:cc="http://creativecommons.org/ns#"
   xmlns:rdf="http://www.w3.org/1999/02/22-rdf-syntax-ns#"
   xmlns:svg="http://www.w3.org/2000/svg"
   xmlns="http://www.w3.org/2000/svg"
   xmlns:sodipodi="http://sodipodi.sourceforge.net/DTD/sodipodi-0.dtd"
   xmlns:inkscape="http://www.inkscape.org/namespaces/inkscape"
   viewBox="0 0 64 64"
   id="svg2"
   version="1.1"
   inkscape:version="0.91 r13725"
   sodipodi:docname="battery-missing.svg">
  <metadata
     id="metadata17">
    <rdf:RDF>
      <cc:Work
         rdf:about="">
        <dc:format>image/svg+xml</dc:format>
        <dc:type
           rdf:resource="http://purl.org/dc/dcmitype/StillImage" />
        <dc:title></dc:title>
      </cc:Work>
    </rdf:RDF>
  </metadata>
  <sodipodi:namedview
     pagecolor="#ffffff"
     bordercolor="#666666"
     borderopacity="1"
     objecttolerance="10"
     gridtolerance="10"
     guidetolerance="10"
     inkscape:pageopacity="0"
     inkscape:pageshadow="2"
     inkscape:window-width="1280"
     inkscape:window-height="694"
     id="namedview15"
     showgrid="false"
     inkscape:zoom="3.6875"
     inkscape:cx="-12.20339"
     inkscape:cy="32"
     inkscape:window-x="0"
     inkscape:window-y="0"
     inkscape:window-maximized="1"
     inkscape:current-layer="svg2" />
  <defs
     id="defs4">
    <linearGradient
       id="0"
       x1="32.08"
       y1="55.03"
       x2="32.04"
       y2="8.242"
       gradientUnits="userSpaceOnUse">
      <stop
         stop-color="#dbdbdb"
         id="stop7" />
      <stop
         offset="1"
         stop-color="#fcf9f9"
         id="stop9" />
    </linearGradient>
  </defs>
  <g
     id="g4145"
     transform="matrix(1.6755263,0,0,1.2190348,-21.50542,-7.0093524)">
    <path
       style="fill:#dbdee3"
       id="path11"
       d="m 25.729,8 c -0.681,0 -1.113,0.551 -1.113,1.23 l 0,3.693 -8.732,0 c -0.681,0 -1.113,0.551 -1.113,1.23 l 0,33.23 0,7.385 c 0,0.679 0.446,1.23 1.125,1.23 l 32,0 c 0.679,0 1.336,-0.551 1.336,-1.23 l 0,-7.385 0,-33.23 c 0,-0.679 -0.668,-1.23 -1.348,-1.23 l -8.498,0 0,-3.693 C 39.386,8.551 38.718,8 38.038,8 L 25.729,8"
       transform="matrix(1.08338,0,0,1.08338,-2.634,-2.666)"
       inkscape:connector-curvature="0" />
    <path
       style="fill:#1c1f24"
       id="path13"
       transform="matrix(0.40894,0,0,0.40894,-260.93,-31.613)"
       d="m 720.4,192.92 q -1.637,1.723 -4.135,1.723 -2.498,0 -4.222,-1.723 -1.637,-1.723 -1.637,-4.135 0,-2.412 1.637,-4.135 1.723,-1.723 4.222,-1.723 2.498,0 4.135,1.723 1.723,1.723 1.723,4.135 0,2.412 -1.723,4.135 m -0.086,-17.92 -8.098,0 0,-4.049 q 0,-3.877 1.637,-6.634 1.637,-2.843 5.772,-6.634 2.326,-2.154 3.274,-3.188 1.034,-1.12 1.982,-3.02 1.034,-1.982 1.034,-4.049 0,-3.963 -2.585,-6.375 -2.498,-2.412 -6.978,-2.412 -7.409,0 -10.166,8.271 l -7.409,-3.102 q 1.809,-4.911 6.203,-8.788 4.48,-3.963 11.372,-3.963 7.84,0 12.751,4.652 4.911,4.566 4.911,11.717 0,3.102 -1.637,6.289 -1.637,3.188 -2.929,4.566 -1.206,1.292 -3.446,3.36 -0.258,0.258 -0.431,0.431 -5.255,4.738 -5.255,9.477 l 0,3.446"
       inkscape:connector-curvature="0" />
  </g>
</svg>
