<?xml version="1.0" encoding="UTF-8" standalone="no"?>
<svg
   xmlns:dc="http://purl.org/dc/elements/1.1/"
   xmlns:cc="http://creativecommons.org/ns#"
   xmlns:rdf="http://www.w3.org/1999/02/22-rdf-syntax-ns#"
   xmlns:svg="http://www.w3.org/2000/svg"
   xmlns="http://www.w3.org/2000/svg"
   xmlns:sodipodi="http://sodipodi.sourceforge.net/DTD/sodipodi-0.dtd"
   xmlns:inkscape="http://www.inkscape.org/namespaces/inkscape"
   viewBox="0 0 64 64"
   id="svg2"
   version="1.1"
   inkscape:version="0.91 r13725"
   sodipodi:docname="battery-caution.svg">
  <metadata
     id="metadata26">
    <rdf:RDF>
      <cc:Work
         rdf:about="">
        <dc:format>image/svg+xml</dc:format>
        <dc:type
           rdf:resource="http://purl.org/dc/dcmitype/StillImage" />
        <dc:title></dc:title>
      </cc:Work>
    </rdf:RDF>
  </metadata>
  <sodipodi:namedview
     pagecolor="#ffffff"
     bordercolor="#666666"
     borderopacity="1"
     objecttolerance="10"
     gridtolerance="10"
     guidetolerance="10"
     inkscape:pageopacity="0"
     inkscape:pageshadow="2"
     inkscape:window-width="1280"
     inkscape:window-height="694"
     id="namedview24"
     showgrid="false"
     inkscape:zoom="3.6875"
     inkscape:cx="-15.294495"
     inkscape:cy="31.676239"
     inkscape:window-x="0"
     inkscape:window-y="0"
     inkscape:window-maximized="1"
     inkscape:current-layer="svg2" />
  <defs
     id="defs4">
    <linearGradient
       id="0"
       x1="773.78"
       y1="214.78"
       x2="773.58"
       y2="201.09"
       gradientUnits="userSpaceOnUse"
       gradientTransform="matrix(1.006,0,0,1.006,-745.99,-154.21)">
      <stop
         stop-color="#dc3c30"
         id="stop7" />
      <stop
         offset="1"
         stop-color="#ff786d"
         id="stop9" />
    </linearGradient>
    <linearGradient
       id="1"
       x1="772.8"
       y1="211.68"
       x2="773.21"
       y2="159.14"
       gradientUnits="userSpaceOnUse"
       gradientTransform="matrix(1.006,0,0,1.006,-745.99,-154.21)">
      <stop
         stop-color="#dbdbdb"
         id="stop12" />
      <stop
         offset="1"
         stop-color="#fcf9f9"
         id="stop14" />
    </linearGradient>
  </defs>
  <g
     id="g4157"
     transform="matrix(1.6899921,0,0,1.2138277,-22.240052,-6.7072391)">
    <path
       d="m 13.36898,56.66772 c 0,0.736392 0.483886,1.33295 1.220278,1.33295 l 34.668772,0 c 0.736392,0 1.446628,-0.597564 1.446628,-1.33295 l 0,-8.000718 -37.33266,0 0,8.000718"
       id="path18"
       style="fill:#ff5555"
       inkscape:connector-curvature="0" />
    <path
       d="m 50.70164,48.67002 0,-36.001722 c 0,-0.736392 -0.72432,-1.33295 -1.459706,-1.33295 l -9.206912,0 0,-3.999856 c 0,-0.736392 -0.72432,-1.33295 -1.459706,-1.33295 l -13.333524,0 c -0.737398,0 -1.2072,0.597564 -1.2072,1.33295 l 0,3.999856 -9.460424,0 c -0.737398,0 -1.2072,0.597564 -1.2072,1.33295 l 0,36.001722 37.33266,0"
       id="path20"
       style="fill:#dbdee3"
       inkscape:connector-curvature="0" />
    <path
       d="m 31.78884,19.48596 c -1.152876,0 -2.085438,0.94564 -2.085438,2.079402 l 0,12.523694 c 0,1.148852 0.92552,2.079402 2.085438,2.079402 1.154888,0 2.085438,-0.94564 2.085438,-2.079402 l 0,-12.523694 c 0,-1.148852 -0.923508,-2.079402 -2.085438,-2.079402 m 0,20.853374 c -1.152876,0 -2.085438,0.932562 -2.085438,2.085438 0,1.152876 0.932562,2.085438 2.085438,2.085438 1.152876,0 2.085438,-0.932562 2.085438,-2.085438 0,-1.152876 -0.93055,-2.085438 -2.085438,-2.085438"
       id="path22"
       inkscape:connector-curvature="0"
       style="fill:#0b1728;fill-opacity:0.68999999" />
  </g>
</svg>
