<?xml version="1.0" encoding="UTF-8" standalone="no"?>
<svg
   xmlns:dc="http://purl.org/dc/elements/1.1/"
   xmlns:cc="http://creativecommons.org/ns#"
   xmlns:rdf="http://www.w3.org/1999/02/22-rdf-syntax-ns#"
   xmlns:svg="http://www.w3.org/2000/svg"
   xmlns="http://www.w3.org/2000/svg"
   xmlns:sodipodi="http://sodipodi.sourceforge.net/DTD/sodipodi-0.dtd"
   xmlns:inkscape="http://www.inkscape.org/namespaces/inkscape"
   viewBox="0 0 48 48"
   id="svg2"
   version="1.1"
   inkscape:version="0.91 r13725"
   sodipodi:docname="mail-unread-new.svg">
  <metadata
     id="metadata17">
    <rdf:RDF>
      <cc:Work
         rdf:about="">
        <dc:format>image/svg+xml</dc:format>
        <dc:type
           rdf:resource="http://purl.org/dc/dcmitype/StillImage" />
        <dc:title></dc:title>
      </cc:Work>
    </rdf:RDF>
  </metadata>
  <sodipodi:namedview
     pagecolor="#ffffff"
     bordercolor="#666666"
     borderopacity="1"
     objecttolerance="10"
     gridtolerance="10"
     guidetolerance="10"
     inkscape:pageopacity="0"
     inkscape:pageshadow="2"
     inkscape:window-width="1280"
     inkscape:window-height="694"
     id="namedview15"
     showgrid="false"
     inkscape:zoom="4.9166667"
     inkscape:cx="9.9310192"
     inkscape:cy="24"
     inkscape:window-x="0"
     inkscape:window-y="0"
     inkscape:window-maximized="1"
     inkscape:current-layer="svg2" />
  <defs
     id="defs4">
    <linearGradient
       id="0"
       x1="11.818"
       y1="-1049.18"
       x2="12.182"
       y2="-1033.91"
       gradientUnits="userSpaceOnUse"
       gradientTransform="matrix(2.9682204,0,0,2.9809322,-56.952508,3080.2235)">
      <stop
         stop-color="#c52828"
         id="stop7" />
      <stop
         offset="1"
         stop-color="#ff5454"
         id="stop9" />
    </linearGradient>
  </defs>
  <ellipse
     transform="scale(-1,-1)"
     cy="-23.999962"
     cx="-24.302084"
     id="circle11"
     style="opacity:0.98000004;fill:#ff2a2a"
     rx="23.745762"
     ry="23.847458" />
  <path
     d="m 47.441465,37.786709 -2.130242,-2.084154 2.130242,-2.084154 c 0.308868,-0.288208 0.411761,-0.64842 0.308868,-1.080638 -0.123358,-0.421985 -0.390917,-0.684423 -0.802867,-0.787313 l -2.902224,-0.741079 0.818217,-2.87071 c 0.123358,-0.421795 0.02596,-0.782198 -0.293519,-1.080637 -0.298258,-0.319095 -0.658477,-0.416869 -1.08066,-0.293324 l -2.870768,0.818199 -0.741283,-2.902353 c -0.102893,-0.421986 -0.364958,-0.684423 -0.786951,-0.787314 -0.422183,-0.113315 -0.782403,-0.01535 -1.08066,0.293324 l -2.084386,2.145926 -2.084195,-2.145926 c -0.298446,-0.319095 -0.658667,-0.416869 -1.08066,-0.293324 -0.421993,0.102885 -0.684437,0.365328 -0.78733,0.787314 L 31.231953,27.582899 28.361185,26.7647 c -0.421993,-0.123545 -0.782213,-0.02576 -1.080659,0.293324 -0.3191,0.298439 -0.416877,0.658652 -0.293329,1.080637 l 0.818215,2.87071 L 24.903,31.75045 c -0.411572,0.102896 -0.679321,0.365328 -0.802678,0.787313 -0.103083,0.432218 0,0.79243 0.308678,1.080638 l 2.130433,2.084154 -2.130433,2.084154 c -0.308678,0.288209 -0.411571,0.648421 -0.308678,1.080638 0.123357,0.421985 0.391106,0.684423 0.802678,0.787313 l 2.902412,0.74089 -0.818215,2.87071 c -0.123548,0.421985 -0.02577,0.782007 0.293329,1.080637 0.298446,0.319094 0.658666,0.416679 1.080659,0.293324 l 2.870768,-0.81801 0.741094,2.902165 c 0.102893,0.421984 0.365337,0.689538 0.78733,0.802661 0.432226,0.102897 0.792446,0 1.08066,-0.308673 l 2.084195,-2.130388 2.084386,2.130578 c 0.205787,0.226057 0.46823,0.33937 0.78714,0.33937 0.0722,0 0.169783,-0.01042 0.29352,-0.03069 0.421993,-0.123544 0.684247,-0.391097 0.78714,-0.802661 l 0.740904,-2.902165 2.870768,0.818011 c 0.422183,0.123355 0.782403,0.02576 1.080659,-0.293324 0.319291,-0.29863 0.416878,-0.658843 0.293519,-1.080638 l -0.818026,-2.87071 2.902034,-0.74089 c 0.41214,-0.102896 0.67951,-0.365328 0.802867,-0.787313 0.103083,-0.432406 2e-5,-0.792619 -0.308867,-1.080826"
     id="path13"
     style="fill:#ffd5d5;fill-opacity:1;stroke:none;stroke-opacity:0.8"
     inkscape:connector-curvature="0" />
</svg>
