<?xml version="1.0" encoding="UTF-8" standalone="no"?>
<svg
   xmlns:dc="http://purl.org/dc/elements/1.1/"
   xmlns:cc="http://creativecommons.org/ns#"
   xmlns:rdf="http://www.w3.org/1999/02/22-rdf-syntax-ns#"
   xmlns:svg="http://www.w3.org/2000/svg"
   xmlns="http://www.w3.org/2000/svg"
   xmlns:sodipodi="http://sodipodi.sourceforge.net/DTD/sodipodi-0.dtd"
   xmlns:inkscape="http://www.inkscape.org/namespaces/inkscape"
   viewBox="0 0 64 64"
   id="svg2"
   version="1.1"
   inkscape:version="0.91 r13725"
   sodipodi:docname="mail-sent.svg">
  <metadata
     id="metadata17">
    <rdf:RDF>
      <cc:Work
         rdf:about="">
        <dc:format>image/svg+xml</dc:format>
        <dc:type
           rdf:resource="http://purl.org/dc/dcmitype/StillImage" />
        <dc:title></dc:title>
      </cc:Work>
    </rdf:RDF>
  </metadata>
  <sodipodi:namedview
     pagecolor="#ffffff"
     bordercolor="#666666"
     borderopacity="1"
     objecttolerance="10"
     gridtolerance="10"
     guidetolerance="10"
     inkscape:pageopacity="0"
     inkscape:pageshadow="2"
     inkscape:window-width="1280"
     inkscape:window-height="694"
     id="namedview15"
     showgrid="false"
     inkscape:zoom="3.6875"
     inkscape:cx="-16.098882"
     inkscape:cy="32"
     inkscape:window-x="0"
     inkscape:window-y="0"
     inkscape:window-maximized="1"
     inkscape:current-layer="svg2" />
  <defs
     id="defs4">
    <linearGradient
       y2="157.23"
       x2="0"
       y1="211.23"
       gradientUnits="userSpaceOnUse"
       id="0"
       gradientTransform="matrix(1.1271172,0,0,1.1222746,-834.45941,-175.11819)">
      <stop
         stop-color="#197ff1"
         id="stop7" />
      <stop
         offset="1"
         stop-color="#21c6fb"
         id="stop9" />
    </linearGradient>
  </defs>
  <ellipse
     cy="31.997597"
     cx="32.13591"
     id="circle11"
     style="fill:#2a7fff"
     rx="31.559282"
     ry="31.423689" />
  <path
     d="M 63.858901,32.168832 C 63.720615,32.035845 63.523818,32.004991 63.35702,32.089808 L 33.220002,47.442357 c -0.162247,0.08268 -0.266728,0.26017 -0.268679,0.456289 -0.002,0.19612 0.09909,0.376049 0.259763,0.462501 l 8.528451,4.589369 c 0.156397,0.08421 0.342885,0.06517 0.482564,-0.04928 l 8.292555,-6.795361 -6.50941,7.341768 c -0.09287,0.104781 -0.140236,0.248256 -0.130021,0.393869 l 0.648155,9.255109 c 0.01439,0.204673 0.139773,0.380428 0.317995,0.444681 0.04765,0.01711 0.09659,0.02545 0.144974,0.02545 0.132713,0 0.261806,-0.06242 0.351613,-0.176467 l 4.526775,-5.751222 5.595549,2.931616 c 0.121476,0.06364 0.262085,0.06629 0.385511,0.0074 0.123428,-0.05896 0.217414,-0.173616 0.257721,-0.314342 l 7.892091,-27.55963 c 0.05517,-0.192455 0.0014,-0.402321 -0.1368,-0.535308"
     id="path13"
     inkscape:connector-curvature="0"
     style="fill:#d5e5ff;fill-opacity:1" />
</svg>
