<?xml version="1.0" encoding="UTF-8" standalone="no"?>
<svg
   xmlns:dc="http://purl.org/dc/elements/1.1/"
   xmlns:cc="http://creativecommons.org/ns#"
   xmlns:rdf="http://www.w3.org/1999/02/22-rdf-syntax-ns#"
   xmlns:svg="http://www.w3.org/2000/svg"
   xmlns="http://www.w3.org/2000/svg"
   xmlns:sodipodi="http://sodipodi.sourceforge.net/DTD/sodipodi-0.dtd"
   xmlns:inkscape="http://www.inkscape.org/namespaces/inkscape"
   viewBox="0 0 64 64"
   id="svg2"
   version="1.1"
   inkscape:version="0.91 r13725"
   sodipodi:docname="meeting-participant-reply.svg">
  <metadata
     id="metadata30">
    <rdf:RDF>
      <cc:Work
         rdf:about="">
        <dc:format>image/svg+xml</dc:format>
        <dc:type
           rdf:resource="http://purl.org/dc/dcmitype/StillImage" />
        <dc:title></dc:title>
      </cc:Work>
    </rdf:RDF>
  </metadata>
  <sodipodi:namedview
     pagecolor="#ffffff"
     bordercolor="#666666"
     borderopacity="1"
     objecttolerance="10"
     gridtolerance="10"
     guidetolerance="10"
     inkscape:pageopacity="0"
     inkscape:pageshadow="2"
     inkscape:window-width="1280"
     inkscape:window-height="694"
     id="namedview28"
     showgrid="false"
     inkscape:zoom="3.6875"
     inkscape:cx="-38.104063"
     inkscape:cy="32"
     inkscape:window-x="0"
     inkscape:window-y="0"
     inkscape:window-maximized="1"
     inkscape:current-layer="svg2" />
  <defs
     id="defs4">
    <linearGradient
       id="0"
       y1="542.8"
       x2="0"
       y2="507.8"
       gradientUnits="userSpaceOnUse"
       gradientTransform="matrix(1.1818189,0,0,1.5294105,-450.86106,-770.63475)">
      <stop
         stop-color="#197ff1"
         id="stop7" />
      <stop
         offset="1"
         stop-color="#21c6fb"
         id="stop9" />
    </linearGradient>
    <linearGradient
       id="1"
       x1="11.818"
       y1="-1049.18"
       x2="12.182"
       y2="-1033.91"
       gradientUnits="userSpaceOnUse"
       gradientTransform="matrix(1.4255221,0,0,1.3901621,-28.912485,1396.3702)">
      <stop
         stop-color="#2a2c2f"
         id="stop12" />
      <stop
         offset="1"
         stop-color="#424649"
         id="stop14" />
    </linearGradient>
  </defs>
  <g
     id="g3"
     transform="matrix(0.14459788,0,0,0.11921971,-6.0471591,0.40677653)"
     style="fill:#0066ff">
    <g
       id="g5"
       style="fill:#0066ff">
      <path
         d="m 145.1,229.6 c 17.2,56.4 61.4,115 121,115 59.6,0 103.9,-58.6 121,-115 14.7,-5.1 27,-19.8 31.801,-38.8 6.6,-26.1 -3.101,-50.3 -21.9,-57.6 1.7,-6.9 2.6,-14 2.6,-21.3 C 399.599,50 337.9,0 261.799,0 c -76.1,0 -138,50.1 -138,111.9 0,8.8 1.4,17.4 3.7,25.6 -13.6,10.3 -19.8,31.1 -14.2,53.4 4.801,18.9 17.1,33.6 31.801,38.7 z m -9.201,-71.9 c 2,-3.3 4.6,-5.5 7.9,-6.4 0.6,-0.1 1.4,-0.2 2.1,-0.2 0.6,0 1.1,0 1.7,0.1 l 9.5,0.9 1.4,-9.4 c 2.9,-19.6 9,-37.2 17.6,-52.2 16.1,18.1 48.1,30.4 85,30.4 41.7,0 77.2,-15.7 90.3,-37.7 11,16.5 18.8,36.6 22.199,59.5 l 1.4,9.4 9.5,-0.9 c 1.4,-0.1 2.7,-0.1 3.8,0.1 0.7,0.1 1.101,0.6 1.8,0.8 8.601,3.8 13,18.9 9.301,33.9 -3.801,15.3 -13.801,24.3 -21.7,25.3 l -6.601,0.9 -1.8,6.4 c -14.399,52.6 -54.399,106 -103.4,106 -49,0 -89,-53.3 -103.2,-106 l -1.8,-6.4 -6.6,-0.9 c -7.9,-1 -17.9,-10.2 -21.7,-25.3 -2.498,-10.8 -0.998,-21.7 3.301,-28.3 z"
         id="path7"
         inkscape:connector-curvature="0"
         style="fill:#0066ff" />
      <path
         d="m 383.599,299.4 c -12.8,21.8 -27.6,40.3 -47.3,50.199 -40.5,20.7 -70.6,37.5 -70.6,37.5 l -0.1,-0.1 0,-0.5 -0.5,0.2 -0.5,-0.2 0,0.5 -0.1,0.1 c 0,0 -30.1,-16.699 -70.6,-37.5 -19.6,-10.1 -34.4,-28.5 -47.3,-50.199 -59.899,24.3 -101.8,80.4 -101.8,129.2 0,51.5 0,101.4 0,101.4 l 219.7,0 0.8,0 219.9,0 c 0,0 0,-49.9 0,-101.4 C 485.4,379.8 443.5,323.8 383.599,299.4 Z"
         id="path9"
         inkscape:connector-curvature="0"
         style="fill:#0066ff" />
    </g>
  </g>
  <path
     d="m 63.093483,63.412343 c 0.735551,-1.027642 0.789113,-4.304418 0.107115,-6.765984 C 61.729487,51.308985 58.53375,46.393822 53.852625,42.246072 l -1.853169,-1.643699 8.537429,-6.720842 -25.919368,0 c -0.01429,0.400967 0,19.344662 0,19.344662 l 9.112305,-6.224281 c 1.574656,0.448762 10.169225,6.526998 12.511572,8.842514 1.596081,1.57997 3.474247,4.216791 4.452599,6.25349 1.046205,2.177437 1.581802,2.466876 2.406624,1.311772 z"
     id="path26"
     inkscape:connector-curvature="0"
     style="fill:#80b3ff;fill-opacity:1;stroke:none;stroke-width:0.75919235;stroke-linecap:round;stroke-linejoin:round" />
</svg>
