<?xml version="1.0" encoding="UTF-8" standalone="no"?>
<svg
   xmlns:dc="http://purl.org/dc/elements/1.1/"
   xmlns:cc="http://creativecommons.org/ns#"
   xmlns:rdf="http://www.w3.org/1999/02/22-rdf-syntax-ns#"
   xmlns:svg="http://www.w3.org/2000/svg"
   xmlns="http://www.w3.org/2000/svg"
   xmlns:sodipodi="http://sodipodi.sourceforge.net/DTD/sodipodi-0.dtd"
   xmlns:inkscape="http://www.inkscape.org/namespaces/inkscape"
   viewBox="0 0 64 64"
   id="svg2"
   version="1.1"
   inkscape:version="0.91 r13725"
   sodipodi:docname="object-unlocked.svg">
  <metadata
     id="metadata29">
    <rdf:RDF>
      <cc:Work
         rdf:about="">
        <dc:format>image/svg+xml</dc:format>
        <dc:type
           rdf:resource="http://purl.org/dc/dcmitype/StillImage" />
        <dc:title></dc:title>
      </cc:Work>
    </rdf:RDF>
  </metadata>
  <sodipodi:namedview
     pagecolor="#ffffff"
     bordercolor="#666666"
     borderopacity="1"
     objecttolerance="10"
     gridtolerance="10"
     guidetolerance="10"
     inkscape:pageopacity="0"
     inkscape:pageshadow="2"
     inkscape:window-width="1280"
     inkscape:window-height="694"
     id="namedview27"
     showgrid="false"
     inkscape:zoom="3.6875"
     inkscape:cx="-25.750278"
     inkscape:cy="32"
     inkscape:window-x="0"
     inkscape:window-y="0"
     inkscape:window-maximized="1"
     inkscape:current-layer="svg2" />
  <defs
     id="defs4">
    <linearGradient
       id="0"
       y1="542.8"
       x2="0"
       y2="507.8"
       gradientUnits="userSpaceOnUse"
       gradientTransform="matrix(1.4266122,0,0,1.3931,-550.8801,-699.10707)">
      <stop
         stop-color="#d3d3d3"
         id="stop7" />
      <stop
         offset="1"
         stop-color="#fcf9f9"
         id="stop9" />
    </linearGradient>
  </defs>
  <g
     id="XMLID_503_"
     transform="matrix(0.25281356,0,0,0.17196123,-14.634911,0.49576298)"
     style="fill:#b7bec8">
    <g
       id="XMLID_511_"
       style="fill:#b7bec8">
      <g
         id="XMLID_1307_"
         style="fill:#b7bec8">
        <g
           id="XMLID_1308_"
           style="fill:#b7bec8">
          <g
             id="XMLID_1309_"
             style="fill:#b7bec8">
            <path
               inkscape:connector-curvature="0"
               d="M 185,290 C 129.86,290 85,245.14 85,190 l 0,-90 C 85,44.86 129.86,0 185,0 240.14,0 285,44.86 285,100 l 0,90 c 0,55.14 -44.86,100 -100,100 z m 0,-250 c -33.084,0 -60,26.916 -60,60 l 0,90 c 0,33.084 26.916,60 60,60 33.084,0 60,-26.916 60,-60 l 0,-90 C 245,66.916 218.084,40 185,40 Z"
               style="fill:#b7bec8"
               id="XMLID_1310_" />
          </g>
        </g>
      </g>
    </g>
    <path
       inkscape:connector-curvature="0"
       d="m 185,0 0,40 c 33.084,0 60,26.916 60,60 l 0,90 c 0,33.084 -26.916,60 -60,60 l 0,40 c 55.14,0 100,-44.86 100,-100 l 0,-90 C 285,44.86 240.14,0 185,0 Z"
       style="fill:#b7bec8"
       id="XMLID_524_" />
  </g>
  <g
     id="XMLID_525_"
     transform="matrix(0.25281356,0,0,0.1710261,-14.634911,0.49576298)"
     style="fill:#939dac">
    <circle
       r="125"
       cy="245"
       cx="185"
       style="fill:#939dac"
       id="XMLID_526_" />
    <path
       inkscape:connector-curvature="0"
       d="m 185,120 0,250 c 69.036,0 125,-55.964 125,-125 0,-69.036 -55.964,-125 -125,-125 z"
       style="fill:#939dac"
       id="XMLID_531_" />
  </g>
</svg>
