<?xml version="1.0" encoding="UTF-8" standalone="no"?>
<svg
   xmlns:dc="http://purl.org/dc/elements/1.1/"
   xmlns:cc="http://creativecommons.org/ns#"
   xmlns:rdf="http://www.w3.org/1999/02/22-rdf-syntax-ns#"
   xmlns:svg="http://www.w3.org/2000/svg"
   xmlns="http://www.w3.org/2000/svg"
   xmlns:sodipodi="http://sodipodi.sourceforge.net/DTD/sodipodi-0.dtd"
   xmlns:inkscape="http://www.inkscape.org/namespaces/inkscape"
   viewBox="0 0 64 64"
   id="svg2"
   version="1.1"
   inkscape:version="0.91 r13725"
   sodipodi:docname="application-vnd.sun.xml.draw.svg">
  <metadata
     id="metadata19">
    <rdf:RDF>
      <cc:Work
         rdf:about="">
        <dc:format>image/svg+xml</dc:format>
        <dc:type
           rdf:resource="http://purl.org/dc/dcmitype/StillImage" />
        <dc:title></dc:title>
      </cc:Work>
    </rdf:RDF>
  </metadata>
  <sodipodi:namedview
     pagecolor="#ffffff"
     bordercolor="#666666"
     borderopacity="1"
     objecttolerance="10"
     gridtolerance="10"
     guidetolerance="10"
     inkscape:pageopacity="0"
     inkscape:pageshadow="2"
     inkscape:window-width="1280"
     inkscape:window-height="694"
     id="namedview17"
     showgrid="true"
     inkscape:zoom="3.6875"
     inkscape:cx="-19.95944"
     inkscape:cy="32"
     inkscape:window-x="0"
     inkscape:window-y="0"
     inkscape:window-maximized="1"
     inkscape:current-layer="svg2">
    <inkscape:grid
       type="xygrid"
       id="grid4137" />
  </sodipodi:namedview>
  <defs
     id="defs4">
    <linearGradient
       id="0"
       x1="-74.929"
       y1="52.2"
       x2="-75.26"
       y2="2.356"
       gradientUnits="userSpaceOnUse"
       gradientTransform="matrix(1.07499,0,0,1.02929,113.079,0.073)">
      <stop
         stop-color="#2aaa76"
         id="stop7" />
      <stop
         offset="1"
         stop-color="#3ec380"
         id="stop9" />
    </linearGradient>
  </defs>
  <rect
     style="fill:#2ca05a"
     id="rect13"
     rx="3.6093991"
     width="63.525421"
     height="52.936779"
     x="0.50847554"
     y="0.6492542" />
  <path
     style="fill:#d7f4e3;fill-opacity:0.85"
     inkscape:connector-curvature="0"
     id="path15"
     d="m 30.73239,62.410704 10.000903,0 0,1.229666 3.636552,0 0,-1.229666 10.043849,0 0,1.390335 3.636552,0 0,-3.442804 -1.341813,0 0,-9.628522 1.298791,0 0,-3.442802 -1.298791,0 0,-8.938801 1.341889,0 0,-3.442803 -3.636552,0 0,0.700323 -10.043849,0 0,-1.229594 -3.636552,0 0,1.229594 -10.000902,0 0,-0.860773 -3.636553,0 0,3.442802 1.29879,0 0,9.099252 -1.29879,0 0,3.442802 1.29879,0 0,9.468071 -1.29879,0 0,3.442804 3.636553,0 0,-1.229667 m -1.038972,0 0,0.245978 -1.55861,0 0,-1.47557 0.259819,0 1.039048,0 0.259819,0 0,0.245976 0,0.983616 z m 12.079152,-26.80551 0,-0.245976 1.558611,0 0,0.245976 0,0.514388 0,0.469229 0,0.245904 -1.558611,0 0,-0.245904 0,-0.469229 0,-0.514388 m 1.558611,26.80551 0,0.245978 -1.558611,0 0,-0.245978 0,-0.514387 0,-0.469156 0,-0.245977 1.558611,0 0,0.245977 0,0.469156 0,0.514387 M 43.504342,49.56176 c 0.100995,0.09605 0.100995,0.251639 0,0.347692 -0.05123,0.04798 -0.117182,0.07203 -0.184128,0.07203 -0.06595,0 -0.132747,-0.02403 -0.183745,-0.07203 l -0.58444,-0.553374 -0.584518,0.553374 c -0.051,0.04798 -0.117402,0.07203 -0.183897,0.07203 -0.06648,0 -0.132901,-0.02403 -0.183975,-0.07203 -0.101151,-0.09606 -0.101151,-0.251639 0,-0.347692 l 0.584517,-0.553376 -0.584517,-0.553375 c -0.101151,-0.09576 -0.101151,-0.251929 0,-0.347765 0.101227,-0.09584 0.266108,-0.09584 0.367336,0 l 0.584977,0.553375 0.584441,-0.553375 c 0.101461,-0.09584 0.265877,-0.09584 0.367337,0 0.101461,0.09583 0.101461,0.251931 0,0.347765 l -0.584518,0.553375 0.584977,0.553376 m 13.507853,13.255734 -1.558534,0 0,-0.406282 0,-0.983616 0,-0.08552 0.216644,0 1.039048,0 0.302842,0 0,1.475497 z m -2.597582,-2.459113 0,1.069215 -8.136613,0 c 4.53457,-1.217179 8.106705,-4.598633 9.391998,-8.892335 l 0,7.822902 -1.255692,0 m 2.554483,-10.612284 -0.259743,0 -0.543336,0 -0.495636,0 -0.259742,0 0,-1.475571 0.259742,0 0.495636,0 0.543336,0 0.259743,0 0,1.475571 m -1.515358,-13.856882 1.255615,0 0.302842,0 0,1.475569 -0.302842,0 -1.039048,0 -0.216643,0 0,-0.775247 0,-0.700322 z m -1.039048,0.700322 0,1.759154 1.255615,0 0,7.13318 c -1.2856,-4.293703 -4.857428,-7.674793 -9.391998,-8.892334 l 8.136613,0 z m -26.278731,-0.860847 0.259819,0 1.298791,0 0,0.860773 0,0.614797 -0.259819,0 -1.039048,0 -0.259819,0 0,-1.47557 z m 2.597582,2.459259 0,-1.598703 8.0929,0 c -4.53457,1.217251 -8.105938,4.598633 -9.391998,8.891608 l 0,-7.292905 1.298791,0 m -2.597582,10.083014 0.259819,0 0.543336,0 0.495636,0 0.259819,0 0,1.47557 -0.259819,0 -0.495636,0 -0.543336,0 -0.259819,0 0,-1.47557 m 1.298791,4.264806 c 1.285907,4.293703 4.857428,7.674793 9.391998,8.892335 l -8.0929,0 0,-1.229665 -1.298791,0 0,-7.662451" />
</svg>
