<?xml version="1.0" encoding="UTF-8" standalone="no"?>
<svg
   xmlns:dc="http://purl.org/dc/elements/1.1/"
   xmlns:cc="http://creativecommons.org/ns#"
   xmlns:rdf="http://www.w3.org/1999/02/22-rdf-syntax-ns#"
   xmlns:svg="http://www.w3.org/2000/svg"
   xmlns="http://www.w3.org/2000/svg"
   xmlns:xlink="http://www.w3.org/1999/xlink"
   xmlns:sodipodi="http://sodipodi.sourceforge.net/DTD/sodipodi-0.dtd"
   xmlns:inkscape="http://www.inkscape.org/namespaces/inkscape"
   viewBox="0 0 64 64"
   id="svg2"
   version="1.1"
   inkscape:version="0.91 r13725"
   sodipodi:docname="text-x-c++src.svg">
  <metadata
     id="metadata26">
    <rdf:RDF>
      <cc:Work
         rdf:about="">
        <dc:format>image/svg+xml</dc:format>
        <dc:type
           rdf:resource="http://purl.org/dc/dcmitype/StillImage" />
        <dc:title></dc:title>
      </cc:Work>
    </rdf:RDF>
  </metadata>
  <sodipodi:namedview
     pagecolor="#ffffff"
     bordercolor="#666666"
     borderopacity="1"
     objecttolerance="10"
     gridtolerance="10"
     guidetolerance="10"
     inkscape:pageopacity="0"
     inkscape:pageshadow="2"
     inkscape:window-width="1280"
     inkscape:window-height="694"
     id="namedview24"
     showgrid="true"
     inkscape:zoom="3.6875"
     inkscape:cx="-12.20339"
     inkscape:cy="32"
     inkscape:window-x="0"
     inkscape:window-y="0"
     inkscape:window-maximized="1"
     inkscape:current-layer="svg2">
    <inkscape:grid
       type="xygrid"
       id="grid4154" />
  </sodipodi:namedview>
  <defs
     id="defs4">
    <linearGradient
       id="0"
       x1="-74.929"
       y1="52.2"
       x2="-75.26"
       y2="2.356"
       gradientUnits="userSpaceOnUse"
       gradientTransform="matrix(1.5520272,0,0,0.90017013,149.32977,-0.80238067)">
      <stop
         stop-color="#2db07b"
         id="stop7" />
      <stop
         offset="1"
         stop-color="#43d38b"
         id="stop9" />
    </linearGradient>
  </defs>
  <rect
     style="fill:url(#0)"
     id="rect13"
     rx="3.6093991"
     y="0.65025425"
     x="0.50847554"
     height="52.936779"
     width="63.525421" />
  <g
     style="fill:#144d36"
     id="g15"
     transform="matrix(1.1302743,0,0,1.3262692,-385.76654,-665.82403)">
    <path
       inkscape:connector-curvature="0"
       id="path17"
       transform="matrix(0.92871,0,0,0.92871,-18.508,37.28)"
       d="m 424.65,552.01 q -4.992,0 -8.214,-3.358 -3.222,-3.404 -3.222,-8.486 0,-5.083 3.222,-8.441 3.222,-3.404 8.214,-3.404 3.721,0 6.172,1.815 2.451,1.815 3.585,4.583 l -3.812,1.588 q -1.724,-4.175 -6.217,-4.175 -2.768,0 -4.901,2.269 -2.088,2.269 -2.088,5.763 0,3.494 2.088,5.763 2.133,2.269 4.901,2.269 4.674,0 6.444,-4.175 l 3.721,1.588 q -1.135,2.723 -3.676,4.583 -2.496,1.815 -6.217,1.815" />
    <g
       style="stroke:#144d36"
       id="g19"
       transform="translate(-94.55,-1.432)">
      <path
         style="stroke-width:0.60600001"
         inkscape:connector-curvature="0"
         id="1"
         transform="matrix(0.66042,0,0,0.66042,159.83,180.71)"
         d="m 491.34,527.93 0,3.754 3.754,0 0,1.576 -3.754,0 0,3.754 -1.576,0 0,-3.754 -3.754,0 0,-1.576 3.754,0 0,-3.754 1.576,0 z" />
      <use
         height="100%"
         width="100%"
         y="0"
         x="0"
         id="use22"
         xlink:href="#1"
         transform="translate(0,8.25)" />
    </g>
  </g>
</svg>
