<?xml version="1.0" encoding="UTF-8" standalone="no"?>
<svg
   xmlns:dc="http://purl.org/dc/elements/1.1/"
   xmlns:cc="http://creativecommons.org/ns#"
   xmlns:rdf="http://www.w3.org/1999/02/22-rdf-syntax-ns#"
   xmlns:svg="http://www.w3.org/2000/svg"
   xmlns="http://www.w3.org/2000/svg"
   xmlns:sodipodi="http://sodipodi.sourceforge.net/DTD/sodipodi-0.dtd"
   xmlns:inkscape="http://www.inkscape.org/namespaces/inkscape"
   viewBox="0 0 48 48"
   id="svg2"
   version="1.1"
   inkscape:version="0.91 r13725"
   sodipodi:docname="preferences-desktop-default-applications.svg">
  <metadata
     id="metadata19">
    <rdf:RDF>
      <cc:Work
         rdf:about="">
        <dc:format>image/svg+xml</dc:format>
        <dc:type
           rdf:resource="http://purl.org/dc/dcmitype/StillImage" />
        <dc:title></dc:title>
      </cc:Work>
    </rdf:RDF>
  </metadata>
  <sodipodi:namedview
     pagecolor="#ffffff"
     bordercolor="#666666"
     borderopacity="1"
     objecttolerance="10"
     gridtolerance="10"
     guidetolerance="10"
     inkscape:pageopacity="0"
     inkscape:pageshadow="2"
     inkscape:window-width="1280"
     inkscape:window-height="694"
     id="namedview17"
     showgrid="false"
     inkscape:zoom="4.9166667"
     inkscape:cx="-38.135593"
     inkscape:cy="24"
     inkscape:window-x="0"
     inkscape:window-y="0"
     inkscape:window-maximized="1"
     inkscape:current-layer="svg2" />
  <defs
     id="defs4">
    <clipPath
       id="clipPath6">
      <path
         d="m69.63 12.145h-.052c-22.727-.292-46.47 4.077-46.709 4.122-2.424.451-4.946 2.974-5.397 5.397-.044.237-4.414 23.983-4.122 46.71-.292 22.777 4.078 46.523 4.122 46.761.451 2.423 2.974 4.945 5.398 5.398.237.044 23.982 4.413 46.709 4.121 22.779.292 46.524-4.077 46.761-4.121 2.423-.452 4.946-2.976 5.398-5.399.044-.236 4.413-23.981 4.121-46.709.292-22.777-4.077-46.523-4.121-46.761-.453-2.423-2.976-4.946-5.398-5.397-.238-.045-23.984-4.414-46.71-4.122"
         id="path8" />
    </clipPath>
    <linearGradient
       gradientUnits="userSpaceOnUse"
       y2="-8.868"
       x2="68.07"
       y1="157.34"
       x1="72.03"
       id="0"
       gradientTransform="matrix(0.35406,0,0,0.36821739,-0.081,0.16341481)">
      <stop
         stop-color="#ff9300"
         id="stop11" />
      <stop
         offset="1"
         stop-color="#ffd702"
         id="stop13" />
    </linearGradient>
  </defs>
  <path
     d="m 47.993267,18.743665 c 0,-0.740117 -0.538171,-1.200021 -1.61593,-1.380079 L 31.897345,15.173796 25.407071,1.523978 C 25.042035,0.70395794 24.570428,0.29413198 23.993664,0.29413198 c -0.576764,0 -1.048018,0.40982596 -1.413408,1.22984602 l -6.490628,13.649818 -14.4806996,2.18979 c -1.07669648,0.180058 -1.61522174,0.639962 -1.61522174,1.380079 0,0.420136 0.24040674,0.900291 0.72122022,1.440098 L 11.21493,30.80352 8.7329696,45.803224 c -0.038593,0.280213 -0.057712,0.480524 -0.057712,0.600194 0,0.420136 0.1009071,0.77473 0.3027213,1.065253 0.2018142,0.290156 0.5045355,0.434865 0.9085179,0.434865 0.3462712,0 0.7307802,-0.119302 1.1538822,-0.359748 l 12.951514,-7.080452 12.952577,7.080452 c 0.404337,0.240078 0.788846,0.359748 1.153528,0.359748 0.385571,0 0.678379,-0.144341 0.880193,-0.434865 0.20146,-0.290154 0.302367,-0.645117 0.302367,-1.065253 0,-0.259961 -0.0096,-0.459903 -0.02903,-0.600194 L 36.769568,30.80352 47.240538,20.183763 c 0.500641,-0.519923 0.750253,-1.000078 0.750253,-1.440098"
     id="path15"
     style="fill:#ffdd55"
     inkscape:connector-curvature="0" />
</svg>
