<?xml version="1.0" encoding="UTF-8" standalone="no"?>
<svg
   xmlns:dc="http://purl.org/dc/elements/1.1/"
   xmlns:cc="http://creativecommons.org/ns#"
   xmlns:rdf="http://www.w3.org/1999/02/22-rdf-syntax-ns#"
   xmlns:svg="http://www.w3.org/2000/svg"
   xmlns="http://www.w3.org/2000/svg"
   xmlns:xlink="http://www.w3.org/1999/xlink"
   xmlns:sodipodi="http://sodipodi.sourceforge.net/DTD/sodipodi-0.dtd"
   xmlns:inkscape="http://www.inkscape.org/namespaces/inkscape"
   viewBox="0 0 48 48"
   id="svg2"
   version="1.1"
   inkscape:version="0.91 r13725"
   sodipodi:docname="amarok_change_language.svg">
  <metadata
     id="metadata54">
    <rdf:RDF>
      <cc:Work
         rdf:about="">
        <dc:format>image/svg+xml</dc:format>
        <dc:type
           rdf:resource="http://purl.org/dc/dcmitype/StillImage" />
        <dc:title></dc:title>
      </cc:Work>
    </rdf:RDF>
  </metadata>
  <sodipodi:namedview
     pagecolor="#ffffff"
     bordercolor="#666666"
     borderopacity="1"
     objecttolerance="10"
     gridtolerance="10"
     guidetolerance="10"
     inkscape:pageopacity="0"
     inkscape:pageshadow="2"
     inkscape:window-width="1280"
     inkscape:window-height="694"
     id="namedview52"
     showgrid="false"
     inkscape:zoom="4.9166667"
     inkscape:cx="-42"
     inkscape:cy="24"
     inkscape:window-x="0"
     inkscape:window-y="0"
     inkscape:window-maximized="1"
     inkscape:current-layer="svg2" />
  <defs
     id="defs4">
    <linearGradient
       gradientUnits="userSpaceOnUse"
       y2="517.3"
       x2="0"
       y1="546.3"
       id="linearGradient6">
      <stop
         stop-color="#00cafe"
         id="stop8" />
      <stop
         offset="1"
         stop-color="#1460f3"
         id="stop10" />
    </linearGradient>
    <linearGradient
       gradientUnits="userSpaceOnUse"
       y2="517.62"
       x2="0"
       y1="545.62"
       id="linearGradient12">
      <stop
         stop-color="#d3d3d3"
         id="stop14" />
      <stop
         offset="1"
         stop-color="#fcf9f9"
         id="stop16" />
    </linearGradient>
    <linearGradient
       gradientUnits="userSpaceOnUse"
       y1="545.62"
       x2="0"
       y2="517.62"
       id="linearGradient18">
      <stop
         stop-color="#e3e3e3"
         id="stop20" />
      <stop
         offset="1"
         stop-color="#fcf9f9"
         id="stop22" />
    </linearGradient>
    <linearGradient
       gradientUnits="userSpaceOnUse"
       x2="11.758"
       x1="2.819"
       xlink:href="#1"
       id="linearGradient24" />
    <linearGradient
       id="1">
      <stop
         stop-color="#333538"
         id="stop27" />
      <stop
         offset="1"
         stop-color="#566069"
         id="stop29" />
    </linearGradient>
    <linearGradient
       gradientUnits="userSpaceOnUse"
       y2="505.33"
       x2="355.69"
       y1="547"
       x1="355.73"
       id="0"
       gradientTransform="matrix(0.9746,0,0,0.9746,-322.33,-489.501)">
      <stop
         stop-color="#1074f5"
         id="stop32" />
      <stop
         offset="1"
         stop-color="#02befd"
         id="stop34" />
    </linearGradient>
    <linearGradient
       gradientUnits="userSpaceOnUse"
       y2="517.22"
       x2="0"
       y1="545.22"
       xlink:href="#1"
       id="linearGradient36" />
  </defs>
  <path
     style="fill:#0066ff;fill-opacity:0.85"
     d="m 1.4330012,11.945841 16.9714588,0 C 17.926204,16.44514 16.3014,21.239475 13.570235,26.203245 11.830603,22.108988 10.70989,18.140332 10.071451,15.494281 9.9101183,14.827078 9.4806646,14.381152 8.9989646,14.381152 l -2.7925972,0 c -0.362854,0 -0.7041778,0.254153 -0.9186175,0.684062 -0.2141528,0.430331 -0.2758724,0.984156 -0.1662124,1.492882 0.6616917,3.059102 2.1857355,9.064771 5.0033075,15.16738 -3.3282659,4.750501 -6.6427527,8.174183 -7.9262336,9.435672 -0.5104068,0.502405 -0.6570986,1.50932 -0.3309893,2.274307 l 1.4014658,3.290915 c 0.1621934,0.380597 0.4228511,0.649923 0.7219759,0.746441 0.080379,0.02655 0.1619064,0.0392 0.2428595,0.0392 0.2207553,0 0.4383528,-0.09441 0.6252341,-0.274383 1.3207997,-1.27287 4.7475301,-4.754295 8.3364536,-9.801518 1.32769,2.031534 4.449267,5.592197 6.298846,7.567252 0.282187,0.301358 0.643606,0.395348 0.980337,0.255839 0.336443,-0.140775 0.609732,-0.500719 0.742358,-0.974462 L 22.262653,40.5323 c 0.210134,-0.754027 0.01866,-1.622698 -0.45328,-2.051343 -1.205112,-1.097534 -3.473523,-3.351609 -5.325685,-6.280895 4.065743,-6.986031 6.384391,-13.796726 6.895372,-20.252114 l 0.89594,0 c 0.628391,0 1.137937,-0.748127 1.137937,-1.671168 l 0,-4.4537792 c 0,-0.9226197 -0.509259,-1.6707467 -1.137937,-1.6707467 l -8.862363,0 0,-2.2869505 c 0,-0.92304116 -0.509258,-1.67116816 -1.137937,-1.67116816 l -2.839103,0 c -0.628391,0 -1.137937,0.74770552 -1.137937,1.67116816 l 0,2.2869505 -8.8623623,0 c -0.62839179,0 -1.13793744,0.7477055 -1.13793744,1.6707467 l 0,4.4537792 c -2.871e-5,0.920512 0.50925858,1.668639 1.13765034,1.668639"
     id="path48"
     inkscape:connector-curvature="0" />
  <path
     style="fill:#80b3ff;fill-opacity:0.85"
     d="M 40.41109,6.630978 C 40.262963,5.9313212 39.822888,5.4546273 39.323964,5.4546273 l -6.324108,0 c -0.500359,0 -0.94187,0.4800657 -1.088274,1.1822514 L 24.356527,42.905233 c -0.105928,0.506619 -0.04162,1.057072 0.173389,1.484031 0.214727,0.425695 0.554041,0.676054 0.915173,0.676054 l 3.922496,0 c 0.510694,0 0.959381,-0.500719 1.096313,-1.222714 l 1.693701,-8.94802 7.728731,0 1.834077,8.980474 c 0.144108,0.707244 0.587628,1.190681 1.089997,1.190681 l 4.169088,0 c 0.36228,0 0.701594,-0.252466 0.915747,-0.678583 0.214727,-0.427802 0.278169,-0.979098 0.170519,-1.486138 L 40.409942,6.6284491 m -7.376786,21.5755609 2.846853,-16.045743 0.07751,0 3.044068,16.045743 -5.96843,0"
     id="path50"
     inkscape:connector-curvature="0" />
</svg>
