<?xml version="1.0" encoding="UTF-8" standalone="no"?>
<!-- Generator: Adobe Illustrator 19.0.0, SVG Export Plug-In . SVG Version: 6.00 Build 0)  -->

<svg
   xmlns:dc="http://purl.org/dc/elements/1.1/"
   xmlns:cc="http://creativecommons.org/ns#"
   xmlns:rdf="http://www.w3.org/1999/02/22-rdf-syntax-ns#"
   xmlns:svg="http://www.w3.org/2000/svg"
   xmlns="http://www.w3.org/2000/svg"
   xmlns:sodipodi="http://sodipodi.sourceforge.net/DTD/sodipodi-0.dtd"
   xmlns:inkscape="http://www.inkscape.org/namespaces/inkscape"
   version="1.1"
   id="Capa_1"
   x="0px"
   y="0px"
   viewBox="0 0 60 60"
   style="enable-background:new 0 0 60 60;"
   xml:space="preserve"
   inkscape:version="0.91 r13725"
   sodipodi:docname="preferences-desktop-notification-bell.svg"><metadata
     id="metadata53"><rdf:RDF><cc:Work
         rdf:about=""><dc:format>image/svg+xml</dc:format><dc:type
           rdf:resource="http://purl.org/dc/dcmitype/StillImage" /><dc:title></dc:title></cc:Work></rdf:RDF></metadata><defs
     id="defs51" /><sodipodi:namedview
     pagecolor="#ffffff"
     bordercolor="#666666"
     borderopacity="1"
     objecttolerance="10"
     gridtolerance="10"
     guidetolerance="10"
     inkscape:pageopacity="0"
     inkscape:pageshadow="2"
     inkscape:window-width="1280"
     inkscape:window-height="694"
     id="namedview49"
     showgrid="false"
     inkscape:zoom="3.9333333"
     inkscape:cx="-11.440678"
     inkscape:cy="30"
     inkscape:window-x="0"
     inkscape:window-y="0"
     inkscape:window-maximized="1"
     inkscape:current-layer="Capa_1" /><g
     id="g4181"
     transform="matrix(1,0,0,1.0988701,0,-2.838983)"><path
       id="path3"
       d="M 34,12 34,8 C 34,5.791 32.209,4 30,4 27.791,4 26,5.791 26,8 l 0,4.072"
       style="fill:none;stroke:#dc9628;stroke-width:2;stroke-linecap:round;stroke-linejoin:round;stroke-miterlimit:10"
       inkscape:connector-curvature="0" /><path
       id="path5"
       d="m 16.491,50.638 c 10.701,1.847 16.658,1.847 27.36,0 l 9.49,-1.638 0,0 C 48.656,44.343 46.024,38.585 46.024,32 l 0,-9 C 46.062,16.953 42.067,12.522 38.078,10.699 33.079,8.414 27.263,8.405 22.272,10.707 18.319,12.53 14.038,16.958 14,23 l 0,9 c 0,6.585 -2.315,12.343 -7,17 l 0,0 9.491,1.638 z"
       style="fill:#eeaf4b"
       inkscape:connector-curvature="0" /><path
       id="path7"
       d="m 19,25.991 c -0.002,0 -0.004,0 -0.006,0 -0.552,-0.004 -0.997,-0.454 -0.994,-1.006 0.03,-4.682 3.752,-7.643 5.948,-8.654 3.849,-1.775 8.594,-1.772 12.469,-0.002 0.502,0.229 0.723,0.822 0.494,1.325 -0.229,0.502 -0.822,0.724 -1.326,0.493 -3.354,-1.533 -7.469,-1.537 -10.799,0 -1.767,0.814 -4.762,3.173 -4.785,6.85 -0.004,0.55 -0.452,0.994 -1.001,0.994 z"
       style="fill:#fbd490"
       inkscape:connector-curvature="0" /><path
       id="path9"
       d="m 21.906,51.46 c 1.444,3.268 4.602,5.54 8.277,5.54 3.676,0 6.834,-2.273 8.278,-5.543 -5.928,0.752 -10.631,0.753 -16.555,0.003 z"
       style="fill:#dc9628"
       inkscape:connector-curvature="0" /><path
       id="path11"
       d="M 4.095,39.967 C 3.839,39.967 3.583,39.869 3.388,39.674 1.203,37.489 0,34.58 0,31.483 c 0,-3.098 1.203,-6.006 3.388,-8.19 0.391,-0.391 1.023,-0.391 1.414,0 0.391,0.391 0.391,1.023 0,1.414 C 2.995,26.514 2,28.92 2,31.483 c 0,2.563 0.995,4.969 2.802,6.776 0.391,0.391 0.391,1.023 0,1.414 -0.196,0.196 -0.451,0.294 -0.707,0.294 z"
       style="fill:#f2ecbf"
       inkscape:connector-curvature="0" /><path
       id="path13"
       d="m 8.305,37.69 c -0.256,0 -0.512,-0.098 -0.707,-0.293 -3.337,-3.337 -3.337,-8.768 0,-12.104 0.391,-0.391 1.023,-0.391 1.414,0 0.391,0.391 0.391,1.023 0,1.414 -2.558,2.558 -2.558,6.719 0,9.276 0.391,0.391 0.391,1.023 0,1.414 -0.195,0.196 -0.451,0.293 -0.707,0.293 z"
       style="fill:#f2ecbf"
       inkscape:connector-curvature="0" /><path
       id="path15"
       d="m 55.905,39.967 c -0.256,0 -0.512,-0.098 -0.707,-0.293 -0.391,-0.391 -0.391,-1.023 0,-1.414 C 57.005,36.452 58,34.046 58,31.483 c 0,-2.563 -0.995,-4.97 -2.802,-6.776 -0.391,-0.391 -0.391,-1.023 0,-1.414 0.391,-0.391 1.023,-0.391 1.414,0 2.185,2.185 3.388,5.093 3.388,8.19 0,3.097 -1.203,6.006 -3.388,8.19 -0.195,0.196 -0.451,0.294 -0.707,0.294 z"
       style="fill:#f2ecbf"
       inkscape:connector-curvature="0" /><path
       id="path17"
       d="m 51.695,37.69 c -0.256,0 -0.512,-0.098 -0.707,-0.293 -0.391,-0.391 -0.391,-1.023 0,-1.414 2.558,-2.558 2.558,-6.719 0,-9.276 -0.391,-0.391 -0.391,-1.023 0,-1.414 0.391,-0.391 1.023,-0.391 1.414,0 3.337,3.337 3.337,8.768 0,12.104 -0.195,0.196 -0.451,0.293 -0.707,0.293 z"
       style="fill:#f2ecbf"
       inkscape:connector-curvature="0" /></g><g
     id="g19" /><g
     id="g21" /><g
     id="g23" /><g
     id="g25" /><g
     id="g27" /><g
     id="g29" /><g
     id="g31" /><g
     id="g33" /><g
     id="g35" /><g
     id="g37" /><g
     id="g39" /><g
     id="g41" /><g
     id="g43" /><g
     id="g45" /><g
     id="g47" /></svg>