<?xml version="1.0" encoding="UTF-8" standalone="no"?>
<svg
   xmlns:dc="http://purl.org/dc/elements/1.1/"
   xmlns:cc="http://creativecommons.org/ns#"
   xmlns:rdf="http://www.w3.org/1999/02/22-rdf-syntax-ns#"
   xmlns:svg="http://www.w3.org/2000/svg"
   xmlns="http://www.w3.org/2000/svg"
   xmlns:xlink="http://www.w3.org/1999/xlink"
   xmlns:sodipodi="http://sodipodi.sourceforge.net/DTD/sodipodi-0.dtd"
   xmlns:inkscape="http://www.inkscape.org/namespaces/inkscape"
   viewBox="0 0 48 48"
   id="svg2"
   version="1.1"
   inkscape:version="0.91 r13725"
   sodipodi:docname="preferences-desktop-wallpaper.svg">
  <metadata
     id="metadata25">
    <rdf:RDF>
      <cc:Work
         rdf:about="">
        <dc:format>image/svg+xml</dc:format>
        <dc:type
           rdf:resource="http://purl.org/dc/dcmitype/StillImage" />
        <dc:title></dc:title>
      </cc:Work>
    </rdf:RDF>
  </metadata>
  <sodipodi:namedview
     pagecolor="#ffffff"
     bordercolor="#666666"
     borderopacity="1"
     objecttolerance="10"
     gridtolerance="10"
     guidetolerance="10"
     inkscape:pageopacity="0"
     inkscape:pageshadow="2"
     inkscape:window-width="1280"
     inkscape:window-height="694"
     id="namedview23"
     showgrid="false"
     inkscape:zoom="4.9166667"
     inkscape:cx="-16.865675"
     inkscape:cy="24"
     inkscape:window-x="0"
     inkscape:window-y="0"
     inkscape:window-maximized="1"
     inkscape:current-layer="svg2" />
  <defs
     id="defs4">
    <linearGradient
       id="0"
       y1="542.8"
       x2="0"
       y2="507.8"
       gradientUnits="userSpaceOnUse"
       gradientTransform="matrix(1.0909084,0,0,1.4002746,-421.71445,-710.86399)">
      <stop
         stop-color="#197cf1"
         id="stop7" />
      <stop
         offset="1"
         stop-color="#20bcfa"
         id="stop9" />
    </linearGradient>
    <linearGradient
       gradientTransform="matrix(0.62009456,0.00485289,-0.00332659,0.90583038,-311.79635,-402.82641)"
       id="2"
       x1="542.83002"
       y1="484.29001"
       x2="543.25"
       y2="463.62"
       gradientUnits="userSpaceOnUse">
      <stop
         stop-color="#132e51"
         id="stop12" />
      <stop
         offset="1"
         stop-color="#2767b9"
         id="stop14" />
    </linearGradient>
  </defs>
  <flowRoot
     style="font-size:10px;line-height:125%;font-family:sans-serif;text-align:start;letter-spacing:0;word-spacing:0"
     id="flowRoot49"
     font-size="10"
     line-height="125%"
     text-align="start"
     word-spacing="0"
     letter-spacing="0"
     transform="matrix(1.57597,0,0,2.3725468,-51.474777,-8.3849266)">
    <flowRegion
       id="flowRegion51">
      <use
         height="100%"
         width="100%"
         y="0"
         x="0"
         id="use53"
         xlink:href="#4" />
    </flowRegion>
    <flowPara
       id="flowPara55">Plasm</flowPara>
  </flowRoot>
  <g
     id="g4182"
     transform="matrix(1.5412423,0,0,1.5579442,0.55071367,-0.11161615)">
    <path
       style="fill:#0066ff"
       inkscape:connector-curvature="0"
       id="path7"
       d="m 17.246,7.3712544 c 0.023,-0.01521 0.045,-0.031591 0.068,-0.049141 0.112,-0.079561 0.234,-0.1556124 0.36,-0.2340037 0.126,-0.078391 0.261,-0.1521024 0.397,-0.2258136 0.068,-0.037441 0.141,-0.070201 0.212,-0.1041317 l 0.106,-0.051481 c 0.047,-0.02106 0.075,-0.029251 0.113,-0.045631 l 0.215,-0.083071 c 0.075,-0.02457 0.148,-0.049141 0.223,-0.073711 0.147,-0.049141 0.291,-0.091261 0.431,-0.125192 0.278,-0.073711 0.541,-0.1275321 0.769,-0.1684827 0.45,-0.080731 0.758,-0.095942 0.758,-0.095942 0,0 -0.07,0.0351 -0.193,0.097111 -0.124,0.059671 -0.301,0.1415723 -0.514,0.2351738 -0.106,0.045631 -0.221,0.095942 -0.344,0.1474223 -0.123,0.050311 -0.25,0.1041317 -0.385,0.1591226 -0.131,0.054991 -0.268,0.1123218 -0.404,0.1696527 -0.136,0.053821 -0.276,0.1170018 -0.418,0.1813529 -0.132,0.058501 -0.27,0.1345521 -0.404,0.1953931 -0.133,0.071371 -0.361,0.1649726 -0.49,0.2304937 -0.156,0.076052 -0.256,0.1181731 -0.353,0.179014 -1.113,0.7570021 -1.604,2.1001836 -1.904,3.5205862 -0.053,-1.3338212 -0.293,-2.6290319 -1.116,-3.5837672 0,0 0.001,-0.00117 0.002,-0.00117 C 14.264,7.5233569 14.147,7.3911448 14.028,7.2495725 13.929,7.1314006 13.826,7.0132287 13.726,6.8880367 13.622,6.7698648 13.52,6.6399927 13.417,6.5253309 13.307,6.403649 13.197,6.281967 13.09,6.1731553 12.981,6.0573234 12.875,5.9450016 12.771,5.8350199 12.666,5.7238681 12.564,5.6173964 12.468,5.5167748 12.372,5.4149832 12.282,5.3178716 12.199,5.2266102 12.033,5.0440872 11.895,4.8908148 11.801,4.779663 11.707,4.6673412 11.655,4.6041602 11.655,4.6041602 c 0,0 0.279,0.1521024 0.67,0.4270568 0.195,0.1380622 0.42,0.3065449 0.653,0.498428 0.118,0.093601 0.236,0.1965631 0.358,0.3077149 0.06,0.056161 0.12,0.1123218 0.181,0.1673127 l 0.171,0.1731628 c 0.03,0.031591 0.054,0.051481 0.089,0.092431 l 0.083,0.095942 c 0.056,0.062011 0.111,0.125192 0.163,0.190713 0.102,0.1298721 0.203,0.2574041 0.293,0.3861062 0.091,0.1298721 0.179,0.253894 0.256,0.377916 0.016,0.026911 0.032,0.050311 0.048,0.077221 0.243,-0.4633274 0.253,-1.8462895 -0.797,-2.7787944 -1.142,-1.0120662 -2.735,-0.558099 -3.402,-0.9313349 0.674,1.2051192 0.544,2.0089221 1.676,3.3322132 0.756,0.8857042 1.462,0.9406951 1.938,0.7862526 0.965,1.0892874 1.116,2.7518839 1.117,4.3419399 -0.1,-0.09477 -0.22,-0.168483 -0.358,-0.168483 -0.392,0 -0.677,0.258574 -0.814,0.62596 -0.862,-0.342815 -1.434,0.455137 -1.484,1.126728 -0.41,-0.179013 -0.93,0.374406 -0.93,0.852944 0,0.473857 0.319,0.856453 0.72,0.877514 l 6.345,0.01287 c 0,0 0.676,-0.425887 0.676,-0.890384 0,-0.486728 -0.336,-0.879854 -0.752,-0.879854 -0.057,0 -0.113,0.0094 -0.166,0.0234 0.004,-0.03393 -0.072,-1.530384 -1.182,-0.927825 -0.087,-0.468007 -0.2,-0.820183 -0.867,-0.820183 -0.328,0 -0.551,0.140402 -0.693,0.281975 0.278,-1.653237 0.707,-3.3801847 1.958,-4.2342984 0.014,-0.00819 0.021,-0.02223 0.029,-0.032761 0.387,0.3638758 1.063,0.6446803 2.066,0.1567825 1.479,-0.7183915 1.619,-1.5198543 2.636,-2.3330173 -0.737,0.049141 -2.063,-1.0834373 -3.45,-0.6575505 -1.271,0.3896163 -1.714,1.6731268 -1.64,2.2089953 z m -1.808,5.1855226 c 0,0 -0.004,-0.0094 -0.007,-0.01755 l 0.041,-0.04797 c -0.021,0.03744 -0.034,0.06552 -0.034,0.06552 z" />
    <path
       style="fill:#002255"
       inkscape:connector-curvature="0"
       id="path9"
       d="m 28.525,19.194293 -26.357,0 L 0,30.692067 l 30.693,0 -2.168,-11.497774 z m -16.208,9.915909 0.442,-2.344718 5.177,0 0.44,2.344718 -6.059,0 z" />
    <path
       style="fill:#002255"
       inkscape:connector-curvature="0"
       id="path11"
       d="m 28.457,18.467712 0,-7.058723 0,0 0,-11.1479382 -9.889,0 -6.44,0 -9.891,0 0,11.1479382 0,7.056383 26.22,0 0,0.0023 z m -1.864,-1.821719 -22.49,0 0,-14.2028573 8.422,0 5.645,0 8.423,0 0,14.2028573 z" />
  </g>
</svg>
