<?xml version="1.0" encoding="UTF-8" standalone="no"?>
<svg
   xmlns:dc="http://purl.org/dc/elements/1.1/"
   xmlns:cc="http://creativecommons.org/ns#"
   xmlns:rdf="http://www.w3.org/1999/02/22-rdf-syntax-ns#"
   xmlns:svg="http://www.w3.org/2000/svg"
   xmlns="http://www.w3.org/2000/svg"
   xmlns:sodipodi="http://sodipodi.sourceforge.net/DTD/sodipodi-0.dtd"
   xmlns:inkscape="http://www.inkscape.org/namespaces/inkscape"
   viewBox="0 0 64 64"
   id="svg2"
   version="1.1"
   inkscape:version="0.91 r13725"
   sodipodi:docname="application-pgp.svg">
  <metadata
     id="metadata23">
    <rdf:RDF>
      <cc:Work
         rdf:about="">
        <dc:format>image/svg+xml</dc:format>
        <dc:type
           rdf:resource="http://purl.org/dc/dcmitype/StillImage" />
        <dc:title></dc:title>
      </cc:Work>
    </rdf:RDF>
  </metadata>
  <sodipodi:namedview
     pagecolor="#ffffff"
     bordercolor="#666666"
     borderopacity="1"
     objecttolerance="10"
     gridtolerance="10"
     guidetolerance="10"
     inkscape:pageopacity="0"
     inkscape:pageshadow="2"
     inkscape:window-width="1280"
     inkscape:window-height="694"
     id="namedview21"
     showgrid="true"
     inkscape:zoom="3.6875"
     inkscape:cx="-22.00775"
     inkscape:cy="32"
     inkscape:window-x="0"
     inkscape:window-y="0"
     inkscape:window-maximized="1"
     inkscape:current-layer="svg2">
    <inkscape:grid
       type="xygrid"
       id="grid4139" />
  </sodipodi:namedview>
  <defs
     id="defs4">
    <linearGradient
       id="0"
       x1="-74.929"
       y1="52.2"
       x2="-75.26"
       y2="2.356"
       gradientUnits="userSpaceOnUse"
       gradientTransform="matrix(1.07499,0,0,1.02929,113.079,0.074)">
      <stop
         stop-color="#8294a4"
         id="stop7" />
      <stop
         offset="1"
         stop-color="#aeb6be"
         id="stop9" />
    </linearGradient>
  </defs>
  <rect
     style="fill:#b7bec8"
     id="rect13"
     rx="3.5939908"
     y="0.65025425"
     x="0.50847554"
     height="52.936779"
     width="63.254234" />
  <g
     style="fill:#1c1f24"
     id="g15"
     transform="matrix(0.09292234,0,0,0.09531547,26.50857,31.661141)">
    <path
       inkscape:connector-curvature="0"
       id="path17"
       d="m 192.51,64.52 c -2.746,-2.745 -7.162,-2.862 -10.05,-0.268 -14.862,13.354 -93,81.18 -171.94,105.16 l -0.855,0.259 c -2.051,0.623 -3.727,2.114 -4.582,4.082 -0.854,1.969 -0.801,4.209 0.146,6.133 l 0.395,0.799 c 0.004,0.011 0.008,0.019 0.015,0.027 0.271,0.564 11.653,24.328 13.13,57.811 0.916,20.82 -2.101,40.832 -8.945,59.52 -2.442,0.19 -4.834,1.215 -6.703,3.084 -4.168,4.167 -4.166,10.921 0,15.09 4.166,4.166 10.92,4.167 15.09,0 2.408,-2.409 3.416,-5.682 3.039,-8.82 l 76.49,-76.49 c 1.908,-1.907 2.609,-4.71 1.824,-7.289 -2.703,-8.89 -0.291,-18.509 6.299,-25.1 4.756,-4.758 11.08,-7.377 17.809,-7.377 6.731,0 13.06,2.619 17.813,7.377 4.758,4.756 7.375,11.08 7.375,17.808 0,6.728 -2.617,13.05 -7.377,17.81 -4.754,4.754 -11.07,7.371 -17.799,7.372 -2.494,0 -4.953,-0.362 -7.31,-1.075 -2.582,-0.783 -5.379,-0.08 -7.283,1.824 l -76.48,76.49 c -3.142,-0.378 -6.416,0.628 -8.826,3.038 -4.166,4.166 -4.164,10.921 0,15.09 4.166,4.166 10.922,4.167 15.09,0 1.869,-1.869 2.892,-4.258 3.084,-6.702 16.48,-6.04 34.01,-9.105 52.15,-9.105 2.276,0 4.604,0.049 6.922,0.145 33.588,1.385 58.09,13.06 58.31,13.173 l 0.775,0.382 c 1.014,0.498 2.117,0.749 3.221,0.748 0.99,10e-5 1.98,-0.2 2.91,-0.603 1.963,-0.855 3.457,-2.529 4.08,-4.579 l 0.258,-0.854 c 23.979,-78.943 91.81,-157.08 105.16,-171.94 2.594,-2.888 2.477,-7.3 -0.271,-10.05 L 192.509,64.522"
       style="fill:#1c1f24" />
    <path
       inkscape:connector-curvature="0"
       id="path19"
       d="M 337.86,86.974 253.02,2.134 c -1.37,-1.37 -3.228,-2.139 -5.165,-2.139 -1.937,-1e-4 -3.796,0.768 -5.164,2.137 l -36.29,36.3 c -2.854,2.853 -2.854,7.477 0,10.329 l 84.84,84.83 c 1.369,1.371 3.225,2.14 5.164,2.14 1.936,0 3.793,-0.771 5.162,-2.14 l 36.3,-36.3 c 2.852,-2.851 2.852,-7.475 -0.002,-10.328"
       style="fill:#1c1f24" />
  </g>
</svg>
