<?xml version="1.0" encoding="UTF-8" standalone="no"?>
<svg
   xmlns:dc="http://purl.org/dc/elements/1.1/"
   xmlns:cc="http://creativecommons.org/ns#"
   xmlns:rdf="http://www.w3.org/1999/02/22-rdf-syntax-ns#"
   xmlns:svg="http://www.w3.org/2000/svg"
   xmlns="http://www.w3.org/2000/svg"
   xmlns:sodipodi="http://sodipodi.sourceforge.net/DTD/sodipodi-0.dtd"
   xmlns:inkscape="http://www.inkscape.org/namespaces/inkscape"
   viewBox="0 0 64 64"
   id="svg2"
   version="1.1"
   inkscape:version="0.91 r13725"
   sodipodi:docname="application-x-kontour.svg">
  <metadata
     id="metadata19">
    <rdf:RDF>
      <cc:Work
         rdf:about="">
        <dc:format>image/svg+xml</dc:format>
        <dc:type
           rdf:resource="http://purl.org/dc/dcmitype/StillImage" />
        <dc:title></dc:title>
      </cc:Work>
    </rdf:RDF>
  </metadata>
  <sodipodi:namedview
     pagecolor="#ffffff"
     bordercolor="#666666"
     borderopacity="1"
     objecttolerance="10"
     gridtolerance="10"
     guidetolerance="10"
     inkscape:pageopacity="0"
     inkscape:pageshadow="2"
     inkscape:window-width="1280"
     inkscape:window-height="694"
     id="namedview17"
     showgrid="true"
     inkscape:zoom="3.6875"
     inkscape:cx="-12.20339"
     inkscape:cy="32"
     inkscape:window-x="0"
     inkscape:window-y="0"
     inkscape:window-maximized="1"
     inkscape:current-layer="svg2">
    <inkscape:grid
       type="xygrid"
       id="grid4147" />
  </sodipodi:namedview>
  <defs
     id="defs4">
    <linearGradient
       id="0"
       x1="-74.929"
       y1="52.2"
       x2="-75.26"
       y2="2.356"
       gradientUnits="userSpaceOnUse"
       gradientTransform="matrix(1.5520271,0,0,0.8955587,149.32977,-0.79593904)">
      <stop
         stop-color="#2aaa76"
         id="stop7" />
      <stop
         offset="1"
         stop-color="#3ec380"
         id="stop9" />
    </linearGradient>
  </defs>
  <rect
     style="fill:url(#0)"
     id="rect13"
     rx="3.6093991"
     width="63.525421"
     height="52.665592"
     x="0.5084765"
     y="0.64925426" />
  <path
     style="fill:#afe9c6;fill-opacity:0.85"
     inkscape:connector-curvature="0"
     id="path15"
     d="m 31.062131,62.077624 9.835738,0 0,1.224011 3.576495,0 0,-1.224011 9.877975,0 0,1.38394 3.576495,0 0,-3.426968 -1.319653,0 0,-9.58424 1.277341,0 0,-3.426968 -1.277341,0 0,-8.89769 1.319728,0 0,-3.426968 -3.576495,0 0,0.697102 -9.877974,0 0,-1.223939 -3.576496,0 0,1.223939 -9.835737,0 0,-0.856815 -3.576495,0 0,3.426968 1.277341,0 0,9.057403 -1.277341,0 0,3.426968 1.277341,0 0,9.424527 -1.277341,0 0,3.426968 3.576495,0 0,-1.22401 m -1.021813,0 0,0.244845 -1.53287,0 0,-1.468783 0.255529,0 1.021888,0 0.255529,0 0,0.244845 0,0.979093 z m 11.879665,-26.682227 0,-0.244845 1.53287,0 0,0.244845 0,0.512023 0,0.46707 0,0.244774 -1.53287,0 0,-0.244774 0,-0.46707 0,-0.512023 m 1.53287,26.682227 0,0.244845 -1.53287,0 0,-0.244845 0,-0.512021 0,-0.466999 0,-0.244845 1.53287,0 0,0.244845 0,0.466999 0,0.512021 m 0.170227,-12.790066 c 0.09933,0.09561 0.09933,0.250482 0,0.346093 -0.05038,0.04777 -0.115244,0.07169 -0.181088,0.07169 -0.06486,0 -0.130555,-0.02393 -0.18071,-0.07169 l -0.574788,-0.55083 -0.574864,0.55083 c -0.05016,0.04777 -0.115471,0.07169 -0.180862,0.07169 -0.06539,0 -0.130705,-0.02393 -0.180936,-0.07169 -0.09948,-0.09561 -0.09948,-0.250483 0,-0.346093 l 0.574864,-0.550831 -0.574864,-0.550829 c -0.09948,-0.09532 -0.09948,-0.250772 0,-0.346166 0.09956,-0.09539 0.261713,-0.09539 0.361269,0 l 0.575317,0.55083 0.574788,-0.55083 c 0.09978,-0.09539 0.261487,-0.09539 0.36127,0 0.09978,0.09539 0.09978,0.250772 0,0.346166 l -0.574864,0.550829 0.575317,0.550831 m 13.28477,13.194769 -1.532794,0 0,-0.404414 0,-0.979092 0,-0.08514 0.213066,0 1.021888,0 0.29784,0 0,1.468712 z m -2.554682,-2.447804 0,1.064298 -8.002237,0 c 4.459681,-1.211581 7.972822,-4.577483 9.236889,-8.851437 l 0,7.786922 -1.234954,0 m 2.512295,-10.563476 -0.255452,0 -0.534363,0 -0.487451,0 -0.255452,0 0,-1.468783 0.255452,0 0.487451,0 0.534363,0 0.255452,0 0,1.468783 m -1.490332,-13.793152 1.23488,0 0.297839,0 0,1.468783 -0.297839,0 -1.021889,0 -0.213066,0 0,-0.771682 0,-0.697101 z m -1.021887,0.697101 0,1.751064 1.234878,0 0,7.100373 c -1.264369,-4.273955 -4.777208,-7.639495 -9.236889,-8.851437 l 8.002237,0 z m -25.84474,-0.856886 0.25553,0 1.27734,0 0,0.856813 0,0.61197 -0.255528,0 -1.021888,0 -0.255529,0 0,-1.468783 z m 2.554683,2.447948 0,-1.591351 7.959247,0 c -4.459682,1.211652 -7.972068,4.577482 -9.23689,8.850715 l 0,-7.259364 1.277342,0 m -2.554683,10.036639 0.255529,0 0.534362,0 0.48745,0 0.255529,0 0,1.468783 -0.255529,0 -0.48745,0 -0.534362,0 -0.255529,0 0,-1.468783 m 1.277341,4.245193 c 1.264671,4.273954 4.777208,7.639495 9.23689,8.851437 l -7.959247,0 0,-1.224011 -1.277341,0 0,-7.62721" />
</svg>
