<?xml version="1.0" encoding="UTF-8" standalone="no"?>
<svg
   xmlns:dc="http://purl.org/dc/elements/1.1/"
   xmlns:cc="http://creativecommons.org/ns#"
   xmlns:rdf="http://www.w3.org/1999/02/22-rdf-syntax-ns#"
   xmlns:svg="http://www.w3.org/2000/svg"
   xmlns="http://www.w3.org/2000/svg"
   xmlns:sodipodi="http://sodipodi.sourceforge.net/DTD/sodipodi-0.dtd"
   xmlns:inkscape="http://www.inkscape.org/namespaces/inkscape"
   viewBox="0 0 64 64"
   id="svg2"
   version="1.1"
   inkscape:version="0.91 r13725"
   sodipodi:docname="application-vnd.oasis.opendocument.draw.template.svg">
  <metadata
     id="metadata19">
    <rdf:RDF>
      <cc:Work
         rdf:about="">
        <dc:format>image/svg+xml</dc:format>
        <dc:type
           rdf:resource="http://purl.org/dc/dcmitype/StillImage" />
        <dc:title></dc:title>
      </cc:Work>
    </rdf:RDF>
  </metadata>
  <sodipodi:namedview
     pagecolor="#ffffff"
     bordercolor="#666666"
     borderopacity="1"
     objecttolerance="10"
     gridtolerance="10"
     guidetolerance="10"
     inkscape:pageopacity="0"
     inkscape:pageshadow="2"
     inkscape:window-width="1280"
     inkscape:window-height="694"
     id="namedview17"
     showgrid="true"
     inkscape:zoom="3.6875"
     inkscape:cx="-10.923946"
     inkscape:cy="32"
     inkscape:window-x="0"
     inkscape:window-y="0"
     inkscape:window-maximized="1"
     inkscape:current-layer="svg2">
    <inkscape:grid
       type="xygrid"
       id="grid4137" />
  </sodipodi:namedview>
  <defs
     id="defs4">
    <linearGradient
       id="0"
       x1="-74.929"
       y1="52.2"
       x2="-75.26"
       y2="2.356"
       gradientUnits="userSpaceOnUse"
       gradientTransform="matrix(1.07499,0,0,1.02929,113.079,0.073)">
      <stop
         stop-color="#8798a9"
         id="stop7" />
      <stop
         offset="1"
         stop-color="#aeb6be"
         id="stop9" />
    </linearGradient>
  </defs>
  <rect
     style="fill:#93a7ac"
     id="rect13"
     rx="3.5939908"
     width="63.254234"
     height="52.665592"
     x="0.50847554"
     y="0.6492542" />
  <path
     style="fill:#374548"
     inkscape:connector-curvature="0"
     id="path15"
     d="m 30.764249,62.385077 10.088518,0 0,1.252332 3.668411,0 0,-1.252332 10.131842,0 0,1.415962 3.668412,0 0,-3.506263 -1.353568,0 0,-9.805998 1.310169,0 0,-3.506262 -1.310169,0 0,-9.103564 1.353644,0 0,-3.506262 -3.668411,0 0,0.713232 -10.131842,0 0,-1.252259 -3.668411,0 0,1.252259 -10.088518,0 0,-0.87664 -3.668413,0 0,3.506261 1.310169,0 0,9.266973 -1.310169,0 0,3.506262 1.310169,0 0,9.642589 -1.310169,0 0,3.506263 3.668413,0 0,-1.252332 m -1.048074,0 0,0.250512 -1.572265,0 0,-1.502769 0.262095,0 1.048151,0 0.262096,0 0,0.25051 0,1.001747 z m 12.184975,-27.2996 0,-0.25051 1.572266,0 0,0.25051 0,0.52387 0,0.477878 0,0.250436 -1.572266,0 0,-0.250436 0,-0.477878 0,-0.52387 m 1.572266,27.2996 0,0.250512 -1.572266,0 0,-0.250512 0,-0.523869 0,-0.477803 0,-0.250511 1.572266,0 0,0.250511 0,0.477803 0,0.523869 m 0.1746,-13.086002 c 0.101885,0.09782 0.101885,0.256278 0,0.354101 -0.05167,0.04886 -0.118209,0.07336 -0.185741,0.07336 -0.06653,0 -0.13391,-0.02447 -0.185354,-0.07336 l -0.589561,-0.563574 -0.589639,0.563574 c -0.05144,0.04886 -0.11843,0.07336 -0.185509,0.07336 -0.06706,0 -0.134063,-0.02447 -0.185587,-0.07336 -0.102041,-0.09783 -0.102041,-0.256278 0,-0.354101 l 0.589639,-0.563576 -0.589639,-0.563575 c -0.102041,-0.09752 -0.102041,-0.256572 0,-0.354175 0.102115,-0.09761 0.268441,-0.09761 0.370555,0 l 0.590103,0.563575 0.589561,-0.563575 c 0.102354,-0.09761 0.268206,-0.09761 0.370555,0 0.102354,0.0976 0.102354,0.256574 0,0.354175 l -0.58964,0.563575 0.590104,0.563576 m 13.626192,13.500069 -1.572187,0 0,-0.413771 0,-1.001747 0,-0.0871 0.218541,0 1.04815,0 0.305496,0 0,1.502693 z m -2.620339,-2.50444 0,1.088922 -8.207898,0 c 4.574298,-1.239614 8.177727,-4.683396 9.474281,-9.056241 l 0,7.967097 -1.266692,0 m 2.576862,-10.807894 -0.262019,0 -0.548097,0 -0.499976,0 -0.262018,0 0,-1.502769 0.262018,0 0.499976,0 0.548097,0 0.262019,0 0,1.502769 m -1.528634,-14.112297 1.266615,0 0.305496,0 0,1.502767 -0.305496,0 -1.048151,0 -0.218542,0 0,-0.789536 0,-0.713231 z m -1.048151,0.713231 0,1.791579 1.266615,0 0,7.264661 c -1.296863,-4.372846 -4.899983,-7.816258 -9.474281,-9.05624 l 8.207898,0 z m -26.508955,-0.876715 0.262096,0 1.310169,0 0,0.876639 0,0.626129 -0.262096,0 -1.048151,0 -0.262094,0 0,-1.502768 z m 2.620339,2.504589 0,-1.628171 8.163802,0 c -4.574297,1.239687 -8.176954,4.683397 -9.474281,9.055502 l 0,-7.427331 1.310169,0 m -2.620338,10.268868 0.262096,0 0.548095,0 0.499978,0 0.262095,0 0,1.502768 -0.262095,0 -0.499978,0 -0.548095,0 -0.262096,0 0,-1.502768 m 1.310169,4.343416 c 1.297173,4.372846 4.899984,7.816258 9.474281,9.056242 l -8.163802,0 0,-1.25233 -1.31017,0 0,-7.803689" />
</svg>
