<?xml version="1.0" encoding="UTF-8" standalone="no"?>
<svg
   xmlns:dc="http://purl.org/dc/elements/1.1/"
   xmlns:cc="http://creativecommons.org/ns#"
   xmlns:rdf="http://www.w3.org/1999/02/22-rdf-syntax-ns#"
   xmlns:svg="http://www.w3.org/2000/svg"
   xmlns="http://www.w3.org/2000/svg"
   xmlns:sodipodi="http://sodipodi.sourceforge.net/DTD/sodipodi-0.dtd"
   xmlns:inkscape="http://www.inkscape.org/namespaces/inkscape"
   viewBox="0 0 64 64"
   id="svg2"
   version="1.1"
   inkscape:version="0.91 r13725"
   sodipodi:docname="application-x-ar.svg">
  <metadata
     id="metadata19">
    <rdf:RDF>
      <cc:Work
         rdf:about="">
        <dc:format>image/svg+xml</dc:format>
        <dc:type
           rdf:resource="http://purl.org/dc/dcmitype/StillImage" />
        <dc:title></dc:title>
      </cc:Work>
    </rdf:RDF>
  </metadata>
  <sodipodi:namedview
     pagecolor="#ffffff"
     bordercolor="#666666"
     borderopacity="1"
     objecttolerance="10"
     gridtolerance="10"
     guidetolerance="10"
     inkscape:pageopacity="0"
     inkscape:pageshadow="2"
     inkscape:window-width="1280"
     inkscape:window-height="694"
     id="namedview17"
     showgrid="true"
     inkscape:zoom="3.6875"
     inkscape:cx="-12.20339"
     inkscape:cy="32"
     inkscape:window-x="0"
     inkscape:window-y="0"
     inkscape:window-maximized="1"
     inkscape:current-layer="svg2">
    <inkscape:grid
       type="xygrid"
       id="grid4137" />
  </sodipodi:namedview>
  <defs
     id="defs4">
    <linearGradient
       id="0"
       x1="-74.929"
       y1="52.2"
       x2="-75.26"
       y2="2.356"
       gradientUnits="userSpaceOnUse"
       gradientTransform="matrix(1.07499,0,0,1.02929,113.079,0.074)">
      <stop
         stop-color="#546db3"
         id="stop7" />
      <stop
         offset="1"
         stop-color="#8494c2"
         id="stop9" />
    </linearGradient>
  </defs>
  <rect
     style="fill:#3771c8"
     id="rect13"
     rx="3.6093991"
     y="0.37906781"
     x="0.50847554"
     height="53.207962"
     width="63.525421" />
  <path
     style="fill:#162d50"
     inkscape:connector-curvature="0"
     id="path15"
     d="m 28.611959,34.37146 c -0.956264,0 -1.727243,0.655337 -1.727243,1.471164 l 0,26.482292 c 0,0.81449 0.769408,1.471164 1.727243,1.471164 l 27.6359,0 c 0.956264,0 1.730384,-0.655337 1.730384,-1.471164 l 0,-26.482292 c 0,-0.81449 -0.772549,-1.471164 -1.730384,-1.471164 l -27.6359,0 m 12.921353,0.817165 1.920382,0 c 0.42553,0 0.766267,0.291559 0.766267,0.652663 l 0,0.164502 c 0,0.362441 -0.342308,0.652662 -0.766267,0.652662 l -1.920382,0 c -0.42553,0 -0.766268,-0.291558 -0.766268,-0.652662 l 0,-0.164502 c 0,-0.362441 0.342308,-0.652663 0.766268,-0.652663 m -0.0063,2.126501 1.920381,0 c 0.425531,0 0.766268,0.292895 0.766268,0.655337 l 0,0.161828 c 0,0.362441 -0.342308,0.655337 -0.766268,0.655337 l -1.92038,0 c -0.42553,0 -0.769408,-0.292896 -0.769408,-0.655337 l 0,-0.161828 c 0,-0.362442 0.343878,-0.655337 0.769408,-0.655337 m -0.02198,2.102427 1.920381,0 c 0.425531,0 0.766268,0.291558 0.766268,0.652662 l 0,0.164503 c 0,0.362442 -0.342308,0.652662 -0.766268,0.652662 l -1.920381,0 c -0.42553,0 -0.769408,-0.291558 -0.769408,-0.652662 l 0,-0.164503 c 0,-0.362441 0.343878,-0.652662 0.769408,-0.652662 m 0.03611,2.18936 1.92038,0 c 0.42553,0 0.766269,0.291559 0.766269,0.652663 l 0,0.164502 c 0,0.362441 -0.342309,0.652663 -0.766269,0.652663 l -1.92038,0 c -0.42553,0 -0.766269,-0.291559 -0.766269,-0.652663 l 0,-0.164502 c 0,-0.362442 0.342309,-0.652663 0.766269,-0.652663 m 0,2.149238 1.92038,0 c 0.42553,0 0.766269,0.291557 0.766269,0.652661 l 0,0.164504 c 0,0.362441 -0.342309,0.652661 -0.766269,0.652661 l -1.92038,0 c -0.42553,0 -0.766269,-0.291557 -0.766269,-0.652661 l 0,-0.164504 c 0,-0.362441 0.342309,-0.652661 0.766269,-0.652661 m 0,2.200058 1.92038,0 c 0.42553,0 0.766269,0.292895 0.766269,0.655337 l 0,0.161828 c 0,0.362441 -0.342309,0.655337 -0.766269,0.655337 l -1.92038,0 c -0.42553,0 -0.766269,-0.292896 -0.766269,-0.655337 l 0,-0.161828 c 0,-0.362442 0.342309,-0.655337 0.766269,-0.655337 m 0.153882,2.225471 1.524685,0 c 0.303052,0 0.546437,0.208637 0.546437,0.468097 l 0,0.929508 0.846349,2.126501 c 0.237104,0.592478 0.124046,1.25049 -0.303053,1.760048 -0.427099,0.509558 -1.119567,0.81449 -1.852862,0.81449 -0.733293,0 -1.425761,-0.304932 -1.852861,-0.81449 -0.427099,-0.510896 -0.540155,-1.16757 -0.303052,-1.760048 l 0.846349,-2.126501 0,-0.929508 c 0,-0.258122 0.246525,-0.468097 0.549578,-0.468097 m -0.06752,3.113518 -0.28264,0.712846 c -0.122477,0.306269 -0.06438,0.645974 0.157022,0.909447 0.439662,0.525606 1.471297,0.525606 1.910959,0 0.219831,-0.263473 0.27793,-0.603178 0.157022,-0.909447 l -0.28264,-0.712846 -1.659723,0" />
</svg>
