<?xml version="1.0" encoding="UTF-8" standalone="no"?>
<svg
   xmlns:dc="http://purl.org/dc/elements/1.1/"
   xmlns:cc="http://creativecommons.org/ns#"
   xmlns:rdf="http://www.w3.org/1999/02/22-rdf-syntax-ns#"
   xmlns:svg="http://www.w3.org/2000/svg"
   xmlns="http://www.w3.org/2000/svg"
   xmlns:sodipodi="http://sodipodi.sourceforge.net/DTD/sodipodi-0.dtd"
   xmlns:inkscape="http://www.inkscape.org/namespaces/inkscape"
   viewBox="0 0 48 48"
   id="svg2"
   version="1.1"
   inkscape:version="0.91 r13725"
   sodipodi:docname="alexandra.svg">
  <metadata
     id="metadata19">
    <rdf:RDF>
      <cc:Work
         rdf:about="">
        <dc:format>image/svg+xml</dc:format>
        <dc:type
           rdf:resource="http://purl.org/dc/dcmitype/StillImage" />
        <dc:title></dc:title>
      </cc:Work>
    </rdf:RDF>
  </metadata>
  <sodipodi:namedview
     pagecolor="#ffffff"
     bordercolor="#666666"
     borderopacity="1"
     objecttolerance="10"
     gridtolerance="10"
     guidetolerance="10"
     inkscape:pageopacity="0"
     inkscape:pageshadow="2"
     inkscape:window-width="1280"
     inkscape:window-height="694"
     id="namedview17"
     showgrid="false"
     inkscape:zoom="4.9166667"
     inkscape:cx="24"
     inkscape:cy="24"
     inkscape:window-x="0"
     inkscape:window-y="0"
     inkscape:window-maximized="1"
     inkscape:current-layer="svg2" />
  <defs
     id="defs4">
    <linearGradient
       id="0"
       gradientUnits="userSpaceOnUse"
       y1="25.995"
       x2="0"
       y2="-20.291"
       gradientTransform="matrix(0.99999,0,0,0.99999,-28.3701,20.88205)">
      <stop
         stop-color="#00a661"
         id="stop7" />
      <stop
         offset="1"
         stop-color="#37ce97"
         id="stop9" />
    </linearGradient>
  </defs>
  <path
     style="fill:#71c837;fill-opacity:0.83800001;stroke:none;stroke-opacity:0.8"
     inkscape:connector-curvature="0"
     id="path15"
     d="m 3.5159881,47.585251 41.1795329,0 c 1.753594,0 3.188148,-1.357267 3.188148,-3.01659 l 0,-41.3386654 c 0,-1.6554796 -1.435662,-3.01658977 -3.188148,-3.01658977 l -41.1795329,0 c -1.7575293,0 -3.19024027,1.36111017 -3.19024027,3.01658977 l 0,41.3386654 c 0,1.659323 1.43271097,3.01659 3.19024027,3.01659 M 40.105532,3.9037383 c 0,-0.500707 0.432926,-0.9048833 0.956741,-0.9048833 l 2.98915,0 c 0.527874,0 0.95477,0.4041763 0.95477,0.9048833 l 0,2.9145846 c 0,0.5007089 -0.426896,0.9048852 -0.95477,0.9048852 l -2.98915,0 c -0.523815,0 -0.956741,-0.4032459 -0.956741,-0.9048852 l 0,-2.9145846 m 0,7.4139687 c 0,-0.500709 0.432926,-0.905815 0.956741,-0.905815 l 2.98915,0 c 0.527874,0 0.95477,0.405106 0.95477,0.905815 l 0,2.914584 c 0,0.499778 -0.426896,0.907679 -0.95477,0.907679 l -2.98915,0 c -0.523815,0 -0.956741,-0.407901 -0.956741,-0.907679 l 0,-2.914584 m 0,7.419791 c 0,-0.499777 0.432926,-0.907679 0.956741,-0.907679 l 2.98915,0 c 0.527874,0 0.95477,0.407902 0.95477,0.907679 l 0,2.915749 c 0,0.495933 -0.426896,0.903952 -0.95477,0.903952 l -2.98915,0 c -0.523815,0 -0.956741,-0.407903 -0.956741,-0.903952 l 0,-2.915749 m 0,7.413968 c 0,-0.500709 0.432926,-0.907679 0.956741,-0.907679 l 2.98915,0 c 0.527874,0 0.95477,0.40697 0.95477,0.907679 l 0,2.915748 c 0,0.499777 -0.426896,0.904886 -0.95477,0.904886 l -2.98915,0 c -0.523815,0 -0.956741,-0.405109 -0.956741,-0.904886 l 0,-2.915748 m 0,7.413967 c 0,-0.500707 0.432926,-0.904883 0.956741,-0.904883 l 2.98915,0 c 0.527874,0 0.95477,0.403243 0.95477,0.904883 l 0,2.916915 c 0,0.497913 -0.426896,0.903021 -0.95477,0.903021 l -2.98915,0 c -0.523815,0 -0.956741,-0.405108 -0.956741,-0.903021 l 0,-2.916915 m 0,7.413969 c 0,-0.497914 0.432926,-0.904883 0.956741,-0.904883 l 2.98915,0 c 0.527874,0 0.95477,0.406969 0.95477,0.904883 l 0,2.920408 c 0,0.494068 -0.426896,0.90302 -0.95477,0.90302 l -2.98915,0 c -0.523815,0 -0.956741,-0.407904 -0.956741,-0.90302 l 0,-2.920408 M 11.383662,6.0905513 c 0,-0.5007089 0.430834,-0.9048834 0.958707,-0.9048834 l 23.527999,0 c 0.524921,0 0.954773,0.4041745 0.954773,0.9048834 l 0,14.4320267 c 0,0.495935 -0.429852,0.907679 -0.954773,0.907679 l -23.527999,0 c -0.527873,0 -0.958707,-0.411744 -0.958707,-0.907679 -1.2e-5,0 -1.2e-5,-14.4320267 -1.2e-5,-14.4320267 m 0,22.2547127 c 0,-0.496982 0.430833,-0.902089 0.958707,-0.902089 l 23.527999,0 c 0.524921,0 0.954773,0.405107 0.954773,0.902089 l 0,13.340951 c 0,0.497913 -0.429852,0.904883 -0.954773,0.904883 l -23.527999,0 c -0.527874,0 -0.958707,-0.40697 -0.958707,-0.904883 -1.2e-5,0 -1.2e-5,-13.340951 -1.2e-5,-13.340951 M 3.2023367,3.9025748 c 0,-0.5007089 0.4298515,-0.9048852 0.9567409,-0.9048852 l 2.990257,0 c 0.5249212,0 0.9537872,0.4041763 0.9537872,0.9048852 l 0,2.9145845 c 0,0.5007071 -0.428866,0.9048834 -0.9537872,0.9048834 l -2.990257,0 c -0.5268894,0 -0.9567409,-0.4032439 -0.9567409,-0.9048834 0,0 0,-2.9145845 0,-2.9145845 m 0,7.4139672 c 0,-0.500707 0.4298515,-0.905814 0.9567409,-0.905814 l 2.990257,0 c 0.5249212,0 0.9537872,0.405107 0.9537872,0.905814 l 0,2.914587 c 0,0.499773 -0.428866,0.907677 -0.9537872,0.907677 l -2.990257,0 c -0.5268894,0 -0.9567409,-0.407904 -0.9567409,-0.907677 0,0 0,-2.914587 0,-2.914587 m 0,7.419791 c 0,-0.499776 0.4298515,-0.90768 0.9567409,-0.90768 l 2.990257,0 c 0.5249212,0 0.9537872,0.407904 0.9537872,0.90768 l 0,2.915749 c 0,0.495933 -0.428866,0.903953 -0.9537872,0.903953 l -2.990257,0 c -0.5268894,0 -0.9567409,-0.407903 -0.9567409,-0.903953 0,0 0,-2.915749 0,-2.915749 m 0,7.413967 c 0,-0.500706 0.4298515,-0.907678 0.9567409,-0.907678 l 2.990257,0 c 0.5249212,0 0.9537872,0.406972 0.9537872,0.907678 l 0,2.915751 c 0,0.499776 -0.428866,0.904882 -0.9537872,0.904882 l -2.990257,0 c -0.5268894,0 -0.9567409,-0.405106 -0.9567409,-0.904882 0,0 0,-2.915751 0,-2.915751 m 0,7.413969 c 0,-0.500709 0.4298515,-0.904883 0.9567409,-0.904883 l 2.990257,0 c 0.5249212,0 0.9537872,0.403244 0.9537872,0.904883 l 0,2.916914 c 0,0.497914 -0.428866,0.90302 -0.9537872,0.90302 l -2.990257,0 c -0.5268894,0 -0.9567409,-0.405106 -0.9567409,-0.90302 0,0 0,-2.916914 0,-2.916914 m 0,7.413967 c 0,-0.497912 0.4298515,-0.904882 0.9567409,-0.904882 l 2.990257,0 c 0.5249212,0 0.9537872,0.40697 0.9537872,0.904882 l 0,2.920408 c 0,0.494071 -0.428866,0.903021 -0.9537872,0.903021 l -2.990257,0 c -0.5268894,0 -0.9567409,-0.407902 -0.9567409,-0.903021 0,-1.1e-5 0,-2.920408 0,-2.920408" />
</svg>
