<?xml version="1.0" encoding="UTF-8" standalone="no"?>
<!-- Generator: Adobe Illustrator 18.0.0, SVG Export Plug-In . SVG Version: 6.00 Build 0)  -->

<svg
   xmlns:dc="http://purl.org/dc/elements/1.1/"
   xmlns:cc="http://creativecommons.org/ns#"
   xmlns:rdf="http://www.w3.org/1999/02/22-rdf-syntax-ns#"
   xmlns:svg="http://www.w3.org/2000/svg"
   xmlns="http://www.w3.org/2000/svg"
   xmlns:sodipodi="http://sodipodi.sourceforge.net/DTD/sodipodi-0.dtd"
   xmlns:inkscape="http://www.inkscape.org/namespaces/inkscape"
   version="1.1"
   id="Capa_1"
   x="0px"
   y="0px"
   viewBox="0 0 512 512"
   style="enable-background:new 0 0 512 512;"
   xml:space="preserve"
   width="512px"
   height="512px"
   inkscape:version="0.91 r13725"
   sodipodi:docname="alsamixergui.svg"><metadata
     id="metadata49"><rdf:RDF><cc:Work
         rdf:about=""><dc:format>image/svg+xml</dc:format><dc:type
           rdf:resource="http://purl.org/dc/dcmitype/StillImage" /><dc:title></dc:title></cc:Work></rdf:RDF></metadata><defs
     id="defs47" /><sodipodi:namedview
     pagecolor="#ffffff"
     bordercolor="#666666"
     borderopacity="1"
     objecttolerance="10"
     gridtolerance="10"
     guidetolerance="10"
     inkscape:pageopacity="0"
     inkscape:pageshadow="2"
     inkscape:window-width="1280"
     inkscape:window-height="694"
     id="namedview45"
     showgrid="false"
     inkscape:zoom="0.4609375"
     inkscape:cx="256"
     inkscape:cy="256"
     inkscape:window-x="0"
     inkscape:window-y="0"
     inkscape:window-maximized="1"
     inkscape:current-layer="Capa_1" /><g
     id="g3"
     transform="matrix(1.125908,0,0,1,-32.232445,0)"
     style="fill:#0066ff"><path
       d="m 64,96 c -17.672,0 -32,14.326 -32,32 l 0,256 c 0,17.672 14.328,32 32,32 17.672,0 32,-14.328 32,-32 L 96,128 C 96,110.326 81.672,96 64,96 Z"
       id="path5"
       inkscape:connector-curvature="0"
       style="fill:#0066ff" /><path
       d="m 160,160 c -17.672,0 -32,14.326 -32,32 l 0,128 c 0,17.672 14.328,32 32,32 17.672,0 32,-14.328 32,-32 l 0,-128 c 0,-17.674 -14.328,-32 -32,-32 z"
       id="path7"
       inkscape:connector-curvature="0"
       style="fill:#0066ff" /><path
       d="m 256,0 c -17.672,0 -32,14.326 -32,32 l 0,448 c 0,17.672 14.328,32 32,32 17.672,0 32,-14.328 32,-32 L 288,32 C 288,14.326 273.672,0 256,0 Z"
       id="path9"
       inkscape:connector-curvature="0"
       style="fill:#0066ff" /><path
       d="m 352,80 c -17.672,0 -32,14.326 -32,32 l 0,288 c 0,17.672 14.328,32 32,32 17.672,0 32,-14.328 32,-32 l 0,-288 C 384,94.326 369.672,80 352,80 Z"
       id="path11"
       inkscape:connector-curvature="0"
       style="fill:#0066ff" /><path
       d="m 448,160 c -17.672,0 -32,14.326 -32,32 l 0,128 c 0,17.672 14.328,32 32,32 17.672,0 32,-14.328 32,-32 l 0,-128 c 0,-17.674 -14.328,-32 -32,-32 z"
       id="path13"
       inkscape:connector-curvature="0"
       style="fill:#0066ff" /></g><g
     id="g15" /><g
     id="g17" /><g
     id="g19" /><g
     id="g21" /><g
     id="g23" /><g
     id="g25" /><g
     id="g27" /><g
     id="g29" /><g
     id="g31" /><g
     id="g33" /><g
     id="g35" /><g
     id="g37" /><g
     id="g39" /><g
     id="g41" /><g
     id="g43" /></svg>