<?xml version="1.0" encoding="UTF-8" standalone="no"?>
<svg
   xmlns:dc="http://purl.org/dc/elements/1.1/"
   xmlns:cc="http://creativecommons.org/ns#"
   xmlns:rdf="http://www.w3.org/1999/02/22-rdf-syntax-ns#"
   xmlns:svg="http://www.w3.org/2000/svg"
   xmlns="http://www.w3.org/2000/svg"
   xmlns:sodipodi="http://sodipodi.sourceforge.net/DTD/sodipodi-0.dtd"
   xmlns:inkscape="http://www.inkscape.org/namespaces/inkscape"
   viewBox="0 0 48 48"
   id="svg2"
   version="1.1"
   inkscape:version="0.91 r13725"
   sodipodi:docname="assistant-qt4.svg">
  <metadata
     id="metadata19">
    <rdf:RDF>
      <cc:Work
         rdf:about="">
        <dc:format>image/svg+xml</dc:format>
        <dc:type
           rdf:resource="http://purl.org/dc/dcmitype/StillImage" />
        <dc:title></dc:title>
      </cc:Work>
    </rdf:RDF>
  </metadata>
  <sodipodi:namedview
     pagecolor="#ffffff"
     bordercolor="#666666"
     borderopacity="1"
     objecttolerance="10"
     gridtolerance="10"
     guidetolerance="10"
     inkscape:pageopacity="0"
     inkscape:pageshadow="2"
     inkscape:window-width="1280"
     inkscape:window-height="694"
     id="namedview17"
     showgrid="false"
     inkscape:zoom="4.9166667"
     inkscape:cx="-9.1525424"
     inkscape:cy="24"
     inkscape:window-x="0"
     inkscape:window-y="0"
     inkscape:window-maximized="1"
     inkscape:current-layer="svg2" />
  <defs
     id="defs4">
    <linearGradient
       id="0"
       y1="28.942"
       x2="0"
       y2=".942"
       gradientUnits="userSpaceOnUse"
       gradientTransform="matrix(1.71427,0,0,1.71427,-14.251,-1.598)">
      <stop
         stop-color="#15a802"
         id="stop7" />
      <stop
         offset="1"
         stop-color="#80e950"
         id="stop9" />
    </linearGradient>
  </defs>
  <path
     style="fill:#37c837;fill-opacity:0.85100002"
     inkscape:connector-curvature="0"
     id="path15"
     d="m 29.550883,46.469577 q -2.202592,1.289131 -5.561674,1.289131 -3.359085,0 -5.677326,-1.289131 -2.202591,-1.289132 -2.202591,-3.091503 0,-1.805388 2.202591,-3.091501 2.318241,-1.289131 5.677326,-1.289131 3.359082,0 5.561674,1.289131 2.31824,1.289131 2.31824,3.091501 0,1.80539 -2.31824,3.091503 m -0.115643,-13.401541 -10.89205,0 0,-3.019045 q 0,-2.898281 2.202591,-4.960289 2.202591,-2.125407 7.764268,-4.960291 3.127787,-1.612169 4.405183,-2.385044 1.387789,-0.836277 2.665188,-2.255228 1.38779,-1.482349 1.38779,-3.019044 0,-2.9647018 -3.474732,-4.7670712 -3.359085,-1.8053896 -9.383356,-1.8053896 -9.961603,0 -13.672889,6.1860238 L 0.47563471,9.7640306 Q 2.9095247,6.0928728 8.8181493,3.19157 14.84242,0.22686832 24.110126,0.22686832 q 10.566134,0 17.147624,3.47793948 6.602518,3.4145406 6.602518,8.7612682 0,2.318626 -2.202591,4.703673 -2.202592,2.385044 -3.937332,3.414539 -1.624345,0.966093 -4.636481,2.511845 -0.346949,0.193218 -0.578245,0.323037 -7.065115,3.544358 -7.065115,7.088717 l 0,2.578265" />
</svg>
