<?xml version="1.0" encoding="UTF-8" standalone="no"?>
<svg
   xmlns:dc="http://purl.org/dc/elements/1.1/"
   xmlns:cc="http://creativecommons.org/ns#"
   xmlns:rdf="http://www.w3.org/1999/02/22-rdf-syntax-ns#"
   xmlns:svg="http://www.w3.org/2000/svg"
   xmlns="http://www.w3.org/2000/svg"
   xmlns:sodipodi="http://sodipodi.sourceforge.net/DTD/sodipodi-0.dtd"
   xmlns:inkscape="http://www.inkscape.org/namespaces/inkscape"
   viewBox="0 0 48 48"
   id="svg2"
   version="1.1"
   inkscape:version="0.91 r13725"
   sodipodi:docname="atomix-icon.svg">
  <metadata
     id="metadata24">
    <rdf:RDF>
      <cc:Work
         rdf:about="">
        <dc:format>image/svg+xml</dc:format>
        <dc:type
           rdf:resource="http://purl.org/dc/dcmitype/StillImage" />
        <dc:title></dc:title>
      </cc:Work>
    </rdf:RDF>
  </metadata>
  <sodipodi:namedview
     pagecolor="#ffffff"
     bordercolor="#666666"
     borderopacity="1"
     objecttolerance="10"
     gridtolerance="10"
     guidetolerance="10"
     inkscape:pageopacity="0"
     inkscape:pageshadow="2"
     inkscape:window-width="1280"
     inkscape:window-height="694"
     id="namedview22"
     showgrid="false"
     inkscape:zoom="4.9166667"
     inkscape:cx="-9.1525424"
     inkscape:cy="24"
     inkscape:window-x="0"
     inkscape:window-y="0"
     inkscape:window-maximized="1"
     inkscape:current-layer="svg2" />
  <defs
     id="defs4">
    <linearGradient
       id="0"
       gradientUnits="userSpaceOnUse"
       y1="46.601"
       x2="0"
       y2="28.27"
       gradientTransform="matrix(2.9381062,0,0,2.964298,-282.78983,-58.836991)">
      <stop
         stop-color="#981fe7"
         id="stop7" />
      <stop
         offset="1"
         stop-color="#db50c8"
         id="stop9" />
    </linearGradient>
    <linearGradient
       gradientTransform="matrix(1.3221109,0,0,1.6256059,-503.98949,-888.53533)"
       gradientUnits="userSpaceOnUse"
       y2="544.99"
       x2="0"
       y1="518.34"
       id="1">
      <stop
         stop-color="#db50c8"
         id="stop12" />
      <stop
         offset="1"
         stop-color="#981fe7"
         id="stop14" />
    </linearGradient>
  </defs>
  <path
     inkscape:connector-curvature="0"
     style="fill:#dd55ff;stroke:none;stroke-width:2.26762533"
     id="path20"
     d="M 24.104811,0.12811495 A 23.578256,23.883338 0 0 0 0.52641351,24.011601 23.578256,23.883338 0 0 0 24.104811,47.895086 23.578256,23.883338 0 0 0 47.683209,24.011601 23.578256,23.883338 0 0 0 24.104811,0.12811495 M 35.787672,8.2275303 c 0.678702,-0.048338 1.378612,0.1002576 2.011359,0.4690642 1.689685,0.9864675 2.267642,3.1724505 1.292008,4.8857875 -0.816562,1.434048 -2.463828,2.064242 -3.971465,1.652467 l -5.302357,6.867676 c 0.889029,1.093885 1.424566,2.492126 1.424566,4.021061 0,1.421515 -0.468374,2.732031 -1.251356,3.788321 l 2.271176,2.676531 c 1.399823,-0.458323 2.986995,-0.0053 3.91314,1.256806 1.161215,1.584435 0.837772,3.824127 -0.726423,5.002159 -1.564195,1.178032 -3.775279,0.84503 -4.938261,-0.737613 -0.825401,-1.126113 -0.887262,-2.574483 -0.302236,-3.745354 l -2.260571,-2.663998 c -0.880191,0.479807 -1.882336,0.750145 -2.949879,0.750145 -2.255268,0 -4.22421,-1.215628 -5.320029,-3.029225 l -4.1217,1.434048 c -0.07599,1.274709 -0.809494,2.468853 -2.036105,3.039966 -1.767453,0.823548 -3.8671859,0.03581 -4.6802139,-1.758096 -0.8130281,-1.790322 -0.033581,-3.917225 1.7374059,-4.740772 1.440474,-0.66958 3.084205,-0.259596 4.088117,0.877258 l 4.132304,-1.437628 c -0.02651,-0.234533 -0.04242,-0.469064 -0.04242,-0.708967 0,-2.339951 1.256659,-4.377337 3.121321,-5.473014 l -1.217777,-3.906481 c -1.428102,-0.130695 -2.693597,-1.127904 -3.091275,-2.61029 -0.510793,-1.904902 0.599167,-3.870675 2.481503,-4.3880785 1.88057,-0.5191931 3.821233,0.6051285 4.332026,2.5118205 0.372932,1.389291 -0.121954,2.801854 -1.143541,3.671951 l 1.216007,3.89574 c 0.18028,-0.01611 0.362329,-0.02865 0.54791,-0.02865 0.963262,0 1.873499,0.227372 2.688295,0.624823 l 5.300589,-6.856931 c -0.600932,-1.067032 -0.655724,-2.413353 -0.0053,-3.553788 0.608003,-1.0688228 1.67908,-1.6990161 2.808482,-1.7813708 z" />
</svg>
