<?xml version="1.0" encoding="UTF-8" standalone="no"?>
<!-- Generator: Adobe Illustrator 18.0.0, SVG Export Plug-In . SVG Version: 6.00 Build 0)  -->

<svg
   xmlns:dc="http://purl.org/dc/elements/1.1/"
   xmlns:cc="http://creativecommons.org/ns#"
   xmlns:rdf="http://www.w3.org/1999/02/22-rdf-syntax-ns#"
   xmlns:svg="http://www.w3.org/2000/svg"
   xmlns="http://www.w3.org/2000/svg"
   xmlns:sodipodi="http://sodipodi.sourceforge.net/DTD/sodipodi-0.dtd"
   xmlns:inkscape="http://www.inkscape.org/namespaces/inkscape"
   version="1.1"
   id="Capa_1"
   x="0px"
   y="0px"
   viewBox="0 0 46 46"
   style="enable-background:new 0 0 46 46;"
   xml:space="preserve"
   inkscape:version="0.91 r13725"
   sodipodi:docname="DeSmuME.svg"><metadata
     id="metadata59"><rdf:RDF><cc:Work
         rdf:about=""><dc:format>image/svg+xml</dc:format><dc:type
           rdf:resource="http://purl.org/dc/dcmitype/StillImage" /><dc:title></dc:title></cc:Work></rdf:RDF></metadata><defs
     id="defs57" /><sodipodi:namedview
     pagecolor="#ffffff"
     bordercolor="#666666"
     borderopacity="1"
     objecttolerance="10"
     gridtolerance="10"
     guidetolerance="10"
     inkscape:pageopacity="0"
     inkscape:pageshadow="2"
     inkscape:window-width="1280"
     inkscape:window-height="694"
     id="namedview55"
     showgrid="false"
     inkscape:zoom="5.1304348"
     inkscape:cx="-8.7711864"
     inkscape:cy="23"
     inkscape:window-x="0"
     inkscape:window-y="0"
     inkscape:window-maximized="1"
     inkscape:current-layer="Capa_1" /><g
     id="g3"
     transform="matrix(1,0,0,1.054105,0,-1.2444063)"><path
       style="fill:#f2d5a5"
       d="M 41.183,32.615 C 40.53,32.615 40,32.086 40,31.432 l 0,0 c 0,-1.556 -1.261,-2.817 -2.817,-2.817 l -14.183,0 -14.183,0 C 7.261,28.615 6,29.877 6,31.433 l 0,0 c 0,0.653 -0.529,1.183 -1.183,1.183 l -2.492,0 C 2.115,33.284 2,33.861 2,34.615 l 0,0.36 c 0,5.302 4.338,9.64 9.64,9.64 l 22.705,0 c 5.302,0 9.64,-4.338 9.64,-9.64 l 0,-0.36 c 0,-0.755 -0.115,-1.331 -0.325,-2 l -2.477,0 z"
       id="path5"
       inkscape:connector-curvature="0" /><path
       style="fill:#ecf0f1"
       d="m 31.651,28.615 c 0.853,-1.472 1.349,-3.176 1.349,-5 0,-5.523 -4.477,-10 -10,-10 -5.523,0 -10,4.477 -10,10 0,1.824 0.496,3.528 1.349,5 l 8.651,0 8.651,0 z"
       id="path7"
       inkscape:connector-curvature="0" /><path
       style="fill:#ecf0f1"
       d="m 45.842,28.376 c -0.536,-7.369 -2.456,-12.784 -4.978,-16.76 -1.77,1.804 -2.864,4.273 -2.864,7 0,4.78 3.357,8.772 7.842,9.76 z"
       id="path9"
       inkscape:connector-curvature="0" /><path
       style="fill:#ecf0f1"
       d="M 36.825,6.734 C 34.303,4.406 31.324,2.846 28.188,2.028 28.069,2.539 28,3.069 28,3.615 c 0,3.866 3.134,7 7,7 1.559,0 2.994,-0.516 4.158,-1.378 C 38.405,8.31 37.625,7.473 36.825,6.734 Z"
       id="path11"
       inkscape:connector-curvature="0" /><path
       style="fill:#ecf0f1"
       d="m 7.248,8.745 c 1.249,1.158 2.915,1.871 4.752,1.871 3.866,0 7,-3.134 7,-7 C 19,2.991 18.91,2.388 18.756,1.811 15.275,2.545 11.948,4.175 9.175,6.735 8.519,7.341 7.874,8.013 7.248,8.745 Z"
       id="path13"
       inkscape:connector-curvature="0" /><path
       style="fill:#ecf0f1"
       d="M 8,18.615 C 8,15.888 6.906,13.419 5.136,11.615 2.615,15.591 0.694,21.006 0.158,28.375 4.643,27.388 8,23.396 8,18.615 Z"
       id="path15"
       inkscape:connector-curvature="0" /><path
       style="fill:#140100"
       d="m 17.5,36.615 0,0 c -1.381,0 -2.5,-1.119 -2.5,-2.5 l 0,-5.5 5,0 0,5.5 c 0,1.381 -1.119,2.5 -2.5,2.5 z"
       id="path17"
       inkscape:connector-curvature="0" /><path
       style="fill:#140100"
       d="m 28.5,36.615 0,0 c -1.381,0 -2.5,-1.119 -2.5,-2.5 l 0,-5.5 5,0 0,5.5 c 0,1.381 -1.119,2.5 -2.5,2.5 z"
       id="path19"
       inkscape:connector-curvature="0" /><g
       id="g21"><path
         style="fill:#bc1c05"
         d="m 38,18.615 c 0,-2.719 1.089,-5.181 2.85,-6.984 -0.542,-0.855 -1.102,-1.667 -1.692,-2.394 -1.163,0.862 -2.599,1.378 -4.158,1.378 -3.866,0 -7,-3.134 -7,-7 0,-0.54 0.068,-1.062 0.184,-1.567 C 25.1,1.244 21.871,1.171 18.76,1.828 18.911,2.399 19,2.996 19,3.615 c 0,3.866 -3.134,7 -7,7 -1.837,0 -3.503,-0.713 -4.752,-1.871 -0.737,0.861 -1.443,1.82 -2.11,2.873 C 6.906,13.422 8,15.89 8,18.615 8,23.393 4.646,27.383 0.166,28.373 0.062,29.721 0,31.126 0,32.615 l 4.817,0 C 5.471,32.615 6,32.086 6,31.433 6,29.877 7.261,28.616 8.817,28.616 l 5.531,0 c -0.853,-1.472 -1.349,-3.176 -1.349,-5 0,-5.523 4.477,-10 10,-10 5.523,0 10,4.477 10,10 0,1.824 -0.496,3.528 -1.349,5 l 5.531,0 c 1.556,0 2.817,1.261 2.817,2.817 0,0.653 0.529,1.183 1.183,1.183 l 4.819,0 C 46,31.128 45.939,29.722 45.836,28.375 41.355,27.384 38,23.395 38,18.615 Z"
         id="path23"
         inkscape:connector-curvature="0" /></g></g><g
     id="g25" /><g
     id="g27" /><g
     id="g29" /><g
     id="g31" /><g
     id="g33" /><g
     id="g35" /><g
     id="g37" /><g
     id="g39" /><g
     id="g41" /><g
     id="g43" /><g
     id="g45" /><g
     id="g47" /><g
     id="g49" /><g
     id="g51" /><g
     id="g53" /></svg>