<?xml version="1.0" encoding="UTF-8" standalone="no"?>
<svg
   xmlns:dc="http://purl.org/dc/elements/1.1/"
   xmlns:cc="http://creativecommons.org/ns#"
   xmlns:rdf="http://www.w3.org/1999/02/22-rdf-syntax-ns#"
   xmlns:svg="http://www.w3.org/2000/svg"
   xmlns="http://www.w3.org/2000/svg"
   xmlns:sodipodi="http://sodipodi.sourceforge.net/DTD/sodipodi-0.dtd"
   xmlns:inkscape="http://www.inkscape.org/namespaces/inkscape"
   viewBox="0 0 48 48"
   id="svg2"
   version="1.1"
   inkscape:version="0.91 r13725"
   sodipodi:docname="eagle.svg">
  <metadata
     id="metadata27">
    <rdf:RDF>
      <cc:Work
         rdf:about="">
        <dc:format>image/svg+xml</dc:format>
        <dc:type
           rdf:resource="http://purl.org/dc/dcmitype/StillImage" />
        <dc:title></dc:title>
      </cc:Work>
    </rdf:RDF>
  </metadata>
  <sodipodi:namedview
     pagecolor="#ffffff"
     bordercolor="#666666"
     borderopacity="1"
     objecttolerance="10"
     gridtolerance="10"
     guidetolerance="10"
     inkscape:pageopacity="0"
     inkscape:pageshadow="2"
     inkscape:window-width="1280"
     inkscape:window-height="694"
     id="namedview25"
     showgrid="false"
     inkscape:zoom="4.9166667"
     inkscape:cx="-9.1525424"
     inkscape:cy="24"
     inkscape:window-x="0"
     inkscape:window-y="0"
     inkscape:window-maximized="1"
     inkscape:current-layer="svg2" />
  <defs
     id="defs4">
    <filter
       color-interpolation-filters="sRGB"
       id="filter6">
      <feGaussianBlur
         stdDeviation="1.71"
         id="feGaussianBlur8" />
    </filter>
    <linearGradient
       gradientTransform="scale(1.0059.99417)"
       gradientUnits="userSpaceOnUse"
       y2="7.02"
       x2="0"
       y1="92.54"
       id="linearGradient10">
      <stop
         id="stop12" />
      <stop
         offset="1"
         stop-opacity=".588"
         id="stop14" />
    </linearGradient>
    <linearGradient
       gradientUnits="userSpaceOnUse"
       y2="-26.05"
       x2="-125.19"
       y1="73.5"
       x1="-123.97"
       id="0"
       gradientTransform="matrix(1.03458 0 0 1 4.382 0)">
      <stop
         stop-color="#c52828"
         id="stop17" />
      <stop
         offset="1"
         stop-color="#ff5454"
         id="stop19" />
    </linearGradient>
  </defs>
  <path
     d="M 1.7048835,0.6779661 C 0.41831458,5.2617425 -0.47309388,11.496908 3.6019162,16.427652 7.679552,21.35986 14.376274,22.48421 14.919784,24.585046 c 2.724112,-0.610487 6.041623,0.162504 6.041623,0.162504 0,0 -1.882592,-5.851598 -6.041623,-10.791126 C 10.760753,9.0198243 5.8612887,6.804796 1.6996322,0.6779661 M 46.989484,2.0848678 c 0,0 -13.860811,5.0742156 -18.067104,11.2054382 -4.207606,6.129757 -2.869836,9.934687 -5.78956,12.143859 -1.210425,0.916462 -3.951605,-0.221064 -6.189973,-0.111264 -1.794631,0.09077 -3.909594,0.546071 -5.07932,2.288229 -0.589459,0.876934 -0.513316,1.463997 -0.564515,2.133043 C 10.357716,31.751315 11.001,32.88884 11.001,32.88884 c 0,0 0.509377,-1.160949 1.339082,-1.100926 0.829706,0.05271 1.331205,0.11566 1.861587,0.04538 0.530381,-0.0732 0.870403,-0.715895 1.799884,-0.638303 1.020065,0.08053 2.284315,0.948671 2.325013,2.582492 0.06827,2.550283 -1.906223,4.435912 -1.751309,5.510487 0.168041,1.16095 -0.07483,1.532805 -0.228432,1.9925 -0.216616,0.654408 -3.669347,-1.496205 -4.505617,0.137616 0.283571,-0.06735 1.050261,-0.01318 1.503185,0.165432 -0.501499,0.250343 -0.743059,0.604631 -0.740434,1.074574 0.464741,-0.559248 1.390283,-0.354288 1.707987,-0.308903 -0.536946,0.163967 -0.773255,0.781774 -0.890096,1.008693 1.336457,-0.682222 3.359521,0.02635 3.822947,1.181447 0.51988,-0.932567 0.169356,-2.102301 0.169356,-2.102301 0,0 0.370216,-0.525575 1.113275,-0.551926 -0.221867,0.834477 0.06958,1.065789 0.09977,1.490348 0.02888,0.421631 -0.413539,1.463998 -0.825766,1.749478 -0.413541,0.272304 -2.502246,-0.02782 -3.023438,1.341022 0.312453,-0.225456 1.428354,-0.540215 1.707987,-0.414312 -0.333458,0.165432 -0.630157,0.477263 -0.666915,1.16095 0.593397,-0.746638 1.781503,-0.797878 2.023063,-0.660263 -0.148349,0.185928 -0.483119,0.291335 -0.59471,0.972095 0.724679,-0.456767 2.153034,-1.326383 3.900404,-0.518256 -0.112906,-1.181446 -1.374527,-1.490349 -1.374527,-1.490349 0,0 -0.168042,-1.824141 1.228804,-2.070092 0.824455,-0.147864 2.279065,-3.452107 2.984052,-3.65121 0.704988,-0.194713 0.891409,0.693935 0.769316,1.152166 -0.123406,0.456767 -1.622652,2.985091 -1.622652,2.985091 0,0 2.575763,2.538571 6.484044,2.708395 3.913533,0.174216 6.629769,-2.588348 6.629769,-2.588348 0,0 -3.065447,-2.709859 -5.687159,-5.030296 -2.621713,-2.323363 -2.030941,-5.88527 -2.030941,-5.88527 0,0 3.560381,0.0088 4.845638,-2.957275 3.167848,-7.287779 11.286359,-5.899909 13.615312,-16.724708 1.310199,-6.1268296 -0.0052,-11.376725 -0.0052,-11.376725"
     id="path23"
     style="fill:#ff5555;fill-opacity:0.83600003"
     inkscape:connector-curvature="0" />
</svg>
