<?xml version="1.0" encoding="UTF-8" standalone="no"?>
<!-- Generator: Adobe Illustrator 17.1.0, SVG Export Plug-In . SVG Version: 6.00 Build 0)  -->

<svg
   xmlns:dc="http://purl.org/dc/elements/1.1/"
   xmlns:cc="http://creativecommons.org/ns#"
   xmlns:rdf="http://www.w3.org/1999/02/22-rdf-syntax-ns#"
   xmlns:svg="http://www.w3.org/2000/svg"
   xmlns="http://www.w3.org/2000/svg"
   xmlns:sodipodi="http://sodipodi.sourceforge.net/DTD/sodipodi-0.dtd"
   xmlns:inkscape="http://www.inkscape.org/namespaces/inkscape"
   version="1.1"
   id="Capa_1"
   x="0px"
   y="0px"
   viewBox="0 0 246.527 246.527"
   style="enable-background:new 0 0 246.527 246.527;"
   xml:space="preserve"
   width="512px"
   height="512px"
   inkscape:version="0.91 r13725"
   sodipodi:docname="easyMP3Gain.svg"><metadata
     id="metadata91"><rdf:RDF><cc:Work
         rdf:about=""><dc:format>image/svg+xml</dc:format><dc:type
           rdf:resource="http://purl.org/dc/dcmitype/StillImage" /><dc:title></dc:title></cc:Work></rdf:RDF></metadata><defs
     id="defs89" /><sodipodi:namedview
     pagecolor="#ffffff"
     bordercolor="#666666"
     borderopacity="1"
     objecttolerance="10"
     gridtolerance="10"
     guidetolerance="10"
     inkscape:pageopacity="0"
     inkscape:pageshadow="2"
     inkscape:window-width="1280"
     inkscape:window-height="694"
     id="namedview87"
     showgrid="false"
     inkscape:zoom="0.4609375"
     inkscape:cx="-97.627119"
     inkscape:cy="256"
     inkscape:window-x="0"
     inkscape:window-y="0"
     inkscape:window-maximized="1"
     inkscape:current-layer="Capa_1" /><g
     id="g3"
     transform="matrix(1,0,0,1.2581146,0,-31.81611)"
     style="fill:#6f918a"><path
       d="m 49.055,154.906 -41.555,0 c -4.142,0 -7.5,3.357 -7.5,7.5 0,4.143 3.358,7.5 7.5,7.5 l 41.555,0 c 4.142,0 7.5,-3.357 7.5,-7.5 0,-4.143 -3.358,-7.5 -7.5,-7.5 z"
       id="path5"
       inkscape:connector-curvature="0"
       style="fill:#6f918a" /><path
       d="m 49.055,129.152 -41.555,0 c -4.142,0 -7.5,3.357 -7.5,7.5 0,4.143 3.358,7.5 7.5,7.5 l 41.555,0 c 4.142,0 7.5,-3.357 7.5,-7.5 0,-4.143 -3.358,-7.5 -7.5,-7.5 z"
       id="path7"
       inkscape:connector-curvature="0"
       style="fill:#6f918a" /><path
       d="m 49.055,103.397 -41.555,0 c -4.142,0 -7.5,3.357 -7.5,7.5 0,4.143 3.358,7.5 7.5,7.5 l 41.555,0 c 4.142,0 7.5,-3.357 7.5,-7.5 0,-4.143 -3.358,-7.5 -7.5,-7.5 z"
       id="path9"
       inkscape:connector-curvature="0"
       style="fill:#6f918a" /><path
       d="m 49.055,180.394 -41.555,0 c -4.142,0 -7.5,3.357 -7.5,7.5 0,4.143 3.358,7.5 7.5,7.5 l 41.555,0 c 4.142,0 7.5,-3.357 7.5,-7.5 0,-4.143 -3.358,-7.5 -7.5,-7.5 z"
       id="path11"
       inkscape:connector-curvature="0"
       style="fill:#6f918a" /><path
       d="m 112.379,154.906 -41.555,0 c -4.142,0 -7.5,3.357 -7.5,7.5 0,4.143 3.358,7.5 7.5,7.5 l 41.555,0 c 4.142,0 7.5,-3.357 7.5,-7.5 0,-4.143 -3.358,-7.5 -7.5,-7.5 z"
       id="path13"
       inkscape:connector-curvature="0"
       style="fill:#6f918a" /><path
       d="m 112.379,129.152 -41.555,0 c -4.142,0 -7.5,3.357 -7.5,7.5 0,4.143 3.358,7.5 7.5,7.5 l 41.555,0 c 4.142,0 7.5,-3.357 7.5,-7.5 0,-4.143 -3.358,-7.5 -7.5,-7.5 z"
       id="path15"
       inkscape:connector-curvature="0"
       style="fill:#6f918a" /><path
       d="m 112.379,77.644 -41.555,0 c -4.142,0 -7.5,3.357 -7.5,7.5 0,4.143 3.358,7.5 7.5,7.5 l 41.555,0 c 4.142,0 7.5,-3.357 7.5,-7.5 0,-4.142 -3.358,-7.5 -7.5,-7.5 z"
       id="path17"
       inkscape:connector-curvature="0"
       style="fill:#6f918a" /><path
       d="m 112.379,51.888 -41.555,0 c -4.142,0 -7.5,3.357 -7.5,7.5 0,4.143 3.358,7.5 7.5,7.5 l 41.555,0 c 4.142,0 7.5,-3.357 7.5,-7.5 0,-4.143 -3.358,-7.5 -7.5,-7.5 z"
       id="path19"
       inkscape:connector-curvature="0"
       style="fill:#6f918a" /><path
       d="m 112.379,26.134 -41.555,0 c -4.142,0 -7.5,3.357 -7.5,7.5 0,4.143 3.358,7.5 7.5,7.5 l 41.555,0 c 4.142,0 7.5,-3.357 7.5,-7.5 0,-4.143 -3.358,-7.5 -7.5,-7.5 z"
       id="path21"
       inkscape:connector-curvature="0"
       style="fill:#6f918a" /><path
       d="m 112.379,103.397 -41.555,0 c -4.142,0 -7.5,3.357 -7.5,7.5 0,4.143 3.358,7.5 7.5,7.5 l 41.555,0 c 4.142,0 7.5,-3.357 7.5,-7.5 0,-4.143 -3.358,-7.5 -7.5,-7.5 z"
       id="path23"
       inkscape:connector-curvature="0"
       style="fill:#6f918a" /><path
       d="m 112.379,180.394 -41.555,0 c -4.142,0 -7.5,3.357 -7.5,7.5 0,4.143 3.358,7.5 7.5,7.5 l 41.555,0 c 4.142,0 7.5,-3.357 7.5,-7.5 0,-4.143 -3.358,-7.5 -7.5,-7.5 z"
       id="path25"
       inkscape:connector-curvature="0"
       style="fill:#6f918a" /><path
       d="m 175.703,154.906 -41.553,0 c -4.142,0 -7.5,3.357 -7.5,7.5 0,4.143 3.358,7.5 7.5,7.5 l 41.554,0 c 4.142,0 7.5,-3.357 7.5,-7.5 -0.001,-4.143 -3.359,-7.5 -7.501,-7.5 z"
       id="path27"
       inkscape:connector-curvature="0"
       style="fill:#6f918a" /><path
       d="m 175.703,129.152 -41.553,0 c -4.142,0 -7.5,3.357 -7.5,7.5 0,4.143 3.358,7.5 7.5,7.5 l 41.554,0 c 4.142,0 7.5,-3.357 7.5,-7.5 -0.001,-4.143 -3.359,-7.5 -7.501,-7.5 z"
       id="path29"
       inkscape:connector-curvature="0"
       style="fill:#6f918a" /><path
       d="m 175.703,77.644 -41.553,0 c -4.142,0 -7.5,3.357 -7.5,7.5 0,4.143 3.358,7.5 7.5,7.5 l 41.554,0 c 4.142,0 7.5,-3.357 7.5,-7.5 -0.001,-4.142 -3.359,-7.5 -7.501,-7.5 z"
       id="path31"
       inkscape:connector-curvature="0"
       style="fill:#6f918a" /><path
       d="m 175.703,103.397 -41.553,0 c -4.142,0 -7.5,3.357 -7.5,7.5 0,4.143 3.358,7.5 7.5,7.5 l 41.554,0 c 4.142,0 7.5,-3.357 7.5,-7.5 -0.001,-4.143 -3.359,-7.5 -7.501,-7.5 z"
       id="path33"
       inkscape:connector-curvature="0"
       style="fill:#6f918a" /><path
       d="m 175.703,180.394 -41.553,0 c -4.142,0 -7.5,3.357 -7.5,7.5 0,4.143 3.358,7.5 7.5,7.5 l 41.554,0 c 4.142,0 7.5,-3.357 7.5,-7.5 -0.001,-4.143 -3.359,-7.5 -7.501,-7.5 z"
       id="path35"
       inkscape:connector-curvature="0"
       style="fill:#6f918a" /><path
       d="m 239.027,154.906 -41.554,0 c -4.142,0 -7.5,3.357 -7.5,7.5 0,4.143 3.358,7.5 7.5,7.5 l 41.554,0 c 4.142,0 7.5,-3.357 7.5,-7.5 0,-4.143 -3.358,-7.5 -7.5,-7.5 z"
       id="path37"
       inkscape:connector-curvature="0"
       style="fill:#6f918a" /><path
       d="m 239.027,180.394 -41.554,0 c -4.142,0 -7.5,3.357 -7.5,7.5 0,4.143 3.358,7.5 7.5,7.5 l 41.554,0 c 4.142,0 7.5,-3.357 7.5,-7.5 0,-4.143 -3.358,-7.5 -7.5,-7.5 z"
       id="path39"
       inkscape:connector-curvature="0"
       style="fill:#6f918a" /><path
       d="m 49.055,205.393 -41.555,0 c -4.142,0 -7.5,3.357 -7.5,7.5 0,4.143 3.358,7.5 7.5,7.5 l 41.555,0 c 4.142,0 7.5,-3.357 7.5,-7.5 0,-4.142 -3.358,-7.5 -7.5,-7.5 z"
       id="path41"
       inkscape:connector-curvature="0"
       style="fill:#6f918a" /><path
       d="m 112.379,205.393 -41.555,0 c -4.142,0 -7.5,3.357 -7.5,7.5 0,4.143 3.358,7.5 7.5,7.5 l 41.555,0 c 4.142,0 7.5,-3.357 7.5,-7.5 0,-4.142 -3.358,-7.5 -7.5,-7.5 z"
       id="path43"
       inkscape:connector-curvature="0"
       style="fill:#6f918a" /><path
       d="m 175.703,205.393 -41.553,0 c -4.142,0 -7.5,3.357 -7.5,7.5 0,4.143 3.358,7.5 7.5,7.5 l 41.554,0 c 4.142,0 7.5,-3.357 7.5,-7.5 -0.001,-4.142 -3.359,-7.5 -7.501,-7.5 z"
       id="path45"
       inkscape:connector-curvature="0"
       style="fill:#6f918a" /><path
       d="m 239.027,205.393 -41.554,0 c -4.142,0 -7.5,3.357 -7.5,7.5 0,4.143 3.358,7.5 7.5,7.5 l 41.554,0 c 4.142,0 7.5,-3.357 7.5,-7.5 0,-4.142 -3.358,-7.5 -7.5,-7.5 z"
       id="path47"
       inkscape:connector-curvature="0"
       style="fill:#6f918a" /><path
       d="m 239.027,129.152 -41.554,0 c -4.142,0 -7.5,3.357 -7.5,7.5 0,4.143 3.358,7.5 7.5,7.5 l 41.554,0 c 4.142,0 7.5,-3.357 7.5,-7.5 0,-4.143 -3.358,-7.5 -7.5,-7.5 z"
       id="path49"
       inkscape:connector-curvature="0"
       style="fill:#6f918a" /><path
       d="m 239.027,77.644 -41.554,0 c -4.142,0 -7.5,3.357 -7.5,7.5 0,4.143 3.358,7.5 7.5,7.5 l 41.554,0 c 4.142,0 7.5,-3.357 7.5,-7.5 0,-4.142 -3.358,-7.5 -7.5,-7.5 z"
       id="path51"
       inkscape:connector-curvature="0"
       style="fill:#6f918a" /><path
       d="m 197.474,66.888 41.554,0 c 4.142,0 7.5,-3.357 7.5,-7.5 0,-4.143 -3.358,-7.5 -7.5,-7.5 l -41.554,0 c -4.142,0 -7.5,3.357 -7.5,7.5 0,4.143 3.358,7.5 7.5,7.5 z"
       id="path53"
       inkscape:connector-curvature="0"
       style="fill:#6f918a" /><path
       d="m 239.027,103.397 -41.554,0 c -4.142,0 -7.5,3.357 -7.5,7.5 0,4.143 3.358,7.5 7.5,7.5 l 41.554,0 c 4.142,0 7.5,-3.357 7.5,-7.5 0,-4.143 -3.358,-7.5 -7.5,-7.5 z"
       id="path55"
       inkscape:connector-curvature="0"
       style="fill:#6f918a" /></g><g
     id="g57" /><g
     id="g59" /><g
     id="g61" /><g
     id="g63" /><g
     id="g65" /><g
     id="g67" /><g
     id="g69" /><g
     id="g71" /><g
     id="g73" /><g
     id="g75" /><g
     id="g77" /><g
     id="g79" /><g
     id="g81" /><g
     id="g83" /><g
     id="g85" /></svg>