<?xml version="1.0" encoding="UTF-8" standalone="no"?>
<svg
   xmlns:dc="http://purl.org/dc/elements/1.1/"
   xmlns:cc="http://creativecommons.org/ns#"
   xmlns:rdf="http://www.w3.org/1999/02/22-rdf-syntax-ns#"
   xmlns:svg="http://www.w3.org/2000/svg"
   xmlns="http://www.w3.org/2000/svg"
   xmlns:xlink="http://www.w3.org/1999/xlink"
   xmlns:sodipodi="http://sodipodi.sourceforge.net/DTD/sodipodi-0.dtd"
   xmlns:inkscape="http://www.inkscape.org/namespaces/inkscape"
   viewBox="0 0 48 48"
   id="svg2"
   version="1.1"
   inkscape:version="0.91 r13725"
   sodipodi:docname="hp_logo.svg">
  <metadata
     id="metadata30">
    <rdf:RDF>
      <cc:Work
         rdf:about="">
        <dc:format>image/svg+xml</dc:format>
        <dc:type
           rdf:resource="http://purl.org/dc/dcmitype/StillImage" />
        <dc:title></dc:title>
      </cc:Work>
    </rdf:RDF>
  </metadata>
  <sodipodi:namedview
     pagecolor="#ffffff"
     bordercolor="#666666"
     borderopacity="1"
     objecttolerance="10"
     gridtolerance="10"
     guidetolerance="10"
     inkscape:pageopacity="0"
     inkscape:pageshadow="2"
     inkscape:window-width="1280"
     inkscape:window-height="694"
     id="namedview28"
     showgrid="false"
     inkscape:zoom="4.9166667"
     inkscape:cx="-9.1525424"
     inkscape:cy="24"
     inkscape:window-x="0"
     inkscape:window-y="0"
     inkscape:window-maximized="1"
     inkscape:current-layer="svg2" />
  <defs
     id="defs4">
    <linearGradient
       xlink:href="#1"
       id="3"
       x1="24.346"
       y1="18.218"
       x2="25.856"
       y2="6.763"
       gradientUnits="userSpaceOnUse" />
    <linearGradient
       xlink:href="#1"
       id="2"
       x1="16.488"
       y1="16.91"
       x2="17.759"
       y2="-.326"
       gradientUnits="userSpaceOnUse" />
    <linearGradient
       id="0"
       y1="543.8"
       x2="0"
       y2="503.8"
       gradientUnits="userSpaceOnUse"
       gradientTransform="matrix(1.15,0,0,1.15,-445.86,-578.37)">
      <stop
         stop-color="#030303"
         id="stop9" />
      <stop
         offset="1"
         stop-color="#383838"
         id="stop11" />
    </linearGradient>
    <linearGradient
       id="1">
      <stop
         stop-color="#197cf1"
         id="stop14" />
      <stop
         offset="1"
         stop-color="#20bcfa"
         id="stop16" />
    </linearGradient>
  </defs>
  <g
     style="fill:#2a7fff;fill-opacity:1"
     id="g22"
     transform="matrix(2.5436758,0,0,1.8330585,-29.135202,0.17316663)">
    <path
       inkscape:connector-curvature="0"
       style="fill:#2a7fff"
       id="path24"
       d="m 24.959,16.771 -1.405,0 2.641,-7.415 1.406,0 -2.642,7.415 m 3.531,-8.934 -4.555,0 -6.461,18.14 2.799,0 2.753,-7.731 2.8,0 c 0.619,0 1.399,-0.185 1.723,-1.108 0.322,-0.924 2.072,-5.767 2.557,-7.222 C 30.59,8.459 29.433,7.834 28.49,7.834" />
    <path
       inkscape:connector-curvature="0"
       style="fill:#2a7fff"
       id="path26"
       d="m 21.447,10.151 -2.757,7.732 -2.774,0 3.03,-8.508 -1.429,0 -3.03,8.508 -2.799,0 6.375,-17.873 2.799,0 -2.807,7.871 1.885,0 c 1.357,0 1.914,1.064 1.507,2.27" />
  </g>
</svg>
