<?xml version="1.0" encoding="UTF-8" standalone="no"?>
<svg
   xmlns:dc="http://purl.org/dc/elements/1.1/"
   xmlns:cc="http://creativecommons.org/ns#"
   xmlns:rdf="http://www.w3.org/1999/02/22-rdf-syntax-ns#"
   xmlns:svg="http://www.w3.org/2000/svg"
   xmlns="http://www.w3.org/2000/svg"
   xmlns:sodipodi="http://sodipodi.sourceforge.net/DTD/sodipodi-0.dtd"
   xmlns:inkscape="http://www.inkscape.org/namespaces/inkscape"
   viewBox="0 0 48 48"
   id="svg2"
   version="1.1"
   inkscape:version="0.91 r13725"
   sodipodi:docname="kipi-timeadjust.svg">
  <metadata
     id="metadata24">
    <rdf:RDF>
      <cc:Work
         rdf:about="">
        <dc:format>image/svg+xml</dc:format>
        <dc:type
           rdf:resource="http://purl.org/dc/dcmitype/StillImage" />
        <dc:title></dc:title>
      </cc:Work>
    </rdf:RDF>
  </metadata>
  <sodipodi:namedview
     pagecolor="#ffffff"
     bordercolor="#666666"
     borderopacity="1"
     objecttolerance="10"
     gridtolerance="10"
     guidetolerance="10"
     inkscape:pageopacity="0"
     inkscape:pageshadow="2"
     inkscape:window-width="1280"
     inkscape:window-height="694"
     id="namedview22"
     showgrid="false"
     inkscape:zoom="4.9166667"
     inkscape:cx="-9.1525424"
     inkscape:cy="24"
     inkscape:window-x="0"
     inkscape:window-y="0"
     inkscape:window-maximized="1"
     inkscape:current-layer="svg2" />
  <defs
     id="defs4">
    <linearGradient
       id="0"
       x1="-28.999"
       y1="514.82"
       x2="-15.58"
       y2="-56.05"
       gradientUnits="userSpaceOnUse"
       gradientTransform="matrix(0.07843067,0,0,0.07848117,34.44901,6.5271227)">
      <stop
         stop-color="#d3d3d3"
         id="stop7" />
      <stop
         offset="1"
         stop-color="#fcf9f9"
         id="stop9" />
    </linearGradient>
    <linearGradient
       y2="501.79"
       x2="0"
       y1="545.79"
       gradientUnits="userSpaceOnUse"
       id="1"
       gradientTransform="matrix(1.04348,0,0,1.04399,-402.34,-522.84)">
      <stop
         stop-color="#197cf1"
         id="stop12" />
      <stop
         offset="1"
         stop-color="#20bcfa"
         id="stop14" />
    </linearGradient>
  </defs>
  <path
     inkscape:connector-curvature="0"
     style="opacity:0.98999999;fill:#0066ff"
     id="path20"
     d="m 24.13831,-0.009808 c -3.254028,0 -6.348055,0.64509185 -9.31808,1.9202734 C 8.9201792,4.442826 4.5991422,8.7374374 2.0641202,14.650279 c -1.270011,2.962422 -1.887016,6.060863 -1.887016,9.315327 0,3.256463 0.616005,6.383909 1.887016,9.34733 2.535022,5.912842 6.857059,10.230457 12.7561098,12.763818 2.971025,1.275181 6.060052,1.920273 9.31808,1.920273 3.254028,0 6.369055,-0.652093 9.34208,-1.920273 5.949052,-2.539362 10.248089,-6.860977 12.77911,-12.763818 1.274011,-2.972423 1.918017,-6.090867 1.918017,-9.34733 0,-3.255464 -0.643006,-6.342903 -1.918017,-9.315327 C 43.728479,8.7464387 39.429442,4.4488268 33.48039,1.9104654 30.507365,0.6412847 27.393338,-0.009808 24.13831,-0.009808 m -0.420004,7.0009968 c 1.224011,0 2.22702,1.0001424 2.22702,2.2273171 l 0,15.2481711 8.641074,6.760963 c 1.000009,0.742105 1.15201,2.151306 0.410003,3.115443 -0.408003,0.557079 -1.079009,0.850121 -1.746015,0.850121 -0.482004,0 -0.961008,-0.184026 -1.369011,-0.480068 L 22.352295,27.29408 C 21.83329,26.886021 21.495287,26.250931 21.495287,25.545831 l 0,-16.3263249 c 0,-1.2241743 1.000009,-2.2273172 2.225019,-2.2273172 z" />
</svg>
