<?xml version="1.0" encoding="UTF-8" standalone="no"?>
<svg
   xmlns:dc="http://purl.org/dc/elements/1.1/"
   xmlns:cc="http://creativecommons.org/ns#"
   xmlns:rdf="http://www.w3.org/1999/02/22-rdf-syntax-ns#"
   xmlns:svg="http://www.w3.org/2000/svg"
   xmlns="http://www.w3.org/2000/svg"
   xmlns:sodipodi="http://sodipodi.sourceforge.net/DTD/sodipodi-0.dtd"
   xmlns:inkscape="http://www.inkscape.org/namespaces/inkscape"
   viewBox="0 0 48 48"
   id="svg2"
   version="1.1"
   inkscape:version="0.91 r13725"
   sodipodi:docname="ksudoku.svg">
  <metadata
     id="metadata29">
    <rdf:RDF>
      <cc:Work
         rdf:about="">
        <dc:format>image/svg+xml</dc:format>
        <dc:type
           rdf:resource="http://purl.org/dc/dcmitype/StillImage" />
        <dc:title></dc:title>
      </cc:Work>
    </rdf:RDF>
  </metadata>
  <sodipodi:namedview
     pagecolor="#ffffff"
     bordercolor="#666666"
     borderopacity="1"
     objecttolerance="10"
     gridtolerance="10"
     guidetolerance="10"
     inkscape:pageopacity="0"
     inkscape:pageshadow="2"
     inkscape:window-width="1280"
     inkscape:window-height="694"
     id="namedview27"
     showgrid="false"
     inkscape:zoom="4.9166667"
     inkscape:cx="-9.1525424"
     inkscape:cy="24"
     inkscape:window-x="0"
     inkscape:window-y="0"
     inkscape:window-maximized="1"
     inkscape:current-layer="svg2" />
  <defs
     id="defs4">
    <linearGradient
       gradientUnits="userSpaceOnUse"
       y2="-29.389"
       x2="-127.3"
       y1="69.3"
       x1="-126.09"
       id="0"
       gradientTransform="matrix(0.49863,0,0,0.48196,88.22,14.822)">
      <stop
         stop-color="#197cf1"
         id="stop7" />
      <stop
         offset="1"
         stop-color="#20bcfa"
         id="stop9" />
    </linearGradient>
  </defs>
  <path
     style="fill-opacity:1;fill:#162d50"
     inkscape:connector-curvature="0"
     id="path15"
     d="m 48.19345,1.0031306 0,18.9801954 c 0,0.55497 -0.451805,1.004775 -1.008992,1.004775 -0.5573,0 -1.008992,-0.449917 -1.008992,-1.004775 l 0,-2.642893 -13.379241,0 0,13.323314 2.83964,0 c 0.557301,0 1.008992,0.449916 1.008992,1.004774 0,0.55497 -0.451804,1.004776 -1.008992,1.004776 l -2.83964,0 0,13.323312 2.83964,0 c 0.557301,0 1.008992,0.449916 1.008992,1.004776 0,0.55497 -0.451804,1.004774 -1.008992,1.004774 l -3.827445,0 c -0.007,1.1e-5 -0.01424,2.24e-4 -0.02141,2.24e-4 -0.007,0 -0.01424,-1.2e-5 -0.02141,-2.24e-4 l -15.353503,0 c -0.01402,3.35e-4 -0.02848,3.35e-4 -0.04282,0 l -15.37256228,0 c -0.5571884,0 -1.00899258,-0.449916 -1.00899258,-1.004664 l -1.1226e-4,-15.265877 c -0.0014553,-0.02233 -0.0022868,-0.04466 -0.0022868,-0.06743 0,-0.02255 7.8479e-4,-0.04488 0.0022868,-0.06721 l -1.1227e-4,-15.217869 c -6.7254e-4,-0.01586 -1.1122e-4,-0.03159 -1.1122e-4,-0.04768 0,-0.01596 3.3575e-4,-0.03171 1.1122e-4,-0.04757 L -0.01262674,1.0030098 c 0,-0.26660018 0.10628027,-0.52214793 0.29552246,-0.71048732 0.18924217,-0.18856278 0.44586256,-0.29439903 0.71347012,-0.29439903 l 46.19168016,0 c 0.557188,0 1.008992,0.44991578 1.008992,1.00477475 m -32.812439,31.6705048 -13.3769984,0 0.00101,13.323314 13.3758782,0 0,-13.323314 z m 0,-15.332862 -13.3781201,0 8.971e-4,13.323313 13.377,0 z m 0,-15.3328629 -13.3792406,0 0.00101,13.3233129 13.3781204,0 0,-13.3233129 m 15.397227,30.6657249 -13.379242,0 0,13.323314 13.379242,0 z m 0,-15.332862 -13.379242,0 0,13.323313 13.379242,0 z m 0,-15.3328629 -13.379242,0 0,13.3233129 13.379242,0 z m 15.397227,0 -13.379242,0 0,13.3233129 13.379242,0 0,-13.3233129 z" />
  <path
     style="fill:#162d50"
     inkscape:connector-curvature="0"
     id="path17"
     d="m 0.19126784,47.000172 0,-18.980196 c 0,-0.55497 0.44989819,-1.004774 1.00473596,-1.004774 0.5549486,0 1.0047359,0.449916 1.0047359,1.004774 l 0,2.642893 13.3227993,0 0,-13.323314 -2.827662,0 c -0.554949,0 -1.004736,-0.449915 -1.004736,-1.004774 0,-0.55497 0.449898,-1.004775 1.004736,-1.004775 l 2.827662,0 0,-13.3233132 -2.827662,0 c -0.554949,0 -1.004736,-0.4499158 -1.004736,-1.0047748 0,-0.55497053 0.449898,-1.00477474 1.004736,-1.00477474 l 3.811298,0 c 0.007,-1.116e-5 0.01418,-2.2328e-4 0.02132,-2.2328e-4 0.007,0 0.01418,1.117e-5 0.02132,2.2328e-4 l 15.288733,0 c 0.01396,-3.3492e-4 0.02836,-3.3492e-4 0.04264,0 l 15.30771,0 c 0.554838,0 1.004736,0.44991579 1.004736,1.00466314 l 1.12e-4,15.2658776 c 0.0014,0.02233 0.0022,0.04465 0.0022,0.06744 0,0.02256 -7.81e-4,0.04488 -0.0022,0.06721 l 1.12e-4,15.217872 c 6.69e-4,0.01586 1.11e-4,0.03159 1.11e-4,0.04766 0,0.01596 -3.35e-4,0.0317 -1.11e-4,0.04756 l 1.11e-4,15.284858 c 0,0.266599 -0.105833,0.522148 -0.294276,0.710487 -0.188444,0.188562 -0.443982,0.294399 -0.710459,0.294399 l -45.9968145,0 c -0.55483664,0 -1.00473585,-0.449916 -1.00473585,-1.004775 M 32.861706,15.329888 l 13.320565,0 -10e-4,-13.323314 -13.319451,0 0,13.323314 z m 0,15.332863 13.321682,0 -8.94e-4,-13.323313 -13.320566,0 z m 0,15.332862 13.322799,0 -0.001,-13.323313 -13.321684,0 0,13.323313 M 17.52955,15.329888 l 13.322798,0 0,-13.323314 -13.322798,0 z m 0,15.332863 13.322798,0 0,-13.323313 -13.322798,0 z m 0,15.332862 13.322798,0 0,-13.323313 -13.322798,0 z m -15.3322716,0 13.3227986,0 0,-13.323313 -13.3227986,0 0,13.323313 z" />
  <g
     id="g4164"
     style="fill:#37abc8">
    <g
       transform="matrix(0.17116971,0,0,0.17116809,41.657931,11.241037)"
       id="g19"
       style="fill:#37abc8">
      <path
         d="m -183.23,17.241 -7.507,0 0,-46.51 -10.852,4.733 -2.856,-6.365 16.401,-7.67 4.814,0 0,55.812"
         id="path21"
         inkscape:connector-curvature="0"
         style="fill:#37abc8;fill-opacity:0.88899997" />
      <path
         d="m -106.01,82.24 q -6.528,0 -11.995,-5.304 -5.467,-5.385 -5.467,-12.974 0,-7.425 5.63,-13.06 5.712,-5.63 13.463,-5.63 8.323,0 13.708,5.712 5.467,5.63 5.467,12.974 0,7.589 -6.528,17.14 l -15.177,22.602 -6.04,-4.161 13.3,-18.441 -0.163,-0.163 q -2.04,1.306 -6.201,1.306 m 1.632,-29.701 q -4.733,0 -8.16,3.264 -3.345,3.264 -3.345,8.08 0,4.733 3.345,8.08 3.427,3.264 8.16,3.264 4.733,0 8.16,-3.264 3.427,-3.345 3.427,-8.08 0,-4.814 -3.427,-8.08 -3.345,-3.264 -8.16,-3.264"
         id="path23"
         inkscape:connector-curvature="0"
         style="fill:#37abc8" />
    </g>
    <path
       d="m 10.294104,43.98058 -1.2849699,0 0,-7.961015 -1.8573968,0.810174 -0.4886574,-1.089229 2.8072869,-1.312859 0.8242352,0 0,9.553411"
       id="path25"
       inkscape:connector-curvature="0"
       style="fill:#37abc8" />
  </g>
</svg>
