<?xml version="1.0" encoding="UTF-8" standalone="no"?>
<!-- Generator: Adobe Illustrator 18.0.0, SVG Export Plug-In . SVG Version: 6.00 Build 0)  -->

<svg
   xmlns:dc="http://purl.org/dc/elements/1.1/"
   xmlns:cc="http://creativecommons.org/ns#"
   xmlns:rdf="http://www.w3.org/1999/02/22-rdf-syntax-ns#"
   xmlns:svg="http://www.w3.org/2000/svg"
   xmlns="http://www.w3.org/2000/svg"
   xmlns:sodipodi="http://sodipodi.sourceforge.net/DTD/sodipodi-0.dtd"
   xmlns:inkscape="http://www.inkscape.org/namespaces/inkscape"
   version="1.1"
   id="Capa_1"
   x="0px"
   y="0px"
   viewBox="0 0 455.731 455.731"
   style="enable-background:new 0 0 455.731 455.731;"
   xml:space="preserve"
   inkscape:version="0.91 r13725"
   sodipodi:docname="line.svg"><metadata
     id="metadata53"><rdf:RDF><cc:Work
         rdf:about=""><dc:format>image/svg+xml</dc:format><dc:type
           rdf:resource="http://purl.org/dc/dcmitype/StillImage" /><dc:title></dc:title></cc:Work></rdf:RDF></metadata><defs
     id="defs51" /><sodipodi:namedview
     pagecolor="#ffffff"
     bordercolor="#666666"
     borderopacity="1"
     objecttolerance="10"
     gridtolerance="10"
     guidetolerance="10"
     inkscape:pageopacity="0"
     inkscape:pageshadow="2"
     inkscape:window-width="1280"
     inkscape:window-height="694"
     id="namedview49"
     showgrid="false"
     inkscape:zoom="0.51784936"
     inkscape:cx="-86.897858"
     inkscape:cy="227.86549"
     inkscape:window-x="0"
     inkscape:window-y="0"
     inkscape:window-maximized="1"
     inkscape:current-layer="Capa_1" /><g
     id="g4193"
     transform="matrix(1.3530161,0,0,1.4160218,-95.151272,-94.796821)"><path
       inkscape:connector-curvature="0"
       id="path9"
       d="m 404.85838,219.605 c 0.766,-4.035 1.145,-7.43 1.319,-10.093 0.288,-4.395 -0.04,-10.92 -0.157,-12.963 -4.048,-70.408 -77.096,-126.503 -166.616,-126.503 -92.118,0 -166.792999,59.397 -166.792999,132.667 0,67.346 63.087999,122.97 144.820999,131.526 4.997,0.523 8.6,5.034 8.046,10.027 l -3.48,31.322 c -0.79,7.11 6.562,12.283 13.005,9.173 69.054,-33.326 110.346,-67.611 135.004,-97.314 4.487,-5.405 19.118,-25.904 22.101,-31.288 6.332,-11.43 10.697,-23.704 12.75,-36.554 z"
       style="fill:#2aff2a" /><path
       inkscape:connector-curvature="0"
       id="path11"
       d="m 147.68938,229.588 0,-55.882 c 0,-4.712 -3.82,-8.532 -8.532,-8.532 l 0,0 c -4.712,0 -8.532,3.82 -8.532,8.532 l 0,64.414 c 0,4.712 3.82,8.532 8.532,8.532 l 34.127,0 c 4.712,0 8.532,-3.82 8.532,-8.532 l 0,0 c 0,-4.712 -3.82,-8.532 -8.532,-8.532 l -25.595,0 z"
       style="fill:#d5ffd5" /><path
       inkscape:connector-curvature="0"
       id="path13"
       d="m 200.31738,246.652 -3.73,0 c -3.682,0 -6.667,-2.985 -6.667,-6.667 l 0,-68.144 c 0,-3.682 2.985,-6.667 6.667,-6.667 l 3.73,0 c 3.682,0 6.667,2.985 6.667,6.667 l 0,68.144 c 0,3.682 -2.985,6.667 -6.667,6.667 z"
       style="fill:#d5ffd5" /><path
       inkscape:connector-curvature="0"
       id="path15"
       d="m 269.26438,173.706 0,39.351 c 0,0 -34.073,-44.443 -34.593,-45.027 -1.628,-1.827 -4.027,-2.951 -6.69,-2.85 -4.641,0.176 -8.2,4.232 -8.2,8.876 l 0,64.063 c 0,4.712 3.82,8.532 8.532,8.532 l 0,0 c 4.712,0 8.532,-3.82 8.532,-8.532 l 0,-39.112 c 0,0 34.591,44.83 35.099,45.312 1.509,1.428 3.536,2.312 5.773,2.332 4.738,0.043 8.611,-4.148 8.611,-8.886 l 0,-64.059 c 0,-4.712 -3.82,-8.532 -8.532,-8.532 l 0,0 c -4.712,0.001 -8.532,3.82 -8.532,8.532 z"
       style="fill:#d5ffd5" /><path
       inkscape:connector-curvature="0"
       id="path17"
       d="m 350.31538,173.706 0,0 c 0,-4.712 -3.82,-8.532 -8.532,-8.532 l -34.127,0 c -4.712,0 -8.532,3.82 -8.532,8.532 l 0,64.414 c 0,4.712 3.82,8.532 8.532,8.532 l 34.127,0 c 4.712,0 8.532,-3.82 8.532,-8.532 l 0,0 c 0,-4.712 -3.82,-8.532 -8.532,-8.532 l -25.595,0 0,-15.144 25.595,0 c 4.712,0 8.532,-3.82 8.532,-8.532 l 0,0 c 0,-4.712 -3.82,-8.532 -8.532,-8.532 l -25.595,0 0,-15.144 25.595,0 c 4.712,0.002 8.532,-3.818 8.532,-8.53 z"
       style="fill:#d5ffd5" /></g><g
     id="g19" /><g
     id="g21" /><g
     id="g23" /><g
     id="g25" /><g
     id="g27" /><g
     id="g29" /><g
     id="g31" /><g
     id="g33" /><g
     id="g35" /><g
     id="g37" /><g
     id="g39" /><g
     id="g41" /><g
     id="g43" /><g
     id="g45" /><g
     id="g47" /></svg>