<?xml version="1.0" encoding="UTF-8" standalone="no"?>
<svg
   xmlns:dc="http://purl.org/dc/elements/1.1/"
   xmlns:cc="http://creativecommons.org/ns#"
   xmlns:rdf="http://www.w3.org/1999/02/22-rdf-syntax-ns#"
   xmlns:svg="http://www.w3.org/2000/svg"
   xmlns="http://www.w3.org/2000/svg"
   xmlns:sodipodi="http://sodipodi.sourceforge.net/DTD/sodipodi-0.dtd"
   xmlns:inkscape="http://www.inkscape.org/namespaces/inkscape"
   viewBox="0 0 48 48"
   id="svg2"
   version="1.1"
   inkscape:version="0.91 r13725"
   sodipodi:docname="master-pdf-editor.svg">
  <metadata
     id="metadata19">
    <rdf:RDF>
      <cc:Work
         rdf:about="">
        <dc:format>image/svg+xml</dc:format>
        <dc:type
           rdf:resource="http://purl.org/dc/dcmitype/StillImage" />
        <dc:title></dc:title>
      </cc:Work>
    </rdf:RDF>
  </metadata>
  <sodipodi:namedview
     pagecolor="#ffffff"
     bordercolor="#666666"
     borderopacity="1"
     objecttolerance="10"
     gridtolerance="10"
     guidetolerance="10"
     inkscape:pageopacity="0"
     inkscape:pageshadow="2"
     inkscape:window-width="1280"
     inkscape:window-height="694"
     id="namedview17"
     showgrid="false"
     inkscape:zoom="4.9166667"
     inkscape:cx="-9.1525424"
     inkscape:cy="24"
     inkscape:window-x="0"
     inkscape:window-y="0"
     inkscape:window-maximized="1"
     inkscape:current-layer="svg2" />
  <defs
     id="defs4">
    <linearGradient
       id="0"
       gradientUnits="userSpaceOnUse"
       y1="47.37"
       x2="0"
       y2="-1.429"
       gradientTransform="matrix(0.99999,0,0,0.99999,-58.3698,0.88225)">
      <stop
         stop-color="#c52828"
         id="stop7" />
      <stop
         offset="1"
         stop-color="#ff5454"
         id="stop9" />
    </linearGradient>
  </defs>
  <path
     style="fill:#ff5555;fill-opacity:0.86299995"
     inkscape:connector-curvature="0"
     id="path15"
     d="m 47.089975,29.495413 c -0.950158,-0.947415 -3.056455,-1.450572 -6.262409,-1.492642 -2.171081,-0.03534 -4.782356,0.168281 -7.529844,0.558689 -1.230887,-0.718555 -2.498319,-1.501056 -3.493329,-2.443425 -2.67772,-2.532611 -4.911922,-6.047978 -6.305599,-9.915049 0.09136,-0.361802 0.167773,-0.678168 0.2392,-1.002949 0,0 1.508294,-8.6781915 1.109627,-11.6129931 C 24.7928,3.184856 24.759582,3.0670589 24.651609,2.7540585 L 24.52038,2.4141332 C 24.110084,1.4549383 23.306104,0.44021061 22.045317,0.49574302 l -0.739197,-0.0353391 -0.01994,0 c -1.406964,0 -2.551476,0.72865168 -2.853798,1.81742248 -0.915275,3.4160819 0.02824,8.5250576 1.73919,15.1435056 l -0.438536,1.078675 c -1.224242,3.023988 -2.759115,6.06817 -4.112925,8.755601 l -0.176077,0.350021 c -1.423577,2.823738 -2.715926,5.220042 -3.888673,7.25118 l -1.209294,0.647879 c -0.08804,0.04543 -2.1611135,1.157765 -2.6478207,1.45562 -4.1245528,2.495591 -6.8587516,5.32774 -7.31223581,7.574277 -0.14451909,0.716873 -0.0365385,1.63568 0.69766861,2.059746 l 1.1694272,0.59571 c 0.5083008,0.259152 1.0431798,0.388727 1.5913485,0.388727 2.9385154,0 6.3487892,-3.707205 11.0464282,-12.0135 5.425207,-1.788815 11.60124,-3.276409 17.014819,-4.095933 4.124552,2.352555 9.199266,3.986551 12.400238,3.986551 0.568101,0 1.05813,-0.05554 1.456799,-0.16155 0.614614,-0.164916 1.131221,-0.519986 1.446833,-1.001265 0.621258,-0.947417 0.747504,-2.251586 0.578069,-3.587728 -0.04983,-0.395458 -0.362124,-0.886836 -0.700991,-1.221712 z M 3.2099132,45.332231 C 3.7447923,43.848003 5.8660391,40.914884 9.0022273,38.311596 9.1999002,38.150045 9.6849459,37.688961 10.130125,37.261529 6.8510805,42.55898 4.6550838,44.670891 3.2115735,45.333915 M 21.782859,2.0085797 c 0.945177,0 1.481717,2.4114495 1.526567,4.6731316 0.04485,2.2616806 -0.476739,3.8468777 -1.124575,5.0214707 -0.536541,-1.7383312 -0.795675,-4.4779263 -0.795675,-6.270108 0,0 -0.03987,-3.4244943 0.393683,-3.4244943 M 16.243036,32.882887 c 0.657802,-1.193104 1.342181,-2.450154 2.041511,-3.784614 1.704308,-3.266313 2.782371,-5.822485 3.58303,-7.922616 1.594672,2.939848 3.581368,5.438804 5.916899,7.441334 0.290695,0.249056 0.599662,0.501474 0.92358,0.75053 -4.747472,0.952463 -8.852091,2.110228 -12.46502,3.515366 m 29.933325,-0.269248 c -0.289035,0.181743 -1.117931,0.291125 -1.65115,0.291125 -1.719255,0 -3.847147,-0.795964 -6.830513,-2.09172 1.146171,-0.0875 2.197658,-0.129577 3.139511,-0.129577 1.72424,0 2.235864,0 3.921898,0.427432 1.686033,0.435844 1.707628,1.320996 1.418592,1.504421 z" />
</svg>
