<?xml version="1.0" encoding="UTF-8" standalone="no"?>
<svg
   xmlns:dc="http://purl.org/dc/elements/1.1/"
   xmlns:cc="http://creativecommons.org/ns#"
   xmlns:rdf="http://www.w3.org/1999/02/22-rdf-syntax-ns#"
   xmlns:svg="http://www.w3.org/2000/svg"
   xmlns="http://www.w3.org/2000/svg"
   xmlns:xlink="http://www.w3.org/1999/xlink"
   xmlns:sodipodi="http://sodipodi.sourceforge.net/DTD/sodipodi-0.dtd"
   xmlns:inkscape="http://www.inkscape.org/namespaces/inkscape"
   width="48"
   viewBox="0 0 13.546667 13.546667"
   height="48"
   id="svg2"
   version="1.1"
   inkscape:version="0.91 r13725"
   sodipodi:docname="ms-onenote.svg">
  <metadata
     id="metadata46">
    <rdf:RDF>
      <cc:Work
         rdf:about="">
        <dc:format>image/svg+xml</dc:format>
        <dc:type
           rdf:resource="http://purl.org/dc/dcmitype/StillImage" />
        <dc:title></dc:title>
      </cc:Work>
    </rdf:RDF>
  </metadata>
  <sodipodi:namedview
     pagecolor="#ffffff"
     bordercolor="#666666"
     borderopacity="1"
     objecttolerance="10"
     gridtolerance="10"
     guidetolerance="10"
     inkscape:pageopacity="0"
     inkscape:pageshadow="2"
     inkscape:window-width="1280"
     inkscape:window-height="694"
     id="namedview44"
     showgrid="false"
     inkscape:zoom="4.9166667"
     inkscape:cx="20.644068"
     inkscape:cy="24"
     inkscape:window-x="0"
     inkscape:window-y="0"
     inkscape:window-maximized="1"
     inkscape:current-layer="svg2" />
  <defs
     id="defs4">
    <linearGradient
       xlink:href="#1"
       id="4"
       y1="32.738"
       x2="0"
       y2="-34.996"
       gradientUnits="userSpaceOnUse"
       gradientTransform="matrix(0.18741,0,0,0.18741,80.070699,6.4576135)" />
    <linearGradient
       id="5"
       x1="-79.5"
       y1="-61.978"
       x2="-68.03"
       y2="-89.27"
       gradientUnits="userSpaceOnUse"
       gradientTransform="matrix(0.18741,0,0,0.18741,18.276,21.01)">
      <stop
         stop-color="#f4aeec"
         id="stop8" />
      <stop
         offset="1"
         stop-color="#fffafe"
         id="stop10" />
    </linearGradient>
    <linearGradient
       id="3"
       gradientUnits="userSpaceOnUse"
       x1="-374.87"
       y1="22.837"
       x2="-375.63"
       y2="-17.662"
       gradientTransform="matrix(0.34822112,0,0,0.23778751,137.28526,6.3281828)">
      <stop
         stop-color="#29292b"
         id="stop13" />
      <stop
         offset="1"
         stop-color="#3f3f3f"
         id="stop15" />
    </linearGradient>
    <linearGradient
       id="1">
      <stop
         stop-color="#5e184a"
         id="stop18" />
      <stop
         offset="1"
         stop-color="#802f72"
         id="stop20" />
    </linearGradient>
    <linearGradient
       xlink:href="#1"
       id="0"
       x1="-101.12"
       y1="-143.71"
       x2="-103.68"
       y2="-290.88"
       gradientUnits="userSpaceOnUse"
       gradientTransform="matrix(0.05289085,0,0,0.05289085,18.390802,15.729095)" />
    <linearGradient
       id="2"
       gradientUnits="userSpaceOnUse"
       gradientTransform="matrix(0.33006433,0,0,0.23778584,151.92945,6.1932924)"
       y1="30.48"
       x2="0"
       y2="-25.964">
      <stop
         stop-color="#f7f7f7"
         id="stop24" />
      <stop
         offset="1"
         stop-color="#fcfdfc"
         id="stop26" />
    </linearGradient>
  </defs>
  <path
     inkscape:connector-curvature="0"
     style="color:#000000;isolation:auto;mix-blend-mode:normal;color-interpolation:sRGB;color-interpolation-filters:linearRGB;solid-color:#000000;solid-opacity:1;fill:#ffd5e5;fill-rule:evenodd;color-rendering:auto;image-rendering:auto;shape-rendering:auto"
     id="path36"
     isolation="auto"
     mix-blend-mode="normal"
     d="m 0.58423001,0.16561669 c -0.27222155,0 -0.49137473,0.14965172 -0.49137473,0.33554189 l 0,12.60496842 c 0,0.185891 0.21915318,0.335543 0.49137473,0.335543 l 10.66086799,0 c 0.272223,0 0.491375,-0.149652 0.491375,-0.335543 l 0,-8.5730962 c 0.03843,0.00657 0.07793,0.01114 0.119399,0.01114 l 1.045351,0 c 0.272221,0 0.491375,-0.1496517 0.491375,-0.335542 l 0,-2.8272765 c 0,-0.1858902 -0.219154,-0.3355419 -0.491375,-0.3355419 l -1.045351,0 c -0.04147,0 -0.08097,0.00457 -0.119399,0.01114 l 0,-0.55545604 c 0,-0.1858903 -0.219152,-0.33554202 -0.491375,-0.33554202 l -10.66086799,0" />
  <path
     inkscape:connector-curvature="0"
     style="color:#000000;isolation:auto;mix-blend-mode:normal;color-interpolation:sRGB;color-interpolation-filters:linearRGB;solid-color:#000000;solid-opacity:1;fill:#800066;fill-rule:evenodd;color-rendering:auto;image-rendering:auto;shape-rendering:auto"
     id="path38"
     isolation="auto"
     mix-blend-mode="normal"
     d="m 2.9067252,1.9234069 0,0.5649831 6.9922805,0 0,-0.5649831 -6.9922805,0 m 0,1.803856 0,0.5649832 6.9922805,0 0,-0.5649832 -6.9922805,0 m 0,1.8221657 0,0.5649832 6.9922805,0 0,-0.5649832 -6.9922805,0 m 0,1.7857842 0,0.5647454 6.9922805,0 0,-0.5647454 -6.9922805,0 m 0,1.7857844 0,0.564983 6.9922805,0 0,-0.564983 -6.9922805,0 m 0,1.8314398 0,0.564746 6.9922805,0 0,-0.564746 -6.9922805,0" />
  <path
     d="m 11.77841,6.9725897 c 0.570175,-0.021792 1.143529,-0.043812 1.719428,-0.061518 0,2.1933108 0,4.3886653 0,6.5819753 -0.619148,-0.01794 -1.232251,-0.04176 -1.845674,-0.0656 -1.140667,-1.519791 -2.3757796,-3.005985 -3.4789219,-4.539623 0.062969,1.470304 0.025758,2.942424 0.031476,4.4125 -0.5215214,-0.02384 -1.0373176,-0.04563 -1.555976,-0.06765 0.00859,-2.018517 0.00572,-4.0390791 0,-6.057597 0.5902084,-0.021792 1.1778728,-0.043812 1.7709439,-0.065605 1.1206331,1.4224059 2.2581191,2.8391365 3.3472691,4.27539 0.02289,-1.4703035 0,-2.9424235 0.01154,-4.4125003"
     id="path42"
     style="fill:#550044"
     inkscape:connector-curvature="0" />
</svg>
