<?xml version="1.0" encoding="UTF-8" standalone="no"?>
<svg
   xmlns:dc="http://purl.org/dc/elements/1.1/"
   xmlns:cc="http://creativecommons.org/ns#"
   xmlns:rdf="http://www.w3.org/1999/02/22-rdf-syntax-ns#"
   xmlns:svg="http://www.w3.org/2000/svg"
   xmlns="http://www.w3.org/2000/svg"
   xmlns:sodipodi="http://sodipodi.sourceforge.net/DTD/sodipodi-0.dtd"
   xmlns:inkscape="http://www.inkscape.org/namespaces/inkscape"
   viewBox="0 0 48 48"
   id="svg2"
   version="1.1"
   inkscape:version="0.91 r13725"
   sodipodi:docname="preferences-management-service.svg">
  <metadata
     id="metadata24">
    <rdf:RDF>
      <cc:Work
         rdf:about="">
        <dc:format>image/svg+xml</dc:format>
        <dc:type
           rdf:resource="http://purl.org/dc/dcmitype/StillImage" />
        <dc:title></dc:title>
      </cc:Work>
    </rdf:RDF>
  </metadata>
  <sodipodi:namedview
     pagecolor="#ffffff"
     bordercolor="#666666"
     borderopacity="1"
     objecttolerance="10"
     gridtolerance="10"
     guidetolerance="10"
     inkscape:pageopacity="0"
     inkscape:pageshadow="2"
     inkscape:window-width="1280"
     inkscape:window-height="694"
     id="namedview22"
     showgrid="false"
     inkscape:zoom="4.9166667"
     inkscape:cx="-9.1525424"
     inkscape:cy="24"
     inkscape:window-x="0"
     inkscape:window-y="0"
     inkscape:window-maximized="1"
     inkscape:current-layer="svg2" />
  <defs
     id="defs4">
    <linearGradient
       gradientTransform="matrix(1.77384,0,0,1.71427,42.461,39.376)"
       gradientUnits="userSpaceOnUse"
       y2="-22.851"
       x2="-11.233"
       y1="4.675"
       x1="-10.767"
       id="0">
      <stop
         stop-color="#b62b76"
         id="stop7" />
      <stop
         offset="1"
         stop-color="#e04d9d"
         id="stop9" />
    </linearGradient>
    <linearGradient
       gradientUnits="userSpaceOnUse"
       y2="-4.65"
       x2="0"
       y1="31.35"
       id="1"
       gradientTransform="translate(48.45,10.804)">
      <stop
         stop-color="#eec9dd"
         id="stop12" />
      <stop
         offset="1"
         stop-color="#fbf9fa"
         id="stop14" />
    </linearGradient>
  </defs>
  <path
     inkscape:connector-curvature="0"
     style="fill:#d400aa"
     id="path20"
     d="m 24.001,0.30508475 c -13.084859,0 -23.69491525,10.65559325 -23.69491525,23.79660925 0,13.14234 10.61005625,23.796611 23.69491525,23.796611 13.086175,0 23.694915,-10.655593 23.694915,-23.796611 0,-13.142338 -10.610056,-23.79660925 -23.694915,-23.79660925 m 0,4.46186445 c 10.636385,0 19.252119,8.6566778 19.252119,19.3347448 0,10.682034 -8.619684,19.334747 -19.252119,19.334747 -10.636384,0 -19.2521186,-8.656678 -19.2521186,-19.334747 0,-10.682033 8.6209996,-19.3347448 19.2521186,-19.3347448 m 0,4.4618644 c -8.178695,0 -14.8093216,6.6630504 -14.8093216,14.8728804 0,8.213798 6.6345766,14.872882 14.8093216,14.872882 8.178695,0 14.809322,-6.663051 14.809322,-14.872882 0,-8.213796 -6.634576,-14.8728804 -14.809322,-14.8728804" />
</svg>
