<?xml version="1.0" encoding="UTF-8" standalone="no"?>
<svg
   xmlns:dc="http://purl.org/dc/elements/1.1/"
   xmlns:cc="http://creativecommons.org/ns#"
   xmlns:rdf="http://www.w3.org/1999/02/22-rdf-syntax-ns#"
   xmlns:svg="http://www.w3.org/2000/svg"
   xmlns="http://www.w3.org/2000/svg"
   xmlns:sodipodi="http://sodipodi.sourceforge.net/DTD/sodipodi-0.dtd"
   xmlns:inkscape="http://www.inkscape.org/namespaces/inkscape"
   viewBox="0 0 48 48"
   id="svg2"
   version="1.1"
   inkscape:version="0.91 r13725"
   sodipodi:docname="python.svg">
  <metadata
     id="metadata38">
    <rdf:RDF>
      <cc:Work
         rdf:about="">
        <dc:format>image/svg+xml</dc:format>
        <dc:type
           rdf:resource="http://purl.org/dc/dcmitype/StillImage" />
        <dc:title></dc:title>
      </cc:Work>
    </rdf:RDF>
  </metadata>
  <sodipodi:namedview
     pagecolor="#ffffff"
     bordercolor="#666666"
     borderopacity="1"
     objecttolerance="10"
     gridtolerance="10"
     guidetolerance="10"
     inkscape:pageopacity="0"
     inkscape:pageshadow="2"
     inkscape:window-width="1280"
     inkscape:window-height="694"
     id="namedview36"
     showgrid="false"
     inkscape:zoom="4.9166667"
     inkscape:cx="-9.1525424"
     inkscape:cy="24"
     inkscape:window-x="0"
     inkscape:window-y="0"
     inkscape:window-maximized="1"
     inkscape:current-layer="svg2" />
  <defs
     id="defs4">
    <clipPath
       id="1">
      <path
         transform="matrix(15.33333 0 0 11.5 415-125.5)"
         d="m-24 13c0 1.105-.672 2-1.5 2-.828 0-1.5-.895-1.5-2 0-1.105.672-2 1.5-2 .828 0 1.5.895 1.5 2"
         fill="#1890d0"
         id="path7" />
    </clipPath>
    <linearGradient
       id="3"
       x1="8.154"
       y1="9.731"
       x2="8.368"
       y2="5.346"
       gradientUnits="userSpaceOnUse"
       gradientTransform="matrix(4.7233385,0,0,4.7233385,-8,-7.991)">
      <stop
         stop-color="#ffbc00"
         id="stop10" />
      <stop
         stop-color="#ffec00"
         offset="1"
         id="stop12" />
    </linearGradient>
    <linearGradient
       id="2"
       x1="6"
       y1="8.213"
       x2="5.986"
       y2="3.524"
       gradientUnits="userSpaceOnUse"
       gradientTransform="matrix(4.7233385,0,0,4.7233385,-8,-7.991)">
      <stop
         stop-color="#4965b6"
         id="stop15" />
      <stop
         offset="1"
         stop-color="#8d9dcc"
         id="stop17" />
    </linearGradient>
    <linearGradient
       gradientTransform="matrix(1.77384 0 0 1.71427 42.46 39.38)"
       gradientUnits="userSpaceOnUse"
       y2="-22.851"
       x2="-11.233"
       y1="4.675"
       x1="-10.767"
       id="0">
      <stop
         stop-color="#e1e1e1"
         id="stop20" />
      <stop
         stop-color="#f4f4ff"
         offset="1"
         id="stop22" />
    </linearGradient>
  </defs>
  <g
     id="g4175"
     transform="matrix(1.5649854,0,0,1.5583422,-13.453964,-13.400569)">
    <path
       d="m 23.811685,8.7060016 c -1.261132,0 -2.451413,0.1039134 -3.518887,0.2975703 -3.11268,0.5479073 -3.693651,1.6862321 -3.693651,3.7928411 l 0,2.782046 7.377855,0 0,0.925774 -10.145731,0 c -2.144396,0 -4.0242849,1.275302 -4.6241488,3.698375 -0.6612674,2.791493 -0.7085008,4.520234 0,7.420364 0.5242905,2.153843 1.7759748,3.707821 3.9203708,3.707821 l 2.177459,0 0,-3.707821 c 0,-2.394732 2.101886,-4.524958 4.619425,-4.524958 l 7.732105,0 c 2.035759,0 3.977051,-1.676785 3.977051,-3.712544 l 0,-6.593781 c 0,-1.979078 -1.988525,-3.4622067 -3.977051,-3.7928404 C 26.385904,8.7910217 25.068093,8.6965549 23.797515,8.7012783"
       id="path32"
       style="fill:#3771c8"
       inkscape:connector-curvature="0" />
    <path
       d="m 32.686838,16.504233 0,3.240211 c 0,2.512816 -2.153843,4.326578 -4.619425,4.326578 l -8.086356,0 c -2.031035,0 -3.703097,2.021589 -3.703097,4.010114 l 0,6.957478 c 0,1.979079 1.738188,3.14102 3.703097,3.70782 2.333329,0.670715 4.879209,0.802968 7.670702,0 1.842102,-0.547907 3.688927,-1.615381 3.688927,-3.70782 l 0,-2.791493 -7.368408,0 0,-0.916328 11.062059,0 c 2.139672,0 2.947363,-1.478405 3.698374,-3.707821 0.769904,-2.290819 0.722671,-4.473001 0,-7.420364 -0.529014,-2.097163 -1.539808,-3.698375 -3.698374,-3.698375"
       id="path34"
       style="fill:#ffcc00"
       inkscape:connector-curvature="0" />
  </g>
</svg>
