<?xml version="1.0" encoding="UTF-8" standalone="no"?>
<svg
   xmlns:dc="http://purl.org/dc/elements/1.1/"
   xmlns:cc="http://creativecommons.org/ns#"
   xmlns:rdf="http://www.w3.org/1999/02/22-rdf-syntax-ns#"
   xmlns:svg="http://www.w3.org/2000/svg"
   xmlns="http://www.w3.org/2000/svg"
   xmlns:sodipodi="http://sodipodi.sourceforge.net/DTD/sodipodi-0.dtd"
   xmlns:inkscape="http://www.inkscape.org/namespaces/inkscape"
   viewBox="0 0 48 48"
   id="svg2"
   version="1.1"
   inkscape:version="0.91 r13725"
   sodipodi:docname="qgis.svg">
  <metadata
     id="metadata28">
    <rdf:RDF>
      <cc:Work
         rdf:about="">
        <dc:format>image/svg+xml</dc:format>
        <dc:type
           rdf:resource="http://purl.org/dc/dcmitype/StillImage" />
        <dc:title></dc:title>
      </cc:Work>
    </rdf:RDF>
  </metadata>
  <sodipodi:namedview
     pagecolor="#ffffff"
     bordercolor="#666666"
     borderopacity="1"
     objecttolerance="10"
     gridtolerance="10"
     guidetolerance="10"
     inkscape:pageopacity="0"
     inkscape:pageshadow="2"
     inkscape:window-width="1280"
     inkscape:window-height="694"
     id="namedview26"
     showgrid="false"
     inkscape:zoom="4.9166667"
     inkscape:cx="-8.2664079"
     inkscape:cy="24"
     inkscape:window-x="0"
     inkscape:window-y="0"
     inkscape:window-maximized="1"
     inkscape:current-layer="svg2" />
  <defs
     id="defs4">
    <linearGradient
       id="0"
       x1="25.432"
       y1="48.41"
       x2="24.805"
       y2=".407"
       gradientUnits="userSpaceOnUse"
       gradientTransform="matrix(1.0078,0,0,1.0078,0,-0.376)">
      <stop
         stop-color="#566069"
         id="stop7" />
      <stop
         stop-color="#6c7884"
         offset="1"
         id="stop9" />
    </linearGradient>
    <linearGradient
       id="1"
       x1="12.864"
       y1="47.43"
       x2="12.465"
       y2="23.631"
       gradientUnits="userSpaceOnUse"
       gradientTransform="matrix(1.0078,0,0,1.0078,0,-0.376)">
      <stop
         stop-color="#54b60f"
         id="stop12" />
      <stop
         stop-color="#92dc41"
         offset="1"
         id="stop14" />
    </linearGradient>
  </defs>
  <g
     id="g3"
     transform="matrix(0.8176505,0,0,0.82115722,0.49152619,0.28813579)">
    <circle
       style="fill:#285680"
       cx="29"
       cy="29"
       r="29"
       id="circle5" />
    <g
       id="g7">
      <path
         inkscape:connector-curvature="0"
         style="fill:#24ae5f"
         d="m 29,0 c -4.03,0 -7.866,0.823 -11.353,2.308 -0.159,0.949 -0.952,2.57 -0.928,3.087 0.112,0.022 7.373,-7.4 6.472,-2.39 -0.581,3.225 -6.516,3.206 -6.261,6.453 6.236,2.445 8.411,-4.642 13.708,-4.613 1.767,0.01 6.292,-2.784 7.155,-2.215 3.496,2.303 -0.799,10.467 -3.474,7.75 -2.572,-2.572 -6.242,0.901 -6.077,4.912 1.337,0.06 1.908,-3.796 3.11,-2.51 1.324,1.417 0.846,4.27 -0.986,4.925 -1.844,0.659 -9.077,-4.89 -7.3,-0.684 1.954,4.668 -5.854,8.275 2.028,6.393 3.716,-0.891 2.481,1.937 4.234,3.286 2.088,1.603 1.164,-2.214 2.686,-1.633 2.215,0.857 -0.381,3.065 3.088,1.462 4.069,-1.856 2.54,1.038 3.786,2.93 2.336,3.532 8.077,6.922 11.086,2.254 0.709,-1.101 0.254,-9.807 4.72,-3.967 2.836,3.71 1.863,-4.383 2.247,-6.509 C 53.547,8.993 42.327,0 29,0 Z"
         id="path9" />
    </g>
    <path
       inkscape:connector-curvature="0"
       style="fill:#fac176"
       d="m 32.919,42.082 -5.348,-4.008 -3.585,0.141 -3.719,-1.17 -2.911,-2.007 -6.603,1.526 L 8.03,37.881 5,41.963 6.072,46.747 c 0.306,0.395 0.623,0.782 0.949,1.161 l 5.608,2.618 3.785,0.511 2.252,4.622 0.068,0.465 C 21.926,57.333 25.385,58 29,58 c 2.494,0 4.914,-0.315 7.224,-0.908 l 0.761,-4.544 3.459,-2.807 1.437,-4.481 -7.222,-0.03 -1.74,-3.148 z"
       id="path11" />
    <path
       inkscape:connector-curvature="0"
       style="fill:#88c057"
       d="m 0.375,33.647 c 0.138,-0.012 0.156,-0.024 0.168,-0.036 1.297,-1.296 2.377,-1.513 3.458,-3.458 1.081,-1.945 -0.216,-1.945 0,-5.187 0.216,-3.242 -0.216,-1.729 0,-5.187 C 4.079,18.535 3.948,17.851 2.436,17.362 0.873,20.926 0,24.86 0,29 c 0,1.582 0.131,3.133 0.375,4.647 z"
       id="path13" />
    <path
       inkscape:connector-curvature="0"
       style="fill:#fac176"
       d="M 30,53 C 28.917,52.917 24.917,51.667 24,50 23.083,48.333 21.083,45.5 21,46 20.943,46.34 11.889,43.257 5.669,41.062 L 5,41.963 6.072,46.747 c 0.306,0.395 0.623,0.782 0.949,1.161 l 5.608,2.618 3.785,0.511 2.252,4.622 0.068,0.465 C 21.926,57.333 25.385,58 29,58 c 2.494,0 4.914,-0.315 7.224,-0.908 l 0.577,-3.445 C 36.292,53.488 35.705,53.278 35,53 c -2.75,-1.083 -3.917,0.083 -5,0 z"
       id="path15" />
    <path
       inkscape:connector-curvature="0"
       style="fill:#88c057"
       d="m 40.444,49.741 1.437,-4.481 -7.222,-0.03 -1.741,-3.148 -5.348,-4.008 -3.585,0.141 -3.719,-1.17 -2.911,-2.007 -6.603,1.526 -2.722,1.317 -2.361,3.18 C 11.889,43.257 20.943,46.34 21,46 c 0.083,-0.5 2.083,2.333 3,4 0.917,1.667 4.917,2.917 6,3 1.083,0.083 2.25,-1.083 5,0 0.705,0.278 1.292,0.488 1.801,0.647 l 0.184,-1.099 3.459,-2.807 z"
       id="path17" />
    <path
       inkscape:connector-curvature="0"
       style="fill:#88c057"
       d="m 39.925,2.153 c -0.194,3.66 -0.337,6.305 -0.337,6.305 L 34,14.046 c 0,0 5.238,7.508 5.588,8.381 0.349,0.873 4.714,1.921 5.588,1.397 0.873,-0.524 4.191,-3.318 5.588,-1.397 0.972,1.337 0.847,2.504 1.445,3.325 0.412,0.006 0.927,0.283 1.569,0.93 0.908,0.272 1.943,0.539 2.865,0.762 0.306,-1.79 0.079,-4.983 0.299,-6.205 -2.41,-8.69 -8.77,-15.723 -17.017,-19.086 z"
       id="path19" />
    <path
       inkscape:connector-curvature="0"
       style="fill:#fac176"
       d="M 43.33,3.806 C 43.148,7.26 43,10 43,10 l -4,4 c 0,0 3.75,5.375 4,6 0.25,0.625 3.375,1.375 4,1 0.625,-0.375 3,-2.375 4,-1 1,1.375 0.375,2.5 2,3 1.373,0.423 3.267,0.842 3.825,0.962 0.008,-1.112 0.011,-2.141 0.116,-2.723 C 54.876,13.787 49.903,7.555 43.33,3.806 Z"
       id="path21" />
  </g>
  <path
     style="fill:#55ff55;fill-opacity:1"
     inkscape:connector-curvature="0"
     id="path24"
     d="M 46.768758,33.086149 24.433615,24.636655 c -0.502069,-0.189798 -1.080696,-0.09289 -1.474031,0.247037 -0.393334,0.339928 -0.527034,0.858608 -0.340076,1.32105 l 8.300508,20.579954 c 0.191396,0.474494 0.681814,0.796345 1.239917,0.81392 0.56032,0.01708 1.071819,-0.274655 1.297612,-0.736594 l 3.7952,-7.750561 c 0.146458,-0.299759 0.417743,-0.533742 0.753935,-0.653243 l 8.728236,-3.075421 c 0.520376,-0.183269 0.865445,-0.634163 0.872103,-1.139285 0.0072,-0.502109 -0.325096,-0.962543 -0.84048,-1.157363" />
</svg>
