<?xml version="1.0" encoding="UTF-8" standalone="no"?>
<svg
   xmlns:dc="http://purl.org/dc/elements/1.1/"
   xmlns:cc="http://creativecommons.org/ns#"
   xmlns:rdf="http://www.w3.org/1999/02/22-rdf-syntax-ns#"
   xmlns:svg="http://www.w3.org/2000/svg"
   xmlns="http://www.w3.org/2000/svg"
   xmlns:sodipodi="http://sodipodi.sourceforge.net/DTD/sodipodi-0.dtd"
   xmlns:inkscape="http://www.inkscape.org/namespaces/inkscape"
   class="nc-icon colored"
   x="0px"
   y="0px"
   width="48px"
   height="48px"
   viewBox="0 0 48 48"
   id="svg2"
   version="1.1"
   inkscape:version="0.91 r13725"
   sodipodi:docname="scribus.svg">
  <metadata
     id="metadata16">
    <rdf:RDF>
      <cc:Work
         rdf:about="">
        <dc:format>image/svg+xml</dc:format>
        <dc:type
           rdf:resource="http://purl.org/dc/dcmitype/StillImage" />
        <dc:title></dc:title>
      </cc:Work>
    </rdf:RDF>
  </metadata>
  <defs
     id="defs14" />
  <sodipodi:namedview
     pagecolor="#ffffff"
     bordercolor="#666666"
     borderopacity="1"
     objecttolerance="10"
     gridtolerance="10"
     guidetolerance="10"
     inkscape:pageopacity="0"
     inkscape:pageshadow="2"
     inkscape:window-width="1280"
     inkscape:window-height="694"
     id="namedview12"
     showgrid="false"
     inkscape:zoom="4.9166667"
     inkscape:cx="-9.1525424"
     inkscape:cy="24"
     inkscape:window-x="0"
     inkscape:window-y="0"
     inkscape:window-maximized="1"
     inkscape:current-layer="svg2" />
  <path
     style="fill:#ffd42a"
     inkscape:connector-curvature="0"
     id="path6"
     d="M 39.60087,22.171521 26.031882,8.6025231 C 25.708488,8.2791286 25.223397,8.1830149 24.801627,8.3560196 L 5.5788943,16.271268 c -0.3663626,0.15039 -0.6264349,0.48283 -0.6863646,0.87407 L 0.36953369,46.544833 c -0.054276,0.355055 0.0633219,0.716895 0.31774047,0.971314 0.21371156,0.213711 0.50205254,0.331309 0.79943954,0.331309 0.056537,0 0.1153364,-0.0045 0.1718738,-0.01357 L 31.058062,43.310888 c 0.391239,-0.05993 0.723679,-0.321133 0.874069,-0.686365 l 7.915243,-19.222747 c 0.174135,-0.4229 0.07689,-0.907992 -0.246504,-1.230255 z" />
  <path
     style="fill:#917c6f"
     inkscape:connector-curvature="0"
     id="path8"
     d="M 47.516113,19.910021 28.29338,0.68727449 c -0.442123,-0.44212317 -1.156756,-0.44212317 -1.598879,0 l -5.08837,5.08837411 c -0.442123,0.4421232 -0.442123,1.156757 0,1.5988802 L 40.828864,26.597275 c 0.220496,0.220497 0.509967,0.33131 0.799439,0.33131 0.289472,0 0.578944,-0.110813 0.79944,-0.33131 l 5.08837,-5.088374 c 0.442123,-0.442123 0.442123,-1.156757 0,-1.59888 z" />
  <path
     style="fill:#d4aa00"
     inkscape:connector-curvature="0"
     id="path10"
     d="m 20.514958,27.688449 c -1.76623,-1.766231 -4.630417,-1.766231 -6.396647,0 -1.488066,1.488067 -1.7063,3.750697 -0.686365,5.484136 L 0.68727416,45.917266 c -0.44212286,0.442124 -0.44212286,1.156758 0,1.598881 0.22049605,0.220496 0.50996784,0.331309 0.79943954,0.331309 0.2894717,0 0.5789435,-0.110813 0.7994395,-0.331309 L 15.031956,34.770335 c 1.733438,1.019936 3.994936,0.801702 5.484133,-0.686365 1.76623,-1.766231 1.76623,-4.62929 -0.0011,-6.395521 z" />
</svg>
