<?xml version="1.0" encoding="UTF-8" standalone="no"?>
<svg
   xmlns:dc="http://purl.org/dc/elements/1.1/"
   xmlns:cc="http://creativecommons.org/ns#"
   xmlns:rdf="http://www.w3.org/1999/02/22-rdf-syntax-ns#"
   xmlns:svg="http://www.w3.org/2000/svg"
   xmlns="http://www.w3.org/2000/svg"
   xmlns:xlink="http://www.w3.org/1999/xlink"
   xmlns:sodipodi="http://sodipodi.sourceforge.net/DTD/sodipodi-0.dtd"
   xmlns:inkscape="http://www.inkscape.org/namespaces/inkscape"
   viewBox="0 0 48 48"
   id="svg2"
   version="1.1"
   inkscape:version="0.91 r13725"
   sodipodi:docname="sparkleshare.svg">
  <metadata
     id="metadata25">
    <rdf:RDF>
      <cc:Work
         rdf:about="">
        <dc:format>image/svg+xml</dc:format>
        <dc:type
           rdf:resource="http://purl.org/dc/dcmitype/StillImage" />
        <dc:title></dc:title>
      </cc:Work>
    </rdf:RDF>
  </metadata>
  <sodipodi:namedview
     pagecolor="#ffffff"
     bordercolor="#666666"
     borderopacity="1"
     objecttolerance="10"
     gridtolerance="10"
     guidetolerance="10"
     inkscape:pageopacity="0"
     inkscape:pageshadow="2"
     inkscape:window-width="1280"
     inkscape:window-height="694"
     id="namedview23"
     showgrid="false"
     inkscape:zoom="4.9166667"
     inkscape:cx="-9.1525424"
     inkscape:cy="24"
     inkscape:window-x="0"
     inkscape:window-y="0"
     inkscape:window-maximized="1"
     inkscape:current-layer="svg2" />
  <defs
     id="defs4">
    <linearGradient
       gradientUnits="userSpaceOnUse"
       y2="227.95"
       x2="-424.98"
       y1="519.48"
       x1="-423.09"
       id="0"
       xlink:href="#2"
       gradientTransform="matrix(0.099,0,0,0.099,17.961,-9.608)" />
    <linearGradient
       y2="23.362"
       x2="-208.33"
       y1="315.36"
       x1="-206.67"
       gradientTransform="matrix(0.09878715,0,0,0.099,-3.71406,10.489)"
       gradientUnits="userSpaceOnUse"
       id="1"
       xlink:href="#2" />
    <linearGradient
       id="2">
      <stop
         stop-color="#f16419"
         id="stop9" />
      <stop
         offset="1"
         stop-color="#feb600"
         id="stop11" />
    </linearGradient>
  </defs>
  <path
     style="color:#000000;fill:#ff6600"
     inkscape:connector-curvature="0"
     id="path21"
     d="m 23.349529,0.16985789 c -2.26112,0.62469692 -4.230052,2.45416411 -4.731418,4.88773461 -1.016009,2.9587281 -1.866003,5.9758085 -2.842169,8.9482645 -3.715409,0.08581 -7.4507383,-0.181916 -11.1528662,0.154465 -3.9677506,0.913017 -5.8669579,6.984931 -2.5433451,9.76174 2.7027198,2.371787 5.6810237,4.386607 8.5099123,6.600503 -1.0359318,3.76191 -2.5035,7.420847 -3.2240043,11.2617 -0.2656228,4.438091 5.5681313,7.87049 8.9116673,4.788195 2.60643,-1.946169 5.199577,-3.909502 7.799369,-5.862536 3.101153,2.207033 5.983167,4.767602 9.250337,6.710339 3.708767,1.681875 8.450146,-2.207033 7.354448,-6.356801 -0.873237,-3.559397 -2.091785,-7.026121 -3.117755,-10.544328 2.971662,-2.354625 6.155823,-4.444957 8.968113,-7.002094 2.244518,-2.519381 1.411124,-6.645124 -1.198626,-8.508916 -2.340808,-1.592632 -5.229462,-0.840937 -7.862454,-1.009125 l -5.196261,0 C 31.052611,10.322893 30.053203,6.5541199 28.691881,2.9398043 28.260244,1.2922535 25.471196,0.15956105 23.346209,0.15956105 Z m 0.730466,9.88530711 c 0.999408,2.979322 1.577138,6.147426 2.875373,8.992884 1.786317,2.371789 4.847629,1.774551 7.394294,1.839766 l 4.77458,0 c -2.556626,1.983927 -5.269305,3.758476 -7.71636,5.889998 -0.265623,0.185347 -0.713863,2.124653 -0.484764,0.902718 -1.162102,2.035414 0.245703,4.24931 0.717185,6.288154 0.524606,1.7162 1.049212,3.4324 1.573819,5.152031 -2.503502,-1.781415 -4.771261,-3.995311 -7.437457,-5.478107 -1.909169,-0.593804 -4.030837,-0.123558 -5.451923,1.335202 -1.789637,1.379824 -3.579276,2.75965 -5.368913,4.142905 0.840033,-3.061699 2.04862,-6.047886 2.636312,-9.164503 0.06974,-2.021683 -1.065813,-3.864881 -2.782406,-4.771033 -1.92245,-1.43131 -3.844899,-2.862623 -5.767349,-4.297365 3.124397,-0.08238 6.275355,0.168191 9.386469,-0.140738 1.882606,-0.449644 3.077913,-2.200168 3.439825,-4.070825 0.740424,-2.20703 1.480849,-4.414063 2.221276,-6.624528" />
</svg>
