<?xml version="1.0" encoding="UTF-8" standalone="no"?>
<svg
   xmlns:dc="http://purl.org/dc/elements/1.1/"
   xmlns:cc="http://creativecommons.org/ns#"
   xmlns:rdf="http://www.w3.org/1999/02/22-rdf-syntax-ns#"
   xmlns:svg="http://www.w3.org/2000/svg"
   xmlns="http://www.w3.org/2000/svg"
   xmlns:sodipodi="http://sodipodi.sourceforge.net/DTD/sodipodi-0.dtd"
   xmlns:inkscape="http://www.inkscape.org/namespaces/inkscape"
   viewBox="0 0 48 48"
   id="svg2"
   version="1.1"
   inkscape:version="0.91 r13725"
   sodipodi:docname="spotify-client.svg">
  <metadata
     id="metadata24">
    <rdf:RDF>
      <cc:Work
         rdf:about="">
        <dc:format>image/svg+xml</dc:format>
        <dc:type
           rdf:resource="http://purl.org/dc/dcmitype/StillImage" />
        <dc:title></dc:title>
      </cc:Work>
    </rdf:RDF>
  </metadata>
  <sodipodi:namedview
     pagecolor="#ffffff"
     bordercolor="#666666"
     borderopacity="1"
     objecttolerance="10"
     gridtolerance="10"
     guidetolerance="10"
     inkscape:pageopacity="0"
     inkscape:pageshadow="2"
     inkscape:window-width="1280"
     inkscape:window-height="694"
     id="namedview22"
     showgrid="false"
     inkscape:zoom="4.9166667"
     inkscape:cx="-16.706831"
     inkscape:cy="24"
     inkscape:window-x="0"
     inkscape:window-y="0"
     inkscape:window-maximized="1"
     inkscape:current-layer="svg2" />
  <defs
     id="defs4">
    <linearGradient
       id="0"
       x1="51.56"
       y1="61.46"
       x2="51.988"
       y2="14.3"
       gradientUnits="userSpaceOnUse"
       gradientTransform="matrix(0.99999,0,0,0.99999,-28.371,-14.278)">
      <stop
         stop-color="#23cf5f"
         id="stop7" />
      <stop
         offset="1"
         stop-color="#60ff98"
         id="stop9" />
    </linearGradient>
    <linearGradient
       id="1"
       gradientUnits="userSpaceOnUse"
       x1="53.57"
       y1="62.47"
       x2="53.798"
       y2="13.896"
       gradientTransform="matrix(0.83333335,0,0,0.83333334,-19.641666,-7.8999992)">
      <stop
         stop-color="#2e3436"
         id="stop12" />
      <stop
         offset="1"
         stop-color="#555753"
         id="stop14" />
    </linearGradient>
  </defs>
  <path
     inkscape:connector-curvature="0"
     style="fill:#00ff66"
     id="path20"
     d="m 24.211866,0.21024698 c -13.254867,0 -23.99976007,10.74489302 -23.99976007,23.99976002 0,13.254868 10.74489307,23.99976 23.99976007,23.99976 13.254868,0 23.99976,-10.745892 23.99976,-23.99976 0,-13.254867 -10.744892,-23.99976002 -23.99976,-23.99976002 M 20.689901,12.736122 c 7.04993,0 14.461856,1.449985 19.877802,4.630954 0.729992,0.412995 1.236987,1.036989 1.236987,2.179978 0,1.307987 -1.051989,2.248977 -2.263977,2.248977 -0.488995,0 -0.778992,-0.118999 -1.236988,-0.369996 -4.343956,-2.604974 -11.089889,-4.03996 -17.604824,-4.03996 -3.253967,0 -6.559934,0.330997 -9.586904,1.152989 -0.348996,0.088 -0.788992,0.261997 -1.2309881,0.261997 -1.279987,0 -2.262977,-1.01299 -2.262977,-2.292977 0,-1.303987 0.807992,-2.035979 1.679983,-2.293977 3.4209661,-1.00999 7.2399281,-1.477985 11.3908861,-1.477985 m -0.488995,8.246917 c 6.281937,0 12.358877,1.564985 17.139829,4.423956 0.800992,0.458996 1.095989,1.04299 1.095989,1.896981 0,1.03899 -0.826992,1.878981 -1.870981,1.878981 -0.520995,0 -0.847992,-0.209997 -1.201988,-0.415995 C 31.458794,26.449985 26.047848,24.911 20.122907,24.911 c -3.03897,0 -5.661943,0.425996 -7.832922,0.99999 -0.467995,0.128999 -0.729992,0.266997 -1.167988,0.266997 -1.03199,0 -1.8749811,-0.840991 -1.8749811,-1.881981 0,-1.020989 0.494995,-1.722982 1.4929851,-1.99998 2.697973,-0.740992 5.452945,-1.312987 9.462905,-1.312987 m 0.328997,7.836922 c 5.251947,0 9.931901,1.204988 13.95986,3.618964 0.598994,0.349996 0.950991,0.707993 0.950991,1.594984 0,0.864991 -0.703993,1.500985 -1.492985,1.500985 -0.387996,0 -0.652994,-0.134999 -1.01599,-0.355997 -3.477965,-2.103978 -7.814922,-3.210967 -12.417876,-3.210967 -2.567974,0 -5.152948,0.328996 -7.569924,0.832991 -0.392996,0.085 -0.887991,0.236998 -1.182988,0.236998 -0.910991,0 -1.518985,-0.723993 -1.518985,-1.507985 0,-1.00999 0.581994,-1.510985 1.305987,-1.648984 2.96397,-0.675993 5.916941,-1.060989 8.98291,-1.060989" />
</svg>
