<?xml version="1.0" encoding="UTF-8" standalone="no"?>
<svg
   xmlns:dc="http://purl.org/dc/elements/1.1/"
   xmlns:cc="http://creativecommons.org/ns#"
   xmlns:rdf="http://www.w3.org/1999/02/22-rdf-syntax-ns#"
   xmlns:svg="http://www.w3.org/2000/svg"
   xmlns="http://www.w3.org/2000/svg"
   xmlns:sodipodi="http://sodipodi.sourceforge.net/DTD/sodipodi-0.dtd"
   xmlns:inkscape="http://www.inkscape.org/namespaces/inkscape"
   viewBox="0 0 48 48"
   id="svg2"
   version="1.1"
   inkscape:version="0.91 r13725"
   sodipodi:docname="eu.blumenstingl.martin.keystateplasmoid.svg">
  <metadata
     id="metadata19">
    <rdf:RDF>
      <cc:Work
         rdf:about="">
        <dc:format>image/svg+xml</dc:format>
        <dc:type
           rdf:resource="http://purl.org/dc/dcmitype/StillImage" />
        <dc:title></dc:title>
      </cc:Work>
    </rdf:RDF>
  </metadata>
  <sodipodi:namedview
     pagecolor="#696969"
     bordercolor="#666666"
     borderopacity="1"
     objecttolerance="10"
     gridtolerance="10"
     guidetolerance="10"
     inkscape:pageopacity="0"
     inkscape:pageshadow="2"
     inkscape:window-width="1280"
     inkscape:window-height="694"
     id="namedview17"
     showgrid="false"
     inkscape:zoom="4.9166667"
     inkscape:cx="-21.918585"
     inkscape:cy="24"
     inkscape:window-x="0"
     inkscape:window-y="0"
     inkscape:window-maximized="1"
     inkscape:current-layer="g11" />
  <defs
     id="defs4">
    <linearGradient
       gradientUnits="userSpaceOnUse"
       y2="-19.542"
       x2="0"
       y1="7.758"
       id="0-9">
      <stop
         stop-color="#dce2ff"
         id="stop4276" />
      <stop
         offset="1"
         stop-color="#f8feff"
         id="stop4278" />
    </linearGradient>
  </defs>
  <g
     transform="translate(-30.915-23.19)"
     id="g11">
    <g
       transform="translate(30.813304,23.495085)"
       id="g4192">
      <path
         d="m 34.411204,12.363301 c -0.569291,0 -1.030951,-0.469579 -1.030951,-1.048636 l 0,-6.2918205 c 0,-0.579057 0.46166,-1.0486367 1.030951,-1.0486367 0.569291,0 1.03095,0.4695797 1.03095,1.0486367 l 0,6.2918205 c 0,0.579057 -0.461659,1.048636 -1.03095,1.048636 z"
         id="path6"
         inkscape:connector-curvature="0"
         style="fill:#b7bec8" />
      <path
         d="m 28.225499,48.016949 c -3.979366,0 -7.216654,-3.292823 -7.216654,-7.340457 l 0,-4.194022 c 0,-0.579162 0.461659,-1.048637 1.03095,-1.048637 0.569291,0 1.030951,0.469475 1.030951,1.048637 l 0,4.194022 c 0,2.890884 2.312629,5.243184 5.154753,5.243184 2.842125,0 5.154754,-2.3523 5.154754,-5.243184 l 0,-4.194546 c 0,-0.579058 0.46166,-1.048637 1.030951,-1.048637 0.569291,0 1.03095,0.469579 1.03095,1.048637 l 0,4.194546 c 0,4.047634 -3.237289,7.340457 -7.216655,7.340457 z"
         id="path8-0"
         inkscape:connector-curvature="0"
         style="fill:#b7bec8" />
      <path
         d="m 22.039795,12.363301 c -0.569291,0 -1.03095,-0.469579 -1.03095,-1.048636 l 0,-4.1945471 c 0,-2.8908819 -2.312629,-5.2431835 -5.154754,-5.2431835 -2.842125,0 -5.154753,2.3523016 -5.154753,5.2431835 l 0,4.1945471 c 0,0.579057 -0.46166,1.048636 -1.0309511,1.048636 -0.5692913,0 -1.0309507,-0.469579 -1.0309507,-1.048636 l 0,-4.1945471 c 0,-4.0476328 3.2372878,-7.3404569 7.2166548,-7.3404569 3.979368,0 7.216655,3.2928241 7.216655,7.3404569 l 0,4.1945471 c 0,0.579057 -0.46166,1.048636 -1.030951,1.048636 z"
         id="path10"
         inkscape:connector-curvature="0"
         style="fill:#b7bec8" />
      <path
         d="m 46.782612,10.266028 -45.3618307,0 c -0.56929099,0 -1.03095071,0.46958 -1.03095071,1.048637 l 0,25.167281 c 0,0.579057 0.46165972,1.048636 1.03095071,1.048636 l 45.3618307,0 c 0.569291,0 1.030951,-0.469579 1.030951,-1.048636 l 0,-25.167281 c 0,-0.579057 -0.46166,-1.048637 -1.030951,-1.048637 z"
         id="path12"
         inkscape:connector-curvature="0"
         style="fill:#939dac" />
      <path
         d="m 7.6064855,18.655122 -3.0928521,0 c -0.5693941,0 -1.0309507,-0.469476 -1.0309507,-1.048637 l 0,-2.097273 c 0,-0.579163 0.4615566,-1.048637 1.0309507,-1.048637 l 3.0928521,0 c 0.5693946,0 1.0309507,0.469474 1.0309507,1.048637 l 0,2.097273 c 0,0.579161 -0.4615561,1.048637 -1.0309507,1.048637 z"
         id="path14"
         inkscape:connector-curvature="0"
         style="fill:#dbdee3" />
      <path
         d="m 14.82314,18.655122 -3.092852,0 c -0.569394,0 -1.03095,-0.469476 -1.03095,-1.048637 l 0,-2.097273 c 0,-0.579163 0.461556,-1.048637 1.03095,-1.048637 l 3.092852,0 c 0.569394,0 1.030951,0.469474 1.030951,1.048637 l 0,2.097273 c 0,0.579161 -0.461557,1.048637 -1.030951,1.048637 z"
         id="path16"
         inkscape:connector-curvature="0"
         style="fill:#dbdee3" />
      <path
         d="m 22.039795,18.655122 -3.092852,0 c -0.569394,0 -1.030951,-0.469476 -1.030951,-1.048637 l 0,-2.097273 c 0,-0.579163 0.461557,-1.048637 1.030951,-1.048637 l 3.092852,0 c 0.569393,0 1.030951,0.469474 1.030951,1.048637 l 0,2.097273 c 0,0.579161 -0.461558,1.048637 -1.030951,1.048637 z"
         id="path18"
         inkscape:connector-curvature="0"
         style="fill:#dbdee3" />
      <path
         d="m 29.25645,18.655122 -3.092852,0 c -0.569394,0 -1.030951,-0.469476 -1.030951,-1.048637 l 0,-2.097273 c 0,-0.579163 0.461557,-1.048637 1.030951,-1.048637 l 3.092852,0 c 0.569393,0 1.030951,0.469474 1.030951,1.048637 l 0,2.097273 c 0,0.579161 -0.461558,1.048637 -1.030951,1.048637 z"
         id="path20"
         inkscape:connector-curvature="0"
         style="fill:#dbdee3" />
      <path
         d="m 36.473105,18.655122 -3.092852,0 c -0.569393,0 -1.030951,-0.469476 -1.030951,-1.048637 l 0,-2.097273 c 0,-0.579163 0.461558,-1.048637 1.030951,-1.048637 l 3.092852,0 c 0.569393,0 1.030951,0.469474 1.030951,1.048637 l 0,2.097273 c 0,0.579161 -0.461558,1.048637 -1.030951,1.048637 z"
         id="path22"
         inkscape:connector-curvature="0"
         style="fill:#dbdee3" />
      <path
         d="m 43.68976,18.655122 -3.092852,0 c -0.569393,0 -1.030951,-0.469476 -1.030951,-1.048637 l 0,-2.097273 c 0,-0.579163 0.461558,-1.048637 1.030951,-1.048637 l 3.092852,0 c 0.569393,0 1.030951,0.469474 1.030951,1.048637 l 0,2.097273 c 0,0.579161 -0.461558,1.048637 -1.030951,1.048637 z"
         id="path24"
         inkscape:connector-curvature="0"
         style="fill:#dbdee3" />
      <path
         d="m 7.6064855,25.995579 -3.0928521,0 c -0.5693941,0 -1.0309507,-0.469476 -1.0309507,-1.048637 l 0,-2.097274 c 0,-0.579162 0.4615566,-1.048636 1.0309507,-1.048636 l 3.0928521,0 c 0.5693946,0 1.0309507,0.469474 1.0309507,1.048636 l 0,2.097274 c 0,0.579161 -0.4615561,1.048637 -1.0309507,1.048637 z"
         id="path26"
         inkscape:connector-curvature="0"
         style="fill:#dbdee3" />
      <path
         d="m 14.82314,25.995579 -3.092852,0 c -0.569394,0 -1.03095,-0.469476 -1.03095,-1.048637 l 0,-2.097274 c 0,-0.579162 0.461556,-1.048636 1.03095,-1.048636 l 3.092852,0 c 0.569394,0 1.030951,0.469474 1.030951,1.048636 l 0,2.097274 c 0,0.579161 -0.461557,1.048637 -1.030951,1.048637 z"
         id="path28"
         inkscape:connector-curvature="0"
         style="fill:#dbdee3" />
      <path
         d="m 22.039795,25.995579 -3.092852,0 c -0.569394,0 -1.030951,-0.469476 -1.030951,-1.048637 l 0,-2.097274 c 0,-0.579162 0.461557,-1.048636 1.030951,-1.048636 l 3.092852,0 c 0.569393,0 1.030951,0.469474 1.030951,1.048636 l 0,2.097274 c 0,0.579161 -0.461558,1.048637 -1.030951,1.048637 z"
         id="path30"
         inkscape:connector-curvature="0"
         style="fill:#dbdee3" />
      <path
         d="m 29.25645,25.995579 -3.092852,0 c -0.569394,0 -1.030951,-0.469476 -1.030951,-1.048637 l 0,-2.097274 c 0,-0.579162 0.461557,-1.048636 1.030951,-1.048636 l 3.092852,0 c 0.569393,0 1.030951,0.469474 1.030951,1.048636 l 0,2.097274 c 0,0.579161 -0.461558,1.048637 -1.030951,1.048637 z"
         id="path32"
         inkscape:connector-curvature="0"
         style="fill:#dbdee3" />
      <path
         d="m 43.68976,25.995579 -10.309507,0 c -0.569393,0 -1.030951,-0.469476 -1.030951,-1.048637 l 0,-2.097274 c 0,-0.579162 0.461558,-1.048636 1.030951,-1.048636 l 10.309507,0 c 0.569393,0 1.030951,0.469474 1.030951,1.048636 l 0,2.097274 c 0,0.579161 -0.461558,1.048637 -1.030951,1.048637 z"
         id="path34"
         inkscape:connector-curvature="0"
         style="fill:#dbdee3" />
      <path
         d="m 7.6064855,33.336035 -3.0928521,0 c -0.5693941,0 -1.0309507,-0.469475 -1.0309507,-1.048636 l 0,-2.097274 c 0,-0.579162 0.4615566,-1.048636 1.0309507,-1.048636 l 3.0928521,0 c 0.5693946,0 1.0309507,0.469474 1.0309507,1.048636 l 0,2.097274 c 0,0.579161 -0.4615561,1.048636 -1.0309507,1.048636 z"
         id="path36"
         inkscape:connector-curvature="0"
         style="fill:#dbdee3" />
      <path
         d="m 36.473105,33.336035 -24.742817,0 c -0.569394,0 -1.03095,-0.469475 -1.03095,-1.048636 l 0,-2.097274 c 0,-0.579162 0.461556,-1.048636 1.03095,-1.048636 l 24.742817,0 c 0.569393,0 1.030951,0.469474 1.030951,1.048636 l 0,2.097274 c 0,0.579161 -0.461558,1.048636 -1.030951,1.048636 z"
         id="path38"
         inkscape:connector-curvature="0"
         style="fill:#dbdee3" />
      <path
         d="m 43.68976,33.336035 -3.092852,0 c -0.569393,0 -1.030951,-0.469475 -1.030951,-1.048636 l 0,-2.097274 c 0,-0.579162 0.461558,-1.048636 1.030951,-1.048636 l 3.092852,0 c 0.569393,0 1.030951,0.469474 1.030951,1.048636 l 0,2.097274 c 0,0.579161 -0.461558,1.048636 -1.030951,1.048636 z"
         id="path40"
         inkscape:connector-curvature="0"
         style="fill:#dbdee3" />
    </g>
  </g>
</svg>
