<?xml version="1.0" encoding="UTF-8" standalone="no"?>
<svg
   xmlns:dc="http://purl.org/dc/elements/1.1/"
   xmlns:cc="http://creativecommons.org/ns#"
   xmlns:rdf="http://www.w3.org/1999/02/22-rdf-syntax-ns#"
   xmlns:svg="http://www.w3.org/2000/svg"
   xmlns="http://www.w3.org/2000/svg"
   xmlns:sodipodi="http://sodipodi.sourceforge.net/DTD/sodipodi-0.dtd"
   xmlns:inkscape="http://www.inkscape.org/namespaces/inkscape"
   viewBox="0 0 48 48"
   id="svg2"
   version="1.1"
   inkscape:version="0.91 r13725"
   sodipodi:docname="preferences-desktop-font.svg">
  <metadata
     id="metadata23">
    <rdf:RDF>
      <cc:Work
         rdf:about="">
        <dc:format>image/svg+xml</dc:format>
        <dc:type
           rdf:resource="http://purl.org/dc/dcmitype/StillImage" />
        <dc:title></dc:title>
      </cc:Work>
    </rdf:RDF>
  </metadata>
  <sodipodi:namedview
     pagecolor="#ffffff"
     bordercolor="#666666"
     borderopacity="1"
     objecttolerance="10"
     gridtolerance="10"
     guidetolerance="10"
     inkscape:pageopacity="0"
     inkscape:pageshadow="2"
     inkscape:window-width="1280"
     inkscape:window-height="694"
     id="namedview21"
     showgrid="false"
     inkscape:zoom="4.9166667"
     inkscape:cx="-9.1525424"
     inkscape:cy="24"
     inkscape:window-x="0"
     inkscape:window-y="0"
     inkscape:window-maximized="1"
     inkscape:current-layer="svg2" />
  <defs
     id="defs4">
    <linearGradient
       id="0"
       gradientUnits="userSpaceOnUse"
       y1="545.8"
       x2="0"
       y2="517.8"
       gradientTransform="matrix(1.71429,0,0,1.71429,-662.69,-887.65)">
      <stop
         stop-color="#d3d3d3"
         id="stop7" />
      <stop
         offset="1"
         stop-color="#fcf9f9"
         id="stop9" />
    </linearGradient>
  </defs>
  <g
     style="fill:#6f7c91"
     id="g15"
     transform="matrix(2.5452559,0,0,3.9214141,-995.02771,-2059.477)">
    <path
       inkscape:connector-curvature="0"
       id="path17"
       d="m 391.13,537.11 4.485,-11.894 1.728,0 4.485,11.894 -1.694,0 -1.146,-3.223 -5,0 -1.163,3.223 -1.694,0 m 3.372,-4.651 3.954,0 -1.944,-5.366 -0.066,0 -1.944,5.366"
       style="fill:#6f7c91" />
    <path
       inkscape:connector-curvature="0"
       id="path19"
       d="m 405.53,537.38 q -1.296,0 -2.176,-0.748 -0.864,-0.748 -0.864,-1.977 0,-1.329 1.03,-2.077 1.03,-0.764 2.542,-0.764 1.346,0 2.209,0.498 l 0,-0.233 q 0,-0.897 -0.615,-1.429 -0.615,-0.548 -1.512,-0.548 -0.664,0 -1.213,0.316 -0.532,0.316 -0.731,0.864 l -1.395,-0.598 q 0.282,-0.731 1.113,-1.346 0.831,-0.631 2.193,-0.631 1.562,0 2.591,0.914 1.03,0.914 1.03,2.575 l 0,4.917 -1.462,0 0,-1.13 -0.067,0 q -0.914,1.395 -2.675,1.395 m 0.249,-1.395 q 0.947,0 1.711,-0.698 0.781,-0.714 0.781,-1.678 -0.648,-0.532 -1.944,-0.532 -1.113,0 -1.678,0.482 -0.565,0.482 -0.565,1.13 0,0.598 0.515,0.947 0.515,0.349 1.179,0.349"
       style="fill:#6f7c91" />
  </g>
</svg>
