<?xml version="1.0" encoding="UTF-8" standalone="no"?>
<svg
   xmlns:dc="http://purl.org/dc/elements/1.1/"
   xmlns:cc="http://creativecommons.org/ns#"
   xmlns:rdf="http://www.w3.org/1999/02/22-rdf-syntax-ns#"
   xmlns:svg="http://www.w3.org/2000/svg"
   xmlns="http://www.w3.org/2000/svg"
   xmlns:xlink="http://www.w3.org/1999/xlink"
   xmlns:sodipodi="http://sodipodi.sourceforge.net/DTD/sodipodi-0.dtd"
   xmlns:inkscape="http://www.inkscape.org/namespaces/inkscape"
   viewBox="0 0 64 64"
   id="svg13202"
   version="1.1"
   inkscape:version="0.91 r13725"
   sodipodi:docname="folder-activities.svg">
  <metadata
     id="metadata13228">
    <rdf:RDF>
      <cc:Work
         rdf:about="">
        <dc:format>image/svg+xml</dc:format>
        <dc:type
           rdf:resource="http://purl.org/dc/dcmitype/StillImage" />
        <dc:title />
      </cc:Work>
    </rdf:RDF>
  </metadata>
  <sodipodi:namedview
     pagecolor="#ffffff"
     bordercolor="#666666"
     borderopacity="1"
     objecttolerance="10"
     gridtolerance="10"
     guidetolerance="10"
     inkscape:pageopacity="0"
     inkscape:pageshadow="2"
     inkscape:window-width="1280"
     inkscape:window-height="688"
     id="namedview13226"
     showgrid="false"
     inkscape:zoom="3.6875"
     inkscape:cx="-39.069203"
     inkscape:cy="32"
     inkscape:window-x="0"
     inkscape:window-y="0"
     inkscape:window-maximized="1"
     inkscape:current-layer="svg13202" />
  <defs
     id="defs13204">
    <linearGradient
       xlink:href="#1"
       id="3"
       x1="-19.915"
       y1="1048.7"
       x2="-19.996"
       y2="1025.51"
       gradientUnits="userSpaceOnUse"
       gradientTransform="translate(51.949,-1001.46)" />
    <linearGradient
       gradientUnits="userSpaceOnUse"
       y2="354.29"
       x2="-704.05"
       y1="647.77"
       x1="-701.19"
       id="2"
       gradientTransform="matrix(0.01590505,0,0,0.01845141,129.51168,-45.007092)">
      <stop
         stop-color="#93cfff"
         id="stop13208" />
      <stop
         offset="1"
         stop-color="#cde8fe"
         id="stop13210" />
    </linearGradient>
    <linearGradient
       xlink:href="#1"
       id="0"
       x1="59.12"
       y1="-13.295"
       x2="59.15"
       y2="-37.783"
       gradientUnits="userSpaceOnUse"
       gradientTransform="matrix(0.52660675,0,0,0.52570737,-19.441377,28.676662)" />
    <linearGradient
       id="1">
      <stop
         stop-color="#289bf7"
         id="stop13214" />
      <stop
         offset="1"
         stop-color="#71b9f1"
         id="stop13216" />
    </linearGradient>
  </defs>
  <path
     inkscape:connector-curvature="0"
     style="fill:#2a2aff"
     d="m 63.711866,18.416896 -63.42373076,0 0,-15.8193879 c 0,-1.2801423 1.00165756,-2.31785064 2.23732676,-2.31785064 l 58.949077,0 c 1.235669,0 2.237327,1.03770834 2.237327,2.31785064 l 0,15.8193879 z"
     id="path3" />
  <rect
     x="3.5686731"
     y="18.416897"
     style="fill:#2a2aff"
     width="56.862656"
     height="45.303448"
     id="rect5" />
  <path
     inkscape:connector-curvature="0"
     style="fill:#000055"
     d="m 41.841614,13.885419 -19.683227,0 c -2.415569,0 -4.37405,-2.028969 -4.37405,-4.531478 l 0,0 c 0,-2.5025085 1.958481,-4.5314774 4.37405,-4.5314774 l 19.683227,0 c 2.415569,0 4.37405,2.0289689 4.37405,4.5314774 l 0,0 c 0,2.502509 -1.958481,4.531478 -4.37405,4.531478 z"
     id="path7" />
  <rect
     x="3.5686731"
     y="58.055992"
     style="fill:#000055"
     width="56.862656"
     height="5.6643467"
     id="rect9" />
  <rect
     x="16.690825"
     y="27.468521"
     style="fill:#d5d5ff"
     width="30.618353"
     height="15.860171"
     id="rect11" />
  <path
     id="path15"
     d="m 21.064875,34.26574 6.561075,0 c 0.604713,0 1.093513,-0.506393 1.093513,-1.13287 0,-0.626477 -0.4888,-1.132869 -1.093513,-1.132869 l -6.561075,0 c -0.604713,0 -1.093513,0.506392 -1.093513,1.132869 0,0.626477 0.4888,1.13287 1.093513,1.13287 z"
     style="fill:#000055"
     inkscape:connector-curvature="0" />
  <path
     id="path17"
     d="m 32.000001,34.26574 c 0.284313,0 0.568626,-0.124616 0.776394,-0.328533 0.196832,-0.215245 0.317118,-0.509791 0.317118,-0.804337 0,-0.295679 -0.120286,-0.590225 -0.317118,-0.804337 -0.415535,-0.419162 -1.148189,-0.419162 -1.552788,0 -0.197926,0.214112 -0.317119,0.508658 -0.317119,0.804337 0,0.305875 0.119193,0.589092 0.317119,0.804337 0.206674,0.203917 0.480052,0.328533 0.776394,0.328533 z"
     style="fill:#000055"
     inkscape:connector-curvature="0" />
  <path
     id="path19"
     d="m 42.935127,36.531478 -17.496202,0 c -0.604712,0 -1.093513,0.506393 -1.093513,1.13287 0,0.626476 0.488801,1.132869 1.093513,1.132869 l 17.496202,0 c 0.604712,0 1.093512,-0.506393 1.093512,-1.132869 0,-0.626477 -0.4888,-1.13287 -1.093512,-1.13287 z"
     style="fill:#000055"
     inkscape:connector-curvature="0" />
  <path
     id="path21"
     d="m 20.288481,36.86001 c -0.197926,0.214113 -0.317119,0.508659 -0.317119,0.804338 0,0.294546 0.119193,0.589092 0.317119,0.804337 0.206674,0.203916 0.480052,0.328532 0.776394,0.328532 0.295248,0 0.568626,-0.124616 0.776394,-0.328532 0.196832,-0.215245 0.317118,-0.509791 0.317118,-0.804337 0,-0.295679 -0.120286,-0.590225 -0.317118,-0.804338 -0.4046,-0.419161 -1.137254,-0.419161 -1.552788,0 z"
     style="fill:#000055"
     inkscape:connector-curvature="0" />
  <rect
     x="3.5686731"
     y="18.405567"
     style="fill:#000055"
     width="56.862656"
     height="5.6643467"
     id="rect23" />
  <path
     inkscape:connector-curvature="0"
     style="color:#000000;fill:#ffffff"
     id="path24"
     d="M 50.389668,0.20418396 A 1.2711944,1.3322137 0 0 0 49.117924,1.5369794 1.2711944,1.3322137 0 0 0 50.389668,2.8683268 1.2711944,1.3322137 0 0 0 51.661412,1.5369794 1.2711944,1.3322137 0 0 0 50.389668,0.20418396 m 7.202578,0 -2.409334,2.52499684 3.707645,3.8856364 -3.839849,4.5792778 2.542385,2.331382 5.932233,-7.1051635 -5.932233,-6.21701768 M 48.695024,6.4205977 A 2.1186486,2.2203636 0 0 0 46.576369,8.640961 2.1186486,2.2203636 0 0 0 48.695024,10.861325 2.1186486,2.2203636 0 0 0 50.813679,8.640961 2.1186486,2.2203636 0 0 0 48.695024,6.4205977 M 52.508882,12.6379 a 2.5423787,2.6644363 0 0 0 -2.542114,2.664152 2.5423787,2.6644363 0 0 0 2.542114,2.664143 2.5423787,2.6644363 0 0 0 2.542106,-2.664143 2.5423787,2.6644363 0 0 0 -2.542106,-2.664152" />
</svg>
