<?xml version="1.0" encoding="UTF-8" standalone="no"?>
<svg
   xmlns:dc="http://purl.org/dc/elements/1.1/"
   xmlns:cc="http://creativecommons.org/ns#"
   xmlns:rdf="http://www.w3.org/1999/02/22-rdf-syntax-ns#"
   xmlns:svg="http://www.w3.org/2000/svg"
   xmlns="http://www.w3.org/2000/svg"
   xmlns:xlink="http://www.w3.org/1999/xlink"
   xmlns:sodipodi="http://sodipodi.sourceforge.net/DTD/sodipodi-0.dtd"
   xmlns:inkscape="http://www.inkscape.org/namespaces/inkscape"
   viewBox="0 0 64 64"
   id="svg13202"
   version="1.1"
   inkscape:version="0.91 r13725"
   sodipodi:docname="folder-dropbox.svg">
  <metadata
     id="metadata13228">
    <rdf:RDF>
      <cc:Work
         rdf:about="">
        <dc:format>image/svg+xml</dc:format>
        <dc:type
           rdf:resource="http://purl.org/dc/dcmitype/StillImage" />
        <dc:title />
      </cc:Work>
    </rdf:RDF>
  </metadata>
  <sodipodi:namedview
     pagecolor="#ffffff"
     bordercolor="#666666"
     borderopacity="1"
     objecttolerance="10"
     gridtolerance="10"
     guidetolerance="10"
     inkscape:pageopacity="0"
     inkscape:pageshadow="2"
     inkscape:window-width="1280"
     inkscape:window-height="688"
     id="namedview13226"
     showgrid="false"
     inkscape:zoom="3.6875"
     inkscape:cx="-28.68958"
     inkscape:cy="32"
     inkscape:window-x="0"
     inkscape:window-y="0"
     inkscape:window-maximized="1"
     inkscape:current-layer="svg13202" />
  <defs
     id="defs13204">
    <linearGradient
       xlink:href="#1"
       id="3"
       x1="-19.915"
       y1="1048.7"
       x2="-19.996"
       y2="1025.51"
       gradientUnits="userSpaceOnUse"
       gradientTransform="translate(51.949,-1001.46)" />
    <linearGradient
       gradientUnits="userSpaceOnUse"
       y2="354.29"
       x2="-704.05"
       y1="647.77"
       x1="-701.19"
       id="2"
       gradientTransform="matrix(0.01590505,0,0,0.01845141,129.51168,-45.007092)">
      <stop
         stop-color="#93cfff"
         id="stop13208" />
      <stop
         offset="1"
         stop-color="#cde8fe"
         id="stop13210" />
    </linearGradient>
    <linearGradient
       xlink:href="#1"
       id="0"
       x1="59.12"
       y1="-13.295"
       x2="59.15"
       y2="-37.783"
       gradientUnits="userSpaceOnUse"
       gradientTransform="matrix(0.52660675,0,0,0.52570737,-19.441377,28.676662)" />
    <linearGradient
       id="1">
      <stop
         stop-color="#289bf7"
         id="stop13214" />
      <stop
         offset="1"
         stop-color="#71b9f1"
         id="stop13216" />
    </linearGradient>
  </defs>
  <path
     inkscape:connector-curvature="0"
     style="fill:#2a2aff"
     d="m 63.983051,18.494425 -63.69491548,0 0,-15.8870088 c 0,-1.2856144 1.00594038,-2.3277585 2.24689308,-2.3277585 l 59.2011294,0 c 1.240953,0 2.246893,1.0421441 2.246893,2.3277585 l 0,15.8870088 z"
     id="path3" />
  <rect
     x="3.5827"
     y="18.494425"
     style="fill:#2a2aff"
     width="57.105785"
     height="45.497101"
     id="rect5" />
  <path
     inkscape:connector-curvature="0"
     style="fill:#000055"
     d="m 42.019287,13.943578 -19.767387,0 c -2.425898,0 -4.392753,-2.037642 -4.392753,-4.550848 l 0,0 c 0,-2.5132056 1.966855,-4.5508476 4.392753,-4.5508476 l 19.767387,0 c 2.425898,0 4.392753,2.037642 4.392753,4.5508476 l 0,0 c 0,2.513206 -1.966855,4.550848 -4.392753,4.550848 z"
     id="path7" />
  <rect
     x="3.5827"
     y="58.302963"
     style="fill:#000055"
     width="57.105785"
     height="5.6885595"
     id="rect9" />
  <rect
     x="16.760958"
     y="27.584742"
     style="fill:#d5d5ff"
     width="30.749269"
     height="15.927967"
     id="rect11" />
  <path
     id="path15"
     d="m 21.153711,34.411015 6.58913,0 c 0.607298,0 1.098188,-0.508558 1.098188,-1.137712 0,-0.629155 -0.49089,-1.137712 -1.098188,-1.137712 l -6.58913,0 c -0.607298,0 -1.098188,0.508557 -1.098188,1.137712 0,0.629154 0.49089,1.137712 1.098188,1.137712 z"
     style="fill:#000055"
     inkscape:connector-curvature="0" />
  <path
     id="path17"
     d="m 32.135593,34.411015 c 0.285529,0 0.571058,-0.125149 0.779714,-0.329937 0.197674,-0.216165 0.318475,-0.51197 0.318475,-0.807775 0,-0.296943 -0.120801,-0.592748 -0.318475,-0.807776 -0.417312,-0.420953 -1.153098,-0.420953 -1.559427,0 -0.198772,0.215028 -0.318475,0.510833 -0.318475,0.807776 0,0.307182 0.119703,0.59161 0.318475,0.807775 0.207557,0.204788 0.482104,0.329937 0.779713,0.329937 z"
     style="fill:#000055"
     inkscape:connector-curvature="0" />
  <path
     id="path19"
     d="m 43.117475,36.686439 -17.571011,0 c -0.607298,0 -1.098188,0.508557 -1.098188,1.137711 0,0.629155 0.49089,1.137712 1.098188,1.137712 l 17.571011,0 c 0.607298,0 1.098189,-0.508557 1.098189,-1.137712 0,-0.629154 -0.490891,-1.137711 -1.098189,-1.137711 z"
     style="fill:#000055"
     inkscape:connector-curvature="0" />
  <path
     id="path21"
     d="m 20.373998,37.016375 c -0.198772,0.215028 -0.318475,0.510833 -0.318475,0.807775 0,0.295805 0.119703,0.591611 0.318475,0.807776 0.207557,0.204788 0.482104,0.329936 0.779713,0.329936 0.296511,0 0.571058,-0.125148 0.779714,-0.329936 0.197674,-0.216165 0.318475,-0.511971 0.318475,-0.807776 0,-0.296942 -0.120801,-0.592747 -0.318475,-0.807775 -0.40633,-0.420953 -1.142116,-0.420953 -1.559427,0 z"
     style="fill:#000055"
     inkscape:connector-curvature="0" />
  <rect
     x="3.5827"
     y="18.483047"
     style="fill:#000055"
     width="57.105785"
     height="5.6885595"
     id="rect23" />
  <path
     inkscape:connector-curvature="0"
     style="fill:#ffffff"
     id="path24"
     d="m 51.717357,13.758959 3.604763,-3.276874 -5.207271,-3.5066292 -3.562281,3.1157372 5.164876,3.667112 m 3.604762,-3.276874 3.615361,3.276874 5.15419,-3.667112 -3.56228,-3.1156439 -5.207271,3.5063479 m 0,0.713071 -3.604762,3.265111 -1.549514,-1.103681 0,1.241478 5.154276,3.368365 5.185728,-3.368365 0,-1.241478 -1.5496,1.103681 -3.636386,-3.265111 M 46.552396,3.8710147 50.114677,6.975176 55.321948,3.4801232 51.717185,0.20324912 46.55231,3.8703612 M 58.937567,0.20324912 55.322206,3.4801232 60.529477,6.975176 64.091757,3.8710147 58.937567,0.20390264" />
</svg>
