<?xml version="1.0" encoding="UTF-8" standalone="no"?>
<svg
   xmlns:dc="http://purl.org/dc/elements/1.1/"
   xmlns:cc="http://creativecommons.org/ns#"
   xmlns:rdf="http://www.w3.org/1999/02/22-rdf-syntax-ns#"
   xmlns:svg="http://www.w3.org/2000/svg"
   xmlns="http://www.w3.org/2000/svg"
   xmlns:xlink="http://www.w3.org/1999/xlink"
   xmlns:sodipodi="http://sodipodi.sourceforge.net/DTD/sodipodi-0.dtd"
   xmlns:inkscape="http://www.inkscape.org/namespaces/inkscape"
   viewBox="0 0 64 64"
   id="svg13202"
   version="1.1"
   inkscape:version="0.91 r13725"
   sodipodi:docname="folder-print.svg">
  <metadata
     id="metadata13228">
    <rdf:RDF>
      <cc:Work
         rdf:about="">
        <dc:format>image/svg+xml</dc:format>
        <dc:type
           rdf:resource="http://purl.org/dc/dcmitype/StillImage" />
        <dc:title></dc:title>
      </cc:Work>
    </rdf:RDF>
  </metadata>
  <sodipodi:namedview
     pagecolor="#ffffff"
     bordercolor="#666666"
     borderopacity="1"
     objecttolerance="10"
     gridtolerance="10"
     guidetolerance="10"
     inkscape:pageopacity="0"
     inkscape:pageshadow="2"
     inkscape:window-width="1280"
     inkscape:window-height="694"
     id="namedview13226"
     showgrid="false"
     inkscape:zoom="3.6875"
     inkscape:cx="-14.554659"
     inkscape:cy="32"
     inkscape:window-x="0"
     inkscape:window-y="0"
     inkscape:window-maximized="1"
     inkscape:current-layer="svg13202" />
  <defs
     id="defs13204">
    <linearGradient
       xlink:href="#1"
       id="3"
       x1="-19.915"
       y1="1048.7"
       x2="-19.996"
       y2="1025.51"
       gradientUnits="userSpaceOnUse"
       gradientTransform="translate(51.949,-1001.46)" />
    <linearGradient
       gradientUnits="userSpaceOnUse"
       y2="354.29"
       x2="-704.05"
       y1="647.77"
       x1="-701.19"
       id="2"
       gradientTransform="matrix(0.01590505,0,0,0.01845141,129.51168,-45.007092)">
      <stop
         stop-color="#93cfff"
         id="stop13208" />
      <stop
         offset="1"
         stop-color="#cde8fe"
         id="stop13210" />
    </linearGradient>
    <linearGradient
       xlink:href="#1"
       id="0"
       x1="59.12"
       y1="-13.295"
       x2="59.15"
       y2="-37.783"
       gradientUnits="userSpaceOnUse"
       gradientTransform="matrix(0.52660675,0,0,0.52570737,-19.441377,28.676662)" />
    <linearGradient
       id="1">
      <stop
         stop-color="#289bf7"
         id="stop13214" />
      <stop
         offset="1"
         stop-color="#71b9f1"
         id="stop13216" />
    </linearGradient>
  </defs>
  <g
     transform="matrix(1.0981882,0,0,1.1038042,0.28813573,-0.01032459)"
     id="g4158">
    <path
       id="path3"
       d="m 58,16.694284 -58,0 L 0,2.3625868 C 0,1.2028319 0.916,0.26271195 2.046,0.26271195 l 53.908,0 c 1.13,0 2.046,0.94011995 2.046,2.09987485 l 0,14.3316972 z"
       style="fill:#d45500"
       inkscape:connector-curvature="0" />
    <rect
       id="rect5"
       height="41.043011"
       width="52"
       style="fill:#ff9955"
       y="16.694284"
       x="3" />
    <path
       id="path7"
       d="m 38,12.588957 -18,0 c -2.209,0 -4,-1.83816 -4,-4.1053273 l 0,0 c 0,-2.267167 1.791,-4.1053272 4,-4.1053272 l 18,0 c 2.209,0 4,1.8381602 4,4.1053272 l 0,0 c 0,2.2671673 -1.791,4.1053273 -4,4.1053273 z"
       style="fill:#aa4400"
       inkscape:connector-curvature="0" />
    <rect
       id="rect9"
       height="5.131659"
       width="52"
       style="fill:#aa4400"
       y="52.605633"
       x="3" />
    <rect
       id="rect11"
       height="14.368646"
       width="28"
       style="fill:#ffccaa"
       y="24.894674"
       x="15" />
    <g
       style="fill:#aa4400"
       transform="matrix(1,0,0,1.0263318,0,-0.76361985)"
       id="g13">
      <path
         id="path15"
         d="m 19,31 6,0 c 0.553,0 1,-0.447 1,-1 0,-0.553 -0.447,-1 -1,-1 l -6,0 c -0.553,0 -1,0.447 -1,1 0,0.553 0.447,1 1,1 z"
         style="fill:#aa4400"
         inkscape:connector-curvature="0" />
      <path
         id="path17"
         d="m 29,31 c 0.26,0 0.52,-0.11 0.71,-0.29 C 29.89,30.52 30,30.26 30,30 c 0,-0.261 -0.11,-0.521 -0.29,-0.71 -0.38,-0.37 -1.05,-0.37 -1.42,0 C 28.109,29.479 28,29.739 28,30 c 0,0.27 0.109,0.52 0.29,0.71 C 28.479,30.89 28.729,31 29,31 Z"
         style="fill:#aa4400"
         inkscape:connector-curvature="0" />
      <path
         id="path19"
         d="m 39,33 -16,0 c -0.553,0 -1,0.447 -1,1 0,0.553 0.447,1 1,1 l 16,0 c 0.553,0 1,-0.447 1,-1 0,-0.553 -0.447,-1 -1,-1 z"
         style="fill:#aa4400"
         inkscape:connector-curvature="0" />
      <path
         id="path21"
         d="M 18.29,33.29 C 18.109,33.479 18,33.739 18,34 c 0,0.26 0.109,0.52 0.29,0.71 0.189,0.18 0.439,0.29 0.71,0.29 0.27,0 0.52,-0.11 0.71,-0.29 C 19.89,34.52 20,34.26 20,34 c 0,-0.261 -0.11,-0.521 -0.29,-0.71 -0.37,-0.37 -1.04,-0.37 -1.42,0 z"
         style="fill:#aa4400"
         inkscape:connector-curvature="0" />
    </g>
    <rect
       id="rect23"
       height="5.131659"
       width="52"
       style="fill:#aa4400"
       y="16.684021"
       x="3" />
  </g>
  <path
     inkscape:connector-curvature="0"
     style="fill:#ffffff"
     id="path26"
     d="m 50.75353,0.2063128 0,0.48843649 0,1.00943371 0,3.5877837 9.142425,0 0,-3.5877837 0,-1.00943371 0,-0.48843649 -9.142425,0 m -1.367977,1.1012013 c -0.266823,0 -0.483532,0.2368174 -0.483532,0.5283992 l 0,3.3509656 1.177002,0 0,-3.8793648 -0.69347,0 m 11.274303,0 0,3.8793648 1.177002,0 0,-3.3509656 c 0,-0.2915818 -0.216709,-0.5283992 -0.483532,-0.5283992 l -0.69347,0 m -13.388573,4.825155 c -0.266823,0 -0.483533,0.2368174 -0.483533,0.5283984 l 0,8.2190445 c 0,0.291582 0.21671,0.528399 0.483533,0.528399 l 2.531435,0 0,-3.13635 0,-1.370581 11.038632,0 0,1.370581 0,3.13635 2.531436,0 c 0.266823,0 0.483532,-0.236817 0.483532,-0.528399 l 0,-8.2190445 C 63.856183,6.3694865 63.6369,6.1326691 63.370077,6.1326691 l -16.100149,0 M 61.297794,7.713425 c 0.127316,0 0.249215,0.042923 0.349443,0.1124883 0.177431,0.1243291 0.293912,0.3419051 0.293912,0.5890832 0,0.2471788 -0.115126,0.4677144 -0.293912,0.5920442 -0.100228,0.072525 -0.222127,0.1124883 -0.349443,0.1124883 -0.356216,0 -0.643356,-0.3137833 -0.643356,-0.7030524 0,-0.3892683 0.28714,-0.7060118 0.643356,-0.7060118 m -10.583542,4.1339442 0,0.528399 0,5.061972 0,0.528399 9.21421,0 0,-0.528399 0,-5.061972 0,-0.528399 -9.21421,0" />
</svg>
