<?xml version="1.0" encoding="UTF-8" standalone="no"?>
<!-- Generator: Adobe Illustrator 12.0.0, SVG Export Plug-In . SVG Version: 6.00 Build 51448)  -->

<svg
   xmlns:dc="http://purl.org/dc/elements/1.1/"
   xmlns:cc="http://creativecommons.org/ns#"
   xmlns:rdf="http://www.w3.org/1999/02/22-rdf-syntax-ns#"
   xmlns:svg="http://www.w3.org/2000/svg"
   xmlns="http://www.w3.org/2000/svg"
   xmlns:sodipodi="http://sodipodi.sourceforge.net/DTD/sodipodi-0.dtd"
   xmlns:inkscape="http://www.inkscape.org/namespaces/inkscape"
   version="1.1"
   id="图层_1"
   width="248"
   height="248"
   viewBox="0 0 248 248"
   style="overflow:visible;enable-background:new 0 0 248 248;"
   xml:space="preserve"
   inkscape:version="0.91 r13725"
   sodipodi:docname="face-in-love.svg"><metadata
     id="metadata225"><rdf:RDF><cc:Work
         rdf:about=""><dc:format>image/svg+xml</dc:format><dc:type
           rdf:resource="http://purl.org/dc/dcmitype/StillImage" /><dc:title></dc:title></cc:Work></rdf:RDF></metadata><defs
     id="defs223" /><sodipodi:namedview
     pagecolor="#ffffff"
     bordercolor="#666666"
     borderopacity="1"
     objecttolerance="10"
     gridtolerance="10"
     guidetolerance="10"
     inkscape:pageopacity="0"
     inkscape:pageshadow="2"
     inkscape:window-width="1280"
     inkscape:window-height="694"
     id="namedview221"
     showgrid="false"
     inkscape:zoom="0.9516129"
     inkscape:cx="-218.57627"
     inkscape:cy="124"
     inkscape:window-x="0"
     inkscape:window-y="0"
     inkscape:window-maximized="1"
     inkscape:current-layer="图层_1" /><circle
     style="fill:#ffdd55"
     cx="124"
     cy="124"
     r="124"
     id="circle3" /><g
     id="g7"
     style="opacity:0.02999998;fill:#ff5555"><path
       inkscape:connector-curvature="0"
       style="fill:#ff5555"
       id="path9"
       d="m 211.871,166.949 c 0,40.505 -38.398,73.34 -85.765,73.34 -47.368,0 -85.766,-32.835 -85.766,-73.34 0,-40.506 42.366,-16.739 89.734,-16.739 47.366,0 81.797,-23.767 81.797,16.739 z" /></g><g
     style="fill:#ff5555"
     id="g11"><path
       inkscape:connector-curvature="0"
       id="path13"
       d="m 211.871,159.949 c 0,40.505 -38.398,73.34 -85.765,73.34 -47.368,0 -85.766,-32.835 -85.766,-73.34 0,-40.506 42.366,-16.739 89.734,-16.739 47.366,0 81.797,-23.767 81.797,16.739 z"
       style="fill:#ff5555" /></g><path
     style="fill:#ff5555"
     d="M132.021,155.506c29.086,0,56.333,2.855,79.75,7.833c0.06-1.124,0.101-2.252,0.101-3.39  c0-40.506-34.431-16.739-81.797-16.739c-47.368,0-89.734-23.767-89.734,16.739c0,2.06,0.125,4.092,0.319,6.108  C66.464,159.413,97.987,155.506,132.021,155.506z"
     id="path15" /><path
     inkscape:connector-curvature="0"
     id="path19"
     d="m 45.87,64.957 c 0,23.31 32.226,38.085 32.226,38.085 0,0 4.081,-29.01 4.081,-38.085 0,-9.075 -8.127,-18.214 -18.153,-18.214 -10.027,0 -18.154,9.139 -18.154,18.214 z"
     style="fill:#ff0000" /><path
     inkscape:connector-curvature="0"
     id="path21"
     d="m 110.451,64.957 c 0,23.31 -32.356,38.085 -32.356,38.085 0,0 -10.012,-27.562 -6.556,-39.902 2.667,-9.521 10.733,-16.397 20.759,-16.397 10.026,0 18.153,9.139 18.153,18.214 z"
     style="fill:#ff0000" /><g
     id="g23"
     style="opacity:0.67000002;fill:#ff5555"><path
       inkscape:connector-curvature="0"
       id="path25"
       d="m 110.451,64.957 c 0,-9.075 -8.127,-18.214 -18.153,-18.214 -5.885,0 -11.094,2.372 -14.933,6.255 -3.316,-3.722 -8.065,-6.255 -13.342,-6.255 -10.026,0 -18.153,9.14 -18.153,18.214 0,23.31 32.226,38.085 32.226,38.085 0,0 -0.002,0.016 0,0 0.748,-0.359 32.355,-15.297 32.355,-38.085 z"
       style="fill:#ff5555" /><path
       inkscape:connector-curvature="0"
       id="path27"
       d="m 109.986,64.8 c 0,-8.951 -8.016,-17.966 -17.905,-17.966 -5.805,0 -10.942,2.34 -14.729,6.169 -3.271,-3.671 -7.955,-6.169 -13.16,-6.169 -9.889,0 -17.906,9.015 -17.906,17.966 0,22.992 31.786,37.565 31.786,37.565 0,0 -0.002,0.015 0,-10e-4 C 78.809,102 109.986,87.277 109.986,64.8 Z"
       style="opacity:0.95240012;fill:#ff5555" /><path
       inkscape:connector-curvature="0"
       id="path29"
       d="m 109.521,64.643 c 0,-8.827 -7.905,-17.717 -17.658,-17.717 -5.725,0 -10.791,2.307 -14.525,6.084 -3.226,-3.62 -7.845,-6.084 -12.978,-6.084 -9.752,0 -17.658,8.89 -17.658,17.717 0,22.674 31.346,37.046 31.346,37.046 0,0 -0.002,0.014 0,-10e-4 0.724,-0.37 31.473,-14.879 31.473,-37.045 z"
       style="opacity:0.9048;fill:#ff5555" /><path
       inkscape:connector-curvature="0"
       id="path31"
       d="m 109.056,64.486 c 0,-8.703 -7.794,-17.469 -17.41,-17.469 -5.644,0 -10.64,2.275 -14.322,5.999 -3.181,-3.569 -7.735,-5.999 -12.795,-5.999 -9.615,0 -17.41,8.766 -17.41,17.469 0,22.356 30.906,36.526 30.906,36.526 0,0 -0.002,0.013 0,-0.002 0.712,-0.374 31.031,-14.669 31.031,-36.524 z"
       style="opacity:0.8571;fill:#ff5555" /><path
       inkscape:connector-curvature="0"
       id="path33"
       d="m 108.59,64.33 c 0,-8.579 -7.683,-17.22 -17.162,-17.22 -5.564,0 -10.488,2.243 -14.118,5.914 -3.136,-3.519 -7.625,-5.914 -12.614,-5.914 -9.479,0 -17.162,8.641 -17.162,17.22 0,22.038 30.466,36.006 30.466,36.006 0,0 -0.002,0.011 0,-0.003 0.701,-0.379 30.59,-14.459 30.59,-36.003 z"
       style="opacity:0.8095;fill:#ff5555" /><path
       inkscape:connector-curvature="0"
       id="path35"
       d="m 108.125,64.173 c 0,-8.456 -7.573,-16.972 -16.915,-16.972 -5.484,0 -10.337,2.21 -13.914,5.828 -3.09,-3.468 -7.515,-5.828 -12.432,-5.828 -9.342,0 -16.915,8.516 -16.915,16.972 0,21.719 30.027,35.486 30.027,35.486 0,0 -0.002,0.01 0,-0.004 0.689,-0.384 30.149,-14.249 30.149,-35.482 z"
       style="opacity:0.7619;fill:#ff5555" /><path
       inkscape:connector-curvature="0"
       id="path37"
       d="m 107.66,64.016 c 0,-8.332 -7.461,-16.723 -16.667,-16.723 -5.403,0 -10.185,2.178 -13.71,5.743 -3.045,-3.417 -7.405,-5.743 -12.25,-5.743 -9.205,0 -16.667,8.391 -16.667,16.723 0,21.401 29.587,34.967 29.587,34.967 0,0 -0.001,0.009 0,-0.005 0.676,-0.389 29.707,-14.04 29.707,-34.962 z"
       style="opacity:0.7143;fill:#ff5555" /><path
       inkscape:connector-curvature="0"
       id="path39"
       d="m 107.195,63.859 c 0,-8.208 -7.351,-16.474 -16.419,-16.474 -5.323,0 -10.034,2.146 -13.506,5.657 -3,-3.366 -7.295,-5.657 -12.067,-5.657 -9.068,0 -16.419,8.267 -16.419,16.474 0,21.083 29.147,34.447 29.147,34.447 0,0 -10e-4,0.008 0,-0.006 0.663,-0.393 29.264,-13.83 29.264,-34.441 z"
       style="opacity:0.6667;fill:#ff5555" /><path
       inkscape:connector-curvature="0"
       id="path41"
       d="m 106.73,63.702 c 0,-8.084 -7.24,-16.226 -16.171,-16.226 -5.243,0 -9.883,2.113 -13.303,5.572 -2.955,-3.315 -7.185,-5.572 -11.885,-5.572 -8.931,0 -16.171,8.142 -16.171,16.226 0,20.765 28.708,33.927 28.708,33.927 0,0 -0.001,0.007 0,-0.007 0.65,-0.397 28.822,-13.62 28.822,-33.92 z"
       style="opacity:0.619;fill:#ff5555" /><path
       inkscape:connector-curvature="0"
       id="path43"
       d="m 106.265,63.545 c 0,-7.96 -7.129,-15.977 -15.924,-15.977 -5.162,0 -9.731,2.081 -13.099,5.487 -2.909,-3.265 -7.075,-5.487 -11.703,-5.487 -8.794,0 -15.924,8.017 -15.924,15.977 0,20.447 28.268,33.407 28.268,33.407 0,0 -10e-4,0.006 0.001,-0.007 0.638,-0.403 28.381,-13.411 28.381,-33.4 z"
       style="opacity:0.5714;fill:#ff5555" /><path
       inkscape:connector-curvature="0"
       id="path45"
       d="m 105.799,63.388 c 0,-7.836 -7.018,-15.729 -15.676,-15.729 -5.082,0 -9.58,2.048 -12.895,5.401 -2.864,-3.214 -6.964,-5.401 -11.521,-5.401 -8.658,0 -15.676,7.893 -15.676,15.729 0,20.129 27.828,32.887 27.828,32.887 0,0 -10e-4,0.005 0.001,-0.008 0.626,-0.407 27.939,-13.201 27.939,-32.879 z"
       style="opacity:0.5238;fill:#ff5555" /><path
       inkscape:connector-curvature="0"
       id="path47"
       d="m 105.334,63.231 c 0,-7.712 -6.907,-15.48 -15.428,-15.48 -5.002,0 -9.428,2.016 -12.691,5.315 -2.819,-3.163 -6.855,-5.315 -11.339,-5.315 -8.521,0 -15.428,7.768 -15.428,15.48 0,19.811 27.388,32.368 27.388,32.368 0,0 -0.001,0.004 0.001,-0.009 0.613,-0.412 27.497,-12.992 27.497,-32.359 z"
       style="opacity:0.47620012;fill:#ff5555" /><path
       inkscape:connector-curvature="0"
       id="path49"
       d="m 104.869,63.075 c 0,-7.588 -6.796,-15.231 -15.18,-15.231 -4.922,0 -9.277,1.983 -12.487,5.23 -2.773,-3.112 -6.745,-5.23 -11.157,-5.23 -8.384,0 -15.18,7.643 -15.18,15.231 0,19.493 26.948,31.848 26.948,31.848 0,0 -0.001,0.003 10e-4,-0.01 0.601,-0.417 27.055,-12.783 27.055,-31.838 z"
       style="opacity:0.42860012;fill:#ff5555" /><path
       inkscape:connector-curvature="0"
       id="path51"
       d="m 104.404,62.917 c 0,-7.464 -6.685,-14.982 -14.933,-14.982 -4.841,0 -9.125,1.951 -12.283,5.145 -2.728,-3.061 -6.635,-5.145 -10.975,-5.145 -8.247,0 -14.933,7.518 -14.933,14.982 0,19.175 26.508,31.328 26.508,31.328 0,0 0,0.002 0.001,-0.011 0.59,-0.421 26.615,-12.572 26.615,-31.317 z"
       style="opacity:0.38100011;fill:#ff5555" /><path
       inkscape:connector-curvature="0"
       id="path53"
       d="m 103.939,62.761 c 0,-7.341 -6.574,-14.734 -14.685,-14.734 -4.761,0 -8.974,1.919 -12.08,5.06 -2.683,-3.01 -6.524,-5.06 -10.793,-5.06 -8.11,0 -14.685,7.394 -14.685,14.734 0,18.856 26.069,30.808 26.069,30.808 0,0 0,10e-4 0.001,-0.012 0.577,-0.426 26.173,-12.363 26.173,-30.796 z"
       style="opacity:0.3333;fill:#ff5555" /><path
       inkscape:connector-curvature="0"
       id="path55"
       d="m 103.474,62.604 c 0,-7.217 -6.463,-14.486 -14.437,-14.486 -4.681,0 -8.823,1.887 -11.876,4.974 -2.638,-2.959 -6.414,-4.974 -10.611,-4.974 -7.973,0 -14.437,7.269 -14.437,14.486 0,18.539 25.629,30.288 25.629,30.288 0,0 0,0 10e-4,-0.013 0.564,-0.43 25.731,-12.152 25.731,-30.275 z"
       style="opacity:0.2857;fill:#ff5555" /><path
       inkscape:connector-curvature="0"
       id="path57"
       d="m 103.008,62.447 c 0,-7.093 -6.352,-14.237 -14.189,-14.237 -4.6,0 -8.671,1.854 -11.672,4.889 -2.592,-2.909 -6.304,-4.889 -10.429,-4.889 -7.836,0 -14.189,7.144 -14.189,14.237 0,18.221 25.189,29.769 25.189,29.769 0,0 0,-10e-4 10e-4,-0.013 0.552,-0.437 25.289,-11.945 25.289,-29.756 z"
       style="opacity:0.2381;fill:#ff5555" /><path
       inkscape:connector-curvature="0"
       id="path59"
       d="m 102.543,62.29 c 0,-6.969 -6.242,-13.988 -13.942,-13.988 -4.52,0 -8.52,1.822 -11.468,4.803 -2.547,-2.858 -6.194,-4.803 -10.247,-4.803 -7.7,0 -13.942,7.019 -13.942,13.988 0,17.902 24.75,29.249 24.75,29.249 0,0 0,-0.002 10e-4,-0.014 0.54,-0.441 24.848,-11.734 24.848,-29.235 z"
       style="opacity:0.1905;fill:#ff5555" /><path
       inkscape:connector-curvature="0"
       id="path61"
       d="m 102.078,62.133 c 0,-6.845 -6.13,-13.74 -13.694,-13.74 -4.44,0 -8.368,1.789 -11.264,4.718 -2.502,-2.807 -6.084,-4.718 -10.065,-4.718 -7.563,0 -13.694,6.895 -13.694,13.74 0,17.584 24.31,28.729 24.31,28.729 0,0 0,-0.003 10e-4,-0.015 0.528,-0.445 24.406,-11.524 24.406,-28.714 z"
       style="opacity:0.1429;fill:#ff5555" /><path
       inkscape:connector-curvature="0"
       id="path63"
       d="m 101.613,61.977 c 0,-6.722 -6.02,-13.492 -13.446,-13.492 -4.359,0 -8.217,1.757 -11.061,4.633 -2.457,-2.756 -5.974,-4.633 -9.883,-4.633 -7.426,0 -13.446,6.77 -13.446,13.492 0,17.266 23.87,28.209 23.87,28.209 0,0 0,-0.004 10e-4,-0.016 0.516,-0.45 23.965,-11.315 23.965,-28.193 z"
       style="opacity:0.0952;fill:#ff5555" /><path
       inkscape:connector-curvature="0"
       id="path65"
       d="m 101.148,61.819 c 0,-6.597 -5.909,-13.243 -13.199,-13.243 -4.279,0 -8.065,1.725 -10.856,4.547 -2.412,-2.706 -5.864,-4.547 -9.701,-4.547 -7.289,0 -13.198,6.646 -13.198,13.243 0,16.948 23.43,27.689 23.43,27.689 0,0 0,-0.005 0.002,-0.017 0.502,-0.454 23.522,-11.104 23.522,-27.672 z"
       style="opacity:0.0476;fill:#ff5555" /><path
       inkscape:connector-curvature="0"
       id="path67"
       d="m 100.683,61.663 c 0,-6.474 -5.798,-12.994 -12.951,-12.994 -4.199,0 -7.914,1.692 -10.653,4.462 -2.366,-2.655 -5.754,-4.462 -9.519,-4.462 -7.152,0 -12.951,6.521 -12.951,12.994 0,16.63 22.99,27.169 22.99,27.169 0,0 0,-0.006 0.002,-0.018 0.491,-0.459 23.082,-10.895 23.082,-27.151 z"
       style="opacity:0;fill:#ff5555" /></g><path
     inkscape:connector-curvature="0"
     id="path117"
     d="m 134.869,64.957 c 0,23.31 32.227,38.085 32.227,38.085 0,0 4.08,-29.01 4.08,-38.085 0,-9.075 -8.127,-18.214 -18.152,-18.214 -10.027,0 -18.155,9.139 -18.155,18.214 z"
     style="fill:#ff0000" /><path
     inkscape:connector-curvature="0"
     id="path119"
     d="m 199.451,64.957 c 0,23.31 -32.355,38.085 -32.355,38.085 0,0 -10.013,-27.562 -6.557,-39.903 2.666,-9.521 10.733,-16.397 20.759,-16.397 10.026,0.001 18.153,9.14 18.153,18.215 z"
     style="fill:#ff0000" /><g
     id="g121"
     style="opacity:0.67000002;fill:#ff5555"><path
       inkscape:connector-curvature="0"
       id="path123"
       d="m 199.451,64.957 c 0,-9.075 -8.127,-18.214 -18.153,-18.214 -5.886,0 -11.094,2.372 -14.933,6.255 -3.316,-3.722 -8.066,-6.255 -13.342,-6.255 -10.026,0 -18.154,9.14 -18.154,18.214 0,23.31 32.227,38.085 32.227,38.085 0,0 -0.003,0.016 0,0 0.748,-0.359 32.355,-15.297 32.355,-38.085 z"
       style="fill:#ff5555" /><path
       inkscape:connector-curvature="0"
       id="path125"
       d="m 198.986,64.8 c 0,-8.951 -8.017,-17.966 -17.906,-17.966 -5.805,0 -10.942,2.34 -14.729,6.169 -3.271,-3.671 -7.956,-6.169 -13.16,-6.169 -9.889,0 -17.906,9.015 -17.906,17.966 0,22.992 31.787,37.565 31.787,37.565 0,0 -0.003,0.015 0,-10e-4 C 167.808,102 198.986,87.277 198.986,64.8 Z"
       style="opacity:0.95240012;fill:#ff5555" /><path
       inkscape:connector-curvature="0"
       id="path127"
       d="m 198.521,64.643 c 0,-8.827 -7.905,-17.717 -17.657,-17.717 -5.726,0 -10.791,2.307 -14.525,6.084 -3.226,-3.62 -7.846,-6.084 -12.978,-6.084 -9.753,0 -17.659,8.89 -17.659,17.717 0,22.674 31.348,37.046 31.348,37.046 0,0 -0.003,0.014 0,-10e-4 0.722,-0.37 31.471,-14.879 31.471,-37.045 z"
       style="opacity:0.9048;fill:#ff5555" /><path
       inkscape:connector-curvature="0"
       id="path129"
       d="m 198.056,64.486 c 0,-8.703 -7.794,-17.469 -17.41,-17.469 -5.645,0 -10.64,2.275 -14.321,5.999 -3.181,-3.569 -7.736,-5.999 -12.796,-5.999 -9.615,0 -17.41,8.766 -17.41,17.469 0,22.356 30.906,36.526 30.906,36.526 0,0 -0.002,0.013 0.001,-0.002 0.71,-0.374 31.03,-14.669 31.03,-36.524 z"
       style="opacity:0.8571;fill:#ff5555" /><path
       inkscape:connector-curvature="0"
       id="path131"
       d="m 197.591,64.33 c 0,-8.579 -7.684,-17.22 -17.162,-17.22 -5.565,0 -10.488,2.243 -14.118,5.914 -3.135,-3.519 -7.626,-5.914 -12.613,-5.914 -9.479,0 -17.163,8.641 -17.163,17.22 0,22.038 30.467,36.006 30.467,36.006 0,0 -0.002,0.011 10e-4,-0.003 0.697,-0.379 30.588,-14.459 30.588,-36.003 z"
       style="opacity:0.8095;fill:#ff5555" /><path
       inkscape:connector-curvature="0"
       id="path133"
       d="m 197.125,64.173 c 0,-8.456 -7.572,-16.972 -16.914,-16.972 -5.484,0 -10.337,2.21 -13.914,5.828 -3.09,-3.468 -7.516,-5.828 -12.432,-5.828 -9.342,0 -16.915,8.516 -16.915,16.972 0,21.719 30.027,35.486 30.027,35.486 0,0 -0.002,0.01 0.001,-0.004 0.687,-0.384 30.147,-14.249 30.147,-35.482 z"
       style="opacity:0.7619;fill:#ff5555" /><path
       inkscape:connector-curvature="0"
       id="path135"
       d="m 196.66,64.016 c 0,-8.332 -7.462,-16.723 -16.667,-16.723 -5.403,0 -10.185,2.178 -13.71,5.743 -3.045,-3.417 -7.405,-5.743 -12.249,-5.743 -9.205,0 -16.668,8.391 -16.668,16.723 0,21.401 29.588,34.967 29.588,34.967 0,0 -0.002,0.009 0,-0.005 0.675,-0.389 29.706,-14.04 29.706,-34.962 z"
       style="opacity:0.7143;fill:#ff5555" /><path
       inkscape:connector-curvature="0"
       id="path137"
       d="m 196.195,63.859 c 0,-8.208 -7.351,-16.474 -16.419,-16.474 -5.324,0 -10.034,2.146 -13.507,5.657 -2.999,-3.366 -7.295,-5.657 -12.067,-5.657 -9.068,0 -16.42,8.267 -16.42,16.474 0,21.083 29.148,34.447 29.148,34.447 0,0 -0.002,0.008 0,-0.006 0.663,-0.393 29.265,-13.83 29.265,-34.441 z"
       style="opacity:0.6667;fill:#ff5555" /><path
       inkscape:connector-curvature="0"
       id="path139"
       d="m 195.729,63.702 c 0,-8.084 -7.239,-16.226 -16.171,-16.226 -5.243,0 -9.883,2.113 -13.303,5.572 -2.954,-3.315 -7.186,-5.572 -11.885,-5.572 -8.932,0 -16.172,8.142 -16.172,16.226 0,20.765 28.707,33.927 28.707,33.927 0,0 -0.001,0.007 0.001,-0.007 0.652,-0.397 28.823,-13.62 28.823,-33.92 z"
       style="opacity:0.619;fill:#ff5555" /><path
       inkscape:connector-curvature="0"
       id="path141"
       d="m 195.265,63.545 c 0,-7.96 -7.129,-15.977 -15.924,-15.977 -5.162,0 -9.73,2.081 -13.099,5.487 -2.909,-3.265 -7.075,-5.487 -11.703,-5.487 -8.794,0 -15.924,8.017 -15.924,15.977 0,20.447 28.268,33.407 28.268,33.407 0,0 -0.001,0.006 10e-4,-0.007 0.637,-0.403 28.381,-13.411 28.381,-33.4 z"
       style="opacity:0.5714;fill:#ff5555" /><path
       inkscape:connector-curvature="0"
       id="path143"
       d="m 194.8,63.388 c 0,-7.836 -7.019,-15.729 -15.676,-15.729 -5.083,0 -9.58,2.048 -12.896,5.401 -2.863,-3.214 -6.965,-5.401 -11.521,-5.401 -8.658,0 -15.677,7.893 -15.677,15.729 0,20.129 27.828,32.887 27.828,32.887 0,0 -0.001,0.005 0.001,-0.008 C 167.485,95.86 194.8,83.066 194.8,63.388 Z"
       style="opacity:0.5238;fill:#ff5555" /><path
       inkscape:connector-curvature="0"
       id="path145"
       d="m 194.334,63.231 c 0,-7.712 -6.906,-15.48 -15.428,-15.48 -5.002,0 -9.428,2.016 -12.69,5.315 -2.819,-3.163 -6.855,-5.315 -11.34,-5.315 -8.521,0 -15.429,7.768 -15.429,15.48 0,19.811 27.389,32.368 27.389,32.368 0,0 -0.001,0.004 10e-4,-0.009 0.613,-0.412 27.497,-12.992 27.497,-32.359 z"
       style="opacity:0.47620012;fill:#ff5555" /><path
       inkscape:connector-curvature="0"
       id="path147"
       d="m 193.869,63.075 c 0,-7.588 -6.796,-15.231 -15.18,-15.231 -4.923,0 -9.277,1.983 -12.487,5.23 -2.773,-3.112 -6.745,-5.23 -11.157,-5.23 -8.385,0 -15.182,7.643 -15.182,15.231 0,19.493 26.949,31.848 26.949,31.848 0,0 -0.001,0.003 10e-4,-0.01 0.601,-0.417 27.056,-12.783 27.056,-31.838 z"
       style="opacity:0.42860012;fill:#ff5555" /><path
       inkscape:connector-curvature="0"
       id="path149"
       d="m 193.404,62.917 c 0,-7.464 -6.686,-14.982 -14.933,-14.982 -4.842,0 -9.125,1.951 -12.283,5.145 -2.729,-3.061 -6.635,-5.145 -10.976,-5.145 -8.247,0 -14.934,7.518 -14.934,14.982 0,19.175 26.51,31.328 26.51,31.328 0,0 -0.001,0.002 10e-4,-0.011 0.589,-0.421 26.615,-12.572 26.615,-31.317 z"
       style="opacity:0.38100011;fill:#ff5555" /><path
       inkscape:connector-curvature="0"
       id="path151"
       d="m 192.938,62.761 c 0,-7.341 -6.574,-14.734 -14.685,-14.734 -4.761,0 -8.974,1.919 -12.079,5.06 -2.684,-3.01 -6.525,-5.06 -10.793,-5.06 -8.11,0 -14.686,7.394 -14.686,14.734 0,18.856 26.068,30.808 26.068,30.808 0,0 0,10e-4 0.002,-0.012 0.578,-0.426 26.173,-12.363 26.173,-30.796 z"
       style="opacity:0.3333;fill:#ff5555" /><path
       inkscape:connector-curvature="0"
       id="path153"
       d="m 192.474,62.604 c 0,-7.217 -6.463,-14.486 -14.437,-14.486 -4.682,0 -8.823,1.887 -11.876,4.974 -2.638,-2.959 -6.415,-4.974 -10.611,-4.974 -7.974,0 -14.438,7.269 -14.438,14.486 0,18.539 25.629,30.288 25.629,30.288 0,0 0,0 0.002,-0.013 0.564,-0.43 25.731,-12.152 25.731,-30.275 z"
       style="opacity:0.2857;fill:#ff5555" /><path
       inkscape:connector-curvature="0"
       id="path155"
       d="m 192.009,62.447 c 0,-7.093 -6.353,-14.237 -14.189,-14.237 -4.601,0 -8.671,1.854 -11.672,4.889 -2.593,-2.909 -6.305,-4.889 -10.429,-4.889 -7.837,0 -14.19,7.144 -14.19,14.237 0,18.221 25.189,29.769 25.189,29.769 0,0 0,-10e-4 0.001,-0.013 0.552,-0.437 25.29,-11.945 25.29,-29.756 z"
       style="opacity:0.2381;fill:#ff5555" /><path
       inkscape:connector-curvature="0"
       id="path157"
       d="m 191.543,62.29 c 0,-6.969 -6.241,-13.988 -13.941,-13.988 -4.52,0 -8.52,1.822 -11.468,4.803 -2.548,-2.858 -6.194,-4.803 -10.247,-4.803 -7.699,0 -13.942,7.019 -13.942,13.988 0,17.902 24.75,29.249 24.75,29.249 0,0 0,-0.002 0.001,-0.014 0.539,-0.441 24.847,-11.734 24.847,-29.235 z"
       style="opacity:0.1905;fill:#ff5555" /><path
       inkscape:connector-curvature="0"
       id="path159"
       d="m 191.078,62.133 c 0,-6.845 -6.131,-13.74 -13.693,-13.74 -4.44,0 -8.368,1.789 -11.265,4.718 -2.502,-2.807 -6.084,-4.718 -10.064,-4.718 -7.563,0 -13.695,6.895 -13.695,13.74 0,17.584 24.311,28.729 24.311,28.729 0,0 0,-0.003 0.001,-0.015 0.526,-0.445 24.405,-11.524 24.405,-28.714 z"
       style="opacity:0.1429;fill:#ff5555" /><path
       inkscape:connector-curvature="0"
       id="path161"
       d="m 190.613,61.977 c 0,-6.722 -6.02,-13.492 -13.446,-13.492 -4.359,0 -8.217,1.757 -11.061,4.633 -2.457,-2.756 -5.975,-4.633 -9.883,-4.633 -7.426,0 -13.446,6.77 -13.446,13.492 0,17.266 23.869,28.209 23.869,28.209 0,0 0.001,-0.004 0.002,-0.016 0.515,-0.45 23.965,-11.315 23.965,-28.193 z"
       style="opacity:0.0952;fill:#ff5555" /><path
       inkscape:connector-curvature="0"
       id="path163"
       d="m 190.147,61.819 c 0,-6.597 -5.908,-13.243 -13.197,-13.243 -4.28,0 -8.065,1.725 -10.857,4.547 -2.411,-2.706 -5.864,-4.547 -9.7,-4.547 -7.29,0 -13.199,6.646 -13.199,13.243 0,16.948 23.43,27.689 23.43,27.689 0,0 0.001,-0.005 0.002,-0.017 0.502,-0.454 23.521,-11.104 23.521,-27.672 z"
       style="opacity:0.0476;fill:#ff5555" /><path
       inkscape:connector-curvature="0"
       id="path165"
       d="m 189.683,61.663 c 0,-6.474 -5.798,-12.994 -12.95,-12.994 -4.199,0 -7.914,1.692 -10.653,4.462 -2.366,-2.655 -5.754,-4.462 -9.519,-4.462 -7.152,0 -12.951,6.521 -12.951,12.994 0,16.63 22.99,27.169 22.99,27.169 0,0 0.001,-0.006 0.002,-0.018 0.49,-0.459 23.081,-10.895 23.081,-27.151 z"
       style="opacity:0;fill:#ff5555" /></g><path
     style="fill:#80b3ff"
     d="M165.939,188.054c0,0,13.482,14.225,7.333,28c-16.666,37.333,34,44.001,26-1.333  C199.272,214.721,196.606,192.721,165.939,188.054z"
     id="path215" /></svg>