<?xml version="1.0" encoding="UTF-8" standalone="no"?>
<!-- Generator: Adobe Illustrator 12.0.0, SVG Export Plug-In . SVG Version: 6.00 Build 51448)  -->

<svg
   xmlns:dc="http://purl.org/dc/elements/1.1/"
   xmlns:cc="http://creativecommons.org/ns#"
   xmlns:rdf="http://www.w3.org/1999/02/22-rdf-syntax-ns#"
   xmlns:svg="http://www.w3.org/2000/svg"
   xmlns="http://www.w3.org/2000/svg"
   xmlns:sodipodi="http://sodipodi.sourceforge.net/DTD/sodipodi-0.dtd"
   xmlns:inkscape="http://www.inkscape.org/namespaces/inkscape"
   version="1.1"
   id="图层_1"
   width="248"
   height="248"
   viewBox="0 0 248 248"
   style="overflow:visible;enable-background:new 0 0 248 248;"
   xml:space="preserve"
   inkscape:version="0.91 r13725"
   sodipodi:docname="face-smile-big.svg"><metadata
     id="metadata25"><rdf:RDF><cc:Work
         rdf:about=""><dc:format>image/svg+xml</dc:format><dc:type
           rdf:resource="http://purl.org/dc/dcmitype/StillImage" /><dc:title></dc:title></cc:Work></rdf:RDF></metadata><defs
     id="defs23" /><sodipodi:namedview
     pagecolor="#ffffff"
     bordercolor="#666666"
     borderopacity="1"
     objecttolerance="10"
     gridtolerance="10"
     guidetolerance="10"
     inkscape:pageopacity="0"
     inkscape:pageshadow="2"
     inkscape:window-width="1280"
     inkscape:window-height="694"
     id="namedview21"
     showgrid="false"
     inkscape:zoom="0.9516129"
     inkscape:cx="-47.288136"
     inkscape:cy="124"
     inkscape:window-x="0"
     inkscape:window-y="0"
     inkscape:window-maximized="1"
     inkscape:current-layer="图层_1" /><circle
     style="fill:#ffdd55"
     cx="124"
     cy="124"
     r="124"
     id="circle3" /><g
     id="g5"
     style="fill:#ff5555"><g
       style="opacity:0.03;fill:#ff5555"
       id="g7"><path
         d="M217.986,155.341c0,44.09-41.797,79.83-93.354,79.83c-51.561,0-93.358-35.74-93.358-79.83    c0-44.092,46.116-18.222,97.676-18.222C180.509,137.119,217.986,111.249,217.986,155.341z"
         id="path9"
         style="fill:#ff5555" /></g><g
       id="g11"
       style="fill:#ff5555"><path
         style="fill:#ff5555"
         d="M217.986,148.341c0,44.09-41.797,79.83-93.354,79.83c-51.561,0-93.358-35.74-93.358-79.83    c0-44.092,46.116-18.222,97.676-18.222C180.509,130.119,217.986,104.249,217.986,148.341z"
         id="path13" /></g></g><path
     style="fill:none;stroke:#000000;stroke-width:13;stroke-linecap:round;stroke-linejoin:round;"
     d="M61,63.668  c0-15.753,9.822-28.524,21.938-28.524s21.938,12.771,21.938,28.524"
     id="path17" /><path
     style="fill:none;stroke:#000000;stroke-width:13;stroke-linecap:round;stroke-linejoin:round;"
     d="M141.391,63.668  c0-15.753,9.822-28.524,21.938-28.524c12.116,0,21.938,12.771,21.938,28.524"
     id="path19" /></svg>