<?xml version="1.0" encoding="UTF-8" standalone="no"?>
<!-- Generator: Adobe Illustrator 12.0.0, SVG Export Plug-In . SVG Version: 6.00 Build 51448)  -->

<svg
   xmlns:dc="http://purl.org/dc/elements/1.1/"
   xmlns:cc="http://creativecommons.org/ns#"
   xmlns:rdf="http://www.w3.org/1999/02/22-rdf-syntax-ns#"
   xmlns:svg="http://www.w3.org/2000/svg"
   xmlns="http://www.w3.org/2000/svg"
   xmlns:sodipodi="http://sodipodi.sourceforge.net/DTD/sodipodi-0.dtd"
   xmlns:inkscape="http://www.inkscape.org/namespaces/inkscape"
   version="1.1"
   id="图层_1"
   width="248"
   height="248"
   viewBox="0 0 248 248"
   style="overflow:visible;enable-background:new 0 0 248 248;"
   xml:space="preserve"
   inkscape:version="0.91 r13725"
   sodipodi:docname="face-plain.svg"><metadata
     id="metadata37"><rdf:RDF><cc:Work
         rdf:about=""><dc:format>image/svg+xml</dc:format><dc:type
           rdf:resource="http://purl.org/dc/dcmitype/StillImage" /><dc:title></dc:title></cc:Work></rdf:RDF></metadata><defs
     id="defs35" /><sodipodi:namedview
     pagecolor="#ffffff"
     bordercolor="#666666"
     borderopacity="1"
     objecttolerance="10"
     gridtolerance="10"
     guidetolerance="10"
     inkscape:pageopacity="0"
     inkscape:pageshadow="2"
     inkscape:window-width="1280"
     inkscape:window-height="694"
     id="namedview33"
     showgrid="false"
     inkscape:zoom="0.9516129"
     inkscape:cx="124"
     inkscape:cy="124"
     inkscape:window-x="0"
     inkscape:window-y="0"
     inkscape:window-maximized="1"
     inkscape:current-layer="图层_1" /><circle
     style="fill:#ffdd55"
     cx="124"
     cy="124"
     r="124"
     id="circle3" /><g
     id="g5"
     style="fill:#fff6d5"><g
       style="opacity:0.03;fill:#fff6d5"
       id="g7"><ellipse
         cx="81.099"
         cy="119.711"
         rx="36.432"
         ry="32.766"
         id="ellipse9"
         style="fill:#fff6d5" /></g><g
       id="g11"
       style="fill:#fff6d5"><ellipse
         style="fill:#fff6d5"
         cx="81.099"
         cy="112.711"
         rx="36.432"
         ry="32.766"
         id="ellipse13" /></g></g><g
     id="g15"
     style="fill:#fff6d5"><g
       style="opacity:0.03;fill:#fff6d5"
       id="g17"><ellipse
         cx="163.456"
         cy="119.711"
         rx="36.432"
         ry="32.766"
         id="ellipse19"
         style="fill:#fff6d5" /></g><g
       id="g21"
       style="fill:#fff6d5"><ellipse
         style="fill:#fff6d5"
         cx="163.456"
         cy="112.711"
         rx="36.432"
         ry="32.766"
         id="ellipse23" /></g></g><circle
     cx="82.645"
     cy="132.717"
     r="7.525"
     id="circle25"
     style="fill:#2b2200" /><circle
     cx="160.399"
     cy="132.934"
     r="7.525"
     id="circle27"
     style="fill:#2b2200" /><path
     style="fill:#ffe680"
     d="M43.278,113.827c10.066,0.722,21.355,0.283,33.145-1.518c14.603-2.231,27.854-6.224,38.54-11.215  c-3.716-16.807-21.432-27.874-40.592-24.947C54.559,79.174,40.688,96.017,43.278,113.827z"
     id="path29" /><path
     style="fill:#ffe680"
     d="M200.063,115.764c-10.085,0.339-21.35-0.529-33.063-2.778c-14.506-2.785-27.597-7.279-38.085-12.672  c4.353-16.654,22.478-27.039,41.513-23.385C190.108,80.707,203.329,98.065,200.063,115.764z"
     id="path31" /><path
     inkscape:connector-curvature="0"
     style="overflow:visible;fill:#ff2a2a"
     d="m 146.9885,223.21397 c 0,6.996 -10.291,1 -22.989,1 -12.695,0 -22.988,5.996 -22.988,-1 0,-6.996 10.292,-12.667 22.988,-12.667 12.698,0 22.989,5.671 22.989,12.667 z"
     id="path25" /></svg>