<?xml version="1.0" encoding="UTF-8" standalone="no"?>
<!-- Generator: Adobe Illustrator 12.0.0, SVG Export Plug-In . SVG Version: 6.00 Build 51448)  -->

<svg
   xmlns:dc="http://purl.org/dc/elements/1.1/"
   xmlns:cc="http://creativecommons.org/ns#"
   xmlns:rdf="http://www.w3.org/1999/02/22-rdf-syntax-ns#"
   xmlns:svg="http://www.w3.org/2000/svg"
   xmlns="http://www.w3.org/2000/svg"
   xmlns:sodipodi="http://sodipodi.sourceforge.net/DTD/sodipodi-0.dtd"
   xmlns:inkscape="http://www.inkscape.org/namespaces/inkscape"
   version="1.1"
   id="图层_1"
   width="248"
   height="248"
   viewBox="0 0 248 248"
   style="overflow:visible;enable-background:new 0 0 248 248;"
   xml:space="preserve"
   inkscape:version="0.91 r13725"
   sodipodi:docname="face-worried.svg"><metadata
     id="metadata41"><rdf:RDF><cc:Work
         rdf:about=""><dc:format>image/svg+xml</dc:format><dc:type
           rdf:resource="http://purl.org/dc/dcmitype/StillImage" /><dc:title></dc:title></cc:Work></rdf:RDF></metadata><defs
     id="defs39" /><sodipodi:namedview
     pagecolor="#ffffff"
     bordercolor="#666666"
     borderopacity="1"
     objecttolerance="10"
     gridtolerance="10"
     guidetolerance="10"
     inkscape:pageopacity="0"
     inkscape:pageshadow="2"
     inkscape:window-width="1280"
     inkscape:window-height="694"
     id="namedview37"
     showgrid="false"
     inkscape:zoom="0.9516129"
     inkscape:cx="-47.288136"
     inkscape:cy="124"
     inkscape:window-x="0"
     inkscape:window-y="0"
     inkscape:window-maximized="1"
     inkscape:current-layer="图层_1" /><circle
     style="fill:#ffdd55"
     cx="124"
     cy="124"
     r="124"
     id="circle3" /><path
     style="fill:none;stroke:#000000;stroke-width:10;stroke-linecap:round;stroke-linejoin:round;"
     d="M169,33.016  c0,0,8.438,18.985,35.333,18.985"
     id="path5" /><path
     style="fill:none;stroke:#000000;stroke-width:10;stroke-linecap:round;stroke-linejoin:round;"
     d="M81.996,33.016  c0,0-7.481,16.833-31.329,16.833"
     id="path7" /><g
     id="g9"><polyline
       style="fill:none;stroke:#BF0000;stroke-width:13;stroke-linecap:round;stroke-linejoin:round;"
       points="75.667,191.668    95.265,211.668 114.864,191.668 134.463,211.668 154.064,191.668 173.667,211.668  "
       id="polyline11" /></g><g
     id="g13"
     style="fill:#fff6d5"><g
       style="opacity:0.03;fill:#fff6d5"
       id="g15"><path
         d="M116.499,102.807c0,22.498-20.279,40.736-45.295,40.736c-25.015,0-45.294-18.238-45.294-40.736    s31.469-40.736,56.484-40.736C107.409,62.071,116.499,80.31,116.499,102.807z"
         id="path17"
         style="fill:#fff6d5" /></g><g
       id="g19"
       style="fill:#fff6d5"><path
         style="fill:#fff6d5"
         d="M116.499,95.807c0,22.498-20.279,40.736-45.295,40.736c-25.015,0-45.294-18.238-45.294-40.736    s31.469-40.736,56.484-40.736C107.409,55.071,116.499,73.31,116.499,95.807z"
         id="path21" /></g></g><g
     id="g23"
     style="fill:#fff6d5"><g
       style="opacity:0.03;fill:#fff6d5"
       id="g25"><path
         d="M218.888,102.807c0,22.499-20.278,40.736-45.294,40.736c-25.017,0-45.295-18.237-45.295-40.736    c0-22.498,11.576-40.736,36.593-40.736C189.907,62.071,218.888,80.31,218.888,102.807z"
         id="path27"
         style="fill:#fff6d5" /></g><g
       id="g29"
       style="fill:#fff6d5"><path
         style="fill:#fff6d5"
         d="M218.888,95.807c0,22.499-20.278,40.736-45.294,40.736c-25.017,0-45.295-18.237-45.295-40.736    c0-22.498,11.576-40.736,36.593-40.736C189.907,55.071,218.888,73.31,218.888,95.807z"
         id="path31" /></g></g><circle
     cx="82.141"
     cy="114.92"
     r="11.141"
     id="circle33"
     style="fill:#2b2200" /><circle
     cx="164"
     cy="114.667"
     r="11.141"
     id="circle35"
     style="fill:#2b2200" /></svg>