<?xml version="1.0" encoding="UTF-8" standalone="no"?>
<svg
   xmlns:dc="http://purl.org/dc/elements/1.1/"
   xmlns:cc="http://creativecommons.org/ns#"
   xmlns:rdf="http://www.w3.org/1999/02/22-rdf-syntax-ns#"
   xmlns:svg="http://www.w3.org/2000/svg"
   xmlns="http://www.w3.org/2000/svg"
   xmlns:sodipodi="http://sodipodi.sourceforge.net/DTD/sodipodi-0.dtd"
   xmlns:inkscape="http://www.inkscape.org/namespaces/inkscape"
   viewBox="0 0 64 64"
   id="svg2"
   version="1.1"
   inkscape:version="0.91 r13725"
   sodipodi:docname="security-high.svg">
  <metadata
     id="metadata19">
    <rdf:RDF>
      <cc:Work
         rdf:about="">
        <dc:format>image/svg+xml</dc:format>
        <dc:type
           rdf:resource="http://purl.org/dc/dcmitype/StillImage" />
        <dc:title></dc:title>
      </cc:Work>
    </rdf:RDF>
  </metadata>
  <sodipodi:namedview
     pagecolor="#ffffff"
     bordercolor="#666666"
     borderopacity="1"
     objecttolerance="10"
     gridtolerance="10"
     guidetolerance="10"
     inkscape:pageopacity="0"
     inkscape:pageshadow="2"
     inkscape:window-width="1280"
     inkscape:window-height="694"
     id="namedview17"
     showgrid="false"
     inkscape:zoom="3.6875"
     inkscape:cx="-6.833543"
     inkscape:cy="32"
     inkscape:window-x="0"
     inkscape:window-y="0"
     inkscape:window-maximized="1"
     inkscape:current-layer="svg2" />
  <defs
     id="defs4">
    <linearGradient
       id="0"
       gradientUnits="userSpaceOnUse"
       y1="227.63"
       x2="0"
       y2="171.63"
       gradientTransform="matrix(1.222935,0,0,1.1433934,-901.74622,-195.54084)">
      <stop
         stop-color="#2fae61"
         id="stop7" />
      <stop
         offset="1"
         stop-color="#4bdf88"
         id="stop9" />
    </linearGradient>
  </defs>
  <path
     inkscape:connector-curvature="0"
     style="fill:#2aff80"
     id="path13"
     d="M 63.54084,13.620105 C 63.520051,12.131407 62.29467,10.902259 60.709746,10.766195 47.536291,9.6113681 36.785469,3.0322822 33.241403,0.62429577 c -0.741098,-0.50537995 -1.743906,-0.50537995 -2.485004,0 C 27.218449,3.0322822 16.46885,9.6147973 3.2941709,10.766195 1.709247,10.902259 0.48998084,12.131407 0.46307632,13.620105 0.30409476,23.335518 1.972178,56.314414 31.207662,63.657286 c 0.519747,0.129203 1.066399,0.129203 1.584924,0 29.234261,-7.332582 30.903567,-40.327484 30.744586,-50.037181" />
  <path
     style="fill:#d5ffe6;fill-opacity:1"
     inkscape:connector-curvature="0"
     id="path15"
     d="m 63.349698,35.883054 -2.73068,-3.679863 c -0.374203,-0.504279 -0.829317,-0.75739 -1.365339,-0.75739 -0.536023,0 -0.991135,0.253111 -1.36534,0.75739 L 44.717508,49.979465 38.815483,41.998638 c -0.374203,-0.504276 -0.829317,-0.757389 -1.365338,-0.757389 -0.536023,0 -0.991136,0.253113 -1.365341,0.757389 l -2.730678,3.679865 c -0.374205,0.504276 -0.562029,1.117588 -0.562029,1.83993 0,0.720398 0.187824,1.335656 0.562029,1.839933 l 7.267363,9.793502 2.730679,3.679862 c 0.374204,0.50428 0.829317,0.757391 1.36534,0.757391 0.534577,0 0.989689,-0.253111 1.365338,-0.757391 l 2.73068,-3.679862 14.534727,-19.587002 c 0.374205,-0.504279 0.562029,-1.117588 0.562029,-1.839933 0,-0.720397 -0.187824,-1.333706 -0.562029,-1.839933" />
</svg>
