<?xml version="1.0" encoding="UTF-8" standalone="no"?>
<svg
   xmlns:dc="http://purl.org/dc/elements/1.1/"
   xmlns:cc="http://creativecommons.org/ns#"
   xmlns:rdf="http://www.w3.org/1999/02/22-rdf-syntax-ns#"
   xmlns:svg="http://www.w3.org/2000/svg"
   xmlns="http://www.w3.org/2000/svg"
   xmlns:xlink="http://www.w3.org/1999/xlink"
   xmlns:sodipodi="http://sodipodi.sourceforge.net/DTD/sodipodi-0.dtd"
   xmlns:inkscape="http://www.inkscape.org/namespaces/inkscape"
   viewBox="0 0 64 64"
   id="svg2"
   version="1.1"
   inkscape:version="0.91 r13725"
   sodipodi:docname="weather-showers-day.svg">
  <metadata
     id="metadata42">
    <rdf:RDF>
      <cc:Work
         rdf:about="">
        <dc:format>image/svg+xml</dc:format>
        <dc:type
           rdf:resource="http://purl.org/dc/dcmitype/StillImage" />
        <dc:title></dc:title>
      </cc:Work>
    </rdf:RDF>
  </metadata>
  <sodipodi:namedview
     pagecolor="#ffffff"
     bordercolor="#666666"
     borderopacity="1"
     objecttolerance="10"
     gridtolerance="10"
     guidetolerance="10"
     inkscape:pageopacity="0"
     inkscape:pageshadow="2"
     inkscape:window-width="1280"
     inkscape:window-height="694"
     id="namedview40"
     showgrid="false"
     inkscape:zoom="3.6875"
     inkscape:cx="-20.475804"
     inkscape:cy="32"
     inkscape:window-x="0"
     inkscape:window-y="0"
     inkscape:window-maximized="1"
     inkscape:current-layer="svg2" />
  <defs
     id="defs4">
    <linearGradient
       gradientUnits="userSpaceOnUse"
       y2="-319.08"
       x2="-468.49"
       y1="-312.27"
       x1="-469.92"
       id="4"
       xlink:href="#3" />
    <linearGradient
       gradientUnits="userSpaceOnUse"
       y2="-328.04"
       x2="-459.26"
       y1="-321.29"
       x1="-460.94"
       id="5"
       xlink:href="#3" />
    <linearGradient
       id="3">
      <stop
         stop-color="#add4e9"
         id="stop9" />
      <stop
         offset="1"
         stop-color="#f0fbfe"
         id="stop11" />
    </linearGradient>
    <linearGradient
       gradientTransform="matrix(1.6204799,0,0,1.1420666,-591.89756,-582.20159)"
       id="1"
       gradientUnits="userSpaceOnUse"
       x1="395.48"
       y1="551.32"
       x2="395.24"
       y2="535.55">
      <stop
         stop-color="#b7d7e1"
         id="stop14" />
      <stop
         offset="1"
         stop-color="#fff"
         id="stop16" />
    </linearGradient>
    <linearGradient
       y2="511.03"
       x2="304.72"
       y1="541.42"
       x1="305.68"
       gradientUnits="userSpaceOnUse"
       id="0"
       gradientTransform="matrix(2.0077208,0,0,2.0009595,-580.88445,-1021.462)">
      <stop
         stop-color="#ff9300"
         id="stop19" />
      <stop
         offset="1"
         stop-color="#ffd702"
         id="stop21" />
    </linearGradient>
    <linearGradient
       gradientUnits="userSpaceOnUse"
       y2="-326.68"
       x2="-476.4"
       y1="-320"
       x1="-478.33"
       id="2"
       xlink:href="#3" />
  </defs>
  <g
     id="g3"
     transform="matrix(0.13053603,0,0,0.12821648,0.08912841,0.65844608)">
    <rect
       x="88.845001"
       y="426.23001"
       style="fill:#d1e7f8"
       width="40"
       height="64.769997"
       id="rect5" />
    <path
       style="fill:#d1e7f8"
       d="m 108.846,349.208 c -6.837,0 -13.521,-0.66 -20,-1.905 l 0,42.004 40,0 0,-40.099 -20,0 z"
       id="path7"
       inkscape:connector-curvature="0" />
    <rect
       x="177.04601"
       y="349.20801"
       style="fill:#d1e7f8"
       width="40"
       height="141.791"
       id="rect9" />
    <rect
       x="265.24701"
       y="446.23001"
       style="fill:#bddbff"
       width="40"
       height="44.77"
       id="rect11" />
    <rect
       x="265.24701"
       y="349.20801"
       style="fill:#bddbff"
       width="40"
       height="60.098999"
       id="rect13" />
    <path
       style="fill:#bddbff"
       d="m 373.446,349.208 -20,0 0,141.791 40,0 0,-143.696 c -6.478,1.245 -13.163,1.905 -20,1.905 z"
       id="path15"
       inkscape:connector-curvature="0" />
    <path
       style="fill:#bddbff"
       d="m 241.146,20.25 c -12.659,0 -24.991,1.55 -36.81,4.467 -55.463,13.693 -99.559,57.644 -112.534,114.336 -50.244,8.175 -88.72,51.875 -88.72,104.391 0,58.318 47.445,105.763 105.763,105.763 l 132.3,0 0,-328.957 z"
       id="path17"
       inkscape:connector-curvature="0" />
    <path
       style="fill:#9bc9ff"
       d="M 390.489,139.054 C 374.75,70.282 313.218,20.25 241.146,20.25 l 0,328.958 132.3,0 c 58.318,0 105.763,-47.445 105.763,-105.763 0,-20.127 -5.657,-38.956 -15.457,-54.99 -15.769,-25.801 -42.275,-44.359 -73.263,-49.401 z"
       id="path19"
       inkscape:connector-curvature="0" />
    <path
       style="fill:#ffcd00"
       d="M 459.575,102.872 C 457.075,91.044 452.405,80.008 446.002,70.2 L 466.071,50.131 437.786,21.847 417.717,41.916 C 407.909,35.513 396.874,30.843 385.045,28.343 l 0,-28.343 -40,0 0,28.368 c -10.252,2.174 -20.11,6.001 -29.145,11.328 36.456,20.387 63.9,55.294 74.122,97.413 l 2.172,2.242 c 22.251,3.998 42.107,14.976 57.214,30.581 4.713,-8.46 8.135,-17.58 10.14,-27.061 l 28.368,0 0,-40 -28.341,0 z"
       id="path21"
       inkscape:connector-curvature="0" />
  </g>
</svg>
