<?xml version="1.0" encoding="UTF-8" standalone="no"?>
<svg
   xmlns:dc="http://purl.org/dc/elements/1.1/"
   xmlns:cc="http://creativecommons.org/ns#"
   xmlns:rdf="http://www.w3.org/1999/02/22-rdf-syntax-ns#"
   xmlns:svg="http://www.w3.org/2000/svg"
   xmlns="http://www.w3.org/2000/svg"
   xmlns:sodipodi="http://sodipodi.sourceforge.net/DTD/sodipodi-0.dtd"
   xmlns:inkscape="http://www.inkscape.org/namespaces/inkscape"
   viewBox="0 0 64 64"
   id="svg2"
   version="1.1"
   inkscape:version="0.91 r13725"
   sodipodi:docname="application-x-keepass2.svg">
  <metadata
     id="metadata19">
    <rdf:RDF>
      <cc:Work
         rdf:about="">
        <dc:format>image/svg+xml</dc:format>
        <dc:type
           rdf:resource="http://purl.org/dc/dcmitype/StillImage" />
        <dc:title></dc:title>
      </cc:Work>
    </rdf:RDF>
  </metadata>
  <sodipodi:namedview
     pagecolor="#ffffff"
     bordercolor="#666666"
     borderopacity="1"
     objecttolerance="10"
     gridtolerance="10"
     guidetolerance="10"
     inkscape:pageopacity="0"
     inkscape:pageshadow="2"
     inkscape:window-width="1280"
     inkscape:window-height="694"
     id="namedview17"
     showgrid="true"
     inkscape:zoom="3.6875"
     inkscape:cx="-33.239973"
     inkscape:cy="32"
     inkscape:window-x="0"
     inkscape:window-y="0"
     inkscape:window-maximized="1"
     inkscape:current-layer="svg2">
    <inkscape:grid
       type="xygrid"
       id="grid4143" />
  </sodipodi:namedview>
  <defs
     id="defs4">
    <linearGradient
       id="0"
       x1="-74.929"
       y1="52.2"
       x2="-75.26"
       y2="2.356"
       gradientUnits="userSpaceOnUse"
       gradientTransform="matrix(1.07499,0,0,1.02929,113.079,0.074)">
      <stop
         stop-color="#8294a4"
         id="stop7" />
      <stop
         offset="1"
         stop-color="#aeb6be"
         id="stop9" />
    </linearGradient>
  </defs>
  <rect
     style="fill:#939dac"
     id="rect13"
     rx="3.6093991"
     y="0.65025425"
     x="0.50847554"
     height="52.936779"
     width="63.525421" />
  <path
     d="m 56.414233,45.457703 c -1.630213,-2.106632 -4.448332,-2.743872 -6.848764,-2.856685 -0.323394,-0.43228 -0.735311,-0.838812 -1.239029,-1.203789 -1.36323,-0.987762 -3.175632,-1.531612 -5.103363,-1.531612 -1.927894,0 -3.740295,0.54385 -5.103382,1.531612 -1.991632,1.443079 -2.632813,3.541015 -1.702214,5.43941 l -9.47876,6.867922 c -0.12741,0.09248 -0.206975,0.214108 -0.224427,0.344198 l -0.164502,1.216663 c -0.02274,0.168146 0.05952,0.334824 0.224442,0.4543 l 2.065967,1.496944 c 0.128661,0.09328 0.298464,0.150869 0.479724,0.162951 l 0.872748,0.05815 c 0.02384,0.0015 0.04767,0.0024 0.07129,0.0024 0.205571,0 0.404123,-0.05907 0.550939,-0.165324 l 1.59093,-1.152747 c 0.146223,-0.105922 0.228171,-0.249565 0.228171,-0.399305 l 0,-0.115973 0.160021,0 c 0.206666,0 0.40491,-0.05951 0.551098,-0.165437 l 0.313108,-0.226868 c 0.146045,-0.105922 0.22817,-0.249565 0.22817,-0.399192 l 0,-0.883983 1.219999,0 c 0.206667,0 0.404911,-0.05951 0.551098,-0.165323 l 1.099992,-0.797032 c 0.146224,-0.105922 0.22817,-0.249451 0.22817,-0.399305 l 0,-0.06945 0.09587,0 c 0.206667,0 0.404911,-0.05951 0.551098,-0.165324 l 1.01973,-0.738873 c 0.146224,-0.105925 0.22817,-0.249566 0.22817,-0.399306 l 0,-0.232401 0.320742,0 c 0.206666,0 0.404911,-0.05951 0.551098,-0.165323 l 1.067432,-0.773429 c 0.77115,0.19762 1.578157,0.29756 2.40604,0.29756 1.926962,0 3.738431,-0.543513 5.100891,-1.53071 1.866017,-1.352174 2.493165,-3.266266 1.884402,-4.997193 1.80819,0.186102 3.720027,0.762023 4.844032,2.214476 1.985092,2.565222 0.259797,4.836047 -0.719722,5.80608 l -5.081088,-0.799177 c -0.258401,-0.04076 -0.528807,0.0166 -0.716299,0.152563 l -8.953379,6.48734 c -0.146224,0.105922 -0.22817,0.249566 -0.22817,0.399305 0,0.14974 0.08207,0.293382 0.22817,0.399306 l 6.674352,4.835934 c 0.152316,0.110212 0.3516,0.165324 0.551099,0.165324 0.199498,0 0.398817,-0.05511 0.551097,-0.165324 l 8.95338,-6.487248 c 0.187492,-0.13585 0.26666,-0.331325 0.210554,-0.519006 l -1.093917,-3.651344 c 0.410663,-0.389594 0.976723,-1.005943 1.416845,-1.789083 1.027059,-1.829512 0.877449,-3.692223 -0.433886,-5.386674 z M 45.4396,44.942083 c -0.53567,0 -1.039227,-0.151095 -1.4181,-0.425617 -0.781902,-0.566662 -0.781902,-1.488475 0,-2.055024 0.378873,-0.274522 0.882592,-0.425617 1.418261,-0.425617 0.535651,0 1.039209,0.151207 1.418082,0.425617 0.08082,0.05861 0.152316,0.122073 0.217257,0.18836 -1.037345,0.08492 -1.747086,0.220996 -1.841235,0.239629 -0.415034,0.08232 -0.659404,0.392869 -0.545632,0.693703 0.113609,0.300721 0.54221,0.477676 0.957406,0.395353 0.02169,-0.0043 0.728143,-0.139802 1.762997,-0.212752 -0.0749,0.282766 -0.263704,0.542834 -0.550793,0.750844 -0.378873,0.274297 -0.882592,0.425504 -1.418243,0.425504 z"
     id="path3"
     inkscape:connector-curvature="0"
     style="fill:#4d4d4d" />
</svg>
