<?xml version="1.0" encoding="UTF-8" standalone="no"?>
<svg
   xmlns:dc="http://purl.org/dc/elements/1.1/"
   xmlns:cc="http://creativecommons.org/ns#"
   xmlns:rdf="http://www.w3.org/1999/02/22-rdf-syntax-ns#"
   xmlns:svg="http://www.w3.org/2000/svg"
   xmlns="http://www.w3.org/2000/svg"
   xmlns:sodipodi="http://sodipodi.sourceforge.net/DTD/sodipodi-0.dtd"
   xmlns:inkscape="http://www.inkscape.org/namespaces/inkscape"
   viewBox="0 0 64 64"
   id="svg2"
   version="1.1"
   inkscape:version="0.91 r13725"
   sodipodi:docname="application-dll.svg">
  <metadata
     id="metadata31">
    <rdf:RDF>
      <cc:Work
         rdf:about="">
        <dc:format>image/svg+xml</dc:format>
        <dc:type
           rdf:resource="http://purl.org/dc/dcmitype/StillImage" />
        <dc:title></dc:title>
      </cc:Work>
    </rdf:RDF>
  </metadata>
  <sodipodi:namedview
     pagecolor="#ffffff"
     bordercolor="#666666"
     borderopacity="1"
     objecttolerance="10"
     gridtolerance="10"
     guidetolerance="10"
     inkscape:pageopacity="0"
     inkscape:pageshadow="2"
     inkscape:window-width="1280"
     inkscape:window-height="694"
     id="namedview29"
     showgrid="true"
     inkscape:zoom="3.6875"
     inkscape:cx="-51.422989"
     inkscape:cy="32"
     inkscape:window-x="0"
     inkscape:window-y="0"
     inkscape:window-maximized="1"
     inkscape:current-layer="svg2">
    <inkscape:grid
       type="xygrid"
       id="grid4143" />
  </sodipodi:namedview>
  <defs
     id="defs4">
    <linearGradient
       id="0"
       x1="-74.929"
       y1="52.2"
       x2="-75.26"
       y2="2.356"
       gradientUnits="userSpaceOnUse"
       gradientTransform="matrix(1.07499,0,0,1.02929,113.079,0.074)">
      <stop
         stop-color="#8294a4"
         id="stop7" />
      <stop
         offset="1"
         stop-color="#aeb6be"
         id="stop9" />
    </linearGradient>
    <linearGradient
       x1="0"
       x2="47"
       gradientUnits="userSpaceOnUse"
       id="linearGradient11">
      <stop
         stop-color="#a9a3d4"
         id="stop13" />
      <stop
         offset=".47"
         stop-color="#87baff"
         id="stop15" />
      <stop
         offset="1"
         stop-color="#89ec85"
         id="stop17" />
    </linearGradient>
  </defs>
  <rect
     style="fill:#cccccc;stroke-width:1"
     id="rect13"
     rx="3.6093991"
     y="0.37906921"
     x="0.23728788"
     height="53.207966"
     width="63.525425" />
  <g
     style="fill:#666666"
     id="g23"
     transform="matrix(1.5235931,0,0,1.3499967,79.960791,12.262672)">
    <path
       inkscape:connector-curvature="0"
       id="path25"
       transform="matrix(0.04177,0,0,0.04583,-34.743,16.18)"
       d="M 0.176,224 0.001,67.96 l 192,-26.07 0,182.11 z M 224.006,37.24 479.946,0 l 0,224 -255.94,0 z m -32,402.68 -191.84,-26.297 -0.001,-157.62 191.85,0 z"
       style="fill:#666666" />
    <path
       style="fill:#666666;fill-opacity:0.847;fill-rule:evenodd;stroke-width:1.31700003"
       inkscape:connector-curvature="0"
       id="path27"
       transform="matrix(0.04072,0,0,0.04072,-26.702,26.738)"
       d="m 294.23,131.22 c -0.425,-3.778 -4.83,-6.617 -8.639,-6.617 -12.315,0 -23.24,-7.231 -27.826,-18.414 -4.682,-11.454 -1.663,-24.812 7.515,-33.23 2.889,-2.641 3.24,-7.06 0.817,-10.133 -6.303,-8 -13.467,-15.234 -21.289,-21.5 -3.063,-2.458 -7.557,-2.116 -10.213,0.825 -8.01,8.871 -22.398,12.168 -33.516,7.529 -11.57,-4.867 -18.866,-16.591 -18.15,-29.18 0.235,-3.953 -2.654,-7.39 -6.595,-7.849 -10.04,-1.161 -20.16,-1.197 -30.23,-0.08 -3.896,0.43 -6.785,3.786 -6.654,7.689 0.438,12.461 -6.946,23.98 -18.401,28.672 -10.985,4.487 -25.27,1.218 -33.27,-7.574 -2.642,-2.896 -7.06,-3.252 -10.141,-0.853 -8.05,6.319 -15.379,13.555 -21.74,21.493 -2.481,3.086 -2.116,7.559 0.802,10.214 9.353,8.47 12.373,21.944 7.514,33.53 -4.639,11.05 -16.11,18.16 -29.24,18.16 -4.261,-0.137 -7.296,2.723 -7.762,6.597 -1.182,10.1 -1.196,20.383 -0.058,30.561 0.422,3.794 4.961,6.608 8.812,6.608 11.702,-0.299 22.937,6.946 27.65,18.415 4.698,11.454 1.678,24.804 -7.514,33.23 -2.875,2.641 -3.24,7.06 -0.817,10.126 6.244,7.953 13.409,15.19 21.259,21.508 3.079,2.481 7.559,2.131 10.228,-0.81 8.04,-8.893 22.427,-12.184 33.501,-7.536 11.599,4.852 18.895,16.575 18.18,29.17 -0.233,3.955 2.67,7.398 6.595,7.85 5.135,0.599 10.301,0.898 15.481,0.898 4.917,0 9.835,-0.27 14.752,-0.817 3.897,-0.43 6.784,-3.786 6.653,-7.696 -0.451,-12.454 6.946,-23.973 18.386,-28.657 11.06,-4.517 25.286,-1.211 33.28,7.572 2.657,2.89 7.05,3.239 10.142,0.848 8.04,-6.304 15.349,-13.534 21.74,-21.494 2.48,-3.079 2.13,-7.559 -0.803,-10.213 -9.353,-8.47 -12.388,-21.946 -7.529,-33.524 4.568,-10.899 15.612,-18.217 27.491,-18.217 l 1.662,0.043 c 3.853,0.313 7.398,-2.655 7.865,-6.588 1.184,-10.1 1.198,-20.383 0.06,-30.561 m -133.32,60.03 c -24.718,0 -44.824,-20.11 -44.824,-44.824 0,-24.717 20.11,-44.824 44.824,-44.824 24.717,0 44.823,20.11 44.823,44.824 0,24.718 -20.11,44.824 -44.823,44.824" />
  </g>
</svg>
