<?xml version="1.0" encoding="UTF-8" standalone="no"?>
<svg
   xmlns:dc="http://purl.org/dc/elements/1.1/"
   xmlns:cc="http://creativecommons.org/ns#"
   xmlns:rdf="http://www.w3.org/1999/02/22-rdf-syntax-ns#"
   xmlns:svg="http://www.w3.org/2000/svg"
   xmlns="http://www.w3.org/2000/svg"
   xmlns:sodipodi="http://sodipodi.sourceforge.net/DTD/sodipodi-0.dtd"
   xmlns:inkscape="http://www.inkscape.org/namespaces/inkscape"
   viewBox="0 0 64 64"
   id="svg2"
   version="1.1"
   inkscape:version="0.91 r13725"
   sodipodi:docname="application-x-smb-server.svg">
  <metadata
     id="metadata23">
    <rdf:RDF>
      <cc:Work
         rdf:about="">
        <dc:format>image/svg+xml</dc:format>
        <dc:type
           rdf:resource="http://purl.org/dc/dcmitype/StillImage" />
        <dc:title></dc:title>
      </cc:Work>
    </rdf:RDF>
  </metadata>
  <sodipodi:namedview
     pagecolor="#ffffff"
     bordercolor="#666666"
     borderopacity="1"
     objecttolerance="10"
     gridtolerance="10"
     guidetolerance="10"
     inkscape:pageopacity="0"
     inkscape:pageshadow="2"
     inkscape:window-width="1280"
     inkscape:window-height="694"
     id="namedview21"
     showgrid="true"
     inkscape:zoom="3.6875"
     inkscape:cx="-12.20339"
     inkscape:cy="32"
     inkscape:window-x="0"
     inkscape:window-y="0"
     inkscape:window-maximized="1"
     inkscape:current-layer="svg2">
    <inkscape:grid
       type="xygrid"
       id="grid4151" />
  </sodipodi:namedview>
  <defs
     id="defs4">
    <linearGradient
       gradientTransform="matrix(1.5454017,0,0,0.90939295,148.6959,-1.0894504)"
       gradientUnits="userSpaceOnUse"
       y2="2.356"
       x2="-75.26"
       y1="52.2"
       x1="-74.929"
       id="0">
      <stop
         stop-color="#197cf1"
         id="stop7" />
      <stop
         offset="1"
         stop-color="#20bcfa"
         id="stop9" />
    </linearGradient>
  </defs>
  <rect
     style="fill:url(#0);stroke-width:1"
     id="rect13"
     rx="3.5939908"
     width="63.254234"
     height="53.479149"
     x="0.50847459"
     y="0.37806752" />
  <g
     style="fill:#aaccff"
     id="g15"
     transform="matrix(1.4073961,0,0,1.167604,-24.997999,22.847706)">
    <path
       inkscape:connector-curvature="0"
       id="path17"
       transform="matrix(1.6923,0,0,1.6923,-630.1,-881.48)"
       d="m 397.37,530.94 c 0.141,0 0.278,0.02 0.407,0.061 0.488,-0.546 1.028,-1.044 1.613,-1.484 -0.025,-0.103 -0.038,-0.211 -0.038,-0.321 0,-0.153 0.026,-0.301 0.072,-0.439 -0.656,-0.469 -1.369,-0.864 -2.127,-1.169 -0.71,0.439 -1.33,1.011 -1.824,1.682 0.367,0.65 0.803,1.255 1.299,1.807 0.181,-0.088 0.384,-0.137 0.599,-0.137 m -1.383,1.383 c 0,-0.194 0.041,-0.379 0.112,-0.546 -0.444,-0.489 -0.846,-1.015 -1.198,-1.575 -0.442,0.878 -0.692,1.869 -0.692,2.919 0,1.215 0.335,2.351 0.915,3.324 0.208,-1.169 0.601,-2.274 1.145,-3.287 -0.177,-0.232 -0.282,-0.522 -0.282,-0.835 m 4.748,-4.51 c 0.365,0 0.696,0.142 0.944,0.374 0.721,-0.31 1.481,-0.549 2.271,-0.701 -0.955,-0.55 -2.061,-0.866 -3.241,-0.866 -0.805,0 -1.575,0.148 -2.286,0.415 0.565,0.279 1.103,0.604 1.609,0.971 0.206,-0.123 0.446,-0.194 0.703,-0.194 m 2.067,6.513 c 0.086,-0.179 0.208,-0.338 0.36,-0.463 -0.408,-1.255 -1.055,-2.405 -1.888,-3.393 -0.165,0.071 -0.348,0.109 -0.54,0.109 -0.3,0 -0.577,-0.097 -0.803,-0.258 -0.502,0.381 -0.966,0.808 -1.388,1.274 0.133,0.211 0.21,0.461 0.21,0.728 0,0.143 -0.022,0.283 -0.064,0.414 1.213,0.81 2.61,1.366 4.113,1.59 m 1.794,1.867 c 0.018,0.262 0.029,0.526 0.029,0.792 0,0.469 -0.03,0.931 -0.086,1.385 1.102,-0.805 1.942,-1.949 2.365,-3.278 -0.502,0.122 -1.016,0.208 -1.541,0.258 -0.122,0.379 -0.404,0.685 -0.767,0.842 m -2.117,-0.938 c -1.605,-0.266 -3.092,-0.879 -4.387,-1.755 -0.211,0.129 -0.457,0.204 -0.721,0.204 -0.098,0 -0.192,-10e-4 -0.284,-0.029 -0.62,1.174 -1.016,2.485 -1.13,3.875 0.619,0.664 1.373,1.199 2.222,1.558 1.054,-1.62 2.527,-2.96 4.301,-3.853 m 2.594,-6.954 c -1.042,0.101 -2.037,0.363 -2.962,0.755 0.004,0.047 0.007,0.093 0.007,0.139 0,0.218 -0.052,0.424 -0.142,0.607 0.926,1.087 1.644,2.353 2.098,3.738 0.563,0.011 1.044,0.355 1.251,0.844 0.626,-0.064 1.235,-0.184 1.821,-0.356 0.042,-0.297 0.065,-0.601 0.065,-0.909 -1e-4,-1.91 -0.825,-3.629 -2.137,-4.818 m -1.898,7.693 c -1.656,0.776 -3.041,1.97 -4.04,3.431 0.505,0.126 1.034,0.194 1.578,0.194 0.98,0 1.909,-0.218 2.743,-0.607 0.134,-0.656 0.205,-1.333 0.205,-2.027 0,-0.251 -0.011,-0.5 -0.03,-0.745 -0.167,-0.054 -0.32,-0.136 -0.452,-0.246"
       style="fill:#aaccff" />
    <path
       inkscape:connector-curvature="0"
       id="path19"
       transform="matrix(0.04715,0,0,0.04715,-16.233,16.465)"
       d="m 1426.97,359.05 72.78,0 0,13.287 -72.66,0 0,0.623 c 0,8.395 -6.796,15.19 -15.18,15.19 l -98.57,0 c -8.383,0 -15.186,-6.796 -15.186,-15.19 l 0,-0.623 -72.65,0 0,-13.287 72.78,0 c 0.648,-7.792 7.105,-13.92 15.06,-13.92 l 30.25,0 0,-30.358 c 0,-8.384 6.795,-15.191 15.179,-15.191 l 7.592,0 c 8.385,0 15.182,6.808 15.182,15.191 l 0,30.358 30.369,0 c 7.956,0 14.403,6.14 15.06,13.92"
       style="fill:#aaccff" />
  </g>
</svg>
