<?xml version="1.0" encoding="UTF-8" standalone="no"?>
<svg
   xmlns:dc="http://purl.org/dc/elements/1.1/"
   xmlns:cc="http://creativecommons.org/ns#"
   xmlns:rdf="http://www.w3.org/1999/02/22-rdf-syntax-ns#"
   xmlns:svg="http://www.w3.org/2000/svg"
   xmlns="http://www.w3.org/2000/svg"
   xmlns:xlink="http://www.w3.org/1999/xlink"
   xmlns:sodipodi="http://sodipodi.sourceforge.net/DTD/sodipodi-0.dtd"
   xmlns:inkscape="http://www.inkscape.org/namespaces/inkscape"
   viewBox="0 0 64 64"
   id="svg13202"
   version="1.1"
   inkscape:version="0.91 r13725"
   sodipodi:docname="folder-camera.svg">
  <metadata
     id="metadata13228">
    <rdf:RDF>
      <cc:Work
         rdf:about="">
        <dc:format>image/svg+xml</dc:format>
        <dc:type
           rdf:resource="http://purl.org/dc/dcmitype/StillImage" />
        <dc:title />
      </cc:Work>
    </rdf:RDF>
  </metadata>
  <sodipodi:namedview
     pagecolor="#ffffff"
     bordercolor="#666666"
     borderopacity="1"
     objecttolerance="10"
     gridtolerance="10"
     guidetolerance="10"
     inkscape:pageopacity="0"
     inkscape:pageshadow="2"
     inkscape:window-width="1280"
     inkscape:window-height="688"
     id="namedview13226"
     showgrid="false"
     inkscape:zoom="3.6875"
     inkscape:cx="-56"
     inkscape:cy="32"
     inkscape:window-x="0"
     inkscape:window-y="0"
     inkscape:window-maximized="1"
     inkscape:current-layer="svg13202" />
  <defs
     id="defs13204">
    <linearGradient
       xlink:href="#1"
       id="3"
       x1="-19.915"
       y1="1048.7"
       x2="-19.996"
       y2="1025.51"
       gradientUnits="userSpaceOnUse"
       gradientTransform="translate(51.949,-1001.46)" />
    <linearGradient
       gradientUnits="userSpaceOnUse"
       y2="354.29"
       x2="-704.05"
       y1="647.77"
       x1="-701.19"
       id="2"
       gradientTransform="matrix(0.01590505,0,0,0.01845141,129.51168,-45.007092)">
      <stop
         stop-color="#93cfff"
         id="stop13208" />
      <stop
         offset="1"
         stop-color="#cde8fe"
         id="stop13210" />
    </linearGradient>
    <linearGradient
       xlink:href="#1"
       id="0"
       x1="59.12"
       y1="-13.295"
       x2="59.15"
       y2="-37.783"
       gradientUnits="userSpaceOnUse"
       gradientTransform="matrix(0.52660675,0,0,0.52570737,-19.441377,28.676662)" />
    <linearGradient
       id="1">
      <stop
         stop-color="#289bf7"
         id="stop13214" />
      <stop
         offset="1"
         stop-color="#71b9f1"
         id="stop13216" />
    </linearGradient>
  </defs>
  <path
     inkscape:connector-curvature="0"
     style="fill:#00aa44"
     d="m 64.254236,18.494424 -63.96610029,0 0,-15.8870084 c 0,-1.2856144 1.01022329,-2.3277585 2.25645929,-2.3277585 l 59.453182,0 c 1.246236,0 2.256459,1.0421441 2.256459,2.3277585 l 0,15.8870084 z"
     id="path3" />
  <rect
     x="3.5967271"
     y="18.494425"
     style="fill:#00aa44"
     width="57.348919"
     height="45.497101"
     id="rect5" />
  <path
     inkscape:connector-curvature="0"
     style="fill:#005522"
     d="m 42.19696,13.943577 -19.851548,0 c -2.436226,0 -4.411455,-2.037642 -4.411455,-4.5508476 l 0,0 c 0,-2.5132056 1.975229,-4.5508476 4.411455,-4.5508476 l 19.851548,0 c 2.436226,0 4.411455,2.037642 4.411455,4.5508476 l 0,0 c 0,2.5132056 -1.975229,4.5508476 -4.411455,4.5508476 z"
     id="path7" />
  <rect
     x="3.5967271"
     y="58.302963"
     style="fill:#005522"
     width="57.348919"
     height="5.6885595"
     id="rect9" />
  <rect
     x="16.831093"
     y="27.584742"
     style="fill:#d5ffe6"
     width="30.880186"
     height="15.927967"
     id="rect11" />
  <g
     id="g13"
     transform="matrix(1.1028638,0,0,1.1377119,0.28813571,-0.8580548)"
     style="fill:#005522">
    <path
       inkscape:connector-curvature="0"
       style="fill:#005522"
       d="m 19,31 6,0 c 0.553,0 1,-0.447 1,-1 0,-0.553 -0.447,-1 -1,-1 l -6,0 c -0.553,0 -1,0.447 -1,1 0,0.553 0.447,1 1,1 z"
       id="path15" />
    <path
       inkscape:connector-curvature="0"
       style="fill:#005522"
       d="m 29,31 c 0.26,0 0.52,-0.11 0.71,-0.29 C 29.89,30.52 30,30.26 30,30 c 0,-0.261 -0.11,-0.521 -0.29,-0.71 -0.38,-0.37 -1.05,-0.37 -1.42,0 C 28.109,29.479 28,29.739 28,30 c 0,0.27 0.109,0.52 0.29,0.71 C 28.479,30.89 28.729,31 29,31 Z"
       id="path17" />
    <path
       inkscape:connector-curvature="0"
       style="fill:#005522"
       d="m 39,33 -16,0 c -0.553,0 -1,0.447 -1,1 0,0.553 0.447,1 1,1 l 16,0 c 0.553,0 1,-0.447 1,-1 0,-0.553 -0.447,-1 -1,-1 z"
       id="path19" />
    <path
       inkscape:connector-curvature="0"
       style="fill:#005522"
       d="M 18.29,33.29 C 18.109,33.479 18,33.739 18,34 c 0,0.26 0.109,0.52 0.29,0.71 0.189,0.18 0.439,0.29 0.71,0.29 0.27,0 0.52,-0.11 0.71,-0.29 C 19.89,34.52 20,34.26 20,34 c 0,-0.261 -0.11,-0.521 -0.29,-0.71 -0.37,-0.37 -1.04,-0.37 -1.42,0 z"
       id="path21" />
  </g>
  <rect
     x="3.5967271"
     y="18.483047"
     style="fill:#005522"
     width="57.348919"
     height="5.6885595"
     id="rect23" />
  <path
     inkscape:connector-curvature="0"
     style="fill:#ffffff"
     id="path24"
     d="M 63.395101,3.8443799 C 62.946636,3.3079936 62.405672,3.0397439 61.771756,3.0397439 l -2.00927,0 -0.457063,-1.4592338 C 59.191835,1.2300424 58.98412,0.9278259 58.682006,0.67397281 58.380073,0.42000741 58.070627,0.29291236 57.753669,0.29291236 l -4.592268,0 c -0.316957,0 -0.626403,0.12709505 -0.928337,0.38106045 C 51.931131,0.9280506 51.723326,1.230268 51.609738,1.5805101 l -0.457063,1.4592338 -2.00927,0 c -0.633554,0 -1.17497,0.2682497 -1.623436,0.804636 -0.448374,0.5364995 -0.672652,1.183898 -0.672652,1.9421954 l 0,9.6142477 c 0,0.758297 0.224278,1.405808 0.672652,1.942083 0.448466,0.536611 0.989521,0.80486 1.623436,0.80486 l 12.628532,0 c 0.633553,0 1.17488,-0.268249 1.623345,-0.80486 0.448375,-0.536275 0.672653,-1.183786 0.672653,-1.942083 l 0,-9.6142477 c 9e-6,-0.7582974 -0.224097,-1.4056959 -0.672472,-1.9421954 M 58.296262,13.989503 c -0.78624,0.94073 -1.732316,1.411095 -2.838682,1.411095 -1.106274,0 -2.05235,-0.470253 -2.838681,-1.411095 -0.786331,-0.940616 -1.179315,-2.072665 -1.179315,-3.395579 0,-1.3234781 0.393256,-2.4552993 1.179315,-3.3955796 0.786239,-0.9407297 1.732316,-1.4110941 2.838681,-1.4110941 1.106275,0 2.052352,0.4704768 2.838682,1.4110941 0.78633,0.9406173 1.179315,2.0725518 1.179315,3.3955796 0,1.323365 -0.393256,2.4553 -1.179315,3.395579 M 55.45758,7.5030353 c -0.71157,0 -1.319963,0.3022174 -1.825539,0.9065382 -0.505304,0.604545 -0.757911,1.3322497 -0.757911,2.1835635 0,0.851312 0.252607,1.579129 0.757911,2.183563 0.505305,0.604433 1.113606,0.906537 1.825539,0.906537 0.711481,0 1.319964,-0.302216 1.82554,-0.906537 0.505304,-0.604546 0.757911,-1.332251 0.757911,-2.183563 0,-0.8513138 -0.252607,-1.5791308 -0.757911,-2.1835635 C 56.777815,7.8050271 56.169333,7.5030353 55.45758,7.5030353" />
</svg>
