<?xml version="1.0" encoding="UTF-8" standalone="no"?>
<svg
   xmlns:dc="http://purl.org/dc/elements/1.1/"
   xmlns:cc="http://creativecommons.org/ns#"
   xmlns:rdf="http://www.w3.org/1999/02/22-rdf-syntax-ns#"
   xmlns:svg="http://www.w3.org/2000/svg"
   xmlns="http://www.w3.org/2000/svg"
   xmlns:xlink="http://www.w3.org/1999/xlink"
   xmlns:sodipodi="http://sodipodi.sourceforge.net/DTD/sodipodi-0.dtd"
   xmlns:inkscape="http://www.inkscape.org/namespaces/inkscape"
   viewBox="0 0 64 64"
   id="svg13202"
   version="1.1"
   inkscape:version="0.91 r13725"
   sodipodi:docname="folder-music.svg">
  <metadata
     id="metadata13228">
    <rdf:RDF>
      <cc:Work
         rdf:about="">
        <dc:format>image/svg+xml</dc:format>
        <dc:type
           rdf:resource="http://purl.org/dc/dcmitype/StillImage" />
        <dc:title />
      </cc:Work>
    </rdf:RDF>
  </metadata>
  <sodipodi:namedview
     pagecolor="#ffffff"
     bordercolor="#666666"
     borderopacity="1"
     objecttolerance="10"
     gridtolerance="10"
     guidetolerance="10"
     inkscape:pageopacity="0"
     inkscape:pageshadow="2"
     inkscape:window-width="1280"
     inkscape:window-height="688"
     id="namedview13226"
     showgrid="false"
     inkscape:zoom="3.6875"
     inkscape:cx="-56"
     inkscape:cy="32"
     inkscape:window-x="0"
     inkscape:window-y="0"
     inkscape:window-maximized="1"
     inkscape:current-layer="svg13202" />
  <defs
     id="defs13204">
    <linearGradient
       xlink:href="#1"
       id="3"
       x1="-19.915"
       y1="1048.7"
       x2="-19.996"
       y2="1025.51"
       gradientUnits="userSpaceOnUse"
       gradientTransform="translate(51.949,-1001.46)" />
    <linearGradient
       gradientUnits="userSpaceOnUse"
       y2="354.29"
       x2="-704.05"
       y1="647.77"
       x1="-701.19"
       id="2"
       gradientTransform="matrix(0.01590505,0,0,0.01845141,129.51168,-45.007092)">
      <stop
         stop-color="#93cfff"
         id="stop13208" />
      <stop
         offset="1"
         stop-color="#cde8fe"
         id="stop13210" />
    </linearGradient>
    <linearGradient
       xlink:href="#1"
       id="0"
       x1="59.12"
       y1="-13.295"
       x2="59.15"
       y2="-37.783"
       gradientUnits="userSpaceOnUse"
       gradientTransform="matrix(0.52660675,0,0,0.52570737,-19.441377,28.676662)" />
    <linearGradient
       id="1">
      <stop
         stop-color="#289bf7"
         id="stop13214" />
      <stop
         offset="1"
         stop-color="#71b9f1"
         id="stop13216" />
    </linearGradient>
  </defs>
  <path
     inkscape:connector-curvature="0"
     style="fill:#ffffff"
     id="path24"
     d="m 33.057406,-42.766713 c -0.810038,0.229119 -1.462203,1.140427 -1.462203,2.025649 l 0,14.035083 c -0.821482,-0.453932 -1.87639,-0.637522 -2.970427,-0.33765 -1.973722,0.541297 -3.210375,2.290576 -2.787329,3.906592 0.423046,1.615646 2.367359,2.51871 4.341204,1.977413 1.574548,-0.431782 2.659972,-1.653546 2.832611,-2.942002 l 0.04565,-13.26356 10.235299,-2.893767 0,10.465403 c -0.821482,-0.453931 -1.87639,-0.637522 -2.970427,-0.337649 -1.973722,0.541297 -3.210375,2.290576 -2.787329,3.906591 0.423046,1.615647 2.367359,2.518711 4.341204,1.977414 1.574548,-0.431783 2.659972,-1.653669 2.832611,-2.942003 l 0.04565,-17.266376 c 0,-0.663855 -0.388715,-1.160607 -0.913893,-1.254002 l -10.784102,2.942002" />
  <path
     inkscape:connector-curvature="0"
     style="fill:#00aa44"
     d="m 63.711866,18.494425 -63.42373076,0 0,-15.8870092 c 0,-1.2856144 1.00165756,-2.3277585 2.23732676,-2.3277585 l 58.949077,0 c 1.235669,0 2.237327,1.0421441 2.237327,2.3277585 l 0,15.8870092 z"
     id="path3" />
  <rect
     x="3.5686731"
     y="18.494425"
     style="fill:#00aa44"
     width="56.862656"
     height="45.497101"
     id="rect5" />
  <path
     inkscape:connector-curvature="0"
     style="fill:#005522"
     d="m 41.841614,13.943577 -19.683227,0 c -2.415569,0 -4.37405,-2.037641 -4.37405,-4.5508474 l 0,0 c 0,-2.5132056 1.958481,-4.5508476 4.37405,-4.5508476 l 19.683227,0 c 2.415569,0 4.37405,2.037642 4.37405,4.5508476 l 0,0 c 0,2.5132064 -1.958481,4.5508474 -4.37405,4.5508474 z"
     id="path7" />
  <rect
     x="3.5686731"
     y="58.302963"
     style="fill:#005522"
     width="56.862656"
     height="5.6885595"
     id="rect9" />
  <rect
     x="16.690825"
     y="27.584742"
     style="fill:#d5ffe6"
     width="30.618353"
     height="15.927967"
     id="rect11" />
  <g
     id="g13"
     transform="matrix(1.0935126,0,0,1.1377119,0.28813524,-0.8580546)"
     style="fill:#005522">
    <path
       inkscape:connector-curvature="0"
       style="fill:#005522"
       d="m 19,31 6,0 c 0.553,0 1,-0.447 1,-1 0,-0.553 -0.447,-1 -1,-1 l -6,0 c -0.553,0 -1,0.447 -1,1 0,0.553 0.447,1 1,1 z"
       id="path15" />
    <path
       inkscape:connector-curvature="0"
       style="fill:#005522"
       d="m 29,31 c 0.26,0 0.52,-0.11 0.71,-0.29 C 29.89,30.52 30,30.26 30,30 c 0,-0.261 -0.11,-0.521 -0.29,-0.71 -0.38,-0.37 -1.05,-0.37 -1.42,0 C 28.109,29.479 28,29.739 28,30 c 0,0.27 0.109,0.52 0.29,0.71 C 28.479,30.89 28.729,31 29,31 Z"
       id="path17" />
    <path
       inkscape:connector-curvature="0"
       style="fill:#005522"
       d="m 39,33 -16,0 c -0.553,0 -1,0.447 -1,1 0,0.553 0.447,1 1,1 l 16,0 c 0.553,0 1,-0.447 1,-1 0,-0.553 -0.447,-1 -1,-1 z"
       id="path19" />
    <path
       inkscape:connector-curvature="0"
       style="fill:#005522"
       d="M 18.29,33.29 C 18.109,33.479 18,33.739 18,34 c 0,0.26 0.109,0.52 0.29,0.71 0.189,0.18 0.439,0.29 0.71,0.29 0.27,0 0.52,-0.11 0.71,-0.29 C 19.89,34.52 20,34.26 20,34 c 0,-0.261 -0.11,-0.521 -0.29,-0.71 -0.37,-0.37 -1.04,-0.37 -1.42,0 z"
       id="path21" />
  </g>
  <rect
     x="3.5686731"
     y="18.483047"
     style="fill:#005522"
     width="56.862656"
     height="5.6885595"
     id="rect23" />
  <g
     id="g3"
     transform="matrix(0.03052735,0,0,0.0328191,46.372891,-0.09890955)"
     style="fill:#ffffff">
    <g
       id="g5"
       style="fill:#ffffff">
      <g
         id="g7"
         style="fill:#ffffff">
        <path
           d="m 153.704,364.272 c -29.4,0 -53.317,23.91 -53.317,53.302 0,29.399 23.919,53.319 53.317,53.319 29.393,0 53.301,-23.92 53.301,-53.319 0.002,-29.392 -23.909,-53.302 -53.301,-53.302 z"
           id="path9"
           inkscape:connector-curvature="0"
           style="fill:#ffffff" />
        <path
           d="m 499.843,12.801 -26.596,0 c -11.695,0 -21.177,19.798 -21.177,44.235 0,24.437 9.48,44.244 21.177,44.244 l 38.005,0 0,53.162 c 0,5.759 4.398,10.335 9.992,10.965 l 0,176.317 c 0,81.174 -66.032,147.207 -147.206,147.207 l -66.661,0 0,-71.246 68.578,0 c 40.818,0 74.034,-33.217 74.034,-74.033 l 0,-58.614 c 5.583,-0.648 9.974,-5.204 9.974,-10.965 l 0,-53.17 0,-25.945 0,-2.724 c 0,-33.029 -26.779,-59.811 -59.811,-59.811 l -26.597,0 c -11.694,0 -21.178,19.807 -21.178,44.244 0,24.437 9.482,44.235 21.178,44.235 l 38.012,0 0,53.17 c 0,5.761 4.391,10.317 9.974,10.965 l 0,58.614 c 0,25.142 -20.444,45.589 -45.588,45.589 l -68.578,0 0,-300.94 c 0,-20.251 -16.42,-36.671 -36.671,-36.671 l -234.035,0 C 16.418,51.629 0,68.046 0,88.3 l 0,421.884 c 0,20.25 16.418,36.668 36.669,36.668 l 234.037,0 c 17.788,0 32.595,-12.666 35.946,-29.473 l 67.386,0 c 96.858,0 175.651,-78.793 175.651,-175.652 l 0,-176.318 c 5.575,-0.649 9.964,-5.214 9.964,-10.965 l 0,-53.163 0,-25.965 0,-2.703 c 0,-33.03 -26.781,-59.812 -59.81,-59.812 z M 153.704,508.823 c -50.318,0 -91.247,-40.929 -91.247,-91.248 0,-50.3 40.929,-91.229 91.247,-91.229 50.302,0 91.231,40.928 91.231,91.229 0,50.318 -40.929,91.248 -91.231,91.248 z M 56.977,287.147 c -9.9,0 -17.93,-8.028 -17.93,-17.928 l 0,-154.789 c 0,-9.9 8.03,-17.928 17.93,-17.928 l 193.431,0 c 9.896,0 17.928,8.03 17.928,17.928 l 0,154.789 c 0,9.9 -8.03,17.928 -17.928,17.928 l -193.431,0 0,0 z"
           id="path11"
           inkscape:connector-curvature="0"
           style="fill:#ffffff" />
      </g>
    </g>
  </g>
</svg>
