<?xml version="1.0" encoding="UTF-8" standalone="no"?>
<!-- Generator: Adobe Illustrator 19.0.0, SVG Export Plug-In . SVG Version: 6.00 Build 0)  -->

<svg
   xmlns:dc="http://purl.org/dc/elements/1.1/"
   xmlns:cc="http://creativecommons.org/ns#"
   xmlns:rdf="http://www.w3.org/1999/02/22-rdf-syntax-ns#"
   xmlns:svg="http://www.w3.org/2000/svg"
   xmlns="http://www.w3.org/2000/svg"
   xmlns:sodipodi="http://sodipodi.sourceforge.net/DTD/sodipodi-0.dtd"
   xmlns:inkscape="http://www.inkscape.org/namespaces/inkscape"
   version="1.1"
   id="Capa_1"
   x="0px"
   y="0px"
   viewBox="0 0 57.912 57.912"
   style="enable-background:new 0 0 57.912 57.912;"
   xml:space="preserve"
   inkscape:version="0.91 r13725"
   sodipodi:docname="folder-open.svg"><metadata
     id="metadata59"><rdf:RDF><cc:Work
         rdf:about=""><dc:format>image/svg+xml</dc:format><dc:type
           rdf:resource="http://purl.org/dc/dcmitype/StillImage" /><dc:title /></cc:Work></rdf:RDF></metadata><defs
     id="defs57" /><sodipodi:namedview
     pagecolor="#ffffff"
     bordercolor="#666666"
     borderopacity="1"
     objecttolerance="10"
     gridtolerance="10"
     guidetolerance="10"
     inkscape:pageopacity="0"
     inkscape:pageshadow="2"
     inkscape:window-width="1280"
     inkscape:window-height="688"
     id="namedview55"
     showgrid="false"
     inkscape:zoom="4.0751486"
     inkscape:cx="-47.728321"
     inkscape:cy="28.955999"
     inkscape:window-x="0"
     inkscape:window-y="0"
     inkscape:window-maximized="1"
     inkscape:current-layer="Capa_1" /><rect
     x="8"
     y="15.956"
     style="fill:#ffccaa"
     width="42"
     height="3"
     id="rect9" /><path
     inkscape:connector-curvature="0"
     id="path5"
     d="M 54,22.574321 54,6.3732857 C 54,5.9223115 53.656,5.5564268 53.232,5.5564268 l -30.797,0 c -0.27,0 -0.52,-0.1499702 -0.658,-0.3967297 L 19.224,0.63400084 C 19.085,0.38830498 18.835,0.23727117 18.566,0.23727117 l -13.798,0 C 4.344,0.23833479 4,0.60421952 4,1.0551937 l 0,21.5191273 50,0 z"
     style="fill:#005522" /><rect
     x="7"
     y="18.319847"
     style="fill:#d5ffe6"
     width="44"
     height="4.2544737"
     id="rect7" /><rect
     x="9"
     y="11.938138"
     style="fill:#008033"
     width="40"
     height="3.1908553"
     id="rect11" /><path
     inkscape:connector-curvature="0"
     style="fill:#00aa44"
     d="m 52.723,57.673728 -47.534,0 c -0.134,0 -0.248,-0.104234 -0.268,-0.244632 L 0.003,22.90617 c -0.025,-0.174433 0.102,-0.331849 0.268,-0.331849 l 57.37,0 c 0.166,0 0.293,0.157416 0.268,0.331849 l -4.918,34.522926 c -0.02,0.140398 -0.134,0.244632 -0.268,0.244632 z"
     id="path13" /><rect
     x="26.955999"
     y="37.464981"
     style="fill:#d5ffe6"
     width="19"
     height="12.763421"
     id="rect15" /><g
     id="g17"
     style="fill:#005522"
     transform="matrix(1,0,0,1.0636184,0,-1.8421028)"><path
       inkscape:connector-curvature="0"
       style="fill:#005522"
       d="m 30.956,41.956 4,0 c 0.553,0 1,-0.447 1,-1 0,-0.553 -0.447,-1 -1,-1 l -4,0 c -0.553,0 -1,0.447 -1,1 0,0.553 0.447,1 1,1 z"
       id="path19" /><path
       inkscape:connector-curvature="0"
       style="fill:#005522"
       d="m 38.956,41.956 1,0 c 0.553,0 1,-0.447 1,-1 0,-0.553 -0.447,-1 -1,-1 l -1,0 c -0.553,0 -1,0.447 -1,1 0,0.553 0.447,1 1,1 z"
       id="path21" /><path
       inkscape:connector-curvature="0"
       style="fill:#005522"
       d="m 41.956,43.956 -11,0 c -0.553,0 -1,0.447 -1,1 0,0.553 0.447,1 1,1 l 11,0 c 0.553,0 1,-0.447 1,-1 0,-0.553 -0.447,-1 -1,-1 z"
       id="path23" /></g><g
     id="g25" /><g
     id="g27" /><g
     id="g29" /><g
     id="g31" /><g
     id="g33" /><g
     id="g35" /><g
     id="g37" /><g
     id="g39" /><g
     id="g41" /><g
     id="g43" /><g
     id="g45" /><g
     id="g47" /><g
     id="g49" /><g
     id="g51" /><g
     id="g53" /></svg>