<?xml version="1.0" encoding="UTF-8" standalone="no"?>
<svg
   xmlns:dc="http://purl.org/dc/elements/1.1/"
   xmlns:cc="http://creativecommons.org/ns#"
   xmlns:rdf="http://www.w3.org/1999/02/22-rdf-syntax-ns#"
   xmlns:svg="http://www.w3.org/2000/svg"
   xmlns="http://www.w3.org/2000/svg"
   xmlns:xlink="http://www.w3.org/1999/xlink"
   xmlns:sodipodi="http://sodipodi.sourceforge.net/DTD/sodipodi-0.dtd"
   xmlns:inkscape="http://www.inkscape.org/namespaces/inkscape"
   viewBox="0 0 64 64"
   id="svg2"
   version="1.1"
   inkscape:version="0.91 r13725"
   sodipodi:docname="weather-showers-night.svg">
  <metadata
     id="metadata58">
    <rdf:RDF>
      <cc:Work
         rdf:about="">
        <dc:format>image/svg+xml</dc:format>
        <dc:type
           rdf:resource="http://purl.org/dc/dcmitype/StillImage" />
        <dc:title></dc:title>
      </cc:Work>
    </rdf:RDF>
  </metadata>
  <sodipodi:namedview
     pagecolor="#ffffff"
     bordercolor="#666666"
     borderopacity="1"
     objecttolerance="10"
     gridtolerance="10"
     guidetolerance="10"
     inkscape:pageopacity="0"
     inkscape:pageshadow="2"
     inkscape:window-width="1280"
     inkscape:window-height="694"
     id="namedview56"
     showgrid="false"
     inkscape:zoom="3.6875"
     inkscape:cx="-44.781962"
     inkscape:cy="32"
     inkscape:window-x="0"
     inkscape:window-y="0"
     inkscape:window-maximized="1"
     inkscape:current-layer="svg2" />
  <defs
     id="defs4">
    <linearGradient
       gradientUnits="userSpaceOnUse"
       y2="-328.04"
       x2="-459.26"
       y1="-321.29"
       x1="-460.94"
       id="9"
       xlink:href="#7"
       gradientTransform="matrix(0.86531017,0,0,0.86531017,437.72959,327.67281)" />
    <linearGradient
       gradientUnits="userSpaceOnUse"
       y2="-326.68"
       x2="-476.4"
       y1="-320"
       x1="-478.33"
       id="6"
       xlink:href="#7"
       gradientTransform="matrix(0.86531017,0,0,0.86531017,437.72959,327.67281)" />
    <linearGradient
       xlink:href="#7"
       id="8"
       gradientUnits="userSpaceOnUse"
       x1="-469.92"
       y1="-312.27"
       x2="-468.49"
       y2="-319.08"
       gradientTransform="matrix(0.86531017,0,0,0.86531017,437.72959,327.67281)" />
    <linearGradient
       id="7">
      <stop
         stop-color="#add4e9"
         id="stop10" />
      <stop
         offset="1"
         stop-color="#f0fbfe"
         id="stop12" />
    </linearGradient>
    <linearGradient
       id="5"
       gradientUnits="userSpaceOnUse"
       gradientTransform="matrix(1.9479038,0,0,1.9583654,-734.88613,-1035.722)"
       x1="395.48"
       y1="551.32"
       x2="395.24"
       y2="535.55">
      <stop
         stop-color="#b7d7e1"
         id="stop15" />
      <stop
         offset="1"
         stop-color="#fff"
         id="stop17" />
    </linearGradient>
    <linearGradient
       gradientUnits="userSpaceOnUse"
       y2="-16.683"
       x2="95.62"
       y1="320.21"
       x1="151.76"
       id="0"
       gradientTransform="matrix(-0.10112503,0,0,0.10112503,40.430373,5.9831519)">
      <stop
         stop-color="#92ccff"
         id="stop20" />
      <stop
         offset="1"
         stop-color="#e5f9fd"
         id="stop22" />
    </linearGradient>
    <linearGradient
       gradientUnits="userSpaceOnUse"
       y2="5.526"
       x2="18.17"
       y1="8.935"
       x1="21.58"
       id="4"
       xlink:href="#2" />
    <linearGradient
       gradientUnits="userSpaceOnUse"
       y2="2.117"
       x2="0"
       y1="8.935"
       id="1"
       xlink:href="#2" />
    <linearGradient
       gradientUnits="userSpaceOnUse"
       y2="8.935"
       x2="0"
       y1="15.753"
       id="3"
       xlink:href="#2" />
    <linearGradient
       id="2">
      <stop
         stop-color="#ff9300"
         id="stop28" />
      <stop
         offset="1"
         stop-color="#ffd702"
         id="stop30" />
    </linearGradient>
  </defs>
  <g
     id="g4185"
     transform="matrix(0.1313922,0,0,0.12805359,-0.2439133,0.443206)">
    <rect
       id="rect3"
       height="44.769001"
       width="40"
       style="fill:#2488ff"
       y="448.099"
       x="270.51801" />
    <g
       id="g5">
      <path
         id="path7"
         d="m 371.329,86.509 c 11.435,16.047 19.877,34.437 24.449,54.414 20.953,3.409 39.856,13.001 54.779,26.829 11.56,-9.694 20.77,-22.11 26.69,-36.402 C 497.293,82.954 474.228,27.272 425.833,7.227 410.427,0.845 393.56,-1.369 377.054,0.821 l -34.26,4.546 21.012,27.44 c 11.739,15.331 14.584,35.827 7.523,53.702 z"
         style="fill:#ffde55"
         inkscape:connector-curvature="0" />
      <path
         id="path9"
         d="m 246.434,22.119 c -12.659,0 -24.991,1.55 -36.81,4.467 -55.463,13.693 -99.559,57.644 -112.533,114.336 -50.244,8.175 -88.72,51.875 -88.72,104.391 0,58.318 47.445,105.763 105.763,105.763 l 132.3,0 0,-328.957 z"
         style="fill:#2488ff"
         inkscape:connector-curvature="0" />
      <path
         id="path11"
         d="M 395.777,140.922 C 380.038,72.15 318.506,22.119 246.434,22.119 l 0,328.958 132.3,0 c 58.318,0 105.763,-47.445 105.763,-105.763 0,-20.127 -5.657,-38.956 -15.457,-54.99 -15.769,-25.802 -42.276,-44.36 -73.263,-49.402 z"
         style="fill:#006df0"
         inkscape:connector-curvature="0" />
      <rect
         id="rect13"
         height="64.768997"
         width="40"
         style="fill:#57a4ff"
         y="428.099"
         x="94.117996" />
      <path
         id="path15"
         d="m 114.134,351.076 c -6.842,0 -13.532,-0.661 -20.016,-1.908 l 0,42.008 40,0 0,-40.1 -19.984,0 z"
         style="fill:#57a4ff"
         inkscape:connector-curvature="0" />
      <rect
         id="rect17"
         height="141.79201"
         width="40"
         style="fill:#57a4ff"
         y="351.07599"
         x="182.31799" />
      <rect
         id="rect19"
         height="60.099998"
         width="40"
         style="fill:#2488ff"
         y="351.07599"
         x="270.51801" />
      <path
         id="path21"
         d="m 378.734,351.076 -20.016,0 0,141.792 40,0 0,-143.694 c -6.474,1.243 -13.153,1.902 -19.984,1.902 z"
         style="fill:#2488ff"
         inkscape:connector-curvature="0" />
    </g>
  </g>
</svg>
