<?xml version="1.0" encoding="UTF-8" standalone="no"?>
<svg
   xmlns:dc="http://purl.org/dc/elements/1.1/"
   xmlns:cc="http://creativecommons.org/ns#"
   xmlns:rdf="http://www.w3.org/1999/02/22-rdf-syntax-ns#"
   xmlns:svg="http://www.w3.org/2000/svg"
   xmlns="http://www.w3.org/2000/svg"
   xmlns:xlink="http://www.w3.org/1999/xlink"
   xmlns:sodipodi="http://sodipodi.sourceforge.net/DTD/sodipodi-0.dtd"
   xmlns:inkscape="http://www.inkscape.org/namespaces/inkscape"
   viewBox="0 0 64 64"
   id="svg13202"
   version="1.1"
   inkscape:version="0.91 r13725"
   sodipodi:docname="folder-print.svg">
  <metadata
     id="metadata13228">
    <rdf:RDF>
      <cc:Work
         rdf:about="">
        <dc:format>image/svg+xml</dc:format>
        <dc:type
           rdf:resource="http://purl.org/dc/dcmitype/StillImage" />
        <dc:title />
      </cc:Work>
    </rdf:RDF>
  </metadata>
  <sodipodi:namedview
     pagecolor="#ffffff"
     bordercolor="#666666"
     borderopacity="1"
     objecttolerance="10"
     gridtolerance="10"
     guidetolerance="10"
     inkscape:pageopacity="0"
     inkscape:pageshadow="2"
     inkscape:window-width="1280"
     inkscape:window-height="688"
     id="namedview13226"
     showgrid="false"
     inkscape:zoom="3.6875"
     inkscape:cx="-56"
     inkscape:cy="32"
     inkscape:window-x="0"
     inkscape:window-y="0"
     inkscape:window-maximized="1"
     inkscape:current-layer="svg13202" />
  <defs
     id="defs13204">
    <linearGradient
       xlink:href="#1"
       id="3"
       x1="-19.915"
       y1="1048.7"
       x2="-19.996"
       y2="1025.51"
       gradientUnits="userSpaceOnUse"
       gradientTransform="translate(51.949,-1001.46)" />
    <linearGradient
       gradientUnits="userSpaceOnUse"
       y2="354.29"
       x2="-704.05"
       y1="647.77"
       x1="-701.19"
       id="2"
       gradientTransform="matrix(0.01590505,0,0,0.01845141,129.51168,-45.007092)">
      <stop
         stop-color="#93cfff"
         id="stop13208" />
      <stop
         offset="1"
         stop-color="#cde8fe"
         id="stop13210" />
    </linearGradient>
    <linearGradient
       xlink:href="#1"
       id="0"
       x1="59.12"
       y1="-13.295"
       x2="59.15"
       y2="-37.783"
       gradientUnits="userSpaceOnUse"
       gradientTransform="matrix(0.52660675,0,0,0.52570737,-19.441377,28.676662)" />
    <linearGradient
       id="1">
      <stop
         stop-color="#289bf7"
         id="stop13214" />
      <stop
         offset="1"
         stop-color="#71b9f1"
         id="stop13216" />
    </linearGradient>
  </defs>
  <path
     inkscape:connector-curvature="0"
     style="fill:#d4aa00"
     d="m 63.983051,18.416896 -63.69491527,0 0,-15.8193874 c 0,-1.2801423 1.00594037,-2.31785064 2.24689307,-2.31785064 l 59.2011292,0 c 1.240953,0 2.246893,1.03770834 2.246893,2.31785064 l 0,15.8193874 z"
     id="path3" />
  <rect
     x="3.5827003"
     y="18.416897"
     style="fill:#d4aa00"
     width="57.105785"
     height="45.303448"
     id="rect5" />
  <path
     inkscape:connector-curvature="0"
     style="fill:#aa8800"
     d="m 42.019287,13.885419 -19.767387,0 c -2.425898,0 -4.392753,-2.028969 -4.392753,-4.5314775 l 0,0 c 0,-2.5025085 1.966855,-4.5314774 4.392753,-4.5314774 l 19.767387,0 c 2.425898,0 4.392753,2.0289689 4.392753,4.5314774 l 0,0 c 0,2.5025085 -1.966855,4.5314775 -4.392753,4.5314775 z"
     id="path7" />
  <rect
     x="3.5827003"
     y="58.055992"
     style="fill:#aa8800"
     width="57.105785"
     height="5.6643467"
     id="rect9" />
  <rect
     x="16.76096"
     y="27.468521"
     style="fill:#fff6d5"
     width="30.749269"
     height="15.860171"
     id="rect11" />
  <g
     id="g13"
     transform="matrix(1.0981882,0,0,1.1328694,0.28813573,-0.85321139)"
     style="fill:#aa8800">
    <path
       inkscape:connector-curvature="0"
       style="fill:#aa8800"
       d="m 19,31 6,0 c 0.553,0 1,-0.447 1,-1 0,-0.553 -0.447,-1 -1,-1 l -6,0 c -0.553,0 -1,0.447 -1,1 0,0.553 0.447,1 1,1 z"
       id="path15" />
    <path
       inkscape:connector-curvature="0"
       style="fill:#aa8800"
       d="m 29,31 c 0.26,0 0.52,-0.11 0.71,-0.29 C 29.89,30.52 30,30.26 30,30 c 0,-0.261 -0.11,-0.521 -0.29,-0.71 -0.38,-0.37 -1.05,-0.37 -1.42,0 C 28.109,29.479 28,29.739 28,30 c 0,0.27 0.109,0.52 0.29,0.71 C 28.479,30.89 28.729,31 29,31 Z"
       id="path17" />
    <path
       inkscape:connector-curvature="0"
       style="fill:#aa8800"
       d="m 39,33 -16,0 c -0.553,0 -1,0.447 -1,1 0,0.553 0.447,1 1,1 l 16,0 c 0.553,0 1,-0.447 1,-1 0,-0.553 -0.447,-1 -1,-1 z"
       id="path19" />
    <path
       inkscape:connector-curvature="0"
       style="fill:#aa8800"
       d="M 18.29,33.29 C 18.109,33.479 18,33.739 18,34 c 0,0.26 0.109,0.52 0.29,0.71 0.189,0.18 0.439,0.29 0.71,0.29 0.27,0 0.52,-0.11 0.71,-0.29 C 19.89,34.52 20,34.26 20,34 c 0,-0.261 -0.11,-0.521 -0.29,-0.71 -0.37,-0.37 -1.04,-0.37 -1.42,0 z"
       id="path21" />
  </g>
  <rect
     x="3.5827003"
     y="18.405567"
     style="fill:#aa8800"
     width="57.105785"
     height="5.6643467"
     id="rect23" />
  <path
     inkscape:connector-curvature="0"
     style="fill:#ffffff"
     id="path26"
     d="m 50.75353,0.2063128 0,0.48843649 0,1.00943371 0,3.5877837 9.142425,0 0,-3.5877837 0,-1.00943371 0,-0.48843649 -9.142425,0 m -1.367977,1.1012013 c -0.266823,0 -0.483532,0.2368174 -0.483532,0.5283992 l 0,3.3509656 1.177002,0 0,-3.8793648 -0.69347,0 m 11.274303,0 0,3.8793648 1.177002,0 0,-3.3509656 c 0,-0.2915818 -0.216709,-0.5283992 -0.483532,-0.5283992 l -0.69347,0 m -13.388573,4.825155 c -0.266823,0 -0.483533,0.2368174 -0.483533,0.5283984 l 0,8.2190445 c 0,0.291582 0.21671,0.528399 0.483533,0.528399 l 2.531435,0 0,-3.13635 0,-1.370581 11.038632,0 0,1.370581 0,3.13635 2.531436,0 c 0.266823,0 0.483532,-0.236817 0.483532,-0.528399 l 0,-8.2190445 C 63.856183,6.3694865 63.6369,6.1326691 63.370077,6.1326691 l -16.100149,0 M 61.297794,7.713425 c 0.127316,0 0.249215,0.042923 0.349443,0.1124883 0.177431,0.1243291 0.293912,0.3419051 0.293912,0.5890832 0,0.2471788 -0.115126,0.4677144 -0.293912,0.5920442 -0.100228,0.072525 -0.222127,0.1124883 -0.349443,0.1124883 -0.356216,0 -0.643356,-0.3137833 -0.643356,-0.7030524 0,-0.3892683 0.28714,-0.7060118 0.643356,-0.7060118 m -10.583542,4.1339442 0,0.528399 0,5.061972 0,0.528399 9.21421,0 0,-0.528399 0,-5.061972 0,-0.528399 -9.21421,0" />
</svg>
