<?xml version="1.0" encoding="UTF-8" standalone="no"?>
<svg
   xmlns:dc="http://purl.org/dc/elements/1.1/"
   xmlns:cc="http://creativecommons.org/ns#"
   xmlns:rdf="http://www.w3.org/1999/02/22-rdf-syntax-ns#"
   xmlns:svg="http://www.w3.org/2000/svg"
   xmlns="http://www.w3.org/2000/svg"
   xmlns:xlink="http://www.w3.org/1999/xlink"
   xmlns:sodipodi="http://sodipodi.sourceforge.net/DTD/sodipodi-0.dtd"
   xmlns:inkscape="http://www.inkscape.org/namespaces/inkscape"
   viewBox="0 0 64 64"
   id="svg13202"
   version="1.1"
   inkscape:version="0.91 r13725"
   sodipodi:docname="folder-github.svg">
  <metadata
     id="metadata13228">
    <rdf:RDF>
      <cc:Work
         rdf:about="">
        <dc:format>image/svg+xml</dc:format>
        <dc:type
           rdf:resource="http://purl.org/dc/dcmitype/StillImage" />
        <dc:title />
      </cc:Work>
    </rdf:RDF>
  </metadata>
  <sodipodi:namedview
     pagecolor="#ffffff"
     bordercolor="#666666"
     borderopacity="1"
     objecttolerance="10"
     gridtolerance="10"
     guidetolerance="10"
     inkscape:pageopacity="0"
     inkscape:pageshadow="2"
     inkscape:window-width="1280"
     inkscape:window-height="688"
     id="namedview13226"
     showgrid="false"
     inkscape:zoom="3.6875"
     inkscape:cx="-36.366812"
     inkscape:cy="32"
     inkscape:window-x="0"
     inkscape:window-y="0"
     inkscape:window-maximized="1"
     inkscape:current-layer="svg13202" />
  <defs
     id="defs13204">
    <linearGradient
       xlink:href="#1"
       id="3"
       x1="-19.915"
       y1="1048.7"
       x2="-19.996"
       y2="1025.51"
       gradientUnits="userSpaceOnUse"
       gradientTransform="translate(51.949,-1001.46)" />
    <linearGradient
       gradientUnits="userSpaceOnUse"
       y2="354.29"
       x2="-704.05"
       y1="647.77"
       x1="-701.19"
       id="2"
       gradientTransform="matrix(0.01590505,0,0,0.01845141,129.51168,-45.007092)">
      <stop
         stop-color="#93cfff"
         id="stop13208" />
      <stop
         offset="1"
         stop-color="#cde8fe"
         id="stop13210" />
    </linearGradient>
    <linearGradient
       xlink:href="#1"
       id="0"
       x1="59.12"
       y1="-13.295"
       x2="59.15"
       y2="-37.783"
       gradientUnits="userSpaceOnUse"
       gradientTransform="matrix(0.52660675,0,0,0.52570737,-19.441377,28.676662)" />
    <linearGradient
       id="1">
      <stop
         stop-color="#289bf7"
         id="stop13214" />
      <stop
         offset="1"
         stop-color="#71b9f1"
         id="stop13216" />
    </linearGradient>
  </defs>
  <path
     inkscape:connector-curvature="0"
     style="fill:#ffffff;stroke:none;stroke-width:0.51232886"
     id="path26"
     d="m 55.09546,-39.079089 c -1.068946,-1.836936 -2.521383,-3.290883 -4.350266,-4.362848 -1.831903,-1.071965 -3.831395,-1.607947 -6.000488,-1.607947 -2.168591,0 -4.169089,0.535982 -6.000489,1.607947 -1.831399,1.071965 -3.281823,2.526416 -4.350769,4.362848 -1.068945,1.836432 -1.603418,3.842466 -1.603418,6.017096 0,2.611971 0.759938,4.961236 2.280316,7.04578 1.519876,2.086557 3.484139,3.527923 5.891279,4.331142 0.280321,0.05234 0.487669,0.0156 0.622545,-0.10921 0.134876,-0.124811 0.202315,-0.280825 0.202315,-0.468041 0,-0.0312 -0.0025,-0.312027 -0.0075,-0.842977 -0.0055,-0.53095 -0.0075,-0.993959 -0.0075,-1.389025 l -0.357825,0.0619 c -0.228484,0.04177 -0.516355,0.05989 -0.864114,0.05486 -0.34776,-0.0045 -0.708101,-0.04127 -1.081527,-0.109209 -0.37393,-0.06744 -0.721186,-0.223452 -1.042776,-0.468042 -0.321589,-0.244589 -0.550074,-0.564668 -0.68495,-0.960239 l -0.155511,-0.359334 c -0.103673,-0.239054 -0.267236,-0.50327 -0.490185,-0.79567 -0.222948,-0.291394 -0.448917,-0.489179 -0.676898,-0.593356 l -0.108706,-0.07801 c -0.07247,-0.05234 -0.139909,-0.114745 -0.202315,-0.187719 -0.06241,-0.07297 -0.108706,-0.145445 -0.139909,-0.218419 -0.0312,-0.07297 -0.0055,-0.132864 0.07801,-0.179668 0.08304,-0.0468 0.233517,-0.06995 0.451433,-0.06995 l 0.311021,0.0468 c 0.207347,0.04177 0.464015,0.166079 0.770507,0.374433 0.305988,0.20785 0.557623,0.478609 0.754905,0.811271 0.239053,0.426773 0.52642,0.751885 0.864114,0.97584 0.337191,0.223956 0.676898,0.335682 1.019625,0.335682 0.342224,0 0.638147,-0.02617 0.887265,-0.07801 0.249119,-0.05184 0.482636,-0.129844 0.700552,-0.234021 0.09361,-0.697532 0.34776,-1.233011 0.762454,-1.607948 -0.591342,-0.0624 -1.123299,-0.156517 -1.595366,-0.280824 -0.472067,-0.124811 -0.959736,-0.327629 -1.463006,-0.608957 -0.50327,-0.280825 -0.920984,-0.629591 -1.253142,-1.045795 -0.332158,-0.416204 -0.604427,-0.962755 -0.817311,-1.63915 -0.212883,-0.676395 -0.319073,-1.456967 -0.319073,-2.341212 0,-1.259182 0.410165,-2.331147 1.229992,-3.215392 -0.383995,-0.946651 -0.347759,-2.008048 0.108706,-3.18419 0.300956,-0.09361 0.747356,-0.02315 1.338699,0.21087 0.591342,0.234021 1.024657,0.434826 1.299946,0.600905 0.275289,0.166079 0.495721,0.306994 0.6618,0.421237 0.965272,-0.270759 1.961243,-0.405636 2.988417,-0.405636 1.027174,0 2.023146,0.13538 2.988921,0.405636 l 0.591342,-0.374433 c 0.404629,-0.249622 0.882233,-0.47861 1.431803,-0.686964 0.550074,-0.20785 0.970305,-0.265223 1.261195,-0.171615 0.467035,1.176142 0.508303,2.237539 0.124308,3.18419 0.819826,0.884748 1.229992,1.95621 1.229992,3.215392 0,0.884748 -0.106694,1.667333 -0.319074,2.348761 -0.212883,0.681931 -0.487668,1.227978 -0.824859,1.63915 -0.337191,0.411172 -0.757925,0.756918 -1.260692,1.037743 -0.50327,0.280824 -0.990938,0.484146 -1.463005,0.608957 -0.472068,0.12481 -1.004024,0.218922 -1.595366,0.281327 0.539505,0.468042 0.809258,1.206842 0.809258,2.216402 l 0,3.292895 c 0,0.187217 0.06492,0.34323 0.194765,0.468041 0.129844,0.124811 0.334675,0.16155 0.614996,0.10921 2.407644,-0.801206 4.371403,-2.245088 5.891279,-4.331645 1.519875,-2.086054 2.280316,-4.435319 2.280316,-7.04578 -5e-5,-2.174126 -0.535479,-4.179657 -1.603921,-6.016593 z" />
  <path
     inkscape:connector-curvature="0"
     style="fill:#d4aa00"
     d="m 63.711867,18.494425 -63.42373108,0 0,-15.8870091 c 0,-1.2856144 1.00165758,-2.3277585 2.23732678,-2.3277585 l 58.9490773,0 c 1.235669,0 2.237327,1.0421441 2.237327,2.3277585 l 0,15.8870091 z"
     id="path3" />
  <rect
     x="3.5686736"
     y="18.494425"
     style="fill:#d4aa00"
     width="56.862656"
     height="45.497101"
     id="rect5" />
  <path
     inkscape:connector-curvature="0"
     style="fill:#aa8800"
     d="m 41.841615,13.943577 -19.683227,0 c -2.415569,0 -4.37405,-2.037641 -4.37405,-4.5508473 l 0,0 c 0,-2.5132056 1.958481,-4.5508476 4.37405,-4.5508476 l 19.683227,0 c 2.415569,0 4.37405,2.037642 4.37405,4.5508476 l 0,0 c 0,2.5132063 -1.958481,4.5508473 -4.37405,4.5508473 z"
     id="path7" />
  <rect
     x="3.5686736"
     y="58.302963"
     style="fill:#aa8800"
     width="56.862656"
     height="5.6885595"
     id="rect9" />
  <rect
     x="16.690825"
     y="27.584742"
     style="fill:#fff6d5"
     width="30.618353"
     height="15.927967"
     id="rect11" />
  <g
     id="g13"
     transform="matrix(1.0935126,0,0,1.1377119,0.28813592,-0.8580545)"
     style="fill:#aa8800">
    <path
       inkscape:connector-curvature="0"
       style="fill:#aa8800"
       d="m 19,31 6,0 c 0.553,0 1,-0.447 1,-1 0,-0.553 -0.447,-1 -1,-1 l -6,0 c -0.553,0 -1,0.447 -1,1 0,0.553 0.447,1 1,1 z"
       id="path15" />
    <path
       inkscape:connector-curvature="0"
       style="fill:#aa8800"
       d="m 29,31 c 0.26,0 0.52,-0.11 0.71,-0.29 C 29.89,30.52 30,30.26 30,30 c 0,-0.261 -0.11,-0.521 -0.29,-0.71 -0.38,-0.37 -1.05,-0.37 -1.42,0 C 28.109,29.479 28,29.739 28,30 c 0,0.27 0.109,0.52 0.29,0.71 C 28.479,30.89 28.729,31 29,31 Z"
       id="path17" />
    <path
       inkscape:connector-curvature="0"
       style="fill:#aa8800"
       d="m 39,33 -16,0 c -0.553,0 -1,0.447 -1,1 0,0.553 0.447,1 1,1 l 16,0 c 0.553,0 1,-0.447 1,-1 0,-0.553 -0.447,-1 -1,-1 z"
       id="path19" />
    <path
       inkscape:connector-curvature="0"
       style="fill:#aa8800"
       d="M 18.29,33.29 C 18.109,33.479 18,33.739 18,34 c 0,0.26 0.109,0.52 0.29,0.71 0.189,0.18 0.439,0.29 0.71,0.29 0.27,0 0.52,-0.11 0.71,-0.29 C 19.89,34.52 20,34.26 20,34 c 0,-0.261 -0.11,-0.521 -0.29,-0.71 -0.37,-0.37 -1.04,-0.37 -1.42,0 z"
       id="path21" />
  </g>
  <rect
     x="3.5686736"
     y="18.483047"
     style="fill:#aa8800"
     width="56.862656"
     height="5.6885595"
     id="rect23" />
  <path
     inkscape:connector-curvature="0"
     style="fill:#ffffff;stroke:none;stroke-width:0.51232886"
     id="path26-9"
     d="M 62.095726,4.9571222 C 61.354106,3.5887766 60.346427,2.505722 59.077574,1.7072083 57.806626,0.90869459 56.419407,0.50943812 54.914521,0.50943812 c -1.504536,0 -2.892454,0.39925647 -4.163053,1.19777018 -1.270598,0.7985137 -2.276882,1.8819438 -3.0185,3.2499139 -0.741619,1.3679702 -1.11243,2.8622779 -1.11243,4.482174 0,1.9456738 0.527235,3.6956568 1.582052,5.2484478 1.054467,1.55429 2.417245,2.627972 4.087284,3.226296 0.194483,0.03899 0.338338,0.01162 0.431913,-0.08135 0.09358,-0.09297 0.140363,-0.209188 0.140363,-0.348647 0,-0.02324 -0.0018,-0.23243 -0.0052,-0.627939 -0.0038,-0.395508 -0.0052,-0.740406 -0.0052,-1.034693 l -0.248254,0.04611 c -0.158519,0.03111 -0.35824,0.04461 -0.59951,0.04087 -0.241271,-0.0034 -0.49127,-0.03074 -0.750348,-0.08135 -0.259427,-0.05024 -0.500348,-0.16645 -0.723463,-0.348647 -0.223114,-0.182196 -0.381633,-0.420625 -0.475209,-0.715288 l -0.107891,-0.267671 c -0.07192,-0.178073 -0.185404,-0.374889 -0.340083,-0.592699 -0.154678,-0.217062 -0.311452,-0.364393 -0.469622,-0.441995 l -0.07542,-0.05811 c -0.05028,-0.03899 -0.09706,-0.08548 -0.140363,-0.139833 -0.0433,-0.05436 -0.07542,-0.108343 -0.09706,-0.162702 -0.02165,-0.05436 -0.0038,-0.09897 0.05413,-0.133836 0.05761,-0.03486 0.16201,-0.05211 0.313197,-0.05211 l 0.215781,0.03486 c 0.143855,0.03111 0.321928,0.123714 0.534568,0.278918 0.21229,0.154829 0.386871,0.356519 0.523742,0.604321 0.165851,0.317906 0.365222,0.560084 0.59951,0.72691 0.233938,0.166826 0.469622,0.250051 0.707401,0.250051 0.23743,0 0.442737,-0.01949 0.615572,-0.05811 0.172835,-0.03862 0.334846,-0.09672 0.486032,-0.174324 0.06495,-0.519596 0.241271,-0.918478 0.52898,-1.197771 -0.410264,-0.04648 -0.779328,-0.11659 -1.106842,-0.209187 -0.327513,-0.09297 -0.665851,-0.244053 -1.015012,-0.453616 -0.349162,-0.209189 -0.638966,-0.468987 -0.869413,-0.77902 -0.230446,-0.310033 -0.419342,-0.717162 -0.567038,-1.221013 -0.147695,-0.503851 -0.221369,-1.0853045 -0.221369,-1.7439843 0,-0.9379729 0.284568,-1.7364865 0.853352,-2.3951664 -0.26641,-0.7051665 -0.24127,-1.495808 0.07542,-2.3719239 0.2088,-0.069731 0.518505,-0.017245 0.92877,0.1570784 0.410265,0.1743238 0.710892,0.3239048 0.901884,0.4476181 0.190992,0.1237133 0.343924,0.2286818 0.459148,0.3137822 0.669691,-0.2016902 1.360682,-0.3021609 2.07332,-0.3021609 0.712639,0 1.40363,0.1008454 2.073671,0.3021609 l 0.410264,-0.2789176 c 0.280726,-0.185945 0.612081,-0.3565197 0.993365,-0.511724 0.381633,-0.1548288 0.673183,-0.1975663 0.874999,-0.1278371 0.324022,0.8761159 0.352653,1.6667574 0.08624,2.3719239 0.568784,0.6590545 0.853351,1.4571935 0.853351,2.3951664 0,0.6590545 -0.07402,1.2420073 -0.22137,1.7496073 -0.147694,0.507975 -0.338336,0.914729 -0.572275,1.221014 -0.233937,0.306284 -0.525837,0.563833 -0.87465,0.773021 -0.349161,0.209188 -0.687498,0.360644 -1.015011,0.453616 -0.327515,0.09297 -0.696577,0.163077 -1.106843,0.209562 0.374301,0.348648 0.561452,0.898985 0.561452,1.651013 l 0,2.452899 c 0,0.139459 0.04504,0.255674 0.135125,0.348646 0.09009,0.09297 0.232193,0.12034 0.426675,0.08135 1.67039,-0.596824 3.032817,-1.672381 4.087286,-3.226671 1.054467,-1.553915 1.58205,-3.303898 1.58205,-5.2484473 -1.6e-5,-1.6195206 -0.371489,-3.1134537 -1.112759,-4.4817993 z" />
</svg>
