<?xml version="1.0" encoding="UTF-8" standalone="no"?>
<svg
   xmlns:dc="http://purl.org/dc/elements/1.1/"
   xmlns:cc="http://creativecommons.org/ns#"
   xmlns:rdf="http://www.w3.org/1999/02/22-rdf-syntax-ns#"
   xmlns:svg="http://www.w3.org/2000/svg"
   xmlns="http://www.w3.org/2000/svg"
   xmlns:sodipodi="http://sodipodi.sourceforge.net/DTD/sodipodi-0.dtd"
   xmlns:inkscape="http://www.inkscape.org/namespaces/inkscape"
   viewBox="0 0 64 64"
   id="svg2"
   version="1.1"
   inkscape:version="0.91 r13725"
   sodipodi:docname="application-zip.svg">
  <metadata
     id="metadata19">
    <rdf:RDF>
      <cc:Work
         rdf:about="">
        <dc:format>image/svg+xml</dc:format>
        <dc:type
           rdf:resource="http://purl.org/dc/dcmitype/StillImage" />
        <dc:title></dc:title>
      </cc:Work>
    </rdf:RDF>
  </metadata>
  <sodipodi:namedview
     pagecolor="#ffffff"
     bordercolor="#666666"
     borderopacity="1"
     objecttolerance="10"
     gridtolerance="10"
     guidetolerance="10"
     inkscape:pageopacity="0"
     inkscape:pageshadow="2"
     inkscape:window-width="1280"
     inkscape:window-height="694"
     id="namedview17"
     showgrid="true"
     inkscape:zoom="3.6875"
     inkscape:cx="-12.20339"
     inkscape:cy="32"
     inkscape:window-x="0"
     inkscape:window-y="0"
     inkscape:window-maximized="1"
     inkscape:current-layer="svg2">
    <inkscape:grid
       type="xygrid"
       id="grid4147" />
  </sodipodi:namedview>
  <defs
     id="defs4">
    <linearGradient
       id="0"
       x1="-74.929"
       y1="52.2"
       x2="-75.26"
       y2="2.356"
       gradientUnits="userSpaceOnUse"
       gradientTransform="matrix(1.07499,0,0,1.02929,113.079,0.074)">
      <stop
         stop-color="#04a47f"
         id="stop7" />
      <stop
         offset="1"
         stop-color="#40ca85"
         id="stop9" />
    </linearGradient>
  </defs>
  <rect
     style="fill:#2ca089"
     id="rect13"
     rx="3.5785823"
     y="0.37906781"
     x="0.50847554"
     height="52.936775"
     width="62.983047" />
  <path
     style="fill:#044937"
     inkscape:connector-curvature="0"
     id="path15"
     d="m 28.385965,34.37146 c -0.981285,0 -1.772437,0.655337 -1.772437,1.471164 l 0,26.482292 c 0,0.81449 0.78954,1.471164 1.772437,1.471164 l 28.35899,0 c 0.981286,0 1.77566,-0.655337 1.77566,-1.471164 l 0,-26.482292 c 0,-0.81449 -0.792763,-1.471164 -1.77566,-1.471164 l -28.35899,0 m 13.259439,0.817165 1.970628,0 c 0.436664,0 0.786317,0.291559 0.786317,0.652663 l 0,0.164502 c 0,0.362441 -0.351264,0.652662 -0.786317,0.652662 l -1.970628,0 c -0.436664,0 -0.786317,-0.291558 -0.786317,-0.652662 l 0,-0.164502 c 0,-0.362441 0.351264,-0.652663 0.786317,-0.652663 m -0.0065,2.126501 1.970628,0 c 0.436664,0 0.786317,0.292895 0.786317,0.655337 l 0,0.161828 c 0,0.362441 -0.351264,0.655337 -0.786317,0.655337 l -1.970626,0 c -0.436665,0 -0.78954,-0.292896 -0.78954,-0.655337 l 0,-0.161828 c 0,-0.362442 0.352875,-0.655337 0.78954,-0.655337 m -0.02255,2.102427 1.970628,0 c 0.436664,0 0.786317,0.291558 0.786317,0.652662 l 0,0.164503 c 0,0.362442 -0.351264,0.652662 -0.786317,0.652662 l -1.970628,0 c -0.436664,0 -0.78954,-0.291558 -0.78954,-0.652662 l 0,-0.164503 c 0,-0.362441 0.352876,-0.652662 0.78954,-0.652662 m 0.03706,2.18936 1.970627,0 c 0.436664,0 0.786318,0.291559 0.786318,0.652663 l 0,0.164502 c 0,0.362441 -0.351266,0.652663 -0.786318,0.652663 l -1.970627,0 c -0.436664,0 -0.786318,-0.291559 -0.786318,-0.652663 l 0,-0.164502 c 0,-0.362442 0.351266,-0.652663 0.786318,-0.652663 m 0,2.149238 1.970627,0 c 0.436664,0 0.786318,0.291557 0.786318,0.652661 l 0,0.164504 c 0,0.362441 -0.351266,0.652661 -0.786318,0.652661 l -1.970627,0 c -0.436664,0 -0.786318,-0.291557 -0.786318,-0.652661 l 0,-0.164504 c 0,-0.362441 0.351266,-0.652661 0.786318,-0.652661 m 0,2.200058 1.970627,0 c 0.436664,0 0.786318,0.292895 0.786318,0.655337 l 0,0.161828 c 0,0.362441 -0.351266,0.655337 -0.786318,0.655337 l -1.970627,0 c -0.436664,0 -0.786318,-0.292896 -0.786318,-0.655337 l 0,-0.161828 c 0,-0.362442 0.351266,-0.655337 0.786318,-0.655337 m 0.157908,2.225471 1.564578,0 c 0.310982,0 0.560735,0.208637 0.560735,0.468097 l 0,0.929508 0.868494,2.126501 c 0.243307,0.592478 0.127291,1.25049 -0.310983,1.760048 -0.438274,0.509558 -1.14886,0.81449 -1.901341,0.81449 -0.75248,0 -1.463066,-0.304932 -1.901342,-0.81449 -0.438274,-0.510896 -0.554288,-1.16757 -0.310981,-1.760048 l 0.868494,-2.126501 0,-0.929508 c 0,-0.258122 0.252975,-0.468097 0.563957,-0.468097 m -0.06929,3.113518 -0.290035,0.712846 c -0.125681,0.306269 -0.06607,0.645974 0.161131,0.909447 0.451166,0.525606 1.509793,0.525606 1.960959,0 0.225583,-0.263473 0.285202,-0.603178 0.161131,-0.909447 l -0.290035,-0.712846 -1.703151,0" />
</svg>
