<?xml version="1.0" encoding="UTF-8" standalone="no"?>
<svg
   xmlns:dc="http://purl.org/dc/elements/1.1/"
   xmlns:cc="http://creativecommons.org/ns#"
   xmlns:rdf="http://www.w3.org/1999/02/22-rdf-syntax-ns#"
   xmlns:svg="http://www.w3.org/2000/svg"
   xmlns="http://www.w3.org/2000/svg"
   xmlns:sodipodi="http://sodipodi.sourceforge.net/DTD/sodipodi-0.dtd"
   xmlns:inkscape="http://www.inkscape.org/namespaces/inkscape"
   viewBox="0 0 64 64"
   id="svg2"
   version="1.1"
   inkscape:version="0.91 r13725"
   sodipodi:docname="application-x-arc.svg">
  <metadata
     id="metadata19">
    <rdf:RDF>
      <cc:Work
         rdf:about="">
        <dc:format>image/svg+xml</dc:format>
        <dc:type
           rdf:resource="http://purl.org/dc/dcmitype/StillImage" />
        <dc:title></dc:title>
      </cc:Work>
    </rdf:RDF>
  </metadata>
  <sodipodi:namedview
     pagecolor="#ffffff"
     bordercolor="#666666"
     borderopacity="1"
     objecttolerance="10"
     gridtolerance="10"
     guidetolerance="10"
     inkscape:pageopacity="0"
     inkscape:pageshadow="2"
     inkscape:window-width="1280"
     inkscape:window-height="694"
     id="namedview17"
     showgrid="true"
     inkscape:zoom="3.6875"
     inkscape:cx="-12.20339"
     inkscape:cy="32"
     inkscape:window-x="0"
     inkscape:window-y="0"
     inkscape:window-maximized="1"
     inkscape:current-layer="svg2">
    <inkscape:grid
       type="xygrid"
       id="grid4137" />
  </sodipodi:namedview>
  <defs
     id="defs4">
    <linearGradient
       id="0"
       x1="-74.929"
       y1="52.2"
       x2="-75.26"
       y2="2.356"
       gradientUnits="userSpaceOnUse"
       gradientTransform="matrix(1.07499,0,0,1.02929,113.079,0.074)">
      <stop
         stop-color="#77b971"
         id="stop7" />
      <stop
         offset="1"
         stop-color="#8edd82"
         id="stop9" />
    </linearGradient>
  </defs>
  <rect
     style="fill:#71c837"
     id="rect13"
     rx="3.6093991"
     y="0.37906781"
     x="0.50847554"
     height="53.207962"
     width="63.525421" />
  <path
     style="fill:#2d5016"
     inkscape:connector-curvature="0"
     id="path15"
     d="m 28.627023,34.37146 c -0.964605,0 -1.742308,0.661376 -1.742308,1.484723 l 0,26.72636 c 0,0.821997 0.776119,1.484723 1.742308,1.484723 l 27.87693,0 c 0.964605,0 1.745476,-0.661377 1.745476,-1.484723 l 0,-26.72636 c 0,-0.821997 -0.779287,-1.484723 -1.745476,-1.484723 l -27.87693,0 m 13.034049,0.824696 1.93713,0 c 0.429241,0 0.772951,0.294246 0.772951,0.658678 l 0,0.166018 c 0,0.365782 -0.345294,0.658677 -0.772951,0.658677 l -1.93713,0 c -0.429242,0 -0.772951,-0.294245 -0.772951,-0.658677 l 0,-0.166018 c 0,-0.365782 0.345293,-0.658678 0.772951,-0.658678 m -0.0064,2.146099 1.93713,0 c 0.429242,0 0.772951,0.295595 0.772951,0.661377 l 0,0.163319 c 0,0.365782 -0.345293,0.661377 -0.772951,0.661377 l -1.937128,0 c -0.429242,0 -0.77612,-0.295595 -0.77612,-0.661377 l 0,-0.163319 c 0,-0.365782 0.346878,-0.661377 0.77612,-0.661377 m -0.02217,2.121804 1.937131,0 c 0.429241,0 0.772951,0.294245 0.772951,0.658677 l 0,0.16602 c 0,0.365781 -0.345294,0.658676 -0.772951,0.658676 l -1.937131,0 c -0.429241,0 -0.776119,-0.294244 -0.776119,-0.658676 l 0,-0.16602 c 0,-0.365782 0.346878,-0.658677 0.776119,-0.658677 m 0.03643,2.209538 1.937128,0 c 0.429242,0 0.772953,0.294246 0.772953,0.658678 l 0,0.166018 c 0,0.365782 -0.345295,0.658678 -0.772953,0.658678 l -1.937128,0 c -0.429242,0 -0.772953,-0.294246 -0.772953,-0.658678 l 0,-0.166018 c 0,-0.365782 0.345295,-0.658678 0.772953,-0.658678 m 0,2.169045 1.937128,0 c 0.429242,0 0.772953,0.294245 0.772953,0.658677 l 0,0.16602 c 0,0.365781 -0.345295,0.658676 -0.772953,0.658676 l -1.937128,0 c -0.429242,0 -0.772953,-0.294244 -0.772953,-0.658676 l 0,-0.16602 c 0,-0.365782 0.345295,-0.658677 0.772953,-0.658677 m 0,2.220335 1.937128,0 c 0.429242,0 0.772953,0.295595 0.772953,0.661377 l 0,0.163319 c 0,0.365782 -0.345295,0.661377 -0.772953,0.661377 l -1.937128,0 c -0.429242,0 -0.772953,-0.295595 -0.772953,-0.661377 l 0,-0.163319 c 0,-0.365782 0.345295,-0.661377 0.772953,-0.661377 m 0.155223,2.245982 1.537983,0 c 0.305695,0 0.551203,0.21056 0.551203,0.472411 l 0,0.938075 0.853731,2.146099 c 0.239171,0.597939 0.125127,1.262015 -0.305697,1.776269 -0.430824,0.514254 -1.129331,0.821996 -1.869021,0.821996 -0.739689,0 -1.438196,-0.307742 -1.869022,-0.821996 -0.430824,-0.515604 -0.544866,-1.17833 -0.305694,-1.776269 l 0.85373,-2.146099 0,-0.938075 c 0,-0.260501 0.248675,-0.472411 0.554371,-0.472411 m -0.06811,3.142213 -0.285105,0.719416 c -0.123545,0.309092 -0.06495,0.651927 0.158391,0.917828 0.443497,0.53045 1.48413,0.53045 1.927626,0 0.221749,-0.265901 0.280355,-0.608736 0.158392,-0.917828 l -0.285105,-0.719416 -1.674199,0" />
</svg>
