<?xml version="1.0" encoding="UTF-8" standalone="no"?>
<svg
   xmlns:dc="http://purl.org/dc/elements/1.1/"
   xmlns:cc="http://creativecommons.org/ns#"
   xmlns:rdf="http://www.w3.org/1999/02/22-rdf-syntax-ns#"
   xmlns:svg="http://www.w3.org/2000/svg"
   xmlns="http://www.w3.org/2000/svg"
   xmlns:sodipodi="http://sodipodi.sourceforge.net/DTD/sodipodi-0.dtd"
   xmlns:inkscape="http://www.inkscape.org/namespaces/inkscape"
   viewBox="0 0 64 64"
   id="svg2"
   version="1.1"
   inkscape:version="0.91 r13725"
   sodipodi:docname="audio-x-adpcm.svg">
  <metadata
     id="metadata19">
    <rdf:RDF>
      <cc:Work
         rdf:about="">
        <dc:format>image/svg+xml</dc:format>
        <dc:type
           rdf:resource="http://purl.org/dc/dcmitype/StillImage" />
        <dc:title></dc:title>
      </cc:Work>
    </rdf:RDF>
  </metadata>
  <sodipodi:namedview
     pagecolor="#ffffff"
     bordercolor="#666666"
     borderopacity="1"
     objecttolerance="10"
     gridtolerance="10"
     guidetolerance="10"
     inkscape:pageopacity="0"
     inkscape:pageshadow="2"
     inkscape:window-width="1280"
     inkscape:window-height="694"
     id="namedview17"
     showgrid="true"
     inkscape:zoom="3.6875"
     inkscape:cx="-12.20339"
     inkscape:cy="32"
     inkscape:window-x="0"
     inkscape:window-y="0"
     inkscape:window-maximized="1"
     inkscape:current-layer="svg2">
    <inkscape:grid
       type="xygrid"
       id="grid4161" />
  </sodipodi:namedview>
  <defs
     id="defs4">
    <linearGradient
       id="0"
       x1="-74.929"
       y1="52.2"
       x2="-75.26"
       y2="2.356"
       gradientUnits="userSpaceOnUse"
       gradientTransform="matrix(1.07499,0,0,1.02929,113.079,0.074)">
      <stop
         stop-color="#ff292f"
         id="stop7" />
      <stop
         offset="1"
         stop-color="#ff4f1c"
         id="stop9" />
    </linearGradient>
  </defs>
  <rect
     style="fill:#ff5555"
     id="rect13"
     rx="3.5785823"
     y="0.65025425"
     x="0.50847554"
     height="52.936779"
     width="62.983051" />
  <g
     id="g3"
     transform="matrix(0.05524,0,0,0.05414634,26.847469,34.068757)"
     style="fill:#800000">
    <g
       id="g5"
       style="fill:#800000">
      <g
         id="g7"
         style="fill:#800000">
        <path
           d="m 153.704,364.272 c -29.4,0 -53.317,23.91 -53.317,53.302 0,29.399 23.919,53.319 53.317,53.319 29.393,0 53.301,-23.92 53.301,-53.319 0.002,-29.392 -23.909,-53.302 -53.301,-53.302 z"
           id="path9"
           inkscape:connector-curvature="0"
           style="fill:#800000" />
        <path
           d="m 499.843,12.801 -26.596,0 c -11.695,0 -21.177,19.798 -21.177,44.235 0,24.437 9.48,44.244 21.177,44.244 l 38.005,0 0,53.162 c 0,5.759 4.398,10.335 9.992,10.965 l 0,176.317 c 0,81.174 -66.032,147.207 -147.206,147.207 l -66.661,0 0,-71.246 68.578,0 c 40.818,0 74.034,-33.217 74.034,-74.033 l 0,-58.614 c 5.583,-0.648 9.974,-5.204 9.974,-10.965 l 0,-53.17 0,-25.945 0,-2.724 c 0,-33.029 -26.779,-59.811 -59.811,-59.811 l -26.597,0 c -11.694,0 -21.178,19.807 -21.178,44.244 0,24.437 9.482,44.235 21.178,44.235 l 38.012,0 0,53.17 c 0,5.761 4.391,10.317 9.974,10.965 l 0,58.614 c 0,25.142 -20.444,45.589 -45.588,45.589 l -68.578,0 0,-300.94 c 0,-20.251 -16.42,-36.671 -36.671,-36.671 l -234.035,0 C 16.418,51.629 0,68.046 0,88.3 l 0,421.884 c 0,20.25 16.418,36.668 36.669,36.668 l 234.037,0 c 17.788,0 32.595,-12.666 35.946,-29.473 l 67.386,0 c 96.858,0 175.651,-78.793 175.651,-175.652 l 0,-176.318 c 5.575,-0.649 9.964,-5.214 9.964,-10.965 l 0,-53.163 0,-25.965 0,-2.703 c 0,-33.03 -26.781,-59.812 -59.81,-59.812 z M 153.704,508.823 c -50.318,0 -91.247,-40.929 -91.247,-91.248 0,-50.3 40.929,-91.229 91.247,-91.229 50.302,0 91.231,40.928 91.231,91.229 0,50.318 -40.929,91.248 -91.231,91.248 z M 56.977,287.147 c -9.9,0 -17.93,-8.028 -17.93,-17.928 l 0,-154.789 c 0,-9.9 8.03,-17.928 17.93,-17.928 l 193.431,0 c 9.896,0 17.928,8.03 17.928,17.928 l 0,154.789 c 0,9.9 -8.03,17.928 -17.928,17.928 l -193.431,0 0,0 z"
           id="path11"
           inkscape:connector-curvature="0"
           style="fill:#800000" />
      </g>
    </g>
  </g>
</svg>
