<?xml version="1.0" encoding="UTF-8" standalone="no"?>
<svg
   xmlns:dc="http://purl.org/dc/elements/1.1/"
   xmlns:cc="http://creativecommons.org/ns#"
   xmlns:rdf="http://www.w3.org/1999/02/22-rdf-syntax-ns#"
   xmlns:svg="http://www.w3.org/2000/svg"
   xmlns="http://www.w3.org/2000/svg"
   xmlns:sodipodi="http://sodipodi.sourceforge.net/DTD/sodipodi-0.dtd"
   xmlns:inkscape="http://www.inkscape.org/namespaces/inkscape"
   viewBox="0 0 64 64"
   id="svg2"
   version="1.1"
   inkscape:version="0.91 r13725"
   sodipodi:docname="video-mlt-playlist.svg">
  <metadata
     id="metadata19">
    <rdf:RDF>
      <cc:Work
         rdf:about="">
        <dc:format>image/svg+xml</dc:format>
        <dc:type
           rdf:resource="http://purl.org/dc/dcmitype/StillImage" />
        <dc:title></dc:title>
      </cc:Work>
    </rdf:RDF>
  </metadata>
  <sodipodi:namedview
     pagecolor="#ffffff"
     bordercolor="#666666"
     borderopacity="1"
     objecttolerance="10"
     gridtolerance="10"
     guidetolerance="10"
     inkscape:pageopacity="0"
     inkscape:pageshadow="2"
     inkscape:window-width="1280"
     inkscape:window-height="694"
     id="namedview17"
     showgrid="true"
     inkscape:zoom="3.6875"
     inkscape:cx="-12.20339"
     inkscape:cy="32"
     inkscape:window-x="0"
     inkscape:window-y="0"
     inkscape:window-maximized="1"
     inkscape:current-layer="svg2">
    <inkscape:grid
       type="xygrid"
       id="grid4147" />
  </sodipodi:namedview>
  <defs
     id="defs4">
    <linearGradient
       id="0"
       x1="-74.929"
       y1="52.2"
       x2="-75.26"
       y2="2.356"
       gradientUnits="userSpaceOnUse"
       gradientTransform="matrix(1.5454017,0,0,0.9001701,148.69446,-1.0745671)">
      <stop
         stop-color="#7737c5"
         id="stop7" />
      <stop
         offset="1"
         stop-color="#9371ff"
         id="stop9" />
    </linearGradient>
  </defs>
  <rect
     style="fill:url(#0);stroke-width:1"
     id="rect13"
     rx="3.5939908"
     y="0.37806776"
     x="0.50847554"
     height="52.936775"
     width="63.254234" />
  <path
     style="fill:#ece5fa;stroke:none;stroke-opacity:0.8"
     inkscape:connector-curvature="0"
     id="path15"
     d="m 29.18845,63.506736 26.795493,0 c 1.141061,0 2.074525,-0.842985 2.074525,-1.873572 l 0,-25.675014 c 0,-1.028202 -0.934185,-1.873573 -2.074525,-1.873573 l -26.795493,0 c -1.143622,0 -2.075887,0.845371 -2.075887,1.873573 l 0,25.675014 c 0,1.030587 0.932265,1.873572 2.075887,1.873572 M 52.99724,36.376604 c 0,-0.310984 0.281704,-0.562013 0.62255,-0.562013 l 1.945038,0 c 0.343487,0 0.621269,0.251029 0.621269,0.562013 l 0,1.810219 c 0,0.310984 -0.277782,0.562013 -0.621269,0.562013 l -1.945038,0 c -0.340846,0 -0.62255,-0.25045 -0.62255,-0.562013 l 0,-1.810219 m 0,4.604738 c 0,-0.310984 0.281704,-0.562592 0.62255,-0.562592 l 1.945038,0 c 0.343487,0 0.621269,0.251608 0.621269,0.562592 l 0,1.810219 c 0,0.310405 -0.277782,0.563749 -0.621269,0.563749 l -1.945038,0 c -0.340846,0 -0.62255,-0.253344 -0.62255,-0.563749 l 0,-1.810219 m 0,4.608355 c 0,-0.310406 0.281704,-0.56375 0.62255,-0.56375 l 1.945038,0 c 0.343487,0 0.621269,0.253344 0.621269,0.56375 l 0,1.810942 c 0,0.308018 -0.277782,0.561435 -0.621269,0.561435 l -1.945038,0 c -0.340846,0 -0.62255,-0.253344 -0.62255,-0.561435 l 0,-1.810942 m 0,4.604739 c 0,-0.310986 0.281704,-0.563751 0.62255,-0.563751 l 1.945038,0 c 0.343487,0 0.621269,0.252765 0.621269,0.563751 l 0,1.810941 c 0,0.310405 -0.277782,0.562013 -0.621269,0.562013 l -1.945038,0 c -0.340846,0 -0.62255,-0.251608 -0.62255,-0.562013 l 0,-1.810941 m 0,4.604738 c 0,-0.310985 0.281704,-0.562014 0.62255,-0.562014 l 1.945038,0 c 0.343487,0 0.621269,0.250451 0.621269,0.562014 l 0,1.811664 c 0,0.309249 -0.277782,0.560857 -0.621269,0.560857 l -1.945038,0 c -0.340846,0 -0.62255,-0.251608 -0.62255,-0.560857 l 0,-1.811664 m 0,4.604738 c 0,-0.309249 0.281704,-0.562014 0.62255,-0.562014 l 1.945038,0 c 0.343487,0 0.621269,0.252765 0.621269,0.562014 l 0,1.813834 c 0,0.306862 -0.277782,0.560857 -0.621269,0.560857 l -1.945038,0 c -0.340846,0 -0.62255,-0.253344 -0.62255,-0.560857 l 0,-1.813834 M 34.307939,37.73481 c 0,-0.310984 0.280344,-0.562013 0.623831,-0.562013 l 15.309652,0 c 0.341567,0 0.62127,0.251029 0.62127,0.562013 l 0,8.963583 c 0,0.308018 -0.279703,0.563749 -0.62127,0.563749 l -15.309652,0 c -0.343487,0 -0.623831,-0.255731 -0.623831,-0.563749 -8e-6,0 -8e-6,-8.963583 -8e-6,-8.963583 m 0,13.822171 c 0,-0.30867 0.280344,-0.560278 0.623831,-0.560278 l 15.309652,0 c 0.341567,0 0.62127,0.251608 0.62127,0.560278 l 0,8.285925 c 0,0.309249 -0.279703,0.562014 -0.62127,0.562014 l -15.309652,0 c -0.343487,0 -0.623831,-0.252765 -0.623831,-0.562014 -8e-6,0 -8e-6,-8.285925 -8e-6,-8.285925 m -5.323564,-15.1811 c 0,-0.310985 0.279703,-0.562014 0.622549,-0.562014 l 1.945759,0 c 0.341566,0 0.620628,0.251029 0.620628,0.562014 l 0,1.810219 c 0,0.310984 -0.279062,0.562013 -0.620628,0.562013 l -1.945759,0 c -0.342846,0 -0.622549,-0.25045 -0.622549,-0.562013 0,0 0,-1.810219 0,-1.810219 m 0,4.604738 c 0,-0.310985 0.279703,-0.562592 0.622549,-0.562592 l 1.945759,0 c 0.341566,0 0.620628,0.251607 0.620628,0.562592 l 0,1.810218 c 0,0.310406 -0.279062,0.56375 -0.620628,0.56375 l -1.945759,0 c -0.342846,0 -0.622549,-0.253344 -0.622549,-0.56375 0,0 0,-1.810218 0,-1.810218 m 0,4.608354 c 0,-0.310405 0.279703,-0.563749 0.622549,-0.563749 l 1.945759,0 c 0.341566,0 0.620628,0.253344 0.620628,0.563749 l 0,1.810942 c 0,0.308019 -0.279062,0.561435 -0.620628,0.561435 l -1.945759,0 c -0.342846,0 -0.622549,-0.253344 -0.622549,-0.561435 0,0 0,-1.810942 0,-1.810942 m 0,4.60474 c 0,-0.310985 0.279703,-0.56375 0.622549,-0.56375 l 1.945759,0 c 0.341566,0 0.620628,0.252765 0.620628,0.56375 l 0,1.81094 c 0,0.310406 -0.279062,0.562014 -0.620628,0.562014 l -1.945759,0 c -0.342846,0 -0.622549,-0.251608 -0.622549,-0.562014 0,0 0,-1.81094 0,-1.81094 m 0,4.604737 c 0,-0.310984 0.279703,-0.562013 0.622549,-0.562013 l 1.945759,0 c 0.341566,0 0.620628,0.25045 0.620628,0.562013 l 0,1.811665 c 0,0.309249 -0.279062,0.560857 -0.620628,0.560857 l -1.945759,0 c -0.342846,0 -0.622549,-0.251608 -0.622549,-0.560857 0,0 0,-1.811665 0,-1.811665 m 0,4.604738 c 0,-0.309248 0.279703,-0.562013 0.622549,-0.562013 l 1.945759,0 c 0.341566,0 0.620628,0.252765 0.620628,0.562013 l 0,1.813834 c 0,0.306863 -0.279062,0.560858 -0.620628,0.560858 l -1.945759,0 c -0.342846,0 -0.622549,-0.253344 -0.622549,-0.560858 0,-6e-6 0,-1.813834 0,-1.813834" />
</svg>
