<?xml version="1.0" encoding="UTF-8" standalone="no"?>
<svg
   xmlns:dc="http://purl.org/dc/elements/1.1/"
   xmlns:cc="http://creativecommons.org/ns#"
   xmlns:rdf="http://www.w3.org/1999/02/22-rdf-syntax-ns#"
   xmlns:svg="http://www.w3.org/2000/svg"
   xmlns="http://www.w3.org/2000/svg"
   xmlns:sodipodi="http://sodipodi.sourceforge.net/DTD/sodipodi-0.dtd"
   xmlns:inkscape="http://www.inkscape.org/namespaces/inkscape"
   viewBox="0 0 16 16"
   id="svg2"
   version="1.1"
   inkscape:version="0.91 r13725"
   sodipodi:docname="folder-grey.svg">
  <metadata
     id="metadata18">
    <rdf:RDF>
      <cc:Work
         rdf:about="">
        <dc:format>image/svg+xml</dc:format>
        <dc:type
           rdf:resource="http://purl.org/dc/dcmitype/StillImage" />
        <dc:title></dc:title>
      </cc:Work>
    </rdf:RDF>
  </metadata>
  <defs
     id="defs16" />
  <sodipodi:namedview
     pagecolor="#ffffff"
     bordercolor="#666666"
     borderopacity="1"
     objecttolerance="10"
     gridtolerance="10"
     guidetolerance="10"
     inkscape:pageopacity="0"
     inkscape:pageshadow="2"
     inkscape:window-width="1280"
     inkscape:window-height="694"
     id="namedview14"
     showgrid="false"
     inkscape:zoom="14.75"
     inkscape:cx="7.220339"
     inkscape:cy="8"
     inkscape:window-x="0"
     inkscape:window-y="0"
     inkscape:window-maximized="1"
     inkscape:current-layer="svg2" />
  <g
     transform="matrix(.04235 0 0 .04193 12.359-25.862)"
     fill="#60aae5"
     stroke="#4f96d1"
     id="g4"
     style="fill:#808080">
    <g
       fill="#aaa"
       id="g6"
       style="fill:#808080">
      <path
         transform="matrix(.7872 0 0 .79524 415.34 430.11)"
         d="m-884.1 294.78c-4.626 0-8.349 3.718-8.349 8.335v119.41l468.19 1v-79.2c0-4.618-3.724-8.335-8.35-8.335h-272.65c-8.51.751-9.607-.377-13.812-5.981-5.964-7.968-14.969-21.443-20.84-29.21-4.712-6.805-5.477-6.02-13.292-6.02z"
         stroke="none"
         color="#000"
         id="path8"
         style="fill:#808080" />
      <path
         d="m.588 4.07c-.178 0-.32.142-.32.32v9.199c0 .178.142.32.32.32h14.824c.178 0 .32-.142.32-.32v-9.199c0-.178-.142-.32-.32-.32z"
         transform="matrix(23.61017 0 0 23.85134-291.8 616.81)"
         stroke="#aaa"
         stroke-width=".079"
         id="path10"
         style="fill:#808080" />
    </g>
    <rect
       transform="matrix(.7872 0 0 .79524 415.34 430.11)"
       y="356.85"
       x="-890.28"
       height="295.13"
       width="463.85"
       fill="none"
       stroke="#aaa"
       stroke-linejoin="round"
       stroke-linecap="round"
       stroke-width="5.376"
       rx="9.63"
       id="rect12"
       style="fill:#808080" />
  </g>
</svg>
