<?xml version="1.0" encoding="UTF-8" standalone="no"?>
<svg
   xmlns:dc="http://purl.org/dc/elements/1.1/"
   xmlns:cc="http://creativecommons.org/ns#"
   xmlns:rdf="http://www.w3.org/1999/02/22-rdf-syntax-ns#"
   xmlns:svg="http://www.w3.org/2000/svg"
   xmlns="http://www.w3.org/2000/svg"
   xmlns:sodipodi="http://sodipodi.sourceforge.net/DTD/sodipodi-0.dtd"
   xmlns:inkscape="http://www.inkscape.org/namespaces/inkscape"
   viewBox="0 0 16 16"
   id="svg2"
   version="1.1"
   inkscape:version="0.91 r13725"
   sodipodi:docname="folder-images.svg">
  <metadata
     id="metadata22">
    <rdf:RDF>
      <cc:Work
         rdf:about="">
        <dc:format>image/svg+xml</dc:format>
        <dc:type
           rdf:resource="http://purl.org/dc/dcmitype/StillImage" />
        <dc:title></dc:title>
      </cc:Work>
    </rdf:RDF>
  </metadata>
  <defs
     id="defs20" />
  <sodipodi:namedview
     pagecolor="#ffffff"
     bordercolor="#666666"
     borderopacity="1"
     objecttolerance="10"
     gridtolerance="10"
     guidetolerance="10"
     inkscape:pageopacity="0"
     inkscape:pageshadow="2"
     inkscape:window-width="1280"
     inkscape:window-height="688"
     id="namedview18"
     showgrid="false"
     inkscape:zoom="14.75"
     inkscape:cx="-3.0508475"
     inkscape:cy="8"
     inkscape:window-x="0"
     inkscape:window-y="0"
     inkscape:window-maximized="1"
     inkscape:current-layer="svg2" />
  <g
     id="g3"
     transform="matrix(0.02893304,0,0,0.02445261,0.98023695,2.1350799)"
     style="fill:#566060;fill-opacity:0.80000001">
    <g
       id="g5"
       style="fill:#566060;fill-opacity:0.80000001">
      <path
         d="m 138.371,103.646 c -28.327,0 -51.313,25.617 -51.313,57.214 l 0,39.805 C 75.287,213.245 71.72,248.453 71.72,267.042 l 131.75,0 c 0,-18.578 -2.002,-53.787 -13.773,-66.378 l 0,-39.804 c -0.001,-31.581 -22.981,-57.214 -51.326,-57.214 z m 40.077,72.902 c -0.252,0 -0.455,-0.157 -0.707,-0.192 -0.656,1.936 -1.46,3.784 -2.396,5.584 -6.882,13.439 -20.826,22.655 -36.975,22.655 -14.001,0 -26.324,-6.963 -33.857,-17.573 -0.005,-0.01 -0.01,-0.02 -0.015,-0.03 -1.155,-1.611 -2.206,-3.294 -3.115,-5.072 -0.933,-1.779 -1.729,-3.628 -2.385,-5.563 -0.232,0.035 -0.435,0.192 -0.695,0.192 -4.082,0 -7.406,-4.441 -7.406,-9.936 0,-3.995 1.798,-7.284 4.335,-8.814 0.771,3.165 1.707,5.105 1.907,5.063 -0.683,-1.147 7.725,-19.092 37.796,-13.42 8.649,1.63 14.177,-3.613 17.138,-10.659 0.385,0.109 0.738,0.232 1.152,0.321 19.938,4.704 25.082,23.045 24.476,23.747 0.182,0.063 1.05,-2.692 1.606,-6.892 0.051,0.339 0.142,0.669 0.191,1.011 3.567,0.713 6.356,4.656 6.356,9.628 10e-4,5.509 -3.323,9.95 -7.406,9.95 z"
         id="path7"
         inkscape:connector-curvature="0"
         style="fill:#566060;fill-opacity:0.80000001" />
      <path
         d="m 155.863,153.87 c -4.39,0 -7.962,3.572 -7.962,7.962 0,4.39 3.572,7.962 7.962,7.962 4.396,0 7.972,-3.572 7.972,-7.962 0,-4.382 -3.574,-7.954 -7.972,-7.962 z"
         id="path9"
         inkscape:connector-curvature="0"
         style="fill:#566060;fill-opacity:0.80000001" />
      <path
         d="m 128.851,161.832 c 0,-4.382 -3.574,-7.954 -7.973,-7.962 -4.39,0 -7.962,3.572 -7.962,7.962 0,4.39 3.572,7.962 7.962,7.962 4.397,0 7.973,-3.571 7.973,-7.962 z"
         id="path11"
         inkscape:connector-curvature="0"
         style="fill:#566060;fill-opacity:0.80000001" />
      <path
         d="m 149.082,186.766 c -2.534,1.724 -6.438,2.713 -10.711,2.713 -4.262,0 -8.171,-0.991 -10.726,-2.718 -1.183,-0.8 -2.766,-0.656 -3.785,0.346 -1.018,1.002 -1.189,2.583 -0.408,3.779 2.67,4.089 8.386,6.629 14.918,6.629 6.538,0 12.253,-2.542 14.915,-6.634 0.779,-1.198 0.605,-2.779 -0.416,-3.779 -1.02,-1 -2.604,-1.141 -3.787,-0.336 z"
         id="path13"
         inkscape:connector-curvature="0"
         style="fill:#566060;fill-opacity:0.80000001" />
      <path
         d="m 392.551,243.889 -1.457,3.135 c -2.67,-4.409 -6.402,-11.096 -10.594,-18.604 -11.816,-21.17 -28.002,-50.165 -44.762,-72.784 l -0.342,-0.44 c -16.662,-20.617 -35.176,-30.641 -56.593,-30.641 -6.991,0 -14.317,1.116 -21.776,3.316 -25.36,7.477 -29.272,23.495 -29.776,30.02 -0.987,12.584 8.693,36.239 34.591,48.491 l 0.021,18.76 c 12.867,-3.451 28.646,-10.37 29.91,-20.682 1.047,-8.535 -3.346,-16.737 -11.123,-20.439 -23.09,-10.955 -27.32,-20.581 -26.955,-24.072 1.623,-15.56 34.305,-21.107 60.9,11.707 15.686,21.22 31.318,49.225 42.742,69.692 3.697,6.624 6.896,12.356 9.557,16.881 l -75.902,163.775 c -7.472,-2.03 -14.006,-2.938 -20.617,-2.938 -4.116,0 -7.891,0.342 -11.562,0.674 -4.035,0.363 -8.208,0.738 -13.562,0.738 -3.56,0 -7.269,-0.162 -11.342,-0.497 -24.182,-1.979 -62.97,-20.846 -80.709,-30.871 -8.762,-6.45 -9.573,-10.621 -7.959,-19.165 l -26.796,0 c -1.475,12.638 0.71,27.337 19.808,41.091 l 0.574,0.414 0.614,0.35 c 5.682,3.235 56.541,31.69 92.301,34.617 4.8,0.395 9.22,0.586 13.509,0.586 6.547,0 11.537,-0.449 15.979,-0.85 3.344,-0.304 6.229,-0.563 9.148,-0.563 4.806,0 10.918,0.61 22.982,5.029 l 2.594,1.027 -1.359,2.923 65.969,30.673 97.957,-210.679 -65.97,-30.674 z"
         id="path15"
         inkscape:connector-curvature="0"
         style="fill:#566060;fill-opacity:0.80000001" />
      <path
         d="m 249.519,319.042 0,-100.323 -7.12,-5.008 c -7.65,-4.529 -14.047,-10.074 -19.181,-16.085 l 0,92.437 -170.197,0 0,-223.191 170.197,0 0,62.13 c 5.403,-4.521 12.677,-8.631 22.512,-11.53 1.267,-0.373 2.528,-0.711 3.789,-1.029 l 0,-78.552 C 249.519,16.964 232.555,0 211.628,0 L 64.612,0 C 43.685,0 26.721,16.964 26.721,37.891 l 0,281.15 c 0,20.928 16.964,37.893 37.891,37.893 l 147.017,0 c 20.926,0 37.89,-16.965 37.89,-37.892 z M 198.236,34.95 c 4.488,0 8.125,3.638 8.125,8.126 0,4.488 -3.637,8.126 -8.125,8.126 -4.488,0 -8.127,-3.638 -8.127,-8.126 0,-4.488 3.639,-8.126 8.127,-8.126 z m -95.282,1.526 70.332,0 0,13.27 -70.332,0 0,-13.27 z m 35.166,291.28 c -7.818,0 -14.155,-6.337 -14.155,-14.154 0,-7.816 6.337,-14.153 14.155,-14.153 7.817,0 14.154,6.337 14.154,14.153 0,7.817 -6.337,14.154 -14.154,14.154 z"
         id="path17"
         inkscape:connector-curvature="0"
         style="fill:#566060;fill-opacity:0.80000001" />
    </g>
  </g>
</svg>
