<?xml version="1.0" encoding="UTF-8" standalone="no"?>
<!-- Generator: Adobe Illustrator 19.0.0, SVG Export Plug-In . SVG Version: 6.00 Build 0)  -->

<svg
   xmlns:dc="http://purl.org/dc/elements/1.1/"
   xmlns:cc="http://creativecommons.org/ns#"
   xmlns:rdf="http://www.w3.org/1999/02/22-rdf-syntax-ns#"
   xmlns:svg="http://www.w3.org/2000/svg"
   xmlns="http://www.w3.org/2000/svg"
   xmlns:sodipodi="http://sodipodi.sourceforge.net/DTD/sodipodi-0.dtd"
   xmlns:inkscape="http://www.inkscape.org/namespaces/inkscape"
   version="1.1"
   id="Capa_1"
   x="0px"
   y="0px"
   viewBox="0 0 59 59"
   style="enable-background:new 0 0 59 59;"
   xml:space="preserve"
   inkscape:version="0.91 r13725"
   sodipodi:docname="input-mouse.svg"><metadata
     id="metadata51"><rdf:RDF><cc:Work
         rdf:about=""><dc:format>image/svg+xml</dc:format><dc:type
           rdf:resource="http://purl.org/dc/dcmitype/StillImage" /><dc:title></dc:title></cc:Work></rdf:RDF></metadata><defs
     id="defs49" /><sodipodi:namedview
     pagecolor="#ffffff"
     bordercolor="#666666"
     borderopacity="1"
     objecttolerance="10"
     gridtolerance="10"
     guidetolerance="10"
     inkscape:pageopacity="0"
     inkscape:pageshadow="2"
     inkscape:window-width="1280"
     inkscape:window-height="694"
     id="namedview47"
     showgrid="false"
     inkscape:zoom="4"
     inkscape:cx="-11.25"
     inkscape:cy="29.5"
     inkscape:window-x="0"
     inkscape:window-y="0"
     inkscape:window-maximized="1"
     inkscape:current-layer="Capa_1" /><path
     style="fill:#939dac"
     d="M14.401,31.656c0.837-2.99,1.17-6.09,1.065-9.193c-0.164-4.861-1.72-10.372-0.728-14.234  c0.442-3.093,2.886-5.515,5.983-5.928h0c7.029-1.772,13.553-1.702,19.527,0h0c3.097,0.413,5.542,2.835,5.983,5.928  c1.484,5.777,1.683,11.808,0.584,17.67l-0.673,3.588c0.858,2.478,1.342,5.178,1.342,8.012c0,11.874-8.283,21.5-18.5,21.5  s-17.5-6.126-17.5-18C11.485,37.776,13.598,34.523,14.401,31.656z"
     id="path3" /><path
     style="fill:#546A79;"
     d="M46.816,25.9l-0.673,3.588c0.858,2.478,1.342,5.178,1.342,8.012c0,3.021-0.541,5.893-1.509,8.501  c-11.7,3.958-1.552-14.807,0.928-20.655C46.873,25.53,46.851,25.716,46.816,25.9z"
     id="path5" /><path
     style="fill:#546A79;"
     d="M11.512,40.644c0.145-3.107,2.116-6.226,2.889-8.988c0.837-2.99,1.17-6.09,1.065-9.193  c-0.002-0.076-0.008-0.153-0.011-0.229C18.127,31.726,21.305,45.361,11.512,40.644z"
     id="path7" /><path
     style="fill:#38454F;stroke:#546A79;stroke-width:2;stroke-linecap:round;stroke-linejoin:round;stroke-miterlimit:10;"
     d="  M30.485,21L30.485,21c1.1,0,2-0.9,2-2v-8c0-1.1-0.9-2-2-2h0c-1.1,0-2,0.9-2,2v8C28.485,20.1,29.385,21,30.485,21z"
     id="path9" /><line
     style="fill:#FFFFFF;stroke:#546A79;stroke-width:2;stroke-linecap:round;stroke-linejoin:round;stroke-miterlimit:10;"
     x1="30.485"
     y1="9"
     x2="30.485"
     y2="1"
     id="line11" /><line
     style="fill:none;stroke:#546A79;stroke-width:2;stroke-linecap:round;stroke-linejoin:round;stroke-miterlimit:10;"
     x1="30.485"
     y1="21"
     x2="30.485"
     y2="27"
     id="line13" /><circle
     style="fill:#535d6c"
     cx="29.485"
     cy="44"
     r="4"
     id="circle15" /><g
     id="g17" /><g
     id="g19" /><g
     id="g21" /><g
     id="g23" /><g
     id="g25" /><g
     id="g27" /><g
     id="g29" /><g
     id="g31" /><g
     id="g33" /><g
     id="g35" /><g
     id="g37" /><g
     id="g39" /><g
     id="g41" /><g
     id="g43" /><g
     id="g45" /></svg>