<?xml version="1.0" encoding="UTF-8" standalone="no"?>
<svg
   xmlns:dc="http://purl.org/dc/elements/1.1/"
   xmlns:cc="http://creativecommons.org/ns#"
   xmlns:rdf="http://www.w3.org/1999/02/22-rdf-syntax-ns#"
   xmlns:svg="http://www.w3.org/2000/svg"
   xmlns="http://www.w3.org/2000/svg"
   xmlns:xlink="http://www.w3.org/1999/xlink"
   xmlns:sodipodi="http://sodipodi.sourceforge.net/DTD/sodipodi-0.dtd"
   xmlns:inkscape="http://www.inkscape.org/namespaces/inkscape"
   viewBox="0 0 48 48"
   id="svg2"
   version="1.1"
   inkscape:version="0.91 r13725"
   sodipodi:docname="input-gaming.svg">
  <metadata
     id="metadata44">
    <rdf:RDF>
      <cc:Work
         rdf:about="">
        <dc:format>image/svg+xml</dc:format>
        <dc:type
           rdf:resource="http://purl.org/dc/dcmitype/StillImage" />
        <dc:title></dc:title>
      </cc:Work>
    </rdf:RDF>
  </metadata>
  <sodipodi:namedview
     pagecolor="#ffffff"
     bordercolor="#666666"
     borderopacity="1"
     objecttolerance="10"
     gridtolerance="10"
     guidetolerance="10"
     inkscape:pageopacity="0"
     inkscape:pageshadow="2"
     inkscape:window-width="1280"
     inkscape:window-height="694"
     id="namedview42"
     showgrid="false"
     inkscape:zoom="4.9166667"
     inkscape:cx="-9.1525424"
     inkscape:cy="24"
     inkscape:window-x="0"
     inkscape:window-y="0"
     inkscape:window-maximized="1"
     inkscape:current-layer="svg2" />
  <defs
     id="defs4">
    <linearGradient
       xlink:href="#5"
       id="4"
       y1="530.8"
       x2="0"
       y2="509.8"
       gradientUnits="userSpaceOnUse"
       gradientTransform="matrix(0.86914,0,0,0.90825192,-382.05,-455.94768)" />
    <linearGradient
       id="5">
      <stop
         stop-color="#333"
         id="stop8" />
      <stop
         offset="1"
         stop-color="#353535"
         id="stop10" />
    </linearGradient>
    <linearGradient
       id="3"
       y1="531.05"
       x2="0"
       y2="509.15"
       gradientUnits="userSpaceOnUse"
       gradientTransform="matrix(0.86914,0,0,0.90825192,-382.05,-455.94768)">
      <stop
         stop-color="#f0a23a"
         id="stop13" />
      <stop
         offset="1"
         stop-color="#fde46a"
         id="stop15" />
    </linearGradient>
    <linearGradient
       xlink:href="#5"
       id="1"
       y1="545.3"
       x2="0"
       y2="533.3"
       gradientUnits="userSpaceOnUse"
       gradientTransform="matrix(0.86914,0,0,0.90825192,-382.05,-455.94768)" />
    <linearGradient
       id="0"
       y1="555.8"
       x2="0"
       y2="502.8"
       gradientUnits="userSpaceOnUse"
       gradientTransform="matrix(0.86914,0,0,0.90825192,-382.05,-455.94768)">
      <stop
         stop-color="#bfc1c1"
         id="stop19" />
      <stop
         offset="1"
         stop-color="#f1f2f3"
         id="stop21" />
    </linearGradient>
    <linearGradient
       id="2"
       y1="533.8"
       x2="0"
       y2="521.8"
       gradientUnits="userSpaceOnUse"
       gradientTransform="matrix(0.86914,0,0,0.90825192,-382.05,-455.94768)">
      <stop
         stop-color="#08f"
         id="stop24" />
      <stop
         offset="1"
         stop-color="#02c3ff"
         id="stop26" />
    </linearGradient>
  </defs>
  <ellipse
     cx="23.899225"
     cy="34.780823"
     id="circle32"
     style="fill:#373e48;fill-rule:evenodd"
     rx="4.3456998"
     ry="4.5412598" />
  <ellipse
     cx="24.11651"
     cy="24.335924"
     id="circle34"
     style="fill:#2a7fff;fill-rule:evenodd"
     rx="4.3456998"
     ry="4.5412598" />
  <ellipse
     cx="36.61475"
     cy="18.087147"
     id="circle36"
     style="fill:url(#3);fill-rule:evenodd"
     rx="7.9309025"
     ry="8.2877989" />
  <ellipse
     cx="10.210271"
     cy="18.205223"
     id="circle38"
     style="fill:#373e48;fill-rule:evenodd"
     rx="7.6049752"
     ry="7.9472041" />
  <path
     inkscape:connector-curvature="0"
     style="fill:#dbdee3"
     id="path40"
     d="M 46.983578,15.244334 C 45.376538,8.219005 42.465788,6.3698041 39.25084,6.6786097 l -5.272204,0 c -0.04433,-5.68293224 -4.49693,-6.2996353 -9.982942,-6.2996353 -5.489488,0 -9.939485,0.6157948 -9.982942,6.2996353 0,0 -5.0627402,0 -6.8192721,0 -2.6161114,0 -4.8411098,2.6902422 -6.1839311,8.5657243 -1.81911006,7.939938 -1.28632724,19.472012 2.4170783,20.400246 2.2858382,0.57129 5.2409142,-3.040827 7.6014989,-7.753747 l 6.08398,2.371446 c 1.792166,9.127932 4.21359,17.347612 6.884457,17.347612 2.681297,0 5.113151,-8.295065 6.907925,-17.477492 l 6.010103,-2.341473 c 2.366669,4.763781 5.352164,8.431302 7.654516,7.85547 3.703406,-0.927325 4.236189,-12.460308 2.417079,-20.400246 m -9.271117,-2.999048 c 1.00038,0 1.807811,0.846491 1.807811,1.890072 0,1.04449 -0.8083,1.890073 -1.807811,1.890073 -1.00038,0 -1.80868,-0.846491 -1.80868,-1.890073 0,-1.044489 0.8083,-1.890072 1.80868,-1.890072 M 27.046376,24.392247 c 0,1.672092 -1.297626,3.026295 -2.897713,3.026295 -1.599218,0 -2.895974,-1.355112 -2.895974,-3.026295 0,-1.672092 1.296756,-3.027204 2.895974,-3.027204 1.600956,0 2.897713,1.35602 2.897713,3.027204 M 15.802312,19.275156 c 0,0.413254 -0.320713,0.747491 -0.715303,0.747491 l -2.47618,0 0,2.58761 c 0,0.413254 -0.320712,0.747491 -0.715302,0.747491 l -2.3744902,0 c -0.3945896,0 -0.7153022,-0.334237 -0.7153022,-0.747491 l 0,-2.58761 -1.6105165,0 -0.8665325,0 c -0.3945896,0 -0.7153023,-0.334237 -0.7153023,-0.747491 l 0,-2.481345 c 0,-0.413254 0.3207127,-0.747491 0.7153023,-0.747491 l 0.8665325,0 1.6105165,0 0,-2.58761 c 0,-0.413254 0.3207126,-0.747491 0.7153022,-0.747491 l 2.3744902,0 c 0.39459,0 0.715302,0.334237 0.715302,0.747491 l 0,2.58761 2.47618,0 c 0.39459,0 0.715303,0.334237 0.715303,0.747491 l 0,2.481345 m 10.841652,15.212311 c 0,1.439579 -1.116845,2.605775 -2.495301,2.605775 -1.377587,0 -2.493563,-1.166196 -2.493563,-2.605775 0,-0.847399 0.392852,-1.592166 0.991689,-2.068998 0.418056,-0.33242 0.935195,-0.537685 1.501874,-0.537685 0.471943,0 0.90912,0.144412 1.284589,0.382374 0.723124,0.456851 1.210712,1.277911 1.210712,2.224309 M 33.98559,19.928189 c -1.000381,0 -1.808681,-0.847399 -1.808681,-1.890981 0,-1.042673 0.8083,-1.889164 1.808681,-1.889164 1.00038,0 1.807811,0.847399 1.807811,1.889164 0,1.04449 -0.8083,1.890981 -1.807811,1.890981 m 1.921668,2.007236 c 0,-1.044489 0.8083,-1.890072 1.80868,-1.890072 1.000381,0 1.807812,0.846491 1.807812,1.890072 0,1.04449 -0.808301,1.890073 -1.807812,1.890073 -1.00038,0 -1.80868,-0.846491 -1.80868,-1.890073 m 5.53816,-2.007236 c -0.359824,0 -0.674453,-0.137146 -0.956054,-0.326063 -0.501494,-0.336053 -0.852626,-0.896444 -0.852626,-1.564918 0,-0.668473 0.351132,-1.227048 0.852626,-1.563101 0.281601,-0.188917 0.59623,-0.326063 0.956054,-0.326063 1.00038,0 1.807811,0.847399 1.807811,1.889164 0,1.04449 -0.8083,1.890981 -1.807811,1.890981" />
</svg>
