<?xml version="1.0" encoding="UTF-8" standalone="no"?>
<svg
   xmlns:dc="http://purl.org/dc/elements/1.1/"
   xmlns:cc="http://creativecommons.org/ns#"
   xmlns:rdf="http://www.w3.org/1999/02/22-rdf-syntax-ns#"
   xmlns:svg="http://www.w3.org/2000/svg"
   xmlns="http://www.w3.org/2000/svg"
   xmlns:xlink="http://www.w3.org/1999/xlink"
   xmlns:sodipodi="http://sodipodi.sourceforge.net/DTD/sodipodi-0.dtd"
   xmlns:inkscape="http://www.inkscape.org/namespaces/inkscape"
   viewBox="0 0 64 64"
   id="svg13202"
   version="1.1"
   inkscape:version="0.91 r13725"
   sodipodi:docname="folder-publicshare.svg">
  <metadata
     id="metadata13228">
    <rdf:RDF>
      <cc:Work
         rdf:about="">
        <dc:format>image/svg+xml</dc:format>
        <dc:type
           rdf:resource="http://purl.org/dc/dcmitype/StillImage" />
        <dc:title></dc:title>
      </cc:Work>
    </rdf:RDF>
  </metadata>
  <sodipodi:namedview
     pagecolor="#ffffff"
     bordercolor="#666666"
     borderopacity="1"
     objecttolerance="10"
     gridtolerance="10"
     guidetolerance="10"
     inkscape:pageopacity="0"
     inkscape:pageshadow="2"
     inkscape:window-width="1280"
     inkscape:window-height="688"
     id="namedview13226"
     showgrid="false"
     inkscape:zoom="3.6875"
     inkscape:cx="-56.441714"
     inkscape:cy="32"
     inkscape:window-x="0"
     inkscape:window-y="0"
     inkscape:window-maximized="1"
     inkscape:current-layer="svg13202" />
  <defs
     id="defs13204">
    <linearGradient
       xlink:href="#1"
       id="3"
       x1="-19.915"
       y1="1048.7"
       x2="-19.996"
       y2="1025.51"
       gradientUnits="userSpaceOnUse"
       gradientTransform="translate(51.949,-1001.46)" />
    <linearGradient
       gradientUnits="userSpaceOnUse"
       y2="354.29"
       x2="-704.05"
       y1="647.77"
       x1="-701.19"
       id="2"
       gradientTransform="matrix(0.01590505,0,0,0.01845141,129.51168,-45.007092)">
      <stop
         stop-color="#93cfff"
         id="stop13208" />
      <stop
         offset="1"
         stop-color="#cde8fe"
         id="stop13210" />
    </linearGradient>
    <linearGradient
       xlink:href="#1"
       id="0"
       x1="59.12"
       y1="-13.295"
       x2="59.15"
       y2="-37.783"
       gradientUnits="userSpaceOnUse"
       gradientTransform="matrix(0.52660675,0,0,0.52570737,-19.441377,28.676662)" />
    <linearGradient
       id="1">
      <stop
         stop-color="#289bf7"
         id="stop13214" />
      <stop
         offset="1"
         stop-color="#71b9f1"
         id="stop13216" />
    </linearGradient>
  </defs>
  <path
     inkscape:connector-curvature="0"
     style="fill:#d38d5f"
     d="m 63.983051,18.494425 -63.69491534,0 0,-15.8870091 c 0,-1.2856144 1.00594044,-2.3277585 2.24689304,-2.3277585 l 59.2011293,0 c 1.240953,0 2.246893,1.0421441 2.246893,2.3277585 l 0,15.8870091 z"
     id="path3" />
  <rect
     x="3.5827003"
     y="18.494425"
     style="fill:#d38d5f"
     width="57.105785"
     height="45.497101"
     id="rect5" />
  <path
     inkscape:connector-curvature="0"
     style="fill:#a05a2c"
     d="m 42.019287,13.943577 -19.767387,0 c -2.425898,0 -4.392753,-2.037641 -4.392753,-4.5508473 l 0,0 c 0,-2.5132056 1.966855,-4.5508476 4.392753,-4.5508476 l 19.767387,0 c 2.425898,0 4.392753,2.037642 4.392753,4.5508476 l 0,0 c 0,2.5132063 -1.966855,4.5508473 -4.392753,4.5508473 z"
     id="path7" />
  <rect
     x="3.5827003"
     y="58.302963"
     style="fill:#a05a2c"
     width="57.105785"
     height="5.6885595"
     id="rect9" />
  <rect
     x="16.760958"
     y="27.584742"
     style="fill:#f4e3d7"
     width="30.749269"
     height="15.927967"
     id="rect11" />
  <g
     id="g13"
     transform="matrix(1.0981882,0,0,1.1377119,0.28813566,-0.8580545)"
     style="fill:#a05a2c">
    <path
       inkscape:connector-curvature="0"
       style="fill:#a05a2c"
       d="m 19,31 6,0 c 0.553,0 1,-0.447 1,-1 0,-0.553 -0.447,-1 -1,-1 l -6,0 c -0.553,0 -1,0.447 -1,1 0,0.553 0.447,1 1,1 z"
       id="path15" />
    <path
       inkscape:connector-curvature="0"
       style="fill:#a05a2c"
       d="m 29,31 c 0.26,0 0.52,-0.11 0.71,-0.29 C 29.89,30.52 30,30.26 30,30 c 0,-0.261 -0.11,-0.521 -0.29,-0.71 -0.38,-0.37 -1.05,-0.37 -1.42,0 C 28.109,29.479 28,29.739 28,30 c 0,0.27 0.109,0.52 0.29,0.71 C 28.479,30.89 28.729,31 29,31 Z"
       id="path17" />
    <path
       inkscape:connector-curvature="0"
       style="fill:#a05a2c"
       d="m 39,33 -16,0 c -0.553,0 -1,0.447 -1,1 0,0.553 0.447,1 1,1 l 16,0 c 0.553,0 1,-0.447 1,-1 0,-0.553 -0.447,-1 -1,-1 z"
       id="path19" />
    <path
       inkscape:connector-curvature="0"
       style="fill:#a05a2c"
       d="M 18.29,33.29 C 18.109,33.479 18,33.739 18,34 c 0,0.26 0.109,0.52 0.29,0.71 0.189,0.18 0.439,0.29 0.71,0.29 0.27,0 0.52,-0.11 0.71,-0.29 C 19.89,34.52 20,34.26 20,34 c 0,-0.261 -0.11,-0.521 -0.29,-0.71 -0.37,-0.37 -1.04,-0.37 -1.42,0 z"
       id="path21" />
  </g>
  <rect
     x="3.5827003"
     y="18.483047"
     style="fill:#a05a2c"
     width="57.105785"
     height="5.6885595"
     id="rect23" />
  <path
     inkscape:connector-curvature="0"
     style="fill:#ffffff;stroke:none;stroke-width:0.14"
     id="path29"
     d="m 55.208473,0.47443702 c -0.165597,-4.3219e-4 -0.330591,0.064151 -0.457842,0.19279033 L 46.767416,8.7324212 c -0.2545,0.2571111 -0.254672,0.673123 -0.0016,0.9316174 l 7.939366,8.1075554 c 0.253125,0.258495 0.662732,0.260223 0.917146,0.0031 l 7.982386,-8.0669577 c 0.2545,-0.2571111 0.256133,-0.671653 0.003,-0.9301474 L 55.666659,0.66999323 C 55.540097,0.54074676 55.374414,0.47460975 55.208817,0.47417756 M 53.820245,4.9749171 c 0.06861,-3.454e-4 0.137911,0.00729 0.207813,0.021442 0.559212,0.1129937 0.922992,0.6634399 0.811734,1.2314354 -0.111171,0.5679962 -0.654563,0.9374961 -1.214034,0.8245884 -0.558953,-0.1129938 -0.92282,-0.664996 -0.811734,-1.2329922 0.09724,-0.4970176 0.525937,-0.8417915 1.006049,-0.8444721 m 1.311707,2.0484163 c 0.06663,0.00138 0.132408,0.010371 0.195775,0.026019 l 1.420212,0.2646325 c 0.04187,0.00778 0.0822,0.020837 0.120458,0.039772 l 1.034336,0.5093809 c 0.234123,0.1154149 0.331968,0.4016607 0.218388,0.6394063 -0.08151,0.1705714 -0.249857,0.2707707 -0.424739,0.2707707 -0.06895,0 -0.138514,-0.016253 -0.204804,-0.048933 l -0.977417,-0.4818887 -0.432478,-0.079537 0.332828,1.5924635 c 0.0067,0.031988 0.01178,0.064581 0.01505,0.096395 l 0.603578,1.5772479 1.272585,1.083082 c 0.23739,0.202214 0.268429,0.56203 0.0693,0.803148 -0.110999,0.134434 -0.270578,0.203423 -0.430758,0.203423 -0.127164,0 -0.254844,-0.04357 -0.359911,-0.133051 l -1.382552,-1.177922 c -0.07231,-0.06156 -0.128453,-0.140054 -0.162673,-0.229446 L 55.608193,10.85268 c -0.0094,8.01e-4 -0.01926,0.0011 -0.02863,0.0015 l -0.844922,0.75266 -0.241001,1.607765 c -0.0423,0.282009 -0.28167,0.484914 -0.554225,0.484914 -0.02811,0 -0.05718,-0.0017 -0.08581,-0.0061 -0.306261,-0.04746 -0.516738,-0.339068 -0.46988,-0.650126 L 53.656284,11.229 c 0.01995,-0.132965 0.08564,-0.254085 0.185201,-0.3427 l 0.820762,-0.731219 c -0.0016,-0.0069 -0.0031,-0.01288 -0.0046,-0.01988 L 54.338412,8.6069704 53.912211,8.945088 c -0.04462,0.035355 -0.09509,0.062416 -0.149089,0.079536 l -1.212314,0.3854939 c -0.04686,0.014955 -0.09346,0.021442 -0.140061,0.021442 -0.200505,0 -0.387167,-0.1303711 -0.450276,-0.3350048 -0.07781,-0.2522695 0.06036,-0.5204471 0.308753,-0.5996373 l 1.131063,-0.3594713 1.131064,-0.897987 c 0.0094,-0.00743 0.01883,-0.013316 0.02863,-0.019882 0.104723,-0.084033 0.229566,-0.1474022 0.368939,-0.177488 0.06801,-0.014693 0.13516,-0.019707 0.201794,-0.01833" />
</svg>
