<?xml version="1.0" encoding="UTF-8" standalone="no"?>
<svg
   xmlns:dc="http://purl.org/dc/elements/1.1/"
   xmlns:cc="http://creativecommons.org/ns#"
   xmlns:rdf="http://www.w3.org/1999/02/22-rdf-syntax-ns#"
   xmlns:svg="http://www.w3.org/2000/svg"
   xmlns="http://www.w3.org/2000/svg"
   xmlns:xlink="http://www.w3.org/1999/xlink"
   xmlns:sodipodi="http://sodipodi.sourceforge.net/DTD/sodipodi-0.dtd"
   xmlns:inkscape="http://www.inkscape.org/namespaces/inkscape"
   viewBox="0 0 64 64"
   id="svg13202"
   version="1.1"
   inkscape:version="0.91 r13725"
   sodipodi:docname="folder-activities.svg">
  <metadata
     id="metadata13228">
    <rdf:RDF>
      <cc:Work
         rdf:about="">
        <dc:format>image/svg+xml</dc:format>
        <dc:type
           rdf:resource="http://purl.org/dc/dcmitype/StillImage" />
        <dc:title />
      </cc:Work>
    </rdf:RDF>
  </metadata>
  <sodipodi:namedview
     pagecolor="#ffffff"
     bordercolor="#666666"
     borderopacity="1"
     objecttolerance="10"
     gridtolerance="10"
     guidetolerance="10"
     inkscape:pageopacity="0"
     inkscape:pageshadow="2"
     inkscape:window-width="1280"
     inkscape:window-height="688"
     id="namedview13226"
     showgrid="false"
     inkscape:zoom="3.6875"
     inkscape:cx="-39.069203"
     inkscape:cy="32"
     inkscape:window-x="0"
     inkscape:window-y="0"
     inkscape:window-maximized="1"
     inkscape:current-layer="svg13202" />
  <defs
     id="defs13204">
    <linearGradient
       xlink:href="#1"
       id="3"
       x1="-19.915"
       y1="1048.7"
       x2="-19.996"
       y2="1025.51"
       gradientUnits="userSpaceOnUse"
       gradientTransform="translate(51.949,-1001.46)" />
    <linearGradient
       gradientUnits="userSpaceOnUse"
       y2="354.29"
       x2="-704.05"
       y1="647.77"
       x1="-701.19"
       id="2"
       gradientTransform="matrix(0.01590505,0,0,0.01845141,129.51168,-45.007092)">
      <stop
         stop-color="#93cfff"
         id="stop13208" />
      <stop
         offset="1"
         stop-color="#cde8fe"
         id="stop13210" />
    </linearGradient>
    <linearGradient
       xlink:href="#1"
       id="0"
       x1="59.12"
       y1="-13.295"
       x2="59.15"
       y2="-37.783"
       gradientUnits="userSpaceOnUse"
       gradientTransform="matrix(0.52660675,0,0,0.52570737,-19.441377,28.676662)" />
    <linearGradient
       id="1">
      <stop
         stop-color="#289bf7"
         id="stop13214" />
      <stop
         offset="1"
         stop-color="#71b9f1"
         id="stop13216" />
    </linearGradient>
  </defs>
  <path
     inkscape:connector-curvature="0"
     style="fill:#d38d5f"
     d="m 63.711866,18.416896 -63.42373076,0 0,-15.8193879 c 0,-1.2801423 1.00165756,-2.31785064 2.23732676,-2.31785064 l 58.949077,0 c 1.235669,0 2.237327,1.03770834 2.237327,2.31785064 l 0,15.8193879 z"
     id="path3" />
  <rect
     x="3.5686731"
     y="18.416897"
     style="fill:#d38d5f"
     width="56.862656"
     height="45.303448"
     id="rect5" />
  <path
     inkscape:connector-curvature="0"
     style="fill:#a05a2c"
     d="m 41.841614,13.885419 -19.683227,0 c -2.415569,0 -4.37405,-2.028969 -4.37405,-4.531478 l 0,0 c 0,-2.5025085 1.958481,-4.5314774 4.37405,-4.5314774 l 19.683227,0 c 2.415569,0 4.37405,2.0289689 4.37405,4.5314774 l 0,0 c 0,2.502509 -1.958481,4.531478 -4.37405,4.531478 z"
     id="path7" />
  <rect
     x="3.5686731"
     y="58.055992"
     style="fill:#a05a2c"
     width="56.862656"
     height="5.6643467"
     id="rect9" />
  <rect
     x="16.690825"
     y="27.468521"
     style="fill:#f4e3d7"
     width="30.618353"
     height="15.860171"
     id="rect11" />
  <g
     id="g13"
     transform="matrix(1.0935126,0,0,1.1328694,0.28813524,-0.85321189)"
     style="fill:#a05a2c">
    <path
       inkscape:connector-curvature="0"
       style="fill:#a05a2c"
       d="m 19,31 6,0 c 0.553,0 1,-0.447 1,-1 0,-0.553 -0.447,-1 -1,-1 l -6,0 c -0.553,0 -1,0.447 -1,1 0,0.553 0.447,1 1,1 z"
       id="path15" />
    <path
       inkscape:connector-curvature="0"
       style="fill:#a05a2c"
       d="m 29,31 c 0.26,0 0.52,-0.11 0.71,-0.29 C 29.89,30.52 30,30.26 30,30 c 0,-0.261 -0.11,-0.521 -0.29,-0.71 -0.38,-0.37 -1.05,-0.37 -1.42,0 C 28.109,29.479 28,29.739 28,30 c 0,0.27 0.109,0.52 0.29,0.71 C 28.479,30.89 28.729,31 29,31 Z"
       id="path17" />
    <path
       inkscape:connector-curvature="0"
       style="fill:#a05a2c"
       d="m 39,33 -16,0 c -0.553,0 -1,0.447 -1,1 0,0.553 0.447,1 1,1 l 16,0 c 0.553,0 1,-0.447 1,-1 0,-0.553 -0.447,-1 -1,-1 z"
       id="path19" />
    <path
       inkscape:connector-curvature="0"
       style="fill:#a05a2c"
       d="M 18.29,33.29 C 18.109,33.479 18,33.739 18,34 c 0,0.26 0.109,0.52 0.29,0.71 0.189,0.18 0.439,0.29 0.71,0.29 0.27,0 0.52,-0.11 0.71,-0.29 C 19.89,34.52 20,34.26 20,34 c 0,-0.261 -0.11,-0.521 -0.29,-0.71 -0.37,-0.37 -1.04,-0.37 -1.42,0 z"
       id="path21" />
  </g>
  <rect
     x="3.5686731"
     y="18.405567"
     style="fill:#a05a2c"
     width="56.862656"
     height="5.6643467"
     id="rect23" />
  <path
     inkscape:connector-curvature="0"
     style="color:#000000;fill:#ffffff"
     id="path24"
     d="M 50.389668,0.20418396 A 1.2711944,1.3322137 0 0 0 49.117924,1.5369794 1.2711944,1.3322137 0 0 0 50.389668,2.8683268 1.2711944,1.3322137 0 0 0 51.661412,1.5369794 1.2711944,1.3322137 0 0 0 50.389668,0.20418396 m 7.202578,0 -2.409334,2.52499684 3.707645,3.8856364 -3.839849,4.5792778 2.542385,2.331382 5.932233,-7.1051635 -5.932233,-6.21701768 M 48.695024,6.4205977 A 2.1186486,2.2203636 0 0 0 46.576369,8.640961 2.1186486,2.2203636 0 0 0 48.695024,10.861325 2.1186486,2.2203636 0 0 0 50.813679,8.640961 2.1186486,2.2203636 0 0 0 48.695024,6.4205977 M 52.508882,12.6379 a 2.5423787,2.6644363 0 0 0 -2.542114,2.664152 2.5423787,2.6644363 0 0 0 2.542114,2.664143 2.5423787,2.6644363 0 0 0 2.542106,-2.664143 2.5423787,2.6644363 0 0 0 -2.542106,-2.664152" />
</svg>
