<?xml version="1.0" encoding="UTF-8" standalone="no"?>
<svg
   xmlns:dc="http://purl.org/dc/elements/1.1/"
   xmlns:cc="http://creativecommons.org/ns#"
   xmlns:rdf="http://www.w3.org/1999/02/22-rdf-syntax-ns#"
   xmlns:svg="http://www.w3.org/2000/svg"
   xmlns="http://www.w3.org/2000/svg"
   xmlns:sodipodi="http://sodipodi.sourceforge.net/DTD/sodipodi-0.dtd"
   xmlns:inkscape="http://www.inkscape.org/namespaces/inkscape"
   viewBox="0 0 64 64"
   id="svg2"
   version="1.1"
   inkscape:version="0.91 r13725"
   sodipodi:docname="application-x-iwork-keynote-sffkey.svg">
  <metadata
     id="metadata23">
    <rdf:RDF>
      <cc:Work
         rdf:about="">
        <dc:format>image/svg+xml</dc:format>
        <dc:type
           rdf:resource="http://purl.org/dc/dcmitype/StillImage" />
        <dc:title></dc:title>
      </cc:Work>
    </rdf:RDF>
  </metadata>
  <sodipodi:namedview
     pagecolor="#ffffff"
     bordercolor="#666666"
     borderopacity="1"
     objecttolerance="10"
     gridtolerance="10"
     guidetolerance="10"
     inkscape:pageopacity="0"
     inkscape:pageshadow="2"
     inkscape:window-width="1280"
     inkscape:window-height="694"
     id="namedview21"
     showgrid="true"
     inkscape:zoom="3.6875"
     inkscape:cx="-9.3135977"
     inkscape:cy="32"
     inkscape:window-x="0"
     inkscape:window-y="0"
     inkscape:window-maximized="1"
     inkscape:current-layer="svg2">
    <inkscape:grid
       type="xygrid"
       id="grid4139" />
  </sodipodi:namedview>
  <defs
     id="defs4">
    <linearGradient
       id="0"
       x1="-74.929"
       y1="52.2"
       x2="-75.26"
       y2="2.356"
       gradientUnits="userSpaceOnUse"
       gradientTransform="matrix(1.07499,0,0,1.02929,113.079,0.073)">
      <stop
         stop-color="#dc3c30"
         id="stop7" />
      <stop
         offset="1"
         stop-color="#ff786d"
         id="stop9" />
    </linearGradient>
  </defs>
  <rect
     style="fill:#ff5555;stroke-width:1"
     id="rect13"
     rx="3.5785823"
     y="0.37806776"
     x="0.50847554"
     height="52.936775"
     width="62.983047" />
  <g
     transform="matrix(3.7659003,0,0,2.942711,1.7534697,-3015.0388)"
     id="g15"
     style="fill:#ffd5d5;fill-opacity:1">
    <path
       d="m 12.792,1036.26 c 0.064,0.586 -0.172,1.173 -0.521,1.596 -0.349,0.422 -0.923,0.752 -1.484,0.708 -0.076,-0.574 0.208,-1.175 0.531,-1.55 0.361,-0.422 0.971,-0.735 1.474,-0.755"
       id="path17"
       style="fill:#ffd5d5;fill-opacity:1"
       inkscape:connector-curvature="0" />
    <path
       d="m 12.781,1038.68 c 0.326,0.014 1.241,0.133 1.828,0.992 -0.047,0.03 -1.093,0.637 -1.081,1.904 0.013,1.513 1.329,2.02 1.344,2.023 -0.012,0.035 -0.21,0.717 -0.693,1.422 -0.417,0.609 -0.85,1.216 -1.531,1.229 -0.67,0.013 -0.885,-0.398 -1.651,-0.398 -0.766,0 -1,0.383 -1.638,0.409 -0.658,0.024 -1.158,-0.658 -1.578,-1.266 -0.86,-1.241 -1.515,-3.506 -0.633,-5.04 0.437,-0.76 1.219,-1.243 2.068,-1.255 0.646,-0.012 1.257,0.435 1.651,0.435 0.395,0 1.135,-0.537 1.914,-0.458"
       id="path19"
       style="fill:#ffd5d5;fill-opacity:1"
       inkscape:connector-curvature="0" />
  </g>
</svg>
