<?xml version="1.0" encoding="UTF-8" standalone="no"?>
<svg
   xmlns:dc="http://purl.org/dc/elements/1.1/"
   xmlns:cc="http://creativecommons.org/ns#"
   xmlns:rdf="http://www.w3.org/1999/02/22-rdf-syntax-ns#"
   xmlns:svg="http://www.w3.org/2000/svg"
   xmlns="http://www.w3.org/2000/svg"
   xmlns:sodipodi="http://sodipodi.sourceforge.net/DTD/sodipodi-0.dtd"
   xmlns:inkscape="http://www.inkscape.org/namespaces/inkscape"
   viewBox="0 0 64 64"
   id="svg2"
   version="1.1"
   inkscape:version="0.91 r13725"
   sodipodi:docname="application-vnd-google-earth-kml.svg">
  <metadata
     id="metadata33">
    <rdf:RDF>
      <cc:Work
         rdf:about="">
        <dc:format>image/svg+xml</dc:format>
        <dc:type
           rdf:resource="http://purl.org/dc/dcmitype/StillImage" />
        <dc:title></dc:title>
      </cc:Work>
    </rdf:RDF>
  </metadata>
  <sodipodi:namedview
     pagecolor="#ffffff"
     bordercolor="#666666"
     borderopacity="1"
     objecttolerance="10"
     gridtolerance="10"
     guidetolerance="10"
     inkscape:pageopacity="0"
     inkscape:pageshadow="2"
     inkscape:window-width="1280"
     inkscape:window-height="694"
     id="namedview31"
     showgrid="true"
     inkscape:zoom="3.6875"
     inkscape:cx="-27.294501"
     inkscape:cy="32"
     inkscape:window-x="0"
     inkscape:window-y="0"
     inkscape:window-maximized="1"
     inkscape:current-layer="svg2">
    <inkscape:grid
       type="xygrid"
       id="grid4144" />
  </sodipodi:namedview>
  <defs
     id="defs4">
    <linearGradient
       id="0"
       x1="-74.929"
       y1="52.2"
       x2="-75.26"
       y2="2.356"
       gradientUnits="userSpaceOnUse"
       gradientTransform="matrix(1.07499,0,0,1.02929,113.079,0.074)">
      <stop
         stop-color="#197cf1"
         id="stop7" />
      <stop
         offset="1"
         stop-color="#20bcfa"
         id="stop9" />
    </linearGradient>
    <linearGradient
       y2="528.8"
       x2="361.57"
       y1="513.8"
       x1="346.57"
       gradientUnits="userSpaceOnUse"
       id="linearGradient11">
      <stop
         stop-color="#2e5d89"
         id="stop13" />
      <stop
         offset="1"
         stop-color="#1b92f4"
         id="stop15" />
    </linearGradient>
  </defs>
  <rect
     style="fill:#2a7fff"
     id="rect19"
     rx="3.5785823"
     y="0.65025425"
     x="0.50847554"
     height="53.207966"
     width="62.983047" />
  <g
     id="g4143"
     transform="matrix(1.2743714,0,0,1.2016267,-8.918268,-9.5719392)">
    <rect
       style="fill:#d5e5ff;stroke:#e3f0fd;stroke-width:1.33931231"
       id="rect23"
       rx="11.330738"
       width="22.660992"
       height="22.660992"
       x="29.081005"
       y="37.488064" />
    <path
       style="fill:#003380"
       inkscape:connector-curvature="0"
       id="path25"
       d="m 40.541405,37.381228 c -1.439348,0 -2.816052,0.273399 -4.084466,0.771149 0.48561,-0.06847 1.069799,-0.110719 1.769563,-0.110719 3.990257,0 6.2532,1.780732 7.897961,3.668784 1.097479,1.260158 3.003498,5.014408 4.419051,5.014408 0.411797,-0.03642 0.735699,-0.364207 0.990159,-0.865842 -1.374762,-4.894949 -5.77536,-8.47778 -10.992268,-8.47778" />
    <path
       style="fill:#003380"
       inkscape:connector-curvature="0"
       id="path27"
       d="m 33.422362,43.485346 c 3.834377,0 10.581442,8.396683 17.749046,9.250871 0.183075,-0.587589 0.322931,-1.195087 0.414711,-1.81861 -3.258929,-0.733757 -7.356992,-4.663798 -8.82839,-6.144423 -2.303248,-2.314903 -4.453044,-4.638061 -7.402153,-4.638061 -1.006184,0 -1.929814,0.17919 -2.729128,0.427337 -1.48014,1.427207 -2.59073,3.258928 -3.166178,5.324713 1.182946,-1.22228 2.534885,-2.40037 3.962578,-2.40037" />
    <path
       style="fill:#003380;fill-rule:evenodd"
       inkscape:connector-curvature="0"
       id="path29"
       d="m 44.311611,56.520932 c -6.520608,0 -11.44756,-3.768444 -13.199367,-3.768444 -0.714347,0 -1.126507,0.534937 -1.364267,1.168453 1.125439,2.557951 3.065758,4.622695 5.462422,5.809925 -0.337904,-0.930714 -0.541696,-2.162383 0.747632,-2.162383 1.139451,0 2.274913,1.051827 6.480024,1.051827 1.920075,0 3.688426,-0.429369 4.988557,-0.864474 0.688265,-0.662413 1.300132,-1.414224 1.819055,-2.238848 -1.242029,0.474016 -3.050865,1.003944 -4.934056,1.003944" />
  </g>
</svg>
