<?xml version="1.0" encoding="UTF-8" standalone="no"?>
<svg
   xmlns:dc="http://purl.org/dc/elements/1.1/"
   xmlns:cc="http://creativecommons.org/ns#"
   xmlns:rdf="http://www.w3.org/1999/02/22-rdf-syntax-ns#"
   xmlns:svg="http://www.w3.org/2000/svg"
   xmlns="http://www.w3.org/2000/svg"
   xmlns:sodipodi="http://sodipodi.sourceforge.net/DTD/sodipodi-0.dtd"
   xmlns:inkscape="http://www.inkscape.org/namespaces/inkscape"
   viewBox="0 0 64 64"
   id="svg2"
   version="1.1"
   inkscape:version="0.91 r13725"
   sodipodi:docname="application-x-nes-rom.svg">
  <metadata
     id="metadata19">
    <rdf:RDF>
      <cc:Work
         rdf:about="">
        <dc:format>image/svg+xml</dc:format>
        <dc:type
           rdf:resource="http://purl.org/dc/dcmitype/StillImage" />
        <dc:title></dc:title>
      </cc:Work>
    </rdf:RDF>
  </metadata>
  <sodipodi:namedview
     pagecolor="#ffffff"
     bordercolor="#666666"
     borderopacity="1"
     objecttolerance="10"
     gridtolerance="10"
     guidetolerance="10"
     inkscape:pageopacity="0"
     inkscape:pageshadow="2"
     inkscape:window-width="1280"
     inkscape:window-height="694"
     id="namedview17"
     showgrid="true"
     inkscape:zoom="3.6875"
     inkscape:cx="-12.20339"
     inkscape:cy="32"
     inkscape:window-x="0"
     inkscape:window-y="0"
     inkscape:window-maximized="1"
     inkscape:current-layer="svg2">
    <inkscape:grid
       type="xygrid"
       id="grid4175" />
  </sodipodi:namedview>
  <defs
     id="defs4">
    <linearGradient
       id="0"
       x1="-75.43"
       y1="63.54"
       x2="-75.26"
       y2="2.356"
       gradientUnits="userSpaceOnUse"
       gradientTransform="matrix(1.5520271,0,0,0.90939298,149.32977,-0.81826389)">
      <stop
         stop-color="#ff2433"
         id="stop7" />
      <stop
         offset="1"
         stop-color="#ff7a5c"
         id="stop9" />
    </linearGradient>
    <clipPath
       clipPathUnits="userSpaceOnUse"
       id="clipPath3808">
      <path
         sodipodi:nodetypes="ssccccss"
         inkscape:connector-curvature="0"
         id="path3810"
         d="m 484.17116,-74.18074 c -161.07908,0 -291.63794,130.607712 -291.63794,291.68679 0,3.9473 0.0791,7.87559 0.2355,11.78368 -0.49881,38.83803 6.14545,46.18893 40.08833,49.52013 170.02557,16.63547 333.44735,12.87945 503.79577,-0.84823 34.51812,1.75157 36.63963,-12.54502 38.60536,-41.84856 0.3965,-6.1515 0.59976,-12.35543 0.59976,-18.60702 0,-161.079078 -130.60771,-291.68679 -291.68678,-291.68679 z"
         style="fill:#fc5367;fill-opacity:1;fill-rule:evenodd;stroke:none" />
    </clipPath>
    <clipPath
       clipPathUnits="userSpaceOnUse"
       id="clipPath3804">
      <path
         sodipodi:nodetypes="ssccccss"
         inkscape:connector-curvature="0"
         id="path3806"
         d="m 948.22321,-55.006873 c -142.99877,0 -258.90306,115.947662 -258.90306,258.946433 0,3.50423 0.0702,6.99159 0.20906,10.46102 -0.44282,34.47867 5.45566,41.00446 35.58862,43.96175 150.94107,14.76823 296.01957,11.4338 447.24727,-0.75302 30.6436,1.55496 32.527,-11.1369 34.2721,-37.15128 0.352,-5.46102 0.5324,-10.96859 0.5324,-16.51847 0,-142.998771 -115.9476,-258.946433 -258.94639,-258.946433 z"
         style="fill:#fc5367;fill-opacity:1;fill-rule:evenodd;stroke:none" />
    </clipPath>
  </defs>
  <rect
     style="fill:url(#0);stroke-width:1"
     id="rect13"
     rx="3.6093991"
     y="0.64925426"
     x="0.50847602"
     height="53.479153"
     width="63.525421" />
  <rect
     ry="4.0810981"
     y="47.007885"
     x="30.431385"
     height="16.70439"
     width="23.747408"
     id="rect3769"
     style="color:#000000;display:inline;overflow:visible;visibility:visible;fill:#ffaaaa;fill-opacity:1;fill-rule:evenodd;stroke:none;stroke-width:38;marker:none;enable-background:accumulate" />
  <path
     style="fill:#ffaaaa;fill-opacity:1;fill-rule:evenodd;stroke:none"
     d="m 42.303751,33.372474 c -8.811862,0 -15.954111,6.954728 -15.954111,15.532023 0,0.210189 0.0043,0.419368 0.01285,0.62747 -0.02729,2.068085 0.336189,2.459513 2.193041,2.636896 9.301283,0.885822 18.241303,0.685818 27.560247,-0.04517 1.888321,0.09327 2.004379,-0.66801 2.111915,-2.228392 0.02169,-0.327563 0.03281,-0.657915 0.03281,-0.990806 0,-8.577295 -7.14492,-15.532023 -15.956785,-15.532023 z"
     id="path2992"
     inkscape:connector-curvature="0"
     sodipodi:nodetypes="ssccccss" />
  <ellipse
     cy="57.888309"
     cx="48.380108"
     id="path3792"
     style="fill:#ff5555;fill-opacity:1;fill-rule:evenodd;stroke:none"
     rx="1.8088845"
     ry="2.1219089" />
  <ellipse
     cy="57.888309"
     cx="36.413647"
     style="fill:#ff5555;fill-opacity:1;fill-rule:evenodd;stroke:none"
     id="path3794"
     rx="1.8088845"
     ry="2.1219089" />
  <ellipse
     cy="41.680538"
     cx="42.305088"
     style="fill:#ff5555;fill-opacity:1;fill-rule:evenodd;stroke:none"
     id="path3796"
     rx="6.3079057"
     ry="6.1399918" />
  <circle
     r="73.762711"
     cy="130.16948"
     cx="722.44067"
     transform="matrix(0.0547052,0,0,0.05324898,15.817072,37.322524)"
     id="path3798"
     style="fill:#ff5555;fill-opacity:1;fill-rule:evenodd;stroke:none"
     clip-path="url(#clipPath3808)" />
  <circle
     r="73.762711"
     cy="130.16948"
     cx="722.44067"
     style="fill:#ff5555;fill-opacity:1;fill-rule:evenodd;stroke:none"
     id="path3800"
     transform="matrix(0.06162194,0,0,0.05998161,-16.127611,36.671876)"
     clip-path="url(#clipPath3804)" />
</svg>
