<?xml version="1.0" encoding="UTF-8" standalone="no"?>
<svg
   xmlns:dc="http://purl.org/dc/elements/1.1/"
   xmlns:cc="http://creativecommons.org/ns#"
   xmlns:rdf="http://www.w3.org/1999/02/22-rdf-syntax-ns#"
   xmlns:svg="http://www.w3.org/2000/svg"
   xmlns="http://www.w3.org/2000/svg"
   xmlns:sodipodi="http://sodipodi.sourceforge.net/DTD/sodipodi-0.dtd"
   xmlns:inkscape="http://www.inkscape.org/namespaces/inkscape"
   viewBox="0 0 64 64"
   id="svg2"
   version="1.1"
   inkscape:version="0.91 r13725"
   sodipodi:docname="application-x-subrip.svg">
  <metadata
     id="metadata19">
    <rdf:RDF>
      <cc:Work
         rdf:about="">
        <dc:format>image/svg+xml</dc:format>
        <dc:type
           rdf:resource="http://purl.org/dc/dcmitype/StillImage" />
        <dc:title></dc:title>
      </cc:Work>
    </rdf:RDF>
  </metadata>
  <sodipodi:namedview
     pagecolor="#ffffff"
     bordercolor="#666666"
     borderopacity="1"
     objecttolerance="10"
     gridtolerance="10"
     guidetolerance="10"
     inkscape:pageopacity="0"
     inkscape:pageshadow="2"
     inkscape:window-width="1280"
     inkscape:window-height="694"
     id="namedview17"
     showgrid="true"
     inkscape:zoom="3.6875"
     inkscape:cx="-12.20339"
     inkscape:cy="32"
     inkscape:window-x="0"
     inkscape:window-y="0"
     inkscape:window-maximized="1"
     inkscape:current-layer="svg2">
    <inkscape:grid
       type="xygrid"
       id="grid4147" />
  </sodipodi:namedview>
  <defs
     id="defs4">
    <linearGradient
       id="0"
       x1="-74.929"
       y1="52.2"
       x2="-75.26"
       y2="2.356"
       gradientUnits="userSpaceOnUse"
       gradientTransform="matrix(1.5454016,0,0,0.90017011,148.69446,-1.0735671)">
      <stop
         stop-color="#4d5052"
         id="stop7" />
      <stop
         offset="1"
         stop-color="#6f7376"
         id="stop9" />
    </linearGradient>
  </defs>
  <rect
     style="fill:#666666"
     id="rect13"
     rx="3.5939908"
     y="0.37906787"
     x="0.50847453"
     height="52.936779"
     width="63.254238" />
  <path
     style="fill:#cccccc;fill-opacity:1"
     inkscape:connector-curvature="0"
     id="path15"
     d="m 53.378073,38.687939 c -2.924394,-2.509695 -6.808023,-3.892105 -10.932369,-3.892105 -4.126773,0 -8.009794,1.38241 -10.932369,3.892105 -2.94986,2.532074 -4.57486,5.905616 -4.57486,9.501033 0,3.431088 1.48069,6.660761 4.180737,9.149355 -0.04851,0.11573 -0.08731,0.237222 -0.112174,0.364466 l -0.88708,4.601213 c -0.105503,0.546698 0.03638,0.872799 0.173415,1.050555 0.158861,0.204612 0.394123,0.317788 0.662733,0.317788 0.203125,0 0.420802,-0.0633 0.64818,-0.187348 l 5.159375,-2.826843 c 1.786287,0.606163 3.706576,0.924591 5.683256,0.924591 4.126772,0 8.009793,-1.382411 10.932368,-3.892106 2.94986,-2.531434 4.57486,-5.905615 4.57486,-9.501032 0,-3.595417 -1.624394,-6.969598 -4.57486,-9.501033" />
</svg>
