<?xml version="1.0" encoding="UTF-8" standalone="no"?>
<svg
   xmlns:dc="http://purl.org/dc/elements/1.1/"
   xmlns:cc="http://creativecommons.org/ns#"
   xmlns:rdf="http://www.w3.org/1999/02/22-rdf-syntax-ns#"
   xmlns:svg="http://www.w3.org/2000/svg"
   xmlns="http://www.w3.org/2000/svg"
   xmlns:sodipodi="http://sodipodi.sourceforge.net/DTD/sodipodi-0.dtd"
   xmlns:inkscape="http://www.inkscape.org/namespaces/inkscape"
   viewBox="0 0 64 64"
   id="svg2"
   version="1.1"
   inkscape:version="0.91 r13725"
   sodipodi:docname="application-vnd.rn-realmedia.svg">
  <metadata
     id="metadata19">
    <rdf:RDF>
      <cc:Work
         rdf:about="">
        <dc:format>image/svg+xml</dc:format>
        <dc:type
           rdf:resource="http://purl.org/dc/dcmitype/StillImage" />
        <dc:title></dc:title>
      </cc:Work>
    </rdf:RDF>
  </metadata>
  <sodipodi:namedview
     pagecolor="#ffffff"
     bordercolor="#666666"
     borderopacity="1"
     objecttolerance="10"
     gridtolerance="10"
     guidetolerance="10"
     inkscape:pageopacity="0"
     inkscape:pageshadow="2"
     inkscape:window-width="1280"
     inkscape:window-height="694"
     id="namedview17"
     showgrid="true"
     inkscape:zoom="3.6875"
     inkscape:cx="-18.428407"
     inkscape:cy="32"
     inkscape:window-x="0"
     inkscape:window-y="0"
     inkscape:window-maximized="1"
     inkscape:current-layer="svg2">
    <inkscape:grid
       type="xygrid"
       id="grid4137" />
  </sodipodi:namedview>
  <defs
     id="defs4">
    <linearGradient
       id="0"
       x1="-74.929"
       y1="52.2"
       x2="-75.26"
       y2="2.356"
       gradientUnits="userSpaceOnUse"
       gradientTransform="matrix(1.07499,0,0,1.02929,113.079,0.074)">
      <stop
         stop-color="#1b92f4"
         id="stop7" />
      <stop
         offset="1"
         stop-color="#20b9fa"
         id="stop9" />
    </linearGradient>
  </defs>
  <rect
     style="fill:#5599ff"
     id="rect13"
     rx="3.5939908"
     y="0.65025425"
     x="0.50847554"
     height="52.936779"
     width="63.254234" />
  <path
     style="fill:#002255;stroke:none;stroke-opacity:0.8"
     inkscape:connector-curvature="0"
     id="path15"
     d="m 28.943646,63.783922 27.265124,0 c 1.16106,0 2.110884,-0.850755 2.110884,-1.890841 l 0,-25.911663 c 0,-1.037678 -0.950558,-1.890841 -2.110884,-1.890841 l -27.265124,0 c -1.163666,0 -2.11227,0.853163 -2.11227,1.890841 l 0,25.911663 c 0,1.040086 0.948604,1.890841 2.11227,1.890841 M 53.169721,36.40373 c 0,-0.313851 0.286641,-0.567194 0.63346,-0.567194 l 1.979128,0 c 0.349507,0 0.632158,0.253343 0.632158,0.567194 l 0,1.826903 c 0,0.313851 -0.282651,0.567194 -0.632158,0.567194 l -1.979128,0 c -0.346819,0 -0.63346,-0.252759 -0.63346,-0.567194 l 0,-1.826903 m 0,4.64718 c 0,-0.313851 0.286641,-0.567778 0.63346,-0.567778 l 1.979128,0 c 0.349507,0 0.632158,0.253927 0.632158,0.567778 l 0,1.826903 c 0,0.313267 -0.282651,0.568946 -0.632158,0.568946 l -1.979128,0 c -0.346819,0 -0.63346,-0.255679 -0.63346,-0.568946 l 0,-1.826903 m 0,4.65083 c 0,-0.313267 0.286641,-0.568946 0.63346,-0.568946 l 1.979128,0 c 0.349507,0 0.632158,0.255679 0.632158,0.568946 l 0,1.827634 c 0,0.310857 -0.282651,0.566609 -0.632158,0.566609 l -1.979128,0 c -0.346819,0 -0.63346,-0.255679 -0.63346,-0.566609 l 0,-1.827634 m 0,4.647181 c 0,-0.313852 0.286641,-0.568947 0.63346,-0.568947 l 1.979128,0 c 0.349507,0 0.632158,0.255095 0.632158,0.568947 l 0,1.827633 c 0,0.313266 -0.282651,0.567193 -0.632158,0.567193 l -1.979128,0 c -0.346819,0 -0.63346,-0.253927 -0.63346,-0.567193 l 0,-1.827633 m 0,4.64718 c 0,-0.31385 0.286641,-0.567193 0.63346,-0.567193 l 1.979128,0 c 0.349507,0 0.632158,0.252759 0.632158,0.567193 l 0,1.828363 c 0,0.3121 -0.282651,0.566027 -0.632158,0.566027 l -1.979128,0 c -0.346819,0 -0.63346,-0.253927 -0.63346,-0.566027 l 0,-1.828363 m 0,4.647181 c 0,-0.312099 0.286641,-0.567194 0.63346,-0.567194 l 1.979128,0 c 0.349507,0 0.632158,0.255095 0.632158,0.567194 l 0,1.830552 c 0,0.309691 -0.282651,0.566027 -0.632158,0.566027 l -1.979128,0 c -0.346819,0 -0.63346,-0.255679 -0.63346,-0.566027 l 0,-1.830552 M 34.152862,37.774454 c 0,-0.313851 0.285257,-0.567193 0.634764,-0.567193 l 15.577977,0 c 0.347553,0 0.632159,0.253342 0.632159,0.567193 l 0,9.046201 c 0,0.310857 -0.284606,0.568945 -0.632159,0.568945 l -15.577977,0 c -0.349507,0 -0.634764,-0.258088 -0.634764,-0.568945 -8e-6,0 -8e-6,-9.046201 -8e-6,-9.046201 m 0,13.949571 c 0,-0.311515 0.285257,-0.565442 0.634764,-0.565442 l 15.577977,0 c 0.347553,0 0.632159,0.253927 0.632159,0.565442 l 0,8.362297 c 0,0.3121 -0.284606,0.567195 -0.632159,0.567195 l -15.577977,0 c -0.349507,0 -0.634764,-0.255095 -0.634764,-0.567195 -8e-6,0 -8e-6,-8.362297 -8e-6,-8.362297 M 28.735978,36.403 c 0,-0.313851 0.284605,-0.567194 0.633461,-0.567194 l 1.97986,0 c 0.347553,0 0.631506,0.253343 0.631506,0.567194 l 0,1.826903 c 0,0.313851 -0.283953,0.567194 -0.631506,0.567194 l -1.97986,0 c -0.348856,0 -0.633461,-0.252759 -0.633461,-0.567194 0,0 0,-1.826903 0,-1.826903 m 0,4.64718 c 0,-0.313851 0.284605,-0.567778 0.633461,-0.567778 l 1.97986,0 c 0.347553,0 0.631506,0.253927 0.631506,0.567778 l 0,1.826903 c 0,0.313267 -0.283953,0.568946 -0.631506,0.568946 l -1.97986,0 c -0.348856,0 -0.633461,-0.255679 -0.633461,-0.568946 0,0 0,-1.826903 0,-1.826903 m 0,4.65083 c 0,-0.313267 0.284605,-0.568946 0.633461,-0.568946 l 1.97986,0 c 0.347553,0 0.631506,0.255679 0.631506,0.568946 l 0,1.827633 c 0,0.310858 -0.283953,0.56661 -0.631506,0.56661 l -1.97986,0 c -0.348856,0 -0.633461,-0.255679 -0.633461,-0.56661 0,0 0,-1.827633 0,-1.827633 m 0,4.647181 c 0,-0.31385 0.284605,-0.568945 0.633461,-0.568945 l 1.97986,0 c 0.347553,0 0.631506,0.255095 0.631506,0.568945 l 0,1.827633 c 0,0.313266 -0.283953,0.567193 -0.631506,0.567193 l -1.97986,0 c -0.348856,0 -0.633461,-0.253927 -0.633461,-0.567193 0,0 0,-1.827633 0,-1.827633 m 0,4.64718 c 0,-0.31385 0.284605,-0.567193 0.633461,-0.567193 l 1.97986,0 c 0.347553,0 0.631506,0.252759 0.631506,0.567193 l 0,1.828363 c 0,0.3121 -0.283953,0.566027 -0.631506,0.566027 l -1.97986,0 c -0.348856,0 -0.633461,-0.253927 -0.633461,-0.566027 0,0 0,-1.828363 0,-1.828363 m 0,4.647181 c 0,-0.312099 0.284605,-0.567194 0.633461,-0.567194 l 1.97986,0 c 0.347553,0 0.631506,0.255095 0.631506,0.567194 l 0,1.830552 c 0,0.309691 -0.283953,0.566027 -0.631506,0.566027 l -1.97986,0 c -0.348856,0 -0.633461,-0.255679 -0.633461,-0.566027 0,-6e-6 0,-1.830552 0,-1.830552" />
</svg>
