<?xml version="1.0" encoding="UTF-8" standalone="no"?>
<svg
   xmlns:dc="http://purl.org/dc/elements/1.1/"
   xmlns:cc="http://creativecommons.org/ns#"
   xmlns:rdf="http://www.w3.org/1999/02/22-rdf-syntax-ns#"
   xmlns:svg="http://www.w3.org/2000/svg"
   xmlns="http://www.w3.org/2000/svg"
   xmlns:sodipodi="http://sodipodi.sourceforge.net/DTD/sodipodi-0.dtd"
   xmlns:inkscape="http://www.inkscape.org/namespaces/inkscape"
   viewBox="0 0 64 64"
   id="svg2"
   version="1.1"
   inkscape:version="0.91 r13725"
   sodipodi:docname="application-x-smb-workgroup.svg">
  <metadata
     id="metadata19">
    <rdf:RDF>
      <cc:Work
         rdf:about="">
        <dc:format>image/svg+xml</dc:format>
        <dc:type
           rdf:resource="http://purl.org/dc/dcmitype/StillImage" />
        <dc:title></dc:title>
      </cc:Work>
    </rdf:RDF>
  </metadata>
  <sodipodi:namedview
     pagecolor="#ffffff"
     bordercolor="#666666"
     borderopacity="1"
     objecttolerance="10"
     gridtolerance="10"
     guidetolerance="10"
     inkscape:pageopacity="0"
     inkscape:pageshadow="2"
     inkscape:window-width="1280"
     inkscape:window-height="694"
     id="namedview17"
     showgrid="true"
     inkscape:zoom="3.6875"
     inkscape:cx="-12.20339"
     inkscape:cy="32"
     inkscape:window-x="0"
     inkscape:window-y="0"
     inkscape:window-maximized="1"
     inkscape:current-layer="svg2">
    <inkscape:grid
       type="xygrid"
       id="grid4147" />
  </sodipodi:namedview>
  <defs
     id="defs4">
    <linearGradient
       gradientTransform="matrix(1.5454017,0,0,0.90017013,148.6959,-0.80338071)"
       gradientUnits="userSpaceOnUse"
       y2="2.356"
       x2="-75.26"
       y1="52.2"
       x1="-74.929"
       id="0">
      <stop
         stop-color="#197cf1"
         id="stop7" />
      <stop
         offset="1"
         stop-color="#20bcfa"
         id="stop9" />
    </linearGradient>
  </defs>
  <rect
     style="fill:url(#0);stroke-width:1"
     id="rect13"
     rx="3.5939908"
     width="63.254234"
     height="52.936779"
     x="0.50847459"
     y="0.64925396" />
  <path
     style="fill:#aaccff"
     inkscape:connector-curvature="0"
     id="path15"
     d="m 34.608976,44.060256 c 0.336764,0 0.663974,0.04485 0.972078,0.136796 1.165538,-1.224438 2.455272,-2.341233 3.852484,-3.327959 -0.05971,-0.230985 -0.09075,-0.473181 -0.09075,-0.719863 0,-0.343112 0.0621,-0.675011 0.171965,-0.984483 -1.56679,-1.051762 -3.269718,-1.937573 -5.080122,-2.621554 -1.695763,0.984484 -3.17657,2.267229 -4.356438,3.771987 0.876542,1.457664 1.917882,2.814413 3.102529,4.052307 0.432299,-0.197346 0.917143,-0.307231 1.43065,-0.307231 m -3.303155,3.10146 c 0,-0.435056 0.09792,-0.849929 0.267501,-1.224437 -1.060449,-1.096613 -2.020585,-2.276199 -2.861301,-3.532033 -1.055671,1.968968 -1.652771,4.191346 -1.652771,6.546034 0,2.72471 0.800114,5.27226 2.185384,7.454271 0.496787,-2.621554 1.435427,-5.099582 2.734715,-7.371296 -0.422746,-0.520274 -0.673528,-1.170617 -0.673528,-1.872539 M 42.648325,37.047769 c 0.871766,0 1.662326,0.318443 2.254648,0.838718 1.722035,-0.695193 3.537217,-1.231165 5.424052,-1.572035 -2.280921,-1.233409 -4.922487,-1.942057 -7.740797,-1.942057 -1.92266,0 -3.761727,0.331898 -5.459877,0.930662 1.349444,0.625674 2.634402,1.354507 3.842931,2.177527 0.49201,-0.275836 1.065226,-0.435057 1.679043,-0.435057 m 4.936819,14.605796 c 0.205402,-0.401418 0.496787,-0.757986 0.859823,-1.038306 -0.974466,-2.814413 -2.51976,-5.393357 -4.509295,-7.609008 -0.394086,0.159223 -0.831162,0.24444 -1.289735,0.24444 -0.716519,0 -1.378105,-0.217529 -1.917883,-0.578581 -1.198975,0.854416 -2.307192,1.811989 -3.315095,2.857022 0.317657,0.473181 0.501562,1.03382 0.501562,1.632584 0,0.320687 -0.05254,0.634645 -0.152858,0.92842 2.897127,1.816474 6.233719,3.063337 9.823481,3.565671 m 4.284786,4.186861 c 0.04299,0.58755 0.06927,1.179587 0.06927,1.776108 0,1.05176 -0.07166,2.087823 -0.205402,3.105945 2.632014,-1.80526 4.638268,-4.37075 5.648561,-7.351112 -1.198977,0.273592 -2.426613,0.466452 -3.680521,0.57858 -0.291386,0.84993 -0.964913,1.536154 -1.831901,1.888236 M 46.813694,53.734661 C 42.980316,53.13814 39.428768,51.76345 36.335793,49.798968 c -0.503952,0.28929 -1.091498,0.457482 -1.722034,0.457482 -0.234064,0 -0.458573,-0.0022 -0.678306,-0.06504 -1.480806,2.632766 -2.426611,5.572763 -2.698889,8.689922 1.478419,1.48906 3.279271,2.68883 5.30702,3.493909 2.517371,-3.632948 6.035481,-6.637979 10.272498,-8.640585 m 6.195504,-15.594762 c -2.48871,0.226498 -4.865165,0.814049 -7.074434,1.693133 0.0096,0.105401 0.01671,0.208558 0.01671,0.311716 0,0.488878 -0.124197,0.950846 -0.339152,1.361234 2.211657,2.437663 3.926525,5.276744 5.010858,8.382691 1.344668,0.02467 2.493487,0.796109 2.987886,1.89272 1.495137,-0.143523 2.949671,-0.41263 4.349272,-0.798351 0.100315,-0.66604 0.155246,-1.347778 0.155246,-2.038487 -2.39e-4,-4.283291 -1.970428,-8.138252 -5.104007,-10.804656 m -4.533178,17.252017 c -3.955187,1.740227 -7.263117,4.417844 -9.649127,7.694225 1.20614,0.282563 2.469604,0.435057 3.768891,0.435057 2.34063,0 4.559452,-0.488879 6.551376,-1.361234 0.320045,-1.47112 0.489622,-2.989333 0.489622,-4.54567 0,-0.562883 -0.02628,-1.12128 -0.07166,-1.670708 -0.398863,-0.121096 -0.764288,-0.304989 -1.079556,-0.55167" />
</svg>
