<?xml version="1.0" encoding="UTF-8" standalone="no"?>
<svg
   xmlns:dc="http://purl.org/dc/elements/1.1/"
   xmlns:cc="http://creativecommons.org/ns#"
   xmlns:rdf="http://www.w3.org/1999/02/22-rdf-syntax-ns#"
   xmlns:svg="http://www.w3.org/2000/svg"
   xmlns="http://www.w3.org/2000/svg"
   xmlns:sodipodi="http://sodipodi.sourceforge.net/DTD/sodipodi-0.dtd"
   xmlns:inkscape="http://www.inkscape.org/namespaces/inkscape"
   viewBox="0 0 64 64"
   id="svg2"
   version="1.1"
   inkscape:version="0.91 r13725"
   sodipodi:docname="application-vnd.sun.xml.draw.template.svg">
  <metadata
     id="metadata19">
    <rdf:RDF>
      <cc:Work
         rdf:about="">
        <dc:format>image/svg+xml</dc:format>
        <dc:type
           rdf:resource="http://purl.org/dc/dcmitype/StillImage" />
        <dc:title></dc:title>
      </cc:Work>
    </rdf:RDF>
  </metadata>
  <sodipodi:namedview
     pagecolor="#ffffff"
     bordercolor="#666666"
     borderopacity="1"
     objecttolerance="10"
     gridtolerance="10"
     guidetolerance="10"
     inkscape:pageopacity="0"
     inkscape:pageshadow="2"
     inkscape:window-width="1280"
     inkscape:window-height="694"
     id="namedview17"
     showgrid="true"
     inkscape:zoom="3.6875"
     inkscape:cx="-15.326771"
     inkscape:cy="32"
     inkscape:window-x="0"
     inkscape:window-y="0"
     inkscape:window-maximized="1"
     inkscape:current-layer="svg2">
    <inkscape:grid
       type="xygrid"
       id="grid4137" />
  </sodipodi:namedview>
  <defs
     id="defs4">
    <linearGradient
       id="0"
       x1="-74.929"
       y1="52.2"
       x2="-75.26"
       y2="2.356"
       gradientUnits="userSpaceOnUse"
       gradientTransform="matrix(1.07499,0,0,1.02929,113.079,0.073)">
      <stop
         stop-color="#8798a9"
         id="stop7" />
      <stop
         offset="1"
         stop-color="#aeb6be"
         id="stop9" />
    </linearGradient>
  </defs>
  <rect
     style="fill:#93a7ac"
     id="rect13"
     rx="3.563174"
     width="62.711864"
     height="52.665592"
     x="0.50847554"
     y="0.6492542" />
  <path
     style="fill:#374548"
     inkscape:connector-curvature="0"
     id="path15"
     d="m 30.493063,62.410704 10.088518,0 0,1.229666 3.668411,0 0,-1.229666 10.131842,0 0,1.390335 3.668411,0 0,-3.442804 -1.353568,0 0,-9.628522 1.31017,0 0,-3.442802 -1.31017,0 0,-8.938801 1.353645,0 0,-3.442803 -3.668411,0 0,0.700323 -10.131842,0 0,-1.229594 -3.668411,0 0,1.229594 -10.088518,0 0,-0.860773 -3.668413,0 0,3.442802 1.310169,0 0,9.099252 -1.310169,0 0,3.442802 1.310169,0 0,9.468071 -1.310169,0 0,3.442804 3.668413,0 0,-1.229667 m -1.048074,0 0,0.245978 -1.572265,0 0,-1.47557 0.262095,0 1.048151,0 0.262096,0 0,0.245976 0,0.983616 z m 12.184975,-26.80551 0,-0.245976 1.572265,0 0,0.245976 0,0.514388 0,0.469229 0,0.245904 -1.572265,0 0,-0.245904 0,-0.469229 0,-0.514388 m 1.572265,26.80551 0,0.245978 -1.572265,0 0,-0.245978 0,-0.514387 0,-0.469156 0,-0.245977 1.572265,0 0,0.245977 0,0.469156 0,0.514387 M 43.376907,49.56176 c 0.10188,0.09605 0.10188,0.251639 0,0.347692 -0.05168,0.04798 -0.118208,0.07203 -0.185741,0.07203 -0.06653,0 -0.13391,-0.02403 -0.185354,-0.07203 l -0.589561,-0.553374 -0.589639,0.553374 c -0.05144,0.04798 -0.11843,0.07203 -0.185508,0.07203 -0.06707,0 -0.134065,-0.02403 -0.185587,-0.07203 -0.102036,-0.09606 -0.102036,-0.251639 0,-0.347692 l 0.589638,-0.553376 -0.589638,-0.553375 c -0.102036,-0.09576 -0.102036,-0.251929 0,-0.347765 0.102115,-0.09584 0.26844,-0.09584 0.370555,0 l 0.590101,0.553375 0.589562,-0.553375 c 0.102349,-0.09584 0.268206,-0.09584 0.370554,0 0.10235,0.09583 0.10235,0.251931 0,0.347765 l -0.589638,0.553375 0.590102,0.553376 m 13.626193,13.255734 -1.572188,0 0,-0.406282 0,-0.983616 0,-0.08552 0.218542,0 1.048151,0 0.305495,0 0,1.475497 z m -2.620339,-2.459113 0,1.069215 -8.207897,0 c 4.574297,-1.217179 8.177726,-4.598633 9.47428,-8.892335 l 0,7.822902 -1.266693,0 m 2.576862,-10.612284 -0.262018,0 -0.548096,0 -0.499978,0 -0.262018,0 0,-1.475571 0.262018,0 0.499978,0 0.548096,0 0.262018,0 0,1.475571 m -1.528633,-13.856882 1.266615,0 0.305495,0 0,1.475569 -0.305495,0 -1.048151,0 -0.218541,0 0,-0.775247 0,-0.700322 z m -1.048151,0.700322 0,1.759154 1.266615,0 0,7.13318 C 54.352127,41.18795 50.749007,37.80686 46.17471,36.589319 l 8.207897,0 z m -26.508955,-0.860847 0.262096,0 1.310169,0 0,0.860773 0,0.614797 -0.262095,0 -1.048152,0 -0.262095,0 0,-1.47557 z m 2.620339,2.459259 0,-1.598703 8.163801,0 c -4.574297,1.217251 -8.176953,4.598633 -9.47428,8.891608 l 0,-7.292905 1.310169,0 m -2.620338,10.083014 0.262095,0 0.548096,0 0.499978,0 0.262095,0 0,1.47557 -0.262095,0 -0.499978,0 -0.548096,0 -0.262095,0 0,-1.47557 m 1.310169,4.264806 c 1.297173,4.293703 4.899983,7.674793 9.47428,8.892335 l -8.163801,0 0,-1.229665 -1.310169,0 0,-7.662451" />
</svg>
