<?xml version="1.0" encoding="UTF-8" standalone="no"?>
<svg
   xmlns:dc="http://purl.org/dc/elements/1.1/"
   xmlns:cc="http://creativecommons.org/ns#"
   xmlns:rdf="http://www.w3.org/1999/02/22-rdf-syntax-ns#"
   xmlns:svg="http://www.w3.org/2000/svg"
   xmlns="http://www.w3.org/2000/svg"
   xmlns:sodipodi="http://sodipodi.sourceforge.net/DTD/sodipodi-0.dtd"
   xmlns:inkscape="http://www.inkscape.org/namespaces/inkscape"
   viewBox="0 0 64 64"
   id="svg2"
   version="1.1"
   inkscape:version="0.91 r13725"
   sodipodi:docname="application-x-object.svg">
  <metadata
     id="metadata23">
    <rdf:RDF>
      <cc:Work
         rdf:about="">
        <dc:format>image/svg+xml</dc:format>
        <dc:type
           rdf:resource="http://purl.org/dc/dcmitype/StillImage" />
        <dc:title></dc:title>
      </cc:Work>
    </rdf:RDF>
  </metadata>
  <sodipodi:namedview
     pagecolor="#ffffff"
     bordercolor="#666666"
     borderopacity="1"
     objecttolerance="10"
     gridtolerance="10"
     guidetolerance="10"
     inkscape:pageopacity="0"
     inkscape:pageshadow="2"
     inkscape:window-width="1280"
     inkscape:window-height="694"
     id="namedview21"
     showgrid="true"
     inkscape:zoom="3.6875"
     inkscape:cx="-12.20339"
     inkscape:cy="32"
     inkscape:window-x="0"
     inkscape:window-y="0"
     inkscape:window-maximized="1"
     inkscape:current-layer="svg2">
    <inkscape:grid
       type="xygrid"
       id="grid4151" />
  </sodipodi:namedview>
  <defs
     id="defs4">
    <linearGradient
       id="0"
       x1="-74.929"
       y1="52.2"
       x2="-75.26"
       y2="2.356"
       gradientUnits="userSpaceOnUse"
       gradientTransform="matrix(1.5454016,0,0,0.90017013,148.69446,-1.073567)">
      <stop
         stop-color="#8798a9"
         id="stop7" />
      <stop
         offset="1"
         stop-color="#aeb6be"
         id="stop9" />
    </linearGradient>
  </defs>
  <rect
     style="fill:url(#0)"
     id="rect13"
     rx="3.5939908"
     y="0.37906793"
     x="0.50847453"
     height="52.936779"
     width="63.254238" />
  <path
     d="m 56.935361,47.029985 -20.3287,-12.332748 c -0.748549,-0.479916 -1.683472,-0.719876 -2.806296,-0.719876 -1.122825,0 -2.057743,0.240182 -2.806292,0.719876 l -2.369642,1.420916 c -0.769216,0.467361 -1.155736,1.035402 -1.155736,1.70482 0,0.656633 0.382693,1.231414 1.155736,1.723888 l 15.153147,9.187943 -15.15353,9.206779 c -0.769213,0.467361 -1.155736,1.035632 -1.155736,1.705053 0,0.656629 0.382696,1.231415 1.155736,1.723889 l 2.369641,1.420682 c 0.769217,0.467362 1.704902,0.702204 2.806293,0.702204 1.101778,0 2.037462,-0.232523 2.806295,-0.702204 L 56.934978,50.458459 c 0.769212,-0.492474 1.155736,-1.067255 1.155736,-1.723888 0,-0.669417 -0.386524,-1.237692 -1.155736,-1.705053"
     id="path19"
     inkscape:connector-curvature="0"
     style="fill:#666666" />
</svg>
