<?xml version="1.0" encoding="UTF-8" standalone="no"?>
<svg
   xmlns:dc="http://purl.org/dc/elements/1.1/"
   xmlns:cc="http://creativecommons.org/ns#"
   xmlns:rdf="http://www.w3.org/1999/02/22-rdf-syntax-ns#"
   xmlns:svg="http://www.w3.org/2000/svg"
   xmlns="http://www.w3.org/2000/svg"
   xmlns:xlink="http://www.w3.org/1999/xlink"
   xmlns:sodipodi="http://sodipodi.sourceforge.net/DTD/sodipodi-0.dtd"
   xmlns:inkscape="http://www.inkscape.org/namespaces/inkscape"
   viewBox="0 0 64 64"
   id="svg2"
   version="1.1"
   inkscape:version="0.91 r13725"
   sodipodi:docname="application-x-theme.svg">
  <metadata
     id="metadata52">
    <rdf:RDF>
      <cc:Work
         rdf:about="">
        <dc:format>image/svg+xml</dc:format>
        <dc:type
           rdf:resource="http://purl.org/dc/dcmitype/StillImage" />
        <dc:title></dc:title>
      </cc:Work>
    </rdf:RDF>
  </metadata>
  <sodipodi:namedview
     pagecolor="#ffffff"
     bordercolor="#666666"
     borderopacity="1"
     objecttolerance="10"
     gridtolerance="10"
     guidetolerance="10"
     inkscape:pageopacity="0"
     inkscape:pageshadow="2"
     inkscape:window-width="1280"
     inkscape:window-height="694"
     id="namedview50"
     showgrid="true"
     inkscape:zoom="3.6875"
     inkscape:cx="-12.20339"
     inkscape:cy="32"
     inkscape:window-x="0"
     inkscape:window-y="0"
     inkscape:window-maximized="1"
     inkscape:current-layer="svg2">
    <inkscape:grid
       type="xygrid"
       id="grid4180" />
  </sodipodi:namedview>
  <defs
     id="defs4">
    <path
       id="1"
       d="m22 3h27v15h-27z" />
    <linearGradient
       id="0"
       x1="-74.929"
       y1="52.2"
       x2="-75.26"
       y2="2.356"
       gradientUnits="userSpaceOnUse"
       gradientTransform="matrix(1.07499,0,0,1.02929,113.079,0.074)">
      <stop
         stop-color="#269de0"
         id="stop8" />
      <stop
         offset="1"
         stop-color="#1ab4fd"
         id="stop10" />
    </linearGradient>
  </defs>
  <g
     id="g4200"
     transform="matrix(1.4437596,0,0,0.87012166,-14.200308,-0.85940694)">
    <rect
       y="1.735"
       x="10.000001"
       height="60.529999"
       width="44"
       rx="2.5"
       id="rect14"
       style="fill:url(#0)" />
    <path
       d="m 31.749241,1.76044 0,60.526688 20.22077,0 c 0,0 2.059731,-0.414662 2.028434,-2.355763 l 0,-55.5888002 c 0,0 -0.180935,-2.5851296 -2.471482,-2.5851296 z"
       id="path16"
       inkscape:connector-curvature="0"
       style="opacity:0.8;fill:#ffffff;fill-rule:evenodd" />
  </g>
  <g
     style="fill:#0066ff"
     id="g18"
     transform="matrix(1.1109876,0,0,1.6299393,-411.34502,-802.10098)">
    <g
       style="font-size:10px;line-height:125%;font-family:sans-serif;text-align:start;letter-spacing:0;word-spacing:0;fill:#0066ff"
       id="g20"
       font-size="10"
       letter-spacing="0"
       line-height="125%"
       word-spacing="0"
       text-align="start"
       transform="translate(-58.47,-0.395)">
      <flowRoot
         id="flowRoot22"
         transform="translate(389.57,520.8)"
         style="fill:#0066ff">
        <flowRegion
           id="flowRegion24">
          <use
             height="100%"
             width="100%"
             y="0"
             x="0"
             id="use26"
             xlink:href="#1" />
        </flowRegion>
        <flowPara
           id="flowPara28">Plasm</flowPara>
      </flowRoot>
      <g
         id="g30"
         transform="matrix(1.57636,0,0,1.57636,-222.87,-314.51)"
         style="fill:#0066ff">
        <flowRoot
           id="flowRoot32"
           transform="translate(389.57,520.8)"
           style="fill:#0066ff">
          <flowRegion
             id="flowRegion34">
            <use
               height="100%"
               width="100%"
               y="0"
               x="0"
               id="use36"
               xlink:href="#1" />
          </flowRegion>
          <flowPara
             id="flowPara38">Plasm</flowPara>
        </flowRoot>
        <flowRoot
           id="flowRoot40"
           transform="translate(420.8,512.62)"
           style="fill:#0066ff">
          <flowRegion
             id="flowRegion42">
            <use
               height="100%"
               width="100%"
               y="0"
               x="0"
               id="use44"
               xlink:href="#1" />
          </flowRegion>
          <flowPara
             id="flowPara46">Plasm</flowPara>
        </flowRoot>
      </g>
    </g>
    <path
       inkscape:connector-curvature="0"
       id="path48"
       transform="matrix(0.14464,0,0,0.14464,394.57,509.8)"
       d="m 192.48,60.57 c -1.489,-4.625 -5.243,-10.769 -14.659,-13.825 -2.275,-0.738 -4.692,-1.108 -7.199,-1.108 -19.522,0 -42.752,23.88 -54.44,37.534 -4.298,-6.1 -11.367,-10.113 -19.379,-10.113 -8.02,0 -15.08,4.02 -19.387,10.113 C 65.735,69.522 42.497,45.636 22.976,45.636 c -2.506,0 -4.93,0.376 -7.2,1.108 -9.415,3.057 -13.169,9.207 -14.665,13.826 -4.061,12.614 4.01,28.18 9.08,36.22 -5.071,8.04 -13.14,23.596 -9.08,36.22 1.496,4.623 5.249,10.77 14.665,13.819 2.27,0.745 4.693,1.111 7.2,1.111 19.523,0 42.755,-23.886 54.45,-37.533 4.297,6.1 11.367,10.113 19.381,10.113 8.01,0 15.08,-4.01 19.379,-10.113 11.686,13.647 34.921,37.533 54.44,37.533 2.507,0 4.924,-0.378 7.199,-1.111 9.416,-3.05 13.17,-9.203 14.659,-13.819 4.061,-12.613 -4.01,-28.18 -9.08,-36.22 5.066,-8.04 13.13,-23.599 9.08,-36.22"
       style="fill:#0066ff" />
  </g>
</svg>
