<?xml version="1.0" encoding="UTF-8" standalone="no"?>
<svg
   xmlns:dc="http://purl.org/dc/elements/1.1/"
   xmlns:cc="http://creativecommons.org/ns#"
   xmlns:rdf="http://www.w3.org/1999/02/22-rdf-syntax-ns#"
   xmlns:svg="http://www.w3.org/2000/svg"
   xmlns="http://www.w3.org/2000/svg"
   xmlns:sodipodi="http://sodipodi.sourceforge.net/DTD/sodipodi-0.dtd"
   xmlns:inkscape="http://www.inkscape.org/namespaces/inkscape"
   viewBox="0 0 64 64"
   id="svg2"
   version="1.1"
   inkscape:version="0.91 r13725"
   sodipodi:docname="application-x-kexi-connectiondata.svg">
  <metadata
     id="metadata25">
    <rdf:RDF>
      <cc:Work
         rdf:about="">
        <dc:format>image/svg+xml</dc:format>
        <dc:type
           rdf:resource="http://purl.org/dc/dcmitype/StillImage" />
        <dc:title></dc:title>
      </cc:Work>
    </rdf:RDF>
  </metadata>
  <sodipodi:namedview
     pagecolor="#ffffff"
     bordercolor="#666666"
     borderopacity="1"
     objecttolerance="10"
     gridtolerance="10"
     guidetolerance="10"
     inkscape:pageopacity="0"
     inkscape:pageshadow="2"
     inkscape:window-width="1280"
     inkscape:window-height="694"
     id="namedview23"
     showgrid="true"
     inkscape:zoom="3.6875"
     inkscape:cx="-5.5157605"
     inkscape:cy="32"
     inkscape:window-x="0"
     inkscape:window-y="0"
     inkscape:window-maximized="1"
     inkscape:current-layer="svg2">
    <inkscape:grid
       type="xygrid"
       id="grid4140" />
  </sodipodi:namedview>
  <defs
     id="defs4">
    <linearGradient
       id="0"
       x1="-74.929"
       y1="52.2"
       x2="-75.26"
       y2="2.356"
       gradientUnits="userSpaceOnUse"
       gradientTransform="matrix(1.07499,0,0,1.02929,113.079,0.206)">
      <stop
         stop-color="#8549a0"
         id="stop7" />
      <stop
         offset="1"
         stop-color="#c16fe3"
         id="stop9" />
    </linearGradient>
  </defs>
  <rect
     style="fill:#9955ff;stroke-width:1"
     id="rect13"
     rx="3.6093988"
     y="0.51106769"
     x="0.23728909"
     height="52.947964"
     width="63.525421" />
  <g
     style="fill:#220055"
     id="g15"
     transform="matrix(0.04090124,0,0,0.0360797,25.609156,34.104695)">
    <path
       inkscape:connector-curvature="0"
       id="path17"
       d="m 411.5,823 c 210.4,0 381,-48.4 381,-108 l 0,-136.2 c -2.5,1.9 -5,3.7 -7.699,5.5 -22.701,15.2 -54,28.5 -93,39.601 -75.4,21.299 -174.9,33.1 -280.3,33.1 -105.4,0 -204.9,-11.8 -280.3,-33.1 -39,-11.1 -70.3,-24.4 -93,-39.601 -2.7,-1.8 -5.2,-3.6 -7.7,-5.5 l 0,136.2 c 0,59.6 170.6,108 381,108"
       style="fill:#220055" />
    <path
       inkscape:connector-curvature="0"
       id="path19"
       d="m 411.5,617 c 203.3,0 369.4,-45.1 380.4,-102 0.4,-2 0.6,-4 0.6,-6 l 0,-137.2 c -2.5,1.9 -5,3.7 -7.699,5.5 -19.1,12.8 -44.4,24.3 -75.3,34.2 -5.699,1.8 -11.6,3.6 -17.699,5.4 -6.1,1.699 -12.301,3.399 -18.701,5 -14.799,3.699 -30.3,7 -46.5,10 -63.7,11.8 -137.8,18.1 -215.1,18.1 -77.3,0 -151.4,-6.3 -215.2,-18.1 -16.2,-3 -31.7,-6.4 -46.5,-10 -6.4,-1.601 -12.6,-3.2 -18.7,-5 -6.1,-1.7 -12,-3.5 -17.7,-5.4 -30.9,-9.9 -56.2,-21.4 -75.3,-34.2 -2.7,-1.8 -5.2,-3.6 -7.7,-5.5 l 0,137.2 c 0,2 0.2,4 0.6,6 11.1,56.9 177.2,102 380.5,102"
       style="fill:#220055" />
    <path
       inkscape:connector-curvature="0"
       id="path21"
       d="m 196.3,391.1 c 20.7,4 42.8,7.5 66.1,10.301 45.8,5.5 96.2,8.6 149.1,8.6 52.9,0 103.3,-3.1 149.1,-8.6 23.3,-2.801 45.4,-6.301 66.1,-10.301 94.2,-18.3 158,-48.3 165.2,-82.6 0.5,-2.2 0.699,-4.3 0.699,-6.5 l 0,-194 c 0,-59.6 -170.6,-108 -381,-108 -210.4,0 -381,48.4 -381,108 l 0,194 c 0,2.2 0.2,4.3 0.7,6.5 7.101,34.3 70.802,64.3 165,82.6"
       style="fill:#220055" />
  </g>
</svg>
