<?xml version="1.0" encoding="UTF-8" standalone="no"?>
<svg
   xmlns:dc="http://purl.org/dc/elements/1.1/"
   xmlns:cc="http://creativecommons.org/ns#"
   xmlns:rdf="http://www.w3.org/1999/02/22-rdf-syntax-ns#"
   xmlns:svg="http://www.w3.org/2000/svg"
   xmlns="http://www.w3.org/2000/svg"
   xmlns:sodipodi="http://sodipodi.sourceforge.net/DTD/sodipodi-0.dtd"
   xmlns:inkscape="http://www.inkscape.org/namespaces/inkscape"
   viewBox="0 0 64 64"
   id="svg2"
   version="1.1"
   inkscape:version="0.91 r13725"
   sodipodi:docname="application-x-wmf.svg">
  <metadata
     id="metadata19">
    <rdf:RDF>
      <cc:Work
         rdf:about="">
        <dc:format>image/svg+xml</dc:format>
        <dc:type
           rdf:resource="http://purl.org/dc/dcmitype/StillImage" />
        <dc:title></dc:title>
      </cc:Work>
    </rdf:RDF>
  </metadata>
  <sodipodi:namedview
     pagecolor="#ffffff"
     bordercolor="#666666"
     borderopacity="1"
     objecttolerance="10"
     gridtolerance="10"
     guidetolerance="10"
     inkscape:pageopacity="0"
     inkscape:pageshadow="2"
     inkscape:window-width="1280"
     inkscape:window-height="694"
     id="namedview17"
     showgrid="true"
     inkscape:zoom="3.6875"
     inkscape:cx="-8.5423729"
     inkscape:cy="32"
     inkscape:window-x="0"
     inkscape:window-y="0"
     inkscape:window-maximized="1"
     inkscape:current-layer="svg2">
    <inkscape:grid
       type="xygrid"
       id="grid4147" />
  </sodipodi:namedview>
  <defs
     id="defs4">
    <linearGradient
       id="0"
       x1="-75.18"
       y1="59.888"
       x2="-75.26"
       y2="2.356"
       gradientUnits="userSpaceOnUse"
       gradientTransform="matrix(1.5520272,0,0,0.90478156,149.32977,-0.81082228)">
      <stop
         stop-color="#3684e0"
         id="stop7" />
      <stop
         offset="1"
         stop-color="#83bbff"
         id="stop9" />
    </linearGradient>
  </defs>
  <rect
     style="fill:url(#0)"
     id="rect13"
     rx="3.6093991"
     width="63.525421"
     height="53.207966"
     x="0.50847554"
     y="0.6492542" />
  <path
     style="fill:#aaccff;fill-opacity:0.84600004"
     inkscape:connector-curvature="0"
     id="path15"
     d="m 30.528864,62.162096 10.175935,0 0,1.218323 3.700316,0 0,-1.218323 10.220019,0 0,1.377207 3.70023,0 0,-3.411052 -1.364929,0 0,-9.539315 1.321523,0 0,-3.41113 -1.321523,0 0,-8.856262 1.365778,0 0,-3.411129 -3.700232,0 0,0.69384 -10.220019,0 0,-1.218244 -3.700316,0 0,1.218244 -10.175934,0 0,-0.852802 -3.700316,0 0,3.41113 1.321523,0 0,9.014911 -1.321523,0 0,3.411128 1.321523,0 0,9.380667 -1.321523,0 0,3.411208 3.700316,0 0,-1.218322 m -1.057185,0 0,0.24368 -1.585862,0 0,-1.461924 0.264339,0 1.057269,0 0.264338,0 0,0.24368 0,0.974564 m 12.290304,-26.557843 0,-0.24368 1.585862,0 0,0.24368 0,0.509634 0,0.46493 0,0.243603 -1.585862,0 0,-0.243603 0,-0.46493 0,-0.509634 m 1.585862,26.557843 0,0.24368 -1.585862,0 0,-0.24368 0,-0.509634 0,-0.464852 0,-0.24368 1.585862,0 0,0.24368 0,0.464852 0,0.509634 m 0.176084,-12.731071 c 0.102752,0.0952 0.102752,0.249306 0,0.344496 -0.05214,0.04752 -0.119195,0.07135 -0.187359,0.07135 -0.06715,0 -0.135052,-0.02383 -0.186936,-0.07135 L 42.55627,49.22775 41.961974,49.7756 c -0.05189,0.04752 -0.119459,0.07135 -0.187105,0.07135 -0.06765,0 -0.135221,-0.02383 -0.187191,-0.07135 -0.102922,-0.09519 -0.102922,-0.249306 0,-0.344496 l 0.594297,-0.547851 -0.594297,-0.54785 c -0.102922,-0.09488 -0.102922,-0.249619 0,-0.344575 0.103002,-0.09495 0.270782,-0.09495 0.373787,0 l 0.595144,0.54785 0.594296,-0.54785 c 0.103265,-0.09495 0.270528,-0.09495 0.373788,0 0.103265,0.09495 0.103265,0.24962 0,0.344575 l -0.594297,0.54785 0.595144,0.547851 m 13.744251,13.133557 -1.585778,0 0,-0.402565 0,-0.974563 0,-0.08471 0.220424,0 1.057269,0 0.308169,0 0,1.461846 z m -2.643386,-2.4368 0,1.059359 -8.278596,0 c 4.61448,-1.205974 8.248075,-4.556301 9.556203,-8.810151 l 0,7.750401 -1.277607,0 m 2.599131,-10.513879 -0.264253,0 -0.55284,0 -0.504345,0 -0.264254,0 0,-1.461924 0.264254,0 0.504345,0 0.55284,0 0.264253,0 0,1.461924 M 55.68342,35.88451 l 1.277609,0 0.308168,0 0,1.461924 -0.308168,0 -1.057271,0 -0.220423,0 0,-0.768085 0,-0.693839 z m -1.057269,0.693839 0,1.742649 1.277607,0 0,7.067346 c -1.308128,-4.25385 -4.942572,-7.604255 -9.556204,-8.810151 l 8.278597,0 z m -26.739062,-0.85288 0.264339,0 1.321523,0 0,0.852802 0,0.609122 -0.264338,0 -1.057271,0 -0.264338,0 0,-1.461924 z m 2.643386,2.4368 0,-1.583686 8.234512,0 c -4.61448,1.206052 -8.248077,4.55552 -9.556205,8.80937 l 0,-7.225996 1.321523,0 m -2.643386,9.989475 0.264339,0 0.552839,0 0.504346,0 0.264338,0 0,1.461924 -0.264338,0 -0.504346,0 -0.552839,0 -0.264339,0 0,-1.461924 m 1.321524,4.225714 c 1.308382,4.253852 4.941725,7.604256 9.556205,8.810153 l -8.23536,0 0,-1.218323 -1.321524,0 0,-7.591751" />
</svg>
