<?xml version="1.0" encoding="UTF-8" standalone="no"?>
<svg
   xmlns:dc="http://purl.org/dc/elements/1.1/"
   xmlns:cc="http://creativecommons.org/ns#"
   xmlns:rdf="http://www.w3.org/1999/02/22-rdf-syntax-ns#"
   xmlns:svg="http://www.w3.org/2000/svg"
   xmlns="http://www.w3.org/2000/svg"
   xmlns:sodipodi="http://sodipodi.sourceforge.net/DTD/sodipodi-0.dtd"
   xmlns:inkscape="http://www.inkscape.org/namespaces/inkscape"
   viewBox="0 0 64 64"
   id="svg2"
   version="1.1"
   inkscape:version="0.91 r13725"
   sodipodi:docname="text-scss.svg">
  <metadata
     id="metadata23">
    <rdf:RDF>
      <cc:Work
         rdf:about="">
        <dc:format>image/svg+xml</dc:format>
        <dc:type
           rdf:resource="http://purl.org/dc/dcmitype/StillImage" />
        <dc:title></dc:title>
      </cc:Work>
    </rdf:RDF>
  </metadata>
  <sodipodi:namedview
     pagecolor="#ffffff"
     bordercolor="#666666"
     borderopacity="1"
     objecttolerance="10"
     gridtolerance="10"
     guidetolerance="10"
     inkscape:pageopacity="0"
     inkscape:pageshadow="2"
     inkscape:window-width="1280"
     inkscape:window-height="694"
     id="namedview21"
     showgrid="true"
     inkscape:zoom="3.6875"
     inkscape:cx="-12.20339"
     inkscape:cy="32"
     inkscape:window-x="0"
     inkscape:window-y="0"
     inkscape:window-maximized="1"
     inkscape:current-layer="svg2">
    <inkscape:grid
       type="xygrid"
       id="grid4151" />
  </sodipodi:namedview>
  <defs
     id="defs4">
    <linearGradient
       id="0"
       x1="-74.929"
       y1="52.2"
       x2="-75.26"
       y2="2.356"
       gradientUnits="userSpaceOnUse"
       gradientTransform="matrix(1.5454017,0,0,0.90017013,148.69446,-0.80238067)">
      <stop
         stop-color="#dc1666"
         id="stop7" />
      <stop
         offset="1"
         stop-color="#ff5390"
         id="stop9" />
    </linearGradient>
  </defs>
  <rect
     style="fill:url(#0)"
     id="rect13"
     rx="3.5939908"
     y="0.65025425"
     x="0.50847554"
     height="52.936779"
     width="63.254234" />
  <g
     style="fill:#ffaacc;fill-opacity:0.85"
     id="g15"
     transform="matrix(1.6073758,0,0,1.3251165,-640.16688,-666.92979)">
    <path
       inkscape:connector-curvature="0"
       id="path17"
       d="m 420.72,551.24 q -1.849,0 -2.93,-1.081 -1.057,-1.081 -1.057,-2.882 l 0,-4.107 q 0,-0.985 -0.504,-1.489 -0.504,-0.528 -1.273,-0.528 l 0,-1.825 q 0.769,0 1.273,-0.504 0.504,-0.528 0.504,-1.513 l 0,-4.107 q 0,-1.801 1.057,-2.882 1.081,-1.081 2.93,-1.081 l 0.528,0 0,1.825 -0.528,0 q -0.841,0 -1.417,0.6 -0.552,0.6 -0.552,1.609 l 0,4.107 q 0,2.186 -1.657,2.81 l 0,0.096 q 1.657,0.576 1.657,2.81 l 0,4.107 q 0,1.01 0.552,1.609 0.576,0.6 1.417,0.6 l 0.528,0 0,1.825 -0.528,0"
       style="fill:#ffaacc" />
    <path
       inkscape:connector-curvature="0"
       id="path19"
       d="m 428.62,551.24 -0.528,0 0,-1.825 0.528,0 q 0.841,0 1.393,-0.6 0.576,-0.6 0.576,-1.609 l 0,-4.107 q 0,-2.234 1.657,-2.81 l 0,-0.096 q -1.657,-0.624 -1.657,-2.81 l 0,-4.107 q 0,-1.01 -0.576,-1.609 -0.552,-0.6 -1.393,-0.6 l -0.528,0 0,-1.825 0.528,0 q 1.849,0 2.906,1.081 1.081,1.081 1.081,2.882 l 0,4.107 q 0,0.985 0.504,1.513 0.504,0.504 1.273,0.504 l 0,1.825 q -0.769,0 -1.273,0.528 -0.504,0.504 -0.504,1.489 l 0,4.107 q 0,1.801 -1.081,2.882 -1.057,1.081 -2.906,1.081"
       style="fill:#ffaacc" />
  </g>
</svg>
