<?xml version="1.0" encoding="UTF-8" standalone="no"?>
<svg
   xmlns:dc="http://purl.org/dc/elements/1.1/"
   xmlns:cc="http://creativecommons.org/ns#"
   xmlns:rdf="http://www.w3.org/1999/02/22-rdf-syntax-ns#"
   xmlns:svg="http://www.w3.org/2000/svg"
   xmlns="http://www.w3.org/2000/svg"
   xmlns:sodipodi="http://sodipodi.sourceforge.net/DTD/sodipodi-0.dtd"
   xmlns:inkscape="http://www.inkscape.org/namespaces/inkscape"
   viewBox="0 0 64 64"
   id="svg2"
   version="1.1"
   inkscape:version="0.91 r13725"
   sodipodi:docname="video-mp4.svg">
  <metadata
     id="metadata19">
    <rdf:RDF>
      <cc:Work
         rdf:about="">
        <dc:format>image/svg+xml</dc:format>
        <dc:type
           rdf:resource="http://purl.org/dc/dcmitype/StillImage" />
        <dc:title></dc:title>
      </cc:Work>
    </rdf:RDF>
  </metadata>
  <sodipodi:namedview
     pagecolor="#ffffff"
     bordercolor="#666666"
     borderopacity="1"
     objecttolerance="10"
     gridtolerance="10"
     guidetolerance="10"
     inkscape:pageopacity="0"
     inkscape:pageshadow="2"
     inkscape:window-width="1280"
     inkscape:window-height="694"
     id="namedview17"
     showgrid="true"
     inkscape:zoom="3.6875"
     inkscape:cx="-12.20339"
     inkscape:cy="32"
     inkscape:window-x="0"
     inkscape:window-y="0"
     inkscape:window-maximized="1"
     inkscape:current-layer="svg2">
    <inkscape:grid
       type="xygrid"
       id="grid4147" />
  </sodipodi:namedview>
  <defs
     id="defs4">
    <linearGradient
       id="0"
       x1="-74.929"
       y1="52.2"
       x2="-75.26"
       y2="2.356"
       gradientUnits="userSpaceOnUse"
       gradientTransform="matrix(1.5454017,0,0,0.90017013,148.69446,-0.80238067)">
      <stop
         stop-color="#ff292f"
         id="stop7" />
      <stop
         offset="1"
         stop-color="#ff4f1c"
         id="stop9" />
    </linearGradient>
  </defs>
  <rect
     style="fill:url(#0)"
     id="rect13"
     rx="3.5939908"
     y="0.65025425"
     x="0.50847554"
     height="52.936779"
     width="63.254234" />
  <path
     style="fill:#ffd5d5;fill-opacity:0.85;stroke:none;stroke-opacity:0.8"
     inkscape:connector-curvature="0"
     id="path15"
     d="m 28.925455,63.512736 27.030309,0 c 1.15106,0 2.092704,-0.835215 2.092704,-1.856304 l 0,-25.438365 c 0,-1.018724 -0.942371,-1.856303 -2.092704,-1.856303 l -27.030309,0 c -1.153644,0 -2.094079,0.837579 -2.094079,1.856303 l 0,25.438365 c 0,1.021089 0.940435,1.856304 2.094079,1.856304 M 52.942887,36.632665 c 0,-0.308118 0.284173,-0.556834 0.628005,-0.556834 l 1.962084,0 c 0.346496,0 0.626713,0.248716 0.626713,0.556834 l 0,1.793534 c 0,0.308118 -0.280217,0.556833 -0.626713,0.556833 l -1.962084,0 c -0.343832,0 -0.628005,-0.248142 -0.628005,-0.556833 l 0,-1.793534 m 0,4.562295 c 0,-0.308118 0.284173,-0.557406 0.628005,-0.557406 l 1.962084,0 c 0.346496,0 0.626713,0.249288 0.626713,0.557406 l 0,1.793534 c 0,0.307545 -0.280217,0.558554 -0.626713,0.558554 l -1.962084,0 c -0.343832,0 -0.628005,-0.251009 -0.628005,-0.558554 l 0,-1.793534 m 0,4.56588 c 0,-0.307545 0.284173,-0.558554 0.628005,-0.558554 l 1.962084,0 c 0.346496,0 0.626713,0.251009 0.626713,0.558554 l 0,1.79425 c 0,0.30518 -0.280217,0.55626 -0.626713,0.55626 l -1.962084,0 c -0.343832,0 -0.628005,-0.251009 -0.628005,-0.55626 l 0,-1.79425 m 0,4.562296 c 0,-0.308119 0.284173,-0.558554 0.628005,-0.558554 l 1.962084,0 c 0.346496,0 0.626713,0.250435 0.626713,0.558554 l 0,1.79425 c 0,0.307544 -0.280217,0.556833 -0.626713,0.556833 l -1.962084,0 c -0.343832,0 -0.628005,-0.249289 -0.628005,-0.556833 l 0,-1.79425 m 0,4.562296 c 0,-0.308118 0.284173,-0.556833 0.628005,-0.556833 l 1.962084,0 c 0.346496,0 0.626713,0.248142 0.626713,0.556833 l 0,1.794966 c 0,0.306399 -0.280217,0.555688 -0.626713,0.555688 l -1.962084,0 c -0.343832,0 -0.628005,-0.249289 -0.628005,-0.555688 l 0,-1.794966 m 0,4.562296 c 0,-0.306398 0.284173,-0.556834 0.628005,-0.556834 l 1.962084,0 c 0.346496,0 0.626713,0.250436 0.626713,0.556834 l 0,1.797116 c 0,0.304034 -0.280217,0.555688 -0.626713,0.555688 l -1.962084,0 c -0.343832,0 -0.628005,-0.251009 -0.628005,-0.555688 l 0,-1.797116 M 34.089808,37.978352 c 0,-0.308118 0.2828,-0.556833 0.629297,-0.556833 l 15.443815,0 c 0.34456,0 0.626714,0.248715 0.626714,0.556833 l 0,8.880964 c 0,0.30518 -0.282154,0.558554 -0.626714,0.558554 l -15.443815,0 c -0.346497,0 -0.629297,-0.253374 -0.629297,-0.558554 -8e-6,0 -8e-6,-8.880964 -8e-6,-8.880964 m 0,13.69477 c 0,-0.305824 0.2828,-0.555113 0.629297,-0.555113 l 15.443814,0 c 0.344561,0 0.626715,0.249289 0.626715,0.555113 l 0,8.209553 c 0,0.3064 -0.282154,0.556835 -0.626715,0.556835 l -15.443814,0 c -0.346497,0 -0.629297,-0.250435 -0.629297,-0.556835 -9e-6,0 -9e-6,-8.209553 -9e-6,-8.209553 M 28.719575,36.631948 c 0,-0.308118 0.282155,-0.556833 0.628005,-0.556833 l 1.96281,0 c 0.344559,0 0.626067,0.248715 0.626067,0.556833 l 0,1.793534 c 0,0.308118 -0.281508,0.556833 -0.626067,0.556833 l -1.96281,0 c -0.34585,0 -0.628005,-0.248142 -0.628005,-0.556833 0,0 0,-1.793534 0,-1.793534 m 0,4.562296 c 0,-0.308118 0.282155,-0.557407 0.628005,-0.557407 l 1.96281,0 c 0.344559,0 0.626067,0.249289 0.626067,0.557407 l 0,1.793534 c 0,0.307544 -0.281508,0.558553 -0.626067,0.558553 l -1.96281,0 c -0.34585,0 -0.628005,-0.251009 -0.628005,-0.558553 0,0 0,-1.793534 0,-1.793534 m 0,4.565879 c 0,-0.307545 0.282155,-0.558554 0.628005,-0.558554 l 1.96281,0 c 0.344559,0 0.626067,0.251009 0.626067,0.558554 l 0,1.79425 c 0,0.30518 -0.281508,0.55626 -0.626067,0.55626 l -1.96281,0 c -0.34585,0 -0.628005,-0.251008 -0.628005,-0.55626 0,0 0,-1.79425 0,-1.79425 m 0,4.562297 c 0,-0.308118 0.282155,-0.558554 0.628005,-0.558554 l 1.96281,0 c 0.344559,0 0.626067,0.250436 0.626067,0.558554 l 0,1.794249 c 0,0.307545 -0.281508,0.556833 -0.626067,0.556833 l -1.96281,0 c -0.34585,0 -0.628005,-0.249288 -0.628005,-0.556833 0,0 0,-1.794249 0,-1.794249 m 0,4.562295 c 0,-0.308118 0.282155,-0.556833 0.628005,-0.556833 l 1.96281,0 c 0.344559,0 0.626067,0.248142 0.626067,0.556833 l 0,1.794966 c 0,0.306399 -0.281508,0.555688 -0.626067,0.555688 l -1.96281,0 c -0.34585,0 -0.628005,-0.249289 -0.628005,-0.555688 0,0 0,-1.794966 0,-1.794966 m 0,4.562296 c 0,-0.306398 0.282155,-0.556833 0.628005,-0.556833 l 1.96281,0 c 0.344559,0 0.626067,0.250435 0.626067,0.556833 l 0,1.797116 c 0,0.304034 -0.281508,0.555688 -0.626067,0.555688 l -1.96281,0 c -0.34585,0 -0.628005,-0.251009 -0.628005,-0.555688 0,-6e-6 0,-1.797116 0,-1.797116" />
</svg>
