<?xml version="1.0" encoding="UTF-8" standalone="no"?>
<svg
   xmlns:dc="http://purl.org/dc/elements/1.1/"
   xmlns:cc="http://creativecommons.org/ns#"
   xmlns:rdf="http://www.w3.org/1999/02/22-rdf-syntax-ns#"
   xmlns:svg="http://www.w3.org/2000/svg"
   xmlns="http://www.w3.org/2000/svg"
   xmlns:sodipodi="http://sodipodi.sourceforge.net/DTD/sodipodi-0.dtd"
   xmlns:inkscape="http://www.inkscape.org/namespaces/inkscape"
   viewBox="0 0 48 48"
   id="svg2"
   version="1.1"
   inkscape:version="0.91 r13725"
   sodipodi:docname="audio-card.svg">
  <metadata
     id="metadata30">
    <rdf:RDF>
      <cc:Work
         rdf:about="">
        <dc:format>image/svg+xml</dc:format>
        <dc:type
           rdf:resource="http://purl.org/dc/dcmitype/StillImage" />
        <dc:title></dc:title>
      </cc:Work>
    </rdf:RDF>
  </metadata>
  <sodipodi:namedview
     pagecolor="#ffffff"
     bordercolor="#666666"
     borderopacity="1"
     objecttolerance="10"
     gridtolerance="10"
     guidetolerance="10"
     inkscape:pageopacity="0"
     inkscape:pageshadow="2"
     inkscape:window-width="1280"
     inkscape:window-height="694"
     id="namedview28"
     showgrid="false"
     inkscape:zoom="4.9166667"
     inkscape:cx="-9.1525424"
     inkscape:cy="24"
     inkscape:window-x="0"
     inkscape:window-y="0"
     inkscape:window-maximized="1"
     inkscape:current-layer="svg2" />
  <defs
     id="defs4">
    <linearGradient
       id="0"
       y1="540.8"
       x2="0"
       y2="504.8"
       gradientUnits="userSpaceOnUse">
      <stop
         stop-color="#63984b"
         id="stop7" />
      <stop
         offset="1"
         stop-color="#8fc278"
         id="stop9" />
    </linearGradient>
    <linearGradient
       id="1"
       y1="535.8"
       x2="0"
       y2="511.8"
       gradientUnits="userSpaceOnUse">
      <stop
         stop-color="#2a2c2f"
         id="stop12" />
      <stop
         offset="1"
         stop-color="#424649"
         id="stop14" />
    </linearGradient>
  </defs>
  <g
     style="fill-rule:evenodd;fill:#5aa02c"
     id="g18"
     transform="matrix(0.82759,0,0,1.2611315,-314.13,-636.47732)">
    <rect
       style="fill:#5aa02c"
       id="rect20"
       rx="1.5"
       width="58"
       height="38"
       x="379.57001"
       y="504.79999" />
    <rect
       style="fill:#5aa02c"
       id="rect22"
       rx="1"
       width="26"
       height="26"
       x="395.57001"
       y="510.79999" />
  </g>
  <path
     style="fill:#ddff55"
     inkscape:connector-curvature="0"
     id="path24"
     d="m 7.1778318,4.5663172 0,8.5930918 -3.3641213,0 0,8.593092 -3.36412365,0 0,4.296547 3.36412365,0 0,8.593091 3.3641213,0 0,4.296549 3.3641232,0 0,-8.593093 3.364122,0 0,-4.296547 6.728246,0 0,4.296547 3.364122,0 0,4.296544 3.364123,0 0,4.296549 3.364125,0 0,8.593091 3.36412,0 0,-4.296547 3.364125,0 0,-8.593093 3.36412,0 0,-4.296544 3.364125,0 0,-4.296547 3.364123,0 0,-4.296547 -3.364123,0 0,-4.296544 -3.364125,0 0,-4.296548 -3.36412,0 0,-8.5930918 -3.364125,0 0,-4.29654732 -3.36412,0 0,8.59309182 -3.364125,0 0,4.2965473 -3.364123,0 0,4.296548 -3.364122,0 0,4.296544 -6.728246,0 0,-4.296544 -3.364122,0 0,-12.8920043 z" />
  <path
     style="fill:#ddff55"
     inkscape:connector-curvature="0"
     id="path26"
     d="m -0.0016637,44.699777 48.0002197,0 0,0.82759 -48.0002197,0 z" />
</svg>
