<?xml version="1.0" encoding="UTF-8" standalone="no"?>
<svg
   xmlns:dc="http://purl.org/dc/elements/1.1/"
   xmlns:cc="http://creativecommons.org/ns#"
   xmlns:rdf="http://www.w3.org/1999/02/22-rdf-syntax-ns#"
   xmlns:svg="http://www.w3.org/2000/svg"
   xmlns="http://www.w3.org/2000/svg"
   xmlns:xlink="http://www.w3.org/1999/xlink"
   xmlns:sodipodi="http://sodipodi.sourceforge.net/DTD/sodipodi-0.dtd"
   xmlns:inkscape="http://www.inkscape.org/namespaces/inkscape"
   viewBox="0 0 64 64"
   id="svg13202"
   version="1.1"
   inkscape:version="0.91 r13725"
   sodipodi:docname="folder-games.svg">
  <metadata
     id="metadata13228">
    <rdf:RDF>
      <cc:Work
         rdf:about="">
        <dc:format>image/svg+xml</dc:format>
        <dc:type
           rdf:resource="http://purl.org/dc/dcmitype/StillImage" />
        <dc:title />
      </cc:Work>
    </rdf:RDF>
  </metadata>
  <sodipodi:namedview
     pagecolor="#ffffff"
     bordercolor="#666666"
     borderopacity="1"
     objecttolerance="10"
     gridtolerance="10"
     guidetolerance="10"
     inkscape:pageopacity="0"
     inkscape:pageshadow="2"
     inkscape:window-width="1280"
     inkscape:window-height="688"
     id="namedview13226"
     showgrid="false"
     inkscape:zoom="3.6875"
     inkscape:cx="-49.49271"
     inkscape:cy="32"
     inkscape:window-x="0"
     inkscape:window-y="0"
     inkscape:window-maximized="1"
     inkscape:current-layer="svg13202" />
  <defs
     id="defs13204">
    <linearGradient
       xlink:href="#1"
       id="3"
       x1="-19.915"
       y1="1048.7"
       x2="-19.996"
       y2="1025.51"
       gradientUnits="userSpaceOnUse"
       gradientTransform="translate(51.949,-1001.46)" />
    <linearGradient
       gradientUnits="userSpaceOnUse"
       y2="354.29"
       x2="-704.05"
       y1="647.77"
       x1="-701.19"
       id="2"
       gradientTransform="matrix(0.01590505,0,0,0.01845141,129.51168,-45.007092)">
      <stop
         stop-color="#93cfff"
         id="stop13208" />
      <stop
         offset="1"
         stop-color="#cde8fe"
         id="stop13210" />
    </linearGradient>
    <linearGradient
       xlink:href="#1"
       id="0"
       x1="59.12"
       y1="-13.295"
       x2="59.15"
       y2="-37.783"
       gradientUnits="userSpaceOnUse"
       gradientTransform="matrix(0.52660675,0,0,0.52570737,-19.441377,28.676662)" />
    <linearGradient
       id="1">
      <stop
         stop-color="#289bf7"
         id="stop13214" />
      <stop
         offset="1"
         stop-color="#71b9f1"
         id="stop13216" />
    </linearGradient>
  </defs>
  <path
     inkscape:connector-curvature="0"
     style="fill:#d4aa00"
     d="m 63.983052,18.416896 -63.69491597,0 0,-15.8193878 c 0,-1.2801423 1.00594037,-2.31785064 2.24689307,-2.31785064 l 59.2011299,0 c 1.240952,0 2.246893,1.03770834 2.246893,2.31785064 l 0,15.8193878 z"
     id="path3" />
  <rect
     x="3.5827007"
     y="18.416897"
     style="fill:#d4aa00"
     width="57.105785"
     height="45.303448"
     id="rect5" />
  <path
     inkscape:connector-curvature="0"
     style="fill:#aa8800"
     d="m 42.019288,13.885419 -19.767388,0 c -2.425898,0 -4.392753,-2.028969 -4.392753,-4.5314779 l 0,0 c 0,-2.5025085 1.966855,-4.5314774 4.392753,-4.5314774 l 19.767388,0 c 2.425897,0 4.392752,2.0289689 4.392752,4.5314774 l 0,0 c 0,2.5025089 -1.966855,4.5314779 -4.392752,4.5314779 z"
     id="path7" />
  <rect
     x="3.5827007"
     y="58.055992"
     style="fill:#aa8800"
     width="57.105785"
     height="5.6643467"
     id="rect9" />
  <rect
     x="16.76096"
     y="27.468521"
     style="fill:#fff6d5"
     width="30.749269"
     height="15.860171"
     id="rect11" />
  <g
     id="g13"
     transform="matrix(1.0981882,0,0,1.1328694,0.28813603,-0.85321179)"
     style="fill:#aa8800">
    <path
       inkscape:connector-curvature="0"
       style="fill:#aa8800"
       d="m 19,31 6,0 c 0.553,0 1,-0.447 1,-1 0,-0.553 -0.447,-1 -1,-1 l -6,0 c -0.553,0 -1,0.447 -1,1 0,0.553 0.447,1 1,1 z"
       id="path15" />
    <path
       inkscape:connector-curvature="0"
       style="fill:#aa8800"
       d="m 29,31 c 0.26,0 0.52,-0.11 0.71,-0.29 C 29.89,30.52 30,30.26 30,30 c 0,-0.261 -0.11,-0.521 -0.29,-0.71 -0.38,-0.37 -1.05,-0.37 -1.42,0 C 28.109,29.479 28,29.739 28,30 c 0,0.27 0.109,0.52 0.29,0.71 C 28.479,30.89 28.729,31 29,31 Z"
       id="path17" />
    <path
       inkscape:connector-curvature="0"
       style="fill:#aa8800"
       d="m 39,33 -16,0 c -0.553,0 -1,0.447 -1,1 0,0.553 0.447,1 1,1 l 16,0 c 0.553,0 1,-0.447 1,-1 0,-0.553 -0.447,-1 -1,-1 z"
       id="path19" />
    <path
       inkscape:connector-curvature="0"
       style="fill:#aa8800"
       d="M 18.29,33.29 C 18.109,33.479 18,33.739 18,34 c 0,0.26 0.109,0.52 0.29,0.71 0.189,0.18 0.439,0.29 0.71,0.29 0.27,0 0.52,-0.11 0.71,-0.29 C 19.89,34.52 20,34.26 20,34 c 0,-0.261 -0.11,-0.521 -0.29,-0.71 -0.37,-0.37 -1.04,-0.37 -1.42,0 z"
       id="path21" />
  </g>
  <rect
     x="3.5827007"
     y="18.405567"
     style="fill:#aa8800"
     width="57.105785"
     height="5.6643467"
     id="rect23" />
  <g
     transform="matrix(0.29404397,0,0,0.33138502,46.658344,-0.52624144)"
     id="g4191"
     style="fill:#ffffff">
    <path
       inkscape:connector-curvature="0"
       id="path3-0"
       d="m 56.811,18.884 c -0.437,-2.145 -1.596,-4.05 -3.125,-5.568 -2.196,-2.18 -6.175,-4.304 -10.781,-4.304 -7.03,0 -13.903,0 -13.903,0 0,0 -6.873,0 -13.903,0 -4.606,0 -8.585,2.124 -10.781,4.304 -1.529,1.518 -2.687,3.424 -3.125,5.568 -0.883,4.334 1.457,6.996 3.626,8.481 1.424,0.975 3.091,1.465 4.789,1.657 4.296,0.485 6.699,2.858 7.985,4.867 0.83,1.296 1.296,2.798 1.518,4.336 1.241,8.608 4.431,13.666 6.855,16.377 1.637,1.83 4.436,1.83 6.072,0 2.425,-2.71 5.614,-7.768 6.855,-16.377 0.222,-1.537 0.688,-3.04 1.518,-4.336 1.286,-2.01 3.689,-4.382 7.985,-4.867 1.698,-0.192 3.365,-0.682 4.789,-1.657 2.17,-1.485 4.51,-4.147 3.626,-8.481 z"
       style="fill:#ffffff" />
    <path
       inkscape:connector-curvature="0"
       id="path5"
       d="m 57.003,19.984 -0.039,-0.002 c 0.314,3.689 -1.798,6.028 -3.777,7.383 -1.424,0.975 -3.091,1.465 -4.789,1.657 -2.219,0.25 -3.924,1.008 -5.24,1.955 l 0.283,2.931 c 0,0 1.71,15.872 5.753,19.859 1.948,1.921 3.629,1.255 4.663,0.415 0.683,-0.556 1.193,-1.292 1.526,-2.108 4.544,-11.129 1.853,-30.952 1.62,-32.09 z"
       style="fill:#ffffff" />
    <path
       inkscape:connector-curvature="0"
       id="path7-6"
       d="M 9.608,29.023 C 7.91,28.831 6.243,28.341 4.819,27.366 2.84,26.011 0.728,23.672 1.042,19.983 l -0.039,0.002 c -0.233,1.138 -2.925,20.96 1.62,32.09 0.333,0.815 0.843,1.552 1.526,2.108 1.033,0.84 2.715,1.506 4.663,-0.415 4.043,-3.987 5.753,-19.859 5.753,-19.859 l 0.283,-2.931 C 13.532,30.03 11.827,29.273 9.608,29.023 Z"
       style="fill:#ffffff" />
    <path
       inkscape:connector-curvature="0"
       id="path9"
       d="m 43.003,9.012 -28,0 1.07,-2.675 c 0.584,-1.46 1.834,-2.551 3.359,-2.932 l 1.031,-0.258 c 5.811,-1.573 11.473,-1.402 17.08,0 l 1.031,0.258 c 1.525,0.381 2.775,1.472 3.359,2.932 l 1.07,2.675 z"
       style="fill:#ffffff" />
    <circle
       id="circle11"
       r="3"
       cy="17.011999"
       cx="37.002998"
       style="fill:#ffffff" />
    <circle
       id="circle13"
       r="3"
       cy="23.011999"
       cx="43.002998"
       style="fill:#ffffff" />
    <path
       inkscape:connector-curvature="0"
       id="path15-0"
       d="m 19.333,18.012 -1.66,0 c -0.37,0 -0.67,-0.3 -0.67,-0.67 l 0,-1.66 c 0,-0.37 -0.3,-0.67 -0.67,-0.67 l -2.66,0 c -0.37,0 -0.67,0.3 -0.67,0.67 l 0,1.66 c 0,0.37 -0.3,0.67 -0.67,0.67 l -1.66,0 c -0.37,0 -0.67,0.3 -0.67,0.67 l 0,2.66 c 0,0.37 0.3,0.67 0.67,0.67 l 1.66,0 c 0.37,0 0.67,0.3 0.67,0.67 l 0,1.66 c 0,0.37 0.3,0.67 0.67,0.67 l 2.66,0 c 0.37,0 0.67,-0.3 0.67,-0.67 l 0,-1.66 c 0,-0.37 0.3,-0.67 0.67,-0.67 l 1.66,0 c 0.37,0 0.67,-0.3 0.67,-0.67 l 0,-2.66 c 0,-0.37 -0.3,-0.67 -0.67,-0.67 z"
       style="fill:#ffffff" />
    <circle
       id="circle17"
       r="4"
       cy="35.012001"
       cx="29.003"
       style="fill:#ffffff" />
    <path
       inkscape:connector-curvature="0"
       id="path19-1"
       d="m 33,35.036 c -0.013,2.198 -1.797,3.976 -3.998,3.976 -2.201,0 -3.984,-1.778 -3.998,-3.976 -0.622,0.833 -1.002,1.856 -1.002,2.976 0,2.761 2.239,5 5,5 2.761,0 5,-2.239 5,-5 C 34.003,36.893 33.622,35.87 33,35.036 Z"
       style="fill:#ffffff" />
    <circle
       id="circle21"
       r="1"
       cy="14.012"
       cx="48.002998"
       style="fill:#ffffff" />
    <circle
       id="circle23"
       r="1"
       cy="18.011999"
       cx="48.002998"
       style="fill:#ffffff" />
    <circle
       id="circle25"
       r="1"
       cy="16.011999"
       cx="46.002998"
       style="fill:#ffffff" />
    <circle
       id="circle27"
       r="1"
       cy="16.011999"
       cx="50.002998"
       style="fill:#ffffff" />
  </g>
</svg>
