<?xml version="1.0" encoding="UTF-8" standalone="no"?>
<!-- Generator: Adobe Illustrator 19.0.0, SVG Export Plug-In . SVG Version: 6.00 Build 0)  -->

<svg
   xmlns:dc="http://purl.org/dc/elements/1.1/"
   xmlns:cc="http://creativecommons.org/ns#"
   xmlns:rdf="http://www.w3.org/1999/02/22-rdf-syntax-ns#"
   xmlns:svg="http://www.w3.org/2000/svg"
   xmlns="http://www.w3.org/2000/svg"
   xmlns:sodipodi="http://sodipodi.sourceforge.net/DTD/sodipodi-0.dtd"
   xmlns:inkscape="http://www.inkscape.org/namespaces/inkscape"
   version="1.1"
   id="Capa_1"
   x="0px"
   y="0px"
   viewBox="0 0 58.006 58.006"
   style="enable-background:new 0 0 58.006 58.006;"
   xml:space="preserve"
   inkscape:version="0.91 r13725"
   sodipodi:docname="applications-games.svg"><metadata
     id="metadata63"><rdf:RDF><cc:Work
         rdf:about=""><dc:format>image/svg+xml</dc:format><dc:type
           rdf:resource="http://purl.org/dc/dcmitype/StillImage" /><dc:title></dc:title></cc:Work></rdf:RDF></metadata><defs
     id="defs61" /><sodipodi:namedview
     pagecolor="#ffffff"
     bordercolor="#666666"
     borderopacity="1"
     objecttolerance="10"
     gridtolerance="10"
     guidetolerance="10"
     inkscape:pageopacity="0"
     inkscape:pageshadow="2"
     inkscape:window-width="1280"
     inkscape:window-height="694"
     id="namedview59"
     showgrid="false"
     inkscape:zoom="4.0685446"
     inkscape:cx="-51.123932"
     inkscape:cy="29.003"
     inkscape:window-x="0"
     inkscape:window-y="0"
     inkscape:window-maximized="1"
     inkscape:current-layer="Capa_1" /><g
     id="g4191"
     transform="matrix(1,0,0,1.0592326,0,-1.594998)"><path
       id="path3"
       d="m 56.811,18.884 c -0.437,-2.145 -1.596,-4.05 -3.125,-5.568 -2.196,-2.18 -6.175,-4.304 -10.781,-4.304 -7.03,0 -13.903,0 -13.903,0 0,0 -6.873,0 -13.903,0 -4.606,0 -8.585,2.124 -10.781,4.304 -1.529,1.518 -2.687,3.424 -3.125,5.568 -0.883,4.334 1.457,6.996 3.626,8.481 1.424,0.975 3.091,1.465 4.789,1.657 4.296,0.485 6.699,2.858 7.985,4.867 0.83,1.296 1.296,2.798 1.518,4.336 1.241,8.608 4.431,13.666 6.855,16.377 1.637,1.83 4.436,1.83 6.072,0 2.425,-2.71 5.614,-7.768 6.855,-16.377 0.222,-1.537 0.688,-3.04 1.518,-4.336 1.286,-2.01 3.689,-4.382 7.985,-4.867 1.698,-0.192 3.365,-0.682 4.789,-1.657 2.17,-1.485 4.51,-4.147 3.626,-8.481 z"
       style="fill:#cbd4d8"
       inkscape:connector-curvature="0" /><path
       id="path5"
       d="m 57.003,19.984 -0.039,-0.002 c 0.314,3.689 -1.798,6.028 -3.777,7.383 -1.424,0.975 -3.091,1.465 -4.789,1.657 -2.219,0.25 -3.924,1.008 -5.24,1.955 l 0.283,2.931 c 0,0 1.71,15.872 5.753,19.859 1.948,1.921 3.629,1.255 4.663,0.415 0.683,-0.556 1.193,-1.292 1.526,-2.108 4.544,-11.129 1.853,-30.952 1.62,-32.09 z"
       style="fill:#afb6bb"
       inkscape:connector-curvature="0" /><path
       id="path7"
       d="M 9.608,29.023 C 7.91,28.831 6.243,28.341 4.819,27.366 2.84,26.011 0.728,23.672 1.042,19.983 l -0.039,0.002 c -0.233,1.138 -2.925,20.96 1.62,32.09 0.333,0.815 0.843,1.552 1.526,2.108 1.033,0.84 2.715,1.506 4.663,-0.415 4.043,-3.987 5.753,-19.859 5.753,-19.859 l 0.283,-2.931 C 13.532,30.03 11.827,29.273 9.608,29.023 Z"
       style="fill:#afb6bb"
       inkscape:connector-curvature="0" /><path
       id="path9"
       d="m 43.003,9.012 -28,0 1.07,-2.675 c 0.584,-1.46 1.834,-2.551 3.359,-2.932 l 1.031,-0.258 c 5.811,-1.573 11.473,-1.402 17.08,0 l 1.031,0.258 c 1.525,0.381 2.775,1.472 3.359,2.932 l 1.07,2.675 z"
       style="fill:#afb6bb"
       inkscape:connector-curvature="0" /><circle
       id="circle11"
       r="3"
       cy="17.011999"
       cx="37.002998"
       style="fill:#43b05c" /><circle
       id="circle13"
       r="3"
       cy="23.011999"
       cx="43.002998"
       style="fill:#1081e0" /><path
       id="path15"
       d="m 19.333,18.012 -1.66,0 c -0.37,0 -0.67,-0.3 -0.67,-0.67 l 0,-1.66 c 0,-0.37 -0.3,-0.67 -0.67,-0.67 l -2.66,0 c -0.37,0 -0.67,0.3 -0.67,0.67 l 0,1.66 c 0,0.37 -0.3,0.67 -0.67,0.67 l -1.66,0 c -0.37,0 -0.67,0.3 -0.67,0.67 l 0,2.66 c 0,0.37 0.3,0.67 0.67,0.67 l 1.66,0 c 0.37,0 0.67,0.3 0.67,0.67 l 0,1.66 c 0,0.37 0.3,0.67 0.67,0.67 l 2.66,0 c 0.37,0 0.67,-0.3 0.67,-0.67 l 0,-1.66 c 0,-0.37 0.3,-0.67 0.67,-0.67 l 1.66,0 c 0.37,0 0.67,-0.3 0.67,-0.67 l 0,-2.66 c 0,-0.37 -0.3,-0.67 -0.67,-0.67 z"
       style="fill:#38454f"
       inkscape:connector-curvature="0" /><circle
       id="circle17"
       r="4"
       cy="35.012001"
       cx="29.003"
       style="fill:#e7eced" /><path
       id="path19"
       d="m 33,35.036 c -0.013,2.198 -1.797,3.976 -3.998,3.976 -2.201,0 -3.984,-1.778 -3.998,-3.976 -0.622,0.833 -1.002,1.856 -1.002,2.976 0,2.761 2.239,5 5,5 2.761,0 5,-2.239 5,-5 C 34.003,36.893 33.622,35.87 33,35.036 Z"
       style="fill:#546a79"
       inkscape:connector-curvature="0" /><circle
       id="circle21"
       r="1"
       cy="14.012"
       cx="48.002998"
       style="fill:#ebba16" /><circle
       id="circle23"
       r="1"
       cy="18.011999"
       cx="48.002998"
       style="fill:#ebba16" /><circle
       id="circle25"
       r="1"
       cy="16.011999"
       cx="46.002998"
       style="fill:#ebba16" /><circle
       id="circle27"
       r="1"
       cy="16.011999"
       cx="50.002998"
       style="fill:#ebba16" /></g><g
     id="g29" /><g
     id="g31" /><g
     id="g33" /><g
     id="g35" /><g
     id="g37" /><g
     id="g39" /><g
     id="g41" /><g
     id="g43" /><g
     id="g45" /><g
     id="g47" /><g
     id="g49" /><g
     id="g51" /><g
     id="g53" /><g
     id="g55" /><g
     id="g57" /></svg>