<?xml version="1.0" encoding="UTF-8" standalone="no"?>
<!-- Generator: Adobe Illustrator 19.0.0, SVG Export Plug-In . SVG Version: 6.00 Build 0)  -->

<svg
   xmlns:dc="http://purl.org/dc/elements/1.1/"
   xmlns:cc="http://creativecommons.org/ns#"
   xmlns:rdf="http://www.w3.org/1999/02/22-rdf-syntax-ns#"
   xmlns:svg="http://www.w3.org/2000/svg"
   xmlns="http://www.w3.org/2000/svg"
   xmlns:sodipodi="http://sodipodi.sourceforge.net/DTD/sodipodi-0.dtd"
   xmlns:inkscape="http://www.inkscape.org/namespaces/inkscape"
   version="1.1"
   id="Capa_1"
   x="0px"
   y="0px"
   viewBox="0 0 58 58"
   style="enable-background:new 0 0 58 58;"
   xml:space="preserve"
   inkscape:version="0.91 r13725"
   sodipodi:docname="applications-engineering.svg"><metadata
     id="metadata57"><rdf:RDF><cc:Work
         rdf:about=""><dc:format>image/svg+xml</dc:format><dc:type
           rdf:resource="http://purl.org/dc/dcmitype/StillImage" /><dc:title></dc:title></cc:Work></rdf:RDF></metadata><defs
     id="defs55" /><sodipodi:namedview
     pagecolor="#ffffff"
     bordercolor="#666666"
     borderopacity="1"
     objecttolerance="10"
     gridtolerance="10"
     guidetolerance="10"
     inkscape:pageopacity="0"
     inkscape:pageshadow="2"
     inkscape:window-width="1280"
     inkscape:window-height="694"
     id="namedview53"
     showgrid="false"
     inkscape:zoom="4.0689655"
     inkscape:cx="-51.118644"
     inkscape:cy="29"
     inkscape:window-x="0"
     inkscape:window-y="0"
     inkscape:window-maximized="1"
     inkscape:current-layer="Capa_1" /><circle
     style="fill:#502d16"
     cx="29"
     cy="29"
     r="6"
     id="circle3" /><path
     style="fill:#a05a2c"
     d="M55.151,0H2.849C1.276,0,0,1.276,0,2.849v52.301C0,56.724,1.276,58,2.849,58h52.301  C56.724,58,58,56.724,58,55.151V2.849C58,1.276,56.724,0,55.151,0z M6,3c1.657,0,3,1.343,3,3S7.657,9,6,9S3,7.657,3,6S4.343,3,6,3z   M6,55c-1.657,0-3-1.343-3-3s1.343-3,3-3s3,1.343,3,3S7.657,55,6,55z M52,55c-1.657,0-3-1.343-3-3s1.343-3,3-3s3,1.343,3,3  S53.657,55,52,55z M29,55C14.641,55,3,43.359,3,29S14.641,3,29,3s26,11.641,26,26S43.359,55,29,55z M52,9c-1.657,0-3-1.343-3-3  s1.343-3,3-3s3,1.343,3,3S53.657,9,52,9z"
     id="path5" /><path
     style="fill:#d38d5f"
     d="M31.109,23.389c1.414,0.532,2.572,1.579,3.246,2.917c6.019-3.618,8.741-9.887,8.123-19.543  c-3.893-2.365-8.457-3.733-13.339-3.759C30.771,6.304,37.5,13.25,31.109,23.389z"
     id="path7" /><path
     style="fill:#d38d5f"
     d="M26.891,34.615c-1.414-0.532-2.572-1.579-3.246-2.917c-6.019,3.618-8.741,9.887-8.123,19.543  c3.893,2.365,8.457,3.733,13.339,3.759C27.229,51.7,20.5,44.754,26.891,34.615z"
     id="path9" /><path
     style="fill:#d38d5f"
     d="M31.478,34.462c-1.376,0.624-2.935,0.702-4.358,0.233c-1.698,6.815,0.811,13.172,8.076,19.563  c4.425-1.081,8.62-3.341,12.09-6.774C43.798,46.304,34.128,46.15,31.478,34.462z"
     id="path11" /><path
     style="fill:#d38d5f"
     d="M26.522,23.541c1.376-0.624,2.935-0.702,4.358-0.233c1.698-6.815-0.811-13.172-8.076-19.563  c-4.425,1.081-8.62,3.341-12.09,6.774C14.202,11.7,23.872,11.853,26.522,23.541z"
     id="path13" /><path
     style="fill:#d38d5f"
     d="M34.613,31.111c-0.532,1.414-1.579,2.572-2.917,3.246c3.618,6.019,9.887,8.741,19.543,8.123  c2.365-3.893,3.733-8.457,3.759-13.339C51.698,30.772,44.752,37.502,34.613,31.111z"
     id="path15" /><path
     style="fill:#d38d5f"
     d="M23.387,26.893c0.532-1.414,1.579-2.572,2.917-3.246c-3.618-6.019-9.887-8.741-19.543-8.123  c-2.365,3.893-3.733,8.457-3.759,13.339C6.302,27.231,13.248,20.502,23.387,26.893z"
     id="path17" /><path
     style="fill:#d38d5f"
     d="M34.461,26.524c0.624,1.376,0.702,2.935,0.233,4.358c6.815,1.698,13.172-0.811,19.563-8.076  c-1.081-4.425-3.341-8.62-6.774-12.09C46.302,14.204,46.149,23.874,34.461,26.524z"
     id="path19" /><path
     style="fill:#d38d5f"
     d="M23.539,31.479c-0.624-1.376-0.702-2.935-0.233-4.358c-6.815-1.698-13.172,0.811-19.563,8.076  c1.081,4.425,3.341,8.62,6.774,12.09C11.698,43.8,11.851,34.13,23.539,31.479z"
     id="path21" /><g
     id="g23" /><g
     id="g25" /><g
     id="g27" /><g
     id="g29" /><g
     id="g31" /><g
     id="g33" /><g
     id="g35" /><g
     id="g37" /><g
     id="g39" /><g
     id="g41" /><g
     id="g43" /><g
     id="g45" /><g
     id="g47" /><g
     id="g49" /><g
     id="g51" /></svg>