<?xml version="1.0" encoding="UTF-8" standalone="no"?>
<svg
   xmlns:dc="http://purl.org/dc/elements/1.1/"
   xmlns:cc="http://creativecommons.org/ns#"
   xmlns:rdf="http://www.w3.org/1999/02/22-rdf-syntax-ns#"
   xmlns:svg="http://www.w3.org/2000/svg"
   xmlns="http://www.w3.org/2000/svg"
   xmlns:sodipodi="http://sodipodi.sourceforge.net/DTD/sodipodi-0.dtd"
   xmlns:inkscape="http://www.inkscape.org/namespaces/inkscape"
   viewBox="0 0 48 48"
   id="svg2"
   version="1.1"
   inkscape:version="0.91 r13725"
   sodipodi:docname="applications-education-mathematics.svg">
  <metadata
     id="metadata32">
    <rdf:RDF>
      <cc:Work
         rdf:about="">
        <dc:format>image/svg+xml</dc:format>
        <dc:type
           rdf:resource="http://purl.org/dc/dcmitype/StillImage" />
        <dc:title></dc:title>
      </cc:Work>
    </rdf:RDF>
  </metadata>
  <sodipodi:namedview
     pagecolor="#ffffff"
     bordercolor="#666666"
     borderopacity="1"
     objecttolerance="10"
     gridtolerance="10"
     guidetolerance="10"
     inkscape:pageopacity="0"
     inkscape:pageshadow="2"
     inkscape:window-width="1280"
     inkscape:window-height="694"
     id="namedview30"
     showgrid="false"
     inkscape:zoom="4.9166667"
     inkscape:cx="-42.305085"
     inkscape:cy="24"
     inkscape:window-x="0"
     inkscape:window-y="0"
     inkscape:window-maximized="1"
     inkscape:current-layer="svg2" />
  <defs
     id="defs4">
    <linearGradient
       y1="545.8"
       x2="0"
       y2="517.8"
       gradientUnits="userSpaceOnUse"
       id="linearGradient6">
      <stop
         stop-color="#3889e9"
         id="stop8" />
      <stop
         offset="1"
         stop-color="#5ea5fb"
         id="stop10" />
    </linearGradient>
    <linearGradient
       id="0"
       gradientUnits="userSpaceOnUse"
       x1="400.51"
       y1="546.07"
       x2="400.7"
       y2="517.77"
       gradientTransform="matrix(1.71429,0,0,1.71429,-662.7,-887.66)">
      <stop
         stop-color="#2e3e46"
         id="stop13" />
      <stop
         offset="1"
         stop-color="#435a64"
         id="stop15" />
    </linearGradient>
    <linearGradient
       id="1"
       x1="41.16"
       y1="89.36"
       x2="54.04"
       y2="20.836"
       gradientUnits="userSpaceOnUse">
      <stop
         stop-color="#e3e3e3"
         id="stop18" />
      <stop
         offset="1"
         stop-color="#fffcff"
         id="stop20" />
    </linearGradient>
  </defs>
  <circle
     style="fill:#5ea5fb;fill-opacity:0"
     id="circle26"
     r="24.000059"
     cy="23.999401"
     cx="23.993158" />
  <path
     style="opacity:0.9;fill:#999999;fill-opacity:0.85500004"
     inkscape:connector-curvature="0"
     id="path28"
     d="m 37.071739,38.630735 c -6.81089,-5.578742 -2.004131,-28.526266 -2.004131,-28.526266 0,0 7.455493,0 8.324307,0 0.868814,0 4.274767,-0.5722323 4.274767,-4.8469017 0,-5.25579519 -4.162154,-4.93284564 -4.162154,-4.93284564 0,0 -22.815408,0 -30.650529,0 -5.0309679,0 -9.5717293,6.03407444 -12.17817273,10.34984534 -1.38755329,2.30495 -0.60281972,2.950847 1.77992343,1.864564 8.3528433,-3.8316166 10.7060273,-2.451743 10.7060273,-2.451743 0.588552,2.950846 0.784736,16.266485 -1.359018,21.522812 -2.1722893,4.947791 -6.1810621,11.215136 -0.29453,14.901022 4.596306,2.730389 9.417332,-2.877714 8.940885,-12.420454 -0.22421,-5.050281 -0.602819,-23.9879 -0.602819,-23.9879 l 7.679192,0 c -0.238987,2.950846 -1.538895,18.013077 -0.181906,26.940881 1.41507,14.901024 16.871803,12.008896 19.759528,3.568451 0.714413,-2.334306 0.546765,-4.125738 0.01377,-5.476787 -0.981428,-2.509927 -2.621219,-2.641774 -2.438284,-1.467949 0.112615,0.748388 0.04229,1.482363 -0.07032,2.145877 -0.336825,2.040717 -4.316552,5.240312 -7.540081,2.818996" />
</svg>
