<?xml version="1.0" encoding="UTF-8" standalone="no"?>
<!-- Generator: Adobe Illustrator 19.0.0, SVG Export Plug-In . SVG Version: 6.00 Build 0)  -->

<svg
   xmlns:dc="http://purl.org/dc/elements/1.1/"
   xmlns:cc="http://creativecommons.org/ns#"
   xmlns:rdf="http://www.w3.org/1999/02/22-rdf-syntax-ns#"
   xmlns:svg="http://www.w3.org/2000/svg"
   xmlns="http://www.w3.org/2000/svg"
   xmlns:sodipodi="http://sodipodi.sourceforge.net/DTD/sodipodi-0.dtd"
   xmlns:inkscape="http://www.inkscape.org/namespaces/inkscape"
   version="1.1"
   id="Capa_1"
   x="0px"
   y="0px"
   viewBox="0 0 58 58"
   style="enable-background:new 0 0 58 58;"
   xml:space="preserve"
   inkscape:version="0.91 r13725"
   sodipodi:docname="preferences-desktop-theme.svg"><metadata
     id="metadata57"><rdf:RDF><cc:Work
         rdf:about=""><dc:format>image/svg+xml</dc:format><dc:type
           rdf:resource="http://purl.org/dc/dcmitype/StillImage" /><dc:title></dc:title></cc:Work></rdf:RDF></metadata><defs
     id="defs55" /><sodipodi:namedview
     pagecolor="#ffffff"
     bordercolor="#666666"
     borderopacity="1"
     objecttolerance="10"
     gridtolerance="10"
     guidetolerance="10"
     inkscape:pageopacity="0"
     inkscape:pageshadow="2"
     inkscape:window-width="1280"
     inkscape:window-height="694"
     id="namedview53"
     showgrid="false"
     inkscape:zoom="4.0689655"
     inkscape:cx="-11.059322"
     inkscape:cy="29"
     inkscape:window-x="0"
     inkscape:window-y="0"
     inkscape:window-maximized="1"
     inkscape:current-layer="Capa_1" /><path
     style="fill:#AFB6BB;"
     d="M39.774,55H18.226c-0.224,0-0.311-0.307-0.124-0.437l1.805-1.273c1.947-1.373,2.868-3.891,2.3-6.29v0  h13.588l0,0.002c-0.568,2.4,0.354,4.917,2.302,6.29l1.803,1.271C40.085,54.694,39.997,55,39.774,55z"
     id="path3" /><path
     style="fill:#E7ECED;"
     d="M54.502,47H3.498C1.566,47,0,45.434,0,43.502V3.498C0,1.566,1.566,0,3.498,0h51.003  C56.434,0,58,1.566,58,3.498v40.003C58,45.434,56.434,47,54.502,47z"
     id="path5" /><path
     style="fill:#E7ECED;"
     d="M38.403,58H19.597C18.163,58,17,56.837,17,55.403v0C17,55.181,17.181,55,17.403,55h23.194  C40.819,55,41,55.181,41,55.403v0C41,56.837,39.837,58,38.403,58z"
     id="path7" /><path
     style="fill:#366DB6;"
     d="M54.502,0H3.498C1.566,0,0,1.566,0,3.498V39h58V3.498C58,1.566,56.434,0,54.502,0z"
     id="path9" /><path
     style="fill:#EBBA16;"
     d="M20.962,32h-2.924C17.465,32,17,31.535,17,30.962v-2.924C17,27.465,17.465,27,18.038,27h2.924  C21.535,27,22,27.465,22,28.038v2.924C22,31.535,21.535,32,20.962,32z"
     id="path11" /><path
     style="fill:#DD352E;"
     d="M29.962,32h-2.924C26.465,32,26,31.535,26,30.962v-2.924C26,27.465,26.465,27,27.038,27h2.924  C30.535,27,31,27.465,31,28.038v2.924C31,31.535,30.535,32,29.962,32z"
     id="path13" /><path
     style="fill:#DC691D;"
     d="M38.962,32h-2.924C35.465,32,35,31.535,35,30.962v-2.924C35,27.465,35.465,27,36.038,27h2.924  C39.535,27,40,27.465,40,28.038v2.924C40,31.535,39.535,32,38.962,32z"
     id="path15" /><path
     style="fill:#A4E869;"
     d="M47.962,32h-2.924C44.465,32,44,31.535,44,30.962v-2.924C44,27.465,44.465,27,45.038,27h2.924  C48.535,27,49,27.465,49,28.038v2.924C49,31.535,48.535,32,47.962,32z"
     id="path17" /><path
     style="fill:#D75E72;"
     d="M11.962,32H9.038C8.465,32,8,31.535,8,30.962v-2.924C8,27.465,8.465,27,9.038,27h2.924  C12.535,27,13,27.465,13,28.038v2.924C13,31.535,12.535,32,11.962,32z"
     id="path19" /><path
     d="M41.707,18.293L39.414,16H40c0.552,0,1-0.448,1-1s-0.448-1-1-1h-3c-0.552,0-1,0.448-1,1v3c0,0.552,0.448,1,1,1s1-0.448,1-1  v-0.586l2.293,2.293C40.488,19.902,40.744,20,41,20s0.512-0.098,0.707-0.293C42.098,19.316,42.098,18.684,41.707,18.293z"
     id="path21" /><g
     id="g23" /><g
     id="g25" /><g
     id="g27" /><g
     id="g29" /><g
     id="g31" /><g
     id="g33" /><g
     id="g35" /><g
     id="g37" /><g
     id="g39" /><g
     id="g41" /><g
     id="g43" /><g
     id="g45" /><g
     id="g47" /><g
     id="g49" /><g
     id="g51" /></svg>