<?xml version="1.0" encoding="UTF-8" standalone="no"?>
<svg
   xmlns:dc="http://purl.org/dc/elements/1.1/"
   xmlns:cc="http://creativecommons.org/ns#"
   xmlns:rdf="http://www.w3.org/1999/02/22-rdf-syntax-ns#"
   xmlns:svg="http://www.w3.org/2000/svg"
   xmlns="http://www.w3.org/2000/svg"
   xmlns:sodipodi="http://sodipodi.sourceforge.net/DTD/sodipodi-0.dtd"
   xmlns:inkscape="http://www.inkscape.org/namespaces/inkscape"
   viewBox="0 0 48 48"
   id="svg2"
   version="1.1"
   inkscape:version="0.91 r13725"
   sodipodi:docname="applications-office.svg">
  <metadata
     id="metadata28">
    <rdf:RDF>
      <cc:Work
         rdf:about="">
        <dc:format>image/svg+xml</dc:format>
        <dc:type
           rdf:resource="http://purl.org/dc/dcmitype/StillImage" />
        <dc:title></dc:title>
      </cc:Work>
    </rdf:RDF>
  </metadata>
  <sodipodi:namedview
     pagecolor="#ffffff"
     bordercolor="#666666"
     borderopacity="1"
     objecttolerance="10"
     gridtolerance="10"
     guidetolerance="10"
     inkscape:pageopacity="0"
     inkscape:pageshadow="2"
     inkscape:window-width="1280"
     inkscape:window-height="694"
     id="namedview26"
     showgrid="false"
     inkscape:zoom="4.9166667"
     inkscape:cx="-47.398267"
     inkscape:cy="24"
     inkscape:window-x="0"
     inkscape:window-y="0"
     inkscape:window-maximized="1"
     inkscape:current-layer="svg2" />
  <defs
     id="defs4">
    <linearGradient
       gradientUnits="userSpaceOnUse"
       y2="528.82"
       x2="451.76"
       y1="556.82"
       x1="452.11"
       id="0"
       gradientTransform="matrix(1.6177487,0,0,1.6177487,-701.00341,-854.19938)">
      <stop
         stop-color="#42a603"
         id="stop7" />
      <stop
         offset="1"
         stop-color="#78da06"
         id="stop9" />
    </linearGradient>
    <linearGradient
       gradientUnits="userSpaceOnUse"
       y2="528.79"
       x2="451.34"
       y1="556.79"
       x1="451.69"
       id="1"
       gradientTransform="matrix(1.6177487,0,0,1.6177487,-711.9611,-854.14223)">
      <stop
         stop-color="#197cf1"
         id="stop12" />
      <stop
         offset="1"
         stop-color="#21c9fb"
         id="stop14" />
    </linearGradient>
  </defs>
  <path
     d="M 23.66809,4.736364 6.0162135,27.086307 C 2.7073285,31.275469 3.6330085,38.74094 7.8675746,42.013931 12.105504,45.28692 19.648955,44.37075 22.961208,40.181589 L 40.613085,17.831646 42.817887,15.036657 C 45.026054,12.241669 44.406689,7.2657962 41.582524,5.0849092 38.75836,2.9007008 33.726025,3.5148021 31.521223,6.3064711 l -2.208167,2.7949883 -13.238907,16.7632856 -2.20817,2.794988 c -1.104083,1.397493 -0.794399,3.88377 0.616001,4.975873 1.413764,1.092104 3.928248,0.786714 5.03233,-0.610779 l 15.447076,-19.554956 2.824167,2.184207 -15.447075,19.554954 c -2.20817,2.794988 -7.237135,3.405769 -10.0613,1.221562 -2.8241672,-2.184205 -3.4435301,-7.16008 -1.235363,-9.951747 L 13.249981,23.683858 28.697058,4.1289033 c 3.308885,-4.18916192 10.855703,-5.10533395 15.093633,-1.832344 4.237931,3.2729899 5.16361,10.7384637 1.854725,14.9276247 L 43.437249,20.01917 25.785374,42.369114 C 21.372405,47.955768 11.311105,49.17733 5.662773,44.812238 0.01444119,40.447144 -1.2209211,30.495394 3.1920482,24.90542 L 20.843925,2.5554771 23.66809,4.7396831"
     id="path24"
     inkscape:connector-curvature="0"
     style="fill:#ff2a7f;fill-opacity:1" />
  <path
     d="M 34.863786,27.709231 25.51764,38.098686 c -1.751957,1.947348 -1.261837,5.417701 0.98024,6.939163 2.243859,1.521461 6.237893,1.095576 7.991634,-0.851772 l 9.346146,-10.389455 1.167378,-1.299261 c 1.169159,-1.299261 0.841223,-3.612314 -0.654089,-4.626108 -1.49531,-1.015337 -4.159783,-0.72987 -5.327161,0.567848 l -1.169159,1.299261 -7.00961,7.792477 -1.169161,1.29926 c -0.584579,0.64963 -0.42061,1.805385 0.326155,2.313054 0.748546,0.507668 2.079891,0.365707 2.66447,-0.283923 l 8.17877,-9.090195 1.495313,1.015336 -8.178769,9.090195 c -1.169161,1.29926 -3.83185,1.583184 -5.327162,0.567847 -1.495313,-1.015335 -1.823247,-3.32839 -0.654088,-4.626107 l 1.169158,-1.299261 8.178771,-9.090195 c 1.751957,-1.947348 5.747774,-2.373234 7.991633,-0.851772 2.243859,1.521462 2.733979,4.991816 0.982022,6.939163 l -1.169159,1.29926 -9.346147,10.389456 c -2.336536,2.596977 -7.663696,3.164825 -10.654321,1.135695 -2.990625,-2.02913 -3.644713,-6.655239 -1.308176,-9.253759 l 9.346146,-10.389456 1.495312,1.015337"
     id="path24-4"
     inkscape:connector-curvature="0"
     style="fill:#aa0044;fill-opacity:1" />
</svg>
