<?xml version="1.0" encoding="UTF-8" standalone="no"?>
<svg
   xmlns:dc="http://purl.org/dc/elements/1.1/"
   xmlns:cc="http://creativecommons.org/ns#"
   xmlns:rdf="http://www.w3.org/1999/02/22-rdf-syntax-ns#"
   xmlns:svg="http://www.w3.org/2000/svg"
   xmlns="http://www.w3.org/2000/svg"
   xmlns:sodipodi="http://sodipodi.sourceforge.net/DTD/sodipodi-0.dtd"
   xmlns:inkscape="http://www.inkscape.org/namespaces/inkscape"
   viewBox="0 0 48 48"
   id="svg2"
   version="1.1"
   inkscape:version="0.91 r13725"
   sodipodi:docname="applications-accessories.svg">
  <metadata
     id="metadata32">
    <rdf:RDF>
      <cc:Work
         rdf:about="">
        <dc:format>image/svg+xml</dc:format>
        <dc:type
           rdf:resource="http://purl.org/dc/dcmitype/StillImage" />
        <dc:title></dc:title>
      </cc:Work>
    </rdf:RDF>
  </metadata>
  <sodipodi:namedview
     pagecolor="#ffffff"
     bordercolor="#666666"
     borderopacity="1"
     objecttolerance="10"
     gridtolerance="10"
     guidetolerance="10"
     inkscape:pageopacity="0"
     inkscape:pageshadow="2"
     inkscape:window-width="1280"
     inkscape:window-height="694"
     id="namedview30"
     showgrid="false"
     inkscape:zoom="4.9166667"
     inkscape:cx="-9.1525424"
     inkscape:cy="24"
     inkscape:window-x="0"
     inkscape:window-y="0"
     inkscape:window-maximized="1"
     inkscape:current-layer="svg2" />
  <defs
     id="defs4">
    <linearGradient
       y1="545.8"
       x2="0"
       y2="517.8"
       gradientUnits="userSpaceOnUse"
       id="linearGradient6">
      <stop
         stop-color="#3889e9"
         id="stop8" />
      <stop
         offset="1"
         stop-color="#5ea5fb"
         id="stop10" />
    </linearGradient>
    <linearGradient
       id="0"
       gradientUnits="userSpaceOnUse"
       y1="546.07"
       x2="0"
       y2="518.33"
       gradientTransform="matrix(1.71429,0,0,1.71429,-662.7,-887.66)">
      <stop
         stop-color="#ff9300"
         id="stop13" />
      <stop
         offset="1"
         stop-color="#ffd702"
         id="stop15" />
    </linearGradient>
    <linearGradient
       id="1"
       y1="98.87"
       x2="0"
       y2="-4.869"
       gradientUnits="userSpaceOnUse"
       gradientTransform="matrix(0.5285165,0,0,0.52625474,0.28487975,0.4755154)">
      <stop
         stop-color="#e3e3e3"
         id="stop18" />
      <stop
         offset="1"
         stop-color="#fffcff"
         id="stop20" />
    </linearGradient>
  </defs>
  <circle
     style="fill:#5ea5fb;fill-opacity:0"
     id="circle26"
     r="24.000059"
     cy="23.999401"
     cx="23.993158" />
  <path
     inkscape:connector-curvature="0"
     style="fill:#ffdd55"
     id="path28"
     d="M 42.872739,5.4344143 C 38.445356,1.026505 32.88642,-0.58593978 31.116419,1.1770132 L 23.99096,8.2719794 C 22.910143,9.3481696 21.967798,12.950383 22.400124,16.596278 L 0.83400958,38.070628 c -1.27901099,1.273536 -0.2425899,4.370546 2.31542952,6.917092 2.5580207,2.547599 5.668341,3.579059 6.9473489,2.306575 L 31.662905,25.820471 c 3.662619,0.430474 7.279258,-0.50889 8.360073,-1.584028 l 7.12546,-7.094966 C 48.918969,15.377997 47.300122,9.8433752 42.872739,5.4349392 M 19.15662,26.895083 c -0.984627,-0.980413 -0.663819,-2.885982 0.71244,-4.257401 1.376785,-1.370369 3.292127,-1.689804 4.275699,-0.709392 0.982511,0.978833 0.663815,2.885981 -0.712441,4.256875 -1.377314,1.370894 -3.293187,1.68875 -4.275698,0.709918 z M 36.995107,11.287945 C 33.565035,7.8730782 32.704083,3.367811 33.008508,3.0625844 c 0.305481,-0.304175 4.652529,0.7309664 8.083659,4.1458347 3.429015,3.4159179 4.458565,7.7538369 4.163124,8.0485399 -0.295441,0.294176 -4.831168,-0.553095 -8.260184,-3.969014" />
</svg>
