<?xml version="1.0" encoding="UTF-8" standalone="no"?>
<svg
   xmlns:dc="http://purl.org/dc/elements/1.1/"
   xmlns:cc="http://creativecommons.org/ns#"
   xmlns:rdf="http://www.w3.org/1999/02/22-rdf-syntax-ns#"
   xmlns:svg="http://www.w3.org/2000/svg"
   xmlns="http://www.w3.org/2000/svg"
   xmlns:sodipodi="http://sodipodi.sourceforge.net/DTD/sodipodi-0.dtd"
   xmlns:inkscape="http://www.inkscape.org/namespaces/inkscape"
   viewBox="0 0 48 48"
   id="svg2"
   version="1.1"
   inkscape:version="0.91 r13725"
   sodipodi:docname="adobe-air.svg">
  <metadata
     id="metadata19">
    <rdf:RDF>
      <cc:Work
         rdf:about="">
        <dc:format>image/svg+xml</dc:format>
        <dc:type
           rdf:resource="http://purl.org/dc/dcmitype/StillImage" />
        <dc:title></dc:title>
      </cc:Work>
    </rdf:RDF>
  </metadata>
  <sodipodi:namedview
     pagecolor="#ffffff"
     bordercolor="#666666"
     borderopacity="1"
     objecttolerance="10"
     gridtolerance="10"
     guidetolerance="10"
     inkscape:pageopacity="0"
     inkscape:pageshadow="2"
     inkscape:window-width="1280"
     inkscape:window-height="694"
     id="namedview17"
     showgrid="false"
     inkscape:zoom="4.9166667"
     inkscape:cx="-45.661017"
     inkscape:cy="24"
     inkscape:window-x="0"
     inkscape:window-y="0"
     inkscape:window-maximized="1"
     inkscape:current-layer="svg2" />
  <defs
     id="defs4">
    <linearGradient
       id="0"
       gradientUnits="userSpaceOnUse"
       y1="47.37"
       x2="0"
       y2="-1.429"
       gradientTransform="matrix(0.99999,0,0,0.99999,-58.3698,0.88225)">
      <stop
         stop-color="#c52828"
         id="stop7" />
      <stop
         offset="1"
         stop-color="#ff5454"
         id="stop9" />
    </linearGradient>
  </defs>
  <path
     style="fill:#c83737;fill-opacity:0.84600004"
     inkscape:connector-curvature="0"
     id="path15"
     d="m 45.967214,33.24225 c -0.139777,-0.185909 -0.359666,-0.449561 -0.608535,-0.701381 -2.584145,-2.62976 -4.513731,-5.734429 -5.553526,-9.173736 -0.04772,-0.160558 -0.09546,-0.319424 -0.138072,-0.479981 -0.04432,-0.162248 -0.08353,-0.326185 -0.124436,-0.490122 -0.831836,-3.491697 -0.731265,-7.140573 0.1858,-10.696493 0,0 0.139776,-0.586456 0.175571,-0.829827 C 40.674486,6.3767976 37.884088,1.958938 33.35672,0.75391338 28.740714,-0.4730821 24.010502,2.0941437 22.501949,6.5204538 c -0.06307,0.163939 -0.18921,0.5830755 -0.190914,0.5881457 -0.992065,3.4866285 -2.715398,6.6538305 -5.147834,9.2447185 -2.766537,2.87989 -6.283086,4.92657 -10.225783,5.974418 -4.8035086,1.276009 -7.65697727,6.180611 -6.37001871,10.944936 1.28866281,4.764323 6.22683501,7.593513 11.03375371,6.315814 3.586439,-0.90757 7.264924,-1.010666 10.786587,-0.185908 0.163642,0.03887 0.328985,0.0845 0.492626,0.125061 0.163642,0.04226 0.327279,0.08957 0.489214,0.135207 3.467118,1.032638 6.600138,2.944112 9.249056,5.507958 0.325576,0.322804 0.606832,0.550966 0.869337,0.735184 3.559164,2.690601 8.62518,2.484412 11.870703,-0.735184 3.294953,-3.261848 3.485867,-8.421649 0.610239,-11.931937 m -21.825456,1.614021 c -4.702938,-1.248964 -7.493338,-6.043712 -6.233651,-10.708321 1.261388,-4.662923 6.09558,-7.431266 10.796814,-6.1823 4.704645,1.250656 7.495043,6.043712 6.233654,10.706633 -1.259685,4.66292 -6.093876,7.432955 -10.796817,6.182299" />
</svg>
