<?xml version="1.0" encoding="UTF-8" standalone="no"?>
<svg
   xmlns:dc="http://purl.org/dc/elements/1.1/"
   xmlns:cc="http://creativecommons.org/ns#"
   xmlns:rdf="http://www.w3.org/1999/02/22-rdf-syntax-ns#"
   xmlns:svg="http://www.w3.org/2000/svg"
   xmlns="http://www.w3.org/2000/svg"
   xmlns:sodipodi="http://sodipodi.sourceforge.net/DTD/sodipodi-0.dtd"
   xmlns:inkscape="http://www.inkscape.org/namespaces/inkscape"
   viewBox="0 0 48 48"
   id="svg2"
   version="1.1"
   inkscape:version="0.91 r13725"
   sodipodi:docname="applications-development.svg">
  <metadata
     id="metadata37">
    <rdf:RDF>
      <cc:Work
         rdf:about="">
        <dc:format>image/svg+xml</dc:format>
        <dc:type
           rdf:resource="http://purl.org/dc/dcmitype/StillImage" />
        <dc:title></dc:title>
      </cc:Work>
    </rdf:RDF>
  </metadata>
  <sodipodi:namedview
     pagecolor="#ffffff"
     bordercolor="#666666"
     borderopacity="1"
     objecttolerance="10"
     gridtolerance="10"
     guidetolerance="10"
     inkscape:pageopacity="0"
     inkscape:pageshadow="2"
     inkscape:window-width="1280"
     inkscape:window-height="694"
     id="namedview35"
     showgrid="false"
     inkscape:zoom="4.9166667"
     inkscape:cx="-14.076572"
     inkscape:cy="24"
     inkscape:window-x="0"
     inkscape:window-y="0"
     inkscape:window-maximized="1"
     inkscape:current-layer="svg2" />
  <defs
     id="defs4">
    <linearGradient
       id="2"
       gradientUnits="userSpaceOnUse"
       y1="542.2"
       x2="0"
       y2="526.2"
       gradientTransform="matrix(2.8651695,0,0,2.9878659,-1157.8264,-1573.0039)">
      <stop
         stop-color="#e3e3e3"
         id="stop7" />
      <stop
         offset="1"
         stop-color="#fffcff"
         id="stop9" />
    </linearGradient>
    <linearGradient
       id="1"
       y1="542.2"
       x2="0"
       y2="526.2"
       gradientUnits="userSpaceOnUse">
      <stop
         stop-color="#d0d0d0"
         id="stop12" />
      <stop
         offset="1"
         stop-color="#f1eeee"
         id="stop14" />
    </linearGradient>
    <linearGradient
       y1="545.8"
       x2="0"
       y2="517.8"
       gradientUnits="userSpaceOnUse"
       id="linearGradient16">
      <stop
         stop-color="#3889e9"
         id="stop18" />
      <stop
         offset="1"
         stop-color="#5ea5fb"
         id="stop20" />
    </linearGradient>
    <linearGradient
       id="0"
       gradientUnits="userSpaceOnUse"
       y1="544.8"
       x2="0"
       y2="517.8"
       gradientTransform="matrix(1.71429,0,0,1.71429,-662.70395,-887.66342)">
      <stop
         stop-color="#0973d9"
         id="stop23" />
      <stop
         offset="1"
         stop-color="#0cbffe"
         id="stop25" />
    </linearGradient>
  </defs>
  <circle
     style="fill:#5ea5fb;fill-opacity:0"
     id="circle31"
     r="24.000059"
     cy="23.995981"
     cx="23.989208" />
  <g
     id="g3"
     transform="matrix(0.09972037,0,0,0.10303207,0.33844963,-0.54898906)"
     style="fill:#80b3ff">
    <g
       id="g5"
       style="fill:#80b3ff">
      <g
         id="g7"
         style="fill:#80b3ff">
        <path
           d="m 141.116,231.886 -30.889,30.868 31.58,31.493 30.889,-30.846 c 12.899,8.758 27.654,14.884 43.53,17.925 l 0,43.767 44.565,0 0,-43.767 c 15.855,-3.041 30.609,-9.168 43.53,-17.925 l 30.868,30.846 31.601,-31.493 -30.911,-30.911 c 8.715,-12.899 14.841,-27.632 17.904,-43.487 l 43.81,0 0,-44.565 -43.832,0 c -3.085,-15.898 -9.189,-30.652 -17.947,-43.53 L 366.746,69.307 335.145,37.857 304.299,68.746 C 291.357,60.01 276.645,53.905 260.748,50.799 l 0,-43.789 -44.565,0 0,43.789 c -15.855,3.106 -30.631,9.189 -43.53,17.947 l -30.846,-30.889 -31.58,31.493 30.889,30.954 c -8.693,12.878 -14.841,27.589 -17.904,43.53 l -43.724,0 0,44.587 43.724,0 c 3.063,15.811 9.211,30.544 17.904,43.465 z m 97.392,-114.433 c 26.877,0 48.556,21.786 48.556,48.664 0,26.878 -21.7,48.556 -48.556,48.556 -26.856,0 -48.664,-21.679 -48.664,-48.556 0,-26.877 21.809,-48.664 48.664,-48.664 z"
           id="path9"
           inkscape:connector-curvature="0"
           style="fill:#80b3ff" />
        <path
           d="m 405.142,328.739 -92.366,0 c -32.507,0 -59.665,22.541 -67.15,52.741 l -16.674,0 c -7.507,-30.199 -34.643,-52.741 -67.15,-52.741 l -92.387,0 C 31.127,328.739 0,359.865 0,398.132 c 0,38.267 31.127,69.415 69.415,69.415 l 92.366,0 c 33.003,0 60.592,-23.21 67.603,-54.121 l 15.79,0 c 7.01,30.911 34.6,54.121 67.603,54.121 l 92.366,0 c 38.267,0 69.415,-31.105 69.415,-69.415 0,-38.31 -31.127,-69.393 -69.416,-69.393 z m -243.361,106.365 -92.366,0 c -20.363,0 -36.972,-16.588 -36.972,-36.951 0,-20.363 16.61,-36.951 36.972,-36.951 l 92.366,0 c 14.366,0 26.683,8.305 32.809,20.277 l -36.239,0 c -10.181,0 -18.421,7.161 -18.421,15.962 0,8.822 8.24,15.984 18.421,15.984 l 36.994,0 c -5.846,12.77 -18.659,21.679 -33.564,21.679 z m 243.361,0 -92.366,0 c -14.905,0 -27.718,-8.909 -33.586,-21.657 l 37.015,0 c 10.203,0 18.421,-7.162 18.421,-15.984 0,-8.822 -8.262,-15.962 -18.421,-15.962 l -36.26,0 c 6.105,-11.993 18.421,-20.277 32.809,-20.277 l 92.366,0 c 20.341,0 36.972,16.588 36.972,36.951 0,20.363 -16.565,36.929 -36.95,36.929 z"
           id="path11"
           inkscape:connector-curvature="0"
           style="fill:#80b3ff" />
      </g>
    </g>
    <g
       id="g13"
       style="fill:#80b3ff" />
    <g
       id="g15"
       style="fill:#80b3ff" />
    <g
       id="g17"
       style="fill:#80b3ff" />
    <g
       id="g19"
       style="fill:#80b3ff" />
    <g
       id="g21"
       style="fill:#80b3ff" />
    <g
       id="g23"
       style="fill:#80b3ff" />
    <g
       id="g25"
       style="fill:#80b3ff" />
    <g
       id="g27"
       style="fill:#80b3ff" />
    <g
       id="g29"
       style="fill:#80b3ff" />
    <g
       id="g31"
       style="fill:#80b3ff" />
    <g
       id="g33"
       style="fill:#80b3ff" />
    <g
       id="g35"
       style="fill:#80b3ff" />
    <g
       id="g37"
       style="fill:#80b3ff" />
    <g
       id="g39"
       style="fill:#80b3ff" />
    <g
       id="g41"
       style="fill:#80b3ff" />
  </g>
</svg>
