<?xml version="1.0" encoding="UTF-8" standalone="no"?>
<svg
   xmlns:dc="http://purl.org/dc/elements/1.1/"
   xmlns:cc="http://creativecommons.org/ns#"
   xmlns:rdf="http://www.w3.org/1999/02/22-rdf-syntax-ns#"
   xmlns:svg="http://www.w3.org/2000/svg"
   xmlns="http://www.w3.org/2000/svg"
   xmlns:sodipodi="http://sodipodi.sourceforge.net/DTD/sodipodi-0.dtd"
   xmlns:inkscape="http://www.inkscape.org/namespaces/inkscape"
   viewBox="0 0 48 48"
   id="svg2"
   version="1.1"
   inkscape:version="0.91 r13725"
   sodipodi:docname="device-notifier.svg">
  <metadata
     id="metadata19">
    <rdf:RDF>
      <cc:Work
         rdf:about="">
        <dc:format>image/svg+xml</dc:format>
        <dc:type
           rdf:resource="http://purl.org/dc/dcmitype/StillImage" />
        <dc:title></dc:title>
      </cc:Work>
    </rdf:RDF>
  </metadata>
  <sodipodi:namedview
     pagecolor="#ffffff"
     bordercolor="#666666"
     borderopacity="1"
     objecttolerance="10"
     gridtolerance="10"
     guidetolerance="10"
     inkscape:pageopacity="0"
     inkscape:pageshadow="2"
     inkscape:window-width="1280"
     inkscape:window-height="694"
     id="namedview17"
     showgrid="false"
     inkscape:zoom="4.9166667"
     inkscape:cx="-9.1525424"
     inkscape:cy="24"
     inkscape:window-x="0"
     inkscape:window-y="0"
     inkscape:window-maximized="1"
     inkscape:current-layer="svg2" />
  <defs
     id="defs4">
    <linearGradient
       id="0"
       gradientUnits="userSpaceOnUse"
       y1="-2.471"
       x2="0"
       y2="-51.27"
       gradientTransform="matrix(0.99999,0,0,0.99999,-53.37,50.722)">
      <stop
         stop-color="#0a80fd"
         id="stop7" />
      <stop
         offset="1"
         stop-color="#56c5fa"
         id="stop9" />
    </linearGradient>
  </defs>
  <path
     style="fill:#00aad4;fill-opacity:0.847"
     inkscape:connector-curvature="0"
     id="path15"
     d="m 15.129358,20.090824 c 0.03209,-2.608754 -3.293302,-4.817074 -7.3176826,-4.868983 -4.198558,-0.05636 -7.62707421,2.1312 -7.62707421,4.831905 0,2.146031 2.17490881,3.943536 5.15881801,4.575331 l 0,1.839032 c 0,1.130113 0.8181678,2.193489 2.2138674,2.871261 L 21.93597,36.349934 c -3.68978,0.688154 -6.387216,2.890542 -6.387216,5.500779 0,3.163431 3.960213,5.72621 8.8486,5.72621 4.888384,0 8.848595,-2.562779 8.848595,-5.72621 0,-2.633967 -2.75473,-4.852669 -6.499514,-5.520058 l 0,-2.700706 13.205289,-5.932359 c 1.491955,-0.673323 2.388043,-1.776741 2.388043,-2.952831 l 0,-2.542015 1.507998,0 c 2.19095,0 3.967086,-1.150878 3.967086,-2.567229 l 0,-4.170448 c 0,-1.417833 -1.778428,-2.567227 -3.967086,-2.567227 l -7.633949,0 c -2.19095,0 -3.967087,1.150877 -3.967087,2.567227 l 0,4.170448 c 0,1.417835 1.778429,2.567229 3.967087,2.567229 l 1.507997,0 0,2.86088 -10.975378,4.929788 0,-18.811507 3.879999,0 c 2.777648,0 4.491907,-1.9665774 3.054955,-3.5075065 L 27.793785,1.362369 C 26.262867,-0.28089419 22.586837,-0.29127577 21.023838,1.337157 l -6.048029,6.3164785 c -1.475914,1.5409306 0.238345,3.5282695 3.03891,3.5282695 l 4.118344,0 0,21.522596 -12.1648132,-5.926426 0,-2.141582 C 12.936116,24.01063 15.101856,22.223507 15.127066,20.096756" />
</svg>
