<?xml version="1.0" encoding="UTF-8" standalone="no"?>
<svg
   xmlns:dc="http://purl.org/dc/elements/1.1/"
   xmlns:cc="http://creativecommons.org/ns#"
   xmlns:rdf="http://www.w3.org/1999/02/22-rdf-syntax-ns#"
   xmlns:svg="http://www.w3.org/2000/svg"
   xmlns="http://www.w3.org/2000/svg"
   xmlns:sodipodi="http://sodipodi.sourceforge.net/DTD/sodipodi-0.dtd"
   xmlns:inkscape="http://www.inkscape.org/namespaces/inkscape"
   viewBox="0 0 48 48"
   id="svg2"
   version="1.1"
   inkscape:version="0.91 r13725"
   sodipodi:docname="extensions.svg">
  <metadata
     id="metadata17">
    <rdf:RDF>
      <cc:Work
         rdf:about="">
        <dc:format>image/svg+xml</dc:format>
        <dc:type
           rdf:resource="http://purl.org/dc/dcmitype/StillImage" />
        <dc:title></dc:title>
      </cc:Work>
    </rdf:RDF>
  </metadata>
  <sodipodi:namedview
     pagecolor="#ffffff"
     bordercolor="#666666"
     borderopacity="1"
     objecttolerance="10"
     gridtolerance="10"
     guidetolerance="10"
     inkscape:pageopacity="0"
     inkscape:pageshadow="2"
     inkscape:window-width="1280"
     inkscape:window-height="694"
     id="namedview15"
     showgrid="false"
     inkscape:zoom="4.9166667"
     inkscape:cx="24"
     inkscape:cy="24"
     inkscape:window-x="0"
     inkscape:window-y="0"
     inkscape:window-maximized="1"
     inkscape:current-layer="svg2" />
  <defs
     id="defs4">
    <linearGradient
       gradientTransform="matrix(.49433 0 0 .4778 86.64 13.1)"
       gradientUnits="userSpaceOnUse"
       y2="-26.05"
       x2="-125.19"
       y1="73.5"
       x1="-123.97"
       id="0">
      <stop
         stop-color="#2fae61"
         id="stop7" />
      <stop
         offset="1"
         stop-color="#4bdf88"
         id="stop9" />
    </linearGradient>
  </defs>
  <path
     d="m 46.842227,22.789477 -6.947196,-7.009476 c -0.661268,-0.667046 -0.455886,-1.37961 0.455886,-1.585216 0,0 0.753066,-0.171078 1.681952,-1.108082 1.991582,-2.008985 1.990026,-5.268878 0,-7.2747245 -1.993138,-2.0089856 -5.221678,-2.0089856 -7.213258,0 -0.928886,0.9354338 -1.096926,1.6950816 -1.096926,1.6950816 -0.205382,0.9213082 -0.913328,1.1284848 -1.574594,0.4598693 L 25.200895,0.96216162 c -0.661268,-0.667046 -1.74419,-0.667046 -2.405458,0 l -6.94564,7.00633728 c -0.65971,0.6686155 -0.455884,1.3827471 0.455886,1.5899238 0,0 0.754622,0.1710776 1.681952,1.1049423 1.990026,2.008986 1.991582,5.267308 0,7.277864 -1.99158,2.008986 -5.223232,2.007416 -7.213258,0 C 9.847047,17.004225 9.6774511,16.244577 9.6774511,16.244577 9.4736252,15.323269 8.7641248,15.117663 8.1028571,15.784709 l -6.9456397,7.007906 c -0.66126726,0.667046 -0.66126726,1.757862 0,2.42334 l 6.9456397,7.007906 c 0.6612677,0.667046 0.4558858,1.381178 -0.4558845,1.588354 0,0 -0.7530675,0.171078 -1.6819535,1.108082 -1.9915818,2.008985 -1.9915818,5.267308 0,7.274724 1.9915817,2.007416 5.2216779,2.008986 7.2132599,0 0.928886,-0.935434 1.096924,-1.695081 1.096924,-1.695081 0.205382,-0.921309 0.913328,-1.128485 1.574594,-0.459869 l 6.947196,7.004768 c 0.661268,0.667046 1.74419,0.667046 2.405458,0 l 6.948752,-7.006338 c 0.661266,-0.667046 0.455884,-1.382747 -0.455886,-1.588354 0,0 -0.754622,-0.171078 -1.681952,-1.104942 -1.993138,-2.008986 -1.991582,-5.26731 0,-7.277864 1.99158,-2.008986 5.221676,-2.010556 7.213258,0 0.92733,0.935434 1.09537,1.69665 1.09537,1.69665 0.205382,0.921309 0.913326,1.128486 1.574594,0.46301 l 6.947196,-7.009478 c 0.661266,-0.667046 0.661266,-1.757862 0,-2.423338"
     id="path13"
     style="fill:#5fd38d;fill-opacity:0.85100002"
     inkscape:connector-curvature="0" />
</svg>
