<?xml version="1.0" encoding="UTF-8" standalone="no"?>
<svg
   xmlns:dc="http://purl.org/dc/elements/1.1/"
   xmlns:cc="http://creativecommons.org/ns#"
   xmlns:rdf="http://www.w3.org/1999/02/22-rdf-syntax-ns#"
   xmlns:svg="http://www.w3.org/2000/svg"
   xmlns="http://www.w3.org/2000/svg"
   xmlns:sodipodi="http://sodipodi.sourceforge.net/DTD/sodipodi-0.dtd"
   xmlns:inkscape="http://www.inkscape.org/namespaces/inkscape"
   viewBox="0 0 48 48"
   id="svg2"
   version="1.1"
   inkscape:version="0.91 r13725"
   sodipodi:docname="filebot.svg">
  <metadata
     id="metadata19">
    <rdf:RDF>
      <cc:Work
         rdf:about="">
        <dc:format>image/svg+xml</dc:format>
        <dc:type
           rdf:resource="http://purl.org/dc/dcmitype/StillImage" />
        <dc:title></dc:title>
      </cc:Work>
    </rdf:RDF>
  </metadata>
  <sodipodi:namedview
     pagecolor="#ffffff"
     bordercolor="#666666"
     borderopacity="1"
     objecttolerance="10"
     gridtolerance="10"
     guidetolerance="10"
     inkscape:pageopacity="0"
     inkscape:pageshadow="2"
     inkscape:window-width="1280"
     inkscape:window-height="694"
     id="namedview17"
     showgrid="false"
     inkscape:zoom="4.9166667"
     inkscape:cx="-42.305085"
     inkscape:cy="24"
     inkscape:window-x="0"
     inkscape:window-y="0"
     inkscape:window-maximized="1"
     inkscape:current-layer="svg2" />
  <defs
     id="defs4">
    <linearGradient
       y2="145.15"
       x2="25.934"
       y1="265.58"
       x1="25.843"
       gradientUnits="userSpaceOnUse"
       id="0"
       gradientTransform="matrix(0.43552564,-3.199968e-4,3.299967e-4,0.41516585,13.65648,-62.242119)">
      <stop
         stop-color="#97a9b1"
         id="stop7" />
      <stop
         offset="1"
         stop-color="#cfdce1"
         id="stop9" />
    </linearGradient>
  </defs>
  <path
     style="fill:#808080;fill-opacity:1;fill-rule:evenodd;stroke-width:1.31700003"
     inkscape:connector-curvature="0"
     id="path15"
     d="m 47.599868,21.392638 c -0.07408,-0.662311 -0.849604,-1.15983 -1.519517,-1.15983 -2.167361,0 -4.088825,-1.266554 -4.895871,-3.22524 -0.824387,-2.007337 -0.293185,-4.3474 1.322484,-5.821123 0.507555,-0.46299 0.570606,-1.2367334 0.143441,-1.7750569 C 41.540717,8.0098613 40.281282,6.7433077 38.905204,5.6446865 38.366123,5.2146535 37.574839,5.2742935 37.108265,5.7890781 35.699087,7.3428423 33.167609,7.9204028 31.211467,7.1074227 29.176512,6.2552074 27.891858,4.2007855 28.017958,1.9956955 28.058942,1.303564 27.551384,0.70089182 26.85783,0.6208494 25.092415,0.41681972 23.309661,0.41054182 21.537943,0.60672412 20.852269,0.68205734 20.344712,1.2706052 20.36678,1.9533199 20.444024,4.1364368 19.145176,6.1547624 17.129136,6.9755882 15.196638,7.7618872 12.6825,7.1890352 11.276474,5.6493962 10.811477,5.1424606 10.034378,5.0796816 9.4921436,5.5002962 8.0750835,6.6067648 6.7857009,7.8748878 5.6665537,9.2654284 5.229929,9.8053214 5.2945567,10.590051 5.8084193,11.054611 c 1.6456183,1.48314 2.1768202,3.843605 1.3224843,5.874486 -0.8165036,1.935142 -2.8341202,3.182862 -5.1449205,3.182862 -0.7503016,-0.02354 -1.28307844,0.477117 -1.36504405,1.155122 -0.20806663,1.768781 -0.20964287,3.570519 -0.0110331,5.353424 0.0740852,0.663882 0.87324954,1.158261 1.55104164,1.158261 2.0585989,-0.0518 4.0352332,1.216332 4.8643479,3.226807 0.8259611,2.007339 0.2947605,4.345832 -1.3224843,5.821125 -0.5059807,0.462989 -0.5706072,1.235164 -0.1434423,1.773489 1.0986553,1.393679 2.3596655,2.661801 3.7404714,3.76827 0.5422349,0.434741 1.3303657,0.373531 1.8000927,-0.141252 1.413908,-1.558472 3.945385,-2.134465 5.893645,-1.319916 2.04126,0.850647 3.324338,2.9035 3.198238,5.11016 -0.04098,0.692131 0.469725,1.296371 1.160129,1.374845 0.903198,0.105158 1.812702,0.156948 2.723781,0.156948 0.865369,0 1.730737,-0.04708 2.596106,-0.142822 0.685675,-0.07534 1.19323,-0.663882 1.171163,-1.348166 -0.07882,-2.181548 1.221603,-4.199873 3.23449,-5.0207 1.945109,-0.791007 4.448214,-0.211876 5.855816,1.326194 0.46815,0.506935 1.240519,0.568144 1.784331,0.1491 1.413907,-1.104899 2.700136,-2.371453 3.825587,-3.765132 0.436626,-0.539895 0.375152,-1.324624 -0.141864,-1.789185 -1.645617,-1.483138 -2.179972,-3.845173 -1.32406,-5.872914 0.803892,-1.910032 2.747425,-3.19071 4.83755,-3.19071 l 0.293183,0.0078 c 0.677795,0.05494 1.301994,-0.464559 1.383959,-1.153553 0.208068,-1.770348 0.21122,-3.570519 0.01098,-5.353424 M 24.14508,31.912693 c -4.348909,0 -7.881314,-3.521865 -7.881314,-7.847296 0,-4.330136 3.537135,-7.847294 7.881314,-7.847294 4.348907,0 7.881313,3.521866 7.881313,7.847294 0,4.330139 -3.537134,7.847296 -7.881313,7.847296" />
</svg>
