<?xml version="1.0" encoding="UTF-8" standalone="no"?>
<svg
   xmlns:dc="http://purl.org/dc/elements/1.1/"
   xmlns:cc="http://creativecommons.org/ns#"
   xmlns:rdf="http://www.w3.org/1999/02/22-rdf-syntax-ns#"
   xmlns:svg="http://www.w3.org/2000/svg"
   xmlns="http://www.w3.org/2000/svg"
   xmlns:sodipodi="http://sodipodi.sourceforge.net/DTD/sodipodi-0.dtd"
   xmlns:inkscape="http://www.inkscape.org/namespaces/inkscape"
   viewBox="0 0 48 48"
   id="svg2"
   version="1.1"
   inkscape:version="0.91 r13725"
   sodipodi:docname="fslint.svg">
  <metadata
     id="metadata23">
    <rdf:RDF>
      <cc:Work
         rdf:about="">
        <dc:format>image/svg+xml</dc:format>
        <dc:type
           rdf:resource="http://purl.org/dc/dcmitype/StillImage" />
        <dc:title></dc:title>
      </cc:Work>
    </rdf:RDF>
  </metadata>
  <sodipodi:namedview
     pagecolor="#ffffff"
     bordercolor="#666666"
     borderopacity="1"
     objecttolerance="10"
     gridtolerance="10"
     guidetolerance="10"
     inkscape:pageopacity="0"
     inkscape:pageshadow="2"
     inkscape:window-width="1280"
     inkscape:window-height="694"
     id="namedview21"
     showgrid="false"
     inkscape:zoom="4.9166667"
     inkscape:cx="-9.1525424"
     inkscape:cy="24"
     inkscape:window-x="0"
     inkscape:window-y="0"
     inkscape:window-maximized="1"
     inkscape:current-layer="svg2" />
  <defs
     id="defs4">
    <linearGradient
       gradientUnits="userSpaceOnUse"
       y2="503.8"
       x2="409.57"
       y1="552.8"
       x1="408.57"
       id="linearGradient6">
      <stop
         stop-color="#197cf1"
         id="stop8" />
      <stop
         offset="1"
         stop-color="#59d0ff"
         id="stop10" />
    </linearGradient>
    <linearGradient
       id="0"
       gradientUnits="userSpaceOnUse"
       y1="211.23"
       x2="0"
       y2="157.23">
      <stop
         stop-color="#197ff1"
         id="stop13" />
      <stop
         offset="1"
         stop-color="#21c6fb"
         id="stop15" />
    </linearGradient>
  </defs>
  <path
     d="M 46.973672,6.8114261 42.810304,1.3895235 c -0.570536,-0.74300148 -1.26443,-1.11593658 -2.081683,-1.11593658 -0.817255,0 -1.511149,0.3729351 -2.081684,1.11593658 L 18.565847,27.581042 9.5672441,15.822112 C 8.9967097,15.07911 8.3028144,14.706175 7.4855604,14.706175 c -0.8172523,0 -1.5111474,0.372935 -2.0816836,1.115937 l -4.1633674,5.421902 c -0.57053626,0.743002 -0.85690476,1.646652 -0.85690476,2.710951 0,1.061432 0.2863685,1.967951 0.85690476,2.710953 l 11.0802846,14.429719 4.163369,5.421902 c 0.570535,0.743002 1.264431,1.115937 2.081684,1.115937 0.81505,0 1.508945,-0.372935 2.081683,-1.115937 l 4.163368,-5.421902 22.160571,-28.85944 c 0.570535,-0.743001 0.856905,-1.646651 0.856905,-2.7109508 0,-1.0614307 -0.28637,-1.9650811 -0.856905,-2.7109513"
     id="path19"
     style="fill:#37abc8;fill-opacity:0.85100002"
     inkscape:connector-curvature="0" />
</svg>
