<?xml version="1.0" encoding="UTF-8" standalone="no"?>
<svg
   xmlns:dc="http://purl.org/dc/elements/1.1/"
   xmlns:cc="http://creativecommons.org/ns#"
   xmlns:rdf="http://www.w3.org/1999/02/22-rdf-syntax-ns#"
   xmlns:svg="http://www.w3.org/2000/svg"
   xmlns="http://www.w3.org/2000/svg"
   xmlns:sodipodi="http://sodipodi.sourceforge.net/DTD/sodipodi-0.dtd"
   xmlns:inkscape="http://www.inkscape.org/namespaces/inkscape"
   viewBox="0 0 48 48"
   id="svg2"
   version="1.1"
   inkscape:version="0.91 r13725"
   sodipodi:docname="graphics-viewer-document.svg">
  <metadata
     id="metadata19">
    <rdf:RDF>
      <cc:Work
         rdf:about="">
        <dc:format>image/svg+xml</dc:format>
        <dc:type
           rdf:resource="http://purl.org/dc/dcmitype/StillImage" />
        <dc:title></dc:title>
      </cc:Work>
    </rdf:RDF>
  </metadata>
  <sodipodi:namedview
     pagecolor="#ffffff"
     bordercolor="#666666"
     borderopacity="1"
     objecttolerance="10"
     gridtolerance="10"
     guidetolerance="10"
     inkscape:pageopacity="0"
     inkscape:pageshadow="2"
     inkscape:window-width="1280"
     inkscape:window-height="694"
     id="namedview17"
     showgrid="false"
     inkscape:zoom="4.9166667"
     inkscape:cx="-9.1525424"
     inkscape:cy="24"
     inkscape:window-x="0"
     inkscape:window-y="0"
     inkscape:window-maximized="1"
     inkscape:current-layer="svg2" />
  <defs
     id="defs4">
    <linearGradient
       id="0"
       gradientUnits="userSpaceOnUse"
       y1="47.37"
       x2="0"
       y2="-1.429"
       gradientTransform="matrix(0.99999,0,0,0.99999,-58.3698,0.88225)">
      <stop
         stop-color="#c52828"
         id="stop7" />
      <stop
         offset="1"
         stop-color="#ff5454"
         id="stop9" />
    </linearGradient>
  </defs>
  <path
     style="fill:#ff2a2a;fill-opacity:0.86299995"
     inkscape:connector-curvature="0"
     id="path15"
     d="m 47.089975,29.668018 c -0.950159,-0.959684 -3.056456,-1.469356 -6.26241,-1.511971 -2.17108,-0.03579 -4.782356,0.17046 -7.529844,0.565924 -1.230888,-0.72786 -2.498319,-1.520494 -3.493328,-2.475066 -2.677721,-2.565408 -4.911924,-6.126298 -6.3056,-10.043447 0.09136,-0.366488 0.167773,-0.686951 0.2392,-1.015936 0,0 1.508295,-8.7905724 1.109627,-11.7633789 C 24.792803,3.016747 24.75958,2.8974245 24.651609,2.5803709 L 24.520378,2.2360436 C 24.110084,1.2644274 23.306103,0.23655926 22.045316,0.29281081 l -0.739198,-0.0357967 -0.01993,0 c -1.406965,0 -2.551476,0.73808756 -2.853799,1.84095779 -0.915275,3.4603191 0.02824,8.6354551 1.739191,15.3396101 l -0.438537,1.092642 c -1.224241,3.06315 -2.759114,6.146752 -4.112925,8.868985 l -0.176078,0.354554 c -1.423577,2.860303 -2.715925,5.287639 -3.888674,7.345079 l -1.209293,0.65627 c -0.08804,0.04603 -2.1611133,1.172758 -2.6478203,1.474469 -4.1245529,2.527908 -6.85875199,5.396734 -7.31223644,7.672363 -0.14451861,0.726156 -0.036545,1.656861 0.69766944,2.086418 l 1.1694263,0.603425 c 0.5083018,0.262508 1.0431802,0.393761 1.5913492,0.393761 2.9385153,0 6.3487888,-3.755213 11.0464288,-12.169073 5.425206,-1.811979 11.601239,-3.318836 17.014818,-4.148973 4.124554,2.383019 9.199266,4.038176 12.400239,4.038176 0.5681,0 1.058129,-0.05626 1.456798,-0.163642 0.614614,-0.167052 1.131221,-0.526719 1.446832,-1.014232 0.621259,-0.959685 0.747505,-2.280743 0.57807,-3.634187 -0.04983,-0.400579 -0.362124,-0.89832 -0.700991,-1.237533 z M 3.2099118,45.709919 c 0.53488,-1.503448 2.6561258,-4.47455 5.7923142,-7.11155 0.1976732,-0.163644 0.6827193,-0.630699 1.127898,-1.063666 -3.2790442,5.366052 -5.4750411,7.505312 -6.9185511,8.176921 M 21.782859,1.8252383 c 0.945175,0 1.481716,2.4426771 1.526566,4.7336474 0.04485,2.2909687 -0.476739,3.8966933 -1.124576,5.0864973 -0.53654,-1.7608422 -0.795673,-4.5359142 -0.795673,-6.3513042 0,0 -0.03987,-3.4688405 0.393683,-3.4688405 M 16.243035,33.099359 c 0.657802,-1.208555 1.342181,-2.481884 2.041512,-3.833623 1.704306,-3.30861 2.78237,-5.897884 3.58303,-8.025212 1.594671,2.977919 3.581367,5.509235 5.916897,7.537697 0.290696,0.252281 0.599663,0.507969 0.923581,0.760249 -4.747471,0.964797 -8.852091,2.137556 -12.46502,3.560889 M 46.17636,32.826625 c -0.289034,0.184097 -1.117931,0.294893 -1.65115,0.294893 -1.719255,0 -3.847148,-0.806269 -6.830513,-2.118805 1.146171,-0.08864 2.197658,-0.131256 3.139511,-0.131256 1.72424,0 2.235864,0 3.921898,0.432967 1.686033,0.441489 1.707628,1.338104 1.418592,1.523904 z" />
</svg>
