<?xml version="1.0" encoding="UTF-8" standalone="no"?>
<svg
   xmlns:dc="http://purl.org/dc/elements/1.1/"
   xmlns:cc="http://creativecommons.org/ns#"
   xmlns:rdf="http://www.w3.org/1999/02/22-rdf-syntax-ns#"
   xmlns:svg="http://www.w3.org/2000/svg"
   xmlns="http://www.w3.org/2000/svg"
   xmlns:sodipodi="http://sodipodi.sourceforge.net/DTD/sodipodi-0.dtd"
   xmlns:inkscape="http://www.inkscape.org/namespaces/inkscape"
   viewBox="0 0 48 48"
   id="svg2"
   version="1.1"
   inkscape:version="0.91 r13725"
   sodipodi:docname="kdesvn.svg">
  <metadata
     id="metadata24">
    <rdf:RDF>
      <cc:Work
         rdf:about="">
        <dc:format>image/svg+xml</dc:format>
        <dc:type
           rdf:resource="http://purl.org/dc/dcmitype/StillImage" />
        <dc:title></dc:title>
      </cc:Work>
    </rdf:RDF>
  </metadata>
  <sodipodi:namedview
     pagecolor="#ffffff"
     bordercolor="#666666"
     borderopacity="1"
     objecttolerance="10"
     gridtolerance="10"
     guidetolerance="10"
     inkscape:pageopacity="0"
     inkscape:pageshadow="2"
     inkscape:window-width="1280"
     inkscape:window-height="694"
     id="namedview22"
     showgrid="false"
     inkscape:zoom="4.9166667"
     inkscape:cx="-9.1525424"
     inkscape:cy="24"
     inkscape:window-x="0"
     inkscape:window-y="0"
     inkscape:window-maximized="1"
     inkscape:current-layer="svg2" />
  <defs
     id="defs4">
    <linearGradient
       id="0"
       x1="45.789"
       y1="56.53"
       x2="45.585"
       y2="7.715"
       gradientUnits="userSpaceOnUse"
       gradientTransform="translate(-19.348,-8.325)">
      <stop
         stop-color="#141414"
         id="stop7" />
      <stop
         stop-color="#2d2d2f"
         offset="1"
         id="stop9" />
    </linearGradient>
    <linearGradient
       id="1"
       x1="165.12"
       y1="392.69"
       x2="153.13"
       y2="-75.854"
       gradientUnits="userSpaceOnUse"
       gradientTransform="matrix(0.10191,0,0,0.10191,7.999,7.999)">
      <stop
         stop-color="#4fd127"
         id="stop12" />
      <stop
         offset="1"
         stop-color="#c6f61a"
         id="stop14" />
    </linearGradient>
  </defs>
  <path
     inkscape:connector-curvature="0"
     style="fill:#99ff55"
     id="path20"
     d="m 42.983008,33.763023 0,-7.501695 c 0,-2.609769 -2.125012,-4.725636 -4.745459,-4.725636 l -11.864403,0 0,-7.500641 c 2.763726,-0.974261 4.746064,-3.591555 4.746064,-6.6771688 0,-3.9142022 -3.189031,-7.08800146 -7.118642,-7.08800146 -3.931122,0 -7.118642,3.17379926 -7.118642,7.08800146 0,3.0853128 1.982942,5.7026068 4.745761,6.6771688 l 0,7.500641 -11.864403,0 c -2.6207494,0 -4.7457614,2.115867 -4.7457614,4.725636 l 0,7.501695 c -2.7637262,0.972154 -4.74621516,3.590051 -4.74621516,6.674158 0,3.912697 3.18751946,7.088002 7.11864206,7.088002 3.9311225,0 7.1186415,-3.175305 7.1186415,-7.088002 0,-3.08471 -1.982941,-5.702756 -4.7460634,-6.674158 l 0,-7.501695 11.8644034,0 0,7.501695 c -2.763423,0.972154 -4.745761,3.590051 -4.745761,6.674158 0,3.912697 3.187519,7.088002 7.118642,7.088002 3.929611,0 7.118642,-3.175305 7.118642,-7.088002 0,-3.08471 -1.982942,-5.702756 -4.746064,-6.674158 l 0,-7.501695 11.864403,0 0,7.501695 c -2.763574,0.972154 -4.745912,3.590051 -4.745912,6.674158 0,3.912697 3.187519,7.088002 7.118641,7.088002 3.931125,0 7.118643,-3.175305 7.118643,-7.088002 -3.01e-4,-3.08471 -1.982943,-5.702605 -4.746365,-6.674158" />
</svg>
