<?xml version="1.0" encoding="UTF-8" standalone="no"?>
<svg
   xmlns:dc="http://purl.org/dc/elements/1.1/"
   xmlns:cc="http://creativecommons.org/ns#"
   xmlns:rdf="http://www.w3.org/1999/02/22-rdf-syntax-ns#"
   xmlns:svg="http://www.w3.org/2000/svg"
   xmlns="http://www.w3.org/2000/svg"
   xmlns:sodipodi="http://sodipodi.sourceforge.net/DTD/sodipodi-0.dtd"
   xmlns:inkscape="http://www.inkscape.org/namespaces/inkscape"
   viewBox="0 0 48 48"
   id="svg2"
   version="1.1"
   inkscape:version="0.91 r13725"
   sodipodi:docname="kipi-gpsimagetag.svg">
  <metadata
     id="metadata19">
    <rdf:RDF>
      <cc:Work
         rdf:about="">
        <dc:format>image/svg+xml</dc:format>
        <dc:type
           rdf:resource="http://purl.org/dc/dcmitype/StillImage" />
        <dc:title></dc:title>
      </cc:Work>
    </rdf:RDF>
  </metadata>
  <sodipodi:namedview
     pagecolor="#ffffff"
     bordercolor="#666666"
     borderopacity="1"
     objecttolerance="10"
     gridtolerance="10"
     guidetolerance="10"
     inkscape:pageopacity="0"
     inkscape:pageshadow="2"
     inkscape:window-width="1280"
     inkscape:window-height="694"
     id="namedview17"
     showgrid="false"
     inkscape:zoom="4.9166667"
     inkscape:cx="-9.1525424"
     inkscape:cy="24"
     inkscape:window-x="0"
     inkscape:window-y="0"
     inkscape:window-maximized="1"
     inkscape:current-layer="svg2" />
  <defs
     id="defs4">
    <linearGradient
       id="0"
       gradientUnits="userSpaceOnUse"
       y1="42.475"
       x2="0"
       y2="28.899"
       gradientTransform="matrix(3.15759,0,0,3.15759,-28.461,-89.21)">
      <stop
         stop-color="#c52828"
         id="stop7" />
      <stop
         offset="1"
         stop-color="#ff5454"
         id="stop9" />
    </linearGradient>
  </defs>
  <path
     style="fill:#c83737;fill-opacity:0.903;stroke-width:1.31700003"
     inkscape:connector-curvature="0"
     id="path15"
     d="m 24.243116,0.13966276 c -13.126911,0 -23.76486232,7.47266204 -23.76486232,16.69370224 0,0.70343 0.0798183,1.391566 0.20317521,2.074606 C 2.713233,31.9469 22.704745,46.978877 22.704745,46.978877 c 0.355565,0.280353 0.696616,0.453662 1.030415,0.575997 l 0.01447,5.1e-4 0.667592,0.147822 0.667593,-0.147822 0.01447,-5.1e-4 c 0.333799,-0.127433 0.674851,-0.305838 1.030417,-0.575997 0,0 19.701253,-15.057462 21.682262,-28.101489 0.116099,-0.672846 0.195912,-1.355886 0.195912,-2.04912 C 48.007251,7.6123248 37.370027,0.13456544 24.243116,0.13456544 m 0,27.43374256 c -8.424735,0 -15.2893328,-4.816962 -15.2893328,-10.74004 0,-5.917981 6.8573398,-10.7400409 15.2893328,-10.7400409 8.424733,0 15.282075,4.8169619 15.282075,10.7400409 0,5.917981 -6.857342,10.74004 -15.282075,10.74004" />
</svg>
