<?xml version="1.0" encoding="UTF-8" standalone="no"?>
<svg
   xmlns:dc="http://purl.org/dc/elements/1.1/"
   xmlns:cc="http://creativecommons.org/ns#"
   xmlns:rdf="http://www.w3.org/1999/02/22-rdf-syntax-ns#"
   xmlns:svg="http://www.w3.org/2000/svg"
   xmlns="http://www.w3.org/2000/svg"
   xmlns:sodipodi="http://sodipodi.sourceforge.net/DTD/sodipodi-0.dtd"
   xmlns:inkscape="http://www.inkscape.org/namespaces/inkscape"
   viewBox="0 0 48 48"
   id="svg2"
   version="1.1"
   inkscape:version="0.91 r13725"
   sodipodi:docname="mixxx-icon.svg">
  <metadata
     id="metadata24">
    <rdf:RDF>
      <cc:Work
         rdf:about="">
        <dc:format>image/svg+xml</dc:format>
        <dc:type
           rdf:resource="http://purl.org/dc/dcmitype/StillImage" />
        <dc:title></dc:title>
      </cc:Work>
    </rdf:RDF>
  </metadata>
  <sodipodi:namedview
     pagecolor="#ffffff"
     bordercolor="#666666"
     borderopacity="1"
     objecttolerance="10"
     gridtolerance="10"
     guidetolerance="10"
     inkscape:pageopacity="0"
     inkscape:pageshadow="2"
     inkscape:window-width="1280"
     inkscape:window-height="694"
     id="namedview22"
     showgrid="false"
     inkscape:zoom="4.9166667"
     inkscape:cx="-9.1525424"
     inkscape:cy="24"
     inkscape:window-x="0"
     inkscape:window-y="0"
     inkscape:window-maximized="1"
     inkscape:current-layer="svg2" />
  <defs
     id="defs4">
    <linearGradient
       gradientUnits="userSpaceOnUse"
       y2="545.15"
       x2="0"
       y1="518.08"
       id="0"
       gradientTransform="matrix(1.601284,0,0,1.601284,-617.35421,-827.45947)">
      <stop
         stop-color="#db50c8"
         id="stop7" />
      <stop
         offset="1"
         stop-color="#981fe7"
         id="stop9" />
    </linearGradient>
    <linearGradient
       gradientUnits="userSpaceOnUse"
       y2="518.08"
       x2="402.47"
       y1="545.15"
       x1="403.44"
       id="1"
       gradientTransform="matrix(1.601284,0,0,1.601284,-617.35421,-827.45947)">
      <stop
         stop-color="#981fe7"
         id="stop12" />
      <stop
         offset="1"
         stop-color="#db50c8"
         id="stop14" />
    </linearGradient>
  </defs>
  <path
     style="fill:#cc00ff;fill-opacity:0.84299999"
     inkscape:connector-curvature="0"
     id="path20"
     d="M 0.50834198,0.44317108 1.9121278,5.2918868 14.20017,47.788739 l 3.791926,0 2.292456,0 3.31089,-11.446654 L 20.558494,25.840624 17.242362,37.311828 6.5809279,0.42475806 l -3.7919254,0 -2.28197127,0 m 13.69182777,0 L 10.895833,11.84993 13.93016,22.345254 17.247605,10.874049 27.9169,47.76112 l 3.791926,0 2.291147,0 L 37.302999,36.342085 34.268672,25.840624 30.959092,37.28114 20.29897,0.42475806 l -0.02621,0 -2.281973,0 -3.765711,0 -0.02621,0 m 13.703623,0 -3.296472,11.40062094 3.036949,10.495323 3.309579,-11.440516 10.666676,36.88707 3.791926,0 2.28197,0 -1.403785,-4.848718 -12.288041,-42.49684878 -2.305565,0 -3.791926,0 m 13.716731,0 -3.303025,11.42517178 3.034327,10.495323 4.937499,-17.0717791 1.403785,-4.84871568 -2.28197,0 -3.791926,0 M 6.8483144,25.846761 1.9108157,42.918538 l -1.40378582,4.848718 2.28197122,0 3.7919257,0 L 9.8839525,36.348223 6.8496261,25.846761" />
</svg>
