<?xml version="1.0" encoding="UTF-8" standalone="no"?>
<svg
   xmlns:dc="http://purl.org/dc/elements/1.1/"
   xmlns:cc="http://creativecommons.org/ns#"
   xmlns:rdf="http://www.w3.org/1999/02/22-rdf-syntax-ns#"
   xmlns:svg="http://www.w3.org/2000/svg"
   xmlns="http://www.w3.org/2000/svg"
   xmlns:sodipodi="http://sodipodi.sourceforge.net/DTD/sodipodi-0.dtd"
   xmlns:inkscape="http://www.inkscape.org/namespaces/inkscape"
   viewBox="0 0 48 48"
   id="svg2"
   version="1.1"
   inkscape:version="0.91 r13725"
   sodipodi:docname="openshot.svg">
  <metadata
     id="metadata52">
    <rdf:RDF>
      <cc:Work
         rdf:about="">
        <dc:format>image/svg+xml</dc:format>
        <dc:type
           rdf:resource="http://purl.org/dc/dcmitype/StillImage" />
        <dc:title></dc:title>
      </cc:Work>
    </rdf:RDF>
  </metadata>
  <sodipodi:namedview
     pagecolor="#ffffff"
     bordercolor="#666666"
     borderopacity="1"
     objecttolerance="10"
     gridtolerance="10"
     guidetolerance="10"
     inkscape:pageopacity="0"
     inkscape:pageshadow="2"
     inkscape:window-width="1280"
     inkscape:window-height="694"
     id="namedview50"
     showgrid="false"
     inkscape:zoom="4.9166667"
     inkscape:cx="-9.1525424"
     inkscape:cy="24"
     inkscape:window-x="0"
     inkscape:window-y="0"
     inkscape:window-maximized="1"
     inkscape:current-layer="svg2" />
  <defs
     id="defs4">
    <clipPath
       id="clipPath6">
      <path
         d="m7 1023.36h1v1h-1z"
         id="path8" />
    </clipPath>
    <linearGradient
       id="1"
       x1="-27.06"
       y1="35.944"
       x2="-27.408"
       y2="-1.424"
       gradientUnits="userSpaceOnUse">
      <stop
         stop-color="#e1e1e1"
         id="stop11" />
      <stop
         stop-color="#f4f4ff"
         offset="1"
         id="stop13" />
    </linearGradient>
    <linearGradient
       gradientUnits="userSpaceOnUse"
       y2="-.994"
       x2="-28.22"
       y1="40.29"
       x1="-28.426"
       id="0">
      <stop
         stop-color="#0973d9"
         id="stop16" />
      <stop
         stop-color="#0cbffe"
         offset="1"
         id="stop18" />
    </linearGradient>
    <linearGradient
       x1="0"
       x2="47"
       gradientUnits="userSpaceOnUse"
       id="linearGradient20">
      <stop
         stop-color="#a9a3d4"
         id="stop22" />
      <stop
         offset=".47"
         stop-color="#87baff"
         id="stop24" />
      <stop
         offset="1"
         stop-color="#89ec85"
         id="stop26" />
    </linearGradient>
  </defs>
  <g
     transform="matrix(0.25213584,0,0,0.19844589,-104.90592,-77.613237)"
     id="Calque.__209"
     style="fill:#2c89a0">
    <g
       id="shape14"
       style="fill:#2c89a0">
      <path
         style="fill:#2c89a0;fill-opacity:1"
         inkscape:connector-curvature="0"
         id="path8-5"
         d="m 455.9,395.95 q -7.55,-5.25 -16.6,-4.1 c -6.05,0.75 -11.05,3.4 -15.1,7.95 -4.05,4.55 -6.1,9.9 -6.1,16 l 0,192.5 c 0,6.1 2.05,11.45 6.1,16 4.05,4.55 9.05,7.2 15.1,7.95 6.05,0.75 11.55,-0.65 16.6,-4.1 L 595.55,531.9 c 4.45,-3.05 7.5,-7.15 9.2,-12.2 1.7,-5.1 1.7,-10.2 0,-15.25 -1.7,-5.05 -4.75,-9.15 -9.15,-12.25 L 455.9,395.95 Z" />
    </g>
  </g>
  <g
     style="fill:#00aad4;stroke-width:1.31700003"
     id="g36"
     transform="matrix(0.67353865,0,0,1.2,24.75094,-1200.7218)">
    <path
       inkscape:connector-curvature="0"
       id="path38"
       d="m 17.387,1022.04 c -5.078,0 -9.167,4.088 -9.167,9.167 0,5.078 4.088,9.167 9.167,9.167 5.078,0 9.167,-4.088 9.167,-9.167 0,-5.078 -4.088,-9.167 -9.167,-9.167 m -2.53,5.463 5.842,3.907 -5.842,3.907 0,-7.812"
       style="fill:#00aad4" />
    <path
       inkscape:connector-curvature="0"
       id="path40"
       d="m 33.08,1023.25 -1.779,-0.612 -0.505,-1.826 c -0.027,-0.109 -0.077,-0.17 -0.15,-0.184 -0.073,-0.014 -0.142,0.025 -0.207,0.117 l -1.134,1.518 -1.88,-0.076 c -0.14,0 -0.219,0.04 -0.236,0.13 -0.001,0.051 0.001,0.116 0.058,0.193 l 1.082,1.55 -0.659,1.778 c -0.011,0.034 -0.018,0.058 -0.021,0.072 -0.001,0.051 -0.005,0.098 0.014,0.138 0.019,0.04 0.054,0.065 0.105,0.075 0.044,10e-4 0.095,0 0.154,-0.017 l 1.799,-0.559 1.473,1.175 c 0.046,0.039 0.091,0.063 0.137,0.072 0.049,10e-4 0.089,0 0.121,-0.032 0.032,-0.031 0.053,-0.071 0.063,-0.123 0.006,-0.032 0.009,-0.057 10e-4,-0.074 l 0.032,-1.896 1.568,-1.052 c 0.075,-0.052 0.118,-0.105 0.128,-0.159 0.017,-0.09 -0.04,-0.16 -0.172,-0.207"
       style="fill:#00aad4" />
    <g
       style="fill:#00aad4;stroke-width:1.31700003"
       id="g42">
      <path
         inkscape:connector-curvature="0"
         id="path44"
         d="m 33.975,1029.23 -1.357,-0.467 -0.386,-1.393 c -0.021,-0.083 -0.059,-0.13 -0.115,-0.141 -0.056,-0.011 -0.108,0.019 -0.158,0.089 l -0.866,1.158 -1.434,-0.058 c -0.107,0 -0.167,0.031 -0.18,0.1 -0.007,0.039 0.007,0.089 0.044,0.148 l 0.825,1.183 -0.503,1.357 c -0.009,0.026 -0.014,0.044 -0.016,0.055 -0.007,0.039 -0.004,0.075 10e-4,0.105 0.014,0.031 0.041,0.05 0.08,0.057 0.033,10e-4 0.073,0 0.118,-0.013 l 1.373,-0.427 1.124,0.897 c 0.035,0.03 0.07,0.048 0.105,0.055 0.037,10e-4 0.068,0 0.092,-0.024 0.025,-0.024 0.04,-0.054 0.048,-0.094 0.005,-0.024 0.007,-0.043 0.008,-0.057 l 0.025,-1.446 1.196,-0.802 c 0.057,-0.04 0.09,-0.08 0.098,-0.121 0.013,-0.069 -0.031,-0.122 -0.132,-0.158"
         style="fill:#00aad4" />
      <path
         inkscape:connector-curvature="0"
         id="path46"
         d="m 6.498,1036.71 -1.1,-0.178 -0.479,-1.014 c -0.027,-0.061 -0.063,-0.091 -0.106,-0.092 -0.044,0 -0.08,0.03 -0.109,0.089 l -0.509,1 -1.105,0.145 c -0.082,0.014 -0.123,0.045 -0.125,0.1 -10e-5,0.031 0.017,0.067 0.053,0.107 l 0.788,0.795 -0.205,1.104 c -0.003,0.021 -0.005,0.035 -0.005,0.045 -1e-4,0.031 0.007,0.057 0.022,0.08 0.015,0.022 0.038,0.033 0.068,0.034 0.026,10e-4 0.055,-10e-4 0.088,-0.026 l 0.994,-0.508 0.978,0.537 c 0.03,0.021 0.058,0.031 0.087,0.03 0.032,0 0.052,-10e-4 0.067,-0.031 0.016,-0.021 0.024,-0.047 0.024,-0.078 0,-0.019 0,-0.034 -1e-4,-0.045 l -0.173,-1.109 0.809,-0.772 c 0.039,-0.038 0.058,-0.073 0.059,-0.105 10e-5,-0.054 -0.04,-0.09 -0.121,-0.104"
         style="fill:#00aad4" />
      <path
         inkscape:connector-curvature="0"
         id="path48"
         d="m 4.35,1029.84 -1.731,0.737 -1.598,-1.017 c -0.093,-0.063 -0.172,-0.075 -0.235,-0.036 -0.063,0.038 -0.089,0.114 -0.075,0.226 l 0.174,1.887 -1.446,1.203 c -0.104,0.094 -0.136,0.176 -0.088,0.255 0.027,0.044 0.085,0.08 0.173,0.105 l 1.842,0.426 0.702,1.761 c 0.014,0.033 0.025,0.055 0.033,0.068 0.027,0.044 0.062,0.076 0.102,0.093 0.041,0.017 0.083,0.012 0.128,-0.014 0.039,-0.022 0.071,-0.064 0.103,-0.116 l 0.961,-1.621 1.881,-0.114 c 0.06,0 0.11,-0.014 0.15,-0.039 0.043,-0.025 0.066,-0.06 0.069,-0.105 0.003,-0.044 -0.008,-0.088 -0.036,-0.133 -0.017,-0.028 -0.031,-0.049 -0.042,-0.062 l -1.246,-1.429 0.459,-1.831 c 0.021,-0.089 0.017,-0.157 -0.011,-0.204 -0.048,-0.078 -0.137,-0.092 -0.267,-0.038"
         style="fill:#00aad4" />
    </g>
  </g>
</svg>
