<?xml version="1.0" encoding="UTF-8" standalone="no"?>
<svg
   xmlns:dc="http://purl.org/dc/elements/1.1/"
   xmlns:cc="http://creativecommons.org/ns#"
   xmlns:rdf="http://www.w3.org/1999/02/22-rdf-syntax-ns#"
   xmlns:svg="http://www.w3.org/2000/svg"
   xmlns="http://www.w3.org/2000/svg"
   xmlns:xlink="http://www.w3.org/1999/xlink"
   xmlns:sodipodi="http://sodipodi.sourceforge.net/DTD/sodipodi-0.dtd"
   xmlns:inkscape="http://www.inkscape.org/namespaces/inkscape"
   viewBox="0 0 48 48"
   id="svg2"
   version="1.1"
   inkscape:version="0.91 r13725"
   sodipodi:docname="qbittorrent.svg">
  <metadata
     id="metadata34">
    <rdf:RDF>
      <cc:Work
         rdf:about="">
        <dc:format>image/svg+xml</dc:format>
        <dc:type
           rdf:resource="http://purl.org/dc/dcmitype/StillImage" />
        <dc:title></dc:title>
      </cc:Work>
    </rdf:RDF>
  </metadata>
  <sodipodi:namedview
     pagecolor="#ffffff"
     bordercolor="#666666"
     borderopacity="1"
     objecttolerance="10"
     gridtolerance="10"
     guidetolerance="10"
     inkscape:pageopacity="0"
     inkscape:pageshadow="2"
     inkscape:window-width="1280"
     inkscape:window-height="694"
     id="namedview32"
     showgrid="false"
     inkscape:zoom="4.9166667"
     inkscape:cx="-9.1525424"
     inkscape:cy="24"
     inkscape:window-x="0"
     inkscape:window-y="0"
     inkscape:window-maximized="1"
     inkscape:current-layer="svg2" />
  <defs
     id="defs4">
    <linearGradient
       xlink:href="#2"
       id="3"
       x1="409.24"
       y1="547.86"
       x2="409.62"
       y2="499.95"
       gradientUnits="userSpaceOnUse"
       gradientTransform="matrix(0.98188,0,0,0.98188,-377.83,-490.56)" />
    <linearGradient
       id="2">
      <stop
         stop-color="#183b69"
         id="stop8" />
      <stop
         offset="1"
         stop-color="#245aa1"
         id="stop10" />
    </linearGradient>
    <linearGradient
       id="0"
       gradientUnits="userSpaceOnUse"
       y1="542.2"
       x2="0"
       y2="526.2">
      <stop
         stop-color="#d0d0d0"
         id="stop13" />
      <stop
         offset="1"
         stop-color="#f1eeee"
         id="stop15" />
    </linearGradient>
    <linearGradient
       xlink:href="#2"
       id="1"
       gradientUnits="userSpaceOnUse"
       x1="409.24"
       y1="548.5"
       x2="409.63"
       y2="499.31"
       gradientTransform="matrix(0.98188,0,0,0.98188,-377.83,-490.56)" />
  </defs>
  <g
     style="fill:#0044aa;fill-opacity:0.85199998"
     id="g22"
     transform="matrix(1.474155,0,0,1.3719264,-605.36419,-683.42511)">
    <path
       inkscape:connector-curvature="0"
       id="path24"
       d="m 416.51,503.96 c -3.645,3.655 -5.648,8.53 -5.638,13.736 0.015,10.859 8.147,15.806 18.13,15.3 l 0.12,-0.108 c -8.846,0 -14.861,-6.321 -14.876,-15.202 -0.005,-4.301 1.642,-8.328 4.652,-11.342 3.02,-3.03 7.082,-4.702 11.423,-4.702 l 0,-3.376 c -5.246,0 -10.147,2.023 -13.812,5.694"
       style="fill:#0044aa" />
    <path
       inkscape:connector-curvature="0"
       id="path26"
       d="m 426.59,503.35 c -3.884,1.047 -7.087,3.482 -9.02,6.858 -4.057,7.092 -1.901,15.749 5.124,20.584 5.4,4.743 14.714,0.678 16.839,-1.084 -0.178,0.046 -5.752,4.602 -14.923,-1.697 -5.546,-3.813 -7.275,-10.594 -4.108,-16.13 1.484,-2.588 3.955,-4.463 6.965,-5.272 3.086,-0.834 6.278,-0.427 8.993,1.139 l 1.688,-2.928 c -3.498,-2.02 -7.605,-2.542 -11.56,-1.474"
       style="fill:#0044aa" />
    <path
       inkscape:connector-curvature="0"
       id="path28"
       d="m 425.7,508.97 c -3.37,1.947 -5.257,5.49 -5.257,9.13 0,1.688 0.422,3.391 1.271,4.967 l -10e-4,10e-4 c 0,0.005 0.031,0.056 0.041,0.076 l -0.005,0 c 0,0 0.02,0.03 0.036,0.056 0.02,0.041 0.071,0.132 0.076,0.137 0.529,0.91 2.567,3.975 7.04,5.602 5.416,1.977 7.239,1.828 9.769,1.376 2.753,-1.573 4.228,-2.975 4.228,-2.975 -2.897,0.314 -7,0.556 -12.842,-1.573 -3.518,-1.281 -4.987,-3.62 -5.257,-4.103 0,0 -10e-4,-0.015 -10e-4,-0.02 -0.646,-1.123 -0.956,-2.349 -0.956,-3.559 0,-2.471 1.281,-4.875 3.569,-6.202 1.652,-0.951 3.579,-1.205 5.424,-0.712 1.84,0.493 3.381,1.678 4.336,3.33 l 2.979,-1.586 -0.056,-0.102 c -1.403,-2.435 -3.67,-4.174 -6.385,-4.906 -2.715,-0.727 -5.551,-0.351 -7.986,1.052"
       style="fill:#0044aa" />
  </g>
</svg>
