<?xml version="1.0" encoding="UTF-8" standalone="no"?>
<svg
   xmlns:dc="http://purl.org/dc/elements/1.1/"
   xmlns:cc="http://creativecommons.org/ns#"
   xmlns:rdf="http://www.w3.org/1999/02/22-rdf-syntax-ns#"
   xmlns:svg="http://www.w3.org/2000/svg"
   xmlns="http://www.w3.org/2000/svg"
   xmlns:sodipodi="http://sodipodi.sourceforge.net/DTD/sodipodi-0.dtd"
   xmlns:inkscape="http://www.inkscape.org/namespaces/inkscape"
   viewBox="0 0 48 48"
   id="svg2"
   version="1.1"
   inkscape:version="0.91 r13725"
   sodipodi:docname="qmkvextractor.svg">
  <metadata
     id="metadata21">
    <rdf:RDF>
      <cc:Work
         rdf:about="">
        <dc:format>image/svg+xml</dc:format>
        <dc:type
           rdf:resource="http://purl.org/dc/dcmitype/StillImage" />
        <dc:title></dc:title>
      </cc:Work>
    </rdf:RDF>
  </metadata>
  <sodipodi:namedview
     pagecolor="#ffffff"
     bordercolor="#666666"
     borderopacity="1"
     objecttolerance="10"
     gridtolerance="10"
     guidetolerance="10"
     inkscape:pageopacity="0"
     inkscape:pageshadow="2"
     inkscape:window-width="1280"
     inkscape:window-height="694"
     id="namedview19"
     showgrid="false"
     inkscape:zoom="4.9166667"
     inkscape:cx="-9.1525424"
     inkscape:cy="24"
     inkscape:window-x="0"
     inkscape:window-y="0"
     inkscape:window-maximized="1"
     inkscape:current-layer="svg2" />
  <defs
     id="defs4">
    <linearGradient
       id="0"
       y1="546.93"
       x2="0"
       y2="516.48"
       gradientUnits="userSpaceOnUse">
      <stop
         stop-color="#197cf1"
         id="stop7" />
      <stop
         offset="1"
         stop-color="#20bcfa"
         id="stop9" />
    </linearGradient>
  </defs>
  <path
     style="fill:#37abc8;fill-opacity:0.85500004"
     inkscape:connector-curvature="0"
     id="path17"
     d="m 1.5347041,22.854513 c 1.6304855,1.288987 4.284075,1.292887 5.9220302,0.0097 L 24.027963,8.5800637 40.522025,22.920782 c 1.635465,1.288989 4.284075,1.292888 5.92203,0.0097 1.642933,-1.283135 1.647912,-3.363848 0.0124,-4.648936 L 27.271472,1.6007776 C 26.387773,0.90460746 25.207848,0.59844778 24.050326,0.65304924 22.892803,0.59454803 21.71039,0.89680596 20.8242,1.589077 L 1.5471087,18.205513 c -1.63795515,1.283138 -1.6429336,3.363848 -0.012402,4.648936 M 23.988137,36.738856 c -3.811109,-0.0059 -6.905301,2.41027 -6.915258,5.399708 -0.0075,2.989438 3.074277,5.415308 6.885386,5.421159 3.811109,0.0059 6.905301,-2.410271 6.915258,-5.399708 0.0075,-2.989439 -3.074277,-5.415309 -6.885386,-5.421159 m 0.04233,-15.462003 c -3.811112,-0.0059 -6.905303,2.410271 -6.915261,5.399708 -0.0075,2.989437 3.07428,5.415309 6.885388,5.421158 3.811108,0.0059 6.905302,-2.41027 6.915259,-5.399708 0.0075,-2.989436 -3.074278,-5.415308 -6.885386,-5.421158" />
</svg>
