<?xml version="1.0" encoding="UTF-8" standalone="no"?>
<svg
   xmlns:dc="http://purl.org/dc/elements/1.1/"
   xmlns:cc="http://creativecommons.org/ns#"
   xmlns:rdf="http://www.w3.org/1999/02/22-rdf-syntax-ns#"
   xmlns:svg="http://www.w3.org/2000/svg"
   xmlns="http://www.w3.org/2000/svg"
   xmlns:sodipodi="http://sodipodi.sourceforge.net/DTD/sodipodi-0.dtd"
   xmlns:inkscape="http://www.inkscape.org/namespaces/inkscape"
   viewBox="0 0 48 48"
   id="svg2"
   version="1.1"
   inkscape:version="0.91 r13725"
   sodipodi:docname="qv4l2.svg">
  <metadata
     id="metadata19">
    <rdf:RDF>
      <cc:Work
         rdf:about="">
        <dc:format>image/svg+xml</dc:format>
        <dc:type
           rdf:resource="http://purl.org/dc/dcmitype/StillImage" />
        <dc:title></dc:title>
      </cc:Work>
    </rdf:RDF>
  </metadata>
  <sodipodi:namedview
     pagecolor="#ffffff"
     bordercolor="#666666"
     borderopacity="1"
     objecttolerance="10"
     gridtolerance="10"
     guidetolerance="10"
     inkscape:pageopacity="0"
     inkscape:pageshadow="2"
     inkscape:window-width="1280"
     inkscape:window-height="694"
     id="namedview17"
     showgrid="false"
     inkscape:zoom="4.9166667"
     inkscape:cx="-9.1525424"
     inkscape:cy="24"
     inkscape:window-x="0"
     inkscape:window-y="0"
     inkscape:window-maximized="1"
     inkscape:current-layer="svg2" />
  <defs
     id="defs4">
    <linearGradient
       id="0"
       gradientUnits="userSpaceOnUse"
       y1="47.37"
       x2="0"
       y2="-1.429"
       gradientTransform="matrix(0.99999,0,0,0.99999,-58.3698,0.88225)">
      <stop
         stop-color="#c52828"
         id="stop7" />
      <stop
         offset="1"
         stop-color="#ff5454"
         id="stop9" />
    </linearGradient>
  </defs>
  <path
     style="fill:#c83737;fill-opacity:0.84600004"
     inkscape:connector-curvature="0"
     id="path15"
     d="m 46.654756,0.21052883 -2.438527,0 c -0.578841,0 -1.048895,0.45604615 -1.048895,1.01764347 l 0,1.2645847 c 0,0.5615954 -0.470051,1.0176436 -1.048892,1.0176436 l -2.272264,0 c -0.578844,0 -1.048895,-0.4560482 -1.048895,-1.0176436 l 0,-1.2645847 c 0,-0.56159732 -0.470053,-1.01764347 -1.048895,-1.01764347 l -27.367739,0 c -0.5788407,0 -1.0488947,0.45604615 -1.0488947,1.01764347 l 0,1.2645847 c 0,0.5615954 -0.4700513,1.0176436 -1.0488949,1.0176436 l -2.272263,0 c -0.5788422,0 -1.0488935,-0.4560482 -1.0488935,-1.0176436 l 0,-1.2645847 c 0,-0.56159732 -0.4700526,-1.01764347 -1.0488949,-1.01764347 l -2.3564221,0 c -0.57884227,0 -1.0488949,0.45604615 -1.0488949,1.01764347 l 0,45.7620837 c 0,0.561595 0.47005263,1.017643 1.0488949,1.017643 l 2.3564221,0 c 0.5788423,0 1.0488949,-0.456048 1.0488949,-1.017643 l 0,-0.930019 c 0,-0.561597 0.4700513,-1.017643 1.0488935,-1.017643 l 2.272263,0 c 0.5788436,0 1.0488949,0.456046 1.0488949,1.017643 l 0,0.930019 c 0,0.561595 0.470054,1.017643 1.0488947,1.017643 l 27.367739,0 c 0.578842,0 1.048895,-0.456048 1.048895,-1.017643 l 0,-0.930019 c 0,-0.561597 0.470051,-1.017643 1.048895,-1.017643 l 2.272264,0 c 0.578841,0 1.048892,0.456046 1.048892,1.017643 l 0,0.930019 c 0,0.561595 0.470054,1.017643 1.048895,1.017643 l 2.438527,0 c 0.578844,0 1.048895,-0.456048 1.048895,-1.017643 l 0,-45.7620837 c 0,-0.56159732 -0.470051,-1.01764347 -1.048895,-1.01764347 M 9.3379119,39.125924 c 0,0.561596 -0.4700526,1.017643 -1.0488949,1.017643 l -2.2722629,0 c -0.5788423,0 -1.0488949,-0.456047 -1.0488949,-1.017643 l 0,-2.204562 c 0,-0.561597 0.4700526,-1.017642 1.0488949,-1.017642 l 2.2722629,0 c 0.5788423,0 1.0488949,0.456045 1.0488949,1.017642 l 0,2.204562 m 0,-9.136884 c 0,0.561595 -0.4700526,1.017644 -1.0488949,1.017644 l -2.2722629,0 c -0.5788423,0 -1.0488949,-0.456049 -1.0488949,-1.017644 l 0,-2.204562 c 0,-0.561595 0.4700526,-1.017643 1.0488949,-1.017643 l 2.2722629,0 c 0.5788423,0 1.0488949,0.456048 1.0488949,1.017643 l 0,2.204562 m 0,-9.138874 c 0,0.561595 -0.4700526,1.017643 -1.0488949,1.017643 l -2.2722629,0 c -0.5788423,0 -1.0488949,-0.456048 -1.0488949,-1.017643 l 0,-2.204562 c 0,-0.561595 0.4700526,-1.017643 1.0488949,-1.017643 l 2.2722629,0 c 0.5788423,0 1.0488949,0.456048 1.0488949,1.017643 l 0,2.204562 m 0,-9.136883 c 0,0.561595 -0.4700526,1.017643 -1.0488949,1.017643 l -2.2722629,0 c -0.5788423,0 -1.0488949,-0.456048 -1.0488949,-1.017643 l 0,-2.2045621 c 0,-0.5615953 0.4700526,-1.0176435 1.0488949,-1.0176435 l 2.2722629,0 c 0.5788423,0 1.0488949,0.4560482 1.0488949,1.0176435 l 0,2.2045621 M 34.269178,42.630919 c 0,0.561595 -0.470054,1.017644 -1.048895,1.017644 l -18.221211,0 c -0.578844,0 -1.048895,-0.456049 -1.048895,-1.017644 l 0,-8.17301 c 0,-0.561595 0.470051,-1.017644 1.048895,-1.017644 l 18.221211,0 c 0.578841,0 1.048895,0.456049 1.048895,1.017644 l 0,8.17301 m 0,-14.436197 c 0,0.561595 -0.470054,1.017643 -1.048895,1.017643 l -18.221211,0 c -0.578844,0 -1.048895,-0.456048 -1.048895,-1.017643 l 0,-8.173009 c 0,-0.561597 0.470051,-1.017644 1.048895,-1.017644 l 18.221211,0 c 0.578841,0 1.048895,0.456047 1.048895,1.017644 l 0,8.173009 m 0,-14.436195 c 0,0.561595 -0.470054,1.017644 -1.048895,1.017644 l -18.221211,0 c -0.578844,0 -1.048895,-0.456049 -1.048895,-1.017644 l 0,-8.1730095 c 0,-0.5615954 0.470051,-1.0176435 1.048895,-1.0176435 l 18.221211,0 c 0.578841,0 1.048895,0.4560481 1.048895,1.0176435 l 0,8.1730095 m 8.902262,25.367397 c 0,0.561596 -0.470051,1.017643 -1.048895,1.017643 l -2.272261,0 c -0.578844,0 -1.048895,-0.456047 -1.048895,-1.017643 l 0,-2.204562 c 0,-0.561597 0.470051,-1.017642 1.048895,-1.017642 l 2.272261,0 c 0.578844,0 1.048895,0.456045 1.048895,1.017642 l 0,2.204562 m 0,-9.136884 c 0,0.561595 -0.470051,1.017644 -1.048895,1.017644 l -2.272261,0 c -0.578844,0 -1.048895,-0.456049 -1.048895,-1.017644 l 0,-2.204562 c 0,-0.561595 0.470051,-1.017643 1.048895,-1.017643 l 2.272261,0 c 0.578844,0 1.048895,0.456048 1.048895,1.017643 l 0,2.204562 m 0,-9.138874 c 0,0.561595 -0.470051,1.017643 -1.048895,1.017643 l -2.272261,0 c -0.578844,0 -1.048895,-0.456048 -1.048895,-1.017643 l 0,-2.204562 c 0,-0.561595 0.470051,-1.017643 1.048895,-1.017643 l 2.272261,0 c 0.578844,0 1.048895,0.456048 1.048895,1.017643 l 0,2.204562 m 0,-9.136883 c 0,0.561595 -0.470051,1.017643 -1.048895,1.017643 l -2.272261,0 c -0.578844,0 -1.048895,-0.456048 -1.048895,-1.017643 l 0,-2.2045621 c 0,-0.5615953 0.470051,-1.0176435 1.048895,-1.0176435 l 2.272261,0 c 0.578844,0 1.048895,0.4560482 1.048895,1.0176435 l 0,2.2045621" />
</svg>
