<?xml version="1.0" encoding="UTF-8" standalone="no"?>
<svg
   xmlns:dc="http://purl.org/dc/elements/1.1/"
   xmlns:cc="http://creativecommons.org/ns#"
   xmlns:rdf="http://www.w3.org/1999/02/22-rdf-syntax-ns#"
   xmlns:svg="http://www.w3.org/2000/svg"
   xmlns="http://www.w3.org/2000/svg"
   xmlns:sodipodi="http://sodipodi.sourceforge.net/DTD/sodipodi-0.dtd"
   xmlns:inkscape="http://www.inkscape.org/namespaces/inkscape"
   viewBox="0 0 48 48"
   id="svg2"
   version="1.1"
   inkscape:version="0.91 r13725"
   sodipodi:docname="screenruler-icon.svg">
  <metadata
     id="metadata43">
    <rdf:RDF>
      <cc:Work
         rdf:about="">
        <dc:format>image/svg+xml</dc:format>
        <dc:type
           rdf:resource="http://purl.org/dc/dcmitype/StillImage" />
        <dc:title></dc:title>
      </cc:Work>
    </rdf:RDF>
  </metadata>
  <sodipodi:namedview
     pagecolor="#ffffff"
     bordercolor="#666666"
     borderopacity="1"
     objecttolerance="10"
     gridtolerance="10"
     guidetolerance="10"
     inkscape:pageopacity="0"
     inkscape:pageshadow="2"
     inkscape:window-width="1280"
     inkscape:window-height="694"
     id="namedview41"
     showgrid="false"
     inkscape:zoom="6.9532167"
     inkscape:cx="0.91504148"
     inkscape:cy="20.485281"
     inkscape:window-x="0"
     inkscape:window-y="0"
     inkscape:window-maximized="1"
     inkscape:current-layer="svg2" />
  <defs
     id="defs4">
    <clipPath
       id="clipPath6">
      <rect
         y="6"
         x="6"
         rx="6"
         height="84"
         width="84"
         fill="#fff"
         id="rect8" />
    </clipPath>
    <clipPath
       id="clipPath10">
      <path
         d="m-24 13c0 1.105-.672 2-1.5 2-.828 0-1.5-.895-1.5-2 0-1.105.672-2 1.5-2 .828 0 1.5.895 1.5 2"
         transform="matrix(15.33333 0 0 11.5 415-125.5)"
         fill="#1890d0"
         id="path12" />
    </clipPath>
    <filter
       color-interpolation-filters="sRGB"
       id="filter14">
      <feGaussianBlur
         stdDeviation="1.71"
         id="feGaussianBlur16" />
    </filter>
    <linearGradient
       gradientTransform="scale(1.0059.99417)"
       gradientUnits="userSpaceOnUse"
       y2="7.02"
       x2="0"
       y1="92.54"
       id="linearGradient18">
      <stop
         id="stop20" />
      <stop
         offset="1"
         stop-opacity=".588"
         id="stop22" />
    </linearGradient>
    <linearGradient
       id="0"
       x1="24.2"
       y1="41.695"
       x2="23.797"
       y2="6.305"
       gradientUnits="userSpaceOnUse">
      <stop
         stop-color="#ffbc00"
         id="stop25" />
      <stop
         stop-color="#ffec00"
         offset="1"
         id="stop27" />
    </linearGradient>
  </defs>
  <g
     id="g4171"
     transform="matrix(1,0,0,1.3097136,0,-7.4331283)">
    <rect
       style="fill:#ffd42a;stroke-width:1.03699994"
       id="rect29"
       rx="1.704"
       y="5.8899999"
       height="36.220001"
       width="48"
       x="0" />
    <path
       id="path31"
       d="m 3.03,7.671 0,14.802 1.234,0 0,-14.802 -1.234,0 z m 3.701,0 0,7.401 1.234,0 0,-7.401 -1.234,0 z m 3.701,0 0,7.401 1.234,0 0,-7.401 -1.234,0 z m 3.701,0 0,7.401 1.234,0 0,-7.401 -1.234,0 z m 3.701,0 0,7.401 1.234,0 0,-7.401 -1.234,0 z m 3.701,0 0,11.1 1.234,0 0,-11.1 -1.234,0 z m 3.701,0 0,7.401 1.234,0 0,-7.401 -1.234,0 z m 3.701,0 0,7.401 1.234,0 0,-7.401 -1.234,0 z m 3.701,0 0,7.401 1.234,0 0,-7.401 -1.234,0 z m 3.701,0 0,7.401 1.234,0 0,-7.401 -1.234,0 z m 3.701,0 0,14.802 1.234,0 0,-14.802 -1.234,0 z m 3.701,0 0,7.401 1.234,0 0,-7.401 -1.234,0 z"
       inkscape:connector-curvature="0"
       style="color:#000000;fill:#271e00;stroke:#271f00;stroke-width:0.30000001;stroke-linecap:round;stroke-linejoin:round" />
    <g
       id="g33"
       style="fill:#271f00;stroke:#271e00">
      <path
         id="path35"
         transform="matrix(0.21056,0,0,0.21056,17.789,19.779)"
         d="m -56.975,44.11 q -3.04,4.12 -7.96,4.12 -4.92,0 -7.96,-4.12 -3.04,-4.12 -3.04,-10.2 0,-6.12 3.04,-10.2 3.04,-4.12 7.96,-4.12 4.92,0 7.96,4.12 3.04,4.08 3.04,10.2 0,6.08 -3.04,10.2 z m -7.96,0.6 q 3.28,0 5.24,-3.08 2,-3.08 2,-7.72 0,-4.68 -2,-7.72 -1.96,-3.08 -5.24,-3.08 -3.32,0 -5.28,3.08 -1.96,3.04 -1.96,7.72 0,4.64 1.96,7.72 1.96,3.08 5.28,3.08 z"
         inkscape:connector-curvature="0" />
    </g>
    <g
       id="g37"
       style="fill:#271f00;stroke:#271e00">
      <path
         id="path39"
         transform="matrix(0.21354,0,0,0.21354,59.829,21.988)"
         d="m -85.42,35.39 -3.68,0 0,-22.8 -5.32,2.32 -1.4,-3.12 8.04,-3.76 2.36,0 0,27.36 z"
         inkscape:connector-curvature="0" />
    </g>
  </g>
</svg>
