<?xml version="1.0" encoding="UTF-8" standalone="no"?>
<svg
   xmlns:dc="http://purl.org/dc/elements/1.1/"
   xmlns:cc="http://creativecommons.org/ns#"
   xmlns:rdf="http://www.w3.org/1999/02/22-rdf-syntax-ns#"
   xmlns:svg="http://www.w3.org/2000/svg"
   xmlns="http://www.w3.org/2000/svg"
   xmlns:sodipodi="http://sodipodi.sourceforge.net/DTD/sodipodi-0.dtd"
   xmlns:inkscape="http://www.inkscape.org/namespaces/inkscape"
   viewBox="0 0 48 48"
   id="svg2"
   version="1.1"
   inkscape:version="0.91 r13725"
   sodipodi:docname="vidalia.svg">
  <metadata
     id="metadata25">
    <rdf:RDF>
      <cc:Work
         rdf:about="">
        <dc:format>image/svg+xml</dc:format>
        <dc:type
           rdf:resource="http://purl.org/dc/dcmitype/StillImage" />
        <dc:title></dc:title>
      </cc:Work>
    </rdf:RDF>
  </metadata>
  <sodipodi:namedview
     pagecolor="#ffffff"
     bordercolor="#666666"
     borderopacity="1"
     objecttolerance="10"
     gridtolerance="10"
     guidetolerance="10"
     inkscape:pageopacity="0"
     inkscape:pageshadow="2"
     inkscape:window-width="1280"
     inkscape:window-height="694"
     id="namedview23"
     showgrid="false"
     inkscape:zoom="4.9166667"
     inkscape:cx="-9.1525424"
     inkscape:cy="24"
     inkscape:window-x="0"
     inkscape:window-y="0"
     inkscape:window-maximized="1"
     inkscape:current-layer="svg2" />
  <defs
     id="defs4">
    <linearGradient
       id="0"
       x1="407.2"
       y1="549.67"
       x2="406.32"
       y2="498.42"
       gradientUnits="userSpaceOnUse">
      <stop
         stop-color="#69159f"
         id="stop7" />
      <stop
         offset="1"
         stop-color="#b92ff5"
         id="stop9" />
    </linearGradient>
    <linearGradient
       gradientUnits="userSpaceOnUse"
       y2="517.8"
       x2="0"
       y1="545.8"
       id="linearGradient11">
      <stop
         stop-color="#3889e9"
         id="stop13" />
      <stop
         offset="1"
         stop-color="#5ea5fb"
         id="stop15" />
    </linearGradient>
  </defs>
  <g
     id="g3809"
     transform="matrix(1.2799777,0,0,1.2930658,-39.134168,-1275.7879)"
     style="fill:#8900a0;fill-opacity:1">
    <path
       sodipodi:nodetypes="cccsc"
       inkscape:connector-curvature="0"
       id="rect2990"
       d="m 44.567482,986.92687 4.915847,0 0,36.25433 c -18.543004,3.5324 -22.866465,-14.8075 -14.494812,-23.1796 4.786368,-4.7866 14.460522,-5.04767 9.578965,-13.07473 z"
       style="opacity:0.55144037;fill:#8900a0;fill-opacity:1;fill-rule:nonzero;stroke:none" />
    <path
       style="opacity:0.55144037;fill:#8900a0;fill-opacity:1;fill-rule:nonzero;stroke:none"
       d="m 54.399176,986.92684 -4.915847,0 0,36.25436 c 18.543004,3.5324 22.866465,-14.8075 14.494812,-23.1796 -4.786368,-4.78663 -14.460522,-5.0477 -9.578965,-13.07476 z"
       id="path2993"
       inkscape:connector-curvature="0"
       sodipodi:nodetypes="cccsc" />
    <path
       style="fill:#8900a0;fill-opacity:1;fill-rule:nonzero;stroke:none"
       d="m 45.759579,986.92687 3.72375,0 0,36.25433 c -14.04631,3.5324 -17.321328,-14.8075 -10.979808,-23.1796 3.62567,-4.7866 10.953833,-5.04767 7.256058,-13.07473 z"
       id="path2997"
       inkscape:connector-curvature="0"
       sodipodi:nodetypes="cccsc" />
    <path
       sodipodi:nodetypes="cccsc"
       inkscape:connector-curvature="0"
       id="path3767"
       d="m 46.301345,986.92687 3.181984,0 0,35.77263 c -12.00272,3.4855 -14.801257,-14.6107 -9.382362,-22.87156 3.098174,-4.72305 9.360166,-4.98066 6.200378,-12.90107 z"
       style="fill:#8900a0;fill-opacity:1;fill-rule:nonzero;stroke:none" />
    <path
       style="fill:#8900a0;fill-opacity:1;fill-rule:nonzero;stroke:none"
       d="m 46.817313,986.92687 2.666016,0 0,35.00193 c -10.056444,3.4104 -12.40119,-14.2959 -7.860984,-22.37876 2.595796,-4.62133 7.842387,-4.87339 5.194968,-12.62317 z"
       id="path3775"
       inkscape:connector-curvature="0"
       sodipodi:nodetypes="cccsc" />
    <path
       sodipodi:nodetypes="cccsc"
       inkscape:connector-curvature="0"
       id="path3777"
       d="m 47.333281,986.92687 2.150048,0 0,34.03863 c -8.110168,3.3165 -10.001123,-13.9025 -6.339606,-21.76286 2.093418,-4.49416 6.324608,-4.73928 4.189558,-12.27577 z"
       style="fill:#8900a0;fill-opacity:1;fill-rule:nonzero;stroke:none" />
    <path
       style="fill:#8900a0;fill-opacity:1;fill-rule:nonzero;stroke:none"
       d="m 47.875048,986.92687 1.608281,0 0,33.07533 c -6.066578,3.2226 -7.481052,-13.5091 -4.74216,-21.14696 1.565921,-4.36699 4.730941,-4.60517 3.133879,-11.92837 z"
       id="path3779"
       inkscape:connector-curvature="0"
       sodipodi:nodetypes="cccsc" />
    <path
       sodipodi:nodetypes="cccsc"
       inkscape:connector-curvature="0"
       id="path3781"
       d="m 48.416814,986.92687 1.066515,0 0,31.91933 c -4.022988,3.11 -4.960981,-13.037 -3.144714,-20.40786 1.038424,-4.21436 3.137274,-4.44422 2.078199,-11.51147 z"
       style="fill:#8900a0;fill-opacity:1;fill-rule:nonzero;stroke:none" />
    <path
       sodipodi:nodetypes="cccsc"
       inkscape:connector-curvature="0"
       id="path3783"
       d="m 51.788167,986.92689 -2.304838,0 0,36.25431 c 8.69405,3.5324 10.721142,-14.8075 6.79602,-23.1796 -2.244131,-4.78658 -6.779943,-5.04765 -4.491182,-13.07471 z"
       style="fill:#8900a0;fill-opacity:1;fill-rule:nonzero;stroke:none" />
    <path
       style="fill:#8900a0;fill-opacity:1;fill-rule:nonzero;stroke:none"
       d="m 51.452838,986.92689 -1.969509,0 0,35.77261 c 7.429157,3.4855 9.161329,-14.6107 5.807271,-22.87156 -1.917634,-4.72303 -5.793533,-4.98064 -3.837762,-12.90105 z"
       id="path3785"
       inkscape:connector-curvature="0"
       sodipodi:nodetypes="cccsc" />
    <path
       sodipodi:nodetypes="cccsc"
       inkscape:connector-curvature="0"
       id="path3787"
       d="m 51.133476,986.92689 -1.650147,0 0,35.00191 c 6.224498,3.4104 7.675793,-14.2959 4.865604,-22.37876 -1.606684,-4.62131 -4.854093,-4.87337 -3.215457,-12.62315 z"
       style="fill:#8900a0;fill-opacity:1;fill-rule:nonzero;stroke:none" />
    <path
       style="fill:#8900a0;fill-opacity:1;fill-rule:nonzero;stroke:none"
       d="m 50.814114,986.92689 -1.330785,0 0,34.03861 c 5.019838,3.3165 6.190257,-13.9025 3.923938,-21.76286 -1.295734,-4.49414 -3.914655,-4.73926 -2.593153,-12.27575 z"
       id="path3789"
       inkscape:connector-curvature="0"
       sodipodi:nodetypes="cccsc" />
    <path
       sodipodi:nodetypes="cccsc"
       inkscape:connector-curvature="0"
       id="path3791"
       d="m 50.478784,986.92689 -0.995455,0 0,33.07531 c 3.754946,3.2226 4.630443,-13.5091 2.935189,-21.14696 -0.969236,-4.36697 -2.928245,-4.60515 -1.939734,-11.92835 z"
       style="fill:#8900a0;fill-opacity:1;fill-rule:nonzero;stroke:none" />
    <path
       style="fill:#8900a0;fill-opacity:1;fill-rule:nonzero;stroke:none"
       d="m 50.143455,986.92689 -0.660126,0 0,31.91931 c 2.490053,3.11 3.07063,-13.037 1.94644,-20.40786 -0.642739,-4.21434 -1.941835,-4.4442 -1.286314,-11.51145 z"
       id="path3793"
       inkscape:connector-curvature="0"
       sodipodi:nodetypes="cccsc" />
  </g>
  <path
     d="m 47.85337,33.481624 c -0.08328,-0.111041 -0.191218,-0.177191 -0.327219,-0.198197 l -2.850787,-0.443655 c -0.155823,-0.50701 -0.368861,-1.024861 -0.638949,-1.552792 0.186805,-0.264092 0.467219,-0.636346 0.841161,-1.117184 0.373859,-0.480752 0.638699,-0.831831 0.794606,-1.053743 0.0832,-0.116292 0.124509,-0.237666 0.124509,-0.364461 0,-0.147801 -0.03615,-0.263923 -0.109018,-0.348538 -0.37386,-0.538941 -1.230844,-1.436669 -2.570788,-2.693861 -0.124342,-0.10562 -0.254347,-0.158303 -0.389183,-0.158303 -0.155823,0 -0.280582,0.04744 -0.374025,0.142379 l -2.212253,1.69568 C 39.715346,27.167037 39.247961,26.971552 38.7391,26.80156 l -0.436238,-2.91535 c -0.01032,-0.137297 -0.07021,-0.250879 -0.179225,-0.340491 -0.109185,-0.08987 -0.236192,-0.134587 -0.381937,-0.134587 l -3.459504,0 c -0.301236,0 -0.488207,0.1478 -0.560913,0.443655 -0.135002,0.528016 -0.285745,1.510442 -0.451894,2.946518 -0.488208,0.158727 -0.960007,0.35938 -1.417482,0.602297 l -2.150124,-1.69568 c -0.135002,-0.105619 -0.270004,-0.158302 -0.405006,-0.158302 -0.22853,0 -0.719235,0.377504 -1.472365,1.132938 -0.752881,0.755432 -1.26449,1.323087 -1.53566,1.703302 -0.09353,0.137298 -0.140166,0.258842 -0.140166,0.364461 0,0.126795 0.0518,0.25359 0.155657,0.380215 0.695914,0.855463 1.251747,1.58447 1.66733,2.186852 -0.259677,0.485835 -0.462222,0.971839 -0.607551,1.457674 l -2.897258,0.443655 c -0.114181,0.02117 -0.212873,0.08987 -0.296072,0.206158 -0.0832,0.116123 -0.124675,0.237666 -0.124675,0.364292 l 0,3.518323 c 0,0.137468 0.04147,0.261382 0.124675,0.372254 0.0832,0.111041 0.191218,0.177361 0.327219,0.198366 l 2.85162,0.427731 c 0.145329,0.517513 0.3582,1.040361 0.638699,1.567614 -0.186805,0.264093 -0.467386,0.636347 -0.841161,1.117185 -0.373859,0.480752 -0.638949,0.831831 -0.794606,1.053743 -0.0832,0.116462 -0.124674,0.237667 -0.124674,0.364461 0,0.137297 0.03631,0.258672 0.109017,0.364292 0.405006,0.570619 1.261742,1.458098 2.570788,2.662183 0.114348,0.116292 0.244187,0.174227 0.389515,0.174227 0.155824,0 0.285745,-0.04744 0.389516,-0.142379 l 2.19693,-1.69568 c 0.426077,0.221912 0.893462,0.417397 1.402323,0.587389 l 0.436238,2.91535 c 0.0105,0.137297 0.07021,0.250879 0.179225,0.340491 0.109018,0.09004 0.236358,0.134587 0.381688,0.134587 l 3.459503,0 c 0.301569,0 0.488457,-0.1478 0.561246,-0.443655 0.134836,-0.528269 0.285329,-1.510442 0.451478,-2.946518 0.488208,-0.158474 0.961922,-0.35938 1.417482,-0.602297 l 2.150291,1.711772 c 0.145328,0.09495 0.280581,0.14238 0.405006,0.14238 0.228363,0 0.716569,-0.374794 1.464286,-1.124892 0.748134,-0.749927 1.262575,-1.320546 1.541407,-1.711772 0.09353,-0.10562 0.140332,-0.226994 0.140332,-0.364292 0,-0.137298 -0.0518,-0.269767 -0.155823,-0.396139 -0.747717,-0.929659 -1.303466,-1.658412 -1.667331,-2.186681 0.207709,-0.390888 0.410421,-0.871471 0.607718,-1.441582 l 2.881935,-0.443401 c 0.124508,-0.02117 0.228695,-0.09004 0.311729,-0.206327 0.08303,-0.116292 0.124342,-0.237836 0.124342,-0.364461 l 0,-3.518325 c 0,-0.137297 -0.04115,-0.261211 -0.124509,-0.372252 m -9.02041,4.967444 c -0.778949,0.792361 -1.71905,1.18833 -2.820221,1.18833 -1.101172,0 -2.041107,-0.396138 -2.820139,-1.18833 -0.778948,-0.792193 -1.168464,-1.748109 -1.168464,-2.867919 0,-1.119893 0.38935,-2.07581 1.168464,-2.868087 0.779116,-0.792192 1.719217,-1.188331 2.820139,-1.188331 1.101171,0 2.041272,0.396139 2.820221,1.188331 0.778948,0.792362 1.168464,1.748278 1.168464,2.868087 0,1.119894 -0.389516,2.075811 -1.168464,2.867919"
     id="path21"
     style="fill:#ddafe9;fill-opacity:1"
     inkscape:connector-curvature="0" />
</svg>
