<?xml version="1.0" encoding="UTF-8" standalone="no"?>
<svg
   xmlns:dc="http://purl.org/dc/elements/1.1/"
   xmlns:cc="http://creativecommons.org/ns#"
   xmlns:rdf="http://www.w3.org/1999/02/22-rdf-syntax-ns#"
   xmlns:svg="http://www.w3.org/2000/svg"
   xmlns="http://www.w3.org/2000/svg"
   xmlns:sodipodi="http://sodipodi.sourceforge.net/DTD/sodipodi-0.dtd"
   xmlns:inkscape="http://www.inkscape.org/namespaces/inkscape"
   viewBox="0 0 48 48"
   id="svg2"
   version="1.1"
   inkscape:version="0.91 r13725"
   sodipodi:docname="web-jolicloud.svg">
  <metadata
     id="metadata23">
    <rdf:RDF>
      <cc:Work
         rdf:about="">
        <dc:format>image/svg+xml</dc:format>
        <dc:type
           rdf:resource="http://purl.org/dc/dcmitype/StillImage" />
        <dc:title></dc:title>
      </cc:Work>
    </rdf:RDF>
  </metadata>
  <sodipodi:namedview
     pagecolor="#ffffff"
     bordercolor="#666666"
     borderopacity="1"
     objecttolerance="10"
     gridtolerance="10"
     guidetolerance="10"
     inkscape:pageopacity="0"
     inkscape:pageshadow="2"
     inkscape:window-width="1280"
     inkscape:window-height="694"
     id="namedview21"
     showgrid="false"
     inkscape:zoom="4.9166667"
     inkscape:cx="-9.1525424"
     inkscape:cy="24"
     inkscape:window-x="0"
     inkscape:window-y="0"
     inkscape:window-maximized="1"
     inkscape:current-layer="svg2" />
  <defs
     id="defs4">
    <linearGradient
       gradientTransform="matrix(.49433 0 0 .4778 86.64 13.1)"
       gradientUnits="userSpaceOnUse"
       y2="-26.05"
       x2="-125.19"
       y1="73.5"
       x1="-123.97"
       id="0">
      <stop
         stop-color="#197ff1"
         id="stop7" />
      <stop
         offset="1"
         stop-color="#21c6fb"
         id="stop9" />
    </linearGradient>
    <linearGradient
       y1="545.8"
       x2="0"
       y2="517.8"
       gradientUnits="userSpaceOnUse"
       id="linearGradient11">
      <stop
         stop-color="#3889e9"
         id="stop13" />
      <stop
         offset="1"
         stop-color="#5ea5fb"
         id="stop15" />
    </linearGradient>
  </defs>
  <path
     d="m 47.896661,47.290289 c -0.0026,-0.839366 -0.100475,-0.977244 -0.879158,-1.255419 -1.138277,-0.40396 -2.618963,-1.347339 -3.67263,-2.339097 -2.740592,-2.578569 -4.886265,-6.850384 -5.87383,-11.693064 -0.518239,-2.544704 -0.694072,-4.286328 -0.806444,-8.009047 -0.0542,-1.787584 -0.17451,-3.908977 -0.267053,-4.714478 C 35.367676,10.341272 31.762469,3.4376711 26.862985,1.0187501 25.443113,0.317263 22.87042,0.13584394 21.410887,0.63414166 16.803573,2.1991836 13.150773,7.6877153 11.45856,15.587911 c -0.18112,0.846623 -0.364883,1.88434 -0.407189,2.302812 -0.08593,0.849042 0.0238,0.822434 -1.3154304,0.319299 -0.9201413,-0.345907 -2.6705244,-0.147555 -3.6342921,0.413635 -1.5666188,0.907096 -2.8582531,2.472137 -3.881513,4.704801 -2.11658807,4.615301 -2.51320048,11.085915 -1.0087175,16.419636 0.8381742,2.972854 2.6295401,5.952965 4.2411085,7.058412 1.5375335,1.057068 0.6028501,1.013527 22.2631745,1.03046 l 20.183604,0.01693"
     id="path19"
     style="fill:#5599ff;fill-opacity:0.85"
     inkscape:connector-curvature="0" />
</svg>
