<?xml version="1.0" encoding="UTF-8" standalone="no"?>
<svg
   xmlns:dc="http://purl.org/dc/elements/1.1/"
   xmlns:cc="http://creativecommons.org/ns#"
   xmlns:rdf="http://www.w3.org/1999/02/22-rdf-syntax-ns#"
   xmlns:svg="http://www.w3.org/2000/svg"
   xmlns="http://www.w3.org/2000/svg"
   xmlns:sodipodi="http://sodipodi.sourceforge.net/DTD/sodipodi-0.dtd"
   xmlns:inkscape="http://www.inkscape.org/namespaces/inkscape"
   viewBox="0 0 48 48"
   id="svg2"
   version="1.1"
   inkscape:version="0.91 r13725"
   sodipodi:docname="yed.svg">
  <metadata
     id="metadata29">
    <rdf:RDF>
      <cc:Work
         rdf:about="">
        <dc:format>image/svg+xml</dc:format>
        <dc:type
           rdf:resource="http://purl.org/dc/dcmitype/StillImage" />
        <dc:title></dc:title>
      </cc:Work>
    </rdf:RDF>
  </metadata>
  <sodipodi:namedview
     pagecolor="#ffffff"
     bordercolor="#666666"
     borderopacity="1"
     objecttolerance="10"
     gridtolerance="10"
     guidetolerance="10"
     inkscape:pageopacity="0"
     inkscape:pageshadow="2"
     inkscape:window-width="1280"
     inkscape:window-height="694"
     id="namedview27"
     showgrid="false"
     inkscape:zoom="4.9166667"
     inkscape:cx="-9.1525424"
     inkscape:cy="24"
     inkscape:window-x="0"
     inkscape:window-y="0"
     inkscape:window-maximized="1"
     inkscape:current-layer="svg2" />
  <defs
     id="defs4">
    <linearGradient
       id="0"
       x1="-123.97"
       y1="73.5"
       x2="-125.19"
       y2="-26.05"
       gradientUnits="userSpaceOnUse">
      <stop
         stop-color="#759cd7"
         id="stop7" />
      <stop
         offset="1"
         stop-color="#a9caff"
         id="stop9" />
    </linearGradient>
  </defs>
  <path
     style="fill:#2c5aa0"
     inkscape:connector-curvature="0"
     id="path25"
     d="m 48.077504,15.422415 0,-12.8672996 c 0,-1.1841221 -0.977398,-2.1441574 -2.181946,-2.1441574 l -13.086883,0 c -1.206149,0 -2.181946,0.9608219 -2.181946,2.1441574 l 0,5.3607844 c -10.656189,0 -19.608729,7.1998702 -22.1554,16.9040082 l -2.2675296,-0.39235 c -0.4071157,-0.0692 -0.8198292,0.09121 -1.0661795,0.417509 -0.2447486,0.326302 -0.2839412,0.761895 -0.096777,1.124366 l 2.3627109,4.58631 c -4.1415411,0.663612 -7.31608144,4.196319 -7.31608144,8.454754 0,4.733342 3.91438644,8.577414 8.72618834,8.577414 4.4414772,0 8.1095152,-3.281889 8.6494032,-7.504942 l 7.710399,0 0,2.144157 c 0,0.406501 0.233551,0.776833 0.603074,0.959249 0.369524,0.180842 0.811832,0.142311 1.143763,-0.102211 l 3.812808,-2.812486 c 0.623071,4.131059 4.245518,7.315451 8.617411,7.315451 4.815,0 8.726987,-3.84643 8.726987,-8.575841 0,-4.366155 -3.338505,-7.972772 -7.636813,-8.502717 l 0,-7.580424 2.182746,0 c 0.411114,0 0.790236,-0.229591 0.974198,-0.592061 0.185561,-0.362469 0.14716,-0.798064 -0.102382,-1.123579 l -2.782622,-3.644359 5.178925,0 c 1.207749,0 2.185145,-0.961607 2.185145,-2.144943 M 35.104201,22.3353 c 0.185562,0.363256 0.562282,0.59206 0.974997,0.59206 l 2.181948,0 0,7.579638 c -3.873597,0.479624 -6.957756,3.459586 -7.528038,7.242329 l -3.814407,-2.813274 c -0.329532,-0.242957 -0.771839,-0.280697 -1.141364,-0.101434 -0.368723,0.183987 -0.603074,0.552749 -0.603074,0.959249 l 0,2.144157 -7.710398,0 c -0.494298,-3.876307 -3.628047,-6.952982 -7.5744281,-7.432606 0.0032,-0.02437 0.01523,-0.0456 0.01523,-0.07155 l 0,-0.01102 3.300915,-3.038145 c 0.301536,-0.276765 0.416714,-0.698993 0.299938,-1.088196 -0.119174,-0.390778 -0.449508,-0.680123 -0.856623,-0.750888 l -2.02438,-0.351467 c 2.361111,-8.69614 10.421836,-15.13254 20.003846,-15.13254 l 0,5.360785 c 0,1.184122 0.975797,2.144157 2.181948,2.144157 l 5.179723,0 -2.781021,3.64593 c -0.248749,0.325516 -0.288741,0.759537 -0.103181,1.123579" />
</svg>
