<?xml version="1.0" encoding="UTF-8" standalone="no"?>
<!-- Generator: Adobe Illustrator 19.0.0, SVG Export Plug-In . SVG Version: 6.00 Build 0)  -->

<svg
   xmlns:dc="http://purl.org/dc/elements/1.1/"
   xmlns:cc="http://creativecommons.org/ns#"
   xmlns:rdf="http://www.w3.org/1999/02/22-rdf-syntax-ns#"
   xmlns:svg="http://www.w3.org/2000/svg"
   xmlns="http://www.w3.org/2000/svg"
   xmlns:sodipodi="http://sodipodi.sourceforge.net/DTD/sodipodi-0.dtd"
   xmlns:inkscape="http://www.inkscape.org/namespaces/inkscape"
   version="1.1"
   id="Capa_1"
   x="0px"
   y="0px"
   viewBox="0 0 58 58"
   style="enable-background:new 0 0 58 58;"
   xml:space="preserve"
   inkscape:version="0.91 r13725"
   sodipodi:docname="battery-charging.svg"><metadata
     id="metadata197"><rdf:RDF><cc:Work
         rdf:about=""><dc:format>image/svg+xml</dc:format><dc:type
           rdf:resource="http://purl.org/dc/dcmitype/StillImage" /><dc:title></dc:title></cc:Work></rdf:RDF></metadata><defs
     id="defs195" /><sodipodi:namedview
     pagecolor="#ffffff"
     bordercolor="#666666"
     borderopacity="1"
     objecttolerance="10"
     gridtolerance="10"
     guidetolerance="10"
     inkscape:pageopacity="0"
     inkscape:pageshadow="2"
     inkscape:window-width="1280"
     inkscape:window-height="694"
     id="namedview193"
     showgrid="false"
     inkscape:zoom="4.0689655"
     inkscape:cx="-11.059322"
     inkscape:cy="29"
     inkscape:window-x="0"
     inkscape:window-y="0"
     inkscape:window-maximized="1"
     inkscape:current-layer="Capa_1" /><path
     style="fill:#43B05C;"
     d="M41.536,58H16.464C15.103,58,14,56.897,14,55.536V6.464C14,5.103,15.103,4,16.464,4h25.072  C42.897,4,44,5.103,44,6.464v49.072C44,56.897,42.897,58,41.536,58z"
     id="path3" /><rect
     x="24"
     style="fill:#D8A852;"
     width="10"
     height="4"
     id="rect5" /><path
     style="fill:#292F3A;"
     d="M41.536,6C41.792,6,42,6.208,42,6.464v49.072C42,55.792,41.792,56,41.536,56H16.464  C16.208,56,16,55.792,16,55.536V6.464C16,6.208,16.208,6,16.464,6H41.536 M41.536,4H16.464C15.103,4,14,5.103,14,6.464v49.072  C14,56.897,15.103,58,16.464,58h25.072C42.897,58,44,56.897,44,55.536V6.464C44,5.103,42.897,4,41.536,4L41.536,4z"
     id="path7" /><g
     id="g9"><circle
       style="fill:#A4E869;"
       cx="17"
       cy="52"
       r="1"
       id="circle11" /><circle
       style="fill:#A4E869;"
       cx="20"
       cy="55"
       r="1"
       id="circle13" /><circle
       style="fill:#A4E869;"
       cx="23"
       cy="52"
       r="1"
       id="circle15" /><circle
       style="fill:#A4E869;"
       cx="29"
       cy="52"
       r="1"
       id="circle17" /><circle
       style="fill:#A4E869;"
       cx="26"
       cy="55"
       r="1"
       id="circle19" /><circle
       style="fill:#A4E869;"
       cx="32"
       cy="55"
       r="1"
       id="circle21" /><circle
       style="fill:#A4E869;"
       cx="35"
       cy="52"
       r="1"
       id="circle23" /><circle
       style="fill:#A4E869;"
       cx="41"
       cy="52"
       r="1"
       id="circle25" /><circle
       style="fill:#A4E869;"
       cx="38"
       cy="55"
       r="1"
       id="circle27" /><circle
       style="fill:#A4E869;"
       cx="17"
       cy="46"
       r="1"
       id="circle29" /><circle
       style="fill:#A4E869;"
       cx="20"
       cy="49"
       r="1"
       id="circle31" /><circle
       style="fill:#A4E869;"
       cx="23"
       cy="46"
       r="1"
       id="circle33" /><circle
       style="fill:#A4E869;"
       cx="29"
       cy="46"
       r="1"
       id="circle35" /><circle
       style="fill:#A4E869;"
       cx="26"
       cy="49"
       r="1"
       id="circle37" /><circle
       style="fill:#A4E869;"
       cx="32"
       cy="49"
       r="1"
       id="circle39" /><circle
       style="fill:#A4E869;"
       cx="35"
       cy="46"
       r="1"
       id="circle41" /><circle
       style="fill:#A4E869;"
       cx="41"
       cy="46"
       r="1"
       id="circle43" /><circle
       style="fill:#A4E869;"
       cx="38"
       cy="49"
       r="1"
       id="circle45" /><circle
       style="fill:#A4E869;"
       cx="17"
       cy="40"
       r="1"
       id="circle47" /><circle
       style="fill:#A4E869;"
       cx="20"
       cy="43"
       r="1"
       id="circle49" /><circle
       style="fill:#A4E869;"
       cx="23"
       cy="40"
       r="1"
       id="circle51" /><circle
       style="fill:#A4E869;"
       cx="29"
       cy="40"
       r="1"
       id="circle53" /><circle
       style="fill:#A4E869;"
       cx="26"
       cy="43"
       r="1"
       id="circle55" /><circle
       style="fill:#A4E869;"
       cx="32"
       cy="43"
       r="1"
       id="circle57" /><circle
       style="fill:#A4E869;"
       cx="35"
       cy="40"
       r="1"
       id="circle59" /><circle
       style="fill:#A4E869;"
       cx="41"
       cy="40"
       r="1"
       id="circle61" /><circle
       style="fill:#A4E869;"
       cx="38"
       cy="43"
       r="1"
       id="circle63" /><circle
       style="fill:#A4E869;"
       cx="17"
       cy="34"
       r="1"
       id="circle65" /><circle
       style="fill:#A4E869;"
       cx="20"
       cy="37"
       r="1"
       id="circle67" /><circle
       style="fill:#A4E869;"
       cx="23"
       cy="34"
       r="1"
       id="circle69" /><circle
       style="fill:#A4E869;"
       cx="29"
       cy="34"
       r="1"
       id="circle71" /><circle
       style="fill:#A4E869;"
       cx="26"
       cy="37"
       r="1"
       id="circle73" /><circle
       style="fill:#A4E869;"
       cx="32"
       cy="37"
       r="1"
       id="circle75" /><circle
       style="fill:#A4E869;"
       cx="35"
       cy="34"
       r="1"
       id="circle77" /><circle
       style="fill:#A4E869;"
       cx="41"
       cy="34"
       r="1"
       id="circle79" /><circle
       style="fill:#A4E869;"
       cx="38"
       cy="37"
       r="1"
       id="circle81" /><circle
       style="fill:#A4E869;"
       cx="17"
       cy="28"
       r="1"
       id="circle83" /><circle
       style="fill:#A4E869;"
       cx="20"
       cy="31"
       r="1"
       id="circle85" /><circle
       style="fill:#A4E869;"
       cx="23"
       cy="28"
       r="1"
       id="circle87" /><circle
       style="fill:#A4E869;"
       cx="29"
       cy="28"
       r="1"
       id="circle89" /><circle
       style="fill:#A4E869;"
       cx="26"
       cy="31"
       r="1"
       id="circle91" /><circle
       style="fill:#A4E869;"
       cx="32"
       cy="31"
       r="1"
       id="circle93" /><circle
       style="fill:#A4E869;"
       cx="35"
       cy="28"
       r="1"
       id="circle95" /><circle
       style="fill:#A4E869;"
       cx="41"
       cy="28"
       r="1"
       id="circle97" /><circle
       style="fill:#A4E869;"
       cx="38"
       cy="31"
       r="1"
       id="circle99" /><circle
       style="fill:#A4E869;"
       cx="17"
       cy="22"
       r="1"
       id="circle101" /><circle
       style="fill:#A4E869;"
       cx="20"
       cy="25"
       r="1"
       id="circle103" /><circle
       style="fill:#A4E869;"
       cx="23"
       cy="22"
       r="1"
       id="circle105" /><circle
       style="fill:#A4E869;"
       cx="29"
       cy="22"
       r="1"
       id="circle107" /><circle
       style="fill:#A4E869;"
       cx="26"
       cy="25"
       r="1"
       id="circle109" /><circle
       style="fill:#A4E869;"
       cx="32"
       cy="25"
       r="1"
       id="circle111" /><circle
       style="fill:#A4E869;"
       cx="35"
       cy="22"
       r="1"
       id="circle113" /><circle
       style="fill:#A4E869;"
       cx="41"
       cy="22"
       r="1"
       id="circle115" /><circle
       style="fill:#A4E869;"
       cx="38"
       cy="25"
       r="1"
       id="circle117" /><circle
       style="fill:#A4E869;"
       cx="17"
       cy="16"
       r="1"
       id="circle119" /><circle
       style="fill:#A4E869;"
       cx="20"
       cy="19"
       r="1"
       id="circle121" /><circle
       style="fill:#A4E869;"
       cx="23"
       cy="16"
       r="1"
       id="circle123" /><circle
       style="fill:#A4E869;"
       cx="29"
       cy="16"
       r="1"
       id="circle125" /><circle
       style="fill:#A4E869;"
       cx="26"
       cy="19"
       r="1"
       id="circle127" /><circle
       style="fill:#A4E869;"
       cx="32"
       cy="19"
       r="1"
       id="circle129" /><circle
       style="fill:#A4E869;"
       cx="35"
       cy="16"
       r="1"
       id="circle131" /><circle
       style="fill:#A4E869;"
       cx="41"
       cy="16"
       r="1"
       id="circle133" /><circle
       style="fill:#A4E869;"
       cx="38"
       cy="19"
       r="1"
       id="circle135" /><circle
       style="fill:#A4E869;"
       cx="17"
       cy="10"
       r="1"
       id="circle137" /><circle
       style="fill:#A4E869;"
       cx="20"
       cy="13"
       r="1"
       id="circle139" /><circle
       style="fill:#A4E869;"
       cx="23"
       cy="10"
       r="1"
       id="circle141" /><circle
       style="fill:#A4E869;"
       cx="29"
       cy="10"
       r="1"
       id="circle143" /><circle
       style="fill:#A4E869;"
       cx="26"
       cy="13"
       r="1"
       id="circle145" /><circle
       style="fill:#A4E869;"
       cx="32"
       cy="13"
       r="1"
       id="circle147" /><circle
       style="fill:#A4E869;"
       cx="35"
       cy="10"
       r="1"
       id="circle149" /><circle
       style="fill:#A4E869;"
       cx="41"
       cy="10"
       r="1"
       id="circle151" /><circle
       style="fill:#A4E869;"
       cx="38"
       cy="13"
       r="1"
       id="circle153" /><circle
       style="fill:#A4E869;"
       cx="20"
       cy="7"
       r="1"
       id="circle155" /><circle
       style="fill:#A4E869;"
       cx="26"
       cy="7"
       r="1"
       id="circle157" /><circle
       style="fill:#A4E869;"
       cx="32"
       cy="7"
       r="1"
       id="circle159" /><circle
       style="fill:#A4E869;"
       cx="38"
       cy="7"
       r="1"
       id="circle161" /></g><g
     id="g163" /><g
     id="g165" /><g
     id="g167" /><g
     id="g169" /><g
     id="g171" /><g
     id="g173" /><g
     id="g175" /><g
     id="g177" /><g
     id="g179" /><g
     id="g181" /><g
     id="g183" /><g
     id="g185" /><g
     id="g187" /><g
     id="g189" /><g
     id="g191" /></svg>