<?xml version="1.0" encoding="UTF-8" standalone="no"?>
<svg
   xmlns:dc="http://purl.org/dc/elements/1.1/"
   xmlns:cc="http://creativecommons.org/ns#"
   xmlns:rdf="http://www.w3.org/1999/02/22-rdf-syntax-ns#"
   xmlns:svg="http://www.w3.org/2000/svg"
   xmlns="http://www.w3.org/2000/svg"
   xmlns:sodipodi="http://sodipodi.sourceforge.net/DTD/sodipodi-0.dtd"
   xmlns:inkscape="http://www.inkscape.org/namespaces/inkscape"
   viewBox="0 0 64 64"
   id="svg2"
   version="1.1"
   inkscape:version="0.91 r13725"
   sodipodi:docname="application-pdf.svg">
  <metadata
     id="metadata19">
    <rdf:RDF>
      <cc:Work
         rdf:about="">
        <dc:format>image/svg+xml</dc:format>
        <dc:type
           rdf:resource="http://purl.org/dc/dcmitype/StillImage" />
        <dc:title></dc:title>
      </cc:Work>
    </rdf:RDF>
  </metadata>
  <sodipodi:namedview
     pagecolor="#ffffff"
     bordercolor="#666666"
     borderopacity="1"
     objecttolerance="10"
     gridtolerance="10"
     guidetolerance="10"
     inkscape:pageopacity="0"
     inkscape:pageshadow="2"
     inkscape:window-width="1280"
     inkscape:window-height="694"
     id="namedview17"
     showgrid="true"
     inkscape:zoom="3.6875"
     inkscape:cx="-41.652689"
     inkscape:cy="32"
     inkscape:window-x="0"
     inkscape:window-y="0"
     inkscape:window-maximized="1"
     inkscape:current-layer="svg2">
    <inkscape:grid
       type="xygrid"
       id="grid4137" />
  </sodipodi:namedview>
  <defs
     id="defs4">
    <linearGradient
       id="0"
       x1="-74.929"
       y1="52.2"
       x2="-75.26"
       y2="2.356"
       gradientUnits="userSpaceOnUse"
       gradientTransform="matrix(1.07499,0,0,1.02929,113.079,0.074)">
      <stop
         stop-color="#f10614"
         id="stop7" />
      <stop
         offset="1"
         stop-color="#ff433e"
         id="stop9" />
    </linearGradient>
  </defs>
  <rect
     style="fill:#ff2a2a"
     id="rect13"
     rx="3.6248074"
     y="0.65025425"
     x="0.23728909"
     height="52.936779"
     width="63.796608" />
  <path
     style="fill:#ffaaaa;fill-opacity:0.85399996"
     inkscape:connector-curvature="0"
     id="path15"
     d="m 57.856393,52.037351 c -0.636421,-0.601996 -2.049317,-0.922796 -4.197494,-0.948539 -1.454087,-0.02179 -3.204759,0.10693 -5.046053,0.354464 -0.823846,-0.457437 -1.674465,-0.95448 -2.341781,-1.554496 -1.793922,-1.609944 -3.291262,-3.847627 -4.224267,-6.305117 0.06179,-0.22971 0.11328,-0.431695 0.16065,-0.637642 0,0 1.01127,-5.518958 0.74352,-7.384353 -0.03708,-0.255453 -0.05973,-0.330703 -0.131815,-0.528728 l -0.08857,-0.215847 c -0.273925,-0.609918 -0.813544,-1.255479 -1.657985,-1.219834 l -0.496368,-0.02179 -0.01441,0 c -0.943303,0 -1.70948,0.463379 -1.911322,1.156466 -0.613765,2.172335 0.01853,5.421926 1.165742,9.629959 l -0.292465,0.685166 c -0.819726,1.922824 -1.849533,3.859509 -2.755764,5.568465 l -0.117397,0.221789 c -0.953601,1.796086 -1.820699,3.320879 -2.605412,4.612003 l -0.811487,0.411892 c -0.05973,0.0297 -1.447909,0.736652 -1.773328,0.924776 -2.764001,1.586181 -4.594997,3.388209 -4.89982,4.817951 -0.0968,0.455457 -0.02471,1.03963 0.467532,1.310926 l 0.784712,0.378227 c 0.339837,0.164361 0.69821,0.247531 1.06688,0.247531 1.968991,0 4.255162,-2.358478 7.402251,-7.641787 3.635219,-1.138643 7.772983,-2.083224 11.402021,-2.606009 2.764003,1.49707 6.164425,2.536701 8.300244,2.536701 0.381028,0 0.708507,-0.03565 0.976256,-0.102972 0.411923,-0.104957 0.757938,-0.330703 0.970079,-0.63566 0.416042,-0.601996 0.500486,-1.431722 0.387207,-2.281249 -0.03296,-0.251492 -0.243035,-0.564372 -0.469592,-0.776259 z M 28.451288,62.108907 c 0.358373,-0.944581 1.779507,-2.809976 3.880312,-4.465466 0.131815,-0.102971 0.457235,-0.39605 0.755878,-0.669324 -2.197608,3.368406 -3.668171,4.712996 -4.63619,5.132809 M 40.891354,34.55372 c 0.632302,0 0.992735,1.534693 1.023628,2.972356 0.02883,1.437661 -0.31924,2.447589 -0.753818,3.194144 -0.358373,-1.10498 -0.53344,-2.847601 -0.53344,-3.980303 0,0 -0.02678,-2.178276 0.26363,-2.178276 M 37.17993,54.197806 c 0.440758,-0.758437 0.900052,-1.558458 1.367584,-2.407985 1.143086,-2.077283 1.863951,-3.703069 2.40151,-5.037758 1.068939,1.869357 2.399449,3.459498 3.964756,4.732799 0.195663,0.15842 0.401624,0.318821 0.619943,0.47724 -3.182103,0.605957 -5.931686,1.34063 -8.353793,2.235704 m 20.060638,-0.170303 c -0.193605,0.114859 -0.749699,0.184163 -1.106013,0.184163 -1.153383,0 -2.578637,-0.506943 -4.576461,-1.330727 0.768235,-0.05545 1.472623,-0.08317 2.102865,-0.08317 1.155443,0 1.49734,0 2.628067,0.273274 1.130728,0.277235 1.145146,0.839626 0.951542,0.956461" />
</svg>
