<?xml version="1.0" encoding="UTF-8" standalone="no"?>
<svg
   xmlns:dc="http://purl.org/dc/elements/1.1/"
   xmlns:cc="http://creativecommons.org/ns#"
   xmlns:rdf="http://www.w3.org/1999/02/22-rdf-syntax-ns#"
   xmlns:svg="http://www.w3.org/2000/svg"
   xmlns="http://www.w3.org/2000/svg"
   xmlns:sodipodi="http://sodipodi.sourceforge.net/DTD/sodipodi-0.dtd"
   xmlns:inkscape="http://www.inkscape.org/namespaces/inkscape"
   viewBox="0 0 64 64"
   id="svg2"
   version="1.1"
   inkscape:version="0.91 r13725"
   sodipodi:docname="application-x-font-type1.svg">
  <metadata
     id="metadata19">
    <rdf:RDF>
      <cc:Work
         rdf:about="">
        <dc:format>image/svg+xml</dc:format>
        <dc:type
           rdf:resource="http://purl.org/dc/dcmitype/StillImage" />
        <dc:title></dc:title>
      </cc:Work>
    </rdf:RDF>
  </metadata>
  <sodipodi:namedview
     pagecolor="#ffffff"
     bordercolor="#666666"
     borderopacity="1"
     objecttolerance="10"
     gridtolerance="10"
     guidetolerance="10"
     inkscape:pageopacity="0"
     inkscape:pageshadow="2"
     inkscape:window-width="1280"
     inkscape:window-height="694"
     id="namedview17"
     showgrid="true"
     inkscape:zoom="3.6875"
     inkscape:cx="-2.8572744"
     inkscape:cy="32"
     inkscape:window-x="0"
     inkscape:window-y="0"
     inkscape:window-maximized="1"
     inkscape:current-layer="svg2">
    <inkscape:grid
       type="xygrid"
       id="grid4137" />
  </sodipodi:namedview>
  <defs
     id="defs4">
    <linearGradient
       id="0"
       x1="-74.929"
       y1="52.2"
       x2="-75.26"
       y2="2.356"
       gradientUnits="userSpaceOnUse"
       gradientTransform="matrix(1.07499,0,0,1.02929,113.079,0.074)">
      <stop
         stop-color="#ff8a3b"
         id="stop7" />
      <stop
         offset="1"
         stop-color="#ffb173"
         id="stop9" />
    </linearGradient>
  </defs>
  <rect
     style="fill:#ff9955"
     id="rect13"
     rx="3.6248074"
     y="0.37906781"
     x="0.23728909"
     height="53.207962"
     width="63.796608" />
  <path
     style="fill:#ffccaa;fill-opacity:0.85"
     inkscape:connector-curvature="0"
     id="path15"
     d="m 39.827533,63.527967 q -5.527997,0 -9.282836,-2.489347 -3.685332,-2.489347 -3.685332,-6.583608 0,-4.425633 4.393709,-6.916136 4.393707,-2.544769 10.841559,-2.544769 5.739476,0 9.424807,1.660335 l 0,-0.774745 q 0,-2.988141 -2.622028,-4.758164 -2.622027,-1.825444 -6.44933,-1.825444 -2.834983,0 -5.17307,1.050699 -2.267099,1.050697 -3.117447,2.877296 l -5.959826,-1.991708 q 1.205276,-2.433926 4.747157,-4.481057 3.54336,-2.102551 9.35382,-2.102551 6.660808,0 11.054517,3.042407 4.393707,3.042408 4.393707,8.575317 l 0,16.377041 -6.236373,0 0,-3.761731 -0.283942,0 q -3.896809,4.653093 -11.409443,4.653093 m 1.063303,-4.653093 q 4.038781,0 7.299678,-2.320774 3.330404,-2.378504 3.330404,-5.588331 -2.763999,-1.770023 -8.290517,-1.770023 -4.747157,0 -7.157707,1.604913 -2.40907,1.604913 -2.40907,3.761732 0,1.991709 2.196114,3.15325 2.196115,1.16616 5.031098,1.16616" />
</svg>
