<?xml version="1.0" encoding="UTF-8" standalone="no"?>
<svg
   xmlns:dc="http://purl.org/dc/elements/1.1/"
   xmlns:cc="http://creativecommons.org/ns#"
   xmlns:rdf="http://www.w3.org/1999/02/22-rdf-syntax-ns#"
   xmlns:svg="http://www.w3.org/2000/svg"
   xmlns="http://www.w3.org/2000/svg"
   xmlns:sodipodi="http://sodipodi.sourceforge.net/DTD/sodipodi-0.dtd"
   xmlns:inkscape="http://www.inkscape.org/namespaces/inkscape"
   viewBox="0 0 64 64"
   id="svg2"
   version="1.1"
   inkscape:version="0.91 r13725"
   sodipodi:docname="application-x-font-afm.svg">
  <metadata
     id="metadata19">
    <rdf:RDF>
      <cc:Work
         rdf:about="">
        <dc:format>image/svg+xml</dc:format>
        <dc:type
           rdf:resource="http://purl.org/dc/dcmitype/StillImage" />
        <dc:title></dc:title>
      </cc:Work>
    </rdf:RDF>
  </metadata>
  <sodipodi:namedview
     pagecolor="#ffffff"
     bordercolor="#666666"
     borderopacity="1"
     objecttolerance="10"
     gridtolerance="10"
     guidetolerance="10"
     inkscape:pageopacity="0"
     inkscape:pageshadow="2"
     inkscape:window-width="1280"
     inkscape:window-height="694"
     id="namedview17"
     showgrid="true"
     inkscape:zoom="3.6875"
     inkscape:cx="-16.149705"
     inkscape:cy="32"
     inkscape:window-x="0"
     inkscape:window-y="0"
     inkscape:window-maximized="1"
     inkscape:current-layer="svg2">
    <inkscape:grid
       type="xygrid"
       id="grid4137" />
  </sodipodi:namedview>
  <defs
     id="defs4">
    <linearGradient
       id="0"
       x1="-74.46"
       y1="60.7"
       x2="-75.26"
       y2="2.356"
       gradientUnits="userSpaceOnUse"
       gradientTransform="matrix(1.07499,0,0,1.02929,113.079,0.074)">
      <stop
         stop-color="#d1d7df"
         id="stop7" />
      <stop
         offset="1"
         stop-color="#eaf0f2"
         id="stop9" />
    </linearGradient>
  </defs>
  <rect
     style="fill:#e6e6e6"
     id="rect13"
     rx="3.5785823"
     y="0.65025425"
     x="0.50847554"
     height="52.665592"
     width="62.983047" />
  <path
     style="fill:#4d4d4d"
     inkscape:connector-curvature="0"
     id="path15"
     d="m 39.941391,63.798959 q -5.576532,0 -9.364338,-2.559458 -3.717688,-2.559458 -3.717688,-6.769031 0,-4.550279 4.432284,-7.110925 4.432284,-2.61644 10.936746,-2.61644 5.789867,0 9.507555,1.707097 l 0,-0.796566 q 0,-3.072299 -2.645049,-4.892174 -2.645048,-1.876856 -6.505954,-1.876856 -2.859874,0 -5.218488,1.08029 -2.287004,1.08029 -3.144818,2.958334 l -6.012152,-2.047804 q 1.215858,-2.502475 4.788836,-4.607262 3.57447,-2.161768 9.435945,-2.161768 6.719288,0 11.151573,3.128094 4.432283,3.128095 4.432283,8.816835 l 0,16.838291 -6.291127,0 0,-3.867679 -0.286435,0 q -3.931022,4.784145 -11.509615,4.784145 m 1.072638,-4.784145 q 4.074241,0 7.363768,-2.386137 3.359644,-2.445493 3.359644,-5.745722 -2.788267,-1.819875 -8.363306,-1.819875 -4.788836,0 -7.22055,1.650114 -2.430222,1.650115 -2.430222,3.867679 0,2.047804 2.215396,3.24206 2.215396,1.199004 5.07527,1.199004" />
</svg>
