<?xml version="1.0" encoding="UTF-8" standalone="no"?>
<svg
   xmlns:dc="http://purl.org/dc/elements/1.1/"
   xmlns:cc="http://creativecommons.org/ns#"
   xmlns:rdf="http://www.w3.org/1999/02/22-rdf-syntax-ns#"
   xmlns:svg="http://www.w3.org/2000/svg"
   xmlns="http://www.w3.org/2000/svg"
   xmlns:xlink="http://www.w3.org/1999/xlink"
   xmlns:sodipodi="http://sodipodi.sourceforge.net/DTD/sodipodi-0.dtd"
   xmlns:inkscape="http://www.inkscape.org/namespaces/inkscape"
   viewBox="0 0 64 64"
   id="svg13202"
   version="1.1"
   inkscape:version="0.91 r13725"
   sodipodi:docname="folder-videos.svg">
  <metadata
     id="metadata13228">
    <rdf:RDF>
      <cc:Work
         rdf:about="">
        <dc:format>image/svg+xml</dc:format>
        <dc:type
           rdf:resource="http://purl.org/dc/dcmitype/StillImage" />
        <dc:title></dc:title>
      </cc:Work>
    </rdf:RDF>
  </metadata>
  <sodipodi:namedview
     pagecolor="#ffffff"
     bordercolor="#666666"
     borderopacity="1"
     objecttolerance="10"
     gridtolerance="10"
     guidetolerance="10"
     inkscape:pageopacity="0"
     inkscape:pageshadow="2"
     inkscape:window-width="1280"
     inkscape:window-height="694"
     id="namedview13226"
     showgrid="false"
     inkscape:zoom="3.6875"
     inkscape:cx="-15.956817"
     inkscape:cy="32"
     inkscape:window-x="0"
     inkscape:window-y="0"
     inkscape:window-maximized="1"
     inkscape:current-layer="svg13202" />
  <defs
     id="defs13204">
    <linearGradient
       xlink:href="#1"
       id="3"
       x1="-19.915"
       y1="1048.7"
       x2="-19.996"
       y2="1025.51"
       gradientUnits="userSpaceOnUse"
       gradientTransform="translate(51.949,-1001.46)" />
    <linearGradient
       gradientUnits="userSpaceOnUse"
       y2="354.29"
       x2="-704.05"
       y1="647.77"
       x1="-701.19"
       id="2"
       gradientTransform="matrix(0.01590505,0,0,0.01845141,129.51168,-45.007092)">
      <stop
         stop-color="#93cfff"
         id="stop13208" />
      <stop
         offset="1"
         stop-color="#cde8fe"
         id="stop13210" />
    </linearGradient>
    <linearGradient
       xlink:href="#1"
       id="0"
       x1="59.12"
       y1="-13.295"
       x2="59.15"
       y2="-37.783"
       gradientUnits="userSpaceOnUse"
       gradientTransform="matrix(0.52660675,0,0,0.52570737,-19.441377,28.676662)" />
    <linearGradient
       id="1">
      <stop
         stop-color="#289bf7"
         id="stop13214" />
      <stop
         offset="1"
         stop-color="#71b9f1"
         id="stop13216" />
    </linearGradient>
  </defs>
  <g
     transform="matrix(1.0981882,0,0,1.1085225,0.28814034,-0.01156481)"
     id="g4158">
    <path
       id="path3"
       d="m 58,16.694284 -58,0 L 0,2.3625868 C 0,1.2028319 0.916,0.26271195 2.046,0.26271195 l 53.908,0 c 1.13,0 2.046,0.94011995 2.046,2.09987485 l 0,14.3316972 z"
       style="fill:#d45500"
       inkscape:connector-curvature="0" />
    <rect
       id="rect5"
       height="41.043011"
       width="52"
       style="fill:#ff9955"
       y="16.694284"
       x="3" />
    <path
       id="path7"
       d="m 38,12.588957 -18,0 c -2.209,0 -4,-1.83816 -4,-4.1053273 l 0,0 c 0,-2.267167 1.791,-4.1053272 4,-4.1053272 l 18,0 c 2.209,0 4,1.8381602 4,4.1053272 l 0,0 c 0,2.2671673 -1.791,4.1053273 -4,4.1053273 z"
       style="fill:#aa4400"
       inkscape:connector-curvature="0" />
    <rect
       id="rect9"
       height="5.131659"
       width="52"
       style="fill:#aa4400"
       y="52.605633"
       x="3" />
    <rect
       id="rect11"
       height="14.368646"
       width="28"
       style="fill:#ffccaa"
       y="24.894674"
       x="15" />
    <g
       style="fill:#aa4400"
       transform="matrix(1,0,0,1.0263318,0,-0.76361985)"
       id="g13">
      <path
         id="path15"
         d="m 19,31 6,0 c 0.553,0 1,-0.447 1,-1 0,-0.553 -0.447,-1 -1,-1 l -6,0 c -0.553,0 -1,0.447 -1,1 0,0.553 0.447,1 1,1 z"
         style="fill:#aa4400"
         inkscape:connector-curvature="0" />
      <path
         id="path17"
         d="m 29,31 c 0.26,0 0.52,-0.11 0.71,-0.29 C 29.89,30.52 30,30.26 30,30 c 0,-0.261 -0.11,-0.521 -0.29,-0.71 -0.38,-0.37 -1.05,-0.37 -1.42,0 C 28.109,29.479 28,29.739 28,30 c 0,0.27 0.109,0.52 0.29,0.71 C 28.479,30.89 28.729,31 29,31 Z"
         style="fill:#aa4400"
         inkscape:connector-curvature="0" />
      <path
         id="path19"
         d="m 39,33 -16,0 c -0.553,0 -1,0.447 -1,1 0,0.553 0.447,1 1,1 l 16,0 c 0.553,0 1,-0.447 1,-1 0,-0.553 -0.447,-1 -1,-1 z"
         style="fill:#aa4400"
         inkscape:connector-curvature="0" />
      <path
         id="path21"
         d="M 18.29,33.29 C 18.109,33.479 18,33.739 18,34 c 0,0.26 0.109,0.52 0.29,0.71 0.189,0.18 0.439,0.29 0.71,0.29 0.27,0 0.52,-0.11 0.71,-0.29 C 19.89,34.52 20,34.26 20,34 c 0,-0.261 -0.11,-0.521 -0.29,-0.71 -0.37,-0.37 -1.04,-0.37 -1.42,0 z"
         style="fill:#aa4400"
         inkscape:connector-curvature="0" />
    </g>
    <rect
       id="rect23"
       height="5.131659"
       width="52"
       style="fill:#aa4400"
       y="16.684021"
       x="3" />
  </g>
  <path
     inkscape:connector-curvature="0"
     style="fill:#ffffff"
     id="path24"
     d="m 47.993475,17.965316 14.115462,0 c 0.601094,0 1.092829,-0.501111 1.092829,-1.113742 l 0,-15.2624707 c 0,-0.6112126 -0.492114,-1.11374206 -1.092829,-1.11374206 l -14.115462,0 c -0.602443,0 -1.093546,0.50252946 -1.093546,1.11374206 l 0,15.2624707 c 0,0.612631 0.491103,1.113742 1.093546,1.113742 M 60.535587,1.837853 c 0,-0.1848642 0.148398,-0.334088 0.32795,-0.334088 l 1.024617,0 c 0.180944,0 0.327275,0.1492238 0.327275,0.334088 l 0,1.0760816 c 0,0.1848642 -0.146331,0.334088 -0.327275,0.334088 l -1.024617,0 c -0.179552,0 -0.32795,-0.1488798 -0.32795,-0.334088 l 0,-1.0760816 m 0,2.7372791 c 0,-0.1848642 0.148398,-0.334432 0.32795,-0.334432 l 1.024617,0 c 0.180944,0 0.327275,0.1495678 0.327275,0.334432 l 0,1.0760816 c 0,0.1845202 -0.146331,0.33512 -0.327275,0.33512 l -1.024617,0 c -0.179552,0 -0.32795,-0.1505998 -0.32795,-0.33512 l 0,-1.0760816 m 0,2.7394291 c 0,-0.1845202 0.148398,-0.33512 0.32795,-0.33512 l 1.024617,0 c 0.180944,0 0.327275,0.1505998 0.327275,0.33512 l 0,1.0765114 c 0,0.1831012 -0.146331,0.333744 -0.327275,0.333744 l -1.024617,0 c -0.179552,0 -0.32795,-0.1505998 -0.32795,-0.333744 l 0,-1.0765114 m 0,2.7372788 c 0,-0.1848633 0.148398,-0.3351199 0.32795,-0.3351199 l 1.024617,0 c 0.180944,0 0.327275,0.1502566 0.327275,0.3351199 l 0,1.076512 c 0,0.18452 -0.146331,0.334088 -0.327275,0.334088 l -1.024617,0 c -0.179552,0 -0.32795,-0.149568 -0.32795,-0.334088 l 0,-1.076512 m 0,2.73728 c 0,-0.184864 0.148398,-0.334088 0.32795,-0.334088 l 1.024617,0 c 0.180944,0 0.327275,0.14888 0.327275,0.334088 l 0,1.076941 c 0,0.183833 -0.146331,0.333401 -0.327275,0.333401 l -1.024617,0 c -0.179552,0 -0.32795,-0.149568 -0.32795,-0.333401 l 0,-1.076941 m 0,2.737279 c 0,-0.183832 0.148398,-0.334088 0.32795,-0.334088 l 1.024617,0 c 0.180944,0 0.327275,0.150256 0.327275,0.334088 l 0,1.078231 c 0,0.182414 -0.146331,0.333401 -0.327275,0.333401 l -1.024617,0 c -0.179552,0 -0.32795,-0.1506 -0.32795,-0.333401 l 0,-1.078231 M 50.690345,2.6452363 c 0,-0.1848641 0.147681,-0.334088 0.328624,-0.334088 l 8.064895,0 c 0.179932,0 0.327276,0.1492239 0.327276,0.334088 l 0,5.3283872 c 0,0.1831012 -0.147344,0.3351199 -0.327276,0.3351199 l -8.064895,0 c -0.180943,0 -0.328624,-0.1520187 -0.328624,-0.3351199 -4e-6,0 -4e-6,-5.3283872 -4e-6,-5.3283872 m 0,8.2165667 c 0,-0.183488 0.14768,-0.333056 0.328624,-0.333056 l 8.064895,0 c 0.179932,0 0.327275,0.149568 0.327275,0.333056 l 0,4.925555 c 0,0.183833 -0.147343,0.334089 -0.327275,0.334089 l -8.064895,0 c -0.180944,0 -0.328624,-0.150256 -0.328624,-0.334089 -5e-6,0 -5e-6,-4.925555 -5e-6,-4.925555 m -2.804373,-9.02438 c 0,-0.1848641 0.147343,-0.334088 0.327949,-0.334088 l 1.024997,0 c 0.179931,0 0.326937,0.1492239 0.326937,0.334088 l 0,1.0760816 c 0,0.1848642 -0.147006,0.334088 -0.326937,0.334088 l -1.024997,0 c -0.180606,0 -0.327949,-0.1488798 -0.327949,-0.334088 0,0 0,-1.0760816 0,-1.0760816 m 0,2.7372791 c 0,-0.1848641 0.147343,-0.334432 0.327949,-0.334432 l 1.024997,0 c 0.179931,0 0.326937,0.1495679 0.326937,0.334432 l 0,1.0760816 c 0,0.1845202 -0.147006,0.33512 -0.326937,0.33512 l -1.024997,0 c -0.180606,0 -0.327949,-0.1505998 -0.327949,-0.33512 0,0 0,-1.0760816 0,-1.0760816 m 0,2.7394291 c 0,-0.1845202 0.147343,-0.33512 0.327949,-0.33512 l 1.024997,0 c 0.179931,0 0.326937,0.1505998 0.326937,0.33512 l 0,1.0765114 c 0,0.1831012 -0.147006,0.333744 -0.326937,0.333744 l -1.024997,0 c -0.180606,0 -0.327949,-0.1505998 -0.327949,-0.333744 0,0 0,-1.0765114 0,-1.0765114 m 0,2.7372798 c 0,-0.1848643 0.147343,-0.3351201 0.327949,-0.3351201 l 1.024997,0 c 0.179931,0 0.326937,0.1502558 0.326937,0.3351201 l 0,1.076511 c 0,0.18452 -0.147006,0.334088 -0.326937,0.334088 l -1.024997,0 c -0.180606,0 -0.327949,-0.149568 -0.327949,-0.334088 0,0 0,-1.076511 0,-1.076511 m 0,2.737279 c 0,-0.184864 0.147343,-0.334088 0.327949,-0.334088 l 1.024997,0 c 0.179931,0 0.326937,0.14888 0.326937,0.334088 l 0,1.076941 c 0,0.183833 -0.147006,0.333401 -0.326937,0.333401 l -1.024997,0 c -0.180606,0 -0.327949,-0.149568 -0.327949,-0.333401 0,0 0,-1.076941 0,-1.076941 m 0,2.737279 c 0,-0.183832 0.147343,-0.334088 0.327949,-0.334088 l 1.024997,0 c 0.179931,0 0.326937,0.150256 0.326937,0.334088 l 0,1.078231 c 0,0.182414 -0.147006,0.333401 -0.326937,0.333401 l -1.024997,0 c -0.180606,0 -0.327949,-0.1506 -0.327949,-0.333401 0,-4e-6 0,-1.078231 0,-1.078231" />
</svg>
