<?xml version="1.0" encoding="UTF-8" standalone="no"?>
<svg
   xmlns:dc="http://purl.org/dc/elements/1.1/"
   xmlns:cc="http://creativecommons.org/ns#"
   xmlns:rdf="http://www.w3.org/1999/02/22-rdf-syntax-ns#"
   xmlns:svg="http://www.w3.org/2000/svg"
   xmlns="http://www.w3.org/2000/svg"
   xmlns:xlink="http://www.w3.org/1999/xlink"
   xmlns:sodipodi="http://sodipodi.sourceforge.net/DTD/sodipodi-0.dtd"
   xmlns:inkscape="http://www.inkscape.org/namespaces/inkscape"
   viewBox="0 0 32 32"
   id="svg2"
   version="1.1"
   inkscape:version="0.91 r13725"
   sodipodi:docname="bookmarks.svg">
  <metadata
     id="metadata37">
    <rdf:RDF>
      <cc:Work
         rdf:about="">
        <dc:format>image/svg+xml</dc:format>
        <dc:type
           rdf:resource="http://purl.org/dc/dcmitype/StillImage" />
        <dc:title></dc:title>
      </cc:Work>
    </rdf:RDF>
  </metadata>
  <sodipodi:namedview
     pagecolor="#ffffff"
     bordercolor="#666666"
     borderopacity="1"
     objecttolerance="10"
     gridtolerance="10"
     guidetolerance="10"
     inkscape:pageopacity="0"
     inkscape:pageshadow="2"
     inkscape:window-width="1280"
     inkscape:window-height="694"
     id="namedview35"
     showgrid="false"
     inkscape:zoom="7.375"
     inkscape:cx="-31.271262"
     inkscape:cy="16"
     inkscape:window-x="0"
     inkscape:window-y="0"
     inkscape:window-maximized="1"
     inkscape:current-layer="svg2" />
  <defs
     id="defs4">
    <linearGradient
       xlink:href="#1"
       id="3"
       x1="-86.21"
       y1="428.69"
       x2="-84.65"
       y2="285.59"
       gradientUnits="userSpaceOnUse"
       gradientTransform="matrix(0.06624,0,0,0.06624,21.76,-6.37)" />
    <linearGradient
       gradientUnits="userSpaceOnUse"
       y2="352.98"
       x2="-601.15"
       y1="663.95"
       x1="-591.02"
       id="4"
       gradientTransform="matrix(0.05573986,0,0,0.06673193,52.700408,-17.591351)">
      <stop
         stop-color="#289bf7"
         id="stop8" />
      <stop
         offset="1"
         stop-color="#4caaf4"
         id="stop10" />
    </linearGradient>
    <linearGradient
       gradientUnits="userSpaceOnUse"
       y2="354.29"
       x2="-704.05"
       y1="647.77"
       x1="-701.19"
       id="2"
       gradientTransform="matrix(0.00311364,0,0,0.00311364,55.682892,-11.03311)">
      <stop
         stop-color="#9fd2fa"
         id="stop13" />
      <stop
         offset="1"
         stop-color="#cde8fe"
         id="stop15" />
    </linearGradient>
    <linearGradient
       xlink:href="#1"
       id="0"
       x1="59.12"
       y1="-13.295"
       x2="59.15"
       y2="-37.783"
       gradientUnits="userSpaceOnUse"
       gradientTransform="matrix(0.23295272,0,0,0.23255487,-6.94926,14.533334)" />
    <linearGradient
       id="1">
      <stop
         stop-color="#289bf7"
         id="stop19" />
      <stop
         offset="1"
         stop-color="#71b9f1"
         id="stop21" />
    </linearGradient>
  </defs>
  <rect
     y="5.8151612"
     x="3.4831016"
     height="19.694597"
     width="25.854935"
     rx="0.53677487"
     id="rect31"
     style="fill:#80b3ff;stroke:none;stroke-width:0.32787555;stroke-linecap:round;stroke-linejoin:round" />
  <path
     inkscape:connector-curvature="0"
     style="fill:#ffffff"
     id="path33"
     d="M 28.041934,17.21866 24.319246,16.672909 22.65066,13.270822 c -0.09386,-0.20435 -0.215081,-0.306492 -0.363392,-0.306492 -0.148312,0 -0.269465,0.102142 -0.363393,0.306492 l -1.668586,3.402087 -3.722688,0.545751 c -0.276817,0.04484 -0.415258,0.159506 -0.415258,0.343918 0,0.104726 0.0618,0.224355 0.185405,0.358889 l 2.699545,2.646619 -0.637758,3.737923 c -0.0099,0.06982 -0.01484,0.119762 -0.01484,0.14957 0,0.104725 0.02597,0.19309 0.07783,0.265622 0.05187,0.07233 0.129698,0.108369 0.233562,0.108369 0.08903,0 0.187857,-0.02974 0.296689,-0.08962 l 3.329885,-1.764567 3.329885,1.764567 c 0.10393,0.05981 0.202827,0.08962 0.296556,0.08962 0.09916,0 0.17441,-0.03597 0.226276,-0.108369 0.0518,-0.07233 0.07777,-0.160764 0.07777,-0.265622 0,-0.06478 -0.0025,-0.114595 -0.0075,-0.14957 l -0.637825,-3.737923 2.69206,-2.646619 c 0.128704,-0.129566 0.19289,-0.249262 0.19289,-0.358889 0,-0.184478 -0.138375,-0.299073 -0.415457,-0.343918" />
</svg>
