<?xml version="1.0" encoding="UTF-8" standalone="no"?>
<svg
   xmlns:dc="http://purl.org/dc/elements/1.1/"
   xmlns:cc="http://creativecommons.org/ns#"
   xmlns:rdf="http://www.w3.org/1999/02/22-rdf-syntax-ns#"
   xmlns:svg="http://www.w3.org/2000/svg"
   xmlns="http://www.w3.org/2000/svg"
   xmlns:xlink="http://www.w3.org/1999/xlink"
   xmlns:sodipodi="http://sodipodi.sourceforge.net/DTD/sodipodi-0.dtd"
   xmlns:inkscape="http://www.inkscape.org/namespaces/inkscape"
   viewBox="0 0 32 32"
   id="svg2"
   version="1.1"
   inkscape:version="0.91 r13725"
   sodipodi:docname="folder-tar.svg">
  <metadata
     id="metadata37">
    <rdf:RDF>
      <cc:Work
         rdf:about="">
        <dc:format>image/svg+xml</dc:format>
        <dc:type
           rdf:resource="http://purl.org/dc/dcmitype/StillImage" />
        <dc:title></dc:title>
      </cc:Work>
    </rdf:RDF>
  </metadata>
  <sodipodi:namedview
     pagecolor="#ffffff"
     bordercolor="#666666"
     borderopacity="1"
     objecttolerance="10"
     gridtolerance="10"
     guidetolerance="10"
     inkscape:pageopacity="0"
     inkscape:pageshadow="2"
     inkscape:window-width="1280"
     inkscape:window-height="694"
     id="namedview35"
     showgrid="false"
     inkscape:zoom="7.375"
     inkscape:cx="-29.883712"
     inkscape:cy="16"
     inkscape:window-x="0"
     inkscape:window-y="0"
     inkscape:window-maximized="1"
     inkscape:current-layer="svg2" />
  <defs
     id="defs4">
    <linearGradient
       xlink:href="#1"
       id="3"
       x1="-86.21"
       y1="428.69"
       x2="-84.65"
       y2="285.59"
       gradientUnits="userSpaceOnUse"
       gradientTransform="matrix(0.06624,0,0,0.06624,21.76,-6.37)" />
    <linearGradient
       gradientUnits="userSpaceOnUse"
       y2="352.98"
       x2="-601.15"
       y1="663.95"
       x1="-591.02"
       id="4"
       gradientTransform="matrix(0.05573986,0,0,0.06673193,52.700408,-17.591351)">
      <stop
         stop-color="#289bf7"
         id="stop8" />
      <stop
         offset="1"
         stop-color="#4caaf4"
         id="stop10" />
    </linearGradient>
    <linearGradient
       gradientUnits="userSpaceOnUse"
       y2="354.29"
       x2="-704.05"
       y1="647.77"
       x1="-701.19"
       id="2"
       gradientTransform="matrix(0.00311364,0,0,0.00311364,55.682892,-11.03311)">
      <stop
         stop-color="#9fd2fa"
         id="stop13" />
      <stop
         offset="1"
         stop-color="#cde8fe"
         id="stop15" />
    </linearGradient>
    <linearGradient
       xlink:href="#1"
       id="0"
       x1="59.12"
       y1="-13.295"
       x2="59.15"
       y2="-37.783"
       gradientUnits="userSpaceOnUse"
       gradientTransform="matrix(0.23295272,0,0,0.23255487,-6.94926,14.533334)" />
    <linearGradient
       id="1">
      <stop
         stop-color="#289bf7"
         id="stop19" />
      <stop
         offset="1"
         stop-color="#71b9f1"
         id="stop21" />
    </linearGradient>
  </defs>
  <rect
     y="5.8151612"
     x="3.4831016"
     height="19.694597"
     width="25.854935"
     rx="0.53677487"
     id="rect31"
     style="fill:#80b3ff;stroke:none;stroke-width:0.32787555;stroke-linecap:round;stroke-linejoin:round" />
  <path
     inkscape:connector-curvature="0"
     style="opacity:0.92900002;fill:#ffffff"
     id="path31"
     d="m 26.327599,12.984303 c -0.29218,0 -0.528261,0.235497 -0.528261,0.528261 l 0,0.130897 c 0,0.29218 0.235497,0.528261 0.528261,0.528261 l 1.320069,0 c 0.29218,0 0.528262,-0.235497 0.528262,-0.528261 l 0,-0.130897 c 0,-0.29218 -0.235497,-0.528261 -0.528262,-0.528261 l -1.320069,0 m 0.02571,1.764767 c -0.29218,0 -0.528262,0.235497 -0.528262,0.528261 l 0,0.130897 c 0,0.29218 0.235497,0.528261 0.528262,0.528261 l 1.320069,0 c 0.29218,0 0.528262,-0.235497 0.528262,-0.528261 l 0,-0.130897 c 0,-0.29218 -0.235498,-0.528261 -0.528262,-0.528261 l -1.320069,0 m 0,1.734965 c -0.29218,0 -0.528262,0.235497 -0.528262,0.528261 l 0,0.133234 c 0,0.29218 0.235497,0.528262 0.528262,0.528262 l 1.320069,0 c 0.29218,0 0.528262,-0.235497 0.528262,-0.528262 l 0,-0.133234 c 0,-0.29218 -0.235498,-0.528261 -0.528262,-0.528261 l -1.320069,0 m 0,1.776454 c -0.29218,0 -0.528262,0.235497 -0.528262,0.528261 l 0,0.133235 c 0,0.29218 0.235497,0.528261 0.528262,0.528261 l 1.320069,0 c 0.29218,0 0.528262,-0.235497 0.528262,-0.528261 l 0,-0.133235 c 0,-0.29218 -0.235498,-0.528261 -0.528262,-0.528261 l -1.320069,0 m 0.105185,1.796323 c -0.208033,0 -0.376913,0.170633 -0.376913,0.379249 l 0,0.748565 -0.581438,1.71685 c -0.163036,0.478591 -0.08532,1.010943 0.208617,1.423501 0.293348,0.41139 0.770186,0.656821 1.274489,0.656821 0.504303,0 0.980556,-0.246016 1.274489,-0.656821 0.293349,-0.411974 0.371069,-0.94491 0.208617,-1.423501 l -0.581439,-1.71685 0,-0.748565 c 0,-0.208616 -0.16888,-0.379249 -0.376912,-0.379249 l -1.048342,0 m -0.04558,2.515085 1.139502,0 0.196345,0.575595 c 0.08356,0.2466 0.04207,0.521833 -0.109275,0.73454 -0.302114,0.424246 -1.012112,0.424246 -1.314226,0 -0.151349,-0.212707 -0.192839,-0.487356 -0.109275,-0.73454 l 0.196345,-0.575595" />
</svg>
