<?xml version="1.0" encoding="UTF-8" standalone="no"?>
<svg
   xmlns:dc="http://purl.org/dc/elements/1.1/"
   xmlns:cc="http://creativecommons.org/ns#"
   xmlns:rdf="http://www.w3.org/1999/02/22-rdf-syntax-ns#"
   xmlns:svg="http://www.w3.org/2000/svg"
   xmlns="http://www.w3.org/2000/svg"
   xmlns:xlink="http://www.w3.org/1999/xlink"
   xmlns:sodipodi="http://sodipodi.sourceforge.net/DTD/sodipodi-0.dtd"
   xmlns:inkscape="http://www.inkscape.org/namespaces/inkscape"
   viewBox="0 0 32 32"
   id="svg2"
   version="1.1"
   inkscape:version="0.91 r13725"
   sodipodi:docname="folder-github.svg">
  <metadata
     id="metadata37">
    <rdf:RDF>
      <cc:Work
         rdf:about="">
        <dc:format>image/svg+xml</dc:format>
        <dc:type
           rdf:resource="http://purl.org/dc/dcmitype/StillImage" />
        <dc:title></dc:title>
      </cc:Work>
    </rdf:RDF>
  </metadata>
  <sodipodi:namedview
     pagecolor="#ffffff"
     bordercolor="#666666"
     borderopacity="1"
     objecttolerance="10"
     gridtolerance="10"
     guidetolerance="10"
     inkscape:pageopacity="0"
     inkscape:pageshadow="2"
     inkscape:window-width="1280"
     inkscape:window-height="694"
     id="namedview35"
     showgrid="false"
     inkscape:zoom="7.375"
     inkscape:cx="-32.658813"
     inkscape:cy="16"
     inkscape:window-x="0"
     inkscape:window-y="0"
     inkscape:window-maximized="1"
     inkscape:current-layer="svg2" />
  <defs
     id="defs4">
    <linearGradient
       xlink:href="#1"
       id="3"
       x1="-86.21"
       y1="428.69"
       x2="-84.65"
       y2="285.59"
       gradientUnits="userSpaceOnUse"
       gradientTransform="matrix(0.06624,0,0,0.06624,21.76,-6.37)" />
    <linearGradient
       gradientUnits="userSpaceOnUse"
       y2="352.98"
       x2="-601.15"
       y1="663.95"
       x1="-591.02"
       id="4"
       gradientTransform="matrix(0.05573986,0,0,0.06673193,52.700408,-17.591351)">
      <stop
         stop-color="#289bf7"
         id="stop8" />
      <stop
         offset="1"
         stop-color="#4caaf4"
         id="stop10" />
    </linearGradient>
    <linearGradient
       gradientUnits="userSpaceOnUse"
       y2="354.29"
       x2="-704.05"
       y1="647.77"
       x1="-701.19"
       id="2"
       gradientTransform="matrix(0.00311364,0,0,0.00311364,55.682892,-11.03311)">
      <stop
         stop-color="#9fd2fa"
         id="stop13" />
      <stop
         offset="1"
         stop-color="#cde8fe"
         id="stop15" />
    </linearGradient>
    <linearGradient
       xlink:href="#1"
       id="0"
       x1="59.12"
       y1="-13.295"
       x2="59.15"
       y2="-37.783"
       gradientUnits="userSpaceOnUse"
       gradientTransform="matrix(0.23295272,0,0,0.23255487,-6.94926,14.533334)" />
    <linearGradient
       id="1">
      <stop
         stop-color="#289bf7"
         id="stop19" />
      <stop
         offset="1"
         stop-color="#71b9f1"
         id="stop21" />
    </linearGradient>
  </defs>
  <rect
     y="5.8151612"
     x="3.4831016"
     height="19.694597"
     width="25.854935"
     rx="0.53677487"
     id="rect31"
     style="fill:#80b3ff;stroke:none;stroke-width:0.32787555;stroke-linecap:round;stroke-linejoin:round" />
  <path
     d="m 27.770974,16.071905 c -0.543,-0.934 -1.281,-1.673 -2.212,-2.218 -0.931,-0.545 -1.948,-0.817 -3.051,-0.817 -1.103,0 -2.12,0.273 -3.051,0.817 -0.931,0.545 -1.668,1.284 -2.212,2.218 -0.543,0.934 -0.815,1.953 -0.815,3.059 0,1.328 0.386,2.522 1.159,3.583 0.773,1.061 1.771,1.795 2.995,2.202 0.142,0.027 0.248,0.008 0.317,-0.055 0.069,-0.063 0.103,-0.143 0.103,-0.238 0,-0.016 -10e-5,-0.159 -0.004,-0.428 -0.003,-0.27 -0.004,-0.505 -0.004,-0.706 l -0.182,0.032 c -0.116,0.021 -0.262,0.03 -0.439,0.028 -0.177,-0.002 -0.36,-0.021 -0.55,-0.056 -0.19,-0.034 -0.367,-0.114 -0.53,-0.238 -0.163,-0.124 -0.28,-0.287 -0.348,-0.488 l -0.079,-0.183 c -0.053,-0.122 -0.136,-0.257 -0.249,-0.405 -0.113,-0.148 -0.228,-0.249 -0.344,-0.302 l -0.055,-0.04 c -0.037,-0.027 -0.071,-0.058 -0.103,-0.095 -0.032,-0.037 -0.055,-0.074 -0.071,-0.111 -0.016,-0.037 -0.003,-0.067 0.039,-0.091 0.042,-0.024 0.119,-0.035 0.23,-0.035 l 0.158,0.024 c 0.105,0.021 0.236,0.085 0.392,0.19 0.156,0.106 0.284,0.243 0.384,0.412 0.121,0.217 0.268,0.382 0.439,0.496 0.171,0.114 0.344,0.171 0.518,0.171 0.174,0 0.324,-0.013 0.451,-0.04 0.127,-0.026 0.245,-0.066 0.356,-0.119 0.048,-0.355 0.177,-0.627 0.388,-0.817 -0.301,-0.032 -0.571,-0.08 -0.811,-0.143 -0.24,-0.063 -0.488,-0.167 -0.744,-0.31 -0.256,-0.143 -0.468,-0.32 -0.637,-0.532 -0.169,-0.212 -0.307,-0.489 -0.415,-0.833 -0.108,-0.344 -0.162,-0.741 -0.162,-1.19 0,-0.64 0.208,-1.185 0.625,-1.635 -0.195,-0.481 -0.177,-1.021 0.055,-1.619 0.153,-0.048 0.38,-0.012 0.681,0.107 0.301,0.119 0.521,0.221 0.661,0.306 0.14,0.085 0.252,0.156 0.336,0.214 0.491,-0.138 0.997,-0.206 1.519,-0.206 0.522,0 1.029,0.069 1.52,0.206 l 0.301,-0.19 c 0.206,-0.127 0.448,-0.243 0.728,-0.349 0.28,-0.106 0.493,-0.135 0.641,-0.087 0.237,0.598 0.258,1.137 0.063,1.619 0.417,0.45 0.625,0.995 0.625,1.635 0,0.45 -0.054,0.848 -0.162,1.194 -0.108,0.347 -0.248,0.624 -0.419,0.833 -0.172,0.209 -0.385,0.385 -0.641,0.528 -0.256,0.143 -0.504,0.246 -0.744,0.31 -0.24,0.063 -0.51,0.111 -0.811,0.143 0.274,0.238 0.411,0.614 0.411,1.127 l 0,1.674 c 0,0.095 0.033,0.175 0.099,0.238 0.066,0.063 0.17,0.082 0.313,0.056 1.224,-0.407 2.222,-1.141 2.995,-2.202 0.773,-1.061 1.159,-2.255 1.159,-3.583 0,-1.105 -0.272,-2.125 -0.815,-3.059 z"
     id="path453"
     style="fill:#ffffff;stroke:none;stroke-width:0.25999999"
     inkscape:connector-curvature="0" />
</svg>
