<?xml version="1.0" encoding="UTF-8" standalone="no"?>
<svg
   xmlns:dc="http://purl.org/dc/elements/1.1/"
   xmlns:cc="http://creativecommons.org/ns#"
   xmlns:rdf="http://www.w3.org/1999/02/22-rdf-syntax-ns#"
   xmlns:svg="http://www.w3.org/2000/svg"
   xmlns="http://www.w3.org/2000/svg"
   xmlns:xlink="http://www.w3.org/1999/xlink"
   xmlns:sodipodi="http://sodipodi.sourceforge.net/DTD/sodipodi-0.dtd"
   xmlns:inkscape="http://www.inkscape.org/namespaces/inkscape"
   viewBox="0 0 32 32"
   id="svg2"
   version="1.1"
   inkscape:version="0.91 r13725"
   sodipodi:docname="folder-wifi.svg">
  <metadata
     id="metadata37">
    <rdf:RDF>
      <cc:Work
         rdf:about="">
        <dc:format>image/svg+xml</dc:format>
        <dc:type
           rdf:resource="http://purl.org/dc/dcmitype/StillImage" />
        <dc:title></dc:title>
      </cc:Work>
    </rdf:RDF>
  </metadata>
  <sodipodi:namedview
     pagecolor="#ffffff"
     bordercolor="#666666"
     borderopacity="1"
     objecttolerance="10"
     gridtolerance="10"
     guidetolerance="10"
     inkscape:pageopacity="0"
     inkscape:pageshadow="2"
     inkscape:window-width="1280"
     inkscape:window-height="694"
     id="namedview35"
     showgrid="false"
     inkscape:zoom="7.375"
     inkscape:cx="-28.694383"
     inkscape:cy="16"
     inkscape:window-x="0"
     inkscape:window-y="0"
     inkscape:window-maximized="1"
     inkscape:current-layer="svg2" />
  <defs
     id="defs4">
    <linearGradient
       xlink:href="#1"
       id="3"
       x1="-86.21"
       y1="428.69"
       x2="-84.65"
       y2="285.59"
       gradientUnits="userSpaceOnUse"
       gradientTransform="matrix(0.06624,0,0,0.06624,21.76,-6.37)" />
    <linearGradient
       gradientUnits="userSpaceOnUse"
       y2="352.98"
       x2="-601.15"
       y1="663.95"
       x1="-591.02"
       id="4"
       gradientTransform="matrix(0.05573986,0,0,0.06673193,52.700408,-17.591351)">
      <stop
         stop-color="#289bf7"
         id="stop8" />
      <stop
         offset="1"
         stop-color="#4caaf4"
         id="stop10" />
    </linearGradient>
    <linearGradient
       gradientUnits="userSpaceOnUse"
       y2="354.29"
       x2="-704.05"
       y1="647.77"
       x1="-701.19"
       id="2"
       gradientTransform="matrix(0.00311364,0,0,0.00311364,55.682892,-11.03311)">
      <stop
         stop-color="#9fd2fa"
         id="stop13" />
      <stop
         offset="1"
         stop-color="#cde8fe"
         id="stop15" />
    </linearGradient>
    <linearGradient
       xlink:href="#1"
       id="0"
       x1="59.12"
       y1="-13.295"
       x2="59.15"
       y2="-37.783"
       gradientUnits="userSpaceOnUse"
       gradientTransform="matrix(0.23295272,0,0,0.23255487,-6.94926,14.533334)" />
    <linearGradient
       id="1">
      <stop
         stop-color="#289bf7"
         id="stop19" />
      <stop
         offset="1"
         stop-color="#71b9f1"
         id="stop21" />
    </linearGradient>
  </defs>
  <rect
     y="5.8151612"
     x="3.4831016"
     height="19.694597"
     width="25.854935"
     rx="0.53677487"
     id="rect31"
     style="fill:#80b3ff;stroke:none;stroke-width:0.32787555;stroke-linecap:round;stroke-linejoin:round" />
  <path
     inkscape:connector-curvature="0"
     style="fill:#ffffff"
     id="path33"
     d="m 21.288136,14.323201 c -2.832837,0 -5.496628,1.10413 -7.500256,3.106867 l 1.143278,1.143278 c 1.697567,-1.697567 3.955651,-2.632652 6.356978,-2.632652 2.401327,0 4.658521,0.935085 6.356977,2.632652 l 1.143277,-1.143278 c -2.002737,-2.003627 -4.666529,-3.106867 -7.500254,-3.106867 m 0,2.873763 c -2.065907,0 -4.008144,0.803408 -5.468158,2.264312 l 1.145057,1.143278 c 1.154844,-1.154844 2.686924,-1.788318 4.323101,-1.788318 1.633508,0 3.168256,0.636143 4.3231,1.788318 l 1.145057,-1.143278 c -1.460014,-1.460904 -3.40314,-2.264312 -5.468157,-2.264312 m 0,2.875543 c -1.297197,0 -2.51699,0.504466 -3.433391,1.421757 l 1.143277,1.145056 c 0.611231,-0.61212 1.425316,-0.94843 2.290114,-0.94843 0.864798,0 1.678883,0.3372 2.290114,0.94843 l 1.143276,-1.145056 c -0.917291,-0.917291 -2.136193,-1.421757 -3.43339,-1.421757 m 0,3.212743 c -0.419943,0 -0.839886,0.161037 -1.161072,0.481333 -0.01157,0.01157 -0.02224,0.02313 -0.03292,0.0347 l 1.193991,1.197549 1.19755,-1.193991 c -0.01157,-0.01245 -0.02402,-0.0258 -0.03648,-0.03826 -0.320296,-0.320296 -0.740239,-0.481333 -1.161072,-0.481333" />
</svg>
