<?xml version="1.0" encoding="UTF-8" standalone="no"?>
<svg
   xmlns:dc="http://purl.org/dc/elements/1.1/"
   xmlns:cc="http://creativecommons.org/ns#"
   xmlns:rdf="http://www.w3.org/1999/02/22-rdf-syntax-ns#"
   xmlns:svg="http://www.w3.org/2000/svg"
   xmlns="http://www.w3.org/2000/svg"
   xmlns:xlink="http://www.w3.org/1999/xlink"
   xmlns:sodipodi="http://sodipodi.sourceforge.net/DTD/sodipodi-0.dtd"
   xmlns:inkscape="http://www.inkscape.org/namespaces/inkscape"
   viewBox="0 0 32 32"
   id="svg2"
   version="1.1"
   inkscape:version="0.91 r13725"
   sodipodi:docname="folder-vbox.svg">
  <metadata
     id="metadata37">
    <rdf:RDF>
      <cc:Work
         rdf:about="">
        <dc:format>image/svg+xml</dc:format>
        <dc:type
           rdf:resource="http://purl.org/dc/dcmitype/StillImage" />
        <dc:title></dc:title>
      </cc:Work>
    </rdf:RDF>
  </metadata>
  <sodipodi:namedview
     pagecolor="#ffffff"
     bordercolor="#666666"
     borderopacity="1"
     objecttolerance="10"
     gridtolerance="10"
     guidetolerance="10"
     inkscape:pageopacity="0"
     inkscape:pageshadow="2"
     inkscape:window-width="1280"
     inkscape:window-height="694"
     id="namedview35"
     showgrid="false"
     inkscape:zoom="7.375"
     inkscape:cx="-27.901497"
     inkscape:cy="16"
     inkscape:window-x="0"
     inkscape:window-y="0"
     inkscape:window-maximized="1"
     inkscape:current-layer="svg2" />
  <defs
     id="defs4">
    <linearGradient
       xlink:href="#1"
       id="3"
       x1="-86.21"
       y1="428.69"
       x2="-84.65"
       y2="285.59"
       gradientUnits="userSpaceOnUse"
       gradientTransform="matrix(0.06624,0,0,0.06624,21.76,-6.37)" />
    <linearGradient
       gradientUnits="userSpaceOnUse"
       y2="352.98"
       x2="-601.15"
       y1="663.95"
       x1="-591.02"
       id="4"
       gradientTransform="matrix(0.05573986,0,0,0.06673193,52.700408,-17.591351)">
      <stop
         stop-color="#289bf7"
         id="stop8" />
      <stop
         offset="1"
         stop-color="#4caaf4"
         id="stop10" />
    </linearGradient>
    <linearGradient
       gradientUnits="userSpaceOnUse"
       y2="354.29"
       x2="-704.05"
       y1="647.77"
       x1="-701.19"
       id="2"
       gradientTransform="matrix(0.00311364,0,0,0.00311364,55.682892,-11.03311)">
      <stop
         stop-color="#9fd2fa"
         id="stop13" />
      <stop
         offset="1"
         stop-color="#cde8fe"
         id="stop15" />
    </linearGradient>
    <linearGradient
       xlink:href="#1"
       id="0"
       x1="59.12"
       y1="-13.295"
       x2="59.15"
       y2="-37.783"
       gradientUnits="userSpaceOnUse"
       gradientTransform="matrix(0.23295272,0,0,0.23255487,-6.94926,14.533334)" />
    <linearGradient
       id="1">
      <stop
         stop-color="#289bf7"
         id="stop19" />
      <stop
         offset="1"
         stop-color="#71b9f1"
         id="stop21" />
    </linearGradient>
  </defs>
  <rect
     y="5.8151612"
     x="3.4831016"
     height="19.694597"
     width="25.854935"
     rx="0.53677487"
     id="rect31"
     style="fill:#80b3ff;stroke:none;stroke-width:0.32787555;stroke-linecap:round;stroke-linejoin:round" />
  <path
     inkscape:connector-curvature="0"
     style="fill:#ffffff"
     id="path31"
     d="m 22.779221,12.983051 a 6.00013,6.00013 0 0 0 -5.99956,6.00044 6.00013,6.00013 0 0 0 5.99956,5.99956 6.00013,6.00013 0 0 0 6.00044,-5.99956 6.00013,6.00013 0 0 0 -6.00044,-6.00044 m 1.514,2.672 c 0.022,10e-5 0.048,0.011 0.069,0.017 0.106,0.03 0.195,0.121 0.226,0.227 l 1.093,3.981 0.573,-0.777 c 0.058,-0.086 0.147,-0.146 0.251,-0.149 l 0.425,0 0.192,0 0.016,0 c 0.013,0 0.026,0.014 0.026,0.026 l 0,0.611 c 0,0.013 -0.013,0.017 -0.025,0.017 l -0.017,0 -0.192,0 -0.26,0 -0.841,1.17 c -0.144,0.19 -0.503,0.124 -0.573,-0.105 l -0.997,-3.545 -0.685,2.261 c -0.042,0.128 -0.178,0.216 -0.312,0.219 l -0.477,0 -0.096,0 -0.234,0 -0.086,0 -0.243,0 -0.928,3.072 c -0.046,0.167 -0.243,0.277 -0.408,0.227 -0.106,-0.03 -0.195,-0.121 -0.226,-0.227 l -1.102,-3.989 -0.563,0.777 c -0.058,0.087 -0.157,0.137 -0.26,0.139 l -0.416,0 -0.208,0 -0.026,0 c -0.012,0 -0.017,-0.005 -0.017,-0.017 l 0,-0.611 c 0,-0.013 0.005,-0.026 0.017,-0.026 l 0.026,0 0.208,0 0.26,0 0.841,-1.152 c 0.144,-0.19 0.502,-0.123 0.572,0.105 l 0.989,3.545 0.693,-2.27 c 0.042,-0.128 0.17,-0.225 0.304,-0.227 l 0.486,0 0.086,0 0.234,0 0.096,0 0.234,0 0.936,-3.055 c 0.035,-0.125 0.151,-0.219 0.278,-0.236 0.021,-0.002 0.039,-0.008 0.061,-0.008" />
</svg>
