<?xml version="1.0" encoding="UTF-8" standalone="no"?>
<svg
   xmlns:dc="http://purl.org/dc/elements/1.1/"
   xmlns:cc="http://creativecommons.org/ns#"
   xmlns:rdf="http://www.w3.org/1999/02/22-rdf-syntax-ns#"
   xmlns:svg="http://www.w3.org/2000/svg"
   xmlns="http://www.w3.org/2000/svg"
   xmlns:xlink="http://www.w3.org/1999/xlink"
   xmlns:sodipodi="http://sodipodi.sourceforge.net/DTD/sodipodi-0.dtd"
   xmlns:inkscape="http://www.inkscape.org/namespaces/inkscape"
   viewBox="0 0 32 32"
   id="svg2"
   version="1.1"
   inkscape:version="0.91 r13725"
   sodipodi:docname="folder-templates.svg">
  <metadata
     id="metadata37">
    <rdf:RDF>
      <cc:Work
         rdf:about="">
        <dc:format>image/svg+xml</dc:format>
        <dc:type
           rdf:resource="http://purl.org/dc/dcmitype/StillImage" />
        <dc:title></dc:title>
      </cc:Work>
    </rdf:RDF>
  </metadata>
  <sodipodi:namedview
     pagecolor="#ffffff"
     bordercolor="#666666"
     borderopacity="1"
     objecttolerance="10"
     gridtolerance="10"
     guidetolerance="10"
     inkscape:pageopacity="0"
     inkscape:pageshadow="2"
     inkscape:window-width="1280"
     inkscape:window-height="694"
     id="namedview35"
     showgrid="false"
     inkscape:zoom="7.375"
     inkscape:cx="-3.3220339"
     inkscape:cy="16"
     inkscape:window-x="0"
     inkscape:window-y="0"
     inkscape:window-maximized="1"
     inkscape:current-layer="svg2" />
  <defs
     id="defs4">
    <linearGradient
       xlink:href="#1"
       id="3"
       x1="-86.21"
       y1="428.69"
       x2="-84.65"
       y2="285.59"
       gradientUnits="userSpaceOnUse"
       gradientTransform="matrix(0.06624,0,0,0.06624,21.76,-6.37)" />
    <linearGradient
       gradientUnits="userSpaceOnUse"
       y2="352.98"
       x2="-601.15"
       y1="663.95"
       x1="-591.02"
       id="4"
       gradientTransform="matrix(0.05573986,0,0,0.06673193,52.700408,-17.591351)">
      <stop
         stop-color="#289bf7"
         id="stop8" />
      <stop
         offset="1"
         stop-color="#4caaf4"
         id="stop10" />
    </linearGradient>
    <linearGradient
       gradientUnits="userSpaceOnUse"
       y2="354.29"
       x2="-704.05"
       y1="647.77"
       x1="-701.19"
       id="2"
       gradientTransform="matrix(0.00311364,0,0,0.00311364,55.682892,-11.03311)">
      <stop
         stop-color="#9fd2fa"
         id="stop13" />
      <stop
         offset="1"
         stop-color="#cde8fe"
         id="stop15" />
    </linearGradient>
    <linearGradient
       xlink:href="#1"
       id="0"
       x1="59.12"
       y1="-13.295"
       x2="59.15"
       y2="-37.783"
       gradientUnits="userSpaceOnUse"
       gradientTransform="matrix(0.23295272,0,0,0.23255487,-6.94926,14.533334)" />
    <linearGradient
       id="1">
      <stop
         stop-color="#289bf7"
         id="stop19" />
      <stop
         offset="1"
         stop-color="#71b9f1"
         id="stop21" />
    </linearGradient>
  </defs>
  <rect
     y="5.8151612"
     x="3.4831016"
     height="19.694597"
     width="25.854935"
     rx="0.53677487"
     id="rect31"
     style="fill:#80b3ff;stroke:none;stroke-width:0.32787555;stroke-linecap:round;stroke-linejoin:round" />
  <path
     inkscape:connector-curvature="0"
     style="fill:#ffffff"
     id="path31"
     d="M 28.518804,18.538566 26.732093,16.75143 c -0.170223,-0.16997 -0.117159,-0.351702 0.117404,-0.404531 0,0 0.193754,-0.0437 0.432392,-0.28236 0.512357,-0.51207 0.511861,-1.343472 0,-1.85484 -0.512594,-0.512304 -1.34283,-0.512304 -1.855109,0 -0.238922,0.238633 -0.282104,0.43212 -0.282104,0.43212 -0.05282,0.235014 -0.235045,0.287609 -0.404796,0.117156 l -1.786711,-1.785966 c -0.169979,-0.170212 -0.448482,-0.170212 -0.618422,0 l -1.786475,1.7862 c -0.169743,0.170453 -0.11716,0.352638 0.117404,0.405249 0,0 0.19399,0.04369 0.432392,0.281814 0.511624,0.51207 0.512357,1.343004 0,1.855542 -0.512106,0.51207 -1.34354,0.511602 -1.85511,0 -0.23837,-0.238875 -0.282104,-0.432588 -0.282104,-0.432588 -0.05258,-0.23478 -0.235045,-0.287376 -0.405032,-0.11739 l -1.786475,1.786668 c -0.16998,0.169969 -0.16998,0.447954 0,0.617916 l 1.786475,1.786668 c 0.169979,0.169977 0.11716,0.35217 -0.117404,0.405007 0,0 -0.193754,0.04369 -0.432392,0.28236 -0.512357,0.512304 -0.512357,1.34277 0,1.85484 0.512106,0.511836 1.342831,0.512304 1.85511,0 0.238922,-0.238633 0.282104,-0.43212 0.282104,-0.43212 0.05282,-0.235014 0.235045,-0.28761 0.404796,-0.117156 l 1.786711,1.785888 c 0.169979,0.170211 0.448482,0.170211 0.618422,0 l 1.786948,-1.786434 c 0.169979,-0.169978 0.11716,-0.352638 -0.117404,-0.405007 0,0 -0.194234,-0.0437 -0.432636,-0.281814 -0.512594,-0.512304 -0.512357,-1.343004 0,-1.855542 0.512106,-0.51207 1.342831,-0.512538 1.85511,0 0.238606,0.238641 0.281859,0.432588 0.281859,0.432588 0.05282,0.23478 0.234801,0.287851 0.405031,0.117858 l 1.786712,-1.787136 c 0.169979,-0.16997 0.169979,-0.447954 0,-0.617916" />
</svg>
