<?xml version="1.0" encoding="UTF-8" standalone="no"?>
<svg
   xmlns:dc="http://purl.org/dc/elements/1.1/"
   xmlns:cc="http://creativecommons.org/ns#"
   xmlns:rdf="http://www.w3.org/1999/02/22-rdf-syntax-ns#"
   xmlns:svg="http://www.w3.org/2000/svg"
   xmlns="http://www.w3.org/2000/svg"
   xmlns:xlink="http://www.w3.org/1999/xlink"
   xmlns:sodipodi="http://sodipodi.sourceforge.net/DTD/sodipodi-0.dtd"
   xmlns:inkscape="http://www.inkscape.org/namespaces/inkscape"
   viewBox="0 0 32 32"
   id="svg2"
   version="1.1"
   inkscape:version="0.91 r13725"
   sodipodi:docname="folder-documents.svg">
  <metadata
     id="metadata37">
    <rdf:RDF>
      <cc:Work
         rdf:about="">
        <dc:format>image/svg+xml</dc:format>
        <dc:type
           rdf:resource="http://purl.org/dc/dcmitype/StillImage" />
        <dc:title></dc:title>
      </cc:Work>
    </rdf:RDF>
  </metadata>
  <sodipodi:namedview
     pagecolor="#ffffff"
     bordercolor="#666666"
     borderopacity="1"
     objecttolerance="10"
     gridtolerance="10"
     guidetolerance="10"
     inkscape:pageopacity="0"
     inkscape:pageshadow="2"
     inkscape:window-width="1280"
     inkscape:window-height="694"
     id="namedview35"
     showgrid="false"
     inkscape:zoom="7.375"
     inkscape:cx="-34.839249"
     inkscape:cy="16"
     inkscape:window-x="0"
     inkscape:window-y="0"
     inkscape:window-maximized="1"
     inkscape:current-layer="svg2" />
  <defs
     id="defs4">
    <linearGradient
       xlink:href="#1"
       id="3"
       x1="-86.21"
       y1="428.69"
       x2="-84.65"
       y2="285.59"
       gradientUnits="userSpaceOnUse"
       gradientTransform="matrix(0.06624,0,0,0.06624,21.76,-6.37)" />
    <linearGradient
       gradientUnits="userSpaceOnUse"
       y2="352.98"
       x2="-601.15"
       y1="663.95"
       x1="-591.02"
       id="4"
       gradientTransform="matrix(0.05573986,0,0,0.06673193,52.700408,-17.591351)">
      <stop
         stop-color="#289bf7"
         id="stop8" />
      <stop
         offset="1"
         stop-color="#4caaf4"
         id="stop10" />
    </linearGradient>
    <linearGradient
       gradientUnits="userSpaceOnUse"
       y2="354.29"
       x2="-704.05"
       y1="647.77"
       x1="-701.19"
       id="2"
       gradientTransform="matrix(0.00311364,0,0,0.00311364,55.682892,-11.03311)">
      <stop
         stop-color="#9fd2fa"
         id="stop13" />
      <stop
         offset="1"
         stop-color="#cde8fe"
         id="stop15" />
    </linearGradient>
    <linearGradient
       xlink:href="#1"
       id="0"
       x1="59.12"
       y1="-13.295"
       x2="59.15"
       y2="-37.783"
       gradientUnits="userSpaceOnUse"
       gradientTransform="matrix(0.23295272,0,0,0.23255487,-6.94926,14.533334)" />
    <linearGradient
       id="1">
      <stop
         stop-color="#289bf7"
         id="stop19" />
      <stop
         offset="1"
         stop-color="#71b9f1"
         id="stop21" />
    </linearGradient>
  </defs>
  <rect
     y="5.8151612"
     x="3.4831016"
     height="19.694597"
     width="25.854935"
     rx="0.53677487"
     id="rect31"
     style="fill:#80b3ff;stroke:none;stroke-width:0.32787555;stroke-linecap:round;stroke-linejoin:round" />
  <path
     inkscape:connector-curvature="0"
     style="fill:#ffffff;stroke:none;stroke-width:0.06"
     id="path33"
     d="m 22.675011,14.1302 -4.424,5.662 c -0.829,1.062 -0.597,2.953 0.464,3.782001 1.062,0.829 2.953,0.597 3.782,-0.464 l 4.424,-5.662001 0.553,-0.708 c 0.553,-0.708 0.398,-1.969 -0.31,-2.521 -0.708,-0.553 -1.969,-0.398 -2.522,0.31 l -0.553,0.708 -3.318,4.247 -0.553,0.708 c -0.276,0.354 -0.199,0.984 0.155,1.261 0.354,0.276 0.984,0.199 1.261,-0.155 l 3.871,-4.954 0.708,0.553 -3.871,4.954 c -0.553,0.708 -1.814,0.863 -2.521,0.31 -0.708,-0.553 -0.863,-1.814 -0.31,-2.521 l 0.553,-0.708 3.871,-4.954 c 0.829,-1.062 2.721,-1.294 3.782,-0.464 1.062,0.829 1.294,2.721 0.464,3.782 l -0.553,0.708 -4.424,5.662001 c -1.106,1.416 -3.627,1.725 -5.04,0.619 -1.416,-1.106 -1.725,-3.627001 -0.619,-5.040001 l 4.424,-5.662 0.708,0.553 z" />
</svg>
