<?xml version="1.0" encoding="UTF-8" standalone="no"?>
<svg
   xmlns:dc="http://purl.org/dc/elements/1.1/"
   xmlns:cc="http://creativecommons.org/ns#"
   xmlns:rdf="http://www.w3.org/1999/02/22-rdf-syntax-ns#"
   xmlns:svg="http://www.w3.org/2000/svg"
   xmlns="http://www.w3.org/2000/svg"
   xmlns:xlink="http://www.w3.org/1999/xlink"
   xmlns:sodipodi="http://sodipodi.sourceforge.net/DTD/sodipodi-0.dtd"
   xmlns:inkscape="http://www.inkscape.org/namespaces/inkscape"
   viewBox="0 0 64 64"
   id="svg13202"
   version="1.1"
   inkscape:version="0.91 r13725"
   sodipodi:docname="folder-development.svg">
  <metadata
     id="metadata13228">
    <rdf:RDF>
      <cc:Work
         rdf:about="">
        <dc:format>image/svg+xml</dc:format>
        <dc:type
           rdf:resource="http://purl.org/dc/dcmitype/StillImage" />
        <dc:title></dc:title>
      </cc:Work>
    </rdf:RDF>
  </metadata>
  <sodipodi:namedview
     pagecolor="#ffffff"
     bordercolor="#666666"
     borderopacity="1"
     objecttolerance="10"
     gridtolerance="10"
     guidetolerance="10"
     inkscape:pageopacity="0"
     inkscape:pageshadow="2"
     inkscape:window-width="1280"
     inkscape:window-height="694"
     id="namedview13226"
     showgrid="false"
     inkscape:zoom="3.6875"
     inkscape:cx="-18.801273"
     inkscape:cy="32"
     inkscape:window-x="0"
     inkscape:window-y="0"
     inkscape:window-maximized="1"
     inkscape:current-layer="svg13202" />
  <defs
     id="defs13204">
    <linearGradient
       xlink:href="#1"
       id="3"
       x1="-19.915"
       y1="1048.7"
       x2="-19.996"
       y2="1025.51"
       gradientUnits="userSpaceOnUse"
       gradientTransform="translate(51.949,-1001.46)" />
    <linearGradient
       gradientUnits="userSpaceOnUse"
       y2="354.29"
       x2="-704.05"
       y1="647.77"
       x1="-701.19"
       id="2"
       gradientTransform="matrix(0.01590505,0,0,0.01845141,129.51168,-45.007092)">
      <stop
         stop-color="#93cfff"
         id="stop13208" />
      <stop
         offset="1"
         stop-color="#cde8fe"
         id="stop13210" />
    </linearGradient>
    <linearGradient
       xlink:href="#1"
       id="0"
       x1="59.12"
       y1="-13.295"
       x2="59.15"
       y2="-37.783"
       gradientUnits="userSpaceOnUse"
       gradientTransform="matrix(0.52660675,0,0,0.52570737,-19.441377,28.676662)" />
    <linearGradient
       id="1">
      <stop
         stop-color="#289bf7"
         id="stop13214" />
      <stop
         offset="1"
         stop-color="#71b9f1"
         id="stop13216" />
    </linearGradient>
  </defs>
  <rect
     style="fill:#80b3ff;stroke:none;stroke-width:0.32295448"
     id="rect13222"
     rx="1.2142509"
     width="58.487045"
     height="43.170807"
     x="3.0217602"
     y="10.17371" />
  <g
     id="g3"
     transform="matrix(0.05314715,0,0,0.05077175,35.253705,28.902107)"
     style="fill:#ffffff">
    <g
       id="g5"
       style="fill:#ffffff">
      <g
         id="g7"
         style="fill:#ffffff">
        <path
           d="m 141.116,231.886 -30.889,30.868 31.58,31.493 30.889,-30.846 c 12.899,8.758 27.654,14.884 43.53,17.925 l 0,43.767 44.565,0 0,-43.767 c 15.855,-3.041 30.609,-9.168 43.53,-17.925 l 30.868,30.846 31.601,-31.493 -30.911,-30.911 c 8.715,-12.899 14.841,-27.632 17.904,-43.487 l 43.81,0 0,-44.565 -43.832,0 c -3.085,-15.898 -9.189,-30.652 -17.947,-43.53 L 366.746,69.307 335.145,37.857 304.299,68.746 C 291.357,60.01 276.645,53.905 260.748,50.799 l 0,-43.789 -44.565,0 0,43.789 c -15.855,3.106 -30.631,9.189 -43.53,17.947 l -30.846,-30.889 -31.58,31.493 30.889,30.954 c -8.693,12.878 -14.841,27.589 -17.904,43.53 l -43.724,0 0,44.587 43.724,0 c 3.063,15.811 9.211,30.544 17.904,43.465 z m 97.392,-114.433 c 26.877,0 48.556,21.786 48.556,48.664 0,26.878 -21.7,48.556 -48.556,48.556 -26.856,0 -48.664,-21.679 -48.664,-48.556 0,-26.877 21.809,-48.664 48.664,-48.664 z"
           id="path9"
           inkscape:connector-curvature="0"
           style="fill:#ffffff" />
        <path
           d="m 405.142,328.739 -92.366,0 c -32.507,0 -59.665,22.541 -67.15,52.741 l -16.674,0 c -7.507,-30.199 -34.643,-52.741 -67.15,-52.741 l -92.387,0 C 31.127,328.739 0,359.865 0,398.132 c 0,38.267 31.127,69.415 69.415,69.415 l 92.366,0 c 33.003,0 60.592,-23.21 67.603,-54.121 l 15.79,0 c 7.01,30.911 34.6,54.121 67.603,54.121 l 92.366,0 c 38.267,0 69.415,-31.105 69.415,-69.415 0,-38.31 -31.127,-69.393 -69.416,-69.393 z m -243.361,106.365 -92.366,0 c -20.363,0 -36.972,-16.588 -36.972,-36.951 0,-20.363 16.61,-36.951 36.972,-36.951 l 92.366,0 c 14.366,0 26.683,8.305 32.809,20.277 l -36.239,0 c -10.181,0 -18.421,7.161 -18.421,15.962 0,8.822 8.24,15.984 18.421,15.984 l 36.994,0 c -5.846,12.77 -18.659,21.679 -33.564,21.679 z m 243.361,0 -92.366,0 c -14.905,0 -27.718,-8.909 -33.586,-21.657 l 37.015,0 c 10.203,0 18.421,-7.162 18.421,-15.984 0,-8.822 -8.262,-15.962 -18.421,-15.962 l -36.26,0 c 6.105,-11.993 18.421,-20.277 32.809,-20.277 l 92.366,0 c 20.341,0 36.972,16.588 36.972,36.951 0,20.363 -16.565,36.929 -36.95,36.929 z"
           id="path11"
           inkscape:connector-curvature="0"
           style="fill:#ffffff" />
      </g>
    </g>
    <g
       id="g13"
       style="fill:#ffffff" />
    <g
       id="g15"
       style="fill:#ffffff" />
    <g
       id="g17"
       style="fill:#ffffff" />
    <g
       id="g19"
       style="fill:#ffffff" />
    <g
       id="g21"
       style="fill:#ffffff" />
    <g
       id="g23"
       style="fill:#ffffff" />
    <g
       id="g25"
       style="fill:#ffffff" />
    <g
       id="g27"
       style="fill:#ffffff" />
    <g
       id="g29"
       style="fill:#ffffff" />
    <g
       id="g31"
       style="fill:#ffffff" />
    <g
       id="g33"
       style="fill:#ffffff" />
    <g
       id="g35"
       style="fill:#ffffff" />
    <g
       id="g37"
       style="fill:#ffffff" />
    <g
       id="g39"
       style="fill:#ffffff" />
    <g
       id="g41"
       style="fill:#ffffff" />
  </g>
</svg>
