<?xml version="1.0" encoding="UTF-8" standalone="no"?>
<svg
   xmlns:dc="http://purl.org/dc/elements/1.1/"
   xmlns:cc="http://creativecommons.org/ns#"
   xmlns:rdf="http://www.w3.org/1999/02/22-rdf-syntax-ns#"
   xmlns:svg="http://www.w3.org/2000/svg"
   xmlns="http://www.w3.org/2000/svg"
   xmlns:xlink="http://www.w3.org/1999/xlink"
   xmlns:sodipodi="http://sodipodi.sourceforge.net/DTD/sodipodi-0.dtd"
   xmlns:inkscape="http://www.inkscape.org/namespaces/inkscape"
   viewBox="0 0 64 64"
   id="svg13202"
   version="1.1"
   inkscape:version="0.91 r13725"
   sodipodi:docname="folder-mail.svg">
  <metadata
     id="metadata13228">
    <rdf:RDF>
      <cc:Work
         rdf:about="">
        <dc:format>image/svg+xml</dc:format>
        <dc:type
           rdf:resource="http://purl.org/dc/dcmitype/StillImage" />
        <dc:title></dc:title>
      </cc:Work>
    </rdf:RDF>
  </metadata>
  <sodipodi:namedview
     pagecolor="#ffffff"
     bordercolor="#666666"
     borderopacity="1"
     objecttolerance="10"
     gridtolerance="10"
     guidetolerance="10"
     inkscape:pageopacity="0"
     inkscape:pageshadow="2"
     inkscape:window-width="1280"
     inkscape:window-height="694"
     id="namedview13226"
     showgrid="false"
     inkscape:zoom="3.6875"
     inkscape:cx="-0.65665014"
     inkscape:cy="32"
     inkscape:window-x="0"
     inkscape:window-y="0"
     inkscape:window-maximized="1"
     inkscape:current-layer="svg13202" />
  <defs
     id="defs13204">
    <linearGradient
       xlink:href="#1"
       id="3"
       x1="-19.915"
       y1="1048.7"
       x2="-19.996"
       y2="1025.51"
       gradientUnits="userSpaceOnUse"
       gradientTransform="translate(51.949,-1001.46)" />
    <linearGradient
       gradientUnits="userSpaceOnUse"
       y2="354.29"
       x2="-704.05"
       y1="647.77"
       x1="-701.19"
       id="2"
       gradientTransform="matrix(0.01590505,0,0,0.01845141,129.51168,-45.007092)">
      <stop
         stop-color="#93cfff"
         id="stop13208" />
      <stop
         offset="1"
         stop-color="#cde8fe"
         id="stop13210" />
    </linearGradient>
    <linearGradient
       xlink:href="#1"
       id="0"
       x1="59.12"
       y1="-13.295"
       x2="59.15"
       y2="-37.783"
       gradientUnits="userSpaceOnUse"
       gradientTransform="matrix(0.52660675,0,0,0.52570737,-19.441377,28.676662)" />
    <linearGradient
       id="1">
      <stop
         stop-color="#289bf7"
         id="stop13214" />
      <stop
         offset="1"
         stop-color="#71b9f1"
         id="stop13216" />
    </linearGradient>
  </defs>
  <rect
     style="fill:#80b3ff;stroke:none;stroke-width:0.32295448"
     id="rect13222"
     rx="1.2142509"
     width="58.487045"
     height="43.170807"
     x="3.0217602"
     y="10.17371" />
  <path
     inkscape:connector-curvature="0"
     style="fill:#ffffff;stroke:none;stroke-width:1.102"
     id="path24"
     d="m 43.993513,-43.379964 q 5.065457,0 8.525401,3.49021 3.459236,3.490209 3.459236,8.432056 0,2.779807 -1.204559,4.602133 -1.173728,1.822325 -3.428264,1.822325 -2.316482,0 -3.459236,-2.254677 -1.513442,2.254677 -4.324081,2.254677 -2.532728,0 -4.2627,-1.76052 -1.729689,-1.791494 -1.729689,-4.539903 0,-2.718002 1.729689,-4.509496 1.729689,-1.791494 4.138242,-1.791494 2.378287,0 3.953534,1.822326 l 0.12361,0 0,-1.389833 2.223845,0 0,8.061369 q 0,0.803039 0.432352,1.451637 0.463324,0.648598 1.389832,0.648598 2.193014,0 2.193014,-4.416859 0,-4.077002 -2.841329,-6.887782 -2.841329,-2.810639 -6.918614,-2.810639 -4.077003,0 -6.918614,2.810639 -2.841329,2.810638 -2.841329,6.887782 0,4.077003 2.841329,6.887783 2.841328,2.810638 6.918614,2.810638 2.193014,0 3.922561,-0.864844 l 0.864844,2.100235 q -2.16204,0.988313 -4.787405,0.988313 -5.126838,0 -8.61733,-3.459236 -3.490209,-3.49021 -3.490209,-8.462889 0,-4.941847 3.490209,-8.432056 3.521041,-3.49021 8.61733,-3.49021 m -2.872443,14.918037 q 1.111922,1.08109 2.656196,1.08109 1.544275,0 2.625366,-1.08109 1.111922,-1.081091 1.111922,-2.872444 0,-1.791494 -1.111922,-2.872443 -1.081091,-1.081091 -2.625366,-1.081091 -1.544274,0 -2.656196,1.081091 -1.081091,1.081091 -1.081091,2.872443 0,1.791494 1.081091,2.872444" />
  <g
     id="g3"
     transform="matrix(0.06223156,0,0,0.05147004,32.888922,27.389841)"
     style="fill:#ffffff">
    <path
       d="M 312.001,55.518 C 311.759,54 309.228,40.293 296.218,26.668 284.606,14.502 261.905,0 219.722,0 c -42.186,0 -64.908,14.545 -76.543,26.746 -13.021,13.658 -15.57,27.238 -15.82,28.76 -0.465,2.855 0.35,5.773 2.225,7.976 1.875,2.201 4.619,3.473 7.512,3.473 0.002,0 0.006,0 0.008,0 l 165.172,0 c 2.891,-0.004 5.633,-1.273 7.5,-3.475 1.871,-2.201 2.686,-5.111 2.225,-7.962 z"
       id="path5"
       inkscape:connector-curvature="0"
       style="fill:#ffffff" />
    <path
       d="m 320.462,220.08 -51.514,0 c -3.244,0 -6.324,1.227 -8.678,3.455 l -39.768,37.644 -39.768,-37.643 c -2.354,-2.23 -5.439,-3.457 -8.684,-3.457 l -51.508,0 c -42.992,0 -77.967,34.973 -77.967,77.965 l 0,141.781 c 0,6.963 5.666,12.629 12.631,12.629 l 193.074,0 c 1.359,0 2.457,-1.102 2.457,-2.457 l 0,-95.682 c 0,-31.805 25.875,-57.68 57.682,-57.68 l 87.447,0 c 0.676,0 1.318,-0.275 1.783,-0.764 0.465,-0.488 0.705,-1.146 0.672,-1.818 -2.101,-41.479 -36.3,-73.973 -77.859,-73.973 z m -149.59,87.303 c 0,2.965 -2.404,5.369 -5.369,5.369 l -61.232,0 c -2.967,0 -5.371,-2.404 -5.371,-5.369 l 0,-15.039 c 0,-2.967 2.404,-5.371 5.371,-5.371 l 61.232,0 c 2.965,0 5.369,2.404 5.369,5.371 l 0,15.039 z"
       id="path7"
       inkscape:connector-curvature="0"
       style="fill:#ffffff" />
    <path
       d="m 310.271,84.24 c -3.08,-1.725 -7.781,-1.967 -12.076,-1.967 -3.584,0 -42.227,-0.004 -78.838,-0.008 -36.605,0.004 -75.246,0.008 -78.832,0.008 -4.293,0 -8.994,0.242 -12.076,1.967 -9.707,5.438 -7.592,27.416 -6.707,36.459 1.9,19.43 9.717,38.016 22.172,53.037 18.725,22.582 46.809,35.293 75.443,35.482 28.641,-0.189 56.725,-12.9 75.451,-35.482 12.453,-15.021 20.268,-33.607 22.168,-53.037 0.884,-9.043 3.005,-31.021 -6.705,-36.459 z m -84.118,105.047 c -2.275,0.207 -4.541,0.297 -6.797,0.297 -2.25,0 -4.514,-0.09 -6.791,-0.297 -39.496,-3.559 -70.967,-37.355 -71.557,-77.023 22.666,17.287 50.502,25.945 78.348,25.977 27.852,-0.031 55.688,-8.689 78.354,-25.977 -0.588,39.668 -32.059,73.465 -71.557,77.023 z"
       id="path9"
       inkscape:connector-curvature="0"
       style="fill:#ffffff" />
    <path
       d="m 410.095,318.912 -35.619,0 0,29.236 c 0,2.441 -1.988,4.426 -4.428,4.426 l -19.475,0 c -2.439,0 -4.428,-1.984 -4.428,-4.426 l 0,-29.236 -35.615,0 c -20.617,0 -37.33,16.713 -37.33,37.328 l 0,96.434 c 0,20.617 16.713,37.326 37.33,37.326 l 99.565,0 c 20.615,0 37.328,-16.709 37.328,-37.326 l 0,-96.434 c 0,-20.615 -16.713,-37.328 -37.328,-37.328 z"
       id="path11"
       inkscape:connector-curvature="0"
       style="fill:#ffffff" />
  </g>
</svg>
