<?xml version="1.0" encoding="UTF-8" standalone="no"?>
<svg
   xmlns:dc="http://purl.org/dc/elements/1.1/"
   xmlns:cc="http://creativecommons.org/ns#"
   xmlns:rdf="http://www.w3.org/1999/02/22-rdf-syntax-ns#"
   xmlns:svg="http://www.w3.org/2000/svg"
   xmlns="http://www.w3.org/2000/svg"
   xmlns:sodipodi="http://sodipodi.sourceforge.net/DTD/sodipodi-0.dtd"
   xmlns:inkscape="http://www.inkscape.org/namespaces/inkscape"
   viewBox="0 0 48 48"
   id="svg2"
   version="1.1"
   inkscape:version="0.91 r13725"
   sodipodi:docname="applications-education-school.svg">
  <metadata
     id="metadata23">
    <rdf:RDF>
      <cc:Work
         rdf:about="">
        <dc:format>image/svg+xml</dc:format>
        <dc:type
           rdf:resource="http://purl.org/dc/dcmitype/StillImage" />
        <dc:title></dc:title>
      </cc:Work>
    </rdf:RDF>
  </metadata>
  <sodipodi:namedview
     pagecolor="#ffffff"
     bordercolor="#666666"
     borderopacity="1"
     objecttolerance="10"
     gridtolerance="10"
     guidetolerance="10"
     inkscape:pageopacity="0"
     inkscape:pageshadow="2"
     inkscape:window-width="1280"
     inkscape:window-height="694"
     id="namedview21"
     showgrid="false"
     inkscape:zoom="4.9166667"
     inkscape:cx="-45.661017"
     inkscape:cy="24"
     inkscape:window-x="0"
     inkscape:window-y="0"
     inkscape:window-maximized="1"
     inkscape:current-layer="svg2" />
  <defs
     id="defs4">
    <linearGradient
       id="0"
       gradientUnits="userSpaceOnUse"
       x1="52.27"
       y1="27.599"
       x2="52.594"
       y2="-20.918"
       gradientTransform="matrix(0.99999,0,0,0.99999,-28.371,20.882)">
      <stop
         stop-color="#74cb32"
         id="stop7" />
      <stop
         offset="1"
         stop-color="#abeb6b"
         id="stop9" />
    </linearGradient>
  </defs>
  <g
     style="fill:#7fff2a;fill-opacity:1;stroke:none"
     id="g15"
     transform="matrix(2.0010252,0,0,1.5811155,-80.206939,18.307189)">
    <path
       style="opacity:0.9;fill:#7fff2a;stroke:none;fill-opacity:1"
       inkscape:connector-curvature="0"
       id="path17"
       d="m 52.761,-2.598 c 0.529,-0.884 1.366,-2.148 2.424,-3.362 l 10e-5,0 c 0.896,-1.03 2.65,-2.352 2.65,-2.352 0.264,-0.199 0.235,-0.477 -0.064,-0.616 l -2.12,-0.991 c -0.3,-0.14 -0.707,-0.038 -0.906,0.226 0,0 -1.568,2.249 -3.414,7.04 -5.706,-2.581 -11.13,1.034 -11.13,7.321 0,6.566 5.05,16.541 11.884,13.53 7.195,3.114 11.888,-6.963 11.888,-13.53 0,-6.341 -4.876,-10.06 -11.212,-7.264" />
    <path
       style="opacity:0.9;fill:#7fff2a;stroke:none;fill-opacity:1"
       inkscape:connector-curvature="0"
       id="path19"
       d="m 51.48,-4.725 c 0.33,-0.028 0.621,-0.32 0.648,-0.649 0,0 0.212,-2.568 -1.578,-4.359 -1.795,-1.792 -4.358,-1.578 -4.358,-1.578 -0.33,0.028 -0.621,0.32 -0.648,0.649 0,0 -0.215,2.569 1.576,4.361 1.791,1.79 4.36,1.576 4.36,1.576" />
  </g>
</svg>
