<?xml version="1.0" encoding="UTF-8" standalone="no"?>
<svg
   xmlns:dc="http://purl.org/dc/elements/1.1/"
   xmlns:cc="http://creativecommons.org/ns#"
   xmlns:rdf="http://www.w3.org/1999/02/22-rdf-syntax-ns#"
   xmlns:svg="http://www.w3.org/2000/svg"
   xmlns="http://www.w3.org/2000/svg"
   xmlns:sodipodi="http://sodipodi.sourceforge.net/DTD/sodipodi-0.dtd"
   xmlns:inkscape="http://www.inkscape.org/namespaces/inkscape"
   viewBox="0 0 48 48"
   id="svg2"
   version="1.1"
   inkscape:version="0.91 r13725"
   sodipodi:docname="applications-education-science.svg">
  <metadata
     id="metadata29">
    <rdf:RDF>
      <cc:Work
         rdf:about="">
        <dc:format>image/svg+xml</dc:format>
        <dc:type
           rdf:resource="http://purl.org/dc/dcmitype/StillImage" />
        <dc:title></dc:title>
      </cc:Work>
    </rdf:RDF>
  </metadata>
  <sodipodi:namedview
     pagecolor="#ffffff"
     bordercolor="#666666"
     borderopacity="1"
     objecttolerance="10"
     gridtolerance="10"
     guidetolerance="10"
     inkscape:pageopacity="0"
     inkscape:pageshadow="2"
     inkscape:window-width="1280"
     inkscape:window-height="694"
     id="namedview27"
     showgrid="false"
     inkscape:zoom="4.9166667"
     inkscape:cx="-9.1525422"
     inkscape:cy="32.135594"
     inkscape:window-x="0"
     inkscape:window-y="0"
     inkscape:window-maximized="1"
     inkscape:current-layer="svg2" />
  <defs
     id="defs4">
    <linearGradient
       id="linearGradient4279"
       x1="6.978"
       y1="27.421"
       x2="6.576"
       y2="8.699"
       gradientUnits="userSpaceOnUse">
      <stop
         style="stop-color:#841ac8;stop-opacity:1"
         id="stop4281"
         stop-color="#69159f" />
      <stop
         id="stop4283"
         stop-color="#b92ff5"
         offset="1" />
    </linearGradient>
  </defs>
  <path
     style="opacity:0.9;fill:#b380ff;fill-opacity:0.85"
     inkscape:connector-curvature="0"
     id="path25"
     d="M 47.491717,5.9865143 C 47.031411,4.2135284 45.248095,3.1548722 43.504872,3.6215271 41.758679,4.0881818 40.717791,5.903454 41.176612,7.677949 c 0.216791,0.8321263 0.724612,1.5041694 1.385375,1.9391095 -0.15888,2.4374795 -0.873097,5.4065505 -2.984565,8.0025995 -5.939435,-6.900146 -8.457756,-9.7166868 -9.620399,-10.8568957 0.620671,-0.4002049 1.144825,-0.6493905 1.484859,-0.7898399 0.78549,0.6644933 1.862012,0.9499232 2.92517,0.6644933 1.74174,-0.4666548 2.78411,-2.2834378 2.323804,-4.0549127 C 36.229064,0.8080064 34.44278,-0.25216061 32.701041,0.21298392 31.39288,0.56335195 30.481179,1.671846 30.298541,2.9509933 27.839615,4.0126713 19.445709,8.7381162 20.697445,23.46266 11.504687,23.734498 6.6699871,26.20973 4.4709116,27.825654 3.9051803,27.64443 3.2859947,27.615735 2.6697785,27.780344 0.92655409,28.25153 -0.11433153,30.063782 0.34300492,31.839788 0.80331096,33.614285 2.5881105,34.674451 4.3313352,34.203266 5.768677,33.819673 6.7278967,32.516362 6.7620478,31.078643 l 9.6100042,10.260362 c -0.225698,0.141956 -0.446943,0.273349 -0.662247,0.388124 -0.766187,-0.567839 -1.766981,-0.792859 -2.755898,-0.533104 -1.743223,0.468166 -2.785593,2.284948 -2.326772,4.059444 0.460305,1.774496 2.245106,2.834662 3.989814,2.364987 1.360131,-0.36245 2.288168,-1.549474 2.415866,-2.89658 4.499121,-2.271356 8.218691,-7.85007 7.247594,-18.024352 2.88508,-0.0136 5.544461,-0.344328 7.933599,-0.983146 3.57257,-0.955963 6.542286,-2.59152 8.791846,-4.876467 2.837566,-2.886011 4.454576,-6.666065 4.73373,-11.0109372 1.383888,-0.6765743 2.15156,-2.2743756 1.744708,-3.8404637 M 17.653485,40.342271 7.6262362,29.637907 C 8.269179,29.283006 9.0665486,28.902434 10.049524,28.536964 l 9.393216,9.51885 c -0.537518,0.940861 -1.153736,1.689924 -1.789255,2.286457 M 20.17923,36.50785 11.764537,27.979696 c 1.293311,-0.368491 2.824199,-0.696207 4.61791,-0.924247 l 4.81391,4.672589 c -0.141065,1.904373 -0.507821,3.479521 -1.017127,4.779812 m -1.704618,-9.674403 c 0.819642,-0.06494 1.685315,-0.108736 2.599986,-0.129881 0.108396,1.0058 0.164821,1.94666 0.179669,2.827113 l -2.779655,-2.697232 m 5.434582,-3.381359 c -0.209366,-2.235109 -0.176699,-4.199894 0.02822,-5.920021 l 4.699577,5.605898 c -1.478918,0.217469 -3.058808,0.323183 -4.727789,0.314123 m 6.549711,-0.644859 -6.168103,-7.354721 c 0.329639,-1.454331 0.788461,-2.698744 1.324494,-3.761931 2.003074,2.200374 5.72413,6.469737 8.668604,9.87677 -1.170069,0.519512 -2.448531,0.933309 -3.824995,1.239882 m 5.303915,-1.987437 C 30.54206,14.763853 27.878225,11.743433 26.457215,10.233225 27.168463,9.1715469 27.93762,8.3454626 28.671139,7.7157043 c 1.257674,1.2640461 6.138405,6.8518207 9.803036,11.0924897 -0.7944,0.758126 -1.704618,1.428657 -2.711351,2.007069" />
</svg>
