<?xml version="1.0" encoding="UTF-8" standalone="no"?>
<svg
   xmlns:dc="http://purl.org/dc/elements/1.1/"
   xmlns:cc="http://creativecommons.org/ns#"
   xmlns:rdf="http://www.w3.org/1999/02/22-rdf-syntax-ns#"
   xmlns:svg="http://www.w3.org/2000/svg"
   xmlns="http://www.w3.org/2000/svg"
   xmlns:sodipodi="http://sodipodi.sourceforge.net/DTD/sodipodi-0.dtd"
   xmlns:inkscape="http://www.inkscape.org/namespaces/inkscape"
   viewBox="0 0 64 64"
   id="svg2"
   version="1.1"
   inkscape:version="0.91 r13725"
   sodipodi:docname="application-x-font-otf.svg">
  <metadata
     id="metadata19">
    <rdf:RDF>
      <cc:Work
         rdf:about="">
        <dc:format>image/svg+xml</dc:format>
        <dc:type
           rdf:resource="http://purl.org/dc/dcmitype/StillImage" />
        <dc:title></dc:title>
      </cc:Work>
    </rdf:RDF>
  </metadata>
  <sodipodi:namedview
     pagecolor="#ffffff"
     bordercolor="#666666"
     borderopacity="1"
     objecttolerance="10"
     gridtolerance="10"
     guidetolerance="10"
     inkscape:pageopacity="0"
     inkscape:pageshadow="2"
     inkscape:window-width="1280"
     inkscape:window-height="694"
     id="namedview17"
     showgrid="true"
     inkscape:zoom="3.6875"
     inkscape:cx="-12.20339"
     inkscape:cy="32"
     inkscape:window-x="0"
     inkscape:window-y="0"
     inkscape:window-maximized="1"
     inkscape:current-layer="svg2">
    <inkscape:grid
       type="xygrid"
       id="grid4147" />
  </sodipodi:namedview>
  <defs
     id="defs4">
    <linearGradient
       id="0"
       x1="-74.929"
       y1="52.2"
       x2="-75.26"
       y2="2.356"
       gradientUnits="userSpaceOnUse"
       gradientTransform="matrix(1.07499 0 0 1.02929 56.689-.015)">
      <stop
         stop-color="#197cf1"
         id="stop7" />
      <stop
         offset="1"
         stop-color="#20bcfa"
         id="stop9" />
    </linearGradient>
  </defs>
  <rect
     style="fill:#0066ff"
     id="rect13"
     rx="3.5939908"
     y="0.37906781"
     x="0.50847483"
     height="53.479153"
     width="63.254238" />
  <path
     inkscape:connector-curvature="0"
     style="fill:#aaccff;fill-opacity:0.84600004"
     id="path15"
     d="m 40.08552,64.06603 q -5.526347,0 -9.282419,-2.536159 -3.684232,-2.536158 -3.684232,-6.708097 0,-4.509445 4.393155,-7.045603 4.393154,-2.593309 10.841237,-2.593309 5.73916,0 9.423392,1.690772 l 0,-0.789314 q 0,-3.044038 -2.621524,-4.848031 -2.621526,-1.860066 -6.448084,-1.860066 -2.834336,0 -5.172564,1.070751 -2.26774,1.070751 -3.117635,2.930816 l -5.951972,-2.029358 q 1.205034,-2.480087 4.746938,-4.565517 3.543261,-2.141502 9.352906,-2.141502 6.660896,0 11.054051,3.10011 4.393154,3.100108 4.393154,8.736376 l 0,16.684516 -6.23527,0 0,-3.833351 -0.283299,0 q -3.897043,4.73481 -11.407834,4.73481 m 1.062708,-4.73481 q 4.03937,0 7.297977,-2.367944 3.330448,-2.424016 3.330448,-5.693418 -2.763852,-1.803994 -8.2902,-1.803994 -4.746938,0 -7.157005,1.634701 -2.408711,1.6347 -2.408711,3.833351 0,2.02936 2.195898,3.213332 2.1959,1.183972 5.030237,1.183972" />
</svg>
