<?xml version="1.0" encoding="UTF-8" standalone="no"?>
<svg
   xmlns:dc="http://purl.org/dc/elements/1.1/"
   xmlns:cc="http://creativecommons.org/ns#"
   xmlns:rdf="http://www.w3.org/1999/02/22-rdf-syntax-ns#"
   xmlns:svg="http://www.w3.org/2000/svg"
   xmlns="http://www.w3.org/2000/svg"
   xmlns:xlink="http://www.w3.org/1999/xlink"
   xmlns:sodipodi="http://sodipodi.sourceforge.net/DTD/sodipodi-0.dtd"
   xmlns:inkscape="http://www.inkscape.org/namespaces/inkscape"
   viewBox="0 0 48 48"
   id="svg2"
   version="1.1"
   inkscape:version="0.91 r13725"
   sodipodi:docname="meeting-attending.svg">
  <metadata
     id="metadata48">
    <rdf:RDF>
      <cc:Work
         rdf:about="">
        <dc:format>image/svg+xml</dc:format>
        <dc:type
           rdf:resource="http://purl.org/dc/dcmitype/StillImage" />
        <dc:title></dc:title>
      </cc:Work>
    </rdf:RDF>
  </metadata>
  <sodipodi:namedview
     pagecolor="#ffffff"
     bordercolor="#666666"
     borderopacity="1"
     objecttolerance="10"
     gridtolerance="10"
     guidetolerance="10"
     inkscape:pageopacity="0"
     inkscape:pageshadow="2"
     inkscape:window-width="1280"
     inkscape:window-height="694"
     id="namedview46"
     showgrid="false"
     inkscape:zoom="4.9166667"
     inkscape:cx="-5.6239771"
     inkscape:cy="24"
     inkscape:window-x="0"
     inkscape:window-y="0"
     inkscape:window-maximized="1"
     inkscape:current-layer="svg2" />
  <defs
     id="defs4">
    <linearGradient
       gradientUnits="userSpaceOnUse"
       y1="545.62"
       x2="0"
       y2="517.62"
       id="linearGradient6">
      <stop
         stop-color="#e3e3e3"
         id="stop8" />
      <stop
         offset="1"
         stop-color="#fcf9f9"
         id="stop10" />
    </linearGradient>
    <linearGradient
       gradientUnits="userSpaceOnUse"
       x2="11.758"
       x1="2.819"
       xlink:href="#2"
       id="linearGradient12" />
    <linearGradient
       gradientUnits="userSpaceOnUse"
       y2="517.3"
       x2="0"
       y1="546.3"
       id="linearGradient14">
      <stop
         stop-color="#00cafe"
         id="stop16" />
      <stop
         offset="1"
         stop-color="#1460f3"
         id="stop18" />
    </linearGradient>
    <linearGradient
       gradientUnits="userSpaceOnUse"
       y2="517.62"
       x2="0"
       y1="545.62"
       xlink:href="#3"
       id="linearGradient20" />
    <linearGradient
       gradientUnits="userSpaceOnUse"
       y2="517.22"
       x2="0"
       y1="545.22"
       xlink:href="#2"
       id="linearGradient22" />
    <linearGradient
       id="3">
      <stop
         stop-color="#d3d3d3"
         id="stop25" />
      <stop
         offset="1"
         stop-color="#fcf9f9"
         id="stop27" />
    </linearGradient>
    <linearGradient
       gradientUnits="userSpaceOnUse"
       y2="505.33"
       x2="355.69"
       y1="547"
       x1="355.73"
       id="0"
       gradientTransform="matrix(0.9746,0,0,0.9746,-322.33,-489.99)">
      <stop
         stop-color="#1074f5"
         id="stop30" />
      <stop
         offset="1"
         stop-color="#02befd"
         id="stop32" />
    </linearGradient>
    <linearGradient
       id="2">
      <stop
         stop-color="#333538"
         id="stop35" />
      <stop
         offset="1"
         stop-color="#566069"
         id="stop37" />
    </linearGradient>
    <linearGradient
       gradientTransform="matrix(-0.55334864,0,0,0.60251721,242.22654,-283.2481)"
       gradientUnits="userSpaceOnUse"
       y2="507.87"
       x2="0"
       y1="546.8"
       id="1"
       xlink:href="#3" />
  </defs>
  <g
     transform="matrix(0.82466394,0,0,0.82387286,0.2881359,0.00644849)"
     id="g4187">
    <path
       style="fill:#ffcc00"
       d="m 44,17.583687 0,23.001141 c 0,2.961502 -2.207,5.36269 -4.929,5.36269 L 22,46.024765 12,57.992627 l 0,-11.967862 -7.071,0 C 2.207,46.024765 0,43.623577 0,40.662076 L 0,17.660934 c 0,-2.961502 2.207,-5.36269 4.929,-5.36269 l 34.141,-0.07725 c 2.723,0 4.93,2.401188 4.93,5.36269 z"
       id="path5"
       inkscape:connector-curvature="0" />
    <path
       style="fill:#fff6d5"
       d="m 22,24.188858 -13,0 c -0.553,0 -1,-0.487418 -1,-1.087987 0,-0.600569 0.447,-1.087987 1,-1.087987 l 13,0 c 0.553,0 1,0.487418 1,1.087987 0,0.600569 -0.447,1.087987 -1,1.087987 z"
       id="path7"
       inkscape:connector-curvature="0" />
    <path
       style="fill:#fff6d5"
       d="m 35,30.716783 -26,0 c -0.553,0 -1,-0.487419 -1,-1.087988 0,-0.600569 0.447,-1.087987 1,-1.087987 l 26,0 c 0.553,0 1,0.487418 1,1.087987 0,0.600569 -0.447,1.087988 -1,1.087988 z"
       id="path9"
       inkscape:connector-curvature="0" />
    <path
       style="fill:#fff6d5"
       d="m 35,37.244707 -26,0 c -0.553,0 -1,-0.487418 -1,-1.087987 0,-0.600569 0.447,-1.087988 1,-1.087988 l 26,0 c 0.553,0 1,0.487419 1,1.087988 0,0.600569 -0.447,1.087987 -1,1.087987 z"
       id="path11"
       inkscape:connector-curvature="0" />
    <path
       style="fill:#ff6600"
       d="M 53.071,0.32929466 18.93,0.25313554 c -2.723,0 -4.93,2.40118816 -4.93,5.36268986 l 0,6.6606586 25.071,-0.05658 c 2.722,0 4.929,2.401188 4.929,5.363778 l 0,20.063575 7,8.377503 0,-11.967861 2.071,0 c 2.722,0 4.929,-2.401188 4.929,-5.36269 L 58,5.6930725 C 58,2.7304829 55.793,0.32929466 53.071,0.32929466 Z"
       id="path13"
       inkscape:connector-curvature="0" />
  </g>
</svg>
