<?xml version="1.0" encoding="UTF-8" standalone="no"?>
<svg
   xmlns:dc="http://purl.org/dc/elements/1.1/"
   xmlns:cc="http://creativecommons.org/ns#"
   xmlns:rdf="http://www.w3.org/1999/02/22-rdf-syntax-ns#"
   xmlns:svg="http://www.w3.org/2000/svg"
   xmlns="http://www.w3.org/2000/svg"
   xmlns:sodipodi="http://sodipodi.sourceforge.net/DTD/sodipodi-0.dtd"
   xmlns:inkscape="http://www.inkscape.org/namespaces/inkscape"
   viewBox="0 0 48 48"
   id="svg2"
   version="1.1"
   inkscape:version="0.91 r13725"
   sodipodi:docname="org.kde.muonnotifier.svg">
  <metadata
     id="metadata25">
    <rdf:RDF>
      <cc:Work
         rdf:about="">
        <dc:format>image/svg+xml</dc:format>
        <dc:type
           rdf:resource="http://purl.org/dc/dcmitype/StillImage" />
        <dc:title></dc:title>
      </cc:Work>
    </rdf:RDF>
  </metadata>
  <sodipodi:namedview
     pagecolor="#ffffff"
     bordercolor="#666666"
     borderopacity="1"
     objecttolerance="10"
     gridtolerance="10"
     guidetolerance="10"
     inkscape:pageopacity="0"
     inkscape:pageshadow="2"
     inkscape:window-width="1280"
     inkscape:window-height="694"
     id="namedview23"
     showgrid="false"
     inkscape:zoom="4.9166667"
     inkscape:cx="-42.305085"
     inkscape:cy="24"
     inkscape:window-x="0"
     inkscape:window-y="0"
     inkscape:window-maximized="1"
     inkscape:current-layer="svg2" />
  <defs
     id="defs4">
    <linearGradient
       y1="545.8"
       x2="0"
       y2="517.8"
       gradientUnits="userSpaceOnUse"
       id="linearGradient6">
      <stop
         stop-color="#3889e9"
         id="stop8" />
      <stop
         offset="1"
         stop-color="#5ea5fb"
         id="stop10" />
    </linearGradient>
    <linearGradient
       id="0"
       y1="653.96"
       x2="0"
       y2="301.3"
       gradientUnits="userSpaceOnUse"
       gradientTransform="matrix(0.13836925,0,0,0.13836925,69.102904,-42.251453)">
      <stop
         stop-color="#0a80fd"
         id="stop13" />
      <stop
         offset="1"
         stop-color="#56c5fa"
         id="stop15" />
    </linearGradient>
  </defs>
  <path
     style="fill:#0066ff;fill-opacity:1"
     inkscape:connector-curvature="0"
     id="path21"
     d="m 4.7093208,45.086549 c 1.4200956,-1.494409 2.9021834,-3.045827 3.2935643,-3.447641 0.391381,-0.401816 0.7139016,-0.771806 0.7165812,-0.821985 0.00466,-0.09177 -4.1562433,-3.354315 -4.3448965,-3.40703 -0.055787,-0.01472 -0.1373925,0.106597 -0.1829584,0.273929 -0.1015244,0.372919 -1.3976452,6.022147 -2.1199235,9.240961 -0.1541398,0.686677 -0.1564853,0.87919 -0.011059,0.87919 0.03619,0 1.2279244,-1.222626 2.6480201,-2.717034 z m 39.3156852,2.416356 c 0.756123,-1.155267 1.179505,-3.655189 0.999563,-5.89641 -0.20524,-2.549903 -0.800688,-4.31492 -1.942161,-5.756223 -0.846092,-1.069553 -1.563847,-1.302675 -2.383636,-0.774732 -1.278187,0.823155 -2.490697,1.695707 -2.670974,1.92219 -0.537813,0.675353 -0.500787,1.774781 0.106894,3.179766 0.614548,1.420603 1.282374,2.231848 2.768315,3.36232 1.533189,1.166394 2.155445,2.058275 2.491368,3.570256 0.107904,0.485183 0.218812,0.687848 0.378983,0.691948 0.03015,9.75e-4 0.143411,-0.133933 0.251649,-0.29931 M 10.828001,37.019598 c 2.900174,-6.025464 6.601202,-13.501214 8.89822,-17.980142 0.501288,-0.976225 0.911267,-1.803871 0.911267,-1.83843 0,-0.11168 -4.315075,-3.202412 -4.429674,-3.172931 -0.115278,0.02968 -3.973288,7.597582 -6.7117815,13.167343 -0.8683765,1.76502 -2.1587946,4.278412 -2.8683392,5.584408 -0.7090434,1.305996 -1.3963046,2.572161 -1.5271571,2.813679 -0.1373776,0.253429 -0.208591,0.472105 -0.1675432,0.517207 0.1941838,0.216916 4.5471232,3.464237 4.6133026,3.441001 0.041886,-0.01472 0.6187364,-1.154289 1.2818724,-2.531939 m 28.187465,-2.14028 c 1.120696,-0.742714 2.105013,-1.423924 2.188114,-1.513932 0.146434,-0.160092 0.140897,-0.181382 -0.272928,-1.014105 -0.232382,-0.467807 -0.79717,-1.610773 -1.254898,-2.54014 -0.457896,-0.929369 -0.885299,-1.701759 -0.949802,-1.716597 -0.171063,-0.03904 -4.407057,2.841015 -4.436042,3.016149 -0.02413,0.145645 2.199843,4.717126 2.447639,5.028348 0.07104,0.08961 0.154307,0.146819 0.184967,0.126705 0.03082,-0.02011 0.972924,-0.644115 2.093619,-1.386633 m 8.440827,-4.830369 c 0.0315,-0.0658 0.04975,-1.471759 0.04038,-3.123924 l -0.01709,-3.004435 -4.766939,-0.02361 c -4.159428,-0.02049 -4.763756,-0.0074 -4.741472,0.110706 0.01429,0.0738 0.677712,1.49011 1.474881,3.147353 l 1.449585,3.013221 0.313808,0.02696 c 0.17257,0.01472 1.635891,0.01472 3.251511,0 2.322483,-0.0211 2.949766,-0.05174 2.99517,-0.146435 m -15.08057,-0.128673 c 0.01264,-0.04569 -0.591428,-1.372575 -1.343696,-2.950156 l -1.367153,-2.866787 -5.812575,0 -5.812578,0 -1.372512,2.895877 c -0.754783,1.592618 -1.355091,2.92829 -1.333979,2.968315 0.05479,0.103095 17.012335,0.05623 17.042493,-0.04706 M 7.4091117,29.423383 c 0.15548,-0.313954 0.7975047,-1.608041 1.4269653,-2.875962 0.629459,-1.267729 1.1443203,-2.34685 1.1443203,-2.398198 0,-0.06248 -1.6059021,-0.08533 -4.8788576,-0.06952 l -4.87885843,0.02362 -0.0261365,0.639234 c -0.0142478,0.351636 -1.676e-4,1.676962 0.0283151,2.946251 l 0.0546185,2.306042 3.42324265,0 3.4232419,0 z M 36.156174,28.258941 c 1.990244,-1.27671 1.959249,-1.254256 1.959249,-1.41748 0,-0.158936 -1.048653,-2.319907 -4.608946,-9.496733 C 29.593003,9.4568165 27.869486,5.9794985 26.723995,3.6599838 25.59492,1.3746373 25.327857,0.94880716 24.843489,0.66082032 24.461992,0.43394529 23.852303,0.39880115 23.457907,0.58076974 23.082275,0.75414762 21.758851,1.652276 21.408686,1.9713064 c -0.561269,0.5117389 -0.774049,1.5234991 -0.488221,2.3210769 0.154307,0.4303199 0.04942,0.2157464 3.751459,7.6633787 5.828158,11.726433 8.823998,17.638461 9.009301,17.782943 0.04574,0.03574 0.259859,-0.05116 0.475822,-0.192512 0.215797,-0.141559 1.115504,-0.721042 1.999127,-1.287838 M 21.760861,14.764952 c 0.928022,-1.804459 1.064067,-2.120365 1.120865,-2.603597 0.118119,-1.003757 -0.335087,-1.676571 -1.767581,-2.6231215 -0.812081,-0.5365336 -0.944107,-0.5947163 -1.420097,-0.6261508 -0.650738,-0.042763 -0.971917,0.1165577 -1.419759,0.7044454 -0.335088,0.4402789 -1.633547,3.1317339 -1.631202,3.3832109 8.39e-4,0.08942 0.808732,0.720845 2.135674,1.669347 1.174477,0.83897 2.158626,1.527404 2.188113,1.529746 0.02982,0.0016 0.387026,-0.642748 0.79382,-1.43388" />
</svg>
