<?xml version="1.0" encoding="UTF-8" standalone="no"?>
<svg
   xmlns:dc="http://purl.org/dc/elements/1.1/"
   xmlns:cc="http://creativecommons.org/ns#"
   xmlns:rdf="http://www.w3.org/1999/02/22-rdf-syntax-ns#"
   xmlns:svg="http://www.w3.org/2000/svg"
   xmlns="http://www.w3.org/2000/svg"
   xmlns:sodipodi="http://sodipodi.sourceforge.net/DTD/sodipodi-0.dtd"
   xmlns:inkscape="http://www.inkscape.org/namespaces/inkscape"
   viewBox="0 0 48 48"
   id="svg2"
   version="1.1"
   inkscape:version="0.91 r13725"
   sodipodi:docname="org.kde.ktpcontactlist.svg">
  <metadata
     id="metadata24">
    <rdf:RDF>
      <cc:Work
         rdf:about="">
        <dc:format>image/svg+xml</dc:format>
        <dc:type
           rdf:resource="http://purl.org/dc/dcmitype/StillImage" />
        <dc:title></dc:title>
      </cc:Work>
    </rdf:RDF>
  </metadata>
  <sodipodi:namedview
     pagecolor="#ffffff"
     bordercolor="#666666"
     borderopacity="1"
     objecttolerance="10"
     gridtolerance="10"
     guidetolerance="10"
     inkscape:pageopacity="0"
     inkscape:pageshadow="2"
     inkscape:window-width="1280"
     inkscape:window-height="694"
     id="namedview22"
     showgrid="false"
     inkscape:zoom="4.9166667"
     inkscape:cx="-9.1525424"
     inkscape:cy="24"
     inkscape:window-x="0"
     inkscape:window-y="0"
     inkscape:window-maximized="1"
     inkscape:current-layer="svg2" />
  <defs
     id="defs4">
    <linearGradient
       gradientUnits="userSpaceOnUse"
       y2="7.379"
       x2="89.41"
       y1="47.992"
       x1="89.45"
       id="0"
       gradientTransform="matrix(1,0,0,1.0938145,-65.08,-7.3870667)">
      <stop
         stop-color="#1074f5"
         id="stop7" />
      <stop
         offset="1"
         stop-color="#02befd"
         id="stop9" />
    </linearGradient>
    <linearGradient
       gradientTransform="matrix(-0.55335,0,0,0.65904511,242.23,-311.87221)"
       gradientUnits="userSpaceOnUse"
       y2="507.87"
       x2="0"
       y1="546.8"
       id="1">
      <stop
         stop-color="#d3d3d3"
         id="stop12" />
      <stop
         offset="1"
         stop-color="#fcf9f9"
         id="stop14" />
    </linearGradient>
  </defs>
  <path
     inkscape:connector-curvature="0"
     style="fill:#3771c8"
     id="path18"
     d="M 40.93,6.7373599 C 36.404,2.7088411 30.395,0.48949151 24.009,0.48949151 17.623,0.48949151 11.614,2.7077473 7.088,6.7373599 2.523,10.800881 0.009,16.21745 0.009,21.987322 c 0,5.512825 2.292,10.690943 6.469,14.685553 -0.075,0.184855 -0.135,0.380648 -0.173,0.585191 l -1.373,7.385435 c -0.163,0.87724 0.056,1.401177 0.269,1.685569 0.246,0.329238 0.61,0.509717 1.026,0.509717 0.314,0 0.651,-0.101725 1,-0.300799 l 7.984,-4.537142 c 2.764,0.973495 5.736,1.483212 8.795,1.483212 6.386,0 12.395,-2.218256 16.921,-6.247868 4.565,-4.063521 7.079,-9.478997 7.079,-15.249962 0,-5.770965 -2.514,-11.186441 -7.079,-15.2499619" />
  <path
     inkscape:connector-curvature="0"
     style="fill:#d7e3f4"
     id="path20"
     d="m 27.21,26.084751 c 2.263,-2.198567 5.268,-3.401763 8.46,-3.401763 3.193,0 6.198,1.207571 8.46,3.401763 2.283,2.212787 3.54,5.160617 3.54,8.303146 0,2.998145 -1.146,5.820187 -3.235,7.99469 0.038,0.100631 0.068,0.206731 0.087,0.3183 l 0.686,4.020862 c 0.082,0.477997 -0.028,0.762389 -0.134,0.91771 -0.123,0.179386 -0.305,0.277829 -0.513,0.277829 -0.157,0 -0.326,-0.05469 -0.501,-0.164072 l -3.992,-2.469833 c -1.382,0.529406 -2.868,0.807235 -4.397,0.807235 -3.193,0 -6.198,-1.207571 -8.46,-3.401763 -2.283,-2.212787 -3.54,-5.160617 -3.54,-8.302052 0,-3.141435 1.257,-6.090359 3.54,-8.303146" />
</svg>
