<?xml version="1.0" encoding="UTF-8" standalone="no"?>
<svg
   xmlns:dc="http://purl.org/dc/elements/1.1/"
   xmlns:cc="http://creativecommons.org/ns#"
   xmlns:rdf="http://www.w3.org/1999/02/22-rdf-syntax-ns#"
   xmlns:svg="http://www.w3.org/2000/svg"
   xmlns="http://www.w3.org/2000/svg"
   xmlns:sodipodi="http://sodipodi.sourceforge.net/DTD/sodipodi-0.dtd"
   xmlns:inkscape="http://www.inkscape.org/namespaces/inkscape"
   viewBox="0 0 64 64"
   id="svg2"
   version="1.1"
   inkscape:version="0.91 r13725"
   sodipodi:docname="text-x-readme.svg">
  <metadata
     id="metadata19">
    <rdf:RDF>
      <cc:Work
         rdf:about="">
        <dc:format>image/svg+xml</dc:format>
        <dc:type
           rdf:resource="http://purl.org/dc/dcmitype/StillImage" />
        <dc:title></dc:title>
      </cc:Work>
    </rdf:RDF>
  </metadata>
  <sodipodi:namedview
     pagecolor="#ffffff"
     bordercolor="#666666"
     borderopacity="1"
     objecttolerance="10"
     gridtolerance="10"
     guidetolerance="10"
     inkscape:pageopacity="0"
     inkscape:pageshadow="2"
     inkscape:window-width="1280"
     inkscape:window-height="694"
     id="namedview17"
     showgrid="true"
     inkscape:zoom="3.6875"
     inkscape:cx="-12.20339"
     inkscape:cy="32"
     inkscape:window-x="0"
     inkscape:window-y="0"
     inkscape:window-maximized="1"
     inkscape:current-layer="svg2">
    <inkscape:grid
       type="xygrid"
       id="grid4147" />
  </sodipodi:namedview>
  <defs
     id="defs4">
    <linearGradient
       id="0"
       x1="-74.929"
       y1="52.2"
       x2="-75.26"
       y2="2.356"
       gradientUnits="userSpaceOnUse"
       gradientTransform="matrix(1.5453978,0,0,0.90017184,148.70011,-0.80215259)">
      <stop
         stop-color="#197cf1"
         id="stop7" />
      <stop
         offset="1"
         stop-color="#20bcfa"
         id="stop9" />
    </linearGradient>
  </defs>
  <rect
     style="fill:url(#0)"
     id="rect13"
     rx="3.5934551"
     y="0.65283597"
     x="0.51073289"
     height="52.937923"
     width="63.254234" />
  <path
     style="fill:#0b3969"
     inkscape:connector-curvature="0"
     id="path15"
     d="m 42.306949,34.378918 c -8.601096,0 -15.525446,6.501027 -15.525446,14.576294 0,8.075267 6.92435,14.576294 15.525446,14.576294 8.601098,0 15.525448,-6.501027 15.525448,-14.576294 0,-8.075267 -6.92435,-14.576294 -15.525448,-14.576294 m -0.07199,5.990856 c 1.329542,0 2.409266,1.01239 2.409266,2.261977 0,1.249585 -1.079724,2.261975 -2.409266,2.261975 -1.330954,0 -2.41209,-1.01239 -2.41209,-2.261975 0,-1.250913 1.081136,-2.261977 2.41209,-2.261977 m -0.01126,5.691381 c 1.287201,0 2.200379,0.981912 2.200379,2.191744 l 0,7.445837 c 0,1.209832 -0.911767,2.189094 -2.200379,2.189094 -1.288612,0 -2.203203,-0.979262 -2.203203,-2.189094 l 0,-7.445837 c 0,-1.208507 0.914591,-2.191744 2.203203,-2.191744" />
</svg>
