<?xml version="1.0" encoding="UTF-8" standalone="no"?>
<svg
   xmlns:dc="http://purl.org/dc/elements/1.1/"
   xmlns:cc="http://creativecommons.org/ns#"
   xmlns:rdf="http://www.w3.org/1999/02/22-rdf-syntax-ns#"
   xmlns:svg="http://www.w3.org/2000/svg"
   xmlns="http://www.w3.org/2000/svg"
   xmlns:sodipodi="http://sodipodi.sourceforge.net/DTD/sodipodi-0.dtd"
   xmlns:inkscape="http://www.inkscape.org/namespaces/inkscape"
   viewBox="0 0 64 64"
   id="svg2"
   version="1.1"
   inkscape:version="0.91 r13725"
   sodipodi:docname="application-vnd.stardivision.draw.svg">
  <metadata
     id="metadata19">
    <rdf:RDF>
      <cc:Work
         rdf:about="">
        <dc:format>image/svg+xml</dc:format>
        <dc:type
           rdf:resource="http://purl.org/dc/dcmitype/StillImage" />
        <dc:title></dc:title>
      </cc:Work>
    </rdf:RDF>
  </metadata>
  <sodipodi:namedview
     pagecolor="#ffffff"
     bordercolor="#666666"
     borderopacity="1"
     objecttolerance="10"
     gridtolerance="10"
     guidetolerance="10"
     inkscape:pageopacity="0"
     inkscape:pageshadow="2"
     inkscape:window-width="1280"
     inkscape:window-height="694"
     id="namedview17"
     showgrid="true"
     inkscape:zoom="3.6875"
     inkscape:cx="-18.415217"
     inkscape:cy="32"
     inkscape:window-x="0"
     inkscape:window-y="0"
     inkscape:window-maximized="1"
     inkscape:current-layer="svg2">
    <inkscape:grid
       type="xygrid"
       id="grid4137" />
  </sodipodi:namedview>
  <defs
     id="defs4">
    <linearGradient
       id="0"
       x1="-74.929"
       y1="52.2"
       x2="-75.26"
       y2="2.356"
       gradientUnits="userSpaceOnUse"
       gradientTransform="matrix(1.07499,0,0,1.02929,113.079,0.073)">
      <stop
         stop-color="#2aaa76"
         id="stop7" />
      <stop
         offset="1"
         stop-color="#3ec380"
         id="stop9" />
    </linearGradient>
  </defs>
  <rect
     style="fill:#2ca05a"
     id="rect13"
     rx="3.6093988"
     width="63.525421"
     height="52.936779"
     x="0.23728909"
     y="0.6492542" />
  <path
     style="fill:#d7f4e3;fill-opacity:0.85"
     inkscape:connector-curvature="0"
     id="path15"
     d="m 30.253735,62.152332 10.176135,0 0,1.218333 3.70027,0 0,-1.218333 10.219834,0 0,1.377521 3.70027,0 0,-3.411074 -1.365323,0 0,-9.539784 1.321548,0 0,-3.411073 -1.321548,0 0,-8.856419 1.365401,0 0,-3.411073 -3.70027,0 0,0.693868 -10.219834,0 0,-1.218261 -3.700271,0 0,1.218261 -10.176135,0 0,-0.85284 -3.700271,0 0,3.411073 1.321547,0 0,9.015391 -1.321547,0 0,3.411073 1.321547,0 0,9.380812 -1.321547,0 0,3.411074 3.700271,0 0,-1.218334 m -1.057176,0 0,0.24371 -1.585919,0 0,-1.46197 0.264371,0 1.057254,0 0.264372,0 0,0.243709 0,0.974551 z m 12.290799,-26.558465 0,-0.24371 1.58592,0 0,0.24371 0,0.509647 0,0.464904 0,0.243638 -1.58592,0 0,-0.243638 0,-0.464904 0,-0.509647 m 1.58592,26.558465 0,0.24371 -1.58592,0 0,-0.24371 0,-0.509646 0,-0.464833 0,-0.24371 1.58592,0 0,0.24371 0,0.464833 0,0.509646 m 0.176117,-12.730741 c 0.102765,0.09517 0.102765,0.24932 0,0.344487 -0.05213,0.04754 -0.119235,0.07136 -0.187354,0.07136 -0.06711,0 -0.135073,-0.02381 -0.186964,-0.07136 l -0.594681,-0.548274 -0.59476,0.548274 c -0.05189,0.04754 -0.119459,0.07136 -0.187119,0.07136 -0.06765,0 -0.135229,-0.02381 -0.187199,-0.07136 -0.102922,-0.09517 -0.102922,-0.24932 0,-0.344487 l 0.594759,-0.548276 -0.594759,-0.548275 c -0.102922,-0.09488 -0.102922,-0.249608 0,-0.34456 0.103002,-0.09495 0.270771,-0.09495 0.373773,0 l 0.595227,0.548275 0.594681,-0.548275 c 0.103239,-0.09495 0.270536,-0.09495 0.373773,0 0.103239,0.09495 0.103239,0.249609 0,0.34456 l -0.594759,0.548275 0.595227,0.548276 m 13.744532,13.133567 -1.585841,0 0,-0.402538 0,-0.974551 0,-0.08474 0.220439,0 1.057254,0 0.308148,0 0,1.461899 z m -2.643095,-2.43645 0,1.059361 -8.279181,0 c 4.614024,-1.205961 8.248748,-4.556251 9.556562,-8.810382 l 0,7.750805 -1.277693,0 m 2.599241,-10.514479 -0.264294,0 -0.552856,0 -0.50432,0 -0.264294,0 0,-1.461971 0.264294,0 0.50432,0 0.552856,0 0.264294,0 0,1.461971 m -1.54191,-13.729174 1.277616,0 0.308148,0 0,1.46197 -0.308148,0 -1.057254,0 -0.220439,0 0,-0.768103 0,-0.693867 z m -1.057254,0.693867 0,1.742942 1.277616,0 0,7.067439 c -1.308126,-4.254131 -4.942538,-7.604061 -9.556562,-8.810381 l 8.279181,0 z m -26.739178,-0.852912 0.264372,0 1.321548,0 0,0.852839 0,0.609131 -0.264372,0 -1.057254,0 -0.264371,0 0,-1.46197 z m 2.643096,2.436594 0,-1.58397 8.234702,0 c -4.614024,1.206032 -8.247968,4.556251 -9.556562,8.809662 l 0,-7.225692 1.321548,0 m -2.643096,9.990086 0.264372,0 0.552856,0 0.50432,0 0.264371,0 0,1.461971 -0.264371,0 -0.50432,0 -0.552856,0 -0.264372,0 0,-1.461971 m 1.321548,4.225501 c 1.308438,4.254131 4.942538,7.604061 9.556562,8.810382 l -8.234702,0 0,-1.218333 -1.321548,0 0,-7.591833" />
</svg>
