<?xml version="1.0" encoding="UTF-8" standalone="no"?>
<svg
   xmlns:dc="http://purl.org/dc/elements/1.1/"
   xmlns:cc="http://creativecommons.org/ns#"
   xmlns:rdf="http://www.w3.org/1999/02/22-rdf-syntax-ns#"
   xmlns:svg="http://www.w3.org/2000/svg"
   xmlns="http://www.w3.org/2000/svg"
   xmlns:sodipodi="http://sodipodi.sourceforge.net/DTD/sodipodi-0.dtd"
   xmlns:inkscape="http://www.inkscape.org/namespaces/inkscape"
   viewBox="0 0 64 64"
   id="svg2"
   version="1.1"
   inkscape:version="0.91 r13725"
   sodipodi:docname="application-vnd.oasis.opendocument.formula.svg">
  <metadata
     id="metadata19">
    <rdf:RDF>
      <cc:Work
         rdf:about="">
        <dc:format>image/svg+xml</dc:format>
        <dc:type
           rdf:resource="http://purl.org/dc/dcmitype/StillImage" />
        <dc:title></dc:title>
      </cc:Work>
    </rdf:RDF>
  </metadata>
  <sodipodi:namedview
     pagecolor="#ffffff"
     bordercolor="#666666"
     borderopacity="1"
     objecttolerance="10"
     gridtolerance="10"
     guidetolerance="10"
     inkscape:pageopacity="0"
     inkscape:pageshadow="2"
     inkscape:window-width="1280"
     inkscape:window-height="694"
     id="namedview17"
     showgrid="true"
     inkscape:zoom="3.6875"
     inkscape:cx="-13.111435"
     inkscape:cy="32"
     inkscape:window-x="0"
     inkscape:window-y="0"
     inkscape:window-maximized="1"
     inkscape:current-layer="svg2">
    <inkscape:grid
       type="xygrid"
       id="grid4137" />
  </sodipodi:namedview>
  <defs
     id="defs4">
    <linearGradient
       id="0"
       x1="-74.929"
       y1="52.2"
       x2="-75.26"
       y2="2.356"
       gradientUnits="userSpaceOnUse"
       gradientTransform="matrix(1.07499,0,0,1.02929,113.079,0.206)">
      <stop
         stop-color="#9154ae"
         id="stop7" />
      <stop
         offset="1"
         stop-color="#ba8bcf"
         id="stop9" />
    </linearGradient>
  </defs>
  <rect
     style="fill:#b380ff"
     id="rect13"
     rx="3.5785823"
     y="0.24088138"
     x="0.50847554"
     height="53.490337"
     width="62.983047" />
  <path
     style="opacity:0.9;fill:#220055"
     inkscape:connector-curvature="0"
     id="path15"
     d="m 50.997062,58.049577 c -4.39778,-3.4092 -1.293965,-17.432286 -1.293965,-17.432286 0,0 4.81413,0 5.37493,0 0.560799,0 2.760295,-0.350186 2.760295,-2.960336 0,-3.211844 -2.687465,-3.014488 -2.687465,-3.014488 0,0 -14.732501,0 -19.79183,0 -3.248264,0 -6.180926,3.687182 -7.864536,6.32501 -0.895823,1.409168 -0.389645,1.803879 1.149516,1.139609 5.394351,-2.341794 6.914091,-1.498219 6.914091,-1.498219 0.379935,1.803879 0.506175,9.941193 -0.877612,13.153037 -1.403213,3.024115 -3.99114,6.854501 -0.190575,9.106041 2.967862,1.6691 6.08139,-1.758151 5.773071,-7.590975 -0.144449,-3.086692 -0.389645,-14.659679 -0.389645,-14.659679 l 4.959791,0 c -0.154157,1.803879 -0.995356,11.008598 -0.117742,16.463558 0.91403,9.106041 10.895521,7.339467 12.759995,2.18054 0.461262,-1.426015 0.353231,-2.521099 0.0085,-3.346623 -0.63363,-1.534321 -1.692106,-1.614948 -1.574364,-0.896525 0.07284,0.457288 0.0267,0.906152 -0.04491,1.31049 -0.21728,1.246711 -2.787001,3.202217 -4.86754,1.723253" />
</svg>
