<?xml version="1.0" encoding="UTF-8" standalone="no"?>
<svg
   xmlns:dc="http://purl.org/dc/elements/1.1/"
   xmlns:cc="http://creativecommons.org/ns#"
   xmlns:rdf="http://www.w3.org/1999/02/22-rdf-syntax-ns#"
   xmlns:svg="http://www.w3.org/2000/svg"
   xmlns="http://www.w3.org/2000/svg"
   xmlns:sodipodi="http://sodipodi.sourceforge.net/DTD/sodipodi-0.dtd"
   xmlns:inkscape="http://www.inkscape.org/namespaces/inkscape"
   viewBox="0 0 64 64"
   id="svg2"
   version="1.1"
   inkscape:version="0.91 r13725"
   sodipodi:docname="image-x-krita.svg">
  <metadata
     id="metadata23">
    <rdf:RDF>
      <cc:Work
         rdf:about="">
        <dc:format>image/svg+xml</dc:format>
        <dc:type
           rdf:resource="http://purl.org/dc/dcmitype/StillImage" />
        <dc:title></dc:title>
      </cc:Work>
    </rdf:RDF>
  </metadata>
  <sodipodi:namedview
     pagecolor="#ffffff"
     bordercolor="#666666"
     borderopacity="1"
     objecttolerance="10"
     gridtolerance="10"
     guidetolerance="10"
     inkscape:pageopacity="0"
     inkscape:pageshadow="2"
     inkscape:window-width="1280"
     inkscape:window-height="694"
     id="namedview21"
     showgrid="true"
     inkscape:zoom="3.6875"
     inkscape:cx="-12.20339"
     inkscape:cy="32"
     inkscape:window-x="0"
     inkscape:window-y="0"
     inkscape:window-maximized="1"
     inkscape:current-layer="svg2">
    <inkscape:grid
       type="xygrid"
       id="grid4151" />
  </sodipodi:namedview>
  <defs
     id="defs4">
    <linearGradient
       id="0"
       x1="-74.929"
       y1="52.2"
       x2="-75.26"
       y2="2.356"
       gradientUnits="userSpaceOnUse"
       gradientTransform="matrix(1.07499,0,0,1.02929,56.689,0.25)">
      <stop
         stop-color="#1e56e6"
         id="stop7" />
      <stop
         offset="1"
         stop-color="#1f9aed"
         id="stop9" />
    </linearGradient>
  </defs>
  <g
     transform="matrix(1.4375963,0,0,0.87455443,67.198566,-1.0220193)"
     id="g11">
    <rect
       width="44"
       height="60.529999"
       x="-46.389999"
       y="1.911"
       rx="2.5"
       id="rect13"
       style="fill:url(#0);stroke-width:1" />
  </g>
  <g
     transform="matrix(-0.07702005,-0.05941079,0.06948996,-0.06584869,34.976378,69.153792)"
     id="g15"
     style="fill:#aaccff">
    <path
       d="M 123.57,43.994 C 112.137,31.716 103.107,22.016 106.1,5.339 106.393,3.699 105.766,2.032 104.465,0.992 103.646,0.338 102.645,0 101.634,0 c -0.598,0 -1.201,0.118 -1.771,0.358 -25.717,10.891 -53.4,45.836 -53.4,96.83 0.002,23.16 5.347,42.33 15.462,55.43 2.642,3.418 5.588,6.38 8.776,8.891 l 55.27,0.261 c 2.092,-1.575 4.09,-3.329 5.955,-5.271 8.979,-9.334 19.412,-27.23 18.15,-59.49 -0.996,-25.608 -14.553,-40.17 -26.512,-53.01"
       id="path17"
       inkscape:connector-curvature="0"
       style="fill:#aaccff" />
    <path
       d="m 71.02,173.38 c -2.805,15.869 -5.354,33.595 -5.354,45.538 0,23.823 11.479,186.68 11.969,193.6 0.78,11.03 9.953,19.579 21.01,19.579 11.06,0 20.229,-8.552 21.01,-19.581 0.488,-6.933 11.972,-170.06 11.972,-193.6 0,-11.776 -2.536,-29.42 -5.329,-45.28 l -55.28,-0.261"
       id="path19"
       inkscape:connector-curvature="0"
       style="fill:#aaccff" />
  </g>
</svg>
