<?xml version="1.0" encoding="UTF-8" standalone="no"?>
<svg
   xmlns:dc="http://purl.org/dc/elements/1.1/"
   xmlns:cc="http://creativecommons.org/ns#"
   xmlns:rdf="http://www.w3.org/1999/02/22-rdf-syntax-ns#"
   xmlns:svg="http://www.w3.org/2000/svg"
   xmlns="http://www.w3.org/2000/svg"
   xmlns:sodipodi="http://sodipodi.sourceforge.net/DTD/sodipodi-0.dtd"
   xmlns:inkscape="http://www.inkscape.org/namespaces/inkscape"
   viewBox="0 0 64 64"
   id="svg2"
   version="1.1"
   inkscape:version="0.91 r13725"
   sodipodi:docname="mail-message-new-list.svg">
  <metadata
     id="metadata19">
    <rdf:RDF>
      <cc:Work
         rdf:about="">
        <dc:format>image/svg+xml</dc:format>
        <dc:type
           rdf:resource="http://purl.org/dc/dcmitype/StillImage" />
        <dc:title></dc:title>
      </cc:Work>
    </rdf:RDF>
  </metadata>
  <sodipodi:namedview
     pagecolor="#ffffff"
     bordercolor="#666666"
     borderopacity="1"
     objecttolerance="10"
     gridtolerance="10"
     guidetolerance="10"
     inkscape:pageopacity="0"
     inkscape:pageshadow="2"
     inkscape:window-width="1280"
     inkscape:window-height="694"
     id="namedview17"
     showgrid="true"
     inkscape:zoom="3.6875"
     inkscape:cx="-12.20339"
     inkscape:cy="32"
     inkscape:window-x="0"
     inkscape:window-y="0"
     inkscape:window-maximized="1"
     inkscape:current-layer="svg2">
    <inkscape:grid
       type="xygrid"
       id="grid4147" />
  </sodipodi:namedview>
  <defs
     id="defs4">
    <linearGradient
       id="0"
       x1="-74.929"
       y1="52.2"
       x2="-75.26"
       y2="2.356"
       gradientUnits="userSpaceOnUse"
       gradientTransform="matrix(1.5520233,0,0,0.90017184,149.33763,-0.80332376)">
      <stop
         stop-color="#259ee1"
         id="stop7" />
      <stop
         offset="1"
         stop-color="#19b4fd"
         id="stop9" />
    </linearGradient>
  </defs>
  <rect
     style="fill:url(#0)"
     id="rect13"
     rx="3.6088612"
     y="0.64879787"
     x="0.51055264"
     height="52.937923"
     width="63.525425" />
  <g
     id="g3"
     transform="matrix(0.07696821,0,0,0.05921821,23.921474,34.406779)"
     style="fill:#d5e5ff">
    <path
       d="M 312.001,55.518 C 311.759,54 309.228,40.293 296.218,26.668 284.606,14.502 261.905,0 219.722,0 c -42.186,0 -64.908,14.545 -76.543,26.746 -13.021,13.658 -15.57,27.238 -15.82,28.76 -0.465,2.855 0.35,5.773 2.225,7.976 1.875,2.201 4.619,3.473 7.512,3.473 0.002,0 0.006,0 0.008,0 l 165.172,0 c 2.891,-0.004 5.633,-1.273 7.5,-3.475 1.871,-2.201 2.686,-5.111 2.225,-7.962 z"
       id="path5"
       inkscape:connector-curvature="0"
       style="fill:#d5e5ff" />
    <path
       d="m 320.462,220.08 -51.514,0 c -3.244,0 -6.324,1.227 -8.678,3.455 l -39.768,37.644 -39.768,-37.643 c -2.354,-2.23 -5.439,-3.457 -8.684,-3.457 l -51.508,0 c -42.992,0 -77.967,34.973 -77.967,77.965 l 0,141.781 c 0,6.963 5.666,12.629 12.631,12.629 l 193.074,0 c 1.359,0 2.457,-1.102 2.457,-2.457 l 0,-95.682 c 0,-31.805 25.875,-57.68 57.682,-57.68 l 87.447,0 c 0.676,0 1.318,-0.275 1.783,-0.764 0.465,-0.488 0.705,-1.146 0.672,-1.818 -2.101,-41.479 -36.3,-73.973 -77.859,-73.973 z m -149.59,87.303 c 0,2.965 -2.404,5.369 -5.369,5.369 l -61.232,0 c -2.967,0 -5.371,-2.404 -5.371,-5.369 l 0,-15.039 c 0,-2.967 2.404,-5.371 5.371,-5.371 l 61.232,0 c 2.965,0 5.369,2.404 5.369,5.371 l 0,15.039 z"
       id="path7"
       inkscape:connector-curvature="0"
       style="fill:#d5e5ff" />
    <path
       d="m 310.271,84.24 c -3.08,-1.725 -7.781,-1.967 -12.076,-1.967 -3.584,0 -42.227,-0.004 -78.838,-0.008 -36.605,0.004 -75.246,0.008 -78.832,0.008 -4.293,0 -8.994,0.242 -12.076,1.967 -9.707,5.438 -7.592,27.416 -6.707,36.459 1.9,19.43 9.717,38.016 22.172,53.037 18.725,22.582 46.809,35.293 75.443,35.482 28.641,-0.189 56.725,-12.9 75.451,-35.482 12.453,-15.021 20.268,-33.607 22.168,-53.037 0.884,-9.043 3.005,-31.021 -6.705,-36.459 z m -84.118,105.047 c -2.275,0.207 -4.541,0.297 -6.797,0.297 -2.25,0 -4.514,-0.09 -6.791,-0.297 -39.496,-3.559 -70.967,-37.355 -71.557,-77.023 22.666,17.287 50.502,25.945 78.348,25.977 27.852,-0.031 55.688,-8.689 78.354,-25.977 -0.588,39.668 -32.059,73.465 -71.557,77.023 z"
       id="path9"
       inkscape:connector-curvature="0"
       style="fill:#d5e5ff" />
    <path
       d="m 410.095,318.912 -35.619,0 0,29.236 c 0,2.441 -1.988,4.426 -4.428,4.426 l -19.475,0 c -2.439,0 -4.428,-1.984 -4.428,-4.426 l 0,-29.236 -35.615,0 c -20.617,0 -37.33,16.713 -37.33,37.328 l 0,96.434 c 0,20.617 16.713,37.326 37.33,37.326 l 99.565,0 c 20.615,0 37.328,-16.709 37.328,-37.326 l 0,-96.434 c 0,-20.615 -16.713,-37.328 -37.328,-37.328 z"
       id="path11"
       inkscape:connector-curvature="0"
       style="fill:#d5e5ff" />
  </g>
</svg>
