<?xml version="1.0" encoding="UTF-8" standalone="no"?>
<svg
   xmlns:dc="http://purl.org/dc/elements/1.1/"
   xmlns:cc="http://creativecommons.org/ns#"
   xmlns:rdf="http://www.w3.org/1999/02/22-rdf-syntax-ns#"
   xmlns:svg="http://www.w3.org/2000/svg"
   xmlns="http://www.w3.org/2000/svg"
   xmlns:sodipodi="http://sodipodi.sourceforge.net/DTD/sodipodi-0.dtd"
   xmlns:inkscape="http://www.inkscape.org/namespaces/inkscape"
   viewBox="0 0 48 48"
   id="svg2"
   version="1.1"
   inkscape:version="0.91 r13725"
   sodipodi:docname="AdobeFirework.svg">
  <metadata
     id="metadata23">
    <rdf:RDF>
      <cc:Work
         rdf:about="">
        <dc:format>image/svg+xml</dc:format>
        <dc:type
           rdf:resource="http://purl.org/dc/dcmitype/StillImage" />
        <dc:title></dc:title>
      </cc:Work>
    </rdf:RDF>
  </metadata>
  <sodipodi:namedview
     pagecolor="#ffffff"
     bordercolor="#666666"
     borderopacity="1"
     objecttolerance="10"
     gridtolerance="10"
     guidetolerance="10"
     inkscape:pageopacity="0"
     inkscape:pageshadow="2"
     inkscape:window-width="1280"
     inkscape:window-height="694"
     id="namedview21"
     showgrid="false"
     inkscape:zoom="4.9166667"
     inkscape:cx="-45.661017"
     inkscape:cy="24"
     inkscape:window-x="0"
     inkscape:window-y="0"
     inkscape:window-maximized="1"
     inkscape:current-layer="svg2" />
  <defs
     id="defs4">
    <clipPath
       id="clipPath6">
      <path
         d="m7 1023.36h1v1h-1z"
         id="path8" />
    </clipPath>
    <linearGradient
       id="0"
       gradientUnits="userSpaceOnUse"
       y1="61.831"
       x2="0"
       y2="-.203">
      <stop
         stop-color="#fec600"
         id="stop11" />
      <stop
         stop-color="#ffe636"
         offset="1"
         id="stop13" />
    </linearGradient>
  </defs>
  <path
     style="fill:#a02c2c;fill-rule:evenodd"
     inkscape:connector-curvature="0"
     id="path19"
     d="m 6.0135421,45.890145 15.2775929,0 0,2.002149 5.554915,0 0,-2.002149 15.343798,0 0,2.262397 5.554915,0 0,-5.604101 -2.049203,0 0,-15.673922 1.984573,0 0,-5.604103 -1.984573,0 0,-14.5499075 2.049203,0 0,-5.6041017 -5.554915,0 0,1.1399797 -15.343798,0 0,-2.00214921 -5.554915,0 0,2.00214921 -15.2775929,0 0,-1.40182379 -5.55491498,0 0,5.60410169 1.98457378,0 0,14.8117516 -1.98457378,0 0,5.604103 1.98457378,0 0,15.412078 -1.98457378,0 0,5.604102 5.55491498,0 0,-2.00215 m -1.5920724,0 0,0.40075 -2.3818047,0 0,-2.402899 0.3972309,0 1.5920723,0 0.3972297,0 0,0.400749 0,1.59661 M 22.878479,2.2484033 l 0,-0.400749 2.381804,0 0,0.400749 0,0.8382204 0,0.7631796 0,0.4007492 -2.381804,0 0,-0.4007492 0,-0.7631796 0,-0.8382204 m 2.381804,43.6353557 0,0.400749 -2.381804,0 0,-0.400749 0,-0.838219 0,-0.763181 0,-0.400749 2.381804,0 0,0.400749 0,0.763181 0,0.838219 m 0.264819,-20.915593 c 0.154479,0.156468 0.154479,0.408733 0,0.5652 -0.07882,0.07824 -0.178122,0.116551 -0.280583,0.116551 -0.100885,0 -0.203344,-0.03832 -0.280583,-0.116551 l -0.892191,-0.900488 -0.892191,0.900488 c -0.07882,0.07824 -0.178123,0.116551 -0.280583,0.116551 -0.10246,0 -0.203345,-0.03832 -0.280583,-0.116551 -0.154479,-0.156467 -0.154479,-0.408732 0,-0.5652 l 0.892191,-0.900488 -0.892191,-0.900488 c -0.154479,-0.154871 -0.154479,-0.410329 0,-0.5652 0.154478,-0.154871 0.406687,-0.154871 0.561166,0 l 0.893768,0.900488 0.892191,-0.900488 c 0.154477,-0.154871 0.405111,-0.154871 0.561166,0 0.154478,0.154871 0.154478,0.410329 0,0.5652 l -0.892191,0.900488 0.893767,0.900488 m 20.633893,21.57659 -2.380228,0 0,-0.660997 0,-1.59661 0,-0.138905 0.331025,0 1.592073,0 0.463435,0 0,2.401301 m -3.969147,-4.002701 0,1.740305 -12.430778,0 c 6.927881,-1.981393 12.383489,-7.486505 14.347569,-14.481255 l 0,12.734563 -1.918368,0 m 3.902942,-17.275321 -0.397229,0 -0.830715,0 -0.75663,0 -0.397229,0 0,-2.402899 0.397229,0 0.75663,0 0.830715,0 0.397229,0 0,2.402899 M 43.78665,2.7050339 l 1.918368,0 0.463435,0 0,2.4028983 -0.463435,0 -1.592073,0 -0.331025,0 0,-1.261322 0,-1.1399797 m -1.592072,1.1399797 0,2.862722 1.918369,0 0,11.6105488 C 42.144135,11.329922 36.686951,5.8264068 29.760646,3.8386272 l 12.430778,0 M 2.0443944,2.4368033 l 0.3972297,0 1.9845738,0 0,1.4018239 0,1.0010745 -0.3972297,0 -1.5920723,0 -0.3972309,0 0,-2.4028984 m 3.9691477,4.0027018 0,-2.6008779 12.3629973,0 C 11.443929,5.8216169 5.9883208,11.323536 4.0242389,18.319881 l 0,-11.8707963 1.9845738,0 M 2.039665,22.862237 l 0.3972309,0 0.830715,0 0.756628,0 0.3972308,0 0,2.402899 -0.3972308,0 -0.756628,0 -0.830715,0 -0.3972309,0 0,-2.402899 m 1.9845739,6.943657 C 5.9898976,36.795855 11.443929,42.29937 18.37181,44.287149 l -12.3629973,0 0,-2.002149 -1.9845738,0 0,-12.472719" />
</svg>
