<?xml version="1.0" encoding="UTF-8" standalone="no"?>
<!-- Generator: Adobe Illustrator 19.0.0, SVG Export Plug-In . SVG Version: 6.00 Build 0)  -->

<svg
   xmlns:dc="http://purl.org/dc/elements/1.1/"
   xmlns:cc="http://creativecommons.org/ns#"
   xmlns:rdf="http://www.w3.org/1999/02/22-rdf-syntax-ns#"
   xmlns:svg="http://www.w3.org/2000/svg"
   xmlns="http://www.w3.org/2000/svg"
   xmlns:sodipodi="http://sodipodi.sourceforge.net/DTD/sodipodi-0.dtd"
   xmlns:inkscape="http://www.inkscape.org/namespaces/inkscape"
   version="1.1"
   id="Capa_1"
   x="0px"
   y="0px"
   viewBox="0 0 57.157 57.157"
   style="enable-background:new 0 0 57.157 57.157;"
   xml:space="preserve"
   inkscape:version="0.91 r13725"
   sodipodi:docname="alarm-clock.svg"><metadata
     id="metadata79"><rdf:RDF><cc:Work
         rdf:about=""><dc:format>image/svg+xml</dc:format><dc:type
           rdf:resource="http://purl.org/dc/dcmitype/StillImage" /><dc:title></dc:title></cc:Work></rdf:RDF></metadata><defs
     id="defs77" /><sodipodi:namedview
     pagecolor="#ffffff"
     bordercolor="#666666"
     borderopacity="1"
     objecttolerance="10"
     gridtolerance="10"
     guidetolerance="10"
     inkscape:pageopacity="0"
     inkscape:pageshadow="2"
     inkscape:window-width="1280"
     inkscape:window-height="694"
     id="namedview75"
     showgrid="false"
     inkscape:zoom="4.128978"
     inkscape:cx="-10.898581"
     inkscape:cy="28.578501"
     inkscape:window-x="0"
     inkscape:window-y="0"
     inkscape:window-maximized="1"
     inkscape:current-layer="Capa_1" /><circle
     style="fill:#E0E1E2;"
     cx="28.578"
     cy="29.157"
     r="26"
     id="circle3" /><circle
     style="fill:#FFFFFF;"
     cx="28.578"
     cy="29.157"
     r="15"
     id="circle5" /><path
     style="fill:#424A60;"
     d="M12.578,57.157c-0.256,0-0.512-0.098-0.707-0.293c-0.391-0.391-0.391-1.023,0-1.414l3.933-3.933  c0.391-0.391,1.023-0.391,1.414,0s0.391,1.023,0,1.414l-3.933,3.933C13.09,57.059,12.834,57.157,12.578,57.157z"
     id="path7" /><path
     style="fill:#424A60;"
     d="M44.578,57.157c-0.256,0-0.512-0.098-0.707-0.293l-3.963-3.963c-0.391-0.391-0.391-1.023,0-1.414  s1.023-0.391,1.414,0l3.963,3.963c0.391,0.391,0.391,1.023,0,1.414C45.09,57.059,44.834,57.157,44.578,57.157z"
     id="path9" /><path
     style="fill:#C7CAC7;"
     d="M46.672,11.371c-0.256,0-0.512-0.098-0.707-0.293c-0.391-0.391-0.391-1.023,0-1.414l3-3  c0.391-0.391,1.023-0.391,1.414,0s0.391,1.023,0,1.414l-3,3C47.183,11.274,46.927,11.371,46.672,11.371z"
     id="path11" /><path
     style="fill:#C7CAC7;"
     d="M10.485,11.371c-0.256,0-0.512-0.098-0.707-0.293l-3-3c-0.391-0.391-0.391-1.023,0-1.414  s1.023-0.391,1.414,0l3,3c0.391,0.391,0.391,1.023,0,1.414C10.997,11.274,10.741,11.371,10.485,11.371z"
     id="path13" /><path
     style="fill:#26B99A;"
     d="M28.578,57.157c-15.439,0-28-12.561-28-28s12.561-28,28-28s28,12.561,28,28  S44.018,57.157,28.578,57.157z M28.578,5.157c-13.234,0-24,10.767-24,24s10.766,24,24,24s24-10.767,24-24S41.812,5.157,28.578,5.157  z"
     id="path15" /><g
     id="g17"><path
       style="fill:#26B99A;"
       d="M28.578,6.036c-0.552,0-1,0.447-1,1v1c0,0.553,0.448,1,1,1s1-0.447,1-1v-1   C29.578,6.483,29.131,6.036,28.578,6.036z"
       id="path19" /><path
       style="fill:#26B99A;"
       d="M28.578,49.036c-0.552,0-1,0.447-1,1v1c0,0.553,0.448,1,1,1s1-0.447,1-1v-1   C29.578,49.483,29.131,49.036,28.578,49.036z"
       id="path21" /><path
       style="fill:#26B99A;"
       d="M50.578,28.036h-1c-0.552,0-1,0.447-1,1s0.448,1,1,1h1c0.552,0,1-0.447,1-1   S51.131,28.036,50.578,28.036z"
       id="path23" /><path
       style="fill:#26B99A;"
       d="M7.578,28.036h-1c-0.552,0-1,0.447-1,1s0.448,1,1,1h1c0.552,0,1-0.447,1-1   S8.131,28.036,7.578,28.036z"
       id="path25" /><path
       style="fill:#26B99A;"
       d="M43.427,12.772l-0.707,0.707c-0.391,0.391-0.391,1.023,0,1.414c0.195,0.195,0.451,0.293,0.707,0.293   s0.512-0.098,0.707-0.293l0.707-0.707c0.391-0.391,0.391-1.023,0-1.414S43.818,12.381,43.427,12.772z"
       id="path27" /><path
       style="fill:#26B99A;"
       d="M13.022,43.178l-0.707,0.707c-0.391,0.391-0.391,1.023,0,1.414c0.195,0.195,0.451,0.293,0.707,0.293   s0.512-0.098,0.707-0.293l0.707-0.707c0.391-0.391,0.391-1.023,0-1.414S13.413,42.788,13.022,43.178z"
       id="path29" /><path
       style="fill:#26B99A;"
       d="M44.134,43.178c-0.391-0.391-1.023-0.391-1.414,0s-0.391,1.023,0,1.414l0.707,0.707   c0.195,0.195,0.451,0.293,0.707,0.293s0.512-0.098,0.707-0.293c0.391-0.391,0.391-1.023,0-1.414L44.134,43.178z"
       id="path31" /><path
       style="fill:#26B99A;"
       d="M13.729,12.772c-0.391-0.391-1.023-0.391-1.414,0s-0.391,1.023,0,1.414l0.707,0.707   c0.195,0.195,0.451,0.293,0.707,0.293s0.512-0.098,0.707-0.293c0.391-0.391,0.391-1.023,0-1.414L13.729,12.772z"
       id="path33" /></g><path
     style="fill:#424A60;"
     d="M39.578,30.157h-8c-0.552,0-1-0.447-1-1s0.448-1,1-1h8c0.552,0,1,0.447,1,1  S40.131,30.157,39.578,30.157z"
     id="path35" /><path
     style="fill:#424A60;"
     d="M28.578,27.157c-0.552,0-1-0.447-1-1v-11c0-0.553,0.448-1,1-1s1,0.447,1,1v11  C29.578,26.709,29.131,27.157,28.578,27.157z"
     id="path37" /><path
     style="fill:#424A60;"
     d="M28.578,33.157c-2.206,0-4-1.794-4-4s1.794-4,4-4s4,1.794,4,4S30.784,33.157,28.578,33.157z   M28.578,27.157c-1.103,0-2,0.897-2,2s0.897,2,2,2s2-0.897,2-2S29.681,27.157,28.578,27.157z"
     id="path39" /><path
     style="fill:#E7ECED;"
     d="M54.493,2.086c2.781,2.781,2.781,7.29,0,10.071L44.421,2.086C47.203-0.695,51.711-0.695,54.493,2.086  z"
     id="path41" /><path
     style="fill:#E7ECED;"
     d="M2.664,2.086c-2.781,2.781-2.781,7.29,0,10.071L12.735,2.086C9.954-0.695,5.445-0.695,2.664,2.086z"
     id="path43" /><g
     id="g45" /><g
     id="g47" /><g
     id="g49" /><g
     id="g51" /><g
     id="g53" /><g
     id="g55" /><g
     id="g57" /><g
     id="g59" /><g
     id="g61" /><g
     id="g63" /><g
     id="g65" /><g
     id="g67" /><g
     id="g69" /><g
     id="g71" /><g
     id="g73" /></svg>