<?xml version="1.0" encoding="UTF-8" standalone="no"?>
<svg
   xmlns:dc="http://purl.org/dc/elements/1.1/"
   xmlns:cc="http://creativecommons.org/ns#"
   xmlns:rdf="http://www.w3.org/1999/02/22-rdf-syntax-ns#"
   xmlns:svg="http://www.w3.org/2000/svg"
   xmlns="http://www.w3.org/2000/svg"
   xmlns:sodipodi="http://sodipodi.sourceforge.net/DTD/sodipodi-0.dtd"
   xmlns:inkscape="http://www.inkscape.org/namespaces/inkscape"
   version="1.1"
   id="Layer_1"
   x="0px"
   y="0px"
   width="512"
   height="512"
   viewBox="0 0 512 512"
   enable-background="new 0 0 100 100"
   xml:space="preserve"
   inkscape:version="0.91 r13725"
   sodipodi:docname="androidstudio.svg"
   inkscape:export-filename="/home/silerio/.icons/Oranchelo/apps/scalable/androidstudio2.png"
   inkscape:export-xdpi="90"
   inkscape:export-ydpi="90"><metadata
     id="metadata8"><rdf:RDF><cc:Work
         rdf:about=""><dc:format>image/svg+xml</dc:format><dc:type
           rdf:resource="http://purl.org/dc/dcmitype/StillImage" /><dc:title></dc:title></cc:Work></rdf:RDF></metadata><defs
     id="defs6"><clipPath
       id="clipPath4275"
       clipPathUnits="userSpaceOnUse"><path
         inkscape:connector-curvature="0"
         id="path4277"
         d="m 63.727539,106.45411 v 26.70507 5.3418 16.02148 251.02344 h 40.578131 96.13672 100.43359 147.39648 V 258.14942 106.45411 H 189.76075 104.30567 Z"
         style="opacity:1;fill:#424242;fill-opacity:1;stroke:none;stroke-width:21.36363602;stroke-linecap:round;stroke-linejoin:round;stroke-miterlimit:4;stroke-dasharray:none;stroke-opacity:0.55" /></clipPath><clipPath
       clipPathUnits="userSpaceOnUse"
       id="clipPath3856"><path
         sodipodi:nodetypes="cscsccccsccc"
         inkscape:connector-curvature="0"
         id="path3858"
         d="m 1390,-159.25 c -2.6127,0.0409 -5.1785,1.1577 -7,3.03125 -1.8215,1.87354 -2.8764,4.4809 -2.8438,7.09375 0,0 -15.2187,55.333421 -15.2187,83.6875 0,28.354079 15.2187,83.6875 15.2187,83.6875 0.9232,15.068495 0.4063,30.851 0.4063,46.1875 l 18,0 c -2.025,-14.71118 1.625,-32.821268 1.5937,-46.1875 0,0 14.0626,-55.40074 14.0626,-83.6875 0,-28.28676 -14.0626,-83.6875 -14.0626,-83.6875 0.033,-2.66492 -1.05,-5.33713 -2.9374,-7.21875 -1.8876,-1.88163 -4.554,-2.94782 -7.2188,-2.90625 z"
         style="font-size:medium;font-style:normal;font-variant:normal;font-weight:normal;font-stretch:normal;text-indent:0;text-align:start;text-decoration:none;line-height:normal;letter-spacing:normal;word-spacing:normal;text-transform:none;direction:ltr;block-progression:tb;writing-mode:lr-tb;text-anchor:start;baseline-shift:baseline;color:#000000;fill:#1f2831;fill-opacity:1;stroke:none;stroke-width:20;marker:none;visibility:visible;display:inline;overflow:visible;enable-background:accumulate;font-family:Sans;-inkscape-font-specification:Sans" /></clipPath><clipPath
       id="clipPath3891"
       clipPathUnits="userSpaceOnUse"><path
         style="color:#000000;fill:#385a5a;fill-opacity:1;fill-rule:evenodd;stroke:none;stroke-width:16;marker:none;visibility:visible;display:inline;overflow:visible;enable-background:accumulate"
         d="m 14.929796,1019.9515 c -1.088214,0 -1.96875,0.8806 -1.96875,1.9688 0.166816,1.3072 -0.268516,1.3767 -1.328125,1.9999 -1.104701,0.7979 -1.295073,0.8007 -2.3906252,0.1563 -0.942421,-0.5441 -2.143393,-0.2237 -2.6875,0.7188 l -0.8125,1.4062 c -0.544107,0.9424 -0.223671,2.1434 0.71875,2.6875 1.207179,0.5004 1.034696,0.9384 1.046875,2.1563 0.137759,1.3588 0.06562,1.5346 -1.046875,2.1562 -0.942421,0.5441 -1.262857,1.7138 -0.71875,2.6563 l 0.8125,1.4062 c 0.544107,0.9424 1.745079,1.2629 2.6875,0.7188 1.0596202,-0.7832 1.3312692,-0.4357 2.3906252,0.1875 1.203764,0.5637 1.328125,0.7296 1.328125,1.9687 0,1.0882 0.880536,1.9688 1.96875,1.9688 l 1.625,0 c 1.088214,0 1.96875,-0.8806 1.96875,-1.9688 -0.167594,-1.2868 0.290497,-1.3618 1.328125,-1.9843 1.103834,-0.8098 1.289728,-0.8195 2.390625,-0.1719 0.942421,0.5441 2.143393,0.2236 2.6875,-0.7188 l 0.8125,-1.4062 c 0.544107,-0.9425 0.223671,-2.1122 -0.71875,-2.6563 -1.207208,-0.5003 -1.034697,-0.9383 -1.04688,-2.1562 -0.137778,-1.3588 -0.06559,-1.5346 1.04687,-2.1563 0.942421,-0.5441 1.262857,-1.7451 0.71875,-2.6875 l -0.8125,-1.4062 c -0.544107,-0.9425 -1.745079,-1.2629 -2.6875,-0.7188 -1.057834,0.8147 -1.317775,0.4748 -2.390625,-0.1563 -1.220815,-0.569 -1.328125,-0.7444 -1.328125,-1.9999 0,-1.0882 -0.880536,-1.9688 -1.96875,-1.9688 z"
         id="path3893"
         inkscape:connector-curvature="0"
         sodipodi:nodetypes="scccccccccccccsscccccccccccccss" /></clipPath></defs><sodipodi:namedview
     pagecolor="#ffffff"
     bordercolor="#666666"
     borderopacity="1"
     objecttolerance="10"
     gridtolerance="10"
     guidetolerance="10"
     inkscape:pageopacity="0"
     inkscape:pageshadow="2"
     inkscape:window-width="1280"
     inkscape:window-height="694"
     id="namedview4"
     showgrid="false"
     inkscape:zoom="0.4267578"
     inkscape:cx="-88.635295"
     inkscape:cy="124.05058"
     inkscape:window-x="0"
     inkscape:window-y="0"
     inkscape:window-maximized="1"
     inkscape:current-layer="Layer_1" /><g
     id="g3344"
     transform="matrix(1.0698132,0,0,1.0698132,-189.19775,344.88864)" /><g
     id="g3346"
     transform="matrix(1.0698132,0,0,1.0698132,-189.19775,344.88864)" /><g
     id="g3348"
     transform="matrix(1.0698132,0,0,1.0698132,-189.19775,344.88864)" /><g
     id="g3350"
     transform="matrix(1.0698132,0,0,1.0698132,-189.19775,344.88864)" /><g
     id="g3352"
     transform="matrix(1.0698132,0,0,1.0698132,-189.19775,344.88864)" /><g
     id="g3354"
     transform="matrix(1.0698132,0,0,1.0698132,-189.19775,344.88864)" /><g
     id="g3356"
     transform="matrix(1.0698132,0,0,1.0698132,-189.19775,344.88864)" /><g
     id="g3358"
     transform="matrix(1.0698132,0,0,1.0698132,-189.19775,344.88864)" /><g
     id="g3360"
     transform="matrix(1.0698132,0,0,1.0698132,-189.19775,344.88864)" /><g
     id="g3362"
     transform="matrix(1.0698132,0,0,1.0698132,-189.19775,344.88864)" /><g
     id="g3364"
     transform="matrix(1.0698132,0,0,1.0698132,-189.19775,344.88864)" /><g
     id="g3366"
     transform="matrix(1.0698132,0,0,1.0698132,-189.19775,344.88864)" /><g
     id="g3368"
     transform="matrix(1.0698132,0,0,1.0698132,-189.19775,344.88864)" /><g
     id="g3370"
     transform="matrix(1.0698132,0,0,1.0698132,-189.19775,344.88864)" /><g
     id="g3372"
     transform="matrix(1.0698132,0,0,1.0698132,-189.19775,344.88864)" /><g
     id="g4160"
     transform="matrix(1.1170376,0,0,1.1598566,-29.853728,-35.376317)"><path
       id="rect3914"
       d="m 132.6875,34.75 a 13.50135,13.50135 0 0 0 -10.875,21.9375 l 24.09375,31 c -25.64482,24.98661 -41.34375,59.66912 -41.34375,100.34375 l 150.5,9.1875 150.5,-7.65625 c 0,-39.31097 -14.65356,-73.36967 -38.78125,-98.5 L 393.5,56.6875 A 13.50135,13.50135 0 0 0 382.21875,34.75 13.50135,13.50135 0 0 0 372.1875,40.125 L 346.28125,73.46875 C 321.00701,55.59323 289.44789,45.375 255.09375,45.375 c -32.96146,0 -63.38406,9.177288 -88.125,25.4375 L 143.125,40.125 A 13.50135,13.50135 0 0 0 132.6875,34.75 Z m 51.53125,77.21875 c 11.8572,0 21.46875,9.72614 21.46875,21.6875 0,11.96136 -9.61155,21.65625 -21.46875,21.65625 -11.8572,0 -21.46875,-9.69489 -21.46875,-21.65625 0,-11.96136 9.61155,-21.6875 21.46875,-21.6875 z M 321.625,113.5 c 11.8572,0 21.46875,9.72614 21.46875,21.6875 0,11.96136 -9.61155,21.65625 -21.46875,21.65625 -11.8572,0 -21.46875,-9.69489 -21.46875,-21.65625 0,-11.96136 9.61155,-21.6875 21.46875,-21.6875 z m -263,94.875 c -16.651634,0 -30.0625,13.51459 -30.0625,30.3125 l 0,155.9375 c 0,16.79791 13.410866,30.34375 30.0625,30.34375 16.651634,0 30.03125,-13.54584 30.03125,-30.34375 l 0,-155.9375 c 0,-16.79791 -13.379616,-30.3125 -30.03125,-30.3125 z m 45.9375,1.09375 0,83.78125 0,83.78125 0,83.84375 150.5,9.1875 150.5,-7.65625 0,-83.84375 0,-83.78125 0,-83.78125 -150.5,7.65625 -150.5,-9.1875 z m 346.96875,0.4375 c -16.65163,0 -30.0625,13.51458 -30.0625,30.3125 l 0,155.9375 c 0,16.79792 13.41087,30.34375 30.0625,30.34375 16.65163,0 30.0625,-13.54583 30.0625,-30.34375 l 0,-155.9375 c 0,-16.79792 -13.41087,-30.3125 -30.0625,-30.3125 z"
       style="color:#000000;display:inline;overflow:visible;visibility:visible;fill:#5fd35f;fill-opacity:1;fill-rule:evenodd;stroke:none;stroke-width:18;marker:none;enable-background:accumulate"
       inkscape:connector-curvature="0" /><g
       style="fill:#165016"
       transform="matrix(-1.4184685,0,0,1.4184685,599.7611,-41.049853)"
       id="g4249"><g
         style="fill:#165016"
         id="g4536"
         transform="matrix(-9.0495206e-4,-0.46378712,0.46378712,-9.0495206e-4,130.27042,380.96351)" /><g
         style="fill:#165016"
         id="g4207"
         transform="matrix(0.61315053,0,0,0.61315053,79.311986,82.847454)"><path
           inkscape:connector-curvature="0"
           id="path4460"
           d="m 156.62019,429.19778 c 2.22371,-1.34035 16.15859,-10.85176 18.91882,-12.91325 0.88243,-0.65905 1.86587,-1.63658 2.18541,-2.17228 8.86087,-14.85513 14.30977,-24.16158 20.7581,-35.45385 14.5196,-25.4266 19.73177,-34.47738 20.0379,-34.7952 0.16707,-0.17345 2.98067,0.92601 6.25245,2.44325 10.56037,4.89724 19.36264,7.64637 29.61466,9.24928 7.00476,1.0952 24.86368,0.9819 31.71478,-0.2012 10.93312,-1.88802 18.31056,-4.29841 30.00117,-9.80211 3.30505,-1.55595 4.32563,-1.88765 4.59187,-1.49242 1.879,2.78937 14.45071,24.36268 20.38904,34.98801 8.73774,15.63423 20.46752,35.37144 21.68042,36.48073 0.76542,0.70003 15.07973,10.67984 18.3113,12.76648 0.98081,0.63331 1.1175,0.63409 2.33762,0.0133 0.71274,-0.36262 1.34116,-0.69689 1.39649,-0.74283 0.0553,-0.0459 -0.51689,-6.81205 -1.2716,-15.03583 l -1.37221,-14.9523 -9.89163,-17.15424 c -5.4404,-9.43483 -10.45535,-18.20617 -11.14433,-19.49186 -0.68899,-1.28569 -2.96097,-5.23041 -5.04885,-8.76606 -4.88086,-8.2653 -27.45833,-47.22155 -41.88554,-72.27129 -6.17069,-10.71407 -11.41736,-19.69682 -11.65927,-19.96167 -0.33899,-0.37114 -2.59983,1.68318 -9.86169,8.96086 l -9.42187,9.4424 12.03931,21.01203 c 6.62162,11.55662 11.93749,21.17679 11.81305,21.37815 -0.42393,0.68593 -9.65517,4.90767 -13.28736,6.07673 -3.9053,1.25697 -9.6595,2.48693 -14.77802,3.15881 -4.64398,0.60959 -15.97072,0.51262 -20.43801,-0.17498 -7.54279,-1.16097 -16.91925,-4.01113 -22.49311,-6.83722 -4.90473,-2.48683 -4.7748,-1.81614 -1.43543,-7.40951 1.59814,-2.67685 7.11184,-12.14282 12.25267,-21.0355 l 9.34698,-16.16851 -6.88433,-6.9418 c -9.2882,-9.36573 -12.12181,-11.87975 -12.57046,-11.15268 -0.19085,0.3093 -4.86624,8.27649 -10.38974,17.70488 -12.45671,21.26306 -15.01635,25.51897 -15.34794,25.51897 -0.14394,0 -1.12563,-1.09576 -2.18153,-2.43502 -9.91193,-12.57191 -15.65809,-27.64046 -16.7029,-43.80121 l -0.26006,-4.02251 -12.98834,0 -12.98834,0 0.18425,2.24021 c 1.59487,19.39184 4.24296,29.96432 10.90892,43.5538 4.2819,8.72925 8.74103,15.2704 16.26614,23.86102 l 4.19255,4.78619 -0.62458,1.20781 c -1.15331,2.23025 -14.50306,25.5263 -17.74891,30.97282 -9.74696,16.35535 -24.09981,41.70964 -24.10436,42.58031 -0.003,0.54431 -0.35116,6.42462 -0.77403,13.06735 -0.42288,6.64272 -0.77119,12.20917 -0.77404,12.36988 -0.003,0.16071 -0.26815,0.2922 -0.58957,0.2922 -0.80942,0 -0.73025,0.63336 0.1948,1.55841 1.00828,1.00829 1.03586,1.00439 3.52935,-0.49857 z"
           style="fill:#165016;fill-opacity:1;fill-rule:nonzero;stroke:none" /><path
           inkscape:connector-curvature="0"
           id="path4504"
           d="m 286.46121,177.75064 0,10.29493 0,10.29492 8.01367,3.62109 c 4.4075,1.99133 9.6588,4.87604 11.66797,6.41016 l 3.65234,2.78906 0,20.17969 0,20.17773 -14.79101,14.74805 c -10.03546,10.00517 -15.99877,15.30265 -18.54297,16.47656 -4.54587,2.09749 -9.20489,1.844 -14.33008,-0.77929 -2.05451,-1.05159 -9.72578,-7.94585 -17.96094,-16.14063 l -14.375,-14.30469 0,-19.69336 0,-19.69531 3.56641,-3.23047 c 2.0906,-1.89404 7.09149,-4.78058 12.08398,-6.97461 l 8.51563,-3.74219 0,-10.21484 0,-10.2168 16.25,0 16.25,0 z m -16.66602,34.63282 a 20.757668,20.757668 0 0 0 -20.75781,20.75781 20.757668,20.757668 0 0 0 20.75781,20.75586 20.757668,20.757668 0 0 0 20.75781,-20.75586 20.757668,20.757668 0 0 0 -20.75781,-20.75781 z"
           style="fill:#165016;fill-opacity:1;fill-rule:nonzero;stroke:none" /></g></g></g></svg>