<?xml version="1.0" encoding="UTF-8" standalone="no"?>
<svg
   xmlns:dc="http://purl.org/dc/elements/1.1/"
   xmlns:cc="http://creativecommons.org/ns#"
   xmlns:rdf="http://www.w3.org/1999/02/22-rdf-syntax-ns#"
   xmlns:svg="http://www.w3.org/2000/svg"
   xmlns="http://www.w3.org/2000/svg"
   xmlns:sodipodi="http://sodipodi.sourceforge.net/DTD/sodipodi-0.dtd"
   xmlns:inkscape="http://www.inkscape.org/namespaces/inkscape"
   viewBox="0 0 48 48"
   id="svg2"
   version="1.1"
   inkscape:version="0.91 r13725"
   sodipodi:docname="arronax.svg">
  <metadata
     id="metadata19">
    <rdf:RDF>
      <cc:Work
         rdf:about="">
        <dc:format>image/svg+xml</dc:format>
        <dc:type
           rdf:resource="http://purl.org/dc/dcmitype/StillImage" />
        <dc:title></dc:title>
      </cc:Work>
    </rdf:RDF>
  </metadata>
  <sodipodi:namedview
     pagecolor="#ffffff"
     bordercolor="#666666"
     borderopacity="1"
     objecttolerance="10"
     gridtolerance="10"
     guidetolerance="10"
     inkscape:pageopacity="0"
     inkscape:pageshadow="2"
     inkscape:window-width="1280"
     inkscape:window-height="694"
     id="namedview17"
     showgrid="false"
     inkscape:zoom="4.9166667"
     inkscape:cx="-9.1525424"
     inkscape:cy="24"
     inkscape:window-x="0"
     inkscape:window-y="0"
     inkscape:window-maximized="1"
     inkscape:current-layer="svg2" />
  <defs
     id="defs4">
    <linearGradient
       id="0"
       x1="24.61"
       y1="48.41"
       x2="22.779"
       y2=".407"
       gradientUnits="userSpaceOnUse">
      <stop
         stop-color="#2b65bd"
         id="stop7" />
      <stop
         stop-color="#64a3dc"
         offset="1"
         id="stop9" />
    </linearGradient>
  </defs>
  <path
     style="fill:#2a7fff"
     inkscape:connector-curvature="0"
     id="path15"
     d="M 20.538833,0.44390875 0.56627466,47.762591 l 7.81612564,0 L 24.062349,9.6713807 30.767566,25.866778 c -2.50601,-0.562773 -5.222675,-0.383632 -7.565724,0.528974 -2.402669,0.936269 -4.425761,2.692191 -5.149144,5.129191 -0.439198,1.482141 -0.270277,3.080895 0.492854,4.465014 0.76313,1.382432 2.194001,2.56375 4.155485,2.944004 1.158606,0.224773 2.380808,0.104787 3.455949,-0.354903 1.07514,-0.459683 2.023091,-1.338491 2.281441,-2.51305 0.151038,-0.679385 0.03776,-1.36722 -0.347781,-1.994215 -0.385539,-0.626994 -1.144695,-1.204979 -2.128418,-1.33004 -0.560424,-0.07098 -1.095014,0.0084 -1.609728,0.260261 -0.514715,0.250123 -1.023471,0.772337 -1.095013,1.417922 l 2.629223,0.209562 c -0.01788,0.155483 -0.182836,0.317723 -0.238479,0.344762 -0.05564,0.02704 -0.01788,0.0186 -0.07155,0.0084 0.08346,0.0084 0.09738,0.0016 0.174886,0.145343 0.07751,0.128443 0.119237,0.365042 0.08744,0.512075 -0.0934,0.424192 -0.373617,0.697973 -0.86051,0.905845 -0.488881,0.209562 -1.164569,0.273784 -1.701146,0.170691 -1.11091,-0.214631 -1.868079,-0.829795 -2.349011,-1.706912 -0.48093,-0.872048 -0.606133,-1.984075 -0.32592,-2.928793 0.512728,-1.723813 1.883977,-2.922033 3.686477,-3.625079 1.802498,-0.703046 4.022335,-0.850077 5.952022,-0.383633 0.588246,0.141962 1.138735,0.334622 1.667361,0.557704 l 7.917479,19.127571 7.820103,0 -19.97256,-47.31868223 -7.130502,0" />
</svg>
