<?xml version="1.0" encoding="UTF-8" standalone="no"?>
<svg
   xmlns:dc="http://purl.org/dc/elements/1.1/"
   xmlns:cc="http://creativecommons.org/ns#"
   xmlns:rdf="http://www.w3.org/1999/02/22-rdf-syntax-ns#"
   xmlns:svg="http://www.w3.org/2000/svg"
   xmlns="http://www.w3.org/2000/svg"
   xmlns:sodipodi="http://sodipodi.sourceforge.net/DTD/sodipodi-0.dtd"
   xmlns:inkscape="http://www.inkscape.org/namespaces/inkscape"
   viewBox="0 0 48 48"
   id="svg2"
   version="1.1"
   inkscape:version="0.91 r13725"
   sodipodi:docname="bash.svg">
  <metadata
     id="metadata23">
    <rdf:RDF>
      <cc:Work
         rdf:about="">
        <dc:format>image/svg+xml</dc:format>
        <dc:type
           rdf:resource="http://purl.org/dc/dcmitype/StillImage" />
        <dc:title></dc:title>
      </cc:Work>
    </rdf:RDF>
  </metadata>
  <sodipodi:namedview
     pagecolor="#ffffff"
     bordercolor="#666666"
     borderopacity="1"
     objecttolerance="10"
     gridtolerance="10"
     guidetolerance="10"
     inkscape:pageopacity="0"
     inkscape:pageshadow="2"
     inkscape:window-width="1280"
     inkscape:window-height="694"
     id="namedview21"
     showgrid="false"
     inkscape:zoom="4.9166667"
     inkscape:cx="-23.790628"
     inkscape:cy="24"
     inkscape:window-x="0"
     inkscape:window-y="0"
     inkscape:window-maximized="1"
     inkscape:current-layer="svg2" />
  <defs
     id="defs4">
    <linearGradient
       gradientTransform="matrix(1.0908929,0,0,1.406231,-421.70704,-713.86589)"
       gradientUnits="userSpaceOnUse"
       y2="507.8"
       x2="0"
       y1="542.8"
       id="0">
      <stop
         stop-color="#252525"
         id="stop7" />
      <stop
         offset="1"
         stop-color="#4c4c4c"
         id="stop9" />
    </linearGradient>
  </defs>
  <g
     id="g4141"
     style="fill:#999999"
     transform="matrix(3.2703178,0,0,3.9845286,-15.671577,-36.229235)">
    <path
       inkscape:connector-curvature="0"
       id="path17"
       d="m 19.366063,19.753909 c -0.05314,-0.06563 -0.119999,-0.09957 -0.202284,-0.09957 l -8.439351,0 c -0.08228,0 -0.149142,0.03394 -0.202284,0.09957 -0.05314,0.06563 -0.07886,0.151616 -0.07886,0.253448 l 0,0.706035 c 0,0.104095 0.02571,0.187823 0.07886,0.253448 0.05314,0.06562 0.119999,0.09957 0.202284,0.09957 l 8.439351,0 c 0.08228,0 0.149142,-0.03394 0.202284,-0.09957 0.05314,-0.06563 0.07886,-0.151616 0.07886,-0.253448 l 0,-0.706035 c 0,-0.104094 -0.02571,-0.187823 -0.07886,-0.253448 z"
       style="fill:#999999;stroke:none;stroke-width:0.175;stroke-linecap:round;stroke-linejoin:round" />
    <path
       inkscape:connector-curvature="0"
       id="path19"
       d="M 5.8627582,9.3195315 C 5.804473,9.2448547 5.7359022,9.2086478 5.6604743,9.2086478 c -0.075428,0 -0.1439987,0.036207 -0.2022839,0.1108837 L 5.0193373,9.8716868 c -0.058285,0.074677 -0.087428,0.1584052 -0.087428,0.2534482 0,0.09504 0.029143,0.181035 0.087428,0.253448 l 3.4628254,4.33804 -3.4628254,4.340303 c -0.058285,0.07468 -0.087428,0.158405 -0.087428,0.253448 0,0.09504 0.029143,0.181035 0.087428,0.253449 l 0.4388531,0.552155 c 0.058285,0.07468 0.1251417,0.110884 0.2022839,0.110884 0.075428,0 0.1439987,-0.03621 0.2022839,-0.110884 l 4.0971053,-5.145906 c 0.058285,-0.07468 0.087427,-0.158406 0.087427,-0.253449 0,-0.09504 -0.02914,-0.181034 -0.087427,-0.253448 L 5.8627582,9.3172685 Z"
       style="fill:#999999;stroke:none;stroke-width:0.175;stroke-linecap:round;stroke-linejoin:round" />
  </g>
</svg>
