<?xml version="1.0" encoding="UTF-8" standalone="no"?>
<svg
   xmlns:dc="http://purl.org/dc/elements/1.1/"
   xmlns:cc="http://creativecommons.org/ns#"
   xmlns:rdf="http://www.w3.org/1999/02/22-rdf-syntax-ns#"
   xmlns:svg="http://www.w3.org/2000/svg"
   xmlns="http://www.w3.org/2000/svg"
   xmlns:sodipodi="http://sodipodi.sourceforge.net/DTD/sodipodi-0.dtd"
   xmlns:inkscape="http://www.inkscape.org/namespaces/inkscape"
   viewBox="0 0 48 48"
   id="svg2"
   version="1.1"
   inkscape:version="0.91 r13725"
   sodipodi:docname="brackets.svg">
  <metadata
     id="metadata19">
    <rdf:RDF>
      <cc:Work
         rdf:about="">
        <dc:format>image/svg+xml</dc:format>
        <dc:type
           rdf:resource="http://purl.org/dc/dcmitype/StillImage" />
        <dc:title></dc:title>
      </cc:Work>
    </rdf:RDF>
  </metadata>
  <sodipodi:namedview
     pagecolor="#ffffff"
     bordercolor="#666666"
     borderopacity="1"
     objecttolerance="10"
     gridtolerance="10"
     guidetolerance="10"
     inkscape:pageopacity="0"
     inkscape:pageshadow="2"
     inkscape:window-width="1280"
     inkscape:window-height="694"
     id="namedview17"
     showgrid="false"
     inkscape:zoom="4.9166667"
     inkscape:cx="-9.1525424"
     inkscape:cy="24"
     inkscape:window-x="0"
     inkscape:window-y="0"
     inkscape:window-maximized="1"
     inkscape:current-layer="svg2" />
  <defs
     id="defs4">
    <linearGradient
       id="0"
       gradientUnits="userSpaceOnUse"
       y1="17.529"
       x2="0"
       y2="-31.27"
       gradientTransform="matrix(0.99999,0,0,0.99999,-23.371,30.722)">
      <stop
         stop-color="#0a80fd"
         id="stop7" />
      <stop
         offset="1"
         stop-color="#56c5fa"
         id="stop9" />
    </linearGradient>
  </defs>
  <path
     style="fill:#2a7fff;fill-opacity:0.84600004"
     inkscape:connector-curvature="0"
     id="path15"
     d="M 24.308611,0.19308228 A 23.749681,23.851377 0 0 0 0.55932263,24.044067 23.749681,23.851377 0 0 0 24.308611,47.89505 23.749681,23.851377 0 0 0 48.0579,24.044067 23.749681,23.851377 0 0 0 24.308611,0.19308228 M 19.590473,14.083634 c 0.374102,1.31e-4 0.748206,0.145814 1.032052,0.433503 0.569003,0.575381 0.565078,1.504132 -0.0078,2.07557 l -7.973874,7.947591 7.913705,8.00802 c 0.569001,0.57538 0.565077,1.504131 -0.0078,2.075569 -0.572926,0.571439 -1.497717,0.568811 -2.066719,-0.0079 L 9.5328745,25.56626 C 9.2490274,25.27857 9.1051417,24.902866 9.1064497,24.527162 c 1.309e-4,-0.375705 0.1451937,-0.750095 0.431657,-1.036471 l 9.0137743,-8.985376 c 0.286464,-0.286375 0.660566,-0.426936 1.034668,-0.425622 z m 8.911747,0 c 0.374102,-1.31e-4 0.750821,0.140559 1.037284,0.425622 l 9.011159,8.985377 c 0.286463,0.286376 0.430349,0.660766 0.431657,1.03647 1.3e-4,0.375704 -0.139962,0.751408 -0.423809,1.039098 l -8.947063,9.049744 c -0.569003,0.575381 -1.493795,0.579321 -2.06672,0.0079 -0.572926,-0.571438 -0.57685,-1.500189 -0.0078,-2.075569 l 7.913704,-8.008019 -7.973874,-7.947592 c -0.572928,-0.571438 -0.576851,-1.500189 -0.0078,-2.075569 0.283848,-0.28769 0.65795,-0.43219 1.032052,-0.433504" />
</svg>
