<?xml version="1.0" encoding="UTF-8" standalone="no"?>
<svg
   xmlns:dc="http://purl.org/dc/elements/1.1/"
   xmlns:cc="http://creativecommons.org/ns#"
   xmlns:rdf="http://www.w3.org/1999/02/22-rdf-syntax-ns#"
   xmlns:svg="http://www.w3.org/2000/svg"
   xmlns="http://www.w3.org/2000/svg"
   xmlns:sodipodi="http://sodipodi.sourceforge.net/DTD/sodipodi-0.dtd"
   xmlns:inkscape="http://www.inkscape.org/namespaces/inkscape"
   viewBox="0 0 48 48"
   id="svg2"
   version="1.1"
   inkscape:version="0.91 r13725"
   sodipodi:docname="BrokenSword.svg">
  <metadata
     id="metadata36">
    <rdf:RDF>
      <cc:Work
         rdf:about="">
        <dc:format>image/svg+xml</dc:format>
        <dc:type
           rdf:resource="http://purl.org/dc/dcmitype/StillImage" />
        <dc:title></dc:title>
      </cc:Work>
    </rdf:RDF>
  </metadata>
  <sodipodi:namedview
     pagecolor="#ffffff"
     bordercolor="#666666"
     borderopacity="1"
     objecttolerance="10"
     gridtolerance="10"
     guidetolerance="10"
     inkscape:pageopacity="0"
     inkscape:pageshadow="2"
     inkscape:window-width="1280"
     inkscape:window-height="694"
     id="namedview34"
     showgrid="false"
     inkscape:zoom="4.9166667"
     inkscape:cx="-9.1525424"
     inkscape:cy="24"
     inkscape:window-x="0"
     inkscape:window-y="0"
     inkscape:window-maximized="1"
     inkscape:current-layer="svg2" />
  <defs
     id="defs4">
    <clipPath
       id="1">
      <path
         transform="matrix(15.33333 0 0 11.5 415-125.5)"
         d="m-24 13c0 1.105-.672 2-1.5 2-.828 0-1.5-.895-1.5-2 0-1.105.672-2 1.5-2 .828 0 1.5.895 1.5 2"
         fill="#1890d0"
         id="path7" />
    </clipPath>
    <linearGradient
       id="3"
       gradientUnits="userSpaceOnUse"
       x1="24.07"
       y1="47.593"
       x2="23.12"
       y2="-.61">
      <stop
         stop-color="#e1e1e1"
         id="stop10" />
      <stop
         stop-color="#f4f4ff"
         offset="1"
         id="stop12" />
    </linearGradient>
    <linearGradient
       id="2"
       x1="12"
       x2="36"
       gradientUnits="userSpaceOnUse">
      <stop
         id="stop15" />
      <stop
         offset="1"
         stop-opacity="0"
         id="stop17" />
    </linearGradient>
    <linearGradient
       gradientUnits="userSpaceOnUse"
       y2="-26.05"
       x2="-125.19"
       y1="73.5"
       x1="-123.97"
       id="0"
       gradientTransform="matrix(0.49433,0,0,0.4778,86.65,13.11)">
      <stop
         stop-color="#c52828"
         id="stop20" />
      <stop
         offset="1"
         stop-color="#ff5454"
         id="stop22" />
    </linearGradient>
  </defs>
  <g
     transform="matrix(2.0028215,0,0,1.9858724,-23.762712,-23.559322)"
     id="g28"
     style="fill:#ff5555">
    <g
       clip-path="url(#1)"
       id="g30"
       style="fill:#ff5555">
      <path
         d="m 18.666,8 c 2.361,7.083 3.673,11.03 3.943,14.617 C 19.023,22.345 15.077,21.036 8,18.679 L 8,29.345 C 15.08,26.987 19.02,25.677 22.607,25.404 22.333,28.986 21.022,32.931 18.666,40 l 10.668,0 C 26.978,32.93 25.667,28.98 25.393,25.402 28.979,25.674 32.924,26.986 40,29.345 L 40,18.679 C 32.922,21.036 28.98,22.345 25.391,22.617 25.661,19.028 26.973,15.083 29.334,8 L 18.666,8"
         transform="matrix(0.75,0,0,0.75,6,6)"
         id="path32"
         style="fill:#ff5555"
         inkscape:connector-curvature="0" />
    </g>
  </g>
</svg>
