<?xml version="1.0" encoding="UTF-8" standalone="no"?>
<!-- Generator: Adobe Illustrator 16.0.0, SVG Export Plug-In . SVG Version: 6.00 Build 0)  -->

<svg
   xmlns:dc="http://purl.org/dc/elements/1.1/"
   xmlns:cc="http://creativecommons.org/ns#"
   xmlns:rdf="http://www.w3.org/1999/02/22-rdf-syntax-ns#"
   xmlns:svg="http://www.w3.org/2000/svg"
   xmlns="http://www.w3.org/2000/svg"
   xmlns:sodipodi="http://sodipodi.sourceforge.net/DTD/sodipodi-0.dtd"
   xmlns:inkscape="http://www.inkscape.org/namespaces/inkscape"
   version="1.1"
   id="Capa_1"
   x="0px"
   y="0px"
   width="512px"
   height="512px"
   viewBox="0 0 473.462 473.461"
   style="enable-background:new 0 0 473.462 473.461;"
   xml:space="preserve"
   inkscape:version="0.91 r13725"
   sodipodi:docname="calamares.svg"><metadata
     id="metadata45"><rdf:RDF><cc:Work
         rdf:about=""><dc:format>image/svg+xml</dc:format><dc:type
           rdf:resource="http://purl.org/dc/dcmitype/StillImage" /><dc:title></dc:title></cc:Work></rdf:RDF></metadata><defs
     id="defs43" /><sodipodi:namedview
     pagecolor="#ffffff"
     bordercolor="#666666"
     borderopacity="1"
     objecttolerance="10"
     gridtolerance="10"
     guidetolerance="10"
     inkscape:pageopacity="0"
     inkscape:pageshadow="2"
     inkscape:window-width="1280"
     inkscape:window-height="694"
     id="namedview41"
     showgrid="false"
     inkscape:zoom="0.4609375"
     inkscape:cx="-374.32255"
     inkscape:cy="256"
     inkscape:window-x="0"
     inkscape:window-y="0"
     inkscape:window-maximized="1"
     inkscape:current-layer="Capa_1" /><path
     d="m 437.959,321.40588 c 11.139,0 21.5,3.55751 30.099,9.63266 L 408.742,35.569484 C 405.272,18.281472 388.761,4.2740239 371.857,4.2740239 l -270.271,0 c -16.897,0 -33.416,14.0137191 -36.885,31.2954601 L 5.392,331.03854 c 8.599,-6.08247 18.959,-9.63266 30.098,-9.63266 l 402.469,0 0,0 z"
     id="path7"
     inkscape:connector-curvature="0"
     style="fill:#b7bec8" /><path
     d="m 35.496,469.18796 402.47,0 c 19.602,0 35.496,-16.61183 35.496,-37.0968 l 0,-54.40467 c 0,-7.28537 -2.038,-14.05343 -5.509,-19.7837 -6.291,-10.3935 -17.356,-17.30787 -29.987,-17.30787 l -402.47,0 c -12.631,0 -23.696,6.91959 -29.988,17.30787 C 2.038,363.63306 0,370.40739 0,377.68649 l 0,54.40467 c 0,20.49124 15.894,37.0968 35.496,37.0968 z m 376.674,-69.36002 -77.314,0 c -5.073,0 -9.18,-4.29013 -9.18,-9.594 0,-5.30074 4.106,-9.594 9.18,-9.594 l 77.314,0 c 5.073,0 9.18,4.29222 9.18,9.594 0,5.30283 -4.113,9.594 -9.18,9.594 z"
     id="path9"
     inkscape:connector-curvature="0"
     style="fill:#373e48" /><g
     id="g11" /><g
     id="g13" /><g
     id="g15" /><g
     id="g17" /><g
     id="g19" /><g
     id="g21" /><g
     id="g23" /><g
     id="g25" /><g
     id="g27" /><g
     id="g29" /><g
     id="g31" /><g
     id="g33" /><g
     id="g35" /><g
     id="g37" /><g
     id="g39" /><path
     d="m 380.26078,383.15465 50.71266,-41.23416 39.44315,32.07101 -118.32944,96.21303 -118.32933,-96.21303 39.44313,-32.07101 50.71257,41.23416 0,-151.19191 56.34726,0 0,151.19191"
     id="path75"
     inkscape:connector-curvature="0"
     style="fill:#3771c8;fill-opacity:1" /></svg>