<?xml version="1.0" encoding="UTF-8" standalone="no"?>
<svg
   xmlns:dc="http://purl.org/dc/elements/1.1/"
   xmlns:cc="http://creativecommons.org/ns#"
   xmlns:rdf="http://www.w3.org/1999/02/22-rdf-syntax-ns#"
   xmlns:svg="http://www.w3.org/2000/svg"
   xmlns="http://www.w3.org/2000/svg"
   xmlns:sodipodi="http://sodipodi.sourceforge.net/DTD/sodipodi-0.dtd"
   xmlns:inkscape="http://www.inkscape.org/namespaces/inkscape"
   viewBox="0 0 48 48"
   id="svg2"
   version="1.1"
   inkscape:version="0.91 r13725"
   sodipodi:docname="desktop-effects.svg">
  <metadata
     id="metadata27">
    <rdf:RDF>
      <cc:Work
         rdf:about="">
        <dc:format>image/svg+xml</dc:format>
        <dc:type
           rdf:resource="http://purl.org/dc/dcmitype/StillImage" />
        <dc:title></dc:title>
      </cc:Work>
    </rdf:RDF>
  </metadata>
  <sodipodi:namedview
     pagecolor="#ffffff"
     bordercolor="#666666"
     borderopacity="1"
     objecttolerance="10"
     gridtolerance="10"
     guidetolerance="10"
     inkscape:pageopacity="0"
     inkscape:pageshadow="2"
     inkscape:window-width="1280"
     inkscape:window-height="694"
     id="namedview25"
     showgrid="false"
     inkscape:zoom="4.9166667"
     inkscape:cx="-34.779661"
     inkscape:cy="31.525424"
     inkscape:window-x="0"
     inkscape:window-y="0"
     inkscape:window-maximized="1"
     inkscape:current-layer="svg2" />
  <defs
     id="defs4">
    <linearGradient
       gradientUnits="userSpaceOnUse"
       x2="47"
       x1="0"
       id="linearGradient6">
      <stop
         stop-color="#a9a3d4"
         id="stop8" />
      <stop
         offset=".47"
         stop-color="#87baff"
         id="stop10" />
      <stop
         offset="1"
         stop-color="#89ec85"
         id="stop12" />
    </linearGradient>
    <linearGradient
       y2="500.8"
       x2="0"
       y1="546.8"
       gradientUnits="userSpaceOnUse"
       id="0"
       gradientTransform="matrix(1.04348,0,0,1.04348,-402.33,-522.581)">
      <stop
         stop-color="#97a9b1"
         id="stop15" />
      <stop
         offset="1"
         stop-color="#cfdce1"
         id="stop17" />
    </linearGradient>
  </defs>
  <path
     style="fill:#666666;fill-opacity:1;fill-rule:evenodd;stroke-width:1.31700003"
     inkscape:connector-curvature="0"
     id="path23"
     d="m 47.660579,21.464458 c -0.07532,-0.666653 -0.855947,-1.167614 -1.53096,-1.167614 -2.182397,0 -4.118469,-1.275957 -4.931176,-3.249273 -0.829719,-2.021134 -0.294707,-4.378242 1.33177,-5.863654 0.511973,-0.466023 0.574175,-1.2457854 0.144784,-1.788036 C 41.558012,7.9842277 40.288447,6.7077403 38.902272,5.6020626 38.359462,5.1683319 37.56306,5.2286801 37.092378,5.7476393 35.672888,7.3129864 33.123123,7.8947636 31.152851,7.0761816 29.102476,6.2173672 27.809517,4.1485888 27.936403,1.9271757 27.978053,1.2296425 27.466074,0.62316093 26.767672,0.54216725 24.988434,0.33730113 23.195021,0.33094874 21.410471,0.52804959 20.720042,0.60392567 20.208068,1.1961146 20.231284,1.884825 20.308908,4.0836515 19.000351,6.1162556 16.970355,6.9441903 15.023651,7.7359515 12.492139,7.1591154 11.074421,5.6077084 10.606219,5.0966886 9.8232847,5.0338706 9.2772867,5.4571905 7.8507081,6.5722195 6.5519013,7.8490604 5.4246379,9.2497734 4.9849689,9.7943191 5.0496513,10.583609 5.5667635,11.052101 c 1.6574883,1.494588 2.192677,3.872166 1.3315909,5.916593 -0.8220986,1.949846 -2.8549287,3.204453 -5.1817586,3.204453 -0.75511205,-0.02418 -1.29295875,0.480492 -1.37554075,1.164085 -0.20946784,1.782212 -0.2119489,3.596716 -0.0102841,5.392692 0.0747842,0.669477 0.87916217,1.166026 1.56161607,1.166026 2.0737668,-0.05276 4.064774,1.225668 4.8999868,3.24945 0.8325554,2.021133 0.2973667,4.37683 -1.331591,5.863655 -0.5094923,0.466023 -0.5741762,1.245783 -0.1447843,1.7868 1.1065294,1.403361 2.3762721,2.680377 3.7674077,3.79523 0.5456442,0.437788 1.3395658,0.376029 1.8125528,-0.14293 1.424806,-1.56923 3.974393,-2.149949 5.93687,-1.329777 2.055514,0.856167 3.348472,2.924769 3.221764,5.147241 -0.04129,0.697886 0.473163,1.305426 1.168731,1.385185 0.909999,0.105695 1.825488,0.158457 2.743462,0.158457 0.871364,0 1.742906,-0.04765 2.614271,-0.144165 0.690606,-0.07587 1.202225,-0.668065 1.17901,-1.35801 -0.07993,-2.197592 1.230933,-4.230195 3.258269,-5.056719 1.959996,-0.797055 4.481052,-0.213688 5.897707,1.33613 0.470859,0.50996 1.249364,0.571543 1.797312,0.149635 1.424805,-1.112383 2.720067,-2.388164 3.852647,-3.792758 0.439493,-0.543311 0.377467,-1.333838 -0.142296,-1.802154 -1.657491,-1.494587 -2.195338,-3.872518 -1.334251,-5.915532 0.809517,-1.923202 2.766676,-3.214511 4.871809,-3.214511 l 0.294531,0.0075 c 0.682809,0.05523 1.311036,-0.468492 1.393795,-1.162497 0.209822,-1.782213 0.212302,-3.596716 0.0107,-5.392692 M 24.034021,32.056211 c -4.380395,0 -7.943472,-3.548544 -7.943472,-7.909493 0,-4.361479 3.563786,-7.909494 7.943472,-7.909494 4.380216,0 7.943295,3.548543 7.943295,7.909494 0,4.361655 -3.563788,7.909493 -7.943295,7.909493" />
  <path
     style="fill:#cccccc;fill-opacity:1;fill-rule:evenodd;stroke-width:1.31700003"
     inkscape:connector-curvature="0"
     id="path23-9"
     d="m 47.535996,34.58682 c -0.03768,-0.332144 -0.428283,-0.581735 -0.766033,-0.581735 -1.091984,0 -2.060719,-0.635717 -2.467366,-1.618874 -0.415158,-1.006982 -0.147459,-2.181356 0.666366,-2.921427 0.256171,-0.232186 0.287294,-0.620684 0.07245,-0.890848 -0.558895,-0.703321 -1.194135,-1.339301 -1.887723,-1.890179 -0.2716,-0.216096 -0.670088,-0.186029 -0.905599,0.07253 -0.710257,0.779897 -1.986059,1.069753 -2.971905,0.661915 -1.025927,-0.427884 -1.672873,-1.458605 -1.609384,-2.565371 0.02084,-0.347529 -0.235334,-0.649694 -0.584787,-0.690047 -0.890261,-0.102067 -1.787614,-0.105233 -2.680532,-0.007 -0.345464,0.0378 -0.601635,0.332847 -0.590019,0.675981 0.03884,1.095513 -0.615911,2.108209 -1.63164,2.520709 -0.974054,0.394477 -2.240722,0.107086 -2.950093,-0.66587 -0.234269,-0.254604 -0.626019,-0.285901 -0.899214,-0.07499 -0.713804,0.555537 -1.363677,1.191694 -1.927714,1.889565 -0.219993,0.271308 -0.187629,0.664553 0.07111,0.897967 0.829342,0.744644 1.097128,1.929215 0.666275,2.947803 -0.411345,0.971464 -1.428493,1.596542 -2.592746,1.596542 -0.377829,-0.01204 -0.646947,0.239394 -0.688267,0.579979 -0.10481,0.887945 -0.106051,1.791979 -0.0052,2.686781 0.03742,0.333551 0.439898,0.580945 0.781372,0.580945 1.03763,-0.02629 2.033852,0.610659 2.451759,1.618961 0.416578,1.006982 0.148791,2.180652 -0.666275,2.921428 -0.25493,0.232184 -0.287295,0.620681 -0.07245,0.89023 0.553665,0.699192 1.188993,1.335435 1.885063,1.890884 0.273018,0.218117 0.670266,0.187348 0.90693,-0.07121 0.712917,-0.781832 1.988629,-1.071162 2.970575,-0.662531 1.028498,0.426566 1.675443,1.457198 1.612043,2.564492 -0.02066,0.347706 0.236752,0.650397 0.584788,0.690136 0.455327,0.05266 0.913401,0.07895 1.37272,0.07895 0.435996,0 0.872081,-0.02374 1.308078,-0.07182 0.345552,-0.0378 0.601546,-0.332848 0.58993,-0.676597 -0.04,-1.094898 0.615911,-2.107595 1.63031,-2.519391 0.980704,-0.397114 2.242141,-0.106468 2.950979,0.665696 0.2356,0.254075 0.625132,0.284757 0.899305,0.07456 0.712915,-0.554219 1.361013,-1.189846 1.927712,-1.889652 0.219905,-0.270692 0.18887,-0.664553 -0.0712,-0.89788 -0.829343,-0.744643 -1.098461,-1.929391 -0.667607,-2.947274 0.405051,-0.958191 1.384336,-1.601555 2.437661,-1.601555 l 0.147372,0.0037 c 0.341651,0.02752 0.655991,-0.233415 0.6974,-0.579186 0.104986,-0.887946 0.106227,-1.791979 0.0053,-2.686781 M 35.71417,39.86386 c -2.191778,0 -3.9746,-1.767979 -3.9746,-3.940719 0,-2.173003 1.783177,-3.940717 3.9746,-3.940717 2.191686,0 3.97451,1.767977 3.97451,3.940717 0,2.173092 -1.783179,3.940719 -3.97451,3.940719" />
</svg>
