<?xml version="1.0" encoding="UTF-8" standalone="no"?>
<svg
   xmlns:dc="http://purl.org/dc/elements/1.1/"
   xmlns:cc="http://creativecommons.org/ns#"
   xmlns:rdf="http://www.w3.org/1999/02/22-rdf-syntax-ns#"
   xmlns:svg="http://www.w3.org/2000/svg"
   xmlns="http://www.w3.org/2000/svg"
   xmlns:sodipodi="http://sodipodi.sourceforge.net/DTD/sodipodi-0.dtd"
   xmlns:inkscape="http://www.inkscape.org/namespaces/inkscape"
   viewBox="0 0 48 48"
   id="svg2"
   version="1.1"
   inkscape:version="0.91 r13725"
   sodipodi:docname="dota.svg">
  <metadata
     id="metadata34">
    <rdf:RDF>
      <cc:Work
         rdf:about="">
        <dc:format>image/svg+xml</dc:format>
        <dc:type
           rdf:resource="http://purl.org/dc/dcmitype/StillImage" />
        <dc:title></dc:title>
      </cc:Work>
    </rdf:RDF>
  </metadata>
  <sodipodi:namedview
     pagecolor="#ffffff"
     bordercolor="#666666"
     borderopacity="1"
     objecttolerance="10"
     gridtolerance="10"
     guidetolerance="10"
     inkscape:pageopacity="0"
     inkscape:pageshadow="2"
     inkscape:window-width="1280"
     inkscape:window-height="694"
     id="namedview32"
     showgrid="false"
     inkscape:zoom="4.9166667"
     inkscape:cx="-42"
     inkscape:cy="24"
     inkscape:window-x="0"
     inkscape:window-y="0"
     inkscape:window-maximized="1"
     inkscape:current-layer="svg2" />
  <defs
     id="defs4">
    <filter
       color-interpolation-filters="sRGB"
       id="filter6">
      <feGaussianBlur
         stdDeviation="1.71"
         id="feGaussianBlur8" />
    </filter>
    <linearGradient
       gradientUnits="userSpaceOnUse"
       y2="1010.38"
       x2="83.34"
       y1="1057.77"
       x1="83.64"
       id="1"
       gradientTransform="translate(-60.418,-1009.855)">
      <stop
         stop-color="#d3d3d3"
         id="stop11" />
      <stop
         stop-color="#fcf9f9"
         offset="1"
         id="stop13" />
    </linearGradient>
    <linearGradient
       y1="92.54"
       x2="0"
       y2="7.02"
       gradientUnits="userSpaceOnUse"
       gradientTransform="matrix(1.0059 0 0 .99417 119.23 972.7)"
       id="linearGradient15">
      <stop
         id="stop17" />
      <stop
         offset="1"
         stop-opacity=".588"
         id="stop19" />
    </linearGradient>
    <linearGradient
       id="0"
       x1="42.535"
       y1="57.14"
       x2="41.721"
       y2="6.494"
       gradientUnits="userSpaceOnUse"
       gradientTransform="translate(-19.348,-8.325)">
      <stop
         stop-color="#212121"
         id="stop22" />
      <stop
         stop-color="#3f3f41"
         offset="1"
         id="stop24" />
    </linearGradient>
  </defs>
  <path
     inkscape:connector-curvature="0"
     style="fill:#916f6f"
     id="path30"
     d="m 27.750725,0.13059322 -8.19023,0.13660735 -1.66573,1.25822563 0.138414,0.1366073 -5.41362,0.1366073 L 13.035992,1.2390301 0.68143844,0.95982379 0.54302544,1.7986408 0.40461244,3.0568664 1.2374768,4.5942982 0.82104465,7.8093641 0.12659322,10.605021 l 0.41643222,2.655455 0.138413,2.097043 0.83286436,2.795657 -0.2780192,1.39723 0.138413,1.537432 0.9712774,1.119222 0.2780193,1.817836 -1.80414186,0.698614 0.27801916,5.591316 1.1108837,0.838816 -0.6944515,4.892701 -0.55484515,0.279205 -0.41643221,9.365992 0.49041156,-0.0659 1.1800902,0.244455 c 0,0 1.423506,0.4961 1.7182302,0.594361 0.2947244,0.09707 0.7326344,-0.44577 0.7326344,-0.44577 l 1.1800902,0 0.9808232,-0.197723 0.5417198,0.24925 0.4904116,-0.04913 1.2278187,-0.09347 0.5858688,-0.249248 0.2469957,0.594361 0.1956872,-0.142598 0.54172,-0.249249 1.127588,-0.09347 0.243416,0.345114 c 0,0 1.374584,0.142599 1.864996,0.142599 0.490412,0 0.394954,-0.397839 0.394954,-0.397839 0,0 0.145573,-0.04433 0.390182,0.201316 0.245802,0.246851 0.589448,-0.09587 0.589448,-0.09587 l 0.490412,-0.249248 0.347226,0.349906 0.342452,0.244456 0.933096,-0.195325 1.51777,0 0.347226,-0.09707 1.423506,2.026343 0.09546,-1.03534 2.30768,0 c 0.19688,0 0.100224,0.690227 0.100224,0.690227 l 1.517771,-0.493705 0.785135,0.789687 1.622773,-1.040133 0.880593,-0.142599 1.718231,-0.09347 2.455637,0 2.798091,0.195324 0.737407,-0.29718 0.53814,-0.493704 1.474815,0.838817 1.07628,-0.444572 c 0,0 1.178896,0.448168 1.375777,0.498496 0.196881,0.04913 2.012955,-0.201316 2.012955,-0.201316 l 1.127588,-0.29718 -0.732634,-0.541637 0.490412,-0.195324 2.060683,0.09347 2.745589,0.69382 -0.04772,-18.046549 0,-1.135998 -0.684906,0.09707 -0.885366,0.143797 0,-0.546429 0.490412,-0.445772 0.394954,-0.589568 0.09546,-2.127001 -0.147959,-1.533837 -0.637176,-1.877752 -0.58587,-0.790884 -0.100224,-0.738159 0.147958,-0.494902 0.04774,-0.143798 0.637176,-0.249248 0.100225,-0.249249 -0.490411,-0.838817 0.442683,-0.252843 0.694452,-0.419408 0.278018,-2.515253 0.138414,-1.677635 0,-5.8717187 L 47.327813,4.6038847 47.605831,2.7872466 47.744245,2.0886319 46.494949,1.5290211 41.774587,0.69140233 41.080137,1.6692234 40.802117,0.55120006 31.779021,0.4145927 31.501003,1.9520245 29.280427,2.2324291 29.002409,1.2534097 27.058661,0.9742035 27.753113,0.13538646 Z M 10.111421,8.0238616 42.411765,30.066775 39.857091,39.256615 33.770497,39.457932 5.5986796,9.2125852 10.115,8.0250599 m 25.620723,0.397839 3.535498,1.8741571 -0.984402,6.919042 -0.684906,0.201316 -9.422822,-7.213826 7.556632,-1.7782926 M 9.2344072,28.292078 18.851725,37.974423 13.059857,40.049896 10.01835,39.854571 6.287165,36.692232 9.233214,28.292078" />
</svg>
