<?xml version="1.0" encoding="UTF-8" standalone="no"?>
<svg
   xmlns:dc="http://purl.org/dc/elements/1.1/"
   xmlns:cc="http://creativecommons.org/ns#"
   xmlns:rdf="http://www.w3.org/1999/02/22-rdf-syntax-ns#"
   xmlns:svg="http://www.w3.org/2000/svg"
   xmlns="http://www.w3.org/2000/svg"
   xmlns:sodipodi="http://sodipodi.sourceforge.net/DTD/sodipodi-0.dtd"
   xmlns:inkscape="http://www.inkscape.org/namespaces/inkscape"
   viewBox="0 0 48 48"
   id="svg2"
   version="1.1"
   inkscape:version="0.91 r13725"
   sodipodi:docname="gelemental.svg">
  <metadata
     id="metadata24">
    <rdf:RDF>
      <cc:Work
         rdf:about="">
        <dc:format>image/svg+xml</dc:format>
        <dc:type
           rdf:resource="http://purl.org/dc/dcmitype/StillImage" />
        <dc:title></dc:title>
      </cc:Work>
    </rdf:RDF>
  </metadata>
  <sodipodi:namedview
     pagecolor="#ffffff"
     bordercolor="#666666"
     borderopacity="1"
     objecttolerance="10"
     gridtolerance="10"
     guidetolerance="10"
     inkscape:pageopacity="0"
     inkscape:pageshadow="2"
     inkscape:window-width="1280"
     inkscape:window-height="694"
     id="namedview22"
     showgrid="false"
     inkscape:zoom="4.9166667"
     inkscape:cx="-9.1525424"
     inkscape:cy="24"
     inkscape:window-x="0"
     inkscape:window-y="0"
     inkscape:window-maximized="1"
     inkscape:current-layer="svg2" />
  <defs
     id="defs4">
    <linearGradient
       id="0"
       gradientUnits="userSpaceOnUse"
       y1="12.529"
       x2="0"
       y2="-36.27"
       gradientTransform="matrix(1.0000462,0,0,1.0000462,11.626105,35.726314)">
      <stop
         stop-color="#d3d3d3"
         id="stop7" />
      <stop
         offset="1"
         stop-color="#fcf9f9"
         id="stop9" />
    </linearGradient>
    <linearGradient
       id="1"
       x1="95.62"
       y1="-9.559"
       x2="568.97"
       y2="698.07"
       gradientUnits="userSpaceOnUse"
       gradientTransform="matrix(0.05229,0,0,0.05229,7.799,8.01)">
      <stop
         stop-color="#69159f"
         id="stop12" />
      <stop
         offset="1"
         stop-color="#b92ff5"
         id="stop14" />
    </linearGradient>
  </defs>
  <path
     inkscape:connector-curvature="0"
     style="fill:#892ca0"
     id="path20"
     d="m 12.951092,0.42823096 0,3.25057304 0,1.2247973 0,1.2277139 -7.1786825,4.2367818 0.00284,8.473244 -1.0383114,0.615355 -1.0383101,0.615355 -3.2217203,1.908252 1.491177,2.62316 3.2303685,-1.913772 1.0383102,-0.612438 1.0383113,-0.615355 7.1701882,4.219283 8.658896,-5.111218 -0.0058,-10.210458 -7.173278,-4.2249579 0,-1.2247973 0,-1.2247971 0,-3.25609121 -2.973628,0 m 20.919872,4.82856701 -8.658895,5.1112195 0.0058,10.21361 8.6643,5.099712 8.661211,-5.111221 -0.0028,-8.538664 L 47.73284,8.9612216 46.241663,6.334911 40.986407,9.4440007 33.87104,5.2570351 m -9.656512,16.9354549 -8.661211,5.111219 0,0.176637 0.0058,10.033897 7.173278,4.224959 0,5.820764 2.973627,0 0,-5.817848 7.178683,-4.23678 -0.0058,-10.213611 -8.514501,-5.011431 -0.149952,-0.08836" />
</svg>
