<?xml version="1.0" encoding="UTF-8" standalone="no"?>
<svg
   xmlns:dc="http://purl.org/dc/elements/1.1/"
   xmlns:cc="http://creativecommons.org/ns#"
   xmlns:rdf="http://www.w3.org/1999/02/22-rdf-syntax-ns#"
   xmlns:svg="http://www.w3.org/2000/svg"
   xmlns="http://www.w3.org/2000/svg"
   xmlns:xlink="http://www.w3.org/1999/xlink"
   xmlns:sodipodi="http://sodipodi.sourceforge.net/DTD/sodipodi-0.dtd"
   xmlns:inkscape="http://www.inkscape.org/namespaces/inkscape"
   viewBox="0 0 48 48"
   id="svg2"
   version="1.1"
   inkscape:version="0.91 r13725"
   sodipodi:docname="gtick.svg">
  <metadata
     id="metadata45">
    <rdf:RDF>
      <cc:Work
         rdf:about="">
        <dc:format>image/svg+xml</dc:format>
        <dc:type
           rdf:resource="http://purl.org/dc/dcmitype/StillImage" />
        <dc:title></dc:title>
      </cc:Work>
    </rdf:RDF>
  </metadata>
  <sodipodi:namedview
     pagecolor="#ffffff"
     bordercolor="#666666"
     borderopacity="1"
     objecttolerance="10"
     gridtolerance="10"
     guidetolerance="10"
     inkscape:pageopacity="0"
     inkscape:pageshadow="2"
     inkscape:window-width="1280"
     inkscape:window-height="694"
     id="namedview43"
     showgrid="false"
     inkscape:zoom="4.9166667"
     inkscape:cx="-21.559322"
     inkscape:cy="24"
     inkscape:window-x="0"
     inkscape:window-y="0"
     inkscape:window-maximized="1"
     inkscape:current-layer="svg2" />
  <defs
     id="defs4">
    <linearGradient
       xlink:href="#2"
       id="3"
       gradientUnits="userSpaceOnUse"
       x1="22.04"
       y1="44.27"
       x2="21.977"
       y2="5.05" />
    <linearGradient
       xlink:href="#2"
       id="4"
       x1="118.12"
       y1="1069.65"
       x2="117.81"
       y2="1028.36"
       gradientUnits="userSpaceOnUse"
       gradientTransform="translate(-94.778,-1024.295)" />
    <linearGradient
       id="2">
      <stop
         stop-color="#197cf1"
         id="stop9" />
      <stop
         offset="1"
         stop-color="#21c9fb"
         id="stop11" />
    </linearGradient>
    <linearGradient
       y1="545.8"
       x2="0"
       y2="517.8"
       gradientUnits="userSpaceOnUse"
       id="linearGradient13">
      <stop
         stop-color="#3889e9"
         id="stop15" />
      <stop
         offset="1"
         stop-color="#5ea5fb"
         id="stop17" />
    </linearGradient>
    <linearGradient
       id="0"
       x1="64.821"
       y1="22.329"
       x2="64.62"
       y2="-26.485"
       gradientUnits="userSpaceOnUse"
       gradientTransform="matrix(0.99999,0,0,0.99999,-38.378,25.875)">
      <stop
         stop-color="#141414"
         id="stop20" />
      <stop
         stop-color="#2d2d2f"
         offset="1"
         id="stop22" />
    </linearGradient>
    <linearGradient
       xlink:href="#2"
       id="1"
       x1="25.593"
       y1="45.15"
       x2="25.661"
       y2="3.254"
       gradientUnits="userSpaceOnUse" />
  </defs>
  <g
     transform="matrix(-1.855118,0,0,3.7036662,62.069113,-65.438564)"
     id="g31"
     style="fill:#5599ff;fill-opacity:1">
    <g
       id="g33"
       style="fill:#5599ff">
      <path
         d="m 14.848,18.654 0,9.137 1.123,0 0,-0.867 0.051,0 c 0.187,0.306 0.467,0.561 0.842,0.766 0.383,0.204 0.813,0.305 1.289,0.305 0.808,0 1.507,-0.319 2.094,-0.957 0.587,-0.638 0.879,-1.429 0.879,-2.373 0,-0.944 -0.292,-1.735 -0.879,-2.373 -0.587,-0.638 -1.286,-0.957 -2.094,-0.957 -0.476,0 -0.906,0.102 -1.289,0.307 -0.374,0.204 -0.655,0.459 -0.842,0.766 l -0.051,0 0.051,-0.869 0,-2.883 -1.174,0 m 3.113,3.752 c 0.544,0 1.013,0.208 1.404,0.625 0.391,0.408 0.586,0.952 0.586,1.633 0,0.681 -0.195,1.23 -0.586,1.646 -0.391,0.408 -0.86,0.613 -1.404,0.613 -0.553,0 -1.025,-0.205 -1.416,-0.613 -0.383,-0.408 -0.574,-0.957 -0.574,-1.646 0,-0.689 0.191,-1.238 0.574,-1.646 0.391,-0.408 0.863,-0.611 1.416,-0.611"
         transform="matrix(-1.0682,0,0,1.0682,49.14,-2.136)"
         id="path35"
         style="fill:#5599ff"
         inkscape:connector-curvature="0" />
      <path
         d="m 25.379,21.334 c -0.476,0 -0.906,0.102 -1.289,0.307 -0.374,0.204 -0.655,0.459 -0.842,0.766 l -0.051,0 0,-0.869 -1.123,0 0,9.01 1.174,0 0,-2.756 -0.051,-0.867 0.051,0 c 0.187,0.306 0.467,0.561 0.842,0.766 0.383,0.204 0.813,0.305 1.289,0.305 0.808,0 1.507,-0.319 2.094,-0.957 0.587,-0.638 0.881,-1.429 0.881,-2.373 0,-0.944 -0.294,-1.735 -0.881,-2.373 -0.587,-0.638 -1.286,-0.957 -2.094,-0.957 m -0.191,1.072 c 0.544,0 1.013,0.208 1.404,0.625 0.391,0.408 0.586,0.952 0.586,1.633 0,0.681 -0.195,1.23 -0.586,1.646 -0.391,0.408 -0.86,0.613 -1.404,0.613 -0.553,0 -1.025,-0.205 -1.416,-0.613 -0.383,-0.408 -0.574,-0.957 -0.574,-1.646 0,-0.689 0.191,-1.238 0.574,-1.646 0.391,-0.408 0.863,-0.611 1.416,-0.611"
         transform="matrix(-1.0682,0,0,1.0682,49.14,-2.136)"
         id="path37"
         style="fill:#5599ff"
         inkscape:connector-curvature="0" />
    </g>
    <path
       d="m 14.469,20.653 c 0.391,0 0.787,0.113 1.187,0.34 0.391,0.218 0.681,0.487 0.872,0.805 l 0.054,0 0,-0.928 1.2,0 0,6.68 -1.254,0 0,-3.695 c 0,-0.536 -0.16,-1.013 -0.478,-1.431 -0.327,-0.418 -0.736,-0.626 -1.227,-0.626 -0.5,0 -0.871,0.14 -1.116,0.421 -0.245,0.282 -0.369,0.759 -0.369,1.431 l 0,3.899 -1.254,0 0,-3.695 c 0,-0.536 -0.16,-1.013 -0.478,-1.431 -0.327,-0.418 -0.736,-0.626 -1.227,-0.626 -0.5,0 -0.871,0.14 -1.116,0.421 -0.245,0.282 -0.369,0.759 -0.369,1.431 l 0,3.899 -1.254,0 0,-4.089 c 0,-0.863 0.201,-1.545 0.601,-2.045 0.4,-0.509 0.993,-0.764 1.784,-0.764 1.01,0 1.787,0.427 2.333,1.281 0.373,-0.854 1.075,-1.281 2.111,-1.281"
       id="path39"
       style="fill:#5599ff"
       inkscape:connector-curvature="0" />
  </g>
</svg>
