<?xml version="1.0" encoding="UTF-8" standalone="no"?>
<!-- Created with Inkscape (http://www.inkscape.org/) -->

<svg
   xmlns:dc="http://purl.org/dc/elements/1.1/"
   xmlns:cc="http://creativecommons.org/ns#"
   xmlns:rdf="http://www.w3.org/1999/02/22-rdf-syntax-ns#"
   xmlns:svg="http://www.w3.org/2000/svg"
   xmlns="http://www.w3.org/2000/svg"
   xmlns:sodipodi="http://sodipodi.sourceforge.net/DTD/sodipodi-0.dtd"
   xmlns:inkscape="http://www.inkscape.org/namespaces/inkscape"
   width="512"
   height="512"
   id="svg2"
   version="1.1"
   inkscape:version="0.91 r13725"
   sodipodi:docname="inkscape-logo.svg">
  <sodipodi:namedview
     id="base"
     pagecolor="#ffffff"
     bordercolor="#666666"
     borderopacity="1.0"
     inkscape:pageopacity="0.0"
     inkscape:pageshadow="2"
     inkscape:zoom="0.7"
     inkscape:cx="54.714286"
     inkscape:cy="248.62338"
     inkscape:document-units="px"
     inkscape:current-layer="layer1"
     showgrid="false"
     inkscape:window-width="1280"
     inkscape:window-height="694"
     inkscape:window-x="0"
     inkscape:window-y="0"
     inkscape:window-maximized="1" />
  <defs
     id="defs4">
    <clipPath
       id="clipPath3839"
       clipPathUnits="userSpaceOnUse">
      <path
         sodipodi:nodetypes="sccsccsccsccs"
         inkscape:connector-curvature="0"
         id="path3841"
         d="m 302.72322,31.5 c -5.15761,0.03227 -10.28618,2.157894 -14.25019,5.90625 l -219.227391,207.375 c -4.724367,4.47496 -7.711236,11.23676 -8.045611,18.214 -0.334375,6.97724 1.988658,14.0674 6.257459,19.0985 l 219.227393,258.4375 c 4.17751,4.92309 10.1564,7.80968 16.17589,7.80968 6.01949,0 11.99839,-2.88659 16.1759,-7.80968 l 219.22739,-258.4375 c 4.26557,-5.03521 6.5837,-12.128 6.24418,-19.10533 -0.33952,-6.97734 -3.33171,-13.73669 -8.05985,-18.20717 L 317.221,37.40625 C 313.19355,33.597915 307.96337,31.467188 302.72322,31.5 z"
         style="font-size:medium;font-style:normal;font-variant:normal;font-weight:normal;font-stretch:normal;text-indent:0;text-align:start;text-decoration:none;line-height:normal;letter-spacing:normal;word-spacing:normal;text-transform:none;direction:ltr;block-progression:tb;writing-mode:lr-tb;text-anchor:start;baseline-shift:baseline;color:#000000;fill:#2d2d35;fill-opacity:1;fill-rule:evenodd;stroke:none;stroke-width:51.03818512;marker:none;visibility:visible;display:inline;overflow:visible;enable-background:accumulate;font-family:Sans;-inkscape-font-specification:Sans" />
    </clipPath>
    <clipPath
       clipPathUnits="userSpaceOnUse"
       id="clipPath3924">
      <path
         sodipodi:nodetypes="sccsccsccsccs"
         inkscape:connector-curvature="0"
         id="path3926"
         d="m 302.72322,31.5 c -5.15761,0.03227 -10.28618,2.157894 -14.25019,5.90625 l -219.227391,207.375 c -4.724367,4.47496 -7.711236,11.23676 -8.045611,18.214 -0.334375,6.97724 1.988658,14.0674 6.257459,19.0985 l 219.227393,258.4375 c 4.17751,4.92309 10.1564,7.80968 16.17589,7.80968 6.01949,0 11.99839,-2.88659 16.1759,-7.80968 l 219.22739,-258.4375 c 4.26557,-5.03521 6.5837,-12.128 6.24418,-19.10533 -0.33952,-6.97734 -3.33171,-13.73669 -8.05985,-18.20717 L 317.221,37.40625 C 313.19355,33.597915 307.96337,31.467188 302.72322,31.5 z"
         style="font-size:medium;font-style:normal;font-variant:normal;font-weight:normal;font-stretch:normal;text-indent:0;text-align:start;text-decoration:none;line-height:normal;letter-spacing:normal;word-spacing:normal;text-transform:none;direction:ltr;block-progression:tb;writing-mode:lr-tb;text-anchor:start;baseline-shift:baseline;color:#000000;fill:#2d2d35;fill-opacity:1;fill-rule:evenodd;stroke:none;stroke-width:51.03818512;marker:none;visibility:visible;display:inline;overflow:visible;enable-background:accumulate;font-family:Sans;-inkscape-font-specification:Sans" />
    </clipPath>
  </defs>
  <metadata
     id="metadata7">
    <rdf:RDF>
      <cc:Work
         rdf:about="">
        <dc:format>image/svg+xml</dc:format>
        <dc:type
           rdf:resource="http://purl.org/dc/dcmitype/StillImage" />
        <dc:title></dc:title>
      </cc:Work>
    </rdf:RDF>
  </metadata>
  <g
     inkscape:label="Capa 1"
     inkscape:groupmode="layer"
     id="layer1"
     transform="translate(0,-540.36218)">
    <path
       style="color:#000000;font-style:normal;font-variant:normal;font-weight:normal;font-stretch:normal;font-size:medium;line-height:normal;font-family:Sans;-inkscape-font-specification:Sans;text-indent:0;text-align:start;text-decoration:none;text-decoration-line:none;letter-spacing:normal;word-spacing:normal;text-transform:none;direction:ltr;block-progression:tb;writing-mode:lr-tb;baseline-shift:baseline;text-anchor:start;display:inline;overflow:visible;visibility:visible;fill:#c87137;fill-opacity:1;fill-rule:evenodd;stroke:none;stroke-width:51.03818512;marker:none;enable-background:accumulate"
       d="m 256.28803,543.39072 c -5.41674,0.0317 -10.80298,2.12018 -14.96616,5.80302 L 11.08003,752.94414 c -4.9617301,4.39674 -8.098665,11.04036 -8.4498405,17.89565 -0.3511741,6.85529 2.0885722,13.82152 6.5718479,18.76469 L 239.44388,1043.5249 c 4.3874,4.8371 10.66668,7.6731 16.9886,7.6731 6.32193,0 12.60122,-2.836 16.98861,-7.6731 L 503.66294,789.60448 c 4.47989,-4.94721 6.91448,-11.91602 6.5579,-18.77141 -0.35657,-6.85538 -3.4991,-13.49658 -8.46479,-17.88893 L 271.51421,549.19374 c -4.22981,-3.74177 -9.72276,-5.83527 -15.22618,-5.80302 z"
       id="path2987"
       inkscape:connector-curvature="0"
       sodipodi:nodetypes="sccsccsccsccs" />
    <path
       sodipodi:nodetypes="sccsccasaacccs"
       inkscape:connector-curvature="0"
       id="path3762"
       d="m 256.02337,585.49875 c -4.84781,0.0284 -9.66831,1.89749 -13.39421,5.19351 l -103.02935,91.17486 c -12.07566,10.67874 -27.665,23.7481 -39.32358,34.14306 -1.163766,1.03764 -2.28837,2.04862 -3.366394,3.02792 -24.177475,16.45472 45.401544,22.98292 54.560444,21.19073 22.79952,-5.51502 10.16146,-40.51323 27.69013,-42.08869 22.80684,-2.04985 20.47889,46.00308 46.51394,47.3435 28.76075,1.48075 64.14406,-48.70898 102.14615,-47.50471 27.78335,0.88044 44.4672,42.99982 71.99572,39.37883 8.06833,-1.06127 30.56694,-4.42642 16.88111,-16.53757 L 372.67964,681.86712 269.65028,590.69226 c -3.78553,-3.34877 -8.70154,-5.22237 -13.62691,-5.19351 z"
       style="color:#000000;font-style:normal;font-variant:normal;font-weight:normal;font-stretch:normal;font-size:medium;line-height:normal;font-family:Sans;-inkscape-font-specification:Sans;text-indent:0;text-align:start;text-decoration:none;text-decoration-line:none;letter-spacing:normal;word-spacing:normal;text-transform:none;direction:ltr;block-progression:tb;writing-mode:lr-tb;baseline-shift:baseline;text-anchor:start;display:inline;overflow:visible;visibility:visible;fill:#f4e3d7;fill-opacity:1;fill-rule:evenodd;stroke:none;stroke-width:51.03818512;marker:none;enable-background:accumulate" />
  </g>
</svg>
