<?xml version="1.0" encoding="UTF-8" standalone="no"?>
<svg
   xmlns:dc="http://purl.org/dc/elements/1.1/"
   xmlns:cc="http://creativecommons.org/ns#"
   xmlns:rdf="http://www.w3.org/1999/02/22-rdf-syntax-ns#"
   xmlns:svg="http://www.w3.org/2000/svg"
   xmlns="http://www.w3.org/2000/svg"
   xmlns:xlink="http://www.w3.org/1999/xlink"
   xmlns:sodipodi="http://sodipodi.sourceforge.net/DTD/sodipodi-0.dtd"
   xmlns:inkscape="http://www.inkscape.org/namespaces/inkscape"
   viewBox="0 0 48 48"
   id="svg2"
   version="1.1"
   inkscape:version="0.91 r13725"
   sodipodi:docname="juk.svg">
  <metadata
     id="metadata26">
    <rdf:RDF>
      <cc:Work
         rdf:about="">
        <dc:format>image/svg+xml</dc:format>
        <dc:type
           rdf:resource="http://purl.org/dc/dcmitype/StillImage" />
        <dc:title></dc:title>
      </cc:Work>
    </rdf:RDF>
  </metadata>
  <sodipodi:namedview
     pagecolor="#ffffff"
     bordercolor="#666666"
     borderopacity="1"
     objecttolerance="10"
     gridtolerance="10"
     guidetolerance="10"
     inkscape:pageopacity="0"
     inkscape:pageshadow="2"
     inkscape:window-width="1280"
     inkscape:window-height="694"
     id="namedview24"
     showgrid="false"
     inkscape:zoom="4.9166667"
     inkscape:cx="-9.1525424"
     inkscape:cy="24"
     inkscape:window-x="0"
     inkscape:window-y="0"
     inkscape:window-maximized="1"
     inkscape:current-layer="svg2" />
  <defs
     id="defs4">
    <linearGradient
       id="3">
      <stop
         stop-color="#ff433a"
         id="stop7" />
      <stop
         offset="1"
         stop-color="#ff9436"
         id="stop9" />
    </linearGradient>
    <linearGradient
       xlink:href="#3"
       id="2"
       x1="490.26"
       y1="534.46"
       x2="489.52"
       y2="508.25"
       gradientUnits="userSpaceOnUse"
       gradientTransform="matrix(1.0474788,0,0,1.0474788,-493.03985,-523.40332)" />
    <linearGradient
       id="0"
       y1="543.8"
       x2="0"
       y2="503.8"
       gradientUnits="userSpaceOnUse"
       gradientTransform="matrix(1.15663,0,0,1.15663,-448.52,-581.79)">
      <stop
         stop-color="#2b2b2b"
         id="stop13" />
      <stop
         offset="1"
         stop-color="#353535"
         id="stop15" />
    </linearGradient>
    <linearGradient
       xlink:href="#3"
       id="1"
       y1="543.8"
       x2="0"
       y2="503.8"
       gradientUnits="userSpaceOnUse"
       gradientTransform="matrix(1.15663,0,0,1.15663,-448.52,-581.79)" />
  </defs>
  <path
     inkscape:connector-curvature="0"
     style="fill:#d45500;fill-rule:evenodd;stroke-width:1.31700003"
     id="path22"
     d="M 44.687978,7.5345502 C 41.082699,3.3561174 34.616419,0.93084827 25.482597,0.32808761 l -0.01586,0 c -0.673712,-0.0604466 -1.320112,-0.0906784 -1.920993,-0.0906784 -4.604464,0 -6.238675,1.80117129 -6.238675,3.34274789 l 0,26.8308739 c -1.811742,-0.426733 -3.753221,-0.549419 -5.671937,-0.360947 -3.3435311,0.328942 -6.3388238,1.5558 -8.4350736,3.452988 -2.0962498,1.897186 -3.04081252,4.237108 -2.66071068,6.591256 0.70557728,4.368686 5.94051098,7.663424 12.17463628,7.663424 0.584947,0 1.178998,-0.02846 1.76622,-0.08713 6.464006,-0.636545 11.154963,-4.642507 11.154963,-9.521495 l 0,-26.334795 c 0.4848,-0.02489 0.971875,-0.03734 1.445297,-0.03734 5.69925,0 10.936461,1.861625 15.15172,5.387512 1.736634,1.452672 2.956599,2.896455 3.673558,3.853048 0.175266,0.234703 0.518941,0.359167 0.864903,0.311159 0.343683,-0.048 0.612259,-0.256039 0.673714,-0.524526 0.691919,-2.964019 1.251831,-8.632465 -2.754033,-13.2749708" />
</svg>
