<?xml version="1.0" encoding="UTF-8" standalone="no"?>
<svg
   xmlns:dc="http://purl.org/dc/elements/1.1/"
   xmlns:cc="http://creativecommons.org/ns#"
   xmlns:rdf="http://www.w3.org/1999/02/22-rdf-syntax-ns#"
   xmlns:svg="http://www.w3.org/2000/svg"
   xmlns="http://www.w3.org/2000/svg"
   xmlns:sodipodi="http://sodipodi.sourceforge.net/DTD/sodipodi-0.dtd"
   xmlns:inkscape="http://www.inkscape.org/namespaces/inkscape"
   viewBox="0 0 48 48"
   id="svg2"
   version="1.1"
   inkscape:version="0.91 r13725"
   sodipodi:docname="kicad.svg">
  <metadata
     id="metadata21">
    <rdf:RDF>
      <cc:Work
         rdf:about="">
        <dc:format>image/svg+xml</dc:format>
        <dc:type
           rdf:resource="http://purl.org/dc/dcmitype/StillImage" />
        <dc:title></dc:title>
      </cc:Work>
    </rdf:RDF>
  </metadata>
  <sodipodi:namedview
     pagecolor="#ffffff"
     bordercolor="#666666"
     borderopacity="1"
     objecttolerance="10"
     gridtolerance="10"
     guidetolerance="10"
     inkscape:pageopacity="0"
     inkscape:pageshadow="2"
     inkscape:window-width="1280"
     inkscape:window-height="694"
     id="namedview19"
     showgrid="false"
     inkscape:zoom="4.9166667"
     inkscape:cx="-9.1525424"
     inkscape:cy="24"
     inkscape:window-x="0"
     inkscape:window-y="0"
     inkscape:window-maximized="1"
     inkscape:current-layer="svg2" />
  <defs
     id="defs4">
    <linearGradient
       id="0"
       y1="542.8"
       x2="0"
       y2="507.8"
       gradientUnits="userSpaceOnUse"
       gradientTransform="matrix(1.09092 0 0 1.06529-421.72-535.06)">
      <stop
         stop-color="#155bc2"
         id="stop7" />
      <stop
         stop-color="#369dff"
         offset="1"
         id="stop9" />
    </linearGradient>
  </defs>
  <path
     style="color:#000000;fill:#0088aa;fill-opacity:0.85500004;fill-rule:evenodd"
     inkscape:connector-curvature="0"
     id="path17"
     d="m 17.930502,0.26634283 c -2.688464,0 -4.918441,2.57746077 -5.28401,5.94341647 l -0.04722,0 -1.047966,0 -6.5695978,0 -1.5232086,0 0,15.8491097 -3.04641648,0 0,1.98114 7.61604158,0 0,-1.98114 -3.0464165,0 0,-13.8679709 6.5695978,0 1.047966,0 0.04722,0 c 0.365569,3.3659539 2.594023,5.9434169 5.28401,5.9434169 2.688462,0 4.918439,-2.577463 5.284008,-5.9434169 l 0.04722,0 0.476764,0 5.617593,0 0,3.9622779 13.708874,0 0,-3.9622779 3.046416,0 0,31.6982209 -4.615322,0 c -0.365568,-3.365956 -2.594023,-5.943416 -5.284008,-5.943416 -2.688463,0 -4.91844,2.57746 -5.284009,5.943416 l -4.760027,0 C 25.857277,38.72817 25.025605,37.90798 24.02638,37.90798 c -1.261217,0 -2.284811,1.331325 -2.284811,2.971708 0,1.640383 1.023594,2.971709 2.284811,2.971709 0.999225,0 1.830897,-0.820192 2.141631,-1.981139 l 4.760027,0 c 0.365569,3.365953 2.594023,5.943416 5.28401,5.943416 2.688462,0 4.918439,-2.577463 5.284008,-5.943416 l 4.615322,0 1.523208,0 0,-35.6604987 -4.569625,0 0,-3.9622776 -13.708874,0 0,3.9622776 -5.617593,0 -0.476764,0 -0.04722,0 C 22.848941,2.8438036 20.620487,0.26634283 17.930502,0.26634283 m 0,1.98113887 c 0.766173,0 1.497313,0.2971698 2.09441,0.8043415 L 17.930502,5.7758894 15.83609,3.0518232 c 0.597097,-0.5071717 1.328238,-0.8043415 2.094412,-0.8043415 m -3.189598,2.2287806 2.094409,2.7240664 -2.094409,2.7240644 C 14.350962,9.1477881 14.12248,8.1968411 14.12248,7.2003287 c 0,-0.9965142 0.228482,-1.9474595 0.618424,-2.7240664 m 6.379196,0 c 0.389941,0.7766069 0.618422,1.7275522 0.618422,2.7240664 0,0.9965124 -0.228481,1.9474594 -0.618422,2.7240644 L 19.025688,7.2003287 21.1201,4.4762623 m -3.189598,4.1485037 2.09441,2.724066 c -0.597097,0.507172 -1.328237,0.804344 -2.09441,0.804344 -0.766174,0 -1.497315,-0.297172 -2.094412,-0.804344 l 2.094412,-2.724066 m -15.9936877,17.396381 0,1.98114 1.5232083,0 0,13.867971 1.5232082,0 4.712807,0 c 0.3107332,1.160947 1.1424062,1.981139 2.1416292,1.981139 1.261219,0 2.284813,-1.331326 2.284813,-2.971709 0,-0.204058 -0.01675,-0.425944 -0.04722,-0.620098 l 8.092806,-6.068226 -0.761604,-1.733497 -8.140025,6.129643 c -0.392988,-0.416039 -0.881938,-0.681512 -1.42877,-0.681512 -0.999224,0 -1.830897,0.820192 -2.1416299,1.981139 l -4.712807,0 0,-11.886833 1.5232083,0 0,-1.981138 -4.5696248,0 M 36.209001,35.92486 c 2.10355,0 3.80802,2.216894 3.80802,4.952846 0,2.735953 -1.70447,4.952848 -3.80802,4.952848 -2.103551,0 -3.808022,-2.216895 -3.808022,-4.952848 0,-2.735952 1.704471,-4.952846 3.808022,-4.952846 m -24.371334,3.962277 c 0.420406,0 0.761605,0.443775 0.761605,0.990569 0,0.546794 -0.341199,0.99057 -0.761605,0.99057 -0.420404,0 -0.761603,-0.443776 -0.761603,-0.99057 0,-0.546794 0.341199,-0.990569 0.761603,-0.990569 m 12.185668,0 c 0.420404,0 0.761603,0.443775 0.761603,0.990569 0,0.546794 -0.341199,0.99057 -0.761603,0.99057 -0.420406,0 -0.761605,-0.443776 -0.761605,-0.99057 0,-0.546794 0.341199,-0.990569 0.761605,-0.990569" />
</svg>
