<?xml version="1.0" encoding="UTF-8" standalone="no"?>
<!-- Generator: Adobe Illustrator 17.1.0, SVG Export Plug-In . SVG Version: 6.00 Build 0)  -->

<svg
   xmlns:dc="http://purl.org/dc/elements/1.1/"
   xmlns:cc="http://creativecommons.org/ns#"
   xmlns:rdf="http://www.w3.org/1999/02/22-rdf-syntax-ns#"
   xmlns:svg="http://www.w3.org/2000/svg"
   xmlns="http://www.w3.org/2000/svg"
   xmlns:sodipodi="http://sodipodi.sourceforge.net/DTD/sodipodi-0.dtd"
   xmlns:inkscape="http://www.inkscape.org/namespaces/inkscape"
   version="1.1"
   id="Capa_1"
   x="0px"
   y="0px"
   viewBox="0 0 295 295"
   style="enable-background:new 0 0 295 295;"
   xml:space="preserve"
   width="512px"
   height="512px"
   inkscape:version="0.91 r13725"
   sodipodi:docname="kmix.svg"><metadata
     id="metadata39"><rdf:RDF><cc:Work
         rdf:about=""><dc:format>image/svg+xml</dc:format><dc:type
           rdf:resource="http://purl.org/dc/dcmitype/StillImage" /><dc:title></dc:title></cc:Work></rdf:RDF></metadata><defs
     id="defs37" /><sodipodi:namedview
     pagecolor="#ffffff"
     bordercolor="#666666"
     borderopacity="1"
     objecttolerance="10"
     gridtolerance="10"
     guidetolerance="10"
     inkscape:pageopacity="0"
     inkscape:pageshadow="2"
     inkscape:window-width="1280"
     inkscape:window-height="694"
     id="namedview35"
     showgrid="false"
     inkscape:zoom="0.4609375"
     inkscape:cx="-97.627119"
     inkscape:cy="256"
     inkscape:window-x="0"
     inkscape:window-y="0"
     inkscape:window-maximized="1"
     inkscape:current-layer="Capa_1" /><path
     d="M65.5,295h-50c-8.284,0-15-6.716-15-15s6.716-15,15-15h50c8.284,0,15,6.716,15,15S73.784,295,65.5,295z M80.5,236  c0-8.284-6.716-15-15-15h-50c-8.284,0-15,6.716-15,15s6.716,15,15,15h50C73.784,251,80.5,244.284,80.5,236z M80.5,192  c0-8.284-6.716-15-15-15h-50c-8.284,0-15,6.716-15,15s6.716,15,15,15h50C73.784,207,80.5,200.284,80.5,192z M80.5,148  c0-8.284-6.716-15-15-15h-50c-8.284,0-15,6.716-15,15s6.716,15,15,15h50C73.784,163,80.5,156.284,80.5,148z M80.5,104  c0-8.284-6.716-15-15-15h-50c-8.284,0-15,6.716-15,15s6.716,15,15,15h50C73.784,119,80.5,112.284,80.5,104z M187.5,280  c0-8.284-6.716-15-15-15h-50c-8.284,0-15,6.716-15,15s6.716,15,15,15h50C180.784,295,187.5,288.284,187.5,280z M187.5,236  c0-8.284-6.716-15-15-15h-50c-8.284,0-15,6.716-15,15s6.716,15,15,15h50C180.784,251,187.5,244.284,187.5,236z M187.5,192  c0-8.284-6.716-15-15-15h-50c-8.284,0-15,6.716-15,15s6.716,15,15,15h50C180.784,207,187.5,200.284,187.5,192z M294.5,280  c0-8.284-6.716-15-15-15h-50c-8.284,0-15,6.716-15,15s6.716,15,15,15h50C287.784,295,294.5,288.284,294.5,280z M294.5,236  c0-8.284-6.716-15-15-15h-50c-8.284,0-15,6.716-15,15s6.716,15,15,15h50C287.784,251,294.5,244.284,294.5,236z M294.5,192  c0-8.284-6.716-15-15-15h-50c-8.284,0-15,6.716-15,15s6.716,15,15,15h50C287.784,207,294.5,200.284,294.5,192z M294.5,148  c0-8.284-6.716-15-15-15h-50c-8.284,0-15,6.716-15,15s6.716,15,15,15h50C287.784,163,294.5,156.284,294.5,148z M294.5,104  c0-8.284-6.716-15-15-15h-50c-8.284,0-15,6.716-15,15s6.716,15,15,15h50C287.784,119,294.5,112.284,294.5,104z M294.5,59  c0-8.284-6.716-15-15-15h-50c-8.284,0-15,6.716-15,15s6.716,15,15,15h50C287.784,74,294.5,67.284,294.5,59z M294.5,15  c0-8.284-6.716-15-15-15h-50c-8.284,0-15,6.716-15,15s6.716,15,15,15h50C287.784,30,294.5,23.284,294.5,15z"
     fill="#FFDA44"
     id="path3"
     style="fill:#0055d4" /><g
     id="g5" /><g
     id="g7" /><g
     id="g9" /><g
     id="g11" /><g
     id="g13" /><g
     id="g15" /><g
     id="g17" /><g
     id="g19" /><g
     id="g21" /><g
     id="g23" /><g
     id="g25" /><g
     id="g27" /><g
     id="g29" /><g
     id="g31" /><g
     id="g33" /></svg>