<?xml version="1.0" encoding="UTF-8" standalone="no"?>
<svg
   xmlns:dc="http://purl.org/dc/elements/1.1/"
   xmlns:cc="http://creativecommons.org/ns#"
   xmlns:rdf="http://www.w3.org/1999/02/22-rdf-syntax-ns#"
   xmlns:svg="http://www.w3.org/2000/svg"
   xmlns="http://www.w3.org/2000/svg"
   xmlns:sodipodi="http://sodipodi.sourceforge.net/DTD/sodipodi-0.dtd"
   xmlns:inkscape="http://www.inkscape.org/namespaces/inkscape"
   viewBox="0 0 48 48"
   id="svg2"
   version="1.1"
   inkscape:version="0.91 r13725"
   sodipodi:docname="leocad.svg">
  <metadata
     id="metadata22">
    <rdf:RDF>
      <cc:Work
         rdf:about="">
        <dc:format>image/svg+xml</dc:format>
        <dc:type
           rdf:resource="http://purl.org/dc/dcmitype/StillImage" />
        <dc:title></dc:title>
      </cc:Work>
    </rdf:RDF>
  </metadata>
  <sodipodi:namedview
     pagecolor="#ffffff"
     bordercolor="#666666"
     borderopacity="1"
     objecttolerance="10"
     gridtolerance="10"
     guidetolerance="10"
     inkscape:pageopacity="0"
     inkscape:pageshadow="2"
     inkscape:window-width="1280"
     inkscape:window-height="694"
     id="namedview20"
     showgrid="false"
     inkscape:zoom="4.9166667"
     inkscape:cx="-9.1525424"
     inkscape:cy="24"
     inkscape:window-x="0"
     inkscape:window-y="0"
     inkscape:window-maximized="1"
     inkscape:current-layer="svg2" />
  <defs
     id="defs4">
    <linearGradient
       id="0"
       x1="27.456"
       y1="47.39"
       x2="26.442"
       y2="1.017"
       gradientUnits="userSpaceOnUse">
      <stop
         stop-color="#e1e1e1"
         id="stop7" />
      <stop
         stop-color="#f4f4ff"
         offset="1"
         id="stop9" />
    </linearGradient>
    <linearGradient
       id="1"
       x1="24.14"
       y1="40.683"
       x2="23.86"
       y2="6.31"
       gradientUnits="userSpaceOnUse">
      <stop
         stop-color="#c52828"
         id="stop12" />
      <stop
         stop-color="#ff5454"
         offset="1"
         id="stop14" />
    </linearGradient>
  </defs>
  <path
     d="m 24.38525,0.49152544 c -2.845552,0 -4.990534,1.03470676 -4.992197,2.40551956 l 0,1.7416407 c -0.04327,0.00139 -0.0882,0.0125 -0.129797,0.029166 L 16.038295,6.05672 c -0.138117,0.059721 -0.252937,0.1416645 -0.34779,0.2333298 -0.817056,-0.2805514 -1.823816,-0.4472156 -2.950388,-0.4472156 -2.8438889,0 -4.98887,1.0319291 -4.98887,2.4027419 l 0,1.4833112 c -0.179719,0.00416 -0.3594382,0.031944 -0.5258448,0.1083311 l -6.158708,2.7916246 c -0.21300047,0.09583 -0.35611015,0.24583 -0.4609463,0.412494 -0.0299531,0.0375 -0.0482579,0.07361 -0.0715548,0.113889 -0.0199687,0.04722 -0.0332813,0.09306 -0.0449298,0.141665 -0.0332812,0.09167 -0.0881955,0.177775 -0.0881955,0.276384 l 0,22.628829 c 0,0.354162 0.22964109,0.681934 0.60072779,0.856932 L 23.39846,47.5811 c 0.01498,0.007 0.03328,0.0042 0.04825,0.01107 0.15143,0.06389 0.314509,0.09999 0.480915,0.105555 0.0016,0 0.03162,0.01107 0.04825,0.01107 0.148102,0 0.284555,-0.05277 0.422674,-0.09722 0.04992,-0.01667 0.108164,-0.0097 0.156421,-0.03194 l 0.0066,-0.0028 c 0.0034,-1.38e-4 0.0066,-1.38e-4 0.01002,-0.0028 0.0034,-1.39e-4 0.0034,-0.0042 0.0066,-0.0056 L 47.176297,36.978316 c 0.372751,-0.173608 0.600729,-0.50277 0.600729,-0.856932 l 0.0233,-22.506607 c 0,-0.348606 -0.219657,-0.673601 -0.582423,-0.848599 -0.03827,-0.01944 -0.08653,-0.01528 -0.126469,-0.02917 -0.05325,-0.03473 -0.09153,-0.07777 -0.153095,-0.105554 L 40.7763,9.8399967 c -0.02663,-0.0125 -0.05492,-0.011109 -0.08153,-0.022222 l 0,-1.5874762 c 0,-1.3722017 -2.144981,-2.4055196 -4.98887,-2.4055196 -1.208112,0 -2.274779,0.1930527 -3.120124,0.5124923 -0.05825,-0.038888 -0.106498,-0.086109 -0.174726,-0.1166649 L 29.478956,4.9567364 c -0.03328,-0.00139 -0.06988,-0.0125 -0.104833,-0.025 l 0,-2.0346918 c 0,-1.3722017 -2.14498,-2.40551958 -4.988869,-2.40551958 M 21.16029,4.7456285 c 0.860322,0.3444392 1.965263,0.5527695 3.22496,0.5527695 1.258034,0 2.36131,-0.2097191 3.221632,-0.5527695 l 0,2.7263481 c 0,0.2847179 -1.216432,0.9305416 -3.221632,0.9305416 -2.0052,0 -3.22496,-0.6458237 -3.22496,-0.9305416 l 0,-2.7263481 m -1.768902,2.0805244 0,0.6458237 c 0,1.3708128 2.146645,2.4027418 4.992199,2.4027418 2.847216,0 4.990533,-1.031929 4.988869,-2.4027418 l 0,-0.347217 1.43276,0.6180462 c -0.06157,0.1569421 -0.09485,0.3194397 -0.09485,0.4888816 l 0,4.5735436 c 0,1.370813 2.146645,2.402741 4.992197,2.402741 2.845553,0 4.990534,-1.031928 4.98887,-2.402741 l 0,-0.765267 3.494538,1.587476 -20.206753,9.442914 -20.0353534,-9.502635 3.8123751,-1.73053 0,0.984708 c 0,1.370813 2.1449811,2.40552 4.9888693,2.40552 2.843889,0 4.988871,-1.034707 4.988871,-2.40552 l 0,-4.5735432 c 0,-0.2208299 -0.07322,-0.4291602 -0.178056,-0.6291572 l 1.842121,-0.7916549 m 13.087879,3.2527293 c 0.858657,0.344439 1.965262,0.555547 3.224959,0.555547 1.258034,0 2.36131,-0.212497 3.221632,-0.555547 l 0,2.726348 c 0,0.26944 -1.128237,0.927764 -3.221632,0.927764 -2.005199,0 -3.224959,-0.643046 -3.224959,-0.927764 l 0,-2.726348 m -22.9657744,0.01667 c 0.8603224,0.344439 1.9652624,0.555547 3.2249594,0.555547 1.256371,0 2.36131,-0.209719 3.221632,-0.552769 l 0,2.72357 c 0,0.26944 -1.128237,0.930542 -3.221632,0.930542 -2.093394,0 -3.2249594,-0.661102 -3.2249594,-0.930542 l 0,-2.726348 m 14.7952104,1.001374 c -2.843889,0 -4.992198,1.034706 -4.992198,2.405519 l 0,4.573543 c 0,1.370813 2.148309,2.405519 4.992198,2.405519 2.843888,0 4.985542,-1.034706 4.985542,-2.405519 l 0,-4.573543 c 0,-1.370813 -2.141654,-2.405519 -4.985542,-2.405519 m -3.22496,4.252714 c 0.860322,0.34444 1.965262,0.555548 3.22496,0.555548 1.25637,0 2.359646,-0.20972 3.218303,-0.55277 l 0,2.723571 c 0,0.26944 -1.124908,0.930541 -3.218303,0.930541 -2.0052,0 -3.22496,-0.645823 -3.22496,-0.930541 l 0,-2.726349"
     id="path18"
     style="fill:#ff2a2a"
     inkscape:connector-curvature="0" />
</svg>
