<?xml version="1.0" encoding="UTF-8" standalone="no"?>
<svg
   xmlns:dc="http://purl.org/dc/elements/1.1/"
   xmlns:cc="http://creativecommons.org/ns#"
   xmlns:rdf="http://www.w3.org/1999/02/22-rdf-syntax-ns#"
   xmlns:svg="http://www.w3.org/2000/svg"
   xmlns="http://www.w3.org/2000/svg"
   xmlns:sodipodi="http://sodipodi.sourceforge.net/DTD/sodipodi-0.dtd"
   xmlns:inkscape="http://www.inkscape.org/namespaces/inkscape"
   viewBox="0 0 48 48"
   id="svg2"
   version="1.1"
   inkscape:version="0.91 r13725"
   sodipodi:docname="libreoffice-math.svg">
  <metadata
     id="metadata35">
    <rdf:RDF>
      <cc:Work
         rdf:about="">
        <dc:format>image/svg+xml</dc:format>
        <dc:type
           rdf:resource="http://purl.org/dc/dcmitype/StillImage" />
        <dc:title></dc:title>
      </cc:Work>
    </rdf:RDF>
  </metadata>
  <sodipodi:namedview
     pagecolor="#ffffff"
     bordercolor="#666666"
     borderopacity="1"
     objecttolerance="10"
     gridtolerance="10"
     guidetolerance="10"
     inkscape:pageopacity="0"
     inkscape:pageshadow="2"
     inkscape:window-width="1280"
     inkscape:window-height="694"
     id="namedview33"
     showgrid="false"
     inkscape:zoom="4.9166667"
     inkscape:cx="-42"
     inkscape:cy="24"
     inkscape:window-x="0"
     inkscape:window-y="0"
     inkscape:window-maximized="1"
     inkscape:current-layer="svg2" />
  <defs
     id="defs4">
    <linearGradient
       id="0"
       x1="150.28"
       y1="47.535"
       x2="149.71"
       y2="1.316"
       gradientUnits="userSpaceOnUse">
      <stop
         stop-color="#dce2ff"
         id="stop7" />
      <stop
         offset="1"
         stop-color="#f8feff"
         id="stop9" />
    </linearGradient>
    <linearGradient
       id="1"
       gradientUnits="userSpaceOnUse"
       x1="10.366"
       y1="50.599"
       x2="10.11"
       y2="-.747">
      <stop
         stop-color="#566069"
         id="stop12" />
      <stop
         offset="1"
         stop-color="#6c7884"
         id="stop14" />
    </linearGradient>
    <linearGradient
       id="2"
       gradientUnits="userSpaceOnUse"
       y1="18.758"
       x2="0"
       y2="1.078">
      <stop
         stop-color="#646f7a"
         id="stop17" />
      <stop
         offset="1"
         stop-color="#6b7783"
         id="stop19" />
    </linearGradient>
  </defs>
  <path
     style="opacity:0.9;fill:#6f917c"
     inkscape:connector-curvature="0"
     id="path31"
     d="m 37.166546,38.584135 c -6.704025,-5.557759 -1.973363,-28.419292 -1.973363,-28.419292 0,0 7.339283,0 8.194664,0 0.855381,0 4.207393,-0.5690836 4.207393,-4.8269612 0,-5.23637246 -4.097334,-4.91498284 -4.097334,-4.91498284 0,0 -22.460022,0 -30.170034,0 -4.9527119,0 -9.4227045,6.01220504 -11.9888482,10.31716704 -1.36513237,2.296797 -0.59277947,2.939573 1.7513108,1.856679 C 11.312032,8.7789847 13.63102,10.154607 13.63102,10.154607 c 0.579265,2.939573 0.772353,16.20655 -1.338101,21.440875 -2.137487,4.929314 -6.0842096,11.174886 -0.289631,14.845258 4.525988,2.720538 9.270164,-2.867928 8.80096,-12.364224 -0.22012,-5.031667 -0.592779,-23.897343 -0.592779,-23.897343 l 7.561334,0 c -0.235569,2.939573 -1.517675,17.946547 -0.179566,26.836917 1.392166,14.845256 16.609449,11.963 19.443984,3.555736 0.702841,-2.325456 0.538717,-4.114584 0.01155,-5.455406 -0.965441,-2.501504 -2.579659,-2.632516 -2.400088,-1.461597 0.110069,0.745126 0.04248,1.475927 -0.06952,2.135078 -0.332111,2.032729 -4.249871,5.219997 -7.422311,2.808564 z" />
</svg>
