<?xml version="1.0" encoding="UTF-8" standalone="no"?>
<svg
   xmlns:dc="http://purl.org/dc/elements/1.1/"
   xmlns:cc="http://creativecommons.org/ns#"
   xmlns:rdf="http://www.w3.org/1999/02/22-rdf-syntax-ns#"
   xmlns:svg="http://www.w3.org/2000/svg"
   xmlns="http://www.w3.org/2000/svg"
   xmlns:sodipodi="http://sodipodi.sourceforge.net/DTD/sodipodi-0.dtd"
   xmlns:inkscape="http://www.inkscape.org/namespaces/inkscape"
   viewBox="0 0 48 48"
   id="svg2"
   version="1.1"
   inkscape:version="0.91 r13725"
   sodipodi:docname="makehuman.svg">
  <metadata
     id="metadata22">
    <rdf:RDF>
      <cc:Work
         rdf:about="">
        <dc:format>image/svg+xml</dc:format>
        <dc:type
           rdf:resource="http://purl.org/dc/dcmitype/StillImage" />
        <dc:title></dc:title>
      </cc:Work>
    </rdf:RDF>
  </metadata>
  <sodipodi:namedview
     pagecolor="#ffffff"
     bordercolor="#666666"
     borderopacity="1"
     objecttolerance="10"
     gridtolerance="10"
     guidetolerance="10"
     inkscape:pageopacity="0"
     inkscape:pageshadow="2"
     inkscape:window-width="1280"
     inkscape:window-height="694"
     id="namedview20"
     showgrid="false"
     inkscape:zoom="4.9166667"
     inkscape:cx="-9.1525424"
     inkscape:cy="24"
     inkscape:window-x="0"
     inkscape:window-y="0"
     inkscape:window-maximized="1"
     inkscape:current-layer="svg2" />
  <defs
     id="defs4">
    <linearGradient
       id="0"
       gradientUnits="userSpaceOnUse"
       x1="24.61"
       y1="47.593"
       x2="23.593"
       y2="-.203">
      <stop
         stop-color="#2e3e46"
         id="stop7" />
      <stop
         offset="1"
         stop-color="#47606a"
         id="stop9" />
    </linearGradient>
    <linearGradient
       id="1"
       x1="23.967"
       y1="40.4"
       x2="23.602"
       y2="8.899"
       gradientUnits="userSpaceOnUse">
      <stop
         stop-color="#ff9300"
         id="stop12" />
      <stop
         offset="1"
         stop-color="#ffd702"
         id="stop14" />
    </linearGradient>
  </defs>
  <path
     d="m 24.095391,0.49152542 c -4.850098,0 -8.783048,2.03228008 -8.783048,4.54159498 0,2.5079202 3.93295,4.5415952 8.783048,4.5415952 4.847401,0 8.783048,-2.033675 8.783048,-4.5415952 0,-2.5093149 -3.932949,-4.54159498 -8.783048,-4.54159498 m 0,10.84766158 c -3.989596,0 -7.984588,0.01255 -8.173413,0.03766 -2.379192,0.209226 -4.448172,0.986152 -5.421968,2.155027 L 0.71079646,25.136931 c -0.58535631,0.69742 -0.45317983,1.499452 0.35337144,2.1355 0.8065513,0.636046 2.1741825,1.018232 3.6470155,1.018232 1.7344907,0 3.2990374,-0.528644 3.9922938,-1.351599 l 3.6874778,-4.37561 0,22.889305 c 0,1.358573 2.131022,2.460495 4.758384,2.460495 2.630058,0 4.758383,-1.101922 4.758383,-2.460495 l 0,-15.440865 4.394221,0 0,15.440865 c 0,1.358573 2.131023,2.460495 4.758384,2.460495 2.624664,0 4.752988,-1.099132 4.752988,-2.457706 l 0,-22.892094 3.692872,4.37561 c 0.693256,0.821559 2.257805,1.354388 3.992295,1.354388 1.470135,0 2.840463,-0.382185 3.647014,-1.018233 0.806552,-0.636046 0.941426,-1.439473 0.353373,-2.135498 L 37.709655,13.531873 c -0.987283,-1.17027 -3.067054,-1.94859 -5.448943,-2.157815 -0.180732,-0.02511 -4.164934,-0.03487 -8.146438,-0.03487"
     id="path18"
     style="fill:#ffd42a"
     inkscape:connector-curvature="0" />
</svg>
