<?xml version="1.0" encoding="UTF-8" standalone="no"?>
<!-- Created with Inkscape (http://www.inkscape.org/) -->

<svg
   xmlns:dc="http://purl.org/dc/elements/1.1/"
   xmlns:cc="http://creativecommons.org/ns#"
   xmlns:rdf="http://www.w3.org/1999/02/22-rdf-syntax-ns#"
   xmlns:svg="http://www.w3.org/2000/svg"
   xmlns="http://www.w3.org/2000/svg"
   xmlns:sodipodi="http://sodipodi.sourceforge.net/DTD/sodipodi-0.dtd"
   xmlns:inkscape="http://www.inkscape.org/namespaces/inkscape"
   id="svg2"
   version="1.1"
   inkscape:version="0.91 r13725"
   width="512"
   height="512"
   sodipodi:docname="musique.svg">
  <metadata
     id="metadata8">
    <rdf:RDF>
      <cc:Work
         rdf:about="">
        <dc:format>image/svg+xml</dc:format>
        <dc:type
           rdf:resource="http://purl.org/dc/dcmitype/StillImage" />
        <dc:title></dc:title>
      </cc:Work>
    </rdf:RDF>
  </metadata>
  <defs
     id="defs6" />
  <sodipodi:namedview
     pagecolor="#ffffff"
     bordercolor="#666666"
     borderopacity="1"
     objecttolerance="10"
     gridtolerance="10"
     guidetolerance="10"
     inkscape:pageopacity="0"
     inkscape:pageshadow="2"
     inkscape:window-width="1280"
     inkscape:window-height="694"
     id="namedview4"
     showgrid="false"
     inkscape:zoom="0.61458333"
     inkscape:cx="110.57627"
     inkscape:cy="245.7478"
     inkscape:window-x="0"
     inkscape:window-y="0"
     inkscape:window-maximized="1"
     inkscape:current-layer="svg2" />
  <path
     style="font-size:medium;font-style:normal;font-variant:normal;font-weight:normal;font-stretch:normal;text-indent:0;text-align:start;text-decoration:none;line-height:normal;letter-spacing:normal;word-spacing:normal;text-transform:none;direction:ltr;block-progression:tb;writing-mode:lr-tb;text-anchor:start;baseline-shift:baseline;color:#000000;fill:#ffffff;fill-opacity:0.04285715;stroke:none;stroke-width:33;marker:none;visibility:visible;display:inline;overflow:visible;enable-background:accumulate;font-family:Sans;-inkscape-font-specification:Sans"
     d="m 313.89222,63.410485 0,9.453268 100.44097,0 a 41.598531,41.598531 0 0 1 41.59436,41.594377 l 0,-9.45327 A 41.598531,41.598531 0 0 0 414.33319,63.410485 l -100.44097,0 z m 44.66669,219.945995 c -53.80177,0 -97.44744,43.64565 -97.44744,97.44741 0,1.47122 0.0152,2.95621 0.0789,4.41154 2.61091,-51.47387 45.2482,-92.40569 97.36867,-92.40569 4.82708,0 9.54096,0.42484 14.17989,1.10289 l 0,-9.45327 c -4.63893,-0.67804 -9.35281,-1.10288 -14.17989,-1.10288 z"
     id="path3779"
     inkscape:connector-curvature="0" />
  <g
     id="g4138"
     transform="matrix(1.2199397,0,0,1.1344753,-46.577201,-33.398759)">
    <path
       inkscape:connector-curvature="0"
       id="path3766"
       d="m 313.87219,63.417963 0,83.188747 58.84658,0 0,137.86014 c -4.63893,-0.67804 -9.35281,-1.10289 -14.17989,-1.10289 -53.80177,0 -97.44745,43.64566 -97.44745,97.44742 0,53.80176 43.64568,97.44742 97.44745,97.44742 51.4002,0 93.47603,-39.81096 97.1323,-90.27869 l 0.2362,0 0,-7.16873 0,-275.79904 A 41.598531,41.598531 0 0 0 414.31301,63.417963 l -100.44095,0 z"
       style="color:#000000;font-style:normal;font-variant:normal;font-weight:normal;font-stretch:normal;font-size:medium;line-height:normal;font-family:Sans;-inkscape-font-specification:Sans;text-indent:0;text-align:start;text-decoration:none;text-decoration-line:none;letter-spacing:normal;word-spacing:normal;text-transform:none;direction:ltr;block-progression:tb;writing-mode:lr-tb;baseline-shift:baseline;text-anchor:start;display:inline;overflow:visible;visibility:visible;fill:#2a7fff;fill-opacity:1;stroke:none;stroke-width:33;marker:none;enable-background:accumulate" />
    <path
       sodipodi:nodetypes="csccssssccccc"
       inkscape:connector-curvature="0"
       id="path2987"
       d="m 191.37359,30.56787 c -10.88908,0.0011 -21.71069,4.484178 -29.41045,12.183921 -7.69974,7.699755 -12.18283,18.521365 -12.18392,29.410451 l 0,183.235808 c -3.85463,-0.46887 -7.75657,-0.709 -11.73781,-0.709 -53.235419,0 -96.423306,43.1879 -96.423306,96.42333 0,53.23541 43.187887,96.34453 96.423306,96.34453 53.23543,0 96.42331,-43.10912 96.42331,-96.34453 0,-5.65626 -0.56204,-11.23299 -1.49676,-16.622 l 0,-220.73376 110.13057,0 -40.99219,-83.18875 z"
       style="fill:#80b3ff;fill-opacity:1;fill-rule:evenodd;stroke:none" />
  </g>
</svg>
