<?xml version="1.0" encoding="UTF-8" standalone="no"?>
<svg
   xmlns:dc="http://purl.org/dc/elements/1.1/"
   xmlns:cc="http://creativecommons.org/ns#"
   xmlns:rdf="http://www.w3.org/1999/02/22-rdf-syntax-ns#"
   xmlns:svg="http://www.w3.org/2000/svg"
   xmlns="http://www.w3.org/2000/svg"
   xmlns:sodipodi="http://sodipodi.sourceforge.net/DTD/sodipodi-0.dtd"
   xmlns:inkscape="http://www.inkscape.org/namespaces/inkscape"
   viewBox="0 0 48 48"
   id="svg2"
   version="1.1"
   inkscape:version="0.91 r13725"
   sodipodi:docname="pgadmin.svg">
  <metadata
     id="metadata29">
    <rdf:RDF>
      <cc:Work
         rdf:about="">
        <dc:format>image/svg+xml</dc:format>
        <dc:type
           rdf:resource="http://purl.org/dc/dcmitype/StillImage" />
        <dc:title></dc:title>
      </cc:Work>
    </rdf:RDF>
  </metadata>
  <sodipodi:namedview
     pagecolor="#ffffff"
     bordercolor="#666666"
     borderopacity="1"
     objecttolerance="10"
     gridtolerance="10"
     guidetolerance="10"
     inkscape:pageopacity="0"
     inkscape:pageshadow="2"
     inkscape:window-width="1280"
     inkscape:window-height="694"
     id="namedview27"
     showgrid="false"
     inkscape:zoom="4.9166667"
     inkscape:cx="-9.1525424"
     inkscape:cy="24"
     inkscape:window-x="0"
     inkscape:window-y="0"
     inkscape:window-maximized="1"
     inkscape:current-layer="svg2" />
  <defs
     id="defs4">
    <linearGradient
       id="0"
       x1="61.57"
       y1="22.939"
       x2="60.753"
       y2="-27.706"
       gradientUnits="userSpaceOnUse">
      <stop
         stop-color="#197cf1"
         id="stop7" />
      <stop
         offset="1"
         stop-color="#21c9fb"
         id="stop9" />
    </linearGradient>
  </defs>
  <g
     transform="matrix(0.0985935,0,0,0.09945741,-1.0363126,-1.2568618)"
     id="g13"
     style="fill:#2a7fff;stroke:none">
    <path
       d="m 176,136.13 c -8.822,0 -16,7.178 -16,16 0,8.822 7.178,16 16,16 8.822,0 16,-7.178 16,-16 0,-8.822 -7.178,-16 -16,-16"
       id="path15"
       style="fill:#2a7fff;stroke:none"
       inkscape:connector-curvature="0" />
    <path
       d="m 336,136.13 c -8.822,0 -16,7.178 -16,16 0,8.822 7.178,16 16,16 8.822,0 16,-7.178 16,-16 0,-8.822 -7.178,-16 -16,-16"
       id="path17"
       style="fill:#2a7fff;stroke:none"
       inkscape:connector-curvature="0" />
    <g
       id="g19"
       style="fill:#2a7fff;stroke:none">
      <path
         d="m 185.48,325.62 c 0.318,-2.918 0.73,-6.06 1.253,-9.439 2.243,-14.514 5.68,-28.06 8.556,-37.446 l 10.226,10.226 c -9.496,13.539 -15.812,25.919 -20.03,36.659"
         id="path21"
         style="fill:#2a7fff;stroke:none"
         inkscape:connector-curvature="0" />
      <path
         d="m 463.24,206.44 c -13.522,8.06 -30.352,18.09 -45.44,36.643 -36.464,44.833 -60.64,52.46 -79.42,53.01 -0.799,-3.62 -1.637,-7.107 -2.487,-10.406 0.128,-0.132 0.259,-0.259 0.379,-0.401 29.443,-34.938 47.734,-85.961 47.734,-133.16 0,-26.11 -5.525,-49.18 -16.406,-68.6 -1.134,-3.197 -0.802,-7.105 0.958,-10.804 2.052,-4.313 5.736,-7.665 9.857,-8.966 4.213,-1.33 6.55,-5.824 5.219,-10.04 -1.33,-4.212 -5.824,-6.551 -10.04,-5.219 -8.401,2.653 -15.504,8.977 -19.487,17.351 -3.725,7.832 -4.188,16.551 -1.27,23.924 0.028,0.071 0.069,0.133 0.099,0.203 0.078,0.181 0.169,0.358 0.261,0.535 0.079,0.151 0.149,0.309 0.236,0.453 9.667,17.08 14.57,37.65 14.57,61.16 0,40.12 -14.275,83.17 -37.686,114.86 -0.723,-2.057 -1.393,-3.809 -1.984,-5.201 -1.173,-6.565 -8.33,-47.521 -8.33,-69.66 0,-4.418 -3.582,-8 -8,-8 -4.418,0 -8,3.582 -8,8 0,21.311 5.895,57.1 8.02,69.29 l -19.532,19.532 c -2.456,1.206 -4.234,3.632 -4.461,6.558 -0.033,0.421 -3.285,42.557 -5.884,85.13 -5.406,88.56 -3.02,92.37 -0.924,95.73 2.02,3.226 5.327,5.107 9.08,5.161 5.274,0.079 12.429,-2.742 28.916,-23.7 4.86,-6.179 9.25,-12.301 12.1,-16.381 0.862,0.285 1.692,0.575 2.46,0.858 -0.148,0.291 -0.299,0.588 -0.453,0.893 -4.86,9.576 -12.995,25.602 -26.912,39.21 -15.816,15.464 -31.25,22.989 -43.47,21.2 -8.692,-1.277 -13.462,-6.875 -15.933,-11.346 -11.935,-21.596 -16.661,-97.72 -20.11,-153.31 -0.984,-15.841 -1.913,-30.804 -2.915,-43.45 -0.002,-0.021 -0.006,-0.042 -0.008,-0.063 -0.008,-0.089 -0.021,-0.176 -0.031,-0.265 -0.013,-0.108 -0.028,-0.216 -0.045,-0.323 -0.011,-0.067 -0.018,-0.135 -0.031,-0.202 -0.015,-0.081 -0.037,-0.16 -0.054,-0.241 -0.023,-0.104 -0.048,-0.208 -0.075,-0.311 -0.019,-0.072 -0.033,-0.146 -0.054,-0.217 -0.021,-0.073 -0.05,-0.144 -0.073,-0.217 -0.033,-0.102 -0.068,-0.203 -0.105,-0.304 -0.027,-0.073 -0.049,-0.149 -0.078,-0.221 -0.026,-0.065 -0.059,-0.127 -0.087,-0.192 -0.045,-0.104 -0.093,-0.207 -0.142,-0.309 -0.034,-0.069 -0.063,-0.141 -0.098,-0.209 -0.03,-0.057 -0.066,-0.111 -0.097,-0.167 -0.059,-0.107 -0.121,-0.212 -0.185,-0.317 -0.039,-0.064 -0.074,-0.13 -0.115,-0.192 -0.033,-0.05 -0.071,-0.097 -0.105,-0.147 -0.072,-0.105 -0.147,-0.208 -0.224,-0.309 -0.046,-0.06 -0.089,-0.123 -0.137,-0.182 -0.037,-0.046 -0.079,-0.09 -0.118,-0.136 -0.08,-0.094 -0.162,-0.187 -0.247,-0.278 -0.055,-0.06 -0.109,-0.12 -0.166,-0.178 -0.014,-0.015 -0.027,-0.031 -0.041,-0.046 l -21.09,-21.09 c 1.959,-12.13 7.438,-47.95 7.438,-69.25 0,-4.418 -3.582,-8 -8,-8 -4.418,0 -8,3.582 -8,8 0,22.12 -6.614,62.986 -7.729,69.71 -0.641,1.513 -1.372,3.44 -2.163,5.722 -23.661,-31.746 -38.11,-75.08 -38.11,-115.43 0,-23.515 4.905,-44.09 14.574,-61.17 0.08,-0.134 0.145,-0.279 0.218,-0.419 0.098,-0.186 0.193,-0.373 0.275,-0.563 0.03,-0.07 0.071,-0.133 0.1,-0.204 2.918,-7.373 2.456,-16.09 -1.27,-23.924 -3.983,-8.374 -11.09,-14.698 -19.487,-17.351 -4.215,-1.334 -8.708,1.01 -10.04,5.219 -1.331,4.213 1.01,8.708 5.219,10.04 4.121,1.301 7.805,4.653 9.857,8.966 1.759,3.699 2.092,7.607 0.958,10.803 -10.881,19.419 -16.406,42.491 -16.406,68.6 0,47.19 18.287,98.21 47.725,133.15 0.275,0.326 0.576,0.615 0.889,0.885 -0.81,3.163 -1.608,6.496 -2.369,9.948 -18.865,-0.401 -43.17,-7.702 -80.04,-53.03 -15.09,-18.555 -31.921,-28.584 -45.44,-36.643 -20.39,-12.149 -32.713,-19.494 -32.763,-46.15 0.806,-6.18 17.696,-41.35 42.14,-78.72 12.631,-19.314 24.907,-35.497 35.5,-46.798 15.766,-16.822 23.689,-18.638 26.364,-18.638 15.571,0 29.953,6.123 45.18,12.604 8.423,3.586 16.988,7.216 26.05,9.994 -6.226,3.179 -12.1,6.86 -17.566,11.03 -3.512,2.68 -4.187,7.7 -1.507,11.213 2.68,3.513 7.7,4.189 11.213,1.507 11.928,-9.101 26.16,-15.529 42.05,-19.09 0.208,-0.037 0.414,-0.079 0.615,-0.132 9.457,-2.069 19.49,-3.131 29.968,-3.131 10.51,0 20.556,1.073 30.02,3.148 0.184,0.047 0.372,0.082 0.561,0.116 16.485,3.69 31.18,10.466 43.38,20.12 1.47,1.163 3.221,1.728 4.959,1.728 2.361,0 4.699,-1.041 6.278,-3.036 2.742,-3.465 2.156,-8.496 -1.308,-11.238 -5.913,-4.68 -12.324,-8.752 -19.15,-12.236 9.07,-2.779 17.641,-6.412 26.07,-10 15.226,-6.482 29.607,-12.604 45.18,-12.604 2.675,0 10.598,1.816 26.364,18.638 10.593,11.301 22.869,27.484 35.5,46.798 24.44,37.37 41.33,72.54 42.14,78.72 -0.049,26.652 -12.372,33.997 -32.762,46.15 z"
         id="path23"
         style="fill:#2a7fff;stroke:none;stroke-width:7.52600002;stroke-linecap:round;stroke-linejoin:round"
         inkscape:connector-curvature="0" />
      <path
         d="m 307.11,288.96 10.226,-10.226 c 2.876,9.389 6.313,22.931 8.556,37.446 0.522,3.38 0.935,6.521 1.252,9.439 -4.222,-10.74 -10.539,-23.12 -20.03,-36.659"
         id="path25"
         style="fill:#2a7fff;stroke:none"
         inkscape:connector-curvature="0" />
    </g>
  </g>
</svg>
