<?xml version="1.0" encoding="UTF-8" standalone="no"?>
<svg
   xmlns:dc="http://purl.org/dc/elements/1.1/"
   xmlns:cc="http://creativecommons.org/ns#"
   xmlns:rdf="http://www.w3.org/1999/02/22-rdf-syntax-ns#"
   xmlns:svg="http://www.w3.org/2000/svg"
   xmlns="http://www.w3.org/2000/svg"
   xmlns:sodipodi="http://sodipodi.sourceforge.net/DTD/sodipodi-0.dtd"
   xmlns:inkscape="http://www.inkscape.org/namespaces/inkscape"
   viewBox="0 0 48 48"
   id="svg2"
   version="1.1"
   inkscape:version="0.91 r13725"
   sodipodi:docname="phpmyadmin.svg">
  <metadata
     id="metadata41">
    <rdf:RDF>
      <cc:Work
         rdf:about="">
        <dc:format>image/svg+xml</dc:format>
        <dc:type
           rdf:resource="http://purl.org/dc/dcmitype/StillImage" />
        <dc:title></dc:title>
      </cc:Work>
    </rdf:RDF>
  </metadata>
  <sodipodi:namedview
     pagecolor="#ffffff"
     bordercolor="#666666"
     borderopacity="1"
     objecttolerance="10"
     gridtolerance="10"
     guidetolerance="10"
     inkscape:pageopacity="0"
     inkscape:pageshadow="2"
     inkscape:window-width="1280"
     inkscape:window-height="694"
     id="namedview39"
     showgrid="false"
     inkscape:zoom="4.9166667"
     inkscape:cx="-42.305085"
     inkscape:cy="24"
     inkscape:window-x="0"
     inkscape:window-y="0"
     inkscape:window-maximized="1"
     inkscape:current-layer="svg2" />
  <defs
     id="defs4">
    <clipPath
       id="2">
      <path
         transform="matrix(15.33333 0 0 11.5 415-125.5)"
         d="m-24 13c0 1.105-.672 2-1.5 2-.828 0-1.5-.895-1.5-2 0-1.105.672-2 1.5-2 .828 0 1.5.895 1.5 2"
         fill="#1890d0"
         id="path7" />
    </clipPath>
    <linearGradient
       y1="545.8"
       x2="0"
       y2="517.8"
       gradientUnits="userSpaceOnUse"
       id="linearGradient9">
      <stop
         stop-color="#3889e9"
         id="stop11" />
      <stop
         offset="1"
         stop-color="#5ea5fb"
         id="stop13" />
    </linearGradient>
    <linearGradient
       id="1"
       gradientUnits="userSpaceOnUse"
       y1="653.96"
       x2="0"
       y2="301.3"
       gradientTransform="matrix(0.13836925,0,0,0.13836925,69.102904,-42.091453)">
      <stop
         stop-color="#4965b6"
         id="stop16" />
      <stop
         offset="1"
         stop-color="#8d9dcc"
         id="stop18" />
    </linearGradient>
    <linearGradient
       id="0"
       y1="653.96"
       x2="0"
       y2="301.3"
       gradientUnits="userSpaceOnUse">
      <stop
         stop-color="#0a80fd"
         id="stop21" />
      <stop
         offset="1"
         stop-color="#56c5fa"
         id="stop23" />
    </linearGradient>
  </defs>
  <g
     style="fill:#8787de;fill-opacity:0.847"
     id="g29"
     transform="matrix(1.6501686,0,0,3.4935227,-16.007759,-56.497049)"
     clip-path="url(#2)">
    <g
       style="fill:#8787de;fill-opacity:0.847"
       id="g31">
      <path
         style="fill:#8787de;fill-rule:evenodd"
         inkscape:connector-curvature="0"
         id="path33"
         d="m 10,29.801 2.207,-10.785 5.105,0 c 2.207,0.137 3.309,1.199 3.309,3.063 0,3.195 -2.621,5.05 -4.965,4.926 l -2.484,0 -0.555,2.797 -2.621,0 m 3.727,-4.793 0.691,-3.992 1.793,0 c 0.969,0 1.656,0.398 1.656,1.199 -0.141,2.262 -1.242,2.66 -2.484,2.793" />
      <path
         inkscape:connector-curvature="0"
         id="path35"
         d="m 19.797,27 2.207,-10.781 2.621,0 -0.551,2.793 2.484,0 c 2.207,0.137 3.035,1.199 2.758,2.531 L 28.351,27 l -2.762,0 0.969,-4.926 c 0.137,-0.664 0.137,-1.066 -0.832,-1.066 l -2.066,0 -1.242,5.988 -2.621,0"
         style="fill:#8787de" />
      <path
         style="fill:#8787de;fill-rule:evenodd"
         inkscape:connector-curvature="0"
         id="path37"
         d="m 28.13,29.801 2.211,-10.785 5.105,0 c 2.207,0.137 3.309,1.199 3.309,3.063 0,3.195 -2.621,5.05 -4.969,4.926 l -2.484,0 -0.551,2.797 m 1.105,-4.793 0.691,-3.992 1.793,0 c 0.965,0 1.652,0.398 1.652,1.199 -0.137,2.262 -1.238,2.66 -2.484,2.793" />
    </g>
  </g>
</svg>
