<?xml version="1.0" encoding="UTF-8" standalone="no"?>
<!-- Generator: Adobe Illustrator 18.0.0, SVG Export Plug-In . SVG Version: 6.00 Build 0)  -->

<svg
   xmlns:dc="http://purl.org/dc/elements/1.1/"
   xmlns:cc="http://creativecommons.org/ns#"
   xmlns:rdf="http://www.w3.org/1999/02/22-rdf-syntax-ns#"
   xmlns:svg="http://www.w3.org/2000/svg"
   xmlns="http://www.w3.org/2000/svg"
   xmlns:sodipodi="http://sodipodi.sourceforge.net/DTD/sodipodi-0.dtd"
   xmlns:inkscape="http://www.inkscape.org/namespaces/inkscape"
   version="1.1"
   id="Capa_1"
   x="0px"
   y="0px"
   viewBox="0 0 205.032 205.032"
   style="enable-background:new 0 0 205.032 205.032;"
   xml:space="preserve"
   inkscape:version="0.91 r13725"
   sodipodi:docname="preferences-desktop-user.svg"><metadata
     id="metadata93"><rdf:RDF><cc:Work
         rdf:about=""><dc:format>image/svg+xml</dc:format><dc:type
           rdf:resource="http://purl.org/dc/dcmitype/StillImage" /><dc:title></dc:title></cc:Work></rdf:RDF></metadata><defs
     id="defs91" /><sodipodi:namedview
     pagecolor="#ffffff"
     bordercolor="#666666"
     borderopacity="1"
     objecttolerance="10"
     gridtolerance="10"
     guidetolerance="10"
     inkscape:pageopacity="0"
     inkscape:pageshadow="2"
     inkscape:window-width="1280"
     inkscape:window-height="694"
     id="namedview89"
     showgrid="false"
     inkscape:zoom="1.1510399"
     inkscape:cx="-39.095084"
     inkscape:cy="102.516"
     inkscape:window-x="0"
     inkscape:window-y="0"
     inkscape:window-maximized="1"
     inkscape:current-layer="Capa_1" /><g
     id="g3"
     transform="matrix(1.3784372,0,0,0.99152538,-38.796058,0.86879681)"><g
       id="g5"><rect
         x="85.782997"
         y="154.767"
         style="fill:#fdcc9b"
         width="29.395"
         height="32.922001"
         id="rect7" /><path
         style="fill:#fcbc85"
         d="m 85.784,158.645 c 0,0 12.364,7.874 29.394,6.05 l 0,-9.928 -29.394,0 0,3.878 z"
         id="path9"
         inkscape:connector-curvature="0" /><ellipse
         style="fill:#fcbc85"
         cx="43.396999"
         cy="103.717"
         rx="14.343"
         ry="16.364"
         id="ellipse11" /><ellipse
         style="fill:#fcbc85"
         cx="157.565"
         cy="103.717"
         rx="14.343"
         ry="16.364"
         id="ellipse13" /><path
         style="fill:#fdcc9b"
         d="m 157.507,72.462 c 0,-24.103 -17.637,-41.741 -57.025,-41.741 -39.39,0 -57.026,17.637 -57.026,41.741 0,24.104 -4.115,87.597 57.026,87.597 61.14,-0.001 57.025,-63.493 57.025,-87.597 z"
         id="path15"
         inkscape:connector-curvature="0" /><g
         id="g17"><g
           id="g19"><ellipse
             style="fill:#3b2519"
             cx="72.705002"
             cy="99.799004"
             rx="6.1729999"
             ry="6.7610002"
             id="ellipse21" /><circle
             style="fill:#ffffff"
             cx="70.014"
             cy="96.814003"
             r="1.846"
             id="circle23" /></g><path
           style="fill:#d96e27"
           d="m 62.83,83.044 c 2.919,1.46 7.606,-4.96 18.335,0.625 1.956,1.018 3.123,-8.708 -8.377,-8.708 -9.958,0 -11.722,7.201 -9.958,8.083 z"
           id="path25"
           inkscape:connector-curvature="0" /><g
           id="g27"><ellipse
             style="fill:#3b2519"
             cx="129.019"
             cy="99.799004"
             rx="6.1729999"
             ry="6.7610002"
             id="ellipse29" /><circle
             style="fill:#ffffff"
             cx="126.327"
             cy="96.814003"
             r="1.846"
             id="circle31" /></g><path
           style="fill:#d96e27"
           d="m 138.132,83.044 c -2.919,1.46 -7.607,-4.96 -18.335,0.625 -1.956,1.018 -3.123,-8.708 8.377,-8.708 9.958,0 11.721,7.201 9.958,8.083 z"
           id="path33"
           inkscape:connector-curvature="0" /></g><path
         style="fill:#fcbc85"
         d="m 100.481,123.579 c -6.1,0 -9.774,-4.556 -9.774,-2.352 0,2.205 1.764,6.394 9.774,6.394 8.01,0 9.773,-4.189 9.773,-6.394 10e-4,-2.204 -3.674,2.352 -9.773,2.352 z"
         id="path35"
         inkscape:connector-curvature="0" /><path
         style="fill:#fcbc85"
         d="m 100.481,143.85 c -2.11,0 -3.381,-1.576 -3.381,-0.813 0,0.763 0.609,2.211 3.381,2.211 2.77,0 3.38,-1.448 3.38,-2.211 0,-0.763 -1.27,0.813 -3.38,0.813 z"
         id="path37"
         inkscape:connector-curvature="0" /><path
         style="fill:#f7945e"
         d="m 100.481,138.233 c -9.669,0 -15.493,-3.937 -15.493,-2.939 0,0.998 2.796,4.924 15.493,4.924 12.696,0 15.492,-3.926 15.492,-4.924 0.001,-0.998 -5.824,2.939 -15.492,2.939 z"
         id="path39"
         inkscape:connector-curvature="0" /></g><path
       style="fill:#b4def6"
       d="m 100.481,167.995 0,37.038 -71.427,0 c 0,-14.992 37.623,-37.038 71.427,-37.038 z"
       id="path41"
       inkscape:connector-curvature="0" /><path
       style="fill:#b4def6"
       d="m 100.481,167.995 0,37.038 71.427,0 c 0,-14.992 -37.623,-37.038 -71.427,-37.038 z"
       id="path43"
       inkscape:connector-curvature="0" /><path
       style="fill:#fdcc9b"
       d="m 85.783,169.277 c 0,0 4.299,5.332 14.697,5.332 10.398,0 14.697,-5.332 14.697,-5.332 0,0 -15.247,-5.552 -29.394,0 z"
       id="path45"
       inkscape:connector-curvature="0" /><path
       style="fill:#d96e27"
       d="m 43.396,99.799 c 5.064,0 9.465,-15.138 9.023,-24.838 -0.44,-9.701 5.645,-16.755 17.594,-22.046 0,0 34.229,9.7 58.16,9.7 31.391,0 23.064,36.891 28.771,37.185 5.707,0.294 11.88,-42.035 5.266,-66.285 0,0 10.142,-5.292 13.228,-11.905 3.087,-6.614 -7.968,-0.441 -17.873,0 0,0 17.604,-11.464 18.4,-19.4 0.796,-7.936 -32.339,8.377 -69.23,4.409 -36.89,-3.97 -67.365,16.619 -68.865,48.059 -1.323,27.717 0.912,45.121 5.526,45.121 z"
       id="path47"
       inkscape:connector-curvature="0" /><path
       style="fill:#80cef3"
       d="m 85.783,165.643 14.697,8.965 -15.492,15.433 -11.51,-17.912 c 0,0.001 7.529,-7.408 12.305,-6.486 z"
       id="path49"
       inkscape:connector-curvature="0" /><path
       style="fill:#80cef3"
       d="m 115.178,165.643 -14.697,8.965 15.493,15.433 11.51,-17.912 c -10e-4,0.001 -7.529,-7.408 -12.306,-6.486 z"
       id="path51"
       inkscape:connector-curvature="0" /><polygon
       style="fill:#65c8f2"
       points="102.8,176.919 100.48,174.609 100.48,205.032 "
       id="polygon53" /><circle
       style="fill:#65c8f2"
       cx="97.099998"
       cy="183.207"
       r="2.2780001"
       id="circle55" /><circle
       style="fill:#65c8f2"
       cx="97.099998"
       cy="201.284"
       r="2.2780001"
       id="circle57" /></g><g
     id="g59" /><g
     id="g61" /><g
     id="g63" /><g
     id="g65" /><g
     id="g67" /><g
     id="g69" /><g
     id="g71" /><g
     id="g73" /><g
     id="g75" /><g
     id="g77" /><g
     id="g79" /><g
     id="g81" /><g
     id="g83" /><g
     id="g85" /><g
     id="g87" /></svg>