<?xml version="1.0" encoding="UTF-8" standalone="no"?>
<svg
   xmlns:dc="http://purl.org/dc/elements/1.1/"
   xmlns:cc="http://creativecommons.org/ns#"
   xmlns:rdf="http://www.w3.org/1999/02/22-rdf-syntax-ns#"
   xmlns:svg="http://www.w3.org/2000/svg"
   xmlns="http://www.w3.org/2000/svg"
   xmlns:xlink="http://www.w3.org/1999/xlink"
   xmlns:sodipodi="http://sodipodi.sourceforge.net/DTD/sodipodi-0.dtd"
   xmlns:inkscape="http://www.inkscape.org/namespaces/inkscape"
   viewBox="0 0 48 48"
   id="svg2"
   version="1.1"
   inkscape:version="0.91 r13725"
   sodipodi:docname="rosamp.svg">
  <metadata
     id="metadata35">
    <rdf:RDF>
      <cc:Work
         rdf:about="">
        <dc:format>image/svg+xml</dc:format>
        <dc:type
           rdf:resource="http://purl.org/dc/dcmitype/StillImage" />
        <dc:title></dc:title>
      </cc:Work>
    </rdf:RDF>
  </metadata>
  <sodipodi:namedview
     pagecolor="#ffffff"
     bordercolor="#666666"
     borderopacity="1"
     objecttolerance="10"
     gridtolerance="10"
     guidetolerance="10"
     inkscape:pageopacity="0"
     inkscape:pageshadow="2"
     inkscape:window-width="1280"
     inkscape:window-height="694"
     id="namedview33"
     showgrid="false"
     inkscape:zoom="4.9166667"
     inkscape:cx="-9.1525424"
     inkscape:cy="24"
     inkscape:window-x="0"
     inkscape:window-y="0"
     inkscape:window-maximized="1"
     inkscape:current-layer="svg2" />
  <defs
     id="defs4">
    <clipPath
       id="clipPath6">
      <path
         d="m69.63 12.145h-.052c-22.727-.292-46.47 4.077-46.709 4.122-2.424.451-4.946 2.974-5.397 5.397-.044.237-4.414 23.983-4.122 46.71-.292 22.777 4.078 46.523 4.122 46.761.451 2.423 2.974 4.945 5.398 5.398.237.044 23.982 4.413 46.709 4.121 22.779.292 46.524-4.077 46.761-4.121 2.423-.452 4.946-2.976 5.398-5.399.044-.236 4.413-23.981 4.121-46.709.292-22.777-4.077-46.523-4.121-46.761-.453-2.423-2.976-4.946-5.398-5.397-.238-.045-23.984-4.414-46.71-4.122"
         id="path8" />
    </clipPath>
    <linearGradient
       xlink:href="#1"
       id="3"
       x1="22.649"
       y1="13.164"
       x2="22.503"
       y2="1.368"
       gradientUnits="userSpaceOnUse" />
    <linearGradient
       xlink:href="#1"
       id="4"
       x1="-35.784"
       y1="25.991"
       x2="-35.811"
       y2="11.143"
       gradientUnits="userSpaceOnUse"
       gradientTransform="translate(115.12,21.152)" />
    <linearGradient
       xlink:href="#1"
       id="2"
       x1="-35.03"
       y1="5.231"
       x2="-34.32"
       y2="-8.396"
       gradientUnits="userSpaceOnUse"
       gradientTransform="translate(57.56,10.576)" />
    <linearGradient
       id="0"
       x1="-33.967"
       y1="34.569"
       x2="-34.983"
       y2="-8.143"
       gradientUnits="userSpaceOnUse"
       gradientTransform="translate(57.56,10.576)">
      <stop
         stop-color="#74cb32"
         id="stop14" />
      <stop
         stop-color="#abeb6b"
         offset="1"
         id="stop16" />
    </linearGradient>
    <linearGradient
       id="1">
      <stop
         stop-color="#141414"
         id="stop19" />
      <stop
         stop-color="#2d2d2f"
         offset="1"
         id="stop21" />
    </linearGradient>
  </defs>
  <g
     transform="matrix(0.25213584,0,0,0.19844589,-105.10931,-77.613237)"
     id="Calque.__209"
     style="fill:#8dd35f">
    <g
       id="shape14"
       style="fill:#8dd35f">
      <path
         style="fill:#8dd35f;fill-opacity:1"
         inkscape:connector-curvature="0"
         id="path8-5"
         d="m 455.9,395.95 q -7.55,-5.25 -16.6,-4.1 c -6.05,0.75 -11.05,3.4 -15.1,7.95 -4.05,4.55 -6.1,9.9 -6.1,16 l 0,192.5 c 0,6.1 2.05,11.45 6.1,16 4.05,4.55 9.05,7.2 15.1,7.95 6.05,0.75 11.55,-0.65 16.6,-4.1 L 595.55,531.9 c 4.45,-3.05 7.5,-7.15 9.2,-12.2 1.7,-5.1 1.7,-10.2 0,-15.25 -1.7,-5.05 -4.75,-9.15 -9.15,-12.25 L 455.9,395.95 Z" />
    </g>
  </g>
  <path
     inkscape:connector-curvature="0"
     style="fill:#447821;stroke:none;stroke-width:1.30599999;stroke-linecap:round;stroke-linejoin:round"
     id="path31"
     d="m 47.739475,35.85478 -24.495898,11.859271 0,-23.718542 z" />
</svg>
