<?xml version="1.0" encoding="UTF-8" standalone="no"?>
<svg
   xmlns:dc="http://purl.org/dc/elements/1.1/"
   xmlns:cc="http://creativecommons.org/ns#"
   xmlns:rdf="http://www.w3.org/1999/02/22-rdf-syntax-ns#"
   xmlns:svg="http://www.w3.org/2000/svg"
   xmlns="http://www.w3.org/2000/svg"
   xmlns:sodipodi="http://sodipodi.sourceforge.net/DTD/sodipodi-0.dtd"
   xmlns:inkscape="http://www.inkscape.org/namespaces/inkscape"
   viewBox="0 0 48 48"
   id="svg2"
   version="1.1"
   inkscape:version="0.91 r13725"
   sodipodi:docname="software-properties.svg">
  <metadata
     id="metadata25">
    <rdf:RDF>
      <cc:Work
         rdf:about="">
        <dc:format>image/svg+xml</dc:format>
        <dc:type
           rdf:resource="http://purl.org/dc/dcmitype/StillImage" />
        <dc:title></dc:title>
      </cc:Work>
    </rdf:RDF>
  </metadata>
  <sodipodi:namedview
     pagecolor="#ffffff"
     bordercolor="#666666"
     borderopacity="1"
     objecttolerance="10"
     gridtolerance="10"
     guidetolerance="10"
     inkscape:pageopacity="0"
     inkscape:pageshadow="2"
     inkscape:window-width="1280"
     inkscape:window-height="694"
     id="namedview23"
     showgrid="false"
     inkscape:zoom="4.9166667"
     inkscape:cx="-6.4067797"
     inkscape:cy="24"
     inkscape:window-x="0"
     inkscape:window-y="0"
     inkscape:window-maximized="1"
     inkscape:current-layer="svg2" />
  <defs
     id="defs4">
    <linearGradient
       y1="545.8"
       x2="0"
       y2="517.8"
       gradientUnits="userSpaceOnUse"
       id="linearGradient6">
      <stop
         stop-color="#3889e9"
         id="stop8" />
      <stop
         offset="1"
         stop-color="#5ea5fb"
         id="stop10" />
    </linearGradient>
    <linearGradient
       id="0"
       y1="653.96"
       x2="0"
       y2="301.3"
       gradientUnits="userSpaceOnUse"
       gradientTransform="matrix(0.13836925,0,0,0.13836925,69.102904,-42.091453)">
      <stop
         stop-color="#0a80fd"
         id="stop13" />
      <stop
         offset="1"
         stop-color="#56c5fa"
         id="stop15" />
    </linearGradient>
  </defs>
  <path
     style="fill:#5599ff;fill-opacity:0.85199998"
     inkscape:connector-curvature="0"
     id="path21"
     d="m 4.9321355,45.043159 c 1.4262016,-1.494408 2.9146607,-3.045827 3.3077243,-3.447642 0.3930636,-0.401814 0.7169705,-0.771804 0.7196624,-0.821983 0.00471,-0.09176 -4.1741116,-3.354315 -4.3635769,-3.40703 -0.056023,-0.01473 -0.1379829,0.106599 -0.1837447,0.273929 -0.1019584,0.372918 -1.4036538,6.022146 -2.1290367,9.24096 -0.1548028,0.686678 -0.1571585,0.87919 -0.011101,0.87919 0.036343,0 1.2332034,-1.222625 2.6594039,-2.717035 z m 39.4847115,2.416356 c 0.759373,-1.155266 1.184576,-3.655189 1.00386,-5.896408 -0.206123,-2.549906 -0.80413,-4.314922 -1.950511,-5.756225 -0.84973,-1.069552 -1.57057,-1.302675 -2.393885,-0.774731 -1.28368,0.823154 -2.501403,1.695706 -2.682456,1.922189 -0.540125,0.675353 -0.502939,1.774781 0.107352,3.179765 0.61719,1.420604 1.287888,2.231849 2.780217,3.36232 1.539781,1.166395 2.164711,2.058277 2.502078,3.570256 0.108365,0.485184 0.219754,0.68785 0.380614,0.691948 0.03029,9.77e-4 0.144027,-0.133933 0.25273,-0.29931 M 11.077121,36.976206 c 2.912643,-6.025462 6.629582,-13.501213 8.936475,-17.980139 0.503445,-0.976227 0.915185,-1.803871 0.915185,-1.838431 0,-0.11168 -4.333626,-3.202411 -4.448718,-3.172931 -0.115775,0.02969 -3.99037,7.597583 -6.7406361,13.167344 -0.8721101,1.765018 -2.1680765,4.278411 -2.8806706,5.584406 -0.7120921,1.305996 -1.4023084,2.572164 -1.5337225,2.813681 -0.1379685,0.253428 -0.2094878,0.472104 -0.168264,0.517206 0.1950181,0.216917 4.566672,3.464237 4.6331356,3.441001 0.042062,-0.01473 0.6213966,-1.154289 1.2873836,-2.53194 M 39.385937,34.836125 C 40.511452,34.093411 41.5,33.412201 41.583458,33.322191 41.730523,33.1621 41.724961,33.140809 41.309357,32.308087 41.075976,31.84028 40.508759,30.697313 40.049064,29.767947 39.5892,28.838578 39.159959,28.066188 39.095178,28.05135 c -0.171798,-0.03905 -4.426004,2.841014 -4.455112,3.016149 -0.02424,0.145646 2.209299,4.717126 2.458161,5.028347 0.07135,0.08962 0.154971,0.14682 0.185763,0.126713 0.03096,-0.02011 0.977106,-0.644115 2.102619,-1.386633 m 8.477116,-4.830368 c 0.03164,-0.0658 0.04997,-1.47176 0.04055,-3.123926 l -0.01717,-3.004435 -4.787433,-0.02362 c -4.177309,-0.02049 -4.784237,-0.0073 -4.761857,0.110698 0.01436,0.0738 0.680626,1.490112 1.481223,3.147354 l 1.455817,3.013222 0.315156,0.02695 c 0.173312,0.01473 1.642925,0.01473 3.265491,0 2.332469,-0.02109 2.962446,-0.05174 3.008046,-0.146433 M 32.718153,29.876686 c 0.01269,-0.04568 -0.59397,-1.372576 -1.349472,-2.950155 l -1.373031,-2.866788 -5.837564,0 -5.837567,0 -1.378415,2.895878 c -0.758026,1.592617 -1.360915,2.928288 -1.339713,2.968314 0.05502,0.103091 17.085475,0.05623 17.115762,-0.04706 M 7.6435334,29.379994 c 0.1561484,-0.313956 0.8009335,-1.608041 1.433101,-2.875963 0.6321652,-1.267728 1.1492396,-2.34685 1.1492396,-2.398198 0,-0.06248 -1.6128065,-0.08533 -4.8998327,-0.06952 l -4.89983368,0.02362 -0.0262486,0.639235 c -0.0143092,0.351635 -1.6832e-4,1.676961 0.0284374,2.946251 l 0.0548536,2.306042 3.43795976,0 3.4379585,0 z M 36.514185,28.21555 c 1.998801,-1.276708 1.967672,-1.254254 1.967672,-1.41748 0,-0.158934 -1.053161,-2.319905 -4.628761,-9.496733 C 29.922798,9.4134266 28.191871,5.9361087 27.041454,3.6165939 25.907527,1.3312473 25.639315,0.90541733 25.152865,0.61743049 24.769728,0.39055547 24.157417,0.35541132 23.761325,0.53737991 23.384079,0.71075779 22.054966,1.6088862 21.703295,1.9279167 c -0.563683,0.5117387 -0.777377,1.523499 -0.49032,2.3210768 0.154971,0.4303199 0.04964,0.2157464 3.767587,7.6633785 5.853214,11.726434 8.861936,17.63846 9.048034,17.782944 0.04594,0.03573 0.260977,-0.05116 0.477868,-0.192512 0.216724,-0.14156 1.120299,-0.721042 2.007721,-1.287839 M 22.056984,14.721562 c 0.932011,-1.804459 1.068642,-2.120365 1.125684,-2.603597 C 23.30129,11.114209 22.84614,10.441394 21.407488,9.4948438 20.591914,8.9583101 20.459322,8.9001275 19.981286,8.868693 19.32775,8.82593 19.005189,8.9852509 18.555422,9.5731382 c -0.336528,0.4402788 -1.64057,3.1317338 -1.638214,3.3832108 8.41e-4,0.08942 0.812208,0.720846 2.144855,1.669347 1.179526,0.838969 2.167906,1.527404 2.19752,1.529746 0.02995,0.0016 0.388689,-0.642747 0.797234,-1.43388" />
</svg>
