<?xml version="1.0" encoding="UTF-8" standalone="no"?>
<svg
   xmlns:dc="http://purl.org/dc/elements/1.1/"
   xmlns:cc="http://creativecommons.org/ns#"
   xmlns:rdf="http://www.w3.org/1999/02/22-rdf-syntax-ns#"
   xmlns:svg="http://www.w3.org/2000/svg"
   xmlns="http://www.w3.org/2000/svg"
   xmlns:sodipodi="http://sodipodi.sourceforge.net/DTD/sodipodi-0.dtd"
   xmlns:inkscape="http://www.inkscape.org/namespaces/inkscape"
   viewBox="0 0 48 48"
   id="svg2"
   version="1.1"
   inkscape:version="0.91 r13725"
   sodipodi:docname="stock_keyring.svg">
  <metadata
     id="metadata19">
    <rdf:RDF>
      <cc:Work
         rdf:about="">
        <dc:format>image/svg+xml</dc:format>
        <dc:type
           rdf:resource="http://purl.org/dc/dcmitype/StillImage" />
        <dc:title></dc:title>
      </cc:Work>
    </rdf:RDF>
  </metadata>
  <sodipodi:namedview
     pagecolor="#ffffff"
     bordercolor="#666666"
     borderopacity="1"
     objecttolerance="10"
     gridtolerance="10"
     guidetolerance="10"
     inkscape:pageopacity="0"
     inkscape:pageshadow="2"
     inkscape:window-width="1280"
     inkscape:window-height="694"
     id="namedview17"
     showgrid="false"
     inkscape:zoom="4.9166667"
     inkscape:cx="-9.1525424"
     inkscape:cy="24"
     inkscape:window-x="0"
     inkscape:window-y="0"
     inkscape:window-maximized="1"
     inkscape:current-layer="svg2" />
  <defs
     id="defs4">
    <linearGradient
       id="0"
       gradientUnits="userSpaceOnUse"
       y1="232.47"
       x2="0"
       y2="176.47"
       gradientTransform="matrix(0.91937344,0,0,0.86418,-662.90647,-152.63)">
      <stop
         stop-color="#ffc515"
         id="stop7" />
      <stop
         offset="1"
         stop-color="#ffd55b"
         id="stop9" />
    </linearGradient>
  </defs>
  <path
     d="M 47.916292,10.112378 C 47.900663,8.9872152 46.979451,8.0582217 45.787943,7.9553843 35.884452,7.0825625 27.802241,2.1100708 25.137897,0.29010772 c -0.557141,-0.38196756 -1.311027,-0.38196756 -1.868168,0 C 20.609982,2.1100708 12.52869,7.0851551 2.6242796,7.9553843 1.4327716,8.0582217 0.51615636,8.9872152 0.49593014,10.112378 0.3764116,17.455315 1.6304369,42.380859 23.608978,47.930623 c 0.390734,0.09765 0.801694,0.09765 1.191509,0 21.977621,-5.541987 23.232566,-30.479629 23.113048,-37.818245"
     id="path11"
     style="fill:#ffd42a"
     inkscape:connector-curvature="0" />
  <path
     d="m 46.988452,30.142725 c -1.234165,-2.058194 -3.36764,-2.680782 -5.184907,-2.791001 -0.244829,-0.422341 -0.556668,-0.819527 -0.938006,-1.176111 -1.032055,-0.965051 -2.404141,-1.496397 -3.863547,-1.496397 -1.459524,0 -2.831618,0.531346 -3.863549,1.496397 -1.507779,1.409899 -1.993184,3.459596 -1.288672,5.314343 l -7.175966,6.710009 c -0.09652,0.09036 -0.156692,0.209184 -0.16991,0.336285 L 24.3793,39.724937 c -0.01722,0.16428 0.04504,0.327126 0.16991,0.443855 l 1.564053,1.462526 c 0.09746,0.09113 0.225956,0.1474 0.363171,0.159204 l 0.660743,0.05682 c 0.01806,0.0015 0.03613,0.0023 0.05403,0.0023 0.155626,0 0.30594,-0.05771 0.417091,-0.161523 l 1.204428,-1.126241 c 0.110672,-0.103493 0.172742,-0.243827 0.172742,-0.390124 l 0,-0.113309 0.121165,0 c 0.156458,0 0.306537,-0.05814 0.417218,-0.161632 l 0.237038,-0.221653 c 0.110554,-0.103493 0.172733,-0.243827 0.172733,-0.390013 l 0,-0.863659 0.92362,0 c 0.15645,0 0.30653,-0.05814 0.417209,-0.161522 l 0.832762,-0.778705 c 0.110671,-0.103493 0.172733,-0.243716 0.172733,-0.390123 l 0,-0.06785 0.0726,0 c 0.156457,0 0.306537,-0.05815 0.417208,-0.161523 l 0.772002,-0.721842 C 33.652427,36.03643 33.71449,35.896096 33.71449,35.7498 l 0,-0.227058 0.242819,0 c 0.156457,0 0.306537,-0.05815 0.417217,-0.161522 l 0.8081,-0.755647 c 0.583808,0.193077 1.194756,0.290718 1.821519,0.290718 1.45881,0 2.830198,-0.531015 3.861657,-1.495513 1.412679,-1.321083 1.887462,-3.191166 1.426603,-4.882293 1.3689,0.181822 2.816274,0.744502 3.66721,2.163558 1.502824,2.506241 0.19669,4.724853 -0.544869,5.672582 L 41.56807,35.573824 c -0.19563,-0.03983 -0.400336,0.01622 -0.542282,0.149055 l -6.778226,6.338199 c -0.110672,0.103493 -0.172733,0.243828 -0.172733,0.390124 0,0.146297 0.06218,0.286636 0.172733,0.390126 l 5.052876,4.724743 c 0.115276,0.107681 0.266188,0.161522 0.417209,0.161522 0.151029,0 0.301932,-0.05383 0.417209,-0.161522 l 6.778225,-6.33809 c 0.141946,-0.132725 0.201883,-0.323705 0.159407,-0.507072 l -0.828165,-3.567426 c 0.310898,-0.380636 0.739433,-0.982813 1.072632,-1.747947 0.777548,-1.787446 0.66428,-3.607328 -0.328477,-5.262819 z m -8.308425,-0.503764 c -0.405529,0 -0.786749,-0.147621 -1.073582,-0.415831 -0.59195,-0.553633 -0.59195,-1.454251 0,-2.007773 0.286833,-0.268211 0.668171,-0.415831 1.073699,-0.415831 0.405529,0 0.786749,0.14773 1.073582,0.415831 0.06125,0.05726 0.115275,0.119265 0.164473,0.184029 -0.785328,0.08297 -1.322652,0.215914 -1.393916,0.234118 -0.314209,0.08043 -0.499209,0.383837 -0.413082,0.677754 0.08601,0.293807 0.410486,0.466694 0.724804,0.386263 0.01639,-0.0042 0.551247,-0.136588 1.334694,-0.207861 -0.05663,0.276266 -0.199639,0.530354 -0.416973,0.733581 -0.286833,0.267989 -0.668171,0.41572 -1.073699,0.41572 z"
     id="path3"
     inkscape:connector-curvature="0"
     style="fill:#806600" />
</svg>
