<?xml version="1.0" encoding="UTF-8" standalone="no"?>
<svg
   xmlns:dc="http://purl.org/dc/elements/1.1/"
   xmlns:cc="http://creativecommons.org/ns#"
   xmlns:rdf="http://www.w3.org/1999/02/22-rdf-syntax-ns#"
   xmlns:svg="http://www.w3.org/2000/svg"
   xmlns="http://www.w3.org/2000/svg"
   xmlns:sodipodi="http://sodipodi.sourceforge.net/DTD/sodipodi-0.dtd"
   xmlns:inkscape="http://www.inkscape.org/namespaces/inkscape"
   viewBox="0 0 48 48"
   id="svg2"
   version="1.1"
   inkscape:version="0.91 r13725"
   sodipodi:docname="t-lasku.svg">
  <metadata
     id="metadata23">
    <rdf:RDF>
      <cc:Work
         rdf:about="">
        <dc:format>image/svg+xml</dc:format>
        <dc:type
           rdf:resource="http://purl.org/dc/dcmitype/StillImage" />
        <dc:title></dc:title>
      </cc:Work>
    </rdf:RDF>
  </metadata>
  <sodipodi:namedview
     pagecolor="#ffffff"
     bordercolor="#666666"
     borderopacity="1"
     objecttolerance="10"
     gridtolerance="10"
     guidetolerance="10"
     inkscape:pageopacity="0"
     inkscape:pageshadow="2"
     inkscape:window-width="1280"
     inkscape:window-height="694"
     id="namedview21"
     showgrid="false"
     inkscape:zoom="4.9166667"
     inkscape:cx="-11.59322"
     inkscape:cy="24"
     inkscape:window-x="0"
     inkscape:window-y="0"
     inkscape:window-maximized="1"
     inkscape:current-layer="svg2" />
  <defs
     id="defs4">
    <linearGradient
       gradientTransform="matrix(2.6570968,0,0,2.6605568,-1654.1779,-2219.1408)"
       gradientUnits="userSpaceOnUse"
       y2="841.19"
       x2="0"
       y1="863.74"
       id="0">
      <stop
         stop-color="#ff9300"
         id="stop7" />
      <stop
         offset="1"
         stop-color="#ffd702"
         id="stop9" />
    </linearGradient>
  </defs>
  <g
     style="fill:#aa4400;fill-opacity:0.797"
     id="g15"
     transform="matrix(1.6698304,0,0,1.576242,-71.785476,27.06388)">
    <path
       inkscape:connector-curvature="0"
       id="path17"
       d="m 68.28,-7.846 c -1.138,-1.047 -2.457,-1.865 -3.873,-2.46 -0.184,0.278 -0.394,0.54 -0.634,0.779 -0.317,0.317 -0.672,0.588 -1.06,0.805 0.411,0.136 0.805,0.291 1.183,0.469 0.385,0.181 0.533,0.653 0.32,1.022 -0.188,0.327 -0.598,0.456 -0.938,0.294 -2.58,-1.219 -5.46,-0.989 -6.724,-0.798 -0.372,0.055 -0.727,-0.181 -0.815,-0.546 l 0,-0.003 c -0.1,-0.414 0.178,-0.824 0.598,-0.889 0.23,-0.036 0.508,-0.071 0.818,-0.1 -0.094,-0.081 -0.184,-0.165 -0.272,-0.252 -0.446,-0.446 -0.798,-0.967 -1.044,-1.548 -0.026,-0.061 -0.052,-0.126 -0.074,-0.188 -0.385,0.065 -0.766,0.145 -1.138,0.239 -2.166,-1.261 -4.765,-1.264 -6.31,-1.112 -0.672,0.065 -1.07,0.782 -0.776,1.39 l 1.309,2.683 c -1.455,1.267 -2.554,2.819 -3.171,4.548 l -1.597,-0.006 c -0.537,-0.003 -0.973,0.433 -0.973,0.97 l 0,3.582 c 0,0.362 0.2,0.692 0.52,0.86 l 2.072,1.08 c 0.866,2.389 2.661,4.439 5.03,5.851 l 0,3.171 c 0,0.624 0.508,1.131 1.131,1.131 l 2.903,0 c 0.449,0 0.857,-0.268 1.038,-0.679 l 0.727,-1.671 c 0.627,0.078 1.264,0.116 1.917,0.116 1.028,0 2.027,-0.097 2.987,-0.281 l 0,1.384 c 0,0.624 0.508,1.131 1.131,1.131 l 2.89,0 c 0.417,0 0.802,-0.23 0.999,-0.598 1.539,-2.89 3.21,-5.79 4.445,-8.816 0.624,-1.532 0.85,-3.158 0.714,-4.746 -0.22,-2.56 -1.384,-5.02 -3.333,-6.811 m -17.366,6.02 c -0.805,0 -1.455,-0.65 -1.455,-1.455 0,-0.805 0.65,-1.455 1.455,-1.455 0.805,0 1.455,0.65 1.455,1.455 0,0.805 -0.65,1.455 -1.455,1.455"
       style="fill:#aa4400" />
    <path
       inkscape:connector-curvature="0"
       id="path19"
       d="m 58.89,-9.343 c 0.443,0.175 0.928,0.272 1.435,0.272 0.249,0 0.491,-0.023 0.724,-0.068 0.989,-0.184 1.846,-0.744 2.418,-1.523 0.475,-0.647 0.756,-1.445 0.756,-2.311 0.003,-2.156 -1.746,-3.902 -3.899,-3.902 -2.156,0 -3.902,1.746 -3.902,3.902 0,0.559 0.116,1.089 0.33,1.571 0.411,0.938 1.183,1.681 2.137,2.059"
       style="fill:#aa4400" />
  </g>
</svg>
