<?xml version="1.0" encoding="UTF-8" standalone="no"?>
<!-- Generator: Adobe Illustrator 19.0.0, SVG Export Plug-In . SVG Version: 6.00 Build 0)  -->

<svg
   xmlns:dc="http://purl.org/dc/elements/1.1/"
   xmlns:cc="http://creativecommons.org/ns#"
   xmlns:rdf="http://www.w3.org/1999/02/22-rdf-syntax-ns#"
   xmlns:svg="http://www.w3.org/2000/svg"
   xmlns="http://www.w3.org/2000/svg"
   xmlns:sodipodi="http://sodipodi.sourceforge.net/DTD/sodipodi-0.dtd"
   xmlns:inkscape="http://www.inkscape.org/namespaces/inkscape"
   version="1.1"
   id="Capa_1"
   x="0px"
   y="0px"
   viewBox="0 0 59 59"
   style="enable-background:new 0 0 59 59;"
   xml:space="preserve"
   inkscape:version="0.91 r13725"
   sodipodi:docname="folder-green.svg"><metadata
     id="metadata55"><rdf:RDF><cc:Work
         rdf:about=""><dc:format>image/svg+xml</dc:format><dc:type
           rdf:resource="http://purl.org/dc/dcmitype/StillImage" /><dc:title></dc:title></cc:Work></rdf:RDF></metadata><defs
     id="defs53" /><sodipodi:namedview
     pagecolor="#ffffff"
     bordercolor="#666666"
     borderopacity="1"
     objecttolerance="10"
     gridtolerance="10"
     guidetolerance="10"
     inkscape:pageopacity="0"
     inkscape:pageshadow="2"
     inkscape:window-width="1280"
     inkscape:window-height="694"
     id="namedview51"
     showgrid="false"
     inkscape:zoom="4"
     inkscape:cx="1.2171946"
     inkscape:cy="29.5"
     inkscape:window-x="0"
     inkscape:window-y="0"
     inkscape:window-maximized="1"
     inkscape:current-layer="Capa_1" /><polygon
     style="fill:#00aa44"
     points="0.5,15 0.5,59 58.5,59 58.5,22 30.5,22 25.5,15 20.5,8 0.5,8 "
     id="polygon3"
     transform="matrix(1.012931,0,0,1,-0.00646552,0)" /><polygon
     style="fill:#80ffb3"
     points="25.5,15 30.5,22 58.5,22 58.5,15 "
     id="polygon5"
     transform="matrix(1.012931,0,0,1,-0.00646552,0)" /><polygon
     style="fill:#00d455"
     points="3.5,4 3.5,8 20.5,8 25.5,15 58.5,15 58.5,11 28.5,11 23.5,4 "
     id="polygon7"
     transform="matrix(1.012931,0,0,1,-0.00646552,0)" /><polygon
     style="fill:#00ff66"
     points="6.5,0 6.5,4 23.5,4 28.5,11 58.5,11 58.5,7 31.5,7 26.5,0 "
     id="polygon9"
     transform="matrix(1.012931,0,0,1,-0.00646552,0)" /><rect
     x="27.849136"
     y="36"
     style="fill:#80ffb3"
     width="26.336206"
     height="18"
     id="rect11" /><g
     id="g13"
     style="fill:#002b11"
     transform="matrix(1.012931,0,0,1,-0.00646552,0)"><rect
       x="32.5"
       y="40"
       style="fill:#002b11"
       width="10"
       height="2"
       id="rect15" /><rect
       x="32.5"
       y="44"
       style="fill:#002b11"
       width="16"
       height="2"
       id="rect17" /><rect
       x="32.5"
       y="48"
       style="fill:#002b11"
       width="16"
       height="2"
       id="rect19" /></g><g
     id="g21" /><g
     id="g23" /><g
     id="g25" /><g
     id="g27" /><g
     id="g29" /><g
     id="g31" /><g
     id="g33" /><g
     id="g35" /><g
     id="g37" /><g
     id="g39" /><g
     id="g41" /><g
     id="g43" /><g
     id="g45" /><g
     id="g47" /><g
     id="g49" /></svg>