<?xml version="1.0" encoding="UTF-8" standalone="no"?>
<svg
   xmlns:dc="http://purl.org/dc/elements/1.1/"
   xmlns:cc="http://creativecommons.org/ns#"
   xmlns:rdf="http://www.w3.org/1999/02/22-rdf-syntax-ns#"
   xmlns:svg="http://www.w3.org/2000/svg"
   xmlns="http://www.w3.org/2000/svg"
   xmlns:xlink="http://www.w3.org/1999/xlink"
   xmlns:sodipodi="http://sodipodi.sourceforge.net/DTD/sodipodi-0.dtd"
   xmlns:inkscape="http://www.inkscape.org/namespaces/inkscape"
   viewBox="0 0 48 48"
   id="svg2"
   version="1.1"
   inkscape:version="0.91 r13725"
   sodipodi:docname="audio-headphones.svg">
  <metadata
     id="metadata37">
    <rdf:RDF>
      <cc:Work
         rdf:about="">
        <dc:format>image/svg+xml</dc:format>
        <dc:type
           rdf:resource="http://purl.org/dc/dcmitype/StillImage" />
        <dc:title></dc:title>
      </cc:Work>
    </rdf:RDF>
  </metadata>
  <sodipodi:namedview
     pagecolor="#ffffff"
     bordercolor="#666666"
     borderopacity="1"
     objecttolerance="10"
     gridtolerance="10"
     guidetolerance="10"
     inkscape:pageopacity="0"
     inkscape:pageshadow="2"
     inkscape:window-width="1280"
     inkscape:window-height="694"
     id="namedview35"
     showgrid="false"
     inkscape:zoom="4.9166667"
     inkscape:cx="-9.1525424"
     inkscape:cy="24"
     inkscape:window-x="0"
     inkscape:window-y="0"
     inkscape:window-maximized="1"
     inkscape:current-layer="svg2" />
  <defs
     id="defs4">
    <linearGradient
       gradientUnits="userSpaceOnUse"
       y2="20.836"
       x2="54.04"
       y1="89.36"
       x1="41.16"
       id="linearGradient6">
      <stop
         stop-color="#e3e3e3"
         id="stop8" />
      <stop
         offset="1"
         stop-color="#fffcff"
         id="stop10" />
    </linearGradient>
    <linearGradient
       xlink:href="#0"
       id="2"
       x1="394.82"
       y1="546.73"
       x2="396.73"
       y2="518.37"
       gradientUnits="userSpaceOnUse" />
    <linearGradient
       y2="517.77"
       x2="400.7"
       y1="546.07"
       x1="400.51"
       gradientUnits="userSpaceOnUse"
       id="1"
       xlink:href="#0" />
    <linearGradient
       id="0">
      <stop
         stop-color="#1365f4"
         id="stop15" />
      <stop
         offset="1"
         stop-color="#05b2fc"
         id="stop17" />
    </linearGradient>
    <linearGradient
       gradientUnits="userSpaceOnUse"
       y2="517.8"
       x2="0"
       y1="545.8"
       id="linearGradient19">
      <stop
         stop-color="#3889e9"
         id="stop21" />
      <stop
         offset="1"
         stop-color="#5ea5fb"
         id="stop23" />
    </linearGradient>
  </defs>
  <path
     style="fill-opacity:1;fill:#0066ff"
     inkscape:connector-curvature="0"
     id="path33"
     d="m 42.212061,20.744902 c 0.0519,-0.174646 0.05341,-0.358248 0.05341,-0.549314 l 0,-2.040527 c 0,-4.828895 -1.865153,-9.3428309 -5.299356,-12.7103706 -3.437256,-3.3705255 -8.036036,-5.22744823 -12.972131,-5.22744823 -4.936095,0 -9.515032,1.85692273 -12.952289,5.22744823 C 7.6075004,8.8122301 5.7499782,13.326166 5.7499782,18.155061 l 0,2.040527 c 0,0.191066 1.528e-4,0.374668 0.053418,0.549314 -3.1472562,0.243312 -5.66261979,3.525768 -5.66261979,7.523227 0,4.018358 2.51688999,7.312755 5.68398739,7.538154 0.8471036,1.116541 2.213154,1.794229 3.6662032,1.794229 2.5275736,0 4.5789376,-2.012163 4.5789376,-4.493039 l 0,-9.675704 c 0,-2.397282 -1.87889,-4.36168 -4.2965692,-4.478112 l 0,-0.797103 c 0,-7.850127 6.2197242,-13.9985738 14.2298102,-13.9985738 8.010089,0 14.229814,6.1484468 14.229814,13.9985738 l 0,0.797103 c -2.416153,0.120913 -4.296572,2.083816 -4.296572,4.478112 l 0,9.675704 c 0,1.618091 0.880684,3.039146 2.196365,3.828786 -1.500365,2.158448 -3.608202,3.864611 -6.103723,4.906517 -0.682262,-0.743365 -1.672839,-1.213568 -2.773311,-1.213568 l -5.166568,0 c -2.054417,0 -3.727254,1.634511 -3.727254,3.645183 l 0,0.06418 c 0,2.009179 1.67131,3.645182 3.727254,3.645182 l 5.166568,0 c 1.51105,0 2.814521,-0.885173 3.399098,-2.153972 2.466522,-0.877708 4.720885,-2.26891 6.618091,-4.11986 1.413366,-1.377767 2.565732,-2.949583 3.434204,-4.657236 0.578473,-0.306006 1.089788,-0.729931 1.485102,-1.250886 3.167099,-0.217934 5.676356,-3.512332 5.676356,-7.538155 0,-4.000445 -2.515362,-7.2829 -5.66262,-7.523225" />
</svg>
