<?xml version="1.0" encoding="UTF-8" standalone="no"?>
<!-- Generator: Adobe Illustrator 19.0.0, SVG Export Plug-In . SVG Version: 6.00 Build 0)  -->

<svg
   xmlns:dc="http://purl.org/dc/elements/1.1/"
   xmlns:cc="http://creativecommons.org/ns#"
   xmlns:rdf="http://www.w3.org/1999/02/22-rdf-syntax-ns#"
   xmlns:svg="http://www.w3.org/2000/svg"
   xmlns="http://www.w3.org/2000/svg"
   xmlns:sodipodi="http://sodipodi.sourceforge.net/DTD/sodipodi-0.dtd"
   xmlns:inkscape="http://www.inkscape.org/namespaces/inkscape"
   version="1.1"
   id="Capa_1"
   x="0px"
   y="0px"
   viewBox="0 0 58 58"
   style="enable-background:new 0 0 58 58;"
   xml:space="preserve"
   inkscape:version="0.91 r13725"
   sodipodi:docname="camera-web.svg"><metadata
     id="metadata57"><rdf:RDF><cc:Work
         rdf:about=""><dc:format>image/svg+xml</dc:format><dc:type
           rdf:resource="http://purl.org/dc/dcmitype/StillImage" /><dc:title></dc:title></cc:Work></rdf:RDF></metadata><defs
     id="defs55" /><sodipodi:namedview
     pagecolor="#ffffff"
     bordercolor="#666666"
     borderopacity="1"
     objecttolerance="10"
     gridtolerance="10"
     guidetolerance="10"
     inkscape:pageopacity="0"
     inkscape:pageshadow="2"
     inkscape:window-width="1280"
     inkscape:window-height="694"
     id="namedview53"
     showgrid="false"
     inkscape:zoom="4.0689655"
     inkscape:cx="-11.059322"
     inkscape:cy="29"
     inkscape:window-x="0"
     inkscape:window-y="0"
     inkscape:window-maximized="1"
     inkscape:current-layer="Capa_1" /><g
     id="g4185"
     transform="matrix(1.2300758,0,0,1,-6.4264334,0)"><path
       id="path3"
       d="m 33.256,51.244 0,0 L 33.5,51 l -11,-16 -5,2 11.708,17.561 c 0.817,-1.607 2.279,-2.825 4.048,-3.317 z"
       style="fill:#8697cb"
       inkscape:connector-curvature="0" /><path
       id="path5"
       d="m 36.37,47.839 c 0.163,0.238 0.305,0.49 0.436,0.749 0.026,0.052 0.051,0.104 0.076,0.157 0.122,0.259 0.232,0.525 0.319,0.802 10e-4,0.002 10e-4,0.003 0.002,0.005 0.086,0.275 0.148,0.56 0.198,0.849 0.012,0.069 0.022,0.138 0.032,0.207 0.039,0.292 0.067,0.589 0.067,0.892 0,0.158 -0.008,0.274 -0.019,0.376 -0.02,0.349 -0.063,0.691 -0.136,1.023 L 52.5,49 l 0,-6 -16.13,4.839 z"
       style="fill:#8697cb"
       inkscape:connector-curvature="0" /><circle
       id="circle7"
       r="6.5"
       cy="51.5"
       cx="31"
       style="fill:#556080" /><path
       id="path9"
       d="m 24.5,32.556 c 0,3.038 -2.462,4.889 -5.5,4.889 -3.038,0 -5.5,-1.851 -5.5,-4.889 l 11,0 z"
       style="fill:#556080"
       inkscape:connector-curvature="0" /><path
       id="path11"
       d="M 30.5,33 8.776,33 C 6.967,33 5.5,31.533 5.5,29.724 L 5.5,3.276 C 5.5,1.467 6.967,0 8.776,0 L 30.5,0 c 1.809,0 3,1.467 3,3.276 l 0,26.448 c 0,1.809 -1.191,3.276 -3,3.276 z"
       style="fill:#ecf0f1"
       inkscape:connector-curvature="0" /><circle
       id="circle13"
       r="11"
       cy="14"
       cx="19.5"
       style="fill:#8697cb" /><path
       id="path15"
       d="m 19.5,21 c -3.86,0 -7,-3.14 -7,-7 0,-3.86 3.14,-7 7,-7 3.86,0 7,3.14 7,7 0,3.86 -3.14,7 -7,7 z"
       style="fill:#556080"
       inkscape:connector-curvature="0" /><circle
       id="circle17"
       r="1"
       cy="3"
       cx="29.5"
       style="fill:#e64c3c" /><path
       id="path19"
       d="m 29.5,33 -20,0 0,-2.074 C 9.5,29.31 10.81,28 12.426,28 l 14.149,0 c 1.616,0 2.926,1.31 2.926,2.926 l 0,2.074 z"
       style="fill:#d1d4d1"
       inkscape:connector-curvature="0" /><path
       id="path21"
       d="m 15.5,15 c -0.552,0 -1,-0.448 -1,-1 0,-2.757 2.243,-5 5,-5 0.552,0 1,0.448 1,1 0,0.552 -0.448,1 -1,1 -1.654,0 -3,1.346 -3,3 0,0.552 -0.448,1 -1,1 z"
       style="fill:#d0e8f9"
       inkscape:connector-curvature="0" /></g><g
     id="g23" /><g
     id="g25" /><g
     id="g27" /><g
     id="g29" /><g
     id="g31" /><g
     id="g33" /><g
     id="g35" /><g
     id="g37" /><g
     id="g39" /><g
     id="g41" /><g
     id="g43" /><g
     id="g45" /><g
     id="g47" /><g
     id="g49" /><g
     id="g51" /></svg>