<?xml version="1.0" encoding="UTF-8" standalone="no"?>
<svg
   xmlns:dc="http://purl.org/dc/elements/1.1/"
   xmlns:cc="http://creativecommons.org/ns#"
   xmlns:rdf="http://www.w3.org/1999/02/22-rdf-syntax-ns#"
   xmlns:svg="http://www.w3.org/2000/svg"
   xmlns="http://www.w3.org/2000/svg"
   xmlns:xlink="http://www.w3.org/1999/xlink"
   xmlns:sodipodi="http://sodipodi.sourceforge.net/DTD/sodipodi-0.dtd"
   xmlns:inkscape="http://www.inkscape.org/namespaces/inkscape"
   viewBox="0 0 48 48"
   id="svg2"
   version="1.1"
   inkscape:version="0.91 r13725"
   sodipodi:docname="camera-photo.svg">
  <metadata
     id="metadata56">
    <rdf:RDF>
      <cc:Work
         rdf:about="">
        <dc:format>image/svg+xml</dc:format>
        <dc:type
           rdf:resource="http://purl.org/dc/dcmitype/StillImage" />
        <dc:title></dc:title>
      </cc:Work>
    </rdf:RDF>
  </metadata>
  <sodipodi:namedview
     pagecolor="#ffffff"
     bordercolor="#666666"
     borderopacity="1"
     objecttolerance="10"
     gridtolerance="10"
     guidetolerance="10"
     inkscape:pageopacity="0"
     inkscape:pageshadow="2"
     inkscape:window-width="1280"
     inkscape:window-height="694"
     id="namedview54"
     showgrid="false"
     inkscape:zoom="4.9166667"
     inkscape:cx="-23.220953"
     inkscape:cy="24"
     inkscape:window-x="0"
     inkscape:window-y="0"
     inkscape:window-maximized="1"
     inkscape:current-layer="svg2" />
  <defs
     id="defs4">
    <linearGradient
       y2="507.67"
       x2="390.88"
       y1="531.8"
       x1="391.57"
       gradientTransform="matrix(1.0000328,0,0,1.7398353,-384.57811,-880.50377)"
       gradientUnits="userSpaceOnUse"
       id="3">
      <stop
         stop-color="#d3d3d3"
         id="stop7" />
      <stop
         offset="1"
         stop-color="#fcf9f9"
         id="stop9" />
    </linearGradient>
    <linearGradient
       gradientUnits="userSpaceOnUse"
       y2="510.72"
       x2="0"
       y1="515.9"
       id="7"
       xlink:href="#1"
       gradientTransform="matrix(0.92311,0,0,1.3026522,-338.67,-658.4667)" />
    <linearGradient
       y2="510.43"
       x2="414.58"
       y1="537.14"
       x1="415.32"
       gradientUnits="userSpaceOnUse"
       id="4"
       xlink:href="#1"
       gradientTransform="matrix(1.201363,0,0,1.6953106,-473.41637,-864.03825)" />
    <linearGradient
       y2="514"
       x2="414.2"
       y1="535.92"
       x1="414.55"
       gradientUnits="userSpaceOnUse"
       id="6"
       gradientTransform="matrix(1.201363,0,0,1.6953106,-473.41637,-864.03825)">
      <stop
         stop-color="#197ff1"
         id="stop14" />
      <stop
         offset="1"
         stop-color="#21c6fb"
         id="stop16" />
    </linearGradient>
    <linearGradient
       y2="532.63"
       x2="424.07"
       y1="515.76"
       x1="407.2"
       gradientUnits="userSpaceOnUse"
       id="5"
       xlink:href="#1"
       gradientTransform="matrix(1.201363,0,0,1.6953106,-473.41637,-864.03825)" />
    <linearGradient
       y2="505.69"
       x2="376"
       y1="509.1"
       x1="376.21"
       gradientUnits="userSpaceOnUse"
       id="2"
       xlink:href="#1"
       gradientTransform="matrix(0.92311,0,0,0.92311,-338.67,-459.62)" />
    <linearGradient
       id="0">
      <stop
         stop-color="#2e5d89"
         id="stop21" />
      <stop
         offset="1"
         stop-color="#1b92f4"
         id="stop23" />
    </linearGradient>
    <linearGradient
       id="1">
      <stop
         stop-color="#222c35"
         id="stop26" />
      <stop
         offset="1"
         stop-color="#545e67"
         id="stop28" />
    </linearGradient>
    <linearGradient
       y2="528.03"
       x2="416.84"
       y1="510.3"
       x1="399.12"
       gradientUnits="userSpaceOnUse"
       xlink:href="#0"
       id="linearGradient30" />
    <linearGradient
       xlink:href="#0"
       gradientUnits="userSpaceOnUse"
       x1="480.12"
       y1="516.8"
       x2="497.84"
       y2="534.53"
       id="linearGradient32" />
    <linearGradient
       xlink:href="#0"
       gradientUnits="userSpaceOnUse"
       x1="477.12"
       y1="509.8"
       x2="494.84"
       y2="527.53"
       id="linearGradient34" />
    <linearGradient
       y2="531.45"
       x2="494.57"
       y1="516.45"
       x1="479.57"
       gradientUnits="userSpaceOnUse"
       xlink:href="#0"
       id="linearGradient36" />
  </defs>
  <path
     style="fill:#535d6c"
     inkscape:connector-curvature="0"
     id="path6"
     d="m 43.959471,6.9866767 -10.397937,0 -2.544146,-5.568276 C 30.664783,0.64663684 29.945225,0.15937748 29.158216,0.15937748 l -9.90965,0 c -0.78702,0 -1.506568,0.48727077 -1.859172,1.25902322 l -2.544147,5.568276 -10.3979366,0 c -2.297081,0 -4.1591748,2.0424087 -4.1591748,4.5619263 l 0,31.933485 c 0,2.519518 1.8620938,4.561926 4.1591748,4.561926 l 39.5121606,0 c 2.297081,0 4.159175,-2.042408 4.159175,-4.561926 l 0,-31.933485 c 0,-2.5195176 -1.862094,-4.5619263 -4.159175,-4.5619263 z" />
  <path
     style="fill:#535d6c"
     inkscape:connector-curvature="0"
     id="path8"
     d="m 6.5268978,43.482088 -6.2387622,0 0,-31.933485 6.2387622,0 c 1.1485249,0 2.0795874,1.021222 2.0795874,2.280963 l 0,27.371559 c 0,1.259741 -0.9310625,2.280963 -2.0795874,2.280963 z" />
  <ellipse
     style="fill:#6f7c91"
     id="circle10"
     cy="27.515345"
     cx="24.20339"
     rx="11.437731"
     ry="12.545298" />
  <path
     style="fill:#939dac"
     inkscape:connector-curvature="0"
     id="path12"
     d="m 24.203391,41.201125 c -6.880513,0 -12.477525,-6.139555 -12.477525,-13.685779 0,-7.546225 5.597012,-13.68578 12.477525,-13.68578 6.880512,0 12.477524,6.139555 12.477524,13.68578 0,7.546224 -5.597012,13.685779 -12.477524,13.685779 z m 0,-25.090595 c -5.73308,0 -10.397937,5.116017 -10.397937,11.404816 0,6.288798 4.664857,11.404815 10.397937,11.404815 5.733079,0 10.397937,-5.116017 10.397937,-11.404815 0,-6.288799 -4.664858,-11.404816 -10.397937,-11.404816 z" />
  <ellipse
     style="fill:#80b3ff"
     id="circle14"
     cy="27.515345"
     cx="24.20339"
     rx="6.2387624"
     ry="6.8428898" />
  <path
     style="fill:#80b3ff"
     inkscape:connector-curvature="0"
     id="path16"
     d="m 27.322772,9.2676399 -6.238762,0 c -0.574258,0 -1.039794,-0.510605 -1.039794,-1.1404816 l 0,-3.4214448 c 0,-0.6298652 0.465536,-1.1404816 1.039794,-1.1404816 l 6.238762,0 c 0.574257,0 1.039793,0.5106164 1.039793,1.1404816 l 0,3.4214448 c 0,0.6298766 -0.465536,1.1404816 -1.039793,1.1404816 z" />
  <path
     style="fill:#80b3ff"
     inkscape:connector-curvature="0"
     id="path18"
     d="m 43.959471,13.829566 -6.238762,0 c -0.574257,0 -1.039794,-0.510605 -1.039794,-1.140481 l 0,-1.140482 c 0,-0.629876 0.465537,-1.140481 1.039794,-1.140481 l 6.238762,0 c 0.574257,0 1.039794,0.510605 1.039794,1.140481 l 0,1.140482 c 0,0.629876 -0.465537,1.140481 -1.039794,1.140481 z" />
</svg>
