<?xml version="1.0" encoding="UTF-8" standalone="no"?>
<!-- Generator: Adobe Illustrator 19.0.0, SVG Export Plug-In . SVG Version: 6.00 Build 0)  -->

<svg
   xmlns:dc="http://purl.org/dc/elements/1.1/"
   xmlns:cc="http://creativecommons.org/ns#"
   xmlns:rdf="http://www.w3.org/1999/02/22-rdf-syntax-ns#"
   xmlns:svg="http://www.w3.org/2000/svg"
   xmlns="http://www.w3.org/2000/svg"
   xmlns:sodipodi="http://sodipodi.sourceforge.net/DTD/sodipodi-0.dtd"
   xmlns:inkscape="http://www.inkscape.org/namespaces/inkscape"
   version="1.1"
   id="Capa_1"
   x="0px"
   y="0px"
   viewBox="0 0 58 58"
   style="enable-background:new 0 0 58 58;"
   xml:space="preserve"
   inkscape:version="0.91 r13725"
   sodipodi:docname="computer-laptop.svg"><metadata
     id="metadata67"><rdf:RDF><cc:Work
         rdf:about=""><dc:format>image/svg+xml</dc:format><dc:type
           rdf:resource="http://purl.org/dc/dcmitype/StillImage" /><dc:title></dc:title></cc:Work></rdf:RDF></metadata><defs
     id="defs65" /><sodipodi:namedview
     pagecolor="#ffffff"
     bordercolor="#666666"
     borderopacity="1"
     objecttolerance="10"
     gridtolerance="10"
     guidetolerance="10"
     inkscape:pageopacity="0"
     inkscape:pageshadow="2"
     inkscape:window-width="1280"
     inkscape:window-height="694"
     id="namedview63"
     showgrid="false"
     inkscape:zoom="4.0689655"
     inkscape:cx="-17.071809"
     inkscape:cy="29"
     inkscape:window-x="0"
     inkscape:window-y="0"
     inkscape:window-maximized="1"
     inkscape:current-layer="Capa_1" /><rect
     x="2"
     y="6.5"
     style="fill:#93a7ac"
     width="54"
     height="38"
     id="rect3" /><rect
     x="10"
     y="44.5"
     style="fill:#AFB6BB;"
     width="38"
     height="2"
     id="rect5" /><path
     style="fill:#93a7ac"
     d="M57.282,51.5H0.718C0.321,51.5,0,51.179,0,50.782v-3.564C0,46.821,0.321,46.5,0.718,46.5h56.564  c0.396,0,0.718,0.321,0.718,0.718v3.564C58,51.179,57.679,51.5,57.282,51.5z"
     id="path7" /><path
     style="fill:#AFB6BB;"
     d="M12,42.5H7c-0.552,0-1-0.448-1-1s0.448-1,1-1h5c0.552,0,1,0.448,1,1S12.552,42.5,12,42.5z"
     id="path9" /><path
     style="fill:#AFB6BB;"
     d="M52,42.5h-1c-0.552,0-1-0.448-1-1s0.448-1,1-1h1c0.552,0,1,0.448,1,1S52.552,42.5,52,42.5z"
     id="path11" /><path
     style="fill:#AFB6BB;"
     d="M48,42.5h-1c-0.552,0-1-0.448-1-1s0.448-1,1-1h1c0.552,0,1,0.448,1,1S48.552,42.5,48,42.5z"
     id="path13" /><rect
     x="7"
     y="11.5"
     style="fill:#38454F;"
     width="44"
     height="27"
     id="rect15" /><g
     id="g17"><path
       style="fill:#546A79;"
       d="M11,21.5c0.256,0,0.512-0.098,0.707-0.293l4-4c0.391-0.391,0.391-1.023,0-1.414   s-1.023-0.391-1.414,0l-4,4c-0.391,0.391-0.391,1.023,0,1.414C10.488,21.402,10.744,21.5,11,21.5z"
       id="path19" /><path
       style="fill:#546A79;"
       d="M11,26.5c0.256,0,0.512-0.098,0.707-0.293l2-2c0.391-0.391,0.391-1.023,0-1.414   s-1.023-0.391-1.414,0l-2,2c-0.391,0.391-0.391,1.023,0,1.414C10.488,26.402,10.744,26.5,11,26.5z"
       id="path21" /><path
       style="fill:#546A79;"
       d="M14.29,20.79C14.11,20.98,14,21.23,14,21.5s0.11,0.52,0.29,0.71c0.19,0.18,0.45,0.29,0.71,0.29   c0.26,0,0.52-0.11,0.71-0.29C15.89,22.02,16,21.76,16,21.5c0-0.26-0.11-0.52-0.29-0.71C15.33,20.42,14.66,20.43,14.29,20.79z"
       id="path23" /><path
       style="fill:#546A79;"
       d="M16.293,20.207C16.488,20.402,16.744,20.5,17,20.5s0.512-0.098,0.707-0.293l3-3   c0.391-0.391,0.391-1.023,0-1.414s-1.023-0.391-1.414,0l-3,3C15.902,19.184,15.902,19.816,16.293,20.207z"
       id="path25" /><path
       style="fill:#546A79;"
       d="M19.293,20.793l-9,9c-0.391,0.391-0.391,1.023,0,1.414C10.488,31.402,10.744,31.5,11,31.5   s0.512-0.098,0.707-0.293l9-9c0.391-0.391,0.391-1.023,0-1.414S19.684,20.402,19.293,20.793z"
       id="path27" /><path
       style="fill:#546A79;"
       d="M21.29,18.79C21.11,18.98,21,19.24,21,19.5c0,0.26,0.11,0.52,0.29,0.71   c0.19,0.18,0.44,0.29,0.71,0.29s0.52-0.11,0.71-0.29C22.89,20.02,23,19.76,23,19.5c0-0.26-0.11-0.52-0.29-0.71   C22.34,18.42,21.66,18.42,21.29,18.79z"
       id="path29" /><path
       style="fill:#546A79;"
       d="M25.707,15.793c-0.391-0.391-1.023-0.391-1.414,0l-1,1c-0.391,0.391-0.391,1.023,0,1.414   C23.488,18.402,23.744,18.5,24,18.5s0.512-0.098,0.707-0.293l1-1C26.098,16.816,26.098,16.184,25.707,15.793z"
       id="path31" /></g><g
     id="g33" /><g
     id="g35" /><g
     id="g37" /><g
     id="g39" /><g
     id="g41" /><g
     id="g43" /><g
     id="g45" /><g
     id="g47" /><g
     id="g49" /><g
     id="g51" /><g
     id="g53" /><g
     id="g55" /><g
     id="g57" /><g
     id="g59" /><g
     id="g61" /></svg>