<?xml version="1.0" encoding="UTF-8" standalone="no"?>
<!-- Generator: Adobe Illustrator 19.0.0, SVG Export Plug-In . SVG Version: 6.00 Build 0)  -->

<svg
   xmlns:dc="http://purl.org/dc/elements/1.1/"
   xmlns:cc="http://creativecommons.org/ns#"
   xmlns:rdf="http://www.w3.org/1999/02/22-rdf-syntax-ns#"
   xmlns:svg="http://www.w3.org/2000/svg"
   xmlns="http://www.w3.org/2000/svg"
   xmlns:sodipodi="http://sodipodi.sourceforge.net/DTD/sodipodi-0.dtd"
   xmlns:inkscape="http://www.inkscape.org/namespaces/inkscape"
   version="1.1"
   id="Capa_1"
   x="0px"
   y="0px"
   viewBox="0 0 58 58"
   style="enable-background:new 0 0 58 58;"
   xml:space="preserve"
   inkscape:version="0.91 r13725"
   sodipodi:docname="cpu.svg"><metadata
     id="metadata79"><rdf:RDF><cc:Work
         rdf:about=""><dc:format>image/svg+xml</dc:format><dc:type
           rdf:resource="http://purl.org/dc/dcmitype/StillImage" /><dc:title></dc:title></cc:Work></rdf:RDF></metadata><defs
     id="defs77" /><sodipodi:namedview
     pagecolor="#ffffff"
     bordercolor="#666666"
     borderopacity="1"
     objecttolerance="10"
     gridtolerance="10"
     guidetolerance="10"
     inkscape:pageopacity="0"
     inkscape:pageshadow="2"
     inkscape:window-width="1280"
     inkscape:window-height="694"
     id="namedview75"
     showgrid="false"
     inkscape:zoom="4.0689655"
     inkscape:cx="-11.059322"
     inkscape:cy="29"
     inkscape:window-x="0"
     inkscape:window-y="0"
     inkscape:window-maximized="1"
     inkscape:current-layer="Capa_1" /><path
     style="fill:#38454F;"
     d="M45.592,58H12.408C11.078,58,10,56.922,10,55.592V2.408C10,1.078,11.078,0,12.408,0h33.184  C46.922,0,48,1.078,48,2.408v53.184C48,56.922,46.922,58,45.592,58z"
     id="path3" /><rect
     x="15"
     y="5"
     style="fill:#38454F;stroke:#283238;stroke-width:2;stroke-linecap:round;stroke-miterlimit:10;"
     width="28"
     height="8"
     id="rect5" /><rect
     x="15"
     y="13"
     style="fill:#38454F;stroke:#283238;stroke-width:2;stroke-linecap:round;stroke-miterlimit:10;"
     width="28"
     height="8"
     id="rect7" /><rect
     x="15"
     y="21"
     style="fill:#38454F;stroke:#283238;stroke-width:2;stroke-linecap:round;stroke-miterlimit:10;"
     width="28"
     height="8"
     id="rect9" /><g
     id="g11"><path
       style="fill:#546A79;"
       d="M19,48h2c0.553,0,1-0.447,1-1s-0.447-1-1-1h-2c-0.553,0-1,0.447-1,1S18.447,48,19,48z"
       id="path13" /><path
       style="fill:#546A79;"
       d="M19,50c0-0.553-0.447-1-1-1h-2c-0.553,0-1,0.447-1,1s0.447,1,1,1h2C18.553,51,19,50.553,19,50z"
       id="path15" /><path
       style="fill:#546A79;"
       d="M25,50c0-0.553-0.447-1-1-1h-2c-0.553,0-1,0.447-1,1s0.447,1,1,1h2C24.553,51,25,50.553,25,50z"
       id="path17" /><path
       style="fill:#546A79;"
       d="M25,48h2c0.553,0,1-0.447,1-1s-0.447-1-1-1h-2c-0.553,0-1,0.447-1,1S24.447,48,25,48z"
       id="path19" /><path
       style="fill:#546A79;"
       d="M31,48h2c0.553,0,1-0.447,1-1s-0.447-1-1-1h-2c-0.553,0-1,0.447-1,1S30.447,48,31,48z"
       id="path21" /><path
       style="fill:#546A79;"
       d="M31,50c0-0.553-0.447-1-1-1h-2c-0.553,0-1,0.447-1,1s0.447,1,1,1h2C30.553,51,31,50.553,31,50z"
       id="path23" /><path
       style="fill:#546A79;"
       d="M37,50c0-0.553-0.447-1-1-1h-2c-0.553,0-1,0.447-1,1s0.447,1,1,1h2C36.553,51,37,50.553,37,50z"
       id="path25" /><path
       style="fill:#546A79;"
       d="M37,48h2c0.553,0,1-0.447,1-1s-0.447-1-1-1h-2c-0.553,0-1,0.447-1,1S36.447,48,37,48z"
       id="path27" /><path
       style="fill:#546A79;"
       d="M42,49h-2c-0.553,0-1,0.447-1,1s0.447,1,1,1h2c0.553,0,1-0.447,1-1S42.553,49,42,49z"
       id="path29" /><path
       style="fill:#546A79;"
       d="M21,52h-2c-0.553,0-1,0.447-1,1s0.447,1,1,1h2c0.553,0,1-0.447,1-1S21.553,52,21,52z"
       id="path31" /><path
       style="fill:#546A79;"
       d="M27,52h-2c-0.553,0-1,0.447-1,1s0.447,1,1,1h2c0.553,0,1-0.447,1-1S27.553,52,27,52z"
       id="path33" /><path
       style="fill:#546A79;"
       d="M33,52h-2c-0.553,0-1,0.447-1,1s0.447,1,1,1h2c0.553,0,1-0.447,1-1S33.553,52,33,52z"
       id="path35" /><path
       style="fill:#546A79;"
       d="M39,52h-2c-0.553,0-1,0.447-1,1s0.447,1,1,1h2c0.553,0,1-0.447,1-1S39.553,52,39,52z"
       id="path37" /></g><circle
     style="fill:#283238;"
     cx="40"
     cy="36"
     r="3"
     id="circle39" /><circle
     style="fill:#25AE88;"
     cx="16"
     cy="36"
     r="2"
     id="circle41" /><circle
     style="fill:#21C6F7;"
     cx="21"
     cy="36"
     r="2"
     id="circle43" /><g
     id="g45" /><g
     id="g47" /><g
     id="g49" /><g
     id="g51" /><g
     id="g53" /><g
     id="g55" /><g
     id="g57" /><g
     id="g59" /><g
     id="g61" /><g
     id="g63" /><g
     id="g65" /><g
     id="g67" /><g
     id="g69" /><g
     id="g71" /><g
     id="g73" /></svg>