<?xml version="1.0" encoding="UTF-8" standalone="no"?>
<svg
   xmlns:dc="http://purl.org/dc/elements/1.1/"
   xmlns:cc="http://creativecommons.org/ns#"
   xmlns:rdf="http://www.w3.org/1999/02/22-rdf-syntax-ns#"
   xmlns:svg="http://www.w3.org/2000/svg"
   xmlns="http://www.w3.org/2000/svg"
   xmlns:sodipodi="http://sodipodi.sourceforge.net/DTD/sodipodi-0.dtd"
   xmlns:inkscape="http://www.inkscape.org/namespaces/inkscape"
   viewBox="0 0 48 48"
   id="svg2"
   version="1.1"
   inkscape:version="0.91 r13725"
   sodipodi:docname="accessories-calculator.svg">
  <metadata
     id="metadata48">
    <rdf:RDF>
      <cc:Work
         rdf:about="">
        <dc:format>image/svg+xml</dc:format>
        <dc:type
           rdf:resource="http://purl.org/dc/dcmitype/StillImage" />
        <dc:title></dc:title>
      </cc:Work>
    </rdf:RDF>
  </metadata>
  <sodipodi:namedview
     pagecolor="#ffffff"
     bordercolor="#666666"
     borderopacity="1"
     objecttolerance="10"
     gridtolerance="10"
     guidetolerance="10"
     inkscape:pageopacity="0"
     inkscape:pageshadow="2"
     inkscape:window-width="1280"
     inkscape:window-height="694"
     id="namedview46"
     showgrid="false"
     inkscape:zoom="4.9166667"
     inkscape:cx="-42"
     inkscape:cy="18.904079"
     inkscape:window-x="0"
     inkscape:window-y="0"
     inkscape:window-maximized="1"
     inkscape:current-layer="svg2" />
  <defs
     id="defs4">
    <linearGradient
       gradientUnits="userSpaceOnUse"
       y2="253.93"
       x2="0"
       y1="473.94"
       id="3"
       gradientTransform="matrix(0.10924457,0,0,0.1092511,-5.6694372,-5.5963677)">
      <stop
         stop-color="#cdd7dc"
         id="stop7" />
      <stop
         offset="1"
         stop-color="#ecf0f3"
         id="stop9" />
    </linearGradient>
    <linearGradient
       id="2"
       gradientUnits="userSpaceOnUse"
       x1="22.548"
       y1="267"
       x2="21.17"
       y2="148.12"
       gradientTransform="matrix(0.41708,-3e-4,3.2e-4,0.39759,13.04,-59.63)">
      <stop
         stop-color="#f16419"
         id="stop12" />
      <stop
         offset="1"
         stop-color="#feb600"
         id="stop14" />
    </linearGradient>
    <linearGradient
       id="0"
       x1="363.38"
       y1="400.94"
       x2="359.04"
       y2="332.47"
       gradientUnits="userSpaceOnUse">
      <stop
         stop-color="#d73b00"
         id="stop17" />
      <stop
         offset="1"
         stop-color="#e05800"
         id="stop19" />
    </linearGradient>
    <linearGradient
       gradientTransform="matrix(1.0015,4e-5,4e-5,0.95188,0.292,11.945)"
       id="1"
       gradientUnits="userSpaceOnUse"
       x1=".967"
       y1="204.55"
       x2="3.419"
       y2="147.64">
      <stop
         stop-color="#f15400"
         id="stop22" />
      <stop
         offset="1"
         stop-color="#fa8c00"
         id="stop24" />
    </linearGradient>
  </defs>
  <path
     d="m 46.767196,41.529649 -0.867857,0 0,-39.8546317 c 0,-0.72486368 -0.551772,-1.31220774 -1.232732,-1.31220774 -0.680959,0 -1.23273,0.58734406 -1.23273,1.31220774 l 0,3.681792 -16.85741,0 0,-0.8033332 c 0,-1.4833199 -1.133624,-2.6900261 -2.527122,-2.6900261 l -0.167679,0 c -1.39348,0 -2.527102,1.2067062 -2.527102,2.6900261 l 0,0.8033332 -2.669127,0 0,-0.8033332 c 0,-1.4833199 -1.133623,-2.6900261 -2.527104,-2.6900261 l -0.167856,0 c -1.39348,0 -2.527102,1.2067062 -2.527102,2.6900261 l 0,0.8033332 -0.943287,0 0,-0.8033332 c 0,-1.4833199 -1.133623,-2.6900261 -2.5271032,-2.6900261 l -0.1678547,0 c -1.3934812,0 -2.5271027,1.2067062 -2.5271027,2.6900261 l 0,0.8033332 -2.5288309,0 0,-3.681792 c 0,-0.72486368 -0.5517718,-1.31220774 -1.2327495,-1.31220774 -0.6809592,0 -1.2327309,0.58734406 -1.2327309,1.31220774 l 0,39.8546317 -0.8675934,0 c -0.68095913,0 -1.23273092,0.587346 -1.23273092,1.312208 l 0,3.686518 c 0,0.724863 0.55177179,1.312206 1.23273092,1.312206 l 45.3311433,0 c 0.680961,0 1.232732,-0.587343 1.232732,-1.312206 l 0,-3.686518 c 0,-0.724601 -0.551771,-1.312208 -1.232732,-1.312208 z M 9.8250593,11.474584 l 0.1678557,0 c 1.393481,0 2.527102,-1.206706 2.527102,-2.6900255 l 0,-0.803333 0.943286,0 0,0.803333 c 0,1.4833195 1.133623,2.6900255 2.527105,2.6900255 l 0.167854,0 c 1.393482,0 2.527103,-1.206706 2.527103,-2.6900255 l 0,-0.803333 2.669128,0 0,0.803333 c 0,1.4833195 1.133622,2.6900255 2.527104,2.6900255 l 0.167854,0 c 1.393499,0 2.527122,-1.206706 2.527122,-2.6900255 l 0,-0.803333 16.85741,0 0,8.3075855 -2.795355,0 0,-0.803333 c 0,-1.483319 -1.133623,-2.690025 -2.527103,-2.690025 l -0.167856,0 c -1.39348,0 -2.527102,1.206706 -2.527102,2.690025 l 0,0.803333 -2.232246,0 0,-0.803333 c 0,-1.483319 -1.133622,-2.690025 -2.527102,-2.690025 l -0.167856,0 c -1.393499,0 -2.52712,1.206706 -2.52712,2.690025 l 0,0.803333 -23.1931706,0 0,-8.3075855 2.5290771,0 0,0.803333 C 7.2979032,10.267878 8.4315258,11.474584 9.825007,11.474584 Z m 20.8322457,13.827781 -0.167854,0 c -1.393498,0 -2.527122,1.206706 -2.527122,2.690028 l 0,0.803331 -4.590698,0 0,-0.803331 c 0,-1.483322 -1.133623,-2.690028 -2.527105,-2.690028 l -0.167854,0 c -1.393481,0 -2.527103,1.206706 -2.527103,2.690028 l 0,0.803331 -0.943287,0 0,-0.803331 c 0,-1.483322 -1.133622,-2.690028 -2.527103,-2.690028 l -0.167855,0 c -1.393481,0 -2.527104,1.206706 -2.527104,2.690028 l 0,0.803331 -0.696739,0 0,-0.803331 c 0,-1.483322 -1.133623,-2.690028 -2.5271214,-2.690028 l -0.1678547,0 c -1.3934812,0 -2.5271038,1.206706 -2.5271038,2.690028 l 0,0.803331 -1.2963462,0 0,-9.882235 23.1934171,0 0,0.803335 c 0,1.483318 1.133621,2.690024 2.527121,2.690024 l 0.167854,0 c 1.393481,0 2.527103,-1.206706 2.527103,-2.690024 l 0,-0.803335 2.232247,0 0,0.803335 c 0,1.483318 1.133621,2.690024 2.527102,2.690024 l 0.167854,0 c 1.393482,0 2.527105,-1.206706 2.527105,-2.690024 l 0,-0.803335 2.795353,0 0,9.882235 -10.249468,0 0,-0.803331 c -2.46e-4,-1.483322 -1.133621,-2.690028 -2.527349,-2.690028 z m -25.8881793,6.117774 1.2963462,0 0,0.803334 c 0,1.483321 1.1336226,2.690027 2.5271038,2.690027 l 0.1678547,0 c 1.3934976,0 2.5271206,-1.206706 2.5271206,-2.690027 l 0,-0.803334 0.696741,0 0,0.803334 c 0,1.483321 1.133622,2.690027 2.527102,2.690027 l 0.167856,0 c 1.39348,0 2.527103,-1.206706 2.527103,-2.690027 l 0,-0.803334 0.943286,0 0,0.803334 c 0,1.483321 1.133622,2.690027 2.527103,2.690027 l 0.167855,0 c 1.393481,0 2.527104,-1.206706 2.527104,-2.690027 l 0,-0.803334 4.590947,0 0,0.803334 c 0,1.483321 1.133622,2.690027 2.52712,2.690027 l 0.167856,0 c 1.393479,0 2.527103,-1.206706 2.527103,-2.690027 l 0,-0.803334 10.249467,0 0,10.10951 -38.6652448,0 0,-10.10951 z"
     id="path3"
     inkscape:connector-curvature="0"
     style="fill:#aa4400" />
</svg>
