<?xml version="1.0" encoding="UTF-8" standalone="no"?>
<svg
   xmlns:dc="http://purl.org/dc/elements/1.1/"
   xmlns:cc="http://creativecommons.org/ns#"
   xmlns:rdf="http://www.w3.org/1999/02/22-rdf-syntax-ns#"
   xmlns:svg="http://www.w3.org/2000/svg"
   xmlns="http://www.w3.org/2000/svg"
   xmlns:sodipodi="http://sodipodi.sourceforge.net/DTD/sodipodi-0.dtd"
   xmlns:inkscape="http://www.inkscape.org/namespaces/inkscape"
   viewBox="0 0 48 48"
   id="svg2"
   version="1.1"
   inkscape:version="0.91 r13725"
   sodipodi:docname="acroread.svg">
  <metadata
     id="metadata19">
    <rdf:RDF>
      <cc:Work
         rdf:about="">
        <dc:format>image/svg+xml</dc:format>
        <dc:type
           rdf:resource="http://purl.org/dc/dcmitype/StillImage" />
        <dc:title></dc:title>
      </cc:Work>
    </rdf:RDF>
  </metadata>
  <sodipodi:namedview
     pagecolor="#ffffff"
     bordercolor="#666666"
     borderopacity="1"
     objecttolerance="10"
     gridtolerance="10"
     guidetolerance="10"
     inkscape:pageopacity="0"
     inkscape:pageshadow="2"
     inkscape:window-width="1280"
     inkscape:window-height="694"
     id="namedview17"
     showgrid="false"
     inkscape:zoom="4.9166667"
     inkscape:cx="-45.661017"
     inkscape:cy="24"
     inkscape:window-x="0"
     inkscape:window-y="0"
     inkscape:window-maximized="1"
     inkscape:current-layer="svg2" />
  <defs
     id="defs4">
    <linearGradient
       id="0"
       gradientUnits="userSpaceOnUse"
       y1="47.37"
       x2="0"
       y2="-1.429"
       gradientTransform="matrix(0.99999,0,0,0.99999,-58.3698,0.88225)">
      <stop
         stop-color="#c52828"
         id="stop7" />
      <stop
         offset="1"
         stop-color="#ff5454"
         id="stop9" />
    </linearGradient>
  </defs>
  <path
     style="fill:#c83737;fill-opacity:0.86299995"
     inkscape:connector-curvature="0"
     id="path15"
     d="m 47.086696,29.746076 c -0.954225,-0.955594 -3.069536,-1.463094 -6.289211,-1.505528 -2.180371,-0.03564 -4.802822,0.169734 -7.562068,0.563513 -1.236155,-0.724759 -2.509011,-1.514015 -3.508279,-2.46452 -2.68918,-2.554475 -4.932943,-6.100191 -6.332584,-10.000647 0.09175,-0.364926 0.168491,-0.684022 0.240223,-1.011607 0,0 1.51475,-8.7531122 1.114376,-11.7132504 -0.05505,-0.40566 -0.08842,-0.5244741 -0.19685,-0.8401766 L 24.420512,2.431 C 24.00846,1.4635242 23.201039,0.44003628 21.934856,0.49604811 l -0.74236,-0.0356442 -0.02002,0 c -1.412985,0 -2.562395,0.73494219 -2.866012,1.83311259 -0.919192,3.4455734 0.02837,8.5986555 1.746634,15.2742415 l -0.440414,1.087987 c -1.22948,3.050095 -2.770922,6.120558 -4.130526,8.83119 l -0.17683,0.353042 c -1.429669,2.848117 -2.727549,5.265108 -3.905315,7.313781 l -1.214469,0.653472 c -0.08842,0.04582 -2.1703626,1.167761 -2.6591527,1.468187 -4.1422041,2.517135 -6.8881042,5.373735 -7.34352914,7.639667 -0.14513757,0.723062 -0.0366949,1.649801 0.70065434,2.077528 l 1.1744318,0.600853 c 0.5104762,0.261389 1.0476442,0.392083 1.5981589,0.392083 2.951091,0 6.3759598,-3.73921 11.0937028,-12.117215 5.448424,-1.804258 11.650888,-3.304694 17.087634,-4.131293 4.142205,2.372864 9.238636,4.020967 12.453307,4.020967 0.570532,0 1.062658,-0.05602 1.463033,-0.162945 0.617244,-0.166339 1.136062,-0.524474 1.453026,-1.009909 0.623915,-0.955596 0.750702,-2.271024 0.580542,-3.618701 C 47.737305,30.56758 47.423677,30.07196 47.08336,29.734193 Z M 3.018845,45.719616 C 3.5560131,44.222575 5.686338,41.264134 8.8359478,38.638371 9.0344666,38.475425 9.5215882,38.01036 9.9686724,37.579238 6.675595,42.922423 4.4702003,45.052567 3.0205124,45.721314 M 21.671276,2.0219453 c 0.949221,0 1.488058,2.4322679 1.533099,4.7134755 0.04504,2.281206 -0.478779,3.8800882 -1.129387,5.0648222 -0.538838,-1.753339 -0.79908,-4.5165854 -0.79908,-6.3242392 0,0 -0.04004,-3.4540585 0.395368,-3.4540585 M 16.107744,33.162795 c 0.660617,-1.203405 1.347925,-2.471306 2.050248,-3.817287 1.711601,-3.294512 2.794278,-5.872751 3.598364,-7.991013 1.601496,2.965228 3.596694,5.485758 5.942221,7.505576 0.291938,0.251206 0.602228,0.505804 0.927532,0.757009 -4.767788,0.960686 -8.889974,2.128447 -12.518365,3.545715 m 30.061427,-0.271572 c -0.290271,0.183311 -1.122715,0.293638 -1.658216,0.293638 -1.726613,0 -3.863611,-0.802836 -6.859745,-2.109779 1.151076,-0.08826 2.207064,-0.130695 3.152947,-0.130695 1.731619,0 2.245432,0 3.938682,0.431122 1.693249,0.439607 1.714936,1.332401 1.424663,1.517409 z" />
</svg>
