<?xml version="1.0" encoding="UTF-8" standalone="no"?>
<svg
   xmlns:dc="http://purl.org/dc/elements/1.1/"
   xmlns:cc="http://creativecommons.org/ns#"
   xmlns:rdf="http://www.w3.org/1999/02/22-rdf-syntax-ns#"
   xmlns:svg="http://www.w3.org/2000/svg"
   xmlns="http://www.w3.org/2000/svg"
   xmlns:sodipodi="http://sodipodi.sourceforge.net/DTD/sodipodi-0.dtd"
   xmlns:inkscape="http://www.inkscape.org/namespaces/inkscape"
   viewBox="0 0 48 48"
   id="svg2"
   version="1.1"
   inkscape:version="0.91 r13725"
   sodipodi:docname="AdobeEncore.svg">
  <metadata
     id="metadata23">
    <rdf:RDF>
      <cc:Work
         rdf:about="">
        <dc:format>image/svg+xml</dc:format>
        <dc:type
           rdf:resource="http://purl.org/dc/dcmitype/StillImage" />
        <dc:title></dc:title>
      </cc:Work>
    </rdf:RDF>
  </metadata>
  <sodipodi:namedview
     pagecolor="#ffffff"
     bordercolor="#666666"
     borderopacity="1"
     objecttolerance="10"
     gridtolerance="10"
     guidetolerance="10"
     inkscape:pageopacity="0"
     inkscape:pageshadow="2"
     inkscape:window-width="1280"
     inkscape:window-height="694"
     id="namedview21"
     showgrid="false"
     inkscape:zoom="4.9166667"
     inkscape:cx="-45.661017"
     inkscape:cy="24"
     inkscape:window-x="0"
     inkscape:window-y="0"
     inkscape:window-maximized="1"
     inkscape:current-layer="svg2" />
  <defs
     id="defs4">
    <clipPath
       id="clipPath6">
      <path
         d="m7 1023.36h1v1h-1z"
         id="path8" />
    </clipPath>
    <linearGradient
       id="0"
       gradientUnits="userSpaceOnUse"
       y1="61.831"
       x2="0"
       y2="-.203">
      <stop
         stop-color="#7f66db"
         id="stop11" />
      <stop
         stop-color="#bea7ff"
         offset="1"
         id="stop13" />
    </linearGradient>
  </defs>
  <path
     style="fill:#a02c2c;fill-rule:evenodd;stroke-width:1.31700003"
     inkscape:connector-curvature="0"
     id="path19"
     d="m 3.5640913,47.945031 41.0681897,0 c 1.748691,0 3.18062,-1.366558 3.18062,-3.037947 l 0,-41.6188417 c 0,-1.6672417 -1.431929,-3.03794681 -3.18062,-3.03794681 l -41.0681897,0 c -1.7530298,0 -3.1806211,1.37070511 -3.1806211,3.03794681 l 0,41.6188417 c 0,1.671389 1.4297602,3.037947 3.1806211,3.037947 M 40.054443,3.9621903 c 0,-0.5039058 0.431749,-0.9103469 0.954621,-0.9103469 l 2.981017,0 c 0.527212,0 0.952451,0.4064411 0.952451,0.9103469 l 0,2.9342629 c 0,0.5039059 -0.425239,0.9103471 -0.952451,0.9103471 l -2.981017,0 c -0.522872,0 -0.954621,-0.4064412 -0.954621,-0.9103471 l 0,-2.9342629 m 0,7.4652627 c 0,-0.503906 0.431749,-0.912421 0.954621,-0.912421 l 2.981017,0 c 0.527212,0 0.952451,0.408515 0.952451,0.912421 l 0,2.934263 c 0,0.503906 -0.425239,0.914496 -0.952451,0.914496 l -2.981017,0 c -0.522872,0 -0.954621,-0.41059 -0.954621,-0.914496 l 0,-2.934263 m 0,7.46941 c 0,-0.503905 0.431749,-0.914493 0.954621,-0.914493 l 2.981017,0 c 0.527212,0 0.952451,0.410588 0.952451,0.914493 l 0,2.936337 c 0,0.499757 -0.425239,0.910347 -0.952451,0.910347 l -2.981017,0 c -0.522872,0 -0.954621,-0.41059 -0.954621,-0.910347 l 0,-2.936337 m 0,7.465263 c 0,-0.503905 0.431749,-0.914493 0.954621,-0.914493 l 2.981017,0 c 0.527212,0 0.952451,0.410588 0.952451,0.914493 l 0,2.936337 c 0,0.503906 -0.425239,0.910347 -0.952451,0.910347 l -2.981017,0 c -0.522872,0 -0.954621,-0.408516 -0.954621,-0.910347 l 0,-2.936337 m 0,7.465262 c 0,-0.503904 0.431749,-0.910347 0.954621,-0.910347 l 2.981017,0 c 0.527212,0 0.952451,0.406443 0.952451,0.910347 l 0,2.936338 c 0,0.501831 -0.425239,0.908274 -0.952451,0.908274 l -2.981017,0 c -0.522872,0 -0.954621,-0.408517 -0.954621,-0.908274 l 0,-2.936338 m 0,7.465263 c 0,-0.501831 0.431749,-0.910347 0.954621,-0.910347 l 2.981017,0 c 0.527212,0 0.952451,0.410591 0.952451,0.910347 l 0,2.940486 c 0,0.497683 -0.425239,0.908273 -0.952451,0.908273 l -2.981017,0 c -0.522872,0 -0.954621,-0.41059 -0.954621,-0.908273 l 0,-2.940486 M 11.409332,6.1665161 c 0,-0.5039043 0.42958,-0.9103471 0.956789,-0.9103471 l 23.464128,0 c 0.522872,0 0.952452,0.4064428 0.952452,0.9103471 l 0,14.5365269 c 0,0.499758 -0.42958,0.914495 -0.952452,0.914495 l -23.464128,0 c -0.527209,0 -0.956789,-0.414737 -0.956789,-0.914495 0,0 0,-14.5365269 0,-14.5365269 m 0,22.4061569 c 0,-0.499757 0.42958,-0.908273 0.956789,-0.908273 l 23.464128,0 c 0.522872,0 0.952452,0.408516 0.952452,0.908273 l 0,13.431253 c 0,0.501832 -0.42958,0.910347 -0.952452,0.910347 l -23.464128,0 c -0.527209,0 -0.956789,-0.410589 -0.956789,-0.910347 0,0 0,-13.431253 0,-13.431253 M 3.2495012,3.9642636 c 0,-0.5039043 0.4295775,-0.9103469 0.9546193,-0.9103469 l 2.9831878,0 c 0.5228717,0 0.9502816,0.4064426 0.9502816,0.9103469 l 0,2.9342629 c 0,0.5039058 -0.4274099,0.9103469 -0.9502816,0.9103469 l -2.9831878,0 c -0.5250418,0 -0.9546193,-0.4064411 -0.9546193,-0.9103469 0,0 0,-2.9342629 0,-2.9342629 m 0,7.4652634 c 0,-0.503905 0.4295775,-0.91242 0.9546193,-0.91242 l 2.9831878,0 c 0.5228717,0 0.9502816,0.408515 0.9502816,0.91242 l 0,2.934262 c 0,0.503906 -0.4274099,0.914495 -0.9502816,0.914495 l -2.9831878,0 c -0.5250418,0 -0.9546193,-0.410589 -0.9546193,-0.914495 0,0 0,-2.934262 0,-2.934262 m 0,7.46941 c 0,-0.503905 0.4295775,-0.914494 0.9546193,-0.914494 l 2.9831878,0 c 0.5228717,0 0.9502816,0.410589 0.9502816,0.914494 l 0,2.936336 c 0,0.499758 -0.4274099,0.910348 -0.9502816,0.910348 l -2.9831878,0 c -0.5250418,0 -0.9546193,-0.41059 -0.9546193,-0.910348 0,0 0,-2.936336 0,-2.936336 m 0,7.465263 c 0,-0.503906 0.4295775,-0.914494 0.9546193,-0.914494 l 2.9831878,0 c 0.5228717,0 0.9502816,0.410588 0.9502816,0.914494 l 0,2.936336 c 0,0.503906 -0.4274099,0.910348 -0.9502816,0.910348 l -2.9831878,0 c -0.5250418,0 -0.9546193,-0.408515 -0.9546193,-0.910348 0,0 0,-2.936336 0,-2.936336 m 0,7.465263 c 0,-0.503906 0.4295775,-0.910347 0.9546193,-0.910347 l 2.9831878,0 c 0.5228717,0 0.9502816,0.406441 0.9502816,0.910347 l 0,2.936336 c 0,0.501833 -0.4274099,0.908274 -0.9502816,0.908274 l -2.9831878,0 c -0.5250418,0 -0.9546193,-0.408516 -0.9546193,-0.908274 0,0 0,-2.936336 0,-2.936336 m 0,7.465263 c 0,-0.501831 0.4295775,-0.910347 0.9546193,-0.910347 l 2.9831878,0 c 0.5228717,0 0.9502816,0.410589 0.9502816,0.910347 l 0,2.940485 c 0,0.497684 -0.4274099,0.908273 -0.9502816,0.908273 l -2.9831878,0 c -0.5250418,0 -0.9546193,-0.410589 -0.9546193,-0.908273 0,0 0,-2.940485 0,-2.940485" />
</svg>
