<?xml version="1.0" encoding="UTF-8" standalone="no"?>
<svg
   xmlns:dc="http://purl.org/dc/elements/1.1/"
   xmlns:cc="http://creativecommons.org/ns#"
   xmlns:rdf="http://www.w3.org/1999/02/22-rdf-syntax-ns#"
   xmlns:svg="http://www.w3.org/2000/svg"
   xmlns="http://www.w3.org/2000/svg"
   xmlns:sodipodi="http://sodipodi.sourceforge.net/DTD/sodipodi-0.dtd"
   xmlns:inkscape="http://www.inkscape.org/namespaces/inkscape"
   viewBox="0 0 48 48"
   id="svg2"
   version="1.1"
   inkscape:version="0.91 r13725"
   sodipodi:docname="AdobeAudition.svg">
  <metadata
     id="metadata23">
    <rdf:RDF>
      <cc:Work
         rdf:about="">
        <dc:format>image/svg+xml</dc:format>
        <dc:type
           rdf:resource="http://purl.org/dc/dcmitype/StillImage" />
        <dc:title></dc:title>
      </cc:Work>
    </rdf:RDF>
  </metadata>
  <sodipodi:namedview
     pagecolor="#ffffff"
     bordercolor="#666666"
     borderopacity="1"
     objecttolerance="10"
     gridtolerance="10"
     guidetolerance="10"
     inkscape:pageopacity="0"
     inkscape:pageshadow="2"
     inkscape:window-width="1280"
     inkscape:window-height="694"
     id="namedview21"
     showgrid="false"
     inkscape:zoom="4.9166667"
     inkscape:cx="-45.661017"
     inkscape:cy="24"
     inkscape:window-x="0"
     inkscape:window-y="0"
     inkscape:window-maximized="1"
     inkscape:current-layer="svg2" />
  <defs
     id="defs4">
    <clipPath
       id="clipPath6">
      <path
         d="m7 1023.36h1v1h-1z"
         id="path8" />
    </clipPath>
    <linearGradient
       id="0"
       gradientUnits="userSpaceOnUse"
       y1="61.831"
       x2="0"
       y2="-.203">
      <stop
         stop-color="#0cb096"
         id="stop11" />
      <stop
         stop-color="#34d6b6"
         offset="1"
         id="stop13" />
    </linearGradient>
  </defs>
  <path
     style="fill:#a02c2c;fill-rule:evenodd;enable-background:new"
     inkscape:connector-curvature="0"
     id="path19"
     d="m 45.060917,21.814924 -7.951097,0 0,-2.285435 c 0,-1.261725 -1.187171,-2.285435 -2.650365,-2.285435 -1.463194,0 -2.650365,1.02371 -2.650365,2.285435 l 0,0.761407 c 0,0.672758 -0.980156,1.524028 -1.767381,1.524028 -0.785814,0 -1.767379,-0.850055 -1.767379,-1.524028 l 0,-6.856306 c 0,-1.261725 -1.187172,-2.285435 -2.650365,-2.285435 -1.463194,0 -2.650365,1.02371 -2.650365,2.285435 l 0,0.761407 c 0,0.672759 -0.980158,3.046842 -1.765972,3.046842 -0.785815,0 -1.767379,-2.374083 -1.767379,-3.046842 l 0,-8.3803347 c 0,-1.2617254 -1.187173,-2.2854354 -2.650367,-2.2854354 -1.463192,0 -2.650365,1.0224956 -2.650365,2.2854354 l 0,3.8094641 -0.07464,0 c -0.183075,0.8415546 -0.778774,1.5240286 -2.674306,1.5240286 -1.7265399,0 -2.2898482,-0.681259 -2.4701068,-1.5240286 l -0.081679,0 0,-0.8549132 c -0.00422,-0.2258718 0,-0.4529579 0,-0.6691159 0,-1.3467306 -0.5013444,-7.61771281 -5.9879671,-7.61771281 -1.5716301,0 -2.84470677,1.09171441 -2.84470677,2.44087411 l 0,42.3558464 c 0,1.34673 1.27448497,2.440873 2.84470677,2.440873 5.4866227,0 5.9879671,-6.270981 5.9879671,-7.617712 0,-0.216157 -0.00422,-0.443243 0,-0.669116 l 0,-0.854914 0.081679,0 c 0.1802583,-0.841554 0.7421584,-1.524027 2.4701068,-1.524027 1.75048,0 2.423634,0.686116 2.684164,1.524027 l 0.06478,0 0,3.809465 c 0,1.261725 1.187173,2.285435 2.650366,2.285435 1.463193,0 2.650366,-1.02371 2.650366,-2.285435 l 0,-8.37912 c 0,-0.672759 0.980157,-3.046843 1.767379,-3.046843 0.785816,0 1.765972,2.374084 1.765972,3.046843 l 0,0.761406 c 0,1.261726 1.187172,2.285436 2.650366,2.285436 1.463192,0 2.650365,-1.02371 2.650365,-2.285436 l 0,-6.856305 c 0,-0.672759 0.980156,-1.524029 1.767379,-1.524029 0.785816,0 1.767381,0.850055 1.767381,1.524029 l 0,0.761406 c 0,1.261727 1.187171,2.285436 2.650365,2.285436 1.463194,0 2.650365,-1.023709 2.650365,-2.285436 l 0,-2.285435 7.951097,0 c 1.463192,0 2.650365,-1.02371 2.650365,-2.285435 0,-1.261727 -1.185764,-2.285437 -2.650365,-2.285437" />
</svg>
