<?xml version="1.0" encoding="UTF-8" standalone="no"?>
<svg
   xmlns:dc="http://purl.org/dc/elements/1.1/"
   xmlns:cc="http://creativecommons.org/ns#"
   xmlns:rdf="http://www.w3.org/1999/02/22-rdf-syntax-ns#"
   xmlns:svg="http://www.w3.org/2000/svg"
   xmlns="http://www.w3.org/2000/svg"
   xmlns:sodipodi="http://sodipodi.sourceforge.net/DTD/sodipodi-0.dtd"
   xmlns:inkscape="http://www.inkscape.org/namespaces/inkscape"
   viewBox="0 0 48 48"
   id="svg2"
   version="1.1"
   inkscape:version="0.91 r13725"
   sodipodi:docname="AirPortUtility.svg">
  <metadata
     id="metadata27">
    <rdf:RDF>
      <cc:Work
         rdf:about="">
        <dc:format>image/svg+xml</dc:format>
        <dc:type
           rdf:resource="http://purl.org/dc/dcmitype/StillImage" />
        <dc:title></dc:title>
      </cc:Work>
    </rdf:RDF>
  </metadata>
  <sodipodi:namedview
     pagecolor="#ffffff"
     bordercolor="#666666"
     borderopacity="1"
     objecttolerance="10"
     gridtolerance="10"
     guidetolerance="10"
     inkscape:pageopacity="0"
     inkscape:pageshadow="2"
     inkscape:window-width="1280"
     inkscape:window-height="694"
     id="namedview25"
     showgrid="false"
     inkscape:zoom="4.9166667"
     inkscape:cx="-38.135593"
     inkscape:cy="24"
     inkscape:window-x="0"
     inkscape:window-y="0"
     inkscape:window-maximized="1"
     inkscape:current-layer="svg2" />
  <defs
     id="defs4">
    <linearGradient
       id="0"
       y1="653.96"
       x2="0"
       y2="301.3"
       gradientUnits="userSpaceOnUse"
       gradientTransform="matrix(0.13837718,0,0,0.13837718,69.09329,-42.257869)">
      <stop
         stop-color="#0a80fd"
         id="stop7" />
      <stop
         offset="1"
         stop-color="#56c5fa"
         id="stop9" />
    </linearGradient>
  </defs>
  <g
     style="fill:#2a7fff"
     id="g15"
     transform="matrix(3.0853153,0,0,4.3309712,-62.624636,-59.590911)">
    <path
       inkscape:connector-curvature="0"
       id="path17"
       d="m 28.04,13.847 c -2.891,0 -5.608,1.126 -7.652,3.17 l 1.167,1.167 c 1.732,-1.732 4.04,-2.686 6.485,-2.686 2.45,0 4.753,0.954 6.485,2.686 l 1.167,-1.167 c -2.044,-2.044 -4.761,-3.17 -7.652,-3.17"
       style="fill:#2a7fff" />
    <path
       inkscape:connector-curvature="0"
       id="path19"
       d="m 22.466,19.09 1.167,1.167 c 1.178,-1.178 2.745,-1.828 4.412,-1.828 1.667,0 3.233,0.649 4.412,1.828 l 1.167,-1.167 c -1.49,-1.49 -3.471,-2.311 -5.579,-2.311 -2.108,0 -4.089,0.821 -5.579,2.311"
       style="fill:#2a7fff" />
    <path
       inkscape:connector-curvature="0"
       id="path21"
       d="m 24.541,21.17 1.167,1.167 c 0.624,-0.624 1.454,-0.968 2.337,-0.968 0.883,0 1.712,0.344 2.337,0.968 l 1.167,-1.167 c -0.936,-0.936 -2.18,-1.451 -3.504,-1.451 -1.324,0 -2.568,0.515 -3.504,1.451"
       style="fill:#2a7fff" />
    <path
       inkscape:connector-curvature="0"
       id="path23"
       d="m 28.04,22.994 c -0.429,0 -0.858,0.164 -1.185,0.491 -0.011,0.011 -0.022,0.023 -0.033,0.035 l 1.218,1.222 1.221,-1.218 C 29.249,23.511 29.237,23.498 29.225,23.486 28.898,23.159 28.469,22.995 28.04,22.995"
       style="fill:#2a7fff" />
  </g>
</svg>
