<?xml version="1.0" encoding="UTF-8" standalone="no"?>
<svg
   xmlns:dc="http://purl.org/dc/elements/1.1/"
   xmlns:cc="http://creativecommons.org/ns#"
   xmlns:rdf="http://www.w3.org/1999/02/22-rdf-syntax-ns#"
   xmlns:svg="http://www.w3.org/2000/svg"
   xmlns="http://www.w3.org/2000/svg"
   xmlns:sodipodi="http://sodipodi.sourceforge.net/DTD/sodipodi-0.dtd"
   xmlns:inkscape="http://www.inkscape.org/namespaces/inkscape"
   viewBox="0 0 48 48"
   id="svg2"
   version="1.1"
   inkscape:version="0.91 r13725"
   sodipodi:docname="airwave-manager.svg">
  <metadata
     id="metadata19">
    <rdf:RDF>
      <cc:Work
         rdf:about="">
        <dc:format>image/svg+xml</dc:format>
        <dc:type
           rdf:resource="http://purl.org/dc/dcmitype/StillImage" />
        <dc:title></dc:title>
      </cc:Work>
    </rdf:RDF>
  </metadata>
  <sodipodi:namedview
     pagecolor="#ffffff"
     bordercolor="#666666"
     borderopacity="1"
     objecttolerance="10"
     gridtolerance="10"
     guidetolerance="10"
     inkscape:pageopacity="0"
     inkscape:pageshadow="2"
     inkscape:window-width="1280"
     inkscape:window-height="694"
     id="namedview17"
     showgrid="false"
     inkscape:zoom="4.9166667"
     inkscape:cx="-9.1525424"
     inkscape:cy="24"
     inkscape:window-x="0"
     inkscape:window-y="0"
     inkscape:window-maximized="1"
     inkscape:current-layer="svg2" />
  <defs
     id="defs4">
    <linearGradient
       id="0"
       gradientUnits="userSpaceOnUse"
       y1="37.37"
       x2="0"
       y2="-11.429"
       gradientTransform="matrix(0.99999,0,0,0.99999,-63.37,10.882)">
      <stop
         stop-color="#c52828"
         id="stop7" />
      <stop
         offset="1"
         stop-color="#ff5454"
         id="stop9" />
    </linearGradient>
  </defs>
  <path
     style="fill:#aa0000;fill-opacity:0.847;fill-rule:evenodd;stroke-width:1.31700003"
     inkscape:connector-curvature="0"
     id="path15"
     d="m 47.573513,21.302932 c -0.07528,-0.657495 -0.852185,-1.152368 -1.52399,-1.152368 -2.173071,0 -4.101849,-1.258917 -4.910003,-3.207572 C 40.3129,14.948075 40.845517,12.620904 42.466087,11.154507 42.975978,10.69468 43.03847,9.9250307 42.610958,9.3895014 41.498858,7.996003 40.234784,6.735686 38.854246,5.6450004 38.313107,5.2174177 37.520576,5.2762986 37.051874,5.7879953 35.638669,7.3329 33.099159,7.9076832 31.137715,7.0987815 29.096732,6.2506259 27.808513,4.2094443 27.934922,2.0168575 27.976109,1.3285197 27.46622,0.72990404 26.77169,0.6499952 25.000566,0.44812012 23.21382,0.44111064 21.437014,0.64859328 20.749586,0.72289525 20.239695,1.3074909 20.262421,1.9874173 20.339118,4.1575745 19.036694,6.1637066 17.015596,6.9810199 15.076877,7.7618845 12.555832,7.192709 11.145467,5.6618234 10.679606,5.157135 9.8984365,5.0954517 9.3558783,5.5132209 7.9355702,6.61372 6.6416704,7.874037 5.5196271,9.2563201 5.0821723,9.7932513 5.1460876,10.572714 5.6616596,11.035345 c 1.6503985,1.474809 2.1830126,3.821605 1.3265676,5.840355 -0.8180971,1.923422 -2.8406149,3.164111 -5.159977,3.164111 -0.7513426,-0.02383 -1.28679865,0.473846 -1.36917638,1.149566 -0.20878521,1.757997 -0.21162584,3.549637 -0.009939,5.323053 0.0738559,0.660299 0.87490937,1.150968 1.55523667,1.150968 2.0651268,-0.05187 4.0478766,1.209847 4.8787567,3.207569 0.8294589,1.994919 0.2954246,4.320687 -1.3265675,5.787085 -0.5070493,0.459825 -0.5723847,1.229475 -0.1448716,1.763603 1.1021587,1.385087 2.3662322,2.645403 3.7510324,3.745902 0.5439783,0.431789 1.3336679,0.371508 1.8052109,-0.141593 1.418888,-1.549108 3.956976,-2.12249 5.911319,-1.312186 2.046664,0.845351 3.334883,2.886531 3.208476,5.080522 -0.04119,0.688337 0.471543,1.288354 1.163232,1.366861 0.906156,0.10374 1.817993,0.157015 2.73125,0.157015 0.867808,0 1.735616,-0.04767 2.603424,-0.142995 0.687428,-0.0743 1.19732,-0.658899 1.174595,-1.340227 -0.07954,-2.168753 1.225725,-4.174888 3.243982,-4.990798 1.951502,-0.786472 4.462606,-0.210288 5.872973,1.319195 0.4687,0.503287 1.244188,0.563568 1.789586,0.147201 1.418888,-1.097695 2.708526,-2.35661 3.836251,-3.743099 0.437455,-0.536931 0.376381,-1.316393 -0.142033,-1.779023 -1.650397,-1.47481 -2.185854,-3.823009 -1.327987,-5.838956 0.806735,-1.898185 2.755397,-3.172521 4.850349,-3.172521 l 0.292584,0.007 c 0.680327,0.05467 1.305263,-0.462631 1.38764,-1.146762 0.208786,-1.759397 0.211627,-3.549635 0.01,-5.323052 M 24.04754,31.769552 c -4.361764,0 -7.909692,-3.501971 -7.909692,-7.807238 0,-4.305264 3.547928,-7.807235 7.909692,-7.807235 4.361764,0 7.909692,3.501971 7.909692,7.807235 0,4.305267 -3.547928,7.807238 -7.909692,7.807238" />
</svg>
