<?xml version="1.0" encoding="UTF-8" standalone="no"?>
<svg
   xmlns:dc="http://purl.org/dc/elements/1.1/"
   xmlns:cc="http://creativecommons.org/ns#"
   xmlns:rdf="http://www.w3.org/1999/02/22-rdf-syntax-ns#"
   xmlns:svg="http://www.w3.org/2000/svg"
   xmlns="http://www.w3.org/2000/svg"
   xmlns:sodipodi="http://sodipodi.sourceforge.net/DTD/sodipodi-0.dtd"
   xmlns:inkscape="http://www.inkscape.org/namespaces/inkscape"
   viewBox="0 0 48 48"
   id="svg2"
   version="1.1"
   inkscape:version="0.91 r13725"
   sodipodi:docname="alienarena.svg">
  <metadata
     id="metadata23">
    <rdf:RDF>
      <cc:Work
         rdf:about="">
        <dc:format>image/svg+xml</dc:format>
        <dc:type
           rdf:resource="http://purl.org/dc/dcmitype/StillImage" />
        <dc:title></dc:title>
      </cc:Work>
    </rdf:RDF>
  </metadata>
  <sodipodi:namedview
     pagecolor="#ffffff"
     bordercolor="#666666"
     borderopacity="1"
     objecttolerance="10"
     gridtolerance="10"
     guidetolerance="10"
     inkscape:pageopacity="0"
     inkscape:pageshadow="2"
     inkscape:window-width="1280"
     inkscape:window-height="694"
     id="namedview21"
     showgrid="false"
     inkscape:zoom="4.9166667"
     inkscape:cx="-9.1525424"
     inkscape:cy="24"
     inkscape:window-x="0"
     inkscape:window-y="0"
     inkscape:window-maximized="1"
     inkscape:current-layer="svg2" />
  <defs
     id="defs4">
    <linearGradient
       y1="545.8"
       x2="0"
       y2="517.8"
       gradientUnits="userSpaceOnUse"
       id="linearGradient6">
      <stop
         stop-color="#3889e9"
         id="stop8" />
      <stop
         offset="1"
         stop-color="#5ea5fb"
         id="stop10" />
    </linearGradient>
    <linearGradient
       id="0"
       gradientUnits="userSpaceOnUse"
       y1="545.14"
       x2="0"
       y2="518.14">
      <stop
         stop-color="#30cf41"
         id="stop13" />
      <stop
         offset="1"
         stop-color="#47f383"
         id="stop15" />
    </linearGradient>
  </defs>
  <path
     d="m 0.31488315,18.81205 c 0,12.208313 12.69736285,29.094294 23.91094185,29.094294 10.556868,0 23.910941,-16.885206 23.910941,-29.094294 0,-12.2083118 -10.705444,-18.36481271 -23.910941,-18.36481271 -13.205496,0 -23.91094185,6.15650091 -23.91094185,18.36481271 M 30.438311,27.840138 c 2.919533,-2.285714 6.993011,-3.116637 10.752,-2.494706 0.79439,2.943241 -0.26724,6.132462 -3.186474,8.417788 -2.919533,2.285714 -6.993011,3.116637 -10.752,2.494706 -0.79439,-2.943319 0.26724,-6.132462 3.186474,-8.417788 z M 7.2613396,25.345432 c 3.7593854,-0.621931 7.8329624,0.209224 10.7519984,2.494706 2.919533,2.285714 3.980864,5.474857 3.186475,8.417788 C 17.440427,36.879857 13.366849,36.048702 10.447814,33.76322 7.5282809,31.477429 6.4669493,28.288363 7.2613396,25.345432"
     id="path19"
     inkscape:connector-curvature="0"
     style="fill:#195c28" />
</svg>
