<?xml version="1.0" encoding="UTF-8" standalone="no"?>
<!-- Generator: Adobe Illustrator 19.0.0, SVG Export Plug-In . SVG Version: 6.00 Build 0)  -->

<svg
   xmlns:dc="http://purl.org/dc/elements/1.1/"
   xmlns:cc="http://creativecommons.org/ns#"
   xmlns:rdf="http://www.w3.org/1999/02/22-rdf-syntax-ns#"
   xmlns:svg="http://www.w3.org/2000/svg"
   xmlns="http://www.w3.org/2000/svg"
   xmlns:sodipodi="http://sodipodi.sourceforge.net/DTD/sodipodi-0.dtd"
   xmlns:inkscape="http://www.inkscape.org/namespaces/inkscape"
   version="1.1"
   id="Capa_1"
   x="0px"
   y="0px"
   viewBox="0 0 149.589 149.589"
   style="enable-background:new 0 0 149.589 149.589;"
   xml:space="preserve"
   inkscape:version="0.91 r13725"
   sodipodi:docname="amark.svg"><metadata
     id="metadata125"><rdf:RDF><cc:Work
         rdf:about=""><dc:format>image/svg+xml</dc:format><dc:type
           rdf:resource="http://purl.org/dc/dcmitype/StillImage" /><dc:title></dc:title></cc:Work></rdf:RDF></metadata><defs
     id="defs123" /><sodipodi:namedview
     pagecolor="#ffffff"
     bordercolor="#666666"
     borderopacity="1"
     objecttolerance="10"
     gridtolerance="10"
     guidetolerance="10"
     inkscape:pageopacity="0"
     inkscape:pageshadow="2"
     inkscape:window-width="1280"
     inkscape:window-height="694"
     id="namedview121"
     showgrid="false"
     inkscape:zoom="1.5776561"
     inkscape:cx="-28.523327"
     inkscape:cy="74.794502"
     inkscape:window-x="0"
     inkscape:window-y="0"
     inkscape:window-maximized="1"
     inkscape:current-layer="Capa_1" /><g
     id="g7"
     style="fill:#939dac"><path
       style="fill:#939dac"
       d="m 120.512,109.557 c 0,0 16.013,11.026 15.423,38.957 0,0 -16.663,-30.418 -50.752,-24.37 0,10e-4 7.321,-19.924 35.329,-14.587 z"
       id="path9"
       inkscape:connector-curvature="0" /><path
       style="fill:#939dac"
       d="m 29.077,109.557 c 0,0 -16.014,11.026 -15.423,38.957 0,0 16.663,-30.418 50.752,-24.37 0,10e-4 -7.322,-19.924 -35.329,-14.587 z"
       id="path11"
       inkscape:connector-curvature="0" /></g><g
     id="g13"
     style="fill:#939dac"><path
       style="fill:#939dac"
       d="m 127.374,98.549 c 0,0 18.417,11.026 17.738,38.958 0,0 -19.165,-30.419 -58.37,-24.37 0,0 8.421,-19.925 40.632,-14.588 z"
       id="path15"
       inkscape:connector-curvature="0" /><path
       style="fill:#939dac"
       d="m 22.215,98.549 c 0,0 -18.418,11.026 -17.738,38.958 0,0 19.164,-30.419 58.37,-24.37 0,0 -8.421,-19.925 -40.632,-14.588 z"
       id="path17"
       inkscape:connector-curvature="0" /></g><path
     style="fill:#939dac"
     d="m 133.637,86.394 c 9.877,2.546 14.291,9.761 14.291,9.761 C 146.456,69.842 125.021,58.383 125.021,58.383 L 112.202,14.881 c -7.985,5.729 -28.58,14.218 -37.407,14.218 -8.826,0 -29.421,-8.488 -37.407,-14.218 L 24.569,58.383 c 0,0 -21.436,11.459 -22.907,37.772 0,0 4.413,-7.215 14.29,-9.761 0,0 -18.913,10.822 -15.551,29.921 9.036,-11.459 34.675,-18.674 46.864,-12.732 12.188,5.942 10.928,16.977 12.398,25.677 0.836,4.945 1.843,10.333 5.167,13.029 2.524,2.048 7.061,2.037 9.964,2.037 2.903,0 7.44,0.011 9.965,-2.037 3.324,-2.697 4.33,-8.084 5.166,-13.029 1.472,-8.7 0.211,-19.735 12.399,-25.677 12.189,-5.942 37.827,1.274 46.864,12.732 3.363,-19.098 -15.551,-29.921 -15.551,-29.921 z"
     id="path19"
     inkscape:connector-curvature="0" /><g
     style="fill:#b7bec8"
     id="g23"><g
       style="fill:#b7bec8"
       id="g25"><g
         style="fill:#b7bec8"
         id="g27"><path
           inkscape:connector-curvature="0"
           id="path29"
           d="m 31.852,1.163 c 1.793,-0.913 9.218,5.296 14.459,13.263 4.404,6.695 7.4,19.388 6.926,24.99 C 52.503,48.071 36.871,60.828 26.236,62.789 19.725,45.141 24.675,4.815 31.852,1.163 Z"
           style="fill:#b7bec8" /></g></g><g
       style="fill:#b7bec8"
       id="g31"><g
         style="fill:#b7bec8"
         id="g33"><path
           inkscape:connector-curvature="0"
           id="path35"
           d="M 33.596,9.559 C 34.9,8.895 40.299,13.41 44.11,19.202 47.312,24.071 49.491,33.3 49.145,37.373 48.612,43.666 37.246,52.942 29.512,54.368 24.778,41.536 28.378,12.215 33.596,9.559 Z"
           style="fill:#b7bec8" /></g></g></g><g
     style="fill:#b7bec8"
     id="g37"><g
       style="fill:#b7bec8"
       id="g39"><g
         style="fill:#b7bec8"
         id="g41"><path
           inkscape:connector-curvature="0"
           id="path43"
           d="m 117.737,1.163 c -1.794,-0.913 -9.218,5.296 -14.459,13.263 -4.405,6.695 -7.401,19.388 -6.926,24.99 0.733,8.655 16.366,21.412 27.001,23.373 6.511,-17.648 1.561,-57.974 -5.616,-61.626 z"
           style="fill:#b7bec8" /></g></g><g
       style="fill:#b7bec8"
       id="g45"><g
         style="fill:#b7bec8"
         id="g47"><path
           inkscape:connector-curvature="0"
           id="path49"
           d="m 115.993,9.559 c -1.305,-0.664 -6.703,3.851 -10.514,9.643 -3.203,4.869 -5.382,14.098 -5.036,18.171 0.534,6.293 11.9,15.569 19.633,16.995 4.735,-12.832 1.135,-42.153 -4.083,-44.809 z"
           style="fill:#b7bec8" /></g></g></g><path
     style="fill:#b7bec8"
     d="m 101.043,89.155 0,9.899 -26.24,0 -0.018,0 -26.24,0 0,-9.899 c -8.198,-4.568 -22.081,-1.143 -22.081,4.949 0,6.092 18.36,15.933 28.688,39.977 5.143,11.974 16.593,12.575 19.509,12.601 l 0,0.001 c 0.039,0 0.089,0 0.134,0 0.046,0 0.095,0 0.135,0 l 0,-0.001 c 2.915,-0.026 14.364,-0.627 19.508,-12.601 10.328,-24.044 28.688,-33.885 28.688,-39.977 -0.001,-6.092 -13.884,-9.517 -22.083,-4.949 z"
     id="path51"
     inkscape:connector-curvature="0" /><path
     style="fill:#525759"
     d="m 74.794,133.977 -10.321,8.133 c 0,0 1.673,5.305 10.321,5.305 8.648,0 10.322,-5.305 10.322,-5.305 l -10.322,-8.133 z"
     id="path53"
     inkscape:connector-curvature="0" /><path
     style="fill:#939dac"
     d="m 47.265,97.449 c 12.188,6.836 10.928,19.532 12.398,29.542 0.836,5.69 1.843,11.888 5.167,14.991 2.524,2.356 7.061,2.344 9.964,2.344 2.903,0 7.44,0.012 9.965,-2.344 3.324,-3.102 4.33,-9.301 5.166,-14.991 1.472,-10.01 0.211,-22.706 12.399,-29.542 12.189,-6.835 -67.249,-6.835 -55.059,0 z"
     id="path55"
     inkscape:connector-curvature="0" /><g
     id="g57"
     style="fill:#939dac"><path
       style="fill:#939dac"
       d="m 111.186,104.477 c 0,0 1.801,-20.464 -4.954,-28.423 -6.756,-7.958 -16.889,-3.638 -17.79,2.502 -0.9,6.139 0.528,18.723 4.954,21.146 4.425,2.424 17.79,4.775 17.79,4.775 z"
       id="path59"
       inkscape:connector-curvature="0" /><path
       style="fill:#939dac"
       d="m 38.403,104.477 c 0,0 -1.802,-20.464 4.954,-28.423 6.756,-7.958 16.889,-3.638 17.789,2.502 0.901,6.139 -0.528,18.723 -4.954,21.146 -4.425,2.424 -17.789,4.775 -17.789,4.775 z"
       id="path61"
       inkscape:connector-curvature="0" /></g><g
     id="g63"
     style="fill:#80b3ff"><g
       id="g65"
       style="fill:#80b3ff"><path
         style="fill:#80b3ff"
         d="m 86.742,89.85 c 0,0 11.64,-2.014 17.469,-10.345 0,0 -5.561,-6.11 -12.49,-0.959 -4.652,3.459 -4.979,11.304 -4.979,11.304 z"
         id="path67"
         inkscape:connector-curvature="0" /><g
         id="g69"
         style="fill:#80b3ff"><ellipse
           style="fill:#80b3ff"
           cx="95.057999"
           cy="81.625999"
           rx="3.4230001"
           ry="3.4560001"
           id="ellipse71" /><ellipse
           style="fill:#80b3ff"
           cx="94.192001"
           cy="81.101997"
           rx="1.288"
           ry="1.3"
           id="ellipse73" /></g></g><g
       id="g75"
       style="fill:#80b3ff"><path
         style="fill:#80b3ff"
         d="m 62.847,89.85 c 0,0 -11.64,-2.014 -17.469,-10.345 0,0 5.56,-6.11 12.489,-0.959 4.653,3.459 4.98,11.304 4.98,11.304 z"
         id="path77"
         inkscape:connector-curvature="0" /><g
         id="g79"
         style="fill:#80b3ff"><ellipse
           style="fill:#80b3ff"
           cx="54.530998"
           cy="81.625999"
           rx="3.4230001"
           ry="3.4560001"
           id="ellipse81" /><ellipse
           style="fill:#80b3ff"
           cx="53.665001"
           cy="81.101997"
           rx="1.288"
           ry="1.3"
           id="ellipse83" /></g></g></g><path
     style="fill:#535d6c"
     d="m 74.794,131.87 c -4.451,0 -7.928,0.957 -9.622,3.143 0,0 5.148,7.764 9.622,7.764 4.474,0 9.623,-7.764 9.623,-7.764 -1.694,-2.186 -5.172,-3.143 -9.623,-3.143 z"
     id="path85"
     inkscape:connector-curvature="0" /><path
     style="opacity:0.8;fill:#535d6c"
     d="m 74.794,133.507 c 4.019,0 7.358,0.479 9.603,1.536 0.013,-0.019 0.021,-0.031 0.021,-0.031 -1.694,-2.186 -5.172,-3.143 -9.623,-3.143 -4.451,0 -7.928,0.957 -9.622,3.143 0,0 0.008,0.012 0.021,0.031 2.242,-1.057 5.582,-1.536 9.6,-1.536 z"
     id="path87"
     inkscape:connector-curvature="0" /><g
     id="g91" /><g
     id="g93" /><g
     id="g95" /><g
     id="g97" /><g
     id="g99" /><g
     id="g101" /><g
     id="g103" /><g
     id="g105" /><g
     id="g107" /><g
     id="g109" /><g
     id="g111" /><g
     id="g113" /><g
     id="g115" /><g
     id="g117" /><g
     id="g119" /></svg>