<?xml version="1.0" encoding="UTF-8" standalone="no"?>
<svg
   xmlns:dc="http://purl.org/dc/elements/1.1/"
   xmlns:cc="http://creativecommons.org/ns#"
   xmlns:rdf="http://www.w3.org/1999/02/22-rdf-syntax-ns#"
   xmlns:svg="http://www.w3.org/2000/svg"
   xmlns="http://www.w3.org/2000/svg"
   xmlns:sodipodi="http://sodipodi.sourceforge.net/DTD/sodipodi-0.dtd"
   xmlns:inkscape="http://www.inkscape.org/namespaces/inkscape"
   viewBox="0 0 48 48"
   id="svg2"
   version="1.1"
   inkscape:version="0.91 r13725"
   sodipodi:docname="android-file-transfer.svg">
  <metadata
     id="metadata37">
    <rdf:RDF>
      <cc:Work
         rdf:about="">
        <dc:format>image/svg+xml</dc:format>
        <dc:type
           rdf:resource="http://purl.org/dc/dcmitype/StillImage" />
        <dc:title></dc:title>
      </cc:Work>
    </rdf:RDF>
  </metadata>
  <sodipodi:namedview
     pagecolor="#ffffff"
     bordercolor="#666666"
     borderopacity="1"
     objecttolerance="10"
     gridtolerance="10"
     guidetolerance="10"
     inkscape:pageopacity="0"
     inkscape:pageshadow="2"
     inkscape:window-width="1280"
     inkscape:window-height="694"
     id="namedview35"
     showgrid="false"
     inkscape:zoom="4.9166667"
     inkscape:cx="-42"
     inkscape:cy="24"
     inkscape:window-x="0"
     inkscape:window-y="0"
     inkscape:window-maximized="1"
     inkscape:current-layer="svg2" />
  <defs
     id="defs4">
    <linearGradient
       id="0"
       gradientUnits="userSpaceOnUse"
       y1="545.14"
       x2="0"
       y2="518.14"
       gradientTransform="matrix(1.7142886,0,0,1.7142886,-662.69351,-887.66419)">
      <stop
         stop-color="#30cf41"
         id="stop7" />
      <stop
         offset="1"
         stop-color="#47f383"
         id="stop9" />
    </linearGradient>
  </defs>
  <path
     d="m 15.354231,38.944525 -0.871323,6.596409 c 0.619424,3.648392 5.777158,2.958735 6.532855,0.564589 l 1.205812,-6.228353 4.876929,0.01072 0.668977,5.592297 c 0.317971,3.391111 7.110984,3.777033 6.797143,-0.879045 l -1.131481,-5.842431 c 3.514197,-0.125067 4.757174,-1.758089 5.021461,-3.623379 l 0.367525,-6.742916 8.341572,-7.725588 c 2.180371,-2.776494 -0.900229,-6.482061 -4.575476,-3.959274 -2.523119,2.826522 -4.583735,4.809732 -9.939685,5.835284 -3.823909,0.728964 -10.488908,1.122033 -16.600554,-0.153654 -3.307723,-0.689657 -5.661533,-1.547261 -9.0683629,-5.406482 -3.2664274,-3.358951 -8.6843198,-0.289441 -5.5913309,3.330364 l 9.0311968,7.990016 0.363395,6.90729 c 0.260158,2.479907 3.146673,3.083803 4.558959,3.737727"
     id="path17"
     inkscape:connector-curvature="0"
     style="opacity:0.9;fill:#2ca02c;fill-rule:evenodd" />
  <g
     style="fill:#2ca02c"
     id="g21"
     transform="matrix(4.130317,0,0,3.574067,-1193.1439,-1860.3478)">
    <path
       style="opacity:1;fill-rule:evenodd;fill:#2ca02c"
       inkscape:connector-curvature="0"
       id="path23"
       d="m 291.52,525.88 c 1.82,1.165 4.832,1.102 6.701,0.042 0.672,-5.247 -7.079,-5.664 -6.701,-0.042" />
    <rect
       style="opacity:1;fill:#2ca02c"
       id="rect25"
       rx="0.191"
       width="0.382"
       height="2.6719999"
       x="-12.388"
       y="596.81"
       transform="matrix(0.86173,-0.50737,0.50737,0.86173,0,0)" />
    <rect
       style="opacity:1;fill:#2ca02c"
       id="rect27"
       rx="0.191"
       width="0.382"
       height="2.6719999"
       x="-520.51001"
       y="297.64001"
       transform="matrix(-0.86173,-0.50737,-0.50737,0.86173,0,0)" />
  </g>
  <g
     style="fill:#0b280b"
     id="g29"
     transform="matrix(4.130317,0,0,3.574067,-1262.6613,-1868.4931)">
    <circle
       style="opacity:1;fill:#0b280b"
       id="circle31"
       r="0.54900002"
       cy="526.44"
       cx="310.39999" />
    <circle
       style="opacity:1;fill:#0b280b"
       id="circle33"
       r="0.54900002"
       cy="526.42999"
       cx="313" />
  </g>
</svg>
