<?xml version="1.0" encoding="UTF-8" standalone="no"?>
<svg
   xmlns:dc="http://purl.org/dc/elements/1.1/"
   xmlns:cc="http://creativecommons.org/ns#"
   xmlns:rdf="http://www.w3.org/1999/02/22-rdf-syntax-ns#"
   xmlns:svg="http://www.w3.org/2000/svg"
   xmlns="http://www.w3.org/2000/svg"
   xmlns:sodipodi="http://sodipodi.sourceforge.net/DTD/sodipodi-0.dtd"
   xmlns:inkscape="http://www.inkscape.org/namespaces/inkscape"
   viewBox="0 0 48 48"
   id="svg2"
   version="1.1"
   inkscape:version="0.91 r13725"
   sodipodi:docname="appgrid.svg">
  <metadata
     id="metadata19">
    <rdf:RDF>
      <cc:Work
         rdf:about="">
        <dc:format>image/svg+xml</dc:format>
        <dc:type
           rdf:resource="http://purl.org/dc/dcmitype/StillImage" />
        <dc:title></dc:title>
      </cc:Work>
    </rdf:RDF>
  </metadata>
  <sodipodi:namedview
     pagecolor="#ffffff"
     bordercolor="#666666"
     borderopacity="1"
     objecttolerance="10"
     gridtolerance="10"
     guidetolerance="10"
     inkscape:pageopacity="0"
     inkscape:pageshadow="2"
     inkscape:window-width="1280"
     inkscape:window-height="694"
     id="namedview17"
     showgrid="false"
     inkscape:zoom="4.9166667"
     inkscape:cx="-9.1525424"
     inkscape:cy="24"
     inkscape:window-x="0"
     inkscape:window-y="0"
     inkscape:window-maximized="1"
     inkscape:current-layer="svg2" />
  <defs
     id="defs4">
    <linearGradient
       id="0"
       gradientUnits="userSpaceOnUse"
       y1="42.37"
       x2="0"
       y2="-6.429"
       gradientTransform="matrix(0.99999,0,0,0.99999,-8.371,5.882)">
      <stop
         stop-color="#ff6835"
         id="stop7" />
      <stop
         offset="1"
         stop-color="#ff956f"
         id="stop9" />
    </linearGradient>
  </defs>
  <path
     style="fill:#ff9955;fill-opacity:0.85199998"
     inkscape:connector-curvature="0"
     id="path15"
     d="m 4.9067246,44.897575 c 1.4203105,-1.493782 2.9023081,-3.045421 3.2934948,-3.446918 0.3911879,-0.401498 0.7131636,-0.771438 0.716172,-0.822282 0.00447,-0.09117 -4.1571139,-3.355747 -4.3451857,-3.406592 -0.055663,-0.01402 -0.1369171,0.106954 -0.1835574,0.273508 -0.1008069,0.373446 -1.397741,6.022465 -2.1199322,9.241459 -0.1534659,0.68728 -0.156475,0.878386 -0.010507,0.878386 0.03611,0 1.2277255,-1.222028 2.6480361,-2.717561 m 39.3143068,2.415998 c 0.756796,-1.155401 1.179579,-3.655557 0.999031,-5.896229 -0.204622,-2.549246 -0.80043,-4.314785 -1.942395,-5.755967 -0.84707,-1.069492 -1.563244,-1.302676 -2.383232,-0.774943 -1.278881,0.82228 -2.490058,1.695406 -2.670604,1.921578 -0.53713,0.675007 -0.501021,1.774304 0.106821,3.180422 0.613863,1.420144 1.281889,2.231905 2.768399,3.362761 1.533154,1.16592 2.156044,2.058333 2.491563,3.569646 0.108331,0.485656 0.21816,0.687281 0.37915,0.692541 0.03009,1.76e-4 0.142935,-0.133249 0.251263,-0.299809 M 11.013758,36.830804 c 2.900803,-6.025971 6.600532,-13.50189 8.899508,-17.979727 0.501021,-0.97657 0.911766,-1.80411 0.911766,-1.839176 0,-0.112204 -4.315094,-3.203215 -4.429441,-3.173409 -0.115855,0.0298 -3.973559,7.596897 -6.7118693,13.167018 -0.8681336,1.770797 -2.1590509,4.277966 -2.8677026,5.584147 -0.7086492,1.306183 -1.3962362,2.572041 -1.5271341,2.81399 -0.1369172,0.254224 -0.2091342,0.471628 -0.1685107,0.517213 0.1940886,0.217405 4.5437887,3.46445 4.6129984,3.441659 0.042125,-0.01402 0.6183773,-1.153648 1.2818903,-2.531715 m 28.189546,-2.140736 c 1.120902,-0.743384 2.104888,-1.423651 2.187639,-1.513066 0.145945,-0.159549 0.141431,-0.180587 -0.272327,-1.013387 -0.231702,-0.468123 -0.797419,-1.611251 -1.254807,-2.540482 -0.457388,-0.92923 -0.884685,-1.702419 -0.949381,-1.716445 -0.171521,-0.03858 -4.406874,2.840288 -4.436965,3.015616 -0.02407,0.145522 2.20118,4.71628 2.447928,5.028362 0.07071,0.08942 0.154971,0.147275 0.185062,0.126241 0.0301,-0.01929 0.973455,-0.643447 2.094356,-1.386832 m 8.440615,-4.830243 c 0.03159,-0.06662 0.04965,-1.47099 0.04063,-3.124318 l -0.01655,-3.005096 -4.766466,-0.0228 c -4.160123,-0.02104 -4.763455,-0.0071 -4.74239,0.11045 0.01354,0.07364 0.677053,1.490276 1.474474,3.14711 l 1.448898,3.013862 0.314453,0.02629 c 0.173025,0.01402 1.635465,0.01402 3.251367,0 2.323049,-0.02104 2.950453,-0.0526 2.995591,-0.147276 M 32.571178,29.730072 c 0.01208,-0.04558 -0.591295,-1.372809 -1.343577,-2.950747 l -1.367651,-2.866587 -5.812136,0 -5.812139,0 -1.372163,2.896392 c -0.755292,1.591966 -1.355614,2.927955 -1.334552,2.968278 0.05417,0.103444 17.013632,0.05611 17.042218,-0.04734 M 7.6029057,29.233908 c 0.1549711,-0.313833 0.7974214,-1.607742 1.4263297,-2.875353 0.6289072,-1.267611 1.1449736,-2.347621 1.1449736,-2.398467 0,-0.06311 -1.6053712,-0.08591 -4.8793073,-0.07013 l -4.8793063,0.0228 -0.0255779,0.639941 c -0.0135408,0.352407 -1.5048e-4,1.677874 0.0285875,2.945485 l 0.0541654,2.305543 3.42288648,0 3.4228879,0 z M 36.35516,28.069742 c 1.990541,-1.276377 1.958945,-1.253586 1.958945,-1.416639 0,-0.159548 -1.048683,-2.319569 -4.608484,-9.497434 C 29.792244,9.2677314 28.068012,5.7892548 26.923037,3.4714386 25.794612,1.1869353 25.526799,0.76089214 25.04233,0.47160339 24.66017,0.24543229 24.050821,0.21036698 23.656623,0.39095329 23.280483,0.56452647 21.95797,1.4621983 21.607406,1.7812922 c -0.561204,0.5119531 -0.774852,1.5235864 -0.487481,2.3213226 0.154971,0.429549 0.04965,0.2156502 3.750883,7.6635192 5.828689,11.725834 8.82428,17.637841 9.00934,17.783363 0.04514,0.03507 0.260291,-0.05084 0.475443,-0.192859 0.215154,-0.142016 1.114884,-0.720592 1.999569,-1.286896 M 21.959475,14.574864 c 0.928317,-1.80411 1.063728,-2.119697 1.120901,-2.603598 C 23.199238,10.966646 22.744857,10.295144 21.31251,9.3483824 20.500044,8.8118833 20.369148,8.7540251 19.8922,8.722466 19.242228,8.680388 18.920251,8.838182 18.47189,9.4272783 c -0.335519,0.4400704 -1.633957,3.1330837 -1.630949,3.3838007 1.51e-4,0.08942 0.807951,0.720593 2.134979,1.66911 1.173561,0.838059 2.159052,1.527093 2.189143,1.530598 0.0301,1.76e-4 0.386672,-0.643448 0.794412,-1.43417" />
</svg>
