<?xml version="1.0" encoding="UTF-8" standalone="no"?>
<svg
   xmlns:dc="http://purl.org/dc/elements/1.1/"
   xmlns:cc="http://creativecommons.org/ns#"
   xmlns:rdf="http://www.w3.org/1999/02/22-rdf-syntax-ns#"
   xmlns:svg="http://www.w3.org/2000/svg"
   xmlns="http://www.w3.org/2000/svg"
   xmlns:sodipodi="http://sodipodi.sourceforge.net/DTD/sodipodi-0.dtd"
   xmlns:inkscape="http://www.inkscape.org/namespaces/inkscape"
   viewBox="0 0 48 48"
   id="svg2"
   version="1.1"
   inkscape:version="0.91 r13725"
   sodipodi:docname="application-community.svg">
  <metadata
     id="metadata19">
    <rdf:RDF>
      <cc:Work
         rdf:about="">
        <dc:format>image/svg+xml</dc:format>
        <dc:type
           rdf:resource="http://purl.org/dc/dcmitype/StillImage" />
        <dc:title></dc:title>
      </cc:Work>
    </rdf:RDF>
  </metadata>
  <sodipodi:namedview
     pagecolor="#ffffff"
     bordercolor="#666666"
     borderopacity="1"
     objecttolerance="10"
     gridtolerance="10"
     guidetolerance="10"
     inkscape:pageopacity="0"
     inkscape:pageshadow="2"
     inkscape:window-width="1280"
     inkscape:window-height="694"
     id="namedview17"
     showgrid="false"
     inkscape:zoom="4.9166667"
     inkscape:cx="-9.1525424"
     inkscape:cy="24"
     inkscape:window-x="0"
     inkscape:window-y="0"
     inkscape:window-maximized="1"
     inkscape:current-layer="svg2" />
  <defs
     id="defs4">
    <linearGradient
       id="0"
       gradientUnits="userSpaceOnUse"
       y1="22.369"
       x2="0"
       y2="-26.429"
       gradientTransform="matrix(0.99999,0,0,0.99999,-38.37,25.882)">
      <stop
         stop-color="#c52828"
         id="stop7" />
      <stop
         offset="1"
         stop-color="#ff5454"
         id="stop9" />
    </linearGradient>
  </defs>
  <path
     style="fill:#ffaaaa;fill-opacity:0.83899997"
     inkscape:connector-curvature="0"
     id="path15"
     d="m 44.228346,4.239831 c -2.227318,-2.5608726 -5.30478,-3.83947966 -9.232389,-3.83947966 -1.086995,0 -2.195948,0.22133294 -3.326861,0.66582616 -1.130912,0.4444952 -2.1834,1.0426404 -3.152754,1.7962689 C 27.542283,3.6160748 26.706254,4.3221437 26.00355,4.9843134 25.302417,5.6446519 24.635789,6.3470623 24.005239,7.0897155 23.373119,6.3470623 22.708062,5.6446519 22.006926,4.9843134 21.305792,4.323973 20.468196,3.6160748 19.494136,2.8624464 18.520076,2.1088179 17.469159,1.5106727 16.341382,1.0661775 15.210469,0.62351349 14.101516,0.40035134 13.014521,0.40035134 c -3.9276089,0 -7.0050713,1.28043626 -9.2323907,3.83947966 -2.2273176,2.5590434 -3.34097668,6.109509 -3.34097668,10.651401 0,1.382871 0.20704638,2.807813 0.61800228,4.272998 0.4125245,1.465185 0.8815162,2.714525 1.4069754,3.746192 0.5254579,1.031664 1.1215002,2.037722 1.7881279,3.01817 0.6666277,0.980448 1.152873,1.655421 1.4603052,2.028577 0.3058641,0.371326 0.5474179,0.640219 0.7230945,0.804847 L 22.850799,47.401509 c 0.315274,0.371326 0.701133,0.557904 1.157576,0.557904 0.456443,0 0.842305,-0.186578 1.157579,-0.557904 L 41.552427,28.822377 c 4.015449,-4.726639 6.023172,-9.370963 6.023172,-13.932974 0,-4.541892 -1.113659,-8.0923579 -3.340979,-10.6514012" />
</svg>
