<?xml version="1.0" encoding="UTF-8" standalone="no"?>
<svg
   xmlns:dc="http://purl.org/dc/elements/1.1/"
   xmlns:cc="http://creativecommons.org/ns#"
   xmlns:rdf="http://www.w3.org/1999/02/22-rdf-syntax-ns#"
   xmlns:svg="http://www.w3.org/2000/svg"
   xmlns="http://www.w3.org/2000/svg"
   xmlns:sodipodi="http://sodipodi.sourceforge.net/DTD/sodipodi-0.dtd"
   xmlns:inkscape="http://www.inkscape.org/namespaces/inkscape"
   viewBox="0 0 48 48"
   id="svg2"
   version="1.1"
   inkscape:version="0.91 r13725"
   sodipodi:docname="applications-toys.svg">
  <metadata
     id="metadata29">
    <rdf:RDF>
      <cc:Work
         rdf:about="">
        <dc:format>image/svg+xml</dc:format>
        <dc:type
           rdf:resource="http://purl.org/dc/dcmitype/StillImage" />
        <dc:title></dc:title>
      </cc:Work>
    </rdf:RDF>
  </metadata>
  <sodipodi:namedview
     pagecolor="#ffffff"
     bordercolor="#666666"
     borderopacity="1"
     objecttolerance="10"
     gridtolerance="10"
     guidetolerance="10"
     inkscape:pageopacity="0"
     inkscape:pageshadow="2"
     inkscape:window-width="1280"
     inkscape:window-height="694"
     id="namedview27"
     showgrid="false"
     inkscape:zoom="4.9166667"
     inkscape:cx="-9.1525422"
     inkscape:cy="24"
     inkscape:window-x="0"
     inkscape:window-y="0"
     inkscape:window-maximized="1"
     inkscape:current-layer="svg2" />
  <defs
     id="defs4">
    <linearGradient
       id="0"
       gradientUnits="userSpaceOnUse"
       x1="77.29"
       y1="25.752"
       x2="75.66"
       y2="-19.925"
       gradientTransform="matrix(0.99999,0,0,0.99999,-48.37,20.882)">
      <stop
         stop-color="#dc3c30"
         id="stop7" />
      <stop
         offset="1"
         stop-color="#ff786d"
         id="stop9" />
    </linearGradient>
  </defs>
  <g
     style="fill:#ff2a2a;fill-opacity:0.847"
     id="g15"
     transform="matrix(1.3927149,0,0,1.9227292,-76.592232,17.997979)">
    <path
       inkscape:connector-curvature="0"
       id="path17"
       d="m 88.92,2.935 c -0.768,0 -1.529,0 -2.309,0 -0.21,0 -0.559,-0.013 -0.559,-0.222 0,-0.781 0,-1.549 0,-2.331 0,-0.21 10e-4,-0.485 -0.2,-0.485 -0.782,0 -1.544,0 -2.32,0 -0.21,0 -0.518,-0.065 -0.518,-0.275 0,-0.776 0,-1.538 0,-2.319 0,-0.21 -0.031,-0.445 -0.241,-0.445 -0.78,0 -1.544,0 -2.313,0 -0.21,0 -0.484,-0.106 -0.484,-0.315 0,-0.791 0,-1.562 0,-2.33 0,-0.21 -0.118,-0.378 -0.327,-0.376 -0.758,0.006 -1.534,0.007 -2.321,0.007 -0.21,0 -0.39,0.17 -0.39,0.38 0,0.786 0,1.55 0,2.309 0,0.21 -0.097,0.325 -0.307,0.325 -2.851,0 -5.67,0 -8.52,0 -0.21,0 -0.288,-0.115 -0.288,-0.324 0,-0.772 0,-1.537 0,-2.312 0,-0.21 -0.216,-0.38 -0.425,-0.38 -0.779,0 -1.51,-10e-5 -2.26,-0.007 -0.21,-0.002 -0.353,0.167 -0.353,0.376 0,0.775 0,1.553 0,2.352 0,0.21 -0.27,0.295 -0.48,0.295 -0.783,0 -1.552,0 -2.333,0 -0.21,0 -0.226,0.255 -0.226,0.464 0,0.781 0,1.544 0,2.322 0,0.21 -0.324,0.252 -0.534,0.252 -0.78,0 -1.548,0 -2.325,0 -0.21,0 -0.559,0.297 -0.559,0.507 0,0.779 0,1.543 0,2.325 0,0.21 10e-4,0.206 -0.2,0.206 -0.772,0 -1.532,0 -2.289,0 -0.21,0 -0.549,0.343 -0.549,0.553 0,2.83 0,5.626 0,8.423 0,0.21 0.339,0.519 0.549,0.519 0.763,0 1.518,0 2.288,0 0.21,0 0.201,-0.31 0.201,-0.519 0,-1.797 0,-3.576 0,-5.36 0,-0.21 0.349,-0.197 0.558,-0.197 0.785,0 1.557,0 2.348,0 0.21,0 0.512,-0.013 0.512,0.197 0,1.801 0,3.589 0,5.395 0,0.21 0.104,0.379 0.314,0.379 0.779,0 1.566,10e-5 2.317,0.007 0.21,0.002 0.408,-0.166 0.408,-0.376 0,-0.771 0,-1.542 0,-2.316 0,-0.21 0.047,-0.247 0.257,-0.247 4.91,0 9.789,0 14.679,0 0.21,0 0.38,0.104 0.38,0.314 0,0.779 -1e-4,1.565 -0.007,2.324 -0.002,0.21 0.166,0.4 0.376,0.4 0.764,0 1.531,0 2.313,0 0.209,0 0.232,-0.277 0.232,-0.487 0,-1.815 0,-3.596 0,-5.387 0,-0.21 0.318,-0.202 0.527,-0.202 0.792,0 1.57,0 2.36,0 0.21,0 0.53,-0.008 0.53,0.202 0,1.797 0,3.576 0,5.355 0,0.21 0.02,0.519 0.23,0.519 0.766,0 1.515,0 2.259,0 0.21,0 0.55,-0.309 0.55,-0.519 0,-2.818 0,-5.616 0,-8.438 0,-0.21 -0.339,-0.537 -0.549,-0.537 m -21.1,-0.24 c 0,0.21 -0.238,0.24 -0.447,0.24 -0.77,0 -1.54,0 -2.32,0 -0.21,0 -0.271,-0.03 -0.271,-0.239 0,-0.767 0,-1.533 0,-2.316 0,-0.21 0.061,-0.483 0.271,-0.483 0.779,0 1.545,0 2.319,0 0.21,0 0.448,0.273 0.448,0.483 0,0.772 0,1.538 0,2.315 m 12.153,0.006 c 0,0.21 -0.063,0.234 -0.273,0.234 -0.768,0 -1.534,0 -2.316,0 -0.21,0 -0.449,-0.024 -0.449,-0.234 0,-0.776 0,-1.542 0,-2.317 0,-0.209 0.24,-0.487 0.449,-0.487 0.773,0 1.538,0 2.316,0 0.21,0 0.273,0.277 0.273,0.487 0,0.769 0,1.538 0,2.318"
       style="fill:#ff2a2a" />
    <path
       inkscape:connector-curvature="0"
       id="path19"
       d="m 70.45,12.351 c -0.572,0 -1.148,10e-5 -1.71,0 -1.229,-0.004 -2.465,-0.009 -3.694,-0.014 -0.21,-10e-5 -0.382,0.169 -0.38,0.379 0.006,0.759 0.005,1.568 0.005,2.328 0,0.21 0.168,0.425 0.378,0.425 1.826,0 3.6,0 5.372,0 0.21,0 0.437,-0.261 0.437,-0.47 0,-0.757 0,-1.505 0,-2.266 0,-0.21 -0.199,-0.381 -0.408,-0.38"
       style="fill:#ff2a2a" />
    <path
       inkscape:connector-curvature="0"
       id="path21"
       d="m 79.85,12.342 c -0.059,0.005 -0.091,0.047 -0.151,0.047 -1.808,10e-5 -3.588,0.04 -5.396,0.04 -0.058,0 -0.115,0 -0.172,0 -0.095,0 -0.236,0.091 -0.236,0.301 0,0.775 0,1.524 0,2.272 0,0.21 0.234,0.465 0.444,0.465 1.787,0 3.56,0 5.367,0 0.21,0 0.266,-0.256 0.266,-0.466 0,-0.773 0,-1.537 0,-2.3 0,-0.21 -0.023,-0.367 -0.122,-0.36"
       style="fill:#ff2a2a" />
    <path
       inkscape:connector-curvature="0"
       id="path23"
       d="m 62,-6.18 c 0.773,0 1.537,0 2.3,0 0.21,0 0.377,-0.164 0.376,-0.374 -0.006,-0.76 -0.007,-1.524 -0.007,-2.284 0,-0.21 -0.17,-0.38 -0.38,-0.38 -0.787,0 -1.54,0 -2.288,0 -0.21,0 -0.259,0.177 -0.259,0.387 0,0.76 0,1.511 0,2.284 0,0.21 0.049,0.367 0.259,0.367"
       style="fill:#ff2a2a" />
    <path
       inkscape:connector-curvature="0"
       id="path25"
       d="m 80.41,-6.159 c 0.76,-0.006 1.493,-0.007 2.253,-0.007 0.21,0 0.349,-0.171 0.349,-0.38 0,-0.788 0,-1.54 0,-2.289 0,-0.21 -0.051,-0.382 -0.26,-0.382 -0.759,0 -1.51,0 -2.283,0 -0.21,0 -0.494,0.174 -0.494,0.383 0,0.773 0,1.537 0,2.3 0,0.21 0.227,0.377 0.437,0.376"
       style="fill:#ff2a2a" />
  </g>
</svg>
