<?xml version="1.0" encoding="UTF-8" standalone="no"?>
<!-- Created with Inkscape (http://www.inkscape.org/) -->

<svg
   xmlns:dc="http://purl.org/dc/elements/1.1/"
   xmlns:cc="http://creativecommons.org/ns#"
   xmlns:rdf="http://www.w3.org/1999/02/22-rdf-syntax-ns#"
   xmlns:svg="http://www.w3.org/2000/svg"
   xmlns="http://www.w3.org/2000/svg"
   xmlns:sodipodi="http://sodipodi.sourceforge.net/DTD/sodipodi-0.dtd"
   xmlns:inkscape="http://www.inkscape.org/namespaces/inkscape"
   id="svg2"
   version="1.1"
   inkscape:version="0.91 r13725"
   width="512"
   height="512"
   sodipodi:docname="applications-utilities.svg"
   viewBox="0 0 512 512">
  <metadata
     id="metadata8">
    <rdf:RDF>
      <cc:Work
         rdf:about="">
        <dc:format>image/svg+xml</dc:format>
        <dc:type
           rdf:resource="http://purl.org/dc/dcmitype/StillImage" />
        <dc:title></dc:title>
      </cc:Work>
    </rdf:RDF>
  </metadata>
  <defs
     id="defs6" />
  <sodipodi:namedview
     pagecolor="#ffffff"
     bordercolor="#666666"
     borderopacity="1"
     objecttolerance="10"
     gridtolerance="10"
     guidetolerance="10"
     inkscape:pageopacity="0"
     inkscape:pageshadow="2"
     inkscape:window-width="1280"
     inkscape:window-height="694"
     id="namedview4"
     showgrid="false"
     inkscape:zoom="0.4609375"
     inkscape:cx="-444.74577"
     inkscape:cy="240.81356"
     inkscape:window-x="0"
     inkscape:window-y="0"
     inkscape:window-maximized="1"
     inkscape:current-layer="svg2"
     inkscape:document-units="px" />
  <path
     style="fill:#0066ff;fill-opacity:1;fill-rule:evenodd;stroke:#000000;stroke-width:0;stroke-linecap:butt;stroke-linejoin:miter;stroke-miterlimit:4;stroke-dasharray:none;stroke-opacity:1"
     d="m 263.46467,2.7969512 c -11.31544,-0.00373 -23.45894,0.2696132 -35.75551,0.5212601 -6.86365,0.140471 -14.48246,7.8313117 -14.46384,14.7281827 0.0492,18.288466 0.9116,57.915899 0.9116,57.915899 0,0 -20.3987,5.536254 -30.15766,9.532205 -8.72805,3.573834 -25.21923,12.84459 -25.21923,12.844579 0,0 -22.53335,-22.277396 -42.01276,-41.561631 -4.19705,-4.154993 -15.74687,-3.054311 -19.948007,1.096516 -34.382282,33.970585 -25.878054,24.492702 -40.179205,40.220072 -4.659439,5.124116 -3.834929,15.969416 1.136933,20.788096 14.123438,13.68825 40.605038,40.39035 40.605038,40.39035 0,0 -10.47241,17.29715 -14.346024,26.60085 -3.804545,9.1378 -8.622086,28.42424 -8.622086,28.42424 0,0 -37.828318,-0.75218 -56.755685,-0.44858 -7.164394,0.11493 -16.2086238,6.09578 -16.2354011,13.01488 -0.04259,10.98706 -0.1925855,37.32115 -0.3328112,52.64725 -0.1402245,15.32609 8.4946503,20.80085 16.4173103,20.76109 23.19042,-0.11646 56.670931,0.26166 56.670931,0.26166 0,0 5.33183,19.4231 9.124402,28.72328 3.723276,9.13029 13.31039,26.40979 13.31039,26.40979 0,0 -26.202319,25.30527 -38.69293,39.42885 -4.986574,5.63849 -6.19774,16.98422 -1.182412,22.59693 13.382786,14.9768 26.843626,27.97965 39.51566,39.10692 6.071987,5.33182 18.122847,2.54249 24.009957,-2.99464 10.32155,-9.70796 37.12808,-38.25339 37.12808,-38.25339 0,0 17.1635,9.17467 26.12051,12.9318 4.69766,1.97048 11.91364,4.47958 17.95527,6.49602 6.04164,2.01645 10.90835,3.54083 10.90835,3.54083 0,0 -0.007,9.11871 -0.002,20.58872 0.005,11.47001 0.0218,25.29136 0.0703,34.6918 0.0194,3.76157 1.70086,8.11587 4.31206,11.53833 2.61122,3.42247 6.15342,5.91266 9.89754,5.94361 17.82569,0.14349 37.83204,0.0975 57.5908,-0.01 3.34391,-0.0125 6.84009,-2.53075 9.4965,-5.88547 2.65641,-3.35472 4.47264,-7.54554 4.45677,-10.90492 -0.0437,-9.24953 0.0154,-23.93661 0.0868,-36.3096 0.0715,-12.37297 0.15504,-22.43285 0.15504,-22.43285 0,0 4.79284,-1.07212 10.70578,-2.63329 5.91291,-1.56118 12.9448,-3.61138 17.42193,-5.56565 4.23622,-1.84912 10.18928,-5.41192 15.08194,-8.51252 4.89263,-3.1006 8.72543,-5.73801 8.72543,-5.73801 0,0 7.73699,7.84815 17.00852,17.15587 9.27154,9.30772 20.07863,20.0738 26.21559,25.90932 2.70977,2.57665 6.70169,3.93097 10.94971,3.72981 4.24802,-0.20116 8.75057,-1.95804 12.48146,-5.6051 7.82775,-7.65193 14.4667,-14.10274 20.40276,-19.93663 5.9361,-5.83386 11.16976,-11.04924 16.18581,-16.22758 2.46451,-2.54424 3.87096,-6.59963 4.04333,-10.65156 0.17238,-4.05194 -0.888,-8.10129 -3.35911,-10.63911 -6.93607,-7.12325 -17.8862,-18.10733 -27.10241,-27.3111 -9.21621,-9.20377 -16.69845,-16.62838 -16.69845,-16.62838 0,0 2.6486,-4.03806 5.74254,-9.19163 3.09394,-5.15355 6.63137,-11.42242 8.41332,-15.88077 1.79667,-4.49523 3.5713,-11.53843 4.89501,-17.45908 1.32389,-5.92024 2.19747,-10.71781 2.19747,-10.71781 0,0 41.53222,0.96136 60.47036,0.28867 7.04021,-0.25006 15.86813,-6.66663 16.11136,-13.73966 0.71578,-20.81495 0.74994,-37.50952 0.20878,-56.28984 -0.32736,-11.36048 -8.00721,-16.01899 -19.81985,-15.91607 -15.34146,0.13366 -56.0239,0.68949 -56.0239,0.68949 0,0 -4.38245,-18.6774 -7.92131,-27.54994 -3.62992,-9.10084 -13.54604,-26.07545 -13.54604,-26.07545 0,0 27.56688,-27.65419 40.98126,-41.83992 9.145,-9.67086 3.48131,-21.429943 0.37207,-24.260374 -12.92229,-11.763559 -26.18376,-26.524674 -37.16529,-36.988673 -5.36998,-5.116929 -16.71568,-5.677885 -22.19292,-0.677013 -11.20301,10.22865 -26.93618,27.491517 -41.47737,42.008126 0,0 -17.31303,-10.101511 -26.57531,-13.822729 -8.74322,-3.512668 -27.12514,-7.928958 -27.12514,-7.928958 0,0 0.69322,-40.194224 0.004,-60.430821 C 298.81582,10.39923 289.66187,3.5089805 282.79285,3.168144 276.74427,2.900399 270.25426,2.7986544 263.46498,2.7964087 Z M 257.42446,170.72982 c 42.11374,-0.13291 78.1123,36.85749 83.53769,77.70506 6.14955,43.41037 -28.43126,85.48774 -70.19424,93.54641 -47.00112,9.63903 -96.20891,-29.88467 -100.24025,-77.2482 -3.47003,-47.40151 38.17452,-92.31052 84.88546,-93.97005 0.67145,-0.0209 1.34286,-0.0312 2.01134,-0.0332 z"
     id="path4148"
     inkscape:connector-curvature="0" />
</svg>
