<?xml version="1.0" encoding="UTF-8" standalone="no"?>
<svg
   xmlns:dc="http://purl.org/dc/elements/1.1/"
   xmlns:cc="http://creativecommons.org/ns#"
   xmlns:rdf="http://www.w3.org/1999/02/22-rdf-syntax-ns#"
   xmlns:svg="http://www.w3.org/2000/svg"
   xmlns="http://www.w3.org/2000/svg"
   xmlns:sodipodi="http://sodipodi.sourceforge.net/DTD/sodipodi-0.dtd"
   xmlns:inkscape="http://www.inkscape.org/namespaces/inkscape"
   viewBox="0 0 48 48"
   id="svg2"
   version="1.1"
   inkscape:version="0.91 r13725"
   sodipodi:docname="artikulate.svg">
  <metadata
     id="metadata32">
    <rdf:RDF>
      <cc:Work
         rdf:about="">
        <dc:format>image/svg+xml</dc:format>
        <dc:type
           rdf:resource="http://purl.org/dc/dcmitype/StillImage" />
        <dc:title></dc:title>
      </cc:Work>
    </rdf:RDF>
  </metadata>
  <sodipodi:namedview
     pagecolor="#ffffff"
     bordercolor="#666666"
     borderopacity="1"
     objecttolerance="10"
     gridtolerance="10"
     guidetolerance="10"
     inkscape:pageopacity="0"
     inkscape:pageshadow="2"
     inkscape:window-width="1280"
     inkscape:window-height="694"
     id="namedview30"
     showgrid="false"
     inkscape:zoom="4.9166667"
     inkscape:cx="-9.1525424"
     inkscape:cy="24"
     inkscape:window-x="0"
     inkscape:window-y="0"
     inkscape:window-maximized="1"
     inkscape:current-layer="svg2" />
  <defs
     id="defs4">
    <linearGradient
       gradientTransform="matrix(-0.55334447,0,0,0.65032142,242.22649,-307.51643)"
       gradientUnits="userSpaceOnUse"
       y2="508.47"
       x2="373.97"
       y1="543.13"
       x1="374.26"
       id="0">
      <stop
         stop-color="#ff9300"
         id="stop7" />
      <stop
         offset="1"
         stop-color="#ffd702"
         id="stop9" />
    </linearGradient>
    <linearGradient
       gradientUnits="userSpaceOnUse"
       y2="16.623"
       x2="32.695"
       y1="57.24"
       x1="32.738"
       id="1"
       gradientTransform="matrix(0.99999,0,0,1.1151869,-8.371,-18.048657)">
      <stop
         stop-color="#197ff1"
         id="stop12" />
      <stop
         offset="1"
         stop-color="#21c6fb"
         id="stop14" />
    </linearGradient>
  </defs>
  <path
     style="opacity:0.8;fill:#5599ff"
     inkscape:connector-curvature="0"
     id="path20"
     d="m 14.034552,0.31843797 4.924226,1.01453473 q -0.704394,1.6243833 -1.641409,3.045483 l 23.67976,0 0,16.0367923 -35.167445,0 0,2.638918 41.502627,0 0,3.246885 -41.502627,0 0,2.638918 41.967874,0 q -0.704391,13.19459 -2.343626,15.833508 -1.40661,2.842201 -5.391646,2.842201 -1.876205,0 -5.861239,-0.60985 L 33.264029,42.94581 q 4.454632,0.609849 6.330837,0.609849 1.406611,0 1.876204,-1.217817 0.704394,-1.421101 1.171814,-9.945821 l -41.5026267,0 0,-28.011683 11.0202627,0 Q 13.332333,2.3512703 14.036727,0.32032024 M 5.829684,7.627224 l 0,3.246886 30.48019,0 0,-3.246886 -30.48019,0 m 0,6.292371 0,3.246885 30.48019,0 0,-3.246885 -30.48019,0 m 10.081074,19.690243 4.689426,0 0,5.481119 11.487686,0 0,-5.074552 4.454628,0 0,8.323319 -31.8868004,0 0,3.450168 -4.68942807,0 0,-11.570205 4.68942807,0 0,4.87127 11.2528864,0 0,-5.481119" />
  <path
     inkscape:connector-curvature="0"
     style="fill:#ffdd55"
     id="path22"
     d="m 27.210644,25.971368 c 2.262978,-2.169466 5.267947,-3.356735 8.459916,-3.356735 3.192968,0 6.197938,1.191587 8.459915,3.356735 2.282977,2.183495 3.539965,5.092305 3.539965,8.193238 0,2.958459 -1.145989,5.743145 -3.234968,7.888866 0.038,0.0993 0.068,0.203994 0.087,0.314086 l 0.685993,3.967638 c 0.082,0.471671 -0.028,0.752298 -0.133998,0.905563 -0.122999,0.177011 -0.304997,0.274151 -0.512995,0.274151 -0.156999,0 -0.325997,-0.05397 -0.500995,-0.1619 l -3.99196,-2.43714 c -1.381987,0.522398 -2.867972,0.79655 -4.397956,0.79655 -3.192968,0 -6.197938,-1.191587 -8.459916,-3.356735 -2.282977,-2.183496 -3.539964,-5.092306 -3.539964,-8.192159 0,-3.099853 1.256987,-6.009742 3.539964,-8.193238" />
  <g
     style="fill:#d5e5ff;fill-opacity:0.847"
     id="g24"
     transform="matrix(0.99999,0,0,0.99999,-8.371,-14.12)">
    <path
       inkscape:connector-curvature="0"
       id="path26"
       d="m 37.37,45.38 4.968,0 c -0.14,0.897 -0.616,1.853 -1.415,2.843 -0.51,-0.816 -0.837,-1.608 -1.024,-2.135 -0.047,-0.133 -0.173,-0.222 -0.314,-0.222 l -0.818,0 c -0.106,0 -0.206,0.051 -0.269,0.136 -0.063,0.086 -0.081,0.196 -0.049,0.298 0.194,0.61 0.64,1.807 1.465,3.02 -0.974,0.947 -1.945,1.63 -2.32,1.881 -0.149,0.1 -0.192,0.301 -0.097,0.453 l 0.41,0.656 c 0.047,0.076 0.124,0.13 0.211,0.149 0.024,0.005 0.047,0.008 0.071,0.008 0.065,0 0.128,-0.019 0.183,-0.055 0.387,-0.254 1.39,-0.948 2.44,-1.954 0.389,0.405 1.302,1.115 1.844,1.509 0.083,0.06 0.188,0.079 0.287,0.051 0.098,-0.028 0.178,-0.1 0.217,-0.194 l 0.306,-0.748 c 0.062,-0.15 0.005,-0.324 -0.133,-0.409 -0.353,-0.219 -1.017,-0.668 -1.559,-1.252 1.19,-1.393 1.869,-2.751 2.02,-4.04 l 0.262,0 c 0.184,0 0.333,-0.149 0.333,-0.333 l 0,-0.888 c 0,-0.184 -0.149,-0.333 -0.333,-0.333 l -2.594,0 0,-0.456 c 0,-0.184 -0.149,-0.333 -0.333,-0.333 l -0.831,0 c -0.184,0 -0.333,0.149 -0.333,0.333 l 0,0.456 -2.594,0 c -0.184,0 -0.333,0.149 -0.333,0.333 l 0,0.888 c 0,0.184 0.149,0.333 0.333,0.333"
       style="fill:#d5e5ff" />
    <path
       inkscape:connector-curvature="0"
       id="path28"
       d="m 48.776,44.32 c -0.043,-0.139 -0.172,-0.235 -0.318,-0.235 l -1.851,0 c -0.146,0 -0.276,0.096 -0.319,0.236 l -2.212,7.231 c -0.031,0.101 -0.012,0.211 0.051,0.296 0.063,0.085 0.162,0.135 0.268,0.135 l 1.148,0 c 0.15,0 0.281,-0.1 0.321,-0.244 l 0.496,-1.784 2.262,0 0.537,1.791 c 0.042,0.141 0.172,0.237 0.319,0.237 l 1.22,0 c 0.106,0 0.205,-0.05 0.268,-0.135 0.063,-0.085 0.081,-0.195 0.05,-0.296 L 48.775,44.32 m -2.159,4.301 0.833,-3.199 0.023,0 0.891,3.199 -1.747,0"
       style="fill:#d5e5ff" />
  </g>
</svg>
