<?xml version="1.0" encoding="UTF-8" standalone="no"?>
<svg
   xmlns:dc="http://purl.org/dc/elements/1.1/"
   xmlns:cc="http://creativecommons.org/ns#"
   xmlns:rdf="http://www.w3.org/1999/02/22-rdf-syntax-ns#"
   xmlns:svg="http://www.w3.org/2000/svg"
   xmlns="http://www.w3.org/2000/svg"
   xmlns:xlink="http://www.w3.org/1999/xlink"
   xmlns:sodipodi="http://sodipodi.sourceforge.net/DTD/sodipodi-0.dtd"
   xmlns:inkscape="http://www.inkscape.org/namespaces/inkscape"
   viewBox="0 0 48 48"
   id="svg2"
   version="1.1"
   inkscape:version="0.91 r13725"
   sodipodi:docname="assaultcube.svg">
  <metadata
     id="metadata37">
    <rdf:RDF>
      <cc:Work
         rdf:about="">
        <dc:format>image/svg+xml</dc:format>
        <dc:type
           rdf:resource="http://purl.org/dc/dcmitype/StillImage" />
        <dc:title></dc:title>
      </cc:Work>
    </rdf:RDF>
  </metadata>
  <sodipodi:namedview
     pagecolor="#ffffff"
     bordercolor="#666666"
     borderopacity="1"
     objecttolerance="10"
     gridtolerance="10"
     guidetolerance="10"
     inkscape:pageopacity="0"
     inkscape:pageshadow="2"
     inkscape:window-width="1280"
     inkscape:window-height="694"
     id="namedview35"
     showgrid="false"
     inkscape:zoom="4.9166667"
     inkscape:cx="-9.1525424"
     inkscape:cy="24"
     inkscape:window-x="0"
     inkscape:window-y="0"
     inkscape:window-maximized="1"
     inkscape:current-layer="svg2" />
  <defs
     id="defs4">
    <linearGradient
       id="5">
      <stop
         stop-color="#141414"
         id="stop7" />
      <stop
         offset="1"
         stop-color="#2d2d2f"
         id="stop9" />
    </linearGradient>
    <linearGradient
       xlink:href="#5"
       id="4"
       x1="72.38"
       y1="29.13"
       x2="72.867"
       y2="-9.06"
       gradientUnits="userSpaceOnUse"
       gradientTransform="matrix(0.99999,0,0,1.4766849,-48.37,4.7265975)" />
    <linearGradient
       xlink:href="#5"
       id="6"
       x1="72.4"
       y1="34.832"
       x2="71.71"
       y2="-10.09"
       gradientUnits="userSpaceOnUse"
       gradientTransform="matrix(0.99999,0,0,0.99999,-48.37,10.882)" />
    <linearGradient
       xlink:href="#1"
       id="3"
       x1="65.38"
       y1="21.591"
       x2="64.56"
       y2="5.657"
       gradientUnits="userSpaceOnUse"
       gradientTransform="matrix(0.99999,0,0,1.4766849,-48.37,4.7265975)" />
    <linearGradient
       id="1">
      <stop
         stop-color="#30cf41"
         id="stop15" />
      <stop
         offset="1"
         stop-color="#47f383"
         id="stop17" />
    </linearGradient>
    <linearGradient
       xlink:href="#1"
       id="0"
       x1="72.54"
       y1="20.781"
       x2="72.38"
       y2="-1.033"
       gradientUnits="userSpaceOnUse"
       gradientTransform="matrix(0.99999,0,0,1.4766849,-48.37,4.7265975)" />
    <linearGradient
       xlink:href="#1"
       id="2"
       x1="79.3"
       y1="23.267"
       x2="78.63"
       y2="5.967"
       gradientUnits="userSpaceOnUse"
       gradientTransform="matrix(0.99999,0,0,1.4766849,-48.37,4.7265975)" />
  </defs>
  <g
     id="g4175"
     transform="matrix(1.9469011,0,0,1.136062,-22.514403,-2.8153383)">
    <path
       inkscape:connector-curvature="0"
       style="color:#000000;opacity:0.98699999;fill:#00d455"
       id="path27"
       d="m 11.749399,24.263139 0,8.833529 5.796942,5.686713 c 3.188968,3.127619 5.812942,5.686714 5.831942,5.686714 0.019,0 0.035,-3.970806 0.035,-8.824669 l 0,-8.823192 -5.793942,-5.697051 c -3.185968,-3.133525 -5.810942,-5.69705 -5.831942,-5.69705 -0.021,0 -0.039,3.975236 -0.039,8.833529" />
    <path
       inkscape:connector-curvature="0"
       style="color:#000000;opacity:0.98699999;fill:#00d455"
       id="path29"
       d="m 30.409212,21.528318 -5.789942,5.720678 -10e-5,8.679953 c -10e-5,4.774123 0.014,8.679954 0.033,8.679954 0.019,0 2.632973,-2.566478 5.808942,-5.702957 l 5.773942,-5.702957 0,-8.706534 c 0,-4.788889 -0.008,-8.702104 -0.017,-8.699151 -0.009,0 -2.621974,2.581245 -5.806942,5.728061" />
    <path
       inkscape:connector-curvature="0"
       style="color:#000000;opacity:0.98699999;fill:#00d455"
       id="path31"
       d="m 18.299333,8.2927915 c -3.106969,3.0670745 -5.675943,5.6158325 -5.708943,5.6630865 -0.067,0.09599 11.370887,11.491562 11.544885,11.501899 0.126999,0 11.372886,-11.104671 11.349886,-11.215422 -0.011,-0.05168 -10.531894,-10.5627271 -11.498885,-11.4886085 -0.021,-0.02215 -2.580974,2.4719705 -5.687943,5.539045" />
  </g>
  <path
     d="m 22.819288,46.646728 -12.419876,-12.203324 0,-2.720053 0,-16.944959 0,-0.906685 c 1.735983,-1.677514 0.335997,-0.321917 1.132989,-1.116374 L 22.63229,1.8071915 c 1.352986,-1.33049314 0.012,0 1.369986,-1.3245864 12.119879,11.8873139 9.147909,8.9634773 12.655874,12.4130129 0.95399,1.030726 0.176998,0.212643 0.94399,1.045493 l 0,0.7664 0,0.0694 0,16.944959 0,2.720054 c -3.511965,3.451012 -0.513995,0.505026 -0.849991,0.83728 l -11.569885,11.36752 -0.613993,0.558187 c -0.426996,0.406089 1.848981,-1.764638 -0.566995,0.531607 -1.120989,-1.049923 -0.001,0 -1.180988,-1.089794 m 0.424996,-2.300675 0,-17.294933 -0.094,-0.209689 -0.330997,-0.279094 -10.908891,-10.738452 0,17.364337 z m 1.510985,0 11.333886,-11.157831 0,-17.01584 -11.333886,11.157831 z M 24.189274,25.168347 35.239164,14.289609 24.000276,3.201182 12.900387,14.07992 23.66728,24.679564"
     id="path33"
     style="color:#000000;opacity:0.98699999;fill:none"
     inkscape:connector-curvature="0" />
</svg>
