<?xml version="1.0" encoding="UTF-8" standalone="no"?>
<svg
   xmlns:dc="http://purl.org/dc/elements/1.1/"
   xmlns:cc="http://creativecommons.org/ns#"
   xmlns:rdf="http://www.w3.org/1999/02/22-rdf-syntax-ns#"
   xmlns:svg="http://www.w3.org/2000/svg"
   xmlns="http://www.w3.org/2000/svg"
   xmlns:sodipodi="http://sodipodi.sourceforge.net/DTD/sodipodi-0.dtd"
   xmlns:inkscape="http://www.inkscape.org/namespaces/inkscape"
   viewBox="0 0 48 48"
   id="svg2"
   version="1.1"
   inkscape:version="0.91 r13725"
   sodipodi:docname="audio-editor.svg">
  <metadata
     id="metadata19">
    <rdf:RDF>
      <cc:Work
         rdf:about="">
        <dc:format>image/svg+xml</dc:format>
        <dc:type
           rdf:resource="http://purl.org/dc/dcmitype/StillImage" />
        <dc:title></dc:title>
      </cc:Work>
    </rdf:RDF>
  </metadata>
  <sodipodi:namedview
     pagecolor="#ffffff"
     bordercolor="#666666"
     borderopacity="1"
     objecttolerance="10"
     gridtolerance="10"
     guidetolerance="10"
     inkscape:pageopacity="0"
     inkscape:pageshadow="2"
     inkscape:window-width="1280"
     inkscape:window-height="694"
     id="namedview17"
     showgrid="false"
     inkscape:zoom="4.9166667"
     inkscape:cx="-9.1525424"
     inkscape:cy="24"
     inkscape:window-x="0"
     inkscape:window-y="0"
     inkscape:window-maximized="1"
     inkscape:current-layer="svg2" />
  <defs
     id="defs4">
    <linearGradient
       id="0"
       y1="546.29"
       x2="0"
       y2="501.51"
       gradientUnits="userSpaceOnUse"
       gradientTransform="matrix(1.07196,0,0,1.07196,-413.17,-537.6)">
      <stop
         stop-color="#197cf1"
         id="stop7" />
      <stop
         offset="1"
         stop-color="#20bcfa"
         id="stop9" />
    </linearGradient>
  </defs>
  <path
     style="fill:#0066ff;fill-opacity:0.85;stroke-width:1.31700003"
     inkscape:connector-curvature="0"
     id="path15"
     d="M 44.590502,7.5500991 C 40.969339,3.3766314 34.469881,0.95480245 25.290713,0.35124969 l -0.01464,0 c -0.676669,-0.0590212 -1.326368,-0.089482 -1.931938,-0.089482 -4.626361,0 -6.269,1.79923591 -6.269,3.33953511 l 0,26.8076672 c -1.81916,-0.426486 -3.773166,-0.548338 -5.700204,-0.359847 -3.3588293,0.329384 -6.369518,1.553626 -8.4755298,3.449963 -2.1060094,1.894436 -3.05481867,4.232491 -2.67235282,6.583873 0.7085405,4.363861 5.96744042,7.653893 12.23398562,7.653893 0.58841,0 1.184172,-0.02856 1.775031,-0.08759 6.494556,-0.635918 11.209178,-4.636126 11.209178,-9.512152 l 0,-26.306928 c 0.487888,-0.02476 0.975776,-0.03808 1.451406,-0.03808 5.727172,0 10.990975,1.860163 15.225061,5.378669 1.745612,1.450814 2.971462,2.894012 3.69226,3.845988 0.17652,0.234187 0.522214,0.359847 0.867904,0.312248 0.343236,-0.0476 0.615376,-0.257033 0.676669,-0.523587 0.693831,-2.962553 1.260173,-8.623007 -2.767971,-13.2610371" />
</svg>
