<?xml version="1.0" encoding="UTF-8" standalone="no"?>
<svg
   xmlns:dc="http://purl.org/dc/elements/1.1/"
   xmlns:cc="http://creativecommons.org/ns#"
   xmlns:rdf="http://www.w3.org/1999/02/22-rdf-syntax-ns#"
   xmlns:svg="http://www.w3.org/2000/svg"
   xmlns="http://www.w3.org/2000/svg"
   xmlns:sodipodi="http://sodipodi.sourceforge.net/DTD/sodipodi-0.dtd"
   xmlns:inkscape="http://www.inkscape.org/namespaces/inkscape"
   viewBox="0 0 48 48"
   id="svg2"
   version="1.1"
   inkscape:version="0.91 r13725"
   sodipodi:docname="avastgui.svg">
  <metadata
     id="metadata17">
    <rdf:RDF>
      <cc:Work
         rdf:about="">
        <dc:format>image/svg+xml</dc:format>
        <dc:type
           rdf:resource="http://purl.org/dc/dcmitype/StillImage" />
        <dc:title></dc:title>
      </cc:Work>
    </rdf:RDF>
  </metadata>
  <sodipodi:namedview
     pagecolor="#ffffff"
     bordercolor="#666666"
     borderopacity="1"
     objecttolerance="10"
     gridtolerance="10"
     guidetolerance="10"
     inkscape:pageopacity="0"
     inkscape:pageshadow="2"
     inkscape:window-width="1280"
     inkscape:window-height="694"
     id="namedview15"
     showgrid="false"
     inkscape:zoom="4.9166667"
     inkscape:cx="-9.1525424"
     inkscape:cy="24"
     inkscape:window-x="0"
     inkscape:window-y="0"
     inkscape:window-maximized="1"
     inkscape:current-layer="svg2" />
  <defs
     id="defs4">
    <linearGradient
       id="0"
       y1="546.78"
       x2="0"
       y2="500.8"
       gradientUnits="userSpaceOnUse">
      <stop
         stop-color="#f16419"
         id="stop7" />
      <stop
         offset="1"
         stop-color="#feb600"
         id="stop9" />
    </linearGradient>
  </defs>
  <path
     d="m 38.45788,0.48977811 c -0.818067,-0.0602849 -1.662716,0.0470516 -2.492598,0.32200954 -0.99379,0.32936125 -1.680436,0.75429625 -2.445345,1.51594445 -0.990836,0.9866136 -1.512096,2.0364528 -1.754268,3.4450608 -0.134376,0.7792924 -0.230359,1.073365 -0.462194,1.5615256 -0.887471,1.8732426 -2.821893,3.1701025 -4.753361,3.1701025 -0.160955,0 -0.673356,-0.02794 -1.15327,-0.08969 -1.940327,-0.252902 -2.824844,-0.28378 -4.844912,-0.08969 -0.546364,0.05146 -1.207907,0.08969 -1.430881,0.08969 -0.959828,0 -1.543107,-0.360239 -1.938852,-1.1483532 -0.245125,-0.4911035 -0.333725,-0.7366541 -0.323388,-1.6085795 0.0088,-0.7293 0.02511,-0.8160514 -0.09302,-1.1483536 C 16.576769,5.9742325 16.398094,5.7286819 15.981677,5.3140395 15.37477,4.7126611 14.738331,4.4406439 13.905496,4.4406439 c -0.543409,1.47e-4 -0.928817,0.08381 -1.385104,0.3220094 -0.961304,0.4984532 -1.562304,1.4189004 -1.615464,2.4805026 -0.03692,0.736652 0.104843,1.177761 0.50797,1.7923728 0.292379,0.44552 0.6453,0.7675296 1.292075,1.1027723 0.69846,0.360239 1.070578,0.701363 1.385105,1.332149 0.199349,0.398468 0.184583,0.435228 0.184583,0.873396 0,0.413172 0,0.455812 -0.138806,0.735182 -0.08269,0.16762 -0.320435,0.482278 -0.50797,0.6896 -1.730643,1.912942 -2.782023,3.978802 -3.230927,6.201991 -0.212639,1.05131 -0.274658,1.620341 -0.230358,2.756931 0.02067,0.544034 0.04873,1.149824 0.04578,1.332149 -0.01624,1.041017 -0.7604783,1.758555 -2.3537918,2.296707 -0.3839308,0.129392 -0.5581765,0.164681 -1.0617167,0.183796 -0.3898375,0.01618 -0.7014123,0 -0.9229108,-0.04558 -0.1993488,-0.03822 -0.6069063,-0.04706 -1.0159404,-0.04706 -0.7752452,0 -1.1429329,0.08528 -1.7542692,0.36759 -2.26519249,1.042488 -3.26045963,3.661204 -2.21498613,5.879982 1.33489833,2.83633 5.11957143,3.448002 7.29173473,1.193935 0.3219113,-0.333773 0.4828669,-0.586675 0.8313581,-1.193935 0.1107489,-0.194088 0.3366779,-0.466105 0.5079701,-0.644019 0.7693381,-0.798407 1.8207191,-1.193935 3.0463441,-1.193935 0.875659,0 1.393965,0.185266 2.076181,0.735182 1.13555,0.914566 2.718527,1.711502 4.106585,2.112912 1.5372,0.44552 2.406951,0.514626 4.983718,0.460224 0.756049,-0.01618 0.990838,0.025 1.337852,0.0897 0.965734,0.192618 1.907841,0.564619 2.722957,1.102773 0.599522,0.396998 1.587406,1.3792 1.984626,1.974697 0.536027,0.804289 0.933248,1.815899 1.061718,2.618717 0.215591,1.349793 0.47253,2.154082 0.92291,3.031889 1.218243,2.380517 3.396313,3.974391 6.091212,4.4552 0.742759,0.130862 2.343456,0.104399 3.092122,-0.04558 2.562,-0.520508 4.69577,-2.129086 5.860853,-4.409619 0.633486,-1.239517 0.921434,-2.373167 0.92291,-3.812651 0.003,-3.36125 -1.958047,-6.341677 -5.076748,-7.672356 -0.714702,-0.305835 -1.238915,-0.430816 -2.214985,-0.596967 -0.968688,-0.164681 -1.615463,-0.376413 -2.308016,-0.735181 -1.619894,-0.841048 -2.934118,-2.38493 -3.507062,-4.08908 -0.317481,-0.943974 -0.447427,-1.871772 -0.369165,-2.986308 0.04873,-0.704304 0.02067,-3.056884 -0.04578,-4.686048 -0.04282,-1.043957 0.110753,-1.686506 0.553745,-2.573134 0.509447,-1.016022 1.351142,-1.86001 2.39957,-2.38787 0.544885,-0.274958 0.937677,-0.373472 1.707015,-0.505806 0.815116,-0.139684 1.395442,-0.317598 2.030404,-0.642548 1.463368,-0.748415 2.567907,-2.021749 3.092121,-3.5832751 0.222975,-0.664604 0.277611,-1.2130496 0.277611,-1.9746976 0,-0.7645888 -0.09746,-1.3027418 -0.323388,-1.976168 C 43.116735,2.2909729 40.906179,0.67504387 38.453451,0.48830775 M 21.470413,13.995064 c 2.849948,-0.189678 5.713187,1.163057 7.33751,3.583274 0.586233,0.873396 1.052857,2.042335 1.2463,3.07747 0.135852,0.72489 0.100412,2.355522 -0.04578,3.031889 -0.425277,1.967346 -1.457461,3.628857 -2.999092,4.824262 -1.280262,0.992495 -2.709666,1.520355 -4.384195,1.654158 -0.335201,0.02794 -0.683693,0.05146 -0.73833,0.04706 -0.603952,-0.03824 -1.073529,-0.104398 -1.476657,-0.183796 -3.374162,-0.685189 -5.863806,-3.325961 -6.4146,-6.753378 -0.07826,-0.48816 -0.07974,-1.933527 0,-2.38934 0.320435,-1.843835 1.001174,-3.202451 2.260763,-4.4552 0.730945,-0.72636 1.331945,-1.149824 2.169209,-1.561526 0.69846,-0.344065 1.13112,-0.52786 1.845822,-0.68813 0.404605,-0.09116 0.792965,-0.157328 1.200523,-0.183795 m 0.877135,3.076 c -2.395138,-0.141155 -4.577638,1.3792 -5.214078,3.76707 -0.112225,0.421994 -0.138806,0.523449 -0.138806,1.240987 0,0.717537 0.02511,0.864573 0.138806,1.286567 0.261368,0.976321 0.881565,1.957053 1.615464,2.573136 0.564082,0.471986 1.244822,0.832225 1.754268,0.918977 1.385106,0.239669 2.746583,-0.701364 2.953315,-2.067331 l 0,-0.183795 -0.877135,0 c -0.632008,0 -0.961303,0 -1.153269,-0.04706 -1.123735,-0.291132 -1.891598,-1.304213 -1.891598,-2.434922 0,-0.694012 0.234789,-1.290979 0.73833,-1.792372 0.475483,-0.473458 1.114876,-0.735182 1.754268,-0.735182 1.13555,0 2.254857,0.860162 2.492598,1.974698 0.05315,0.249961 0.04578,0.798406 0.04578,2.573135 l 0,2.251126 0.277611,0 c 0.57442,-0.0647 1.197569,-0.348476 1.569686,-0.735182 0.220023,-0.229376 0.447428,-0.714596 0.553747,-1.057191 0.08269,-0.269076 0.09304,-0.439638 0.09304,-1.69974 0,-1.805606 -0.06202,-2.22613 -0.553747,-3.170102 -0.615766,-1.183643 -1.848775,-2.14673 -3.137897,-2.480503 -0.347014,-0.0897 -0.673356,-0.163211 -1.01594,-0.183795"
     id="path13"
     inkscape:connector-curvature="0"
     style="fill:#d45500;fill-opacity:0.74599998" />
</svg>
