<?xml version="1.0" encoding="UTF-8" standalone="no"?>
<!-- Created with Inkscape (http://www.inkscape.org/) -->

<svg
   xmlns:dc="http://purl.org/dc/elements/1.1/"
   xmlns:cc="http://creativecommons.org/ns#"
   xmlns:rdf="http://www.w3.org/1999/02/22-rdf-syntax-ns#"
   xmlns:svg="http://www.w3.org/2000/svg"
   xmlns="http://www.w3.org/2000/svg"
   xmlns:sodipodi="http://sodipodi.sourceforge.net/DTD/sodipodi-0.dtd"
   xmlns:inkscape="http://www.inkscape.org/namespaces/inkscape"
   id="svg2"
   version="1.1"
   inkscape:version="0.91 r13725"
   width="512"
   height="512"
   sodipodi:docname="azureus.svg">
  <metadata
     id="metadata8">
    <rdf:RDF>
      <cc:Work
         rdf:about="">
        <dc:format>image/svg+xml</dc:format>
        <dc:type
           rdf:resource="http://purl.org/dc/dcmitype/StillImage" />
        <dc:title></dc:title>
      </cc:Work>
    </rdf:RDF>
  </metadata>
  <defs
     id="defs6" />
  <sodipodi:namedview
     pagecolor="#ffffff"
     bordercolor="#666666"
     borderopacity="1"
     objecttolerance="10"
     gridtolerance="10"
     guidetolerance="10"
     inkscape:pageopacity="0"
     inkscape:pageshadow="2"
     inkscape:window-width="1280"
     inkscape:window-height="694"
     id="namedview4"
     showgrid="false"
     inkscape:zoom="0.4609375"
     inkscape:cx="-97.627119"
     inkscape:cy="256"
     inkscape:window-x="0"
     inkscape:window-y="0"
     inkscape:window-maximized="1"
     inkscape:current-layer="svg2" />
  <path
     style="fill:#0055d4"
     d="m 296.11401,510.3404 c -1.63206,-0.30414 -10.78935,-4.22468 -20.34951,-8.71233 -24.82805,-11.65457 -34.776,-13.93616 -60.81255,-13.94748 -39.39641,-0.0173 -47.14441,-3.33557 -65.09014,-27.87777 -5.96579,-8.1587 -6.67479,-8.71413 -14.52739,-11.38088 -14.37415,-4.88153 -27.0886,-15.41786 -33.40882,-27.68556 -3.181793,-6.17595 -3.754846,-10.6156 -2.422539,-18.76858 0.832629,-5.09535 0.708109,-5.55875 -1.493752,-5.55875 -5.270982,0 -15.641662,-4.97984 -20.936362,-10.0533 -6.065027,-5.81162 -11.264521,-15.79498 -12.119003,-23.26928 l -0.560222,-4.9004 -12.034571,0.51194 C 34.455747,359.45962 23.189897,356.22023 13.360876,347.48445 6.4732454,341.3629 2.9614486,333.35433 2.9470142,323.73588 c -0.00992,-6.63692 0.4615865,-8.36586 3.35138,-12.28774 1.8496407,-2.51023 4.3453748,-5.35399 5.5460768,-6.31946 3.440602,-2.76653 10.954332,-14.83305 13.634859,-21.89663 1.344014,-3.54167 3.792402,-12.83427 5.44086,-20.65022 1.648458,-7.81594 4.363587,-17.0139 6.033643,-20.43989 5.377618,-11.03185 18.766617,-17.92409 34.972855,-18.00295 12.211742,-0.0595 19.426965,2.45021 25.984731,9.03809 2.872491,2.88569 5.906001,5.24672 6.741101,5.24672 1.1735,0 7.03195,-9.64478 10.8312,-17.83139 0.22017,-0.47442 -1.42698,-1.92555 -3.66034,-3.22472 -5.03188,-2.92711 -6.80959,-6.61965 -6.80959,-14.14438 0,-13.68281 7.3263,-20.17905 33.65257,-29.83974 8.39838,-3.08189 9.88584,-4.11969 15.04359,-10.4959 9.66253,-11.9452 21.53486,-31.4376 37.03129,-60.7993 8.15281,-15.44744 17.57114,-32.878317 20.92962,-38.735276 3.35846,-5.856958 8.49764,-16.915926 11.42038,-24.575484 7.31171,-19.161682 9.27543,-20.850087 31.11991,-26.756699 37.02671,-10.0117947 47.66278,-11.68598279 62.63138,-9.8586059 25.66031,3.1326286 39.55403,13.1168909 51.1148,36.7319709 9.6802,19.773623 11.65319,31.795901 8.25829,50.321228 -0.94362,5.149152 -1.73546,16.471426 -1.75964,25.160616 -0.0482,17.25277 -1.8987,28.47268 -6.00565,36.40975 -1.44028,2.78345 -9.09139,11.40575 -17.00248,19.16069 -7.91108,7.75492 -15.93007,16.33582 -17.81995,19.06866 l -3.43616,4.96882 2.0916,7.61832 c 2.85551,10.4007 9.03901,22.75991 14.21108,28.40425 2.36139,2.57701 7.74528,7.18408 11.96417,10.23791 5.51722,3.99361 9.67767,8.44139 14.8193,15.8428 9.95435,14.32929 18.3541,19.71322 32.29493,20.69987 7.81261,0.55293 8.05621,0.48318 12.04396,-3.44848 4.33789,-4.27687 5.74073,-8.02619 8.03086,-21.46385 1.34874,-7.91387 1.27646,-8.7605 -1.13792,-13.32745 -4.5923,-8.68657 -3.20316,-11.97728 6.64478,-15.74061 10.10197,-3.86039 21.63795,-1.63798 21.63795,4.16857 0,1.35409 -3.21094,6.81926 -7.13543,12.14483 -8.67891,11.77737 -14.22761,22.99378 -14.22887,28.7629 -0.002,8.20871 9.9253,15.19317 18.64918,13.12111 7.01543,-1.66627 15.34778,-6.8778 24.02293,-15.02534 10.14644,-9.52931 15.19378,-11.80897 23.89618,-10.7928 8.50499,0.99312 12.95696,3.63381 12.95696,7.68545 0,8.12148 -8.85919,13.17665 -27.89351,15.91644 -16.91436,2.43466 -23.45594,5.42221 -32.24611,14.72695 -13.45828,14.24614 -16.35636,16.65842 -24.65375,20.52115 -12.24001,5.69813 -27.25831,7.99767 -44.58505,6.82665 -19.87338,-1.34315 -27.06036,-1.09699 -35.02941,1.19981 -9.9301,2.86201 -22.38029,3.01335 -25.13774,0.30556 -2.81637,-2.76562 -1.19864,-5.30454 5.64228,-8.85522 4.89288,-2.53958 6.22147,-2.68729 18.74553,-2.0842 15.78898,0.76031 20.93205,-0.59498 22.27482,-5.86975 1.96205,-7.70742 -13.69194,-28.03889 -32.0521,-41.62945 -12.64592,-9.36074 -16.72614,-13.22246 -21.14755,-20.01518 -2.29298,-3.52272 -4.08105,-5.2145 -4.78144,-4.52395 -0.61533,0.60668 -2.15033,7.87838 -3.41109,16.15934 -4.14831,27.24708 -11.02777,46.62135 -22.62331,63.71305 -11.4007,16.80446 -22.99296,26.3927 -50.07763,41.42043 -3.1659,1.75657 -5.30243,3.58384 -4.74783,4.0606 0.55458,0.47677 4.74725,2.06698 9.31705,3.53381 8.64969,2.7764 38.79707,17.08603 48.07178,22.81755 19.08002,11.79092 35.98658,31.66702 38.59463,45.37354 1.05476,5.54323 -1.11616,11.87016 -5.14123,14.98364 l -3.18597,2.4644 4.20543,-0.55467 c 7.20508,-0.95031 21.52513,-7.61941 30.67632,-14.28647 7.46727,-5.44027 9.53718,-6.3884 13.94676,-6.3884 6.02765,0 9.92592,3.00937 9.92592,7.66258 0,4.62728 -5.00562,8.24605 -14.58831,10.54648 -4.70656,1.12985 -12.57037,3.74108 -17.47513,5.80271 -10.21683,4.29446 -24.64226,7.57493 -51.31026,11.66842 -19.94564,3.0616 -25.82643,5.0699 -25.82643,8.81979 0,3.62153 3.69116,6.39392 13.18533,9.90334 25.28945,9.34799 33.10603,13.62474 33.10603,18.11361 0,1.15125 -0.80149,2.74902 -1.7811,3.55057 -1.94383,1.59055 -10.12061,2.4645 -14.83632,1.58575 z"
     id="path2982"
     inkscape:connector-curvature="0" />
</svg>
