<?xml version="1.0" encoding="UTF-8" standalone="no"?>
<svg
   xmlns:dc="http://purl.org/dc/elements/1.1/"
   xmlns:cc="http://creativecommons.org/ns#"
   xmlns:rdf="http://www.w3.org/1999/02/22-rdf-syntax-ns#"
   xmlns:svg="http://www.w3.org/2000/svg"
   xmlns="http://www.w3.org/2000/svg"
   xmlns:sodipodi="http://sodipodi.sourceforge.net/DTD/sodipodi-0.dtd"
   xmlns:inkscape="http://www.inkscape.org/namespaces/inkscape"
   viewBox="0 0 48 48"
   id="svg2"
   version="1.1"
   inkscape:version="0.91 r13725"
   sodipodi:docname="blogilo.svg">
  <metadata
     id="metadata57">
    <rdf:RDF>
      <cc:Work
         rdf:about="">
        <dc:format>image/svg+xml</dc:format>
        <dc:type
           rdf:resource="http://purl.org/dc/dcmitype/StillImage" />
        <dc:title></dc:title>
      </cc:Work>
    </rdf:RDF>
  </metadata>
  <sodipodi:namedview
     pagecolor="#ffffff"
     bordercolor="#666666"
     borderopacity="1"
     objecttolerance="10"
     gridtolerance="10"
     guidetolerance="10"
     inkscape:pageopacity="0"
     inkscape:pageshadow="2"
     inkscape:window-width="1280"
     inkscape:window-height="694"
     id="namedview55"
     showgrid="false"
     inkscape:zoom="4.9166667"
     inkscape:cx="-20.181334"
     inkscape:cy="24"
     inkscape:window-x="0"
     inkscape:window-y="0"
     inkscape:window-maximized="1"
     inkscape:current-layer="svg2" />
  <defs
     id="defs4">
    <linearGradient
       y2="147.64"
       x2="3.419"
       y1="204.55"
       x1=".967"
       gradientUnits="userSpaceOnUse"
       id="0"
       gradientTransform="matrix(0.4084,-3e-4,3.1e-4,0.38931,36.751,-88.66)">
      <stop
         stop-color="#f15400"
         id="stop7" />
      <stop
         offset="1"
         stop-color="#fa8c00"
         id="stop9" />
    </linearGradient>
    <linearGradient
       id="1"
       y1="14.831"
       x2="0"
       y2="-8.704"
       gradientUnits="userSpaceOnUse"
       gradientTransform="matrix(0.99999,0,0,0.99999,-23.371,30.882)">
      <stop
         stop-color="#cdd7dc"
         id="stop12" />
      <stop
         offset="1"
         stop-color="#ecf0f3"
         id="stop14" />
    </linearGradient>
    <linearGradient
       gradientTransform="matrix(.4084-.0003.00031.38931 36.647-88.77)"
       id="2"
       gradientUnits="userSpaceOnUse"
       x1="23.69"
       y1="264.74"
       x2="24.303"
       y2="154.71">
      <stop
         stop-color="#f16319"
         id="stop17" />
      <stop
         offset="1"
         stop-color="#feb600"
         id="stop19" />
    </linearGradient>
  </defs>
  <circle
     style="fill:#dbdee3"
     id="circle35"
     r="13.175868"
     cy="34.241966"
     cx="34.327423" />
  <path
     style="fill:#f47713"
     inkscape:connector-curvature="0"
     id="path37"
     d="m 29.058476,27.88403 c 1.151988,0.002 2.260977,0.152998 3.325966,0.452995 1.06599,0.299997 2.06298,0.723993 2.990971,1.270988 0.92899,0.546994 1.773982,1.202988 2.534974,1.96798 0.760993,0.763992 1.413986,1.611984 1.957981,2.542975 0.543994,0.93099 0.96399,1.92898 1.259987,2.99597 0.295997,1.066989 0.442996,2.175978 0.440996,3.327966 -10e-5,0.363997 -0.129999,0.673994 -0.387997,0.930991 -0.257997,0.256998 -0.568994,0.384996 -0.93299,0.384996 -0.363997,-10e-5 -0.673993,-0.129998 -0.931991,-0.387996 -0.256997,-0.257997 -0.384996,-0.568994 -0.384996,-0.932991 0.002,-0.90999 -0.114999,-1.785982 -0.350997,-2.630973 -0.235997,-0.843992 -0.567994,-1.632984 -0.99599,-2.365977 -0.427995,-0.732992 -0.94199,-1.400986 -1.541984,-1.99998 -0.599994,-0.601994 -1.265987,-1.118988 -1.99798,-1.549984 -0.731993,-0.430996 -1.518985,-0.765992 -2.362977,-0.99999 -0.842991,-0.238998 -1.719982,-0.358996 -2.628973,-0.360996 -0.363997,-1e-4 -0.673994,-0.129999 -0.930991,-0.387997 -0.256997,-0.257997 -0.384996,-0.568994 -0.384996,-0.93299 10e-5,-0.363997 0.129999,-0.673994 0.387996,-0.930991 0.257997,-0.256997 0.568994,-0.384996 0.932991,-0.384996 m -0.001,4.98695 c 1.040989,0.002 2.01998,0.202998 2.93197,0.603994 0.913991,0.400996 1.710983,0.942991 2.391976,1.625984 0.680994,0.682993 1.219988,1.482985 1.616984,2.397976 0.396996,0.914991 0.594994,1.892981 0.592994,2.93397 -1e-4,0.363997 -0.129998,0.673994 -0.387996,0.930991 -0.257997,0.256998 -0.568994,0.384996 -0.93299,0.384996 -0.363997,-1e-4 -0.673994,-0.129998 -0.930991,-0.387996 -0.256998,-0.257997 -0.384996,-0.568994 -0.384996,-0.932991 1e-4,-0.676993 -0.125999,-1.313986 -0.382996,-1.91098 -0.256998,-0.596994 -0.606994,-1.117989 -1.04999,-1.562985 -0.443995,-0.444995 -0.96399,-0.797992 -1.558984,-1.055989 -0.595994,-0.258998 -1.231988,-0.388996 -1.908981,-0.389996 -0.363997,-10e-5 -0.673994,-0.129999 -0.930991,-0.387996 -0.256997,-0.257998 -0.384996,-0.568995 -0.384996,-0.932991 10e-5,-0.363996 0.129999,-0.673993 0.387996,-0.930991 0.257997,-0.256997 0.568994,-0.384996 0.932991,-0.384996 m 2.411976,6.931931 c 0,0.262997 -0.049,0.504995 -0.144999,0.726992 -0.096,0.221998 -0.227998,0.415996 -0.394996,0.582995 -0.166998,0.165998 -0.363996,0.296997 -0.591994,0.392996 -0.227998,0.096 -0.467995,0.142998 -0.719993,0.142998 -0.262997,0 -0.504995,-0.049 -0.726993,-0.144998 -0.221997,-0.096 -0.415995,-0.227998 -0.582994,-0.394996 -0.165998,-0.166999 -0.296997,-0.361997 -0.392996,-0.583995 -0.096,-0.222997 -0.142998,-0.464995 -0.142998,-0.727992 0,-0.252998 0.049,-0.492995 0.144998,-0.719993 0.096,-0.226998 0.227998,-0.423996 0.394996,-0.589994 0.166999,-0.165998 0.361997,-0.296997 0.583994,-0.392996 0.221998,-0.096 0.464996,-0.142999 0.727993,-0.142999 0.252998,0 0.492995,0.049 0.719993,0.144999 0.226998,0.096 0.423996,0.227997 0.589994,0.394996 0.165998,0.166998 0.296997,0.363996 0.392996,0.591994 0.096,0.226998 0.142999,0.467995 0.142999,0.719993" />
  <g
     id="g41"
     style="color:#000000;fill:#ff6600;fill-opacity:0.847"
     transform="matrix(1.7141181,0,0,1.9767878,-48.323063,27.409554)">
    <ellipse
       style="fill:#ff6600"
       cx="29.895"
       cy="3.918"
       rx="1.505"
       ry="1.5"
       id="ellipse43" />
    <ellipse
       style="fill:#ff6600"
       cx="32.603001"
       cy="8.4180002"
       rx="1.806"
       ry="1.8"
       id="ellipse45" />
    <ellipse
       style="fill:#ff6600"
       cx="31.1"
       cy="-0.88200003"
       rx="0.903"
       ry="0.89999998"
       id="ellipse47" />
    <path
       style="fill:#ff6600"
       d="m 36.21,-1.782 -1.712,1.706 2.633,2.625 -2.727,3.094 1.806,1.575 4.213,-4.8 -4.213,-4.2"
       id="path49"
       inkscape:connector-curvature="0" />
  </g>
  <path
     style="fill:#ff6600;fill-opacity:0.847"
     d="M 36.33236,2.2786387 27.698616,11.98529 c -1.619555,1.819892 -1.165147,5.062264 0.906873,6.483041 2.072021,1.422483 5.763597,1.023369 7.38121,-0.796522 L 44.620441,7.9651573 45.700145,6.7524655 C 46.779848,5.5397735 46.47691,3.37876 45.09621,2.4304384 43.715509,1.4821168 41.255107,1.7481926 40.175404,2.9608845 L 39.0957,4.1735763 32.621364,11.453139 31.541661,12.665831 c -0.539852,0.607199 -0.388383,1.686853 0.302938,2.161013 0.691321,0.474161 1.920551,0.341123 2.460403,-0.266075 l 7.55404,-8.492255 1.3807,0.9483217 -7.554039,8.4922543 c -1.079704,1.212692 -3.540108,1.478768 -4.920807,0.530446 -1.3807,-0.948322 -1.683638,-3.109335 -0.603934,-4.322027 l 1.079703,-1.212692 7.554039,-8.4922541 c 1.619555,-1.81989066 5.309189,-2.21729883 7.38121,-0.796522 2.07202,1.4224824 2.524485,4.6631499 0.906872,6.4830406 L 46.003083,8.9117733 37.36934,18.618425 c -2.159406,2.42709 -7.080213,2.957536 -9.841612,1.060892 -2.763342,-1.896642 -3.367276,-6.21867 -1.20787,-8.644054 l 8.633744,-9.7066515 1.380699,0.9483216"
     id="path51"
     inkscape:connector-curvature="0" />
  <g
     id="g4137"
     transform="matrix(0.50739817,0,0,0.45599053,0.08354704,0.29261064)"
     style="fill:#ff7f2a">
    <rect
       x="-32.641804"
       y="32.847069"
       transform="matrix(0.70710642,-0.70710714,0.70710642,0.70710714,0,0)"
       width="8.374361"
       height="2.1873739"
       id="rect6"
       style="fill:#ff7f2a" />
    <path
       d="m 7.1603108,46.308221 c -0.2799864,0 -0.5599728,-0.107183 -0.7732437,-0.320454 L 2.0122795,41.612975 c -0.4276355,-0.427636 -0.4276355,-1.118853 0,-1.546489 L 14.589794,27.488959 c 0.427635,-0.427636 1.118852,-0.427636 1.546487,0 l 4.374788,4.374792 c 0.427635,0.427636 0.427635,1.118853 0,1.546489 L 7.9335545,45.987767 c -0.2132709,0.213271 -0.4932573,0.320454 -0.7732437,0.320454 z"
       id="path8"
       inkscape:connector-curvature="0"
       style="fill:#ff7f2a" />
    <path
       d="m 38.330672,15.137828 c -0.279986,0 -0.559972,-0.107183 -0.773243,-0.320454 l -4.374788,-4.374792 c -0.427635,-0.427636 -0.427635,-1.1188527 0,-1.5464886 l 8.202727,-8.20273499 c 0.427635,-0.42763591 1.118852,-0.42763591 1.546487,0 l 4.374788,4.37479199 c 0.427635,0.4276359 0.427635,1.1188531 0,1.546489 l -8.202727,8.2027346 c -0.213271,0.213271 -0.493257,0.320454 -0.773244,0.320454 z"
       id="path10"
       inkscape:connector-curvature="0"
       style="fill:#ff7f2a" />
    <path
       d="m 25.753158,40.839731 c -0.279986,0 -0.559973,-0.107183 -0.773244,-0.320454 -0.427635,-0.427636 -0.427635,-1.118853 0,-1.546489 L 41.705821,22.246865 38.104277,18.645317 c -0.427635,-0.427636 -0.427635,-1.118853 0,-1.546489 0.427636,-0.427636 1.118852,-0.427636 1.546488,0 l 4.374787,4.374792 c 0.427636,0.427636 0.427636,1.118853 0,1.546489 l -17.49915,17.499168 c -0.213271,0.213271 -0.493257,0.320454 -0.773244,0.320454 z"
       id="path12"
       inkscape:connector-curvature="0"
       style="fill:#ff7f2a" />
    <path
       d="M 44.025552,12.724036 35.275977,3.9744524 c -0.427635,-0.4276359 -1.118852,-0.4276359 -1.546487,0 L 9.1213093,28.582657 c -0.4276354,0.427636 -0.4276354,1.118853 0,1.546489 l 8.7495757,8.749584 c 0.21327,0.213271 0.493257,0.320454 0.773243,0.320454 0.279987,0 0.559973,-0.107183 0.773244,-0.320454 l 24.60818,-24.608205 c 0.427636,-0.427636 0.427636,-1.118853 0,-1.546489 z"
       id="path14"
       inkscape:connector-curvature="0"
       style="fill:#ff7f2a" />
  </g>
</svg>
