<?xml version="1.0" encoding="UTF-8" standalone="no"?>
<svg
   xmlns:dc="http://purl.org/dc/elements/1.1/"
   xmlns:cc="http://creativecommons.org/ns#"
   xmlns:rdf="http://www.w3.org/1999/02/22-rdf-syntax-ns#"
   xmlns:svg="http://www.w3.org/2000/svg"
   xmlns="http://www.w3.org/2000/svg"
   xmlns:sodipodi="http://sodipodi.sourceforge.net/DTD/sodipodi-0.dtd"
   xmlns:inkscape="http://www.inkscape.org/namespaces/inkscape"
   viewBox="0 0 48 48"
   id="svg2"
   version="1.1"
   inkscape:version="0.91 r13725"
   sodipodi:docname="boinc-manager.svg">
  <metadata
     id="metadata19">
    <rdf:RDF>
      <cc:Work
         rdf:about="">
        <dc:format>image/svg+xml</dc:format>
        <dc:type
           rdf:resource="http://purl.org/dc/dcmitype/StillImage" />
        <dc:title></dc:title>
      </cc:Work>
    </rdf:RDF>
  </metadata>
  <sodipodi:namedview
     pagecolor="#ffffff"
     bordercolor="#666666"
     borderopacity="1"
     objecttolerance="10"
     gridtolerance="10"
     guidetolerance="10"
     inkscape:pageopacity="0"
     inkscape:pageshadow="2"
     inkscape:window-width="1280"
     inkscape:window-height="694"
     id="namedview17"
     showgrid="false"
     inkscape:zoom="4.9166667"
     inkscape:cx="-9.1525424"
     inkscape:cy="24"
     inkscape:window-x="0"
     inkscape:window-y="0"
     inkscape:window-maximized="1"
     inkscape:current-layer="svg2" />
  <defs
     id="defs4">
    <linearGradient
       id="0"
       gradientUnits="userSpaceOnUse"
       y1="1052.61"
       x2="0"
       y2="1003.81"
       gradientTransform="translate(0,-1004.36)">
      <stop
         stop-color="#0a80fd"
         id="stop7" />
      <stop
         offset="1"
         stop-color="#56c5fa"
         id="stop9" />
    </linearGradient>
  </defs>
  <path
     style="fill:#5599ff;fill-opacity:0.853"
     inkscape:connector-curvature="0"
     id="path15"
     d="m 40.253622,0.44136796 -5.576213,9.69552304 -2.499913,4.267246 c 2.870209,2.409938 4.807139,6.023156 4.807139,10.084223 0,1.292849 -0.231226,2.504578 -0.576387,3.684196 l 4.230749,2.521479 c 0.70708,-1.940118 1.154451,-4.017127 1.154451,-6.205675 0,-3.915728 -1.167855,-7.515425 -3.268988,-10.472923 L 44.677061,2.961156 40.255298,0.43967797 M 3.1419806,2.7668062 0.6420678,7.4210627 l 9.4215882,5.4299663 4.421763,2.519787 c 2.372571,-2.514718 5.706905,-4.072896 9.421589,-4.072896 1.198014,0 2.359166,0.277159 3.461675,0.583049 L 29.868595,7.4210627 C 28.008742,6.7602732 25.991384,6.4510034 23.908683,6.4510034 c -3.548805,0 -6.829521,1.1103291 -9.614276,2.9084877 L 3.1419806,2.7668062 M 23.907008,14.015437 c -5.773928,0 -10.383352,4.647497 -10.383352,10.471232 0,5.823737 4.609424,10.667273 10.383352,10.667273 5.773927,0 10.38335,-4.843536 10.38335,-10.667273 0,-5.823735 -4.609423,-10.472921 -10.38335,-10.472921 M 7.3710557,17.697945 c -0.8478257,2.100668 -1.3454625,4.380476 -1.3454625,6.793794 0,3.494918 0.9868959,6.736335 2.6926005,9.502863 l -6.5379758,11.248631 4.6144504,2.521479 5.3835257,-9.502863 2.499912,-4.461596 c -2.391002,-2.382899 -3.845375,-5.651356 -3.845375,-9.308514 0,-1.507478 0.306625,-2.916938 0.769075,-4.265556 L 7.3710557,17.704704 M 33.712296,33.032993 c -2.387653,2.776668 -5.876136,4.655946 -9.805288,4.655946 -1.58004,0 -3.021007,-0.25688 -4.421764,-0.775709 l -2.499912,4.265557 c 2.141346,0.91429 4.450247,1.357069 6.921676,1.357069 3.791758,0 7.29197,-1.07484 10.190663,-3.102838 l 10.959738,6.400026 2.499913,-4.654257 -9.421589,-5.624316 -4.421762,-2.521478" />
</svg>
