<?xml version="1.0" encoding="UTF-8" standalone="no"?>
<svg
   xmlns:dc="http://purl.org/dc/elements/1.1/"
   xmlns:cc="http://creativecommons.org/ns#"
   xmlns:rdf="http://www.w3.org/1999/02/22-rdf-syntax-ns#"
   xmlns:svg="http://www.w3.org/2000/svg"
   xmlns="http://www.w3.org/2000/svg"
   xmlns:xlink="http://www.w3.org/1999/xlink"
   xmlns:sodipodi="http://sodipodi.sourceforge.net/DTD/sodipodi-0.dtd"
   xmlns:inkscape="http://www.inkscape.org/namespaces/inkscape"
   viewBox="0 0 48 48"
   id="svg2"
   version="1.1"
   inkscape:version="0.91 r13725"
   sodipodi:docname="bomi.svg">
  <metadata
     id="metadata28">
    <rdf:RDF>
      <cc:Work
         rdf:about="">
        <dc:format>image/svg+xml</dc:format>
        <dc:type
           rdf:resource="http://purl.org/dc/dcmitype/StillImage" />
        <dc:title></dc:title>
      </cc:Work>
    </rdf:RDF>
  </metadata>
  <sodipodi:namedview
     pagecolor="#ffffff"
     bordercolor="#666666"
     borderopacity="1"
     objecttolerance="10"
     gridtolerance="10"
     guidetolerance="10"
     inkscape:pageopacity="0"
     inkscape:pageshadow="2"
     inkscape:window-width="1280"
     inkscape:window-height="694"
     id="namedview26"
     showgrid="false"
     inkscape:zoom="4.9166667"
     inkscape:cx="-9.1525424"
     inkscape:cy="24"
     inkscape:window-x="0"
     inkscape:window-y="0"
     inkscape:window-maximized="1"
     inkscape:current-layer="svg2" />
  <defs
     id="defs4">
    <linearGradient
       xlink:href="#0"
       id="3"
       y1="541.9"
       x2="0"
       y2="517.9"
       gradientUnits="userSpaceOnUse"
       gradientTransform="matrix(1.95615,0,0,1.95615,-722.12,-1012.57)" />
    <linearGradient
       xlink:href="#0"
       id="2"
       y1="541.9"
       x2="0"
       y2="517.9"
       gradientUnits="userSpaceOnUse"
       gradientTransform="matrix(1.95615,0,0,1.95615,-722.12,-1012.57)" />
    <linearGradient
       id="0">
      <stop
         stop-color="#fa345d"
         id="stop9" />
      <stop
         offset="1"
         stop-color="#f76a8d"
         id="stop11" />
    </linearGradient>
    <linearGradient
       xlink:href="#0"
       id="1"
       gradientUnits="userSpaceOnUse"
       x1="407.53"
       y1="537.31"
       x2="407.74"
       y2="509.62" />
  </defs>
  <g
     style="fill:#c83771;stroke-width:1.31700003"
     id="g18"
     transform="matrix(3.36211,0,0,2.6747614,-1265.0031,-1385.6132)">
    <path
       style="fill:#c83771;fill-opacity:0.853"
       inkscape:connector-curvature="0"
       id="path20"
       d="m 380.92728,523.89968 a 0.50005,0.545507 0 0 1 0.23828,0.0684 l 9,5.455 a 0.50005,0.545507 0 0 1 0,0.95312 l -9,5.455 a 0.50005,0.545507 0 0 1 -0.74219,-0.47656 l 0,-10.91 a 0.50005,0.545507 0 0 1 0.50391,-0.54492" />
    <path
       style="fill:#c83771;fill-opacity:0.85500004"
       inkscape:connector-curvature="0"
       id="path22"
       d="m 379.42,518.1 0,16.83 c 0,0.554 -0.45,1 -1.01,1 l -1.01,0 c -0.559,0 -1.01,-0.446 -1.01,-1 l 0,-15.893 c 0.765,-0.383 1.917,-0.795 3.03,-0.938" />
  </g>
</svg>
