<?xml version="1.0" encoding="UTF-8" standalone="no"?>
<svg
   xmlns:dc="http://purl.org/dc/elements/1.1/"
   xmlns:cc="http://creativecommons.org/ns#"
   xmlns:rdf="http://www.w3.org/1999/02/22-rdf-syntax-ns#"
   xmlns:svg="http://www.w3.org/2000/svg"
   xmlns="http://www.w3.org/2000/svg"
   xmlns:sodipodi="http://sodipodi.sourceforge.net/DTD/sodipodi-0.dtd"
   xmlns:inkscape="http://www.inkscape.org/namespaces/inkscape"
   viewBox="0 0 48 48"
   id="svg2"
   version="1.1"
   inkscape:version="0.91 r13725"
   sodipodi:docname="bzr-icon-64.svg">
  <metadata
     id="metadata24">
    <rdf:RDF>
      <cc:Work
         rdf:about="">
        <dc:format>image/svg+xml</dc:format>
        <dc:type
           rdf:resource="http://purl.org/dc/dcmitype/StillImage" />
        <dc:title></dc:title>
      </cc:Work>
    </rdf:RDF>
  </metadata>
  <sodipodi:namedview
     pagecolor="#ffffff"
     bordercolor="#666666"
     borderopacity="1"
     objecttolerance="10"
     gridtolerance="10"
     guidetolerance="10"
     inkscape:pageopacity="0"
     inkscape:pageshadow="2"
     inkscape:window-width="1280"
     inkscape:window-height="694"
     id="namedview22"
     showgrid="false"
     inkscape:zoom="4.9166667"
     inkscape:cx="-9.1525424"
     inkscape:cy="24"
     inkscape:window-x="0"
     inkscape:window-y="0"
     inkscape:window-maximized="1"
     inkscape:current-layer="svg2" />
  <defs
     id="defs4">
    <linearGradient
       id="0"
       y1="22.12"
       x2="0"
       y2="-27.875"
       gradientUnits="userSpaceOnUse"
       gradientTransform="matrix(0.99996,0,0,0.99999,-43.37,25.882)">
      <stop
         stop-color="#f15f19"
         id="stop7" />
      <stop
         offset="1"
         stop-color="#fbb521"
         id="stop9" />
    </linearGradient>
    <linearGradient
       id="1"
       x1="66.957"
       y1="17.05"
       x2="66.58"
       y2="-19.01"
       gradientUnits="userSpaceOnUse"
       gradientTransform="matrix(0.99996,0,0,0.99999,-43.37,25.882)">
      <stop
         stop-color="#e2e2e2"
         id="stop12" />
      <stop
         offset="1"
         stop-color="#fff"
         id="stop14" />
    </linearGradient>
  </defs>
  <path
     inkscape:connector-curvature="0"
     style="fill:#ff6600"
     id="path20"
     d="M 47.096381,21.87204 26.13922,0.91524967 c -1.205952,-1.20698793 -3.163874,-1.20698793 -4.371826,0 l -4.351826,4.35195653 5.51978,5.5199448 c 1.282948,-0.432996 2.75389,-0.141999 3.776849,0.879991 1.027958,1.02899 1.316947,2.512975 0.871965,3.799962 l 5.320787,5.319947 c 1.287948,-0.443996 2.771889,-0.156998 3.800848,0.872991 1.436942,1.435986 1.436942,3.763963 0,5.201948 -1.437943,1.436986 -3.76485,1.436986 -5.203792,0 -1.079957,-1.081989 -1.347946,-2.668973 -0.799968,-3.99996 l -4.962801,-4.96195 0,13.059869 c 0.349986,0.172998 0.680972,0.403996 0.971961,0.694993 1.436942,1.435986 1.436942,3.763963 0,5.202948 -1.436943,1.435986 -3.76585,1.435986 -5.200792,0 -1.436943,-1.438985 -1.436943,-3.765962 0,-5.202948 0.354985,-0.354996 0.765969,-0.622993 1.204951,-0.802992 l 0,-13.178868 C 22.276374,17.493084 21.86639,17.227087 21.510405,16.87009 20.422448,15.782101 20.160459,14.185117 20.718436,12.85013 L 15.276654,7.4071848 0.90622888,21.777041 c -1.20695172,1.207988 -1.20695172,3.165968 0,4.372956 L 21.864391,47.106788 c 1.206951,1.206988 3.163873,1.206988 4.371825,0 L 47.095381,26.246996 c 1.206952,-1.206988 1.206952,-3.165968 0,-4.372956" />
</svg>
