<?xml version="1.0" encoding="UTF-8" standalone="no"?>
<svg
   xmlns:dc="http://purl.org/dc/elements/1.1/"
   xmlns:cc="http://creativecommons.org/ns#"
   xmlns:rdf="http://www.w3.org/1999/02/22-rdf-syntax-ns#"
   xmlns:svg="http://www.w3.org/2000/svg"
   xmlns="http://www.w3.org/2000/svg"
   xmlns:sodipodi="http://sodipodi.sourceforge.net/DTD/sodipodi-0.dtd"
   xmlns:inkscape="http://www.inkscape.org/namespaces/inkscape"
   viewBox="0 0 48 48"
   id="svg2"
   version="1.1"
   inkscape:version="0.91 r13725"
   sodipodi:docname="choqok.svg">
  <metadata
     id="metadata17">
    <rdf:RDF>
      <cc:Work
         rdf:about="">
        <dc:format>image/svg+xml</dc:format>
        <dc:type
           rdf:resource="http://purl.org/dc/dcmitype/StillImage" />
        <dc:title></dc:title>
      </cc:Work>
    </rdf:RDF>
  </metadata>
  <sodipodi:namedview
     pagecolor="#ffffff"
     bordercolor="#666666"
     borderopacity="1"
     objecttolerance="10"
     gridtolerance="10"
     guidetolerance="10"
     inkscape:pageopacity="0"
     inkscape:pageshadow="2"
     inkscape:window-width="1280"
     inkscape:window-height="694"
     id="namedview15"
     showgrid="false"
     inkscape:zoom="4.9166667"
     inkscape:cx="-9.1525424"
     inkscape:cy="24"
     inkscape:window-x="0"
     inkscape:window-y="0"
     inkscape:window-maximized="1"
     inkscape:current-layer="svg2" />
  <defs
     id="defs4">
    <linearGradient
       id="0"
       y1="546.29"
       x2="0"
       y2="501.51"
       gradientUnits="userSpaceOnUse">
      <stop
         stop-color="#45ac03"
         id="stop7" />
      <stop
         offset="1"
         stop-color="#98e046"
         id="stop9" />
    </linearGradient>
  </defs>
  <path
     d="m 47.65403,5.7993636 c -1.749356,0.9568314 -3.626641,1.605355 -5.598949,1.895015 2.013943,-1.4884963 3.55546,-3.8488738 4.286094,-6.655137 -1.889038,1.3782681 -3.974164,2.379025 -6.195948,2.9214642 -1.779241,-2.3425584 -4.309596,-3.80121861 -7.114947,-3.80121861 -5.385737,0 -9.750735,5.38709731 -9.750735,12.02980281 0,0.941912 0.08629,1.862278 0.252497,2.742032 C 15.429934,14.42908 8.2444755,9.6378776 3.4359263,2.3578372 2.5954953,4.1322642 2.1170239,6.1992519 2.1170239,8.4063043 c 0,4.1770727 1.7228319,7.8593607 4.3364593,10.0158577 -1.5979254,-0.06589 -3.100829,-0.608329 -4.4167067,-1.510046 l 0,0.15001 c 0,5.826353 3.3610479,10.69256 7.8203973,11.799815 -0.8169263,0.271427 -1.6781728,0.421437 -2.5693039,0.421437 -0.6295683,0 -1.2386533,-0.07666 -1.8356513,-0.223357 1.2413392,4.783742 4.8414554,8.262563 9.1060584,8.358288 -3.33553,3.225629 -7.5413744,5.143021 -12.1078342,5.143021 -0.7870419,0 -1.56233213,-0.05884 -2.32553606,-0.164929 4.31564106,3.419978 9.43846956,5.416105 14.94609126,5.416105 17.936785,0 27.741244,-18.33685 27.741244,-34.237075 l -0.03257,-1.5577 C 44.695232,10.33157 46.352589,8.2127832 47.656716,5.80185"
     id="path13"
     style="fill:#55d400;fill-opacity:0.85"
     inkscape:connector-curvature="0" />
</svg>
