<?xml version="1.0" encoding="UTF-8" standalone="no"?>
<svg
   xmlns:dc="http://purl.org/dc/elements/1.1/"
   xmlns:cc="http://creativecommons.org/ns#"
   xmlns:rdf="http://www.w3.org/1999/02/22-rdf-syntax-ns#"
   xmlns:svg="http://www.w3.org/2000/svg"
   xmlns="http://www.w3.org/2000/svg"
   xmlns:sodipodi="http://sodipodi.sourceforge.net/DTD/sodipodi-0.dtd"
   xmlns:inkscape="http://www.inkscape.org/namespaces/inkscape"
   viewBox="0 0 48 48"
   id="svg2"
   version="1.1"
   inkscape:version="0.91 r13725"
   sodipodi:docname="codelite.svg">
  <metadata
     id="metadata19">
    <rdf:RDF>
      <cc:Work
         rdf:about="">
        <dc:format>image/svg+xml</dc:format>
        <dc:type
           rdf:resource="http://purl.org/dc/dcmitype/StillImage" />
        <dc:title></dc:title>
      </cc:Work>
    </rdf:RDF>
  </metadata>
  <sodipodi:namedview
     pagecolor="#ffffff"
     bordercolor="#666666"
     borderopacity="1"
     objecttolerance="10"
     gridtolerance="10"
     guidetolerance="10"
     inkscape:pageopacity="0"
     inkscape:pageshadow="2"
     inkscape:window-width="1280"
     inkscape:window-height="694"
     id="namedview17"
     showgrid="false"
     inkscape:zoom="4.9166667"
     inkscape:cx="-42"
     inkscape:cy="24"
     inkscape:window-x="0"
     inkscape:window-y="0"
     inkscape:window-maximized="1"
     inkscape:current-layer="svg2" />
  <defs
     id="defs4">
    <linearGradient
       y2="145.15"
       x2="25.934"
       y1="265.58"
       x1="25.843"
       gradientUnits="userSpaceOnUse"
       id="0"
       gradientTransform="matrix(0.43552564,-3.199968e-4,3.299967e-4,0.41516585,13.65648,-62.242119)">
      <stop
         stop-color="#97a9b1"
         id="stop7" />
      <stop
         offset="1"
         stop-color="#cfdce1"
         id="stop9" />
    </linearGradient>
  </defs>
  <path
     style="fill:#6f916f;fill-opacity:1;fill-rule:evenodd;stroke-width:1.31700003"
     inkscape:connector-curvature="0"
     id="path15"
     d="m 47.599219,21.279651 c -0.0744,-0.66517 -0.853258,-1.164838 -1.526052,-1.164838 -2.176682,0 -4.106412,-1.272025 -4.916929,-3.239172 -0.827931,-2.016008 -0.294446,-4.366179 1.328172,-5.846268 0.50974,-0.46499 0.573062,-1.2420756 0.14406,-1.7827248 C 41.514007,7.8390686 40.249157,6.5670438 38.867159,5.4636771 38.325759,5.0317859 37.531072,5.0916836 37.062492,5.6086914 35.647252,7.1691684 33.104886,7.7492233 31.14033,6.932731 29.096622,6.0768353 27.806443,4.0135384 27.933086,1.7989234 27.974245,1.1038024 27.464505,0.49852696 26.767967,0.41813874 24.99496,0.21322785 23.204539,0.20692277 21.4252,0.403952 20.736576,0.47961049 20.226836,1.0707008 20.248999,1.7563651 20.326568,3.9489118 19.022142,5.975956 16.997431,6.8003275 15.056621,7.590023 12.531667,7.0146965 11.119594,5.4684063 10.652597,4.9592813 9.8721571,4.8962305 9.3275898,5.3186622 7.9044348,6.4299106 6.6095059,7.7035107 5.4855457,9.1000581 5.0470433,9.6422838 5.1119487,10.430403 5.6280209,10.896969 c 1.6526968,1.489545 2.1861828,3.860208 1.3281732,5.899861 -0.8200162,1.943502 -2.8463101,3.196612 -5.1670503,3.196612 -0.7535283,-0.02364 -1.28859654,0.479177 -1.37091477,1.160111 -0.20896147,1.776421 -0.21054453,3.585942 -0.0110818,5.376549 0.0744038,0.666749 0.87700544,1.163264 1.55771314,1.163264 2.0674533,-0.05202 4.0525893,1.221584 4.8852699,3.240745 0.829513,2.01601 0.2960288,4.364604 -1.328173,5.84627 -0.508157,0.464989 -0.5730608,1.240499 -0.1440584,1.781149 1.1033804,1.3997 2.3698143,2.6733 3.7565591,3.784548 0.5445672,0.436619 1.336088,0.375144 1.807835,-0.141862 1.419989,-1.565206 3.962355,-2.143685 5.918994,-1.325618 2.050041,0.854322 3.338637,2.916042 3.211994,5.132234 -0.04116,0.695119 0.471747,1.301971 1.165119,1.380784 0.907084,0.105612 1.820498,0.157626 2.735496,0.157626 0.869091,0 1.738181,-0.04729 2.607272,-0.143439 0.688624,-0.07566 1.198362,-0.66675 1.176201,-1.35399 -0.07916,-2.190971 1.226858,-4.218014 3.248402,-5.042387 1.953475,-0.794424 4.467346,-0.212791 5.881002,1.331922 0.470164,0.509125 1.245855,0.570597 1.792005,0.149744 1.419989,-1.109671 2.71175,-2.381696 3.842043,-3.781395 0.438504,-0.542227 0.376764,-1.330346 -0.142476,-1.796913 -1.652695,-1.489545 -2.189347,-3.861783 -1.329754,-5.898283 0.80735,-1.918283 2.759242,-3.204493 4.858356,-3.204493 l 0.294446,0.0079 c 0.680709,0.05517 1.307593,-0.466566 1.389911,-1.158536 0.208962,-1.777995 0.212128,-3.585942 0.01103,-5.376548 M 24.04355,31.845149 c -4.367613,0 -7.915212,-3.537078 -7.915212,-7.881192 0,-4.348841 3.552347,-7.881192 7.915212,-7.881192 4.367613,0 7.915212,3.53708 7.915212,7.881192 0,4.348843 -3.552348,7.881192 -7.915212,7.881192" />
  <path
     style="fill:#b7c8b7;fill-opacity:1;fill-rule:evenodd;stroke-width:1.31700003"
     inkscape:connector-curvature="0"
     id="path15-8"
     d="m 47.668731,34.458638 c -0.03776,-0.339028 -0.433021,-0.593702 -0.774457,-0.593702 -1.104646,0 -2.083966,-0.648334 -2.495296,-1.650962 -0.420167,-1.027532 -0.149429,-2.225382 0.674034,-2.979764 0.258689,-0.236999 0.290824,-0.633069 0.07311,-0.90863 -0.565579,-0.717424 -1.207479,-1.365759 -1.90883,-1.928129 -0.274756,-0.22013 -0.678052,-0.189601 -0.915853,0.07391 -0.718221,0.795353 -2.008447,1.090999 -3.005442,0.674845 -1.037163,-0.436239 -1.691916,-1.487874 -1.627646,-2.616633 0.02089,-0.354294 -0.2378,-0.662794 -0.591288,-0.703767 -0.899784,-0.104441 -1.808406,-0.107654 -2.711404,-0.0073 -0.34947,0.03856 -0.608158,0.339833 -0.596911,0.689307 0.03937,1.117511 -0.622618,2.150668 -1.650141,2.570839 -0.984943,0.402497 -2.266334,0.109261 -2.982947,-0.678862 -0.236997,-0.259495 -0.633063,-0.291631 -0.909427,-0.07632 -0.722238,0.566388 -1.379402,1.215525 -1.949801,1.927327 -0.222536,0.276364 -0.189597,0.678058 0.0723,0.91586 0.838728,0.759201 1.109467,1.967496 0.674035,3.00708 -0.41615,0.990576 -1.444475,1.629269 -2.622229,1.629269 -0.38241,-0.01205 -0.653951,0.244231 -0.695727,0.591293 -0.106047,0.905418 -0.10685,1.827706 -0.0056,2.740355 0.03776,0.339833 0.445072,0.5929 0.790525,0.5929 1.049214,-0.02652 2.056652,0.622625 2.479229,1.651764 0.420971,1.027533 0.150231,2.224579 -0.674035,2.979765 -0.257885,0.236998 -0.290823,0.632265 -0.07311,0.907827 0.559956,0.713409 1.202659,1.362545 1.906419,1.928934 0.276363,0.222538 0.678052,0.191205 0.917459,-0.07231 0.720633,-0.797764 2.010859,-1.092607 3.003835,-0.675649 1.040377,0.435436 1.694328,1.486267 1.630058,2.61583 -0.02089,0.354293 0.239407,0.663598 0.591287,0.703767 0.460337,0.05383 0.923885,0.08034 1.388238,0.08034 0.441057,0 0.882112,-0.02411 1.323167,-0.07311 0.34947,-0.03856 0.608158,-0.339833 0.596911,-0.69011 -0.04018,-1.116709 0.622619,-2.149865 1.648533,-2.570037 0.991371,-0.404907 2.267137,-0.108456 2.984555,0.678863 0.238604,0.259494 0.63226,0.290826 0.909426,0.07632 0.720631,-0.565585 1.376188,-1.213918 1.949801,-1.927326 0.222537,-0.276366 0.191204,-0.67806 -0.0723,-0.915862 -0.838728,-0.759202 -1.111074,-1.968299 -0.674839,-3.006275 0.409723,-0.977723 1.40029,-1.633288 2.465572,-1.633288 l 0.149428,0.004 c 0.345454,0.02812 0.663591,-0.237802 0.705367,-0.59049 0.106046,-0.90622 0.107653,-1.827706 0.0056,-2.740354 m -11.955864,5.383474 c -2.216524,0 -4.016898,-1.8028 -4.016898,-4.016937 0,-2.216545 1.802784,-4.016937 4.016898,-4.016937 2.216523,0 4.016896,1.802802 4.016896,4.016937 0,2.216547 -1.802783,4.016937 -4.016896,4.016937" />
</svg>
