<?xml version="1.0" encoding="UTF-8" standalone="no"?>
<svg
   xmlns:dc="http://purl.org/dc/elements/1.1/"
   xmlns:cc="http://creativecommons.org/ns#"
   xmlns:rdf="http://www.w3.org/1999/02/22-rdf-syntax-ns#"
   xmlns:svg="http://www.w3.org/2000/svg"
   xmlns="http://www.w3.org/2000/svg"
   xmlns:sodipodi="http://sodipodi.sourceforge.net/DTD/sodipodi-0.dtd"
   xmlns:inkscape="http://www.inkscape.org/namespaces/inkscape"
   x="0px"
   y="0px"
   width="48px"
   height="48px"
   viewBox="0 0 48 48"
   id="svg2"
   version="1.1"
   inkscape:version="0.91 r13725"
   sodipodi:docname="cups-launcher.svg">
  <metadata
     id="metadata26">
    <rdf:RDF>
      <cc:Work
         rdf:about="">
        <dc:format>image/svg+xml</dc:format>
        <dc:type
           rdf:resource="http://purl.org/dc/dcmitype/StillImage" />
        <dc:title></dc:title>
      </cc:Work>
    </rdf:RDF>
  </metadata>
  <defs
     id="defs24" />
  <sodipodi:namedview
     pagecolor="#ffffff"
     bordercolor="#666666"
     borderopacity="1"
     objecttolerance="10"
     gridtolerance="10"
     guidetolerance="10"
     inkscape:pageopacity="0"
     inkscape:pageshadow="2"
     inkscape:window-width="1280"
     inkscape:window-height="694"
     id="namedview22"
     showgrid="false"
     inkscape:zoom="4.9166667"
     inkscape:cx="-9.1525424"
     inkscape:cy="24"
     inkscape:window-x="0"
     inkscape:window-y="0"
     inkscape:window-maximized="1"
     inkscape:current-layer="svg2" />
  <path
     style="fill:#939dac"
     inkscape:connector-curvature="0"
     id="path6"
     d="m 41.424469,1.2173915 c 0,-0.56929102 -0.46166,-1.03095074 -1.030951,-1.03095074 l -32.9904223,0 c -0.5692908,0 -1.0309507,0.46165972 -1.0309507,1.03095074 l 0,10.3095065 35.052324,0 0,-10.3095065 z" />
  <path
     style="fill:#b7bec8"
     inkscape:connector-curvature="0"
     id="path8"
     d="m 43.48637,10.495948 -39.1761264,0 c -2.2774732,0 -4.12380284,1.846329 -4.12380284,4.123803 l 0,20.619014 c 0,1.138787 0.92311324,2.061901 2.06190144,2.061901 l 7.2166549,0 c 0.5692909,0 1.0309509,-0.46166 1.0309509,-1.030951 l 26.803687,0 c 0,0.569291 0.46166,1.030951 1.030951,1.030951 l 7.217686,0 c 1.138787,0 2.061901,-0.923114 2.061901,-2.061901 l 0,-20.619014 c 0,-2.277474 -1.846331,-4.123803 -4.123803,-4.123803 z" />
  <path
     style="fill:#6f7c91"
     inkscape:connector-curvature="0"
     id="path10"
     d="m 41.424469,37.300666 -35.052324,0 0,-12.371408 c 0,-0.569395 0.4615566,-1.030951 1.0309507,-1.030951 l 32.9904223,0 c 0.569393,0 1.030951,0.461556 1.030951,1.030951 l 0,12.371408 z" />
  <path
     style="fill:#80b3ff"
     inkscape:connector-curvature="0"
     id="path12"
     d="m 8.4340464,25.960208 0,20.619014 c 0,0.569291 0.4616594,1.030951 1.0309507,1.030951 l 28.8666199,0 c 0.569291,0 1.03095,-0.46166 1.03095,-1.030951 l 0,-20.619014 -30.9285206,0 z" />
  <circle
     style="fill:#162d50"
     id="circle14"
     r="1.5464261"
     cy="17.197126"
     cx="41.939945" />
  <path
     style="fill:#162d50"
     inkscape:connector-curvature="0"
     id="path16"
     d="m 32.145912,32.145912 -16.496242,0 c -0.569806,0 -1.03095,-0.461659 -1.03095,-1.03095 0,-0.569291 0.461144,-1.030951 1.03095,-1.030951 l 16.496242,0 c 0.569807,0 1.030951,0.46166 1.030951,1.030951 0,0.569291 -0.461144,1.03095 -1.030951,1.03095 z" />
  <path
     style="fill:#162d50"
     inkscape:connector-curvature="0"
     id="path18"
     d="m 32.145912,37.300666 -16.496242,0 c -0.569806,0 -1.03095,-0.46166 -1.03095,-1.030951 0,-0.569291 0.461144,-1.03095 1.03095,-1.03095 l 16.496242,0 c 0.569807,0 1.030951,0.461659 1.030951,1.03095 0,0.569291 -0.461144,1.030951 -1.030951,1.030951 z" />
  <path
     style="fill:#162d50"
     inkscape:connector-curvature="0"
     id="path20"
     d="m 23.897276,42.455419 -8.247606,0 c -0.569806,0 -1.03095,-0.461659 -1.03095,-1.03095 0,-0.569291 0.461144,-1.030951 1.03095,-1.030951 l 8.247606,0 c 0.569807,0 1.030951,0.46166 1.030951,1.030951 0,0.569291 -0.461144,1.03095 -1.030951,1.03095 z" />
</svg>
