<?xml version="1.0" encoding="UTF-8" standalone="no"?>
<svg
   xmlns:dc="http://purl.org/dc/elements/1.1/"
   xmlns:cc="http://creativecommons.org/ns#"
   xmlns:rdf="http://www.w3.org/1999/02/22-rdf-syntax-ns#"
   xmlns:svg="http://www.w3.org/2000/svg"
   xmlns="http://www.w3.org/2000/svg"
   xmlns:sodipodi="http://sodipodi.sourceforge.net/DTD/sodipodi-0.dtd"
   xmlns:inkscape="http://www.inkscape.org/namespaces/inkscape"
   viewBox="0 0 48 48"
   id="svg2"
   version="1.1"
   inkscape:version="0.91 r13725"
   sodipodi:docname="cutegram.svg">
  <metadata
     id="metadata52">
    <rdf:RDF>
      <cc:Work
         rdf:about="">
        <dc:format>image/svg+xml</dc:format>
        <dc:type
           rdf:resource="http://purl.org/dc/dcmitype/StillImage" />
        <dc:title></dc:title>
      </cc:Work>
    </rdf:RDF>
  </metadata>
  <sodipodi:namedview
     pagecolor="#ffffff"
     bordercolor="#666666"
     borderopacity="1"
     objecttolerance="10"
     gridtolerance="10"
     guidetolerance="10"
     inkscape:pageopacity="0"
     inkscape:pageshadow="2"
     inkscape:window-width="1280"
     inkscape:window-height="694"
     id="namedview50"
     showgrid="false"
     inkscape:zoom="4.9166667"
     inkscape:cx="-9.1525424"
     inkscape:cy="24"
     inkscape:window-x="0"
     inkscape:window-y="0"
     inkscape:window-maximized="1"
     inkscape:current-layer="svg2" />
  <defs
     id="defs4">
    <linearGradient
       id="linearGradient3845"
       y1="47"
       x2="0"
       y2="1"
       gradientUnits="userSpaceOnUse">
      <stop
         style="stop-color:#d22724;stop-opacity:1"
         id="stop7" />
      <stop
         offset="1"
         style="stop-color:#db322f;stop-opacity:1"
         id="stop9" />
    </linearGradient>
    <linearGradient
       y2="160"
       x2="160"
       y1="120"
       x1="135"
       gradientTransform="matrix(0.05622958,0,0,0.05622958,0.07160145,-0.0527796)"
       gradientUnits="userSpaceOnUse"
       id="linearGradient3102">
      <stop
         style="stop-color:#eff7fc"
         id="stop12" />
      <stop
         offset="1"
         style="stop-color:#fff"
         id="stop14" />
    </linearGradient>
  </defs>
  <g
     id="g4191"
     transform="matrix(1.8213631,0,0,2.1752257,-20.583586,-23.468683)">
    <path
       inkscape:connector-curvature="0"
       id="path44"
       style="fill:#ff8080"
       d="m 21.219418,31.441057 c -0.775985,0 -0.641339,-0.294095 -0.91063,-1.031103 l -2.278347,-7.497637 14.105905,-8.812205 1.647638,0.432284 -1.367716,3.748818" />
    <path
       inkscape:connector-curvature="0"
       id="path46"
       style="fill:#ffaaaa"
       d="m 21.219418,31.441057 c 0.598818,0 0.861023,-0.272835 1.194094,-0.598819 0.51378,-0.50315 7.171653,-6.973228 7.171653,-6.973228 l -4.078346,-0.988583 -3.784252,2.391732 -0.503149,5.966929" />
    <path
       inkscape:connector-curvature="0"
       id="path48"
       style="fill:#ff5555"
       d="m 21.626898,25.357198 9.634252,7.122048 c 1.098425,0.605905 1.892126,0.294094 2.168503,-1.020473 l 3.922441,-18.481889 c 0.400394,-1.608662 -0.612992,-2.338583 -1.665354,-1.86378 l -23.031495,8.883071 c -1.573229,0.630709 -1.562599,1.505905 -0.287008,1.899213 l 5.910236,1.846062 13.680708,-8.631495 c 0.644882,-0.393307 1.240158,-0.180709 0.751181,0.251574 z" />
  </g>
</svg>
