<?xml version="1.0" encoding="UTF-8" standalone="no"?>
<!-- Created with Inkscape (http://www.inkscape.org/) -->

<svg
   xmlns:dc="http://purl.org/dc/elements/1.1/"
   xmlns:cc="http://creativecommons.org/ns#"
   xmlns:rdf="http://www.w3.org/1999/02/22-rdf-syntax-ns#"
   xmlns:svg="http://www.w3.org/2000/svg"
   xmlns="http://www.w3.org/2000/svg"
   xmlns:sodipodi="http://sodipodi.sourceforge.net/DTD/sodipodi-0.dtd"
   xmlns:inkscape="http://www.inkscape.org/namespaces/inkscape"
   width="48"
   height="48"
   id="svg2"
   version="1.1"
   inkscape:version="0.91 r13725"
   sodipodi:docname="cycle.svg">
  <defs
     id="defs4" />
  <sodipodi:namedview
     id="base"
     pagecolor="#ffffff"
     bordercolor="#666666"
     borderopacity="1.0"
     inkscape:pageopacity="0.0"
     inkscape:pageshadow="2"
     inkscape:zoom="8.0000004"
     inkscape:cx="8.9375044"
     inkscape:cy="21.063445"
     inkscape:document-units="px"
     inkscape:current-layer="layer1"
     showgrid="false"
     fit-margin-top="0"
     fit-margin-left="0"
     fit-margin-right="0"
     fit-margin-bottom="0"
     inkscape:window-width="1280"
     inkscape:window-height="694"
     inkscape:window-x="0"
     inkscape:window-y="0"
     inkscape:window-maximized="1">
    <sodipodi:guide
       position="8.9999928,39"
       orientation="30,0"
       id="guide3281" />
    <sodipodi:guide
       position="8.9999928,9"
       orientation="0,30"
       id="guide3283" />
    <sodipodi:guide
       position="38.999993,9"
       orientation="-30,0"
       id="guide3285" />
    <sodipodi:guide
       position="38.999993,39"
       orientation="0,-30"
       id="guide3287" />
    <sodipodi:guide
       position="7,44"
       orientation="40,0"
       id="guide3308" />
    <sodipodi:guide
       position="7,4"
       orientation="0,2"
       id="guide3310" />
    <sodipodi:guide
       position="9,4"
       orientation="0,30"
       id="guide3312" />
    <sodipodi:guide
       position="39,4"
       orientation="0,2"
       id="guide3314" />
    <sodipodi:guide
       position="41,4"
       orientation="-40,0"
       id="guide3316" />
    <sodipodi:guide
       position="41,44"
       orientation="0,-2"
       id="guide3318" />
    <sodipodi:guide
       position="39,44"
       orientation="0,-30"
       id="guide3320" />
    <sodipodi:guide
       position="9,44"
       orientation="0,-2"
       id="guide3322" />
    <sodipodi:guide
       position="7,44"
       orientation="0,0"
       id="guide3324" />
    <sodipodi:guide
       position="29.999993,15"
       orientation="11,0"
       id="guide3330" />
    <sodipodi:guide
       position="29.999993,4"
       orientation="0,11"
       id="guide3332" />
    <sodipodi:guide
       position="40.999993,4"
       orientation="-11,0"
       id="guide3334" />
    <sodipodi:guide
       position="40.999993,15"
       orientation="0,-11"
       id="guide3336" />
  </sodipodi:namedview>
  <metadata
     id="metadata7">
    <rdf:RDF>
      <cc:Work
         rdf:about="">
        <dc:format>image/svg+xml</dc:format>
        <dc:type
           rdf:resource="http://purl.org/dc/dcmitype/StillImage" />
        <dc:title></dc:title>
      </cc:Work>
    </rdf:RDF>
  </metadata>
  <g
     inkscape:label="Capa 1"
     inkscape:groupmode="layer"
     id="layer1"
     transform="translate(-180.23661,-689.8125)">
    <rect
       style="fill:none;stroke:none"
       id="rect3260-3-5"
       width="7.9306145"
       height="7.9306145"
       x="189.21188"
       y="709.33044" />
    <rect
       y="709.33044"
       x="193.17719"
       height="3.9653072"
       width="3.9653072"
       id="rect3272-5-2"
       style="fill:none;stroke:none" />
    <rect
       style="fill:none;stroke:none"
       id="rect3322-3-0"
       width="2.3791842"
       height="2.3791842"
       x="191.98759"
       y="712.1062" />
    <rect
       style="fill:none;stroke:none"
       id="rect3331-6-7"
       width="1.0574152"
       height="3.9653149"
       x="197.14249"
       y="709.33044" />
    <g
       id="g4203"
       transform="matrix(5.3113038,0,0,5.9806698,-846.53397,-3555.1808)">
      <path
         id="path3304-4-1"
         d="m 197.30063,709.83046 c -1.03818,7e-5 -2.06951,0.42765 -2.80308,1.16172 -0.73356,0.73406 -1.16068,1.76556 -1.16068,2.80359 0,1.03803 0.42712,2.06953 1.16068,2.8036 0.73357,0.73406 1.7649,1.16165 2.80308,1.16171 1.03819,6e-5 2.07013,-0.42713 2.80463,-1.1612 0.7345,-0.73407 1.16223,-1.76596 1.16223,-2.80411 l -1.05742,0 c 0,0.76131 -0.3138,1.51817 -0.85243,2.05649 -0.53864,0.53832 -1.29567,0.85145 -2.05701,0.8514 -0.76133,-4e-5 -1.5175,-0.3136 -2.05545,-0.85192 -0.53795,-0.53831 -0.85089,-1.29475 -0.85089,-2.05597 0,-0.76122 0.31294,-1.51765 0.85089,-2.05597 0.53795,-0.53831 1.29412,-0.85188 2.05545,-0.85192 5.3e-4,0 10e-4,0 0.002,0 l 0,-1.05742 c -5.3e-4,0 -0.001,0 -0.002,0 z"
         style="fill:#5fd35f;fill-opacity:1;fill-rule:evenodd;stroke:none"
         inkscape:connector-curvature="0" />
      <path
         style="fill:#d7f4d7;fill-opacity:1;fill-rule:evenodd;stroke:none"
         d="m 201.57728,709.83046 -3.74639,3.74639 -0.97067,-0.97067 -0.74763,0.74762 0.97068,0.97068 0.66088,0.66088 0.0867,0.0867 4.49402,-4.49401 -0.74763,-0.74763 z"
         id="path4149-9-8"
         inkscape:connector-curvature="0" />
    </g>
  </g>
</svg>
