<?xml version="1.0" encoding="UTF-8" standalone="no"?>
<svg
   xmlns:dc="http://purl.org/dc/elements/1.1/"
   xmlns:cc="http://creativecommons.org/ns#"
   xmlns:rdf="http://www.w3.org/1999/02/22-rdf-syntax-ns#"
   xmlns:svg="http://www.w3.org/2000/svg"
   xmlns="http://www.w3.org/2000/svg"
   xmlns:xlink="http://www.w3.org/1999/xlink"
   xmlns:sodipodi="http://sodipodi.sourceforge.net/DTD/sodipodi-0.dtd"
   xmlns:inkscape="http://www.inkscape.org/namespaces/inkscape"
   viewBox="0 0 48 48"
   id="svg2"
   version="1.1"
   inkscape:version="0.91 r13725"
   sodipodi:docname="DevDocs.svg">
  <metadata
     id="metadata38">
    <rdf:RDF>
      <cc:Work
         rdf:about="">
        <dc:format>image/svg+xml</dc:format>
        <dc:type
           rdf:resource="http://purl.org/dc/dcmitype/StillImage" />
        <dc:title></dc:title>
      </cc:Work>
    </rdf:RDF>
  </metadata>
  <sodipodi:namedview
     pagecolor="#ffffff"
     bordercolor="#666666"
     borderopacity="1"
     objecttolerance="10"
     gridtolerance="10"
     guidetolerance="10"
     inkscape:pageopacity="0"
     inkscape:pageshadow="2"
     inkscape:window-width="1280"
     inkscape:window-height="694"
     id="namedview36"
     showgrid="false"
     inkscape:zoom="4.9166667"
     inkscape:cx="-12.112279"
     inkscape:cy="24"
     inkscape:window-x="0"
     inkscape:window-y="0"
     inkscape:window-maximized="1"
     inkscape:current-layer="svg2" />
  <defs
     id="defs4">
    <linearGradient
       id="3">
      <stop
         stop-color="#2e3e46"
         id="stop7" />
      <stop
         offset="1"
         stop-color="#435a64"
         id="stop9" />
    </linearGradient>
    <linearGradient
       xlink:href="#3"
       id="2"
       x1="-1092.91"
       y1="203.1"
       x2="-1060.26"
       y2="104.85"
       gradientUnits="userSpaceOnUse"
       gradientTransform="matrix(0.357837,0,0,0.35169702,390.75628,-30.268082)" />
    <linearGradient
       xlink:href="#3"
       id="0"
       x1="29.952"
       y1="43.667"
       x2="29.858"
       y2="25.11"
       gradientUnits="userSpaceOnUse"
       gradientTransform="matrix(0.9999901,0,0,0.9999901,11.656021,-0.38565677)" />
    <linearGradient
       id="1"
       x1="13.223"
       y1="44.685"
       x2="8.213"
       y2="3.112"
       gradientUnits="userSpaceOnUse"
       gradientTransform="matrix(0.9999878,0,0,0.99999154,11.401621,2.3536791)">
      <stop
         stop-color="#016ed4"
         id="stop14" />
      <stop
         offset="1"
         stop-color="#00b1ff"
         id="stop16" />
    </linearGradient>
  </defs>
  <g
     style="fill:#2a7fff;fill-opacity:0.85100002"
     id="g24"
     transform="matrix(1.9524746,0,0,3.367788,-4.2873616,-51.435514)">
    <path
       inkscape:connector-curvature="0"
       id="path26"
       d="M 7.733,17.926 C 7.366,17.675 6.866,17.769 6.615,18.136 l -4.071,5.95 c -0.12,0.176 -0.166,0.393 -0.127,0.602 0.039,0.21 0.16,0.395 0.336,0.515 l 5.925,4.053 c 0.183,0.125 0.4,0.165 0.602,0.127 C 9.482,29.345 9.67,29.23 9.795,29.047 10.046,28.68 9.952,28.18 9.585,27.929 L 4.324,24.33 7.941,19.044 c 0.251,-0.367 0.157,-0.867 -0.21,-1.117"
       style="fill:#2a7fff" />
    <path
       inkscape:connector-curvature="0"
       id="path28"
       d="M 26.396,19.589 20.47,15.536 c -0.366,-0.251 -0.867,-0.157 -1.117,0.21 -0.251,0.367 -0.157,0.867 0.21,1.118 l 5.262,3.599 -3.617,5.286 c -0.251,0.367 -0.157,0.867 0.21,1.118 0.183,0.125 0.4,0.165 0.602,0.127 0.202,-0.038 0.39,-0.153 0.515,-0.336 l 4.071,-5.95 c 0.12,-0.176 0.166,-0.393 0.127,-0.602 -0.04,-0.209 -0.16,-0.395 -0.337,-0.515"
       style="fill:#2a7fff" />
    <path
       inkscape:connector-curvature="0"
       id="path30"
       d="m 17.76,15.828 c -0.398,-0.196 -0.88,-0.032 -1.076,0.367 L 11,27.752 c -0.196,0.398 -0.032,0.88 0.367,1.076 0.162,0.08 0.338,0.1 0.502,0.069 0.24,-0.045 0.458,-0.199 0.574,-0.436 l 5.684,-11.557 c 0.196,-0.398 0.032,-0.88 -0.366,-1.076"
       style="fill:#2a7fff" />
  </g>
  <path
     style="fill:#d5e5ff;fill-opacity:1"
     inkscape:connector-curvature="0"
     id="path34"
     d="m 47.616678,33.764116 c -0.08117,-0.108123 -0.185514,-0.171031 -0.316917,-0.192655 l -2.76337,-0.430522 c -0.150731,-0.491463 -0.357499,-0.992754 -0.618377,-1.50584 0.181651,-0.255562 0.452189,-0.617277 0.815485,-1.083184 0.361363,-0.465908 0.618377,-0.805999 0.769105,-1.022243 0.08117,-0.112054 0.119811,-0.230005 0.119811,-0.353852 0,-0.14351 -0.03478,-0.255562 -0.106278,-0.338126 -0.36137,-0.522918 -1.192313,-1.391823 -2.490903,-2.61065 -0.119811,-0.102225 -0.247351,-0.153338 -0.376824,-0.153338 -0.150729,0 -0.272471,0.04521 -0.363295,0.137611 l -2.14306,1.643451 c -0.41354,-0.214278 -0.865729,-0.404965 -1.358497,-0.56813 l -0.423201,-2.824927 c -0.0097,-0.133679 -0.06764,-0.243766 -0.173921,-0.330263 -0.106284,-0.0865 -0.228026,-0.129747 -0.369092,-0.129747 l -3.350828,0 c -0.291795,0 -0.473444,0.143508 -0.543012,0.430521 -0.131404,0.511123 -0.276337,1.46456 -0.43866,2.856382 -0.473444,0.153338 -0.93143,0.347955 -1.373956,0.583857 L 30.027734,26.22901 c -0.131406,-0.102225 -0.260877,-0.153338 -0.392283,-0.153338 -0.22223,0 -0.697605,0.365648 -1.42613,1.09891 -0.730458,0.731297 -1.225159,1.281735 -1.487969,1.651314 -0.09082,0.13368 -0.135269,0.251629 -0.135269,0.353853 0,0.123849 0.05024,0.245732 0.150729,0.367613 0.674419,0.82959 1.213566,1.535329 1.61551,2.119186 -0.251216,0.471806 -0.448323,0.941644 -0.58939,1.413447 l -2.807816,0.430522 c -0.110143,0.002 -0.206768,0.0865 -0.285999,0.200517 -0.08117,0.112055 -0.121751,0.230004 -0.121751,0.353853 l 0,3.408784 c 0,0.133679 0.04058,0.253595 0.121751,0.361716 0.08117,0.108123 0.185515,0.171031 0.316918,0.192655 l 2.76337,0.414795 c 0.141073,0.501291 0.347836,1.008481 0.618377,1.519601 -0.18165,0.255562 -0.452188,0.617277 -0.815484,1.083185 -0.361365,0.465905 -0.618377,0.805999 -0.769107,1.022242 -0.08117,0.112055 -0.121736,0.230003 -0.121736,0.353853 0,0.133679 0.03478,0.251628 0.106279,0.353853 0.392283,0.552403 1.223226,1.413446 2.490897,2.581162 0.110144,0.112054 0.235756,0.169064 0.376823,0.169064 0.150731,0 0.276337,-0.04521 0.376823,-0.13761 l 2.129534,-1.643452 c 0.413539,0.214278 0.865727,0.404965 1.358495,0.56813 l 0.423201,2.824927 c 0.0096,0.13368 0.06764,0.243764 0.173921,0.330263 0.106278,0.0865 0.229959,0.129747 0.369094,0.129747 l 3.350827,0 c 0.291795,0 0.473442,-0.143509 0.543011,-0.430519 0.131405,-0.511122 0.276338,-1.46456 0.436729,-2.856382 0.473443,-0.153337 0.931429,-0.347955 1.373955,-0.583857 l 2.083156,1.659178 c 0.141073,0.0924 0.272472,0.137611 0.392281,0.137611 0.220298,0 0.693741,-0.363681 1.418402,-1.091048 0.72466,-0.727364 1.223224,-1.279767 1.493765,-1.659176 0.09082,-0.102226 0.135269,-0.220176 0.135269,-0.353853 0,-0.133679 -0.05024,-0.261459 -0.15073,-0.383341 -0.72466,-0.90036 -1.263808,-1.608065 -1.615509,-2.119187 0.200973,-0.37941 0.39808,-0.845315 0.58939,-1.397718 l 2.792357,-0.430522 c 0.119812,-0.002 0.222228,-0.0865 0.301458,-0.200516 0.08117,-0.112055 0.119811,-0.230005 0.119811,-0.353853 l 0,-3.408784 c 0,-0.133681 -0.04058,-0.253596 -0.119811,-0.361717 m -8.740364,4.814366 c -0.755578,0.768647 -1.665751,1.151988 -2.73245,1.151988 -1.0667,0 -1.976872,-0.383341 -2.73245,-1.151988 -0.75558,-0.768647 -1.132403,-1.694562 -1.132403,-2.779712 0,-1.085149 0.376823,-2.011064 1.132402,-2.779711 0.755577,-0.768649 1.66575,-1.15199 2.73245,-1.15199 1.066698,0 1.978803,0.383341 2.73245,1.15199 0.75558,0.768647 1.132402,1.694562 1.132402,2.779711 0,1.08515 -0.376822,2.011065 -1.132402,2.779712" />
</svg>
