<?xml version="1.0" encoding="UTF-8" standalone="no"?>
<svg
   xmlns:dc="http://purl.org/dc/elements/1.1/"
   xmlns:cc="http://creativecommons.org/ns#"
   xmlns:rdf="http://www.w3.org/1999/02/22-rdf-syntax-ns#"
   xmlns:svg="http://www.w3.org/2000/svg"
   xmlns="http://www.w3.org/2000/svg"
   xmlns:xlink="http://www.w3.org/1999/xlink"
   xmlns:sodipodi="http://sodipodi.sourceforge.net/DTD/sodipodi-0.dtd"
   xmlns:inkscape="http://www.inkscape.org/namespaces/inkscape"
   viewBox="0 0 48 48"
   id="svg2"
   version="1.1"
   inkscape:version="0.91 r13725"
   sodipodi:docname="dia.svg">
  <metadata
     id="metadata47">
    <rdf:RDF>
      <cc:Work
         rdf:about="">
        <dc:format>image/svg+xml</dc:format>
        <dc:type
           rdf:resource="http://purl.org/dc/dcmitype/StillImage" />
        <dc:title></dc:title>
      </cc:Work>
    </rdf:RDF>
  </metadata>
  <sodipodi:namedview
     pagecolor="#ffffff"
     bordercolor="#666666"
     borderopacity="1"
     objecttolerance="10"
     gridtolerance="10"
     guidetolerance="10"
     inkscape:pageopacity="0"
     inkscape:pageshadow="2"
     inkscape:window-width="1280"
     inkscape:window-height="694"
     id="namedview45"
     showgrid="false"
     inkscape:zoom="4.9166667"
     inkscape:cx="-9.1525424"
     inkscape:cy="24"
     inkscape:window-x="0"
     inkscape:window-y="0"
     inkscape:window-maximized="1"
     inkscape:current-layer="svg2" />
  <defs
     id="defs4">
    <filter
       color-interpolation-filters="sRGB"
       id="filter6">
      <feGaussianBlur
         stdDeviation="1.71"
         id="feGaussianBlur8" />
    </filter>
    <linearGradient
       y2="18.286"
       x2="22.571"
       y1="31.24"
       x1="20.599"
       gradientUnits="userSpaceOnUse"
       id="2"
       gradientTransform="matrix(1.08,0,0,1.08,0.651,-2.434)">
      <stop
         stop-color="#ff9300"
         id="stop11" />
      <stop
         offset="1"
         stop-color="#ffd702"
         id="stop13" />
    </linearGradient>
    <linearGradient
       id="1"
       x1="11.941"
       y1="216.07"
       x2="10.719"
       y2="116.52"
       gradientUnits="userSpaceOnUse">
      <stop
         stop-color="#2e3e46"
         id="stop16" />
      <stop
         offset="1"
         stop-color="#435a64"
         id="stop18" />
    </linearGradient>
    <linearGradient
       y1="92.54"
       x2="0"
       y2="7.02"
       id="0"
       gradientUnits="userSpaceOnUse"
       gradientTransform="scale(1.0059.99417)">
      <stop
         id="stop21" />
      <stop
         offset="1"
         stop-opacity=".588"
         id="stop23" />
    </linearGradient>
    <linearGradient
       xlink:href="#0"
       gradientUnits="userSpaceOnUse"
       gradientTransform="scale(1.0059.99417)"
       y1="92.54"
       x2="0"
       y2="7.02"
       id="linearGradient25" />
  </defs>
  <g
     id="g4182"
     transform="matrix(1.5863602,0,0,1.3277164,-14.071415,-7.8648655)">
    <g
       transform="matrix(1.08,0,0,1.08,0.651,-2.434)"
       id="g31"
       style="color:#000000;fill:#b7bec8">
      <path
         style="fill:#b7bec8"
         d="m 14.476,9.714 0,2.857 -1.905,0 0,2.872 1.905,0 0,17.11 -1.905,0 0,2.872 1.905,0 0,1.905 -1.429,0 1.905,3.81 1.905,-3.81 -1.429,0 0,-1.905 8.571,0 c 6.331,0 11.429,-5.097 11.429,-11.429 0,-6.331 -5.097,-11.429 -11.429,-11.429 l -8.571,0 0,-2.857 -0.952,0 m 0.952,5.729 8.571,0 c 4.79,0 8.557,3.766 8.557,8.557 0,4.79 -3.766,8.557 -8.557,8.557 l -8.571,0 0,-17.11"
         id="path33"
         inkscape:connector-curvature="0" />
      <path
         style="fill:#b7bec8"
         transform="scale(-1,1)"
         d="m -26.857,24 19.05,0 0,0.952 -19.05,0 z"
         id="path35"
         inkscape:connector-curvature="0" />
      <path
         style="fill:#b7bec8"
         d="m 30.667,24.476 -3.81,1.905 0,-3.81 z"
         id="path37"
         inkscape:connector-curvature="0" />
    </g>
    <path
       d="m 15.25692,6.0008 3.08556,0 0,3.08556 -3.08556,0 z"
       id="path39"
       inkscape:connector-curvature="0"
       style="color:#000000;fill:#b7b7c8" />
    <path
       d="m 23.4822,17.31488 -5.14296,10.28592 10.28592,0 -5.14296,-10.28592 m 0,3.59964 2.57148,5.14296 -5.14296,0 2.57148,-5.14296"
       id="path43"
       style="color:#000000;fill:#ffcc00"
       inkscape:connector-curvature="0" />
  </g>
</svg>
