<?xml version="1.0" encoding="UTF-8" standalone="no"?>
<!-- Created with Inkscape (http://www.inkscape.org/) -->

<svg
   xmlns:dc="http://purl.org/dc/elements/1.1/"
   xmlns:cc="http://creativecommons.org/ns#"
   xmlns:rdf="http://www.w3.org/1999/02/22-rdf-syntax-ns#"
   xmlns:svg="http://www.w3.org/2000/svg"
   xmlns="http://www.w3.org/2000/svg"
   xmlns:sodipodi="http://sodipodi.sourceforge.net/DTD/sodipodi-0.dtd"
   xmlns:inkscape="http://www.inkscape.org/namespaces/inkscape"
   id="svg2"
   version="1.1"
   inkscape:version="0.91 r13725"
   width="512"
   height="512"
   sodipodi:docname="dropbox.svg">
  <metadata
     id="metadata8">
    <rdf:RDF>
      <cc:Work
         rdf:about="">
        <dc:format>image/svg+xml</dc:format>
        <dc:type
           rdf:resource="http://purl.org/dc/dcmitype/StillImage" />
        <dc:title></dc:title>
      </cc:Work>
    </rdf:RDF>
  </metadata>
  <defs
     id="defs6" />
  <sodipodi:namedview
     pagecolor="#ffffff"
     bordercolor="#666666"
     borderopacity="1"
     objecttolerance="10"
     gridtolerance="10"
     guidetolerance="10"
     inkscape:pageopacity="0"
     inkscape:pageshadow="2"
     inkscape:window-width="1280"
     inkscape:window-height="694"
     id="namedview4"
     showgrid="false"
     inkscape:zoom="0.4609375"
     inkscape:cx="-97.627119"
     inkscape:cy="256"
     inkscape:window-x="0"
     inkscape:window-y="0"
     inkscape:window-maximized="1"
     inkscape:current-layer="svg2" />
  <path
     inkscape:connector-curvature="0"
     id="path2984"
     d="m 181.7051,463.46675 -74.8598,-48.44732 -0.29012,-14.68887 c -0.15955,-8.07887 0.1063,-14.68886 0.59077,-14.68886 0.48448,0 10.18386,6.2371 21.55417,13.86021 11.37032,7.62312 21.40315,13.86022 22.29519,13.86022 0.89203,0 25.01012,-20.94 53.59574,-46.53335 28.58561,-25.59334 52.20778,-46.53334 52.49371,-46.53334 0.28592,0 23.9081,20.94 52.4937,46.53334 28.58563,25.59335 52.7037,46.53335 53.59574,46.53335 0.89204,0 10.92488,-6.2371 22.29518,-13.86022 11.37032,-7.62311 21.0697,-13.86021 21.55418,-13.86021 0.48448,0 0.75032,6.60583 0.59076,14.67964 l -0.2901,14.67963 -74.8598,48.45722 c -41.1729,26.65146 -75.09374,48.45692 -75.37966,48.45655 -0.28593,-3.7e-4 -34.20677,-21.80197 -75.37966,-48.44799 z M 75.949965,338.68619 C 35.511867,310.54004 2.4097985,287.20099 2.3898152,286.82163 2.3415762,285.90548 102.85924,199.91481 103.97843,199.91481 c 1.29758,0 148.92248,97.45437 148.93591,98.31983 0.018,1.15869 -101.22139,91.85599 -102.39697,91.73435 -0.57396,-0.0594 -34.1293,-23.13664 -74.567405,-51.2828 z m 235.979995,5.85132 c -27.87749,-25.06564 -50.68114,-45.90529 -50.67478,-46.31034 0.0135,-0.86058 147.64567,-98.31236 148.9359,-98.31236 1.11837,0 101.63649,85.98998 101.58987,86.90682 -0.0391,0.76868 -146.33199,102.52981 -148.06723,102.99535 -0.6036,0.16195 -23.90629,-20.21381 -51.78376,-45.27947 z M 52.649302,150.47673 C 24.700677,126.63996 1.6973724,106.7443 1.5308511,106.26415 1.1911854,105.28482 144.86124,4.2724484 147.73286,3.4715941 c 1.26651,-0.3532027 17.73606,13.5874469 53.25337,45.0763049 28.28088,25.073214 51.55554,45.996602 51.72146,46.496411 0.26151,0.787793 -147.25196,98.772 -148.69946,98.772 -0.29879,0 -23.410303,-19.50281 -51.358928,-43.33958 z M 335.58357,145.05214 C 294.98253,118.2632 261.7635,95.852151 261.7635,95.249808 c 0,-0.602343 23.13889,-21.613908 51.41979,-46.692363 35.51946,-31.497373 51.98678,-45.4390758 53.25335,-45.0858509 2.87164,0.8008543 146.54168,101.8132259 146.20201,102.7925559 -0.38575,1.11225 -101.71152,87.56192 -102.58456,87.52366 -0.35775,-0.0156 -33.86947,-21.94673 -74.47052,-48.73567 z"
     style="fill:#3176e2" />
</svg>
