<?xml version="1.0" encoding="UTF-8" standalone="no"?>
<svg
   xmlns:dc="http://purl.org/dc/elements/1.1/"
   xmlns:cc="http://creativecommons.org/ns#"
   xmlns:rdf="http://www.w3.org/1999/02/22-rdf-syntax-ns#"
   xmlns:svg="http://www.w3.org/2000/svg"
   xmlns="http://www.w3.org/2000/svg"
   xmlns:sodipodi="http://sodipodi.sourceforge.net/DTD/sodipodi-0.dtd"
   xmlns:inkscape="http://www.inkscape.org/namespaces/inkscape"
   viewBox="0 0 48 48"
   id="svg2"
   version="1.1"
   inkscape:version="0.91 r13725"
   sodipodi:docname="drracket.svg">
  <metadata
     id="metadata27">
    <rdf:RDF>
      <cc:Work
         rdf:about="">
        <dc:format>image/svg+xml</dc:format>
        <dc:type
           rdf:resource="http://purl.org/dc/dcmitype/StillImage" />
        <dc:title></dc:title>
      </cc:Work>
    </rdf:RDF>
  </metadata>
  <sodipodi:namedview
     pagecolor="#ffffff"
     bordercolor="#666666"
     borderopacity="1"
     objecttolerance="10"
     gridtolerance="10"
     guidetolerance="10"
     inkscape:pageopacity="0"
     inkscape:pageshadow="2"
     inkscape:window-width="1280"
     inkscape:window-height="694"
     id="namedview25"
     showgrid="false"
     inkscape:zoom="4.9166667"
     inkscape:cx="-9.1525424"
     inkscape:cy="24"
     inkscape:window-x="0"
     inkscape:window-y="0"
     inkscape:window-maximized="1"
     inkscape:current-layer="svg2" />
  <defs
     id="defs4">
    <filter
       color-interpolation-filters="sRGB"
       id="filter6">
      <feGaussianBlur
         stdDeviation="1.71"
         id="feGaussianBlur8" />
    </filter>
    <linearGradient
       gradientTransform="scale(1.0059.99417)"
       gradientUnits="userSpaceOnUse"
       y2="7.02"
       x2="0"
       y1="92.54"
       id="linearGradient10">
      <stop
         id="stop12" />
      <stop
         offset="1"
         stop-opacity=".588"
         id="stop14" />
    </linearGradient>
    <linearGradient
       gradientUnits="userSpaceOnUse"
       y2="-26.05"
       x2="-125.19"
       y1="73.5"
       x1="-123.97"
       id="0"
       gradientTransform="matrix(1.03458 0 0 1 4.382 0)">
      <stop
         stop-color="#2e3e46"
         id="stop17" />
      <stop
         offset="1"
         stop-color="#435a64"
         id="stop19" />
    </linearGradient>
  </defs>
  <path
     d="M 0.20026483,47.517174 20.030935,15.168967 18.027222,10.177539 C 17.167584,8.4996688 16.381687,7.3154738 15.665323,6.6249538 14.948957,5.9344337 14.104068,5.4110757 13.130654,5.0626912 12.184631,4.7080577 11.00263,4.5299597 9.607823,4.5299597 c -1.6602814,0 -3.3079192,0.1281056 -4.9387032,0.3858789 l 0,-3.93846381 C 6.6159473,0.64148835 8.4911382,0.47432627 10.296799,0.47432627 c 2.606303,0 4.768042,0.29682988 6.485211,0.88892733 1.746667,0.5920975 3.251031,1.529455 4.510993,2.8120726 1.259961,1.2841797 2.663191,3.4244794 4.209698,6.4255858 l 15.591474,29.964195 c 0.543598,0.96704 1.116687,1.707553 1.71717,2.219975 0.600482,0.493674 1.403233,0.740512 2.406145,0.740512 0.773251,0 1.632889,-0.09686 2.576808,-0.29683 l 0,3.582268 c -1.373736,0.473366 -2.934991,0.71083 -4.681658,0.71083 -2.128024,0 -3.779879,-0.374944 -4.98295,-1.12483 -1.173577,-0.749886 -2.176487,-1.945017 -3.006628,-3.582267 L 23.998334,20.076034 7.589359,47.523424"
     id="path23"
     style="fill:#536c67;fill-opacity:0.84600004"
     inkscape:connector-curvature="0" />
</svg>
