<?xml version="1.0" encoding="UTF-8" standalone="no"?>
<svg
   xmlns:dc="http://purl.org/dc/elements/1.1/"
   xmlns:cc="http://creativecommons.org/ns#"
   xmlns:rdf="http://www.w3.org/1999/02/22-rdf-syntax-ns#"
   xmlns:svg="http://www.w3.org/2000/svg"
   xmlns="http://www.w3.org/2000/svg"
   xmlns:sodipodi="http://sodipodi.sourceforge.net/DTD/sodipodi-0.dtd"
   xmlns:inkscape="http://www.inkscape.org/namespaces/inkscape"
   viewBox="0 0 48 48"
   id="svg2"
   version="1.1"
   inkscape:version="0.91 r13725"
   sodipodi:docname="etr.svg">
  <metadata
     id="metadata19">
    <rdf:RDF>
      <cc:Work
         rdf:about="">
        <dc:format>image/svg+xml</dc:format>
        <dc:type
           rdf:resource="http://purl.org/dc/dcmitype/StillImage" />
        <dc:title></dc:title>
      </cc:Work>
    </rdf:RDF>
  </metadata>
  <sodipodi:namedview
     pagecolor="#ffffff"
     bordercolor="#666666"
     borderopacity="1"
     objecttolerance="10"
     gridtolerance="10"
     guidetolerance="10"
     inkscape:pageopacity="0"
     inkscape:pageshadow="2"
     inkscape:window-width="1280"
     inkscape:window-height="694"
     id="namedview17"
     showgrid="false"
     inkscape:zoom="4.9166667"
     inkscape:cx="24"
     inkscape:cy="24"
     inkscape:window-x="0"
     inkscape:window-y="0"
     inkscape:window-maximized="1"
     inkscape:current-layer="svg2" />
  <defs
     id="defs4">
    <linearGradient
       id="0"
       gradientUnits="userSpaceOnUse"
       y1="20.995"
       x2="0"
       y2="-25.291"
       gradientTransform="matrix(0.99999,0,0,0.99999,-38.37,25.882)">
      <stop
         stop-color="#4469b9"
         id="stop7" />
      <stop
         offset="1"
         stop-color="#5d91ff"
         id="stop9" />
    </linearGradient>
  </defs>
  <path
     style="fill:#5f8dd3;fill-opacity:0.84600004"
     inkscape:connector-curvature="0"
     id="path15"
     d="M 47.174888,23.725771 C 44.975483,21.828161 41.706523,13.535834 41.357869,8.9685353 41.329033,8.5875107 41.192718,8.2666459 41.001351,8.1362962 40.812606,8.0059439 40.600268,8.0861606 40.450844,8.3443585 39.100793,10.693181 37.179263,15.425926 38.767869,21.457164 34.656109,22.81833 27.679095,23.384857 24.803354,13.275134 23.309123,8.4922557 20.964228,4.3511064 17.910227,2.0549234 10.955496,-3.1741559 2.9626666,3.1353333 0.87074221,13.322763 -1.2224932,23.507685 2.718871,36.008846 9.6736022,41.232914 c 1.5165148,1.14057 4.3005038,2.065561 5.6335158,2.253569 3.154927,0.443694 5.952023,0.230622 8.416195,-0.315852 1.534864,0.298303 4.094719,1.288469 6.451411,4.522176 0.183502,0.250678 0.42992,0.260703 0.617355,0.02005 0.190055,-0.238143 0.281807,-0.674316 0.230688,-1.097957 l -0.726145,-6.186656 c 5.814397,-3.800234 8.808104,-10.12727 10.29185,-14.71713 2.486453,3.689938 5.177381,1.591788 6.648019,-0.147899 0.171707,-0.20305 0.271322,-0.569033 0.256904,-0.955071 -0.01179,-0.383534 -0.136317,-0.72445 -0.319818,-0.882377" />
</svg>
