<?xml version="1.0" encoding="UTF-8" standalone="no"?>
<svg
   xmlns:dc="http://purl.org/dc/elements/1.1/"
   xmlns:cc="http://creativecommons.org/ns#"
   xmlns:rdf="http://www.w3.org/1999/02/22-rdf-syntax-ns#"
   xmlns:svg="http://www.w3.org/2000/svg"
   xmlns="http://www.w3.org/2000/svg"
   xmlns:sodipodi="http://sodipodi.sourceforge.net/DTD/sodipodi-0.dtd"
   xmlns:inkscape="http://www.inkscape.org/namespaces/inkscape"
   viewBox="0 0 48 48"
   id="svg2"
   version="1.1"
   inkscape:version="0.91 r13725"
   sodipodi:docname="evolution-tasks.svg">
  <metadata
     id="metadata50">
    <rdf:RDF>
      <cc:Work
         rdf:about="">
        <dc:format>image/svg+xml</dc:format>
        <dc:type
           rdf:resource="http://purl.org/dc/dcmitype/StillImage" />
        <dc:title></dc:title>
      </cc:Work>
    </rdf:RDF>
  </metadata>
  <sodipodi:namedview
     pagecolor="#ffffff"
     bordercolor="#666666"
     borderopacity="1"
     objecttolerance="10"
     gridtolerance="10"
     guidetolerance="10"
     inkscape:pageopacity="0"
     inkscape:pageshadow="2"
     inkscape:window-width="1280"
     inkscape:window-height="694"
     id="namedview48"
     showgrid="false"
     inkscape:zoom="4.9166667"
     inkscape:cx="24"
     inkscape:cy="24"
     inkscape:window-x="0"
     inkscape:window-y="0"
     inkscape:window-maximized="1"
     inkscape:current-layer="svg2" />
  <defs
     id="defs4">
    <clipPath
       id="clipPath6">
      <path
         d="m-24 13c0 1.105-.672 2-1.5 2-.828 0-1.5-.895-1.5-2 0-1.105.672-2 1.5-2 .828 0 1.5.895 1.5 2"
         transform="matrix(15.33333 0 0 11.5 415-125.5)"
         fill="#1890d0"
         id="path8" />
    </clipPath>
    <clipPath
       id="clipPath10">
      <path
         d="m-24 13c0 1.105-.672 2-1.5 2-.828 0-1.5-.895-1.5-2 0-1.105.672-2 1.5-2 .828 0 1.5.895 1.5 2"
         transform="matrix(15.33333 0 0 11.5 415-125.5)"
         fill="#1890d0"
         id="path12" />
    </clipPath>
    <linearGradient
       gradientTransform="matrix(0.99978,0,0,0.98633,-0.833,5.996)"
       gradientUnits="userSpaceOnUse"
       y2="317.35"
       x2="-1003.64"
       y1="433.28"
       x1="-989.67"
       id="0">
      <stop
         stop-color="#1584d8"
         id="stop15" />
      <stop
         offset="1"
         stop-color="#1cb2ff"
         id="stop17" />
    </linearGradient>
    <linearGradient
       gradientTransform="matrix(0.99834,0,0,0.98513,-2.169,6.702)"
       gradientUnits="userSpaceOnUse"
       y2="104.85"
       x2="-1060.26"
       y1="203.1"
       x1="-1092.91"
       id="1">
      <stop
         stop-color="#f2b333"
         id="stop20" />
      <stop
         offset="1"
         stop-color="#fcde3f"
         id="stop22" />
    </linearGradient>
  </defs>
  <text
     style="font-size:5px;line-height:125%;font-family:sans-serif;letter-spacing:0;word-spacing:0"
     sodipodi:linespacing="125%"
     id="text26"
     font-size="5"
     letter-spacing="0"
     line-height="125%"
     word-spacing="0"
     y="16.36997"
     x="-84.609993">
    <tspan
       id="tspan28"
       y="16.36997"
       x="-84.609993" />
  </text>
  <path
     d="M 46.566035,2.9928659 43.945581,0.68996315 C 42.865985,-0.25869235 41.350873,0.04322117 40.566108,1.3633834 L 20.797162,34.935663 6.4031271,22.285929 C 5.323617,21.337124 3.8084025,21.63906 3.0237577,22.959327 l -1.8854771,3.200787 c -0.77666077,1.318682 -0.5294845,3.169321 0.5513093,4.127752 l 18.9711561,16.67107 c 0.544449,0.478473 1.186062,0.649042 1.79694,0.527313 0.610877,-0.121731 1.182825,-0.534121 1.566667,-1.197573 L 47.093843,7.1239969 C 47.891782,5.7813148 47.645891,3.940298 46.566366,2.9913678"
     id="path38"
     inkscape:connector-curvature="0"
     style="opacity:0.7;fill:#ffd42a;stroke:none;stroke-width:4.24800014" />
  <flowRoot
     style="font-size:10px;line-height:125%;font-family:sans-serif;letter-spacing:0;word-spacing:0;fill:#000000;stroke:none"
     id="flowRoot40"
     font-size="10"
     letter-spacing="0"
     line-height="125%"
     word-spacing="0"
     transform="translate(-384.9,-499.85)">
    <flowRegion
       id="flowRegion42">
      <path
         inkscape:connector-curvature="0"
         id="path44"
         d="m -1370.43,-469.33 135.55,0 0,166.64 -135.55,0 z" />
    </flowRegion>
    <flowPara
       id="flowPara46" />
  </flowRoot>
</svg>
