<?xml version="1.0" encoding="UTF-8" standalone="no"?>
<svg
   xmlns:dc="http://purl.org/dc/elements/1.1/"
   xmlns:cc="http://creativecommons.org/ns#"
   xmlns:rdf="http://www.w3.org/1999/02/22-rdf-syntax-ns#"
   xmlns:svg="http://www.w3.org/2000/svg"
   xmlns="http://www.w3.org/2000/svg"
   xmlns:sodipodi="http://sodipodi.sourceforge.net/DTD/sodipodi-0.dtd"
   xmlns:inkscape="http://www.inkscape.org/namespaces/inkscape"
   viewBox="0 0 48 48"
   id="svg2"
   version="1.1"
   inkscape:version="0.91 r13725"
   sodipodi:docname="fcitx.svg">
  <metadata
     id="metadata37">
    <rdf:RDF>
      <cc:Work
         rdf:about="">
        <dc:format>image/svg+xml</dc:format>
        <dc:type
           rdf:resource="http://purl.org/dc/dcmitype/StillImage" />
        <dc:title></dc:title>
      </cc:Work>
    </rdf:RDF>
  </metadata>
  <sodipodi:namedview
     pagecolor="#ffffff"
     bordercolor="#666666"
     borderopacity="1"
     objecttolerance="10"
     gridtolerance="10"
     guidetolerance="10"
     inkscape:pageopacity="0"
     inkscape:pageshadow="2"
     inkscape:window-width="1280"
     inkscape:window-height="694"
     id="namedview35"
     showgrid="false"
     inkscape:zoom="4.9166667"
     inkscape:cx="-42.305085"
     inkscape:cy="24"
     inkscape:window-x="0"
     inkscape:window-y="0"
     inkscape:window-maximized="1"
     inkscape:current-layer="svg2" />
  <defs
     id="defs4">
    <clipPath
       id="clipPath6">
      <path
         d="m69.63 12.145h-.052c-22.727-.292-46.47 4.077-46.709 4.122-2.424.451-4.946 2.974-5.397 5.397-.044.237-4.414 23.983-4.122 46.71-.292 22.777 4.078 46.523 4.122 46.761.451 2.423 2.974 4.945 5.398 5.398.237.044 23.982 4.413 46.709 4.121 22.779.292 46.524-4.077 46.761-4.121 2.423-.452 4.946-2.976 5.398-5.399.044-.236 4.413-23.981 4.121-46.709.292-22.777-4.077-46.523-4.121-46.761-.453-2.423-2.976-4.946-5.398-5.397-.238-.045-23.984-4.414-46.71-4.122"
         id="path8" />
    </clipPath>
    <linearGradient
       id="0"
       gradientUnits="userSpaceOnUse"
       x1="18.6"
       y1="261.26"
       x2="20.03"
       y2="155.59"
       gradientTransform="matrix(0.43355,0,0,0.43481,13.539,-67.188)">
      <stop
         stop-color="#d3d3d3"
         id="stop11" />
      <stop
         offset="1"
         stop-color="#fcf9f9"
         id="stop13" />
    </linearGradient>
    <linearGradient
       x2="459"
       x1="0"
       gradientUnits="userSpaceOnUse"
       id="linearGradient15">
      <stop
         stop-color="#e3203a"
         id="stop17" />
      <stop
         offset="1"
         stop-color="#fd5420"
         id="stop19" />
    </linearGradient>
    <linearGradient
       x1="0"
       x2="47"
       gradientUnits="userSpaceOnUse"
       id="linearGradient21">
      <stop
         stop-color="#a9a3d4"
         id="stop23" />
      <stop
         offset=".47"
         stop-color="#87baff"
         id="stop25" />
      <stop
         offset="1"
         stop-color="#89ec85"
         id="stop27" />
    </linearGradient>
  </defs>
  <path
     style="fill:#6f916f;fill-opacity:1;stroke-width:1.31700003"
     inkscape:connector-curvature="0"
     id="path33"
     d="m 38.574136,28.79871 -4.759322,0 0,-9.39661 4.759322,0 c 5.256671,0 9.518644,-4.207332 9.518644,-9.39661 0,-5.1892782 -4.261973,-9.39661034 -9.518644,-9.39661034 -5.257266,0 -9.518644,4.20733214 -9.518644,9.39661034 l 0,4.698305 -9.518644,0 0,-4.698305 c 0,-5.1892782 -4.261973,-9.39661034 -9.518645,-9.39661034 -5.256671,0 -9.51864368,4.20733214 -9.51864368,9.39661034 0,5.189278 4.26197268,9.39661 9.51864368,9.39661 l 4.759323,0 0,9.39661 -4.759323,0 c -5.256671,0 -9.51864368,4.207332 -9.51864368,9.39661 0,5.189278 4.26197268,9.39661 9.51864368,9.39661 5.257267,0 9.518645,-4.207332 9.518645,-9.39661 l 0,-4.698305 9.518644,0 0,4.68656 c 0,0.0048 -6e-5,0.0082 -6e-5,0.01175 0,5.189277 4.261972,9.39661 9.518644,9.39661 5.256671,0 9.518644,-4.207333 9.518644,-9.39661 0,-5.189278 -4.261378,-9.395436 -9.518049,-9.39661 m 0,-23.4915257 c 2.628336,0 4.759322,2.103666 4.759322,4.6983047 0,2.594639 -2.130986,4.698306 -4.759322,4.698306 l -4.759323,0 0,-4.698306 c 0,-2.5946387 2.130987,-4.6983047 4.759323,-4.6983047 M 5.2594174,10.005494 c 0,-2.5946387 2.1309857,-4.6983047 4.7593216,-4.6983047 2.628335,0 4.759321,2.103666 4.759321,4.6983047 l 0,4.698306 -4.759321,0 c -2.6283359,0 -4.7593216,-2.104254 -4.7593216,-4.698306 M 10.018739,42.89363 c -2.6283359,0 -4.7593216,-2.103666 -4.7593216,-4.698305 0,-2.59464 2.1309857,-4.698305 4.7593216,-4.698305 l 4.759321,0 0,4.698305 c 0,2.594639 -2.130986,4.698305 -4.759321,4.698305 m 9.518643,-14.094915 0,-9.39661 9.518644,0 0,9.39661 -9.518644,0 M 38.574671,42.89363 c -2.628336,0 -4.759323,-2.103666 -4.759323,-4.698305 l 0,-4.698305 4.758728,0 c 2.628336,0 4.759322,2.103665 4.759322,4.698305 0,2.594639 -2.130391,4.698305 -4.758727,4.698305" />
</svg>
