<?xml version="1.0" encoding="UTF-8" standalone="no"?>
<svg
   xmlns:dc="http://purl.org/dc/elements/1.1/"
   xmlns:cc="http://creativecommons.org/ns#"
   xmlns:rdf="http://www.w3.org/1999/02/22-rdf-syntax-ns#"
   xmlns:svg="http://www.w3.org/2000/svg"
   xmlns="http://www.w3.org/2000/svg"
   xmlns:sodipodi="http://sodipodi.sourceforge.net/DTD/sodipodi-0.dtd"
   xmlns:inkscape="http://www.inkscape.org/namespaces/inkscape"
   viewBox="0 0 48 48"
   id="svg2"
   version="1.1"
   inkscape:version="0.91 r13725"
   sodipodi:docname="fityk.svg">
  <metadata
     id="metadata42">
    <rdf:RDF>
      <cc:Work
         rdf:about="">
        <dc:format>image/svg+xml</dc:format>
        <dc:type
           rdf:resource="http://purl.org/dc/dcmitype/StillImage" />
        <dc:title></dc:title>
      </cc:Work>
    </rdf:RDF>
  </metadata>
  <sodipodi:namedview
     pagecolor="#ffffff"
     bordercolor="#666666"
     borderopacity="1"
     objecttolerance="10"
     gridtolerance="10"
     guidetolerance="10"
     inkscape:pageopacity="0"
     inkscape:pageshadow="2"
     inkscape:window-width="1280"
     inkscape:window-height="694"
     id="namedview40"
     showgrid="false"
     inkscape:zoom="4.9166667"
     inkscape:cx="-21.559322"
     inkscape:cy="24"
     inkscape:window-x="0"
     inkscape:window-y="0"
     inkscape:window-maximized="1"
     inkscape:current-layer="svg2" />
  <defs
     id="defs4">
    <clipPath
       id="1">
      <path
         transform="matrix(15.33333 0 0 11.5 415-125.5)"
         d="m-24 13c0 1.105-.672 2-1.5 2-.828 0-1.5-.895-1.5-2 0-1.105.672-2 1.5-2 .828 0 1.5.895 1.5 2"
         fill="#1890d0"
         id="path7" />
    </clipPath>
    <linearGradient
       gradientTransform="matrix(.49433 0 0 .4778 86.64 13.1)"
       gradientUnits="userSpaceOnUse"
       y2="-26.05"
       x2="-125.19"
       y1="73.5"
       x1="-123.97"
       id="0">
      <stop
         stop-color="#f15400"
         id="stop10" />
      <stop
         offset="1"
         stop-color="#fa8c00"
         id="stop12" />
    </linearGradient>
  </defs>
  <g
     style="fill:#552200;fill-opacity:0.66199999;stroke:none"
     id="g18"
     clip-path="url(#1)"
     transform="matrix(1.9594344,0,0,1.8815713,-23.027203,-22.199813)">
    <g
       style="fill:#552200;fill-opacity:0.66199999;stroke:none"
       id="g20">
      <path
         inkscape:connector-curvature="0"
         id="path22"
         d="m 36,14.332 c 0,1.262 -1.02,2.281 -2.281,2.281 -1.258,0 -2.281,-1.02 -2.281,-2.281 0,-1.262 1.023,-2.281 2.281,-2.281 1.262,0 2.281,1.02 2.281,2.281"
         style="fill:#552200;stroke:none" />
      <path
         inkscape:connector-curvature="0"
         id="path24"
         d="m 31.22,15.773 c 0,1.262 -1.02,2.281 -2.281,2.281 -1.258,0 -2.281,-1.02 -2.281,-2.281 0,-1.262 1.023,-2.281 2.281,-2.281 1.262,0 2.281,1.02 2.281,2.281"
         style="fill:#552200;stroke:none" />
      <path
         inkscape:connector-curvature="0"
         id="path26"
         d="m 27.371,19.14 c 0,1.262 -1.02,2.281 -2.281,2.281 -1.258,0 -2.281,-1.02 -2.281,-2.281 0,-1.262 1.023,-2.281 2.281,-2.281 1.262,0 2.281,1.02 2.281,2.281"
         style="fill:#552200;stroke:none" />
      <path
         inkscape:connector-curvature="0"
         id="path28"
         d="m 25.863,24.25 c 0,1.258 -1.023,2.281 -2.281,2.281 -1.262,0 -2.281,-1.023 -2.281,-2.281 0,-1.262 1.02,-2.285 2.281,-2.285 1.258,0 2.281,1.023 2.281,2.285"
         style="fill:#552200;stroke:none" />
      <path
         inkscape:connector-curvature="0"
         id="path30"
         d="m 25,29.551 c 0,1.262 -1.023,2.285 -2.281,2.285 -1.262,0 -2.281,-1.023 -2.281,-2.285 0,-1.258 1.02,-2.281 2.281,-2.281 1.258,0 2.281,1.023 2.281,2.281"
         style="fill:#552200;stroke:none" />
      <path
         inkscape:connector-curvature="0"
         id="path32"
         d="m 21.758,33.703 c 0,1.262 -1.023,2.281 -2.281,2.281 -1.258,0 -2.281,-1.02 -2.281,-2.281 0,-1.262 1.023,-2.281 2.281,-2.281 1.258,0 2.281,1.02 2.281,2.281"
         style="fill:#552200;stroke:none" />
      <path
         inkscape:connector-curvature="0"
         id="path34"
         d="m 16.563,34.668 c 0,1.262 -1.023,2.281 -2.281,2.281 -1.262,0 -2.281,-1.02 -2.281,-2.281 0,-1.262 1.02,-2.281 2.281,-2.281 1.258,0 2.281,1.02 2.281,2.281"
         style="fill:#552200;stroke:none" />
      <path
         inkscape:connector-curvature="0"
         id="path36"
         d="m 20.734,24.363 c 0,1.262 -1.02,2.285 -2.277,2.285 -1.262,0 -2.281,-1.023 -2.281,-2.285 0,-1.258 1.02,-2.281 2.281,-2.281 1.258,0 2.277,1.023 2.277,2.281"
         style="fill:#552200;stroke:none" />
      <path
         inkscape:connector-curvature="0"
         id="path38"
         d="m 31.28,24.26 c 0,1.262 -1.023,2.281 -2.281,2.281 -1.258,0 -2.281,-1.02 -2.281,-2.281 0,-1.262 1.023,-2.281 2.281,-2.281 1.258,0 2.281,1.02 2.281,2.281"
         style="fill:#552200;stroke:none" />
    </g>
  </g>
</svg>
