<?xml version="1.0" encoding="UTF-8" standalone="no"?>
<svg
   xmlns:dc="http://purl.org/dc/elements/1.1/"
   xmlns:cc="http://creativecommons.org/ns#"
   xmlns:rdf="http://www.w3.org/1999/02/22-rdf-syntax-ns#"
   xmlns:svg="http://www.w3.org/2000/svg"
   xmlns="http://www.w3.org/2000/svg"
   xmlns:xlink="http://www.w3.org/1999/xlink"
   xmlns:sodipodi="http://sodipodi.sourceforge.net/DTD/sodipodi-0.dtd"
   xmlns:inkscape="http://www.inkscape.org/namespaces/inkscape"
   viewBox="0 0 48 48"
   id="svg2"
   version="1.1"
   inkscape:version="0.91 r13725"
   sodipodi:docname="flacon.svg">
  <metadata
     id="metadata23">
    <rdf:RDF>
      <cc:Work
         rdf:about="">
        <dc:format>image/svg+xml</dc:format>
        <dc:type
           rdf:resource="http://purl.org/dc/dcmitype/StillImage" />
        <dc:title></dc:title>
      </cc:Work>
    </rdf:RDF>
  </metadata>
  <sodipodi:namedview
     pagecolor="#ffffff"
     bordercolor="#666666"
     borderopacity="1"
     objecttolerance="10"
     gridtolerance="10"
     guidetolerance="10"
     inkscape:pageopacity="0"
     inkscape:pageshadow="2"
     inkscape:window-width="1280"
     inkscape:window-height="694"
     id="namedview21"
     showgrid="false"
     inkscape:zoom="4.9166667"
     inkscape:cx="36.40678"
     inkscape:cy="24"
     inkscape:window-x="0"
     inkscape:window-y="0"
     inkscape:window-maximized="1"
     inkscape:current-layer="svg2" />
  <defs
     id="defs4">
    <linearGradient
       xlink:href="#2"
       id="0"
       y1="546.29"
       x2="0"
       y2="501.51"
       gradientUnits="userSpaceOnUse"
       gradientTransform="matrix(1.07196,0,0,1.07196,-413.17,-537.6)" />
    <linearGradient
       xlink:href="#2"
       id="1"
       x1="408.82"
       y1="546.29"
       x2="407.82"
       y2="501.51"
       gradientUnits="userSpaceOnUse"
       gradientTransform="matrix(1.07196,0,0,1.07196,-413.17,-537.6)" />
    <linearGradient
       id="2">
      <stop
         stop-color="#97a9b1"
         id="stop9" />
      <stop
         offset="1"
         stop-color="#cfdce1"
         id="stop11" />
    </linearGradient>
  </defs>
  <path
     style="fill:#999999;stroke-width:1.31700003"
     inkscape:connector-curvature="0"
     id="path17"
     d="M 30.577269,0.33595588 25.058496,0.60076179 C 24.45945,0.62974559 23.107273,1.1079771 22.435901,1.1725318 L 20.750395,2.034139 C 14.858988,3.2185197 16.093244,0.41631986 12.498966,4.8850843 L 8.1201109,6.1616858 C 4.1248972,11.128443 -0.16590885,15.59589 0.52275845,18.766974 c 0.0628919,0.285885 0.33018295,0.509851 0.67294435,0.56123 0.3427613,0.05138 0.6839503,-0.083 0.8600479,-0.33463 0.7153964,-1.022335 1.9307841,-2.566377 3.6634585,-4.119641 4.2027573,-3.769204 9.4290818,-5.7611764 15.1113738,-5.7611764 0.473262,0 0.955958,0.014492 1.440227,0.04084 l 0,28.1708704 c 0,5.219706 4.679163,9.505346 11.131881,10.186463 0.584896,0.06192 1.176081,0.09222 1.759404,0.09222 6.218445,0 11.438481,-3.524158 12.14287,-8.198444 0.378926,-2.517632 -0.562883,-5.020772 -2.654042,-7.050951 -2.089585,-2.028861 -5.076955,-3.342351 -8.411802,-3.695426 -1.91349,-0.202886 -3.850563,-0.06982 -5.657135,0.386012 l 0,-28.71102198 M 34.802039,31.803064 c 0.295592,0 0.58804,0.01581 0.88206,0.04347 0.231128,0.0224 0.399364,0.192347 0.386786,0.386011 -0.04246,0.616563 0.385213,1.18965 1.062874,1.428107 0.650933,0.227917 1.49054,0.06718 1.959086,-0.367566 0.155656,-0.143601 0.419804,-0.162045 0.599046,-0.04084 0.457539,0.306964 0.875771,0.662673 1.243689,1.055271 0.141501,0.150188 0.12264,0.367566 -0.0456,0.496676 -0.537727,0.412359 -0.715397,1.067128 -0.441817,1.628358 0.268863,0.548056 0.910362,0.903766 1.630474,0.903766 0.223268,0 0.47798,0.139648 0.503137,0.324091 0.06761,0.49931 0.06604,1.005208 -0.0032,1.500566 -0.02673,0.192347 -0.235844,0.337265 -0.460683,0.321456 l -0.09591,-0.0027 c -0.694957,0 -1.341172,0.358344 -1.608463,0.893226 -0.284587,0.567817 -0.108486,1.229173 0.438671,1.644167 0.171381,0.130428 0.193394,0.347806 0.04874,0.499311 -0.374207,0.389963 -0.803445,0.745673 -1.275135,1.055271 -0.180814,0.117256 -0.437098,0.100119 -0.592756,-0.04084 -0.466973,-0.430804 -1.300292,-0.594166 -1.946508,-0.372836 -0.669799,0.229235 -1.100609,0.794418 -1.075453,1.404393 0.0079,0.19103 -0.161946,0.357027 -0.38993,0.378106 -0.287731,0.02635 -0.575461,0.03821 -0.863192,0.03821 -0.303454,0 -0.605336,-0.01449 -0.905645,-0.04347 -0.229556,-0.0224 -0.39622,-0.18971 -0.383642,-0.383375 0.04246,-0.616563 -0.386785,-1.192286 -1.066018,-1.430742 -0.647787,-0.227918 -1.488968,-0.06587 -1.959086,0.370202 -0.155658,0.143601 -0.418232,0.160727 -0.599046,0.03821 -0.459112,-0.309599 -0.878915,-0.665308 -1.243689,-1.055271 -0.1415,-0.150189 -0.119496,-0.367567 0.04875,-0.496676 0.537726,-0.41236 0.713824,-1.067128 0.438672,-1.628358 -0.275153,-0.562548 -0.933947,-0.915623 -1.617898,-0.901131 -0.224839,0 -0.488985,-0.138332 -0.512569,-0.324091 -0.06604,-0.499311 -0.06604,-1.002574 0.0032,-1.497931 0.02673,-0.189712 0.202826,-0.330678 0.45125,-0.324091 0.768854,0 1.4418,-0.349122 1.713807,-0.890592 0.284586,-0.567817 0.105344,-1.229173 -0.441816,-1.644168 -0.171381,-0.130427 -0.191821,-0.347805 -0.0456,-0.49931 0.372635,-0.388646 0.8003,-0.745673 1.27199,-1.055272 0.180814,-0.117256 0.438672,-0.10012 0.592758,0.04084 0.466971,0.430804 1.305008,0.592849 1.946506,0.372836 0.669799,-0.230553 1.103754,-0.797053 1.078598,-1.407028 -0.0079,-0.19103 0.158802,-0.354392 0.386785,-0.375472 0.294021,-0.02766 0.592758,-0.04216 0.886778,-0.04084 m -0.02202,4.402892 c -1.446514,0 -2.61945,0.985447 -2.61945,2.197493 0,1.212047 1.172936,2.197495 2.61945,2.197495 1.446517,0 2.622596,-0.985448 2.622596,-2.197495 0,-1.212046 -1.176079,-2.197493 -2.622596,-2.197493" />
</svg>
