<?xml version="1.0" encoding="UTF-8" standalone="no"?>
<svg
   xmlns:dc="http://purl.org/dc/elements/1.1/"
   xmlns:cc="http://creativecommons.org/ns#"
   xmlns:rdf="http://www.w3.org/1999/02/22-rdf-syntax-ns#"
   xmlns:svg="http://www.w3.org/2000/svg"
   xmlns="http://www.w3.org/2000/svg"
   xmlns:sodipodi="http://sodipodi.sourceforge.net/DTD/sodipodi-0.dtd"
   xmlns:inkscape="http://www.inkscape.org/namespaces/inkscape"
   viewBox="0 0 48 48"
   id="svg2"
   version="1.1"
   inkscape:version="0.91 r13725"
   sodipodi:docname="flightgear.svg">
  <metadata
     id="metadata25">
    <rdf:RDF>
      <cc:Work
         rdf:about="">
        <dc:format>image/svg+xml</dc:format>
        <dc:type
           rdf:resource="http://purl.org/dc/dcmitype/StillImage" />
        <dc:title></dc:title>
      </cc:Work>
    </rdf:RDF>
  </metadata>
  <sodipodi:namedview
     pagecolor="#ffffff"
     bordercolor="#666666"
     borderopacity="1"
     objecttolerance="10"
     gridtolerance="10"
     guidetolerance="10"
     inkscape:pageopacity="0"
     inkscape:pageshadow="2"
     inkscape:window-width="1280"
     inkscape:window-height="694"
     id="namedview23"
     showgrid="false"
     inkscape:zoom="4.9166667"
     inkscape:cx="-9.1525424"
     inkscape:cy="24"
     inkscape:window-x="0"
     inkscape:window-y="0"
     inkscape:window-maximized="1"
     inkscape:current-layer="svg2" />
  <defs
     id="defs4">
    <linearGradient
       y1="17.12"
       x2="0"
       y2="-27.875"
       gradientUnits="userSpaceOnUse"
       id="linearGradient6">
      <stop
         stop-color="#e7f0f4"
         id="stop8" />
      <stop
         offset="1"
         stop-color="#f4faff"
         id="stop10" />
    </linearGradient>
    <linearGradient
       gradientTransform="matrix(1.7142729,0,0,1.7153928,-662.68376,-888.23886)"
       gradientUnits="userSpaceOnUse"
       y2="519.56"
       x2="0"
       y1="545.79"
       id="0">
      <stop
         stop-color="#97a9b1"
         id="stop13" />
      <stop
         offset="1"
         stop-color="#cfdce1"
         id="stop15" />
    </linearGradient>
  </defs>
  <path
     style="fill:#536c67"
     inkscape:connector-curvature="0"
     id="path21"
     d="M 44.795673,9.9411099 C 46.728955,7.3531172 47.886567,4.6641613 47.893298,2.7441991 47.889933,2.1216004 47.765421,1.6369827 47.528179,1.2752018 47.50294,1.2314518 47.435636,1.1153436 47.314492,1.0009205 47.195028,0.88144758 47.087343,0.81750598 47.063787,0.80572695 46.683524,0.55163996 46.195577,0.43048598 45.574706,0.43048598 43.659933,0.43385098 40.971174,1.5898666 38.381688,3.5283371 36.28856,5.0949321 34.195436,7.300953 31.298037,10.355055 c -0.491313,0.518272 -1.009547,1.063466 -1.556385,1.633902 l -5.613079,-1.682701 0.0017,-0.01514 c 0.23388,-0.235577 0.366802,-0.5603397 0.363437,-0.87837 0.0034,-0.3365401 -0.132925,-0.6613012 -0.366802,-0.8935129 L 23.113979,7.50456 C 22.8801,7.2689813 22.557047,7.1343655 22.222214,7.1343655 c -0.3382,0 -0.652841,0.1295693 -0.888402,0.3685119 L 19.817809,9.0206735 19.01522,8.7817292 c 0.173306,-0.2204343 0.269212,-0.4947139 0.265846,-0.7639453 0.0034,-0.3415883 -0.12787,-0.6596186 -0.366801,-0.8951974 L 17.896306,6.1045525 C 17.664111,5.8706564 17.342738,5.7377234 17.00454,5.7377234 c -0.336515,0 -0.651157,0.1312519 -0.883354,0.3685119 L 14.729695,7.4978292 9.0223918,5.788205 C 8.8945146,5.751185 8.7599104,5.730992 8.615209,5.730992 8.2097071,5.736032 7.834492,5.885802 7.5602324,6.1583989 L 5.5546001,8.1658608 C 5.3274515,8.3930243 5.199576,8.70096 5.2012587,8.9937495 5.1945282,9.4245201 5.4317724,9.8216381 5.8137163,10.025246 L 17.81386,16.729125 c 0.0589,0.03366 0.228831,0.158176 0.291085,0.220434 l 3.420681,3.42093 c -3.200262,3.365401 -6.050549,6.636572 -8.273235,9.476971 -0.206957,0.264183 -0.403819,0.521638 -0.597313,0.775725 L 3.3706145,29.780151 c -0.045429,-0.0051 -0.095908,-0.01008 -0.1598464,-0.01008 -0.425693,0.0084 -0.8412891,0.176683 -1.1508835,0.476205 l -0.935513,0.935581 c -0.23051325,0.225483 -0.36175426,0.531734 -0.35838907,0.826206 -0.006731,0.450964 0.26584717,0.866591 0.67471357,1.050006 l 6.5317652,3.102899 c 0.055525,0.0286 0.2019097,0.131252 0.2507049,0.180049 l 0.5417903,0.538464 c -0.1699403,0.477887 -0.2557527,0.891832 -0.2608005,1.255297 -1.682e-4,0.486299 0.1547988,0.903608 0.4559798,1.203128 l 0.023556,0.02019 0.00673,0.0051 c 0.3079132,0.29784 0.706683,0.450966 1.2013606,0.450966 0.355024,-0.0051 0.765574,-0.09087 1.245108,-0.259137 l 0.550203,0.550243 c 0.04207,0.04543 0.144703,0.188462 0.171623,0.245674 l 3.095942,6.5171 c 0.188449,0.415628 0.597315,0.68486 1.041516,0.68486 l 0.0068,0 c 0.307912,0 0.600681,-0.122838 0.826147,-0.348319 l 0.957386,-0.960823 c 0.284356,-0.299521 0.450931,-0.711781 0.457662,-1.147602 0,-0.05385 -1.68e-4,-0.09424 -0.0034,-0.116106 l -0.844654,-9.318797 c 0.254068,-0.191829 0.511503,-0.388704 0.775668,-0.593994 2.845237,-2.22453 6.111122,-5.081756 9.474594,-8.27384 l 3.424044,3.427663 c 0.05553,0.05385 0.185083,0.222116 0.222102,0.292789 L 38.28412,42.49302 c 0.203593,0.387021 0.597316,0.625964 1.033103,0.625964 0.311277,0 0.607411,-0.122838 0.834559,-0.351684 l 2.020776,-2.019241 c 0.262482,-0.274279 0.408866,-0.646156 0.413915,-1.053371 0,-0.1363 -0.01852,-0.269231 -0.05384,-0.393751 l -1.7095,-5.707721 1.391492,-1.393276 c 0.23388,-0.232214 0.366803,-0.555292 0.366803,-0.888467 0,-0.333175 -0.129565,-0.64784 -0.365119,-0.886784 l -1.019643,-1.019715 c -0.233878,-0.233897 -0.555251,-0.366829 -0.888401,-0.366829 -0.28099,0 -0.556932,0.09424 -0.77062,0.264183 l -0.238927,-0.799282 1.517686,-1.517796 c 0.233878,-0.233896 0.366801,-0.556974 0.366801,-0.890149 0,-0.334858 -0.129552,-0.649523 -0.366801,-0.885102 l -1.014596,-1.014736 c -0.233877,-0.23726 -0.558614,-0.371875 -0.893446,-0.371875 -0.334833,0 -0.661254,0.1363 -0.890085,0.370192 l -0.01004,0.01009 -1.680895,-5.611806 c 0.580488,-0.553609 1.132374,-1.080294 1.659021,-1.576691 3.043783,-2.887515 5.24123,-4.974062 6.797614,-7.0622951" />
</svg>
