<?xml version="1.0" encoding="UTF-8" standalone="no"?>
<svg
   xmlns:dc="http://purl.org/dc/elements/1.1/"
   xmlns:cc="http://creativecommons.org/ns#"
   xmlns:rdf="http://www.w3.org/1999/02/22-rdf-syntax-ns#"
   xmlns:svg="http://www.w3.org/2000/svg"
   xmlns="http://www.w3.org/2000/svg"
   xmlns:sodipodi="http://sodipodi.sourceforge.net/DTD/sodipodi-0.dtd"
   xmlns:inkscape="http://www.inkscape.org/namespaces/inkscape"
   viewBox="0 0 48 48"
   id="svg2"
   version="1.1"
   inkscape:version="0.91 r13725"
   sodipodi:docname="gadu_protocol.svg">
  <metadata
     id="metadata33">
    <rdf:RDF>
      <cc:Work
         rdf:about="">
        <dc:format>image/svg+xml</dc:format>
        <dc:type
           rdf:resource="http://purl.org/dc/dcmitype/StillImage" />
        <dc:title></dc:title>
      </cc:Work>
    </rdf:RDF>
  </metadata>
  <sodipodi:namedview
     pagecolor="#ffffff"
     bordercolor="#666666"
     borderopacity="1"
     objecttolerance="10"
     gridtolerance="10"
     guidetolerance="10"
     inkscape:pageopacity="0"
     inkscape:pageshadow="2"
     inkscape:window-width="1280"
     inkscape:window-height="694"
     id="namedview31"
     showgrid="false"
     inkscape:zoom="4.9166667"
     inkscape:cx="-9.1525424"
     inkscape:cy="24"
     inkscape:window-x="0"
     inkscape:window-y="0"
     inkscape:window-maximized="1"
     inkscape:current-layer="svg2" />
  <defs
     id="defs4">
    <clipPath
       id="clipPath6">
      <path
         transform="matrix(15.33333 0 0 11.5 415-125.5)"
         d="m-24 13c0 1.105-.672 2-1.5 2-.828 0-1.5-.895-1.5-2 0-1.105.672-2 1.5-2 .828 0 1.5.895 1.5 2"
         fill="#1890d0"
         id="path8" />
    </clipPath>
    <linearGradient
       y2="517.77"
       x2="400.7"
       y1="546.07"
       x1="400.51"
       gradientUnits="userSpaceOnUse"
       id="0">
      <stop
         stop-color="#ff9300"
         id="stop11" />
      <stop
         offset="1"
         stop-color="#ffd702"
         id="stop13" />
    </linearGradient>
    <linearGradient
       gradientUnits="userSpaceOnUse"
       y2="517.8"
       x2="0"
       y1="545.8"
       id="linearGradient15">
      <stop
         stop-color="#3889e9"
         id="stop17" />
      <stop
         offset="1"
         stop-color="#5ea5fb"
         id="stop19" />
    </linearGradient>
  </defs>
  <path
     style="fill:#ffcc00;fill-opacity:1;fill-rule:evenodd"
     inkscape:connector-curvature="0"
     id="path29"
     d="m 23.900206,0.68560525 c -0.311237,0 -0.548761,0.0998771 -0.714208,0.31055655 L 18.238959,7.481956 10.2336,5.019352 C 9.9780574,4.9132349 9.707773,4.9506859 9.4342109,5.1254692 9.196688,5.2986948 9.0721932,5.521859 9.0721932,5.8027634 l 0,8.0011216 -8.0053584,2.507862 c -0.29321859,0.08739 -0.47996108,0.262179 -0.55367532,0.524357 -0.0917332,0.279344 -0.0524188,0.535281 0.11139045,0.761565 L 5.5552077,24.0741 0.62454995,30.559894 c -0.16544733,0.209118 -0.20312342,0.465055 -0.11139045,0.761565 0.0737135,0.260618 0.26045673,0.432282 0.5536753,0.518115 l 8.0053584,2.50474 0,8.001122 c 0,0.277784 0.1244964,0.504068 0.3620177,0.680415 0.2751996,0.171665 0.5438465,0.209119 0.7993891,0.103001 l 8.008634,-2.453241 4.947039,6.47643 c 0.183468,0.226285 0.417715,0.344889 0.710933,0.344889 0.293218,0 0.527466,-0.118605 0.710933,-0.344889 l 4.947038,-6.47643 8.008635,2.453241 c 0.255543,0.106114 0.525827,0.07179 0.799389,-0.103001 0.237524,-0.173226 0.35219,-0.402631 0.35219,-0.680415 l 0,-8.001122 8.015186,-2.50474 c 0.293218,-0.08739 0.479961,-0.257497 0.553676,-0.518115 0.09173,-0.29651 0.05242,-0.555568 -0.111387,-0.761565 L 42.245207,24.0741 47.175865,17.597669 c 0.16381,-0.226284 0.203124,-0.480659 0.111387,-0.761565 -0.0737,-0.260617 -0.260458,-0.438525 -0.553676,-0.524357 l -8.015187,-2.507862 0,-8.0011216 C 38.718389,5.523419 38.605363,5.3018162 38.3662,5.1254692 38.092639,4.953805 37.822355,4.9132306 37.566812,5.019352 L 29.558177,7.481956 24.611139,0.9961618 C 24.445691,0.78548268 24.211444,0.68560525 23.900206,0.68560525 m 0,8.33664785 c 2.139348,0 4.188602,0.3948286 6.136295,1.1891669 1.947691,0.792777 3.628374,1.8649 5.045325,3.216367 1.416949,1.351467 2.542319,2.960429 3.376109,4.815966 0.83215,1.855536 1.248225,3.798466 1.248225,5.83659 0,2.038126 -0.416075,3.987298 -1.248225,5.842832 -0.832152,1.855537 -1.957521,3.458259 -3.376109,4.809726 -1.418588,1.349907 -3.097634,2.42359 -5.045325,3.216367 -1.947693,0.792776 -3.996947,1.189165 -6.136295,1.189165 -2.140987,0 -4.188601,-0.396389 -6.136295,-1.189165 -1.947691,-0.792777 -3.628374,-1.8649 -5.045325,-3.216367 -1.416949,-1.351467 -2.542319,-2.954189 -3.3761084,-4.809726 -0.8321507,-1.855534 -1.2482258,-3.803146 -1.2482258,-5.842832 0,-2.038124 0.4160751,-3.981054 1.2482258,-5.83659 0.8321524,-1.855537 1.9575204,-3.464499 3.3761084,-4.815966 1.418589,-1.349907 3.097634,-2.42359 5.045325,-3.216367 1.947694,-0.7927783 3.996947,-1.1891669 6.136295,-1.1891669 m -5.992142,6.9336829 c -1.508683,0 -2.725786,1.162635 -2.725786,2.599935 0,1.43886 1.217103,2.603056 2.725786,2.603056 1.508683,0 2.735614,-1.164196 2.735614,-2.603056 0,-1.4373 -1.226931,-2.599935 -2.735614,-2.599935 z m 12.390531,0 c -1.508682,0 -2.729063,1.162635 -2.729063,2.599935 0,1.43886 1.222017,2.603056 2.729063,2.603056 1.508684,0 2.735614,-1.164196 2.735614,-2.603056 0,-1.4373 -1.22693,-2.599935 -2.735614,-2.599935 m -15.319441,11.490591 0,0.0031 c -0.168723,0 -0.337446,0.02185 -0.502894,0.08896 -0.674895,0.26686 -0.994323,1.003455 -0.714207,1.646416 1.634815,3.748527 5.618656,6.172117 10.157811,6.172117 4.444144,0 8.409966,-2.411104 10.103754,-6.142465 0.289942,-0.638279 -0.0015,-1.374876 -0.687999,-1.65266 -0.66998,-0.276224 -1.448074,0.01404 -1.738016,0.652324 -1.274435,2.807495 -4.290165,4.627137 -7.679377,4.627137 -3.466205,0 -6.493399,-1.821203 -7.717054,-4.627137 -0.211315,-0.485341 -0.707657,-0.767807 -1.225294,-0.767807" />
</svg>
