<?xml version="1.0" encoding="UTF-8" standalone="no"?>
<svg
   xmlns:dc="http://purl.org/dc/elements/1.1/"
   xmlns:cc="http://creativecommons.org/ns#"
   xmlns:rdf="http://www.w3.org/1999/02/22-rdf-syntax-ns#"
   xmlns:svg="http://www.w3.org/2000/svg"
   xmlns="http://www.w3.org/2000/svg"
   xmlns:sodipodi="http://sodipodi.sourceforge.net/DTD/sodipodi-0.dtd"
   xmlns:inkscape="http://www.inkscape.org/namespaces/inkscape"
   viewBox="0 0 48 48"
   id="svg2"
   version="1.1"
   inkscape:version="0.91 r13725"
   sodipodi:docname="gksu.svg">
  <metadata
     id="metadata24">
    <rdf:RDF>
      <cc:Work
         rdf:about="">
        <dc:format>image/svg+xml</dc:format>
        <dc:type
           rdf:resource="http://purl.org/dc/dcmitype/StillImage" />
        <dc:title></dc:title>
      </cc:Work>
    </rdf:RDF>
  </metadata>
  <sodipodi:namedview
     pagecolor="#ffffff"
     bordercolor="#666666"
     borderopacity="1"
     objecttolerance="10"
     gridtolerance="10"
     guidetolerance="10"
     inkscape:pageopacity="0"
     inkscape:pageshadow="2"
     inkscape:window-width="1280"
     inkscape:window-height="694"
     id="namedview22"
     showgrid="false"
     inkscape:zoom="4.9166667"
     inkscape:cx="-23.790628"
     inkscape:cy="24"
     inkscape:window-x="0"
     inkscape:window-y="0"
     inkscape:window-maximized="1"
     inkscape:current-layer="svg2" />
  <defs
     id="defs4">
    <linearGradient
       id="0"
       y1="22.12"
       x2="0"
       y2="-27.875"
       gradientUnits="userSpaceOnUse"
       gradientTransform="matrix(0.99996,0,0,0.99999,-43.37,26.08539)">
      <stop
         stop-color="#dc3c30"
         id="stop7" />
      <stop
         offset="1"
         stop-color="#ff786d"
         id="stop9" />
    </linearGradient>
    <linearGradient
       id="1"
       x1="66.957"
       y1="17.05"
       x2="66.58"
       y2="-19.01"
       gradientUnits="userSpaceOnUse"
       gradientTransform="matrix(0.99996,0,0,0.99999,-86.285254,24.865051)">
      <stop
         stop-color="#e2e2e2"
         id="stop12" />
      <stop
         offset="1"
         stop-color="#fff"
         id="stop14" />
    </linearGradient>
  </defs>
  <g
     transform="matrix(3.8235106,0,0,3.8234454,-1392.0128,-2004.6683)"
     id="g49"
     style="fill:#ab37c8;enable-background:new">
    <flowRoot
       transform="translate(389.57,520.8)"
       text-align="start"
       word-spacing="0"
       line-height="125%"
       letter-spacing="0"
       font-size="10"
       id="flowRoot51"
       style="font-size:10px;line-height:125%;font-family:sans-serif;text-align:start;letter-spacing:0;word-spacing:0;fill:#ab37c8">
      <flowRegion
         id="flowRegion53">
        <path
           d="m 22,3 27,0 0,15 -27,0 z"
           id="path55"
           style="fill:#ab37c8"
           inkscape:connector-curvature="0" />
      </flowRegion>
      <flowPara
         id="flowPara57">Plasm</flowPara>
    </flowRoot>
    <path
       d="m 124.92,52.2 c -0.436,-0.571 -1,-0.911 -1.711,-1.019 L 108.3,48.9 c -0.815,-2.607 -1.929,-5.268 -3.341,-7.984 0.977,-1.358 2.443,-3.272 4.398,-5.744 1.955,-2.472 3.34,-4.277 4.155,-5.418 0.435,-0.598 0.651,-1.222 0.651,-1.874 0,-0.76 -0.189,-1.357 -0.57,-1.792 -1.955,-2.771 -6.436,-7.387 -13.443,-13.851 -0.65,-0.543 -1.33,-0.814 -2.035,-0.814 -0.815,0 -1.467,0.244 -1.956,0.732 l -11.568,8.718 c -2.228,-1.141 -4.672,-2.146 -7.333,-3.02 L 74.977,2.863 C 74.923,2.157 74.61,1.573 74.04,1.111 73.469,0.649 72.805,0.419 72.043,0.419 l -18.09,0 c -1.575,0 -2.553,0.76 -2.933,2.281 -0.706,2.715 -1.494,7.766 -2.363,15.15 -2.553,0.816 -5.02,1.848 -7.414,3.097 L 30,12.229 c -0.706,-0.543 -1.412,-0.814 -2.118,-0.814 -1.195,0 -3.761,1.941 -7.699,5.825 -3.938,3.884 -6.612,6.803 -8.03,8.758 -0.489,0.706 -0.733,1.331 -0.733,1.874 0,0.652 0.271,1.304 0.814,1.955 3.639,4.4 6.545,8.147 8.718,11.244 -1.358,2.498 -2.417,4.997 -3.177,7.495 l -15.15,2.281 c -0.597,0.109 -1.113,0.462 -1.548,1.06 -0.435,0.597 -0.652,1.222 -0.652,1.873 l 0,18.09 c 0,0.707 0.217,1.344 0.652,1.914 0.435,0.571 1,0.912 1.711,1.02 l 14.91,2.2 c 0.76,2.661 1.873,5.349 3.34,8.06 -0.977,1.358 -2.444,3.272 -4.399,5.744 -1.955,2.472 -3.341,4.277 -4.155,5.418 -0.435,0.599 -0.652,1.222 -0.652,1.874 0,0.706 0.19,1.33 0.57,1.873 2.118,2.934 6.599,7.497 13.443,13.688 0.598,0.598 1.277,0.896 2.037,0.896 0.815,0 1.494,-0.244 2.037,-0.732 l 11.488,-8.719 c 2.228,1.141 4.672,2.146 7.333,3.02 l 2.281,14.99 c 0.055,0.706 0.367,1.29 0.937,1.752 0.57,0.463 1.236,0.692 1.996,0.692 l 18.09,0 c 1.577,0 2.554,-0.76 2.935,-2.281 0.705,-2.716 1.492,-7.766 2.361,-15.15 2.553,-0.815 5.03,-1.848 7.414,-3.097 l 11.244,8.8 c 0.76,0.488 1.467,0.732 2.118,0.732 1.194,0 3.747,-1.927 7.657,-5.784 3.912,-3.856 6.6,-6.79 8.06,-8.8 0.489,-0.543 0.734,-1.167 0.734,-1.873 0,-0.706 -0.271,-1.387 -0.815,-2.037 -3.91,-4.78 -6.816,-8.527 -8.718,-11.243 1.086,-2.01 2.146,-4.481 3.178,-7.414 l 15.07,-2.28 c 0.651,-0.109 1.196,-0.463 1.63,-1.061 0.434,-0.598 0.65,-1.223 0.65,-1.874 l 0,-18.09 c 0,-0.706 -0.215,-1.343 -0.651,-1.914 m -47.17,25.541 c -4.073,4.074 -8.989,6.111 -14.747,6.111 -5.758,0 -10.673,-2.037 -14.747,-6.111 -4.073,-4.073 -6.11,-8.988 -6.11,-14.746 0,-5.758 2.036,-10.673 6.11,-14.747 4.074,-4.073 8.99,-6.11 14.747,-6.11 5.758,0 10.674,2.037 14.747,6.11 4.073,4.074 6.11,8.989 6.11,14.747 0,5.758 -2.037,10.673 -6.11,14.746"
       transform="matrix(0.09869,0,0,0.09869,364.18,524.37)"
       id="path59"
       style="fill:#ab37c8;fill-opacity:0.847"
       inkscape:connector-curvature="0" />
  </g>
</svg>
