<?xml version="1.0" encoding="UTF-8" standalone="no"?>
<svg
   xmlns:dc="http://purl.org/dc/elements/1.1/"
   xmlns:cc="http://creativecommons.org/ns#"
   xmlns:rdf="http://www.w3.org/1999/02/22-rdf-syntax-ns#"
   xmlns:svg="http://www.w3.org/2000/svg"
   xmlns="http://www.w3.org/2000/svg"
   xmlns:sodipodi="http://sodipodi.sourceforge.net/DTD/sodipodi-0.dtd"
   xmlns:inkscape="http://www.inkscape.org/namespaces/inkscape"
   viewBox="0 0 48 48"
   id="svg2"
   version="1.1"
   inkscape:version="0.91 r13725"
   sodipodi:docname="gpdftext.svg">
  <metadata
     id="metadata25">
    <rdf:RDF>
      <cc:Work
         rdf:about="">
        <dc:format>image/svg+xml</dc:format>
        <dc:type
           rdf:resource="http://purl.org/dc/dcmitype/StillImage" />
        <dc:title></dc:title>
      </cc:Work>
    </rdf:RDF>
  </metadata>
  <sodipodi:namedview
     pagecolor="#ffffff"
     bordercolor="#666666"
     borderopacity="1"
     objecttolerance="10"
     gridtolerance="10"
     guidetolerance="10"
     inkscape:pageopacity="0"
     inkscape:pageshadow="2"
     inkscape:window-width="1280"
     inkscape:window-height="694"
     id="namedview23"
     showgrid="false"
     inkscape:zoom="4.9166667"
     inkscape:cx="-6.4067797"
     inkscape:cy="24"
     inkscape:window-x="0"
     inkscape:window-y="0"
     inkscape:window-maximized="1"
     inkscape:current-layer="svg2" />
  <defs
     id="defs4">
    <linearGradient
       gradientUnits="userSpaceOnUse"
       y2="841.19"
       x2="0"
       y1="863.74"
       id="0"
       gradientTransform="matrix(2.6570968,0,0,2.6605668,-1654.1888,-2219.155)">
      <stop
         stop-color="#187ced"
         id="stop7" />
      <stop
         stop-color="#42d6fc"
         offset="1"
         id="stop9" />
    </linearGradient>
    <linearGradient
       x1="83.39"
       y1="47.32"
       x2="81.76"
       y2="-.677"
       gradientUnits="userSpaceOnUse"
       id="linearGradient11">
      <stop
         stop-color="#197cf1"
         id="stop13" />
      <stop
         offset="1"
         stop-color="#21c9fb"
         id="stop15" />
    </linearGradient>
  </defs>
  <path
     style="fill:#5fbcd3;fill-opacity:0.86299995"
     inkscape:connector-curvature="0"
     id="path21"
     d="m 46.983144,29.665408 c -0.942026,-0.959684 -3.030294,-1.469356 -6.20881,-1.511972 -2.152496,-0.0358 -4.741421,0.170461 -7.465393,0.565925 -1.220352,-0.72786 -2.476935,-1.520494 -3.463428,-2.475067 -2.654801,-2.565408 -4.869881,-6.126298 -6.251628,-10.043446 0.09058,-0.366488 0.166337,-0.68695 0.237152,-1.015936 0,0 1.495385,-8.7905725 1.100129,-11.763379 -0.05434,-0.407396 -0.08728,-0.5267185 -0.194333,-0.8437721 L 24.606726,2.2334335 C 24.199943,1.2618171 23.402843,0.23394918 22.152848,0.29020055 l -0.732871,-0.0357968 -0.01976,0 c -1.394923,0 -2.529638,0.73808756 -2.829372,1.84095765 -0.907441,3.4603192 0.028,8.6354546 1.724303,15.3396096 l -0.434782,1.092644 c -1.213764,3.063148 -2.735499,6.146751 -4.077722,8.868984 l -0.174571,0.354553 c -1.411392,2.860303 -2.692679,5.28764 -3.85539,7.345081 l -1.198944,0.656268 c -0.08728,0.04602 -2.1426152,1.172758 -2.6251565,1.474471 -4.0892492,2.527907 -6.8000458,5.396732 -7.24964951,7.672361 -0.14328147,0.726157 -0.0362338,1.656862 0.69169811,2.08642 l 1.1594174,0.603423 c 0.5039506,0.262508 1.0342515,0.393762 1.5777283,0.393762 2.9133636,0 6.2944492,-3.755213 10.9518792,-12.169073 5.378772,-1.811979 11.501943,-3.318836 16.869187,-4.148973 4.089249,2.383018 9.120527,4.038176 12.294102,4.038176 0.563238,0 1.049073,-0.05626 1.44433,-0.163643 0.609352,-0.167051 1.121539,-0.526719 1.434449,-1.014231 0.61594,-0.959686 0.741106,-2.280743 0.573121,-3.634188 -0.04941,-0.400579 -0.359024,-0.89832 -0.694991,-1.237533 M 3.4786588,45.70731 C 4.0089611,44.203861 6.1120506,41.232758 9.2213951,38.595758 9.4173773,38.432116 9.8982712,37.96506 10.33964,37.532093 7.0886616,42.898145 4.9114608,45.037406 3.4803063,45.709014 M 21.892637,1.8226276 c 0.937084,0 1.469034,2.4426776 1.5135,4.733648 0.04446,2.2909686 -0.472659,3.8966934 -1.11495,5.0864974 -0.531948,-1.7608423 -0.788864,-4.5359144 -0.788864,-6.3513043 0,0 -0.03953,-3.4688411 0.390314,-3.4688411 M 16.400229,33.096749 c 0.652172,-1.208555 1.330693,-2.481883 2.024039,-3.833623 1.689718,-3.308611 2.758555,-5.897884 3.552362,-8.025212 1.581022,2.977919 3.550714,5.509235 5.866253,7.537697 0.288207,0.252281 0.59453,0.507968 0.915676,0.760249 -4.706837,0.964797 -8.776325,2.137555 -12.358331,3.560889 M 46.07735,32.824014 c -0.286561,0.184097 -1.108363,0.294895 -1.637018,0.294895 -1.704539,0 -3.814218,-0.806271 -6.772049,-2.118807 1.13636,-0.08864 2.178848,-0.131255 3.112639,-0.131255 1.709482,0 2.216727,0 3.88833,0.432967 1.671603,0.441488 1.693012,1.338103 1.40645,1.523903 z" />
</svg>
