<?xml version="1.0" encoding="UTF-8" standalone="no"?>
<svg
   xmlns:dc="http://purl.org/dc/elements/1.1/"
   xmlns:cc="http://creativecommons.org/ns#"
   xmlns:rdf="http://www.w3.org/1999/02/22-rdf-syntax-ns#"
   xmlns:svg="http://www.w3.org/2000/svg"
   xmlns="http://www.w3.org/2000/svg"
   xmlns:sodipodi="http://sodipodi.sourceforge.net/DTD/sodipodi-0.dtd"
   xmlns:inkscape="http://www.inkscape.org/namespaces/inkscape"
   viewBox="0 0 48 48"
   id="svg2"
   version="1.1"
   inkscape:version="0.91 r13725"
   sodipodi:docname="gvim.svg">
  <metadata
     id="metadata32">
    <rdf:RDF>
      <cc:Work
         rdf:about="">
        <dc:format>image/svg+xml</dc:format>
        <dc:type
           rdf:resource="http://purl.org/dc/dcmitype/StillImage" />
        <dc:title></dc:title>
      </cc:Work>
    </rdf:RDF>
  </metadata>
  <sodipodi:namedview
     pagecolor="#ffffff"
     bordercolor="#666666"
     borderopacity="1"
     objecttolerance="10"
     gridtolerance="10"
     guidetolerance="10"
     inkscape:pageopacity="0"
     inkscape:pageshadow="2"
     inkscape:window-width="1280"
     inkscape:window-height="694"
     id="namedview30"
     showgrid="false"
     inkscape:zoom="4.9166667"
     inkscape:cx="-9.1525424"
     inkscape:cy="24"
     inkscape:window-x="0"
     inkscape:window-y="0"
     inkscape:window-maximized="1"
     inkscape:current-layer="svg2" />
  <defs
     id="defs4">
    <linearGradient
       gradientUnits="userSpaceOnUse"
       x2="47"
       x1="0"
       id="linearGradient6">
      <stop
         stop-color="#a9a3d4"
         id="stop8" />
      <stop
         offset=".47"
         stop-color="#87baff"
         id="stop10" />
      <stop
         offset="1"
         stop-color="#89ec85"
         id="stop12" />
    </linearGradient>
    <linearGradient
       id="0"
       x1="-9.538"
       y1="48.27"
       x2="25.47"
       y2="12.954"
       gradientUnits="userSpaceOnUse"
       gradientTransform="translate(-7.6259748,3.1895882)">
      <stop
         stop-color="#118702"
         id="stop15" />
      <stop
         offset="1"
         stop-color="#80e950"
         id="stop17" />
    </linearGradient>
    <linearGradient
       id="1"
       x1="26.998"
       y1="32.567"
       x2="27.06"
       y2="-1.738"
       gradientUnits="userSpaceOnUse"
       gradientTransform="translate(-3.151,7.642)">
      <stop
         stop-color="#d5dbff"
         id="stop20" />
      <stop
         offset="1"
         stop-color="#f9ffff"
         id="stop22" />
    </linearGradient>
  </defs>
  <path
     inkscape:connector-curvature="0"
     style="fill:#37c837;fill-rule:evenodd;stroke-width:1.31700003"
     id="path28"
     d="M 9.5943302,47.518475 C 10.297212,47.462915 10.93174,46.92268 11.461804,46.343551 L 46.554314,7.3877331 C 47.16047,6.7211095 47.592516,6.1308698 47.53706,5.1642656 l 0,-2.2304115 C 47.547424,0.83121208 47.177236,0.3020796 45.27623,0.29513559 l -14.941078,0 C 28.855875,0.31457879 27.862813,1.3811766 27.878289,3.0477356 l 0.02838,1.9179317 c 0.108337,1.8929332 1.744952,2.3623474 3.313218,2.4220658 L 18.048259,21.46599 l 0,-14.3949031 c 1.207151,0.044441 2.102197,-0.6957884 2.162813,-2.2234675 L 20.20589,2.8671917 C 20.124662,0.9728696 19.313446,0.4631803 17.46016,0.40207313 L 3.1097602,0.50762187 C 1.5982416,0.64094659 0.676112,1.1867447 0.48523761,3.0782892 L 0.45686441,4.4240356 C 0.54456399,6.3100249 1.1881196,7.2974611 3.0130334,7.3877331 l 0.7518902,0.030553 0.034822,37.6503459 c 0.1586321,1.447128 0.9427646,2.409568 2.4568629,2.434565 l 3.3428804,0.01114" />
</svg>
