<?xml version="1.0" encoding="UTF-8" standalone="no"?>
<svg
   xmlns:dc="http://purl.org/dc/elements/1.1/"
   xmlns:cc="http://creativecommons.org/ns#"
   xmlns:rdf="http://www.w3.org/1999/02/22-rdf-syntax-ns#"
   xmlns:svg="http://www.w3.org/2000/svg"
   xmlns="http://www.w3.org/2000/svg"
   xmlns:sodipodi="http://sodipodi.sourceforge.net/DTD/sodipodi-0.dtd"
   xmlns:inkscape="http://www.inkscape.org/namespaces/inkscape"
   viewBox="0 0 48 48"
   id="svg2"
   version="1.1"
   inkscape:version="0.91 r13725"
   sodipodi:docname="htop.svg">
  <metadata
     id="metadata61">
    <rdf:RDF>
      <cc:Work
         rdf:about="">
        <dc:format>image/svg+xml</dc:format>
        <dc:type
           rdf:resource="http://purl.org/dc/dcmitype/StillImage" />
        <dc:title></dc:title>
      </cc:Work>
    </rdf:RDF>
  </metadata>
  <sodipodi:namedview
     pagecolor="#ffffff"
     bordercolor="#666666"
     borderopacity="1"
     objecttolerance="10"
     gridtolerance="10"
     guidetolerance="10"
     inkscape:pageopacity="0"
     inkscape:pageshadow="2"
     inkscape:window-width="1280"
     inkscape:window-height="694"
     id="namedview59"
     showgrid="false"
     inkscape:zoom="4.9166667"
     inkscape:cx="-39.559322"
     inkscape:cy="24"
     inkscape:window-x="0"
     inkscape:window-y="0"
     inkscape:window-maximized="1"
     inkscape:current-layer="svg2" />
  <defs
     id="defs4">
    <linearGradient
       gradientTransform="matrix(1.0909084,0,0,1.0652822,-421.57917,-534.79949)"
       gradientUnits="userSpaceOnUse"
       y2="507.8"
       x2="0"
       y1="542.8"
       id="0">
      <stop
         stop-color="#030303"
         id="stop7" />
      <stop
         offset="1"
         stop-color="#272727"
         id="stop9" />
    </linearGradient>
  </defs>
  <g
     style="fill:#4d4d4d"
     id="g23"
     transform="matrix(2.3649213,0,0,2.3750907,-941.94643,-1224.7662)">
    <path
       inkscape:connector-curvature="0"
       id="path25"
       d="m 398.57,515.8 1,0 0,8 -1,0 z"
       style="fill:#4d4d4d" />
    <path
       inkscape:connector-curvature="0"
       id="path27"
       d="m 400.57,515.8 1,0 0,8 -1,0 z"
       style="fill:#4d4d4d" />
    <path
       inkscape:connector-curvature="0"
       id="path29"
       d="m 402.57,515.8 1,0 0,8 -1,0 z"
       style="fill:#4d4d4d" />
    <g
       id="g31"
       transform="scale(-1,1)"
       style="fill:#4d4d4d">
      <path
         inkscape:connector-curvature="0"
         id="path33"
         d="m -418.57,515.8 1,0 0,8 -1,0 z"
         style="fill:#4d4d4d" />
      <path
         inkscape:connector-curvature="0"
         id="path35"
         d="m -416.57,515.8 1,0 0,8 -1,0 z"
         style="fill:#4d4d4d" />
      <path
         inkscape:connector-curvature="0"
         id="path37"
         d="m -414.57,515.8 1,0 0,8 -1,0 z"
         style="fill:#4d4d4d" />
    </g>
    <path
       inkscape:connector-curvature="0"
       id="path39"
       d="m 398.57,527.8 1,0 0,8 -1,0 z"
       style="fill:#4d4d4d" />
    <path
       inkscape:connector-curvature="0"
       id="path41"
       d="m 400.57,527.8 1,0 0,8 -1,0 z"
       style="fill:#4d4d4d" />
    <path
       inkscape:connector-curvature="0"
       id="path43"
       d="m 402.57,527.8 1,0 0,8 -1,0 z"
       style="fill:#4d4d4d" />
    <g
       id="g45"
       transform="scale(-1,1)"
       style="fill:#4d4d4d">
      <path
         inkscape:connector-curvature="0"
         id="path47"
         d="m -418.57,527.8 1,0 0,8 -1,0 z"
         style="fill:#4d4d4d" />
      <path
         inkscape:connector-curvature="0"
         id="path49"
         d="m -416.57,527.8 1,0 0,8 -1,0 z"
         style="fill:#4d4d4d" />
      <path
         inkscape:connector-curvature="0"
         id="path51"
         d="m -414.57,527.8 1,0 0,8 -1,0 z"
         style="fill:#4d4d4d" />
    </g>
    <path
       inkscape:connector-curvature="0"
       id="path53"
       d="m 404.57,523.8 1,0 0,4 -1,0 z"
       style="fill:#4d4d4d" />
    <path
       inkscape:connector-curvature="0"
       id="path55"
       d="m 408.57,523.8 1,0 0,4 -1,0 z"
       style="fill:#4d4d4d" />
    <path
       inkscape:connector-curvature="0"
       id="path57"
       d="m 412.57,523.8 1,0 0,4 -1,0 z"
       style="fill:#4d4d4d" />
  </g>
</svg>
