<?xml version="1.0" encoding="UTF-8" standalone="no"?>
<svg
   xmlns:dc="http://purl.org/dc/elements/1.1/"
   xmlns:cc="http://creativecommons.org/ns#"
   xmlns:rdf="http://www.w3.org/1999/02/22-rdf-syntax-ns#"
   xmlns:svg="http://www.w3.org/2000/svg"
   xmlns="http://www.w3.org/2000/svg"
   xmlns:sodipodi="http://sodipodi.sourceforge.net/DTD/sodipodi-0.dtd"
   xmlns:inkscape="http://www.inkscape.org/namespaces/inkscape"
   viewBox="0 0 48 48"
   id="svg2"
   version="1.1"
   inkscape:version="0.91 r13725"
   sodipodi:docname="jabber_protocol.svg">
  <metadata
     id="metadata43">
    <rdf:RDF>
      <cc:Work
         rdf:about="">
        <dc:format>image/svg+xml</dc:format>
        <dc:type
           rdf:resource="http://purl.org/dc/dcmitype/StillImage" />
        <dc:title></dc:title>
      </cc:Work>
    </rdf:RDF>
  </metadata>
  <sodipodi:namedview
     pagecolor="#ffffff"
     bordercolor="#666666"
     borderopacity="1"
     objecttolerance="10"
     gridtolerance="10"
     guidetolerance="10"
     inkscape:pageopacity="0"
     inkscape:pageshadow="2"
     inkscape:window-width="1280"
     inkscape:window-height="694"
     id="namedview41"
     showgrid="false"
     inkscape:zoom="4.9166667"
     inkscape:cx="-9.1525424"
     inkscape:cy="24"
     inkscape:window-x="0"
     inkscape:window-y="0"
     inkscape:window-maximized="1"
     inkscape:current-layer="svg2" />
  <defs
     id="defs4">
    <linearGradient
       gradientTransform="matrix(1.71427,0,0,1.7058015,-662.67897,-883.12572)"
       id="0"
       y1="545.8"
       x2="0"
       y2="517.8"
       gradientUnits="userSpaceOnUse">
      <stop
         stop-color="#ff9300"
         id="stop7" />
      <stop
         offset="1"
         stop-color="#ffd702"
         id="stop9" />
    </linearGradient>
  </defs>
  <g
     style="fill:#552200;fill-opacity:0.753"
     id="g15"
     transform="matrix(3.0388018,0,0,2.5532381,27.269599,-28.84011)">
    <path
       inkscape:connector-curvature="0"
       id="path17"
       d="m 0.613,26.597 -3.312,0 c -0.256,0 -0.464,0.208 -0.464,0.464 0,0.257 0.208,0.465 0.464,0.465 l 3.312,0 c 0.256,0 0.465,-0.208 0.465,-0.465 0,-0.256 -0.208,-0.464 -0.465,-0.464"
       style="fill:#552200" />
    <path
       inkscape:connector-curvature="0"
       id="path19"
       d="m -1.895,29.3 c 0.063,0.417 0.419,0.738 0.854,0.738 0.434,0 0.791,-0.321 0.854,-0.738 0.568,-0.034 1.02,-0.501 1.02,-1.078 l -3.751,0 c 0,0.577 0.453,1.045 1.023,1.078"
       style="fill:#552200" />
    <path
       inkscape:connector-curvature="0"
       id="path21"
       d="m -1.042,14.05 c 0.343,0 0.62,-0.277 0.62,-0.619 l 0,-1.441 c 0,-0.342 -0.277,-0.619 -0.62,-0.619 -0.342,0 -0.619,0.277 -0.619,0.619 l 0,1.441 c 0,0.342 0.277,0.619 0.619,0.619"
       style="fill:#552200" />
    <path
       inkscape:connector-curvature="0"
       id="path23"
       d="m -5.105,14.956 c 0.122,0.167 0.31,0.256 0.502,0.256 0.126,0 0.253,-0.038 0.363,-0.118 0.276,-0.201 0.338,-0.588 0.137,-0.865 L -4.95,13.063 c -0.201,-0.276 -0.588,-0.339 -0.865,-0.137 -0.276,0.201 -0.338,0.588 -0.137,0.865 l 0.846,1.166"
       style="fill:#552200" />
    <path
       inkscape:connector-curvature="0"
       id="path25"
       d="M 3.02,24.03 C 2.819,23.754 2.432,23.692 2.155,23.893 1.879,24.094 1.817,24.481 2.019,24.758 l 0.847,1.166 c 0.121,0.167 0.31,0.255 0.501,0.255 0.126,0 0.253,-0.038 0.363,-0.118 0.276,-0.201 0.338,-0.588 0.137,-0.865 L 3.02,24.03"
       style="fill:#552200" />
    <path
       inkscape:connector-curvature="0"
       id="path27"
       d="m -6.613,17.03 -1.371,-0.446 c -0.328,-0.106 -0.675,0.072 -0.781,0.398 -0.106,0.325 0.072,0.675 0.397,0.78 l 1.371,0.446 c 0.064,0.021 0.128,0.031 0.192,0.031 0.261,0 0.504,-0.166 0.589,-0.428 0.106,-0.325 -0.072,-0.675 -0.397,-0.78"
       style="fill:#552200" />
    <path
       inkscape:connector-curvature="0"
       id="path29"
       d="m 6.284,21.22 -1.37,-0.445 c -0.326,-0.105 -0.674,0.073 -0.78,0.398 -0.106,0.325 0.073,0.675 0.398,0.781 l 1.371,0.445 c 0.064,0.021 0.128,0.031 0.191,0.031 0.261,0 0.504,-0.167 0.589,-0.428 0.106,-0.326 -0.073,-0.675 -0.398,-0.78"
       style="fill:#552200" />
    <path
       inkscape:connector-curvature="0"
       id="path31"
       d="m -6.996,20.78 -1.371,0.444 c -0.325,0.105 -0.504,0.455 -0.398,0.78 0.085,0.262 0.328,0.428 0.589,0.428 0.063,0 0.128,-10e-4 0.191,-0.031 l 1.371,-0.444 c 0.326,-0.106 0.504,-0.455 0.398,-0.78 -0.105,-0.325 -0.452,-0.503 -0.78,-0.398"
       style="fill:#552200" />
    <path
       inkscape:connector-curvature="0"
       id="path33"
       d="m 4.722,18.242 c 0.064,0 0.128,-0.001 0.191,-0.031 l 1.37,-0.445 C 6.608,17.66 6.787,17.311 6.681,16.986 6.575,16.661 6.224,16.483 5.901,16.588 L 4.53,17.033 c -0.325,0.106 -0.504,0.455 -0.398,0.78 0.085,0.262 0.328,0.428 0.589,0.428"
       style="fill:#552200" />
    <path
       inkscape:connector-curvature="0"
       id="path35"
       d="m -5.105,24.03 -0.848,1.165 c -0.201,0.277 -0.14,0.664 0.137,0.865 0.109,0.08 0.237,0.119 0.363,0.119 0.192,0 0.381,-0.088 0.501,-0.255 l 0.848,-1.165 c 0.201,-0.277 0.14,-0.664 -0.137,-0.865 -0.276,-0.202 -0.665,-0.14 -0.865,0.136"
       style="fill:#552200" />
    <path
       inkscape:connector-curvature="0"
       id="path37"
       d="M 2.867,13.06 2.02,14.226 c -0.201,0.277 -0.139,0.664 0.137,0.865 0.11,0.08 0.238,0.118 0.363,0.118 0.192,0 0.381,-0.089 0.502,-0.256 L 3.869,13.787 C 4.07,13.51 4.008,13.123 3.732,12.922 3.454,12.72 3.068,12.782 2.867,13.059"
       style="fill:#552200" />
    <path
       inkscape:connector-curvature="0"
       id="path39"
       d="m 3.431,19.518 c 0,-2.471 -2,-4.474 -4.473,-4.474 -2.471,0 -4.474,2 -4.474,4.474 0,1.042 0.358,1.999 0.957,2.759 0.525,0.666 1.022,1.393 1.452,2.124 l 0,1.486 4.102,0 0,-1.447 C 1.422,23.729 1.973,22.91 2.472,22.277 3.071,21.517 3.43,20.56 3.43,19.517"
       style="fill:#552200" />
  </g>
</svg>
