<?xml version="1.0" encoding="UTF-8" standalone="no"?>
<svg
   xmlns:dc="http://purl.org/dc/elements/1.1/"
   xmlns:cc="http://creativecommons.org/ns#"
   xmlns:rdf="http://www.w3.org/1999/02/22-rdf-syntax-ns#"
   xmlns:svg="http://www.w3.org/2000/svg"
   xmlns="http://www.w3.org/2000/svg"
   xmlns:sodipodi="http://sodipodi.sourceforge.net/DTD/sodipodi-0.dtd"
   xmlns:inkscape="http://www.inkscape.org/namespaces/inkscape"
   viewBox="0 0 48 48"
   id="svg2"
   version="1.1"
   inkscape:version="0.91 r13725"
   sodipodi:docname="k3d.svg">
  <metadata
     id="metadata21">
    <rdf:RDF>
      <cc:Work
         rdf:about="">
        <dc:format>image/svg+xml</dc:format>
        <dc:type
           rdf:resource="http://purl.org/dc/dcmitype/StillImage" />
        <dc:title></dc:title>
      </cc:Work>
    </rdf:RDF>
  </metadata>
  <sodipodi:namedview
     pagecolor="#ffffff"
     bordercolor="#666666"
     borderopacity="1"
     objecttolerance="10"
     gridtolerance="10"
     guidetolerance="10"
     inkscape:pageopacity="0"
     inkscape:pageshadow="2"
     inkscape:window-width="1280"
     inkscape:window-height="694"
     id="namedview19"
     showgrid="false"
     inkscape:zoom="4.9166667"
     inkscape:cx="-4.4791108"
     inkscape:cy="26.187637"
     inkscape:window-x="0"
     inkscape:window-y="0"
     inkscape:window-maximized="1"
     inkscape:current-layer="svg2" />
  <defs
     id="defs4">
    <linearGradient
       id="0"
       x1="61.57"
       y1="22.939"
       x2="60.753"
       y2="-27.706"
       gradientUnits="userSpaceOnUse">
      <stop
         stop-color="#197cf1"
         id="stop7" />
      <stop
         offset="1"
         stop-color="#21c9fb"
         id="stop9" />
    </linearGradient>
  </defs>
  <g
     id="g4151"
     style="fill:#00aad4;stroke:none"
     transform="matrix(1.3185612,0,0,1.272169,-7.6441667,-6.530912)">
    <path
       d="M 34.769664,16.135607 24.229394,10.05024 c -0.144534,-0.083391 -0.322526,-0.083391 -0.46706,0 l -10.54112,6.084518 c -0.144533,0.08339 -0.23353,0.237606 -0.23353,0.404559 l 10e-4,12.418701 c 0,0.166783 0.089,0.320912 0.233446,0.404389 l 10.53944,6.089613 c 0.07227,0.04178 0.152941,0.06267 0.233615,0.06267 0.08059,0 0.161263,-0.02089 0.23353,-0.06259 l 10.54027,-6.085367 c 0.144534,-0.08339 0.23353,-0.237607 0.23353,-0.404474 l 0,-12.422947 c 0,-0.166868 -0.089,-0.321083 -0.23353,-0.404474 z m -10.7738,-5.141057 9.60615,5.546126 -9.60615,5.546125 -9.607,-5.546125 9.607,-5.545276 m -10.07406,6.354478 9.607,5.546125 -8.5e-5,11.343614 -9.604452,-5.549522 -9.34e-4,-11.340217 m 20.146421,11.344463 -9.607,5.546125 8.5e-5,-11.344463 9.60615,-5.546125 0,11.344463 z"
       id="path15"
       inkscape:connector-curvature="0"
       style="fill:#00aad4;stroke:none;stroke-width:0.63409764;stroke-linecap:round;stroke-linejoin:round" />
    <path
       d="m 41.172632,12.169843 -2.426928,1.401265 C 35.695462,8.6211213 30.224831,5.3134873 23.995949,5.3134873 c -6.228882,0 -11.699428,3.3072094 -14.7497549,8.2576207 l -2.426589,-1.40118 c -0.2233396,-0.128993 -0.5090105,-0.05248 -0.6380039,0.170689 -0.1289935,0.22334 -0.052481,0.509011 0.1706892,0.638004 l 2.424466,1.399906 c -1.3348575,2.453339 -2.0937876,5.263427 -2.0937876,8.247431 0,9.389604 7.5137212,17.057031 16.8447312,17.305847 l 0,2.279252 c 0,0.257987 0.209073,0.46706 0.46706,0.46706 0.257987,0 0.46706,-0.209073 0.46706,-0.46706 l 0,-2.279082 c 9.33101,-0.247967 16.84643,-7.916243 16.84643,-17.305847 0,-2.984089 -0.758845,-5.794092 -2.093703,-8.247431 l 2.424806,-1.399991 c 0.223424,-0.128993 0.299937,-0.414664 0.170689,-0.638004 -0.128994,-0.223339 -0.414325,-0.300107 -0.637919,-0.170689 z m -17.176768,26.83472 c -9.031242,0 -16.3785204,-7.347278 -16.3785204,-16.37852 0,-9.031242 7.3472784,-16.3785206 16.3785204,-16.3785206 9.031242,0 16.37852,7.3472786 16.37852,16.3785206 0,9.031242 -7.347278,16.37852 -16.37852,16.37852 z"
       id="path17"
       inkscape:connector-curvature="0"
       style="fill:#00aad4;stroke:none;stroke-width:0.63409764;stroke-linecap:round;stroke-linejoin:round" />
  </g>
</svg>
