<?xml version="1.0" encoding="UTF-8" standalone="no"?>
<svg
   xmlns:dc="http://purl.org/dc/elements/1.1/"
   xmlns:cc="http://creativecommons.org/ns#"
   xmlns:rdf="http://www.w3.org/1999/02/22-rdf-syntax-ns#"
   xmlns:svg="http://www.w3.org/2000/svg"
   xmlns="http://www.w3.org/2000/svg"
   xmlns:sodipodi="http://sodipodi.sourceforge.net/DTD/sodipodi-0.dtd"
   xmlns:inkscape="http://www.inkscape.org/namespaces/inkscape"
   viewBox="0 0 48 48"
   id="svg2"
   version="1.1"
   inkscape:version="0.91 r13725"
   sodipodi:docname="karbon.svg">
  <metadata
     id="metadata29">
    <rdf:RDF>
      <cc:Work
         rdf:about="">
        <dc:format>image/svg+xml</dc:format>
        <dc:type
           rdf:resource="http://purl.org/dc/dcmitype/StillImage" />
        <dc:title></dc:title>
      </cc:Work>
    </rdf:RDF>
  </metadata>
  <sodipodi:namedview
     pagecolor="#ffffff"
     bordercolor="#666666"
     borderopacity="1"
     objecttolerance="10"
     gridtolerance="10"
     guidetolerance="10"
     inkscape:pageopacity="0"
     inkscape:pageshadow="2"
     inkscape:window-width="1280"
     inkscape:window-height="694"
     id="namedview27"
     showgrid="false"
     inkscape:zoom="4.9166667"
     inkscape:cx="-45.661017"
     inkscape:cy="24"
     inkscape:window-x="0"
     inkscape:window-y="0"
     inkscape:window-maximized="1"
     inkscape:current-layer="svg2" />
  <defs
     id="defs4">
    <linearGradient
       id="0"
       x1="58.688"
       y1="12.344"
       x2="58.1"
       y2="-35.22"
       gradientUnits="userSpaceOnUse"
       gradientTransform="matrix(0.99999,0,0,0.99999,-33.371,35.882)">
      <stop
         stop-color="#95a9bb"
         id="stop7" />
      <stop
         offset="1"
         stop-color="#d1dae3"
         id="stop9" />
    </linearGradient>
  </defs>
  <path
     style="fill:#786721;fill-opacity:1"
     inkscape:connector-curvature="0"
     id="path25"
     d="m 6.0467932,45.771794 15.3537338,0 0,2.002966 5.582591,0 0,-2.002966 15.419504,0 0,2.263448 5.58259,0 0,-5.607655 -2.059783,0 0,-15.683962 1.99401,0 0,-5.607655 -1.99401,0 0,-14.5595175 2.059783,0 0,-5.60765643 -5.58259,0 0,1.14062243 -15.419504,0 0,-2.00296416 -5.582591,0 0,2.00296416 -15.3537338,0 0,-1.40272223 -5.58259001,0 0,5.60765473 1.99401201,0 0,14.821619 -1.99401201,0 0,5.607655 1.99401201,0 0,15.421862 -1.99401201,0 0,5.607655 5.58259001,0 0,-2.002966 m -1.594567,0 0,0.401241 -2.393455,0 0,-2.404205 0.399444,0 1.594568,0 0.399443,0 0,0.401239 0,1.601725 M 22.995095,2.1078005 l 0,-0.4012394 2.393455,0 0,0.4012394 0,0.8380746 0,0.7636502 0,0.401241 -2.393455,0 0,-0.401241 0,-0.7636502 0,-0.8380746 m 2.393455,43.6623755 0,0.401241 -2.393455,0 0,-0.401241 0,-0.838073 0,-0.763652 0,-0.401239 2.393455,0 0,0.401239 0,0.763652 0,0.838073 m 0.266296,-20.929205 c 0.155615,0.156938 0.155615,0.409328 0,0.566266 -0.07859,0.07766 -0.179665,0.11649 -0.282338,0.11649 -0.101068,0 -0.203734,-0.03883 -0.282336,-0.11649 l -0.896747,-0.901172 -0.896742,0.901172 c -0.07862,0.07766 -0.179663,0.11649 -0.282339,0.11649 -0.102662,0 -0.203732,-0.03883 -0.282339,-0.11649 -0.155616,-0.156939 -0.155616,-0.40933 0,-0.566266 l 0.896746,-0.901173 -0.896746,-0.901172 c -0.155616,-0.155321 -0.155616,-0.410949 0,-0.566267 0.155617,-0.155321 0.409072,-0.155321 0.564678,0 l 0.898346,0.901173 0.896746,-0.901173 c 0.155616,-0.155321 0.407464,-0.155321 0.564674,0 0.155616,0.155319 0.155616,0.410947 0,0.566267 l -0.896742,0.901172 0.898347,0.901173 m 20.737403,21.590928 -2.391852,0 0,-0.661723 0,-1.601725 0,-0.13914 0.332068,0 1.594569,0 0.465215,0 0,2.402586 m -3.988023,-4.00593 0,1.740865 -12.49185,0 C 36.87778,42.1849 42.360911,36.675937 44.334068,29.683356 l 0,12.742611 -1.928238,0 m 3.922251,-17.285686 -0.399444,0 -0.834182,0 -0.760387,0 -0.399444,0 0,-2.404205 0.399444,0 0.760387,0 0.834182,0 0.399444,0 0,2.404205 m -2.32608,-22.5713797 1.928241,0 0.465215,0 0,2.4042068 -0.465215,0 -1.594569,0 -0.332068,0 0,-1.2619664 0,-1.1406224 m -1.594568,1.1406224 0,2.8653092 1.928241,0 0,11.6181681 C 42.364119,11.20042 36.879384,5.6930746 29.918792,3.7111417 l 12.49185,0 M 2.0651882,2.3084194 l 0.399445,0 1.99401,0 0,1.4027223 0,1.0014829 -0.399443,0 -1.594567,0 -0.399445,0 0,-2.4042052 m 3.988022,4.00593 0,-2.6032077 12.4244768,0 C 11.515488,5.6946924 6.0323572,11.20042 4.0592002,18.194619 l 0,-11.8786517 1.99401,0 m -3.988022,16.4233447 0.399445,0 0.83418,0 0.760387,0 0.399443,0 0,2.404205 -0.399443,0 -0.760387,0 -0.83418,0 -0.399445,0 0,-2.404205 m 1.994012,6.94728 c 1.974761,6.994199 7.4562878,12.501544 14.4184868,14.483476 l -12.4244768,0 0,-2.002964 -1.99401,0 0,-12.480512" />
</svg>
