<?xml version="1.0" encoding="UTF-8" standalone="no"?>
<svg
   xmlns:dc="http://purl.org/dc/elements/1.1/"
   xmlns:cc="http://creativecommons.org/ns#"
   xmlns:rdf="http://www.w3.org/1999/02/22-rdf-syntax-ns#"
   xmlns:svg="http://www.w3.org/2000/svg"
   xmlns="http://www.w3.org/2000/svg"
   xmlns:sodipodi="http://sodipodi.sourceforge.net/DTD/sodipodi-0.dtd"
   xmlns:inkscape="http://www.inkscape.org/namespaces/inkscape"
   viewBox="0 0 48 48"
   id="svg2"
   version="1.1"
   inkscape:version="0.91 r13725"
   sodipodi:docname="kchart.svg">
  <metadata
     id="metadata29">
    <rdf:RDF>
      <cc:Work
         rdf:about="">
        <dc:format>image/svg+xml</dc:format>
        <dc:type
           rdf:resource="http://purl.org/dc/dcmitype/StillImage" />
        <dc:title></dc:title>
      </cc:Work>
    </rdf:RDF>
  </metadata>
  <sodipodi:namedview
     pagecolor="#ffffff"
     bordercolor="#666666"
     borderopacity="1"
     objecttolerance="10"
     gridtolerance="10"
     guidetolerance="10"
     inkscape:pageopacity="0"
     inkscape:pageshadow="2"
     inkscape:window-width="1280"
     inkscape:window-height="694"
     id="namedview27"
     showgrid="false"
     inkscape:zoom="4.9166667"
     inkscape:cx="-39.559322"
     inkscape:cy="24"
     inkscape:window-x="0"
     inkscape:window-y="0"
     inkscape:window-maximized="1"
     inkscape:current-layer="svg2" />
  <defs
     id="defs4">
    <linearGradient
       id="0"
       x1="-123.97"
       y1="73.5"
       x2="-125.19"
       y2="-26.05"
       gradientUnits="userSpaceOnUse"
       gradientTransform="matrix(0.4778,0,0,0.4778,84.550448,13.103358)">
      <stop
         stop-color="#5dae33"
         id="stop7" />
      <stop
         offset="1"
         stop-color="#9be058"
         id="stop9" />
    </linearGradient>
  </defs>
  <path
     style="fill:#338000;fill-rule:evenodd"
     inkscape:connector-curvature="0"
     id="path25"
     d="m 45.9882,0.22650054 -8.796157,0.005764 c -0.946428,0 -1.706162,0.60966476 -1.705297,1.36747516 l 0.03717,44.7468233 c 8.6e-5,0.756857 0.761464,1.364624 1.707891,1.364624 l 8.793563,-0.0028 c 0.946427,0 1.708755,-0.609666 1.707891,-1.367475 L 47.696091,1.5939757 C 47.696003,0.83711534 46.934627,0.22650054 45.9882,0.22650054 M 28.134863,12.455905 l -8.793562,0.0057 c -0.946428,0 -1.708757,0.609667 -1.707892,1.367475 l 0.03717,32.420554 c 8.5e-5,0.756861 0.761463,1.367475 1.70789,1.367475 l 8.796157,-0.0028 c 0.946427,0 1.706161,-0.609667 1.705297,-1.367475 l -0.03543,-32.420555 c -8.6e-5,-0.75686 -0.764058,-1.367474 -1.710485,-1.367474 M 10.9315,24.87054 2.137937,24.87334 c -0.9464272,0 -1.70702642,0.609666 -1.70529887,1.367475 L 0.46548869,46.3351 c 8.684e-5,0.75686 0.76405611,1.367475 1.71048331,1.367475 l 8.796157,-0.0028 c 0.946427,0 1.707026,-0.609667 1.705297,-1.367475 l -0.03544,-20.094286 c -8.7e-5,-0.75686 -0.764057,-1.367475 -1.710484,-1.367475" />
</svg>
