<?xml version="1.0" encoding="UTF-8" standalone="no"?>
<svg
   xmlns:dc="http://purl.org/dc/elements/1.1/"
   xmlns:cc="http://creativecommons.org/ns#"
   xmlns:rdf="http://www.w3.org/1999/02/22-rdf-syntax-ns#"
   xmlns:svg="http://www.w3.org/2000/svg"
   xmlns="http://www.w3.org/2000/svg"
   xmlns:sodipodi="http://sodipodi.sourceforge.net/DTD/sodipodi-0.dtd"
   xmlns:inkscape="http://www.inkscape.org/namespaces/inkscape"
   viewBox="0 0 48 48"
   id="svg2"
   version="1.1"
   inkscape:version="0.91 r13725"
   sodipodi:docname="kde-services.svg">
  <metadata
     id="metadata19">
    <rdf:RDF>
      <cc:Work
         rdf:about="">
        <dc:format>image/svg+xml</dc:format>
        <dc:type
           rdf:resource="http://purl.org/dc/dcmitype/StillImage" />
        <dc:title></dc:title>
      </cc:Work>
    </rdf:RDF>
  </metadata>
  <sodipodi:namedview
     pagecolor="#ffffff"
     bordercolor="#666666"
     borderopacity="1"
     objecttolerance="10"
     gridtolerance="10"
     guidetolerance="10"
     inkscape:pageopacity="0"
     inkscape:pageshadow="2"
     inkscape:window-width="1280"
     inkscape:window-height="694"
     id="namedview17"
     showgrid="false"
     inkscape:zoom="4.9166667"
     inkscape:cx="-9.1525424"
     inkscape:cy="24"
     inkscape:window-x="0"
     inkscape:window-y="0"
     inkscape:window-maximized="1"
     inkscape:current-layer="svg2" />
  <defs
     id="defs4">
    <linearGradient
       id="0"
       gradientUnits="userSpaceOnUse"
       y1="27.13"
       x2="0"
       y2="-20.875"
       gradientTransform="matrix(0.99999,0,0,0.99999,-43.37,20.882)">
      <stop
         stop-color="#0973d9"
         id="stop7" />
      <stop
         offset="1"
         stop-color="#0cbffe"
         id="stop9" />
    </linearGradient>
  </defs>
  <path
     style="fill:#00aad4;fill-opacity:0.86100003;fill-rule:evenodd;stroke-width:1.31700003"
     inkscape:connector-curvature="0"
     id="path15"
     d="m 47.669714,21.361177 c -0.07528,-0.668921 -0.852185,-1.172393 -1.523991,-1.172393 -2.173071,0 -4.101848,-1.28079 -4.910002,-3.263304 -0.82662,-2.029579 -0.294004,-4.397185 1.326566,-5.889062 0.509892,-0.467816 0.572385,-1.2508387 0.144872,-1.7956731 C 41.595058,7.8230339 40.330985,6.5408183 38.950446,5.4311816 38.409309,4.9961696 37.616777,5.0560735 37.148075,5.5766611 35.734869,7.1484092 33.195359,7.7331795 31.233914,6.9102228 29.192932,6.0473301 27.904714,3.9706824 28.031121,1.7399982 28.072311,1.0397002 27.56242,0.43068339 26.86789,0.34938611 25.096765,0.14400349 23.310019,0.13687209 21.533213,0.34796011 20.845785,0.42355311 20.335895,1.0183064 20.35862,1.7100469 20.435317,3.9179108 19.132895,5.9589009 17.111796,6.7904154 15.173077,7.5848475 12.652031,7.0057823 11.241666,5.448297 10.775805,4.9348394 9.994636,4.8720844 9.4520774,5.2971125 8.0317698,6.4167332 6.737871,7.6989487 5.6158267,9.1052495 5.1783732,9.6515102 5.2422863,10.444516 5.7578588,10.915185 c 1.6503983,1.500435 2.1830134,3.888008 1.3265678,5.941836 -0.8180968,1.95684 -2.8406151,3.219087 -5.1599772,3.219087 -0.7513427,-0.02424 -1.28679864,0.482079 -1.36917644,1.16954 -0.20878532,1.788542 -0.21162582,3.611313 -0.009942,5.415544 0.0738553,0.671771 0.87490953,1.170966 1.55523683,1.170966 2.0651272,-0.05278 4.047877,1.230869 4.8787567,3.263303 0.8294594,2.02958 0.295424,4.395759 -1.3265678,5.887637 -0.5070491,0.467816 -0.5723839,1.250837 -0.1448713,1.794247 1.1021583,1.409152 2.3662333,2.691367 3.7510328,3.810989 0.5439775,0.439291 1.3336683,0.377962 1.8052103,-0.144053 1.418888,-1.576026 3.956977,-2.15937 5.91132,-1.334988 2.046664,0.86004 3.334882,2.936687 3.208475,5.1688 -0.04119,0.700297 0.471543,1.310738 1.163232,1.39061 0.906156,0.105542 1.817994,0.159743 2.731251,0.159743 0.867808,0 1.735616,-0.0485 2.603424,-0.145479 0.687429,-0.0756 1.19732,-0.670348 1.174595,-1.363515 -0.07954,-2.206436 1.225724,-4.247428 3.243982,-5.077516 1.951502,-0.800136 4.462607,-0.213941 5.872972,1.342118 0.468701,0.512033 1.244189,0.57336 1.789587,0.149759 1.418887,-1.116768 2.708527,-2.397557 3.83625,-3.808137 0.437455,-0.54626 0.376382,-1.339266 -0.142031,-1.809935 -1.650397,-1.500434 -2.185854,-3.889435 -1.327989,-5.940409 0.806737,-1.931168 2.755397,-3.227647 4.850351,-3.227647 l 0.292583,0.0072 c 0.680327,0.05562 1.305263,-0.470669 1.387641,-1.166688 0.208785,-1.789967 0.211627,-3.611312 0.0099,-5.415542 M 24.143739,32.009739 c -4.361764,0 -7.909692,-3.562819 -7.909692,-7.942891 0,-4.380071 3.547928,-7.94289 7.909692,-7.94289 4.361764,0 7.909692,3.562819 7.909692,7.94289 0,4.380072 -3.547928,7.942891 -7.909692,7.942891" />
</svg>
