<?xml version="1.0" encoding="UTF-8" standalone="no"?>
<svg
   xmlns:dc="http://purl.org/dc/elements/1.1/"
   xmlns:cc="http://creativecommons.org/ns#"
   xmlns:rdf="http://www.w3.org/1999/02/22-rdf-syntax-ns#"
   xmlns:svg="http://www.w3.org/2000/svg"
   xmlns="http://www.w3.org/2000/svg"
   xmlns:sodipodi="http://sodipodi.sourceforge.net/DTD/sodipodi-0.dtd"
   xmlns:inkscape="http://www.inkscape.org/namespaces/inkscape"
   viewBox="0 0 48 48"
   id="svg2"
   version="1.1"
   inkscape:version="0.91 r13725"
   sodipodi:docname="kdiff3.svg">
  <metadata
     id="metadata37">
    <rdf:RDF>
      <cc:Work
         rdf:about="">
        <dc:format>image/svg+xml</dc:format>
        <dc:type
           rdf:resource="http://purl.org/dc/dcmitype/StillImage" />
        <dc:title></dc:title>
      </cc:Work>
    </rdf:RDF>
  </metadata>
  <sodipodi:namedview
     pagecolor="#ffffff"
     bordercolor="#666666"
     borderopacity="1"
     objecttolerance="10"
     gridtolerance="10"
     guidetolerance="10"
     inkscape:pageopacity="0"
     inkscape:pageshadow="2"
     inkscape:window-width="1280"
     inkscape:window-height="694"
     id="namedview35"
     showgrid="false"
     inkscape:zoom="4.9166667"
     inkscape:cx="-14.675819"
     inkscape:cy="24"
     inkscape:window-x="0"
     inkscape:window-y="0"
     inkscape:window-maximized="1"
     inkscape:current-layer="svg2" />
  <defs
     id="defs4">
    <linearGradient
       gradientTransform="matrix(0.3982443,0,0,0.3937173,448.88849,-41.03282)"
       id="0"
       x1="-1092.91"
       y1="203.1"
       x2="-1060.26"
       y2="104.85"
       gradientUnits="userSpaceOnUse">
      <stop
         stop-color="#1365f4"
         id="stop7" />
      <stop
         offset="1"
         stop-color="#05b2fc"
         id="stop9" />
    </linearGradient>
    <linearGradient
       id="1"
       x1="-989.67"
       y1="433.28"
       x2="-1003.64"
       y2="317.35"
       gradientUnits="userSpaceOnUse"
       gradientTransform="matrix(0.35516701,0,0,0.34747522,376.40311,-103.79629)">
      <stop
         stop-color="#d5dbff"
         id="stop12" />
      <stop
         offset="1"
         stop-color="#f9ffff"
         id="stop14" />
    </linearGradient>
    <linearGradient
       id="2"
       x1="-1092.91"
       y1="203.1"
       x2="-1060.26"
       y2="104.85"
       gradientUnits="userSpaceOnUse"
       gradientTransform="matrix(0.35886709,0,0,0.35173768,392.52047,-30.061338)">
      <stop
         stop-color="#ffce69"
         id="stop17" />
      <stop
         offset="1"
         stop-color="#ffce54"
         id="stop19" />
    </linearGradient>
  </defs>
  <rect
     style="fill:#0066ff"
     id="rect27"
     rx="1.4398235"
     width="46.708035"
     height="46.720596"
     x="0.23709433"
     y="1.3371811"
     transform="matrix(0.99963241,-0.02711173,0.02135904,0.99977187,0,0)" />
  <g
     style="fill:#d5e5ff;fill-opacity:1"
     id="g29"
     transform="matrix(1.1491972,0,0,1.8211823,-35.674949,27.437835)">
    <path
       inkscape:connector-curvature="0"
       id="path31"
       d="m 62.24,-2.28 c -4.51,0.155 -8.306,2.947 -9.959,6.845 -0.051,0.118 -0.046,0.254 0.013,0.371 1.917,3.775 5.896,6.3 10.405,6.145 4.51,-0.155 8.306,-2.947 9.959,-6.845 C 72.709,4.118 72.704,3.982 72.645,3.865 70.728,0.09 66.749,-2.435 62.24,-2.28 m 0.388,11.29 c -2.547,0.087 -4.68,-1.906 -4.767,-4.45 -0.087,-2.547 1.906,-4.68 4.45,-4.767 2.547,-0.087 4.68,1.906 4.767,4.45 0.087,2.545 -1.906,4.68 -4.45,4.767 z"
       style="fill:#d5e5ff;fill-opacity:1" />
    <circle
       id="circle33"
       transform="matrix(0.99941,-0.03433,0.03433,0.99941,0,0)"
       r="2.9519999"
       cy="6.5409999"
       cx="62.279999"
       style="fill:#d5e5ff;fill-opacity:1" />
  </g>
</svg>
