<?xml version="1.0" encoding="UTF-8" standalone="no"?>
<svg
   xmlns:dc="http://purl.org/dc/elements/1.1/"
   xmlns:cc="http://creativecommons.org/ns#"
   xmlns:rdf="http://www.w3.org/1999/02/22-rdf-syntax-ns#"
   xmlns:svg="http://www.w3.org/2000/svg"
   xmlns="http://www.w3.org/2000/svg"
   xmlns:sodipodi="http://sodipodi.sourceforge.net/DTD/sodipodi-0.dtd"
   xmlns:inkscape="http://www.inkscape.org/namespaces/inkscape"
   viewBox="0 0 48 48"
   id="svg2"
   version="1.1"
   inkscape:version="0.91 r13725"
   sodipodi:docname="kipi-metadataedit.svg">
  <metadata
     id="metadata24">
    <rdf:RDF>
      <cc:Work
         rdf:about="">
        <dc:format>image/svg+xml</dc:format>
        <dc:type
           rdf:resource="http://purl.org/dc/dcmitype/StillImage" />
        <dc:title></dc:title>
      </cc:Work>
    </rdf:RDF>
  </metadata>
  <sodipodi:namedview
     pagecolor="#ffffff"
     bordercolor="#666666"
     borderopacity="1"
     objecttolerance="10"
     gridtolerance="10"
     guidetolerance="10"
     inkscape:pageopacity="0"
     inkscape:pageshadow="2"
     inkscape:window-width="1280"
     inkscape:window-height="694"
     id="namedview22"
     showgrid="false"
     inkscape:zoom="4.9166667"
     inkscape:cx="-6.4067797"
     inkscape:cy="24"
     inkscape:window-x="0"
     inkscape:window-y="0"
     inkscape:window-maximized="1"
     inkscape:current-layer="svg2" />
  <defs
     id="defs4">
    <linearGradient
       id="0"
       gradientUnits="userSpaceOnUse"
       x1="3.147"
       x2="18.772">
      <stop
         stop-color="#e6f3ff"
         id="stop7" />
      <stop
         offset="1"
         stop-color="#dcffe7"
         id="stop9" />
    </linearGradient>
    <linearGradient
       id="1"
       x1="409.57"
       y1="542.8"
       x2="409.94"
       y2="501.23"
       gradientUnits="userSpaceOnUse"
       gradientTransform="matrix(1.0909108,0,0,1.0652853,-421.70943,-535.05257)">
      <stop
         stop-color="#197cf1"
         id="stop12" />
      <stop
         offset="1"
         stop-color="#20bcfa"
         id="stop14" />
    </linearGradient>
  </defs>
  <path
     style="fill:#2a7fff;fill-opacity:1"
     inkscape:connector-curvature="0"
     id="path20"
     d="M 47.421273,19.975696 C 47.256411,19.75699 47.043131,19.626772 46.774272,19.585407 l -5.637737,-0.873651 c -0.308188,-0.998514 -0.729439,-2.01771 -1.263376,-3.05797 0.369446,-0.520131 0.923802,-1.253218 1.663074,-2.200024 0.739269,-0.946807 1.262998,-1.638145 1.571183,-2.075162 0.164484,-0.22904 0.246171,-0.468041 0.246171,-0.717764 0,-0.29109 -0.07147,-0.519749 -0.215548,-0.686358 C 42.39877,8.9131509 40.704312,7.1451649 38.054661,4.6693738 37.808868,4.4613852 37.551732,4.3576004 37.285139,4.3576004 c -0.308185,0 -0.554734,0.093467 -0.739647,0.2803645 L 32.171133,7.9770673 C 31.328628,7.5400503 30.404448,7.1551241 29.39821,6.82037 L 28.535666,1.0790144 C 28.515212,0.80860897 28.39688,0.5849284 28.181344,0.40797714 27.965418,0.23101686 27.714336,0.14293302 27.426192,0.14293302 l -6.840609,0 c -0.595575,0 -0.965399,0.2910894 -1.109093,0.87365098 -0.266971,1.0398775 -0.564945,2.974475 -0.893552,5.8026375 -0.965402,0.3125391 -1.898278,0.7078074 -2.803554,1.1861901 L 11.527927,4.6663092 C 11.260957,4.4583431 10.99399,4.3545358 10.72702,4.3545358 c -0.45188,0 -1.4221964,0.7434291 -2.9113246,2.2310481 C 6.3265673,8.0732031 5.3154134,9.1912165 4.779206,9.9400069 4.5942916,10.210412 4.5020278,10.449796 4.5020278,10.657771 c 0,0.249724 0.1024837,0.49945 0.3078076,0.748791 1.3760631,1.685254 2.474948,3.1204 3.2966523,4.306589 -0.5135188,0.956766 -0.9139726,1.913914 -1.2013614,2.87068 l -5.7288685,0.873651 c -0.22574995,0.04174 -0.42087269,0.176961 -0.58536385,0.405993 -0.16448448,0.228657 -0.2465511,0.46804 -0.2465511,0.717381 l 0,6.928694 c 0,0.27079 0.0820532,0.514768 0.2465511,0.733084 0.16448448,0.218708 0.37814314,0.34931 0.64700265,0.390674 l 5.6381142,0.842627 c 0.2873888,1.019195 0.7082615,2.048733 1.2629981,3.08708 -0.3694465,0.520131 -0.9241831,1.253218 -1.6634519,2.200025 -0.7392709,0.946805 -1.263376,1.638142 -1.5711858,2.07516 -0.1644845,0.229422 -0.2465489,0.468042 -0.2465489,0.717765 0,0.270408 0.07185,0.509406 0.2155483,0.717381 0.8009076,1.12376 2.4953668,2.871445 5.0833775,5.242674 0.2261299,0.229042 0.4828899,0.34318 0.7702779,0.34318 0.308188,0 0.564948,-0.09347 0.770279,-0.280366 l 4.344108,-3.339484 c 0.842502,0.437017 1.766685,0.821944 2.772923,1.156698 l 0.862544,5.741355 c 0.0209,0.270405 0.138786,0.494087 0.354322,0.671038 0.215548,0.177343 0.467383,0.265044 0.754771,0.265044 l 6.840611,0 c 0.596332,0 0.965778,-0.291089 1.10985,-0.873651 0.26659,-1.040263 0.564189,-2.974475 0.892796,-5.802638 0.965399,-0.312155 1.902059,-0.707807 2.803553,-1.18619 l 4.251843,3.370509 c 0.287388,0.186913 0.554734,0.280364 0.800906,0.280364 0.451503,0 1.416902,-0.738062 2.895441,-2.215342 1.479295,-1.476896 2.495744,-2.600653 3.047834,-3.370509 0.184914,-0.207966 0.277558,-0.446976 0.277558,-0.717381 0,-0.270408 -0.102481,-0.531239 -0.308188,-0.780197 -1.478539,-1.830799 -2.577421,-3.265948 -3.296652,-4.306207 0.410665,-0.769856 0.811497,-1.716279 1.20174,-2.839656 l 5.698617,-0.873268 c 0.246171,-0.04175 0.45226,-0.177344 0.616373,-0.406376 0.164106,-0.229042 0.245793,-0.468424 0.245793,-0.717765 l 0,-6.928694 c 0,-0.270407 -0.08129,-0.514386 -0.246171,-0.733087 m -17.837011,9.78252 c -1.540177,1.560393 -3.399129,2.34059 -5.576479,2.34059 -2.177345,0 -4.035921,-0.780197 -5.576474,-2.34059 -1.54018,-1.560009 -2.310455,-3.442514 -2.310455,-5.647899 0,-2.205386 0.769897,-4.087891 2.310455,-5.648285 1.540553,-1.560009 3.399507,-2.340205 5.576474,-2.340205 2.17735,0 4.036302,0.780196 5.576479,2.340205 1.540175,1.560394 2.310453,3.442899 2.310453,5.648285 0,2.205385 -0.770278,4.08789 -2.310453,5.647899" />
</svg>
