<?xml version="1.0" encoding="UTF-8" standalone="no"?>
<svg
   xmlns:dc="http://purl.org/dc/elements/1.1/"
   xmlns:cc="http://creativecommons.org/ns#"
   xmlns:rdf="http://www.w3.org/1999/02/22-rdf-syntax-ns#"
   xmlns:svg="http://www.w3.org/2000/svg"
   xmlns="http://www.w3.org/2000/svg"
   xmlns:sodipodi="http://sodipodi.sourceforge.net/DTD/sodipodi-0.dtd"
   xmlns:inkscape="http://www.inkscape.org/namespaces/inkscape"
   viewBox="0 0 48 48"
   id="svg2"
   version="1.1"
   inkscape:version="0.91 r13725"
   sodipodi:docname="kipi-dngconverter.svg">
  <metadata
     id="metadata25">
    <rdf:RDF>
      <cc:Work
         rdf:about="">
        <dc:format>image/svg+xml</dc:format>
        <dc:type
           rdf:resource="http://purl.org/dc/dcmitype/StillImage" />
        <dc:title></dc:title>
      </cc:Work>
    </rdf:RDF>
  </metadata>
  <sodipodi:namedview
     pagecolor="#ffffff"
     bordercolor="#666666"
     borderopacity="1"
     objecttolerance="10"
     gridtolerance="10"
     guidetolerance="10"
     inkscape:pageopacity="0"
     inkscape:pageshadow="2"
     inkscape:window-width="1280"
     inkscape:window-height="694"
     id="namedview23"
     showgrid="false"
     inkscape:zoom="4.9166667"
     inkscape:cx="-6.4067797"
     inkscape:cy="24"
     inkscape:window-x="0"
     inkscape:window-y="0"
     inkscape:window-maximized="1"
     inkscape:current-layer="svg2" />
  <defs
     id="defs4">
    <linearGradient
       gradientTransform="matrix(1.0909009,0,0,1.0652712,-421.70793,-535.04634)"
       gradientUnits="userSpaceOnUse"
       y2="507.8"
       x2="0"
       y1="542.8"
       id="0">
      <stop
         stop-color="#c52828"
         id="stop7" />
      <stop
         offset="1"
         stop-color="#ff5454"
         id="stop9" />
    </linearGradient>
  </defs>
  <g
     style="fill:#ff2a2a;fill-opacity:0.85100002"
     id="g15"
     transform="matrix(0.12746658,0,0,0.37735248,6.1394991,-12.61249)">
    <path
       inkscape:connector-curvature="0"
       id="path17"
       d="m 6.727,58.45 c 49.79,0 47.671,79.1 0,79.1 l -29.31,0 0,-79.1 29.31,0 m 1.589,100.64 c 77.33,0 79.1,-122.18 -1.589,-122.18 l -40.43,0 c -5.826,0 -12.183,4.591 -12.183,10.947 l 0,100.29 c 0,7.769 6.356,10.947 12.183,10.947 l 42.02,0"
       style="fill:#ff2a2a" />
    <path
       inkscape:connector-curvature="0"
       id="path19"
       d="m 87.74,146.9 c 0,7.769 5.65,12.183 12.01,12.183 6.356,0 11.123,-4.414 11.123,-12.183 l 0,-68.15 58.44,74.16 c 5.12,4.767 8.122,6.18 14.301,6.18 4.591,-1.412 9.358,-4.414 9.358,-12.183 l 0,-99.4 c 0,-5.826 -6.18,-12.183 -12.536,-12.183 -6,0 -11.123,6.356 -11.123,12.183 l 0,68.51 -58.44,-73.1 c -4.767,-4.591 -6.18,-6.18 -12.536,-6.18 -9.181,0 -10.594,6.18 -10.594,12.536 l 0,97.64"
       style="fill:#ff2a2a" />
    <path
       inkscape:connector-curvature="0"
       id="path21"
       d="m 326.16,135.96 0,-37.607 c 0,-5.473 -6,-10.417 -12.536,-10.417 l -35.31,0 c -14.12,0 -15.714,21.54 0,21.54 l 26.484,0 0,21.717 c -6.533,4.767 -15.714,7.945 -26.484,7.945 -23.13,0 -40.43,-15.89 -40.43,-42.02 0,-24.895 20.658,-42.02 42.02,-42.02 9.181,0 18.362,4.767 24.895,11.123 10.594,9.358 26.13,-6.356 15.361,-16.95 -10.947,-10.77 -26.307,-15.537 -40.26,-15.537 -37.25,0 -64.974,27.72 -64.974,63.39 0,42.02 26.307,63.21 63.39,63.21 15.537,0 30.898,-4.414 43.43,-14.831 3,-3.355 4.414,-6.356 4.414,-9.534"
       style="fill:#ff2a2a" />
  </g>
</svg>
