<?xml version="1.0" encoding="UTF-8" standalone="no"?>
<svg
   xmlns:dc="http://purl.org/dc/elements/1.1/"
   xmlns:cc="http://creativecommons.org/ns#"
   xmlns:rdf="http://www.w3.org/1999/02/22-rdf-syntax-ns#"
   xmlns:svg="http://www.w3.org/2000/svg"
   xmlns="http://www.w3.org/2000/svg"
   xmlns:sodipodi="http://sodipodi.sourceforge.net/DTD/sodipodi-0.dtd"
   xmlns:inkscape="http://www.inkscape.org/namespaces/inkscape"
   viewBox="0 0 48 48"
   id="svg2"
   version="1.1"
   inkscape:version="0.91 r13725"
   sodipodi:docname="kipi-hq.svg">
  <metadata
     id="metadata31">
    <rdf:RDF>
      <cc:Work
         rdf:about="">
        <dc:format>image/svg+xml</dc:format>
        <dc:type
           rdf:resource="http://purl.org/dc/dcmitype/StillImage" />
        <dc:title></dc:title>
      </cc:Work>
    </rdf:RDF>
  </metadata>
  <sodipodi:namedview
     pagecolor="#ffffff"
     bordercolor="#666666"
     borderopacity="1"
     objecttolerance="10"
     gridtolerance="10"
     guidetolerance="10"
     inkscape:pageopacity="0"
     inkscape:pageshadow="2"
     inkscape:window-width="1280"
     inkscape:window-height="694"
     id="namedview29"
     showgrid="false"
     inkscape:zoom="4.9166667"
     inkscape:cx="-9.1525424"
     inkscape:cy="24"
     inkscape:window-x="0"
     inkscape:window-y="0"
     inkscape:window-maximized="1"
     inkscape:current-layer="svg2" />
  <defs
     id="defs4">
    <filter
       color-interpolation-filters="sRGB"
       id="filter6">
      <feGaussianBlur
         stdDeviation="1.71"
         id="feGaussianBlur8" />
    </filter>
    <linearGradient
       gradientTransform="scale(1.0059.99417)"
       gradientUnits="userSpaceOnUse"
       y2="7.02"
       x2="0"
       y1="92.54"
       id="linearGradient10">
      <stop
         id="stop12" />
      <stop
         offset="1"
         stop-opacity=".588"
         id="stop14" />
    </linearGradient>
    <linearGradient
       gradientUnits="userSpaceOnUse"
       y2="-26.05"
       x2="-125.19"
       y1="73.5"
       x1="-123.97"
       id="0"
       gradientTransform="matrix(1.03458 0 0 1 4.382 0)">
      <stop
         stop-color="#5dae33"
         id="stop17" />
      <stop
         offset="1"
         stop-color="#9be058"
         id="stop19" />
    </linearGradient>
  </defs>
  <g
     id="g4161"
     style="fill:#8dd35f"
     transform="matrix(1.2461944,0,0,2.4457412,-5.9084731,-34.698248)">
    <path
       d="m 6.8658672,33.023414 c 0.920724,0 1.6046904,-0.710273 1.6046904,-1.630997 l 0,-5.761102 8.5758864,0 0,5.761102 c 0,0.920724 0.841805,1.630997 1.788835,1.630997 0.920724,0 1.630997,-0.710273 1.630997,-1.630997 l 0,-14.942035 c 0,-0.947031 -0.710273,-1.630997 -1.630997,-1.630997 -0.94703,0 -1.788835,0.683966 -1.788835,1.630997 l 0,5.734795 -8.5758864,0 0,-5.734795 c 0,-0.947031 -0.6839664,-1.630997 -1.6046904,-1.630997 -1.183788,0 -1.8677544,0.683966 -1.8677544,1.630997 l 0,14.942035 c 0,0.920724 0.6839664,1.630997 1.8677544,1.630997"
       id="path25"
       inkscape:connector-curvature="0"
       style="fill:#8dd35f" />
    <path
       d="m 43.000338,24.052931 c 0,-6.471374 -4.787765,-9.759674 -9.680755,-9.759674 -4.656233,0 -9.917513,3.2883 -9.917513,9.759674 0,6.471375 5.287587,9.654449 9.917513,9.654449 2.130818,0 3.735509,-0.447209 5.103442,-1.394239 l 0.894417,0.710273 c 1.762529,1.657303 4.024879,-0.920724 2.288657,-2.499108 l -0.420902,-0.499822 c 1.183788,-1.630997 1.815141,-3.472445 1.815141,-5.971553 m -4.340556,3.419832 -2.972623,-2.972623 c -1.762529,-1.552078 -3.972266,0.841805 -2.578027,2.525414 l 2.998929,2.762172 c -0.920724,0.236758 -1.841448,0.473516 -2.788478,0.473516 -3.709202,0 -6.418762,-3.025236 -6.418762,-6.208311 0,-4.182717 3.183075,-6.313536 6.418762,-6.313536 2.99893,0 6.28723,2.130819 6.28723,6.313536 0,1.367933 -0.289371,2.499108 -0.947031,3.419832"
       id="path27"
       inkscape:connector-curvature="0"
       style="fill:#8dd35f" />
  </g>
</svg>
