<?xml version="1.0" encoding="UTF-8" standalone="no"?>
<svg
   xmlns:dc="http://purl.org/dc/elements/1.1/"
   xmlns:cc="http://creativecommons.org/ns#"
   xmlns:rdf="http://www.w3.org/1999/02/22-rdf-syntax-ns#"
   xmlns:svg="http://www.w3.org/2000/svg"
   xmlns="http://www.w3.org/2000/svg"
   xmlns:sodipodi="http://sodipodi.sourceforge.net/DTD/sodipodi-0.dtd"
   xmlns:inkscape="http://www.inkscape.org/namespaces/inkscape"
   viewBox="0 0 48 48"
   id="svg2"
   version="1.1"
   inkscape:version="0.91 r13725"
   sodipodi:docname="kipi-ogl.svg">
  <metadata
     id="metadata27">
    <rdf:RDF>
      <cc:Work
         rdf:about="">
        <dc:format>image/svg+xml</dc:format>
        <dc:type
           rdf:resource="http://purl.org/dc/dcmitype/StillImage" />
        <dc:title></dc:title>
      </cc:Work>
    </rdf:RDF>
  </metadata>
  <sodipodi:namedview
     pagecolor="#ffffff"
     bordercolor="#666666"
     borderopacity="1"
     objecttolerance="10"
     gridtolerance="10"
     guidetolerance="10"
     inkscape:pageopacity="0"
     inkscape:pageshadow="2"
     inkscape:window-width="1280"
     inkscape:window-height="694"
     id="namedview25"
     showgrid="false"
     inkscape:zoom="4.9166667"
     inkscape:cx="-9.1525424"
     inkscape:cy="24"
     inkscape:window-x="0"
     inkscape:window-y="0"
     inkscape:window-maximized="1"
     inkscape:current-layer="svg2" />
  <defs
     id="defs4">
    <linearGradient
       gradientUnits="userSpaceOnUse"
       x2="47"
       x1="0"
       id="linearGradient6">
      <stop
         stop-color="#a9a3d4"
         id="stop8" />
      <stop
         offset=".47"
         stop-color="#87baff"
         id="stop10" />
      <stop
         offset="1"
         stop-color="#89ec85"
         id="stop12" />
    </linearGradient>
    <linearGradient
       y2="500.8"
       x2="0"
       y1="546.8"
       gradientUnits="userSpaceOnUse"
       id="0"
       gradientTransform="matrix(1.04348,0,0,1.04348,-402.33,-522.581)">
      <stop
         stop-color="#97a9b1"
         id="stop15" />
      <stop
         offset="1"
         stop-color="#cfdce1"
         id="stop17" />
    </linearGradient>
  </defs>
  <path
     style="fill:#cccccc;fill-opacity:0.847;fill-rule:evenodd;stroke-width:1.31700003"
     inkscape:connector-curvature="0"
     id="path23"
     d="m 47.661213,21.464458 c -0.075,-0.666653 -0.852292,-1.167614 -1.524422,-1.167614 -2.173078,0 -4.100881,-1.275957 -4.910118,-3.249273 -0.826174,-2.021134 -0.293449,-4.378242 1.326082,-5.863654 0.509787,-0.466023 0.571723,-1.2457854 0.144166,-1.788036 C 41.584706,7.9842277 40.320563,6.7077403 38.940309,5.6020626 38.399817,5.1683319 37.606816,5.2286801 37.138142,5.7476393 35.724715,7.3129864 33.185838,7.8947636 31.223979,7.0761816 29.182361,6.2173672 27.894923,4.1485888 28.021267,1.9271757 28.062741,1.2296425 27.552948,0.62316093 26.857527,0.54216725 25.085889,0.33730113 23.300134,0.33094874 21.523204,0.52804959 20.835723,0.60392567 20.325936,1.1961146 20.349052,1.884825 20.426345,4.0836515 19.123376,6.1162556 17.102049,6.9441903 15.163659,7.7359515 12.642958,7.1591154 11.231295,5.6077084 10.765091,5.0966886 9.9855006,5.0338706 9.4418343,5.4571905 8.0213479,6.5722195 6.7280876,7.8490604 5.6056381,9.2497734 5.1678465,9.7943191 5.2322529,10.583609 5.7471566,11.052101 c 1.6504102,1.494588 2.1833134,3.872166 1.3259046,5.916593 -0.8185879,1.949846 -2.8427369,3.204453 -5.1596303,3.204453 -0.7518874,-0.02418 -1.28743719,0.480492 -1.36966654,1.164085 -0.20857331,1.782212 -0.21104378,3.596716 -0.0102401,5.392692 0.0744648,0.669477 0.87540784,1.166026 1.55494724,1.166026 2.0649109,-0.05276 4.0474155,1.225668 4.8790616,3.24945 0.8290002,2.021133 0.2960969,4.37683 -1.3259044,5.863655 -0.5073165,0.466023 -0.5717242,1.245783 -0.1441659,1.7868 1.1018039,1.403361 2.3661242,2.680377 3.7513191,3.79523 0.543314,0.437788 1.3338451,0.376029 1.8048121,-0.14293 1.418721,-1.56923 3.957421,-2.149949 5.911517,-1.329777 2.046736,0.856167 3.334173,2.924769 3.208006,5.147241 -0.04112,0.697886 0.471143,1.305426 1.16374,1.385185 0.906112,0.105695 1.817693,0.158457 2.731746,0.158457 0.867644,0 1.735464,-0.04765 2.603107,-0.144165 0.687656,-0.07587 1.19709,-0.668065 1.173974,-1.35801 -0.07957,-2.197592 1.225678,-4.230195 3.244356,-5.056719 1.951625,-0.797055 4.461915,-0.213688 5.872522,1.33613 0.468847,0.50996 1.244027,0.571543 1.789635,0.149635 1.418722,-1.112383 2.708453,-2.388164 3.836195,-3.792758 0.437616,-0.543311 0.375855,-1.333838 -0.141689,-1.802154 -1.650411,-1.494587 -2.185962,-3.872518 -1.328551,-5.915532 0.806059,-1.923202 2.754859,-3.214511 4.851004,-3.214511 l 0.293272,0.0075 c 0.679893,0.05523 1.305437,-0.468492 1.387843,-1.162497 0.208926,-1.782213 0.211395,-3.596716 0.01071,-5.392692 M 24.135552,32.056211 c -4.361689,0 -7.909552,-3.548544 -7.909552,-7.909493 0,-4.361479 3.548569,-7.909494 7.909552,-7.909494 4.36151,0 7.909373,3.548543 7.909373,7.909494 0,4.361655 -3.548569,7.909493 -7.909373,7.909493" />
</svg>
