<?xml version="1.0" encoding="UTF-8" standalone="no"?>
<svg
   xmlns:dc="http://purl.org/dc/elements/1.1/"
   xmlns:cc="http://creativecommons.org/ns#"
   xmlns:rdf="http://www.w3.org/1999/02/22-rdf-syntax-ns#"
   xmlns:svg="http://www.w3.org/2000/svg"
   xmlns="http://www.w3.org/2000/svg"
   xmlns:sodipodi="http://sodipodi.sourceforge.net/DTD/sodipodi-0.dtd"
   xmlns:inkscape="http://www.inkscape.org/namespaces/inkscape"
   viewBox="0 0 48 48"
   id="svg2"
   version="1.1"
   inkscape:version="0.91 r13725"
   sodipodi:docname="knemo.svg">
  <metadata
     id="metadata24">
    <rdf:RDF>
      <cc:Work
         rdf:about="">
        <dc:format>image/svg+xml</dc:format>
        <dc:type
           rdf:resource="http://purl.org/dc/dcmitype/StillImage" />
        <dc:title></dc:title>
      </cc:Work>
    </rdf:RDF>
  </metadata>
  <sodipodi:namedview
     pagecolor="#ffffff"
     bordercolor="#666666"
     borderopacity="1"
     objecttolerance="10"
     gridtolerance="10"
     guidetolerance="10"
     inkscape:pageopacity="0"
     inkscape:pageshadow="2"
     inkscape:window-width="1280"
     inkscape:window-height="694"
     id="namedview22"
     showgrid="false"
     inkscape:zoom="4.9166667"
     inkscape:cx="-9.1525424"
     inkscape:cy="24"
     inkscape:window-x="0"
     inkscape:window-y="0"
     inkscape:window-maximized="1"
     inkscape:current-layer="svg2" />
  <defs
     id="defs4">
    <linearGradient
       id="0"
       x1="61.57"
       y1="22.939"
       x2="60.753"
       y2="-27.706"
       gradientUnits="userSpaceOnUse">
      <stop
         stop-color="#141414"
         id="stop7" />
      <stop
         offset="1"
         stop-color="#2d2d2f"
         id="stop9" />
    </linearGradient>
    <linearGradient
       id="1"
       x1="24.546"
       y1="44.28"
       x2="25.18"
       y2="4.153"
       gradientUnits="userSpaceOnUse">
      <stop
         stop-color="#4fd127"
         id="stop12" />
      <stop
         stop-color="#c6f61a"
         offset="1"
         id="stop14" />
    </linearGradient>
  </defs>
  <g
     transform="matrix(0.10683115,0,0,0.14141442,0.49113658,-7.2515888)"
     id="g18"
     style="fill:#99ff55">
    <path
       d="m 19.816,11.141 c -0.425,0 -0.77,0.343 -0.77,0.768 l 0,4.777 c 0,0.425 0.345,0.77 0.77,0.77 l 8.367,0 c 0.425,0 0.77,-0.345 0.77,-0.77 l 0,-4.777 c 0,-0.425 -0.345,-0.768 -0.77,-0.768 l -8.367,0 M 24,18.223 c -0.425,0 -0.77,0.345 -0.77,0.77 l 0,4.238 -11.277,0 c -0.425,0 -0.77,0.345 -0.77,0.77 l 0,5.01 c 0,0.425 0.345,0.77 0.77,0.77 0.425,0 0.77,-0.345 0.77,-0.77 l 0,-4.238 22.555,0 0,4.238 c 0,0.425 0.345,0.77 0.77,0.77 0.425,0 0.77,-0.345 0.77,-0.77 l 0,-5.01 c 0,-0.425 -0.345,-0.77 -0.77,-0.77 l -11.277,0 0,-4.238 c 0,-0.425 -0.345,-0.77 -0.77,-0.77 m 0,7.277 c -0.425,0 -0.77,0.345 -0.77,0.77 l 0,2.738 c 0,0.425 0.345,0.77 0.77,0.77 0.425,0 0.77,-0.345 0.77,-0.77 l 0,-2.738 c 0,-0.425 -0.345,-0.77 -0.77,-0.77 m -16.23,5.04 c -0.425,0 -0.77,0.345 -0.77,0.77 l 0,4.777 c 0,0.425 0.345,0.768 0.77,0.768 l 8.369,0 c 0.425,0 0.768,-0.343 0.768,-0.768 l 0,-4.777 c 0,-0.425 -0.343,-0.77 -0.768,-0.77 l -8.369,0 m 12.05,0 c -0.425,0 -0.77,0.345 -0.77,0.77 l 0,4.777 c 0,0.425 0.345,0.768 0.77,0.768 l 8.367,0 c 0.425,0 0.77,-0.343 0.77,-0.768 l 0,-4.777 c 0,-0.425 -0.345,-0.77 -0.77,-0.77 l -8.367,0 m 12.04,0 c -0.425,0 -0.768,0.345 -0.768,0.77 l 0,4.777 c 0,0.425 0.343,0.768 0.768,0.768 l 8.369,0 c 0.425,0 0.77,-0.343 0.77,-0.768 l 0,-4.777 c 0,-0.425 -0.345,-0.77 -0.77,-0.77 l -8.369,0"
       transform="matrix(13,0,0,13,-91,-91)"
       id="path20"
       style="fill:#99ff55"
       inkscape:connector-curvature="0" />
  </g>
</svg>
