<?xml version="1.0" encoding="UTF-8" standalone="no"?>
<!-- Generator: Adobe Illustrator 18.0.0, SVG Export Plug-In . SVG Version: 6.00 Build 0)  -->

<svg
   xmlns:dc="http://purl.org/dc/elements/1.1/"
   xmlns:cc="http://creativecommons.org/ns#"
   xmlns:rdf="http://www.w3.org/1999/02/22-rdf-syntax-ns#"
   xmlns:svg="http://www.w3.org/2000/svg"
   xmlns="http://www.w3.org/2000/svg"
   xmlns:sodipodi="http://sodipodi.sourceforge.net/DTD/sodipodi-0.dtd"
   xmlns:inkscape="http://www.inkscape.org/namespaces/inkscape"
   version="1.1"
   id="Capa_1"
   x="0px"
   y="0px"
   viewBox="0 0 58 58"
   style="enable-background:new 0 0 58 58;"
   xml:space="preserve"
   inkscape:version="0.91 r13725"
   sodipodi:docname="konversation.svg"><metadata
     id="metadata49"><rdf:RDF><cc:Work
         rdf:about=""><dc:format>image/svg+xml</dc:format><dc:type
           rdf:resource="http://purl.org/dc/dcmitype/StillImage" /><dc:title></dc:title></cc:Work></rdf:RDF></metadata><defs
     id="defs47" /><sodipodi:namedview
     pagecolor="#ffffff"
     bordercolor="#666666"
     borderopacity="1"
     objecttolerance="10"
     gridtolerance="10"
     guidetolerance="10"
     inkscape:pageopacity="0"
     inkscape:pageshadow="2"
     inkscape:window-width="1280"
     inkscape:window-height="694"
     id="namedview45"
     showgrid="false"
     inkscape:zoom="4.0689655"
     inkscape:cx="-11.059322"
     inkscape:cy="29"
     inkscape:window-x="0"
     inkscape:window-y="0"
     inkscape:window-maximized="1"
     inkscape:current-layer="Capa_1" /><path
     inkscape:connector-curvature="0"
     id="path5"
     d="m 44,17.583687 0,23.001141 c 0,2.961502 -2.207,5.36269 -4.929,5.36269 L 22,46.024765 12,57.992627 l 0,-11.967862 -7.071,0 C 2.207,46.024765 0,43.623577 0,40.662076 L 0,17.660934 c 0,-2.961502 2.207,-5.36269 4.929,-5.36269 l 34.141,-0.07725 c 2.723,0 4.93,2.401188 4.93,5.36269 z"
     style="fill:#55d400" /><path
     inkscape:connector-curvature="0"
     id="path7"
     d="m 22,24.188858 -13,0 c -0.553,0 -1,-0.487418 -1,-1.087987 0,-0.600569 0.447,-1.087987 1,-1.087987 l 13,0 c 0.553,0 1,0.487418 1,1.087987 0,0.600569 -0.447,1.087987 -1,1.087987 z"
     style="fill:#112b00" /><path
     inkscape:connector-curvature="0"
     id="path9"
     d="m 35,30.716783 -26,0 c -0.553,0 -1,-0.487419 -1,-1.087988 0,-0.600569 0.447,-1.087987 1,-1.087987 l 26,0 c 0.553,0 1,0.487418 1,1.087987 0,0.600569 -0.447,1.087988 -1,1.087988 z"
     style="fill:#112b00" /><path
     inkscape:connector-curvature="0"
     id="path11"
     d="m 35,37.244707 -26,0 c -0.553,0 -1,-0.487418 -1,-1.087987 0,-0.600569 0.447,-1.087988 1,-1.087988 l 26,0 c 0.553,0 1,0.487419 1,1.087988 0,0.600569 -0.447,1.087987 -1,1.087987 z"
     style="fill:#112b00" /><path
     inkscape:connector-curvature="0"
     id="path13"
     d="M 53.071,0.32929466 18.93,0.25313554 c -2.723,0 -4.93,2.40118816 -4.93,5.36268986 l 0,6.6606586 25.071,-0.05658 c 2.722,0 4.929,2.401188 4.929,5.363778 l 0,20.063575 7,8.377503 0,-11.967861 2.071,0 c 2.722,0 4.929,-2.401188 4.929,-5.36269 L 58,5.6930725 C 58,2.7304829 55.793,0.32929466 53.071,0.32929466 Z"
     style="fill:#338000" /><g
     id="g15" /><g
     id="g17" /><g
     id="g19" /><g
     id="g21" /><g
     id="g23" /><g
     id="g25" /><g
     id="g27" /><g
     id="g29" /><g
     id="g31" /><g
     id="g33" /><g
     id="g35" /><g
     id="g37" /><g
     id="g39" /><g
     id="g41" /><g
     id="g43" /></svg>