<?xml version="1.0" encoding="UTF-8" standalone="no"?>
<svg
   xmlns:dc="http://purl.org/dc/elements/1.1/"
   xmlns:cc="http://creativecommons.org/ns#"
   xmlns:rdf="http://www.w3.org/1999/02/22-rdf-syntax-ns#"
   xmlns:svg="http://www.w3.org/2000/svg"
   xmlns="http://www.w3.org/2000/svg"
   xmlns:sodipodi="http://sodipodi.sourceforge.net/DTD/sodipodi-0.dtd"
   xmlns:inkscape="http://www.inkscape.org/namespaces/inkscape"
   viewBox="0 0 48 48"
   id="svg2"
   version="1.1"
   inkscape:version="0.91 r13725"
   sodipodi:docname="krecipes.svg">
  <metadata
     id="metadata25">
    <rdf:RDF>
      <cc:Work
         rdf:about="">
        <dc:format>image/svg+xml</dc:format>
        <dc:type
           rdf:resource="http://purl.org/dc/dcmitype/StillImage" />
        <dc:title></dc:title>
      </cc:Work>
    </rdf:RDF>
  </metadata>
  <sodipodi:namedview
     pagecolor="#ffffff"
     bordercolor="#666666"
     borderopacity="1"
     objecttolerance="10"
     gridtolerance="10"
     guidetolerance="10"
     inkscape:pageopacity="0"
     inkscape:pageshadow="2"
     inkscape:window-width="1280"
     inkscape:window-height="694"
     id="namedview23"
     showgrid="false"
     inkscape:zoom="4.9166667"
     inkscape:cx="-9.1525424"
     inkscape:cy="24"
     inkscape:window-x="0"
     inkscape:window-y="0"
     inkscape:window-maximized="1"
     inkscape:current-layer="svg2" />
  <defs
     id="defs4">
    <linearGradient
       id="0"
       x1="67.4"
       y1="24.832"
       x2="66.71"
       y2="-20.09"
       gradientUnits="userSpaceOnUse">
      <stop
         stop-color="#f16419"
         id="stop7" />
      <stop
         offset="1"
         stop-color="#feb600"
         id="stop9" />
    </linearGradient>
  </defs>
  <g
     transform="matrix(1.7274272,0,0,1.9033474,0.55107495,-2.0498039)"
     id="g15"
     style="fill:#ff6600">
    <path
       d="m 3.141,23.92 c -0.46,0.458 -0.46,1.202 -0.003,1.66 0.461,0.459 1.204,0.459 1.663,0 l 7.324,-7.324 -1.661,-1.661 -7.323,7.325"
       id="path17"
       style="fill:#ff6600"
       inkscape:connector-curvature="0" />
    <path
       d="M 27.19,6.869 C 26.947,6.623 26.548,6.623 26.3,6.8691 l -5.157,5.158 -0.891,-0.89 5.159,-5.159 c 0.247,-0.247 0.247,-0.644 0.003,-0.89 -0.249,-0.247 -0.645,-0.246 -0.891,10e-5 l -5.16,5.159 -0.892,-0.892 5.16,-5.157 c 0.246,-0.248 0.246,-0.646 0.002,-0.892 -0.246,-0.245 -0.646,-0.245 -0.893,0.002 l -5.157,5.16 -0.892,-0.89 5.158,-5.159 c 0.249,-0.247 0.249,-0.646 0.003,-0.891 -0.246,-0.248 -0.645,-0.248 -0.892,0 l -5.337,5.337 c -0.04,0.04 -0.063,0.091 -0.092,0.138 -1.622,1.818 -1.634,3.689 -0.652,5.214 -0.037,0.028 -0.083,0.042 -0.115,0.075 l -1.227,1.226 1.661,1.661 1.227,-1.226 c 0.034,-0.033 0.047,-0.077 0.076,-0.114 1.521,0.979 3.393,0.967 5.213,-0.654 0.049,-0.025 0.098,-0.051 0.139,-0.091 l 5.335,-5.336 c 0.251,-0.246 0.251,-0.646 0.002,-0.891"
       id="path19"
       style="fill:#ff6600"
       inkscape:connector-curvature="0" />
    <path
       d="M 10.173,11.57 C 10.115,11.515 10.047,11.488 9.985,11.446 10.841,9.643 10.225,7.057 8.302,5.135 6.011,2.842 2.757,2.377 1.038,4.095 c -1.719,1.72 -1.256,4.974 1.036,7.267 1.923,1.923 4.508,2.54 6.311,1.684 0.042,0.062 0.071,0.13 0.126,0.185 l 12.453,12.454 c 0.46,0.458 1.201,0.459 1.662,0 0.459,-0.458 0.457,-1.201 -10e-5,-1.66 L 10.1739,11.57"
       id="path21"
       style="fill:#ff6600"
       inkscape:connector-curvature="0" />
  </g>
</svg>
