<?xml version="1.0" encoding="UTF-8" standalone="no"?>
<svg
   xmlns:dc="http://purl.org/dc/elements/1.1/"
   xmlns:cc="http://creativecommons.org/ns#"
   xmlns:rdf="http://www.w3.org/1999/02/22-rdf-syntax-ns#"
   xmlns:svg="http://www.w3.org/2000/svg"
   xmlns="http://www.w3.org/2000/svg"
   xmlns:sodipodi="http://sodipodi.sourceforge.net/DTD/sodipodi-0.dtd"
   xmlns:inkscape="http://www.inkscape.org/namespaces/inkscape"
   viewBox="0 0 48 48"
   id="svg2"
   version="1.1"
   inkscape:version="0.91 r13725"
   sodipodi:docname="krename.svg">
  <metadata
     id="metadata27">
    <rdf:RDF>
      <cc:Work
         rdf:about="">
        <dc:format>image/svg+xml</dc:format>
        <dc:type
           rdf:resource="http://purl.org/dc/dcmitype/StillImage" />
        <dc:title></dc:title>
      </cc:Work>
    </rdf:RDF>
  </metadata>
  <sodipodi:namedview
     pagecolor="#ffffff"
     bordercolor="#666666"
     borderopacity="1"
     objecttolerance="10"
     gridtolerance="10"
     guidetolerance="10"
     inkscape:pageopacity="0"
     inkscape:pageshadow="2"
     inkscape:window-width="1280"
     inkscape:window-height="694"
     id="namedview25"
     showgrid="false"
     inkscape:zoom="4.9166667"
     inkscape:cx="13.807961"
     inkscape:cy="24"
     inkscape:window-x="0"
     inkscape:window-y="0"
     inkscape:window-maximized="1"
     inkscape:current-layer="svg2" />
  <defs
     id="defs4">
    <linearGradient
       gradientTransform="matrix(1.0909153,0,0,1.065289,-421.71538,-535.05613)"
       gradientUnits="userSpaceOnUse"
       y2="507.8"
       x2="0"
       y1="542.8"
       id="0">
      <stop
         stop-color="#155bc2"
         id="stop7" />
      <stop
         offset="1"
         stop-color="#369dff"
         id="stop9" />
    </linearGradient>
  </defs>
  <g
     style="fill:#0066ff;fill-opacity:0.847"
     id="g19"
     transform="matrix(1.0947659,0,0,2.5747924,27.553905,-75.906043)">
    <path
       style="fill:#0066ff"
       d="m -20.363,47.972 q -1.95,0 -3.275,-1.125 -1.3,-1.125 -1.3,-2.975 0,-2 1.55,-3.125 1.55,-1.15 3.825,-1.15 2.025,0 3.325,0.75 l 0,-0.35 q 0,-1.35 -0.925,-2.15 -0.925,-0.825 -2.275,-0.825 -1,0 -1.825,0.475 -0.8,0.475 -1.1,1.3 l -2.1,-0.9 q 0.425,-1.1 1.675,-2.025 1.25,-0.95 3.3,-0.95 2.35,0 3.9,1.375 1.55,1.375 1.55,3.875 l 0,7.4 -2.2,0 0,-1.7 -0.1,0 q -1.375,2.1 -4.03,2.1 m 0.375,-2.1 q 1.425,0 2.575,-1.05 1.175,-1.075 1.175,-2.525 -0.975,-0.8 -2.925,-0.8 -1.675,0 -2.525,0.725 -0.85,0.725 -0.85,1.7 0,0.9 0.775,1.425 0.775,0.525 1.775,0.525"
       id="path21"
       inkscape:connector-curvature="0" />
    <path
       style="fill:#0066ff"
       d="m -4.97,47.972 q -1.4,0 -2.525,-0.6 -1.1,-0.6 -1.65,-1.5 l -0.1,0 0,1.7 -2.2,0 0,-17.9 2.3,0 0,5.65 -0.1,1.7 0.1,0 q 0.55,-0.9 1.65,-1.5 1.125,-0.6 2.525,-0.6 2.375,0 4.1,1.875 1.725,1.875 1.725,4.65 0,2.775 -1.725,4.65 -1.725,1.875 -4.1,1.875 m -0.375,-2.1 q 1.6,0 2.75,-1.2 1.15,-1.225 1.15,-3.225 0,-2 -1.15,-3.2 -1.15,-1.225 -2.75,-1.225 -1.625,0 -2.775,1.2 -1.125,1.2 -1.125,3.225 0,2.025 1.125,3.225 1.15,1.2 2.775,1.2"
       id="path23"
       inkscape:connector-curvature="0" />
  </g>
  <g
     id="g4137"
     transform="matrix(0.39602733,0,0,0.99143292,28.879372,0.09308841)"
     style="fill:#2a7fff">
    <rect
       x="-32.641804"
       y="32.847069"
       transform="matrix(0.70710642,-0.70710714,0.70710642,0.70710714,0,0)"
       width="8.374361"
       height="2.1873739"
       id="rect6"
       style="fill:#2a7fff" />
    <path
       d="m 7.1603108,46.308221 c -0.2799864,0 -0.5599728,-0.107183 -0.7732437,-0.320454 L 2.0122795,41.612975 c -0.4276355,-0.427636 -0.4276355,-1.118853 0,-1.546489 L 14.589794,27.488959 c 0.427635,-0.427636 1.118852,-0.427636 1.546487,0 l 4.374788,4.374792 c 0.427635,0.427636 0.427635,1.118853 0,1.546489 L 7.9335545,45.987767 c -0.2132709,0.213271 -0.4932573,0.320454 -0.7732437,0.320454 z"
       id="path8"
       inkscape:connector-curvature="0"
       style="fill:#2a7fff" />
    <path
       d="m 38.330672,15.137828 c -0.279986,0 -0.559972,-0.107183 -0.773243,-0.320454 l -4.374788,-4.374792 c -0.427635,-0.427636 -0.427635,-1.1188527 0,-1.5464886 l 8.202727,-8.20273499 c 0.427635,-0.42763591 1.118852,-0.42763591 1.546487,0 l 4.374788,4.37479199 c 0.427635,0.4276359 0.427635,1.1188531 0,1.546489 l -8.202727,8.2027346 c -0.213271,0.213271 -0.493257,0.320454 -0.773244,0.320454 z"
       id="path10"
       inkscape:connector-curvature="0"
       style="fill:#2a7fff" />
    <path
       d="m 25.753158,40.839731 c -0.279986,0 -0.559973,-0.107183 -0.773244,-0.320454 -0.427635,-0.427636 -0.427635,-1.118853 0,-1.546489 L 41.705821,22.246865 38.104277,18.645317 c -0.427635,-0.427636 -0.427635,-1.118853 0,-1.546489 0.427636,-0.427636 1.118852,-0.427636 1.546488,0 l 4.374787,4.374792 c 0.427636,0.427636 0.427636,1.118853 0,1.546489 l -17.49915,17.499168 c -0.213271,0.213271 -0.493257,0.320454 -0.773244,0.320454 z"
       id="path12"
       inkscape:connector-curvature="0"
       style="fill:#2a7fff" />
    <path
       d="M 44.025552,12.724036 35.275977,3.9744524 c -0.427635,-0.4276359 -1.118852,-0.4276359 -1.546487,0 L 9.1213093,28.582657 c -0.4276354,0.427636 -0.4276354,1.118853 0,1.546489 l 8.7495757,8.749584 c 0.21327,0.213271 0.493257,0.320454 0.773243,0.320454 0.279987,0 0.559973,-0.107183 0.773244,-0.320454 l 24.60818,-24.608205 c 0.427636,-0.427636 0.427636,-1.118853 0,-1.546489 z"
       id="path14"
       inkscape:connector-curvature="0"
       style="fill:#2a7fff" />
  </g>
</svg>
