<?xml version="1.0" encoding="UTF-8" standalone="no"?>
<svg
   xmlns:dc="http://purl.org/dc/elements/1.1/"
   xmlns:cc="http://creativecommons.org/ns#"
   xmlns:rdf="http://www.w3.org/1999/02/22-rdf-syntax-ns#"
   xmlns:svg="http://www.w3.org/2000/svg"
   xmlns="http://www.w3.org/2000/svg"
   xmlns:sodipodi="http://sodipodi.sourceforge.net/DTD/sodipodi-0.dtd"
   xmlns:inkscape="http://www.inkscape.org/namespaces/inkscape"
   class="nc-icon colored"
   x="0px"
   y="0px"
   width="48px"
   height="48px"
   viewBox="0 0 48 48"
   id="svg2"
   version="1.1"
   inkscape:version="0.91 r13725"
   sodipodi:docname="krita.svg">
  <metadata
     id="metadata18">
    <rdf:RDF>
      <cc:Work
         rdf:about="">
        <dc:format>image/svg+xml</dc:format>
        <dc:type
           rdf:resource="http://purl.org/dc/dcmitype/StillImage" />
        <dc:title></dc:title>
      </cc:Work>
    </rdf:RDF>
  </metadata>
  <defs
     id="defs16" />
  <sodipodi:namedview
     pagecolor="#ffffff"
     bordercolor="#666666"
     borderopacity="1"
     objecttolerance="10"
     gridtolerance="10"
     guidetolerance="10"
     inkscape:pageopacity="0"
     inkscape:pageshadow="2"
     inkscape:window-width="1280"
     inkscape:window-height="694"
     id="namedview14"
     showgrid="false"
     inkscape:zoom="4.9166667"
     inkscape:cx="-42.305085"
     inkscape:cy="24"
     inkscape:window-x="0"
     inkscape:window-y="0"
     inkscape:window-maximized="1"
     inkscape:current-layer="svg2" />
  <path
     style="fill:#0066ff"
     inkscape:connector-curvature="0"
     id="path6"
     d="m 46.064616,1.9271494 c -2.425937,-2.41495641 -6.373425,-2.41495641 -8.799362,0 L 14.992684,24.098906 c 0.200579,-0.01418 0.402345,-0.02954 0.605298,-0.02954 2.219423,0 3.134491,1.942362 4.703516,3.504286 1.729252,1.721424 3.697062,2.937173 3.579563,5.196173 L 46.064616,10.686683 c 2.425937,-2.4149565 2.425937,-6.3445773 0,-8.7595336 z" />
  <path
     style="fill:#d5e5ff"
     inkscape:connector-curvature="0"
     id="path8"
     d="m 21.472927,26.491414 c -1.569026,-1.561923 -3.655522,-2.422045 -5.873758,-2.422045 -0.20414,0 -0.404719,0.01536 -0.605298,0.02954 l -5.61621,5.59079 c -0.9269357,0.92274 -0.9269357,2.4185 0,3.341241 l 5.442929,5.418292 c 0.926936,0.92274 2.429498,0.92274 3.356433,0 l 5.706412,-5.680582 c 0.115125,-2.257819 -0.681257,-4.555808 -2.410508,-6.277233 z" />
  <path
     style="fill:#0066ff"
     inkscape:connector-curvature="0"
     id="path10"
     d="m 15.538639,44.095548 c 3.238934,-3.224274 3.238934,-8.471251 0,-11.695525 -1.569026,-1.561923 -3.655522,-2.422045 -5.8737584,-2.422045 -2.2194237,0 -4.3059194,0.860122 -5.8749451,2.422045 -1.8408162,1.832484 -2.7879285,6.270144 -3.26385843,9.71063 2.53038043,0.01654 4.22046563,1.878562 6.67963453,2.534286 2.1363437,0.569476 5.0002314,-0.06262 7.6374284,0.01772 0.258735,-0.180767 0.49492,-0.367442 0.695499,-0.567113 z" />
  <path
     style="fill:#2a7fff"
     inkscape:connector-curvature="0"
     id="path12"
     d="m 0.43231532,47.436789 c 0.22312923,0.22212 0.52577792,0.346176 0.83910828,0.346176 0.021363,0 0.042727,0 0.06409,-0.0012 1.0598638,-0.05671 9.88415,-0.606102 13.507626,-3.119122 -5.6719922,-0.173678 -9.5886223,-2.52129 -14.31706293,-2.552008 -0.30264869,2.1952 -0.41540016,3.987513 -0.43913731,4.428207 -0.01898972,0.333179 0.10681718,0.660451 0.34537556,0.897929 z" />
</svg>
