<?xml version="1.0" encoding="UTF-8" standalone="no"?>
<svg
   xmlns:dc="http://purl.org/dc/elements/1.1/"
   xmlns:cc="http://creativecommons.org/ns#"
   xmlns:rdf="http://www.w3.org/1999/02/22-rdf-syntax-ns#"
   xmlns:svg="http://www.w3.org/2000/svg"
   xmlns="http://www.w3.org/2000/svg"
   xmlns:xlink="http://www.w3.org/1999/xlink"
   xmlns:sodipodi="http://sodipodi.sourceforge.net/DTD/sodipodi-0.dtd"
   xmlns:inkscape="http://www.inkscape.org/namespaces/inkscape"
   viewBox="0 0 48 48"
   id="svg2"
   version="1.1"
   inkscape:version="0.91 r13725"
   sodipodi:docname="kwplayer.svg">
  <metadata
     id="metadata23">
    <rdf:RDF>
      <cc:Work
         rdf:about="">
        <dc:format>image/svg+xml</dc:format>
        <dc:type
           rdf:resource="http://purl.org/dc/dcmitype/StillImage" />
        <dc:title></dc:title>
      </cc:Work>
    </rdf:RDF>
  </metadata>
  <sodipodi:namedview
     pagecolor="#ffffff"
     bordercolor="#666666"
     borderopacity="1"
     objecttolerance="10"
     gridtolerance="10"
     guidetolerance="10"
     inkscape:pageopacity="0"
     inkscape:pageshadow="2"
     inkscape:window-width="1280"
     inkscape:window-height="694"
     id="namedview21"
     showgrid="false"
     inkscape:zoom="4.9166667"
     inkscape:cx="-9.1525424"
     inkscape:cy="24"
     inkscape:window-x="0"
     inkscape:window-y="0"
     inkscape:window-maximized="1"
     inkscape:current-layer="svg2" />
  <defs
     id="defs4">
    <linearGradient
       xlink:href="#2"
       id="0"
       y1="546.29"
       x2="0"
       y2="501.51"
       gradientUnits="userSpaceOnUse"
       gradientTransform="matrix(1.07196,0,0,1.07196,-413.17,-537.6)" />
    <linearGradient
       xlink:href="#2"
       id="1"
       x1="408.82"
       y1="546.29"
       x2="407.82"
       y2="501.51"
       gradientUnits="userSpaceOnUse"
       gradientTransform="matrix(1.07196,0,0,1.07196,-413.17,-537.6)" />
    <linearGradient
       id="2">
      <stop
         stop-color="#f15f19"
         id="stop9" />
      <stop
         offset="1"
         stop-color="#fbb521"
         id="stop11" />
    </linearGradient>
  </defs>
  <path
     style="fill:#ff7f2a;fill-opacity:0.853;stroke-width:1.31700003"
     inkscape:connector-curvature="0"
     id="path17"
     d="m 12.455293,4.7172933 c 3.641904,-4.50826798 2.390373,-1.6793832 8.357772,-2.8773148 l 1.707409,-0.8717409 c 0.679549,-0.0640984 2.048891,-0.5455503 2.65673,-0.57546303 5.588353,-0.26778958 5.588353,-0.26778958 5.588353,-0.26778958 l 0,28.95832201 c 1.830342,-0.460087 3.792156,-0.592557 5.731774,-0.388866 3.377256,0.356103 6.404493,1.677959 8.521683,3.724842 2.117188,2.046881 3.07163,4.572365 2.687463,7.112094 -0.713698,4.713385 -6.001546,8.268719 -12.30018,8.268719 -0.590764,0 -1.191772,-0.03134 -1.784244,-0.09402 C 27.09121,47.018084 22.353148,42.697838 22.353148,37.431782 l 0,-28.4141954 c -0.490028,-0.027063 -0.981761,-0.041309 -1.459836,-0.041309 -5.757387,0 -11.0503569,2.0098474 -15.308637,5.8101814 -1.7552174,1.566864 -2.98626,3.125172 -3.7119093,4.156447 C 1.6951953,19.196453 1.3468836,19.330348 1.0002794,19.279069 0.65367518,19.22779 0.38219692,19.002734 0.31902279,18.713578 -0.37930779,15.514346 3.9694651,11.008926 8.0177341,5.9978407 Z" />
</svg>
