<?xml version="1.0" encoding="UTF-8" standalone="no"?>
<svg
   xmlns:dc="http://purl.org/dc/elements/1.1/"
   xmlns:cc="http://creativecommons.org/ns#"
   xmlns:rdf="http://www.w3.org/1999/02/22-rdf-syntax-ns#"
   xmlns:svg="http://www.w3.org/2000/svg"
   xmlns="http://www.w3.org/2000/svg"
   xmlns:xlink="http://www.w3.org/1999/xlink"
   xmlns:sodipodi="http://sodipodi.sourceforge.net/DTD/sodipodi-0.dtd"
   xmlns:inkscape="http://www.inkscape.org/namespaces/inkscape"
   viewBox="0 0 48 48"
   id="svg2"
   version="1.1"
   inkscape:version="0.91 r13725"
   sodipodi:docname="lazarus.svg">
  <metadata
     id="metadata23">
    <rdf:RDF>
      <cc:Work
         rdf:about="">
        <dc:format>image/svg+xml</dc:format>
        <dc:type
           rdf:resource="http://purl.org/dc/dcmitype/StillImage" />
        <dc:title></dc:title>
      </cc:Work>
    </rdf:RDF>
  </metadata>
  <sodipodi:namedview
     pagecolor="#ffffff"
     bordercolor="#666666"
     borderopacity="1"
     objecttolerance="10"
     gridtolerance="10"
     guidetolerance="10"
     inkscape:pageopacity="0"
     inkscape:pageshadow="2"
     inkscape:window-width="1280"
     inkscape:window-height="694"
     id="namedview21"
     showgrid="false"
     inkscape:zoom="4.9166667"
     inkscape:cx="-9.1525424"
     inkscape:cy="24"
     inkscape:window-x="0"
     inkscape:window-y="0"
     inkscape:window-maximized="1"
     inkscape:current-layer="svg2" />
  <defs
     id="defs4">
    <linearGradient
       xlink:href="#2"
       id="0"
       y1="546.29"
       x2="0"
       y2="501.51"
       gradientUnits="userSpaceOnUse" />
    <linearGradient
       xlink:href="#2"
       id="1"
       x1="408.82"
       y1="546.29"
       x2="407.82"
       y2="501.51"
       gradientUnits="userSpaceOnUse" />
    <linearGradient
       id="2">
      <stop
         stop-color="#f15f19"
         id="stop9" />
      <stop
         offset="1"
         stop-color="#fbb521"
         id="stop11" />
    </linearGradient>
  </defs>
  <path
     d="m 20.994249,47.779975 c -2.256048,-0.462264 -4.056137,-1.93771 -5.053548,-4.141382 -0.470208,-1.029012 -0.533536,-1.359879 -0.462292,-2.317653 0.06966,-1.033763 0.137738,-1.174658 0.780514,-1.730325 2.031235,-1.784151 2.472946,-2.255913 2.849746,-3.104452 0.378382,-0.834293 0.410046,-1.089172 0.308722,-2.759338 -0.101322,-1.652753 -0.06966,-1.945627 0.29289,-2.803665 0.826426,-2.001035 2.650264,-3.144031 6.49742,-4.109719 2.72784,-0.688647 4.728994,-0.696563 6.172866,-0.03167 1.158896,0.533504 2.403286,1.769902 3.006482,3.020549 0.826426,1.690748 2.843412,2.904983 4.835068,2.912899 2.556854,0.0016 3.995976,1.997867 3.83924,5.308124 -0.0855,1.730324 -0.571532,2.819495 -1.800088,4.000485 -2.341542,2.263828 -10.52981,4.944011 -17.654174,5.770388 -1.831754,0.207386 -2.533108,0.207386 -3.60018,-0.0079 M 6.9070074,35.841842 C 4.326405,35.031297 2.0561073,32.088318 1.5763996,28.960119 1.4671599,28.263556 1.2676777,27.522668 1.1267736,27.307366 0.55524129,26.419249 -4.5910785e-4,22.664143 0.37792385,22.277868 c 0.20106527,-0.207386 1.19055975,0.872286 1.19689325,1.29814 0,0.201052 0.1694019,0.656985 0.3641341,1.005266 l 0.3641341,0.625323 0.5794481,-0.60316 c 0.7488499,-0.740889 1.6528521,-1.013181 2.5568556,-0.764636 0.701354,0.207386 0.9736624,0.378361 3.530518,2.108686 0.866006,0.587329 2.216468,1.451699 2.998566,1.932961 0.780513,0.47018 1.63702,1.158827 1.92516,1.529272 1.073405,1.374127 0.786848,3.096536 -0.810594,4.826861 -0.772598,0.834293 -1.112984,1.057509 -2.13256,1.374129 -1.2364719,0.394191 -3.152134,0.493925 -4.0323895,0.2153 M 39.916561,26.81819 c -2.525192,-0.943526 -3.578014,-2.301823 -3.198048,-4.109719 0.06966,-0.332452 0.680772,-1.746157 1.352046,-3.136116 0.672856,-1.389959 1.228556,-2.634272 1.228556,-2.759337 0.008,-0.587329 0.904004,-2.164093 1.499284,-2.634273 0.501872,-0.394192 0.850174,-0.517674 1.57686,-0.525589 l 0.92775,-0.02374 0.05382,-0.688647 c 0.03166,-0.37836 -0.07758,-0.973605 -0.239062,-1.329801 -0.348302,-0.764636 -0.207398,-1.807897 0.22323,-1.7224098 0.417962,0.085487 1.776342,2.6738508 2.10248,3.9941538 0.161484,0.649069 0.5557,1.560933 0.872338,2.031113 1.029074,1.499192 1.405874,2.81158 1.421706,4.898101 0.008,1.613176 -0.05382,1.961457 -0.449626,2.849574 -0.764682,1.676501 -2.02332,2.70393 -3.995976,3.245349 -1.20481,0.33245 -2.317794,0.300789 -3.383282,-0.101324 M 14.118447,20.813503 c -1.945742,-0.493926 -3.221796,-1.529271 -3.995976,-3.237433 -0.8660061,-1.925045 -0.6886895,-5.322372 0.386298,-7.177761 0.324554,-0.5635823 0.364134,-0.9039481 0.340386,-2.5804477 -0.03958,-1.7762346 0.246978,-3.6680354 0.603196,-4.0242322 0.270726,-0.2865405 0.794764,0.7804668 0.794764,1.6084264 0,0.4701798 0.161484,1.2126523 0.356218,1.6606687 0.324554,0.7329738 0.394214,0.7867991 0.842258,0.6807316 0.270726,-0.069657 0.989494,-0.1693914 1.608522,-0.2232167 1.097152,-0.101318 1.127234,-0.093402 1.698766,0.5398361 0.633276,0.6965626 1.005326,1.7303248 1.005326,2.7878338 0,0.865954 0.478124,1.815811 1.499284,2.998385 2.52519,2.897067 1.917244,5.477515 -1.599024,6.799401 -1.282386,0.47018 -2.192722,0.525588 -3.54635,0.169392 m 11.12984,-3.275429 C 24.353783,17.230955 23.503609,16.25735 23.194887,15.190343 23.001737,14.501696 22.955825,13.776637 23.033401,12.347102 23.142641,10.437886 23.134725,10.41414 22.599607,9.5355213 21.076575,7.0310621 21.534119,5.378309 23.897825,4.8780504 L 24.887319,4.6706647 24.762247,4.0833358 c -0.15357,-0.7488048 -0.688688,-1.8237276 -1.04174,-2.1324314 -0.324554,-0.2786251 -0.3863,-1.49127728 -0.07758,-1.49127728 0.348302,0 3.275624,3.18202458 3.592262,3.91024918 0.231146,0.5176726 0.5557,0.8263765 1.236472,1.1825734 1.290302,0.6886471 3.152136,2.6659351 3.86299,4.1097194 0.740934,1.5229389 0.911918,3.2595969 0.449626,4.5118259 -0.394214,1.07334 -1.808006,2.572533 -2.897242,3.083873 -0.99741,0.462264 -3.668256,0.625323 -4.651418,0.286541"
     id="path19"
     style="fill:#ff7f2a;fill-opacity:0.85500004"
     inkscape:connector-curvature="0" />
</svg>
