<?xml version="1.0" encoding="UTF-8" standalone="no"?>
<svg
   xmlns:dc="http://purl.org/dc/elements/1.1/"
   xmlns:cc="http://creativecommons.org/ns#"
   xmlns:rdf="http://www.w3.org/1999/02/22-rdf-syntax-ns#"
   xmlns:svg="http://www.w3.org/2000/svg"
   xmlns="http://www.w3.org/2000/svg"
   xmlns:sodipodi="http://sodipodi.sourceforge.net/DTD/sodipodi-0.dtd"
   xmlns:inkscape="http://www.inkscape.org/namespaces/inkscape"
   viewBox="0 0 48 48"
   id="svg2"
   version="1.1"
   inkscape:version="0.91 r13725"
   sodipodi:docname="lightzone.svg">
  <metadata
     id="metadata17">
    <rdf:RDF>
      <cc:Work
         rdf:about="">
        <dc:format>image/svg+xml</dc:format>
        <dc:type
           rdf:resource="http://purl.org/dc/dcmitype/StillImage" />
        <dc:title></dc:title>
      </cc:Work>
    </rdf:RDF>
  </metadata>
  <sodipodi:namedview
     pagecolor="#ffffff"
     bordercolor="#666666"
     borderopacity="1"
     objecttolerance="10"
     gridtolerance="10"
     guidetolerance="10"
     inkscape:pageopacity="0"
     inkscape:pageshadow="2"
     inkscape:window-width="1280"
     inkscape:window-height="694"
     id="namedview15"
     showgrid="false"
     inkscape:zoom="4.9166667"
     inkscape:cx="-25.499655"
     inkscape:cy="24"
     inkscape:window-x="0"
     inkscape:window-y="0"
     inkscape:window-maximized="1"
     inkscape:current-layer="svg2" />
  <defs
     id="defs4">
    <linearGradient
       gradientTransform="matrix(.49433 0 0 .4778 86.64 13.1)"
       gradientUnits="userSpaceOnUse"
       y2="-26.05"
       x2="-125.19"
       y1="73.5"
       x1="-123.97"
       id="0">
      <stop
         stop-color="#2b65bd"
         id="stop7" />
      <stop
         offset="1"
         stop-color="#64a3dc"
         id="stop9" />
    </linearGradient>
  </defs>
  <path
     inkscape:connector-curvature="0"
     class="fill"
     d="m 36.581017,17.732576 c -1.777119,0 -3.21856,-1.739627 -3.21856,-3.884373 0,-2.120915 1.441441,-3.8605425 3.21856,-3.8605425 1.796864,0 3.238305,1.7396275 3.238305,3.8605425 0,2.144746 -1.441441,3.884373 -3.238305,3.884373 z m -23.221017,0 c -1.796865,0 -3.238305,-1.739627 -3.238305,-3.884373 0,-2.120915 1.44144,-3.8605425 3.238305,-3.8605425 1.777118,0 3.218559,1.7396275 3.218559,3.8605425 0,2.144746 -1.441441,3.884373 -3.218559,3.884373 z M 36.344068,0.16949105 c -5.746017,0 -10.485,5.07589835 -11.294577,11.67694895 l -0.375169,0 C 23.864746,5.2453894 19.106017,0.16949105 13.36,0.16949105 c -6.3186442,0 -11.4327968,6.14827115 -11.4327968,13.67871195 0,7.50661 5.0154237,13.58339 11.2550848,13.702542 l 0.355424,0 0,4.67078 -13.13093251,-4.265661 0,18.206508 13.13093251,-4.71844 0,6.386576 19.271864,0 -5.647288,-20.279763 9.18178,0 c 6.318644,0 11.452542,-6.12444 11.452542,-13.702542 0,-7.5304408 -5.133898,-13.67871195 -11.452542,-13.67871195 z"
     id="path4"
     style="clip-rule:evenodd;fill:#2a7fff;fill-rule:evenodd" />
</svg>
