<?xml version="1.0" encoding="UTF-8" standalone="no"?>
<svg
   xmlns:dc="http://purl.org/dc/elements/1.1/"
   xmlns:cc="http://creativecommons.org/ns#"
   xmlns:rdf="http://www.w3.org/1999/02/22-rdf-syntax-ns#"
   xmlns:svg="http://www.w3.org/2000/svg"
   xmlns="http://www.w3.org/2000/svg"
   xmlns:sodipodi="http://sodipodi.sourceforge.net/DTD/sodipodi-0.dtd"
   xmlns:inkscape="http://www.inkscape.org/namespaces/inkscape"
   viewBox="0 0 48 48"
   id="svg2"
   version="1.1"
   inkscape:version="0.91 r13725"
   sodipodi:docname="lightworks.svg">
  <metadata
     id="metadata27">
    <rdf:RDF>
      <cc:Work
         rdf:about="">
        <dc:format>image/svg+xml</dc:format>
        <dc:type
           rdf:resource="http://purl.org/dc/dcmitype/StillImage" />
        <dc:title></dc:title>
      </cc:Work>
    </rdf:RDF>
  </metadata>
  <sodipodi:namedview
     pagecolor="#ffffff"
     bordercolor="#666666"
     borderopacity="1"
     objecttolerance="10"
     gridtolerance="10"
     guidetolerance="10"
     inkscape:pageopacity="0"
     inkscape:pageshadow="2"
     inkscape:window-width="1280"
     inkscape:window-height="694"
     id="namedview25"
     showgrid="false"
     inkscape:zoom="4.9166667"
     inkscape:cx="-9.1525424"
     inkscape:cy="24"
     inkscape:window-x="0"
     inkscape:window-y="0"
     inkscape:window-maximized="1"
     inkscape:current-layer="svg2" />
  <defs
     id="defs4">
    <linearGradient
       id="0"
       x1="-28.426"
       y1="40.29"
       x2="-28.22"
       y2="-.994"
       gradientUnits="userSpaceOnUse"
       gradientTransform="translate(51.613,4.045)">
      <stop
         stop-color="#2f3f47"
         id="stop7" />
      <stop
         offset="1"
         stop-color="#425963"
         id="stop9" />
    </linearGradient>
  </defs>
  <g
     transform="matrix(0.25213584,0,0,0.19844589,-104.90592,-77.816627)"
     id="Calque.__209"
     style="fill:#6f8a91">
    <g
       id="shape14"
       style="fill:#6f8a91">
      <path
         style="fill:#6f8a91;fill-opacity:1"
         inkscape:connector-curvature="0"
         id="path8-5"
         d="m 455.9,395.95 q -7.55,-5.25 -16.6,-4.1 c -6.05,0.75 -11.05,3.4 -15.1,7.95 -4.05,4.55 -6.1,9.9 -6.1,16 l 0,192.5 c 0,6.1 2.05,11.45 6.1,16 4.05,4.55 9.05,7.2 15.1,7.95 6.05,0.75 11.55,-0.65 16.6,-4.1 L 595.55,531.9 c 4.45,-3.05 7.5,-7.15 9.2,-12.2 1.7,-5.1 1.7,-10.2 0,-15.25 -1.7,-5.05 -4.75,-9.15 -9.15,-12.25 L 455.9,395.95 Z" />
    </g>
  </g>
  <path
     style="fill:#53676c"
     d="m 30.078364,23.157186 c -0.600413,1.11e-4 -1.194603,0.08665 -1.665393,0.255516 -1.609395,0.578798 -2.827848,1.863042 -3.381597,3.56722 -0.212581,0.655454 -0.24369,0.892083 -0.24369,1.831937 0,1.834158 0.379535,2.859553 1.5254,4.094916 0.551674,0.595462 0.860694,0.843202 1.387481,1.110938 0.777736,0.397715 1.546139,0.599906 2.320765,0.611015 l 0.540267,0.01222 0.145177,-0.704335 c 0.456272,-2.196324 2.111295,-3.978268 4.193554,-4.521516 l 0.592116,-0.155531 -0.0031,-0.478815 c -0.0073,-2.352966 -1.59384,-4.647052 -3.711357,-5.366939 -0.493603,-0.167752 -1.100237,-0.253294 -1.700649,-0.252183 z m 12.128536,0.01666 c -0.822327,0 -1.122014,0.04222 -1.684058,0.235519 -2.120628,0.720998 -3.706172,3.010641 -3.713431,5.36694 l 0,0.478814 0.592116,0.155531 c 2.084333,0.543249 3.728986,2.322971 4.199775,4.553734 l 0.143104,0.672117 0.493603,0 c 0.272726,0 0.772551,-0.06555 1.110607,-0.141089 4.039043,-0.907636 5.635995,-6.283464 2.822664,-9.506294 -1.120977,-1.284244 -2.277211,-1.814161 -3.963343,-1.814161 m -6.714456,7.585482 -0.367091,0.06555 c -0.590043,0.101095 -1.500513,0.671006 -2.043891,1.2798 -0.528861,0.593241 -0.997576,1.535316 -1.07535,2.157441 l -0.04666,0.373275 1.76598,0 1.765979,0 0,-1.937475 0,-1.937476 z m 1.316967,0 0,1.937476 0,1.937475 1.765979,0 1.76598,0 -0.05807,-0.398827 c -0.09644,-0.657675 -0.537157,-1.539759 -1.063943,-2.131889 -0.542342,-0.608794 -1.453848,-1.178705 -2.043891,-1.2798 l -0.367091,-0.06555 z m 5.332159,5.29584 c -0.04252,0 -0.08503,0.01222 -0.123401,0.01222 -0.311095,0.03 -0.316279,0.03444 -0.50501,0.730997 -0.289318,1.069833 -0.711369,1.83638 -1.456959,2.639588 -0.743516,0.800986 -1.565842,1.300908 -2.597639,1.579754 l -0.606634,0.161086 -0.02489,0.569911 c -0.03318,0.737662 0.173176,1.785276 0.501899,2.53627 1.086757,2.486279 3.702024,3.811627 6.182484,3.132844 3.377449,-0.9243 5.058396,-4.859241 3.499813,-8.194276 C 46.538371,38.210387 45.578127,37.2061 44.604401,36.706178 43.871255,36.32957 42.782424,36.047392 42.14157,36.060723 Z m -2.976137,0.01222 c -0.202212,0 -0.422052,0 -0.650188,0.01222 l -1.662281,0.02333 -0.02489,1.817494 -0.02178,1.817494 0.28517,-0.06221 c 0.157621,-0.03333 0.564118,-0.202191 0.902174,-0.373275 0.7487,-0.377719 1.237119,-0.820983 1.662281,-1.506432 0.36087,-0.58102 0.70411,-1.545314 0.592116,-1.664184 -0.03007,-0.03222 -0.477011,-0.05666 -1.083645,-0.05777 z m -8.568579,0.03 -0.688555,0.02666 c -1.421702,0.04888 -2.583121,0.586575 -3.590031,1.665296 -1.084682,1.159819 -1.534732,2.3463 -1.533695,4.033814 1.03e-4,1.17204 0.121327,1.768613 0.537156,2.680693 0.361907,0.793209 1.475625,2.000799 2.244028,2.430732 1.16453,0.653231 2.575862,0.835425 3.823351,0.493256 2.052187,-0.562135 3.549588,-2.221875 3.976824,-4.421532 0.07363,-0.377719 0.121327,-0.942075 0.106809,-1.253138 l -0.02489,-0.566578 -0.641892,-0.167751 c -1.527473,-0.401049 -2.915992,-1.595307 -3.601437,-3.09174 -0.200137,-0.437709 -0.41894,-1.028728 -0.485307,-1.312017 l -0.123401,-0.516586 m 1.428961,0 0.02696,0.282178 c 0.05185,0.515475 0.543379,1.454217 1.055648,2.01413 0.493603,0.539916 1.132383,0.960961 1.812643,1.192036 0.610782,0.207745 0.577599,0.309952 0.551674,-1.679738 l -0.02489,-1.808606 -1.712057,0 -1.712056,0"
     id="path23"
     inkscape:connector-curvature="0" />
</svg>
