<?xml version="1.0" encoding="UTF-8" standalone="no"?>
<svg
   xmlns:dc="http://purl.org/dc/elements/1.1/"
   xmlns:cc="http://creativecommons.org/ns#"
   xmlns:rdf="http://www.w3.org/1999/02/22-rdf-syntax-ns#"
   xmlns:svg="http://www.w3.org/2000/svg"
   xmlns="http://www.w3.org/2000/svg"
   xmlns:sodipodi="http://sodipodi.sourceforge.net/DTD/sodipodi-0.dtd"
   xmlns:inkscape="http://www.inkscape.org/namespaces/inkscape"
   viewBox="0 0 48 48"
   id="svg2"
   version="1.1"
   inkscape:version="0.91 r13725"
   sodipodi:docname="logoqle2.svg">
  <metadata
     id="metadata28">
    <rdf:RDF>
      <cc:Work
         rdf:about="">
        <dc:format>image/svg+xml</dc:format>
        <dc:type
           rdf:resource="http://purl.org/dc/dcmitype/StillImage" />
        <dc:title></dc:title>
      </cc:Work>
    </rdf:RDF>
  </metadata>
  <sodipodi:namedview
     pagecolor="#ffffff"
     bordercolor="#666666"
     borderopacity="1"
     objecttolerance="10"
     gridtolerance="10"
     guidetolerance="10"
     inkscape:pageopacity="0"
     inkscape:pageshadow="2"
     inkscape:window-width="1280"
     inkscape:window-height="694"
     id="namedview26"
     showgrid="false"
     inkscape:zoom="4.9166667"
     inkscape:cx="-9.1525424"
     inkscape:cy="24"
     inkscape:window-x="0"
     inkscape:window-y="0"
     inkscape:window-maximized="1"
     inkscape:current-layer="svg2" />
  <defs
     id="defs4">
    <clipPath
       id="1">
      <path
         transform="matrix(15.33333 0 0 11.5 415-125.5)"
         d="m-24 13c0 1.105-.672 2-1.5 2-.828 0-1.5-.895-1.5-2 0-1.105.672-2 1.5-2 .828 0 1.5.895 1.5 2"
         fill="#1890d0"
         id="path7" />
    </clipPath>
    <linearGradient
       id="0"
       gradientUnits="userSpaceOnUse"
       x1="24.61"
       y1="47.593"
       x2="23.593"
       y2="-.203">
      <stop
         stop-color="#ff433a"
         id="stop10" />
      <stop
         stop-color="#ff9436"
         offset="1"
         id="stop12" />
    </linearGradient>
  </defs>
  <g
     style="fill:#ff6600"
     id="g18"
     transform="matrix(1.5752402,0,0,1.5750876,-13.700916,-13.701543)"
     clip-path="url(#1)">
    <g
       style="fill:#ff6600"
       id="g20">
      <path
         inkscape:connector-curvature="0"
         id="path22"
         d="M 24.05,9 C 19.839,9 16,10.805 13.316,13.539 10.64,16.262 9,19.992 9,24.055 c 0,4.066 1.637,7.793 4.316,10.516 2.688,2.738 6.527,4.43 10.734,4.43 4.215,0 7.949,-1.699 10.629,-4.43 2.68,-2.723 4.313,-6.449 4.313,-10.516 0,-4.063 -1.641,-7.793 -4.313,-10.516 C 31.999,10.812 28.261,9 24.05,9 m 0,5.535 c 2.426,0 4.625,1.051 6.313,2.766 1.68,1.711 2.766,4.082 2.766,6.754 0,2.672 -1.098,5.05 -2.766,6.754 -1.68,1.707 -3.875,2.656 -6.313,2.656 -2.438,0 -4.641,-0.953 -6.309,-2.656 -1.664,-1.691 -2.77,-4.063 -2.77,-6.754 0,-2.688 1.098,-5.05 2.77,-6.754 1.676,-1.707 3.887,-2.766 6.309,-2.766"
         style="fill:#ff6600" />
      <path
         inkscape:connector-curvature="0"
         id="path24"
         d="M 34,28.5 C 34,31.539 31.535,34 28.5,34 25.461,34 23,31.539 23,28.5 23,25.461 25.461,23 28.5,23 c 3.035,0 5.5,2.461 5.5,5.5"
         style="fill:#ff6600" />
    </g>
  </g>
</svg>
