<?xml version="1.0" encoding="UTF-8" standalone="no"?>
<svg
   xmlns:dc="http://purl.org/dc/elements/1.1/"
   xmlns:cc="http://creativecommons.org/ns#"
   xmlns:rdf="http://www.w3.org/1999/02/22-rdf-syntax-ns#"
   xmlns:svg="http://www.w3.org/2000/svg"
   xmlns="http://www.w3.org/2000/svg"
   xmlns:sodipodi="http://sodipodi.sourceforge.net/DTD/sodipodi-0.dtd"
   xmlns:inkscape="http://www.inkscape.org/namespaces/inkscape"
   viewBox="0 0 48 48"
   id="svg2"
   version="1.1"
   inkscape:version="0.91 r13725"
   sodipodi:docname="lordofultima.svg">
  <metadata
     id="metadata27">
    <rdf:RDF>
      <cc:Work
         rdf:about="">
        <dc:format>image/svg+xml</dc:format>
        <dc:type
           rdf:resource="http://purl.org/dc/dcmitype/StillImage" />
        <dc:title></dc:title>
      </cc:Work>
    </rdf:RDF>
  </metadata>
  <sodipodi:namedview
     pagecolor="#ffffff"
     bordercolor="#666666"
     borderopacity="1"
     objecttolerance="10"
     gridtolerance="10"
     guidetolerance="10"
     inkscape:pageopacity="0"
     inkscape:pageshadow="2"
     inkscape:window-width="1280"
     inkscape:window-height="694"
     id="namedview25"
     showgrid="false"
     inkscape:zoom="4.9166667"
     inkscape:cx="-9.1525424"
     inkscape:cy="24"
     inkscape:window-x="0"
     inkscape:window-y="0"
     inkscape:window-maximized="1"
     inkscape:current-layer="svg2" />
  <defs
     id="defs4">
    <linearGradient
       id="0"
       x1="24.01"
       y1="47.593"
       x2="24.396"
       y2="1.017"
       gradientUnits="userSpaceOnUse"
       gradientTransform="translate(-30.915254,-0.20338983)">
      <stop
         stop-color="#2f3f47"
         id="stop7" />
      <stop
         stop-color="#425963"
         offset="1"
         id="stop9" />
    </linearGradient>
    <linearGradient
       id="1"
       x1="24.01"
       y1="47.593"
       x2="24.396"
       y2="1.017"
       gradientUnits="userSpaceOnUse"
       gradientTransform="translate(-30.915254,-0.20338983)">
      <stop
         stop-color="#197cf1"
         id="stop12" />
      <stop
         stop-color="#21c9fb"
         offset="1"
         id="stop14" />
    </linearGradient>
    <linearGradient
       id="2"
       x1="229.03"
       y1="303"
       x2="222.3"
       y2="-169.25"
       gradientUnits="userSpaceOnUse"
       gradientTransform="matrix(0.16568737,0,0,0.10364245,-24.849958,-1.055603)">
      <stop
         stop-color="#0a80fd"
         id="stop17" />
      <stop
         stop-color="#56c5fa"
         offset="1"
         id="stop19" />
    </linearGradient>
  </defs>
  <path
     d="m 22.587992,31.920317 -2.894891,0 4.35874,-22.7059891 c 0.117292,-0.6104541 -0.283162,-1.4192798 -0.93133,-1.882147 l -8.783088,-6.26415 c -0.39301,-0.28024916 -0.947897,-0.44099861 -1.5225,-0.44099861 -0.574603,0 -1.129326,0.16074945 -1.522336,0.44099861 l -8.7847441,6.26415 C 1.8596739,7.7945299 1.4593748,8.6034592 1.576515,9.2143279 l 4.3587376,22.7059891 -2.894892,0 c -1.3937615,0 -2.52772584,0.70933 -2.52772584,1.581169 l 0,1.967549 c 0,0.87184 1.13396434,1.581169 2.52772584,1.581169 l 6.1503156,0 0,3.434711 c -1.6585308,0.720315 -2.7484215,1.919769 -2.7484215,3.276034 0,2.198256 2.8584394,3.985882 6.3720043,3.985882 3.514229,0 6.372006,-1.78804 6.372006,-3.985882 0,-1.356679 -1.089229,-2.555719 -2.748421,-3.276034 l 0,-3.434711 6.150312,0 c 1.393765,0 2.527729,-0.709329 2.527729,-1.581169 l 0,-1.967549 c 3.32e-4,-0.871839 -1.133634,-1.581065 -2.527395,-1.581065"
     id="path23"
     style="fill:#2a7fff"
     inkscape:connector-curvature="0" />
  <path
     d="m 26.022878,16.266615 2.894891,0 -4.35874,22.705989 c -0.117292,0.610454 0.283162,1.419279 0.93133,1.882147 l 8.783088,6.26415 c 0.39301,0.280249 0.947897,0.440998 1.5225,0.440998 0.574603,0 1.129326,-0.160749 1.522336,-0.440998 l 8.784744,-6.26415 c 0.648169,-0.462349 1.048468,-1.271279 0.931328,-1.882147 l -4.358738,-22.705989 2.894892,0 c 1.393762,0 2.527726,-0.70933 2.527726,-1.581169 l 0,-1.967549 c 0,-0.87184 -1.133964,-1.581169 -2.527726,-1.581169 l -6.150316,0 0,-3.4347107 c 1.658531,-0.720315 2.748422,-1.919769 2.748422,-3.276034 0,-2.198256 -2.858439,-3.98588192 -6.372004,-3.98588192 -3.514229,0 -6.372006,1.78803992 -6.372006,3.98588192 0,1.356679 1.089229,2.555719 2.748421,3.276034 l 0,3.4347107 -6.150312,0 c -1.393765,0 -2.527729,0.709329 -2.527729,1.581169 l 0,1.967549 c -3.32e-4,0.871839 1.133634,1.581065 2.527395,1.581065"
     id="path23-3"
     style="fill:#2a7fff"
     inkscape:connector-curvature="0" />
</svg>
