<?xml version="1.0" encoding="UTF-8" standalone="no"?>
<svg
   xmlns:dc="http://purl.org/dc/elements/1.1/"
   xmlns:cc="http://creativecommons.org/ns#"
   xmlns:rdf="http://www.w3.org/1999/02/22-rdf-syntax-ns#"
   xmlns:svg="http://www.w3.org/2000/svg"
   xmlns="http://www.w3.org/2000/svg"
   xmlns:sodipodi="http://sodipodi.sourceforge.net/DTD/sodipodi-0.dtd"
   xmlns:inkscape="http://www.inkscape.org/namespaces/inkscape"
   viewBox="0 0 48 48"
   id="svg2"
   version="1.1"
   inkscape:version="0.91 r13725"
   sodipodi:docname="love-app.svg">
  <metadata
     id="metadata19">
    <rdf:RDF>
      <cc:Work
         rdf:about="">
        <dc:format>image/svg+xml</dc:format>
        <dc:type
           rdf:resource="http://purl.org/dc/dcmitype/StillImage" />
        <dc:title></dc:title>
      </cc:Work>
    </rdf:RDF>
  </metadata>
  <sodipodi:namedview
     pagecolor="#ffffff"
     bordercolor="#666666"
     borderopacity="1"
     objecttolerance="10"
     gridtolerance="10"
     guidetolerance="10"
     inkscape:pageopacity="0"
     inkscape:pageshadow="2"
     inkscape:window-width="1280"
     inkscape:window-height="694"
     id="namedview17"
     showgrid="false"
     inkscape:zoom="4.9166667"
     inkscape:cx="-9.1525424"
     inkscape:cy="24"
     inkscape:window-x="0"
     inkscape:window-y="0"
     inkscape:window-maximized="1"
     inkscape:current-layer="svg2" />
  <defs
     id="defs4">
    <linearGradient
       gradientUnits="userSpaceOnUse"
       y2="-39.971"
       x2="24.03"
       y1="4.951"
       x1="24.722"
       id="0"
       gradientTransform="matrix(0.99999,0,0,0.99999,-0.691,40.756)">
      <stop
         stop-color="#ff4269"
         id="stop7" />
      <stop
         stop-color="#ff7b97"
         offset="1"
         id="stop9" />
    </linearGradient>
  </defs>
  <path
     style="fill:#ff5599;fill-opacity:0.83899997"
     inkscape:connector-curvature="0"
     id="path15"
     d="m 44.218346,4.1999913 c -2.227318,-2.538969 -5.30478,-3.80663996 -9.232389,-3.80663996 -1.086995,0 -2.195948,0.21943984 -3.326861,0.66013126 -1.130912,0.4406934 -2.1834,1.0337226 -3.152754,1.7809051 C 27.532283,3.5815703 26.696254,4.2816001 25.99355,4.9381061 25.292417,5.5927966 24.625789,6.2891992 23.995239,7.0255004 23.363119,6.2891992 22.698062,5.5927966 21.996926,4.9381061 21.295792,4.2834136 20.458196,3.5815703 19.484136,2.8343877 18.510076,2.0872052 17.459159,1.494176 16.331382,1.0534826 15.200469,0.61460475 14.091516,0.39335134 13.004521,0.39335134 9.0769121,0.39335134 5.9994497,1.6628358 3.7721303,4.1999913 1.5448127,6.7371469 0.43115362,10.257245 0.43115362,14.76029 c 0,1.371043 0.20704638,2.783797 0.61800228,4.23645 0.4125245,1.452652 0.8815162,2.691307 1.4069754,3.71415 0.5254579,1.02284 1.1215002,2.020293 1.7881279,2.992355 0.6666277,0.972062 1.152873,1.641262 1.4603052,2.011227 0.3058641,0.36815 0.5474179,0.634742 0.7230945,0.797962 L 22.840799,46.992501 c 0.315274,0.36815 0.701133,0.553133 1.157576,0.553133 0.456443,0 0.842305,-0.184983 1.157579,-0.553133 L 41.542427,28.572279 c 4.015449,-4.686211 6.023172,-9.290811 6.023172,-13.813803 0,-4.503045 -1.113659,-8.0231427 -3.340979,-10.5602982" />
</svg>
