<?xml version="1.0" encoding="UTF-8" standalone="no"?>
<!-- Created with Inkscape (http://www.inkscape.org/) -->

<svg
   xmlns:dc="http://purl.org/dc/elements/1.1/"
   xmlns:cc="http://creativecommons.org/ns#"
   xmlns:rdf="http://www.w3.org/1999/02/22-rdf-syntax-ns#"
   xmlns:svg="http://www.w3.org/2000/svg"
   xmlns="http://www.w3.org/2000/svg"
   xmlns:sodipodi="http://sodipodi.sourceforge.net/DTD/sodipodi-0.dtd"
   xmlns:inkscape="http://www.inkscape.org/namespaces/inkscape"
   id="svg3057"
   version="1.1"
   inkscape:version="0.91 r13725"
   width="512"
   height="512"
   sodipodi:docname="magnatune.svg">
  <metadata
     id="metadata3063">
    <rdf:RDF>
      <cc:Work
         rdf:about="">
        <dc:format>image/svg+xml</dc:format>
        <dc:type
           rdf:resource="http://purl.org/dc/dcmitype/StillImage" />
        <dc:title></dc:title>
      </cc:Work>
    </rdf:RDF>
  </metadata>
  <defs
     id="defs3061" />
  <sodipodi:namedview
     pagecolor="#ffffff"
     bordercolor="#666666"
     borderopacity="1"
     objecttolerance="10"
     gridtolerance="10"
     guidetolerance="10"
     inkscape:pageopacity="0"
     inkscape:pageshadow="2"
     inkscape:window-width="1280"
     inkscape:window-height="694"
     id="namedview3059"
     showgrid="false"
     inkscape:zoom="0.4609375"
     inkscape:cx="-97.627119"
     inkscape:cy="256"
     inkscape:window-x="0"
     inkscape:window-y="0"
     inkscape:window-maximized="1"
     inkscape:current-layer="svg3057" />
  <path
     style="fill:#0000ff"
     d="M 235.25903,506.2128 C 187.0458,501.33425 144.81691,485.20954 105.8324,456.79244 91.539605,446.37395 64.641097,419.86059 54.656994,406.34979 28.563175,371.03884 13.170679,334.81875 6.5601461,293.17304 3.8059106,275.82165 3.7850235,235.63912 6.5215767,218.91998 13.887612,173.91639 32.601294,132.14999 60.846521,97.674104 70.975766,85.310433 93.227343,64.278857 106.4051,54.613389 173.8582,5.1387095 259.07295,-8.2218084 339.48757,18.069216 c 82.5292,26.982374 145.67789,94.964904 166.49732,179.242204 9.29677,37.63348 8.98247,83.23322 -0.8342,121.02778 -23.93546,92.15244 -100.65727,164.56388 -194.29732,183.38135 -7.87442,1.58242 -19.3221,3.41321 -25.43932,4.06845 -10.29918,1.10318 -40.8866,1.36165 -50.155,0.4238 z m 37.71423,-68.23623 c 44.10918,-3.85393 82.26342,-20.76167 113.22879,-50.1764 33.57944,-31.89791 52.36358,-70.67796 56.59906,-116.84933 3.99632,-43.56426 -9.59774,-89.96753 -36.6846,-125.22283 -7.73016,-10.06128 -24.7865,-27.05968 -34.58269,-34.46519 C 334.45663,83.234039 288.65765,69.864097 243.47316,73.878507 155.70339,81.676404 86.403423,147.02983 74.824745,232.9226 c -1.96323,14.56356 -0.796626,45.65874 2.236517,59.61341 17.408164,80.09013 83.767578,138.17015 166.156278,145.42564 14.35407,1.26408 15.45257,1.26463 29.75572,0.015 z m -49.77861,-77.11951 c -0.30365,-0.78678 -0.41933,-55.36393 -0.25704,-121.28259 l 0.29505,-119.8521 33.78837,0 33.78836,0 0,120.98279 0,120.98277 -33.53131,0.2998 c -26.2085,0.23433 -33.65189,-0.0126 -34.08343,-1.13067 z m -99.64925,-2.26212 c -0.30456,-0.78634 -0.42008,-32.9757 -0.25675,-71.5319 l 0.29697,-70.10218 35.50641,0 35.50643,0 0,71.23286 0,71.23284 -35.24967,0.29907 c -27.58314,0.23399 -35.37009,-0.012 -35.80339,-1.13069 z m 195.85824,4.9e-4 c -0.30464,-0.78662 -0.42028,-33.2306 -0.25695,-72.09773 l 0.29692,-70.66752 34.36105,0 34.36105,0 0,71.7982 0,71.79818 -34.1041,0.29956 c -26.66622,0.2342 -34.2249,-0.0125 -34.65797,-1.13069 z"
     id="path2982"
     inkscape:connector-curvature="0" />
</svg>
