<?xml version="1.0" encoding="UTF-8" standalone="no"?>
<svg
   xmlns:dc="http://purl.org/dc/elements/1.1/"
   xmlns:cc="http://creativecommons.org/ns#"
   xmlns:rdf="http://www.w3.org/1999/02/22-rdf-syntax-ns#"
   xmlns:svg="http://www.w3.org/2000/svg"
   xmlns="http://www.w3.org/2000/svg"
   xmlns:sodipodi="http://sodipodi.sourceforge.net/DTD/sodipodi-0.dtd"
   xmlns:inkscape="http://www.inkscape.org/namespaces/inkscape"
   viewBox="0 0 48 48"
   id="svg2"
   version="1.1"
   inkscape:version="0.91 r13725"
   sodipodi:docname="mlcad.svg">
  <metadata
     id="metadata22">
    <rdf:RDF>
      <cc:Work
         rdf:about="">
        <dc:format>image/svg+xml</dc:format>
        <dc:type
           rdf:resource="http://purl.org/dc/dcmitype/StillImage" />
        <dc:title></dc:title>
      </cc:Work>
    </rdf:RDF>
  </metadata>
  <sodipodi:namedview
     pagecolor="#ffffff"
     bordercolor="#666666"
     borderopacity="1"
     objecttolerance="10"
     gridtolerance="10"
     guidetolerance="10"
     inkscape:pageopacity="0"
     inkscape:pageshadow="2"
     inkscape:window-width="1280"
     inkscape:window-height="694"
     id="namedview20"
     showgrid="false"
     inkscape:zoom="4.9166667"
     inkscape:cx="-9.1525424"
     inkscape:cy="24"
     inkscape:window-x="0"
     inkscape:window-y="0"
     inkscape:window-maximized="1"
     inkscape:current-layer="svg2" />
  <defs
     id="defs4">
    <linearGradient
       id="0"
       x1="27.456"
       y1="47.39"
       x2="26.442"
       y2="1.017"
       gradientUnits="userSpaceOnUse">
      <stop
         stop-color="#e1e1e1"
         id="stop7" />
      <stop
         stop-color="#f4f4ff"
         offset="1"
         id="stop9" />
    </linearGradient>
    <linearGradient
       id="1"
       x1="24.14"
       y1="40.683"
       x2="23.86"
       y2="6.31"
       gradientUnits="userSpaceOnUse">
      <stop
         stop-color="#c52828"
         id="stop12" />
      <stop
         stop-color="#ff5454"
         offset="1"
         id="stop14" />
    </linearGradient>
  </defs>
  <path
     d="m 24.284776,0.49152544 c -2.857763,0 -5.011948,1.03470676 -5.013619,2.40551956 l 0,1.7416407 c -0.04346,0.00139 -0.08858,0.0125 -0.130355,0.029166 L 15.902004,6.05672 C 15.763294,6.116441 15.647982,6.1983845 15.552722,6.2900498 14.73216,6.0094984 13.72108,5.8428342 12.589674,5.8428342 c -2.8560922,0 -5.0102778,1.0319291 -5.0102778,2.4027419 l 0,1.4833112 C 7.3989061,9.7330473 7.218416,9.7608313 7.0512957,9.8372184 L 0.86616017,12.628843 c -0.21391415,0.09583 -0.35763806,0.24583 -0.46292381,0.412494 -0.0300819,0.0375 -0.0484656,0.07361 -0.071862,0.113889 -0.0200542,0.04722 -0.033424,0.09306 -0.0451222,0.141665 -0.0334244,0.09167 -0.0885742,0.177775 -0.0885742,0.276384 l 0,22.628829 c 0,0.354162 0.23062643,0.681934 0.60330581,0.856932 L 23.29375,47.5811 c 0.01504,0.007 0.03342,0.0042 0.04846,0.01107 0.15208,0.06389 0.315858,0.09999 0.482978,0.105555 0.0016,0 0.03176,0.01107 0.04846,0.01107 0.148737,0 0.285776,-0.05277 0.424486,-0.09722 0.05014,-0.01667 0.108623,-0.0097 0.157094,-0.03194 l 0.0066,-0.0028 c 0.0034,-1.38e-4 0.0066,-1.38e-4 0.01001,-0.0028 0.0034,-1.39e-4 0.0034,-0.0042 0.0066,-0.0056 L 47.173619,36.978316 c 0.37435,-0.173608 0.603306,-0.50277 0.603306,-0.856932 l 0.0234,-22.506607 c 0,-0.348606 -0.2206,-0.673601 -0.584922,-0.848599 -0.03844,-0.01944 -0.0869,-0.01528 -0.127012,-0.02917 -0.05348,-0.03473 -0.09192,-0.07777 -0.15375,-0.105554 L 40.746159,9.8399967 c -0.02674,-0.0125 -0.05514,-0.011109 -0.08188,-0.022222 l 0,-1.5874762 c 0,-1.3722017 -2.154184,-2.4055196 -5.010276,-2.4055196 -1.213296,0 -2.28454,0.1930527 -3.133512,0.5124923 -0.0585,-0.038888 -0.106959,-0.086109 -0.175478,-0.1166649 L 29.400339,4.9567364 c -0.03342,-0.00139 -0.0702,-0.0125 -0.105282,-0.025 l 0,-2.0346918 c 0,-1.3722017 -2.154186,-2.40551958 -5.010277,-2.40551958 M 21.045978,4.7456285 c 0.864014,0.3444392 1.973695,0.5527695 3.238798,0.5527695 1.263432,0 2.371442,-0.2097191 3.235456,-0.5527695 l 0,2.7263481 c 0,0.2847179 -1.221652,0.9305416 -3.235456,0.9305416 -2.013804,0 -3.238798,-0.6458237 -3.238798,-0.9305416 l 0,-2.7263481 m -1.776492,2.0805244 0,0.6458237 c 0,1.3708128 2.155856,2.4027418 5.013619,2.4027418 2.859434,0 5.011948,-1.031929 5.010277,-2.4027418 l 0,-0.347217 1.438908,0.6180462 c -0.06184,0.1569421 -0.09526,0.3194397 -0.09526,0.4888816 l 0,4.5735436 c 0,1.370813 2.155856,2.402741 5.01362,2.402741 2.857762,0 5.011948,-1.031928 5.010276,-2.402741 l 0,-0.765267 3.509534,1.587476 -20.29346,9.442914 -20.1213251,-9.502635 3.8287339,-1.73053 0,0.984708 c 0,1.370813 2.1541856,2.40552 5.0102772,2.40552 2.856092,0 5.010277,-1.034707 5.010277,-2.40552 l 0,-4.5735432 c 0,-0.2208299 -0.07354,-0.4291602 -0.178819,-0.6291572 l 1.850025,-0.7916549 m 13.144039,3.2527293 c 0.862342,0.344439 1.973694,0.555547 3.238798,0.555547 1.263432,0 2.371442,-0.212497 3.235455,-0.555547 l 0,2.726348 c 0,0.26944 -1.133077,0.927764 -3.235455,0.927764 -2.013804,0 -3.238798,-0.643046 -3.238798,-0.927764 l 0,-2.726348 m -23.0643197,0.01667 c 0.8640127,0.344439 1.9736947,0.555547 3.2387977,0.555547 1.261761,0 2.371442,-0.209719 3.235455,-0.552769 l 0,2.72357 c 0,0.26944 -1.133077,0.930542 -3.235455,0.930542 -2.102378,0 -3.2387977,-0.661102 -3.2387977,-0.930542 l 0,-2.726348 m 14.8586957,1.001374 c -2.856092,0 -5.013619,1.034706 -5.013619,2.405519 l 0,4.573543 c 0,1.370813 2.157527,2.405519 5.013619,2.405519 2.856092,0 5.006934,-1.034706 5.006934,-2.405519 l 0,-4.573543 c 0,-1.370813 -2.150842,-2.405519 -5.006934,-2.405519 m -3.238798,4.252714 c 0.864014,0.34444 1.973695,0.555548 3.238798,0.555548 1.261761,0 2.369771,-0.20972 3.232113,-0.55277 l 0,2.723571 c 0,0.26944 -1.129735,0.930541 -3.232113,0.930541 -2.013804,0 -3.238798,-0.645823 -3.238798,-0.930541 l 0,-2.726349"
     id="path18"
     style="fill:#ff2a2a"
     inkscape:connector-curvature="0" />
</svg>
