<?xml version="1.0" encoding="UTF-8" standalone="no"?>
<svg
   xmlns:dc="http://purl.org/dc/elements/1.1/"
   xmlns:cc="http://creativecommons.org/ns#"
   xmlns:rdf="http://www.w3.org/1999/02/22-rdf-syntax-ns#"
   xmlns:svg="http://www.w3.org/2000/svg"
   xmlns="http://www.w3.org/2000/svg"
   xmlns:sodipodi="http://sodipodi.sourceforge.net/DTD/sodipodi-0.dtd"
   xmlns:inkscape="http://www.inkscape.org/namespaces/inkscape"
   width="48"
   viewBox="0 0 13.546667 13.546667"
   height="48"
   id="svg2"
   version="1.1"
   inkscape:version="0.91 r13725"
   sodipodi:docname="ms-powerpoint.svg">
  <metadata
     id="metadata42">
    <rdf:RDF>
      <cc:Work
         rdf:about="">
        <dc:format>image/svg+xml</dc:format>
        <dc:type
           rdf:resource="http://purl.org/dc/dcmitype/StillImage" />
        <dc:title></dc:title>
      </cc:Work>
    </rdf:RDF>
  </metadata>
  <sodipodi:namedview
     pagecolor="#ffffff"
     bordercolor="#666666"
     borderopacity="1"
     objecttolerance="10"
     gridtolerance="10"
     guidetolerance="10"
     inkscape:pageopacity="0"
     inkscape:pageshadow="2"
     inkscape:window-width="1280"
     inkscape:window-height="694"
     id="namedview40"
     showgrid="false"
     inkscape:zoom="4.9166667"
     inkscape:cx="-6.4067797"
     inkscape:cy="24"
     inkscape:window-x="0"
     inkscape:window-y="0"
     inkscape:window-maximized="1"
     inkscape:current-layer="svg2" />
  <defs
     id="defs4">
    <linearGradient
       id="3"
       x1="-85.16"
       y1="16.13"
       x2="-81.11"
       y2="-11.614"
       gradientUnits="userSpaceOnUse"
       gradientTransform="matrix(0.18741,0,0,0.18741,19.967,6.475)">
      <stop
         stop-color="#fbcdc3"
         id="stop7" />
      <stop
         offset="1"
         stop-color="#f8feff"
         id="stop9" />
    </linearGradient>
    <linearGradient
       id="2"
       gradientUnits="userSpaceOnUse"
       y1="32.738"
       x2="0"
       y2="-34.996"
       gradientTransform="matrix(0.18741,0,0,0.18741,80.34488,6.4560716)">
      <stop
         stop-color="#b8462b"
         id="stop12" />
      <stop
         offset="1"
         stop-color="#f26949"
         id="stop14" />
    </linearGradient>
    <linearGradient
       id="0"
       gradientUnits="userSpaceOnUse"
       y1="29.814"
       x2="0"
       y2="-26.63"
       gradientTransform="matrix(0.3777709,0,0,0.2408724,27.266052,6.373662)">
      <stop
         stop-color="#f7f7f7"
         id="stop17" />
      <stop
         offset="1"
         stop-color="#fcfdfc"
         id="stop19" />
    </linearGradient>
    <linearGradient
       id="1"
       x1="-188.69"
       y1="85.1"
       x2="-189.7"
       y2="-66.58"
       gradientUnits="userSpaceOnUse"
       gradientTransform="matrix(0.1066145,0,0,0.06797901,27.266052,6.373662)">
      <stop
         stop-color="#29292b"
         id="stop22" />
      <stop
         offset="1"
         stop-color="#3f3f3f"
         id="stop24" />
    </linearGradient>
  </defs>
  <rect
     width="13.327757"
     height="13.448147"
     x="0.13681147"
     y="0.10616204"
     mix-blend-mode="normal"
     isolation="auto"
     rx="0.53303474"
     id="rect30"
     style="color:#000000;isolation:auto;mix-blend-mode:normal;color-interpolation:sRGB;color-interpolation-filters:linearRGB;solid-color:#000000;solid-opacity:1;fill:#f4d7d7;fill-rule:evenodd;stroke-width:1;color-rendering:auto;image-rendering:auto;shape-rendering:auto" />
  <path
     d="m 7.0796626,1.9680103 c 6.397e-4,0 6.397e-4,1.9815882 0,1.9815882 l 3.1110114,0 c 0,-1.0951419 -1.3923857,-1.9815882 -3.1110114,-1.9815882 M 6.2051038,2.5069479 c -1.7175596,0 -3.1088788,0.8878059 -3.1088788,1.9836275 0,1.0965015 1.3913192,1.9836276 3.1088788,1.9836276 1.7186258,0 3.1110111,-0.8871261 3.1110111,-1.9836276 l -3.1110111,0 0,-1.9836275 m 3.4972755,4.0755456 0,3.1063009 1.0644387,0 0,-3.1063009 -1.0644387,0 m -1.5557188,0.7309103 0,2.3753906 0.9826658,0 0,-2.3753906 -0.9826658,0 m -1.7604186,0.6525985 0,1.7228601 1.0234992,0 0,-1.7228601 -1.0234992,0 m -1.5967654,0.8092222 0,0.9135699 1.0234992,0 0,-0.9135699 -1.0234992,0 m -0.7573894,1.5662365 0,0.574355 6.5913349,0 0,-0.574355 -6.5913349,0 m 0,1.148573 0,0.574355 6.5913349,0 0,-0.574355 -6.5913349,0"
     mix-blend-mode="normal"
     isolation="auto"
     id="path32"
     style="color:#000000;isolation:auto;mix-blend-mode:normal;color-interpolation:sRGB;color-interpolation-filters:linearRGB;solid-color:#000000;solid-opacity:1;fill:#d35f5f;fill-rule:evenodd;color-rendering:auto;image-rendering:auto;shape-rendering:auto"
     inkscape:connector-curvature="0" />
  <path
     d="M 9.7447184,6.597053 C 8.7179937,6.609939 7.6497743,6.7219283 6.6840505,6.694751 c -0.042558,2.2266816 -0.035465,4.456174 -0.0032,6.681918 0.7043438,0.03327 1.4122334,0.06888 2.1165786,0.104262 -3.482e-4,-0.815092 -3.03e-5,-1.630182 0.00322,-2.445508 0.878478,0.01664 1.803772,0.04991 2.610965,-0.191883 2.272981,-0.652494 2.678706,-2.6580064 1.145534,-3.7483869 C 11.756673,6.6708539 10.773216,6.5844013 9.7447184,6.597053 M 9.6262732,7.8050464 c 0.4670798,0.00726 0.9171358,0.068413 1.2125638,0.3094956 0.405369,0.4085999 0.384091,0.9465271 0.0461,1.3677785 C 10.479567,9.9117713 9.5613658,9.8700692 8.8534762,9.920206 8.7786507,9.2217912 8.7860878,8.5231419 8.7967231,7.8226181 9.0595224,7.8155881 9.3457288,7.8005941 9.625906,7.8050461"
     id="path38"
     style="fill:#c83737"
     inkscape:connector-curvature="0" />
</svg>
