<?xml version="1.0" encoding="UTF-8" standalone="no"?>
<svg
   xmlns:dc="http://purl.org/dc/elements/1.1/"
   xmlns:cc="http://creativecommons.org/ns#"
   xmlns:rdf="http://www.w3.org/1999/02/22-rdf-syntax-ns#"
   xmlns:svg="http://www.w3.org/2000/svg"
   xmlns="http://www.w3.org/2000/svg"
   xmlns:sodipodi="http://sodipodi.sourceforge.net/DTD/sodipodi-0.dtd"
   xmlns:inkscape="http://www.inkscape.org/namespaces/inkscape"
   viewBox="0 0 48 48"
   id="svg2"
   version="1.1"
   inkscape:version="0.91 r13725"
   sodipodi:docname="mysms.svg">
  <metadata
     id="metadata28">
    <rdf:RDF>
      <cc:Work
         rdf:about="">
        <dc:format>image/svg+xml</dc:format>
        <dc:type
           rdf:resource="http://purl.org/dc/dcmitype/StillImage" />
        <dc:title></dc:title>
      </cc:Work>
    </rdf:RDF>
  </metadata>
  <sodipodi:namedview
     pagecolor="#ffffff"
     bordercolor="#666666"
     borderopacity="1"
     objecttolerance="10"
     gridtolerance="10"
     guidetolerance="10"
     inkscape:pageopacity="0"
     inkscape:pageshadow="2"
     inkscape:window-width="1280"
     inkscape:window-height="694"
     id="namedview26"
     showgrid="false"
     inkscape:zoom="4.9166667"
     inkscape:cx="-9.1525424"
     inkscape:cy="24"
     inkscape:window-x="0"
     inkscape:window-y="0"
     inkscape:window-maximized="1"
     inkscape:current-layer="svg2" />
  <defs
     id="defs4">
    <clipPath
       id="1">
      <path
         fill="#1890d0"
         transform="matrix(15.33333 0 0 11.5 415-125.5)"
         d="m-24 13c0 1.105-.672 2-1.5 2-.828 0-1.5-.895-1.5-2 0-1.105.672-2 1.5-2 .828 0 1.5.895 1.5 2"
         id="path7" />
    </clipPath>
    <linearGradient
       id="0"
       x1="33.749"
       y1="46.44"
       x2="33.769"
       y2="22.749"
       gradientUnits="userSpaceOnUse"
       gradientTransform="matrix(1.71427,0,0,1.9117439,-34.21,-42.993693)">
      <stop
         stop-color="#1074f5"
         id="stop10" />
      <stop
         offset="1"
         stop-color="#02befd"
         id="stop12" />
    </linearGradient>
  </defs>
  <path
     inkscape:connector-curvature="0"
     style="fill:#0066ff"
     id="path16"
     d="M 7.0867643,6.6676763 C 11.612437,2.5593388 17.620953,0.29774579 24.006609,0.29774579 c 6.385656,0 12.395887,2.26159301 16.919845,6.36993051 4.565101,4.1427497 7.079935,9.6657777 7.079935,15.5482137 0,5.614791 -2.291979,10.900763 -6.469655,14.972777 0.07543,0.189262 0.135428,0.388084 0.173141,0.596464 l 1.373131,7.530359 c 0.162855,0.894696 -0.05657,1.428073 -0.269141,1.718658 -0.24514,0.334555 -0.61028,0.519994 -1.025133,0.519994 -0.313711,0 -0.651423,-0.103231 -1.002848,-0.30779 l -7.98507,-4.626422 c -2.765117,0.992197 -5.735947,1.51219 -8.794205,1.51219 -6.385656,0 -12.394172,-2.261592 -16.921559,-6.36993 -4.565101,-4.14275 -7.07993507,-9.654306 -7.07993507,-15.548214 0,-5.884347 2.51483407,-11.405462 7.07822087,-15.5482115" />
  <g
     id="g18"
     transform="matrix(0.81969946,0,0,1.6676271,16.446281,-0.57704302)"
     clip-path="url(#1)"
     style="fill:#5599ff">
    <g
       style="fill:#5599ff;fill-opacity:0.85"
       id="g20">
      <path
         inkscape:connector-curvature="0"
         id="path22"
         d="m 30.375,15 c 0.883,0 1.105,0.441 1.375,2.969 0.238,2.211 0.652,4.68 0.844,4.875 0.145,0.145 0.23,0.145 0.344,0 0.223,-0.281 1.453,-3.418 1.938,-4.938 0.5,-1.566 0.996,-2.27 1.844,-2.656 0.68,-0.309 1.082,-0.313 1.313,-0.031 0.242,0.293 -0.219,1.695 -1.25,4.03 -2.203,4.969 -4.477,7.949 -7.125,9.281 -0.977,0.492 -1.969,0.629 -1.969,0.281 0,-0.441 0.449,-1.445 0.816,-1.816 0.219,-0.223 0.73,-0.605 1.188,-0.844 0.449,-0.238 0.859,-0.488 0.906,-0.563 0.047,-0.074 -0.191,-0.66 -0.566,-1.316 -0.758,-1.328 -1.25,-2.371 -1.688,-3.781 -0.34,-1.07 -0.414,-3.01 -0.156,-3.934 0.262,-0.945 1.129,-1.566 2.191,-1.566"
         style="fill:#5599ff" />
      <path
         inkscape:connector-curvature="0"
         id="path24"
         d="m 19.681,15.06 c 0.41,-0.055 0.766,0.102 1.063,0.438 0.609,0.684 0.613,1.105 0.066,2.816 -0.273,0.824 -0.5,1.602 -0.5,1.688 0,0.391 0.488,0.031 2.125,-1.598 1.914,-1.898 2.32,-2.133 3.063,-1.75 0.723,0.375 0.746,0.867 0.406,3.938 -0.293,2.652 -0.297,2.695 -0.063,4.066 0.313,1.852 0.324,1.867 -0.066,2.156 -0.758,0.551 -1.793,0.426 -2.563,-0.316 -0.902,-0.863 -0.984,-1.191 -0.996,-5.152 0,-0.332 -0.527,0.105 -2.16,1.75 -1.012,1.016 -2.023,1.926 -2.219,2.027 -0.574,0.309 -1.113,0.238 -1.598,-0.188 -0.629,-0.566 -0.676,-1.23 -0.152,-2.844 0.227,-0.711 0.41,-1.367 0.375,-1.406 -0.145,-0.148 -0.59,0.27 -2.25,2.094 -1.887,2.066 -2.289,2.406 -3,2.406 -0.902,0 -1.469,-1.039 -1.281,-2.375 0.188,-1.398 1.676,-5.297 2.5,-6.594 0.672,-1.066 2.039,-1.41 2.656,-0.656 0.328,0.402 0.215,1.059 -0.406,2.844 -0.586,1.699 -0.457,1.855 0.598,0.656 0.418,-0.48 1.254,-1.398 1.816,-2.031 1.063,-1.207 1.902,-1.871 2.594,-1.969"
         style="fill:#5599ff" />
    </g>
  </g>
</svg>
