<?xml version="1.0" encoding="UTF-8" standalone="no"?>
<svg
   xmlns:dc="http://purl.org/dc/elements/1.1/"
   xmlns:cc="http://creativecommons.org/ns#"
   xmlns:rdf="http://www.w3.org/1999/02/22-rdf-syntax-ns#"
   xmlns:svg="http://www.w3.org/2000/svg"
   xmlns="http://www.w3.org/2000/svg"
   xmlns:sodipodi="http://sodipodi.sourceforge.net/DTD/sodipodi-0.dtd"
   xmlns:inkscape="http://www.inkscape.org/namespaces/inkscape"
   viewBox="0 0 48 48"
   id="svg2"
   version="1.1"
   inkscape:version="0.91 r13725"
   sodipodi:docname="newsblur.svg">
  <metadata
     id="metadata21">
    <rdf:RDF>
      <cc:Work
         rdf:about="">
        <dc:format>image/svg+xml</dc:format>
        <dc:type
           rdf:resource="http://purl.org/dc/dcmitype/StillImage" />
        <dc:title></dc:title>
      </cc:Work>
    </rdf:RDF>
  </metadata>
  <sodipodi:namedview
     pagecolor="#ffffff"
     bordercolor="#666666"
     borderopacity="1"
     objecttolerance="10"
     gridtolerance="10"
     guidetolerance="10"
     inkscape:pageopacity="0"
     inkscape:pageshadow="2"
     inkscape:window-width="1280"
     inkscape:window-height="694"
     id="namedview19"
     showgrid="false"
     inkscape:zoom="4.9166667"
     inkscape:cx="-9.1525424"
     inkscape:cy="24"
     inkscape:window-x="0"
     inkscape:window-y="0"
     inkscape:window-maximized="1"
     inkscape:current-layer="svg2" />
  <defs
     id="defs4">
    <clipPath
       id="clipPath6">
      <path
         transform="matrix(15.33333 0 0 11.5 415-125.5)"
         d="m-24 13c0 1.105-.672 2-1.5 2-.828 0-1.5-.895-1.5-2 0-1.105.672-2 1.5-2 .828 0 1.5.895 1.5 2"
         fill="#1890d0"
         id="path8" />
    </clipPath>
    <linearGradient
       id="0"
       gradientUnits="userSpaceOnUse"
       x1="24.61"
       y1="47.593"
       x2="23.593"
       y2="-.203">
      <stop
         stop-color="#ff433a"
         id="stop11" />
      <stop
         stop-color="#ff9436"
         offset="1"
         id="stop13" />
    </linearGradient>
  </defs>
  <path
     d="M 24.096397,0.52542373 22.804692,3.5369822 c 0.429328,-0.027299 0.854932,-0.063283 1.291705,-0.063283 0.436772,0 0.862378,0.035985 1.291705,0.063283 L 24.096397,0.52542373 m 0,4.21022567 c -0.621657,0 -1.237109,0.037226 -1.845116,0.095546 l -0.965367,2.2571177 c 0.915733,-0.1489027 1.85132,-0.2481713 2.810483,-0.2481713 0.959162,0 1.894749,0.099268 2.810482,0.2481713 L 25.941512,4.8311954 c -0.608007,-0.05832 -1.222218,-0.095546 -1.845115,-0.095546 m -16.6593974,2.7001035 -0.00619,0.00621 1.2073286,3.0165211 C 9.2051835,9.8157154 9.8107095,9.2052141 10.45346,8.6431062 L 7.4369996,7.4357529 m 33.3200344,0 -3.01646,1.2073533 c 0.642752,0.5670713 1.25324,1.1726092 1.815336,1.8153728 l 1.20857,-3.0165218 -0.0062,-0.00621 M 24.098878,8.7361704 c -1.283019,0 -2.52385,0.172479 -3.716289,0.466562 l -1.085727,2.5301066 c 1.492719,-0.568313 3.107041,-0.890935 4.802016,-0.890935 1.694975,0 3.309297,0.322622 4.802016,0.890935 L 27.815167,9.2027324 c -1.193679,-0.294083 -2.43451,-0.466562 -3.716289,-0.466562 M 11.777426,9.1729519 C 10.828191,9.9584139 9.9546452,10.830736 9.1704397,11.779991 l 0.9095293,2.269527 c 1.098135,-1.529976 2.438233,-2.870102 3.968178,-3.968259 l -2.26948,-0.909548 m 24.642904,0 -2.26948,0.909548 c 1.529945,1.098157 2.870042,2.438283 3.968178,3.968259 l 0.909529,-2.269527 C 38.244352,10.830736 37.372048,9.957173 36.422812,9.1729519 M 16.168727,10.931245 c -2.142915,1.274359 -3.950806,3.04258 -5.27105,5.154518 l 1.007555,2.520179 c 1.387249,-2.965647 3.813074,-5.341887 6.82333,-6.64975 l -2.559835,-1.026188 m 15.865266,0 -2.559835,1.026188 c 3.010256,1.307863 5.436081,3.684103 6.82333,6.64975 l 1.007555,-2.520179 c -1.320244,-2.111938 -3.129375,-3.880159 -5.27105,-5.154518 z m -7.932633,1.59326 c -6.51064,0 -11.786654,5.276121 -11.786654,11.786895 0,6.510773 5.276014,11.789376 11.786654,11.789376 6.51064,0 11.786654,-5.279844 11.786654,-11.789376 0,-6.510774 -5.276014,-11.786895 -11.786654,-11.786895 m -12.519985,6.844564 -2.5499081,1.090713 c -0.3164115,1.234651 -0.5025365,2.518939 -0.5025365,3.851618 0,1.161441 0.1377321,2.28938 0.3796943,3.378852 l 2.4940703,1.067137 c -0.485165,-1.392242 -0.765593,-2.884992 -0.765593,-4.445989 0,-1.748366 0.344952,-3.411114 0.947995,-4.942331 m 25.052379,0 c 0.603043,1.531217 0.947995,3.193965 0.947995,4.942331 0,1.560997 -0.279187,3.053747 -0.765593,4.445989 l 2.49407,-1.067137 c 0.241962,-1.089472 0.379695,-2.217411 0.379695,-3.378852 0,-1.332679 -0.186125,-2.615725 -0.502537,-3.851618 L 36.641198,19.367828 M 7.1032156,21.289915 4.846144,22.255301 c -0.058319,0.608019 -0.095544,1.222244 -0.095544,1.845153 0,0.621669 0.037225,1.237134 0.095544,1.845153 l 2.2570716,0.965386 C 6.9543158,25.995241 6.8550497,25.059636 6.8550497,24.100454 c 0,-0.959182 0.099269,-1.894787 0.2481659,-2.810539 m 34.0260684,0 c 0.1489,0.915752 0.248166,1.851357 0.248166,2.810539 0,0.959182 -0.09927,1.894787 -0.248166,2.810539 l 2.257072,-0.965386 c 0.05832,-0.608019 0.09555,-1.222243 0.09555,-1.845153 0,-0.621669 -0.03722,-1.237134 -0.09555,-1.845153 L 41.129284,21.289915 M 3.5569207,22.808722 0.54542373,24.100454 3.5569207,25.392186 c -0.027298,-0.429336 -0.063283,-0.85495 -0.063283,-1.291732 0,-0.436782 0.035985,-0.862396 0.063283,-1.291732 m 41.1335483,0 c 0.0273,0.429336 0.06329,0.85495 0.06329,1.291732 0,0.436782 -0.03599,0.862396 -0.06329,1.291732 l 3.011497,-1.291732 -3.011497,-1.291732 m -32.853483,7.017044 -1.016241,2.541273 c 1.240831,2.047414 2.93953,3.783372 4.95712,5.07138 l 2.494071,-1.00137 c -2.85143,-1.37487 -5.142004,-3.715125 -6.439913,-6.611283 m 24.57714,0 c -1.297909,2.894917 -3.588483,5.235173 -6.439913,6.611283 l 2.49407,1.00137 c 2.017591,-1.288008 3.712567,-3.023966 4.957121,-5.07138 L 36.4042,29.825766 m -26.305618,4.326865 -0.9095291,2.269527 c 0.7854462,0.949255 1.6577501,1.822818 2.6069861,2.60704 l 2.26948,-0.909549 C 12.535574,37.021492 11.195477,35.681367 10.097341,34.15139 m 28.040299,0 c -1.098134,1.529977 -2.438232,2.870102 -3.968177,3.968259 l 2.26948,0.909549 c 0.949235,-0.785463 1.822781,-1.657785 2.606985,-2.60704 l -0.909529,-2.269527 m -18.60626,2.816744 1.073319,2.50653 c 1.130396,0.261821 2.304222,0.415687 3.512792,0.415687 1.209811,0 2.382395,-0.153866 3.512792,-0.415687 l 1.073319,-2.50653 c -1.433159,0.517438 -2.973031,0.812762 -4.586111,0.812762 -1.614321,0 -3.154193,-0.295324 -4.586111,-0.812762 m -10.8709209,0.774294 -1.2085694,3.016523 0.00619,0.0062 3.0164602,-1.208594 C 9.8305457,38.990727 9.2200568,38.385189 8.6579608,37.742426 m 30.9165452,0 c -0.567059,0.642763 -1.172585,1.253264 -1.815335,1.815372 l 3.01646,1.208594 0.0062,-0.0062 -1.207329,-3.016523 m -18.268755,3.370167 0.965368,2.257118 c 0.608006,0.05832 1.222218,0.09555 1.845115,0.09555 0.621656,0 1.237109,-0.03722 1.845115,-0.09555 L 26.9267,41.113836 c -0.915734,0.148902 -1.851321,0.248171 -2.810483,0.248171 -0.959162,0 -1.894749,-0.09927 -2.810483,-0.248171 m 1.518777,3.552572 1.291706,3.011558 1.291705,-3.011558 c -0.429328,0.0273 -0.854932,0.06328 -1.291705,0.06328 -0.436773,0 -0.862378,-0.03599 -1.291706,-0.06328"
     id="path17"
     style="color:#bebebe;fill:#ff7f2a"
     inkscape:connector-curvature="0" />
</svg>
