<?xml version="1.0" encoding="UTF-8" standalone="no"?>
<svg
   xmlns:dc="http://purl.org/dc/elements/1.1/"
   xmlns:cc="http://creativecommons.org/ns#"
   xmlns:rdf="http://www.w3.org/1999/02/22-rdf-syntax-ns#"
   xmlns:svg="http://www.w3.org/2000/svg"
   xmlns="http://www.w3.org/2000/svg"
   xmlns:sodipodi="http://sodipodi.sourceforge.net/DTD/sodipodi-0.dtd"
   xmlns:inkscape="http://www.inkscape.org/namespaces/inkscape"
   viewBox="0 0 48 48"
   id="svg2"
   version="1.1"
   inkscape:version="0.91 r13725"
   sodipodi:docname="nvidia-current-settings.svg">
  <metadata
     id="metadata17">
    <rdf:RDF>
      <cc:Work
         rdf:about="">
        <dc:format>image/svg+xml</dc:format>
        <dc:type
           rdf:resource="http://purl.org/dc/dcmitype/StillImage" />
        <dc:title></dc:title>
      </cc:Work>
    </rdf:RDF>
  </metadata>
  <sodipodi:namedview
     pagecolor="#ffffff"
     bordercolor="#666666"
     borderopacity="1"
     objecttolerance="10"
     gridtolerance="10"
     guidetolerance="10"
     inkscape:pageopacity="0"
     inkscape:pageshadow="2"
     inkscape:window-width="1280"
     inkscape:window-height="694"
     id="namedview15"
     showgrid="false"
     inkscape:zoom="4.9166667"
     inkscape:cx="-9.1525424"
     inkscape:cy="24"
     inkscape:window-x="0"
     inkscape:window-y="0"
     inkscape:window-maximized="1"
     inkscape:current-layer="svg2" />
  <defs
     id="defs4">
    <linearGradient
       gradientTransform="matrix(.49433 0 0 .4778 86.64 13.1)"
       gradientUnits="userSpaceOnUse"
       y2="-26.05"
       x2="-125.19"
       y1="73.5"
       x1="-123.97"
       id="0">
      <stop
         stop-color="#5dae33"
         id="stop7" />
      <stop
         offset="1"
         stop-color="#9be058"
         id="stop9" />
    </linearGradient>
  </defs>
  <path
     d="m 5.3296353,20.69422 c 0,0 4.2664115,-9.594 12.7835077,-10.587508 l 0,-3.4802546 C 8.6772286,7.780593 0.50747458,19.962474 0.50747458,19.962474 c 0,0 4.62686262,20.391712 17.60566842,22.257764 l 0,-3.700374 C 8.5894095,36.693474 5.3296353,20.69422 5.3296353,20.69422 m 12.7835077,10.466542 0,3.389034 C 10.915948,32.594508 8.911849,21.188 8.911849,21.188 c 0,0 3.456383,-5.836118 9.201294,-6.782034 l 0,3.71822 c -0.004,0 -0.0066,0 -0.0092,0 -3.012049,-0.551288 -5.366112,3.738052 -5.366112,3.738052 0,0 1.323833,7.22227 5.376597,9.300508 m 0,-30.95542413 0,6.42111873 c 0.276563,-0.03173 0.554438,-0.059492 0.832312,-0.073372 10.725668,-0.5512882 17.715769,13.4093894 17.715769,13.4093894 0,0 -8.026885,14.878831 -16.389316,14.878831 -0.766774,0 -1.483741,-0.109063 -2.157453,-0.289526 l 0,3.966102 c 0.576718,0.111057 1.17441,0.176492 1.797004,0.176492 7.781779,0 13.410036,-6.058221 18.858723,-13.228932 0.90309,1.102576 4.601958,3.785644 5.363489,4.961592 -5.181298,6.611492 -17.257015,11.937966 -24.102936,11.937966 -0.659294,0 -1.293686,-0.06148 -1.91628,-0.152694 l 0,5.578322 29.579148,0 0,-47.59322037 -29.579148,0 z m 0,14.20062613 0,-4.299253 c 0.273942,-0.02578 0.550505,-0.05156 0.832312,-0.06544 7.71362,-0.3688479 12.774333,10.103644 12.774333,10.103644 0,0 -5.465727,11.571101 -11.325982,11.571101 -0.842797,0 -1.599085,-0.206237 -2.280663,-0.555254 l 0,-13.036576 c 3.002873,0.553271 3.607118,2.575983 5.411987,7.162779 l 4.014753,-5.159898 c 0,0 -2.930782,-5.859915 -7.877462,-5.859915 -0.537398,0 -1.051202,0.0575 -1.555832,0.138813"
     id="path13"
     style="fill:#2d5016;fill-opacity:1"
     inkscape:connector-curvature="0" />
</svg>
