<?xml version="1.0" encoding="UTF-8" standalone="no"?>
<!-- Generator: Adobe Illustrator 18.1.0, SVG Export Plug-In . SVG Version: 6.00 Build 0)  -->

<svg
   xmlns:dc="http://purl.org/dc/elements/1.1/"
   xmlns:cc="http://creativecommons.org/ns#"
   xmlns:rdf="http://www.w3.org/1999/02/22-rdf-syntax-ns#"
   xmlns:svg="http://www.w3.org/2000/svg"
   xmlns="http://www.w3.org/2000/svg"
   xmlns:sodipodi="http://sodipodi.sourceforge.net/DTD/sodipodi-0.dtd"
   xmlns:inkscape="http://www.inkscape.org/namespaces/inkscape"
   version="1.1"
   id="レイヤー_1"
   x="0px"
   y="0px"
   viewBox="631 351 18 18"
   enable-background="new 631 351 18 18"
   xml:space="preserve"
   inkscape:version="0.91 r13725"
   sodipodi:docname="octopi.svg"><metadata
     id="metadata17"><rdf:RDF><cc:Work
         rdf:about=""><dc:format>image/svg+xml</dc:format><dc:type
           rdf:resource="http://purl.org/dc/dcmitype/StillImage" /><dc:title></dc:title></cc:Work></rdf:RDF></metadata><defs
     id="defs15" /><sodipodi:namedview
     pagecolor="#ffffff"
     bordercolor="#666666"
     borderopacity="1"
     objecttolerance="10"
     gridtolerance="10"
     guidetolerance="10"
     inkscape:pageopacity="0"
     inkscape:pageshadow="2"
     inkscape:window-width="1280"
     inkscape:window-height="694"
     id="namedview13"
     showgrid="false"
     inkscape:zoom="13.111111"
     inkscape:cx="-17.809322"
     inkscape:cy="8.9999998"
     inkscape:window-x="0"
     inkscape:window-y="0"
     inkscape:window-maximized="1"
     inkscape:current-layer="レイヤー_1" /><g
     id="g3"
     style="fill:#87de87"><path
       fill="#FF6E00"
       d="M646.4,365.5c-0.5,0.3-0.9,0.4-1.3,0.4c-0.4,0-0.6-0.1-0.8-0.4c-0.4,0.3-1,0.5-1.6,0.5   c-1.1,0-2-0.5-2.5-1.5c-0.1-0.1-0.2-0.4-0.3-0.4l0,0v0c-0.1,0-0.2,0.3-0.3,0.4c-0.6,1-1.4,1.5-2.5,1.5c-0.6,0-1.2-0.2-1.6-0.5   c-0.1,0.3-0.4,0.4-0.8,0.4c-0.3,0-0.8-0.1-1.3-0.4c-0.3-0.2,0.2-0.8-0.8-1.4c-1.6,1.9-0.4,3.9,1.6,3.9c1.6,0,2-1.3,2-1.3   c0.3,0.1,0.5,0.5,0.5,0.9c-0.5,0.5-0.5,0.9-0.4,1.3c0.1,0,0.1,0,0.2,0c1.2,0,2.8-0.1,3.4-2c0.6,2,2.2,2,3.4,2c0.1,0,0.1,0,0.2,0   c0-0.3,0-0.8-0.4-1.3c0.1-0.5,0.2-0.8,0.5-0.9c0,0,0.4,1.3,2,1.3c2,0,3.2-1.9,1.6-3.9C646.3,364.7,646.8,365.3,646.4,365.5z"
       id="path5"
       style="fill:#87de87" /><path
       fill="#FF6E00"
       d="M640,351.1c-5.6,0.1-9.5,3-8.9,6.7c0.5,3.2,2.2,4.1,3.4,5.1c0,0,0,0,0,0c0-1.4,1.2-2.6,2.7-2.6   c1.4,0,2.1,0.7,2.5,1.6v0l0,0c0,0.1,0.2,0.3,0.3,0.3h0c0.1,0,0.2-0.2,0.3-0.3l0,0v0c0.4-0.9,1.1-1.6,2.5-1.6c1.5,0,2.7,1.2,2.7,2.6   c0,0,0,0,0,0c1.2-1,3-1.9,3.4-5.1C649.5,354,645.6,351.1,640,351.1z"
       id="path7"
       style="fill:#87de87" /><path
       fill="#FF6E00"
       d="M637.2,361c-1,0-1.8,0.8-1.8,1.8c0,1,0.8,1.8,1.8,1.8c1,0,1.8-0.8,1.8-1.8C639,361.9,638.2,361,637.2,361z    M637.2,363.3c-0.3,0-0.6-0.3-0.6-0.6c0-0.3,0.3-0.6,0.6-0.6c0.3,0,0.6,0.3,0.6,0.6C637.8,363.1,637.5,363.3,637.2,363.3z"
       id="path9"
       style="fill:#87de87" /><path
       fill="#FF6E00"
       d="M642.8,361c-1,0-1.9,0.8-1.9,1.9c0,1,0.8,1.9,1.9,1.9c1,0,1.9-0.8,1.9-1.9C644.7,361.9,643.9,361,642.8,361   z M642.8,363.3c-0.3,0-0.6-0.3-0.6-0.6c0-0.3,0.3-0.6,0.6-0.6c0.3,0,0.6,0.3,0.6,0.6C643.4,363.1,643.1,363.3,642.8,363.3z"
       id="path11"
       style="fill:#87de87" /></g></svg>