<?xml version="1.0" encoding="UTF-8" standalone="no"?>
<!-- Generator: Adobe Illustrator 19.0.0, SVG Export Plug-In . SVG Version: 6.00 Build 0)  -->

<svg
   xmlns:dc="http://purl.org/dc/elements/1.1/"
   xmlns:cc="http://creativecommons.org/ns#"
   xmlns:rdf="http://www.w3.org/1999/02/22-rdf-syntax-ns#"
   xmlns:svg="http://www.w3.org/2000/svg"
   xmlns="http://www.w3.org/2000/svg"
   xmlns:sodipodi="http://sodipodi.sourceforge.net/DTD/sodipodi-0.dtd"
   xmlns:inkscape="http://www.inkscape.org/namespaces/inkscape"
   version="1.1"
   id="Capa_1"
   x="0px"
   y="0px"
   viewBox="0 0 58 58"
   style="enable-background:new 0 0 58 58;"
   xml:space="preserve"
   inkscape:version="0.91 r13725"
   sodipodi:docname="office-calendar.svg"><metadata
     id="metadata75"><rdf:RDF><cc:Work
         rdf:about=""><dc:format>image/svg+xml</dc:format><dc:type
           rdf:resource="http://purl.org/dc/dcmitype/StillImage" /><dc:title></dc:title></cc:Work></rdf:RDF></metadata><defs
     id="defs73" /><sodipodi:namedview
     pagecolor="#ffffff"
     bordercolor="#666666"
     borderopacity="1"
     objecttolerance="10"
     gridtolerance="10"
     guidetolerance="10"
     inkscape:pageopacity="0"
     inkscape:pageshadow="2"
     inkscape:window-width="1280"
     inkscape:window-height="694"
     id="namedview71"
     showgrid="false"
     inkscape:zoom="4.0689655"
     inkscape:cx="-11.059322"
     inkscape:cy="29"
     inkscape:window-x="0"
     inkscape:window-y="0"
     inkscape:window-maximized="1"
     inkscape:current-layer="Capa_1" /><polygon
     style="fill:#26B99A;"
     points="42,5 16,5 1,5 1,18 57,18 57,5 "
     id="polygon3" /><circle
     style="fill:#38454F;"
     cx="20"
     cy="9"
     r="2"
     id="circle5" /><circle
     style="fill:#38454F;"
     cx="26"
     cy="9"
     r="2"
     id="circle7" /><circle
     style="fill:#38454F;"
     cx="32"
     cy="9"
     r="2"
     id="circle9" /><circle
     style="fill:#38454F;"
     cx="38"
     cy="9"
     r="2"
     id="circle11" /><path
     style="fill:#AFB6BB;"
     d="M38,0c-1.13,0-2.162,0.391-3,1.025c0.534,0.405,0.979,0.912,1.315,1.495C36.796,2.192,37.376,2,38,2  c1.654,0,3,1.346,3,3s-1.346,3-3,3c-0.553,0-1,0.447-1,1s0.447,1,1,1c2.757,0,5-2.243,5-5S40.757,0,38,0z"
     id="path13" /><path
     style="fill:#839594;"
     d="M33.685,2.52C33.261,3.254,33,4.093,33,5h2C35,3.97,34.478,3.061,33.685,2.52z"
     id="path15" /><path
     style="fill:#839594;"
     d="M27.685,2.52C27.261,3.254,27,4.093,27,5h2C29,3.97,28.478,3.061,27.685,2.52z"
     id="path17" /><path
     style="fill:#AFB6BB;"
     d="M36.315,2.52C35.979,1.937,35.534,1.43,35,1.025C34.162,0.391,33.13,0,32,0s-2.162,0.391-3,1.025  c0.534,0.405,0.979,0.912,1.315,1.495C30.796,2.192,31.376,2,32,2s1.204,0.192,1.685,0.52C34.478,3.061,35,3.97,35,5  c0,1.654-1.346,3-3,3c-0.553,0-1,0.447-1,1s0.447,1,1,1c2.757,0,5-2.243,5-5C37,4.093,36.739,3.254,36.315,2.52z"
     id="path19" /><path
     style="fill:#839594;"
     d="M21.685,2.52C21.261,3.254,21,4.093,21,5h2C23,3.97,22.478,3.061,21.685,2.52z"
     id="path21" /><path
     style="fill:#AFB6BB;"
     d="M30.315,2.52C29.979,1.937,29.534,1.43,29,1.025C28.162,0.391,27.13,0,26,0s-2.162,0.391-3,1.025  c0.534,0.405,0.979,0.912,1.315,1.495C24.796,2.192,25.376,2,26,2s1.204,0.192,1.685,0.52C28.478,3.061,29,3.97,29,5  c0,1.654-1.346,3-3,3c-0.553,0-1,0.447-1,1s0.447,1,1,1c2.757,0,5-2.243,5-5C31,4.093,30.739,3.254,30.315,2.52z"
     id="path23" /><path
     style="fill:#AFB6BB;"
     d="M24.315,2.52C23.979,1.937,23.534,1.43,23,1.025C22.162,0.391,21.13,0,20,0c-2.757,0-5,2.243-5,5h2  c0-1.654,1.346-3,3-3c0.624,0,1.204,0.192,1.685,0.52C22.478,3.061,23,3.97,23,5c0,1.654-1.346,3-3,3c-0.553,0-1,0.447-1,1  s0.447,1,1,1c2.757,0,5-2.243,5-5C25,4.093,24.739,3.254,24.315,2.52z"
     id="path25" /><rect
     x="1"
     y="18"
     style="fill:#EDEADA;"
     width="56"
     height="40"
     id="rect27" /><circle
     style="fill:#CEC9AE;"
     cx="13"
     cy="29"
     r="5"
     id="circle29" /><circle
     style="fill:#CEC9AE;"
     cx="29"
     cy="29"
     r="5"
     id="circle31" /><circle
     style="fill:#CEC9AE;"
     cx="45"
     cy="29"
     r="5"
     id="circle33" /><circle
     style="fill:#CEC9AE;"
     cx="13"
     cy="45"
     r="5"
     id="circle35" /><circle
     style="fill:#CEC9AE;"
     cx="29"
     cy="45"
     r="5"
     id="circle37" /><circle
     style="fill:#26B99A;"
     cx="45"
     cy="45"
     r="5"
     id="circle39" /><g
     id="g41" /><g
     id="g43" /><g
     id="g45" /><g
     id="g47" /><g
     id="g49" /><g
     id="g51" /><g
     id="g53" /><g
     id="g55" /><g
     id="g57" /><g
     id="g59" /><g
     id="g61" /><g
     id="g63" /><g
     id="g65" /><g
     id="g67" /><g
     id="g69" /></svg>