<?xml version="1.0" encoding="UTF-8" standalone="no"?>
<svg
   xmlns:dc="http://purl.org/dc/elements/1.1/"
   xmlns:cc="http://creativecommons.org/ns#"
   xmlns:rdf="http://www.w3.org/1999/02/22-rdf-syntax-ns#"
   xmlns:svg="http://www.w3.org/2000/svg"
   xmlns="http://www.w3.org/2000/svg"
   xmlns:sodipodi="http://sodipodi.sourceforge.net/DTD/sodipodi-0.dtd"
   xmlns:inkscape="http://www.inkscape.org/namespaces/inkscape"
   viewBox="0 0 48 48"
   id="svg2"
   version="1.1"
   inkscape:version="0.91 r13725"
   sodipodi:docname="package_settings.svg">
  <metadata
     id="metadata23">
    <rdf:RDF>
      <cc:Work
         rdf:about="">
        <dc:format>image/svg+xml</dc:format>
        <dc:type
           rdf:resource="http://purl.org/dc/dcmitype/StillImage" />
        <dc:title></dc:title>
      </cc:Work>
    </rdf:RDF>
  </metadata>
  <sodipodi:namedview
     pagecolor="#ffffff"
     bordercolor="#666666"
     borderopacity="1"
     objecttolerance="10"
     gridtolerance="10"
     guidetolerance="10"
     inkscape:pageopacity="0"
     inkscape:pageshadow="2"
     inkscape:window-width="1280"
     inkscape:window-height="694"
     id="namedview21"
     showgrid="false"
     inkscape:zoom="4.9166667"
     inkscape:cx="-9.1525424"
     inkscape:cy="24"
     inkscape:window-x="0"
     inkscape:window-y="0"
     inkscape:window-maximized="1"
     inkscape:current-layer="svg2" />
  <defs
     id="defs4">
    <linearGradient
       id="0"
       gradientUnits="userSpaceOnUse"
       y1="12.369"
       x2="0"
       y2="-36.429"
       gradientTransform="matrix(0.99999,0,0,0.99999,-43.37,35.882)">
      <stop
         stop-color="#0a80fd"
         id="stop7" />
      <stop
         offset="1"
         stop-color="#56c5fa"
         id="stop9" />
    </linearGradient>
  </defs>
  <path
     style="fill:#003380"
     d="M 4.9073752,45.307878 C 6.3276854,43.807281 7.8096828,42.248562 8.20087,41.845232 8.5920571,41.441902 8.9140342,41.070275 8.9170433,41.019199 8.9215533,40.927614 4.7599278,37.648137 4.571857,37.597061 4.516188,37.58297 4.4349415,37.7045 4.3883,37.871818 c -0.1023105,0.37515 -1.3977417,6.049945 -2.1199334,9.283627 -0.1534657,0.690415 -0.1564748,0.882394 -0.010532,0.882394 0.036109,0 1.2277257,-1.227602 2.6480359,-2.729961 m 39.3143075,2.427023 c 0.756796,-1.160674 1.179579,-3.672237 0.999031,-5.923134 -0.204621,-2.560879 -0.800429,-4.334473 -1.942394,-5.782232 -0.847071,-1.074371 -1.563244,-1.308619 -2.383233,-0.778479 -1.278881,0.826033 -2.490056,1.703144 -2.670604,1.930346 -0.53713,0.678087 -0.501021,1.7824 0.106824,3.194935 0.613863,1.426624 1.28189,2.24209 2.768401,3.378105 1.533153,1.171242 2.156043,2.067726 2.491562,3.585936 0.108328,0.48787 0.218162,0.690416 0.37915,0.695699 0.03009,1.76e-4 0.142934,-0.133855 0.251263,-0.301176 M 11.014408,37.204299 c 2.900803,-6.053467 6.600531,-13.563501 8.899507,-18.061771 0.501021,-0.981024 0.911767,-1.812341 0.911767,-1.847567 0,-0.112723 -4.315095,-3.21783 -4.429442,-3.187889 -0.115851,0.02994 -3.973558,7.63156 -6.7118682,13.227099 -0.8681345,1.778877 -2.159052,4.297486 -2.8677026,5.609629 -0.7086505,1.312141 -1.3962371,2.583774 -1.5271343,2.826829 -0.1369155,0.255384 -0.2091347,0.473781 -0.1685114,0.519573 0.194089,0.218397 4.543789,3.480259 4.612999,3.457364 0.042128,-0.01409 0.6183765,-1.158914 1.2818905,-2.543267 m 28.189546,-2.150504 c 1.120902,-0.746777 2.104888,-1.430147 2.187639,-1.519972 0.145943,-0.160275 0.141429,-0.18141 -0.272326,-1.018011 -0.231703,-0.470258 -0.79742,-1.618603 -1.254808,-2.552073 -0.457388,-0.93347 -0.884685,-1.710188 -0.949381,-1.724278 -0.171521,-0.03875 -4.406874,2.853248 -4.436965,3.029376 -0.02407,0.146184 2.20118,4.737801 2.447929,5.051307 0.07071,0.08982 0.15497,0.147946 0.185061,0.12681 0.03009,-0.01938 0.973454,-0.646383 2.094356,-1.393159 m 8.440615,-4.852285 c 0.0316,-0.06692 0.04965,-1.477702 0.04062,-3.138574 l -0.01655,-3.018808 -4.766465,-0.0229 c -4.160125,-0.02114 -4.763456,-0.007 -4.742392,0.110961 0.01354,0.07397 0.677055,1.497075 1.474475,3.16147 l 1.448897,3.027615 0.314454,0.02642 c 0.173025,0.01409 1.635463,0.01409 3.251367,0 2.32305,-0.02114 2.950454,-0.05283 2.995591,-0.147946 M 32.571828,30.071177 c 0.01204,-0.0458 -0.591294,-1.379072 -1.343577,-2.964209 l -1.36765,-2.879668 -5.812138,0 -5.812138,0 -1.372165,2.909609 c -0.755292,1.599229 -1.355613,2.941313 -1.33455,2.981822 0.05416,0.103915 17.013632,0.05635 17.042218,-0.04756 M 7.6035573,29.572738 c 0.1549703,-0.315266 0.7974199,-1.615079 1.4263285,-2.888474 0.6289085,-1.273395 1.1449742,-2.358333 1.1449742,-2.40941 0,-0.0634 -1.6053714,-0.0863 -4.8793068,-0.07045 l -4.8793072,0.0229 -0.0255776,0.642861 c -0.0135411,0.354015 -1.5046e-4,1.685531 0.0285867,2.958926 l 0.0541644,2.316062 3.4228874,0 3.4228874,0 z m 28.7522547,-1.16948 c 1.99054,-1.282201 1.958944,-1.259304 1.958944,-1.423102 0,-0.160275 -1.048682,-2.330153 -4.608485,-9.540771 C 29.792895,9.5154546 28.068663,6.0211052 26.923688,3.692713 25.795264,1.397785 25.527451,0.9697976 25.042981,0.67918891 24.660821,0.45198575 24.051472,0.41676045 23.657275,0.59817073 23.281134,0.77253595 21.958621,1.6743035 21.608057,1.9948537 c -0.561203,0.5142894 -0.774852,1.5305391 -0.48748,2.3319147 0.154971,0.4315098 0.04965,0.2166355 3.750883,7.6984886 5.828688,11.779339 8.824279,17.718324 9.009341,17.864509 0.04514,0.03523 0.26029,-0.05107 0.475443,-0.193739 0.215152,-0.142663 1.114883,-0.72388 1.999568,-1.292769 M 21.960125,14.846803 c 0.928317,-1.812341 1.063728,-2.129369 1.120902,-2.615478 0.11886,-1.009205 -0.335518,-1.683769 -1.767865,-2.6348523 -0.812466,-0.5389471 -0.943363,-0.5970688 -1.42031,-0.6287715 -0.649973,-0.042271 -0.97195,0.116243 -1.420311,0.7080285 -0.335518,0.4420773 -1.633958,3.1473803 -1.630949,3.3992413 1.5e-4,0.08982 0.807952,0.72388 2.134979,1.676723 1.173561,0.841885 2.159052,1.534062 2.189143,1.537585 0.03009,1.76e-4 0.386674,-0.646385 0.794411,-1.440714"
     id="path17"
     inkscape:connector-curvature="0" />
  <path
     d="m 47.759118,35.073741 c -0.03883,-0.338954 -0.432616,-0.592707 -0.772793,-0.592707 -1.101879,0 -2.07804,-0.648271 -2.488471,-1.650316 -0.417827,-1.026122 -0.147903,-2.222648 0.671111,-2.976496 0.25883,-0.237083 0.290259,-0.633455 0.07395,-0.907582 -0.56388,-0.716804 -1.203561,-1.365076 -1.904253,-1.926295 -0.27362,-0.220413 -0.676657,-0.188925 -0.913302,0.07408 -0.715481,0.794598 -2.002239,1.090951 -2.996888,0.674204 -1.035323,-0.435269 -1.687944,-1.48547 -1.623236,-2.613465 0.02034,-0.353771 -0.236646,-0.661237 -0.589765,-0.703838 -0.898512,-0.103724 -1.80257,-0.107428 -2.70293,-0.0074 -0.347573,0.0389 -0.606403,0.338954 -0.595311,0.689022 0.03883,1.116879 -0.621193,2.148559 -1.645422,2.56901 -0.981708,0.401929 -2.259221,0.10928 -2.974703,-0.677907 -0.236645,-0.259309 -0.632285,-0.290796 -0.907756,-0.07594 -0.721027,0.566775 -1.375499,1.215048 -1.944926,1.926295 -0.221855,0.275979 -0.188577,0.677908 0.07211,0.91499 0.835653,0.759405 1.105577,1.965191 0.671111,3.00428 -0.414129,0.989079 -1.440207,1.62809 -2.614189,1.62809 -0.38085,-0.01297 -0.652622,0.244492 -0.693296,0.590854 -0.105381,0.903877 -0.107236,1.826276 -0.0055,2.737562 0.03697,0.340806 0.443709,0.592706 0.787585,0.592706 1.046415,-0.02594 2.050307,0.622341 2.471831,1.650317 0.419676,1.026122 0.149752,2.222647 -0.67111,2.976496 -0.256982,0.237082 -0.29026,0.631603 -0.07395,0.907581 0.558334,0.713101 1.199864,1.361372 1.900556,1.926295 0.275469,0.222265 0.676656,0.190778 0.91515,-0.07223 0.719179,-0.796448 2.005937,-1.090949 2.99504,-0.676054 1.03717,0.435267 1.689793,1.485468 1.625085,2.613463 -0.02034,0.353772 0.238494,0.66309 0.589765,0.703838 0.458499,0.05372 0.920696,0.07964 1.384743,0.07964 0.440011,0 0.880024,-0.02408 1.320036,-0.07408 0.347572,-0.0389 0.606402,-0.338955 0.59531,-0.689022 -0.04067,-1.115029 0.621193,-2.14856 1.643574,-2.567159 0.989102,-0.40378 2.261069,-0.109281 2.976551,0.677908 0.238494,0.259309 0.630437,0.290796 0.907756,0.07594 0.719179,-0.564924 1.371802,-1.213196 1.944926,-1.926295 0.221855,-0.275979 0.190425,-0.677908 -0.07211,-0.91499 -0.835653,-0.759405 -1.107425,-1.967045 -0.67296,-3.00428 0.408583,-0.976113 1.395836,-1.631795 2.458891,-1.631795 l 0.147903,0.0038 c 0.343874,0.02779 0.661867,-0.237083 0.70254,-0.590854 0.10538,-0.90573 0.107236,-1.826277 0.0055,-2.737562 m -11.922844,5.378809 c -2.211153,0 -4.008176,-1.802198 -4.008176,-4.015586 0,-2.215239 1.798872,-4.015584 4.008176,-4.015584 2.211152,0 4.008176,1.802198 4.008176,4.015584 0,2.21524 -1.798872,4.015586 -4.008176,4.015586"
     id="path19"
     inkscape:connector-curvature="0"
     style="fill:#0044aa;fill-rule:evenodd;stroke-width:1.31700003" />
</svg>
