<?xml version="1.0" encoding="UTF-8" standalone="no"?>
<svg
   xmlns:dc="http://purl.org/dc/elements/1.1/"
   xmlns:cc="http://creativecommons.org/ns#"
   xmlns:rdf="http://www.w3.org/1999/02/22-rdf-syntax-ns#"
   xmlns:svg="http://www.w3.org/2000/svg"
   xmlns="http://www.w3.org/2000/svg"
   xmlns:sodipodi="http://sodipodi.sourceforge.net/DTD/sodipodi-0.dtd"
   xmlns:inkscape="http://www.inkscape.org/namespaces/inkscape"
   viewBox="0 0 48 48"
   id="svg2"
   version="1.1"
   inkscape:version="0.91 r13725"
   sodipodi:docname="plank-config.svg">
  <metadata
     id="metadata25">
    <rdf:RDF>
      <cc:Work
         rdf:about="">
        <dc:format>image/svg+xml</dc:format>
        <dc:type
           rdf:resource="http://purl.org/dc/dcmitype/StillImage" />
        <dc:title></dc:title>
      </cc:Work>
    </rdf:RDF>
  </metadata>
  <sodipodi:namedview
     pagecolor="#ffffff"
     bordercolor="#666666"
     borderopacity="1"
     objecttolerance="10"
     gridtolerance="10"
     guidetolerance="10"
     inkscape:pageopacity="0"
     inkscape:pageshadow="2"
     inkscape:window-width="1280"
     inkscape:window-height="694"
     id="namedview23"
     showgrid="false"
     inkscape:zoom="4.9166667"
     inkscape:cx="-9.1525424"
     inkscape:cy="24"
     inkscape:window-x="0"
     inkscape:window-y="0"
     inkscape:window-maximized="1"
     inkscape:current-layer="svg2" />
  <defs
     id="defs4">
    <linearGradient
       id="0"
       y1="546.93"
       x2="0"
       y2="516.48"
       gradientUnits="userSpaceOnUse"
       gradientTransform="matrix(2.660633,0,0,2.6606236,-1656.0187,-2219.1962)">
      <stop
         stop-color="#197cf1"
         id="stop7" />
      <stop
         offset="1"
         stop-color="#20bcfa"
         id="stop9" />
    </linearGradient>
  </defs>
  <path
     style="fill:#0066ff;fill-opacity:0.878"
     inkscape:connector-curvature="0"
     id="path15"
     d="m 46.951638,27.37957 -6.514817,-6.252764 c -0.1435,-0.136607 -0.339167,-0.214821 -0.539188,-0.214821 -0.204369,0 -0.39678,0.07717 -0.539187,0.214821 l -6.516991,6.250678 c -0.663113,0.637165 -0.860959,1.611163 -0.502227,2.444378 0.359821,0.831129 1.203387,1.391124 2.143705,1.391124 l 1.1099,0 c -1.0175,3.138897 -3.426449,5.802266 -6.555039,7.18192 L 27.440886,11.577678 c 1.816496,-1.098091 3.02532,-3.0429553 3.02532,-5.2558254 0,-3.4277582 -2.894872,-6.20688088 -6.466987,-6.20688088 -3.569941,0 -6.466985,2.77703738 -6.466985,6.20270868 0,2.21287 1.208822,4.1514776 3.025318,5.2453996 l -1.596906,26.826613 c -3.127505,-1.378612 -5.538629,-4.040939 -6.555039,-7.18192 l 1.1099,0 c 0.938142,0 1.786057,-0.559995 2.14479,-1.391126 0.359821,-0.833215 0.1598,-1.79887 -0.502226,-2.436033 L 8.6410785,21.127849 C 8.4986786,20.990201 8.3019141,20.910942 8.1018931,20.910942 c -0.2043714,0 -0.396782,0.07509 -0.5402758,0.212735 L 1.0446268,27.375399 C 0.38151343,28.011521 0.18257935,28.98656 0.54239995,29.81769 0.90222042,30.64882 1.7457876,31.208816 2.6861038,31.208816 l 0.8772668,0 c 1.6838722,9.312405 10.1912914,16.531867 20.4347624,16.531867 10.243469,0 18.751976,-7.219462 20.435848,-16.531867 l 0.876179,0 c 0.938143,0 1.786057,-0.559996 2.144791,-1.391126 0.358734,-0.832173 0.159801,-1.806169 -0.505487,-2.442291" />
  <g
     transform="matrix(0.07004033,0,0,0.07185195,3.3750968,1.8928227)"
     id="g17"
     style="fill:#80b3ff">
    <path
       d="m 441.75,297.79 c -4.237,0 -6.867,2.028 -7.889,6.119 -1.899,7.303 -4.03,20.899 -6.372,40.761 -6.867,2.195 -13.486,4.985 -19.926,8.344 l -30.24,-23.466 c -1.899,-1.461 -3.816,-2.175 -5.715,-2.175 -3.214,0 -10.09,5.23 -20.684,15.677 -10.593,10.448 -17.78,18.257 -21.594,23.516 -1.315,1.899 -1.972,3.597 -1.972,5.057 0,1.754 0.714,3.508 2.175,5.26 9.789,11.836 17.62,21.912 23.466,30.24 -3.653,6.719 -6.502,13.459 -8.547,20.18 l -40.761,6.119 c -1.606,0.293 -2.977,1.274 -4.147,2.883 -1.17,1.606 -1.77,3.255 -1.77,5.01 l 0,48.651 c 0,1.902 0.6,3.625 1.77,5.158 1.17,1.536 2.689,2.44 4.602,2.731 l 40.1,5.917 c 2.044,7.158 5.01,14.403 8.951,21.696 -2.628,3.653 -6.575,8.826 -11.834,15.475 -5.259,6.649 -8.987,11.496 -11.176,14.565 -1.17,1.611 -1.72,3.303 -1.72,5.057 0,1.899 0.495,3.546 1.517,5.01 5.697,7.892 17.749,20.16 36.16,36.817 1.608,1.608 3.417,2.427 5.462,2.427 2.192,0 4.052,-0.66 5.512,-1.972 l 30.9,-23.466 c 5.993,3.069 12.565,5.791 19.723,8.142 l 6.119,40.31 c 0.145,1.899 0.996,3.46 2.529,4.703 1.533,1.245 3.316,1.871 5.361,1.871 l 48.651,0 c 4.242,0 6.915,-2.028 7.94,-6.119 1.896,-7.306 3.984,-20.899 6.322,-40.761 6.867,-2.192 13.513,-4.985 19.926,-8.344 l 30.24,23.668 c 2.044,1.313 3.963,1.972 5.715,1.972 3.212,0 10.07,-5.151 20.583,-15.526 10.523,-10.372 17.768,-18.261 21.696,-23.668 1.315,-1.461 1.972,-3.158 1.972,-5.057 0,-1.899 -0.711,-3.713 -2.174,-5.462 -10.518,-12.858 -18.349,-22.936 -23.466,-30.24 2.921,-5.407 5.771,-12.09 8.547,-19.976 l 40.559,-6.119 c 1.751,-0.293 3.182,-1.274 4.349,-2.883 1.168,-1.608 1.77,-3.256 1.77,-5.01 l 0,-48.651 c 0,-1.899 -0.597,-3.622 -1.77,-5.158 -1.169,-1.513 -2.654,-2.443 -4.552,-2.731 l -40.1,-6.119 c -2.192,-7.01 -5.204,-14.187 -9,-21.493 2.628,-3.653 6.575,-8.826 11.834,-15.475 5.259,-6.649 8.984,-11.496 11.176,-14.565 1.17,-1.608 1.77,-3.253 1.77,-5.01 0,-2.045 -0.543,-3.685 -1.568,-4.855 -5.259,-7.454 -17.311,-19.884 -36.16,-37.27 -1.749,-1.461 -3.565,-2.175 -5.462,-2.175 -2.192,0 -3.944,0.66 -5.26,1.972 l -31.1,23.466 c -5.993,-3.069 -12.565,-5.791 -19.723,-8.142 l -6.17,-40.31 c -0.145,-1.899 -0.945,-3.461 -2.478,-4.703 -1.536,-1.243 -3.362,-1.871 -5.411,-1.871 l -48.651,0"
       id="path19"
       inkscape:connector-curvature="0"
       style="fill:#80b3ff" />
    <path
       d="m 466.08,410.01 c 15.489,0 28.693,5.48 39.649,16.436 10.956,10.959 16.436,24.16 16.436,39.649 0,15.489 -5.48,28.693 -16.436,39.649 -10.956,10.959 -24.16,16.436 -39.649,16.436 -15.489,0 -28.69,-5.477 -39.649,-16.436 -10.956,-10.956 -16.436,-24.16 -16.436,-39.649 0,-15.489 5.477,-28.69 16.436,-39.649 10.959,-10.956 24.16,-16.436 39.649,-16.436"
       id="path21"
       inkscape:connector-curvature="0"
       style="fill:#80b3ff" />
  </g>
</svg>
