<?xml version="1.0" encoding="UTF-8" standalone="no"?>
<!-- Generator: flash2svg, http://dissentgraphics.com/tools/flash2svg -->

<svg
   xmlns:dc="http://purl.org/dc/elements/1.1/"
   xmlns:cc="http://creativecommons.org/ns#"
   xmlns:rdf="http://www.w3.org/1999/02/22-rdf-syntax-ns#"
   xmlns:svg="http://www.w3.org/2000/svg"
   xmlns="http://www.w3.org/2000/svg"
   xmlns:sodipodi="http://sodipodi.sourceforge.net/DTD/sodipodi-0.dtd"
   xmlns:inkscape="http://www.inkscape.org/namespaces/inkscape"
   id="Plex-Home-Theater"
   image-rendering="optimizeSpeed"
   version="1.1"
   style="background-color:#ffffff"
   x="0px"
   y="0px"
   width="1024px"
   height="1024px"
   viewBox="0 0 1024 1024"
   enable-background="new 0 0 1024 1024"
   inkscape:version="0.91 r13725"
   sodipodi:docname="plexhometheater.svg">
  <metadata
     id="metadata25">
    <rdf:RDF>
      <cc:Work
         rdf:about="">
        <dc:format>image/svg+xml</dc:format>
        <dc:type
           rdf:resource="http://purl.org/dc/dcmitype/StillImage" />
        <dc:title></dc:title>
      </cc:Work>
    </rdf:RDF>
  </metadata>
  <sodipodi:namedview
     pagecolor="#ffffff"
     bordercolor="#666666"
     borderopacity="1"
     objecttolerance="10"
     gridtolerance="10"
     guidetolerance="10"
     inkscape:pageopacity="0"
     inkscape:pageshadow="2"
     inkscape:window-width="1280"
     inkscape:window-height="694"
     id="namedview23"
     showgrid="false"
     inkscape:zoom="0.32593203"
     inkscape:cx="134.07537"
     inkscape:cy="444.59346"
     inkscape:window-x="0"
     inkscape:window-y="0"
     inkscape:window-maximized="1"
     inkscape:current-layer="Plex-Home-Theater" />
  <defs
     transform="matrix(1 0 0 1 0 0) "
     id="defs3" />
  <g
     id="g4159"
     transform="matrix(2.2088169,0,0,1.9292918,-615.99008,-472.75328)">
    <path
       style="fill:#b7bec8;fill-opacity:1"
       inkscape:connector-curvature="0"
       d="m 511.075,632.5 71.325,140.35 154.65,0 -156.6,-260.35 -69.375,120 z"
       id="path5" />
    <path
       style="fill:#b7bec8;fill-opacity:1"
       inkscape:connector-curvature="0"
       d="m 586.25,247.9 -75.2,145.4 69.4,119.2 160.1,-264.6 -154.3,0 z"
       id="path6" />
    <path
       style="fill:#ffcc00;fill-opacity:1"
       inkscape:connector-curvature="0"
       d="m 435.8,247.9 -79.75,0 155.6,264.6 -152.6,260.35 78.7,0 73.3,-140.4 0.025,0.05 69.375,-120 -69.4,-119.2 -75.25,-145.4 z"
       id="path7" />
    <path
       style="fill:#ffcc00;fill-opacity:1"
       inkscape:connector-curvature="0"
       d="m 359.05,772.85 152.6,-260.35 -155.6,-264.6 -74.9,0 159.7,264.6 -157.4,260.35 75.6,0 z"
       id="path8" />
  </g>
</svg>
