<?xml version="1.0" encoding="UTF-8" standalone="no"?>
<svg
   xmlns:dc="http://purl.org/dc/elements/1.1/"
   xmlns:cc="http://creativecommons.org/ns#"
   xmlns:rdf="http://www.w3.org/1999/02/22-rdf-syntax-ns#"
   xmlns:svg="http://www.w3.org/2000/svg"
   xmlns="http://www.w3.org/2000/svg"
   xmlns:sodipodi="http://sodipodi.sourceforge.net/DTD/sodipodi-0.dtd"
   xmlns:inkscape="http://www.inkscape.org/namespaces/inkscape"
   viewBox="0 0 48 48"
   id="svg2"
   version="1.1"
   inkscape:version="0.91 r13725"
   sodipodi:docname="preferences-desktop-remote-desktop.svg">
  <metadata
     id="metadata28">
    <rdf:RDF>
      <cc:Work
         rdf:about="">
        <dc:format>image/svg+xml</dc:format>
        <dc:type
           rdf:resource="http://purl.org/dc/dcmitype/StillImage" />
        <dc:title></dc:title>
      </cc:Work>
    </rdf:RDF>
  </metadata>
  <sodipodi:namedview
     pagecolor="#ffffff"
     bordercolor="#666666"
     borderopacity="1"
     objecttolerance="10"
     gridtolerance="10"
     guidetolerance="10"
     inkscape:pageopacity="0"
     inkscape:pageshadow="2"
     inkscape:window-width="1280"
     inkscape:window-height="694"
     id="namedview26"
     showgrid="false"
     inkscape:zoom="4.9166667"
     inkscape:cx="-6.4067797"
     inkscape:cy="24"
     inkscape:window-x="0"
     inkscape:window-y="0"
     inkscape:window-maximized="1"
     inkscape:current-layer="svg2" />
  <defs
     id="defs4">
    <linearGradient
       gradientTransform="matrix(1.77384,0,0,1.71427,42.461,39.376)"
       gradientUnits="userSpaceOnUse"
       y2="-22.851"
       x2="-11.233"
       y1="4.675"
       x1="-10.767"
       id="0">
      <stop
         stop-color="#e1e1e1"
         id="stop7" />
      <stop
         stop-color="#f4f4ff"
         offset="1"
         id="stop9" />
    </linearGradient>
    <linearGradient
       gradientUnits="userSpaceOnUse"
       y2="-27.706"
       x2="60.753"
       y1="22.939"
       x1="61.57"
       id="1"
       gradientTransform="matrix(0.99999,0,0,0.99999,-38.38,25.874)">
      <stop
         stop-color="#197cf1"
         id="stop12" />
      <stop
         stop-color="#21c9fb"
         offset="1"
         id="stop14" />
    </linearGradient>
  </defs>
  <path
     style="fill:#2a7fff"
     inkscape:connector-curvature="0"
     id="path22"
     d="m 47.709461,41.764141 c 0.016,-3.294421 0.02802,-8.319871 0.02802,-11.169692 l 0,-5.182153 -0.140057,0 c -0.07604,0 -6.058454,-0.05466 -13.297386,-0.138483 -7.23893,-0.06924 -13.421435,-0.138481 -13.741564,-0.138481 l -0.584237,0 0,8.808203 c 0,4.84688 4e-4,8.808204 0.01203,8.808204 0.008,0 6.210514,1.122434 13.785583,2.49268 7.575068,1.370247 13.805591,2.492682 13.841605,2.496327 0.06002,-3.65e-4 0.06802,-0.561218 0.09604,-5.991182 z M 17.60527,33.728523 c 0.016,-4.730264 0.024,-8.604125 0.016,-8.611412 -0.008,0 -16.4826739,-0.17857 -17.00688706,-0.171282 l -0.3281327,0 0,7.120906 0,7.12455 0.0960385,0.05101 c 0.076037,0.05103 17.07091423,3.097632 17.17095423,3.112209 0.016,0 0.03602,-3.892082 0.05202,-8.622346 z M 9.301907,23.127338 c 3.917586,-0.05102 7.394995,-0.06924 7.72713,-0.07653 l 0.604244,0 0,-8.618702 0,-8.6187005 -0.116055,0.051015 c -0.06402,0 -3.965606,0.7142769 -8.6715114,1.563393 l -8.55546462,1.5451708 0,7.1354827 0,7.131839 0.94438262,0 c 0.5202097,0 4.1496804,-0.05466 8.0832725,-0.09475 z m 25.082157,-0.255099 c 7.330969,-0.07289 13.333399,-0.14577 13.341403,-0.149415 0.008,0 0.008,-5.040027 4e-4,-11.184268 L 47.713863,0.36886441 35.108758,2.646534 C 28.17395,3.9001632 21.939425,5.026243 21.247144,5.1501482 l -1.252507,0.2295893 -0.01203,8.8154915 -0.01203,8.815493 0.540219,0 c 0.300121,0 6.542649,-0.06196 13.873618,-0.142127 z" />
  <path
     style="color:#000000;fill:#afc6e9;stroke:none;stroke-linecap:round;stroke-linejoin:round"
     inkscape:connector-curvature="0"
     id="path24"
     d="m 24.900695,23.902305 0,23.79661 22.81078,-11.898305 z" />
</svg>
