<?xml version="1.0" encoding="UTF-8" standalone="no"?>
<svg
   xmlns:dc="http://purl.org/dc/elements/1.1/"
   xmlns:cc="http://creativecommons.org/ns#"
   xmlns:rdf="http://www.w3.org/1999/02/22-rdf-syntax-ns#"
   xmlns:svg="http://www.w3.org/2000/svg"
   xmlns="http://www.w3.org/2000/svg"
   xmlns:sodipodi="http://sodipodi.sourceforge.net/DTD/sodipodi-0.dtd"
   xmlns:inkscape="http://www.inkscape.org/namespaces/inkscape"
   viewBox="0 0 48 48"
   id="svg2"
   version="1.1"
   inkscape:version="0.91 r13725"
   sodipodi:docname="psensor.svg">
  <metadata
     id="metadata32">
    <rdf:RDF>
      <cc:Work
         rdf:about="">
        <dc:format>image/svg+xml</dc:format>
        <dc:type
           rdf:resource="http://purl.org/dc/dcmitype/StillImage" />
        <dc:title></dc:title>
      </cc:Work>
    </rdf:RDF>
  </metadata>
  <sodipodi:namedview
     pagecolor="#ffffff"
     bordercolor="#666666"
     borderopacity="1"
     objecttolerance="10"
     gridtolerance="10"
     guidetolerance="10"
     inkscape:pageopacity="0"
     inkscape:pageshadow="2"
     inkscape:window-width="1280"
     inkscape:window-height="694"
     id="namedview30"
     showgrid="false"
     inkscape:zoom="4.9166667"
     inkscape:cx="24"
     inkscape:cy="18.114793"
     inkscape:window-x="0"
     inkscape:window-y="0"
     inkscape:window-maximized="1"
     inkscape:current-layer="svg2" />
  <defs
     id="defs4">
    <linearGradient
       gradientTransform="matrix(1.77384 0 0 1.71427-5.989 28.572)"
       gradientUnits="userSpaceOnUse"
       y2="-9.596"
       x2="3.118"
       y1="-9.504"
       x1="-23.821"
       id="0">
      <stop
         stop-color="#dc3c30"
         id="stop7" />
      <stop
         stop-color="#ff786d"
         offset="1"
         id="stop9" />
    </linearGradient>
    <linearGradient
       gradientUnits="userSpaceOnUse"
       y2="9.975"
       x2="86.5"
       y1="9.995"
       x1="38.42"
       id="1">
      <stop
         stop-color="#197cf1"
         id="stop12" />
      <stop
         stop-color="#21c9fb"
         offset="1"
         id="stop14" />
    </linearGradient>
  </defs>
  <g
     id="g22"
     style="fill:#d42aff;fill-opacity:1"
     transform="matrix(1.4209765,0,0,1.2146755,-15.358727,-17.660735)">
    <path
       d="m 418.19,245.16 -84.25,22.564 -32.476,-18.734 0,-35.16 32.11,-18.436 84.62,22.674 c 1.701,0.454 3.41,0.678 5.104,0.678 8.692,0 16.646,-5.805 18.995,-14.598 2.815,-10.508 -3.415,-21.307 -13.922,-24.12 l -46.39,-12.43 42.766,-24.553 c 9.426,-5.414 12.688,-17.449 7.273,-26.879 -5.433,-9.43 -17.444,-12.697 -26.874,-7.27 l -42.854,24.611 12.427,-46.41 c 2.812,-10.505 -3.409,-21.306 -13.921,-24.12 -10.442,-2.739 -21.285,3.422 -24.1,13.92 l -22.58,84.26 -32.31,18.553 -30.625,-17.707 0,-37.15 61.931,-61.93 c 7.688,-7.692 7.688,-20.15 0,-27.844 -7.69,-7.691 -20.15,-7.691 -27.842,0 l -34.09,34.09 0,-49.49 c 1e-4,-10.872 -8.817,-19.688 -19.69,-19.688 -10.871,0 -19.688,8.815 -19.688,19.688 l 0,49.24 -33.841,-33.844 c -7.691,-7.691 -20.15,-7.691 -27.843,0 -7.691,7.692 -7.691,20.15 0,27.844 l 61.684,61.683 0,37.544 -30.393,17.534 -32.31,-18.536 -22.564,-84.24 c -2.811,-10.498 -13.603,-16.676 -24.1,-13.92 -10.506,2.812 -16.741,13.613 -13.926,24.12 l 12.426,46.4 L 58.085,108.9 c -9.447,-5.428 -21.472,-2.168 -26.878,7.275 -5.411,9.432 -2.148,21.459 7.281,26.873 l 42.762,24.553 -46.39,12.43 c -10.507,2.812 -16.74,13.611 -13.926,24.12 2.355,8.793 10.307,14.598 19,14.598 1.693,0 3.403,-0.224 5.109,-0.678 l 84.63,-22.682 32.07,18.412 0.033,35.19 -32.486,18.768 -84.25,-22.598 c -10.433,-2.738 -21.291,3.43 -24.11,13.924 -2.814,10.504 3.419,21.306 13.926,24.1 l 46.22,12.397 -42.641,24.616 c -9.413,5.441 -12.643,17.472 -7.199,26.886 3.647,6.336 10.263,9.844 17.06,9.844 3.337,0 6.724,-0.83 9.827,-2.646 L 100.98,329.55 88.507,376.127 c -2.815,10.522 3.42,21.29 13.926,24.12 1.701,0.461 3.41,0.679 5.104,0.679 8.689,0 16.641,-5.814 18.996,-14.613 l 22.676,-84.61 32.25,-18.609 30.335,17.504 0,38.02 -61.684,61.685 c -7.691,7.69 -7.691,20.15 0,27.842 3.846,3.846 8.875,5.752 13.921,5.752 5.03,0 10.08,-1.906 13.922,-5.752 l 33.841,-33.842 0,49.23 c 0,10.892 8.817,19.689 19.688,19.689 10.873,0 19.691,-8.799 19.691,-19.689 l 0,-49.47 34.09,34.09 c 3.845,3.846 8.874,5.752 13.921,5.752 5.05,0 10.08,-1.906 13.921,-5.752 7.688,-7.693 7.688,-20.15 0,-27.842 l -61.931,-61.931 0,-37.627 30.595,-17.658 32.24,18.609 22.676,84.61 c 2.352,8.799 10.304,14.613 18.992,14.613 1.688,0 3.402,-0.218 5.107,-0.679 10.512,-2.829 16.732,-13.597 13.921,-24.12 l -12.487,-46.577 42.873,24.732 c 3.104,1.814 6.49,2.646 9.828,2.646 6.797,0 13.411,-3.508 17.06,-9.844 5.443,-9.414 2.215,-21.443 -7.199,-26.886 l -42.641,-24.612 46.22,-12.398 c 10.507,-2.797 16.737,-13.6 13.922,-24.1 -2.798,-10.496 -13.611,-16.677 -24.1,-13.925 m -156.11,3.83 -30.472,17.599 -30.45,-17.6 -0.034,-35.22 30.484,-17.587 30.472,17.613 0,35.19"
       transform="matrix(0.03886,0,0,0.03886,27,15)"
       id="path24"
       style="fill:#d42aff;fill-opacity:1"
       inkscape:connector-curvature="0" />
  </g>
  <g
     id="g26"
     style="fill:#d42aff;fill-opacity:1"
     transform="matrix(1.7238843,0,0,1.2372896,15.690857,6.8137366)">
    <path
       d="m 174.27,155.65 c 3.862,-3.64 13.564,-6.834 16.05,-11.774 5.286,15.507 14.383,51.621 -27.717,72.16 7.265,-12.473 4.426,-23.867 3.14,-29.27 -3.616,3.6 -7.01,3.03 -7.01,3.03 2.962,-8.913 -3.273,-17.272 -6.705,-22.943 -3.515,12.393 -21.452,19.418 -21.452,32.606 0,6.335 2.106,12.404 4.824,17.608 -14.208,-6.643 -34.929,-21.14 -32.959,-48.755 2.428,-34.04 54.599,-33.637 43.37,-77.56 12.23,5.126 35.575,21.771 28.457,64.891"
       transform="matrix(0.1425,0,0,0.1425,-9.282,2.067)"
       id="path28"
       style="fill:#d42aff;fill-opacity:1"
       inkscape:connector-curvature="0" />
  </g>
  <g
     id="g4172"
     transform="matrix(1.3242443,0,0,1,-0.15316812,0)">
    <path
       inkscape:connector-curvature="0"
       id="path3907"
       d="m 8.0666526,44.012672 c -2.060277,-0.311255 -4.260151,-2.00002 -5.251917,-4.031708 -1.168771,-2.394294 -0.864837,-5.558888 0.739268,-7.697342 0.712027,-0.949215 1.272075,-1.432616 2.372287,-2.047624 0.504133,-0.281803 0.799079,-0.559325 0.899289,-0.84616 0.08981,-0.257054 0.149122,-2.291895 0.149122,-5.115889 l 0,-4.689067 2.329497,0 2.3294964,0 0,4.689067 c 0,2.814989 0.05942,4.859654 0.148716,5.115889 0.10326,0.296376 0.403618,0.569346 0.982758,0.893163 1.780874,0.995746 2.9825,2.470667 3.548795,4.355918 0.244975,0.815537 0.291879,1.294626 0.246942,2.522259 -0.05124,1.399785 -0.09742,1.601315 -0.604916,2.639619 -0.613304,1.254802 -1.92808,2.722382 -3.013798,3.36407 -1.276657,0.754533 -3.2367844,1.095378 -4.8755394,0.847805 z"
       style="fill:#e580ff;fill-opacity:1" />
    <path
       style="fill:#dd55ff"
       id="path3775"
       d="m 4.570699,5.7079358 0,3.4474283 0,6.5848969 0,3.127783 0,6.584897 0,2.56686 c -0.761834,0.582937 -1.432626,1.31557 -2.012376,2.143306 -0.930807,1.328778 -1.59140202,2.932296 -1.89074502,4.70224 -0.116533,0.688606 -0.195193,1.393941 -0.195193,2.123933 0,0.05019 0.0058,0.09862 0.0058,0.147936 0.06628,5.795027 3.96721502,10.469089 8.77565202,10.469089 0.612525,0 1.209757,-0.07661 1.786594,-0.221024 3.993434,-0.996803 6.995612,-5.271968 6.995612,-10.395121 0,-3.900041 -1.744351,-7.29992 -4.336478,-9.145592 l 0,-22.1366322 c 0,-2.6249781 -1.517112,-4.81671421 -3.547697,-5.37587601 -0.32702,-0.089818 -0.666421,-0.1417724 -1.016749,-0.1417724 -1.713032,0 -3.203197,1.14209971 -3.983967,2.83015111 -0.368535,0.7951529 -0.58048,1.7109461 -0.58048,2.6874973 z M 9.179574,4.2532344 c 1.581205,0 2.074284,1.549803 2.074284,3.4623995 l 0,2.7817171 0,4.054143 0,1.188767 0,3.127783 0,0.299393 0,0.889376 0,4.054141 0,7.034868 c 2.173338,0.672755 3.322643,2.947266 3.478506,5.21121 0.01894,0.173472 0.03132,0.348705 0.03132,0.526579 0,3.679019 -2.466854,6.661508 -5.509819,6.661508 -3.042965,0 -5.50909,-2.982489 -5.50909,-6.661508 0,-0.178755 0.01311,-0.354868 0.03277,-0.529222 0.02331,-0.348705 0.06773,-0.685963 0.134742,-1.010893 0.217042,-1.054042 0.64093,-1.977758 1.242531,-2.694542 0.260742,-0.310841 0.560086,-0.569728 0.877638,-0.800437 0.333577,-0.242158 0.686816,-0.450852 1.072831,-0.593504 l 0,-2.525473 0,-0.163786 0,-3.127783 0,-5.973782 0,-0.297632 0,-4.023321 0,-5.973782 0,-1.4547014 C 7.105287,7.104519 7.163557,6.5400735 7.283,6.0425524 7.3369,5.8171259 7.404632,5.6084305 7.489117,5.4173475 7.669016,5.0114055 7.919561,4.6908774 8.261876,4.4918696 8.51752,4.3430536 8.816864,4.2532344 9.179572,4.2532344 Z"
       inkscape:connector-curvature="0" />
  </g>
</svg>
