<?xml version="1.0" encoding="UTF-8" standalone="no"?>
<svg
   xmlns:dc="http://purl.org/dc/elements/1.1/"
   xmlns:cc="http://creativecommons.org/ns#"
   xmlns:rdf="http://www.w3.org/1999/02/22-rdf-syntax-ns#"
   xmlns:svg="http://www.w3.org/2000/svg"
   xmlns="http://www.w3.org/2000/svg"
   xmlns:sodipodi="http://sodipodi.sourceforge.net/DTD/sodipodi-0.dtd"
   xmlns:inkscape="http://www.inkscape.org/namespaces/inkscape"
   viewBox="0 0 48 48"
   id="svg2"
   version="1.1"
   inkscape:version="0.91 r13725"
   sodipodi:docname="pwsafe.svg">
  <metadata
     id="metadata37">
    <rdf:RDF>
      <cc:Work
         rdf:about="">
        <dc:format>image/svg+xml</dc:format>
        <dc:type
           rdf:resource="http://purl.org/dc/dcmitype/StillImage" />
        <dc:title></dc:title>
      </cc:Work>
    </rdf:RDF>
  </metadata>
  <sodipodi:namedview
     pagecolor="#ffffff"
     bordercolor="#666666"
     borderopacity="1"
     objecttolerance="10"
     gridtolerance="10"
     guidetolerance="10"
     inkscape:pageopacity="0"
     inkscape:pageshadow="2"
     inkscape:window-width="1280"
     inkscape:window-height="694"
     id="namedview35"
     showgrid="false"
     inkscape:zoom="4.9166667"
     inkscape:cx="-9.1525424"
     inkscape:cy="24"
     inkscape:window-x="0"
     inkscape:window-y="0"
     inkscape:window-maximized="1"
     inkscape:current-layer="svg2" />
  <defs
     id="defs4">
    <clipPath
       id="clipPath6">
      <path
         fill="#1890d0"
         transform="matrix(15.33333 0 0 11.5 415-125.5)"
         d="m-24 13c0 1.105-.672 2-1.5 2-.828 0-1.5-.895-1.5-2 0-1.105.672-2 1.5-2 .828 0 1.5.895 1.5 2"
         id="path8" />
    </clipPath>
    <clipPath
       id="clipPath10">
      <path
         fill="#1890d0"
         transform="matrix(15.33333 0 0 11.5 415-125.5)"
         d="m-24 13c0 1.105-.672 2-1.5 2-.828 0-1.5-.895-1.5-2 0-1.105.672-2 1.5-2 .828 0 1.5.895 1.5 2"
         id="path12" />
    </clipPath>
    <clipPath
       id="1">
      <path
         transform="matrix(15.33333 0 0 11.5 415-125.5)"
         d="m-24 13c0 1.105-.672 2-1.5 2-.828 0-1.5-.895-1.5-2 0-1.105.672-2 1.5-2 .828 0 1.5.895 1.5 2"
         fill="#1890d0"
         id="path15" />
    </clipPath>
    <linearGradient
       gradientTransform="matrix(1.77384 0 0 1.71427 42.46 39.38)"
       gradientUnits="userSpaceOnUse"
       y2="-22.851"
       x2="-11.233"
       y1="4.675"
       x1="-10.767"
       id="0">
      <stop
         stop-color="#e1e1e1"
         id="stop18" />
      <stop
         stop-color="#f4f4ff"
         offset="1"
         id="stop20" />
    </linearGradient>
    <linearGradient
       id="2"
       x1="23.661"
       y1="45.36"
       x2="23.932"
       y2=".407"
       gradientUnits="userSpaceOnUse">
      <stop
         stop-color="#b62b76"
         id="stop23" />
      <stop
         offset="1"
         stop-color="#e04d9d"
         id="stop25" />
    </linearGradient>
  </defs>
  <g
     transform="matrix(1.4766961,0,0,1.4766961,-91.536113,-11.640062)"
     id="g29"
     style="fill:#c837ab">
    <g
       clip-path="url(#1)"
       transform="matrix(1.33333,0,0,1.33333,44.972,-6.463)"
       id="g31"
       style="fill:#c837ab">
      <path
         d="m 8,8 0,10.666 10.666,0 L 8,8 m 0,13.334 0,9.332 9.334,0 L 8,21.334 M 18.666,30.666 28,40 l 12,0 -9.334,-9.334 -12,0 M 8,33.334 8,40 14.666,40 8,33.334"
         transform="matrix(0.75,0,0,0.75,7,5)"
         id="path33"
         style="fill:#c837ab"
         inkscape:connector-curvature="0" />
    </g>
  </g>
</svg>
