<?xml version="1.0" encoding="UTF-8" standalone="no"?>
<svg
   xmlns:dc="http://purl.org/dc/elements/1.1/"
   xmlns:cc="http://creativecommons.org/ns#"
   xmlns:rdf="http://www.w3.org/1999/02/22-rdf-syntax-ns#"
   xmlns:svg="http://www.w3.org/2000/svg"
   xmlns="http://www.w3.org/2000/svg"
   xmlns:sodipodi="http://sodipodi.sourceforge.net/DTD/sodipodi-0.dtd"
   xmlns:inkscape="http://www.inkscape.org/namespaces/inkscape"
   viewBox="0 0 48 48"
   id="svg2"
   version="1.1"
   inkscape:version="0.91 r13725"
   sodipodi:docname="qgit.svg">
  <metadata
     id="metadata24">
    <rdf:RDF>
      <cc:Work
         rdf:about="">
        <dc:format>image/svg+xml</dc:format>
        <dc:type
           rdf:resource="http://purl.org/dc/dcmitype/StillImage" />
        <dc:title></dc:title>
      </cc:Work>
    </rdf:RDF>
  </metadata>
  <sodipodi:namedview
     pagecolor="#ffffff"
     bordercolor="#666666"
     borderopacity="1"
     objecttolerance="10"
     gridtolerance="10"
     guidetolerance="10"
     inkscape:pageopacity="0"
     inkscape:pageshadow="2"
     inkscape:window-width="1280"
     inkscape:window-height="694"
     id="namedview22"
     showgrid="false"
     inkscape:zoom="4.9166667"
     inkscape:cx="24"
     inkscape:cy="24"
     inkscape:window-x="0"
     inkscape:window-y="0"
     inkscape:window-maximized="1"
     inkscape:current-layer="svg2" />
  <defs
     id="defs4">
    <linearGradient
       id="0"
       x1="408.02"
       y1="545.26"
       x2="408.56"
       y2="503.42"
       gradientUnits="userSpaceOnUse"
       gradientTransform="matrix(1.0666493,0,0,1.0689193,-411.79722,-536.48248)">
      <stop
         stop-color="#1f2121"
         id="stop7" />
      <stop
         offset="1"
         stop-color="#404447"
         id="stop9" />
    </linearGradient>
    <linearGradient
       id="1"
       y1="546.81"
       x2="0"
       y2="512.72"
       gradientUnits="userSpaceOnUse"
       gradientTransform="matrix(0.97346027,0,0,1.0267097,-373.7376,-513.41271)">
      <stop
         stop-color="#e1e1e1"
         id="stop12" />
      <stop
         offset="1"
         stop-color="#fcf9f9"
         id="stop14" />
    </linearGradient>
  </defs>
  <path
     inkscape:connector-curvature="0"
     style="fill:#808080"
     id="path20"
     d="M 44.788218,12.179697 C 42.64224,8.4208559 39.731269,5.4443017 36.054306,3.2510512 32.377342,1.0567833 28.362383,-0.03984188 24.004426,-0.03984188 c -4.353956,0 -8.369916,1.09662518 -12.049879,3.29089308 C 8.2775834,5.445319 5.3666125,8.420856 3.220634,12.179697 c -2.1459786,3.75884 -3.21896783,7.863556 -3.21896783,12.319232 0,5.345793 1.52598473,10.153447 4.57795423,14.422961 3.0519695,4.269514 6.9939296,7.224706 11.8278816,8.864557 0.562994,0.106815 0.97899,0.03154 1.249988,-0.222784 0.270997,-0.255336 0.405996,-0.574761 0.405996,-0.958274 0,-0.06409 -0.005,-0.638851 -0.016,-1.725303 -0.011,-1.086453 -0.016,-2.034555 -0.016,-2.842275 l -0.718993,0.12716 c -0.457995,0.08647 -1.03599,0.122074 -1.733983,0.111901 -0.697993,-0.0092 -1.421985,-0.08443 -2.171978,-0.223802 C 12.65654,41.914721 11.958547,41.596313 11.312553,41.095813 10.66656,40.595312 10.208564,39.940185 9.9375668,39.131449 L 9.6245699,38.395958 C 9.416572,37.906647 9.0885753,37.363421 8.6405798,36.767296 8.1925843,36.171172 7.7395888,35.766295 7.2815934,35.553684 L 7.0625956,35.393972 C 6.916597,35.287158 6.7815984,35.15898 6.6565996,35.010458 6.5316009,34.861935 6.4376018,34.712396 6.3756024,34.562856 c -0.062999,-0.148523 -0.011,-0.271613 0.1559985,-0.368254 0.1669983,-0.09563 0.4689953,-0.143437 0.9059909,-0.143437 l 0.6249938,0.09563 c 0.4169958,0.08545 0.9319906,0.340789 1.5469845,0.767028 0.6139939,0.426239 1.1199889,0.979638 1.5149849,1.660196 0.478995,0.873843 1.056989,1.539142 1.733983,1.996917 0.676993,0.457774 1.358986,0.686662 2.046979,0.686662 0.686993,0 1.280987,-0.0529 1.780982,-0.159713 0.499995,-0.105797 0.967991,-0.266526 1.405986,-0.479137 0.187998,-1.427241 0.697993,-2.523866 1.530985,-3.290894 -1.186988,-0.128176 -2.254978,-0.320441 -3.202968,-0.574761 -0.947991,-0.255337 -1.926981,-0.670386 -2.936971,-1.246166 -1.00999,-0.574761 -1.848981,-1.28889 -2.515974,-2.140352 -0.666994,-0.852478 -1.2139884,-1.970466 -1.6399841,-3.353964 -0.4269957,-1.384514 -0.6409936,-2.98164 -0.6409936,-4.791378 0,-2.57778 0.8229918,-4.771031 2.4689757,-6.580768 -0.770993,-1.937914 -0.697993,-4.109801 0.218997,-6.51668 0.603994,-0.1912485 1.499985,-0.04781 2.687974,0.431325 1.186988,0.479138 2.056979,0.890118 2.608973,1.229889 0.551995,0.340788 0.994991,0.628678 1.327987,0.862651 1.937981,-0.553398 3.937961,-0.830098 5.99994,-0.830098 2.06198,0 4.06296,0.2767 5.99994,0.830098 l 1.186988,-0.767027 c 0.811992,-0.511691 1.770983,-0.979638 2.873972,-1.405877 1.103989,-0.42624 1.94798,-0.5432268 2.531974,-0.350961 0.936991,2.406879 1.02099,4.578766 0.249998,6.51668 1.645983,1.810754 2.468975,4.004005 2.468975,6.580768 0,1.810755 -0.213998,3.41195 -0.640994,4.807655 -0.426995,1.395704 -0.97899,2.512676 -1.655983,3.353964 -0.676993,0.841289 -1.520985,1.549314 -2.530975,2.124075 -1.00999,0.574763 -1.98998,0.990829 -2.93797,1.246166 -0.947991,0.255337 -2.01998,0.447602 -3.202968,0.575778 1.082989,0.958276 1.624984,2.469951 1.624984,4.536042 l 0,6.739464 c 0,0.383514 0.129998,0.702939 0.390996,0.958275 0.259997,0.255337 0.671993,0.330616 1.233987,0.223801 4.833952,-1.639851 8.775912,-4.595043 11.827882,-8.864557 3.051969,-4.269514 4.577954,-9.077168 4.577954,-14.422961 -10e-5,-4.449572 -1.074989,-8.554288 -3.219968,-12.309059" />
</svg>
