<?xml version="1.0" encoding="UTF-8" standalone="no"?>
<svg
   xmlns:dc="http://purl.org/dc/elements/1.1/"
   xmlns:cc="http://creativecommons.org/ns#"
   xmlns:rdf="http://www.w3.org/1999/02/22-rdf-syntax-ns#"
   xmlns:svg="http://www.w3.org/2000/svg"
   xmlns="http://www.w3.org/2000/svg"
   xmlns:sodipodi="http://sodipodi.sourceforge.net/DTD/sodipodi-0.dtd"
   xmlns:inkscape="http://www.inkscape.org/namespaces/inkscape"
   viewBox="0 0 48 48"
   id="svg2"
   version="1.1"
   inkscape:version="0.91 r13725"
   sodipodi:docname="qmmp.svg">
  <metadata
     id="metadata32">
    <rdf:RDF>
      <cc:Work
         rdf:about="">
        <dc:format>image/svg+xml</dc:format>
        <dc:type
           rdf:resource="http://purl.org/dc/dcmitype/StillImage" />
        <dc:title></dc:title>
      </cc:Work>
    </rdf:RDF>
  </metadata>
  <sodipodi:namedview
     pagecolor="#ffffff"
     bordercolor="#666666"
     borderopacity="1"
     objecttolerance="10"
     gridtolerance="10"
     guidetolerance="10"
     inkscape:pageopacity="0"
     inkscape:pageshadow="2"
     inkscape:window-width="1280"
     inkscape:window-height="694"
     id="namedview30"
     showgrid="false"
     inkscape:zoom="4.9166667"
     inkscape:cx="24"
     inkscape:cy="24"
     inkscape:window-x="0"
     inkscape:window-y="0"
     inkscape:window-maximized="1"
     inkscape:current-layer="svg2" />
  <defs
     id="defs4">
    <clipPath
       id="clipPath6">
      <path
         transform="matrix(15.33333 0 0 11.5 415-125.5)"
         d="m-24 13c0 1.105-.672 2-1.5 2-.828 0-1.5-.895-1.5-2 0-1.105.672-2 1.5-2 .828 0 1.5.895 1.5 2"
         fill="#1890d0"
         id="path8" />
    </clipPath>
    <linearGradient
       y1="545.8"
       x2="0"
       y2="517.8"
       gradientUnits="userSpaceOnUse"
       id="linearGradient10">
      <stop
         stop-color="#3889e9"
         id="stop12" />
      <stop
         offset="1"
         stop-color="#5ea5fb"
         id="stop14" />
    </linearGradient>
    <linearGradient
       id="1"
       gradientUnits="userSpaceOnUse"
       y1="653.96"
       x2="0"
       y2="301.3">
      <stop
         stop-color="#566069"
         id="stop17" />
      <stop
         offset="1"
         stop-color="#6c7884"
         id="stop19" />
    </linearGradient>
    <linearGradient
       id="0"
       y1="653.96"
       x2="0"
       y2="301.3"
       gradientUnits="userSpaceOnUse">
      <stop
         stop-color="#0a80fd"
         id="stop22" />
      <stop
         offset="1"
         stop-color="#56c5fa"
         id="stop24" />
    </linearGradient>
  </defs>
  <path
     d="M 47.891091,2.9702626 C 47.577096,1.5332124 45.940085,0.61979498 44.187178,0.37261435 42.032427,0.06664075 39.276146,0.70310586 36.878841,2.1136366 c -1.821174,1.0715331 -3.50846,2.4052577 -5.242846,4.3399215 -2.727704,3.040722 -4.172613,5.4880099 -4.90327,6.8550089 -0.590419,1.104057 -0.716017,2.363977 -1.257747,2.944152 -0.02734,-0.290962 0.04551,-1.057273 -0.306763,-1.347735 -0.103728,-0.08531 -0.220327,-0.184135 -0.337457,-0.280955 0.131941,-0.772065 0.814096,-4.480525 1.908846,-6.6080792 C 28.0695,5.4268077 29.555863,3.9447247 29.749023,3.7743502 29.984167,3.5639464 30.233953,3.5476846 30.397831,3.4023284 30.522194,3.2929982 30.605102,2.8101455 30.537013,2.7571069 30.284406,2.5612136 30.00428,2.9847732 29.829642,3.2542202 29.645301,3.5399289 27.717227,5.4132979 26.537626,7.85208 c -1.102511,2.277665 -1.797712,5.919325 -1.922782,6.604576 -0.20639,-0.156865 -0.395845,-0.278203 -0.502215,-0.278203 -0.09596,0 -0.258783,0.09882 -0.438537,0.229418 C 23.530146,13.614542 22.839003,10.050436 21.76101,7.8183054 20.581233,5.3802737 18.652628,3.5401791 18.468114,3.2542202 18.295415,2.9847732 18.013878,2.5612136 17.762505,2.7571069 c -0.07091,0.052788 0.01289,0.5358915 0.137236,0.6452215 0.165113,0.1453562 0.412781,0.161618 0.649688,0.3720218 0.192456,0.1701244 1.678289,1.6199338 3.00942,4.2070744 1.071995,2.0842734 1.747086,5.7086714 1.901966,6.5900654 -0.140065,0.11333 -0.282244,0.23242 -0.4059,0.333244 -0.349101,0.290462 -0.277304,1.057023 -0.305881,1.347734 C 22.260399,15.880447 21.867023,14.259763 21.150831,12.756164 20.390543,11.151741 19.316783,9.4937796 16.591195,6.4540584 14.853458,4.5196448 13.167584,3.1866707 11.347291,2.114137 8.9496348,0.70335604 6.1928248,0.06689094 4.0371913,0.37311472 2.2818142,0.62054553 0.64321561,1.5339631 0.33310085,2.970763 0.09231212,4.0850773 1.1681881,7.5418533 2.1653889,9.5498206 c 0.7414177,1.4928414 0.8962987,3.2181024 1.1697218,4.9203454 0.3900251,2.432779 1.0977501,6.06193 3.0425814,6.965841 1.7798971,0.830107 5.2613689,-0.662734 5.2613689,-0.662734 0,0 0.07638,0.883895 -1.092458,1.54738 -1.2164684,0.691256 -1.8728613,1.768793 -2.5728242,3.648667 -0.628521,1.686232 -1.1293256,3.947134 -1.1293256,4.945613 0,1.547882 0.2725407,2.100786 0.2321449,2.81906 -0.047272,0.88915 0.1756959,1.768793 0.6061179,2.432028 0.482812,0.750548 0.2910628,1.409779 0.506626,2.239386 0.194395,0.749548 0.9545121,1.354991 0.9545121,1.354991 0,0 -0.085906,1.696239 0.780049,2.81981 0.6996109,0.911166 1.4925379,1.5061 2.0078079,2.154324 0.524091,0.664987 0.91588,1.190871 2.045206,1.494342 0.650924,0.175379 1.053473,1.677726 2.416708,1.567646 1.479661,-0.120092 1.475779,-0.03503 2.418471,-0.582176 1.518294,-0.883395 2.19744,-5.053692 2.843602,-9.081637 0.508214,-3.152803 0.897181,-5.108983 1.569272,-5.771717 -0.19069,1.845348 0.09402,4.91209 0.09402,4.91209 0,0 -0.206215,1.574401 -0.01588,1.845097 -0.08802,0.808842 0.08891,1.915401 0.185398,1.88813 0.03952,0.660984 0.282597,1.863112 0.624288,1.863112 0.341338,0 0.585301,-1.202379 0.622524,-1.863112 0.09897,0.02727 0.273598,-1.079038 0.186456,-1.88813 0.189807,-0.270696 -0.01552,-1.845097 -0.01552,-1.845097 0,0 0.262663,-2.879605 0.08784,-4.952869 0.600119,0.433816 1.067232,2.659193 1.573683,5.811747 0.648453,4.027943 1.32672,8.19724 2.847128,9.081636 0.940575,0.5474 0.937931,-0.0085 2.416532,0.111076 1.364293,0.110329 1.765784,-1.720007 2.416531,-1.893384 1.131266,-0.304472 1.521114,-0.829356 2.046264,-1.49334 0.517563,-0.649475 1.306082,-1.244161 2.009043,-2.155826 0.862782,-1.123822 0.777933,-2.820561 0.777933,-2.820561 0,0 0.764174,-0.607694 0.957511,-1.354741 0.211152,-0.828855 0.02064,-1.488837 0.50451,-2.238886 0.429184,-0.662484 0.653391,-1.542877 0.604,-2.431776 -0.03845,-0.719026 0.23585,-1.272181 0.23585,-2.819061 0,-0.99823 -0.502394,-2.462049 -1.133208,-4.148281 -0.700669,-1.879874 -1.354414,-2.957411 -2.571412,-3.648666 -1.168841,-0.663486 -1.091046,-1.547381 -1.091046,-1.547381 0,0 3.47706,1.492841 5.263484,0.662734 1.942186,-0.90291 2.651322,-4.533312 3.03976,-6.965841 0.273246,-1.702243 0.429185,-3.427754 1.169369,-4.9203447 0.994907,-2.008968 2.073606,-5.4647433 1.831935,-6.5790577"
     id="path28"
     style="fill:#b3b3b3;fill-opacity:1"
     inkscape:connector-curvature="0" />
</svg>
