<?xml version="1.0" encoding="UTF-8" standalone="no"?>
<!-- Generator: Adobe Illustrator 18.0.0, SVG Export Plug-In . SVG Version: 6.00 Build 0)  -->

<svg
   xmlns:dc="http://purl.org/dc/elements/1.1/"
   xmlns:cc="http://creativecommons.org/ns#"
   xmlns:rdf="http://www.w3.org/1999/02/22-rdf-syntax-ns#"
   xmlns:svg="http://www.w3.org/2000/svg"
   xmlns="http://www.w3.org/2000/svg"
   xmlns:sodipodi="http://sodipodi.sourceforge.net/DTD/sodipodi-0.dtd"
   xmlns:inkscape="http://www.inkscape.org/namespaces/inkscape"
   version="1.1"
   id="Capa_1"
   x="0px"
   y="0px"
   viewBox="0 0 58 58"
   style="enable-background:new 0 0 58 58;"
   xml:space="preserve"
   inkscape:version="0.91 r13725"
   sodipodi:docname="qtox.svg"><metadata
     id="metadata49"><rdf:RDF><cc:Work
         rdf:about=""><dc:format>image/svg+xml</dc:format><dc:type
           rdf:resource="http://purl.org/dc/dcmitype/StillImage" /><dc:title></dc:title></cc:Work></rdf:RDF></metadata><defs
     id="defs47" /><sodipodi:namedview
     pagecolor="#ffffff"
     bordercolor="#666666"
     borderopacity="1"
     objecttolerance="10"
     gridtolerance="10"
     guidetolerance="10"
     inkscape:pageopacity="0"
     inkscape:pageshadow="2"
     inkscape:window-width="1280"
     inkscape:window-height="694"
     id="namedview45"
     showgrid="false"
     inkscape:zoom="4.0689655"
     inkscape:cx="-11.059322"
     inkscape:cy="29"
     inkscape:window-x="0"
     inkscape:window-y="0"
     inkscape:window-maximized="1"
     inkscape:current-layer="Capa_1" /><g
     id="g3"
     transform="matrix(1,0,0,1.0879874,0,-2.4287534)"><path
       style="fill:#ebba16"
       d="m 44,18.394 0,21.141 c 0,2.722 -2.207,4.929 -4.929,4.929 L 22,44.535 l -10,11 0,-11 -7.071,0 C 2.207,44.535 0,42.328 0,39.606 L 0,18.465 C 0,15.743 2.207,13.536 4.929,13.536 L 39.07,13.465 c 2.723,0 4.93,2.207 4.93,4.929 z"
       id="path5"
       inkscape:connector-curvature="0" /><path
       style="fill:#ffffff"
       d="m 22,24.465 -13,0 c -0.553,0 -1,-0.448 -1,-1 0,-0.552 0.447,-1 1,-1 l 13,0 c 0.553,0 1,0.448 1,1 0,0.552 -0.447,1 -1,1 z"
       id="path7"
       inkscape:connector-curvature="0" /><path
       style="fill:#ffffff"
       d="m 35,30.465 -26,0 c -0.553,0 -1,-0.448 -1,-1 0,-0.552 0.447,-1 1,-1 l 26,0 c 0.553,0 1,0.448 1,1 0,0.552 -0.447,1 -1,1 z"
       id="path9"
       inkscape:connector-curvature="0" /><path
       style="fill:#ffffff"
       d="m 35,36.465 -26,0 c -0.553,0 -1,-0.448 -1,-1 0,-0.552 0.447,-1 1,-1 l 26,0 c 0.553,0 1,0.448 1,1 0,0.552 -0.447,1 -1,1 z"
       id="path11"
       inkscape:connector-curvature="0" /><path
       style="fill:#fc852e"
       d="M 53.071,2.535 18.93,2.465 C 16.207,2.465 14,4.672 14,7.394 l 0,6.122 25.071,-0.052 c 2.722,0 4.929,2.207 4.929,4.93 l 0,18.441 7,7.7 0,-11 2.071,0 C 55.793,33.535 58,31.328 58,28.606 L 58,7.465 c 0,-2.723 -2.207,-4.93 -4.929,-4.93 z"
       id="path13"
       inkscape:connector-curvature="0" /></g><g
     id="g15" /><g
     id="g17" /><g
     id="g19" /><g
     id="g21" /><g
     id="g23" /><g
     id="g25" /><g
     id="g27" /><g
     id="g29" /><g
     id="g31" /><g
     id="g33" /><g
     id="g35" /><g
     id="g37" /><g
     id="g39" /><g
     id="g41" /><g
     id="g43" /></svg>