<?xml version="1.0" encoding="UTF-8" standalone="no"?>
<svg
   xmlns:dc="http://purl.org/dc/elements/1.1/"
   xmlns:cc="http://creativecommons.org/ns#"
   xmlns:rdf="http://www.w3.org/1999/02/22-rdf-syntax-ns#"
   xmlns:svg="http://www.w3.org/2000/svg"
   xmlns="http://www.w3.org/2000/svg"
   xmlns:sodipodi="http://sodipodi.sourceforge.net/DTD/sodipodi-0.dtd"
   xmlns:inkscape="http://www.inkscape.org/namespaces/inkscape"
   viewBox="0 0 48 48"
   id="svg2"
   version="1.1"
   inkscape:version="0.91 r13725"
   sodipodi:docname="session-properties.svg">
  <metadata
     id="metadata24">
    <rdf:RDF>
      <cc:Work
         rdf:about="">
        <dc:format>image/svg+xml</dc:format>
        <dc:type
           rdf:resource="http://purl.org/dc/dcmitype/StillImage" />
        <dc:title></dc:title>
      </cc:Work>
    </rdf:RDF>
  </metadata>
  <sodipodi:namedview
     pagecolor="#ffffff"
     bordercolor="#666666"
     borderopacity="1"
     objecttolerance="10"
     gridtolerance="10"
     guidetolerance="10"
     inkscape:pageopacity="0"
     inkscape:pageshadow="2"
     inkscape:window-width="1280"
     inkscape:window-height="694"
     id="namedview22"
     showgrid="false"
     inkscape:zoom="4.9166667"
     inkscape:cx="-6.4067797"
     inkscape:cy="24"
     inkscape:window-x="0"
     inkscape:window-y="0"
     inkscape:window-maximized="1"
     inkscape:current-layer="svg2" />
  <defs
     id="defs4">
    <linearGradient
       id="0"
       gradientUnits="userSpaceOnUse"
       x1="3.147"
       x2="18.772">
      <stop
         stop-color="#e6f3ff"
         id="stop7" />
      <stop
         offset="1"
         stop-color="#dcffe7"
         id="stop9" />
    </linearGradient>
    <linearGradient
       id="1"
       x1="409.57"
       y1="542.8"
       x2="409.94"
       y2="501.23"
       gradientUnits="userSpaceOnUse"
       gradientTransform="matrix(1.0909108,0,0,1.0652853,-421.70943,-535.05257)">
      <stop
         stop-color="#197cf1"
         id="stop12" />
      <stop
         offset="1"
         stop-color="#20bcfa"
         id="stop14" />
    </linearGradient>
  </defs>
  <path
     style="fill:#5599ff;fill-opacity:1"
     inkscape:connector-curvature="0"
     id="path20"
     d="m 47.62362,20.010768 c -0.165571,-0.21685 -0.379768,-0.345962 -0.649783,-0.386976 l -5.661969,-0.866237 c -0.309512,-0.99004 -0.732574,-2.000586 -1.268806,-3.032017 0.371034,-0.515717 0.927773,-1.242583 1.670222,-2.181354 0.742447,-0.93877 1.268427,-1.624242 1.577937,-2.05755 0.165191,-0.227095 0.247229,-0.464068 0.247229,-0.711672 0,-0.288619 -0.07178,-0.515338 -0.216475,-0.680533 C 42.579529,9.0421091 40.877787,7.2891278 38.216748,4.8343484 37.969899,4.628125 37.711657,4.5252208 37.443918,4.5252208 c -0.309509,0 -0.557118,0.092675 -0.742826,0.2779853 L 32.307931,8.1139699 C 31.461805,7.6806619 30.533653,7.2990025 29.523089,6.9670894 L 28.656838,1.2744598 C 28.636298,1.0063493 28.517454,0.78456708 28.300993,0.60911757 28.084139,0.43365913 27.831978,0.34632285 27.542595,0.34632285 l -6.870011,0 c -0.598135,0 -0.969548,0.28861898 -1.11386,0.86623645 C 19.290606,2.2436115 18.991349,4.1617904 18.661331,6.9659507 17.69178,7.2758372 16.754894,7.667751 15.845727,8.1420736 L 11.575997,4.8313098 C 11.30788,4.6251087 11.039764,4.5221824 10.771646,4.5221824 c -0.453821,0 -1.4283089,0.7371197 -2.9238367,2.2121136 -1.4955292,1.4749939 -2.5110298,2.5835189 -3.0495414,3.325954 -0.1857092,0.268111 -0.2783696,0.505463 -0.2783696,0.711673 0,0.247604 0.1029208,0.495211 0.3091302,0.742436 1.3819788,1.670951 2.4855867,3.093917 3.3108222,4.27004 -0.5157252,0.948646 -0.9179014,1.897672 -1.2065246,2.846316 l -5.7534929,0.866237 c -0.22672051,0.0414 -0.42268186,0.175459 -0.58787991,0.402547 -0.16519115,0.226717 -0.24761044,0.464068 -0.24761044,0.711293 l 0,6.869892 c 0,0.268492 0.0824,0.510399 0.24761044,0.726862 0.16519254,0.216851 0.37976861,0.346345 0.64978391,0.387358 l 5.6623475,0.835476 c 0.2886245,1.010546 0.7113064,2.031346 1.2684271,3.06088 -0.3710341,0.515717 -0.9281549,1.242582 -1.670602,2.181354 -0.7424484,0.93877 -1.2688059,1.624239 -1.5779388,2.05755 -0.1651912,0.227474 -0.2476091,0.464068 -0.2476091,0.711672 0,0.268113 0.072153,0.505083 0.2164753,0.711294 0.8043497,1.114222 2.5060924,2.847074 5.1052267,5.198179 0.2271021,0.227098 0.4849661,0.340267 0.7735891,0.340267 0.309513,0 0.567376,-0.09267 0.773589,-0.277987 l 4.362781,-3.311141 c 0.846123,0.433309 1.774278,0.814968 2.784841,1.146881 l 0.866252,5.69263 c 0.02099,0.268109 0.139382,0.489892 0.355844,0.665341 0.216475,0.175838 0.469393,0.262795 0.758016,0.262795 l 6.870013,0 c 0.598895,0 0.969929,-0.288619 1.114621,-0.866237 0.267735,-1.031433 0.566614,-2.949231 0.896633,-5.753391 0.969548,-0.309506 1.910236,-0.7018 2.815603,-1.176123 l 4.270118,3.341904 c 0.288624,0.185326 0.557119,0.277985 0.804349,0.277985 0.453444,0 1.422992,-0.731799 2.907886,-2.196541 1.485654,-1.464362 2.506473,-2.578582 3.060934,-3.341904 0.185709,-0.206201 0.278752,-0.443183 0.278752,-0.711293 0,-0.268113 -0.102921,-0.526731 -0.309513,-0.773576 -1.484894,-1.815261 -2.5885,-3.238229 -3.310822,-4.269662 0.41243,-0.76332 0.814985,-1.701711 1.206905,-2.815554 l 5.723111,-0.865857 c 0.247229,-0.0414 0.454204,-0.175839 0.619022,-0.402927 0.164812,-0.227098 0.24685,-0.464449 0.24685,-0.711673 l 0,-6.869892 c 0,-0.268112 -0.08164,-0.510021 -0.247229,-0.726865 m -17.91368,9.699496 c -1.546795,1.547151 -3.413738,2.320728 -5.600446,2.320728 -2.186704,0 -4.053268,-0.773577 -5.600443,-2.320728 -1.5468,-1.546769 -2.320386,-3.413297 -2.320386,-5.599966 0,-2.186669 0.773207,-4.053197 2.320386,-5.600348 1.547175,-1.546769 3.414117,-2.320345 5.600443,-2.320345 2.186708,0 4.053651,0.773576 5.600446,2.320345 1.546797,1.547151 2.320386,3.413679 2.320386,5.600348 0,2.186669 -0.773589,4.053197 -2.320386,5.599966" />
</svg>
