<?xml version="1.0" encoding="UTF-8" standalone="no"?>
<svg
   xmlns:dc="http://purl.org/dc/elements/1.1/"
   xmlns:cc="http://creativecommons.org/ns#"
   xmlns:rdf="http://www.w3.org/1999/02/22-rdf-syntax-ns#"
   xmlns:svg="http://www.w3.org/2000/svg"
   xmlns="http://www.w3.org/2000/svg"
   xmlns:sodipodi="http://sodipodi.sourceforge.net/DTD/sodipodi-0.dtd"
   xmlns:inkscape="http://www.inkscape.org/namespaces/inkscape"
   viewBox="0 0 48 48"
   id="svg2"
   version="1.1"
   inkscape:version="0.91 r13725"
   sodipodi:docname="shell.svg">
  <metadata
     id="metadata27">
    <rdf:RDF>
      <cc:Work
         rdf:about="">
        <dc:format>image/svg+xml</dc:format>
        <dc:type
           rdf:resource="http://purl.org/dc/dcmitype/StillImage" />
        <dc:title></dc:title>
      </cc:Work>
    </rdf:RDF>
  </metadata>
  <sodipodi:namedview
     pagecolor="#ffffff"
     bordercolor="#666666"
     borderopacity="1"
     objecttolerance="10"
     gridtolerance="10"
     guidetolerance="10"
     inkscape:pageopacity="0"
     inkscape:pageshadow="2"
     inkscape:window-width="1280"
     inkscape:window-height="694"
     id="namedview25"
     showgrid="false"
     inkscape:zoom="4.9166667"
     inkscape:cx="-9.1525424"
     inkscape:cy="24"
     inkscape:window-x="0"
     inkscape:window-y="0"
     inkscape:window-maximized="1"
     inkscape:current-layer="svg2" />
  <defs
     id="defs4">
    <linearGradient
       gradientUnits="userSpaceOnUse"
       x2="47"
       x1="0"
       id="linearGradient6">
      <stop
         stop-color="#a9a3d4"
         id="stop8" />
      <stop
         offset=".47"
         stop-color="#87baff"
         id="stop10" />
      <stop
         offset="1"
         stop-color="#89ec85"
         id="stop12" />
    </linearGradient>
    <linearGradient
       y2="500.8"
       x2="0"
       y1="546.8"
       gradientUnits="userSpaceOnUse"
       id="0"
       gradientTransform="matrix(1.04348,0,0,1.04348,-402.33,-522.581)">
      <stop
         stop-color="#141414"
         id="stop15" />
      <stop
         offset="1"
         stop-color="#2d2d2f"
         id="stop17" />
    </linearGradient>
  </defs>
  <path
     style="fill:#808080;fill-opacity:1;fill-rule:evenodd;stroke-width:1.31700003"
     inkscape:connector-curvature="0"
     id="path23"
     d="m 47.863335,21.148084 c -0.07563,-0.669512 -0.859602,-1.172621 -1.537496,-1.172621 -2.191719,0 -4.136058,-1.28143 -4.952236,-3.263208 -0.833262,-2.029802 -0.295966,-4.39702 1.337457,-5.888802 0.514159,-0.468021 0.576627,-1.2511278 0.145403,-1.795704 C 41.734708,7.6100416 40.45972,6.3280799 39.067628,5.2176602 38.522499,4.7820695 37.722697,4.8426764 37.250003,5.3638613 35.824452,6.9359217 33.263798,7.520194 31.285111,6.6981014 29.22598,5.8356037 27.9275,3.757953 28.054929,1.5270131 28.096756,0.82648837 27.582592,0.21740578 26.881205,0.13606475 25.094371,-0.06967999 23.293299,-0.07605962 21.501127,0.12188654 20.80775,0.19808803 20.293589,0.79281669 20.316905,1.4844807 20.39486,3.6927373 19.080715,5.7340582 17.04205,6.5655436 15.087033,7.3607004 12.544711,6.7813905 11.120939,5.2233302 10.650737,4.7101186 9.8644594,4.6470313 9.3161295,5.0721666 7.8834585,6.1919775 6.5791054,7.4742944 5.4470277,8.8810146 5.0054809,9.4278957 5.0704398,10.220571 5.5897608,10.691072 c 1.6645665,1.500999 2.2020404,3.888772 1.3372771,5.941967 -0.8256089,1.958209 -2.8671208,3.218196 -5.2038873,3.218196 -0.75833671,-0.02427 -1.29848023,0.482553 -1.3814149,1.169077 -0.21036241,1.789855 -0.21285406,3.612141 -0.010332,5.41582 0.0751031,0.672348 0.88291666,1.171026 1.56828496,1.171026 2.0826226,-0.05299 4.0821324,1.230925 4.9209125,3.263387 0.8361103,2.0298 0.2986363,4.3956 -1.3372782,5.888802 -0.5116683,0.468021 -0.5766283,1.251126 -0.145402,1.794462 1.1112549,1.40938 2.3864193,2.691873 3.7834963,3.811507 0.547974,0.439666 1.3452857,0.377642 1.8202927,-0.143543 1.43089,-1.57596 3.991366,-2.159169 5.962223,-1.33548 2.064292,0.859839 3.362772,2.937312 3.235522,5.169316 -0.04147,0.700879 0.475184,1.311024 1.173723,1.391125 0.913884,0.106152 1.833283,0.159137 2.755178,0.159137 0.875086,0 1.750349,-0.04786 2.625434,-0.144783 0.693556,-0.07619 1.207359,-0.670931 1.184045,-1.363835 -0.08026,-2.207016 1.236191,-4.248337 3.272184,-5.078405 1.968365,-0.800473 4.500188,-0.214605 5.922893,1.341861 0.47287,0.512146 1.254698,0.573993 1.804987,0.150276 1.43089,-1.117154 2.731684,-2.398406 3.869099,-3.809024 0.441369,-0.545641 0.379079,-1.339558 -0.142904,-1.809883 -1.664567,-1.500996 -2.204712,-3.889126 -1.339948,-5.940901 0.812973,-1.93145 2.77849,-3.228298 4.892615,-3.228298 l 0.295789,0.0076 c 0.685724,0.05547 1.316633,-0.470501 1.399745,-1.167482 0.210718,-1.789855 0.21321,-3.612142 0.01071,-5.41582 M 24.135882,31.785303 c -4.399101,0 -7.977396,-3.563761 -7.977396,-7.943413 0,-4.380184 3.579007,-7.943416 7.977396,-7.943416 4.398922,0 7.977216,3.563762 7.977216,7.943416 0,4.380361 -3.579006,7.943413 -7.977216,7.943413" />
</svg>
