<?xml version="1.0" encoding="UTF-8" standalone="no"?>
<!-- Generator: Adobe Illustrator 19.0.0, SVG Export Plug-In . SVG Version: 6.00 Build 0)  -->

<svg
   xmlns:dc="http://purl.org/dc/elements/1.1/"
   xmlns:cc="http://creativecommons.org/ns#"
   xmlns:rdf="http://www.w3.org/1999/02/22-rdf-syntax-ns#"
   xmlns:svg="http://www.w3.org/2000/svg"
   xmlns="http://www.w3.org/2000/svg"
   xmlns:sodipodi="http://sodipodi.sourceforge.net/DTD/sodipodi-0.dtd"
   xmlns:inkscape="http://www.inkscape.org/namespaces/inkscape"
   version="1.1"
   id="Capa_1"
   x="0px"
   y="0px"
   viewBox="0 0 58 58"
   style="enable-background:new 0 0 58 58;"
   xml:space="preserve"
   inkscape:version="0.91 r13725"
   sodipodi:docname="shotwell.svg"><metadata
     id="metadata55"><rdf:RDF><cc:Work
         rdf:about=""><dc:format>image/svg+xml</dc:format><dc:type
           rdf:resource="http://purl.org/dc/dcmitype/StillImage" /><dc:title></dc:title></cc:Work></rdf:RDF></metadata><defs
     id="defs53" /><sodipodi:namedview
     pagecolor="#ffffff"
     bordercolor="#666666"
     borderopacity="1"
     objecttolerance="10"
     gridtolerance="10"
     guidetolerance="10"
     inkscape:pageopacity="0"
     inkscape:pageshadow="2"
     inkscape:window-width="1280"
     inkscape:window-height="694"
     id="namedview51"
     showgrid="false"
     inkscape:zoom="4.0689655"
     inkscape:cx="-3.3177966"
     inkscape:cy="29"
     inkscape:window-x="0"
     inkscape:window-y="0"
     inkscape:window-maximized="1"
     inkscape:current-layer="Capa_1" /><g
     id="g4193"
     transform="matrix(1.7833686,0,0,1,-22.71769,0)"><path
       id="path3"
       d="m 41.595,58 -25.19,0 C 14.525,58 13,56.475 13,54.595 L 13,3.405 C 13,1.525 14.525,0 16.405,0 L 41.594,0 C 43.475,0 45,1.525 45,3.405 l 0,51.189 C 45,56.475 43.475,58 41.595,58 Z"
       style="fill:#424a60"
       inkscape:connector-curvature="0" /><rect
       id="rect5"
       height="40"
       width="32"
       style="fill:#e7eced"
       y="6"
       x="13" /><circle
       id="circle7"
       r="3"
       cy="52"
       cx="29"
       style="fill:#262b35" /><path
       id="path9"
       d="M 29,4 25,4 C 24.447,4 24,3.553 24,3 24,2.447 24.447,2 25,2 l 4,0 c 0.553,0 1,0.447 1,1 0,0.553 -0.447,1 -1,1 z"
       style="fill:#262b35"
       inkscape:connector-curvature="0" /><path
       id="path11"
       d="M 33,4 32,4 C 31.447,4 31,3.553 31,3 31,2.447 31.447,2 32,2 l 1,0 c 0.553,0 1,0.447 1,1 0,0.553 -0.447,1 -1,1 z"
       style="fill:#262b35"
       inkscape:connector-curvature="0" /><circle
       id="circle13"
       r="12"
       cy="21"
       cx="29"
       style="fill:#7383bf" /><path
       id="path15"
       d="m 31.932,28.567 c -0.447,-0.224 -0.73,-0.681 -0.73,-1.181 l 0,-1.358 c 0.097,-0.111 0.209,-0.253 0.327,-0.421 0.472,-0.666 0.828,-1.399 1.076,-2.168 0.444,-0.137 0.771,-0.547 0.771,-1.034 l 0,-1.449 c 0,-0.319 -0.142,-0.604 -0.362,-0.803 l 0,-2.096 c 0,0 0.43,-3.261 -3.986,-3.261 -4.416,0 -3.986,3.261 -3.986,3.261 l 0,2.096 c -0.221,0.199 -0.362,0.484 -0.362,0.803 l 0,1.449 c 0,0.382 0.201,0.718 0.501,0.912 0.362,1.577 1.311,2.711 1.311,2.711 l 0,1.325 c 0,0.483 -0.264,0.928 -0.688,1.159 l -3.233,1.763 c -0.221,0.12 -0.418,0.271 -0.597,0.439 C 23.951,32.146 26.373,33 29,33 c 2.623,0 5.041,-0.851 7.016,-2.278 -0.186,-0.165 -0.393,-0.309 -0.622,-0.424 l -3.462,-1.731 z"
       style="fill:#424a60"
       inkscape:connector-curvature="0" /><rect
       id="rect17"
       height="6"
       width="26"
       style="fill:#afb6bb"
       y="37"
       x="16" /><rect
       id="rect19"
       height="6"
       width="6"
       style="fill:#61b872"
       y="37"
       x="16" /></g><g
     id="g21" /><g
     id="g23" /><g
     id="g25" /><g
     id="g27" /><g
     id="g29" /><g
     id="g31" /><g
     id="g33" /><g
     id="g35" /><g
     id="g37" /><g
     id="g39" /><g
     id="g41" /><g
     id="g43" /><g
     id="g45" /><g
     id="g47" /><g
     id="g49" /></svg>