<?xml version="1.0" encoding="UTF-8" standalone="no"?>
<svg
   xmlns:dc="http://purl.org/dc/elements/1.1/"
   xmlns:cc="http://creativecommons.org/ns#"
   xmlns:rdf="http://www.w3.org/1999/02/22-rdf-syntax-ns#"
   xmlns:svg="http://www.w3.org/2000/svg"
   xmlns="http://www.w3.org/2000/svg"
   xmlns:sodipodi="http://sodipodi.sourceforge.net/DTD/sodipodi-0.dtd"
   xmlns:inkscape="http://www.inkscape.org/namespaces/inkscape"
   viewBox="0 0 48 48"
   id="svg2"
   version="1.1"
   inkscape:version="0.91 r13725"
   sodipodi:docname="skydrive.svg">
  <metadata
     id="metadata31">
    <rdf:RDF>
      <cc:Work
         rdf:about="">
        <dc:format>image/svg+xml</dc:format>
        <dc:type
           rdf:resource="http://purl.org/dc/dcmitype/StillImage" />
        <dc:title></dc:title>
      </cc:Work>
    </rdf:RDF>
  </metadata>
  <sodipodi:namedview
     pagecolor="#ffffff"
     bordercolor="#666666"
     borderopacity="1"
     objecttolerance="10"
     gridtolerance="10"
     guidetolerance="10"
     inkscape:pageopacity="0"
     inkscape:pageshadow="2"
     inkscape:window-width="1280"
     inkscape:window-height="694"
     id="namedview29"
     showgrid="false"
     inkscape:zoom="4.9166667"
     inkscape:cx="-6.4067797"
     inkscape:cy="24"
     inkscape:window-x="0"
     inkscape:window-y="0"
     inkscape:window-maximized="1"
     inkscape:current-layer="svg2" />
  <defs
     id="defs4">
    <clipPath
       id="clipPath6">
      <path
         transform="matrix(15.33333 0 0 11.5 415-125.5)"
         d="m-24 13c0 1.105-.672 2-1.5 2-.828 0-1.5-.895-1.5-2 0-1.105.672-2 1.5-2 .828 0 1.5.895 1.5 2"
         fill="#1890d0"
         id="path8" />
    </clipPath>
    <clipPath
       id="clipPath10">
      <path
         d="m69.63 12.145h-.052c-22.727-.292-46.47 4.077-46.709 4.122-2.424.451-4.946 2.974-5.397 5.397-.044.237-4.414 23.983-4.122 46.71-.292 22.777 4.078 46.523 4.122 46.761.451 2.423 2.974 4.945 5.398 5.398.237.044 23.982 4.413 46.709 4.121 22.779.292 46.524-4.077 46.761-4.121 2.423-.452 4.946-2.976 5.398-5.399.044-.236 4.413-23.981 4.121-46.709.292-22.777-4.077-46.523-4.121-46.761-.453-2.423-2.976-4.946-5.398-5.397-.238-.045-23.984-4.414-46.71-4.122"
         id="path12" />
    </clipPath>
    <clipPath
       id="clipPath14">
      <path
         transform="matrix(15.33333 0 0 11.5 415-125.5)"
         d="m-24 13c0 1.105-.672 2-1.5 2-.828 0-1.5-.895-1.5-2 0-1.105.672-2 1.5-2 .828 0 1.5.895 1.5 2"
         fill="#1890d0"
         id="path16" />
    </clipPath>
    <linearGradient
       id="0"
       x1="-10.767"
       y1="4.675"
       x2="-11.233"
       y2="-22.851"
       gradientUnits="userSpaceOnUse"
       gradientTransform="matrix(1.77384 0 0 1.71427 42.46 39.38)">
      <stop
         stop-color="#155bc2"
         id="stop19" />
      <stop
         stop-color="#369dff"
         offset="1"
         id="stop21" />
    </linearGradient>
  </defs>
  <path
     d="M 26.300425,0.30884503 C 24.698361,0.30455031 23.359579,0.80918047 22.070819,1.9064827 20.876841,2.9243325 19.411684,4.9235269 18.695561,6.529754 17.475254,9.2461674 17.539758,9.1581256 16.961857,8.7673057 15.142587,7.5325722 13.037657,7.3156886 11.365825,8.1939599 8.2683268,9.8173658 6.0475544,14.876551 5.9185466,20.614304 c -0.023698,0.923366 -0.086881,1.810227 -0.1461215,1.975574 -0.059239,0.156758 -0.4383622,0.438062 -0.8398647,0.609851 -1.9035201,0.81385 -3.4200171,2.883907 -4.21117567,5.750637 -0.37517502,1.361427 -0.41729998,1.803784 -0.41729998,4.543818 0,2.879613 0.0276442,3.11797 0.49891699,4.745671 0.83196716,2.871023 2.60516286,5.385585 4.27831136,6.059857 0.6055459,0.242652 4.9865379,0.317809 5.1234439,0.08804 0.05528,-0.09233 -0.03686,-0.616292 -0.206676,-1.172459 C 9.554453,41.737907 9.2332508,39.152484 9.2332508,37.045921 9.2331189,31.252337 11.286841,26.725697 14.808221,24.765155 c 1.137372,-0.633472 1.403286,-0.910482 1.403286,-1.468796 0,-0.788082 0.839865,-3.953294 1.499384,-5.651857 0.924115,-2.383573 2.147054,-4.215273 3.670133,-5.490807 3.810989,-3.1888328 8.295975,-2.1774251 11.04331,2.486646 l 0.975455,1.649175 1.067604,-0.470272 c 0.587116,-0.257684 1.259798,-0.478863 1.495434,-0.487452 0.537093,-0.01286 0.559472,-0.66783 0.10268,-2.986981 C 34.638525,5.0867264 30.773564,0.33031866 26.300425,0.31313975 Z M 25.989753,13.369103 c -1.898254,-0.01288 -2.692046,0.281305 -4.261198,1.614817 -1.499384,1.275533 -2.905304,4.393504 -3.663552,8.134208 -0.167184,0.822441 -0.302773,1.750101 -0.302773,2.061469 0,0.994228 -0.351479,1.4237 -1.499383,1.82311 -2.305024,0.803114 -4.058473,2.986981 -4.720624,5.879479 -0.269863,1.181049 -0.34753,2.061468 -0.346214,3.897462 0.004,5.742048 1.60338,9.613742 4.471823,10.822707 0.596331,0.251241 4.046625,0.315662 14.89774,0.279158 l 14.122379,-0.04294 0.63319,-0.581935 c 1.351946,-1.228292 2.204976,-3.699906 2.345831,-6.796402 0.214574,-4.737082 -0.968873,-7.958126 -3.492419,-9.49349 l -0.88594,-0.538988 -0.09346,-2.050731 c -0.360694,-7.498589 -4.833834,-11.98443 -9.320138,-9.347468 l -0.92938,0.545429 -1.032062,-1.846731 c -1.88114,-3.35418 -3.227822,-4.344114 -5.923816,-4.369883"
     id="path27"
     style="fill:#2a7fff"
     inkscape:connector-curvature="0" />
</svg>
