<?xml version="1.0" encoding="UTF-8" standalone="no"?>
<svg
   xmlns:dc="http://purl.org/dc/elements/1.1/"
   xmlns:cc="http://creativecommons.org/ns#"
   xmlns:rdf="http://www.w3.org/1999/02/22-rdf-syntax-ns#"
   xmlns:svg="http://www.w3.org/2000/svg"
   xmlns="http://www.w3.org/2000/svg"
   xmlns:sodipodi="http://sodipodi.sourceforge.net/DTD/sodipodi-0.dtd"
   xmlns:inkscape="http://www.inkscape.org/namespaces/inkscape"
   viewBox="0 0 48 48"
   id="svg2"
   version="1.1"
   inkscape:version="0.91 r13725"
   sodipodi:docname="smartgithg.svg">
  <metadata
     id="metadata24">
    <rdf:RDF>
      <cc:Work
         rdf:about="">
        <dc:format>image/svg+xml</dc:format>
        <dc:type
           rdf:resource="http://purl.org/dc/dcmitype/StillImage" />
        <dc:title></dc:title>
      </cc:Work>
    </rdf:RDF>
  </metadata>
  <sodipodi:namedview
     pagecolor="#ffffff"
     bordercolor="#666666"
     borderopacity="1"
     objecttolerance="10"
     gridtolerance="10"
     guidetolerance="10"
     inkscape:pageopacity="0"
     inkscape:pageshadow="2"
     inkscape:window-width="1280"
     inkscape:window-height="694"
     id="namedview22"
     showgrid="false"
     inkscape:zoom="4.9166667"
     inkscape:cx="-9.1525424"
     inkscape:cy="24"
     inkscape:window-x="0"
     inkscape:window-y="0"
     inkscape:window-maximized="1"
     inkscape:current-layer="svg2" />
  <defs
     id="defs4">
    <linearGradient
       id="0"
       x1="408.02"
       y1="545.26"
       x2="408.56"
       y2="503.42"
       gradientUnits="userSpaceOnUse"
       gradientTransform="matrix(1.0666493,0,0,1.0920183,-411.79722,-548.07486)">
      <stop
         stop-color="#1f2121"
         id="stop7" />
      <stop
         offset="1"
         stop-color="#404447"
         id="stop9" />
    </linearGradient>
    <linearGradient
       id="1"
       y1="546.81"
       x2="0"
       y2="512.72"
       gradientUnits="userSpaceOnUse"
       gradientTransform="matrix(0.97346027,0,0,1.0267097,-373.7376,-513.41271)">
      <stop
         stop-color="#e1e1e1"
         id="stop12" />
      <stop
         offset="1"
         stop-color="#fcf9f9"
         id="stop14" />
    </linearGradient>
  </defs>
  <path
     inkscape:connector-curvature="0"
     style="fill:#666666"
     id="path20"
     d="M 44.788218,12.231611 C 42.64224,8.4568012 39.731269,5.467601 36.054306,3.2650325 32.377342,1.0614423 28.362383,-0.03984188 24.004426,-0.03984188 c -4.353956,0 -8.369916,1.10128418 -12.049879,3.30487438 -3.6769636,2.2035902 -6.5879345,5.1917688 -8.733913,8.9665785 -2.1459786,3.77481 -3.21896783,7.896965 -3.21896783,12.37157 0,5.368505 1.52598473,10.196585 4.57795423,14.484238 3.0519695,4.287653 6.9939296,7.2554 11.8278816,8.902218 0.562994,0.107268 0.97899,0.03167 1.249988,-0.22373 0.270997,-0.256421 0.405996,-0.577204 0.405996,-0.962346 0,-0.06436 -0.005,-0.641565 -0.016,-1.732633 -0.011,-1.091069 -0.016,-2.043199 -0.016,-2.85435 l -0.718993,0.1277 c -0.457995,0.08684 -1.03599,0.122592 -1.733983,0.112376 -0.697993,-0.0092 -1.421985,-0.08479 -2.171978,-0.224752 C 12.65654,42.092965 11.958547,41.773204 11.312553,41.270578 10.66656,40.767951 10.208564,40.11004 9.9375668,39.297869 L 9.6245699,38.559252 C 9.416572,38.067863 9.0885753,37.522328 8.6405798,36.923671 8.1925843,36.325014 7.7395888,35.918417 7.2815934,35.704903 L 7.0625956,35.544512 C 6.916597,35.437244 6.7815984,35.308522 6.6565996,35.15937 6.5316009,35.010216 6.4376018,34.860041 6.3756024,34.709865 c -0.062999,-0.149154 -0.011,-0.272766 0.1559985,-0.369818 0.1669983,-0.09603 0.4689953,-0.144046 0.9059909,-0.144046 l 0.6249938,0.09603 c 0.4169958,0.08582 0.9319906,0.342236 1.5469845,0.770287 0.6139939,0.428049 1.1199889,0.9838 1.5149849,1.667249 0.478995,0.877555 1.056989,1.545681 1.733983,2.005401 0.676993,0.459719 1.358986,0.689579 2.046979,0.689579 0.686993,0 1.280987,-0.05312 1.780982,-0.160391 0.499995,-0.106247 0.967991,-0.267659 1.405986,-0.481174 0.187998,-1.433304 0.697993,-2.534588 1.530985,-3.304874 C 18.436482,35.349388 17.368492,35.156306 16.420502,34.900905 15.472511,34.644484 14.493521,34.227672 13.483531,33.649446 12.473541,33.072242 11.63455,32.355079 10.967557,31.5 10.300563,30.643901 9.7535686,29.521163 9.3275729,28.131787 8.9005772,26.74139 8.6865793,25.137479 8.6865793,23.320053 c 0,-2.588733 0.8229918,-4.791302 2.4689757,-6.608727 -0.770993,-1.946147 -0.697993,-4.127261 0.218997,-6.544366 0.603994,-0.1920609 1.499985,-0.04802 2.687974,0.433158 1.186988,0.481173 2.056979,0.893899 2.608973,1.235114 0.551995,0.342236 0.994991,0.631349 1.327987,0.866316 1.937981,-0.55575 3.937961,-0.833625 5.99994,-0.833625 2.06198,0 4.06296,0.277875 5.99994,0.833625 l 1.186988,-0.770286 c 0.811992,-0.513864 1.770983,-0.9838 2.873972,-1.41185 1.103989,-0.428051 1.94798,-0.5455345 2.531974,-0.352452 0.936991,2.417105 1.02099,4.598219 0.249998,6.544366 1.645983,1.818447 2.468975,4.021016 2.468975,6.608727 0,1.818448 -0.213998,3.426445 -0.640994,4.828079 -0.426995,1.401635 -0.97899,2.523352 -1.655983,3.368214 -0.676993,0.844863 -1.520985,1.555896 -2.530975,2.1331 -1.00999,0.577204 -1.98998,0.995038 -2.93797,1.251459 -0.947991,0.256422 -2.01998,0.449505 -3.202968,0.578225 1.082989,0.962347 1.624984,2.480444 1.624984,4.555313 l 0,6.768097 c 0,0.385143 0.129998,0.705925 0.390996,0.962346 0.259997,0.256422 0.671993,0.33202 1.233987,0.224752 4.833952,-1.646818 8.775912,-4.614565 11.827882,-8.902218 3.051969,-4.287653 4.577954,-9.115733 4.577954,-14.484237 -10e-5,-4.468476 -1.074989,-8.590631 -3.219968,-12.361355" />
</svg>
