<?xml version="1.0" encoding="UTF-8" standalone="no"?>
<svg
   xmlns:dc="http://purl.org/dc/elements/1.1/"
   xmlns:cc="http://creativecommons.org/ns#"
   xmlns:rdf="http://www.w3.org/1999/02/22-rdf-syntax-ns#"
   xmlns:svg="http://www.w3.org/2000/svg"
   xmlns="http://www.w3.org/2000/svg"
   xmlns:xlink="http://www.w3.org/1999/xlink"
   xmlns:sodipodi="http://sodipodi.sourceforge.net/DTD/sodipodi-0.dtd"
   xmlns:inkscape="http://www.inkscape.org/namespaces/inkscape"
   viewBox="0 0 48 48"
   id="svg2"
   version="1.1"
   inkscape:version="0.91 r13725"
   sodipodi:docname="smc.svg">
  <metadata
     id="metadata51">
    <rdf:RDF>
      <cc:Work
         rdf:about="">
        <dc:format>image/svg+xml</dc:format>
        <dc:type
           rdf:resource="http://purl.org/dc/dcmitype/StillImage" />
        <dc:title></dc:title>
      </cc:Work>
    </rdf:RDF>
  </metadata>
  <sodipodi:namedview
     pagecolor="#ffffff"
     bordercolor="#666666"
     borderopacity="1"
     objecttolerance="10"
     gridtolerance="10"
     guidetolerance="10"
     inkscape:pageopacity="0"
     inkscape:pageshadow="2"
     inkscape:window-width="1280"
     inkscape:window-height="694"
     id="namedview49"
     showgrid="false"
     inkscape:zoom="4.9166667"
     inkscape:cx="-19.233223"
     inkscape:cy="24"
     inkscape:window-x="0"
     inkscape:window-y="0"
     inkscape:window-maximized="1"
     inkscape:current-layer="svg2" />
  <defs
     id="defs4">
    <linearGradient
       id="8"
       x1="-42.828"
       y1="20.17"
       x2="-42.945"
       y2="8.222"
       gradientUnits="userSpaceOnUse"
       gradientTransform="matrix(1.43114,0,0,1.43114,85.03,20.452)">
      <stop
         stop-color="#ceb270"
         id="stop7" />
      <stop
         offset="1"
         stop-color="#ffe6b5"
         id="stop9" />
    </linearGradient>
    <linearGradient
       xlink:href="#6"
       id="5"
       x1="-46.35"
       y1="14.902"
       x2="-46.46"
       y2="7.834"
       gradientUnits="userSpaceOnUse"
       gradientTransform="matrix(1.43114,0,0,1.43114,85.03,20.452)" />
    <linearGradient
       xlink:href="#6"
       id="7"
       x1="-39.02"
       y1="14.978"
       x2="-39.27"
       y2="8.351"
       gradientUnits="userSpaceOnUse"
       gradientTransform="matrix(1.43114,0,0,1.43114,85.03,20.452)" />
    <linearGradient
       id="6">
      <stop
         stop-color="#141414"
         id="stop14" />
      <stop
         offset="1"
         stop-color="#2d2d2f"
         id="stop16" />
    </linearGradient>
    <linearGradient
       xlink:href="#1"
       id="4"
       x1="-58.804"
       y1="5.511"
       x2="-56.15"
       y2="-4.15"
       gradientUnits="userSpaceOnUse" />
    <linearGradient
       id="3"
       x1="-43.715"
       y1="9.663"
       x2="-43.47"
       y2="-13.524"
       gradientUnits="userSpaceOnUse"
       gradientTransform="matrix(1.43114,0,0,1.43114,85.03,20.452)">
      <stop
         stop-color="#016ed4"
         id="stop20" />
      <stop
         offset="1"
         stop-color="#00b1ff"
         id="stop22" />
    </linearGradient>
    <linearGradient
       xlink:href="#1"
       id="0"
       x1="-26.599"
       y1="6.02"
       x2="-28.01"
       y2="-4.658"
       gradientUnits="userSpaceOnUse" />
    <linearGradient
       xlink:href="#1"
       id="2"
       x1="-43.3"
       y1="4.793"
       x2="-43.474"
       y2="-11.173"
       gradientUnits="userSpaceOnUse"
       gradientTransform="matrix(1.43114,0,0,1.43114,85.03,20.452)" />
    <linearGradient
       id="1">
      <stop
         stop-color="#e0e0e0"
         id="stop27" />
      <stop
         offset="1"
         stop-color="#fcf9f9"
         id="stop29" />
    </linearGradient>
    <clipPath
       clipPathUnits="userSpaceOnUse"
       id="clipPath3808">
      <path
         sodipodi:nodetypes="ssccccss"
         inkscape:connector-curvature="0"
         id="path3810"
         d="m 484.17116,-74.18074 c -161.07908,0 -291.63794,130.607712 -291.63794,291.68679 0,3.9473 0.0791,7.87559 0.2355,11.78368 -0.49881,38.83803 6.14545,46.18893 40.08833,49.52013 170.02557,16.63547 333.44735,12.87945 503.79577,-0.84823 34.51812,1.75157 36.63963,-12.54502 38.60536,-41.84856 0.3965,-6.1515 0.59976,-12.35543 0.59976,-18.60702 0,-161.079078 -130.60771,-291.68679 -291.68678,-291.68679 z"
         style="fill:#fc5367;fill-opacity:1;fill-rule:evenodd;stroke:none" />
    </clipPath>
    <clipPath
       clipPathUnits="userSpaceOnUse"
       id="clipPath3804">
      <path
         sodipodi:nodetypes="ssccccss"
         inkscape:connector-curvature="0"
         id="path3806"
         d="m 948.22321,-55.006873 c -142.99877,0 -258.90306,115.947662 -258.90306,258.946433 0,3.50423 0.0702,6.99159 0.20906,10.46102 -0.44282,34.47867 5.45566,41.00446 35.58862,43.96175 150.94107,14.76823 296.01957,11.4338 447.24727,-0.75302 30.6436,1.55496 32.527,-11.1369 34.2721,-37.15128 0.352,-5.46102 0.5324,-10.96859 0.5324,-16.51847 0,-142.998771 -115.9476,-258.946433 -258.94639,-258.946433 z"
         style="fill:#fc5367;fill-opacity:1;fill-rule:evenodd;stroke:none" />
    </clipPath>
  </defs>
  <g
     id="g4187"
     transform="matrix(1.8797755,0,0,1.2914693,151.41666,-24.492572)">
    <rect
       style="color:#000000;display:inline;overflow:visible;visibility:visible;fill:#aaccff;fill-opacity:1;fill-rule:evenodd;stroke:none;stroke-width:38;marker:none;enable-background:accumulate"
       id="rect3769"
       width="18.752583"
       height="20.362459"
       x="-77.105103"
       y="35.756592"
       ry="4.9748116" />
    <path
       sodipodi:nodetypes="ssccccss"
       inkscape:connector-curvature="0"
       id="path2992"
       d="m -67.729869,19.135185 c -6.958452,0 -12.598461,8.477733 -12.598461,18.933358 0,0.256218 0.0034,0.511204 0.01017,0.764877 -0.02155,2.520974 0.265478,2.998119 1.731775,3.214347 7.344932,1.079807 14.404586,0.836004 21.763463,-0.05506 1.491148,0.113694 1.582795,-0.814296 1.667713,-2.716386 0.01713,-0.399294 0.02591,-0.80199 0.02591,-1.20778 0,-10.455625 -5.64212,-18.933358 -12.600572,-18.933358 z"
       style="fill:#2a7fff;fill-opacity:1;fill-rule:evenodd;stroke:none" />
    <ellipse
       ry="2.5865827"
       rx="1.4284194"
       style="fill:#00112b;fill-opacity:1;fill-rule:evenodd;stroke:none"
       id="path3792"
       cx="-62.931557"
       cy="49.019703" />
    <ellipse
       ry="2.5865827"
       rx="1.4284194"
       id="path3794"
       style="fill:#00112b;fill-opacity:1;fill-rule:evenodd;stroke:none"
       cx="-72.381111"
       cy="49.019703" />
    <ellipse
       ry="7.4845796"
       rx="4.9811544"
       id="path3796"
       style="fill:#aaccff;fill-opacity:1;fill-rule:evenodd;stroke:none"
       cx="-67.728813"
       cy="29.262615" />
    <circle
       clip-path="url(#clipPath3808)"
       style="fill:#aaccff;fill-opacity:1;fill-rule:evenodd;stroke:none"
       id="path3798"
       transform="matrix(0.04319898,0,0,0.06490989,-88.645569,23.95025)"
       cx="722.44067"
       cy="130.16948"
       r="73.762711" />
    <circle
       clip-path="url(#clipPath3804)"
       transform="matrix(0.04866092,0,0,0.07311689,-113.87128,23.157117)"
       id="path3800"
       style="fill:#aaccff;fill-opacity:1;fill-rule:evenodd;stroke:none"
       cx="722.44067"
       cy="130.16948"
       r="73.762711" />
  </g>
</svg>
