<?xml version="1.0" encoding="UTF-8" standalone="no"?>
<svg
   xmlns:dc="http://purl.org/dc/elements/1.1/"
   xmlns:cc="http://creativecommons.org/ns#"
   xmlns:rdf="http://www.w3.org/1999/02/22-rdf-syntax-ns#"
   xmlns:svg="http://www.w3.org/2000/svg"
   xmlns="http://www.w3.org/2000/svg"
   xmlns:sodipodi="http://sodipodi.sourceforge.net/DTD/sodipodi-0.dtd"
   xmlns:inkscape="http://www.inkscape.org/namespaces/inkscape"
   viewBox="0 0 48 48"
   id="svg2"
   version="1.1"
   inkscape:version="0.91 r13725"
   sodipodi:docname="soundcloud.svg">
  <metadata
     id="metadata21">
    <rdf:RDF>
      <cc:Work
         rdf:about="">
        <dc:format>image/svg+xml</dc:format>
        <dc:type
           rdf:resource="http://purl.org/dc/dcmitype/StillImage" />
        <dc:title></dc:title>
      </cc:Work>
    </rdf:RDF>
  </metadata>
  <sodipodi:namedview
     pagecolor="#ffffff"
     bordercolor="#666666"
     borderopacity="1"
     objecttolerance="10"
     gridtolerance="10"
     guidetolerance="10"
     inkscape:pageopacity="0"
     inkscape:pageshadow="2"
     inkscape:window-width="1280"
     inkscape:window-height="694"
     id="namedview19"
     showgrid="false"
     inkscape:zoom="4.9166667"
     inkscape:cx="-9.1525424"
     inkscape:cy="24"
     inkscape:window-x="0"
     inkscape:window-y="0"
     inkscape:window-maximized="1"
     inkscape:current-layer="svg2" />
  <defs
     id="defs4">
    <clipPath
       id="clipPath6">
      <path
         transform="matrix(15.33333 0 0 11.5 415-125.5)"
         d="m-24 13c0 1.105-.672 2-1.5 2-.828 0-1.5-.895-1.5-2 0-1.105.672-2 1.5-2 .828 0 1.5.895 1.5 2"
         fill="#1890d0"
         id="path8" />
    </clipPath>
    <linearGradient
       id="0"
       gradientUnits="userSpaceOnUse"
       x1="24.61"
       y1="47.593"
       x2="23.593"
       y2="-.203">
      <stop
         stop-color="#ff433a"
         id="stop11" />
      <stop
         stop-color="#ff9436"
         offset="1"
         id="stop13" />
    </linearGradient>
  </defs>
  <path
     d="m 0.8601966,28.654146 c -0.0988714,0 -0.17771884,0.175258 -0.19023418,0.42809 l -0.34792852,6.06508 0.34792852,5.958778 c 0.001253,0.249958 0.091363,0.425216 0.19023418,0.425216 0.0963682,0 0.1739643,-0.172386 0.1902343,-0.425216 l 0.411757,-5.96165 -0.411757,-6.065082 C 1.0354125,28.829404 0.95656528,28.654146 0.8601966,28.654146 m 1.956159,-3.312666 c -0.01627,-0.26145 -0.09762,-0.439582 -0.1977435,-0.439582 -0.1001236,0 -0.1839765,0.186751 -0.1977436,0.439582 0,2.88e-4 -0.4680764,9.805836 -0.4680764,9.805836 l 0.4680764,9.587482 c 0.013767,0.258578 0.096368,0.442456 0.1977436,0.442456 0.1001236,0 0.1814735,-0.181004 0.1977435,-0.439582 l 0.5319051,-9.590356 z m 7.3665724,-9.044469 c -0.1914869,0 -0.3504318,0.359135 -0.3591924,0.818829 L 9.4507752,35.155936 9.8237356,46.814912 c 0.00998,0.45682 0.1677055,0.815956 0.3591924,0.815956 0.190234,0 0.349179,-0.359136 0.360443,-0.815956 l 0,2.86e-4 0.420518,-11.658974 -0.420518,-18.040097 c -0.01127,-0.45682 -0.168958,-0.818829 -0.360443,-0.818829 m -3.8134467,6.26907 c -0.1476822,0 -0.2678303,0.27007 -0.2790942,0.629206 l -0.419266,11.95203 0.419266,11.549798 c 0.011268,0.359136 0.131412,0.629206 0.2790942,0.629206 0.145179,0 0.2665781,-0.27007 0.2790941,-0.629206 L 7.1254125,35.147604 6.6485754,23.1927 C 6.6473554,22.833565 6.5159113,22.563495 6.3694813,22.563495 m 7.6882177,25.059041 c 0.237793,0 0.431781,-0.439582 0.440543,-1.002706 l 0.36545,-11.460734 -0.364199,-24.016111 c -0.01,-0.563124 -0.202749,-1.002706 -0.440542,-1.002706 -0.240296,0 -0.434285,0.442455 -0.441795,1.005579 0,0 -0.324148,24.013238 -0.324148,24.013238 l 0.324148,11.46648 c 0.0075,0.56025 0.201499,0.999832 0.440543,0.999832 z m 7.932269,0.05458 c 0.327903,0 0.596985,-0.617714 0.603242,-1.37908 l 0,0.0086 0,-0.0086 0.255315,-11.1332 L 22.59321,7.4280872 c -0.0063,-0.7584942 -0.276591,-1.3790804 -0.603242,-1.3790804 -0.327904,0 -0.598238,0.6177131 -0.603243,1.3819535 L 21.158944,35.159096 c 0,0.01724 0.227781,11.15044 0.227781,11.15044 0.005,0.752748 0.27659,1.373334 0.603243,1.373334 m -3.996172,-0.0431 c 0.285352,0 0.514383,-0.525774 0.521893,-1.195204 l 0,0.0086 0.310382,-11.288348 -0.310382,-24.191369 c -0.0075,-0.669428 -0.237793,-1.1923297 -0.521893,-1.1923297 -0.286602,0 -0.516887,0.5229017 -0.523144,1.1923297 l -0.275339,24.191369 0.276591,11.285476 c 0.0062,0.660808 0.23529,1.186583 0.523143,1.186583 M 8.270572,47.530575 c 0.1689589,0 0.3066283,-0.310292 0.3191432,-0.721144 L 9.0390192,35.150463 8.5897152,24.057485 c -0.00122,-0.410837 -0.1489333,-0.718257 -0.3191432,-0.718257 -0.1714609,0 -0.3091303,0.310293 -0.3191431,0.724017 L 7.555942,35.150478 7.9514289,46.809452 c 0.011268,0.410852 0.1476822,0.721144 0.3191431,0.721144 M 4.4909178,46.892772 c 0.1239026,0 0.2240258,-0.2241 0.2377929,-0.534394 L 5.2330817,35.147604 4.7287107,23.514486 c -0.015018,-0.310293 -0.1151418,-0.534394 -0.2390444,-0.534394 -0.1251542,0 -0.2252774,0.224101 -0.2377929,0.534394 0,0 -0.4442971,11.633118 -0.4442971,11.633118 l 0.4442971,11.207902 c 0.00125,0.310292 0.1126387,0.537266 0.2377929,0.537266 M 19.987501,10.568368 c -0.30913,0 -0.556935,0.565998 -0.563193,1.287142 l -0.251559,23.30646 0.251559,11.21652 c 0.0062,0.712524 0.254063,1.278522 0.563193,1.278522 0.309132,0 0.555685,-0.563124 0.563194,-1.287142 l 0,0.0086 0.282848,-11.21652 -0.282848,-23.312191 c -0.0075,-0.721139 -0.254062,-1.284264 -0.563194,-1.284264 M 12.116559,47.64552 c 0.214013,0 0.39048,-0.399358 0.400493,-0.910768 L 12.910036,35.156224 12.517052,12.990378 c -0.01127,-0.511409 -0.18648,-0.910767 -0.400493,-0.910767 -0.215265,0 -0.391733,0.399358 -0.400493,0.910767 0,0 -0.347929,22.165846 -0.347929,22.165846 l 0.347929,11.578528 c 0.0088,0.505664 0.185228,0.905022 0.400493,0.905022 m 4.386652,-1.091772 0,-0.0058 0.337916,-11.388906 -0.337916,-24.826321 c -0.0075,-0.6176589 -0.220272,-1.1003371 -0.481844,-1.1003371 -0.262824,0 -0.474334,0.4826782 -0.481843,1.1003911 l -0.299119,24.823449 0.300371,11.39465 c 0.0075,0.611968 0.219019,1.091772 0.481843,1.091772 0.261572,0 0.473082,-0.482678 0.481843,-1.097518 z M 42.034653,20.842518 c -0.800987,0 -1.565679,0.3735 -2.262788,1.042929 C 39.306292,9.7811431 34.885849,0.28847288 29.492957,0.28847288 c -1.319124,0 -2.605709,0.59760153 -3.742108,1.60605412 -0.441794,0.3907394 -0.559439,0.7958444 -0.563194,1.5801964 l 0,42.6222046 c 0.005,0.821702 0.282849,1.505496 0.632028,1.588816 0.01502,2.86e-4 16.111091,0.02298 16.21497,0.02298 3.230227,0 5.849703,-6.013366 5.849703,-13.428796 0,-7.418302 -2.618224,-13.431668 -5.849703,-13.431668 M 23.991182,3.4373732 c -0.351683,0 -0.639537,0.6608094 -0.644544,1.4767652 l -0.264075,30.2507036 0.264075,10.978056 c 0.005,0.80159 0.292861,1.462398 0.644544,1.462398 0.350431,0 0.638286,-0.660808 0.644544,-1.473892 l 0,0.01439 0.286602,-10.980927 -0.286602,-30.2536016 c -0.005,-0.8102098 -0.294113,-1.4738922 -0.644544,-1.4738922"
     id="path17"
     style="fill:#ff7f2a"
     inkscape:connector-curvature="0" />
</svg>
