<?xml version="1.0" encoding="UTF-8" standalone="no"?>
<!-- Generator: Adobe Illustrator 19.0.0, SVG Export Plug-In . SVG Version: 6.00 Build 0)  -->

<svg
   xmlns:dc="http://purl.org/dc/elements/1.1/"
   xmlns:cc="http://creativecommons.org/ns#"
   xmlns:rdf="http://www.w3.org/1999/02/22-rdf-syntax-ns#"
   xmlns:svg="http://www.w3.org/2000/svg"
   xmlns="http://www.w3.org/2000/svg"
   xmlns:sodipodi="http://sodipodi.sourceforge.net/DTD/sodipodi-0.dtd"
   xmlns:inkscape="http://www.inkscape.org/namespaces/inkscape"
   version="1.1"
   id="Capa_1"
   x="0px"
   y="0px"
   viewBox="0 0 58 58"
   style="enable-background:new 0 0 58 58;"
   xml:space="preserve"
   inkscape:version="0.91 r13725"
   sodipodi:docname="system-lock-screen.svg"><metadata
     id="metadata45"><rdf:RDF><cc:Work
         rdf:about=""><dc:format>image/svg+xml</dc:format><dc:type
           rdf:resource="http://purl.org/dc/dcmitype/StillImage" /><dc:title></dc:title></cc:Work></rdf:RDF></metadata><defs
     id="defs43" /><sodipodi:namedview
     pagecolor="#ffffff"
     bordercolor="#666666"
     borderopacity="1"
     objecttolerance="10"
     gridtolerance="10"
     guidetolerance="10"
     inkscape:pageopacity="0"
     inkscape:pageshadow="2"
     inkscape:window-width="1280"
     inkscape:window-height="694"
     id="namedview41"
     showgrid="false"
     inkscape:zoom="4.0689655"
     inkscape:cx="-43.377119"
     inkscape:cy="29"
     inkscape:window-x="0"
     inkscape:window-y="0"
     inkscape:window-maximized="1"
     inkscape:current-layer="Capa_1" /><g
     id="g4173"
     transform="matrix(1.5044604,0,0,1,-14.629349,0)"><path
       id="path3"
       d="M 39,22.866 39,11.219 C 39,6.149 34.5,2 29,2 23.5,2 19,6.149 19,11.219 l 0,11.647"
       style="fill:none;stroke:#d8a852;stroke-width:4;stroke-linecap:round;stroke-linejoin:round;stroke-miterlimit:10"
       inkscape:connector-curvature="0" /><circle
       id="circle5"
       r="19"
       cy="39"
       cx="29"
       style="fill:#e7eced" /><path
       id="path7"
       d="M 48,39 C 48,28.507 39.493,20 29,20 l 0,38 c 10.493,0 19,-8.507 19,-19 z"
       style="fill:#c7cac7"
       inkscape:connector-curvature="0" /><path
       id="path9"
       d="m 29,44 0,0 c -1.65,0 -3,-1.35 -3,-3 l 0,-6 c 0,-1.65 1.35,-3 3,-3 l 0,0 c 1.65,0 3,1.35 3,3 l 0,6 c 0,1.65 -1.35,3 -3,3 z"
       style="fill:#424a60"
       inkscape:connector-curvature="0" /></g><g
     id="g11" /><g
     id="g13" /><g
     id="g15" /><g
     id="g17" /><g
     id="g19" /><g
     id="g21" /><g
     id="g23" /><g
     id="g25" /><g
     id="g27" /><g
     id="g29" /><g
     id="g31" /><g
     id="g33" /><g
     id="g35" /><g
     id="g37" /><g
     id="g39" /></svg>