<?xml version="1.0" encoding="UTF-8" standalone="no"?>
<!-- Generator: Adobe Illustrator 18.0.0, SVG Export Plug-In . SVG Version: 6.00 Build 0)  -->

<svg
   xmlns:dc="http://purl.org/dc/elements/1.1/"
   xmlns:cc="http://creativecommons.org/ns#"
   xmlns:rdf="http://www.w3.org/1999/02/22-rdf-syntax-ns#"
   xmlns:svg="http://www.w3.org/2000/svg"
   xmlns="http://www.w3.org/2000/svg"
   xmlns:sodipodi="http://sodipodi.sourceforge.net/DTD/sodipodi-0.dtd"
   xmlns:inkscape="http://www.inkscape.org/namespaces/inkscape"
   version="1.1"
   id="Capa_1"
   x="0px"
   y="0px"
   viewBox="0 0 56 56"
   style="enable-background:new 0 0 56 56;"
   xml:space="preserve"
   inkscape:version="0.91 r13725"
   sodipodi:docname="trojita.svg"><metadata
     id="metadata57"><rdf:RDF><cc:Work
         rdf:about=""><dc:format>image/svg+xml</dc:format><dc:type
           rdf:resource="http://purl.org/dc/dcmitype/StillImage" /><dc:title></dc:title></cc:Work></rdf:RDF></metadata><defs
     id="defs55" /><sodipodi:namedview
     pagecolor="#ffffff"
     bordercolor="#666666"
     borderopacity="1"
     objecttolerance="10"
     gridtolerance="10"
     guidetolerance="10"
     inkscape:pageopacity="0"
     inkscape:pageshadow="2"
     inkscape:window-width="1280"
     inkscape:window-height="694"
     id="namedview53"
     showgrid="false"
     inkscape:zoom="4.2142857"
     inkscape:cx="-49.355932"
     inkscape:cy="28"
     inkscape:window-x="0"
     inkscape:window-y="0"
     inkscape:window-maximized="1"
     inkscape:current-layer="Capa_1" /><g
     id="g3"><path
       style="fill:#2A55C5;"
       d="M47.364,14H10.5v0.025C10.334,14.016,10.169,14,10,14c-4.694,0-8.5,3.806-8.5,8.5V44h17h12h12h12   V21.136C54.5,17.195,51.305,14,47.364,14z"
       id="path5" /><rect
       x="24.5"
       y="44"
       style="fill:#BE6E41;"
       width="8"
       height="12"
       id="rect7" /><rect
       x="29.5"
       y="46"
       style="fill:#6C4127;"
       width="3"
       height="2"
       id="rect9" /><rect
       x="29.5"
       y="49"
       style="fill:#6C4127;"
       width="3"
       height="2"
       id="rect11" /><rect
       x="29.5"
       y="52"
       style="fill:#6C4127;"
       width="3"
       height="2"
       id="rect13" /><path
       style="fill:#167CD8;"
       d="M18.5,44h-17V22.5c0-4.694,3.806-8.5,8.5-8.5h0c4.694,0,8.5,3.806,8.5,8.5V44z"
       id="path15" /><path
       style="fill:#38454F;"
       d="M30.5,30L30.5,30c-2.209,0-4-1.791-4-4v0c0-2.209,1.791-4,4-4h0c2.209,0,4,1.791,4,4v0   C34.5,28.209,32.709,30,30.5,30z"
       id="path17" /><polygon
       style="fill:#DD352E;"
       points="42.5,8 30.5,8 30.5,0 42.5,0 39.5,4  "
       id="polygon19" /><rect
       x="29.5"
       style="fill:#38454F;"
       width="2"
       height="26"
       id="rect21" /></g><g
     id="g23" /><g
     id="g25" /><g
     id="g27" /><g
     id="g29" /><g
     id="g31" /><g
     id="g33" /><g
     id="g35" /><g
     id="g37" /><g
     id="g39" /><g
     id="g41" /><g
     id="g43" /><g
     id="g45" /><g
     id="g47" /><g
     id="g49" /><g
     id="g51" /></svg>