<?xml version="1.0" encoding="UTF-8" standalone="no"?>
<svg
   xmlns:dc="http://purl.org/dc/elements/1.1/"
   xmlns:cc="http://creativecommons.org/ns#"
   xmlns:rdf="http://www.w3.org/1999/02/22-rdf-syntax-ns#"
   xmlns:svg="http://www.w3.org/2000/svg"
   xmlns="http://www.w3.org/2000/svg"
   xmlns:sodipodi="http://sodipodi.sourceforge.net/DTD/sodipodi-0.dtd"
   xmlns:inkscape="http://www.inkscape.org/namespaces/inkscape"
   viewBox="0 0 48 48"
   id="svg2"
   version="1.1"
   inkscape:version="0.91 r13725"
   sodipodi:docname="winetricks.svg">
  <metadata
     id="metadata32">
    <rdf:RDF>
      <cc:Work
         rdf:about="">
        <dc:format>image/svg+xml</dc:format>
        <dc:type
           rdf:resource="http://purl.org/dc/dcmitype/StillImage" />
        <dc:title></dc:title>
      </cc:Work>
    </rdf:RDF>
  </metadata>
  <sodipodi:namedview
     pagecolor="#ffffff"
     bordercolor="#666666"
     borderopacity="1"
     objecttolerance="10"
     gridtolerance="10"
     guidetolerance="10"
     inkscape:pageopacity="0"
     inkscape:pageshadow="2"
     inkscape:window-width="1280"
     inkscape:window-height="694"
     id="namedview30"
     showgrid="false"
     inkscape:zoom="4.9166667"
     inkscape:cx="-8.6942251"
     inkscape:cy="24"
     inkscape:window-x="0"
     inkscape:window-y="0"
     inkscape:window-maximized="1"
     inkscape:current-layer="svg2" />
  <defs
     id="defs4">
    <linearGradient
       gradientUnits="userSpaceOnUse"
       y2="-29.389"
       x2="-127.3"
       y1="69.3"
       x1="-126.09"
       id="0">
      <stop
         stop-color="#197cf1"
         id="stop7" />
      <stop
         offset="1"
         stop-color="#20bcfa"
         id="stop9" />
    </linearGradient>
    <linearGradient
       id="1"
       y1="923.15"
       x2="0"
       y2="859.58"
       gradientUnits="userSpaceOnUse">
      <stop
         stop-color="#2e3436"
         id="stop12" />
      <stop
         offset="1"
         stop-color="#555753"
         id="stop14" />
    </linearGradient>
  </defs>
  <path
     style="fill:#c83737;fill-opacity:1;stroke:none"
     d="m 8.058261,0.09081503 c 0,0 -9.683703,10.51389897 -7.51911894,15.84110397 1.13129904,5.831271 15.62897894,7.890923 17.94441994,12.681759 2.778229,5.272986 2.300775,10.819414 1.741071,16.249151 l -17.3578972,2.842966 42.2613152,0 -17.357884,-2.842966 C 27.22867,39.298497 27.206909,33.756829 29.394989,28.520536 33.110497,23.135707 44.895812,21.075727 47.460933,15.931919 49.625517,10.604714 39.93917,0.09081503 39.93917,0.09081503 l -31.880909,0 z M 22.414837,11.433136 c 0.110687,-3.29e-4 0.224422,8.16e-4 0.335542,0.003 2.641027,0.04999 5.031203,0.996274 7.661783,1.136884 3.016739,0.161261 6.079155,-0.07538 9.069957,-0.3489 1.222796,-0.111842 2.364109,-0.450834 3.595748,-0.526312 0.574616,-0.03525 1.387612,-0.0237 2.147938,-9.96e-4 0.399468,1.360349 0.484289,2.643807 0.05289,3.701927 -1.805474,3.607919 -8.647874,5.537118 -13.196754,8.494914 -5.935942,2.814308 -11.871103,1.874383 -17.80703,-0.65789 C 9.6586519,20.970237 3.4157791,18.965102 2.7214747,15.398726 2.2951875,14.353232 2.3740841,13.087897 2.7610677,11.745581 c 3.0411454,0.40029 6.9316139,0.831488 9.5111853,0.827913 3.446393,-0.005 6.709402,-1.1307 10.142603,-1.139851 z"
     id="path3774"
     inkscape:connector-curvature="0" />
  <path
     style="fill:#de8787;fill-opacity:1;stroke-width:1.31700003"
     inkscape:connector-curvature="0"
     id="path28-0"
     d="m 47.315737,33.859608 c 0,-0.351728 -0.260424,-0.570764 -0.782512,-0.656474 l -7.011524,-1.041217 -3.142476,-6.491733 c -0.176516,-0.389822 -0.405241,-0.584733 -0.68431,-0.584733 -0.279068,0 -0.507172,0.194911 -0.684309,0.584733 l -3.143096,6.491733 -7.011526,1.041217 c -0.521466,0.08571 -0.78189,0.304111 -0.78189,0.656474 0,0.19999 0.116226,0.427915 0.349303,0.685044 l 5.084148,5.050537 -1.201425,7.133606 c -0.01864,0.133329 -0.02797,0.22856 -0.02797,0.2857 0,0.19999 0.0491,0.368235 0.146681,0.50664 0.09759,0.137771 0.244264,0.206974 0.440047,0.206974 0.167814,0 0.353653,-0.05651 0.558759,-0.170785 l 6.271278,-3.367447 6.271278,3.367447 c 0.195783,0.114275 0.382243,0.170785 0.558759,0.170785 0.18646,0 0.328791,-0.06857 0.426372,-0.206974 0.09759,-0.13777 0.146682,-0.30665 0.146682,-0.50664 0,-0.123802 -0.005,-0.219037 -0.0143,-0.2857 l -1.201425,-7.133606 5.070474,-5.050537 c 0.242398,-0.246971 0.362977,-0.475531 0.362977,-0.685044" />
</svg>
