<?xml version="1.0" encoding="UTF-8" standalone="no"?>
<svg
   xmlns:dc="http://purl.org/dc/elements/1.1/"
   xmlns:cc="http://creativecommons.org/ns#"
   xmlns:rdf="http://www.w3.org/1999/02/22-rdf-syntax-ns#"
   xmlns:svg="http://www.w3.org/2000/svg"
   xmlns="http://www.w3.org/2000/svg"
   xmlns:sodipodi="http://sodipodi.sourceforge.net/DTD/sodipodi-0.dtd"
   xmlns:inkscape="http://www.inkscape.org/namespaces/inkscape"
   viewBox="0 0 48 48"
   id="svg2"
   version="1.1"
   inkscape:version="0.91 r13725"
   sodipodi:docname="winff.svg">
  <metadata
     id="metadata33">
    <rdf:RDF>
      <cc:Work
         rdf:about="">
        <dc:format>image/svg+xml</dc:format>
        <dc:type
           rdf:resource="http://purl.org/dc/dcmitype/StillImage" />
        <dc:title></dc:title>
      </cc:Work>
    </rdf:RDF>
  </metadata>
  <sodipodi:namedview
     pagecolor="#ffffff"
     bordercolor="#666666"
     borderopacity="1"
     objecttolerance="10"
     gridtolerance="10"
     guidetolerance="10"
     inkscape:pageopacity="0"
     inkscape:pageshadow="2"
     inkscape:window-width="1280"
     inkscape:window-height="694"
     id="namedview31"
     showgrid="false"
     inkscape:zoom="4.9166667"
     inkscape:cx="-9.1525424"
     inkscape:cy="24"
     inkscape:window-x="0"
     inkscape:window-y="0"
     inkscape:window-maximized="1"
     inkscape:current-layer="svg2" />
  <defs
     id="defs4">
    <linearGradient
       id="0"
       gradientUnits="userSpaceOnUse"
       y1="542.2"
       x2="0"
       y2="526.2">
      <stop
         stop-color="#d0d0d0"
         id="stop7" />
      <stop
         offset="1"
         stop-color="#f1eeee"
         id="stop9" />
    </linearGradient>
    <linearGradient
       y2="147.64"
       x2="3.419"
       y1="204.55"
       x1=".967"
       gradientUnits="userSpaceOnUse"
       id="1"
       gradientTransform="matrix(0.41708309,-3.0000222e-4,3.2000237e-4,0.39759294,13.107874,-59.528012)">
      <stop
         stop-color="#566069"
         id="stop12" />
      <stop
         offset="1"
         stop-color="#6c7884"
         id="stop14" />
    </linearGradient>
    <linearGradient
       id="2"
       y1="551.67"
       x2="0"
       y2="528.33"
       gradientUnits="userSpaceOnUse"
       gradientTransform="matrix(1.0298719,0,0,1.0298719,-449.38822,-521.97559)">
      <stop
         stop-color="#197ff1"
         id="stop17" />
      <stop
         offset="1"
         stop-color="#21c6fb"
         id="stop19" />
    </linearGradient>
  </defs>
  <path
     style="fill:#808080;fill-opacity:0.847;stroke-width:1.31700003"
     inkscape:connector-curvature="0"
     id="path25"
     d="m 46.949121,0.23431431 -2.458344,0 c -0.583996,0 -1.056753,0.45421257 -1.056753,1.01529999 l 0,1.2646719 c 0,0.5610857 -0.472759,1.0153 -1.056754,1.0153 l -2.291488,0 c -0.583994,0 -1.056754,-0.4542143 -1.056754,-1.0153 l 0,-1.2646719 c 0,-0.56108742 -0.472758,-1.01529999 -1.056754,-1.01529999 l -27.601669,0 c -0.5839948,0 -1.0567534,0.45421257 -1.0567534,1.01529999 l 0,1.2646719 c 0,0.5610857 -0.4727586,1.0153 -1.0567546,1.0153 l -2.291486,0 c -0.583996,0 -1.0567533,-0.4542143 -1.0567533,-1.0153 l 0,-1.2646719 c 0,-0.56108742 -0.4727599,-1.01529999 -1.0567546,-1.01529999 l -2.3767698,0 c -0.58399597,0 -1.05675333,0.45421257 -1.05675333,1.01529999 l 0,45.7045297 c 0,0.561087 0.47275736,1.015301 1.05675333,1.015301 l 2.3767698,0 c 0.5839947,0 1.0567546,-0.454214 1.0567546,-1.015301 l 0,-0.928021 c 0,-0.561085 0.4727573,-1.0153 1.0567533,-1.0153 l 2.291486,0 c 0.583996,0 1.0567546,0.454215 1.0567546,1.0153 l 0,0.928021 c 0,0.561087 0.4727586,1.015301 1.0567534,1.015301 l 27.601669,0 c 0.583996,0 1.056754,-0.454214 1.056754,-1.015301 l 0,-0.928021 c 0,-0.561085 0.47276,-1.0153 1.056754,-1.0153 l 2.291488,0 c 0.583995,0 1.056754,0.454215 1.056754,1.0153 l 0,0.928021 c 0,0.561087 0.472757,1.015301 1.056753,1.015301 l 2.458344,0 c 0.583996,0 1.056753,-0.454214 1.056753,-1.015301 l 0,-45.7045297 c 0,-0.56108742 -0.472757,-1.01529999 -1.056753,-1.01529999 M 9.3119983,39.10249 c 0,0.561088 -0.4727586,1.0153 -1.0567533,1.0153 l -2.2914886,0 c -0.5839959,0 -1.0567533,-0.454212 -1.0567533,-1.0153 l 0,-2.201596 c 0,-0.561087 0.4727574,-1.015301 1.0567533,-1.015301 l 2.2914886,0 c 0.5839947,0 1.0567533,0.454214 1.0567533,1.015301 l 0,2.201596 m 0,-9.127012 c 0,0.561086 -0.4727586,1.015301 -1.0567533,1.015301 l -2.2914886,0 c -0.5839959,0 -1.0567533,-0.454215 -1.0567533,-1.015301 l 0,-2.203379 c 0,-0.561085 0.4727574,-1.0153 1.0567533,-1.0153 l 2.2914886,0 c 0.5839947,0 1.0567533,0.454215 1.0567533,1.0153 l 0,2.203379 m 0,-9.127012 c 0,0.561086 -0.4727586,1.0153 -1.0567533,1.0153 l -2.2914886,0 c -0.5839959,0 -1.0567533,-0.454214 -1.0567533,-1.0153 l 0,-2.201599 c 0,-0.561086 0.4727574,-1.015299 1.0567533,-1.015299 l 2.2914886,0 c 0.5839947,0 1.0567533,0.454213 1.0567533,1.015299 l 0,2.201599 m 0,-9.127014 c 0,0.561088 -0.4727586,1.0153 -1.0567533,1.0153 l -2.2914886,0 c -0.5839959,0 -1.0567533,-0.454212 -1.0567533,-1.0153 l 0,-2.2015963 c 0,-0.5610874 0.4727574,-1.0153 1.0567533,-1.0153 l 2.2914886,0 c 0.5839947,0 1.0567533,0.4542126 1.0567533,1.0153 l 0,2.2015963 M 34.457178,42.600824 c 0,0.561085 -0.472759,1.015299 -1.056755,1.015299 l -18.376392,0 c -0.583996,0 -1.056754,-0.454214 -1.056754,-1.015299 l 0,-8.161588 c 0,-0.561087 0.472758,-1.015299 1.056754,-1.015299 l 18.376392,0 c 0.583996,0 1.056755,0.454212 1.056755,1.015299 l 0,8.161588 m 0,-14.41726 c 0,0.561085 -0.472759,1.015299 -1.056755,1.015299 l -18.376392,0 c -0.583996,0 -1.056754,-0.454214 -1.056754,-1.015299 l 0,-8.161588 c 0,-0.561087 0.472758,-1.015299 1.056754,-1.015299 l 18.376392,0 c 0.583996,0 1.056755,0.454212 1.056755,1.015299 l 0,8.161588 m 0,-14.417261 c 0,0.561087 -0.472759,1.015299 -1.056755,1.015299 l -18.376392,0 c -0.583996,0 -1.056754,-0.454212 -1.056754,-1.015299 l 0,-8.1615875 c 0,-0.5610857 0.472758,-1.0153 1.056754,-1.0153 l 18.376392,0 c 0.583996,0 1.056755,0.4542143 1.056755,1.0153 l 0,8.1615875 m 8.976846,25.336187 c 0,0.561088 -0.472759,1.0153 -1.056754,1.0153 l -2.291488,0 c -0.583994,0 -1.056754,-0.454212 -1.056754,-1.0153 l 0,-2.201596 c 0,-0.561087 0.47276,-1.015301 1.056754,-1.015301 l 2.291488,0 c 0.583995,0 1.056754,0.454214 1.056754,1.015301 l 0,2.201596 m 0,-9.127012 c 0,0.561086 -0.472759,1.015301 -1.056754,1.015301 l -2.291488,0 c -0.583994,0 -1.056754,-0.454215 -1.056754,-1.015301 l 0,-2.203379 c 0,-0.561085 0.47276,-1.0153 1.056754,-1.0153 l 2.291488,0 c 0.583995,0 1.056754,0.454215 1.056754,1.0153 l 0,2.203379 m 0,-9.127012 c 0,0.561086 -0.472759,1.0153 -1.056754,1.0153 l -2.291488,0 c -0.583994,0 -1.056754,-0.454214 -1.056754,-1.0153 l 0,-2.201599 c 0,-0.561086 0.47276,-1.015299 1.056754,-1.015299 l 2.291488,0 c 0.583995,0 1.056754,0.454213 1.056754,1.015299 l 0,2.201599 m 0,-9.127014 c 0,0.561088 -0.472759,1.0153 -1.056754,1.0153 l -2.291488,0 c -0.583994,0 -1.056754,-0.454212 -1.056754,-1.0153 l 0,-2.2015963 c 0,-0.5610874 0.47276,-1.0153 1.056754,-1.0153 l 2.291488,0 c 0.583995,0 1.056754,0.4542126 1.056754,1.0153 l 0,2.2015963" />
  <path
     style="fill:#cccccc;fill-opacity:1;stroke-width:1.31700003"
     inkscape:connector-curvature="0"
     id="path29"
     d="m 35.936737,24.354355 c 2.072088,0.0054 4.172965,0.76862 5.814726,2.280777 1.153854,1.571281 -1.044757,3.25454 -2.034965,1.722676 -2.980472,-2.132965 -7.184502,-1.381366 -9.427053,1.809572 -1.193251,1.582031 -1.865259,3.693495 -1.857683,5.813023 l 1.96981,0 -3.151695,5.589963 -3.151695,-5.589963 1.96981,0 c -0.06288,-5.060529 3.015323,-9.872018 7.148135,-11.1853 0.886414,-0.287561 1.800102,-0.448811 2.72061,-0.437164 m 8.647464,6.055794 3.151695,5.589962 -1.969809,0 c 0.05606,5.121445 -3.100935,9.989371 -7.305721,11.230988 -2.837283,0.937035 -6.0458,0.253519 -8.379267,-1.890196 -1.189462,-1.598156 1.039453,-3.265291 2.038754,-1.718197 2.888043,2.072048 6.932213,1.414511 9.211889,-1.544406 1.319773,-1.60801 2.078907,-3.836829 2.069058,-6.078189 l -1.96981,0 3.151695,-5.589962" />
</svg>
