<?xml version="1.0" encoding="UTF-8" standalone="no"?>
<svg
   xmlns:dc="http://purl.org/dc/elements/1.1/"
   xmlns:cc="http://creativecommons.org/ns#"
   xmlns:rdf="http://www.w3.org/1999/02/22-rdf-syntax-ns#"
   xmlns:svg="http://www.w3.org/2000/svg"
   xmlns="http://www.w3.org/2000/svg"
   xmlns:sodipodi="http://sodipodi.sourceforge.net/DTD/sodipodi-0.dtd"
   xmlns:inkscape="http://www.inkscape.org/namespaces/inkscape"
   viewBox="0 0 48 48"
   id="svg2"
   version="1.1"
   inkscape:version="0.91 r13725"
   sodipodi:docname="winusbgui-icon.svg">
  <metadata
     id="metadata56">
    <rdf:RDF>
      <cc:Work
         rdf:about="">
        <dc:format>image/svg+xml</dc:format>
        <dc:type
           rdf:resource="http://purl.org/dc/dcmitype/StillImage" />
        <dc:title></dc:title>
      </cc:Work>
    </rdf:RDF>
  </metadata>
  <sodipodi:namedview
     pagecolor="#ffffff"
     bordercolor="#666666"
     borderopacity="1"
     objecttolerance="10"
     gridtolerance="10"
     guidetolerance="10"
     inkscape:pageopacity="0"
     inkscape:pageshadow="2"
     inkscape:window-width="1280"
     inkscape:window-height="694"
     id="namedview54"
     showgrid="false"
     inkscape:zoom="4.9166667"
     inkscape:cx="-42"
     inkscape:cy="24"
     inkscape:window-x="0"
     inkscape:window-y="0"
     inkscape:window-maximized="1"
     inkscape:current-layer="svg2" />
  <defs
     id="defs4">
    <linearGradient
       gradientTransform="matrix(0.84890151,0,0,1.6796732,-357.9772,-869.3594)"
       gradientUnits="userSpaceOnUse"
       y2="543.09"
       x2="0"
       y1="544.15"
       id="3">
      <stop
         stop-color="#1e56e6"
         id="stop7" />
      <stop
         offset="1"
         stop-color="#1f9aed"
         id="stop9" />
    </linearGradient>
    <linearGradient
       gradientTransform="matrix(0.41725583,0,0,0.4103059,-3.7077466,-0.76908349)"
       x2="122.72"
       x1="10.09"
       gradientUnits="userSpaceOnUse"
       id="2">
      <stop
         stop-color="#1a1a1a"
         id="stop12" />
      <stop
         offset=".111"
         stop-color="#2c2c2e"
         id="stop14" />
      <stop
         offset=".29"
         stop-color="#2b2b2d"
         id="stop16" />
      <stop
         offset=".512"
         stop-color="#2a2b2d"
         id="stop18" />
      <stop
         offset=".752"
         stop-color="#2b2b2d"
         id="stop20" />
      <stop
         offset=".897"
         stop-color="#323232"
         id="stop22" />
      <stop
         offset="1"
         stop-color="#171717"
         id="stop24" />
    </linearGradient>
    <linearGradient
       gradientUnits="userSpaceOnUse"
       y2="10.424"
       x2="1.816"
       y1="47.947"
       x1="1.613"
       id="0"
       gradientTransform="matrix(0.99999,0,0,0.99999,21.629,-9.118)">
      <stop
         stop-color="#b6b9bf"
         id="stop27" />
      <stop
         offset="1"
         stop-color="#dddfe2"
         id="stop29" />
    </linearGradient>
    <linearGradient
       gradientUnits="userSpaceOnUse"
       y2="51.26"
       x2="0"
       y1="54.824"
       id="1"
       gradientTransform="matrix(0.99999,0,0,0.99999,21.629,-9.118)">
      <stop
         stop-color="#040404"
         id="stop32" />
      <stop
         offset="1"
         stop-color="#121212"
         stop-opacity=".908"
         id="stop34" />
    </linearGradient>
  </defs>
  <path
     d="m 44.561694,32.688575 c 1.121308,0 2.164297,0.36504 3.029914,0.988418 L 41.620566,3.3586153 C 41.271258,1.584675 39.609179,0.14735655 37.907539,0.14735655 l -27.20682,0 c -1.7009357,0 -3.3638204,1.43796195 -3.7130276,3.21125875 L 1.0173536,33.676993 C 1.8829711,33.052864 2.92586,32.688575 4.0471676,32.688575 l 40.5145264,0 0,0 z"
     id="path7"
     inkscape:connector-curvature="0"
     style="fill:#b7bec8" />
  <path
     d="m 4.0477719,47.852644 40.5146271,0 c 1.973235,0 3.573204,-1.704557 3.573204,-3.80654 l 0,-5.582518 c 0,-0.74756 -0.205156,-1.442036 -0.554564,-2.030026 -0.633283,-1.066488 -1.747141,-1.775978 -3.01864,-1.775978 l -40.5146271,0 c -1.271499,0 -2.3853575,0.710026 -3.0187421,1.775978 -0.34930742,0.58799 -0.55446191,1.283109 -0.55446191,2.030026 l 0,5.582518 c 0,2.102626 1.59996841,3.80654 3.57320401,3.80654 z m 37.9178731,-7.117102 -7.78281,0 c -0.510674,0 -0.924105,-0.440215 -0.924105,-0.98445 0,-0.543914 0.413331,-0.984449 0.924105,-0.984449 l 7.78281,0 c 0.510674,0 0.924104,0.440428 0.924104,0.984449 0,0.544128 -0.414035,0.98445 -0.924104,0.98445 z"
     id="path9"
     inkscape:connector-curvature="0"
     style="fill:#373e48" />
  <path
     style="fill:#0b1728;fill-rule:evenodd;stroke:#909296;stroke-width:0.1449831"
     inkscape:connector-curvature="0"
     id="path52"
     d="m 41.958871,22.313798 -5.19073,5.64683 -12.54254,2.493658 5.12352,5.567689 -4.880527,5.308049 5.828713,6.341056 4.880527,-5.308048 4.876391,5.308048 2.406141,-13.229162 5.324117,-5.79123 -5.828713,-6.341055" />
</svg>
