<?xml version="1.0" encoding="UTF-8" standalone="no"?>
<!-- Generated by Glyphs Company app at https://glyphs.co -->

<!-- Copyright Glyphs Company and respective authors. Please follow included license terms. -->

<!-- Do NOT redistribute -->

<svg
   xmlns:dc="http://purl.org/dc/elements/1.1/"
   xmlns:cc="http://creativecommons.org/ns#"
   xmlns:rdf="http://www.w3.org/1999/02/22-rdf-syntax-ns#"
   xmlns:svg="http://www.w3.org/2000/svg"
   xmlns="http://www.w3.org/2000/svg"
   xmlns:sodipodi="http://sodipodi.sourceforge.net/DTD/sodipodi-0.dtd"
   xmlns:inkscape="http://www.inkscape.org/namespaces/inkscape"
   class="smart-social wordpress"
   viewBox="0 0 48 48"
   id="svg2"
   version="1.1"
   inkscape:version="0.91 r13725"
   sodipodi:docname="wordpress-wordpress.com.svg">
  <metadata
     id="metadata14">
    <rdf:RDF>
      <cc:Work
         rdf:about="">
        <dc:format>image/svg+xml</dc:format>
        <dc:type
           rdf:resource="http://purl.org/dc/dcmitype/StillImage" />
        <dc:title></dc:title>
      </cc:Work>
    </rdf:RDF>
  </metadata>
  <sodipodi:namedview
     pagecolor="#ffffff"
     bordercolor="#666666"
     borderopacity="1"
     objecttolerance="10"
     gridtolerance="10"
     guidetolerance="10"
     inkscape:pageopacity="0"
     inkscape:pageshadow="2"
     inkscape:window-width="1280"
     inkscape:window-height="694"
     id="namedview12"
     showgrid="false"
     inkscape:zoom="4.9166667"
     inkscape:cx="-9.1525424"
     inkscape:cy="24"
     inkscape:window-x="0"
     inkscape:window-y="0"
     inkscape:window-maximized="1"
     inkscape:current-layer="svg2" />
  <defs
     id="defs4">
    <style
       id="style6">
            .basic .wordpressbg {display:none;} .round .wordpressbg{rx:100;} .wordpressbg, .basic .wordpressbrand{ fill: #2485b3; } .wordpressbrand { fill: #fff; fill-rule: evenodd; }
        </style>
  </defs>
  <path
     d="m 0.60316917,24 c 0,9.341823 5.45221003,17.41789 13.36008783,21.23874 L 2.660085,14.394807 C 1.3453955,17.331201 0.60711756,20.578138 0.60711756,24 Z M 40.308369,22.808933 c 0,-2.91674 -1.056095,-4.93723 -1.954269,-6.509598 -1.204145,-1.945803 -2.329329,-3.58696 -2.329329,-5.534729 0,-2.169866 1.650271,-4.1864259 3.983548,-4.1864259 0.0987,0 0.203323,0.011795 0.303997,0.019655 -4.220429,-3.848367 -9.838457,-6.1990548 -16.009206,-6.1990548 -8.280964,0 -15.5670269,4.2316312 -19.7993009,10.6409897 0.5527225,0.01572 1.0758339,0.02752 1.5199857,0.02752 2.4813282,0 6.3168262,-0.30268 6.3168262,-0.30268 1.275209,-0.07076 1.429182,1.796428 0.151999,1.945803 0,0 -1.283105,0.149375 -2.7142609,0.226028 L 18.412671,38.501153 23.598389,23.013344 19.906995,12.940372 c -1.279158,-0.07469 -2.48725,-0.222097 -2.48725,-0.222097 -1.277185,-0.07862 -1.125186,-2.020491 0.151997,-1.945804 0,0 3.912486,0.29875 6.241815,0.29875 2.479353,0 6.320773,-0.302681 6.320773,-0.302681 1.273236,-0.07076 1.425235,1.796429 0.14805,1.945804 0,0 -1.283105,0.149375 -2.716234,0.226028 l 8.567194,25.368167 2.364863,-7.861833 c 1.200196,-3.070045 1.804243,-5.611383 1.804243,-7.631873 z m -15.584794,3.25873 -7.114326,20.574415 c 2.124033,0.621084 4.370454,0.959143 6.69781,0.959143 2.763611,0 5.408782,-0.47171 7.876291,-1.336511 -0.06514,-0.1022 -0.118438,-0.208339 -0.169764,-0.324302 L 24.729496,26.069627 Z M 45.105208,12.676996 c 0.104622,0.746874 0.163842,1.552712 0.163842,2.42341 0,2.393929 -0.454022,5.086605 -1.804242,8.45147 L 36.228094,44.401455 C 43.26938,40.313302 48.007,32.712875 48.007,24.003931 c 0,-4.103876 -1.052146,-7.960106 -2.901792,-11.321038 z"
     class="wordpressbrand"
     id="path10"
     inkscape:connector-curvature="0"
     style="fill:#0066ff;fill-opacity:1;fill-rule:evenodd" />
</svg>
