<?xml version="1.0" encoding="UTF-8" standalone="no"?>
<svg
   xmlns:dc="http://purl.org/dc/elements/1.1/"
   xmlns:cc="http://creativecommons.org/ns#"
   xmlns:rdf="http://www.w3.org/1999/02/22-rdf-syntax-ns#"
   xmlns:svg="http://www.w3.org/2000/svg"
   xmlns="http://www.w3.org/2000/svg"
   xmlns:sodipodi="http://sodipodi.sourceforge.net/DTD/sodipodi-0.dtd"
   xmlns:inkscape="http://www.inkscape.org/namespaces/inkscape"
   viewBox="0 0 48 48"
   id="svg2"
   version="1.1"
   inkscape:version="0.91 r13725"
   sodipodi:docname="xchat.svg">
  <metadata
     id="metadata29">
    <rdf:RDF>
      <cc:Work
         rdf:about="">
        <dc:format>image/svg+xml</dc:format>
        <dc:type
           rdf:resource="http://purl.org/dc/dcmitype/StillImage" />
        <dc:title></dc:title>
      </cc:Work>
    </rdf:RDF>
  </metadata>
  <sodipodi:namedview
     pagecolor="#ffffff"
     bordercolor="#666666"
     borderopacity="1"
     objecttolerance="10"
     gridtolerance="10"
     guidetolerance="10"
     inkscape:pageopacity="0"
     inkscape:pageshadow="2"
     inkscape:window-width="1280"
     inkscape:window-height="694"
     id="namedview27"
     showgrid="false"
     inkscape:zoom="4.9166667"
     inkscape:cx="-9.1525424"
     inkscape:cy="24"
     inkscape:window-x="0"
     inkscape:window-y="0"
     inkscape:window-maximized="1"
     inkscape:current-layer="svg2" />
  <defs
     id="defs4">
    <linearGradient
       id="0"
       x1="391"
       y1="546.81"
       x2="390.2"
       y2="510.45"
       gradientUnits="userSpaceOnUse">
      <stop
         stop-color="#23262c"
         id="stop7" />
      <stop
         offset="1"
         stop-color="#525b63"
         id="stop9" />
    </linearGradient>
    <linearGradient
       id="1"
       x1="341.06"
       y1="553.67"
       x2="340.28"
       y2="510.18"
       gradientUnits="userSpaceOnUse">
      <stop
         stop-color="#2e3e46"
         id="stop12" />
      <stop
         offset="1"
         stop-color="#47606a"
         id="stop14" />
    </linearGradient>
    <linearGradient
       id="2"
       x1="22.515"
       y1="31.786"
       x2="22.22"
       y2="11.876"
       gradientUnits="userSpaceOnUse">
      <stop
         stop-color="#ff9300"
         id="stop17" />
      <stop
         offset="1"
         stop-color="#ffd702"
         id="stop19" />
    </linearGradient>
  </defs>
  <path
     style="fill:#ffb380;fill-opacity:1;fill-rule:evenodd;stroke:none"
     d="m 24.203389,0.24679749 c -13.176523,0 -23.85640987,10.26308651 -23.85640987,22.92537651 0,7.812882 4.07060427,14.707382 10.28076787,18.846665 L 4.6605006,47.753208 18.280158,45.384534 c 1.89462,0.465296 3.877742,0.71301 5.923231,0.71301 13.176525,0 23.85641,-10.263082 23.85641,-22.92537 0,-12.66229 -10.679885,-22.92537651 -23.85641,-22.92537651 z"
     id="path3903"
     inkscape:connector-curvature="0" />
  <path
     style="color:#000000;font-style:normal;font-variant:normal;font-weight:normal;font-stretch:normal;font-size:medium;line-height:normal;font-family:Sans;-inkscape-font-specification:Sans;text-indent:0;text-align:start;text-decoration:none;text-decoration-line:none;letter-spacing:normal;word-spacing:normal;text-transform:none;direction:ltr;block-progression:tb;writing-mode:lr-tb;baseline-shift:baseline;text-anchor:start;display:inline;overflow:visible;visibility:visible;fill:#ff5555;fill-opacity:1;stroke:none;stroke-width:70;marker:none;enable-background:accumulate"
     d="m 14.442255,8.3094637 c -1.039893,8e-6 -2.07768,0.3045931 -2.940132,0.8629134 -0.862456,0.5583203 -1.5460834,1.3681149 -1.9367778,2.2942179 -0.3906944,0.9261 -0.4868706,1.964756 -0.2724779,2.9426 0.2143938,0.977842 0.7384887,1.890912 1.4848067,2.586798 6.632849,5.77744 5.308879,7.011591 0,12.113284 -0.9899851,0.932705 -1.571432,2.253837 -1.5782942,3.586107 -0.00687,1.332273 0.5609548,2.658876 1.5412852,3.600947 0.980333,0.94207 2.360803,1.487722 3.747184,1.481127 1.386378,-0.0066 2.761166,-0.565349 3.731747,-1.516689 6.01513,-6.371501 7.297628,-5.104264 12.605223,0 0.970581,0.95134 2.345368,1.510094 3.731746,1.516689 1.386378,0.0066 2.766851,-0.539057 3.747183,-1.481127 0.980331,-0.942071 1.548145,-2.268674 1.541285,-3.600947 -0.0069,-1.33227 -0.588307,-2.653402 -1.578293,-3.586107 -6.62537,-5.779904 -5.307253,-7.013153 0,-12.113284 0.755055,-0.704939 1.282018,-1.632405 1.490856,-2.623942 0.208839,-0.991535 0.09866,-2.042925 -0.311703,-2.974539 C 39.035528,10.465895 38.326718,9.6580142 37.440563,9.1118961 36.554407,8.565778 35.494675,8.283745 34.44242,8.313978 c -1.350083,0.038585 -2.676299,0.5996781 -3.617601,1.5305282 -6.011582,6.3692908 -7.296684,5.0975618 -12.605223,0 -0.978015,-0.968372 -2.373071,-1.5352967 -3.777341,-1.5350425 z"
     id="path3882"
     inkscape:connector-curvature="0"
     sodipodi:nodetypes="csssccsssccsssccssscccc" />
</svg>
