<?xml version="1.0" encoding="UTF-8" standalone="no"?>
<svg
   xmlns:dc="http://purl.org/dc/elements/1.1/"
   xmlns:cc="http://creativecommons.org/ns#"
   xmlns:rdf="http://www.w3.org/1999/02/22-rdf-syntax-ns#"
   xmlns:svg="http://www.w3.org/2000/svg"
   xmlns="http://www.w3.org/2000/svg"
   xmlns:xlink="http://www.w3.org/1999/xlink"
   xmlns:sodipodi="http://sodipodi.sourceforge.net/DTD/sodipodi-0.dtd"
   xmlns:inkscape="http://www.inkscape.org/namespaces/inkscape"
   viewBox="0 0 48 48"
   id="svg2"
   version="1.1"
   inkscape:version="0.91 r13725"
   sodipodi:docname="xnconvert.svg">
  <metadata
     id="metadata28">
    <rdf:RDF>
      <cc:Work
         rdf:about="">
        <dc:format>image/svg+xml</dc:format>
        <dc:type
           rdf:resource="http://purl.org/dc/dcmitype/StillImage" />
        <dc:title></dc:title>
      </cc:Work>
    </rdf:RDF>
  </metadata>
  <sodipodi:namedview
     pagecolor="#ffffff"
     bordercolor="#666666"
     borderopacity="1"
     objecttolerance="10"
     gridtolerance="10"
     guidetolerance="10"
     inkscape:pageopacity="0"
     inkscape:pageshadow="2"
     inkscape:window-width="1280"
     inkscape:window-height="694"
     id="namedview26"
     showgrid="false"
     inkscape:zoom="4.9166667"
     inkscape:cx="-9.1525424"
     inkscape:cy="24"
     inkscape:window-x="0"
     inkscape:window-y="0"
     inkscape:window-maximized="1"
     inkscape:current-layer="svg2" />
  <defs
     id="defs4">
    <linearGradient
       gradientTransform="matrix(2.6570968,0,0,2.6605568,-1654.1882,-2219.1408)"
       gradientUnits="userSpaceOnUse"
       y2="843.07"
       x2="640.1"
       y1="865.62"
       x1="641.99"
       id="3">
      <stop
         stop-color="#d5dbff"
         id="stop7" />
      <stop
         offset="1"
         stop-color="#f9ffff"
         id="stop9" />
    </linearGradient>
    <linearGradient
       xlink:href="#1"
       id="2"
       gradientUnits="userSpaceOnUse"
       x1="2.409"
       y1="8.904"
       x2="2.952"
       y2="-14.689"
       gradientTransform="matrix(0.99999,0,0,0.99999,21.629,25.882)" />
    <linearGradient
       xlink:href="#1"
       id="0"
       x1="-3.671"
       y1="3.068"
       x2="-3.864"
       y2="-7.65"
       gradientUnits="userSpaceOnUse"
       gradientTransform="matrix(-0.99999,0,0,0.99999,21.629,25.882)" />
    <linearGradient
       id="1">
      <stop
         stop-color="#fe3f3c"
         id="stop14" />
      <stop
         offset="1"
         stop-color="#ff8729"
         id="stop16" />
    </linearGradient>
  </defs>
  <g
     id="g4167"
     transform="matrix(1.6828034,0,0,2.6008104,-16.389995,-38.43549)">
    <path
       d="m 25.353963,24.000019 c 0.171998,-0.671993 -0.372997,-1.291987 -1.01499,-1.404986 -0.905991,-0.158999 -1.708983,0.572994 -1.822982,1.446985 -0.149998,1.138989 0.772992,2.126979 1.877981,2.241978 1.370987,0.142999 2.546975,-0.97299 2.660974,-2.309977 0.136998,-1.602984 -1.172989,-2.96797 -2.741973,-3.079969 -1.834981,-0.131999 -3.388966,1.372986 -3.498965,3.172968 -0.126999,2.065979 1.572984,3.809962 3.604964,3.917961 2.297977,0.121999 4.231958,-1.772982 4.336957,-4.03996 0.117999,-2.529974 -1.972981,-4.652953 -4.467956,-4.755952 -2.761972,-0.113999 -5.074949,2.172978 -5.174948,4.899951 -0.044,1.187988 0.324997,2.371976 1.02499,3.331967"
       id="path22"
       style="fill:none;fill-rule:evenodd;stroke:#ff5f00;stroke-width:1.19799995;stroke-linecap:round;stroke-linejoin:round;stroke-opacity:1"
       inkscape:connector-curvature="0" />
    <path
       d="m 24.003976,14.86211 c -6.175938,0 -11.498885,3.640964 -13.94386,8.893911 -0.075,0.158999 -0.075,0.344997 0,0.507995 2.444975,5.253948 7.767922,8.893911 13.94386,8.893911 6.175938,0 11.498885,-3.640963 13.943861,-8.893911 0.075,-0.158998 0.075,-0.344996 0,-0.507995 C 35.502861,18.502074 30.179914,14.86211 24.003976,14.86211 m 0,15.460846 c -3.486965,0 -6.310937,-2.826972 -6.310937,-6.310937 0,-3.486965 2.826972,-6.310937 6.310937,-6.310937 3.486965,0 6.310937,2.826972 6.310937,6.310937 0,3.483965 -2.826972,6.310937 -6.310937,6.310937"
       id="path24"
       style="fill:#ff7f2a"
       inkscape:connector-curvature="0" />
  </g>
</svg>
