<?xml version="1.0" encoding="UTF-8" standalone="no"?>
<svg
   xmlns:dc="http://purl.org/dc/elements/1.1/"
   xmlns:cc="http://creativecommons.org/ns#"
   xmlns:rdf="http://www.w3.org/1999/02/22-rdf-syntax-ns#"
   xmlns:svg="http://www.w3.org/2000/svg"
   xmlns="http://www.w3.org/2000/svg"
   xmlns:sodipodi="http://sodipodi.sourceforge.net/DTD/sodipodi-0.dtd"
   xmlns:inkscape="http://www.inkscape.org/namespaces/inkscape"
   viewBox="0 0 48 48"
   id="svg2"
   version="1.1"
   inkscape:version="0.91 r13725"
   sodipodi:docname="xterm-color.svg">
  <metadata
     id="metadata23">
    <rdf:RDF>
      <cc:Work
         rdf:about="">
        <dc:format>image/svg+xml</dc:format>
        <dc:type
           rdf:resource="http://purl.org/dc/dcmitype/StillImage" />
        <dc:title></dc:title>
      </cc:Work>
    </rdf:RDF>
  </metadata>
  <sodipodi:namedview
     pagecolor="#ffffff"
     bordercolor="#666666"
     borderopacity="1"
     objecttolerance="10"
     gridtolerance="10"
     guidetolerance="10"
     inkscape:pageopacity="0"
     inkscape:pageshadow="2"
     inkscape:window-width="1280"
     inkscape:window-height="694"
     id="namedview21"
     showgrid="false"
     inkscape:zoom="4.9166667"
     inkscape:cx="-9.1525424"
     inkscape:cy="24"
     inkscape:window-x="0"
     inkscape:window-y="0"
     inkscape:window-maximized="1"
     inkscape:current-layer="svg2" />
  <defs
     id="defs4">
    <linearGradient
       gradientTransform="matrix(1.0908929,0,0,1.0652817,-421.70704,-535.04025)"
       gradientUnits="userSpaceOnUse"
       y2="507.8"
       x2="0"
       y1="542.8"
       id="0">
      <stop
         stop-color="#252525"
         id="stop7" />
      <stop
         offset="1"
         stop-color="#4c4c4c"
         id="stop9" />
    </linearGradient>
  </defs>
  <g
     style="fill:#00aa00;fill-opacity:0.75099996;stroke:none;stroke-width:0.175;stroke-linecap:round;stroke-linejoin:round"
     id="g15"
     transform="matrix(5.6062087,0,0,9.0890921,18.950649,-76.601668)">
    <path
       inkscape:connector-curvature="0"
       id="path17"
       d="M 5.085,13.1 C 5.054,13.071 5.015,13.056 4.967,13.056 l -4.923,0 c -0.048,0 -0.087,0.015 -0.118,0.044 -0.031,0.029 -0.046,0.067 -0.046,0.112 l 0,0.312 c 0,0.046 0.015,0.083 0.046,0.112 0.031,0.029 0.07,0.044 0.118,0.044 l 4.923,0 c 0.048,0 0.087,-0.015 0.118,-0.044 0.031,-0.029 0.046,-0.067 0.046,-0.112 l 0,-0.312 c 0,-0.046 -0.015,-0.083 -0.046,-0.112 z"
       style="fill:#00aa00;stroke:none" />
    <path
       inkscape:connector-curvature="0"
       id="path19"
       d="M -2.792,8.489 C -2.826,8.456 -2.866,8.44 -2.91,8.44 c -0.044,0 -0.084,0.016 -0.118,0.049 l -0.256,0.244 c -0.034,0.033 -0.051,0.07 -0.051,0.112 0,0.042 0.017,0.08 0.051,0.112 l 2.02,1.917 -2.02,1.918 c -0.034,0.033 -0.051,0.07 -0.051,0.112 0,0.042 0.017,0.08 0.051,0.112 l 0.256,0.244 c 0.034,0.033 0.073,0.049 0.118,0.049 0.044,0 0.084,-0.016 0.118,-0.049 l 2.39,-2.274 c 0.034,-0.033 0.051,-0.07 0.051,-0.112 0,-0.042 -0.017,-0.08 -0.051,-0.112 l -2.39,-2.274 z"
       style="fill:#00aa00;stroke:none" />
  </g>
</svg>
