<?xml version="1.0" encoding="UTF-8" standalone="no"?>
<svg
   xmlns:dc="http://purl.org/dc/elements/1.1/"
   xmlns:cc="http://creativecommons.org/ns#"
   xmlns:rdf="http://www.w3.org/1999/02/22-rdf-syntax-ns#"
   xmlns:svg="http://www.w3.org/2000/svg"
   xmlns="http://www.w3.org/2000/svg"
   xmlns:sodipodi="http://sodipodi.sourceforge.net/DTD/sodipodi-0.dtd"
   xmlns:inkscape="http://www.inkscape.org/namespaces/inkscape"
   viewBox="0 0 48 48"
   id="svg2"
   version="1.1"
   inkscape:version="0.91 r13725"
   sodipodi:docname="yakuake.svg">
  <metadata
     id="metadata23">
    <rdf:RDF>
      <cc:Work
         rdf:about="">
        <dc:format>image/svg+xml</dc:format>
        <dc:type
           rdf:resource="http://purl.org/dc/dcmitype/StillImage" />
        <dc:title></dc:title>
      </cc:Work>
    </rdf:RDF>
  </metadata>
  <sodipodi:namedview
     pagecolor="#ffffff"
     bordercolor="#666666"
     borderopacity="1"
     objecttolerance="10"
     gridtolerance="10"
     guidetolerance="10"
     inkscape:pageopacity="0"
     inkscape:pageshadow="2"
     inkscape:window-width="1280"
     inkscape:window-height="694"
     id="namedview21"
     showgrid="false"
     inkscape:zoom="4.9166667"
     inkscape:cx="-11.59322"
     inkscape:cy="24"
     inkscape:window-x="0"
     inkscape:window-y="0"
     inkscape:window-maximized="1"
     inkscape:current-layer="svg2" />
  <defs
     id="defs4">
    <linearGradient
       gradientTransform="matrix(1.0908991,0,0,1.0652693,-421.70637,-535.04239)"
       gradientUnits="userSpaceOnUse"
       y2="507.8"
       x2="0"
       y1="542.8"
       id="0">
      <stop
         stop-color="#197cf1"
         id="stop7" />
      <stop
         offset="1"
         stop-color="#20bcfa"
         id="stop9" />
    </linearGradient>
  </defs>
  <g
     style="fill:#0066ff;stroke:none;stroke-width:0.30000001;stroke-linecap:round;stroke-linejoin:round"
     id="g15"
     transform="matrix(3.2566066,0,0,5.2980734,-205.50307,70.055191)">
    <path
       inkscape:connector-curvature="0"
       id="path17"
       d="m 77.74,-5.167 c -0.053,-0.05 -0.12,-0.075 -0.202,-0.075 l -8.439,0 c -0.082,0 -0.149,0.025 -0.202,0.075 -0.053,0.05 -0.079,0.114 -0.079,0.192 l 0,0.535 c 0,0.078 0.026,0.142 0.079,0.192 0.053,0.05 0.12,0.075 0.202,0.075 l 8.439,0 c 0.082,0 0.149,-0.025 0.202,-0.075 0.053,-0.05 0.079,-0.114 0.079,-0.192 l 0,-0.535 c 0,-0.078 -0.026,-0.142 -0.079,-0.192 z"
       style="fill:#0066ff;stroke:none" />
    <path
       inkscape:connector-curvature="0"
       id="path19"
       d="m 64.24,-13.08 c -0.059,-0.056 -0.126,-0.084 -0.202,-0.084 -0.076,0 -0.144,0.028 -0.202,0.084 l -0.44,0.418 c -0.059,0.056 -0.088,0.12 -0.088,0.192 0,0.073 0.029,0.137 0.088,0.192 l 3.455,3.287 -3.455,3.287 c -0.059,0.056 -0.088,0.12 -0.088,0.192 0,0.073 0.029,0.137 0.088,0.192 l 0.44,0.418 c 0.059,0.056 0.126,0.084 0.202,0.084 0.076,0 0.144,-0.028 0.202,-0.084 L 68.337,-8.8 c 0.059,-0.056 0.088,-0.12 0.088,-0.192 0,-0.072 -0.029,-0.137 -0.088,-0.192 l -4.097,-3.898 z"
       style="fill:#0066ff;stroke:none" />
  </g>
</svg>
