<?xml version="1.0" encoding="UTF-8" standalone="no"?>
<svg
   xmlns:dc="http://purl.org/dc/elements/1.1/"
   xmlns:cc="http://creativecommons.org/ns#"
   xmlns:rdf="http://www.w3.org/1999/02/22-rdf-syntax-ns#"
   xmlns:svg="http://www.w3.org/2000/svg"
   xmlns="http://www.w3.org/2000/svg"
   xmlns:sodipodi="http://sodipodi.sourceforge.net/DTD/sodipodi-0.dtd"
   xmlns:inkscape="http://www.inkscape.org/namespaces/inkscape"
   viewBox="0 0 48 48"
   id="svg2"
   version="1.1"
   inkscape:version="0.91 r13725"
   sodipodi:docname="bangarang.svg">
  <metadata
     id="metadata19">
    <rdf:RDF>
      <cc:Work
         rdf:about="">
        <dc:format>image/svg+xml</dc:format>
        <dc:type
           rdf:resource="http://purl.org/dc/dcmitype/StillImage" />
        <dc:title></dc:title>
      </cc:Work>
    </rdf:RDF>
  </metadata>
  <sodipodi:namedview
     pagecolor="#ffffff"
     bordercolor="#666666"
     borderopacity="1"
     objecttolerance="10"
     gridtolerance="10"
     guidetolerance="10"
     inkscape:pageopacity="0"
     inkscape:pageshadow="2"
     inkscape:window-width="1280"
     inkscape:window-height="694"
     id="namedview17"
     showgrid="false"
     inkscape:zoom="4.9166667"
     inkscape:cx="-9.1525424"
     inkscape:cy="24"
     inkscape:window-x="0"
     inkscape:window-y="0"
     inkscape:window-maximized="1"
     inkscape:current-layer="svg2" />
  <defs
     id="defs4">
    <linearGradient
       id="0"
       gradientUnits="userSpaceOnUse"
       y1="576.48"
       x2="0"
       y2="533.3"
       gradientTransform="matrix(1.07196,0,0,1.07196,-427.81,-571.1)">
      <stop
         stop-color="#00a661"
         id="stop7" />
      <stop
         offset="1"
         stop-color="#37ce97"
         id="stop9" />
    </linearGradient>
  </defs>
  <path
     style="fill:#37c871;fill-opacity:0.83800001"
     inkscape:connector-curvature="0"
     id="path15"
     d="m 40.037519,26.492942 c -0.167133,0 -0.295058,0.140699 -0.295058,0.279574 l 0,3.413351 c 0,0.160797 0.127926,0.275919 0.295058,0.275919 l 4.009073,0 c 0.167133,0 0.295059,-0.140698 0.295059,-0.275919 l 0,-3.413351 c 0,-0.164462 -0.125859,-0.279574 -0.295059,-0.279574 z m -7.547707,0 c -0.167133,0 -0.295058,0.140699 -0.295058,0.279574 l 0,3.413351 c 0,0.160797 0.127927,0.275919 0.295058,0.275919 l 4.009076,0 c 0.167133,0 0.295057,-0.140698 0.295057,-0.275919 l 0,-3.413351 c 0,-0.164462 -0.127927,-0.279574 -0.295057,-0.279574 z m -7.547706,0 c -0.167132,0 -0.295059,0.140699 -0.295059,0.279574 l 0,3.413351 c 0,0.160797 0.127927,0.275919 0.295059,0.275919 l 4.009075,0 c 0.167133,0 0.295057,-0.140698 0.295057,-0.275919 l 0,-3.413351 c 0,-0.164462 -0.127927,-0.279574 -0.295057,-0.279574 z m -7.547706,0 c -0.167133,0 -0.295057,0.140699 -0.295057,0.279574 l 0,3.413351 c 0,0.160797 0.127927,0.275919 0.295057,0.275919 l 4.009073,0 c 0.167134,0 0.295061,-0.140698 0.295061,-0.275919 l 0,-3.413351 c 0,-0.164462 -0.127927,-0.279574 -0.295061,-0.279574 z M 17.885475,9.8555889 c -0.577735,0 -1.041986,0.4111371 -1.041986,0.9209481 l 0,11.751215 c 0,0.509811 0.464251,0.922775 1.041986,0.922775 l 22.426469,0 c 0.577735,0 1.041986,-0.411137 1.041986,-0.922775 l 0,-11.751215 c 0,-0.509811 -0.464251,-0.9209481 -1.041986,-0.9209481 z m 22.14998,-6.5982945 c -0.167132,0 -0.295057,0.1260903 -0.295057,0.2631275 l 0,3.4096973 c 0,0.164461 0.127926,0.2795735 0.295057,0.2795735 l 4.009074,0 c 0.167133,0 0.295059,-0.1425227 0.295059,-0.2795735 l 0,-3.4096973 c 0,-0.1644611 -0.125859,-0.2631275 -0.295059,-0.2631275 z m -7.547706,0 c -0.167133,0 -0.295058,0.1260903 -0.295058,0.2631275 l 0,3.4096973 c 0,0.164461 0.127926,0.2795735 0.295058,0.2795735 l 4.009076,0 c 0.167132,0 0.295056,-0.1425227 0.295056,-0.2795735 l 0,-3.4096973 c 0,-0.1644611 -0.127926,-0.2631275 -0.295056,-0.2631275 z m -7.547706,0 c -0.167133,0 -0.295059,0.1260903 -0.295059,0.2631275 l 0,3.4096973 c 0,0.164461 0.127926,0.2795735 0.295059,0.2795735 l 4.009075,0 c 0.167133,0 0.295056,-0.1425227 0.295056,-0.2795735 l 0,-3.4096973 c 0,-0.1644611 -0.127926,-0.2631275 -0.295056,-0.2631275 z m -7.547707,0 c -0.167133,0 -0.295056,0.1260903 -0.295056,0.2631275 l 0,3.4096973 c 0,0.164461 0.127926,0.2795735 0.295056,0.2795735 l 4.009074,0 c 0.167134,0 0.29506,-0.1425227 0.29506,-0.2795735 l 0,-3.4096973 c 0,-0.1644611 -0.127926,-0.2631275 -0.29506,-0.2631275 z m 30.601431,-3.14656996 0,2.34804926 c 0.04332,0.2119653 0.05985,0.3892109 0.05985,0.5902103 l 0,0.2174472 -0.472506,0 c -0.167133,0 -0.29506,0.1333859 -0.29506,0.2631273 l 0,3.4115248 c 0,0.164461 0.125859,0.2795734 0.29506,0.2795734 l 0.472506,0 0,2.6477236 -2.496646,0 c -0.577735,0 -1.041987,0.4111377 -1.041987,0.9191207 l 0,11.751215 c 0,0.50981 0.464252,0.920948 1.041987,0.920948 l 2.496646,0 0,3.04607 -0.472506,0 c -0.167133,0 -0.29506,0.133385 -0.29506,0.279573 l 0,3.411525 c 0,0.160796 0.125859,0.275918 0.29506,0.275918 l 0.472506,0 0,0.118777 c 0,0.204655 -0.01655,0.398347 -0.05985,0.590212 l 0,2.313331 c -10.337345,0.06214 -20.695323,0.03472 -31.053302,0.03472 l 0,7.345652 0.0062,0.03655 c -0.245556,2.711677 -3.029004,5.394119 -6.827617,6.472212 C 5.6003053,48.666952 1.236335,47.143003 0.36973163,43.989124 -0.49687176,40.833417 2.4743404,37.230028 6.9930613,35.94728 8.7262682,35.455743 10.428526,35.386307 11.926512,35.651262 l 0,-5.048766 0,-0.469609 0,-27.0473469 c 0,-1.6226224 1.471162,-2.92364243 3.301348,-2.92364243 12.021032,0.034723 21.658905,-0.0511725 32.763813,-0.0511725" />
</svg>
