<?xml version="1.0" encoding="UTF-8" standalone="no"?>
<svg
   xmlns:dc="http://purl.org/dc/elements/1.1/"
   xmlns:cc="http://creativecommons.org/ns#"
   xmlns:rdf="http://www.w3.org/1999/02/22-rdf-syntax-ns#"
   xmlns:svg="http://www.w3.org/2000/svg"
   xmlns="http://www.w3.org/2000/svg"
   xmlns:sodipodi="http://sodipodi.sourceforge.net/DTD/sodipodi-0.dtd"
   xmlns:inkscape="http://www.inkscape.org/namespaces/inkscape"
   viewBox="0 0 48 48"
   id="svg2"
   version="1.1"
   inkscape:version="0.91 r13725"
   sodipodi:docname="chrome-cmnpffgfpcohhpoddjankjanolcekbni-Default.svg">
  <metadata
     id="metadata24">
    <rdf:RDF>
      <cc:Work
         rdf:about="">
        <dc:format>image/svg+xml</dc:format>
        <dc:type
           rdf:resource="http://purl.org/dc/dcmitype/StillImage" />
        <dc:title></dc:title>
      </cc:Work>
    </rdf:RDF>
  </metadata>
  <sodipodi:namedview
     pagecolor="#ffffff"
     bordercolor="#666666"
     borderopacity="1"
     objecttolerance="10"
     gridtolerance="10"
     guidetolerance="10"
     inkscape:pageopacity="0"
     inkscape:pageshadow="2"
     inkscape:window-width="1280"
     inkscape:window-height="694"
     id="namedview22"
     showgrid="false"
     inkscape:zoom="4.9166667"
     inkscape:cx="-9.1525424"
     inkscape:cy="24"
     inkscape:window-x="0"
     inkscape:window-y="0"
     inkscape:window-maximized="1"
     inkscape:current-layer="svg2" />
  <defs
     id="defs4">
    <linearGradient
       id="0"
       gradientUnits="userSpaceOnUse"
       gradientTransform="matrix(0.49432506,0,0,0.47779522,86.63975,13.102128)"
       x1="-123.97"
       y1="73.5"
       x2="-125.19"
       y2="-26.05">
      <stop
         stop-color="#212121"
         id="stop7" />
      <stop
         offset="1"
         stop-color="#3f3f41"
         id="stop9" />
    </linearGradient>
    <linearGradient
       gradientUnits="userSpaceOnUse"
       y2="9.957"
       x2="0"
       y1="38.14"
       id="1"
       gradientTransform="translate(-0.009,-0.007)">
      <stop
         stop-color="#c52828"
         id="stop12" />
      <stop
         offset="1"
         stop-color="#ff5454"
         id="stop14" />
    </linearGradient>
  </defs>
  <path
     inkscape:connector-curvature="0"
     style="fill:#ff2a2a"
     id="path20"
     d="M 12.146288,0.02689831 0.30357627,23.891305 12.146288,47.755712 l 23.685424,0 11.842712,-23.864407 -11.842712,-23.86440669 -23.685424,0 m 2.66461,5.36949149 0.133378,0 c -0.0513,0.015341 -0.104062,0.028978 -0.156828,0.046024 l 0.02346,-0.046024 z m 6.730413,0 11.633119,0 2.544424,5.1308472 C 34.209202,9.8436925 32.567638,9.453339 30.843996,9.453339 c -0.97761,0 -1.928838,0.1244358 -2.84489,0.3545569 C 26.281327,7.6856683 24.052024,6.1395957 21.539845,5.4015036 M 15.22422,9.6203898 c 2.88886,0 5.552004,1.0653752 7.734406,2.8637292 -1.581472,1.351748 -2.891792,3.087031 -3.83569,5.105278 -1.399727,-0.576155 -2.902052,-0.905143 -4.476194,-0.905143 -2.328969,0 -4.495247,0.717637 -6.3962371,1.927903 L 12.55961,9.9357409 c 0.860356,-0.2028474 1.750025,-0.3153511 2.66461,-0.3153511 m 15.398458,4.8904982 c 5.228088,1.293793 9.302684,6.121221 10.318402,12.24585 l -7.762253,15.634596 -4.020366,0 c 3.51324,-2.797249 5.81143,-7.495129 5.81143,-12.84246 0,-3.976833 -1.279541,-7.583767 -3.378397,-10.329879 -0.112859,-1.658576 -0.441171,-3.24215 -0.962954,-4.711516 m -5.65167,0.01534 c 2.24689,2.780203 3.630494,6.514983 3.630494,10.650343 0,1.742102 -0.259425,3.407497 -0.712321,4.967207 -0.663954,-5.756436 -4.005709,-10.48159 -8.536133,-12.453812 1.604922,-1.527321 3.514706,-2.633607 5.61796,-3.162033 m -13.361159,6.869539 c 7.410489,0 13.375815,6.937725 13.375815,15.556185 0,0.538653 -0.03372,1.068784 -0.08062,1.592096 -1.887798,1.182992 -4.051146,1.854606 -6.355198,1.854606 -1.925906,0 -3.743352,-0.485812 -5.392244,-1.334702 L 5.6327966,23.896417 6.2102754,22.733879 c 1.6518237,-0.8523 3.4736667,-1.34152 5.4054356,-1.34152 m 19.983111,0.03409 c 0.21399,1.097764 0.33271,2.23814 0.33271,3.409202 0,4.587079 -1.700192,8.683234 -4.397047,11.524803 0.310725,-1.314247 0.493935,-2.691564 0.493935,-4.125133 0,-0.371603 -0.02784,-0.736387 -0.04984,-1.101172 2.08713,-2.563719 3.422366,-5.947351 3.620234,-9.712814" />
</svg>
