<?xml version="1.0" encoding="UTF-8" standalone="no"?>
<svg
   xmlns:dc="http://purl.org/dc/elements/1.1/"
   xmlns:cc="http://creativecommons.org/ns#"
   xmlns:rdf="http://www.w3.org/1999/02/22-rdf-syntax-ns#"
   xmlns:svg="http://www.w3.org/2000/svg"
   xmlns="http://www.w3.org/2000/svg"
   xmlns:sodipodi="http://sodipodi.sourceforge.net/DTD/sodipodi-0.dtd"
   xmlns:inkscape="http://www.inkscape.org/namespaces/inkscape"
   viewBox="0 0 48 48"
   id="svg2"
   version="1.1"
   inkscape:version="0.91 r13725"
   sodipodi:docname="cuttlefish.svg">
  <metadata
     id="metadata23">
    <rdf:RDF>
      <cc:Work
         rdf:about="">
        <dc:format>image/svg+xml</dc:format>
        <dc:type
           rdf:resource="http://purl.org/dc/dcmitype/StillImage" />
        <dc:title></dc:title>
      </cc:Work>
    </rdf:RDF>
  </metadata>
  <sodipodi:namedview
     pagecolor="#ffffff"
     bordercolor="#666666"
     borderopacity="1"
     objecttolerance="10"
     gridtolerance="10"
     guidetolerance="10"
     inkscape:pageopacity="0"
     inkscape:pageshadow="2"
     inkscape:window-width="1280"
     inkscape:window-height="694"
     id="namedview21"
     showgrid="false"
     inkscape:zoom="4.9166667"
     inkscape:cx="-9.1525424"
     inkscape:cy="24"
     inkscape:window-x="0"
     inkscape:window-y="0"
     inkscape:window-maximized="1"
     inkscape:current-layer="svg2" />
  <defs
     id="defs4">
    <linearGradient
       id="0"
       gradientUnits="userSpaceOnUse"
       y1="7.369"
       x2="0"
       y2="-41.43"
       gradientTransform="matrix(0.99999,0,0,0.99999,6.629,40.882)">
      <stop
         stop-color="#ff9300"
         id="stop7" />
      <stop
         offset="1"
         stop-color="#ffd702"
         id="stop9" />
    </linearGradient>
  </defs>
  <g
     style="fill:#ffcc00;fill-opacity:0.75"
     id="g15"
     transform="matrix(1.5681728,0,0,1.8545026,-3.2431772,55.301901)">
    <path
       inkscape:connector-curvature="0"
       id="path17"
       d="m 19.306,-24.53 c -0.282,-2.796 -2.735,-5.198 -5.341,-5.198 -2.662,0 -5.109,0.921 -7.06,2.451 -0.517,-0.016 -1.108,0.041 -1.725,0.189 -1.737,0.415 -3,1.357 -2.823,2.104 0.118,0.495 0.844,0.774 1.819,0.79 -1.05,1.73 -1.666,3.751 -1.666,5.918 0,4.196 2.277,7.855 5.652,9.846 -0.336,0.364 -0.645,0.874 -0.861,1.484 -0.48,1.355 -0.318,2.646 0.359,2.885 0.677,0.24 1.613,-0.664 2.093,-2.02 0.102,-0.292 0.17,-0.579 0.215,-0.855 0.266,0.088 0.551,0.162 0.857,0.206 1.422,0.205 2.657,-0.205 2.76,-0.916 0.102,-0.71 -0.966,-1.454 -2.389,-1.659 -0.609,-0.088 -1.179,-0.058 -1.645,0.056 -0.021,-0.074 -0.858,-1.596 -0.931,-2.777 -0.094,-1.537 0.364,-3.055 1.361,-4.227 0.39,-0.456 0.859,-0.823 1.359,-1.135 -0.09,1.204 0.189,2.143 0.757,2.285 0.745,0.187 1.701,-1.068 2.135,-2.799 0.037,-0.149 0.064,-0.295 0.091,-0.441 l 0.396,-0.069 c 2.811,-0.597 4.881,-3.182 4.584,-6.12"
       style="fill:#ffcc00" />
    <path
       inkscape:connector-curvature="0"
       id="path19"
       d="m 15.443,-9.22 c 0.282,2.796 2.735,5.198 5.341,5.198 2.662,0 5.109,-0.921 7.06,-2.451 0.518,0.016 1.108,-0.041 1.726,-0.188 1.737,-0.415 3,-1.358 2.823,-2.105 -0.118,-0.495 -0.844,-0.774 -1.819,-0.79 1.05,-1.73 1.666,-3.75 1.666,-5.917 0,-4.196 -2.277,-7.855 -5.652,-9.846 0.336,-0.364 0.646,-0.874 0.861,-1.484 0.479,-1.355 0.318,-2.646 -0.359,-2.885 -0.677,-0.24 -1.613,0.664 -2.093,2.02 -0.102,0.292 -0.17,0.579 -0.215,0.854 -0.266,-0.088 -0.551,-0.162 -0.857,-0.206 -1.422,-0.205 -2.657,0.205 -2.76,0.916 -0.102,0.71 0.966,1.454 2.389,1.659 0.609,0.088 1.179,0.058 1.646,-0.056 0.021,0.074 0.858,1.596 0.931,2.777 0.094,1.537 -0.364,3.055 -1.361,4.227 -0.39,0.457 -0.858,0.825 -1.358,1.137 0.09,-1.204 -0.188,-2.143 -0.757,-2.285 -0.745,-0.186 -1.701,1.068 -2.135,2.799 -0.037,0.149 -0.064,0.295 -0.091,0.441 l -0.396,0.069 c -2.815,0.595 -4.884,3.181 -4.587,6.118"
       style="fill:#ffcc00" />
  </g>
</svg>
