<?xml version="1.0" encoding="UTF-8" standalone="no"?>
<svg
   xmlns:dc="http://purl.org/dc/elements/1.1/"
   xmlns:cc="http://creativecommons.org/ns#"
   xmlns:rdf="http://www.w3.org/1999/02/22-rdf-syntax-ns#"
   xmlns:svg="http://www.w3.org/2000/svg"
   xmlns="http://www.w3.org/2000/svg"
   xmlns:xlink="http://www.w3.org/1999/xlink"
   xmlns:sodipodi="http://sodipodi.sourceforge.net/DTD/sodipodi-0.dtd"
   xmlns:inkscape="http://www.inkscape.org/namespaces/inkscape"
   viewBox="0 0 48 48"
   id="svg2"
   version="1.1"
   inkscape:version="0.91 r13725"
   sodipodi:docname="epoptes.svg">
  <metadata
     id="metadata39">
    <rdf:RDF>
      <cc:Work
         rdf:about="">
        <dc:format>image/svg+xml</dc:format>
        <dc:type
           rdf:resource="http://purl.org/dc/dcmitype/StillImage" />
        <dc:title></dc:title>
      </cc:Work>
    </rdf:RDF>
  </metadata>
  <sodipodi:namedview
     pagecolor="#ffffff"
     bordercolor="#666666"
     borderopacity="1"
     objecttolerance="10"
     gridtolerance="10"
     guidetolerance="10"
     inkscape:pageopacity="0"
     inkscape:pageshadow="2"
     inkscape:window-width="1280"
     inkscape:window-height="694"
     id="namedview37"
     showgrid="false"
     inkscape:zoom="4.9166667"
     inkscape:cx="-9.1525422"
     inkscape:cy="24"
     inkscape:window-x="0"
     inkscape:window-y="0"
     inkscape:window-maximized="1"
     inkscape:current-layer="svg2" />
  <defs
     id="defs4">
    <linearGradient
       xlink:href="#4"
       id="3"
       gradientUnits="userSpaceOnUse"
       x1="400.51"
       y1="546.07"
       x2="400.7"
       y2="517.77"
       gradientTransform="matrix(0.57091326,0,0,0.57193122,-185.45204,-267.80943)" />
    <linearGradient
       id="4">
      <stop
         stop-color="#566069"
         id="stop8" />
      <stop
         offset="1"
         stop-color="#6c7884"
         id="stop10" />
    </linearGradient>
    <linearGradient
       gradientTransform="matrix(0.94481053,0,0,0.87703473,-361.94425,-430.7053)"
       gradientUnits="userSpaceOnUse"
       y2="507.8"
       x2="0"
       y1="542.8"
       id="2">
      <stop
         stop-color="#2fae61"
         id="stop13" />
      <stop
         offset="1"
         stop-color="#4bdf88"
         id="stop15" />
    </linearGradient>
    <linearGradient
       id="0"
       gradientUnits="userSpaceOnUse"
       y1="542.2"
       x2="0"
       y2="526.2">
      <stop
         stop-color="#d0d0d0"
         id="stop18" />
      <stop
         offset="1"
         stop-color="#f1eeee"
         id="stop20" />
    </linearGradient>
    <linearGradient
       gradientTransform="matrix(0.94481053,0,0,0.87703473,-365.2568,-445.25285)"
       gradientUnits="userSpaceOnUse"
       y2="507.8"
       x2="0"
       y1="542.8"
       id="1"
       xlink:href="#4" />
  </defs>
  <path
     style="fill:#5fd38d;fill-opacity:0.847"
     inkscape:connector-curvature="0"
     id="path35"
     d="m 11.801348,15.936274 c 0.509906,0 1.003233,0.0753 1.467539,0.221676 1.757728,-1.986673 3.706153,-3.797681 5.816254,-5.395383 -0.09118,-0.376422 -0.13681,-0.7695743 -0.13681,-1.1710912 0,-0.5562696 0.09118,-1.0958067 0.26117,-1.5977028 C 16.842373,6.287326 14.276254,4.8527382 11.540168,3.7443855 8.9781968,5.3420882 6.7478702,7.4207735 4.965269,9.863335 c 1.322443,2.363096 2.893619,4.567255 4.6803679,6.570658 0.6508551,-0.317867 1.3846251,-0.497714 2.1598491,-0.497714 m -4.9871382,5.03151 c 0,-0.706839 0.1492403,-1.380215 0.4062671,-1.986674 -1.6001968,-1.777547 -3.047007,-3.688937 -4.3155561,-5.729981 -1.5919057,3.191225 -2.49564294,6.796512 -2.49564294,10.615103 0,4.416688 1.20636694,8.553149 3.29988614,12.091517 0.7503521,-4.249387 2.1681429,-8.272922 4.1248591,-11.953493 -0.6384194,-0.844859 -1.01567,-1.898841 -1.01567,-3.036472 M 23.939616,4.5641492 c 1.318296,0 2.508081,0.518626 3.403527,1.3593008 2.599282,-1.1292664 5.339515,-1.9950361 8.187531,-2.5513055 -3.440836,-2.0034009 -7.428889,-3.14939721 -11.68226,-3.14939721 -2.90191,0 -5.679453,0.53535591 -8.241426,1.50986961 2.035485,1.0163411 3.975619,2.195797 5.799677,3.5341868 0.742058,-0.4475253 1.608486,-0.7026545 2.532951,-0.7026545 M 31.39338,28.253648 c 0.31092,-0.652465 0.750352,-1.229646 1.297569,-1.685535 -1.471684,-4.567256 -3.801503,-8.749724 -6.807052,-12.342462 -0.596964,0.255136 -1.251967,0.397333 -1.944281,0.397333 -1.081996,0 -2.076937,-0.351328 -2.897763,-0.936873 -1.807476,1.384398 -3.482292,2.936092 -5.003723,4.634174 0.480888,0.769575 0.754497,1.677169 0.754497,2.647504 0,0.522807 -0.07876,1.028884 -0.228002,1.505689 4.373592,2.944454 9.41048,4.968769 14.82876,5.78017 m 6.467114,6.792326 c 0.06632,0.953603 0.103648,1.911389 0.103648,2.881721 0,1.706448 -0.107799,3.3878 -0.31092,5.039876 3.975618,-2.92773 6.997749,-7.089284 8.527472,-11.920034 -1.807476,0.443339 -3.664698,0.757026 -5.555086,0.93687 -0.439432,1.380218 -1.455102,2.48857 -2.765107,3.061567 m -7.632025,-3.408715 c -5.787238,-0.970333 -11.14748,-3.195406 -15.819554,-6.382447 -0.758645,0.468437 -1.649943,0.744479 -2.599285,0.744479 -0.352373,0 -0.69231,-0.03765 -1.023958,-0.104563 -2.2344712,4.270302 -3.6646979,9.038316 -4.070965,14.09492 2.2303251,2.417464 4.949829,4.362313 8.009272,5.667243 3.801501,-5.893096 9.107851,-10.765673 15.50449,-14.015448 M 39.580921,6.3375102 C 35.82502,6.7055673 32.239087,7.65917 28.901891,9.0812067 c 0.01656,0.1714875 0.02496,0.3387811 0.02496,0.5060799 0,0.7946684 -0.190709,1.5433324 -0.509908,2.2083434 3.341342,3.956615 5.928187,8.55733 7.561548,13.597205 2.031337,0.0041 3.764192,1.288198 4.510398,3.069931 2.255198,-0.23003 4.452359,-0.669195 6.566608,-1.296564 0.153392,-1.079078 0.236304,-2.183249 0.236304,-3.308335 C 47.291389,16.910784 44.319418,10.657994 39.585159,6.3333216 M 32.740704,34.314039 c -5.969644,2.823167 -10.965076,7.168749 -14.575879,12.480484 1.81991,0.460071 3.72688,0.706838 5.691887,0.706838 3.532039,0 6.881673,-0.794671 9.887224,-2.208343 0.485032,-2.384007 0.737914,-4.847482 0.737914,-7.373692 0,-0.911779 -0.004,-1.815192 -0.1078,-2.71024 -0.601099,-0.196577 -1.15246,-0.497714 -1.629203,-0.895047" />
  <path
     d="m 39.858039,42.961706 c -0.386748,0 -0.772626,-0.208013 -1.053174,-0.61637 -0.719526,-1.049979 -1.744242,-1.650006 -2.812574,-1.650006 -1.086322,0 -2.084762,0.582603 -2.810721,1.641225 -0.527077,0.770496 -1.426185,0.829391 -2.008764,0.130353 -0.582033,-0.697826 -0.626625,-1.885585 -0.09855,-2.65365 1.253254,-1.827906 3.045799,-2.876669 4.917506,-2.876669 1.86887,0 3.661961,1.051196 4.918596,2.882884 0.52806,0.76928 0.483464,1.957039 -0.09855,2.654863 -0.271062,0.327029 -0.613325,0.48737 -0.954605,0.48737 m 3.154727,-4.702004 c -0.363089,0 -0.726178,-0.182891 -1.002911,-0.547482 -1.609582,-2.116165 -3.746464,-3.28123 -6.017675,-3.28123 -2.27601,0 -4.413654,1.162634 -6.020949,3.274342 -0.556407,0.731728 -1.457042,0.727947 -2.010616,-0.0074 -0.553573,-0.735378 -0.551721,-1.925703 0.006,-2.657298 2.142439,-2.816419 4.992851,-4.36714 8.025022,-4.36714 3.02781,0 5.877348,1.553556 8.023931,4.374975 0.557389,0.73173 0.559352,1.92192 0.006,2.658649 -0.277713,0.367147 -0.643637,0.553828 -1.00858,0.553828 z m 3.148183,-4.694577 c -0.353602,0 -0.708075,-0.174125 -0.983498,-0.522489 -2.482743,-3.144666 -5.743671,-4.876393 -9.185162,-4.876393 -3.447706,0 -6.711143,1.729025 -9.186251,4.870989 -0.565896,0.71795 -1.466529,0.694043 -2.010618,-0.05511 -0.544088,-0.749289 -0.525224,-1.939481 0.04068,-2.657297 3.008837,-3.816013 6.970319,-5.917321 11.156524,-5.917321 4.177153,0 8.138419,2.103603 11.153253,5.921105 0.566877,0.717949 0.58585,1.908679 0.04273,2.657295 -0.279678,0.384572 -0.653124,0.578818 -1.02668,0.578818 M 35.813592,47.507692 c 0.94861,0 1.717748,-0.964337 1.717748,-2.153854 0,-1.189515 -0.768703,-2.153851 -1.717748,-2.153851 -0.948611,0 -1.717747,0.964336 -1.717747,2.153851 0,1.189517 0.768701,2.153854 1.717747,2.153854"
     id="path33"
     inkscape:connector-curvature="0"
     style="fill:#afe9c6;fill-opacity:1" />
</svg>
