<?xml version="1.0" encoding="UTF-8" standalone="no"?>
<svg
   xmlns:dc="http://purl.org/dc/elements/1.1/"
   xmlns:cc="http://creativecommons.org/ns#"
   xmlns:rdf="http://www.w3.org/1999/02/22-rdf-syntax-ns#"
   xmlns:svg="http://www.w3.org/2000/svg"
   xmlns="http://www.w3.org/2000/svg"
   xmlns:sodipodi="http://sodipodi.sourceforge.net/DTD/sodipodi-0.dtd"
   xmlns:inkscape="http://www.inkscape.org/namespaces/inkscape"
   viewBox="0 0 48 48"
   id="svg2"
   version="1.1"
   inkscape:version="0.91 r13725"
   sodipodi:docname="fusion-icon.svg">
  <metadata
     id="metadata19">
    <rdf:RDF>
      <cc:Work
         rdf:about="">
        <dc:format>image/svg+xml</dc:format>
        <dc:type
           rdf:resource="http://purl.org/dc/dcmitype/StillImage" />
        <dc:title></dc:title>
      </cc:Work>
    </rdf:RDF>
  </metadata>
  <sodipodi:namedview
     pagecolor="#ffffff"
     bordercolor="#666666"
     borderopacity="1"
     objecttolerance="10"
     gridtolerance="10"
     guidetolerance="10"
     inkscape:pageopacity="0"
     inkscape:pageshadow="2"
     inkscape:window-width="1280"
     inkscape:window-height="694"
     id="namedview17"
     showgrid="false"
     inkscape:zoom="4.9166667"
     inkscape:cx="-9.1525424"
     inkscape:cy="24"
     inkscape:window-x="0"
     inkscape:window-y="0"
     inkscape:window-maximized="1"
     inkscape:current-layer="svg2" />
  <defs
     id="defs4">
    <linearGradient
       id="0"
       gradientUnits="userSpaceOnUse"
       y1="27.13"
       x2="0"
       y2="-20.875"
       gradientTransform="matrix(0.99999,0,0,0.99999,-43.37,20.882)">
      <stop
         stop-color="#0973d9"
         id="stop7" />
      <stop
         offset="1"
         stop-color="#0cbffe"
         id="stop9" />
    </linearGradient>
  </defs>
  <path
     style="fill:#37abc8;fill-opacity:0.86100003;fill-rule:evenodd;stroke-width:1.31700003"
     inkscape:connector-curvature="0"
     id="path15"
     d="m 47.467599,21.406423 c -0.07463,-0.657495 -0.844874,-1.152369 -1.510916,-1.152369 -2.154431,0 -4.066664,-1.258916 -4.867886,-3.207571 -0.81953,-1.994917 -0.291482,-4.322088 1.315186,-5.788485 0.505518,-0.459827 0.567475,-1.229476 0.14363,-1.7650058 C 41.445052,8.0994938 40.191821,6.8391768 38.823124,5.7484912 38.286629,5.3209086 37.500895,5.3797894 37.036214,5.891486 35.63513,7.4363908 33.117403,8.011174 31.172784,7.2022722 29.149309,6.3541168 27.872142,4.3129354 27.997465,2.1203483 28.0383,1.4320104 27.532783,0.83339485 26.84421,0.75348602 25.088278,0.55161107 23.316859,0.54460145 21.555295,0.7520841 20.873762,0.8263861 20.368247,1.4109817 20.390776,2.0909081 20.466822,4.2610648 19.175565,6.2671974 17.171803,7.0845106 15.249714,7.8653754 12.750293,7.2961998 11.352026,5.7653142 10.890161,5.2606258 10.115693,5.1989426 9.5777889,5.6167118 8.1696645,6.7172108 6.8868642,7.9775278 5.774444,9.3598108 5.3407437,9.8967422 5.4041086,10.676205 5.9152584,11.138836 c 1.6362409,1.474808 2.164288,3.821605 1.3151891,5.840356 -0.8110792,1.92342 -2.8162488,3.16411 -5.1157162,3.16411 -0.7448977,-0.02384 -1.2757606,0.473846 -1.35743185,1.149566 -0.20699435,1.757996 -0.20981048,3.549637 -0.009857,5.323052 0.0732221,0.660299 0.86740465,1.150969 1.54189625,1.150969 2.0474128,-0.05186 4.0131547,1.209848 4.8369072,3.20757 0.8223444,1.994918 0.2928905,4.320686 -1.315188,5.787084 -0.5027007,0.459825 -0.5674747,1.229475 -0.1436293,1.763602 1.0927047,1.385087 2.3459357,2.645404 3.7188577,3.745903 0.5393111,0.431789 1.3222279,0.371507 1.7897249,-0.141593 1.406717,-1.549109 3.923035,-2.12249 5.860613,-1.312186 2.029108,0.845351 3.306277,2.886531 3.180955,5.080522 -0.04084,0.688337 0.467497,1.288354 1.153253,1.366861 0.898383,0.103741 1.802399,0.157014 2.707822,0.157014 0.860364,0 1.720728,-0.04766 2.581092,-0.142995 0.681533,-0.0743 1.187051,-0.658898 1.16452,-1.340226 -0.07886,-2.168754 1.21521,-4.174888 3.216156,-4.990799 1.934762,-0.786471 4.424327,-0.210287 5.822594,1.319196 0.46468,0.503287 1.233517,0.563568 1.774237,0.147201 1.406716,-1.097695 2.685293,-2.35661 3.803344,-3.743099 0.433702,-0.536931 0.373153,-1.316393 -0.140814,-1.779023 -1.63624,-1.47481 -2.167104,-3.823009 -1.316597,-5.838956 0.799816,-1.898185 2.731762,-3.172522 4.808745,-3.172522 l 0.290074,0.007 c 0.674491,0.05468 1.294066,-0.462631 1.375737,-1.146763 0.206995,-1.759396 0.209811,-3.549635 0.0099,-5.323052 m -23.324173,10.45545 c -4.324349,0 -7.841844,-3.501971 -7.841844,-7.807238 0,-4.305265 3.517495,-7.807236 7.841844,-7.807236 4.32435,0 7.841845,3.501971 7.841845,7.807236 0,4.305267 -3.517495,7.807238 -7.841845,7.807238" />
</svg>
