<?xml version="1.0" encoding="UTF-8" standalone="no"?>
<svg
   xmlns:dc="http://purl.org/dc/elements/1.1/"
   xmlns:cc="http://creativecommons.org/ns#"
   xmlns:rdf="http://www.w3.org/1999/02/22-rdf-syntax-ns#"
   xmlns:svg="http://www.w3.org/2000/svg"
   xmlns="http://www.w3.org/2000/svg"
   xmlns:sodipodi="http://sodipodi.sourceforge.net/DTD/sodipodi-0.dtd"
   xmlns:inkscape="http://www.inkscape.org/namespaces/inkscape"
   viewBox="0 0 48 48"
   id="svg2"
   version="1.1"
   inkscape:version="0.91 r13725"
   sodipodi:docname="groupwise_protocol.svg">
  <metadata
     id="metadata24">
    <rdf:RDF>
      <cc:Work
         rdf:about="">
        <dc:format>image/svg+xml</dc:format>
        <dc:type
           rdf:resource="http://purl.org/dc/dcmitype/StillImage" />
        <dc:title></dc:title>
      </cc:Work>
    </rdf:RDF>
  </metadata>
  <sodipodi:namedview
     pagecolor="#ffffff"
     bordercolor="#666666"
     borderopacity="1"
     objecttolerance="10"
     gridtolerance="10"
     guidetolerance="10"
     inkscape:pageopacity="0"
     inkscape:pageshadow="2"
     inkscape:window-width="1280"
     inkscape:window-height="694"
     id="namedview22"
     showgrid="false"
     inkscape:zoom="4.9166667"
     inkscape:cx="12.673729"
     inkscape:cy="24"
     inkscape:window-x="0"
     inkscape:window-y="0"
     inkscape:window-maximized="1"
     inkscape:current-layer="svg2" />
  <defs
     id="defs4">
    <linearGradient
       id="0"
       y1="546.8"
       x2="0"
       y2="507.87"
       gradientUnits="userSpaceOnUse"
       gradientTransform="matrix(-0.55334921,0,0,0.65338776,242.23304,-308.96661)">
      <stop
         stop-color="#d3d3d3"
         id="stop7" />
      <stop
         offset="1"
         stop-color="#fcf9f9"
         id="stop9" />
    </linearGradient>
    <linearGradient
       id="1"
       x1="42.92"
       y1="26.02"
       x2="42.895"
       y2="2.332"
       gradientUnits="userSpaceOnUse"
       gradientTransform="matrix(1.71427,0,0,1.8590143,-49.21,-3.4376088)">
      <stop
         stop-color="#dc3c30"
         id="stop12" />
      <stop
         offset="1"
         stop-color="#ff786d"
         id="stop14" />
    </linearGradient>
  </defs>
  <path
     inkscape:connector-curvature="0"
     style="fill:#ff5555"
     id="path18"
     d="M 40.924602,6.8985107 C 36.39893,2.903489 30.390413,0.70427506 24.004757,0.70427506 c -6.385655,0 -12.395886,2.19921394 -16.9198445,6.19423564 -4.565101,4.0284843 -7.07993507,9.3991763 -7.07993507,15.1193633 0,5.459925 2.29197897,10.6001 6.46965497,14.5598 -0.075428,0.184042 -0.1354273,0.37738 -0.1731413,0.580012 l -1.3731302,7.322658 c -0.1628557,0.870018 0.056571,1.388683 0.2691404,1.671254 0.2451406,0.325327 0.6102801,0.505652 1.0251334,0.505652 0.3137114,0 0.6514226,-0.100387 1.002848,-0.299302 l 7.9850693,-4.498814 c 2.765118,0.964828 5.735948,1.47048 8.794205,1.47048 6.385656,0 12.394173,-2.199214 16.92156,-6.194236 4.565101,-4.028484 7.079935,-9.397317 7.079935,-15.119363 0,-5.722046 -2.514834,-11.090879 -7.078221,-15.1193633" />
  <path
     inkscape:connector-curvature="0"
     style="fill:#ffd5d5"
     id="path20"
     d="m 27.210442,26.07982 c 2.262837,-2.175046 5.267952,-3.372252 8.459923,-3.372252 3.193685,0 6.197086,1.197206 8.459922,3.372252 2.281694,2.193637 3.539968,5.116008 3.539968,8.231716 0,2.972563 -1.145133,5.77038 -3.234828,7.926837 0.03771,0.100386 0.06686,0.204491 0.08743,0.316032 l 0.685708,3.985727 c 0.08228,0.474048 -0.02743,0.756618 -0.133713,0.909058 -0.123427,0.176606 -0.30514,0.275134 -0.512567,0.275134 -0.157713,0 -0.325711,-0.05391 -0.500567,-0.161734 l -3.992534,-2.448322 c -1.381702,0.526101 -2.867974,0.801235 -4.397103,0.801235 -3.193685,0 -6.197086,-1.197205 -8.459922,-3.372252 -2.281694,-2.193637 -3.539968,-5.116007 -3.539968,-8.231715 0,-3.113849 1.25656,-6.038079 3.539968,-8.231716" />
</svg>
