<?xml version="1.0" encoding="UTF-8" standalone="no"?>
<svg
   xmlns:dc="http://purl.org/dc/elements/1.1/"
   xmlns:cc="http://creativecommons.org/ns#"
   xmlns:rdf="http://www.w3.org/1999/02/22-rdf-syntax-ns#"
   xmlns:svg="http://www.w3.org/2000/svg"
   xmlns="http://www.w3.org/2000/svg"
   xmlns:sodipodi="http://sodipodi.sourceforge.net/DTD/sodipodi-0.dtd"
   xmlns:inkscape="http://www.inkscape.org/namespaces/inkscape"
   viewBox="0 0 48 48"
   id="svg2"
   version="1.1"
   inkscape:version="0.91 r13725"
   sodipodi:docname="i2prouter.svg">
  <metadata
     id="metadata40">
    <rdf:RDF>
      <cc:Work
         rdf:about="">
        <dc:format>image/svg+xml</dc:format>
        <dc:type
           rdf:resource="http://purl.org/dc/dcmitype/StillImage" />
        <dc:title></dc:title>
      </cc:Work>
    </rdf:RDF>
  </metadata>
  <sodipodi:namedview
     pagecolor="#ffffff"
     bordercolor="#666666"
     borderopacity="1"
     objecttolerance="10"
     gridtolerance="10"
     guidetolerance="10"
     inkscape:pageopacity="0"
     inkscape:pageshadow="2"
     inkscape:window-width="1280"
     inkscape:window-height="694"
     id="namedview38"
     showgrid="false"
     inkscape:zoom="4.9166667"
     inkscape:cx="-6.4067797"
     inkscape:cy="24"
     inkscape:window-x="0"
     inkscape:window-y="0"
     inkscape:window-maximized="1"
     inkscape:current-layer="svg2" />
  <defs
     id="defs4">
    <linearGradient
       id="3"
       x1="36.22"
       y1="39.864"
       x2="36.1"
       y2="7.729"
       gradientUnits="userSpaceOnUse"
       gradientTransform="matrix(1.0000159,0,0,1.0000159,-0.0083977,-0.00295119)">
      <stop
         stop-color="#4fd127"
         id="stop7" />
      <stop
         stop-color="#c6f61a"
         offset="1"
         id="stop9" />
    </linearGradient>
    <linearGradient
       id="2"
       x1="23.954"
       y1="41.08"
       x2="23.842"
       y2="8.339"
       gradientUnits="userSpaceOnUse"
       gradientTransform="matrix(1.0000159,0,0,1.0000159,-0.0083977,-0.00295119)">
      <stop
         stop-color="#ff9300"
         id="stop12" />
      <stop
         stop-color="#ffd702"
         offset="1"
         id="stop14" />
    </linearGradient>
    <linearGradient
       id="0"
       x1="45.789"
       y1="56.53"
       x2="45.585"
       y2="7.715"
       gradientUnits="userSpaceOnUse"
       gradientTransform="translate(-19.348,-8.325)">
      <stop
         stop-color="#141414"
         id="stop17" />
      <stop
         stop-color="#2d2d2f"
         offset="1"
         id="stop19" />
    </linearGradient>
    <linearGradient
       id="1"
       x1="11.898"
       y1="40.678"
       x2="11.378"
       y2="6.712"
       gradientUnits="userSpaceOnUse"
       gradientTransform="matrix(1.0000159,0,0,1.0000159,-0.0083977,-0.00295119)">
      <stop
         stop-color="#e02d2d"
         id="stop22" />
      <stop
         offset="1"
         stop-color="#f75151"
         id="stop24" />
    </linearGradient>
  </defs>
  <g
     id="g4176"
     transform="matrix(1.3107295,0,0,1.4703314,-7.3533227,-11.286747)">
    <path
       inkscape:connector-curvature="0"
       style="fill:#ff5555"
       id="path32"
       d="M 8.6577561,7.997176 A 2.6667084,2.6667084 0 0 0 5.9916977,10.663234 2.6667084,2.6667084 0 0 0 8.6577561,13.331245 2.6667084,2.6667084 0 0 0 11.325767,10.663234 2.6667084,2.6667084 0 0 0 8.6577561,7.997176 m 2.6680109,2.666058 a 2.6667084,2.6667084 0 0 0 2.666058,2.668011 2.6667084,2.6667084 0 0 0 2.666058,-2.668011 2.6667084,2.6667084 0 0 0 -2.666058,-2.666058 2.6667084,2.6667084 0 0 0 -2.666058,2.666058 m 2.666058,2.668011 a 2.6667084,2.6667084 0 0 0 -2.666058,2.666058 2.6667084,2.6667084 0 0 0 2.666058,2.666059 2.6667084,2.6667084 0 0 0 2.666058,-2.666059 2.6667084,2.6667084 0 0 0 -2.666058,-2.666058 m 0,5.332117 a 2.6667084,2.6667084 0 0 0 -2.666058,2.66801 2.6667084,2.6667084 0 0 0 2.666058,2.666058 2.6667084,2.6667084 0 0 0 2.666058,-2.666058 2.6667084,2.6667084 0 0 0 -2.666058,-2.66801 m 0,5.334068 a 2.6667084,2.6667084 0 0 0 -2.666058,2.666059 2.6667084,2.6667084 0 0 0 2.666058,2.66801 2.6667084,2.6667084 0 0 0 2.666058,-2.66801 2.6667084,2.6667084 0 0 0 -2.666058,-2.666059 m 0,5.334069 a 2.6667084,2.6667084 0 0 0 -2.666058,2.666059 2.6667084,2.6667084 0 0 0 2.666058,2.666058 2.6667084,2.6667084 0 0 0 2.666058,-2.666058 2.6667084,2.6667084 0 0 0 -2.666058,-2.666059 m 0,5.332117 a 2.6667084,2.6667084 0 0 0 -2.666058,2.668006 2.6667084,2.6667084 0 0 0 2.666058,2.666063 2.6667084,2.6667084 0 0 0 2.666058,-2.666063 2.6667084,2.6667084 0 0 0 -2.666058,-2.668006 m -2.666058,2.668006 A 2.6667084,2.6667084 0 0 0 8.6577561,34.663616 2.6667084,2.6667084 0 0 0 5.9916977,37.331622 2.6667084,2.6667084 0 0 0 8.6577561,39.997685 2.6667084,2.6667084 0 0 0 11.325767,37.331622 M 8.6577561,34.663616 a 2.6667084,2.6667084 0 0 0 2.6680109,-2.666058 2.6667084,2.6667084 0 0 0 -2.6680109,-2.666059 2.6667084,2.6667084 0 0 0 -2.6660584,2.666059 2.6667084,2.6667084 0 0 0 2.6660584,2.666058 m 0,-5.332117 a 2.6667084,2.6667084 0 0 0 2.6680109,-2.66801 2.6667084,2.6667084 0 0 0 -2.6680109,-2.666059 2.6667084,2.6667084 0 0 0 -2.6660584,2.666059 2.6667084,2.6667084 0 0 0 2.6660584,2.66801 m 0,-5.334069 a 2.6667084,2.6667084 0 0 0 2.6680109,-2.666058 2.6667084,2.6667084 0 0 0 -2.6680109,-2.66801 2.6667084,2.6667084 0 0 0 -2.6660584,2.66801 2.6667084,2.6667084 0 0 0 2.6660584,2.666058 m 0,-5.334068 a 2.6667084,2.6667084 0 0 0 2.6680109,-2.666059 2.6667084,2.6667084 0 0 0 -2.6680109,-2.666058 2.6667084,2.6667084 0 0 0 -2.6660584,2.666058 2.6667084,2.6667084 0 0 0 2.6660584,2.666059" />
    <path
       inkscape:connector-curvature="0"
       style="fill:#ffdd55"
       id="path34"
       d="m 21.325926,7.997176 a 2.6667084,2.6667084 0 0 0 -2.668011,2.666058 2.6667084,2.6667084 0 0 0 2.668011,2.668011 2.6667084,2.6667084 0 0 0 2.666058,-2.668011 2.6667084,2.6667084 0 0 0 -2.666058,-2.666058 m 2.666058,2.666058 a 2.6667084,2.6667084 0 0 0 2.666058,2.668011 2.6667084,2.6667084 0 0 0 2.668011,-2.668011 2.6667084,2.6667084 0 0 0 -2.668011,-2.666058 2.6667084,2.6667084 0 0 0 -2.666058,2.666058 m 2.666058,2.668011 a 2.6667084,2.6667084 0 0 0 -2.666058,2.666058 2.6667084,2.6667084 0 0 0 2.666058,2.666059 2.6667084,2.6667084 0 0 0 2.668011,-2.666059 2.6667084,2.6667084 0 0 0 -2.668011,-2.666058 m 0,5.332117 a 2.6667084,2.6667084 0 0 0 -2.666058,2.66801 2.6667084,2.6667084 0 0 0 2.666058,2.666058 2.6667084,2.6667084 0 0 0 2.668011,-2.666058 2.6667084,2.6667084 0 0 0 -2.668011,-2.66801 m 0,5.334068 a 2.6667084,2.6667084 0 0 0 -2.666058,2.666059 2.6667084,2.6667084 0 0 0 2.666058,2.66801 2.6667084,2.6667084 0 0 0 2.668011,-2.66801 2.6667084,2.6667084 0 0 0 -2.668011,-2.666059 m 0,5.334069 a 2.6667084,2.6667084 0 0 0 -2.666058,2.666059 2.6667084,2.6667084 0 0 0 2.666058,2.666058 2.6667084,2.6667084 0 0 0 2.668011,-2.666058 2.6667084,2.6667084 0 0 0 -2.668011,-2.666059 m 0,5.332117 a 2.6667084,2.6667084 0 0 0 -2.666058,2.668006 2.6667084,2.6667084 0 0 0 2.666058,2.666063 2.6667084,2.6667084 0 0 0 2.668011,-2.666063 2.6667084,2.6667084 0 0 0 -2.668011,-2.668006 m -2.666058,2.668006 a 2.6667084,2.6667084 0 0 0 -2.666058,-2.668006 2.6667084,2.6667084 0 0 0 -2.668011,2.668006 2.6667084,2.6667084 0 0 0 2.668011,2.666063 2.6667084,2.6667084 0 0 0 2.666058,-2.666063 m -2.666058,-2.668006 a 2.6667084,2.6667084 0 0 0 2.666058,-2.666058 2.6667084,2.6667084 0 0 0 -2.666058,-2.666059 2.6667084,2.6667084 0 0 0 -2.668011,2.666059 2.6667084,2.6667084 0 0 0 2.668011,2.666058 m 0,-5.332117 a 2.6667084,2.6667084 0 0 0 2.666058,-2.66801 2.6667084,2.6667084 0 0 0 -2.666058,-2.666059 2.6667084,2.6667084 0 0 0 -2.668011,2.666059 2.6667084,2.6667084 0 0 0 2.668011,2.66801 m 0,-5.334069 a 2.6667084,2.6667084 0 0 0 2.666058,-2.666058 2.6667084,2.6667084 0 0 0 -2.666058,-2.66801 2.6667084,2.6667084 0 0 0 -2.668011,2.66801 2.6667084,2.6667084 0 0 0 2.668011,2.666058 m 0,-5.334068 a 2.6667084,2.6667084 0 0 0 2.666058,-2.666059 2.6667084,2.6667084 0 0 0 -2.666058,-2.666058 2.6667084,2.6667084 0 0 0 -2.668011,2.666058 2.6667084,2.6667084 0 0 0 2.668011,2.666059" />
    <path
       inkscape:connector-curvature="0"
       style="fill:#bcd35f"
       id="path36"
       d="m 33.992143,7.997176 a 2.6667084,2.6667084 0 0 0 -2.666062,2.666058 2.6667084,2.6667084 0 0 0 2.666062,2.668011 2.6667084,2.6667084 0 0 0 2.666058,-2.668011 2.6667084,2.6667084 0 0 0 -2.666058,-2.666058 m 2.666058,2.666058 a 2.6667084,2.6667084 0 0 0 2.668007,2.668011 2.6667084,2.6667084 0 0 0 2.666062,-2.668011 2.6667084,2.6667084 0 0 0 -2.666062,-2.666058 2.6667084,2.6667084 0 0 0 -2.668007,2.666058 m 2.668007,2.668011 a 2.6667084,2.6667084 0 0 0 -2.668007,2.666058 2.6667084,2.6667084 0 0 0 2.668007,2.666059 2.6667084,2.6667084 0 0 0 2.666062,-2.666059 2.6667084,2.6667084 0 0 0 -2.666062,-2.666058 m 0,5.332117 a 2.6667084,2.6667084 0 0 0 -2.668007,2.66801 2.6667084,2.6667084 0 0 0 2.668007,2.666058 2.6667084,2.6667084 0 0 0 2.666062,-2.666058 2.6667084,2.6667084 0 0 0 -2.666062,-2.66801 m 0,5.334068 a 2.6667084,2.6667084 0 0 0 -2.668007,2.666059 2.6667084,2.6667084 0 0 0 2.668007,2.66801 2.6667084,2.6667084 0 0 0 2.666062,-2.66801 2.6667084,2.6667084 0 0 0 -2.666062,-2.666059 m 0,5.334069 a 2.6667084,2.6667084 0 0 0 -2.668007,2.666059 2.6667084,2.6667084 0 0 0 2.668007,2.666058 2.6667084,2.6667084 0 0 0 2.666062,-2.666058 2.6667084,2.6667084 0 0 0 -2.666062,-2.666059 m 0,5.332117 a 2.6667084,2.6667084 0 0 0 -2.668007,2.668006 2.6667084,2.6667084 0 0 0 2.668007,2.666063 2.6667084,2.6667084 0 0 0 2.666062,-2.666063 2.6667084,2.6667084 0 0 0 -2.666062,-2.668006 m -2.668007,2.668006 a 2.6667084,2.6667084 0 0 0 -2.666058,-2.668006 2.6667084,2.6667084 0 0 0 -2.666062,2.668006 2.6667084,2.6667084 0 0 0 2.666062,2.666063 2.6667084,2.6667084 0 0 0 2.666058,-2.666063 m -2.666058,-2.668006 a 2.6667084,2.6667084 0 0 0 2.666058,-2.666058 2.6667084,2.6667084 0 0 0 -2.666058,-2.666059 2.6667084,2.6667084 0 0 0 -2.666062,2.666059 2.6667084,2.6667084 0 0 0 2.666062,2.666058 m 0,-5.332117 a 2.6667084,2.6667084 0 0 0 2.666058,-2.66801 2.6667084,2.6667084 0 0 0 -2.666058,-2.666059 2.6667084,2.6667084 0 0 0 -2.666062,2.666059 2.6667084,2.6667084 0 0 0 2.666062,2.66801 m 0,-5.334069 a 2.6667084,2.6667084 0 0 0 2.666058,-2.666058 2.6667084,2.6667084 0 0 0 -2.666058,-2.66801 2.6667084,2.6667084 0 0 0 -2.666062,2.66801 2.6667084,2.6667084 0 0 0 2.666062,2.666058 m 0,-5.334068 a 2.6667084,2.6667084 0 0 0 2.666058,-2.666059 2.6667084,2.6667084 0 0 0 -2.666058,-2.666058 2.6667084,2.6667084 0 0 0 -2.666062,2.666058 2.6667084,2.6667084 0 0 0 2.666062,2.666059" />
  </g>
</svg>
