<?xml version="1.0" encoding="UTF-8" standalone="no"?>
<svg
   xmlns:dc="http://purl.org/dc/elements/1.1/"
   xmlns:cc="http://creativecommons.org/ns#"
   xmlns:rdf="http://www.w3.org/1999/02/22-rdf-syntax-ns#"
   xmlns:svg="http://www.w3.org/2000/svg"
   xmlns="http://www.w3.org/2000/svg"
   xmlns:sodipodi="http://sodipodi.sourceforge.net/DTD/sodipodi-0.dtd"
   xmlns:inkscape="http://www.inkscape.org/namespaces/inkscape"
   viewBox="0 0 48 48"
   id="svg2"
   version="1.1"
   inkscape:version="0.91 r13725"
   sodipodi:docname="kleopatra.svg">
  <metadata
     id="metadata17">
    <rdf:RDF>
      <cc:Work
         rdf:about="">
        <dc:format>image/svg+xml</dc:format>
        <dc:type
           rdf:resource="http://purl.org/dc/dcmitype/StillImage" />
        <dc:title></dc:title>
      </cc:Work>
    </rdf:RDF>
  </metadata>
  <sodipodi:namedview
     pagecolor="#ffffff"
     bordercolor="#666666"
     borderopacity="1"
     objecttolerance="10"
     gridtolerance="10"
     guidetolerance="10"
     inkscape:pageopacity="0"
     inkscape:pageshadow="2"
     inkscape:window-width="1280"
     inkscape:window-height="694"
     id="namedview15"
     showgrid="false"
     inkscape:zoom="4.9166667"
     inkscape:cx="-9.1525424"
     inkscape:cy="24"
     inkscape:window-x="0"
     inkscape:window-y="0"
     inkscape:window-maximized="1"
     inkscape:current-layer="svg2" />
  <defs
     id="defs4">
    <linearGradient
       id="0"
       gradientUnits="userSpaceOnUse"
       gradientTransform="matrix(.49433 0 0 .4778 86.64 13.1)"
       x1="-123.97"
       y1="73.5"
       x2="-125.19"
       y2="-26.05">
      <stop
         stop-color="#c52828"
         id="stop7" />
      <stop
         offset="1"
         stop-color="#ff5454"
         id="stop9" />
    </linearGradient>
  </defs>
  <path
     d="M 23.883351,4.875294 6.1182326,27.317599 C 2.7874869,31.524158 3.7190692,39.019573 7.9813948,42.306739 12.247147,45.593906 19.838508,44.672823 23.172678,40.466264 L 40.937795,18.023959 43.157151,15.21677 C 45.379931,12.409581 44.756594,7.4137638 41.913901,5.2234463 39.071208,3.0297487 34.007447,3.6466204 31.788092,6.4504298 l -2.222781,2.8071893 -13.324694,16.8329959 -2.22278,2.80719 c -1.111391,1.402749 -0.799722,3.898967 0.619912,4.995817 1.423058,1.096848 3.954083,0.789257 5.065474,-0.613492 L 35.252409,13.645015 38.095103,15.838712 22.545915,35.473828 C 20.323134,38.281017 15.262799,38.892819 12.420106,36.700811 9.5774136,34.507113 8.9540763,29.511296 11.176857,26.707487 L 13.399636,23.900298 28.948824,4.2651823 c 3.330745,-4.20655889 10.92553,-5.12595145 15.191281,-1.8404751 4.265753,3.2871663 5.197334,10.7825818 1.866588,14.9891398 l -2.22278,2.807191 -17.765118,22.442304 C 21.57666,48.272651 11.450851,49.499634 5.7671776,45.117309 0.08179174,40.734984 -1.1614582,30.74166 3.2806769,25.128971 L 21.045795,2.6866665 23.888487,4.8803641"
     id="path13"
     style="fill:#c83737;fill-opacity:0.85500004"
     inkscape:connector-curvature="0" />
</svg>
