<?xml version="1.0" encoding="UTF-8" standalone="no"?>
<svg
   xmlns:dc="http://purl.org/dc/elements/1.1/"
   xmlns:cc="http://creativecommons.org/ns#"
   xmlns:rdf="http://www.w3.org/1999/02/22-rdf-syntax-ns#"
   xmlns:svg="http://www.w3.org/2000/svg"
   xmlns="http://www.w3.org/2000/svg"
   xmlns:sodipodi="http://sodipodi.sourceforge.net/DTD/sodipodi-0.dtd"
   xmlns:inkscape="http://www.inkscape.org/namespaces/inkscape"
   viewBox="0 0 48 48"
   id="svg2"
   version="1.1"
   inkscape:version="0.91 r13725"
   sodipodi:docname="kmag.svg">
  <metadata
     id="metadata19">
    <rdf:RDF>
      <cc:Work
         rdf:about="">
        <dc:format>image/svg+xml</dc:format>
        <dc:type
           rdf:resource="http://purl.org/dc/dcmitype/StillImage" />
        <dc:title></dc:title>
      </cc:Work>
    </rdf:RDF>
  </metadata>
  <sodipodi:namedview
     pagecolor="#ffffff"
     bordercolor="#666666"
     borderopacity="1"
     objecttolerance="10"
     gridtolerance="10"
     guidetolerance="10"
     inkscape:pageopacity="0"
     inkscape:pageshadow="2"
     inkscape:window-width="1280"
     inkscape:window-height="694"
     id="namedview17"
     showgrid="false"
     inkscape:zoom="4.9166667"
     inkscape:cx="-9.1525424"
     inkscape:cy="24"
     inkscape:window-x="0"
     inkscape:window-y="0"
     inkscape:window-maximized="1"
     inkscape:current-layer="svg2" />
  <defs
     id="defs4">
    <linearGradient
       id="0"
       y1="542.8"
       x2="0"
       y2="507.8"
       gradientUnits="userSpaceOnUse"
       gradientTransform="matrix(1.0908991,0,0,1.0652693,-421.70697,-535.04244)">
      <stop
         stop-color="#00a661"
         id="stop7" />
      <stop
         offset="1"
         stop-color="#37ce97"
         id="stop9" />
    </linearGradient>
  </defs>
  <path
     style="opacity:0.72100004;fill:#165016;fill-opacity:1"
     inkscape:connector-curvature="0"
     id="path15"
     d="m 46.600941,41.455796 -9.70552,-9.74745 c 2.33882,-3.390007 3.509406,-7.171892 3.509406,-11.338581 0,-2.710115 -0.524178,-5.299835 -1.570182,-7.771519 C 37.788638,10.126565 36.373592,7.9948265 34.589507,6.2053927 32.807771,4.4159613 30.685202,2.9948025 28.224153,1.9419164 25.760751,0.89139342 23.18217,0.36495036 20.483713,0.36495036 c -2.698461,0 -5.27704,0.52644306 -7.738089,1.57696604 C 10.284572,2.9924418 8.162003,4.4136006 6.3802685,6.2053927 4.5985326,7.9948265 3.1834875,10.126565 2.1351319,12.598246 1.0891264,15.06993 0.56494719,17.662011 0.56494719,20.369765 c 0,2.710118 0.52417921,5.299838 1.57018471,7.771519 1.0460042,2.471684 2.4610506,4.603423 4.2451366,6.392854 1.7817345,1.791794 3.9043035,3.210592 6.3653555,4.263477 2.461049,1.050525 5.04198,1.576965 7.738089,1.576965 4.151113,0 7.914382,-1.175643 11.289807,-3.524567 l 9.705519,9.719121 c 0.679315,0.720021 1.527874,1.078854 2.545673,1.078854 0.980188,0 1.831097,-0.358833 2.545671,-1.078854 0.716926,-0.720023 1.074212,-1.572245 1.074212,-2.556669 0,-1.003311 -0.347885,-1.855533 -1.046004,-2.556669 M 29.43705,29.364143 c -2.479857,2.49057 -5.465085,3.737032 -8.955688,3.737032 -3.490601,0 -6.473481,-1.246462 -8.955687,-3.737032 -2.4798564,-2.490569 -3.7209584,-5.488695 -3.7209584,-8.994378 0,-3.505681 1.241102,-6.503806 3.7209584,-8.994377 2.479854,-2.4905673 5.465086,-3.7370328 8.955687,-3.7370328 3.490603,0 6.47348,1.2464655 8.955688,3.7370328 2.479854,2.490571 3.720957,5.488696 3.720957,8.994377 0,3.505683 -1.241103,6.501449 -3.720957,8.994378" />
</svg>
