<?xml version="1.0" encoding="UTF-8" standalone="no"?>
<svg
   xmlns:dc="http://purl.org/dc/elements/1.1/"
   xmlns:cc="http://creativecommons.org/ns#"
   xmlns:rdf="http://www.w3.org/1999/02/22-rdf-syntax-ns#"
   xmlns:svg="http://www.w3.org/2000/svg"
   xmlns="http://www.w3.org/2000/svg"
   xmlns:sodipodi="http://sodipodi.sourceforge.net/DTD/sodipodi-0.dtd"
   xmlns:inkscape="http://www.inkscape.org/namespaces/inkscape"
   viewBox="0 0 48 48"
   id="svg2"
   version="1.1"
   inkscape:version="0.91 r13725"
   sodipodi:docname="konstruktor.svg">
  <metadata
     id="metadata37">
    <rdf:RDF>
      <cc:Work
         rdf:about="">
        <dc:format>image/svg+xml</dc:format>
        <dc:type
           rdf:resource="http://purl.org/dc/dcmitype/StillImage" />
        <dc:title></dc:title>
      </cc:Work>
    </rdf:RDF>
  </metadata>
  <sodipodi:namedview
     pagecolor="#ffffff"
     bordercolor="#666666"
     borderopacity="1"
     objecttolerance="10"
     gridtolerance="10"
     guidetolerance="10"
     inkscape:pageopacity="0"
     inkscape:pageshadow="2"
     inkscape:window-width="1280"
     inkscape:window-height="694"
     id="namedview35"
     showgrid="false"
     inkscape:zoom="4.9166667"
     inkscape:cx="-10.118414"
     inkscape:cy="24"
     inkscape:window-x="0"
     inkscape:window-y="0"
     inkscape:window-maximized="1"
     inkscape:current-layer="svg2" />
  <defs
     id="defs4">
    <linearGradient
       id="0"
       x1="-26.21"
       y1="59.52"
       x2="-27.529"
       y2="34.05"
       gradientUnits="userSpaceOnUse"
       gradientTransform="matrix(0.80031,-0.01103,0.01103,0.80031,31.33,-2.991)">
      <stop
         stop-color="#d5dbff"
         id="stop7" />
      <stop
         offset="1"
         stop-color="#f9ffff"
         id="stop9" />
    </linearGradient>
    <linearGradient
       id="1"
       x1="556.45"
       y1="468.21"
       x2="555.31"
       y2="419.6"
       gradientUnits="userSpaceOnUse"
       gradientTransform="matrix(0.52892953,0,0,0.52892953,-310.77859,-223.12708)">
      <stop
         stop-color="#566069"
         id="stop12" />
      <stop
         offset="1"
         stop-color="#6c7884"
         id="stop14" />
    </linearGradient>
    <linearGradient
       id="2"
       x1="-109.5"
       y1="31.556"
       x2="-109.61"
       y2="1.264"
       gradientUnits="userSpaceOnUse"
       gradientTransform="matrix(0.99999624,0,0,0.99999624,80.189713,6.7573466)">
      <stop
         stop-color="#1365f4"
         id="stop17" />
      <stop
         offset="1"
         stop-color="#05b2fc"
         id="stop19" />
    </linearGradient>
  </defs>
  <g
     id="g29"
     style="fill:#2a7fff"
     transform="matrix(1.8897765,0,0,1.9210873,-28.158398,-30.194831)">
    <path
       d="m 39.921,31.491 -2.553,-2.554 c -0.243,-0.243 -0.167,-0.503 0.168,-0.578 0,0 0.277,-0.062 0.618,-0.404 0.732,-0.732 0.732,-1.92 0,-2.651 -0.733,-0.732 -1.919,-0.732 -2.651,0 -0.341,0.341 -0.403,0.618 -0.403,0.618 -0.075,0.336 -0.336,0.411 -0.578,0.167 l -2.553,-2.552 c -0.243,-0.243 -0.641,-0.243 -0.884,0 l -2.553,2.553 c -0.243,0.244 -0.167,0.504 0.168,0.579 0,0 0.277,0.062 0.618,0.403 0.731,0.732 0.732,1.919 0,2.652 -0.732,0.732 -1.92,0.731 -2.651,0 -0.341,-0.341 -0.403,-0.618 -0.403,-0.618 -0.075,-0.336 -0.336,-0.411 -0.579,-0.168 l -2.553,2.553 c -0.243,0.243 -0.243,0.64 0,0.883 l 2.553,2.553 c 0.243,0.243 0.167,0.503 -0.168,0.579 0,0 -0.277,0.062 -0.618,0.404 -0.732,0.732 -0.732,1.919 0,2.651 0.732,0.731 1.919,0.732 2.651,0 0.341,-0.341 0.403,-0.618 0.403,-0.618 0.075,-0.336 0.336,-0.411 0.578,-0.167 l 2.553,2.552 c 0.243,0.243 0.641,0.243 0.884,0 l 2.554,-2.553 c 0.243,-0.243 0.167,-0.504 -0.168,-0.579 0,0 -0.278,-0.062 -0.618,-0.403 -0.733,-0.732 -0.732,-1.919 0,-2.652 0.732,-0.732 1.919,-0.732 2.651,0 0.341,0.341 0.403,0.618 0.403,0.618 0.075,0.336 0.336,0.411 0.579,0.168 l 2.553,-2.554 c 0.243,-0.243 0.243,-0.64 0,-0.883"
       id="path31"
       style="fill:#2a7fff"
       inkscape:connector-curvature="0" />
    <path
       d="m 20.532,16.15 -1.681,1.93 c -0.16,0.184 -0.347,0.143 -0.417,-0.09 0,0 -0.058,-0.193 -0.315,-0.417 -0.553,-0.482 -1.393,-0.423 -1.874,0.129 -0.482,0.554 -0.424,1.392 0.129,1.874 0.258,0.225 0.456,0.255 0.456,0.255 0.241,0.037 0.307,0.217 0.147,0.401 l -1.68,1.93 c -0.16,0.184 -0.141,0.465 0.043,0.625 l 1.929,1.68 c 0.184,0.16 0.364,0.094 0.401,-0.147 0,0 0.031,-0.199 0.255,-0.456 0.482,-0.553 1.321,-0.611 1.875,-0.129 0.553,0.482 0.611,1.322 0.129,1.874 -0.225,0.258 -0.417,0.315 -0.417,0.315 -0.234,0.069 -0.274,0.257 -0.09,0.417 l 1.93,1.68 c 0.184,0.16 0.464,0.14 0.624,-0.043 l 1.681,-1.929 c 0.16,-0.184 0.348,-0.143 0.417,0.09 0,0 0.058,0.193 0.315,0.417 0.553,0.482 1.392,0.424 1.874,-0.129 0.481,-0.553 0.424,-1.392 -0.129,-1.874 -0.258,-0.225 -0.456,-0.255 -0.456,-0.255 -0.241,-0.037 -0.307,-0.217 -0.147,-0.401 l 1.68,-1.93 c 0.16,-0.184 0.141,-0.465 -0.043,-0.625 l -1.929,-1.681 c -0.184,-0.16 -0.364,-0.094 -0.401,0.147 0,0 -0.031,0.199 -0.255,0.457 -0.482,0.554 -1.321,0.611 -1.875,0.129 -0.553,-0.482 -0.611,-1.321 -0.129,-1.874 0.224,-0.258 0.417,-0.315 0.417,-0.315 0.234,-0.07 0.274,-0.257 0.091,-0.417 l -1.93,-1.68 c -0.184,-0.16 -0.464,-0.14 -0.624,0.043"
       id="path33"
       style="fill:#2a7fff"
       inkscape:connector-curvature="0" />
  </g>
  <path
     inkscape:connector-curvature="0"
     style="fill:#d5e5ff;fill-opacity:1"
     id="path27"
     d="M 35.834121,24.669289 A 11.585162,11.48358 0 0 0 24.40903,36.310568 11.585162,11.48358 0 0 0 36.153286,47.633014 11.585162,11.48358 0 0 0 47.578378,35.994204 11.585162,11.48358 0 0 0 35.834121,24.669289 m -3.411238,6.683465 8.532336,4.656674 -8.333422,4.997739 -0.1998,-9.654401" />
</svg>
