<?xml version="1.0" encoding="UTF-8" standalone="no"?>
<svg
   xmlns:dc="http://purl.org/dc/elements/1.1/"
   xmlns:cc="http://creativecommons.org/ns#"
   xmlns:rdf="http://www.w3.org/1999/02/22-rdf-syntax-ns#"
   xmlns:svg="http://www.w3.org/2000/svg"
   xmlns="http://www.w3.org/2000/svg"
   xmlns:sodipodi="http://sodipodi.sourceforge.net/DTD/sodipodi-0.dtd"
   xmlns:inkscape="http://www.inkscape.org/namespaces/inkscape"
   viewBox="0 0 48 48"
   id="svg2"
   version="1.1"
   inkscape:version="0.91 r13725"
   sodipodi:docname="Launchpad-launchpad.net.svg">
  <metadata
     id="metadata19">
    <rdf:RDF>
      <cc:Work
         rdf:about="">
        <dc:format>image/svg+xml</dc:format>
        <dc:type
           rdf:resource="http://purl.org/dc/dcmitype/StillImage" />
        <dc:title></dc:title>
      </cc:Work>
    </rdf:RDF>
  </metadata>
  <sodipodi:namedview
     pagecolor="#ffffff"
     bordercolor="#666666"
     borderopacity="1"
     objecttolerance="10"
     gridtolerance="10"
     guidetolerance="10"
     inkscape:pageopacity="0"
     inkscape:pageshadow="2"
     inkscape:window-width="1280"
     inkscape:window-height="694"
     id="namedview17"
     showgrid="false"
     inkscape:zoom="4.9166667"
     inkscape:cx="-9.1525424"
     inkscape:cy="24"
     inkscape:window-x="0"
     inkscape:window-y="0"
     inkscape:window-maximized="1"
     inkscape:current-layer="svg2" />
  <defs
     id="defs4">
    <linearGradient
       id="0"
       gradientUnits="userSpaceOnUse"
       x1="400.51"
       y1="546.07"
       x2="400.7"
       y2="517.77">
      <stop
         stop-color="#197ff1"
         id="stop7" />
      <stop
         offset="1"
         stop-color="#21c6fb"
         id="stop9" />
    </linearGradient>
  </defs>
  <circle
     cx="400.57"
     cy="531.8"
     r="14"
     transform="matrix(1.71434 0 0 1.71434-662.72-887.68)"
     fill="#5ea5fb"
     fill-opacity="0"
     id="circle13" />
  <path
     d="M 22.14995,0.46750167 2.3501696,10.635777 l 9.5705104,4.91056 10.228035,-5.243157 0,-9.83567833 m 4.122795,0 0,9.83567833 10.218168,5.257715 9.572977,-4.91056 L 26.275212,0.47086124 m -2.065099,11.72823176 -11.481404,5.894912 -0.0048,11.797662 11.476471,5.902751 11.481404,-5.894912 0.0048,-11.797663 -11.47647,-5.90275 m -23.91887432,1.620429 -0.007403,20.33655 9.57297759,-4.910561 0,-10.518789 -9.56557584,-4.910559 m 47.83404824,0.01568 -9.570511,4.91056 0,10.51655 9.563109,4.91056 0.0075,-20.33655 m -36.209548,18.585099 -9.5729774,4.919519 19.7997794,10.179473 0,-9.835679 -10.228035,-5.266674 m 24.568996,0.01568 -10.220633,5.243157 0,9.835679 L 46.050369,37.35214 36.47739,32.434861"
     id="path15"
     style="fill:#5599ff"
     inkscape:connector-curvature="0" />
</svg>
