<?xml version="1.0" encoding="UTF-8" standalone="no"?>
<svg
   xmlns:dc="http://purl.org/dc/elements/1.1/"
   xmlns:cc="http://creativecommons.org/ns#"
   xmlns:rdf="http://www.w3.org/1999/02/22-rdf-syntax-ns#"
   xmlns:svg="http://www.w3.org/2000/svg"
   xmlns="http://www.w3.org/2000/svg"
   xmlns:sodipodi="http://sodipodi.sourceforge.net/DTD/sodipodi-0.dtd"
   xmlns:inkscape="http://www.inkscape.org/namespaces/inkscape"
   viewBox="0 0 48 48"
   id="svg2"
   version="1.1"
   inkscape:version="0.91 r13725"
   sodipodi:docname="linguistic.svg">
  <metadata
     id="metadata19">
    <rdf:RDF>
      <cc:Work
         rdf:about="">
        <dc:format>image/svg+xml</dc:format>
        <dc:type
           rdf:resource="http://purl.org/dc/dcmitype/StillImage" />
        <dc:title></dc:title>
      </cc:Work>
    </rdf:RDF>
  </metadata>
  <sodipodi:namedview
     pagecolor="#ffffff"
     bordercolor="#666666"
     borderopacity="1"
     objecttolerance="10"
     gridtolerance="10"
     guidetolerance="10"
     inkscape:pageopacity="0"
     inkscape:pageshadow="2"
     inkscape:window-width="1280"
     inkscape:window-height="694"
     id="namedview17"
     showgrid="false"
     inkscape:zoom="4.9166667"
     inkscape:cx="-9.1525424"
     inkscape:cy="24"
     inkscape:window-x="0"
     inkscape:window-y="0"
     inkscape:window-maximized="1"
     inkscape:current-layer="svg2" />
  <defs
     id="defs4">
    <linearGradient
       gradientUnits="userSpaceOnUse"
       y2="-12.884"
       x2="57.695"
       y1="27.728"
       x1="57.738"
       id="0"
       gradientTransform="matrix(0.99999,0,0,1.1199869,-33.371,14.805451)">
      <stop
         stop-color="#54b60f"
         id="stop7" />
      <stop
         offset="1"
         stop-color="#92dc41"
         id="stop9" />
    </linearGradient>
  </defs>
  <path
     inkscape:connector-curvature="0"
     style="fill:#71c837"
     id="path13"
     d="M 40.928257,6.5724276 C 36.402302,2.4475161 30.393362,0.1750628 24.007426,0.1750628 17.62149,0.1750628 11.61255,2.4463962 7.0865954,6.5724276 2.5216411,10.733178 0.00766621,16.279354 0.00766621,22.187283 c 0,5.644735 2.29197709,10.946752 6.46893529,15.036945 -0.074999,0.189277 -0.1349986,0.389754 -0.1729983,0.599192 L 4.930617,45.385572 c -0.1629984,0.898229 0.055999,1.434702 0.2689973,1.725899 0.2459975,0.337116 0.6099939,0.521914 1.0259897,0.521914 0.3139969,0 0.6509935,-0.104157 0.99999,-0.307997 l 7.98392,-4.645705 c 2.763973,0.996789 5.735943,1.518702 8.794912,1.518702 6.385936,0 12.394876,-2.271333 16.920831,-6.397364 4.564954,-4.160751 7.078929,-9.705807 7.078929,-15.614857 0,-5.909051 -2.513975,-11.454106 -7.078929,-15.6148564" />
  <path
     style="fill:#e3f4d7;fill-opacity:1;fill-rule:evenodd;stroke-width:1.31700003"
     inkscape:connector-curvature="0"
     id="path15"
     d="m 47.524053,34.288503 c -0.03671,-0.336997 -0.416385,-0.590994 -0.744855,-0.590994 -1.0627,0 -2.005604,-0.645994 -2.400735,-1.643984 -0.403825,-1.022989 -0.143947,-2.215977 0.648247,-2.96697 0.249251,-0.235998 0.2792,-0.630994 0.07052,-0.904991 -0.543908,-0.714993 -1.162207,-1.359986 -1.836538,-1.919981 -0.264708,-0.218997 -0.65211,-0.188998 -0.881074,0.074 -0.690755,0.791992 -1.932181,1.086989 -2.891508,0.671993 -0.997971,-0.434996 -1.627862,-1.481985 -1.566033,-2.604974 0.02029,-0.352997 -0.228963,-0.659993 -0.569027,-0.700993 -0.865617,-0.103999 -1.739929,-0.106999 -2.608444,-0.007 -0.336199,0.038 -0.585451,0.337997 -0.573858,0.686993 0.03768,1.112989 -0.598976,2.140979 -1.587285,2.559975 -0.947736,0.400996 -2.180467,0.108998 -2.870256,-0.675994 -0.227996,-0.258997 -0.609602,-0.289997 -0.875277,-0.076 -0.694619,0.563994 -1.326442,1.209988 -1.875181,1.918981 -0.214472,0.275997 -0.182591,0.674993 0.06956,0.911991 0.806686,0.755992 1.06753,1.95998 0.648246,2.99397 -0.39996,0.98599 -1.389237,1.621984 -2.522461,1.621984 -0.367115,-0.012 -0.629891,0.242997 -0.669501,0.588994 -0.102406,0.901991 -0.103371,1.819981 -0.0048,2.728972 0.03671,0.338997 0.427979,0.589995 0.760314,0.589995 1.009564,-0.027 1.978553,0.619993 2.385277,1.643983 0.405758,1.02299 0.144913,2.214978 -0.648246,2.96697 -0.248286,0.235998 -0.2792,0.629994 -0.07053,0.903991 0.539079,0.709993 1.15641,1.355987 1.83364,1.920981 0.265675,0.221998 0.652112,0.189998 0.88204,-0.072 0.693653,-0.793992 1.932181,-1.087989 2.890543,-0.672993 1.00087,0.432995 1.629794,1.479985 1.568931,2.604974 -0.02029,0.352996 0.229929,0.660993 0.569027,0.700993 0.443436,0.053 0.888803,0.08 1.335136,0.08 0.424114,0 0.848228,-0.024 1.272341,-0.073 0.3362,-0.038 0.585451,-0.337996 0.573858,-0.686993 -0.03864,-1.111989 0.598976,-2.140978 1.586321,-2.558974 0.954497,-0.402996 2.181431,-0.107999 2.87122,0.675993 0.228964,0.257998 0.607671,0.288997 0.875278,0.076 0.693653,-0.562994 1.324509,-1.208988 1.875182,-1.91898 0.213505,-0.274998 0.183557,-0.674994 -0.06956,-0.911991 -0.806684,-0.755993 -1.068496,-1.959981 -0.649212,-2.99397 0.394165,-0.972991 1.34673,-1.626984 2.371752,-1.626984 l 0.142981,0.004 c 0.332336,0.028 0.638585,-0.236998 0.678195,-0.587994 0.102406,-0.901991 0.103372,-1.819982 0.0048,-2.728973 m -11.502273,5.360946 c -2.132162,0 -3.864362,-1.794982 -3.864362,-3.99996 0,-2.206977 1.734132,-3.99996 3.864362,-3.99996 2.132161,0 3.864361,1.795982 3.864361,3.99996 0,2.206978 -1.734132,3.99996 -3.864361,3.99996" />
</svg>
