<?xml version="1.0" encoding="UTF-8" standalone="no"?>
<svg
   xmlns:dc="http://purl.org/dc/elements/1.1/"
   xmlns:cc="http://creativecommons.org/ns#"
   xmlns:rdf="http://www.w3.org/1999/02/22-rdf-syntax-ns#"
   xmlns:svg="http://www.w3.org/2000/svg"
   xmlns="http://www.w3.org/2000/svg"
   xmlns:sodipodi="http://sodipodi.sourceforge.net/DTD/sodipodi-0.dtd"
   xmlns:inkscape="http://www.inkscape.org/namespaces/inkscape"
   viewBox="0 0 48 48"
   id="svg2"
   version="1.1"
   inkscape:version="0.91 r13725"
   sodipodi:docname="meld.svg">
  <metadata
     id="metadata23">
    <rdf:RDF>
      <cc:Work
         rdf:about="">
        <dc:format>image/svg+xml</dc:format>
        <dc:type
           rdf:resource="http://purl.org/dc/dcmitype/StillImage" />
        <dc:title></dc:title>
      </cc:Work>
    </rdf:RDF>
  </metadata>
  <sodipodi:namedview
     pagecolor="#ffffff"
     bordercolor="#666666"
     borderopacity="1"
     objecttolerance="10"
     gridtolerance="10"
     guidetolerance="10"
     inkscape:pageopacity="0"
     inkscape:pageshadow="2"
     inkscape:window-width="1280"
     inkscape:window-height="694"
     id="namedview21"
     showgrid="false"
     inkscape:zoom="4.9166667"
     inkscape:cx="-9.1525424"
     inkscape:cy="24"
     inkscape:window-x="0"
     inkscape:window-y="0"
     inkscape:window-maximized="1"
     inkscape:current-layer="svg2" />
  <defs
     id="defs4">
    <linearGradient
       gradientTransform="matrix(0.43354566,0,0,0.43480565,70.408912,-66.737074)"
       gradientUnits="userSpaceOnUse"
       y2="154.58"
       x2="-111.09"
       y1="260.25"
       x1="-112.53"
       id="0">
      <stop
         stop-color="#197cf1"
         id="stop7" />
      <stop
         offset="1"
         stop-color="#20bcfa"
         id="stop9" />
    </linearGradient>
  </defs>
  <path
     style="fill:#0066ff"
     d="m 29.934431,6.9629485 c -4.461437,0.065684 -9.290449,1.045886 -12.459686,5.7839515 -3.469866,5.18901 -1.802511,11.732113 1.784827,13.549783 3.413024,1.933878 5.54648,-0.43326 4.745645,-2.288824 -0.50147,1.775986 -3.087132,1.697671 -3.684601,-1.15199 -0.572206,-4.202491 2.200403,-7.194888 6.119949,-7.62941 6.618893,-0.722521 11.785165,5.840793 12.314424,12.027689 0.735152,9.774235 -5.103115,17.668906 -13.97041,20.747196 l 21.956028,0 c 0.697257,0 1.263147,-0.56589 1.263147,-1.263147 l 0,-30.631324 C 46.54103,14.447097 44.595783,12.544797 42.655588,11.25386 38.881304,8.7401969 34.394604,6.8909491 29.935694,6.9566327"
     id="path17"
     inkscape:connector-curvature="0" />
  <path
     style="fill:#2a7fff"
     d="m 18.615367,40.355513 c 4.461437,-0.06568 9.534237,-1.631986 12.458423,-6.341 2.925449,-4.582699 1.736828,-10.961593 -1.337673,-13.241574 -3.020186,-2.264823 -6.548156,0.742731 -5.7309,3.229868 0.741468,-1.716617 3.445866,-2.551558 4.21386,0.463575 0.572205,4.202491 -2.211771,7.365412 -6.131318,7.793619 C 15.468867,32.982522 9.6482837,27.480252 9.2529185,20.177997 8.6162922,8.3940945 16.043599,1.4240471 24.005217,0.00300631 l -22.7366532,0 c -0.69725736,0 -1.2631474,0.56589004 -1.2631474,1.26314739 l 0,30.0528033 c 1.4627247,1.659775 3.9258621,3.622706 5.8660565,4.914906 3.7742845,2.5124 8.2824571,4.182281 12.7451571,4.116598"
     id="path19"
     inkscape:connector-curvature="0" />
</svg>
