<?xml version="1.0" encoding="UTF-8" standalone="no"?>
<svg
   xmlns:dc="http://purl.org/dc/elements/1.1/"
   xmlns:cc="http://creativecommons.org/ns#"
   xmlns:rdf="http://www.w3.org/1999/02/22-rdf-syntax-ns#"
   xmlns:svg="http://www.w3.org/2000/svg"
   xmlns="http://www.w3.org/2000/svg"
   xmlns:sodipodi="http://sodipodi.sourceforge.net/DTD/sodipodi-0.dtd"
   xmlns:inkscape="http://www.inkscape.org/namespaces/inkscape"
   viewBox="0 0 48 48"
   id="svg2"
   version="1.1"
   inkscape:version="0.91 r13725"
   sodipodi:docname="swami.svg">
  <metadata
     id="metadata41">
    <rdf:RDF>
      <cc:Work
         rdf:about="">
        <dc:format>image/svg+xml</dc:format>
        <dc:type
           rdf:resource="http://purl.org/dc/dcmitype/StillImage" />
        <dc:title></dc:title>
      </cc:Work>
    </rdf:RDF>
  </metadata>
  <sodipodi:namedview
     pagecolor="#ffffff"
     bordercolor="#666666"
     borderopacity="1"
     objecttolerance="10"
     gridtolerance="10"
     guidetolerance="10"
     inkscape:pageopacity="0"
     inkscape:pageshadow="2"
     inkscape:window-width="1280"
     inkscape:window-height="694"
     id="namedview39"
     showgrid="false"
     inkscape:zoom="4.9166667"
     inkscape:cx="-11.59322"
     inkscape:cy="24"
     inkscape:window-x="0"
     inkscape:window-y="0"
     inkscape:window-maximized="1"
     inkscape:current-layer="svg2" />
  <defs
     id="defs4">
    <clipPath
       id="clipPath6">
      <path
         fill="#1890d0"
         transform="matrix(15.33333 0 0 11.5 415-125.5)"
         d="m-24 13c0 1.105-.672 2-1.5 2-.828 0-1.5-.895-1.5-2 0-1.105.672-2 1.5-2 .828 0 1.5.895 1.5 2"
         id="path8" />
    </clipPath>
    <clipPath
       id="clipPath10">
      <path
         d="m-24 13c0 1.105-.672 2-1.5 2-.828 0-1.5-.895-1.5-2 0-1.105.672-2 1.5-2 .828 0 1.5.895 1.5 2"
         transform="matrix(15.33333 0 0 11.5 415-125.5)"
         fill="#1890d0"
         id="path12" />
    </clipPath>
    <clipPath
       id="clipPath14">
      <path
         fill="#1890d0"
         transform="matrix(15.33333 0 0 11.5 415-125.5)"
         d="m-24 13c0 1.105-.672 2-1.5 2-.828 0-1.5-.895-1.5-2 0-1.105.672-2 1.5-2 .828 0 1.5.895 1.5 2"
         id="path16" />
    </clipPath>
    <linearGradient
       gradientUnits="userSpaceOnUse"
       x1="24.306"
       y1="47.73"
       x2="23.694"
       y2="-.449"
       id="linearGradient18">
      <stop
         stop-color="#fa183c"
         id="stop20" />
      <stop
         offset="1"
         stop-color="#fe590a"
         id="stop22" />
    </linearGradient>
    <linearGradient
       id="0"
       x1="23.299"
       y1="47.874"
       x2="24.13"
       y2=".989"
       gradientUnits="userSpaceOnUse">
      <stop
         stop-color="#974eb7"
         id="stop25" />
      <stop
         stop-color="#d164ff"
         offset="1"
         id="stop27" />
    </linearGradient>
  </defs>
  <g
     id="g4171"
     transform="matrix(1.0693476,0,0,1.0831976,-1.5623663,-1.9967561)">
    <path
       d="m 23.99338,45.996936 c 12.150816,0 21.999355,-9.850252 21.999355,-21.999355 0,-12.150816 -9.850253,-21.9993551 -21.999355,-21.9993551 l 0,4.1245577 c 9.872538,0 17.874797,8.0022594 17.874797,17.8747974 0,9.872539 -8.002259,17.874798 -17.874797,17.874798 l 0,4.124557"
       id="path33"
       style="fill:#441650;fill-opacity:1"
       inkscape:connector-curvature="0" />
    <path
       d="m 1.9991672,24.002724 c 0,12.150817 9.8502528,21.999355 21.9993548,21.999355 l 0,-4.124557 c -9.872538,0 -17.8747971,-8.002259 -17.8747971,-17.874798 0,-9.872539 8.0022591,-17.8747976 17.8747971,-17.8747976 l 0,-4.1245576 c -12.150816,0 -21.9993548,9.8502532 -21.9993548,21.9993552"
       id="path35"
       style="fill:#ab37c8"
       inkscape:connector-curvature="0" />
    <path
       style="opacity:0.98000004;fill:#ab37c8"
       id="path37"
       transform="matrix(0.91667,0,0,0.91667,45.571,-4.98)"
       d="m -15.11,26.792 0,4.836 -2.644,0 0,-4.836 z m -2.418,-2.38 0,4.836 -2.644,0 0,-4.836 z m -2.324,-2.38 0,4.836 -2.644,0 0,-4.836 z m -2.362,-2.418 0,15.15 -2.602,0 0,-15.15 z m -2.49,16.444 0,7.556 -4.874,0 0,-7.556 z m -7.256,0.254 7.556,0 0,4.874 -7.556,0 z m 2.192,-2.342 7.556,0 0,7.254 -7.556,0 z"
       inkscape:connector-curvature="0" />
  </g>
</svg>
