<?xml version="1.0" encoding="UTF-8" standalone="no"?>
<svg
   xmlns:dc="http://purl.org/dc/elements/1.1/"
   xmlns:cc="http://creativecommons.org/ns#"
   xmlns:rdf="http://www.w3.org/1999/02/22-rdf-syntax-ns#"
   xmlns:svg="http://www.w3.org/2000/svg"
   xmlns="http://www.w3.org/2000/svg"
   xmlns:sodipodi="http://sodipodi.sourceforge.net/DTD/sodipodi-0.dtd"
   xmlns:inkscape="http://www.inkscape.org/namespaces/inkscape"
   viewBox="0 0 48 48"
   id="svg2"
   version="1.1"
   inkscape:version="0.91 r13725"
   sodipodi:docname="transmageddon.svg">
  <metadata
     id="metadata33">
    <rdf:RDF>
      <cc:Work
         rdf:about="">
        <dc:format>image/svg+xml</dc:format>
        <dc:type
           rdf:resource="http://purl.org/dc/dcmitype/StillImage" />
        <dc:title></dc:title>
      </cc:Work>
    </rdf:RDF>
  </metadata>
  <sodipodi:namedview
     pagecolor="#ffffff"
     bordercolor="#666666"
     borderopacity="1"
     objecttolerance="10"
     gridtolerance="10"
     guidetolerance="10"
     inkscape:pageopacity="0"
     inkscape:pageshadow="2"
     inkscape:window-width="1280"
     inkscape:window-height="694"
     id="namedview31"
     showgrid="false"
     inkscape:zoom="4.9166667"
     inkscape:cx="-11.59322"
     inkscape:cy="24"
     inkscape:window-x="0"
     inkscape:window-y="0"
     inkscape:window-maximized="1"
     inkscape:current-layer="svg2" />
  <defs
     id="defs4">
    <linearGradient
       id="0"
       gradientUnits="userSpaceOnUse"
       y1="542.2"
       x2="0"
       y2="526.2">
      <stop
         stop-color="#d0d0d0"
         id="stop7" />
      <stop
         offset="1"
         stop-color="#f1eeee"
         id="stop9" />
    </linearGradient>
    <linearGradient
       y2="147.64"
       x2="3.419"
       y1="204.55"
       x1=".967"
       gradientUnits="userSpaceOnUse"
       id="1"
       gradientTransform="matrix(.41708-.0003.00032.39759-41.925-57.56)">
      <stop
         stop-color="#566069"
         id="stop12" />
      <stop
         offset="1"
         stop-color="#6c7884"
         id="stop14" />
    </linearGradient>
    <linearGradient
       id="2"
       y1="551.67"
       x2="0"
       y2="528.33"
       gradientUnits="userSpaceOnUse">
      <stop
         stop-color="#197ff1"
         id="stop17" />
      <stop
         offset="1"
         stop-color="#21c6fb"
         id="stop19" />
    </linearGradient>
    <clipPath
       id="clipPath-137197553">
      <g
         transform="translate(0,-1004.3622)"
         id="g17">
        <path
           d="m -24,13 c 0,1.105 -0.672,2 -1.5,2 -0.828,0 -1.5,-0.895 -1.5,-2 0,-1.105 0.672,-2 1.5,-2 0.828,0 1.5,0.895 1.5,2 z"
           transform="matrix(15.333333,0,0,11.5,414.99999,878.8622)"
           id="path19"
           inkscape:connector-curvature="0"
           style="fill:#1890d0" />
      </g>
    </clipPath>
  </defs>
  <g
     id="g47"
     transform="matrix(1.8973716,0,0,1.9762916,-21.434567,-23.429169)"
     style="fill:#d4aa00">
    <g
       clip-path="url(#clipPath-137197553)"
       id="g49"
       style="fill:#d4aa00">
      <!-- color: #ffbe33 -->
      <g
         id="g51"
         style="fill:#d4aa00">
        <path
           d="m 23.781,12 c -1.902,0.043 -3.977,0.633 -6.25,1.969 L 22,21.375 c 1.477,-0.844 2.82,-0.684 4.125,0 L 30.5,13.969 C 28.414,12.774 26.227,11.942 23.781,12 m 0.25,10.438 c -1.309,0 -2.375,1.094 -2.375,2.438 0,1.344 1.066,2.438 2.375,2.438 1.309,0 2.375,-1.094 2.375,-2.438 0,-1.344 -1.066,-2.438 -2.375,-2.438 M 11.5,24.282 c -0.051,5.09 1.914,8.914 5.906,11.469 l 4.531,-7.375 C 20.55,27.38 20.097,26.099 20.124,24.595 m 16.375,-0.219 -8.5,0.313 c -0.023,1.738 -0.805,2.836 -2.031,3.656 l 4.344,7.656 c 5.266,-3.395 6.207,-7.445 6.188,-11.625 m 0,0"
           id="path53"
           inkscape:connector-curvature="0"
           style="fill:#d4aa00;fill-opacity:1;fill-rule:nonzero;stroke:none" />
      </g>
    </g>
  </g>
</svg>
