<?xml version="1.0" encoding="UTF-8" standalone="no"?>
<svg
   xmlns:dc="http://purl.org/dc/elements/1.1/"
   xmlns:cc="http://creativecommons.org/ns#"
   xmlns:rdf="http://www.w3.org/1999/02/22-rdf-syntax-ns#"
   xmlns:svg="http://www.w3.org/2000/svg"
   xmlns="http://www.w3.org/2000/svg"
   xmlns:xlink="http://www.w3.org/1999/xlink"
   xmlns:sodipodi="http://sodipodi.sourceforge.net/DTD/sodipodi-0.dtd"
   xmlns:inkscape="http://www.inkscape.org/namespaces/inkscape"
   viewBox="0 0 48 48"
   id="svg2"
   version="1.1"
   inkscape:version="0.91 r13725"
   sodipodi:docname="videoplayer.svg">
  <metadata
     id="metadata37">
    <rdf:RDF>
      <cc:Work
         rdf:about="">
        <dc:format>image/svg+xml</dc:format>
        <dc:type
           rdf:resource="http://purl.org/dc/dcmitype/StillImage" />
        <dc:title></dc:title>
      </cc:Work>
    </rdf:RDF>
  </metadata>
  <sodipodi:namedview
     pagecolor="#ffffff"
     bordercolor="#666666"
     borderopacity="1"
     objecttolerance="10"
     gridtolerance="10"
     guidetolerance="10"
     inkscape:pageopacity="0"
     inkscape:pageshadow="2"
     inkscape:window-width="1280"
     inkscape:window-height="694"
     id="namedview35"
     showgrid="false"
     inkscape:zoom="4.9166667"
     inkscape:cx="-9.1525424"
     inkscape:cy="24"
     inkscape:window-x="0"
     inkscape:window-y="0"
     inkscape:window-maximized="1"
     inkscape:current-layer="svg2" />
  <defs
     id="defs4">
    <linearGradient
       id="3">
      <stop
         stop-color="#2e3436"
         id="stop7" />
      <stop
         offset="1"
         stop-color="#555753"
         id="stop9" />
    </linearGradient>
    <linearGradient
       id="4"
       x1="70.03"
       y1="569.24"
       x2="66.53"
       y2="491.06"
       gradientUnits="userSpaceOnUse">
      <stop
         stop-color="#0a80fd"
         id="stop12" />
      <stop
         offset="1"
         stop-color="#56c5fa"
         id="stop14" />
    </linearGradient>
    <linearGradient
       xlink:href="#3"
       id="2"
       x1="72.85"
       y1="491.15"
       x2="72.29"
       y2="462.68"
       gradientUnits="userSpaceOnUse"
       gradientTransform="matrix(1.0021 0 0 1-.15.002)" />
    <linearGradient
       xlink:href="#3"
       id="0"
       x1="96.68"
       y1="490.36"
       x2="96.33"
       y2="462.83"
       gradientUnits="userSpaceOnUse" />
    <linearGradient
       xlink:href="#3"
       id="1"
       x1="44.16"
       y1="490.59"
       x2="44.26"
       y2="461.93"
       gradientUnits="userSpaceOnUse" />
  </defs>
  <path
     d="m 44.762721,0.47457602 -10.38136,0 -20.762707,0 -10.3813611,0 c -1.6380257,0 -2.96610836,1.28758548 -2.96610836,2.91859488 l 0,41.3474581 c 0,1.631009 1.32808266,2.988185 2.96610836,2.988185 l 10.3813611,0 20.762707,0 10.38136,0 c 1.638025,0 2.966095,-1.357176 2.966095,-2.988185 l 0,-41.3474581 c 0,-1.6310094 -1.32807,-2.91859488 -2.966095,-2.91859488 z M 10.652544,41.822034 l -4.4491556,0 0,-4.430085 4.4491556,0 0,4.430085 z m 0,-10.336865 -4.4491556,0 0,-4.430084 4.4491556,0 0,4.430084 z m 0,-10.336864 -4.4491556,0 0,-4.430085 4.4491556,0 0,4.430085 z m 0,-10.336865 -4.4491556,0 0,-4.4300841 4.4491556,0 0,4.4300841 z m 10.381361,19.16224 0,-10.336865 8.8983,5.168432 -8.8983,5.168433 z m 20.762707,11.848354 -4.449156,0 0,-4.430085 4.449156,0 0,4.430085 z m 0,-10.336865 -4.449156,0 0,-4.430084 4.449156,0 0,4.430084 z m 0,-10.336864 -4.449156,0 0,-4.430085 4.449156,0 0,4.430085 z m 0,-10.336865 -4.449156,0 0,-4.4300841 4.449156,0 0,4.4300841 z"
     id="path3"
     inkscape:connector-curvature="0"
     style="fill:#2a7fff" />
</svg>
