<?xml version="1.0" encoding="UTF-8" standalone="no"?>
<svg
   xmlns:dc="http://purl.org/dc/elements/1.1/"
   xmlns:cc="http://creativecommons.org/ns#"
   xmlns:rdf="http://www.w3.org/1999/02/22-rdf-syntax-ns#"
   xmlns:svg="http://www.w3.org/2000/svg"
   xmlns="http://www.w3.org/2000/svg"
   xmlns:xlink="http://www.w3.org/1999/xlink"
   xmlns:sodipodi="http://sodipodi.sourceforge.net/DTD/sodipodi-0.dtd"
   xmlns:inkscape="http://www.inkscape.org/namespaces/inkscape"
   viewBox="0 0 48 48"
   id="svg2"
   version="1.1"
   inkscape:version="0.91 r13725"
   sodipodi:docname="vineyard-preferences.svg">
  <metadata
     id="metadata50">
    <rdf:RDF>
      <cc:Work
         rdf:about="">
        <dc:format>image/svg+xml</dc:format>
        <dc:type
           rdf:resource="http://purl.org/dc/dcmitype/StillImage" />
        <dc:title></dc:title>
      </cc:Work>
    </rdf:RDF>
  </metadata>
  <sodipodi:namedview
     pagecolor="#ffffff"
     bordercolor="#666666"
     borderopacity="1"
     objecttolerance="10"
     gridtolerance="10"
     guidetolerance="10"
     inkscape:pageopacity="0"
     inkscape:pageshadow="2"
     inkscape:window-width="1280"
     inkscape:window-height="694"
     id="namedview48"
     showgrid="false"
     inkscape:zoom="4.9166667"
     inkscape:cx="-9.1525424"
     inkscape:cy="24"
     inkscape:window-x="0"
     inkscape:window-y="0"
     inkscape:window-maximized="1"
     inkscape:current-layer="svg2" />
  <defs
     id="defs4">
    <clipPath
       id="clipPath6">
      <path
         d="m-24 13c0 1.105-.672 2-1.5 2-.828 0-1.5-.895-1.5-2 0-1.105.672-2 1.5-2 .828 0 1.5.895 1.5 2"
         transform="matrix(15.33333 0 0 11.5 415-125.5)"
         fill="#1890d0"
         id="path8" />
    </clipPath>
    <clipPath
       id="clipPath10">
      <path
         fill="#1890d0"
         transform="matrix(15.33333 0 0 11.5 415-125.5)"
         d="m-24 13c0 1.105-.672 2-1.5 2-.828 0-1.5-.895-1.5-2 0-1.105.672-2 1.5-2 .828 0 1.5.895 1.5 2"
         id="path12" />
    </clipPath>
    <clipPath
       id="clipPath14">
      <path
         transform="matrix(15.33333 0 0 11.5 415-125.5)"
         d="m-24 13c0 1.105-.672 2-1.5 2-.828 0-1.5-.895-1.5-2 0-1.105.672-2 1.5-2 .828 0 1.5.895 1.5 2"
         fill="#1890d0"
         id="path16" />
    </clipPath>
    <clipPath
       id="clipPath18">
      <path
         fill="#1890d0"
         transform="matrix(15.33333 0 0 11.5 415-125.5)"
         d="m-24 13c0 1.105-.672 2-1.5 2-.828 0-1.5-.895-1.5-2 0-1.105.672-2 1.5-2 .828 0 1.5.895 1.5 2"
         id="path20" />
    </clipPath>
    <clipPath
       id="clipPath22">
      <path
         d="m-24 13c0 1.105-.672 2-1.5 2-.828 0-1.5-.895-1.5-2 0-1.105.672-2 1.5-2 .828 0 1.5.895 1.5 2"
         transform="matrix(15.33333 0 0 11.5 415-125.5)"
         fill="#1890d0"
         id="path24" />
    </clipPath>
    <clipPath
       id="clipPath26">
      <path
         d="m-24 13c0 1.105-.672 2-1.5 2-.828 0-1.5-.895-1.5-2 0-1.105.672-2 1.5-2 .828 0 1.5.895 1.5 2"
         transform="matrix(15.33333 0 0 11.5 415-125.5)"
         fill="#1890d0"
         id="path28" />
    </clipPath>
    <linearGradient
       y2="-26.429"
       x2="0"
       y1="22.369"
       gradientUnits="userSpaceOnUse"
       id="0">
      <stop
         stop-color="#d8d8d8"
         id="stop31" />
      <stop
         stop-color="#fff"
         offset="1"
         id="stop33" />
    </linearGradient>
    <linearGradient
       id="3"
       x1="316.89"
       y1="298.34"
       x2="319.75"
       y2="151.37"
       gradientUnits="userSpaceOnUse"
       gradientTransform="matrix(0.18959,0,0,0.32821782,-38.35,-51.635659)">
      <stop
         stop-color="#494c86"
         id="stop36" />
      <stop
         offset="1"
         stop-color="#7277d1"
         id="stop38" />
    </linearGradient>
    <linearGradient
       gradientTransform="matrix(1.4 0 0 1.39991 109.94 1027.47)"
       gradientUnits="userSpaceOnUse"
       y2="4.445"
       x2="0"
       y1="35.14"
       id="1"
       xlink:href="#0" />
    <linearGradient
       xlink:href="#0"
       id="2"
       x1="24.791"
       y1="47.32"
       x2="24.2"
       y2=".483"
       gradientUnits="userSpaceOnUse" />
    <linearGradient
       gradientTransform="matrix(0.09744,0,0,0.09744,102.21139,-21.835286)"
       id="3-1"
       x1="-697.95001"
       y1="781.40997"
       x2="-696.57001"
       y2="338.89999"
       gradientUnits="userSpaceOnUse">
      <stop
         stop-color="#494c86"
         id="stop42" />
      <stop
         offset="1"
         stop-color="#7277d1"
         id="stop44" />
    </linearGradient>
  </defs>
  <path
     d="M 27.930664,6.3866864 C 38.168524,17.771906 48.10304,6.6069205 48.10304,6.6069205 45.549452,25.940919 42.934817,45.779717 21.858096,47.936108 6.8918617,42.713178 -0.1457191,22.807752 0.1822716,9.3803611 3.5507171,8.8368324 8.1545311,7.5853378 9.730024,6.0263032 c 3.7918,-3.7433242 7.96278,-11.0258211 18.20064,0.3593985"
     id="path44"
     style="fill:#5f5fd3"
     inkscape:connector-curvature="0" />
  <path
     inkscape:connector-curvature="0"
     style="fill:#afafe9;fill-opacity:1"
     d="m 47.640752,33.613858 c -0.08187,-0.110113 -0.187967,-0.17571 -0.321657,-0.19654 L 44.516767,32.97737 c -0.153174,-0.502772 -0.362591,-1.016296 -0.628088,-1.539815 0.183629,-0.261885 0.459277,-0.631028 0.826863,-1.107848 0.367503,-0.476735 0.627842,-0.82488 0.781099,-1.044938 0.08178,-0.11532 0.122392,-0.235679 0.122392,-0.361415 0,-0.146565 -0.03553,-0.261717 -0.107165,-0.345625 -0.367504,-0.534437 -1.209921,-1.424663 -2.527089,-2.671349 -0.122228,-0.104737 -0.250024,-0.156979 -0.382567,-0.156979 -0.153175,0 -0.275812,0.04704 -0.367667,0.141189 l -2.174649,1.681509 c -0.418835,-0.220058 -0.878275,-0.413909 -1.378487,-0.58248 l -0.428823,-2.890987 c -0.01015,-0.13615 -0.06901,-0.248783 -0.176178,-0.337646 -0.107328,-0.08911 -0.232177,-0.133462 -0.375445,-0.133462 l -3.400698,0 c -0.296115,0 -0.479908,0.146565 -0.551378,0.439947 -0.132707,0.523603 -0.280888,1.49782 -0.444213,2.921895 -0.479909,0.157401 -0.943688,0.356376 -1.393387,0.597264 l -2.113576,-1.68151 c -0.132707,-0.104737 -0.265414,-0.15698 -0.398121,-0.15698 -0.224646,0 -0.707009,0.37435 -1.447338,1.123471 -0.740083,0.74912 -1.242996,1.312031 -1.509556,1.689068 -0.09194,0.13615 -0.137784,0.256678 -0.137784,0.361415 0,0.125736 0.05092,0.251471 0.15301,0.377038 0.684086,0.848314 1.230471,1.571228 1.63899,2.168576 -0.255263,0.481775 -0.454365,0.963718 -0.597224,1.445493 l -2.84801,0.439948 c -0.112241,0.021 -0.209253,0.08911 -0.29104,0.204435 -0.08178,0.115152 -0.122555,0.23568 -0.122555,0.361247 l 0,3.488922 c 0,0.136319 0.04077,0.259198 0.122555,0.369142 0.08178,0.110113 0.187969,0.175879 0.321658,0.196709 l 2.803147,0.424157 c 0.142859,0.513187 0.352112,1.031667 0.627842,1.554514 -0.183629,0.261885 -0.45944,0.631028 -0.826862,1.107847 -0.367504,0.476736 -0.628088,0.824881 -0.781099,1.044938 -0.08178,0.115489 -0.122555,0.235681 -0.122555,0.361415 0,0.13615 0.03569,0.256511 0.107164,0.361248 0.398122,0.565851 1.240294,1.445913 2.527089,2.639936 0.112404,0.11532 0.240035,0.17277 0.382894,0.17277 0.153175,0 0.280888,-0.04704 0.382895,-0.141189 l 2.159586,-1.681509 c 0.418834,0.220057 0.878275,0.413909 1.378486,0.58248 l 0.428823,2.890987 c 0.01032,0.13615 0.06901,0.248782 0.176178,0.337646 0.107165,0.08928 0.232341,0.133462 0.3752,0.133462 l 3.400697,0 c 0.296443,0 0.480154,-0.146565 0.551706,-0.439948 0.132544,-0.523854 0.280479,-1.497819 0.443804,-2.921894 0.479908,-0.157149 0.945571,-0.356376 1.393387,-0.597264 l 2.113739,1.697467 c 0.142859,0.09416 0.275812,0.14119 0.398122,0.14119 0.224481,0 0.704389,-0.371662 1.439396,-1.115491 0.735417,-0.74366 1.241113,-1.309511 1.515206,-1.697467 0.09194,-0.104738 0.137946,-0.225097 0.137946,-0.361248 0,-0.13615 -0.05092,-0.267512 -0.153174,-0.392827 -0.735007,-0.921891 -1.281309,-1.644554 -1.638989,-2.168409 0.204178,-0.387621 0.403444,-0.864188 0.597388,-1.429535 l 2.832946,-0.439695 c 0.122392,-0.021 0.224808,-0.08928 0.306431,-0.204603 0.08162,-0.11532 0.122228,-0.235849 0.122228,-0.361415 l 0,-3.488922 c 0,-0.136151 -0.04045,-0.25903 -0.122392,-0.369143 m -8.867079,4.925932 c -0.765708,0.78574 -1.689829,1.178401 -2.772282,1.178401 -1.082454,0 -2.006411,-0.392829 -2.772201,-1.178401 -0.765707,-0.785572 -1.148602,-1.7335 -1.148602,-2.843951 0,-1.110535 0.382731,-2.058463 1.148602,-2.84412 0.765872,-0.785572 1.689993,-1.1784 2.772201,-1.1784 1.082453,0 2.006574,0.392828 2.772282,1.1784 0.765708,0.785741 1.148603,1.733668 1.148603,2.84412 0,1.110535 -0.382895,2.058463 -1.148603,2.843951"
     id="path52" />
</svg>
