<?xml version="1.0" encoding="UTF-8" standalone="no"?>
<svg
   xmlns:dc="http://purl.org/dc/elements/1.1/"
   xmlns:cc="http://creativecommons.org/ns#"
   xmlns:rdf="http://www.w3.org/1999/02/22-rdf-syntax-ns#"
   xmlns:svg="http://www.w3.org/2000/svg"
   xmlns="http://www.w3.org/2000/svg"
   xmlns:sodipodi="http://sodipodi.sourceforge.net/DTD/sodipodi-0.dtd"
   xmlns:inkscape="http://www.inkscape.org/namespaces/inkscape"
   viewBox="0 0 64 64"
   id="svg2"
   version="1.1"
   inkscape:version="0.91 r13725"
   sodipodi:docname="application-vnd.openxmlformats-officedocument.wordprocessingml.document.svg">
  <metadata
     id="metadata19">
    <rdf:RDF>
      <cc:Work
         rdf:about="">
        <dc:format>image/svg+xml</dc:format>
        <dc:type
           rdf:resource="http://purl.org/dc/dcmitype/StillImage" />
        <dc:title></dc:title>
      </cc:Work>
    </rdf:RDF>
  </metadata>
  <sodipodi:namedview
     pagecolor="#ffffff"
     bordercolor="#666666"
     borderopacity="1"
     objecttolerance="10"
     gridtolerance="10"
     guidetolerance="10"
     inkscape:pageopacity="0"
     inkscape:pageshadow="2"
     inkscape:window-width="1280"
     inkscape:window-height="694"
     id="namedview17"
     showgrid="true"
     inkscape:zoom="3.6875"
     inkscape:cx="-18.801273"
     inkscape:cy="32"
     inkscape:window-x="0"
     inkscape:window-y="0"
     inkscape:window-maximized="1"
     inkscape:current-layer="svg2">
    <inkscape:grid
       type="xygrid"
       id="grid4137" />
  </sodipodi:namedview>
  <defs
     id="defs4">
    <linearGradient
       id="0"
       x1="-74.929"
       y1="52.2"
       x2="-75.26"
       y2="2.356"
       gradientUnits="userSpaceOnUse"
       gradientTransform="matrix(1.07499,0,0,1.02929,113.079,0.073)">
      <stop
         stop-color="#197cf1"
         id="stop7" />
      <stop
         offset="1"
         stop-color="#20bcfa"
         id="stop9" />
    </linearGradient>
  </defs>
  <rect
     style="fill:#2a7fff;stroke-width:1"
     id="rect13"
     rx="3.5939908"
     y="0.6492542"
     x="0.50847554"
     height="52.936779"
     width="63.254234" />
  <path
     d="m 44.68795,34.10191 -17.951729,3.122966 0,22.905396 17.951729,3.122966 0,-29.152542 m 1.05584,3.122966 0,3.122966 9.503784,0 0,1.040989 -9.503784,0 0,2.081977 9.503784,0 0,1.040989 -9.503784,0 0,2.081977 9.503784,0 0,1.040989 -9.503784,0 0,2.081977 9.503784,0 0,1.040989 -9.503784,0 0,2.081977 9.503784,0 0,1.040989 -9.503784,0 0,2.081977 9.503784,0 0,1.040989 -9.503784,0 0,3.122966 12.672533,0 0,-22.905395 -12.672533,0 m -6.209369,6.148757 1.022574,0 c 0.938798,0 0.997935,0.06195 0.890749,0.521101 -0.06406,0.273306 -0.601225,2.700255 -1.187665,5.400509 l -1.055839,4.913418 -1.089104,0 c -0.593832,0 -1.078015,-0.03523 -1.089103,-0.06559 -0.01109,-0.03037 -0.352357,-1.637401 -0.758923,-3.578475 -0.406566,-1.942288 -0.792188,-3.403559 -0.857484,-3.221356 -0.0653,0.182204 -0.412726,1.778305 -0.758923,3.514096 l -0.627097,3.155763 -0.990543,-0.06559 -1.022574,-0.06559 -0.825452,-4.326724 c -0.460775,-2.367429 -0.894445,-4.558728 -0.957278,-4.88305 -0.103489,-0.53082 -0.03203,-0.600057 0.693626,-0.683871 1.010255,-0.11661 1.054607,-0.01336 1.649672,3.806837 0.255028,1.632542 0.460774,2.991779 0.495271,3.025791 0.0345,0.03401 0.397942,-1.513503 0.792187,-3.416921 0.394246,-1.902204 0.837772,-3.516526 0.990542,-3.611271 0.437367,-0.27452 1.66692,-0.206498 1.781498,0.09718 0.05667,0.151836 0.411494,1.792881 0.758923,3.644067 0.58028,3.097458 0.988078,4.22469 0.990542,2.733051 1.23e-4,-0.596412 0.464471,-3.441214 0.924013,-5.726045 l 0.23162,-1.17096"
     id="path15"
     inkscape:connector-curvature="0"
     style="color:#000000;fill:#80b3ff;fill-opacity:0.85" />
</svg>
