<?xml version="1.0" encoding="UTF-8" standalone="no"?>
<svg
   xmlns:dc="http://purl.org/dc/elements/1.1/"
   xmlns:cc="http://creativecommons.org/ns#"
   xmlns:rdf="http://www.w3.org/1999/02/22-rdf-syntax-ns#"
   xmlns:svg="http://www.w3.org/2000/svg"
   xmlns="http://www.w3.org/2000/svg"
   xmlns:sodipodi="http://sodipodi.sourceforge.net/DTD/sodipodi-0.dtd"
   xmlns:inkscape="http://www.inkscape.org/namespaces/inkscape"
   viewBox="0 0 64 64"
   id="svg2"
   version="1.1"
   inkscape:version="0.91 r13725"
   sodipodi:docname="application-vnd.oasis.opendocument.graphics.svg">
  <metadata
     id="metadata19">
    <rdf:RDF>
      <cc:Work
         rdf:about="">
        <dc:format>image/svg+xml</dc:format>
        <dc:type
           rdf:resource="http://purl.org/dc/dcmitype/StillImage" />
        <dc:title></dc:title>
      </cc:Work>
    </rdf:RDF>
  </metadata>
  <sodipodi:namedview
     pagecolor="#ffffff"
     bordercolor="#666666"
     borderopacity="1"
     objecttolerance="10"
     gridtolerance="10"
     guidetolerance="10"
     inkscape:pageopacity="0"
     inkscape:pageshadow="2"
     inkscape:window-width="1280"
     inkscape:window-height="694"
     id="namedview17"
     showgrid="true"
     inkscape:zoom="3.6875"
     inkscape:cx="-16.484938"
     inkscape:cy="32"
     inkscape:window-x="0"
     inkscape:window-y="0"
     inkscape:window-maximized="1"
     inkscape:current-layer="svg2">
    <inkscape:grid
       type="xygrid"
       id="grid4137" />
  </sodipodi:namedview>
  <defs
     id="defs4">
    <linearGradient
       id="0"
       x1="-74.929"
       y1="52.2"
       x2="-75.26"
       y2="2.356"
       gradientUnits="userSpaceOnUse"
       gradientTransform="matrix(1.07499,0,0,1.02929,113.079,0.073)">
      <stop
         stop-color="#2aaa76"
         id="stop7" />
      <stop
         offset="1"
         stop-color="#3ec380"
         id="stop9" />
    </linearGradient>
  </defs>
  <rect
     style="fill:#2ca05a"
     id="rect13"
     rx="3.5939908"
     width="63.254234"
     height="52.936779"
     x="0.50847554"
     y="0.6492542" />
  <path
     style="fill:#d7f4e3;fill-opacity:0.85"
     inkscape:connector-curvature="0"
     id="path15"
     d="m 30.317452,62.39789 10.351367,0 0,1.240999 3.763989,0 0,-1.240999 10.395819,0 0,1.403149 3.763989,0 0,-3.474534 -1.388834,0 0,-9.71726 1.344305,0 0,-3.474531 -1.344305,0 0,-9.021183 1.388913,0 0,-3.474533 -3.763989,0 0,0.706778 -10.395818,0 0,-1.240926 -3.763989,0 0,1.240926 -10.351368,0 0,-0.868706 -3.76399,0 0,3.474531 1.344305,0 0,9.183113 -1.344305,0 0,3.474531 1.344305,0 0,9.555331 -1.344305,0 0,3.474533 3.76399,0 0,-1.241 m -1.075381,0 0,0.248245 -1.613228,0 0,-1.489169 0.268924,0 1.075459,0 0.268924,0 0,0.248243 0,0.992681 z m 12.502445,-27.052554 0,-0.248243 1.61323,0 0,0.248243 0,0.519128 0,0.473554 0,0.24817 -1.61323,0 0,-0.24817 0,-0.473554 0,-0.519128 m 1.61323,27.052554 0,0.248245 -1.61323,0 0,-0.248245 0,-0.519127 0,-0.47348 0,-0.248244 1.61323,0 0,0.248244 0,0.47348 0,0.519127 m 0.179151,-12.967581 c 0.104534,0.09693 0.104534,0.253958 0,0.350896 -0.05303,0.04842 -0.121289,0.07269 -0.190581,0.07269 -0.06826,0 -0.137399,-0.02425 -0.190184,-0.07269 L 42.55129,49.22295 41.946289,49.781424 c -0.05279,0.04842 -0.121516,0.07269 -0.190342,0.07269 -0.06882,0 -0.137558,-0.02425 -0.190422,-0.07269 -0.104695,-0.09694 -0.104695,-0.253958 0,-0.350896 l 0.605,-0.558476 -0.605,-0.558475 c -0.104695,-0.09664 -0.104695,-0.254251 0,-0.35097 0.104775,-0.09672 0.275434,-0.09672 0.380209,0 l 0.605476,0.558475 0.604922,-0.558475 c 0.105017,-0.09672 0.275195,-0.09672 0.380209,0 0.105017,0.09671 0.105017,0.254253 0,0.35097 l -0.605,0.558475 0.605476,0.558476 m 13.981213,13.377901 -1.61315,0 0,-0.410026 0,-0.992681 0,-0.08631 0.224235,0 1.075461,0 0.313454,0 0,1.489094 z m -2.688609,-2.481776 0,1.079069 -8.421748,0 c 4.693476,-1.228397 8.390791,-4.641015 9.721125,-8.974289 l 0,7.895 -1.299695,0 m 2.643999,-10.710089 -0.268844,0 -0.562376,0 -0.513005,0 -0.268845,0 0,-1.48917 0.268845,0 0.513005,0 0.562376,0 0.268844,0 0,1.48917 m -1.568461,-13.98459 1.299617,0 0.313454,0 0,1.489168 -0.313454,0 -1.07546,0 -0.224235,0 0,-0.782391 0,-0.706777 z m -1.075459,0.706777 0,1.775366 1.299616,0 0,7.198921 c -1.330652,-4.333275 -5.027649,-7.745525 -9.721125,-8.974287 l 8.421748,0 z m -27.199625,-0.868781 0.268924,0 1.344304,0 0,0.868706 0,0.620463 -0.268923,0 -1.07546,0 -0.268925,0 0,-1.489169 z m 2.688609,2.481924 0,-1.613437 8.376503,0 c -4.693477,1.228469 -8.389998,4.641015 -9.721125,8.973555 l 0,-7.360118 1.344305,0 m -2.68861,10.175941 0.268924,0 0.562377,0 0.513004,0 0.268924,0 0,1.489169 -0.268924,0 -0.513004,0 -0.562377,0 -0.268924,0 0,-1.489169 m 1.344305,4.304111 c 1.33097,4.333275 5.027648,7.745525 9.721125,8.974289 l -8.376503,0 0,-1.240998 -1.344304,0 0,-7.73307" />
</svg>
