<?xml version="1.0" encoding="UTF-8" standalone="no"?>
<svg
   xmlns:dc="http://purl.org/dc/elements/1.1/"
   xmlns:cc="http://creativecommons.org/ns#"
   xmlns:rdf="http://www.w3.org/1999/02/22-rdf-syntax-ns#"
   xmlns:svg="http://www.w3.org/2000/svg"
   xmlns="http://www.w3.org/2000/svg"
   xmlns:sodipodi="http://sodipodi.sourceforge.net/DTD/sodipodi-0.dtd"
   xmlns:inkscape="http://www.inkscape.org/namespaces/inkscape"
   viewBox="0 0 64 64"
   id="svg2"
   version="1.1"
   inkscape:version="0.91 r13725"
   sodipodi:docname="libreoffice-presentation.svg">
  <metadata
     id="metadata29">
    <rdf:RDF>
      <cc:Work
         rdf:about="">
        <dc:format>image/svg+xml</dc:format>
        <dc:type
           rdf:resource="http://purl.org/dc/dcmitype/StillImage" />
        <dc:title></dc:title>
      </cc:Work>
    </rdf:RDF>
  </metadata>
  <sodipodi:namedview
     pagecolor="#ffffff"
     bordercolor="#666666"
     borderopacity="1"
     objecttolerance="10"
     gridtolerance="10"
     guidetolerance="10"
     inkscape:pageopacity="0"
     inkscape:pageshadow="2"
     inkscape:window-width="1280"
     inkscape:window-height="694"
     id="namedview27"
     showgrid="true"
     inkscape:zoom="3.6875"
     inkscape:cx="-12.20339"
     inkscape:cy="32"
     inkscape:window-x="0"
     inkscape:window-y="0"
     inkscape:window-maximized="1"
     inkscape:current-layer="svg2">
    <inkscape:grid
       type="xygrid"
       id="grid4157" />
  </sodipodi:namedview>
  <defs
     id="defs4">
    <linearGradient
       id="0"
       x1="-74.929"
       y1="52.2"
       x2="-75.26"
       y2="2.356"
       gradientUnits="userSpaceOnUse"
       gradientTransform="matrix(1.07499,0,0,1.02929,56.689,0.25)">
      <stop
         stop-color="#dc3c30"
         id="stop7" />
      <stop
         offset="1"
         stop-color="#ff786d"
         id="stop9" />
    </linearGradient>
  </defs>
  <g
     transform="matrix(1.4375963,0,0,0.87903463,67.198566,-1.3017674)"
     id="g11">
    <rect
       width="44"
       height="60.529999"
       x="-46.389999"
       y="1.911"
       rx="2.5"
       id="rect13"
       style="fill:url(#0);stroke-width:1" />
  </g>
  <g
     transform="matrix(0.88123,0,0,1.5832758,21.814272,7.6557844)"
     id="g15"
     style="fill:#ffd5d5;fill-opacity:0.84600004">
    <path
       d="m 17.799,1020.34 c 2.099,0 3.801,1.699 3.801,3.798 l -3.801,0 c 10e-5,0 10e-5,-3.798 0,-3.798 m -1.069,1.033 0,3.801 3.801,0 c 0,2.102 -1.701,3.801 -3.801,3.801 -2.1,0 -3.8,-1.7 -3.8,-3.801 0,-2.1 1.7,-3.801 3.8,-3.801"
       transform="matrix(2.10251,0,0,2.10251,-21.451,-2128.1)"
       id="path17"
       inkscape:connector-curvature="0"
       style="fill:#ffd5d5" />
    <g
       transform="translate(0,-0.3)"
       id="g19"
       style="fill-rule:evenodd;fill:#ffd5d5">
      <rect
         width="14.261"
         height="2.7320001"
         x="27.120001"
         y="21.481001"
         rx="1.3660001"
         id="rect21"
         style="fill:#ffd5d5" />
      <rect
         width="14.07"
         height="2.777"
         x="27.139999"
         y="26.311001"
         rx="1.3660001"
         id="rect23"
         style="fill:#ffd5d5" />
      <rect
         width="14.224"
         height="2.7190001"
         x="27.16"
         y="31.1"
         rx="1.36"
         id="rect25"
         style="fill:#ffd5d5" />
    </g>
  </g>
</svg>
