<?xml version="1.0" encoding="UTF-8" standalone="no"?>
<svg
   xmlns:dc="http://purl.org/dc/elements/1.1/"
   xmlns:cc="http://creativecommons.org/ns#"
   xmlns:rdf="http://www.w3.org/1999/02/22-rdf-syntax-ns#"
   xmlns:svg="http://www.w3.org/2000/svg"
   xmlns="http://www.w3.org/2000/svg"
   xmlns:sodipodi="http://sodipodi.sourceforge.net/DTD/sodipodi-0.dtd"
   xmlns:inkscape="http://www.inkscape.org/namespaces/inkscape"
   viewBox="0 0 64 64"
   id="svg2"
   version="1.1"
   inkscape:version="0.91 r13725"
   sodipodi:docname="virtualbox-vdf.svg">
  <metadata
     id="metadata19">
    <rdf:RDF>
      <cc:Work
         rdf:about="">
        <dc:format>image/svg+xml</dc:format>
        <dc:type
           rdf:resource="http://purl.org/dc/dcmitype/StillImage" />
        <dc:title></dc:title>
      </cc:Work>
    </rdf:RDF>
  </metadata>
  <sodipodi:namedview
     pagecolor="#ffffff"
     bordercolor="#666666"
     borderopacity="1"
     objecttolerance="10"
     gridtolerance="10"
     guidetolerance="10"
     inkscape:pageopacity="0"
     inkscape:pageshadow="2"
     inkscape:window-width="1280"
     inkscape:window-height="694"
     id="namedview17"
     showgrid="true"
     inkscape:zoom="3.6875"
     inkscape:cx="-12.20339"
     inkscape:cy="32"
     inkscape:window-x="0"
     inkscape:window-y="0"
     inkscape:window-maximized="1"
     inkscape:current-layer="svg2">
    <inkscape:grid
       type="xygrid"
       id="grid4147" />
  </sodipodi:namedview>
  <defs
     id="defs4">
    <linearGradient
       id="0"
       x1="-74.929"
       y1="52.2"
       x2="-75.26"
       y2="2.356"
       gradientUnits="userSpaceOnUse"
       gradientTransform="matrix(1.5454017,0,0,0.90478153,148.69446,-1.0820088)">
      <stop
         stop-color="#dc3c30"
         id="stop7" />
      <stop
         offset="1"
         stop-color="#ff786d"
         id="stop9" />
    </linearGradient>
  </defs>
  <rect
     style="fill:url(#0);stroke-width:1"
     id="rect13"
     rx="3.5939908"
     y="0.37806776"
     x="0.50847554"
     height="53.207962"
     width="63.254234" />
  <path
     style="fill:#ffd5d5;fill-opacity:0.847"
     inkscape:connector-curvature="0"
     id="path15"
     d="M 42.575066,34.101944 A 15.525747,14.712171 0 0 0 27.050768,48.814875 15.525747,14.712171 0 0 0 42.575066,63.525674 15.525747,14.712171 0 0 0 58.101615,48.814875 15.525747,14.712171 0 0 0 42.575066,34.101944 m 3.920169,6.551684 c 0.05693,0.0025 0.124204,0.02697 0.178543,0.04291 0.272988,0.07479 0.50587,0.29669 0.583497,0.557825 l 2.828214,9.761322 1.482678,-1.905186 c 0.151373,-0.212096 0.380373,-0.357989 0.649481,-0.365345 l 1.099717,0 0.49552,0 0.0427,0 c 0.03234,0 0.06728,0.0331 0.06728,0.06375 l 0,1.499384 c 0,0.03065 -0.03234,0.04291 -0.06469,0.04291 l -0.04528,0 -0.49552,0 -0.671474,0 -2.177441,2.867588 c -0.37261,0.46465 -1.306723,0.302819 -1.482678,-0.256232 l -2.579808,-8.691034 -1.77378,5.543921 c -0.108678,0.315079 -0.459293,0.529627 -0.807322,0.535757 l -1.234271,0 -0.248407,0 -0.606785,0 -0.222531,0 -0.62878,0 -2.402559,7.533701 c -0.120322,0.408254 -0.62878,0.679198 -1.054435,0.557825 -0.272989,-0.07479 -0.50587,-0.29669 -0.583497,-0.557825 l -2.850209,-9.779712 -1.458096,1.905186 c -0.151373,0.212096 -0.404955,0.334695 -0.674062,0.342051 l -1.077724,0 -0.538214,0 -0.06728,0 c -0.03234,0 -0.04528,-0.0012 -0.04528,-0.04291 l 0,-1.499384 c 0,-0.03065 0.0013,-0.06375 0.04528,-0.06375 l 0.06728,0 0.538214,0 0.674063,0 2.17744,-2.824678 c 0.37261,-0.46465 1.293785,-0.302819 1.480091,0.256232 l 2.560401,8.691034 1.793186,-5.564763 c 0.108678,-0.315079 0.438593,-0.550469 0.786622,-0.557825 l 1.257559,0 0.222531,0 0.606785,0 0.248407,0 0.606785,0 2.421967,-7.490791 c 0.09056,-0.306497 0.392016,-0.535757 0.719344,-0.578666 0.05434,-0.0074 0.100915,-0.02084 0.157842,-0.02084" />
</svg>
