<?xml version="1.0" encoding="UTF-8" standalone="no"?>
<!-- Generator: Adobe Illustrator 19.0.0, SVG Export Plug-In . SVG Version: 6.00 Build 0)  -->

<svg
   xmlns:dc="http://purl.org/dc/elements/1.1/"
   xmlns:cc="http://creativecommons.org/ns#"
   xmlns:rdf="http://www.w3.org/1999/02/22-rdf-syntax-ns#"
   xmlns:svg="http://www.w3.org/2000/svg"
   xmlns="http://www.w3.org/2000/svg"
   xmlns:sodipodi="http://sodipodi.sourceforge.net/DTD/sodipodi-0.dtd"
   xmlns:inkscape="http://www.inkscape.org/namespaces/inkscape"
   version="1.1"
   id="Capa_1"
   x="0px"
   y="0px"
   viewBox="0 0 58 58"
   style="enable-background:new 0 0 58 58;"
   xml:space="preserve"
   inkscape:version="0.91 r13725"
   sodipodi:docname="folder-mail.svg"><metadata
     id="metadata59"><rdf:RDF><cc:Work
         rdf:about=""><dc:format>image/svg+xml</dc:format><dc:type
           rdf:resource="http://purl.org/dc/dcmitype/StillImage" /><dc:title /></cc:Work></rdf:RDF></metadata><defs
     id="defs57" /><sodipodi:namedview
     pagecolor="#ffffff"
     bordercolor="#666666"
     borderopacity="1"
     objecttolerance="10"
     gridtolerance="10"
     guidetolerance="10"
     inkscape:pageopacity="0"
     inkscape:pageshadow="2"
     inkscape:window-width="1280"
     inkscape:window-height="688"
     id="namedview55"
     showgrid="false"
     inkscape:zoom="4.0689655"
     inkscape:cx="-50.75"
     inkscape:cy="29.122261"
     inkscape:window-x="0"
     inkscape:window-y="0"
     inkscape:window-maximized="1"
     inkscape:current-layer="Capa_1" /><path
     inkscape:connector-curvature="0"
     style="fill:#00aa44"
     d="m 58,16.694284 -58,0 L 0,2.3625868 C 0,1.2028319 0.916,0.26271195 2.046,0.26271195 l 53.908,0 c 1.13,0 2.046,0.94011995 2.046,2.09987485 l 0,14.3316972 z"
     id="path3" /><rect
     x="3"
     y="16.694284"
     style="fill:#00aa44"
     width="52"
     height="41.043011"
     id="rect5" /><path
     inkscape:connector-curvature="0"
     style="fill:#005522"
     d="m 38,12.588957 -18,0 c -2.209,0 -4,-1.83816 -4,-4.1053273 l 0,0 c 0,-2.267167 1.791,-4.1053272 4,-4.1053272 l 18,0 c 2.209,0 4,1.8381602 4,4.1053272 l 0,0 c 0,2.2671673 -1.791,4.1053273 -4,4.1053273 z"
     id="path7" /><rect
     x="3"
     y="52.605633"
     style="fill:#005522"
     width="52"
     height="5.131659"
     id="rect9" /><rect
     x="15"
     y="24.894674"
     style="fill:#d5ffe6"
     width="28"
     height="14.368646"
     id="rect11" /><g
     id="g13"
     transform="matrix(1,0,0,1.0263318,0,-0.76361985)"
     style="fill:#005522"><path
       inkscape:connector-curvature="0"
       style="fill:#005522"
       d="m 19,31 6,0 c 0.553,0 1,-0.447 1,-1 0,-0.553 -0.447,-1 -1,-1 l -6,0 c -0.553,0 -1,0.447 -1,1 0,0.553 0.447,1 1,1 z"
       id="path15" /><path
       inkscape:connector-curvature="0"
       style="fill:#005522"
       d="m 29,31 c 0.26,0 0.52,-0.11 0.71,-0.29 C 29.89,30.52 30,30.26 30,30 c 0,-0.261 -0.11,-0.521 -0.29,-0.71 -0.38,-0.37 -1.05,-0.37 -1.42,0 C 28.109,29.479 28,29.739 28,30 c 0,0.27 0.109,0.52 0.29,0.71 C 28.479,30.89 28.729,31 29,31 Z"
       id="path17" /><path
       inkscape:connector-curvature="0"
       style="fill:#005522"
       d="m 39,33 -16,0 c -0.553,0 -1,0.447 -1,1 0,0.553 0.447,1 1,1 l 16,0 c 0.553,0 1,-0.447 1,-1 0,-0.553 -0.447,-1 -1,-1 z"
       id="path19" /><path
       inkscape:connector-curvature="0"
       style="fill:#005522"
       d="M 18.29,33.29 C 18.109,33.479 18,33.739 18,34 c 0,0.26 0.109,0.52 0.29,0.71 0.189,0.18 0.439,0.29 0.71,0.29 0.27,0 0.52,-0.11 0.71,-0.29 C 19.89,34.52 20,34.26 20,34 c 0,-0.261 -0.11,-0.521 -0.29,-0.71 -0.37,-0.37 -1.04,-0.37 -1.42,0 z"
       id="path21" /></g><rect
     x="3"
     y="16.684021"
     style="fill:#005522"
     width="52"
     height="5.131659"
     id="rect23" /><g
     id="g25" /><g
     id="g27" /><g
     id="g29" /><g
     id="g31" /><g
     id="g33" /><g
     id="g35" /><g
     id="g37" /><g
     id="g39" /><g
     id="g41" /><g
     id="g43" /><g
     id="g45" /><g
     id="g47" /><g
     id="g49" /><g
     id="g51" /><g
     id="g53" /><g
     id="g3"
     transform="matrix(0.03278298,0,0,0.0331609,42.305077,0.18798291)"
     style="fill:#ffffff"><path
       d="m 181.955,151.63 0,242.608 L 0,394.238 0,151.63 c 15.282,-36.721 51.174,-60.651 90.978,-60.651 39.804,0 75.695,23.93 90.977,60.651 z m 212.279,-60.651 -60.652,0 0,121.304 -30.322,0 0,-121.304 0,-30.327 90.975,0 0,-60.651 -121.307,0 0,90.978 -99.175,0 c 15.427,12.975 28.075,29.499 36.216,48.983 l 2.312,5.628 0,248.647 30.325,0 0,90.976 90.976,0 0,-90.976 151.633,0 0,-242.607 C 469.931,114.909 434.036,90.979 394.234,90.979 Z"
       id="path5"
       inkscape:connector-curvature="0"
       style="fill:#ffffff" /></g></svg>