<?xml version="1.0" encoding="UTF-8" standalone="no"?>
<svg
   xmlns:dc="http://purl.org/dc/elements/1.1/"
   xmlns:cc="http://creativecommons.org/ns#"
   xmlns:rdf="http://www.w3.org/1999/02/22-rdf-syntax-ns#"
   xmlns:svg="http://www.w3.org/2000/svg"
   xmlns="http://www.w3.org/2000/svg"
   xmlns:sodipodi="http://sodipodi.sourceforge.net/DTD/sodipodi-0.dtd"
   xmlns:inkscape="http://www.inkscape.org/namespaces/inkscape"
   viewBox="0 0 64 64"
   id="svg2"
   version="1.1"
   inkscape:version="0.91 r13725"
   sodipodi:docname="dialog-error.svg">
  <metadata
     id="metadata23">
    <rdf:RDF>
      <cc:Work
         rdf:about="">
        <dc:format>image/svg+xml</dc:format>
        <dc:type
           rdf:resource="http://purl.org/dc/dcmitype/StillImage" />
        <dc:title></dc:title>
      </cc:Work>
    </rdf:RDF>
  </metadata>
  <sodipodi:namedview
     pagecolor="#ffffff"
     bordercolor="#666666"
     borderopacity="1"
     objecttolerance="10"
     gridtolerance="10"
     guidetolerance="10"
     inkscape:pageopacity="0"
     inkscape:pageshadow="2"
     inkscape:window-width="1280"
     inkscape:window-height="694"
     id="namedview21"
     showgrid="false"
     inkscape:zoom="3.6875"
     inkscape:cx="-12.20339"
     inkscape:cy="32"
     inkscape:window-x="0"
     inkscape:window-y="0"
     inkscape:window-maximized="1"
     inkscape:current-layer="svg2" />
  <defs
     id="defs4">
    <linearGradient
       y2="161.29"
       x2="0"
       y1="218.22"
       gradientUnits="userSpaceOnUse"
       id="0"
       gradientTransform="matrix(0.92857,0,0,0.92857,-666.94,-144.37)">
      <stop
         stop-color="#c52828"
         id="stop7" />
      <stop
         offset="1"
         stop-color="#ff5454"
         id="stop9" />
    </linearGradient>
  </defs>
  <g
     style="fill:#ff2a2a;fill-opacity:0.85100002"
     id="g15"
     transform="matrix(2.1557455,0,0,2.3514587,-1589.5271,-413.94853)">
    <path
       inkscape:connector-curvature="0"
       id="path17"
       d="m 739.54,180.23 c 0,-2.166 1.756,-3.922 3.922,-3.922 2.165,0 3.922,1.756 3.922,3.922 0,2.167 -1.756,3.923 -3.922,3.923 -2.166,0 -3.922,-1.756 -3.922,-3.923 m 17.784,0 c 0,-2.166 1.758,-3.922 3.923,-3.922 2.165,0 3.922,1.756 3.922,3.922 0,2.167 -1.756,3.923 -3.922,3.923 -2.166,0 -3.923,-1.756 -3.923,-3.923"
       style="fill:#ff2a2a" />
    <path
       inkscape:connector-curvature="0"
       id="path19"
       d="m 766.89,200.51 c -2.431,-5.621 -8.123,-9.253 -14.502,-9.253 -6.516,0 -12.242,3.65 -14.588,9.3 -0.402,0.967 0.056,2.078 1.025,2.48 0.238,0.097 0.485,0.144 0.727,0.144 0.744,0 1.45,-0.44 1.753,-1.17 1.756,-4.229 6.107,-6.96 11.08,-6.96 4.864,0 9.189,2.733 11.02,6.965 0.416,0.962 1.533,1.405 2.495,0.989 0.961,-0.417 1.405,-1.533 0.989,-2.495"
       style="fill:#ff2a2a" />
  </g>
</svg>
