<?xml version="1.0" encoding="UTF-8" standalone="no"?>
<svg
   xmlns:dc="http://purl.org/dc/elements/1.1/"
   xmlns:cc="http://creativecommons.org/ns#"
   xmlns:rdf="http://www.w3.org/1999/02/22-rdf-syntax-ns#"
   xmlns:svg="http://www.w3.org/2000/svg"
   xmlns="http://www.w3.org/2000/svg"
   xmlns:sodipodi="http://sodipodi.sourceforge.net/DTD/sodipodi-0.dtd"
   xmlns:inkscape="http://www.inkscape.org/namespaces/inkscape"
   viewBox="0 0 64 64"
   id="svg2"
   version="1.1"
   inkscape:version="0.91 r13725"
   sodipodi:docname="media-playlist-shuffle.svg">
  <metadata
     id="metadata21">
    <rdf:RDF>
      <cc:Work
         rdf:about="">
        <dc:format>image/svg+xml</dc:format>
        <dc:type
           rdf:resource="http://purl.org/dc/dcmitype/StillImage" />
        <dc:title></dc:title>
      </cc:Work>
    </rdf:RDF>
  </metadata>
  <sodipodi:namedview
     pagecolor="#ffffff"
     bordercolor="#666666"
     borderopacity="1"
     objecttolerance="10"
     gridtolerance="10"
     guidetolerance="10"
     inkscape:pageopacity="0"
     inkscape:pageshadow="2"
     inkscape:window-width="1280"
     inkscape:window-height="694"
     id="namedview19"
     showgrid="false"
     inkscape:zoom="3.6875"
     inkscape:cx="2.0457405"
     inkscape:cy="32"
     inkscape:window-x="0"
     inkscape:window-y="0"
     inkscape:window-maximized="1"
     inkscape:current-layer="svg2" />
  <defs
     id="defs4">
    <clipPath
       id="clipPath6">
      <path
         fill="#f2f2f2"
         d="m7 1023.36h1v1h-1z"
         id="path8" />
    </clipPath>
    <linearGradient
       id="0"
       gradientUnits="userSpaceOnUse"
       y1="222"
       x2="0"
       y2="168"
       gradientTransform="matrix(1.1271172,0,0,1.1319598,-846.59777,-188.82492)">
      <stop
         stop-color="#197ff1"
         id="stop11" />
      <stop
         offset="1"
         stop-color="#21c6fb"
         id="stop13" />
    </linearGradient>
  </defs>
  <ellipse
     cx="32.136627"
     cy="32.269485"
     id="circle15"
     style="fill:#2a7fff"
     rx="31.559282"
     ry="31.694876" />
  <path
     d="m 57.15178,31.69339 6.066101,5.943331 -6.066101,5.94333 0,-3.962219 -5.33817,0 c 3.04e-4,0.0039 -2.53563,4.144481 -4.886245,7.964062 l 4.886245,7.86897 5.33817,0 0,-3.962221 6.066101,5.943331 -6.066101,5.943331 0,-3.96222 -6.787968,0 c 0,0 -2.708514,-4.433725 -5.344235,-8.720849 -2.635722,4.287124 -5.344236,8.720849 -5.344236,8.720849 l -6.787968,0 0,-3.962221 5.338169,0 4.886245,-7.86897 C 40.75814,43.746465 38.222509,39.657453 38.225542,39.617832 l -5.338169,0 0,-3.962221 6.630249,0 5.501955,8.867448 5.501953,-8.867448 6.63025,0 0,-3.962221"
     id="path17"
     style="fill:#d5e5ff;fill-opacity:1"
     inkscape:connector-curvature="0" />
</svg>
