<?xml version="1.0" encoding="UTF-8" standalone="no"?>
<!-- Generator: Adobe Illustrator 19.1.0, SVG Export Plug-In . SVG Version: 6.00 Build 0)  -->

<svg
   xmlns:dc="http://purl.org/dc/elements/1.1/"
   xmlns:cc="http://creativecommons.org/ns#"
   xmlns:rdf="http://www.w3.org/1999/02/22-rdf-syntax-ns#"
   xmlns:svg="http://www.w3.org/2000/svg"
   xmlns="http://www.w3.org/2000/svg"
   xmlns:sodipodi="http://sodipodi.sourceforge.net/DTD/sodipodi-0.dtd"
   xmlns:inkscape="http://www.inkscape.org/namespaces/inkscape"
   version="1.1"
   id="Capa_1"
   x="0px"
   y="0px"
   viewBox="0 0 421.197 421.197"
   style="enable-background:new 0 0 421.197 421.197;"
   xml:space="preserve"
   inkscape:version="0.91 r13725"
   sodipodi:docname="meeting-participant-reply.svg"><metadata
     id="metadata169"><rdf:RDF><cc:Work
         rdf:about=""><dc:format>image/svg+xml</dc:format><dc:type
           rdf:resource="http://purl.org/dc/dcmitype/StillImage" /><dc:title></dc:title></cc:Work></rdf:RDF></metadata><defs
     id="defs167" /><sodipodi:namedview
     pagecolor="#ffffff"
     bordercolor="#666666"
     borderopacity="1"
     objecttolerance="10"
     gridtolerance="10"
     guidetolerance="10"
     inkscape:pageopacity="0"
     inkscape:pageshadow="2"
     inkscape:window-width="1280"
     inkscape:window-height="694"
     id="namedview165"
     showgrid="false"
     inkscape:zoom="0.5603079"
     inkscape:cx="-80.312986"
     inkscape:cy="210.5985"
     inkscape:window-x="0"
     inkscape:window-y="0"
     inkscape:window-maximized="1"
     inkscape:current-layer="Capa_1" /><g
     id="g3"
     transform="matrix(1.224159,0,0,1,-46.315293,0)"><g
       id="g5"><path
         style="fill:#ffd7a3"
         d="m 138.212,261.462 c 14.716,-9.475 13.07,-37.675 13.07,-44.255 l 118.446,0 c 0,6.58 -1.825,34.78 12.89,44.255 l -72.113,80.771 -72.293,-80.771 z"
         id="path7"
         inkscape:connector-curvature="0" /></g><g
       id="g9"><path
         style="fill:#fdc88e"
         d="m 256.568,289.59 26.051,-28.129 c -14.716,-9.474 -12.89,-37.675 -12.89,-44.255 l -118.446,0 c 8.498,24.433 64.706,66.352 105.285,72.384 z"
         id="path11"
         inkscape:connector-curvature="0" /></g><g
       id="g13"><path
         style="fill:#ffe1b2"
         d="m 302.63,131.663 c 0,52.696 -30.343,118.446 -92.124,118.446 -61.781,0 -92.124,-65.75 -92.124,-118.446 0,-52.696 41.246,-72.384 92.124,-72.384 50.878,0 92.124,19.688 92.124,72.384 z"
         id="path15"
         inkscape:connector-curvature="0" /></g><g
       id="g17"><path
         style="fill:#a2cde2"
         d="m 361.853,421.197 c 10.903,0 19.741,-8.838 19.741,-19.741 l 0,-63.463 c 0,-28.954 -22.562,-59.864 -50.138,-68.687 l -41.168,-13.173 c -22.149,16.936 -53.802,40.039 -79.782,40.039 -25.98,0 -57.633,-23.103 -79.782,-40.039 l -41.168,13.173 c -27.576,8.823 -50.138,39.733 -50.138,68.687 l 0,63.463 c 0,10.903 8.838,19.741 19.741,19.741 l 302.694,0 z"
         id="path19"
         inkscape:connector-curvature="0" /></g><g
       id="g21"><path
         style="fill:#545465"
         d="m 171.024,19.797 c -6.169,0 -6.875,0 -13.161,0 -25.439,0 -46.062,20.856 -46.062,46.296 0,23.62 6.58,65.57 6.58,65.57 0,0 7.403,-33.313 39.482,-46.062 19.604,-7.792 13.161,-65.804 13.161,-65.804 z"
         id="path23"
         inkscape:connector-curvature="0" /></g><g
       id="g25"><path
         style="fill:#545465"
         d="m 164.444,20.031 c 26.458,-40.675 94.592,-6.814 138.187,-6.814 6.58,9.459 11.104,81.02 0,118.446 L 282.89,98.761 c 0,0 -60.32,22.168 -125.026,-12.927"
         id="path27"
         inkscape:connector-curvature="0" /></g><g
       id="g29"><path
         style="fill:#ffe1b2"
         d="m 121.547,144.823 c -9.864,-2.468 -16.326,2.805 -16.326,13.161 0,13.709 13.265,47.296 27.21,26.321 13.945,-20.975 -10.884,-39.482 -10.884,-39.482 z"
         id="path31"
         inkscape:connector-curvature="0" /></g><g
       id="g33"><path
         style="fill:#ffe1b2"
         d="m 297.97,144.823 c 10.767,-2.468 17.821,2.805 17.821,13.161 0,13.709 -14.479,47.296 -29.701,26.321 -15.222,-20.975 11.88,-39.482 11.88,-39.482 z"
         id="path35"
         inkscape:connector-curvature="0" /></g><g
       id="g37"><path
         style="fill:#29394a"
         d="m 223.666,316.282 c 0,3.619 -2.961,6.58 -6.58,6.58 l -13.161,0 c -3.619,0 -6.58,-2.961 -6.58,-6.58 l 0,-13.161 c 0,-3.619 2.961,-6.58 6.58,-6.58 l 13.161,0 c 3.619,0 6.58,2.961 6.58,6.58 l 0,13.161 z"
         id="path39"
         inkscape:connector-curvature="0" /></g><g
       id="g41"><polygon
         style="fill:#29394a"
         points="201.465,319.161 197.345,420.798 223.666,420.798 219.546,319.161 210.506,322.862 "
         id="polygon43" /></g><g
       id="g45"><path
         style="fill:#b5e0f0"
         d="m 210.506,296.171 -27.456,27.456 c -2.859,2.859 -7.596,2.487 -9.975,-0.783 l -48.113,-66.156 15.326,-15.326 c 2.475,-2.475 6.454,-2.579 9.055,-0.238 l 61.163,55.047 z"
         id="path47"
         inkscape:connector-curvature="0" /></g><g
       id="g49"><path
         style="fill:#b5e0f0"
         d="m 210.506,296.171 27.456,27.456 c 2.859,2.859 7.596,2.487 9.975,-0.783 l 48.113,-66.156 -15.326,-15.326 c -2.475,-2.475 -6.454,-2.579 -9.055,-0.238 l -61.163,55.047 z"
         id="path51"
         inkscape:connector-curvature="0" /></g><g
       id="g53"><path
         style="fill:#4a698e"
         d="m 331.641,269.305 -35.877,-11.48 -0.002,0 -85.163,105.012 -85.164,-105.012 -0.002,0 -35.877,11.48 c -27.576,8.823 -50.138,39.733 -50.138,68.687 l 0,63.464 c 0,10.108 7.627,18.347 17.423,19.507 l 153.48,0 0.556,0 153.48,0 c 9.797,-1.16 17.423,-9.399 17.423,-19.507 l 0,-63.464 c -10e-4,-28.954 -22.563,-59.864 -50.139,-68.687 z"
         id="path55"
         inkscape:connector-curvature="0" /></g><g
       id="g57"><g
         id="g59"><polygon
           style="fill:#416185"
           points="265.29,295.398 258.71,303.513 258.71,420.963 265.29,420.963 "
           id="polygon61" /></g><g
         id="g63"><polygon
           style="fill:#416185"
           points="224.169,346.104 217.589,354.218 217.589,420.963 224.169,420.963 "
           id="polygon65" /></g><g
         id="g67"><polygon
           style="fill:#416185"
           points="244.73,320.751 238.149,328.865 238.149,420.963 244.73,420.963 "
           id="polygon69" /></g><g
         id="g71"><polygon
           style="fill:#416185"
           points="306.411,261.232 299.831,259.126 299.831,420.963 306.411,420.963 "
           id="polygon73" /></g><g
         id="g75"><polygon
           style="fill:#416185"
           points="203.609,354.218 197.028,346.104 197.028,420.963 203.609,420.963 "
           id="polygon77" /></g><g
         id="g79"><path
           style="fill:#416185"
           d="m 340.952,273.236 0,147.727 6.58,0 0,-143.801 c -2.136,-1.44 -4.328,-2.756 -6.58,-3.926 z"
           id="path81"
           inkscape:connector-curvature="0" /></g><g
         id="g83"><polygon
           style="fill:#416185"
           points="326.972,420.963 326.972,267.811 320.392,265.705 320.392,420.963 "
           id="polygon85" /></g><g
         id="g87"><polygon
           style="fill:#416185"
           points="285.851,420.963 285.851,270.045 279.271,278.16 279.271,420.963 "
           id="polygon89" /></g><g
         id="g91"><polygon
           style="fill:#416185"
           points="100.806,265.705 94.225,267.811 94.225,420.963 100.806,420.963 "
           id="polygon93" /></g><g
         id="g95"><polygon
           style="fill:#416185"
           points="183.048,328.865 176.468,320.751 176.468,420.963 183.048,420.963 "
           id="polygon97" /></g><g
         id="g99"><path
           style="fill:#416185"
           d="m 53.104,297.635 0,122.499 c 1.202,0.386 2.447,0.676 3.736,0.829 l 2.844,0 0,-131.592 c -2.361,2.609 -4.563,5.367 -6.58,8.264 z"
           id="path101"
           inkscape:connector-curvature="0" /></g><g
         id="g103"><path
           style="fill:#416185"
           d="m 361.513,420.963 2.844,0 c 1.29,-0.153 2.535,-0.443 3.737,-0.829 l 0,-122.499 c -2.017,-2.897 -4.219,-5.655 -6.58,-8.264 l 0,131.592 z"
           id="path105"
           inkscape:connector-curvature="0" /></g><g
         id="g107"><path
           style="fill:#416185"
           d="m 73.665,277.162 0,143.801 6.58,0 0,-147.727 c -2.252,1.17 -4.444,2.486 -6.58,3.926 z"
           id="path109"
           inkscape:connector-curvature="0" /></g><g
         id="g111"><polygon
           style="fill:#416185"
           points="162.487,303.513 155.907,295.399 155.907,420.963 162.487,420.963 "
           id="polygon113" /></g><g
         id="g115"><polygon
           style="fill:#416185"
           points="141.926,278.16 135.346,270.046 135.346,420.963 141.926,420.963 "
           id="polygon117" /></g><g
         id="g119"><polygon
           style="fill:#416185"
           points="121.366,420.963 121.366,259.126 114.786,261.232 114.786,420.963 "
           id="polygon121" /></g></g><g
       id="g123"><path
         style="fill:#395a7f"
         d="m 97.824,297.262 23.127,2.891 0,17.017 c 0,2.127 1.028,4.122 2.759,5.357 l 86.795,61.902 0.093,-21.592 -85.637,-106.148 -32.901,12.036 0,22.008 c 0,3.318 2.471,6.117 5.764,6.529 z"
         id="path125"
         inkscape:connector-curvature="0" /></g><g
       id="g127"><path
         style="fill:#395a7f"
         d="m 323.19,297.262 -23.127,2.891 0,17.017 c 0,2.127 -1.028,4.122 -2.759,5.357 l -86.795,61.902 -0.093,-21.592 85.637,-106.148 32.902,12.036 0,22.008 c -10e-4,3.318 -2.472,6.117 -5.765,6.529 z"
         id="path129"
         inkscape:connector-curvature="0" /></g><g
       id="g131"><polygon
         style="fill:#395a7f"
         points="207.49,420.963 210.415,420.963 213.341,420.963 219.373,369.98 210.415,370.563 201.458,369.98 "
         id="polygon133" /></g></g><g
     id="g135" /><g
     id="g137" /><g
     id="g139" /><g
     id="g141" /><g
     id="g143" /><g
     id="g145" /><g
     id="g147" /><g
     id="g149" /><g
     id="g151" /><g
     id="g153" /><g
     id="g155" /><g
     id="g157" /><g
     id="g159" /><g
     id="g161" /><g
     id="g163" /><path
     d="m 417.26389,418.74105 c 5.25154,-7.83063 5.63393,-32.79968 0.76472,-51.55676 C 407.52546,326.51346 384.7092,289.05995 351.28777,257.4541 l -13.23091,-12.52499 60.95391,-51.21279 -185.05415,0 c -0.1021,3.0554 0,147.40627 0,147.40627 l 65.05832,-47.429 c 11.24239,3.41956 72.60425,49.73573 89.32771,67.37991 11.39538,12.03938 24.80478,32.13194 31.78982,47.65158 7.46946,16.5921 11.29343,18.79762 17.18232,9.99577 z"
     id="path26"
     inkscape:connector-curvature="0"
     style="fill:#aaccff;fill-opacity:1;stroke:none;stroke-width:0.75919235;stroke-linecap:round;stroke-linejoin:round" /></svg>