<?xml version="1.0" encoding="UTF-8" standalone="no"?>
<svg
   xmlns:dc="http://purl.org/dc/elements/1.1/"
   xmlns:cc="http://creativecommons.org/ns#"
   xmlns:rdf="http://www.w3.org/1999/02/22-rdf-syntax-ns#"
   xmlns:svg="http://www.w3.org/2000/svg"
   xmlns="http://www.w3.org/2000/svg"
   xmlns:sodipodi="http://sodipodi.sourceforge.net/DTD/sodipodi-0.dtd"
   xmlns:inkscape="http://www.inkscape.org/namespaces/inkscape"
   viewBox="0 0 64 64"
   id="svg2"
   version="1.1"
   inkscape:version="0.91 r13725"
   sodipodi:docname="task-reject.svg">
  <metadata
     id="metadata17">
    <rdf:RDF>
      <cc:Work
         rdf:about="">
        <dc:format>image/svg+xml</dc:format>
        <dc:type
           rdf:resource="http://purl.org/dc/dcmitype/StillImage" />
        <dc:title></dc:title>
      </cc:Work>
    </rdf:RDF>
  </metadata>
  <sodipodi:namedview
     pagecolor="#ffffff"
     bordercolor="#666666"
     borderopacity="1"
     objecttolerance="10"
     gridtolerance="10"
     guidetolerance="10"
     inkscape:pageopacity="0"
     inkscape:pageshadow="2"
     inkscape:window-width="1280"
     inkscape:window-height="694"
     id="namedview15"
     showgrid="false"
     inkscape:zoom="3.6875"
     inkscape:cx="0.56077915"
     inkscape:cy="32"
     inkscape:window-x="0"
     inkscape:window-y="0"
     inkscape:window-maximized="1"
     inkscape:current-layer="svg2" />
  <defs
     id="defs4">
    <linearGradient
       y2="157.23"
       x2="0"
       y1="211.23"
       gradientUnits="userSpaceOnUse"
       id="0"
       gradientTransform="matrix(1.1319598,0,0,1.1319598,-838.04711,-176.90559)">
      <stop
         stop-color="#c52828"
         id="stop7" />
      <stop
         offset="1"
         stop-color="#ff5454"
         id="stop9" />
    </linearGradient>
  </defs>
  <circle
     cy="31.997597"
     cx="32.271503"
     id="circle11"
     style="fill:#ff5555"
     r="31.694876" />
  <path
     d="m 54.991396,47.983909 7.86036,-7.793245 c 0.499567,-0.495303 0.74843,-1.094783 0.74843,-1.802096 0,-0.707314 -0.248863,-1.306795 -0.74843,-1.802097 L 59.216523,32.98045 c -0.499567,-0.495302 -1.10421,-0.742039 -1.817615,-0.742039 -0.713407,0 -1.319893,0.246737 -1.817616,0.742039 L 47.720931,40.773695 39.86057,32.98045 c -0.499568,-0.495302 -1.104211,-0.742039 -1.817615,-0.742039 -0.713406,0 -1.31805,0.246737 -1.817616,0.742039 l -3.637076,3.606021 c -0.49957,0.495302 -0.748431,1.094783 -0.748431,1.802097 0,0.707313 0.248861,1.306793 0.748431,1.802096 l 7.86036,7.793245 -7.86036,7.793244 c -0.49957,0.495303 -0.748431,1.094783 -0.748431,1.802097 0,0.707314 0.248861,1.306794 0.748431,1.802096 l 3.637076,3.604194 c 0.499566,0.495301 1.106053,0.742039 1.817616,0.742039 0.713404,0 1.318047,-0.246738 1.817615,-0.742039 l 7.860361,-7.793246 7.860361,7.793246 c 0.499566,0.495301 1.104209,0.742039 1.817616,0.742039 0.713405,0 1.318048,-0.246738 1.817615,-0.742039 l 3.635233,-3.604194 c 0.499567,-0.495302 0.74843,-1.094782 0.74843,-1.802096 0,-0.707314 -0.248863,-1.306794 -0.74843,-1.802097 l -7.86036,-7.793244"
     id="path13"
     inkscape:connector-curvature="0"
     style="fill:#ffd5d5;fill-opacity:1" />
</svg>
