<?xml version="1.0" encoding="UTF-8" standalone="no"?>
<svg
   xmlns:dc="http://purl.org/dc/elements/1.1/"
   xmlns:cc="http://creativecommons.org/ns#"
   xmlns:rdf="http://www.w3.org/1999/02/22-rdf-syntax-ns#"
   xmlns:svg="http://www.w3.org/2000/svg"
   xmlns="http://www.w3.org/2000/svg"
   xmlns:xlink="http://www.w3.org/1999/xlink"
   xmlns:sodipodi="http://sodipodi.sourceforge.net/DTD/sodipodi-0.dtd"
   xmlns:inkscape="http://www.inkscape.org/namespaces/inkscape"
   viewBox="0 0 64 64"
   id="svg2"
   version="1.1"
   inkscape:version="0.91 r13725"
   sodipodi:docname="weather-hail.svg">
  <metadata
     id="metadata42">
    <rdf:RDF>
      <cc:Work
         rdf:about="">
        <dc:format>image/svg+xml</dc:format>
        <dc:type
           rdf:resource="http://purl.org/dc/dcmitype/StillImage" />
        <dc:title></dc:title>
      </cc:Work>
    </rdf:RDF>
  </metadata>
  <sodipodi:namedview
     pagecolor="#ffffff"
     bordercolor="#666666"
     borderopacity="1"
     objecttolerance="10"
     gridtolerance="10"
     guidetolerance="10"
     inkscape:pageopacity="0"
     inkscape:pageshadow="2"
     inkscape:window-width="1280"
     inkscape:window-height="694"
     id="namedview40"
     showgrid="false"
     inkscape:zoom="3.6875"
     inkscape:cx="-44.022394"
     inkscape:cy="32"
     inkscape:window-x="0"
     inkscape:window-y="0"
     inkscape:window-maximized="1"
     inkscape:current-layer="svg2" />
  <defs
     id="defs4">
    <linearGradient
       xlink:href="#1"
       id="9"
       x1="-507.77"
       y1="-173.24"
       x2="-507.37"
       y2="-177.8"
       gradientUnits="userSpaceOnUse"
       gradientTransform="matrix(0.61422,0,0,0.61422,352.93,157.94)" />
    <linearGradient
       xlink:href="#1"
       id="6"
       x1="-528.19"
       y1="-163.98"
       x2="-527.6"
       y2="-170.72"
       gradientUnits="userSpaceOnUse"
       gradientTransform="matrix(0.61422,0,0,0.61422,352.93,157.94)" />
    <linearGradient
       xlink:href="#1"
       id="8"
       x1="-512.8"
       y1="-185.53"
       x2="-512.4"
       y2="-190.09"
       gradientUnits="userSpaceOnUse"
       gradientTransform="matrix(0.61422,0,0,0.61422,352.93,157.94)" />
    <linearGradient
       xlink:href="#1"
       id="7"
       x1="-538.68"
       y1="-169.54"
       x2="-538.29"
       y2="-174.1"
       gradientUnits="userSpaceOnUse"
       gradientTransform="matrix(0.61422,0,0,0.61422,352.93,157.94)" />
    <linearGradient
       xlink:href="#1"
       id="5"
       x1="-528.01"
       y1="-179.91"
       x2="-527.26"
       y2="-188.48"
       gradientUnits="userSpaceOnUse"
       gradientTransform="matrix(0.61422,0,0,0.61422,352.93,157.94)" />
    <linearGradient
       gradientTransform="matrix(2.7233056,0,0,2.7379317,-1043.6871,-1465.9213)"
       xlink:href="#1"
       id="0"
       gradientUnits="userSpaceOnUse"
       x1="395.72"
       y1="557.23"
       x2="395.48"
       y2="541.46" />
    <linearGradient
       gradientUnits="userSpaceOnUse"
       y2="-189.12"
       x2="-502.43"
       y1="-182.37"
       x1="-504.1"
       id="4"
       xlink:href="#1"
       gradientTransform="matrix(0.61422,0,0,0.61422,352.93,157.94)" />
    <linearGradient
       id="1">
      <stop
         stop-color="#add4e9"
         id="stop14" />
      <stop
         offset="1"
         stop-color="#f0fbfe"
         id="stop16" />
    </linearGradient>
    <linearGradient
       gradientUnits="userSpaceOnUse"
       y2="-177.54"
       x2="-520.73"
       y1="-170.61"
       x1="-521.31"
       id="3"
       xlink:href="#1"
       gradientTransform="matrix(0.61422,0,0,0.61422,352.93,157.94)" />
    <linearGradient
       gradientUnits="userSpaceOnUse"
       y2="-187.49"
       x2="-541.16"
       y1="-180.81"
       x1="-543.1"
       id="2"
       xlink:href="#1"
       gradientTransform="matrix(0.61422,0,0,0.61422,352.93,157.94)" />
  </defs>
  <g
     id="g3"
     transform="matrix(0.13258757,0,0,0.1351173,0.43580405,-0.30208997)">
    <path
       style="fill:#d1e7f8"
       d="m 173.551,472.49 c -11.028,0 -20,-8.972 -20,-20 0,-11.028 8.972,-20 20,-20 11.028,0 20,8.972 20,20 0,11.028 -8.972,20 -20,20 z"
       id="path5"
       inkscape:connector-curvature="0" />
    <path
       style="fill:#bddbff"
       d="m 311.076,472.49 c -11.028,0 -20,-8.972 -20,-20 0,-11.028 8.972,-20 20,-20 11.028,0 20,8.972 20,20 0,11.028 -8.972,20 -20,20 z"
       id="path7"
       inkscape:connector-curvature="0" />
    <path
       style="fill:#d1e7f8"
       d="m 104.788,402.49 c -11.028,0 -20,-8.972 -20,-20 0,-11.028 8.972,-20 20,-20 11.028,0 20,8.972 20,20 0,11.028 -8.972,20 -20,20 z"
       id="path9"
       inkscape:connector-curvature="0" />
    <path
       style="fill:#bddbff"
       d="m 379.839,402.49 c -11.028,0 -20,-8.972 -20,-20 0,-11.028 8.972,-20 20,-20 11.028,0 20,8.972 20,20 0,11.028 -8.972,20 -20,20 z"
       id="path11"
       inkscape:connector-curvature="0" />
    <path
       style="fill:#bddbff"
       d="m 242.313,362.49 c -11.028,0 -20,8.972 -20,20 0,11.028 8.972,20 20,20 11.028,0 20,-8.972 20,-20 0,-11.028 -8.972,-20 -20,-20 z"
       id="path13"
       inkscape:connector-curvature="0" />
    <path
       style="fill:#bddbff"
       d="m 238.063,3.637 c -12.659,0 -24.991,1.55 -36.81,4.467 C 145.791,21.797 101.695,65.748 88.72,122.44 38.476,130.616 0,174.315 0,226.831 0,285.149 47.445,332.594 105.763,332.594 l 132.3,0 0,-328.957 z"
       id="path15"
       inkscape:connector-curvature="0" />
    <path
       style="fill:#9bc9ff"
       d="M 387.407,122.44 C 371.667,53.668 310.135,3.637 238.063,3.637 l 0,328.958 132.3,0 c 58.318,0 105.763,-47.445 105.763,-105.763 0,-20.127 -5.657,-38.956 -15.457,-54.99 C 444.9,146.04 418.394,127.482 387.407,122.44 Z"
       id="path17"
       inkscape:connector-curvature="0" />
  </g>
</svg>
