<?xml version="1.0" encoding="UTF-8" standalone="no"?>
<svg
   xmlns:dc="http://purl.org/dc/elements/1.1/"
   xmlns:cc="http://creativecommons.org/ns#"
   xmlns:rdf="http://www.w3.org/1999/02/22-rdf-syntax-ns#"
   xmlns:svg="http://www.w3.org/2000/svg"
   xmlns="http://www.w3.org/2000/svg"
   xmlns:sodipodi="http://sodipodi.sourceforge.net/DTD/sodipodi-0.dtd"
   xmlns:inkscape="http://www.inkscape.org/namespaces/inkscape"
   viewBox="0 0 64 64"
   id="svg2"
   version="1.1"
   inkscape:version="0.91 r13725"
   sodipodi:docname="application-x-marble.svg">
  <metadata
     id="metadata19">
    <rdf:RDF>
      <cc:Work
         rdf:about="">
        <dc:format>image/svg+xml</dc:format>
        <dc:type
           rdf:resource="http://purl.org/dc/dcmitype/StillImage" />
        <dc:title></dc:title>
      </cc:Work>
    </rdf:RDF>
  </metadata>
  <sodipodi:namedview
     pagecolor="#ffffff"
     bordercolor="#666666"
     borderopacity="1"
     objecttolerance="10"
     gridtolerance="10"
     guidetolerance="10"
     inkscape:pageopacity="0"
     inkscape:pageshadow="2"
     inkscape:window-width="1280"
     inkscape:window-height="694"
     id="namedview17"
     showgrid="true"
     inkscape:zoom="3.6875"
     inkscape:cx="-12.20339"
     inkscape:cy="32"
     inkscape:window-x="0"
     inkscape:window-y="0"
     inkscape:window-maximized="1"
     inkscape:current-layer="svg2">
    <inkscape:grid
       type="xygrid"
       id="grid4147" />
  </sodipodi:namedview>
  <defs
     id="defs4">
    <linearGradient
       id="0"
       x1="-74.929"
       y1="52.2"
       x2="-75.26"
       y2="2.356"
       gradientUnits="userSpaceOnUse"
       gradientTransform="matrix(1.5387723,0,0,0.90478323,148.05422,-0.81094901)">
      <stop
         stop-color="#259ee1"
         id="stop7" />
      <stop
         offset="1"
         stop-color="#19b4fd"
         id="stop9" />
    </linearGradient>
  </defs>
  <rect
     style="fill:url(#0);stroke-width:1.22000003"
     id="rect13"
     rx="3.5780492"
     y="0.64933133"
     x="0.50955212"
     height="53.20911"
     width="62.983051" />
  <path
     style="fill:#aaccff;fill-opacity:0.85"
     inkscape:connector-curvature="0"
     id="path15"
     d="M 42.30583,34.333183 A 15.821297,14.751853 0 0 0 26.484532,49.085037 15.821297,14.751853 0 0 0 42.30583,63.83689 15.821297,14.751853 0 0 0 58.127127,49.085037 15.821297,14.751853 0 0 0 42.30583,34.333183 m -0.238758,6.073741 c 3.765469,0 6.816102,2.847108 6.817541,6.356707 0,0.264192 -0.02445,0.524362 -0.05897,0.780508 -0.569568,4.96601 -6.219209,10.700457 -6.219209,10.700457 -0.102119,0.103264 -0.199924,0.172999 -0.294851,0.219937 l -0.0057,0.0027 -0.191294,0.05499 -0.191294,-0.05499 -0.0029,-0.0027 c -0.09493,-0.04693 -0.195609,-0.113991 -0.297728,-0.219937 0,0 -5.733063,-5.723718 -6.315574,-10.689729 -0.03596,-0.260168 -0.05897,-0.521679 -0.05897,-0.791236 0,-3.51094 3.052072,-6.356707 6.817541,-6.356707 m 0,2.267762 c -2.417782,0 -4.385377,1.834594 -4.385377,4.088945 0,2.254352 1.967595,4.088946 4.385377,4.088946 2.417782,0 4.385376,-1.834594 4.385376,-4.088946 0,-2.254351 -1.967594,-4.088945 -4.385376,-4.088945" />
</svg>
