<?xml version="1.0" encoding="UTF-8" standalone="no"?>
<svg
   xmlns:dc="http://purl.org/dc/elements/1.1/"
   xmlns:cc="http://creativecommons.org/ns#"
   xmlns:rdf="http://www.w3.org/1999/02/22-rdf-syntax-ns#"
   xmlns:svg="http://www.w3.org/2000/svg"
   xmlns="http://www.w3.org/2000/svg"
   xmlns:sodipodi="http://sodipodi.sourceforge.net/DTD/sodipodi-0.dtd"
   xmlns:inkscape="http://www.inkscape.org/namespaces/inkscape"
   viewBox="0 0 64 64"
   id="svg2"
   version="1.1"
   inkscape:version="0.91 r13725"
   sodipodi:docname="application-x-blender.svg">
  <metadata
     id="metadata19">
    <rdf:RDF>
      <cc:Work
         rdf:about="">
        <dc:format>image/svg+xml</dc:format>
        <dc:type
           rdf:resource="http://purl.org/dc/dcmitype/StillImage" />
        <dc:title></dc:title>
      </cc:Work>
    </rdf:RDF>
  </metadata>
  <sodipodi:namedview
     pagecolor="#ffffff"
     bordercolor="#666666"
     borderopacity="1"
     objecttolerance="10"
     gridtolerance="10"
     guidetolerance="10"
     inkscape:pageopacity="0"
     inkscape:pageshadow="2"
     inkscape:window-width="1280"
     inkscape:window-height="694"
     id="namedview17"
     showgrid="true"
     inkscape:zoom="3.6875"
     inkscape:cx="-21.466677"
     inkscape:cy="32"
     inkscape:window-x="0"
     inkscape:window-y="0"
     inkscape:window-maximized="1"
     inkscape:current-layer="svg2">
    <inkscape:grid
       type="xygrid"
       id="grid4137" />
  </sodipodi:namedview>
  <defs
     id="defs4">
    <linearGradient
       id="0"
       x1="-74.929"
       y1="52.2"
       x2="-75.26"
       y2="2.356"
       gradientUnits="userSpaceOnUse"
       gradientTransform="matrix(1.07499,0,0,1.02929,113.079,0.074)">
      <stop
         stop-color="#f15f19"
         id="stop7" />
      <stop
         offset="1"
         stop-color="#fbb521"
         id="stop9" />
    </linearGradient>
  </defs>
  <rect
     style="fill:#ff6600"
     id="rect13"
     rx="3.6093988"
     y="0.65025425"
     x="0.23728909"
     height="52.936779"
     width="63.525421" />
  <path
     style="fill:#ffe6d5;fill-opacity:0.85"
     inkscape:connector-curvature="0"
     id="path15"
     d="m 42.094026,34.099603 a 2.157623,2.2054328 0 0 0 -1.22406,3.972977 l 2.450362,1.927853 -11.925487,0 a 2.157623,2.2054328 0 1 0 0,4.409201 l 5.407671,0 -8.831716,6.561838 a 2.157623,2.2054328 0 1 0 2.535013,3.565495 l 4.513095,-3.350999 a 11.506151,11.761111 0 0 0 -0.02808,0.574657 11.506151,11.761111 0 0 0 11.50723,11.762207 A 11.506151,11.761111 0 0 0 58.00528,51.760625 11.506151,11.761111 0 0 0 53.001691,42.059353 2.157623,2.2054328 0 0 0 52.84581,41.926135 l -9.347842,-7.350931 a 2.157623,2.2054328 0 0 0 -1.405511,-0.475399 m 4.405614,10.309896 A 7.1913483,7.3506981 0 0 1 53.689126,51.7601 7.1913483,7.3506981 0 0 1 46.498071,59.110505 7.1913483,7.3506981 0 0 1 39.30701,51.7601 7.1913483,7.3506981 0 0 1 46.498071,44.409701 m 0,4.41181 a 2.8765341,2.9402738 0 0 0 -2.87745,2.938589 2.8765341,2.9402738 0 0 0 2.87745,2.941203 2.8765341,2.9402738 0 0 0 2.877444,-2.941203 2.8765341,2.9402738 0 0 0 -2.877444,-2.938589" />
</svg>
