<?xml version="1.0" encoding="UTF-8" standalone="no"?>
<svg
   xmlns:dc="http://purl.org/dc/elements/1.1/"
   xmlns:cc="http://creativecommons.org/ns#"
   xmlns:rdf="http://www.w3.org/1999/02/22-rdf-syntax-ns#"
   xmlns:svg="http://www.w3.org/2000/svg"
   xmlns="http://www.w3.org/2000/svg"
   xmlns:sodipodi="http://sodipodi.sourceforge.net/DTD/sodipodi-0.dtd"
   xmlns:inkscape="http://www.inkscape.org/namespaces/inkscape"
   viewBox="0 0 64 64"
   id="svg2"
   version="1.1"
   inkscape:version="0.91 r13725"
   sodipodi:docname="text-x-opml+xml.svg">
  <metadata
     id="metadata24">
    <rdf:RDF>
      <cc:Work
         rdf:about="">
        <dc:format>image/svg+xml</dc:format>
        <dc:type
           rdf:resource="http://purl.org/dc/dcmitype/StillImage" />
        <dc:title></dc:title>
      </cc:Work>
    </rdf:RDF>
  </metadata>
  <sodipodi:namedview
     pagecolor="#ffffff"
     bordercolor="#666666"
     borderopacity="1"
     objecttolerance="10"
     gridtolerance="10"
     guidetolerance="10"
     inkscape:pageopacity="0"
     inkscape:pageshadow="2"
     inkscape:window-width="1280"
     inkscape:window-height="694"
     id="namedview22"
     showgrid="true"
     inkscape:zoom="3.6875"
     inkscape:cx="-56.763427"
     inkscape:cy="32"
     inkscape:window-x="0"
     inkscape:window-y="0"
     inkscape:window-maximized="1"
     inkscape:current-layer="svg2">
    <inkscape:grid
       type="xygrid"
       id="grid4140" />
  </sodipodi:namedview>
  <defs
     id="defs4">
    <linearGradient
       id="0"
       x1="-74.929"
       y1="52.2"
       x2="-75.26"
       y2="2.356"
       gradientUnits="userSpaceOnUse"
       gradientTransform="matrix(1.07499,0,0,1.02929,113.079,0.074)">
      <stop
         stop-color="#ff721a"
         id="stop7" />
      <stop
         offset="1"
         stop-color="#fbb521"
         id="stop9" />
    </linearGradient>
    <linearGradient
       id="1"
       x1="283.09"
       y1="773.44"
       x2="276.28"
       y2="-9.986"
       gradientUnits="userSpaceOnUse">
      <stop
         stop-color="#d3d3d3"
         id="stop12" />
      <stop
         offset="1"
         stop-color="#fcf9f9"
         id="stop14" />
    </linearGradient>
  </defs>
  <rect
     style="fill:#ffb380;stroke-width:1"
     id="rect13"
     rx="3.6093991"
     y="0.37906858"
     x="0.23728865"
     height="53.207966"
     width="63.525425" />
  <path
     style="fill:#ff6600"
     inkscape:connector-curvature="0"
     id="path20"
     d="m 29.538664,33.279424 c 2.64977,0 5.200754,0.325445 7.652723,0.975797 2.451972,0.650891 4.747277,1.571544 6.885914,2.762504 2.138467,1.190958 4.085288,2.619242 5.839951,4.284313 1.754835,1.665287 3.259799,3.512542 4.51484,5.541766 1.255038,2.029386 2.225231,4.207548 2.911145,6.534322 0.685913,2.326773 1.0283,4.747614 1.0283,7.261978 0,0.794045 -0.296299,1.472075 -0.889009,2.034685 -0.592712,0.562608 -1.307396,0.843564 -2.144165,0.843564 -0.836826,0 -1.55128,-0.281061 -2.144391,-0.843564 -0.592598,-0.562448 -0.888954,-1.24064 -0.888954,-2.034685 0,-1.985272 -0.27317,-3.89886 -0.819393,-5.74071 -0.546225,-1.841308 -1.313719,-3.562114 -2.301003,-5.161178 -0.987851,-1.59917 -2.172819,-3.054971 -3.55604,-4.367026 -1.38305,-1.312377 -2.916843,-2.437058 -4.602003,-3.374471 -1.685159,-0.937415 -3.497932,-1.665286 -5.438884,-2.183513 -1.940954,-0.518335 -3.957107,-0.777503 -6.049031,-0.777503 -0.836769,0 -1.551281,-0.281224 -2.14422,-0.843671 -0.592711,-0.562448 -0.889067,-1.240694 -0.889067,-2.034739 0,-0.794043 0.296356,-1.472074 0.889067,-2.034736 0.592654,-0.562395 1.307395,-0.84362 2.144164,-0.84362 m 0,10.885131 c 2.393862,0 4.64302,0.435728 6.746336,1.306648 2.103545,0.871458 3.940017,2.05128 5.508959,3.539897 1.569,1.488885 2.812588,3.231264 3.730368,5.227132 0.918349,1.996354 1.376955,4.130241 1.376955,6.402414 0,0.794042 -0.296299,1.472074 -0.888954,2.034684 -0.592712,0.562449 -1.307394,0.843564 -2.14439,0.843564 -0.83677,0 -1.551282,-0.281062 -2.144166,-0.843564 -0.59271,-0.56245 -0.889066,-1.240642 -0.889066,-2.034684 0,-1.477912 -0.296356,-2.867381 -0.889068,-4.168625 -0.59271,-1.301241 -1.400426,-2.437057 -2.423144,-3.407987 -1.022718,-0.970552 -2.219762,-1.736972 -3.591362,-2.299475 -1.371258,-0.56234 -2.835717,-0.843564 -4.392923,-0.843564 -0.83677,0 -1.551283,-0.28117 -2.144223,-0.843617 -0.59271,-0.562502 -0.889066,-1.240749 -0.889066,-2.034791 0,-0.794045 0.296356,-1.472075 0.889066,-2.034738 0.592712,-0.562557 1.307453,-0.843781 2.144223,-0.843781 m 5.57846,15.119707 c 0,0.57353 -0.110408,1.102839 -0.331222,1.588142 -0.220813,0.485411 -0.52298,0.909844 -0.9065,1.273834 -0.383518,0.363774 -0.836769,0.65035 -1.359749,0.860215 -0.52298,0.209486 -1.075016,0.314146 -1.656105,0.314146 -0.604335,0 -1.16218,-0.104777 -1.673538,-0.314146 -0.51136,-0.209486 -0.958799,-0.496495 -1.342318,-0.860215 -0.383519,-0.363939 -0.685913,-0.78853 -0.906501,-1.273834 -0.220813,-0.485303 -0.331219,-1.014612 -0.331219,-1.588142 0,-0.551256 0.110407,-1.075214 0.331219,-1.571547 0.220815,-0.496492 0.522982,-0.926599 0.906501,-1.290374 0.383519,-0.363936 0.830958,-0.650892 1.342318,-0.860214 0.511358,-0.209486 1.069203,-0.314311 1.673538,-0.314311 0.581089,0 1.133125,0.104821 1.656105,0.314311 0.52298,0.209593 0.976459,0.496278 1.359749,0.860214 0.38352,0.363828 0.685915,0.794045 0.9065,1.290374 0.220814,0.49617 0.331222,1.019964 0.331222,1.571547" />
</svg>
