<?xml version="1.0" encoding="UTF-8" standalone="no"?>
<svg
   xmlns:dc="http://purl.org/dc/elements/1.1/"
   xmlns:cc="http://creativecommons.org/ns#"
   xmlns:rdf="http://www.w3.org/1999/02/22-rdf-syntax-ns#"
   xmlns:svg="http://www.w3.org/2000/svg"
   xmlns="http://www.w3.org/2000/svg"
   xmlns:sodipodi="http://sodipodi.sourceforge.net/DTD/sodipodi-0.dtd"
   xmlns:inkscape="http://www.inkscape.org/namespaces/inkscape"
   viewBox="0 0 64 64"
   id="svg2"
   version="1.1"
   inkscape:version="0.91 r13725"
   sodipodi:docname="application-x-desktop.svg">
  <metadata
     id="metadata19">
    <rdf:RDF>
      <cc:Work
         rdf:about="">
        <dc:format>image/svg+xml</dc:format>
        <dc:type
           rdf:resource="http://purl.org/dc/dcmitype/StillImage" />
        <dc:title></dc:title>
      </cc:Work>
    </rdf:RDF>
  </metadata>
  <sodipodi:namedview
     pagecolor="#ffffff"
     bordercolor="#666666"
     borderopacity="1"
     objecttolerance="10"
     gridtolerance="10"
     guidetolerance="10"
     inkscape:pageopacity="0"
     inkscape:pageshadow="2"
     inkscape:window-width="1280"
     inkscape:window-height="694"
     id="namedview17"
     showgrid="true"
     inkscape:zoom="3.6875"
     inkscape:cx="-56.175474"
     inkscape:cy="32"
     inkscape:window-x="0"
     inkscape:window-y="0"
     inkscape:window-maximized="1"
     inkscape:current-layer="svg2">
    <inkscape:grid
       type="xygrid"
       id="grid4137" />
  </sodipodi:namedview>
  <defs
     id="defs4">
    <linearGradient
       id="0"
       x1="-74.929"
       y1="52.2"
       x2="-75.26"
       y2="2.356"
       gradientUnits="userSpaceOnUse"
       gradientTransform="matrix(1.07499,0,0,1.02929,113.079,0.074)">
      <stop
         stop-color="#8798a9"
         id="stop7" />
      <stop
         offset="1"
         stop-color="#aeb6be"
         id="stop9" />
    </linearGradient>
  </defs>
  <rect
     style="fill:#b3b3b3"
     id="rect13"
     rx="3.5939908"
     y="0.37906781"
     x="0.50847554"
     height="53.207962"
     width="63.254234" />
  <path
     style="fill:#666666;stroke:none;stroke-opacity:0.8"
     inkscape:connector-curvature="0"
     id="path15"
     d="m 45.126926,34.376615 -5.417814,0.470234 0,20.145773 5.359545,-0.731129 0,-8.588972 7.212708,9.529438 5.649743,-1.620036 -7.386369,-9.163357 7.443495,-8.641564 -5.769708,-1.19105 -7.154438,8.641563 0.05827,-8.849868 m -12.283193,4.910636 c -0.0617,0.0042 -0.127968,0.01959 -0.173662,0.06291 l -2.129651,1.922181 c -0.08912,0.08147 -0.100543,0.205211 -0.03427,0.303176 l 2.489545,3.709273 c -0.442155,0.670288 -0.800904,1.390075 -1.053401,2.152141 l -4.570066,0.856938 c -0.126814,0.02268 -0.219363,0.133027 -0.219363,0.250584 l 0,2.716215 c 0,0.114472 0.09711,0.213461 0.219363,0.240273 l 4.434107,0.971402 c 0.237643,0.882719 0.603248,1.727282 1.087675,2.497598 l -2.56952,3.531904 c -0.07198,0.099 -0.05713,0.229961 0.03427,0.313488 l 2.12965,1.922181 c 0.09026,0.08044 0.227361,0.09075 0.335901,0.03093 l 4.028513,-2.204733 c 0.790621,0.411454 1.645224,0.741441 2.546668,0.96109 l 0.938007,4.075353 c 0.02514,0.115502 0.135959,0.197993 0.266206,0.197993 l 3.009389,0 c 0.126813,0 0.236501,-0.07631 0.266206,-0.187681 l 1.111669,-4.095977 c 0.930008,-0.225836 1.806318,-0.562011 2.616362,-0.993058 l 3.971388,2.351166 c 0.109685,0.06496 0.254781,0.05156 0.347325,-0.03093 l 2.118226,-1.92218 c 0.09026,-0.08147 0.111967,-0.205212 0.04569,-0.303178 l -1.447568,-2.15214 -0.474145,0.13612 c -0.06856,0.01959 -0.143957,-0.001 -0.185087,-0.06291 0,0 -0.914013,-1.213737 -2.1068,-2.78943 -1.427003,2.519253 -4.335851,4.242409 -7.686852,4.242409 -4.762008,0 -8.624856,-3.48653 -8.624856,-7.784625 0,-3.161699 2.094232,-5.876882 5.093338,-7.094745 l 0,-2.005708 c -0.546123,0.172212 -1.072823,0.380517 -1.574388,0.626976 -1.14e-4,-1.03e-4 1.14e-4,-10e-4 0,-10e-4 l -4.063931,-2.403757 c -0.05484,-0.03196 -0.113108,-0.03712 -0.173662,-0.03093" />
</svg>
