<?xml version="1.0" encoding="UTF-8" standalone="no"?>
<svg
   xmlns:dc="http://purl.org/dc/elements/1.1/"
   xmlns:cc="http://creativecommons.org/ns#"
   xmlns:rdf="http://www.w3.org/1999/02/22-rdf-syntax-ns#"
   xmlns:svg="http://www.w3.org/2000/svg"
   xmlns="http://www.w3.org/2000/svg"
   xmlns:sodipodi="http://sodipodi.sourceforge.net/DTD/sodipodi-0.dtd"
   xmlns:inkscape="http://www.inkscape.org/namespaces/inkscape"
   viewBox="0 0 64 64"
   id="svg2"
   version="1.1"
   inkscape:version="0.91 r13725"
   sodipodi:docname="application-vnd.ms-excel.svg">
  <metadata
     id="metadata19">
    <rdf:RDF>
      <cc:Work
         rdf:about="">
        <dc:format>image/svg+xml</dc:format>
        <dc:type
           rdf:resource="http://purl.org/dc/dcmitype/StillImage" />
        <dc:title></dc:title>
      </cc:Work>
    </rdf:RDF>
  </metadata>
  <sodipodi:namedview
     pagecolor="#ffffff"
     bordercolor="#666666"
     borderopacity="1"
     objecttolerance="10"
     gridtolerance="10"
     guidetolerance="10"
     inkscape:pageopacity="0"
     inkscape:pageshadow="2"
     inkscape:window-width="1280"
     inkscape:window-height="694"
     id="namedview17"
     showgrid="true"
     inkscape:zoom="3.6875"
     inkscape:cx="-2.8572744"
     inkscape:cy="32"
     inkscape:window-x="0"
     inkscape:window-y="0"
     inkscape:window-maximized="1"
     inkscape:current-layer="svg2">
    <inkscape:grid
       type="xygrid"
       id="grid4137" />
  </sodipodi:namedview>
  <defs
     id="defs4">
    <linearGradient
       id="0"
       x1="-74.929"
       y1="52.2"
       x2="-75.26"
       y2="2.356"
       gradientUnits="userSpaceOnUse"
       gradientTransform="matrix(1.07499,0,0,1.02929,113.079,0.074)">
      <stop
         stop-color="#5dae33"
         id="stop7" />
      <stop
         offset="1"
         stop-color="#9be058"
         id="stop9" />
    </linearGradient>
  </defs>
  <rect
     style="fill:#71c837"
     id="rect13"
     rx="3.5785823"
     y="0.65025425"
     x="0.50847554"
     height="52.936779"
     width="62.983047" />
  <path
     style="color:#000000;fill:#c6e9af;fill-opacity:0.85"
     inkscape:connector-curvature="0"
     id="path15"
     d="m 44.37961,33.01695 -17.64439,3.239197 0,23.757894 17.64439,3.239197 z m 1.037763,2.159465 0,2.159465 4.152262,0 0,3.239197 -4.152262,0 0,1.079732 4.152262,0 0,3.239198 -4.152262,0 0,1.079732 4.152262,0 0,3.239198 -4.152262,0 0,1.079732 4.152262,0 0,3.239197 -4.152262,0 0,1.079733 4.152262,0 0,3.239197 -4.152262,0 0,2.159465 12.455576,0 0,-24.837626 z m 5.190025,2.159465 5.190025,0 0,3.239197 -5.190025,0 z m 0,4.320189 5.190025,0 0,3.239198 -5.190025,0 z m -11.773825,0.776097 c 0.188904,-0.0038 0.291833,-0.0076 0.291833,0 0,0.01638 -0.530385,1.272497 -1.200027,2.766736 l -1.232721,2.699961 1.232721,2.699961 c 0.669642,1.475341 1.200027,2.739018 1.200027,2.800753 0,0.12977 -0.894874,0.108351 -1.654124,-0.03402 -0.502534,-0.09323 -0.527963,-0.152448 -1.167331,-1.821812 -0.364489,-0.951223 -0.716868,-1.789055 -0.778625,-1.85583 -0.06176,-0.06678 -0.417769,0.653887 -0.778625,1.586211 -0.360856,0.931065 -0.697493,1.73236 -0.74593,1.789055 -0.04844,0.05544 -0.492847,0.05544 -1.005068,0 l -0.940889,-0.100792 1.135848,-2.497117 1.135848,-2.497118 -1.005068,-2.396325 c -0.550971,-1.321633 -1.005068,-2.504677 -1.005068,-2.599169 0,-0.104572 0.380231,-0.168827 0.973584,-0.168827 l 0.973584,0 0.550971,1.620229 c 0.309996,0.886968 0.623626,1.655506 0.681751,1.72102 0.05691,0.06551 0.443198,-0.723181 0.842803,-1.755037 l 0.713235,-1.85583 1.037763,-0.06803 c 0.285778,-0.01386 0.557026,-0.03024 0.74593,-0.03402 m 11.773825,3.542833 5.190025,0 0,3.239197 -5.190025,0 z m 0,4.32019 5.190025,0 0,3.239197 -5.190025,0 z m 0,4.320189 5.190025,0 0,3.239198 -5.190025,0 z" />
</svg>
