<?xml version="1.0" encoding="UTF-8" standalone="no"?>
<svg
   xmlns:dc="http://purl.org/dc/elements/1.1/"
   xmlns:cc="http://creativecommons.org/ns#"
   xmlns:rdf="http://www.w3.org/1999/02/22-rdf-syntax-ns#"
   xmlns:svg="http://www.w3.org/2000/svg"
   xmlns="http://www.w3.org/2000/svg"
   xmlns:sodipodi="http://sodipodi.sourceforge.net/DTD/sodipodi-0.dtd"
   xmlns:inkscape="http://www.inkscape.org/namespaces/inkscape"
   viewBox="0 0 64 64"
   id="svg2"
   version="1.1"
   inkscape:version="0.91 r13725"
   sodipodi:docname="application-x-lha.svg">
  <metadata
     id="metadata19">
    <rdf:RDF>
      <cc:Work
         rdf:about="">
        <dc:format>image/svg+xml</dc:format>
        <dc:type
           rdf:resource="http://purl.org/dc/dcmitype/StillImage" />
        <dc:title></dc:title>
      </cc:Work>
    </rdf:RDF>
  </metadata>
  <sodipodi:namedview
     pagecolor="#ffffff"
     bordercolor="#666666"
     borderopacity="1"
     objecttolerance="10"
     gridtolerance="10"
     guidetolerance="10"
     inkscape:pageopacity="0"
     inkscape:pageshadow="2"
     inkscape:window-width="1280"
     inkscape:window-height="694"
     id="namedview17"
     showgrid="true"
     inkscape:zoom="3.6875"
     inkscape:cx="-12.20339"
     inkscape:cy="32"
     inkscape:window-x="0"
     inkscape:window-y="0"
     inkscape:window-maximized="1"
     inkscape:current-layer="svg2">
    <inkscape:grid
       type="xygrid"
       id="grid4137" />
  </sodipodi:namedview>
  <defs
     id="defs4">
    <linearGradient
       id="0"
       x1="-74.929"
       y1="52.2"
       x2="-75.26"
       y2="2.356"
       gradientUnits="userSpaceOnUse"
       gradientTransform="matrix(1.07499,0,0,1.02929,113.079,0.074)">
      <stop
         stop-color="#ecc952"
         id="stop7" />
      <stop
         offset="1"
         stop-color="#ffe793"
         id="stop9" />
    </linearGradient>
  </defs>
  <rect
     style="fill:#ffe680"
     id="rect13"
     rx="3.6093991"
     y="0.65025425"
     x="0.50847554"
     height="52.936779"
     width="63.525421" />
  <path
     style="fill:#554400"
     inkscape:connector-curvature="0"
     id="path15"
     d="m 28.627023,34.642647 c -0.964605,0 -1.742308,0.649297 -1.742308,1.457605 l 0,26.238223 c 0,0.806983 0.776119,1.457605 1.742308,1.457605 l 27.87693,0 c 0.964605,0 1.745476,-0.649297 1.745476,-1.457605 l 0,-26.238223 c 0,-0.806983 -0.779287,-1.457605 -1.745476,-1.457605 l -27.87693,0 m 13.034049,0.809633 1.93713,0 c 0.429241,0 0.772951,0.288872 0.772951,0.646648 l 0,0.162986 c 0,0.359101 -0.345294,0.646646 -0.772951,0.646646 l -1.93713,0 c -0.429242,0 -0.772951,-0.28887 -0.772951,-0.646646 l 0,-0.162986 c 0,-0.359101 0.345293,-0.646648 0.772951,-0.646648 m -0.0064,2.106903 1.93713,0 c 0.429242,0 0.772951,0.290196 0.772951,0.649297 l 0,0.160336 c 0,0.359101 -0.345293,0.649297 -0.772951,0.649297 l -1.937128,0 c -0.429242,0 -0.77612,-0.290196 -0.77612,-0.649297 l 0,-0.160336 c 0,-0.359101 0.346878,-0.649297 0.77612,-0.649297 m -0.02217,2.083051 1.937131,0 c 0.429241,0 0.772951,0.28887 0.772951,0.646646 l 0,0.162987 c 0,0.359101 -0.345294,0.646647 -0.772951,0.646647 l -1.937131,0 c -0.429241,0 -0.776119,-0.288871 -0.776119,-0.646647 l 0,-0.162987 c 0,-0.359101 0.346878,-0.646646 0.776119,-0.646646 m 0.03643,2.169181 1.937128,0 c 0.429242,0 0.772953,0.288872 0.772953,0.646648 l 0,0.162986 c 0,0.359101 -0.345295,0.646647 -0.772953,0.646647 l -1.937128,0 c -0.429242,0 -0.772953,-0.288871 -0.772953,-0.646647 l 0,-0.162986 c 0,-0.359101 0.345295,-0.646648 0.772953,-0.646648 m 0,2.12943 1.937128,0 c 0.429242,0 0.772953,0.288871 0.772953,0.646646 l 0,0.162988 c 0,0.359101 -0.345295,0.646646 -0.772953,0.646646 l -1.937128,0 c -0.429242,0 -0.772953,-0.288871 -0.772953,-0.646646 l 0,-0.162988 c 0,-0.359101 0.345295,-0.646646 0.772953,-0.646646 m 0,2.179782 1.937128,0 c 0.429242,0 0.772953,0.290196 0.772953,0.649297 l 0,0.160337 c 0,0.359101 -0.345295,0.649297 -0.772953,0.649297 l -1.937128,0 c -0.429242,0 -0.772953,-0.290196 -0.772953,-0.649297 l 0,-0.160337 c 0,-0.359101 0.345295,-0.649297 0.772953,-0.649297 m 0.155223,2.20496 1.537983,0 c 0.305695,0 0.551203,0.206714 0.551203,0.463783 l 0,0.920941 0.853731,2.106903 c 0.239171,0.587018 0.125127,1.238965 -0.305697,1.743827 -0.430824,0.504861 -1.129331,0.806983 -1.869021,0.806983 -0.739689,0 -1.438196,-0.302122 -1.869022,-0.806983 -0.430824,-0.506187 -0.544866,-1.156809 -0.305694,-1.743827 l 0.85373,-2.106903 0,-0.920941 c 0,-0.255743 0.248675,-0.463783 0.554371,-0.463783 m -0.06811,3.084823 -0.285105,0.706276 c -0.123545,0.303447 -0.06495,0.640021 0.158391,0.901065 0.443497,0.520762 1.48413,0.520762 1.927626,0 0.221749,-0.261044 0.280355,-0.597618 0.158392,-0.901065 l -0.285105,-0.706276 -1.674199,0" />
</svg>
