<?xml version="1.0" encoding="UTF-8" standalone="no"?>
<svg
   xmlns:dc="http://purl.org/dc/elements/1.1/"
   xmlns:cc="http://creativecommons.org/ns#"
   xmlns:rdf="http://www.w3.org/1999/02/22-rdf-syntax-ns#"
   xmlns:svg="http://www.w3.org/2000/svg"
   xmlns="http://www.w3.org/2000/svg"
   xmlns:sodipodi="http://sodipodi.sourceforge.net/DTD/sodipodi-0.dtd"
   xmlns:inkscape="http://www.inkscape.org/namespaces/inkscape"
   viewBox="0 0 64 64"
   id="svg2"
   version="1.1"
   inkscape:version="0.91 r13725"
   sodipodi:docname="virtualbox-extpack.svg">
  <metadata
     id="metadata19">
    <rdf:RDF>
      <cc:Work
         rdf:about="">
        <dc:format>image/svg+xml</dc:format>
        <dc:type
           rdf:resource="http://purl.org/dc/dcmitype/StillImage" />
        <dc:title></dc:title>
      </cc:Work>
    </rdf:RDF>
  </metadata>
  <sodipodi:namedview
     pagecolor="#ffffff"
     bordercolor="#666666"
     borderopacity="1"
     objecttolerance="10"
     gridtolerance="10"
     guidetolerance="10"
     inkscape:pageopacity="0"
     inkscape:pageshadow="2"
     inkscape:window-width="1280"
     inkscape:window-height="694"
     id="namedview17"
     showgrid="true"
     inkscape:zoom="3.6875"
     inkscape:cx="-12.20339"
     inkscape:cy="32"
     inkscape:window-x="0"
     inkscape:window-y="0"
     inkscape:window-maximized="1"
     inkscape:current-layer="svg2">
    <inkscape:grid
       type="xygrid"
       id="grid4147" />
  </sodipodi:namedview>
  <defs
     id="defs4">
    <linearGradient
       id="0"
       x1="-74.929"
       y1="52.2"
       x2="-75.26"
       y2="2.356"
       gradientUnits="userSpaceOnUse"
       gradientTransform="matrix(1.5387762,0,0,0.90887575,148.05915,-1.2268021)">
      <stop
         stop-color="#54cf03"
         id="stop7" />
      <stop
         offset="1"
         stop-color="#83ef53"
         id="stop9" />
    </linearGradient>
  </defs>
  <rect
     style="fill:url(#0);stroke-width:1"
     id="rect13"
     rx="3.5785823"
     y="0.23988096"
     x="0.50847554"
     height="53.219154"
     width="62.983047" />
  <path
     style="fill:#d5ffd5;fill-opacity:0.847"
     inkscape:connector-curvature="0"
     id="path15"
     d="M 42.297405,33.830159 A 15.525758,14.847778 0 0 0 26.773101,48.678706 15.525758,14.847778 0 0 0 42.297405,63.525096 15.525758,14.847778 0 0 0 57.823968,48.678706 15.525758,14.847778 0 0 0 42.297405,33.830159 m 3.919466,6.611172 c 0.05646,0.0027 0.124203,0.02835 0.177837,0.04319 0.273812,0.07559 0.505282,0.299648 0.58432,0.562854 l 2.822806,9.85062 1.483386,-1.922073 c 0.151019,-0.213264 0.379666,-0.361738 0.649244,-0.368486 l 1.099483,0 0.495404,0 0.04234,0 c 0.03246,0 0.06774,0.03374 0.06774,0.06478 l 0,1.513092 c 0,0.03104 -0.03246,0.04319 -0.06492,0.04319 l -0.04517,0 -0.495404,0 -0.671827,0 -2.176383,2.893906 c -0.372611,0.469719 -1.301314,0.305047 -1.483386,-0.259156 l -2.580044,-8.770804 -1.774134,5.594796 c -0.108678,0.318545 -0.458706,0.534508 -0.807322,0.541258 l -1.234978,0 -0.248407,0 -0.605492,0 -0.223001,0 -0.628075,0 -2.402208,7.603253 c -0.119973,0.411679 -0.628075,0.685682 -1.054319,0.562853 -0.273811,-0.07559 -0.505281,-0.299649 -0.584319,-0.562853 l -2.851036,-9.870867 -1.457979,1.922073 c -0.15102,0.214612 -0.405072,0.337441 -0.673239,0.344191 l -1.0769,0 -0.539157,0 -0.06774,0 c -0.03246,0 -0.04517,-0.01213 -0.04517,-0.04319 l 0,-1.513093 c 0,-0.03104 0.01268,-0.06478 0.04517,-0.06478 l 0.06774,0 0.539157,0 0.673239,0 2.176383,-2.850714 c 0.372611,-0.468371 1.299902,-0.305049 1.480562,0.259156 l 2.560286,8.770804 1.793892,-5.616393 c 0.108678,-0.318546 0.438947,-0.556105 0.786152,-0.562853 l 1.257561,0 0.223001,0 0.605492,0 0.248407,0 0.605492,0 2.421967,-7.560061 c 0.09033,-0.309098 0.39237,-0.541258 0.718404,-0.58445 0.05505,-0.0068 0.100217,-0.02159 0.158077,-0.02159" />
</svg>
