<?xml version="1.0" encoding="UTF-8" standalone="no"?>
<!-- Generator: Adobe Illustrator 19.0.0, SVG Export Plug-In . SVG Version: 6.00 Build 0)  -->

<svg
   xmlns:dc="http://purl.org/dc/elements/1.1/"
   xmlns:cc="http://creativecommons.org/ns#"
   xmlns:rdf="http://www.w3.org/1999/02/22-rdf-syntax-ns#"
   xmlns:svg="http://www.w3.org/2000/svg"
   xmlns="http://www.w3.org/2000/svg"
   xmlns:sodipodi="http://sodipodi.sourceforge.net/DTD/sodipodi-0.dtd"
   xmlns:inkscape="http://www.inkscape.org/namespaces/inkscape"
   version="1.1"
   id="Capa_1"
   x="0px"
   y="0px"
   viewBox="0 0 59 59"
   style="enable-background:new 0 0 59 59;"
   xml:space="preserve"
   inkscape:version="0.91 r13725"
   sodipodi:docname="folder-black.svg"><metadata
     id="metadata55"><rdf:RDF><cc:Work
         rdf:about=""><dc:format>image/svg+xml</dc:format><dc:type
           rdf:resource="http://purl.org/dc/dcmitype/StillImage" /><dc:title></dc:title></cc:Work></rdf:RDF></metadata><defs
     id="defs53" /><sodipodi:namedview
     pagecolor="#ffffff"
     bordercolor="#666666"
     borderopacity="1"
     objecttolerance="10"
     gridtolerance="10"
     guidetolerance="10"
     inkscape:pageopacity="0"
     inkscape:pageshadow="2"
     inkscape:window-width="1280"
     inkscape:window-height="694"
     id="namedview51"
     showgrid="false"
     inkscape:zoom="4"
     inkscape:cx="1.2171946"
     inkscape:cy="29.5"
     inkscape:window-x="0"
     inkscape:window-y="0"
     inkscape:window-maximized="1"
     inkscape:current-layer="Capa_1" /><g
     id="g4156"
     transform="matrix(1.012931,0,0,1,-0.00646552,0)"><polygon
       id="polygon3"
       points="20.5,8 0.5,8 0.5,15 0.5,59 58.5,59 58.5,22 30.5,22 25.5,15 "
       style="fill:#333333" /><polygon
       id="polygon5"
       points="58.5,22 58.5,15 25.5,15 30.5,22 "
       style="fill:#666666" /><polygon
       id="polygon7"
       points="28.5,11 23.5,4 3.5,4 3.5,8 20.5,8 25.5,15 58.5,15 58.5,11 "
       style="fill:#1a1a1a" /><polygon
       id="polygon9"
       points="31.5,7 26.5,0 6.5,0 6.5,4 23.5,4 28.5,11 58.5,11 58.5,7 "
       style="fill:#000000" /><rect
       id="rect11"
       height="18"
       width="26"
       style="fill:#808080"
       y="36"
       x="27.5" /><g
       style="fill:#1a1a1a"
       id="g13"><rect
         id="rect15"
         height="2"
         width="10"
         style="fill:#1a1a1a"
         y="40"
         x="32.5" /><rect
         id="rect17"
         height="2"
         width="16"
         style="fill:#1a1a1a"
         y="44"
         x="32.5" /><rect
         id="rect19"
         height="2"
         width="16"
         style="fill:#1a1a1a"
         y="48"
         x="32.5" /></g></g><g
     id="g21" /><g
     id="g23" /><g
     id="g25" /><g
     id="g27" /><g
     id="g29" /><g
     id="g31" /><g
     id="g33" /><g
     id="g35" /><g
     id="g37" /><g
     id="g39" /><g
     id="g41" /><g
     id="g43" /><g
     id="g45" /><g
     id="g47" /><g
     id="g49" /></svg>