<?xml version="1.0" encoding="UTF-8" standalone="no"?>
<svg
   xmlns:dc="http://purl.org/dc/elements/1.1/"
   xmlns:cc="http://creativecommons.org/ns#"
   xmlns:rdf="http://www.w3.org/1999/02/22-rdf-syntax-ns#"
   xmlns:svg="http://www.w3.org/2000/svg"
   xmlns="http://www.w3.org/2000/svg"
   xmlns:xlink="http://www.w3.org/1999/xlink"
   xmlns:sodipodi="http://sodipodi.sourceforge.net/DTD/sodipodi-0.dtd"
   xmlns:inkscape="http://www.inkscape.org/namespaces/inkscape"
   viewBox="0 0 64 64"
   id="svg13202"
   version="1.1"
   inkscape:version="0.91 r13725"
   sodipodi:docname="folder-tar.svg">
  <metadata
     id="metadata13228">
    <rdf:RDF>
      <cc:Work
         rdf:about="">
        <dc:format>image/svg+xml</dc:format>
        <dc:type
           rdf:resource="http://purl.org/dc/dcmitype/StillImage" />
        <dc:title></dc:title>
      </cc:Work>
    </rdf:RDF>
  </metadata>
  <sodipodi:namedview
     pagecolor="#ffffff"
     bordercolor="#666666"
     borderopacity="1"
     objecttolerance="10"
     gridtolerance="10"
     guidetolerance="10"
     inkscape:pageopacity="0"
     inkscape:pageshadow="2"
     inkscape:window-width="1280"
     inkscape:window-height="694"
     id="namedview13226"
     showgrid="false"
     inkscape:zoom="3.6875"
     inkscape:cx="-1.0427059"
     inkscape:cy="32"
     inkscape:window-x="0"
     inkscape:window-y="0"
     inkscape:window-maximized="1"
     inkscape:current-layer="svg13202" />
  <defs
     id="defs13204">
    <linearGradient
       xlink:href="#1"
       id="3"
       x1="-19.915"
       y1="1048.7"
       x2="-19.996"
       y2="1025.51"
       gradientUnits="userSpaceOnUse"
       gradientTransform="translate(51.949,-1001.46)" />
    <linearGradient
       gradientUnits="userSpaceOnUse"
       y2="354.29"
       x2="-704.05"
       y1="647.77"
       x1="-701.19"
       id="2"
       gradientTransform="matrix(0.01590505,0,0,0.01845141,129.51168,-45.007092)">
      <stop
         stop-color="#93cfff"
         id="stop13208" />
      <stop
         offset="1"
         stop-color="#cde8fe"
         id="stop13210" />
    </linearGradient>
    <linearGradient
       xlink:href="#1"
       id="0"
       x1="59.12"
       y1="-13.295"
       x2="59.15"
       y2="-37.783"
       gradientUnits="userSpaceOnUse"
       gradientTransform="matrix(0.52660675,0,0,0.52570737,-19.441377,28.676662)" />
    <linearGradient
       id="1">
      <stop
         stop-color="#289bf7"
         id="stop13214" />
      <stop
         offset="1"
         stop-color="#71b9f1"
         id="stop13216" />
    </linearGradient>
  </defs>
  <g
     transform="matrix(1.0935126,0,0,1.1038041,0.28813575,-0.0103246)"
     id="g4158">
    <path
       id="path3"
       d="m 58,16.694284 -58,0 L 0,2.3625868 C 0,1.2028319 0.916,0.26271195 2.046,0.26271195 l 53.908,0 c 1.13,0 2.046,0.94011995 2.046,2.09987485 l 0,14.3316972 z"
       style="fill:#d45500"
       inkscape:connector-curvature="0" />
    <rect
       id="rect5"
       height="41.043011"
       width="52"
       style="fill:#ff9955"
       y="16.694284"
       x="3" />
    <path
       id="path7"
       d="m 38,12.588957 -18,0 c -2.209,0 -4,-1.83816 -4,-4.1053273 l 0,0 c 0,-2.267167 1.791,-4.1053272 4,-4.1053272 l 18,0 c 2.209,0 4,1.8381602 4,4.1053272 l 0,0 c 0,2.2671673 -1.791,4.1053273 -4,4.1053273 z"
       style="fill:#aa4400"
       inkscape:connector-curvature="0" />
    <rect
       id="rect9"
       height="5.131659"
       width="52"
       style="fill:#aa4400"
       y="52.605633"
       x="3" />
    <rect
       id="rect11"
       height="14.368646"
       width="28"
       style="fill:#ffccaa"
       y="24.894674"
       x="15" />
    <g
       style="fill:#aa4400"
       transform="matrix(1,0,0,1.0263318,0,-0.76361985)"
       id="g13">
      <path
         id="path15"
         d="m 19,31 6,0 c 0.553,0 1,-0.447 1,-1 0,-0.553 -0.447,-1 -1,-1 l -6,0 c -0.553,0 -1,0.447 -1,1 0,0.553 0.447,1 1,1 z"
         style="fill:#aa4400"
         inkscape:connector-curvature="0" />
      <path
         id="path17"
         d="m 29,31 c 0.26,0 0.52,-0.11 0.71,-0.29 C 29.89,30.52 30,30.26 30,30 c 0,-0.261 -0.11,-0.521 -0.29,-0.71 -0.38,-0.37 -1.05,-0.37 -1.42,0 C 28.109,29.479 28,29.739 28,30 c 0,0.27 0.109,0.52 0.29,0.71 C 28.479,30.89 28.729,31 29,31 Z"
         style="fill:#aa4400"
         inkscape:connector-curvature="0" />
      <path
         id="path19"
         d="m 39,33 -16,0 c -0.553,0 -1,0.447 -1,1 0,0.553 0.447,1 1,1 l 16,0 c 0.553,0 1,-0.447 1,-1 0,-0.553 -0.447,-1 -1,-1 z"
         style="fill:#aa4400"
         inkscape:connector-curvature="0" />
      <path
         id="path21"
         d="M 18.29,33.29 C 18.109,33.479 18,33.739 18,34 c 0,0.26 0.109,0.52 0.29,0.71 0.189,0.18 0.439,0.29 0.71,0.29 0.27,0 0.52,-0.11 0.71,-0.29 C 19.89,34.52 20,34.26 20,34 c 0,-0.261 -0.11,-0.521 -0.29,-0.71 -0.37,-0.37 -1.04,-0.37 -1.42,0 z"
         style="fill:#aa4400"
         inkscape:connector-curvature="0" />
    </g>
    <rect
       id="rect23"
       height="5.131659"
       width="52"
       style="fill:#aa4400"
       y="16.684021"
       x="3" />
  </g>
  <path
     inkscape:connector-curvature="0"
     style="opacity:0.92900002;fill:#ffffff"
     id="path24"
     d="m 58.965876,-0.08554997 c -0.568757,0 -1.025012,0.27629951 -1.025012,0.61885116 l 0,0.15433635 c 0,0.34255166 0.456255,0.61885176 1.025012,0.61885176 l 2.57128,0 c 0.568757,0 1.025013,-0.2763001 1.025013,-0.61885176 l 0,-0.15433635 c 0,-0.34255165 -0.456256,-0.61885116 -1.025013,-0.61885116 l -2.57128,0 m -0.01,2.01314897 c -0.568757,0 -1.025012,0.2762995 -1.025012,0.6188512 l 0,0.1558421 c 0,0.3425516 0.456255,0.6173454 1.025012,0.6173454 l 2.57128,0 c 0.568757,0 1.025013,-0.2747938 1.025013,-0.6173454 l 0,-0.1558421 c 0,-0.3425517 -0.456256,-0.6188512 -1.025013,-0.6188512 l -2.57128,0 m -0.02625,1.98981 c -0.568756,0 -1.027512,0.2763002 -1.027512,0.6188512 l 0,0.1558427 c 0,0.342551 0.458756,0.6173454 1.027512,0.6173454 l 2.568781,0 c 0.568757,0 1.027512,-0.2747944 1.027512,-0.6173454 l 0,-0.1558427 c 0,-0.342551 -0.458755,-0.6188512 -1.027512,-0.6188512 l -2.568781,0 m 0.04875,2.0718721 c -0.568757,0 -1.025012,0.2763001 -1.025012,0.6188511 l 0,0.154337 c 0,0.3425511 0.456255,0.6188512 1.025012,0.6188512 l 2.571281,0 c 0.568756,0 1.025012,-0.2763001 1.025012,-0.6188512 l 0,-0.154337 c 0,-0.342551 -0.456256,-0.6188511 -1.025012,-0.6188511 l -2.571281,0 m 0,2.0349817 c -0.568757,0 -1.025012,0.2747944 -1.025012,0.6173461 l 0,0.155842 c 0,0.3425517 0.456255,0.6188512 1.025012,0.6188512 l 2.571281,0 c 0.568756,0 1.025012,-0.2762995 1.025012,-0.6188512 l 0,-0.155842 c 0,-0.3425517 -0.456256,-0.6173461 -1.025012,-0.6173461 l -2.571281,0 m 0,2.0824122 c -0.568757,0 -1.025012,0.2763 -1.025012,0.618852 l 0,0.154336 c 0,0.342552 0.456255,0.618851 1.025012,0.618851 l 2.571281,0 c 0.568756,0 1.025012,-0.276299 1.025012,-0.618851 l 0,-0.154336 c 0,-0.342552 -0.456256,-0.618852 -1.025012,-0.618852 l -2.571281,0 m 0.207502,2.105751 c -0.405004,0 -0.735008,0.198002 -0.735008,0.442682 l 0,0.879341 -1.132514,2.011643 c -0.317504,0.560881 -0.166252,1.18425 0.405005,1.667586 0.571257,0.481831 1.498768,0.770177 2.48003,0.770177 0.981261,0 1.908772,-0.288346 2.480029,-0.770177 0.571257,-0.483336 0.722509,-1.105199 0.405005,-1.66608 l -1.132514,-2.013149 0,-0.879341 c 0,-0.24468 -0.330003,-0.442682 -0.735008,-0.442682 l -2.036275,0 m -0.09,2.946696 2.216277,0 0.381254,0.674563 c 0.162502,0.289098 0.085,0.611322 -0.210002,0.860519 -0.587507,0.497641 -1.970024,0.497641 -2.558781,0 -0.295003,-0.249197 -0.372504,-0.570668 -0.210002,-0.860519 l 0.381254,-0.674563" />
</svg>
