<?xml version="1.0" encoding="UTF-8" standalone="no"?>
<svg
   xmlns:dc="http://purl.org/dc/elements/1.1/"
   xmlns:cc="http://creativecommons.org/ns#"
   xmlns:rdf="http://www.w3.org/1999/02/22-rdf-syntax-ns#"
   xmlns:svg="http://www.w3.org/2000/svg"
   xmlns="http://www.w3.org/2000/svg"
   xmlns:xlink="http://www.w3.org/1999/xlink"
   xmlns:sodipodi="http://sodipodi.sourceforge.net/DTD/sodipodi-0.dtd"
   xmlns:inkscape="http://www.inkscape.org/namespaces/inkscape"
   viewBox="0 0 32 32"
   id="svg2"
   version="1.1"
   inkscape:version="0.91 r13725"
   sodipodi:docname="folder-video.svg">
  <metadata
     id="metadata37">
    <rdf:RDF>
      <cc:Work
         rdf:about="">
        <dc:format>image/svg+xml</dc:format>
        <dc:type
           rdf:resource="http://purl.org/dc/dcmitype/StillImage" />
        <dc:title></dc:title>
      </cc:Work>
    </rdf:RDF>
  </metadata>
  <sodipodi:namedview
     pagecolor="#ffffff"
     bordercolor="#666666"
     borderopacity="1"
     objecttolerance="10"
     gridtolerance="10"
     guidetolerance="10"
     inkscape:pageopacity="0"
     inkscape:pageshadow="2"
     inkscape:window-width="1280"
     inkscape:window-height="694"
     id="namedview35"
     showgrid="false"
     inkscape:zoom="7.375"
     inkscape:cx="-37.812571"
     inkscape:cy="16"
     inkscape:window-x="0"
     inkscape:window-y="0"
     inkscape:window-maximized="1"
     inkscape:current-layer="svg2" />
  <defs
     id="defs4">
    <linearGradient
       xlink:href="#1"
       id="3"
       x1="-86.21"
       y1="428.69"
       x2="-84.65"
       y2="285.59"
       gradientUnits="userSpaceOnUse"
       gradientTransform="matrix(0.06624,0,0,0.06624,21.76,-6.37)" />
    <linearGradient
       gradientUnits="userSpaceOnUse"
       y2="352.98"
       x2="-601.15"
       y1="663.95"
       x1="-591.02"
       id="4"
       gradientTransform="matrix(0.05573986,0,0,0.06673193,52.700408,-17.591351)">
      <stop
         stop-color="#289bf7"
         id="stop8" />
      <stop
         offset="1"
         stop-color="#4caaf4"
         id="stop10" />
    </linearGradient>
    <linearGradient
       gradientUnits="userSpaceOnUse"
       y2="354.29"
       x2="-704.05"
       y1="647.77"
       x1="-701.19"
       id="2"
       gradientTransform="matrix(0.00311364,0,0,0.00311364,55.682892,-11.03311)">
      <stop
         stop-color="#9fd2fa"
         id="stop13" />
      <stop
         offset="1"
         stop-color="#cde8fe"
         id="stop15" />
    </linearGradient>
    <linearGradient
       xlink:href="#1"
       id="0"
       x1="59.12"
       y1="-13.295"
       x2="59.15"
       y2="-37.783"
       gradientUnits="userSpaceOnUse"
       gradientTransform="matrix(0.23295272,0,0,0.23255487,-6.94926,14.533334)" />
    <linearGradient
       id="1">
      <stop
         stop-color="#289bf7"
         id="stop19" />
      <stop
         offset="1"
         stop-color="#71b9f1"
         id="stop21" />
    </linearGradient>
  </defs>
  <rect
     y="5.8151612"
     x="3.4831016"
     height="19.694597"
     width="25.854935"
     rx="0.53677487"
     id="rect31"
     style="fill:#80b3ff;stroke:none;stroke-width:0.32787555;stroke-linecap:round;stroke-linejoin:round" />
  <path
     inkscape:connector-curvature="0"
     style="fill:#ffffff"
     id="path31"
     d="m 18.044706,24.983675 9.87719,0 c 0.420611,0 0.764699,-0.343852 0.764699,-0.764227 l 0,-10.472795 c 0,-0.419401 -0.344354,-0.764227 -0.764699,-0.764227 l -9.87719,0 c -0.421555,0 -0.7652,0.344826 -0.7652,0.764227 l 0,10.472795 c 0,0.420375 0.343645,0.764227 0.7652,0.764227 m 8.77625,-11.066335 c 0,-0.12685 0.10384,-0.229244 0.22948,-0.229244 l 0.716968,0 c 0.126614,0 0.229009,0.102394 0.229009,0.229244 l 0,0.738385 c 0,0.12685 -0.102395,0.229244 -0.229009,0.229244 l -0.716968,0 c -0.12564,0 -0.22948,-0.102157 -0.22948,-0.229244 l 0,-0.738384 m 0,1.878264 c 0,-0.126849 0.10384,-0.22948 0.22948,-0.22948 l 0.716968,0 c 0.126614,0 0.229009,0.102631 0.229009,0.22948 l 0,0.738386 c 0,0.126614 -0.102395,0.229951 -0.229009,0.229951 l -0.716968,0 c -0.12564,0 -0.22948,-0.103337 -0.22948,-0.229951 l 0,-0.738386 m 0,1.87974 c 0,-0.126614 0.10384,-0.229953 0.22948,-0.229953 l 0.716968,0 c 0.126614,0 0.229009,0.103339 0.229009,0.229953 l 0,0.738681 c 0,0.125639 -0.102395,0.229008 -0.229009,0.229008 l -0.716968,0 c -0.12564,0 -0.22948,-0.103338 -0.22948,-0.229008 l 0,-0.738681 m 0,1.878265 c 0,-0.12685 0.10384,-0.229953 0.22948,-0.229953 l 0.716968,0 c 0.126614,0 0.229009,0.103103 0.229009,0.229953 l 0,0.73868 c 0,0.126614 -0.102395,0.229244 -0.229009,0.229244 l -0.716968,0 c -0.12564,0 -0.22948,-0.10263 -0.22948,-0.229244 l 0,-0.73868 m 0,1.878265 c 0,-0.12685 0.10384,-0.229245 0.22948,-0.229245 l 0.716968,0 c 0.126614,0 0.229009,0.102159 0.229009,0.229245 l 0,0.738975 c 0,0.126142 -0.102395,0.228772 -0.229009,0.228772 l -0.716968,0 c -0.12564,0 -0.22948,-0.10263 -0.22948,-0.228772 l 0,-0.738975 m 0,1.878265 c 0,-0.126142 0.10384,-0.229245 0.22948,-0.229245 l 0.716968,0 c 0.126614,0 0.229009,0.103103 0.229009,0.229245 l 0,0.73986 c 0,0.125169 -0.102395,0.228772 -0.229009,0.228772 l -0.716968,0 c -0.12564,0 -0.22948,-0.103338 -0.22948,-0.228772 l 0,-0.73986 m -6.889135,-8.838789 c 0,-0.126851 0.103339,-0.229245 0.229953,-0.229245 l 5.64335,0 c 0.125906,0 0.229008,0.102394 0.229008,0.229245 l 0,3.656229 c 0,0.12564 -0.103102,0.229952 -0.229008,0.229952 l -5.64335,0 c -0.126614,0 -0.229953,-0.104312 -0.229953,-0.229952 -3e-6,0 -3e-6,-3.656229 -3e-6,-3.656229 m 0,5.638039 c 0,-0.125906 0.103339,-0.228537 0.229953,-0.228537 l 5.64335,0 c 0.125906,0 0.229008,0.102631 0.229008,0.228537 l 0,3.379815 c 0,0.126142 -0.103102,0.229244 -0.229008,0.229244 l -5.64335,0 c -0.126614,0 -0.229953,-0.103102 -0.229953,-0.229244 -3e-6,0 -3e-6,-3.379815 -3e-6,-3.379815 m -1.96234,-6.192345 c 0,-0.126849 0.103103,-0.229245 0.229481,-0.229245 l 0.717233,0 c 0.125906,0 0.228773,0.102396 0.228773,0.229245 l 0,0.738386 c 0,0.126849 -0.102867,0.229244 -0.228773,0.229244 l -0.717233,0 c -0.126378,0 -0.229481,-0.102158 -0.229481,-0.229244 0,0 0,-0.738386 0,-0.738386 m 0,1.878266 c 0,-0.126851 0.103103,-0.229481 0.229481,-0.229481 l 0.717233,0 c 0.125906,0 0.228773,0.10263 0.228773,0.229481 l 0,0.738384 c 0,0.126614 -0.102867,0.229953 -0.228773,0.229953 l -0.717233,0 c -0.126378,0 -0.229481,-0.103339 -0.229481,-0.229953 0,0 0,-0.738384 0,-0.738384 m 0,1.87974 c 0,-0.126614 0.103103,-0.229953 0.229481,-0.229953 l 0.717233,0 c 0.125906,0 0.228773,0.103339 0.228773,0.229953 l 0,0.73868 c 0,0.12564 -0.102867,0.229008 -0.228773,0.229008 l -0.717233,0 c -0.126378,0 -0.229481,-0.103338 -0.229481,-0.229008 0,0 0,-0.73868 0,-0.73868 m 0,1.878264 c 0,-0.12685 0.103103,-0.229953 0.229481,-0.229953 l 0.717233,0 c 0.125906,0 0.228773,0.103103 0.228773,0.229953 l 0,0.73868 c 0,0.126614 -0.102867,0.229244 -0.228773,0.229244 l -0.717233,0 c -0.126378,0 -0.229481,-0.10263 -0.229481,-0.229244 0,0 0,-0.73868 0,-0.73868 m 0,1.878265 c 0,-0.126849 0.103103,-0.229245 0.229481,-0.229245 l 0.717233,0 c 0.125906,0 0.228773,0.102159 0.228773,0.229245 l 0,0.738975 c 0,0.126142 -0.102867,0.228772 -0.228773,0.228772 l -0.717233,0 c -0.126378,0 -0.229481,-0.10263 -0.229481,-0.228772 0,0 0,-0.738975 0,-0.738975 m 0,1.878265 c 0,-0.126142 0.103103,-0.229244 0.229481,-0.229244 l 0.717233,0 c 0.125906,0 0.228773,0.103102 0.228773,0.229244 l 0,0.73986 c 0,0.125168 -0.102867,0.228772 -0.228773,0.228772 l -0.717233,0 c -0.126378,0 -0.229481,-0.103338 -0.229481,-0.228772 0,-3e-6 0,-0.73986 0,-0.73986" />
</svg>
