<?xml version="1.0" encoding="UTF-8" standalone="no"?>
<svg
   xmlns:dc="http://purl.org/dc/elements/1.1/"
   xmlns:cc="http://creativecommons.org/ns#"
   xmlns:rdf="http://www.w3.org/1999/02/22-rdf-syntax-ns#"
   xmlns:svg="http://www.w3.org/2000/svg"
   xmlns="http://www.w3.org/2000/svg"
   xmlns:xlink="http://www.w3.org/1999/xlink"
   xmlns:sodipodi="http://sodipodi.sourceforge.net/DTD/sodipodi-0.dtd"
   xmlns:inkscape="http://www.inkscape.org/namespaces/inkscape"
   viewBox="0 0 32 32"
   id="svg2"
   version="1.1"
   inkscape:version="0.91 r13725"
   sodipodi:docname="folder-publicshare.svg">
  <metadata
     id="metadata37">
    <rdf:RDF>
      <cc:Work
         rdf:about="">
        <dc:format>image/svg+xml</dc:format>
        <dc:type
           rdf:resource="http://purl.org/dc/dcmitype/StillImage" />
        <dc:title></dc:title>
      </cc:Work>
    </rdf:RDF>
  </metadata>
  <sodipodi:namedview
     pagecolor="#ffffff"
     bordercolor="#666666"
     borderopacity="1"
     objecttolerance="10"
     gridtolerance="10"
     guidetolerance="10"
     inkscape:pageopacity="0"
     inkscape:pageshadow="2"
     inkscape:window-width="1280"
     inkscape:window-height="694"
     id="namedview35"
     showgrid="false"
     inkscape:zoom="7.375"
     inkscape:cx="-34.244585"
     inkscape:cy="16"
     inkscape:window-x="0"
     inkscape:window-y="0"
     inkscape:window-maximized="1"
     inkscape:current-layer="svg2" />
  <defs
     id="defs4">
    <linearGradient
       xlink:href="#1"
       id="3"
       x1="-86.21"
       y1="428.69"
       x2="-84.65"
       y2="285.59"
       gradientUnits="userSpaceOnUse"
       gradientTransform="matrix(0.06624,0,0,0.06624,21.76,-6.37)" />
    <linearGradient
       gradientUnits="userSpaceOnUse"
       y2="352.98"
       x2="-601.15"
       y1="663.95"
       x1="-591.02"
       id="4"
       gradientTransform="matrix(0.05573986,0,0,0.06673193,52.700408,-17.591351)">
      <stop
         stop-color="#289bf7"
         id="stop8" />
      <stop
         offset="1"
         stop-color="#4caaf4"
         id="stop10" />
    </linearGradient>
    <linearGradient
       gradientUnits="userSpaceOnUse"
       y2="354.29"
       x2="-704.05"
       y1="647.77"
       x1="-701.19"
       id="2"
       gradientTransform="matrix(0.00311364,0,0,0.00311364,55.682892,-11.03311)">
      <stop
         stop-color="#9fd2fa"
         id="stop13" />
      <stop
         offset="1"
         stop-color="#cde8fe"
         id="stop15" />
    </linearGradient>
    <linearGradient
       xlink:href="#1"
       id="0"
       x1="59.12"
       y1="-13.295"
       x2="59.15"
       y2="-37.783"
       gradientUnits="userSpaceOnUse"
       gradientTransform="matrix(0.23295272,0,0,0.23255487,-6.94926,14.533334)" />
    <linearGradient
       id="1">
      <stop
         stop-color="#289bf7"
         id="stop19" />
      <stop
         offset="1"
         stop-color="#71b9f1"
         id="stop21" />
    </linearGradient>
  </defs>
  <rect
     y="5.8151612"
     x="3.4831016"
     height="19.694597"
     width="25.854935"
     rx="0.53677487"
     id="rect31"
     style="fill:#80b3ff;stroke:none;stroke-width:0.32787555;stroke-linecap:round;stroke-linejoin:round" />
  <path
     d="m 22.796161,12.851269 c -0.115,0 -0.232,0.044 -0.321,0.132 l -5.558,5.531 c -0.177,0.176 -0.178,0.461 -0.002,0.638 l 5.531,5.558 c 0.176,0.177 0.461,0.178 0.638,0.002 l 5.558,-5.531 c 0.177,-0.176 0.178,-0.461 0.002,-0.638 l -5.529,-5.558 c -0.088,-0.089 -0.204,-0.134 -0.319,-0.134 m -1.108,3.1 c 0.091,-0.019 0.187,-0.019 0.284,0 0.389,0.077 0.644,0.456 0.566,0.845 -0.077,0.389 -0.457,0.642 -0.847,0.565 -0.389,-0.077 -0.642,-0.456 -0.565,-0.845 0.058,-0.292 0.287,-0.508 0.561,-0.565 m 0.913,1.403 c 0.095,-0.02 0.189,-0.016 0.277,0.005 l 0.99,0.181 c 0.029,0.005 0.057,0.015 0.084,0.028 l 0.72,0.348 c 0.163,0.079 0.232,0.276 0.153,0.439 -0.057,0.117 -0.174,0.185 -0.296,0.185 -0.048,0 -0.097,-0.011 -0.143,-0.033 l -0.68,-0.329 -0.303,-0.056 0.233,1.093 c 0.004,0.022 0.008,0.044 0.001,0.066 l 0.42,1.082 0.885,0.742 c 0.165,0.139 0.187,0.385 0.049,0.551 -0.077,0.092 -0.188,0.139 -0.3,0.139 -0.089,0 -0.178,-0.029 -0.251,-0.091 l -0.962,-0.808 c -0.05,-0.042 -0.089,-0.096 -0.113,-0.157 l -0.3,-0.772 c -0.006,10e-5 -0.014,0 -0.021,0 l -0.589,0.516 -0.167,1.103 c -0.029,0.193 -0.195,0.333 -0.385,0.333 -0.02,0 -0.041,-0.002 -0.061,-0.005 -0.213,-0.033 -0.358,-0.231 -0.326,-0.444 l 0.188,-1.244 c 0.014,-0.091 0.06,-0.175 0.129,-0.235 l 0.573,-0.502 c -10e-5,-0.004 -0.003,-0.009 -0.004,-0.014 l -0.223,-1.047 -0.296,0.232 c -0.031,0.024 -0.067,0.042 -0.105,0.054 l -0.843,0.265 c -0.033,0.001 -0.067,0.016 -0.099,0.016 -0.14,0 -0.268,-0.09 -0.312,-0.23 -0.054,-0.173 0.041,-0.359 0.214,-0.413 l 0.788,-0.246 0.788,-0.615 c 0.006,-0.005 0.014,-0.009 0.021,-0.014 0.073,-0.058 0.159,-0.101 0.256,-0.122"
     id="path33"
     style="fill:#ffffff"
     inkscape:connector-curvature="0" />
</svg>
