<?xml version="1.0" encoding="UTF-8" standalone="no"?>
<svg
   xmlns:dc="http://purl.org/dc/elements/1.1/"
   xmlns:cc="http://creativecommons.org/ns#"
   xmlns:rdf="http://www.w3.org/1999/02/22-rdf-syntax-ns#"
   xmlns:svg="http://www.w3.org/2000/svg"
   xmlns="http://www.w3.org/2000/svg"
   xmlns:xlink="http://www.w3.org/1999/xlink"
   xmlns:sodipodi="http://sodipodi.sourceforge.net/DTD/sodipodi-0.dtd"
   xmlns:inkscape="http://www.inkscape.org/namespaces/inkscape"
   viewBox="0 0 64 64"
   id="svg13202"
   version="1.1"
   inkscape:version="0.91 r13725"
   sodipodi:docname="folder-script.svg">
  <metadata
     id="metadata13228">
    <rdf:RDF>
      <cc:Work
         rdf:about="">
        <dc:format>image/svg+xml</dc:format>
        <dc:type
           rdf:resource="http://purl.org/dc/dcmitype/StillImage" />
        <dc:title></dc:title>
      </cc:Work>
    </rdf:RDF>
  </metadata>
  <sodipodi:namedview
     pagecolor="#ffffff"
     bordercolor="#666666"
     borderopacity="1"
     objecttolerance="10"
     gridtolerance="10"
     guidetolerance="10"
     inkscape:pageopacity="0"
     inkscape:pageshadow="2"
     inkscape:window-width="1280"
     inkscape:window-height="694"
     id="namedview13226"
     showgrid="false"
     inkscape:zoom="3.6875"
     inkscape:cx="-66.903398"
     inkscape:cy="32"
     inkscape:window-x="0"
     inkscape:window-y="0"
     inkscape:window-maximized="1"
     inkscape:current-layer="svg13202" />
  <defs
     id="defs13204">
    <linearGradient
       xlink:href="#1"
       id="3"
       x1="-19.915"
       y1="1048.7"
       x2="-19.996"
       y2="1025.51"
       gradientUnits="userSpaceOnUse"
       gradientTransform="translate(51.949,-1001.46)" />
    <linearGradient
       gradientUnits="userSpaceOnUse"
       y2="354.29"
       x2="-704.05"
       y1="647.77"
       x1="-701.19"
       id="2"
       gradientTransform="matrix(0.01590505,0,0,0.01845141,129.51168,-45.007092)">
      <stop
         stop-color="#93cfff"
         id="stop13208" />
      <stop
         offset="1"
         stop-color="#cde8fe"
         id="stop13210" />
    </linearGradient>
    <linearGradient
       xlink:href="#1"
       id="0"
       x1="59.12"
       y1="-13.295"
       x2="59.15"
       y2="-37.783"
       gradientUnits="userSpaceOnUse"
       gradientTransform="matrix(0.52660675,0,0,0.52570737,-19.441377,28.676662)" />
    <linearGradient
       id="1">
      <stop
         stop-color="#289bf7"
         id="stop13214" />
      <stop
         offset="1"
         stop-color="#71b9f1"
         id="stop13216" />
    </linearGradient>
  </defs>
  <rect
     style="fill:#80b3ff;stroke:none;stroke-width:0.32295448"
     id="rect13222"
     rx="1.2142509"
     width="58.487045"
     height="43.170807"
     x="3.0217602"
     y="10.17371" />
  <path
     inkscape:connector-curvature="0"
     style="fill:#ffffff"
     id="path24"
     d="m 43.224105,-43.186568 c -0.07746,-5.11e-4 -0.155259,0.01328 -0.228462,0.0429 -0.146407,0.05941 -0.264724,0.174837 -0.32618,0.320392 l -9.361328,22.144819 c -0.12819,0.303027 0.01328,0.653041 0.316476,0.781232 l 1.568422,0.664106 c 0.07405,0.03149 0.151513,0.04682 0.230505,0.04682 0.0761,0 0.152705,-0.01583 0.224546,-0.04494 0.146407,-0.05941 0.26251,-0.174836 0.324137,-0.320391 l 9.3632,-22.144819 c 0.128021,-0.303028 -0.01345,-0.653041 -0.316476,-0.781232 l -1.568421,-0.662063 c -0.07269,-0.03081 -0.14896,-0.04631 -0.22659,-0.04682 m -11.089433,4.140577 c -0.150833,-0.02179 -0.309667,0.01464 -0.441433,0.11321 l -8.879718,6.638679 c -0.150322,0.112358 -0.240209,0.290599 -0.240209,0.478544 0,0.187945 0.08989,0.364144 0.240209,0.476502 l 8.879718,6.641063 c 0.106911,0.08018 0.231357,0.119168 0.355462,0.119168 0.181475,0 0.361589,-0.08376 0.478544,-0.240209 l 1.019568,-1.363623 c 0.09465,-0.126828 0.135681,-0.284981 0.113209,-0.441432 -0.02264,-0.15645 -0.107932,-0.29792 -0.23442,-0.392573 l -6.418048,-4.799066 6.418048,-4.800768 c 0.126488,-0.09465 0.211778,-0.23425 0.23442,-0.390701 0.02247,-0.15645 -0.01839,-0.316476 -0.113209,-0.443305 l -1.019568,-1.363622 c -0.09857,-0.131766 -0.241741,-0.210587 -0.392573,-0.232378 m 14.375065,0 c -0.150832,0.02179 -0.294004,0.100782 -0.392573,0.232378 l -1.019567,1.363622 c -0.09465,0.126659 -0.133809,0.286855 -0.111337,0.443305 0.02264,0.156281 0.105719,0.296048 0.232377,0.390701 l 6.418048,4.800768 -6.418048,4.799066 c -0.126658,0.09465 -0.209735,0.236293 -0.232377,0.392573 -0.02247,0.156451 0.01651,0.314774 0.111337,0.441432 l 1.019567,1.363623 c 0.117125,0.15645 0.297069,0.240209 0.478545,0.240209 0.124105,0 0.24838,-0.03916 0.355461,-0.119168 l 8.879718,-6.641063 c 0.150322,-0.112358 0.240209,-0.288557 0.240209,-0.476502 0,-0.187945 -0.08989,-0.366186 -0.240209,-0.478544 l -8.879718,-6.638683 c -0.131766,-0.09857 -0.2906,-0.135001 -0.441433,-0.11321" />
  <path
     inkscape:connector-curvature="0"
     style="fill:#ffffff"
     id="path24-2"
     d="m 47.291902,28.135465 c -0.07746,-5.11e-4 -0.155259,0.01328 -0.228462,0.0429 -0.146407,0.05941 -0.264724,0.174837 -0.32618,0.320392 l -9.361328,22.14482 c -0.12819,0.303027 0.01328,0.653041 0.316476,0.781232 l 1.568422,0.664106 c 0.07405,0.03149 0.151513,0.04682 0.230505,0.04682 0.0761,0 0.152705,-0.01583 0.224546,-0.04494 0.146407,-0.05941 0.26251,-0.174836 0.324137,-0.320391 l 9.3632,-22.14482 c 0.128021,-0.303028 -0.01345,-0.653041 -0.316476,-0.781232 l -1.568421,-0.662063 c -0.07269,-0.03081 -0.14896,-0.04631 -0.22659,-0.04682 m -11.089433,4.140577 c -0.150833,-0.02179 -0.309667,0.01464 -0.441433,0.11321 l -8.879718,6.63868 c -0.150322,0.112358 -0.240209,0.290599 -0.240209,0.478544 0,0.187945 0.08989,0.364144 0.240209,0.476502 l 8.879718,6.641063 c 0.106911,0.08018 0.231357,0.119168 0.355462,0.119168 0.181475,0 0.361589,-0.08376 0.478544,-0.240209 l 1.019568,-1.363623 c 0.09465,-0.126828 0.135681,-0.284981 0.113209,-0.441432 -0.02264,-0.15645 -0.107932,-0.29792 -0.23442,-0.392573 L 31.07518,39.50631 37.493228,34.705541 c 0.126488,-0.09465 0.211778,-0.23425 0.23442,-0.390701 0.02247,-0.15645 -0.01839,-0.316476 -0.113209,-0.443305 l -1.019568,-1.363622 c -0.09857,-0.131766 -0.241741,-0.210587 -0.392573,-0.232378 m 14.375065,0 c -0.150832,0.02179 -0.294004,0.100782 -0.392573,0.232378 l -1.019567,1.363622 c -0.09465,0.126659 -0.133809,0.286855 -0.111337,0.443305 0.02264,0.156281 0.105719,0.296048 0.232377,0.390701 l 6.418048,4.800769 -6.418048,4.799066 c -0.126658,0.09465 -0.209735,0.236293 -0.232377,0.392573 -0.02247,0.156451 0.01651,0.314774 0.111337,0.441432 l 1.019567,1.363623 c 0.117125,0.15645 0.297069,0.240209 0.478545,0.240209 0.124105,0 0.24838,-0.03916 0.355461,-0.119168 l 8.879718,-6.641063 c 0.150322,-0.112358 0.240209,-0.288557 0.240209,-0.476502 0,-0.187945 -0.08989,-0.366186 -0.240209,-0.478544 l -8.879718,-6.638684 c -0.131766,-0.09857 -0.2906,-0.135001 -0.441433,-0.11321" />
</svg>
