<?xml version="1.0" encoding="UTF-8" standalone="no"?>
<svg
   xmlns:dc="http://purl.org/dc/elements/1.1/"
   xmlns:cc="http://creativecommons.org/ns#"
   xmlns:rdf="http://www.w3.org/1999/02/22-rdf-syntax-ns#"
   xmlns:svg="http://www.w3.org/2000/svg"
   xmlns="http://www.w3.org/2000/svg"
   xmlns:xlink="http://www.w3.org/1999/xlink"
   xmlns:sodipodi="http://sodipodi.sourceforge.net/DTD/sodipodi-0.dtd"
   xmlns:inkscape="http://www.inkscape.org/namespaces/inkscape"
   viewBox="0 0 64 64"
   id="svg13202"
   version="1.1"
   inkscape:version="0.91 r13725"
   sodipodi:docname="folder-templates.svg">
  <metadata
     id="metadata13228">
    <rdf:RDF>
      <cc:Work
         rdf:about="">
        <dc:format>image/svg+xml</dc:format>
        <dc:type
           rdf:resource="http://purl.org/dc/dcmitype/StillImage" />
        <dc:title></dc:title>
      </cc:Work>
    </rdf:RDF>
  </metadata>
  <sodipodi:namedview
     pagecolor="#ffffff"
     bordercolor="#666666"
     borderopacity="1"
     objecttolerance="10"
     gridtolerance="10"
     guidetolerance="10"
     inkscape:pageopacity="0"
     inkscape:pageshadow="2"
     inkscape:window-width="1280"
     inkscape:window-height="694"
     id="namedview13226"
     showgrid="false"
     inkscape:zoom="3.6875"
     inkscape:cx="-62.146082"
     inkscape:cy="32"
     inkscape:window-x="0"
     inkscape:window-y="0"
     inkscape:window-maximized="1"
     inkscape:current-layer="svg13202" />
  <defs
     id="defs13204">
    <linearGradient
       xlink:href="#1"
       id="3"
       x1="-19.915"
       y1="1048.7"
       x2="-19.996"
       y2="1025.51"
       gradientUnits="userSpaceOnUse"
       gradientTransform="translate(51.949,-1001.46)" />
    <linearGradient
       gradientUnits="userSpaceOnUse"
       y2="354.29"
       x2="-704.05"
       y1="647.77"
       x1="-701.19"
       id="2"
       gradientTransform="matrix(0.01590505,0,0,0.01845141,129.51168,-45.007092)">
      <stop
         stop-color="#93cfff"
         id="stop13208" />
      <stop
         offset="1"
         stop-color="#cde8fe"
         id="stop13210" />
    </linearGradient>
    <linearGradient
       xlink:href="#1"
       id="0"
       x1="59.12"
       y1="-13.295"
       x2="59.15"
       y2="-37.783"
       gradientUnits="userSpaceOnUse"
       gradientTransform="matrix(0.52660675,0,0,0.52570737,-19.441377,28.676662)" />
    <linearGradient
       id="1">
      <stop
         stop-color="#289bf7"
         id="stop13214" />
      <stop
         offset="1"
         stop-color="#71b9f1"
         id="stop13216" />
    </linearGradient>
  </defs>
  <rect
     style="fill:#80b3ff;stroke:none;stroke-width:0.32295448"
     id="rect13222"
     rx="1.2142509"
     width="58.487045"
     height="43.170807"
     x="3.0217602"
     y="10.17371" />
  <path
     inkscape:connector-curvature="0"
     style="fill:#ffffff"
     id="path24"
     d="m 60.015494,39.517223 -3.571651,-3.573551 c -0.340745,-0.339796 -0.23444,-0.70332 0.23444,-0.808676 0,0 0.387253,-0.08732 0.864675,-0.564744 1.024133,-1.024133 1.023184,-2.686095 0,-3.708329 -1.025082,-1.024133 -2.684196,-1.024133 -3.709278,0 -0.477422,0.477422 -0.563795,0.863726 -0.563795,0.863726 -0.105356,0.469829 -0.469829,0.575185 -0.809625,0.23444 l -3.571651,-3.570702 c -0.339796,-0.340745 -0.896947,-0.340745 -1.236743,0 l -3.571651,3.570702 c -0.339796,0.340745 -0.23444,0.705219 0.23444,0.810574 0,0 0.388202,0.08732 0.864675,0.563795 1.023184,1.024133 1.024133,2.685146 0,3.710228 -1.024132,1.024133 -2.686094,1.023183 -3.709278,0 -0.476473,-0.477423 -0.563795,-0.864676 -0.563795,-0.864676 -0.105356,-0.469829 -0.469829,-0.574236 -0.809625,-0.23444 l -3.571651,3.572602 c -0.339796,0.339795 -0.339796,0.895997 0,1.235793 l 3.571651,3.572601 c 0.339796,0.339795 0.23444,0.704269 -0.23444,0.809625 0,0 -0.387253,0.08732 -0.864676,0.564744 -1.024132,1.024133 -1.024132,2.684196 0,3.708329 1.024133,1.023184 2.684197,1.024133 3.709279,0 0.477422,-0.477423 0.563795,-0.863727 0.563795,-0.863727 0.105355,-0.469829 0.469829,-0.575185 0.809625,-0.23444 l 3.5726,3.570703 c 0.339796,0.340744 0.896947,0.340744 1.236743,0 l 3.5726,-3.571652 c 0.339796,-0.339796 0.23444,-0.705218 -0.23444,-0.809625 0,0 -0.388202,-0.08732 -0.864675,-0.563795 -1.025082,-1.024133 -1.024133,-2.685145 0,-3.710227 1.024132,-1.024133 2.684196,-1.025082 3.709278,0 0.477422,0.477422 0.563795,0.864675 0.563795,0.864675 0.105356,0.46983 0.469829,0.575185 0.809625,0.23539 l 3.571651,-3.57355 c 0.339796,-0.339796 0.339796,-0.895998 0,-1.235793" />
</svg>
