<?xml version="1.0" encoding="UTF-8" standalone="no"?>
<svg
   xmlns:dc="http://purl.org/dc/elements/1.1/"
   xmlns:cc="http://creativecommons.org/ns#"
   xmlns:rdf="http://www.w3.org/1999/02/22-rdf-syntax-ns#"
   xmlns:svg="http://www.w3.org/2000/svg"
   xmlns="http://www.w3.org/2000/svg"
   xmlns:xlink="http://www.w3.org/1999/xlink"
   xmlns:sodipodi="http://sodipodi.sourceforge.net/DTD/sodipodi-0.dtd"
   xmlns:inkscape="http://www.inkscape.org/namespaces/inkscape"
   viewBox="0 0 64 64"
   id="svg13202"
   version="1.1"
   inkscape:version="0.91 r13725"
   sodipodi:docname="folder-temp.svg">
  <metadata
     id="metadata13228">
    <rdf:RDF>
      <cc:Work
         rdf:about="">
        <dc:format>image/svg+xml</dc:format>
        <dc:type
           rdf:resource="http://purl.org/dc/dcmitype/StillImage" />
        <dc:title></dc:title>
      </cc:Work>
    </rdf:RDF>
  </metadata>
  <sodipodi:namedview
     pagecolor="#ffffff"
     bordercolor="#666666"
     borderopacity="1"
     objecttolerance="10"
     gridtolerance="10"
     guidetolerance="10"
     inkscape:pageopacity="0"
     inkscape:pageshadow="2"
     inkscape:window-width="1280"
     inkscape:window-height="694"
     id="namedview13226"
     showgrid="false"
     inkscape:zoom="3.6875"
     inkscape:cx="-63.335411"
     inkscape:cy="32"
     inkscape:window-x="0"
     inkscape:window-y="0"
     inkscape:window-maximized="1"
     inkscape:current-layer="svg13202" />
  <defs
     id="defs13204">
    <linearGradient
       xlink:href="#1"
       id="3"
       x1="-19.915"
       y1="1048.7"
       x2="-19.996"
       y2="1025.51"
       gradientUnits="userSpaceOnUse"
       gradientTransform="translate(51.949,-1001.46)" />
    <linearGradient
       gradientUnits="userSpaceOnUse"
       y2="354.29"
       x2="-704.05"
       y1="647.77"
       x1="-701.19"
       id="2"
       gradientTransform="matrix(0.01590505,0,0,0.01845141,129.51168,-45.007092)">
      <stop
         stop-color="#93cfff"
         id="stop13208" />
      <stop
         offset="1"
         stop-color="#cde8fe"
         id="stop13210" />
    </linearGradient>
    <linearGradient
       xlink:href="#1"
       id="0"
       x1="59.12"
       y1="-13.295"
       x2="59.15"
       y2="-37.783"
       gradientUnits="userSpaceOnUse"
       gradientTransform="matrix(0.52660675,0,0,0.52570737,-19.441377,28.676662)" />
    <linearGradient
       id="1">
      <stop
         stop-color="#289bf7"
         id="stop13214" />
      <stop
         offset="1"
         stop-color="#71b9f1"
         id="stop13216" />
    </linearGradient>
  </defs>
  <rect
     style="fill:#80b3ff;stroke:none;stroke-width:0.32295448"
     id="rect13222"
     rx="1.2142509"
     width="58.487045"
     height="43.170807"
     x="3.0217602"
     y="10.17371" />
  <path
     inkscape:connector-curvature="0"
     style="fill:#ffffff;stroke:none;stroke-width:26.21999931"
     id="path24"
     d="m 47.980636,27.865984 c -1.627704,0 -3.174192,0.320277 -4.660144,0.957672 -2.951224,1.265804 -5.11172,3.411448 -6.379592,6.36756 -0.63544,1.481064 -0.94564,3.03244 -0.94564,4.660144 0,1.62808 0.310012,3.191112 0.94564,4.672176 1.26806,2.956112 3.428744,5.1136 6.379592,6.379592 1.485952,0.637395 3.03244,0.959702 4.660144,0.959702 1.627704,0 3.187352,-0.325691 4.674432,-0.959702 2.975664,-1.269226 5.126008,-3.428744 6.392,-6.379592 0.637358,-1.485952 0.957672,-3.044284 0.957672,-4.672176 0,-1.627704 -0.320014,-3.174192 -0.957672,-4.660144 -1.265842,-2.951224 -3.416336,-5.098184 -6.392,-6.36756 -1.487343,-0.63435 -3.046352,-0.957672 -4.674432,-0.957672 m 0,5.179776 c 0.406945,0 0.762077,0.328662 0.762077,0.735569 l 0,6.799584 3.675776,3.702472 c 0.282,0.283993 0.301928,0.721168 0,1.02272 -0.262448,0.262673 -0.748015,0.262673 -1.010651,0 L 47.48127,41.381793 c -0.157393,-0.157657 -0.221952,-0.354568 -0.195595,-0.590922 0,-0.03922 -0.02651,-0.09073 -0.02651,-0.103926 l 0,-6.905616 c 0,-0.406907 0.340656,-0.735569 0.721168,-0.735569" />
</svg>
