<?xml version="1.0" encoding="UTF-8" standalone="no"?>
<svg
   xmlns:dc="http://purl.org/dc/elements/1.1/"
   xmlns:cc="http://creativecommons.org/ns#"
   xmlns:rdf="http://www.w3.org/1999/02/22-rdf-syntax-ns#"
   xmlns:svg="http://www.w3.org/2000/svg"
   xmlns="http://www.w3.org/2000/svg"
   xmlns:xlink="http://www.w3.org/1999/xlink"
   xmlns:sodipodi="http://sodipodi.sourceforge.net/DTD/sodipodi-0.dtd"
   xmlns:inkscape="http://www.inkscape.org/namespaces/inkscape"
   viewBox="0 0 64 64"
   id="svg13202"
   version="1.1"
   inkscape:version="0.91 r13725"
   sodipodi:docname="folder-vbox.svg">
  <metadata
     id="metadata13228">
    <rdf:RDF>
      <cc:Work
         rdf:about="">
        <dc:format>image/svg+xml</dc:format>
        <dc:type
           rdf:resource="http://purl.org/dc/dcmitype/StillImage" />
        <dc:title></dc:title>
      </cc:Work>
    </rdf:RDF>
  </metadata>
  <sodipodi:namedview
     pagecolor="#ffffff"
     bordercolor="#666666"
     borderopacity="1"
     objecttolerance="10"
     gridtolerance="10"
     guidetolerance="10"
     inkscape:pageopacity="0"
     inkscape:pageshadow="2"
     inkscape:window-width="1280"
     inkscape:window-height="694"
     id="namedview13226"
     showgrid="false"
     inkscape:zoom="3.6875"
     inkscape:cx="-55.010109"
     inkscape:cy="32"
     inkscape:window-x="0"
     inkscape:window-y="0"
     inkscape:window-maximized="1"
     inkscape:current-layer="svg13202" />
  <defs
     id="defs13204">
    <linearGradient
       xlink:href="#1"
       id="3"
       x1="-19.915"
       y1="1048.7"
       x2="-19.996"
       y2="1025.51"
       gradientUnits="userSpaceOnUse"
       gradientTransform="translate(51.949,-1001.46)" />
    <linearGradient
       gradientUnits="userSpaceOnUse"
       y2="354.29"
       x2="-704.05"
       y1="647.77"
       x1="-701.19"
       id="2"
       gradientTransform="matrix(0.01590505,0,0,0.01845141,129.51168,-45.007092)">
      <stop
         stop-color="#93cfff"
         id="stop13208" />
      <stop
         offset="1"
         stop-color="#cde8fe"
         id="stop13210" />
    </linearGradient>
    <linearGradient
       xlink:href="#1"
       id="0"
       x1="59.12"
       y1="-13.295"
       x2="59.15"
       y2="-37.783"
       gradientUnits="userSpaceOnUse"
       gradientTransform="matrix(0.52660675,0,0,0.52570737,-19.441377,28.676662)" />
    <linearGradient
       id="1">
      <stop
         stop-color="#289bf7"
         id="stop13214" />
      <stop
         offset="1"
         stop-color="#71b9f1"
         id="stop13216" />
    </linearGradient>
  </defs>
  <rect
     style="fill:#80b3ff;stroke:none;stroke-width:0.32295448"
     id="rect13222"
     rx="1.2142509"
     width="58.487045"
     height="43.170807"
     x="3.0217602"
     y="10.17371" />
  <path
     inkscape:connector-curvature="0"
     style="fill:#ffffff"
     id="path24"
     d="M 48.270305,28.135513 A 12.000329,12.000329 0 0 0 36.271112,40.136467 12.000329,12.000329 0 0 0 48.270305,52.135675 12.000329,12.000329 0 0 0 60.27126,40.136467 12.000329,12.000329 0 0 0 48.270305,28.135513 m 3.028622,5.343291 c 0.04415,0.0023 0.09637,0.02245 0.137618,0.03481 0.211411,0.06067 0.390782,0.241937 0.451077,0.454609 l 2.186006,7.961957 1.146613,-1.553667 c 0.116805,-0.172812 0.294032,-0.292266 0.501659,-0.297816 l 0.849931,0 0.383213,0 0.03305,0 c 0.0251,0 0.05222,0.02712 0.05222,0.05222 l 0,1.222675 c 0,0.0251 -0.02535,0.03481 -0.05046,0.03481 l -0.03482,0 -0.383213,0 -0.519066,0 -1.682582,2.339267 c -0.287977,0.379681 -1.006219,0.246982 -1.146612,-0.209014 l -1.994274,-7.089068 -1.370763,4.52174 c -0.08388,0.256947 -0.354958,0.431525 -0.62351,0.437201 l -0.954502,0 -0.191606,0 -0.46861,0 -0.172434,0 -0.486017,0 -1.856781,6.145037 c -0.09296,0.333135 -0.485765,0.55388 -0.815117,0.454608 -0.21141,-0.0608 -0.390781,-0.241936 -0.451076,-0.454608 l -2.203414,-7.977094 -1.126934,1.553666 c -0.116806,0.172938 -0.313206,0.273094 -0.520833,0.278644 l -0.832524,0 -0.416262,0 -0.05222,0 c -0.0251,0 -0.03481,-0.0097 -0.03481,-0.03482 l 0,-1.222675 c 0,-0.0251 0.0097,-0.05222 0.03481,-0.05222 l 0.05222,0 0.416262,0 0.520833,0 1.682581,-2.304452 c 0.287978,-0.379681 1.004579,-0.246856 1.14409,0.209014 l 1.978632,7.089068 1.386405,-4.539147 c 0.08388,-0.256948 0.339316,-0.449059 0.607868,-0.454609 l 0.971909,0 0.172433,0 0.46861,0 0.191607,0 0.468484,0 1.872422,-6.110222 c 0.06976,-0.249883 0.302736,-0.437327 0.555647,-0.472015 0.04213,-0.0057 0.07783,-0.01741 0.121977,-0.01741" />
</svg>
