<?xml version="1.0" encoding="UTF-8" standalone="no"?>
<svg
   xmlns:dc="http://purl.org/dc/elements/1.1/"
   xmlns:cc="http://creativecommons.org/ns#"
   xmlns:rdf="http://www.w3.org/1999/02/22-rdf-syntax-ns#"
   xmlns:svg="http://www.w3.org/2000/svg"
   xmlns="http://www.w3.org/2000/svg"
   xmlns:xlink="http://www.w3.org/1999/xlink"
   xmlns:sodipodi="http://sodipodi.sourceforge.net/DTD/sodipodi-0.dtd"
   xmlns:inkscape="http://www.inkscape.org/namespaces/inkscape"
   viewBox="0 0 64 64"
   id="svg13202"
   version="1.1"
   inkscape:version="0.91 r13725"
   sodipodi:docname="folder-video.svg">
  <metadata
     id="metadata13228">
    <rdf:RDF>
      <cc:Work
         rdf:about="">
        <dc:format>image/svg+xml</dc:format>
        <dc:type
           rdf:resource="http://purl.org/dc/dcmitype/StillImage" />
        <dc:title></dc:title>
      </cc:Work>
    </rdf:RDF>
  </metadata>
  <sodipodi:namedview
     pagecolor="#ffffff"
     bordercolor="#666666"
     borderopacity="1"
     objecttolerance="10"
     gridtolerance="10"
     guidetolerance="10"
     inkscape:pageopacity="0"
     inkscape:pageshadow="2"
     inkscape:window-width="1280"
     inkscape:window-height="694"
     id="namedview13226"
     showgrid="false"
     inkscape:zoom="3.6875"
     inkscape:cx="-61.353196"
     inkscape:cy="32"
     inkscape:window-x="0"
     inkscape:window-y="0"
     inkscape:window-maximized="1"
     inkscape:current-layer="svg13202" />
  <defs
     id="defs13204">
    <linearGradient
       xlink:href="#1"
       id="3"
       x1="-19.915"
       y1="1048.7"
       x2="-19.996"
       y2="1025.51"
       gradientUnits="userSpaceOnUse"
       gradientTransform="translate(51.949,-1001.46)" />
    <linearGradient
       gradientUnits="userSpaceOnUse"
       y2="354.29"
       x2="-704.05"
       y1="647.77"
       x1="-701.19"
       id="2"
       gradientTransform="matrix(0.01590505,0,0,0.01845141,129.51168,-45.007092)">
      <stop
         stop-color="#93cfff"
         id="stop13208" />
      <stop
         offset="1"
         stop-color="#cde8fe"
         id="stop13210" />
    </linearGradient>
    <linearGradient
       xlink:href="#1"
       id="0"
       x1="59.12"
       y1="-13.295"
       x2="59.15"
       y2="-37.783"
       gradientUnits="userSpaceOnUse"
       gradientTransform="matrix(0.52660675,0,0,0.52570737,-19.441377,28.676662)" />
    <linearGradient
       id="1">
      <stop
         stop-color="#289bf7"
         id="stop13214" />
      <stop
         offset="1"
         stop-color="#71b9f1"
         id="stop13216" />
    </linearGradient>
  </defs>
  <rect
     style="fill:#80b3ff;stroke:none;stroke-width:0.32295448"
     id="rect13222"
     rx="1.2142509"
     width="58.487045"
     height="43.170807"
     x="3.0217602"
     y="10.17371" />
  <path
     inkscape:connector-curvature="0"
     style="fill:#ffffff"
     id="path24"
     d="m 38.667359,51.863622 19.751032,0 c 0.841079,0 1.529138,-0.687588 1.529138,-1.528195 l 0,-20.94204 c 0,-0.838661 -0.68859,-1.528195 -1.529138,-1.528195 l -19.751032,0 c -0.842967,0 -1.530142,0.689534 -1.530142,1.528195 l 0,20.94204 c 0,0.840607 0.687175,1.528195 1.530142,1.528195 M 56.216884,29.734703 c 0,-0.253657 0.207645,-0.458411 0.458883,-0.458411 l 1.433693,0 c 0.253185,0 0.457939,0.204754 0.457939,0.458411 l 0,1.47652 c 0,0.253657 -0.204754,0.458411 -0.457939,0.458411 l -1.433693,0 c -0.251238,0 -0.458883,-0.204282 -0.458883,-0.458411 l 0,-1.47652 m 0,3.755893 c 0,-0.253657 0.207645,-0.458883 0.458883,-0.458883 l 1.433693,0 c 0.253185,0 0.457939,0.205226 0.457939,0.458883 l 0,1.47652 c 0,0.253185 -0.204754,0.459827 -0.457939,0.459827 l -1.433693,0 c -0.251238,0 -0.458883,-0.206642 -0.458883,-0.459827 l 0,-1.47652 m 0,3.758843 c 0,-0.253185 0.207645,-0.459827 0.458883,-0.459827 l 1.433693,0 c 0.253185,0 0.457939,0.206642 0.457939,0.459827 l 0,1.47711 c 0,0.251238 -0.204754,0.457939 -0.457939,0.457939 l -1.433693,0 c -0.251238,0 -0.458883,-0.206642 -0.458883,-0.457939 l 0,-1.47711 m 0,3.755893 c 0,-0.253656 0.207645,-0.459827 0.458883,-0.459827 l 1.433693,0 c 0.253185,0 0.457939,0.206171 0.457939,0.459827 l 0,1.47711 c 0,0.253185 -0.204754,0.458411 -0.457939,0.458411 l -1.433693,0 c -0.251238,0 -0.458883,-0.205226 -0.458883,-0.458411 l 0,-1.47711 m 0,3.755894 c 0,-0.253657 0.207645,-0.458411 0.458883,-0.458411 l 1.433693,0 c 0.253185,0 0.457939,0.204282 0.457939,0.458411 l 0,1.477699 c 0,0.252242 -0.204754,0.457468 -0.457939,0.457468 l -1.433693,0 c -0.251238,0 -0.458883,-0.205226 -0.458883,-0.457468 l 0,-1.477699 m 0,3.755893 c 0,-0.252241 0.207645,-0.458411 0.458883,-0.458411 l 1.433693,0 c 0.253185,0 0.457939,0.20617 0.457939,0.458411 l 0,1.479469 c 0,0.250295 -0.204754,0.457468 -0.457939,0.457468 l -1.433693,0 c -0.251238,0 -0.458883,-0.206642 -0.458883,-0.457468 l 0,-1.479469 M 42.440949,30.842535 c 0,-0.253657 0.206642,-0.458411 0.459827,-0.458411 l 11.284787,0 c 0.25177,0 0.45794,0.204754 0.45794,0.458411 l 0,7.311221 c 0,0.251238 -0.20617,0.459827 -0.45794,0.459827 l -11.284787,0 c -0.253185,0 -0.459827,-0.208589 -0.459827,-0.459827 -6e-6,0 -6e-6,-7.311221 -6e-6,-7.311221 m 0,11.274169 c 0,-0.251769 0.206642,-0.456995 0.459827,-0.456995 l 11.284787,0 c 0.25177,0 0.45794,0.205226 0.45794,0.456995 l 0,6.758484 c 0,0.252242 -0.20617,0.458412 -0.45794,0.458412 l -11.284787,0 c -0.253185,0 -0.459827,-0.20617 -0.459827,-0.458412 -6e-6,0 -6e-6,-6.758484 -6e-6,-6.758484 M 38.516923,29.734113 c 0,-0.253657 0.20617,-0.458411 0.458883,-0.458411 l 1.434224,0 c 0.251769,0 0.457467,0.204754 0.457467,0.458411 l 0,1.47652 c 0,0.253657 -0.205698,0.458411 -0.457467,0.458411 l -1.434224,0 c -0.252713,0 -0.458883,-0.204282 -0.458883,-0.458411 0,0 0,-1.47652 0,-1.47652 m 0,3.755893 c 0,-0.253657 0.20617,-0.458883 0.458883,-0.458883 l 1.434224,0 c 0.251769,0 0.457467,0.205226 0.457467,0.458883 l 0,1.47652 c 0,0.253185 -0.205698,0.459827 -0.457467,0.459827 l -1.434224,0 c -0.252713,0 -0.458883,-0.206642 -0.458883,-0.459827 0,0 0,-1.47652 0,-1.47652 m 0,3.758843 c 0,-0.253185 0.20617,-0.459827 0.458883,-0.459827 l 1.434224,0 c 0.251769,0 0.457467,0.206642 0.457467,0.459827 l 0,1.47711 c 0,0.251238 -0.205698,0.457939 -0.457467,0.457939 l -1.434224,0 c -0.252713,0 -0.458883,-0.206642 -0.458883,-0.457939 0,0 0,-1.47711 0,-1.47711 m 0,3.755894 c 0,-0.253657 0.20617,-0.459827 0.458883,-0.459827 l 1.434224,0 c 0.251769,0 0.457467,0.20617 0.457467,0.459827 l 0,1.477109 c 0,0.253185 -0.205698,0.458411 -0.457467,0.458411 l -1.434224,0 c -0.252713,0 -0.458883,-0.205226 -0.458883,-0.458411 0,0 0,-1.477109 0,-1.477109 m 0,3.755893 c 0,-0.253657 0.20617,-0.458411 0.458883,-0.458411 l 1.434224,0 c 0.251769,0 0.457467,0.204282 0.457467,0.458411 l 0,1.477699 c 0,0.252242 -0.205698,0.457468 -0.457467,0.457468 l -1.434224,0 c -0.252713,0 -0.458883,-0.205226 -0.458883,-0.457468 0,0 0,-1.477699 0,-1.477699 m 0,3.755893 c 0,-0.252241 0.20617,-0.458411 0.458883,-0.458411 l 1.434224,0 c 0.251769,0 0.457467,0.20617 0.457467,0.458411 l 0,1.479469 c 0,0.250295 -0.205698,0.457468 -0.457467,0.457468 l -1.434224,0 c -0.252713,0 -0.458883,-0.206642 -0.458883,-0.457468 0,-5e-6 0,-1.479469 0,-1.479469" />
</svg>
