<?xml version="1.0" encoding="UTF-8" standalone="no"?>
<svg
   xmlns:dc="http://purl.org/dc/elements/1.1/"
   xmlns:cc="http://creativecommons.org/ns#"
   xmlns:rdf="http://www.w3.org/1999/02/22-rdf-syntax-ns#"
   xmlns:svg="http://www.w3.org/2000/svg"
   xmlns="http://www.w3.org/2000/svg"
   xmlns:xlink="http://www.w3.org/1999/xlink"
   xmlns:sodipodi="http://sodipodi.sourceforge.net/DTD/sodipodi-0.dtd"
   xmlns:inkscape="http://www.inkscape.org/namespaces/inkscape"
   viewBox="0 0 64 64"
   id="svg13202"
   version="1.1"
   inkscape:version="0.91 r13725"
   sodipodi:docname="network-server.svg">
  <metadata
     id="metadata13228">
    <rdf:RDF>
      <cc:Work
         rdf:about="">
        <dc:format>image/svg+xml</dc:format>
        <dc:type
           rdf:resource="http://purl.org/dc/dcmitype/StillImage" />
        <dc:title></dc:title>
      </cc:Work>
    </rdf:RDF>
  </metadata>
  <sodipodi:namedview
     pagecolor="#ffffff"
     bordercolor="#666666"
     borderopacity="1"
     objecttolerance="10"
     gridtolerance="10"
     guidetolerance="10"
     inkscape:pageopacity="0"
     inkscape:pageshadow="2"
     inkscape:window-width="1280"
     inkscape:window-height="694"
     id="namedview13226"
     showgrid="false"
     inkscape:zoom="3.6875"
     inkscape:cx="-60.881356"
     inkscape:cy="32"
     inkscape:window-x="0"
     inkscape:window-y="0"
     inkscape:window-maximized="1"
     inkscape:current-layer="svg13202" />
  <defs
     id="defs13204">
    <linearGradient
       xlink:href="#1"
       id="3"
       x1="-19.915"
       y1="1048.7"
       x2="-19.996"
       y2="1025.51"
       gradientUnits="userSpaceOnUse"
       gradientTransform="translate(51.949,-1001.46)" />
    <linearGradient
       gradientUnits="userSpaceOnUse"
       y2="354.29"
       x2="-704.05"
       y1="647.77"
       x1="-701.19"
       id="2"
       gradientTransform="matrix(0.01590505,0,0,0.01845141,129.51168,-45.007092)">
      <stop
         stop-color="#93cfff"
         id="stop13208" />
      <stop
         offset="1"
         stop-color="#cde8fe"
         id="stop13210" />
    </linearGradient>
    <linearGradient
       xlink:href="#1"
       id="0"
       x1="59.12"
       y1="-13.295"
       x2="59.15"
       y2="-37.783"
       gradientUnits="userSpaceOnUse"
       gradientTransform="matrix(0.52660675,0,0,0.52570737,-19.441377,28.676662)" />
    <linearGradient
       id="1">
      <stop
         stop-color="#289bf7"
         id="stop13214" />
      <stop
         offset="1"
         stop-color="#71b9f1"
         id="stop13216" />
    </linearGradient>
  </defs>
  <rect
     style="fill:#80b3ff;stroke:none;stroke-width:0.32295448"
     id="rect13222"
     rx="1.2142509"
     width="58.487045"
     height="43.170807"
     x="3.0217602"
     y="10.17371" />
  <g
     id="g3"
     transform="matrix(0.97272134,0,0,0.9282928,35.490441,28.20338)"
     style="fill:#ffffff">
    <path
       d="M 8.083,11.222 6.419,15 c -0.041,0.094 -0.144,0.154 -0.257,0.154 l -0.852,0 C 5.197,15.154 5.094,15.093 5.054,15 L 4.264,13.197 C 4.187,13.019 4.117,12.849 4.051,12.68 3.978,12.866 3.903,13.039 3.828,13.205 l -0.833,1.8 C 2.953,15.096 2.851,15.154 2.74,15.154 l -0.852,0 c -0.117,0 -0.219,-0.063 -0.259,-0.158 L 0.072,11.217 C 0.042,11.143 0.054,11.061 0.106,10.996 0.158,10.931 0.241,10.893 0.331,10.893 l 0.959,0 c 0.121,0 0.227,0.069 0.263,0.169 l 0.684,1.92 c 0.057,0.162 0.11,0.315 0.159,0.461 0.06,-0.146 0.125,-0.3 0.194,-0.463 l 0.842,-1.932 c 0.041,-0.093 0.143,-0.155 0.256,-0.155 l 0.792,0 c 0.115,0 0.217,0.063 0.258,0.157 l 0.798,1.89 c 0.072,0.17 0.136,0.329 0.195,0.479 0.049,-0.142 0.106,-0.296 0.171,-0.465 l 0.737,-1.898 c 0.038,-0.098 0.143,-0.164 0.26,-0.164 l 0.926,0 c 0.091,0 0.175,0.039 0.227,0.104 0.053,0.068 0.063,0.151 0.031,0.226 z m 8.922,0 L 15.341,15 c -0.041,0.094 -0.144,0.154 -0.256,0.154 l -0.854,0 c -0.113,0 -0.215,-0.061 -0.256,-0.154 l -0.789,-1.803 c -0.078,-0.178 -0.148,-0.348 -0.214,-0.517 -0.073,0.186 -0.148,0.359 -0.223,0.525 l -0.833,1.8 c -0.042,0.091 -0.143,0.149 -0.255,0.149 l -0.853,0 c -0.116,0 -0.219,-0.063 -0.259,-0.158 L 8.992,11.217 C 8.962,11.143 8.974,11.061 9.026,10.996 9.078,10.932 9.162,10.893 9.251,10.893 l 0.959,0 c 0.121,0 0.227,0.069 0.263,0.169 l 0.683,1.92 c 0.057,0.162 0.11,0.315 0.161,0.461 0.059,-0.146 0.123,-0.3 0.192,-0.463 l 0.843,-1.932 c 0.04,-0.093 0.142,-0.155 0.256,-0.155 l 0.792,0 c 0.115,0 0.218,0.063 0.258,0.157 l 0.799,1.89 c 0.071,0.17 0.135,0.329 0.193,0.479 0.051,-0.142 0.106,-0.296 0.172,-0.465 l 0.737,-1.898 c 0.038,-0.098 0.144,-0.164 0.261,-0.164 l 0.926,0 c 0.092,0 0.177,0.039 0.227,0.104 0.053,0.068 0.065,0.151 0.032,0.226 z m 8.921,0 L 24.263,15 c -0.042,0.094 -0.144,0.154 -0.257,0.154 l -0.853,0 C 23.04,15.154 22.937,15.093 22.897,15 L 22.108,13.197 C 22.03,13.019 21.96,12.849 21.894,12.68 c -0.073,0.186 -0.149,0.359 -0.224,0.525 l -0.833,1.8 c -0.042,0.091 -0.144,0.149 -0.255,0.149 l -0.852,0 c -0.117,0 -0.22,-0.063 -0.26,-0.158 l -1.557,-3.779 c -0.029,-0.074 -0.019,-0.156 0.033,-0.221 0.052,-0.065 0.136,-0.103 0.226,-0.103 l 0.96,0 c 0.121,0 0.227,0.069 0.262,0.169 l 0.684,1.92 c 0.057,0.162 0.11,0.315 0.16,0.461 0.059,-0.146 0.123,-0.3 0.192,-0.463 l 0.843,-1.932 c 0.041,-0.093 0.143,-0.155 0.257,-0.155 l 0.791,0 c 0.115,0 0.218,0.063 0.258,0.157 l 0.798,1.89 c 0.072,0.17 0.137,0.329 0.196,0.479 0.049,-0.142 0.106,-0.296 0.171,-0.465 l 0.738,-1.898 c 0.037,-0.098 0.142,-0.164 0.26,-0.164 l 0.926,0 c 0.092,0 0.176,0.039 0.227,0.104 0.051,0.068 0.063,0.151 0.031,0.226 z"
       id="path5"
       inkscape:connector-curvature="0"
       style="fill:#ffffff" />
    <g
       id="g7"
       style="fill:#ffffff">
      <path
         d="M 2.71,9 C 2.993,8.282 3.347,7.599 3.767,6.963 3.829,6.975 3.887,7 3.952,7 l 1.88,0 C 5.633,7.634 5.477,8.309 5.342,9 L 7.397,9 C 7.552,8.301 7.732,7.624 7.959,7 l 9.986,0 c 0.227,0.624 0.407,1.301 0.562,2 l 2.055,0 C 20.427,8.309 20.271,7.634 20.072,7 l 1.88,0 c 0.065,0 0.123,-0.025 0.186,-0.037 0.418,0.636 0.773,1.319 1.056,2.037 l 2.121,0 C 23.624,3.784 18.724,0 12.952,0 7.18,0 2.28,3.784 0.588,9 L 2.71,9 Z M 20.478,5 19.29,5 C 19.032,4.457 18.748,3.95 18.439,3.481 19.179,3.909 19.861,4.419 20.478,5 Z M 12.952,2 c 1.551,0 2.983,1.154 4.062,3 L 8.89,5 C 9.969,3.154 11.401,2 12.952,2 Z M 7.463,3.481 C 7.155,3.95 6.871,4.457 6.613,5 L 5.426,5 C 6.043,4.419 6.725,3.909 7.463,3.481 Z"
         id="path9"
         inkscape:connector-curvature="0"
         style="fill:#ffffff" />
      <path
         d="m 23.194,17 c -0.283,0.719 -0.638,1.4 -1.057,2.037 C 22.075,19.025 22.017,19 21.952,19 l -1.881,0 c 0.199,-0.634 0.355,-1.309 0.49,-2 l -2.055,0 c -0.154,0.699 -0.335,1.377 -0.562,2 L 7.959,19 C 7.732,18.377 7.552,17.699 7.397,17 l -2.054,0 c 0.135,0.691 0.291,1.366 0.49,2 L 3.952,19 C 3.887,19 3.829,19.025 3.767,19.037 3.348,18.4 2.993,17.719 2.71,17 l -2.122,0 c 1.692,5.216 6.592,9 12.364,9 5.772,0 10.672,-3.784 12.363,-9 l -2.121,0 z m -17.768,4 1.188,0 c 0.258,0.543 0.542,1.051 0.85,1.519 C 6.725,22.091 6.043,21.581 5.426,21 Z m 7.526,3 C 11.401,24 9.969,22.846 8.89,21 l 8.123,0 c -1.078,1.846 -2.51,3 -4.061,3 z M 18.44,22.519 C 18.749,22.051 19.033,21.543 19.291,21 l 1.188,0 c -0.618,0.581 -1.3,1.091 -2.039,1.519 z"
         id="path11"
         inkscape:connector-curvature="0"
         style="fill:#ffffff" />
    </g>
  </g>
</svg>
