<?xml version="1.0" encoding="UTF-8" standalone="no"?>
<svg
   xmlns:dc="http://purl.org/dc/elements/1.1/"
   xmlns:cc="http://creativecommons.org/ns#"
   xmlns:rdf="http://www.w3.org/1999/02/22-rdf-syntax-ns#"
   xmlns:svg="http://www.w3.org/2000/svg"
   xmlns="http://www.w3.org/2000/svg"
   xmlns:xlink="http://www.w3.org/1999/xlink"
   xmlns:sodipodi="http://sodipodi.sourceforge.net/DTD/sodipodi-0.dtd"
   xmlns:inkscape="http://www.inkscape.org/namespaces/inkscape"
   viewBox="0 0 48 48"
   id="svg2"
   version="1.1"
   inkscape:version="0.91 r13725"
   sodipodi:docname="org.kde.uptimeWidget.svg">
  <metadata
     id="metadata38">
    <rdf:RDF>
      <cc:Work
         rdf:about="">
        <dc:format>image/svg+xml</dc:format>
        <dc:type
           rdf:resource="http://purl.org/dc/dcmitype/StillImage" />
        <dc:title></dc:title>
      </cc:Work>
    </rdf:RDF>
  </metadata>
  <sodipodi:namedview
     pagecolor="#535353"
     bordercolor="#666666"
     borderopacity="1"
     objecttolerance="10"
     gridtolerance="10"
     guidetolerance="10"
     inkscape:pageopacity="0"
     inkscape:pageshadow="2"
     inkscape:window-width="1280"
     inkscape:window-height="694"
     id="namedview36"
     showgrid="false"
     inkscape:zoom="4.9166667"
     inkscape:cx="-45.661017"
     inkscape:cy="24"
     inkscape:window-x="0"
     inkscape:window-y="0"
     inkscape:window-maximized="1"
     inkscape:current-layer="svg2" />
  <defs
     id="defs4">
    <linearGradient
       xlink:href="#0-9"
       id="5"
       gradientUnits="userSpaceOnUse"
       x1="216.16"
       y1="323.41"
       x2="215.55"
       y2="299.26999" />
    <linearGradient
       xlink:href="#0-9"
       id="3"
       gradientUnits="userSpaceOnUse"
       x1="224.39999"
       y1="304.60001"
       x2="226.22"
       y2="300.32999" />
    <linearGradient
       id="1"
       x1="216.16"
       y1="323.41"
       x2="215.55"
       y2="299.27"
       gradientUnits="userSpaceOnUse">
      <stop
         stop-color="#2e3e46"
         id="stop14" />
      <stop
         offset="1"
         stop-color="#435a64"
         id="stop16" />
    </linearGradient>
    <linearGradient
       xlink:href="#0-9"
       id="2"
       gradientUnits="userSpaceOnUse"
       x1="207.82001"
       y1="305.17999"
       x2="205.57001"
       y2="300.14001" />
    <linearGradient
       id="0-9"
       y1="7.758"
       x2="0"
       y2="-19.542"
       gradientUnits="userSpaceOnUse">
      <stop
         id="stop4276"
         stop-color="#dce2ff" />
      <stop
         id="stop4278"
         stop-color="#f8feff"
         offset="1" />
    </linearGradient>
    <linearGradient
       gradientTransform="matrix(0.13837718,0,0,0.13837718,-6.1584965,-41.637906)"
       id="0"
       y1="653.96002"
       x2="0"
       y2="301.29999"
       gradientUnits="userSpaceOnUse">
      <stop
         stop-color="#0a80fd"
         id="stop7" />
      <stop
         offset="1"
         stop-color="#56c5fa"
         id="stop9" />
    </linearGradient>
  </defs>
  <g
     id="g26"
     transform="matrix(1.7951595,0,0,1.8763939,-363.84201,-560.46124)"
     style="fill:#80b3ff">
    <path
       id="path28"
       d="m 216,302 c -6.06,0 -11,4.935 -11,11 0,6.06 4.935,11 11,11 6.06,0 11,-4.935 11,-11 0,-6.06 -4.935,-11 -11,-11"
       inkscape:connector-curvature="0"
       style="fill:#80b3ff;fill-opacity:1" />
    <path
       id="path30"
       d="m 204.28,306.49 -1.244,-1.462 c -0.537,-0.642 -0.452,-1.606 0.191,-2.145 l 4.196,-3.585 c 0.642,-0.536 1.675,-0.41 2.214,0.233 l 1.462,1.719 c -2.745,1.08 -5.05,3.039 -6.571,5.53 z"
       inkscape:connector-curvature="0"
       style="fill:#80b3ff;fill-opacity:1" />
    <path
       id="path32"
       d="m 229.07,304.99 -1.562,1.867 c -1.502,-2.503 -3.797,-4.477 -6.535,-5.574 l 1.45,-1.732 c 0.532,-0.646 1.564,-0.782 2.21,-0.25 l 4.229,3.546 c 0.646,0.533 0.739,1.497 0.208,2.143"
       inkscape:connector-curvature="0"
       style="fill:#80b3ff;fill-opacity:1" />
  </g>
</svg>
