<?xml version="1.0" encoding="UTF-8" standalone="no"?>
<!-- Generator: Adobe Illustrator 12.0.0, SVG Export Plug-In . SVG Version: 6.00 Build 51448)  -->

<svg
   xmlns:dc="http://purl.org/dc/elements/1.1/"
   xmlns:cc="http://creativecommons.org/ns#"
   xmlns:rdf="http://www.w3.org/1999/02/22-rdf-syntax-ns#"
   xmlns:svg="http://www.w3.org/2000/svg"
   xmlns="http://www.w3.org/2000/svg"
   xmlns:sodipodi="http://sodipodi.sourceforge.net/DTD/sodipodi-0.dtd"
   xmlns:inkscape="http://www.inkscape.org/namespaces/inkscape"
   version="1.1"
   id="图层_1"
   width="248"
   height="248"
   viewBox="0 0 248 248"
   style="overflow:visible;enable-background:new 0 0 248 248;"
   xml:space="preserve"
   inkscape:version="0.91 r13725"
   sodipodi:docname="face-ninja.svg"><metadata
     id="metadata49"><rdf:RDF><cc:Work
         rdf:about=""><dc:format>image/svg+xml</dc:format><dc:type
           rdf:resource="http://purl.org/dc/dcmitype/StillImage" /><dc:title></dc:title></cc:Work></rdf:RDF></metadata><defs
     id="defs47" /><sodipodi:namedview
     pagecolor="#ffffff"
     bordercolor="#666666"
     borderopacity="1"
     objecttolerance="10"
     gridtolerance="10"
     guidetolerance="10"
     inkscape:pageopacity="0"
     inkscape:pageshadow="2"
     inkscape:window-width="1280"
     inkscape:window-height="694"
     id="namedview45"
     showgrid="false"
     inkscape:zoom="0.9516129"
     inkscape:cx="-59.636782"
     inkscape:cy="124"
     inkscape:window-x="0"
     inkscape:window-y="0"
     inkscape:window-maximized="1"
     inkscape:current-layer="图层_1" /><circle
     style="fill:#ffdd55"
     cx="124"
     cy="124"
     r="124"
     id="circle3" /><g
     id="g4176"
     transform="translate(-1.0508475,27.322034)"><g
       style="fill:#fff6d5"
       id="g5"><g
         id="g7"
         style="opacity:0.02999998;fill:#fff6d5"><path
           style="fill:#fff6d5"
           id="path9"
           d="m 120.093,78.824 c 0,24.109 -18.211,43.653 -40.675,43.653 -22.464,0 -40.675,-19.544 -40.675,-43.653 0,-24.108 31.608,-43.652 54.073,-43.652 22.465,0 27.277,19.544 27.277,43.652 z"
           inkscape:connector-curvature="0" /></g><g
         style="fill:#fff6d5"
         id="g11"><path
           id="path13"
           d="m 120.093,71.824 c 0,24.109 -18.211,43.653 -40.675,43.653 -22.464,0 -40.676,-19.544 -40.676,-43.653 0,-24.108 31.608,-43.652 54.073,-43.652 22.465,0 27.278,19.544 27.278,43.652 z"
           style="fill:#fff6d5"
           inkscape:connector-curvature="0" /></g></g><g
       style="fill:#fff6d5"
       id="g15"><g
         id="g17"
         style="opacity:0.02999998;fill:#fff6d5"><path
           style="fill:#fff6d5"
           id="path19"
           d="m 212.039,78.824 c 0,24.109 -18.21,43.653 -40.674,43.653 -22.466,0 -40.676,-19.543 -40.676,-43.653 0,-24.108 8.162,-43.652 30.627,-43.652 22.465,0 50.723,19.544 50.723,43.652 z"
           inkscape:connector-curvature="0" /></g><g
         style="fill:#fff6d5"
         id="g21"><path
           id="path23"
           d="m 212.039,71.824 c 0,24.109 -18.21,43.653 -40.674,43.653 -22.466,0 -40.676,-19.543 -40.676,-43.653 0,-24.108 8.162,-43.652 30.627,-43.652 22.465,0 50.723,19.544 50.723,43.652 z"
           style="fill:#fff6d5"
           inkscape:connector-curvature="0" /></g></g><circle
       style="fill:#2b2200"
       id="circle35"
       r="12.858"
       cy="73.737999"
       cx="152.06599" /><circle
       style="fill:#2b2200"
       id="circle39"
       r="12.859"
       cy="73.737999"
       cx="98.794998" /></g><path
     inkscape:connector-curvature="0"
     id="path4214"
     style="opacity:1;fill:#414141;fill-opacity:1;fill-rule:evenodd;stroke:none;stroke-width:0.58527619;stroke-linecap:round;stroke-linejoin:round;stroke-miterlimit:4;stroke-dasharray:none;stroke-dashoffset:0;stroke-opacity:1"
     d="M 228.27456,122.93736 A 104.27458,44.031661 0 0 1 124,166.96902 104.27458,44.031661 0 0 1 19.725448,122.93736 104.27458,44.031661 0 0 1 124,78.905692 104.27458,44.031661 0 0 1 228.27456,122.93736 Z m 20.31866,1.58792 A 124.59322,124.0678 0 0 1 124,248.59322 124.59322,124.0678 0 0 1 -0.59322186,124.52528 124.59322,124.0678 0 0 1 124,0.45762776 124.59322,124.0678 0 0 1 248.59322,124.52528 Z" /></svg>