<?xml version="1.0" encoding="UTF-8" standalone="no"?>
<svg
   xmlns:dc="http://purl.org/dc/elements/1.1/"
   xmlns:cc="http://creativecommons.org/ns#"
   xmlns:rdf="http://www.w3.org/1999/02/22-rdf-syntax-ns#"
   xmlns:svg="http://www.w3.org/2000/svg"
   xmlns="http://www.w3.org/2000/svg"
   xmlns:sodipodi="http://sodipodi.sourceforge.net/DTD/sodipodi-0.dtd"
   xmlns:inkscape="http://www.inkscape.org/namespaces/inkscape"
   viewBox="0 0 48 48"
   id="svg2"
   version="1.1"
   inkscape:version="0.91 r13725"
   sodipodi:docname="accessories-clock.svg">
  <metadata
     id="metadata24">
    <rdf:RDF>
      <cc:Work
         rdf:about="">
        <dc:format>image/svg+xml</dc:format>
        <dc:type
           rdf:resource="http://purl.org/dc/dcmitype/StillImage" />
        <dc:title></dc:title>
      </cc:Work>
    </rdf:RDF>
  </metadata>
  <sodipodi:namedview
     pagecolor="#ffffff"
     bordercolor="#666666"
     borderopacity="1"
     objecttolerance="10"
     gridtolerance="10"
     guidetolerance="10"
     inkscape:pageopacity="0"
     inkscape:pageshadow="2"
     inkscape:window-width="1280"
     inkscape:window-height="694"
     id="namedview22"
     showgrid="false"
     inkscape:zoom="4.9166667"
     inkscape:cx="-13.511299"
     inkscape:cy="24"
     inkscape:window-x="0"
     inkscape:window-y="0"
     inkscape:window-maximized="1"
     inkscape:current-layer="svg2" />
  <defs
     id="defs4">
    <linearGradient
       id="0"
       x1="-28.999"
       y1="514.82"
       x2="-15.58"
       y2="-56.05"
       gradientUnits="userSpaceOnUse"
       gradientTransform="matrix(0.07843067,0,0,0.07848117,34.44901,6.5271227)">
      <stop
         stop-color="#d3d3d3"
         id="stop7" />
      <stop
         offset="1"
         stop-color="#fcf9f9"
         id="stop9" />
    </linearGradient>
    <linearGradient
       y2="501.79"
       x2="0"
       y1="545.79"
       gradientUnits="userSpaceOnUse"
       id="1"
       gradientTransform="matrix(1.04348,0,0,1.04399,-402.34,-522.84)">
      <stop
         stop-color="#197cf1"
         id="stop12" />
      <stop
         offset="1"
         stop-color="#20bcfa"
         id="stop14" />
    </linearGradient>
  </defs>
  <g
     id="g3"
     transform="matrix(0.7954807,0,0,0.78644114,0.33896839,0.40676566)">
    <circle
       cx="30"
       cy="29.879"
       r="2"
       id="circle5"
       style="fill:#006df0" />
    <path
       d="M 30,0 C 13.458,0 0,13.458 0,30 0,46.542 13.458,60 30,60 46.542,60 60,46.542 60,30 60,13.458 46.542,0 30,0 Z m -1,7.879 c 0,-0.553 0.448,-1 1,-1 0.552,0 1,0.447 1,1 l 0,1 c 0,0.553 -0.448,1 -1,1 -0.552,0 -1,-0.447 -1,-1 l 0,-1 z m -20,23 -1,0 c -0.552,0 -1,-0.447 -1,-1 0,-0.553 0.448,-1 1,-1 l 1,0 c 0.552,0 1,0.447 1,1 0,0.553 -0.448,1 -1,1 z m 6.858,14.557 -0.707,0.707 c -0.195,0.195 -0.451,0.293 -0.707,0.293 -0.256,0 -0.512,-0.098 -0.707,-0.293 -0.391,-0.391 -0.391,-1.023 0,-1.414 l 0.707,-0.707 c 0.391,-0.391 1.023,-0.391 1.414,0 0.391,0.391 0.391,1.023 0,1.414 z m 0,-29.7 c -0.195,0.195 -0.451,0.293 -0.707,0.293 -0.256,0 -0.512,-0.098 -0.707,-0.293 l -0.707,-0.707 c -0.391,-0.391 -0.391,-1.023 0,-1.414 0.391,-0.391 1.023,-0.391 1.414,0 l 0.707,0.707 c 0.391,0.391 0.391,1.024 0,1.414 z M 31,51.879 c 0,0.553 -0.448,1 -1,1 -0.552,0 -1,-0.447 -1,-1 l 0,-1 c 0,-0.553 0.448,-1 1,-1 0.552,0 1,0.447 1,1 l 0,1 z m -1,-18 c -1.858,0 -3.411,-1.28 -3.858,-3 l -7.142,0 c -0.552,0 -1,-0.447 -1,-1 0,-0.553 0.448,-1 1,-1 l 7.142,0 C 26.506,27.48 27.601,26.385 29,26.021 l 0,-10.142 c 0,-0.553 0.448,-1 1,-1 0.552,0 1,0.447 1,1 l 0,10.142 c 1.72,0.447 3,1.999 3,3.858 0,2.206 -1.794,4 -4,4 z m 16.263,12.264 c -0.195,0.195 -0.451,0.293 -0.707,0.293 -0.256,0 -0.512,-0.098 -0.707,-0.293 l -0.707,-0.707 c -0.391,-0.391 -0.391,-1.023 0,-1.414 0.391,-0.391 1.023,-0.391 1.414,0 l 0.707,0.707 c 0.391,0.39 0.391,1.023 0,1.414 z m 0,-31.114 -0.707,0.707 c -0.195,0.195 -0.451,0.293 -0.707,0.293 -0.256,0 -0.512,-0.098 -0.707,-0.293 -0.391,-0.391 -0.391,-1.023 0,-1.414 l 0.707,-0.707 c 0.391,-0.391 1.023,-0.391 1.414,0 0.391,0.391 0.391,1.024 0,1.414 z m 5.737,15.85 -1,0 c -0.552,0 -1,-0.447 -1,-1 0,-0.553 0.448,-1 1,-1 l 1,0 c 0.552,0 1,0.447 1,1 0,0.553 -0.448,1 -1,1 z"
       id="path7"
       inkscape:connector-curvature="0"
       style="fill:#006df0" />
  </g>
</svg>
