<?xml version="1.0" encoding="UTF-8" standalone="no"?>
<!-- Created with Inkscape (http://www.inkscape.org/) -->

<svg
   xmlns:dc="http://purl.org/dc/elements/1.1/"
   xmlns:cc="http://creativecommons.org/ns#"
   xmlns:rdf="http://www.w3.org/1999/02/22-rdf-syntax-ns#"
   xmlns:svg="http://www.w3.org/2000/svg"
   xmlns="http://www.w3.org/2000/svg"
   xmlns:sodipodi="http://sodipodi.sourceforge.net/DTD/sodipodi-0.dtd"
   xmlns:inkscape="http://www.inkscape.org/namespaces/inkscape"
   width="48"
   height="48"
   id="svg2"
   version="1.1"
   inkscape:version="0.91 r13725"
   sodipodi:docname="administration.svg">
  <defs
     id="defs4">
    <clipPath
       clipPathUnits="userSpaceOnUse"
       id="clipPath3891">
      <path
         sodipodi:nodetypes="scccccccccccccsscccccccccccccss"
         inkscape:connector-curvature="0"
         id="path3893"
         d="m 14.929796,1019.9515 c -1.088214,0 -1.96875,0.8806 -1.96875,1.9688 0.166816,1.3072 -0.268516,1.3767 -1.328125,1.9999 -1.104701,0.7979 -1.295073,0.8007 -2.3906252,0.1563 -0.942421,-0.5441 -2.143393,-0.2237 -2.6875,0.7188 l -0.8125,1.4062 c -0.544107,0.9424 -0.223671,2.1434 0.71875,2.6875 1.207179,0.5004 1.034696,0.9384 1.046875,2.1563 0.137759,1.3588 0.06562,1.5346 -1.046875,2.1562 -0.942421,0.5441 -1.262857,1.7138 -0.71875,2.6563 l 0.8125,1.4062 c 0.544107,0.9424 1.745079,1.2629 2.6875,0.7188 1.0596202,-0.7832 1.3312692,-0.4357 2.3906252,0.1875 1.203764,0.5637 1.328125,0.7296 1.328125,1.9687 0,1.0882 0.880536,1.9688 1.96875,1.9688 l 1.625,0 c 1.088214,0 1.96875,-0.8806 1.96875,-1.9688 -0.167594,-1.2868 0.290497,-1.3618 1.328125,-1.9843 1.103834,-0.8098 1.289728,-0.8195 2.390625,-0.1719 0.942421,0.5441 2.143393,0.2236 2.6875,-0.7188 l 0.8125,-1.4062 c 0.544107,-0.9425 0.223671,-2.1122 -0.71875,-2.6563 -1.207208,-0.5003 -1.034697,-0.9383 -1.04688,-2.1562 -0.137778,-1.3588 -0.06559,-1.5346 1.04687,-2.1563 0.942421,-0.5441 1.262857,-1.7451 0.71875,-2.6875 l -0.8125,-1.4062 c -0.544107,-0.9425 -1.745079,-1.2629 -2.6875,-0.7188 -1.057834,0.8147 -1.317775,0.4748 -2.390625,-0.1563 -1.220815,-0.569 -1.328125,-0.7444 -1.328125,-1.9999 0,-1.0882 -0.880536,-1.9688 -1.96875,-1.9688 z"
         style="color:#000000;fill:#385a5a;fill-opacity:1;fill-rule:evenodd;stroke:none;stroke-width:16;marker:none;visibility:visible;display:inline;overflow:visible;enable-background:accumulate" />
    </clipPath>
  </defs>
  <sodipodi:namedview
     id="base"
     pagecolor="#ffffff"
     bordercolor="#666666"
     borderopacity="1.0"
     inkscape:pageopacity="0.0"
     inkscape:pageshadow="2"
     inkscape:zoom="5.6"
     inkscape:cx="-28.375"
     inkscape:cy="19.33642"
     inkscape:document-units="px"
     inkscape:current-layer="layer1"
     showgrid="false"
     showguides="true"
     inkscape:guide-bbox="true"
     inkscape:window-width="1280"
     inkscape:window-height="694"
     inkscape:window-x="0"
     inkscape:window-y="0"
     inkscape:window-maximized="1" />
  <metadata
     id="metadata7">
    <rdf:RDF>
      <cc:Work
         rdf:about="">
        <dc:format>image/svg+xml</dc:format>
        <dc:type
           rdf:resource="http://purl.org/dc/dcmitype/StillImage" />
        <dc:title></dc:title>
      </cc:Work>
    </rdf:RDF>
  </metadata>
  <g
     inkscape:label="Capa 1"
     inkscape:groupmode="layer"
     id="layer1"
     transform="translate(0,-1004.3622)">
    <path
       style="color:#000000;fill:#ffffff;fill-opacity:0.05499998;fill-rule:evenodd;stroke:none;stroke-width:16;marker:none;visibility:visible;display:inline;overflow:visible;enable-background:accumulate"
       d="m 14.407308,1029.2872 0,0.3076 c 0,2.1433 1.734239,3.8775 3.877504,3.8775 l 11.632512,0 c 1.986216,0 3.588127,-1.5236 3.815957,-3.4467 -0.359563,1.7662 -1.940599,3.139 -3.815957,3.139 l -11.632512,0 c -2.143265,0 -3.877504,-1.7342 -3.877504,-3.8774 z"
       id="rect3910"
       inkscape:connector-curvature="0" />
    <path
       sodipodi:nodetypes="scccccccccccccsscccccccccccccss"
       inkscape:connector-curvature="0"
       id="path3881"
       d="m 22.210811,1004.4717 c -2.540812,0 -4.596729,1.9047 -4.596729,4.2585 0.389489,2.8274 -0.626945,2.9778 -3.100971,4.3258 -2.579308,1.7257 -3.023798,1.7318 -5.5817442,0.338 -2.2004072,-1.1769 -5.0044939,-0.4838 -6.2748999,1.5548 l -1.89706493,3.0415 c -1.27040593,2.0384 -0.52223674,4.6359 1.67817303,5.813 2.8185774,1.0823 2.4158567,2.0295 2.4442938,4.6639 0.3216444,2.939 0.1532106,3.3193 -2.4442938,4.6638 -2.20040977,1.1769 -2.94857896,3.7068 -1.67817303,5.7454 l 1.89706493,3.0415 c 1.270406,2.0385 4.0744927,2.7317 6.2748999,1.5547 2.4740522,-1.6939 3.1083112,-0.9423 5.5817442,0.4057 2.810606,1.2193 3.100971,1.5781 3.100971,4.2582 0,2.3536 2.055917,4.2584 4.596729,4.2584 l 3.794127,0 c 2.540815,0 4.596729,-1.9048 4.596729,-4.2584 -0.391305,-2.7833 0.678269,-2.9457 3.100969,-4.2922 2.577284,-1.7513 3.011318,-1.7723 5.581744,-0.3717 2.200411,1.177 5.004495,0.4838 6.274904,-1.5547 l 1.897062,-3.0415 c 1.270407,-2.0386 0.522236,-4.5685 -1.678171,-5.7454 -2.818646,-1.0821 -2.415859,-2.0295 -2.444306,-4.6638 -0.32169,-2.939 -0.153147,-3.3193 2.444282,-4.6639 2.200409,-1.1771 2.948579,-3.7746 1.678172,-5.813 l -1.897063,-3.0415 c -1.270407,-2.0386 -4.074494,-2.7317 -6.274901,-1.5548 -2.469884,1.7622 -3.076805,1.0269 -5.581745,-0.338 -2.850417,-1.2308 -3.10097,-1.6101 -3.10097,-4.3258 0,-2.3538 -2.055915,-4.2585 -4.596729,-4.2585 z"
       style="color:#000000;display:inline;overflow:visible;visibility:visible;fill:#003380;fill-opacity:1;fill-rule:evenodd;stroke:none;stroke-width:16;marker:none;enable-background:accumulate" />
    <rect
       style="color:#000000;display:inline;overflow:visible;visibility:visible;fill:#80b3ff;fill-opacity:1;fill-rule:evenodd;stroke:none;stroke-width:16;marker:none;enable-background:accumulate"
       id="rect3895"
       width="22.955511"
       height="9.5590067"
       x="12.630118"
       y="1023.6539"
       ry="4.2486644" />
    <ellipse
       cy="1028.4333"
       cx="17.800835"
       style="fill:#0044aa;fill-opacity:1;fill-rule:evenodd;stroke:none"
       id="path3897"
       rx="5.5278563"
       ry="5.1208973" />
  </g>
</svg>
