<?xml version="1.0" encoding="UTF-8" standalone="no"?>
<!-- Generator: Adobe Illustrator 19.0.0, SVG Export Plug-In . SVG Version: 6.00 Build 0)  -->

<svg
   xmlns:dc="http://purl.org/dc/elements/1.1/"
   xmlns:cc="http://creativecommons.org/ns#"
   xmlns:rdf="http://www.w3.org/1999/02/22-rdf-syntax-ns#"
   xmlns:svg="http://www.w3.org/2000/svg"
   xmlns="http://www.w3.org/2000/svg"
   xmlns:sodipodi="http://sodipodi.sourceforge.net/DTD/sodipodi-0.dtd"
   xmlns:inkscape="http://www.inkscape.org/namespaces/inkscape"
   version="1.1"
   id="Capa_1"
   x="0px"
   y="0px"
   viewBox="0 0 58.156 58.156"
   style="enable-background:new 0 0 58.156 58.156;"
   xml:space="preserve"
   width="512px"
   height="512px"
   inkscape:version="0.91 r13725"
   sodipodi:docname="alarm-clock.svg"><metadata
     id="metadata43"><rdf:RDF><cc:Work
         rdf:about=""><dc:format>image/svg+xml</dc:format><dc:type
           rdf:resource="http://purl.org/dc/dcmitype/StillImage" /><dc:title></dc:title></cc:Work></rdf:RDF></metadata><defs
     id="defs41" /><sodipodi:namedview
     pagecolor="#ffffff"
     bordercolor="#666666"
     borderopacity="1"
     objecttolerance="10"
     gridtolerance="10"
     guidetolerance="10"
     inkscape:pageopacity="0"
     inkscape:pageshadow="2"
     inkscape:window-width="1280"
     inkscape:window-height="694"
     id="namedview39"
     showgrid="false"
     inkscape:zoom="0.4609375"
     inkscape:cx="-97.627119"
     inkscape:cy="256"
     inkscape:window-x="0"
     inkscape:window-y="0"
     inkscape:window-maximized="1"
     inkscape:current-layer="Capa_1" /><g
     id="g3"><path
       d="M50.189,9.767l4.096,4.096c0.188,0.188,0.442,0.293,0.707,0.293s0.52-0.105,0.707-0.293c3.167-3.166,3.167-8.319,0-11.485   C54.166,0.845,52.126,0,49.957,0c-2.169,0-4.208,0.845-5.742,2.378c-0.188,0.188-0.293,0.441-0.293,0.707s0.105,0.52,0.293,0.707   l4.561,4.561l-1.699,1.699c-4.78-4.284-11.089-6.896-17.998-6.896S15.86,5.768,11.08,10.052L9.381,8.353l4.561-4.561   c0.188-0.188,0.293-0.441,0.293-0.707s-0.105-0.52-0.293-0.707C12.408,0.845,10.369,0,8.2,0C6.03,0,3.991,0.845,2.457,2.378   c-3.167,3.166-3.167,8.319,0,11.485c0.188,0.188,0.442,0.293,0.707,0.293s0.52-0.105,0.707-0.293l4.096-4.096l1.676,1.676   C4.964,16.3,2.078,22.896,2.078,30.156c0,9.898,5.357,18.564,13.321,23.265l-3.028,3.028c-0.391,0.391-0.391,1.023,0,1.414   c0.195,0.195,0.451,0.293,0.707,0.293s0.512-0.098,0.707-0.293l3.45-3.45c3.578,1.754,7.597,2.743,11.843,2.743   s8.265-0.989,11.843-2.743l3.45,3.45c0.195,0.195,0.451,0.293,0.707,0.293s0.512-0.098,0.707-0.293   c0.391-0.391,0.391-1.023,0-1.414l-3.028-3.028c7.964-4.701,13.321-13.367,13.321-23.265c0-7.26-2.886-13.856-7.565-18.713   L50.189,9.767z M8.078,31.035h-1c-0.552,0-1-0.447-1-1s0.448-1,1-1h1c0.552,0,1,0.447,1,1S8.63,31.035,8.078,31.035z    M14.936,45.592l-0.707,0.707c-0.195,0.195-0.451,0.293-0.707,0.293s-0.512-0.098-0.707-0.293c-0.391-0.391-0.391-1.023,0-1.414   l0.707-0.707c0.391-0.391,1.023-0.391,1.414,0S15.327,45.201,14.936,45.592z M14.936,15.893c-0.195,0.195-0.451,0.293-0.707,0.293   s-0.512-0.098-0.707-0.293l-0.707-0.707c-0.391-0.391-0.391-1.023,0-1.414s1.023-0.391,1.414,0l0.707,0.707   C15.327,14.869,15.327,15.502,14.936,15.893z M28.078,8.035c0-0.553,0.448-1,1-1s1,0.447,1,1v1c0,0.553-0.448,1-1,1s-1-0.447-1-1   V8.035z M30.078,52.035c0,0.553-0.448,1-1,1s-1-0.447-1-1v-1c0-0.553,0.448-1,1-1s1,0.447,1,1V52.035z M40.078,31.156h-7.142   c-0.447,1.72-2,3-3.858,3c-2.206,0-4-1.794-4-4c0-1.859,1.28-3.411,3-3.858V16.156c0-0.553,0.448-1,1-1s1,0.447,1,1v10.142   c1.399,0.364,2.494,1.459,2.858,2.858h7.142c0.552,0,1,0.447,1,1S40.63,31.156,40.078,31.156z M45.341,46.299   c-0.195,0.195-0.451,0.293-0.707,0.293s-0.512-0.098-0.707-0.293l-0.707-0.707c-0.391-0.391-0.391-1.023,0-1.414   s1.023-0.391,1.414,0l0.707,0.707C45.732,45.275,45.732,45.908,45.341,46.299z M45.341,15.186l-0.707,0.707   c-0.195,0.195-0.451,0.293-0.707,0.293s-0.512-0.098-0.707-0.293c-0.391-0.391-0.391-1.023,0-1.414l0.707-0.707   c0.391-0.391,1.023-0.391,1.414,0S45.732,14.795,45.341,15.186z M50.078,29.035h1c0.552,0,1,0.447,1,1s-0.448,1-1,1h-1   c-0.552,0-1-0.447-1-1S49.526,29.035,50.078,29.035z"
       fill="#006DF0"
       id="path5" /><circle
       cx="29.078"
       cy="30.156"
       r="2"
       fill="#006DF0"
       id="circle7" /></g><g
     id="g9" /><g
     id="g11" /><g
     id="g13" /><g
     id="g15" /><g
     id="g17" /><g
     id="g19" /><g
     id="g21" /><g
     id="g23" /><g
     id="g25" /><g
     id="g27" /><g
     id="g29" /><g
     id="g31" /><g
     id="g33" /><g
     id="g35" /><g
     id="g37" /></svg>