<?xml version="1.0" encoding="UTF-8" standalone="no"?>
<svg
   xmlns:dc="http://purl.org/dc/elements/1.1/"
   xmlns:cc="http://creativecommons.org/ns#"
   xmlns:rdf="http://www.w3.org/1999/02/22-rdf-syntax-ns#"
   xmlns:svg="http://www.w3.org/2000/svg"
   xmlns="http://www.w3.org/2000/svg"
   xmlns:sodipodi="http://sodipodi.sourceforge.net/DTD/sodipodi-0.dtd"
   xmlns:inkscape="http://www.inkscape.org/namespaces/inkscape"
   viewBox="0 0 48 48"
   id="svg2"
   version="1.1"
   inkscape:version="0.91 r13725"
   sodipodi:docname="arduino.svg">
  <metadata
     id="metadata25">
    <rdf:RDF>
      <cc:Work
         rdf:about="">
        <dc:format>image/svg+xml</dc:format>
        <dc:type
           rdf:resource="http://purl.org/dc/dcmitype/StillImage" />
        <dc:title></dc:title>
      </cc:Work>
    </rdf:RDF>
  </metadata>
  <sodipodi:namedview
     pagecolor="#ffffff"
     bordercolor="#666666"
     borderopacity="1"
     objecttolerance="10"
     gridtolerance="10"
     guidetolerance="10"
     inkscape:pageopacity="0"
     inkscape:pageshadow="2"
     inkscape:window-width="1280"
     inkscape:window-height="694"
     id="namedview23"
     showgrid="false"
     inkscape:zoom="4.9166667"
     inkscape:cx="-9.1525424"
     inkscape:cy="24"
     inkscape:window-x="0"
     inkscape:window-y="0"
     inkscape:window-maximized="1"
     inkscape:current-layer="svg2" />
  <defs
     id="defs4">
    <linearGradient
       id="0"
       y1="22.24"
       x2="0"
       y2="-25.76"
       gradientUnits="userSpaceOnUse"
       gradientTransform="matrix(0.99999,0,0,0.99999,-13.411,25.762)">
      <stop
         stop-color="#1365f4"
         id="stop7" />
      <stop
         offset="1"
         stop-color="#05b2fc"
         id="stop9" />
    </linearGradient>
  </defs>
  <g
     style="fill:#3771c8;fill-opacity:0.75"
     id="g15"
     transform="matrix(1.4830409,0,0,3.2311322,-31.056796,29.501572)">
    <path
       inkscape:connector-curvature="0"
       id="path17"
       d="m 29.16,-9.06 c -2.043,0 -4.03,0.774 -5.49,2.144 -1.462,1.375 -2.298,3.279 -2.298,5.241 0,1.962 0.842,3.861 2.298,5.231 1.442,1.356 3.399,2.126 5.418,2.139 l 0,0.005 c 0.025,0 0.043,0 0.073,0 2.409,0.101 4.356,-0.784 5.778,-2.063 0.981,-0.89 1.73,-1.932 2.433,-3 0.702,1.067 1.452,2.111 2.433,3 1.423,1.279 3.365,2.164 5.778,2.063 0.02,0 0.043,0 0.068,0 l 0,-0.005 c 2.02,-0.02 3.98,-0.784 5.423,-2.139 1.462,-1.375 2.298,-3.269 2.298,-5.231 0,-1.962 -0.842,-3.871 -2.298,-5.241 -1.462,-1.37 -3.447,-2.144 -5.49,-2.144 -2.543,0 -4.548,0.966 -6.03,2.308 -0.855,0.779 -1.548,1.668 -2.178,2.582 -0.635,-0.913 -1.322,-1.803 -2.182,-2.582 -1.481,-1.342 -3.49,-2.308 -6.03,-2.308 m 0,2.606 c 1.894,0 3.105,0.61 4.222,1.611 0.875,0.794 1.639,1.899 2.404,3.072 -0.87,1.37 -1.707,2.64 -2.649,3.49 -1.049,0.943 -2.129,1.466 -3.904,1.375 l -0.038,-0.005 -0.033,0 c -1.337,0 -2.693,-0.529 -3.62,-1.399 L 25.521,1.675 C 24.588,0.8 24.04,-0.464 24.04,-1.681 c 0,-1.221 0.548,-2.486 1.481,-3.36 0.943,-0.875 2.303,-1.413 3.644,-1.413 m 16.433,0 c 1.337,0 2.697,0.539 3.639,1.413 0.933,0.88 1.486,2.144 1.486,3.36 0,1.221 -0.553,2.486 -1.486,3.356 L 49.212,1.69 c -0.933,0.865 -2.283,1.399 -3.616,1.399 l -0.038,0 -0.033,0.005 c -1.77,0.091 -2.86,-0.433 -3.909,-1.375 -0.938,-0.85 -1.778,-2.121 -2.644,-3.49 0.764,-1.173 1.524,-2.283 2.404,-3.072 1.11,-1 2.322,-1.611 4.222,-1.611"
       style="fill:#3771c8" />
    <path
       inkscape:connector-curvature="0"
       id="path19"
       d="m 44.2,-4.591 0,2.099 -2.094,0 0,2.094 2.094,0 0,2.099 2.099,0 0,-2.099 2.094,0 0,-2.094 -2.094,0 0,-2.099"
       style="fill:#3771c8" />
    <path
       inkscape:connector-curvature="0"
       id="path21"
       d="m 26.831,-2.579 0,2.094 5.247,0 0,-2.094"
       style="fill:#3771c8" />
  </g>
</svg>
