<?xml version="1.0" encoding="UTF-8" standalone="no"?>
<svg
   xmlns:dc="http://purl.org/dc/elements/1.1/"
   xmlns:cc="http://creativecommons.org/ns#"
   xmlns:rdf="http://www.w3.org/1999/02/22-rdf-syntax-ns#"
   xmlns:svg="http://www.w3.org/2000/svg"
   xmlns="http://www.w3.org/2000/svg"
   xmlns:sodipodi="http://sodipodi.sourceforge.net/DTD/sodipodi-0.dtd"
   xmlns:inkscape="http://www.inkscape.org/namespaces/inkscape"
   viewBox="0 0 48 48"
   id="svg2"
   version="1.1"
   inkscape:version="0.91 r13725"
   sodipodi:docname="awn-applet.svg">
  <metadata
     id="metadata17">
    <rdf:RDF>
      <cc:Work
         rdf:about="">
        <dc:format>image/svg+xml</dc:format>
        <dc:type
           rdf:resource="http://purl.org/dc/dcmitype/StillImage" />
        <dc:title></dc:title>
      </cc:Work>
    </rdf:RDF>
  </metadata>
  <sodipodi:namedview
     pagecolor="#ffffff"
     bordercolor="#666666"
     borderopacity="1"
     objecttolerance="10"
     gridtolerance="10"
     guidetolerance="10"
     inkscape:pageopacity="0"
     inkscape:pageshadow="2"
     inkscape:window-width="1280"
     inkscape:window-height="694"
     id="namedview15"
     showgrid="false"
     inkscape:zoom="4.9166667"
     inkscape:cx="-9.1525424"
     inkscape:cy="24"
     inkscape:window-x="0"
     inkscape:window-y="0"
     inkscape:window-maximized="1"
     inkscape:current-layer="svg2" />
  <defs
     id="defs4">
    <linearGradient
       gradientTransform="matrix(.49433 0 0 .4778 86.64 13.1)"
       gradientUnits="userSpaceOnUse"
       y2="-26.05"
       x2="-125.19"
       y1="73.5"
       x1="-123.97"
       id="0">
      <stop
         stop-color="#2b65bd"
         id="stop7" />
      <stop
         offset="1"
         stop-color="#64a3dc"
         id="stop9" />
    </linearGradient>
  </defs>
  <path
     d="m 47.240335,22.778987 -7.068278,-7.070034 c -0.672792,-0.67281 -0.463832,-1.391528 0.463831,-1.598912 0,0 0.766191,-0.172555 1.711267,-1.117654 2.026293,-2.026342 2.02471,-5.3143995 0,-7.3375757 -2.027876,-2.0263424 -5.312686,-2.0263424 -7.338978,0 -0.945076,0.9435156 -1.116044,1.7097264 -1.116044,1.7097264 -0.208962,0.9292678 -0.929246,1.1382344 -1.602038,0.4638424 L 25.221817,0.76309404 c -0.672793,-0.67280901 -1.77459,-0.67280901 -2.447382,0 L 15.707739,7.8299631 c -0.67121,0.6743922 -0.463831,1.3946936 0.463831,1.60366 0,0 0.767775,0.1725558 1.711267,1.1144889 2.02471,2.026342 2.026294,5.312816 0,7.340741 -2.026292,2.026343 -5.314268,2.02476 -7.338978,0 C 9.6003663,16.943755 9.4278149,16.177544 9.4278149,16.177544 9.2204365,15.248276 8.4985697,15.040893 7.8257773,15.713701 l -7.06669565,7.068453 c -0.67279248,0.672809 -0.67279248,1.773049 0,2.444275 l 7.06669565,7.068452 c 0.6727924,0.67281 0.463831,1.393111 -0.4638312,1.602078 0,0 -0.7661918,0.172556 -1.7112674,1.117654 -2.0262926,2.026342 -2.0262926,5.312816 0,7.337576 2.0262926,2.024759 5.3126863,2.026342 7.3389783,0 0.945076,-0.943516 1.116044,-1.709726 1.116044,-1.709726 0.208962,-0.929268 0.929246,-1.138235 1.602038,-0.463843 l 7.068278,7.065286 c 0.672794,0.672809 1.77459,0.672809 2.447382,0 l 7.069862,-7.066869 c 0.672792,-0.672809 0.463831,-1.394694 -0.463831,-1.602077 0,0 -0.767775,-0.172556 -1.711267,-1.114489 -2.027876,-2.026342 -2.026293,-5.312816 0,-7.340742 2.026292,-2.026342 5.312686,-2.027925 7.338978,0 0.943492,0.943516 1.114461,1.71131 1.114461,1.71131 0.208961,0.929268 0.929245,1.138234 1.602037,0.467008 l 7.06828,-7.070034 c 0.672792,-0.67281 0.672792,-1.77305 0,-2.444276"
     id="path13"
     style="fill:#0044aa;fill-opacity:0.85100002"
     inkscape:connector-curvature="0" />
</svg>
