<?xml version="1.0" encoding="UTF-8" standalone="no"?>
<!-- Created with Inkscape (http://www.inkscape.org/) -->

<svg
   xmlns:dc="http://purl.org/dc/elements/1.1/"
   xmlns:cc="http://creativecommons.org/ns#"
   xmlns:rdf="http://www.w3.org/1999/02/22-rdf-syntax-ns#"
   xmlns:svg="http://www.w3.org/2000/svg"
   xmlns="http://www.w3.org/2000/svg"
   xmlns:xlink="http://www.w3.org/1999/xlink"
   xmlns:sodipodi="http://sodipodi.sourceforge.net/DTD/sodipodi-0.dtd"
   xmlns:inkscape="http://www.inkscape.org/namespaces/inkscape"
   width="128"
   height="128"
   id="svg5453"
   version="1.1"
   inkscape:version="0.91 r13725"
   sodipodi:docname="baloo.svg">
  <defs
     id="defs5455">
    <linearGradient
       id="linearGradient4074"
       inkscape:collect="always">
      <stop
         id="stop4076"
         offset="0"
         style="stop-color:#007dba;stop-opacity:1" />
      <stop
         id="stop4078"
         offset="1"
         style="stop-color:#00afda;stop-opacity:1" />
    </linearGradient>
    <linearGradient
       gradientUnits="userSpaceOnUse"
       y2="-499.78632"
       x2="425.90933"
       y1="-547.82617"
       x1="425.90933"
       id="linearGradient4156"
       xlink:href="#linearGradient4074"
       inkscape:collect="always"
       gradientTransform="translate(-5.8251953e-6,-1.8183594e-5)" />
  </defs>
  <sodipodi:namedview
     id="base"
     pagecolor="#ffffff"
     bordercolor="#666666"
     borderopacity="1.0"
     inkscape:pageopacity="0"
     inkscape:pageshadow="2"
     inkscape:zoom="2.1588223"
     inkscape:cx="31.9809"
     inkscape:cy="81.373789"
     inkscape:document-units="px"
     inkscape:current-layer="layer1"
     showgrid="true"
     fit-margin-top="0"
     fit-margin-left="0"
     fit-margin-right="0"
     fit-margin-bottom="0"
     inkscape:window-width="1280"
     inkscape:window-height="694"
     inkscape:window-x="0"
     inkscape:window-y="0"
     inkscape:window-maximized="1"
     inkscape:showpageshadow="false"
     borderlayer="true">
    <inkscape:grid
       type="xygrid"
       id="grid3000"
       empspacing="5"
       visible="true"
       enabled="true"
       snapvisiblegridlinesonly="true" />
  </sodipodi:namedview>
  <metadata
     id="metadata5458">
    <rdf:RDF>
      <cc:Work
         rdf:about="">
        <dc:format>image/svg+xml</dc:format>
        <dc:type
           rdf:resource="http://purl.org/dc/dcmitype/StillImage" />
        <dc:title></dc:title>
      </cc:Work>
    </rdf:RDF>
  </metadata>
  <g
     inkscape:label="Capa 1"
     inkscape:groupmode="layer"
     id="layer1"
     transform="translate(-384.57143,-419.798)">
    <path
       style="fill:#217867;fill-opacity:1;fill-rule:evenodd;stroke:none"
       d="m 431.28839,420.36358 a 24.736454,14.388268 87.080888 0 0 -13.03082,25.55775 24.736454,14.388268 87.080888 0 0 15.69527,23.8427 24.736454,14.388268 87.080888 0 0 13.03086,-25.55783 24.736454,14.388268 87.080888 0 0 -15.69531,-23.84262 z m 43.50875,4.20871 a 14.497688,24.549763 21.863906 0 0 -18.42209,17.22402 14.497688,24.549763 21.863906 0 0 3.53432,28.76303 14.497688,24.549763 21.863906 0 0 22.732,-16.40684 14.497688,24.549763 21.863906 0 0 -3.53432,-28.76342 14.497688,24.549763 21.863906 0 0 -4.30991,-0.81679 z m -78.21781,17.67275 a 24.628636,14.451258 73.508465 0 0 -2.86111,0.47319 24.628636,14.451258 73.508465 0 0 -6.29915,28.23521 24.628636,14.451258 73.508465 0 0 21.02618,18.75657 24.628636,14.451258 73.508465 0 0 6.29916,-28.2352 24.628636,14.451258 73.508465 0 0 -18.16508,-19.22977 z m 105.86773,13.79711 a 14.563814,24.438294 28.135416 0 0 -20.21104,14.83848 14.563814,24.438294 28.135416 0 0 0.31116,29.00028 14.563814,24.438294 28.135416 0 0 24.40064,-13.49602 14.563814,24.438294 28.135416 0 0 -0.31116,-29.00066 14.563814,24.438294 28.135416 0 0 -4.18957,-1.34208 z m -56.95333,15.72593 c -5.56267,-0.003 -11.35319,3.67374 -15.2707,11.61851 -6.7573,8.41249 -9.07504,11.50628 -23.51596,18.72505 -7.15635,5.34662 -10.63606,12.73445 -8.94522,22.99355 4.61331,16.29244 19.25282,16.82109 24.89914,16.88161 7.86939,0.90554 14.80755,-0.47438 23.60793,2.71654 8.41591,0.68225 16.40197,3.62613 25.26808,1.94015 20.74039,-6.89936 16.74761,-29.84371 4.91041,-38.19791 l -15.97678,-23.31273 c -2.66086,-8.62198 -8.67247,-13.35912 -14.9769,-13.36477 z"
       id="path4126"
       inkscape:connector-curvature="0" />
  </g>
</svg>
