<?xml version="1.0" encoding="UTF-8" standalone="no"?>
<svg
   xmlns:dc="http://purl.org/dc/elements/1.1/"
   xmlns:cc="http://creativecommons.org/ns#"
   xmlns:rdf="http://www.w3.org/1999/02/22-rdf-syntax-ns#"
   xmlns:svg="http://www.w3.org/2000/svg"
   xmlns="http://www.w3.org/2000/svg"
   xmlns:sodipodi="http://sodipodi.sourceforge.net/DTD/sodipodi-0.dtd"
   xmlns:inkscape="http://www.inkscape.org/namespaces/inkscape"
   viewBox="0 0 48 48"
   id="svg2"
   version="1.1"
   inkscape:version="0.91 r13725"
   sodipodi:docname="bleachbit.svg">
  <metadata
     id="metadata40">
    <rdf:RDF>
      <cc:Work
         rdf:about="">
        <dc:format>image/svg+xml</dc:format>
        <dc:type
           rdf:resource="http://purl.org/dc/dcmitype/StillImage" />
        <dc:title></dc:title>
      </cc:Work>
    </rdf:RDF>
  </metadata>
  <sodipodi:namedview
     pagecolor="#ffffff"
     bordercolor="#666666"
     borderopacity="1"
     objecttolerance="10"
     gridtolerance="10"
     guidetolerance="10"
     inkscape:pageopacity="0"
     inkscape:pageshadow="2"
     inkscape:window-width="1280"
     inkscape:window-height="694"
     id="namedview38"
     showgrid="false"
     inkscape:zoom="4.9166667"
     inkscape:cx="-9.1525424"
     inkscape:cy="24"
     inkscape:window-x="0"
     inkscape:window-y="0"
     inkscape:window-maximized="1"
     inkscape:current-layer="svg2" />
  <defs
     id="defs4">
    <linearGradient
       id="0"
       y1="549.91"
       x2="0"
       y2="516.93"
       gradientUnits="userSpaceOnUse">
      <stop
         stop-color="#317a02"
         id="stop7" />
      <stop
         offset="1"
         stop-color="#8cff58"
         id="stop9" />
    </linearGradient>
    <linearGradient
       id="1"
       gradientUnits="userSpaceOnUse"
       y1="549.91"
       x2="0"
       y2="516.93">
      <stop
         stop-color="#4da70e"
         id="stop12" />
      <stop
         offset="1"
         stop-color="#9ded46"
         id="stop14" />
    </linearGradient>
  </defs>
  <g
     style="fill:#71c837;fill-opacity:0.85"
     id="g24"
     transform="matrix(0.0963484,0,0,0.09809138,0.47979674,-0.19838136)">
    <path
       inkscape:connector-curvature="0"
       id="path26"
       d="m 420.49,352.01 -112.95,0 0,-35.567 -32.487,43.03 -32.507,43.02 32.507,43.03 32.487,43.03 0,-24.616 60.2,-2.275 c 53.21,-3.215 65.931,-25.19 65.931,-25.19 l 59.783,-111.08 c -22.04,30.73 -72.964,26.622 -72.964,26.622"
       style="fill:#71c837" />
    <path
       inkscape:connector-curvature="0"
       id="path28"
       d="m 451.53,192.18 -96.35,55.964 48.17,83.51 c 49.09,4.577 64.21,-10.561 64.21,-10.561 39.33,-22.249 17.459,-71.59 17.459,-71.59 l -33.488,-57.33"
       style="fill:#71c837" />
    <path
       inkscape:connector-curvature="0"
       id="path30"
       d="m 66.956,425.68 c -14.868,-34.753 15.08,-76.19 15.08,-76.19 l 58.55,-96.58 30.396,18.444 -19.966,-50.1 -19.918,-50.09 -53.647,5.485 -53.645,5.498 21.03,12.737 -29.22,52.668 c -24.84,47.16 -12.608,69.43 -12.608,69.43 l 63.944,108.69"
       style="fill:#71c837" />
    <path
       inkscape:connector-curvature="0"
       id="path32"
       d="m 83.71,408.62 c -1.347,45.19 52.17,52.02 52.17,52.02 l 66.43,1.099 2.072,-111.42 -96.38,-2.076 c -29.375,39.593 -24.29,60.38 -24.29,60.38"
       style="fill:#71c837" />
    <path
       inkscape:connector-curvature="0"
       id="path34"
       d="m 324.37,181.03 53.28,8.152 22.395,-49.05 22.43,-49.03 -21.639,11.685 -30.604,-51.862 c -28.11,-45.3 -53.52,-46.03 -53.52,-46.03 l -126.14,0.163 c 37.53,4.774 58.1,51.55 58.1,51.55 l 53.657,99.36 -31.27,16.901 53.31,8.158"
       style="fill:#71c837" />
    <path
       inkscape:connector-curvature="0"
       id="path36"
       d="M 236.69,75.57 C 217.395,30.2 196.878,24.06 196.878,24.06 158.608,0.05 125.618,42.737 125.618,42.737 l -34.557,56.725 95.03,58.17 50.592,-82.06"
       style="fill:#71c837" />
  </g>
</svg>
