<?xml version="1.0" encoding="UTF-8" standalone="no"?>
<!-- Generator: Adobe Illustrator 19.0.0, SVG Export Plug-In . SVG Version: 6.00 Build 0)  -->

<svg
   xmlns:dc="http://purl.org/dc/elements/1.1/"
   xmlns:cc="http://creativecommons.org/ns#"
   xmlns:rdf="http://www.w3.org/1999/02/22-rdf-syntax-ns#"
   xmlns:svg="http://www.w3.org/2000/svg"
   xmlns="http://www.w3.org/2000/svg"
   xmlns:sodipodi="http://sodipodi.sourceforge.net/DTD/sodipodi-0.dtd"
   xmlns:inkscape="http://www.inkscape.org/namespaces/inkscape"
   version="1.1"
   id="Capa_1"
   x="0px"
   y="0px"
   viewBox="0 0 58 58"
   style="enable-background:new 0 0 58 58;"
   xml:space="preserve"
   inkscape:version="0.91 r13725"
   sodipodi:docname="calendar.svg"><metadata
     id="metadata49"><rdf:RDF><cc:Work
         rdf:about=""><dc:format>image/svg+xml</dc:format><dc:type
           rdf:resource="http://purl.org/dc/dcmitype/StillImage" /><dc:title></dc:title></cc:Work></rdf:RDF></metadata><defs
     id="defs47" /><sodipodi:namedview
     pagecolor="#ffffff"
     bordercolor="#666666"
     borderopacity="1"
     objecttolerance="10"
     gridtolerance="10"
     guidetolerance="10"
     inkscape:pageopacity="0"
     inkscape:pageshadow="2"
     inkscape:window-width="1280"
     inkscape:window-height="694"
     id="namedview45"
     showgrid="false"
     inkscape:zoom="4.0689655"
     inkscape:cx="-11.059322"
     inkscape:cy="29"
     inkscape:window-x="0"
     inkscape:window-y="0"
     inkscape:window-maximized="1"
     inkscape:current-layer="Capa_1" /><g
     id="g4177"
     transform="matrix(1.0591651,0,0,1,-1.5929065,0)"><polygon
       id="polygon3"
       points="17,4 17,8 10,8 10,4 2,4 2,15 56,15 56,4 48,4 48,8 41,8 41,4 "
       style="fill:#fc3952" /><polygon
       id="polygon5"
       points="56,15 48,15 41,15 17,15 10,15 2,15 2,58 56,58 "
       style="fill:#edeada" /><path
       id="path7"
       d="m 39,22 -2,0 -7,0 -2,0 -7,0 -2,0 -9,0 0,9 0,2 0,7 0,2 0,9 9,0 2,0 7,0 2,0 7,0 2,0 9,0 0,-9 0,-2 0,-7 0,-2 0,-9 -9,0 z m -9,2 7,0 0,7 -7,0 0,-7 z m 7,16 -7,0 0,-7 7,0 0,7 z m -16,-7 7,0 0,7 -7,0 0,-7 z m 0,-9 7,0 0,7 -7,0 0,-7 z m -9,0 7,0 0,7 -7,0 0,-7 z m 0,9 7,0 0,7 -7,0 0,-7 z m 7,16 -7,0 0,-7 7,0 0,7 z m 9,0 -7,0 0,-7 7,0 0,7 z m 9,0 -7,0 0,-7 7,0 0,7 z m 9,0 -7,0 0,-7 7,0 0,7 z m 0,-9 -7,0 0,-7 7,0 0,7 z m -7,-9 0,-7 7,0 0,7 -7,0 z"
       style="fill:#cec9ae"
       inkscape:connector-curvature="0" /><rect
       id="rect9"
       height="8"
       width="7"
       style="fill:#28384c"
       x="10"
       y="0" /><rect
       id="rect11"
       height="8"
       width="7"
       style="fill:#28384c"
       x="41"
       y="0" /><rect
       id="rect13"
       height="7"
       width="7"
       style="fill:#26b99a"
       y="33"
       x="30" /></g><g
     id="g15" /><g
     id="g17" /><g
     id="g19" /><g
     id="g21" /><g
     id="g23" /><g
     id="g25" /><g
     id="g27" /><g
     id="g29" /><g
     id="g31" /><g
     id="g33" /><g
     id="g35" /><g
     id="g37" /><g
     id="g39" /><g
     id="g41" /><g
     id="g43" /></svg>