<?xml version="1.0" encoding="UTF-8" standalone="no"?>
<svg
   xmlns:dc="http://purl.org/dc/elements/1.1/"
   xmlns:cc="http://creativecommons.org/ns#"
   xmlns:rdf="http://www.w3.org/1999/02/22-rdf-syntax-ns#"
   xmlns:svg="http://www.w3.org/2000/svg"
   xmlns="http://www.w3.org/2000/svg"
   xmlns:sodipodi="http://sodipodi.sourceforge.net/DTD/sodipodi-0.dtd"
   xmlns:inkscape="http://www.inkscape.org/namespaces/inkscape"
   viewBox="0 0 48 48"
   id="svg2"
   version="1.1"
   inkscape:version="0.91 r13725"
   sodipodi:docname="calligrakarbon.svg">
  <metadata
     id="metadata29">
    <rdf:RDF>
      <cc:Work
         rdf:about="">
        <dc:format>image/svg+xml</dc:format>
        <dc:type
           rdf:resource="http://purl.org/dc/dcmitype/StillImage" />
        <dc:title></dc:title>
      </cc:Work>
    </rdf:RDF>
  </metadata>
  <sodipodi:namedview
     pagecolor="#ffffff"
     bordercolor="#666666"
     borderopacity="1"
     objecttolerance="10"
     gridtolerance="10"
     guidetolerance="10"
     inkscape:pageopacity="0"
     inkscape:pageshadow="2"
     inkscape:window-width="1280"
     inkscape:window-height="694"
     id="namedview27"
     showgrid="false"
     inkscape:zoom="4.9166667"
     inkscape:cx="-42"
     inkscape:cy="24"
     inkscape:window-x="0"
     inkscape:window-y="0"
     inkscape:window-maximized="1"
     inkscape:current-layer="svg2" />
  <defs
     id="defs4">
    <linearGradient
       id="0"
       x1="58.688"
       y1="12.344"
       x2="58.1"
       y2="-35.22"
       gradientUnits="userSpaceOnUse"
       gradientTransform="matrix(0.99999,0,0,0.99999,-33.371,35.882)">
      <stop
         stop-color="#95a9bb"
         id="stop7" />
      <stop
         offset="1"
         stop-color="#d1dae3"
         id="stop9" />
    </linearGradient>
  </defs>
  <path
     style="fill:#c8ab37;fill-opacity:1"
     inkscape:connector-curvature="0"
     id="path25"
     d="m 6.178504,45.7814 15.15659,0 0,1.994466 5.510911,0 0,-1.994466 15.221517,0 0,2.253842 5.510911,0 0,-5.583857 -2.033337,0 0,-15.617406 1.968409,0 0,-5.583858 -1.968409,0 0,-14.4977345 2.033337,0 0,-5.58386 -5.510911,0 0,1.1357822 -15.221517,0 0,-1.99446453 -5.510911,0 0,1.99446453 -15.15659,0 0,-1.39676978 -5.51091098,0 0,5.58385828 1.96840898,0 0,14.7587238 -1.96840898,0 0,5.583858 1.96840898,0 0,15.356418 -1.96840898,0 0,5.583858 5.51091098,0 0,-1.994467 m -1.574094,0 0,0.399539 -2.362724,0 0,-2.394003 0.394316,0 1.574094,0 0.394314,0 0,0.399537 0,1.594927 m 18.304777,-43.4770904 0,-0.3995366 2.362725,0 0,0.3995366 0,0.8345182 0,0.7604095 0,0.3995383 -2.362725,0 0,-0.3995383 0,-0.7604095 0,-0.8345182 m 2.362725,43.4770904 0,0.399539 -2.362725,0 0,-0.399539 0,-0.834516 0,-0.760411 0,-0.399537 2.362725,0 0,0.399537 0,0.760411 0,0.834516 m 0.262876,-20.84039 c 0.15361,0.156272 0.15361,0.407593 0,0.563863 -0.0776,0.07733 -0.177363,0.115996 -0.278713,0.115996 -0.09977,0 -0.201117,-0.03867 -0.278712,-0.115996 l -0.885231,-0.897348 -0.885228,0.897348 c -0.0776,0.07733 -0.177364,0.115996 -0.278713,0.115996 -0.101356,0 -0.201117,-0.03867 -0.278713,-0.115996 -0.153612,-0.156273 -0.153612,-0.407592 0,-0.563863 l 0.885229,-0.897349 -0.885229,-0.897348 c -0.153612,-0.154661 -0.153612,-0.409204 0,-0.563864 0.15361,-0.154661 0.403817,-0.154661 0.557426,0 l 0.886812,0.897349 0.88523,-0.897349 c 0.153611,-0.154661 0.402233,-0.154661 0.557425,0 0.153611,0.154661 0.153611,0.409205 0,0.563864 l -0.885228,0.897348 0.886812,0.897349 m 20.471135,21.499306 -2.36114,0 0,-0.658916 0,-1.594927 0,-0.13855 0.327804,0 1.574094,0 0.459242,0 0,2.392391 m -3.936817,-3.98893 0,1.733477 -12.331455,0 c 6.872802,-1.973522 12.28553,-7.459107 14.233353,-14.422015 l 0,12.688538 -1.903481,0 m 3.871888,-17.212334 -0.394314,0 -0.82347,0 -0.750623,0 -0.394316,0 0,-2.394002 0.394316,0 0.750623,0 0.82347,0 0.394314,0 0,2.394002 m -2.296212,-22.4755964 1.903482,0 0.459242,0 0,2.3940043 -0.459242,0 -1.574094,0 -0.327804,0 0,-1.2566111 0,-1.1357821 m -1.574094,1.1357821 0,2.85315 1.903482,0 0,11.5688662 C 42.029515,11.356732 36.615203,5.8727572 29.743985,3.8992348 l 12.331455,0 M 2.248021,2.5024651 l 0.394316,0 1.968408,0 0,1.3967697 0,0.997233 -0.394315,0 -1.574093,0 -0.394316,0 0,-2.3940027 m 3.936817,3.9889305 0,-2.5921608 12.264945,0 C 11.57698,5.8743683 6.164253,11.356732 4.21643,18.321251 l 0,-11.8282443 1.968408,0 m -3.936817,16.3536513 0.394316,0 0.82347,0 0.750623,0 0.394315,0 0,2.394003 -0.394315,0 -0.750623,0 -0.82347,0 -0.394316,0 0,-2.394003 m 1.968409,6.917798 c 1.949405,6.964519 7.36055,12.448494 14.233353,14.422014 l -12.264945,0 0,-1.994464 -1.968408,0 0,-12.42755" />
</svg>
