<?xml version="1.0" encoding="UTF-8" standalone="no"?>
<svg
   xmlns:dc="http://purl.org/dc/elements/1.1/"
   xmlns:cc="http://creativecommons.org/ns#"
   xmlns:rdf="http://www.w3.org/1999/02/22-rdf-syntax-ns#"
   xmlns:svg="http://www.w3.org/2000/svg"
   xmlns="http://www.w3.org/2000/svg"
   xmlns:sodipodi="http://sodipodi.sourceforge.net/DTD/sodipodi-0.dtd"
   xmlns:inkscape="http://www.inkscape.org/namespaces/inkscape"
   x="0px"
   y="0px"
   width="48px"
   height="48px"
   viewBox="0 0 48 48"
   id="svg2"
   version="1.1"
   inkscape:version="0.91 r13725"
   sodipodi:docname="computer.svg">
  <metadata
     id="metadata20">
    <rdf:RDF>
      <cc:Work
         rdf:about="">
        <dc:format>image/svg+xml</dc:format>
        <dc:type
           rdf:resource="http://purl.org/dc/dcmitype/StillImage" />
        <dc:title></dc:title>
      </cc:Work>
    </rdf:RDF>
  </metadata>
  <defs
     id="defs18" />
  <sodipodi:namedview
     pagecolor="#ffffff"
     bordercolor="#666666"
     borderopacity="1"
     objecttolerance="10"
     gridtolerance="10"
     guidetolerance="10"
     inkscape:pageopacity="0"
     inkscape:pageshadow="2"
     inkscape:window-width="1280"
     inkscape:window-height="694"
     id="namedview16"
     showgrid="false"
     inkscape:zoom="4.9166667"
     inkscape:cx="-9.1525424"
     inkscape:cy="24"
     inkscape:window-x="0"
     inkscape:window-y="0"
     inkscape:window-maximized="1"
     inkscape:current-layer="svg2" />
  <polygon
     style="fill:#939dac"
     id="polygon6"
     points="18,45 19,38 29,38 30,45 "
     transform="matrix(1.0397937,0,0,1.0129823,-0.85335298,-0.62315182)" />
  <path
     style="fill:#939dac"
     inkscape:connector-curvature="0"
     id="path8"
     d="m 44.89757,0.38983048 -41.5917482,0 c -1.7226261,0 -3.11938108,1.36074412 -3.11938108,3.03894692 l 0,28.3635046 47.83051028,0 0,-28.3635046 c 0,-1.6782028 -1.396755,-3.03894692 -3.119381,-3.03894692 z" />
  <path
     style="fill:#b7bec8"
     inkscape:connector-curvature="0"
     id="path10"
     d="m 0.18644072,31.792282 0,5.064911 c 0,1.678212 1.39675498,3.038947 3.11938108,3.038947 l 41.5917482,0 c 1.722626,0 3.119381,-1.360735 3.119381,-3.038947 l 0,-5.064911 -47.83051028,0 z" />
  <rect
     style="fill:#80b3ff"
     id="rect12"
     height="25.324558"
     width="41.591747"
     y="3.4287775"
     x="3.3058219" />
  <path
     style="fill:#b7bec8"
     inkscape:connector-curvature="0"
     id="path14"
     d="m 35.539427,47.999999 -22.875462,0 0,0 c 0,-2.237678 1.862271,-4.05193 4.159175,-4.05193 l 14.557112,0 c 2.296904,0 4.159175,1.814252 4.159175,4.05193 l 0,0 z" />
</svg>
