<?xml version="1.0" encoding="UTF-8" standalone="no"?>
<svg
   xmlns:dc="http://purl.org/dc/elements/1.1/"
   xmlns:cc="http://creativecommons.org/ns#"
   xmlns:rdf="http://www.w3.org/1999/02/22-rdf-syntax-ns#"
   xmlns:svg="http://www.w3.org/2000/svg"
   xmlns="http://www.w3.org/2000/svg"
   xmlns:sodipodi="http://sodipodi.sourceforge.net/DTD/sodipodi-0.dtd"
   xmlns:inkscape="http://www.inkscape.org/namespaces/inkscape"
   viewBox="0 0 48 48"
   id="svg2"
   version="1.1"
   inkscape:version="0.91 r13725"
   sodipodi:docname="ffado.svg">
  <metadata
     id="metadata33">
    <rdf:RDF>
      <cc:Work
         rdf:about="">
        <dc:format>image/svg+xml</dc:format>
        <dc:type
           rdf:resource="http://purl.org/dc/dcmitype/StillImage" />
        <dc:title></dc:title>
      </cc:Work>
    </rdf:RDF>
  </metadata>
  <sodipodi:namedview
     pagecolor="#ffffff"
     bordercolor="#666666"
     borderopacity="1"
     objecttolerance="10"
     gridtolerance="10"
     guidetolerance="10"
     inkscape:pageopacity="0"
     inkscape:pageshadow="2"
     inkscape:window-width="1280"
     inkscape:window-height="694"
     id="namedview31"
     showgrid="false"
     inkscape:zoom="4.9166667"
     inkscape:cx="-9.1525424"
     inkscape:cy="24"
     inkscape:window-x="0"
     inkscape:window-y="0"
     inkscape:window-maximized="1"
     inkscape:current-layer="svg2" />
  <defs
     id="defs4">
    <linearGradient
       id="0"
       gradientUnits="userSpaceOnUse"
       y1="32.369"
       x2="0"
       y2="-16.429"
       gradientTransform="matrix(0.99999,0,0,0.99999,51.629,15.882)">
      <stop
         stop-color="#c52828"
         id="stop7" />
      <stop
         offset="1"
         stop-color="#ff5454"
         id="stop9" />
    </linearGradient>
  </defs>
  <g
     style="fill:#ff2a2a;fill-opacity:0.84600004"
     id="g15"
     transform="matrix(1.6783148,0,0,1.5740468,70.36831,11.319405)">
    <g
       id="g17"
       transform="matrix(0.69942,-0.71471,0.71471,0.69942,0,0)"
       style="fill:#ff2a2a">
      <path
         inkscape:connector-curvature="0"
         id="path19"
         d="m -28.462,-30.518 7.818,0 0,2.773 -7.818,0 z"
         style="fill:#ff2a2a" />
      <path
         inkscape:connector-curvature="0"
         id="path21"
         d="m -28.462,-25.461 7.818,0 0,2.773 -7.818,0 z"
         style="fill:#ff2a2a" />
    </g>
    <path
       style="color:#000000;fill:#ff2a2a"
       inkscape:connector-curvature="0"
       id="path23"
       d="m -27.719,1.503 c -3.219,0 -5.862,2.602 -5.862,5.771 0,3.169 2.643,5.766 5.862,5.766 3.219,0 5.857,-2.597 5.857,-5.766 0,-3.169 -2.638,-5.771 -5.857,-5.771 m 0,2.821 c 1.671,0 2.997,1.305 2.997,2.95 0,1.645 -1.326,2.945 -2.997,2.945 -1.671,0 -2.997,-1.3 -2.997,-2.945 0,-1.645 1.326,-2.95 2.997,-2.95" />
    <path
       inkscape:connector-curvature="0"
       id="path25"
       d="m -17.938,8.22 7.01,0 0,8.584 -7.01,0 z"
       transform="matrix(0.70477,0.70944,-0.70944,0.70477,0,0)"
       style="fill:#ff2a2a" />
    <path
       inkscape:connector-curvature="0"
       id="path27"
       d="m -31.722,15.353 7.818,0 0,2.773 -7.818,0 z"
       style="fill:#ff2a2a" />
    <path
       inkscape:connector-curvature="0"
       id="path29"
       d="m -31.722,20.41 7.818,0 0,2.773 -7.818,0 z"
       style="fill:#ff2a2a" />
  </g>
</svg>
