<?xml version="1.0" encoding="UTF-8" standalone="no"?>
<!-- Generator: Adobe Illustrator 19.0.0, SVG Export Plug-In . SVG Version: 6.00 Build 0)  -->

<svg
   xmlns:dc="http://purl.org/dc/elements/1.1/"
   xmlns:cc="http://creativecommons.org/ns#"
   xmlns:rdf="http://www.w3.org/1999/02/22-rdf-syntax-ns#"
   xmlns:svg="http://www.w3.org/2000/svg"
   xmlns="http://www.w3.org/2000/svg"
   xmlns:sodipodi="http://sodipodi.sourceforge.net/DTD/sodipodi-0.dtd"
   xmlns:inkscape="http://www.inkscape.org/namespaces/inkscape"
   version="1.1"
   id="Capa_1"
   x="0px"
   y="0px"
   viewBox="0 0 58 58"
   style="enable-background:new 0 0 58 58;"
   xml:space="preserve"
   inkscape:version="0.91 r13725"
   sodipodi:docname="foto.svg"><metadata
     id="metadata59"><rdf:RDF><cc:Work
         rdf:about=""><dc:format>image/svg+xml</dc:format><dc:type
           rdf:resource="http://purl.org/dc/dcmitype/StillImage" /><dc:title></dc:title></cc:Work></rdf:RDF></metadata><defs
     id="defs57" /><sodipodi:namedview
     pagecolor="#ffffff"
     bordercolor="#666666"
     borderopacity="1"
     objecttolerance="10"
     gridtolerance="10"
     guidetolerance="10"
     inkscape:pageopacity="0"
     inkscape:pageshadow="2"
     inkscape:window-width="1280"
     inkscape:window-height="694"
     id="namedview55"
     showgrid="false"
     inkscape:zoom="4.0689655"
     inkscape:cx="-11.059322"
     inkscape:cy="29"
     inkscape:window-x="0"
     inkscape:window-y="0"
     inkscape:window-maximized="1"
     inkscape:current-layer="Capa_1" /><path
     style="fill:#879AD8;"
     d="M32,31.5c0,3.595,1.418,6.778,3.6,8.785c2.667-2.007,4.4-5.19,4.4-8.785s-1.733-6.778-4.4-8.785  C33.418,24.722,32,27.905,32,31.5z"
     id="path13" /><path
     style="fill:#879AD8;"
     d="M18,31.5c0,3.595,1.733,6.778,4.4,8.785c2.182-2.007,3.6-5.19,3.6-8.785s-1.418-6.778-3.6-8.785  C19.733,24.722,18,27.905,18,31.5z"
     id="path15" /><g
     id="g4187"
     transform="matrix(1,0,0,1.2353048,0,-6.4551929)"><path
       id="path3"
       d="m 45,15.5 -4,-10 -24,0 -4,10 -9.201,0 C 1.701,15.5 0,17.201 0,19.299 L 0,48.667 C 0,50.784 1.716,52.5 3.833,52.5 l 50.333,0 c 2.117,0 3.833,-1.716 3.833,-3.833 l 0,-29.368 C 57.999,17.201 56.298,15.5 54.2,15.5 l -9.2,0 z"
       style="fill:#556080"
       inkscape:connector-curvature="0" /><circle
       id="circle5"
       r="17"
       cy="31.5"
       cx="29"
       style="fill:#424a60;stroke:#2b313d;stroke-width:2;stroke-linecap:round;stroke-miterlimit:10" /><circle
       id="circle7"
       r="11"
       cy="31.5"
       cx="29"
       style="fill:#7383bf" /><rect
       id="rect9"
       height="5"
       width="4"
       style="fill:#38454f"
       y="10.5"
       x="6" /><circle
       id="circle11"
       r="3"
       cy="22.5"
       cx="51"
       style="fill:#efce4a" /><path
       id="path17"
       d="m 29,43.5 c -6.617,0 -12,-5.383 -12,-12 0,-6.617 5.383,-12 12,-12 6.617,0 12,5.383 12,12 0,6.617 -5.383,12 -12,12 z m 0,-22 c -5.514,0 -10,4.486 -10,10 0,5.514 4.486,10 10,10 5.514,0 10,-4.486 10,-10 0,-5.514 -4.486,-10 -10,-10 z"
       style="fill:#556080"
       inkscape:connector-curvature="0" /><circle
       id="circle19"
       r="3.5"
       cy="28"
       cx="30.5"
       style="fill:#4674e8" /><circle
       id="circle21"
       r="2"
       cy="29.5"
       cx="28"
       style="fill:#bf4d90" /><circle
       id="circle23"
       r="2"
       cy="27.5"
       cx="25"
       style="fill:#bccef7" /></g><g
     id="g25" /><g
     id="g27" /><g
     id="g29" /><g
     id="g31" /><g
     id="g33" /><g
     id="g35" /><g
     id="g37" /><g
     id="g39" /><g
     id="g41" /><g
     id="g43" /><g
     id="g45" /><g
     id="g47" /><g
     id="g49" /><g
     id="g51" /><g
     id="g53" /></svg>