<?xml version="1.0" encoding="UTF-8" standalone="no"?>
<svg
   xmlns:dc="http://purl.org/dc/elements/1.1/"
   xmlns:cc="http://creativecommons.org/ns#"
   xmlns:rdf="http://www.w3.org/1999/02/22-rdf-syntax-ns#"
   xmlns:svg="http://www.w3.org/2000/svg"
   xmlns="http://www.w3.org/2000/svg"
   xmlns:sodipodi="http://sodipodi.sourceforge.net/DTD/sodipodi-0.dtd"
   xmlns:inkscape="http://www.inkscape.org/namespaces/inkscape"
   viewBox="0 0 48 48"
   id="svg2"
   version="1.1"
   inkscape:version="0.91 r13725"
   sodipodi:docname="FTL.svg">
  <metadata
     id="metadata30">
    <rdf:RDF>
      <cc:Work
         rdf:about="">
        <dc:format>image/svg+xml</dc:format>
        <dc:type
           rdf:resource="http://purl.org/dc/dcmitype/StillImage" />
        <dc:title></dc:title>
      </cc:Work>
    </rdf:RDF>
  </metadata>
  <sodipodi:namedview
     pagecolor="#ffffff"
     bordercolor="#666666"
     borderopacity="1"
     objecttolerance="10"
     gridtolerance="10"
     guidetolerance="10"
     inkscape:pageopacity="0"
     inkscape:pageshadow="2"
     inkscape:window-width="1280"
     inkscape:window-height="694"
     id="namedview28"
     showgrid="false"
     inkscape:zoom="4.9166667"
     inkscape:cx="-9.1525424"
     inkscape:cy="24"
     inkscape:window-x="0"
     inkscape:window-y="0"
     inkscape:window-maximized="1"
     inkscape:current-layer="svg2" />
  <defs
     id="defs4">
    <linearGradient
       gradientUnits="userSpaceOnUse"
       y2="503.8"
       x2="409.57"
       y1="552.8"
       x1="408.57"
       id="linearGradient6">
      <stop
         stop-color="#197cf1"
         id="stop8" />
      <stop
         offset="1"
         stop-color="#59d0ff"
         id="stop10" />
    </linearGradient>
    <linearGradient
       id="0"
       gradientUnits="userSpaceOnUse"
       y1="211.23"
       x2="0"
       y2="157.23"
       gradientTransform="matrix(0.85715,0,0,0.85715,-635.02,-134.18425)">
      <stop
         stop-color="#222c35"
         id="stop13" />
      <stop
         offset="1"
         stop-color="#545e67"
         id="stop15" />
    </linearGradient>
    <linearGradient
       id="1"
       x1="765.63"
       y1="212.51"
       x2="766.08"
       y2="172.39"
       gradientUnits="userSpaceOnUse"
       gradientTransform="matrix(0.85715,0,0,0.85715,-635.02,-138.8)">
      <stop
         stop-color="#ff433a"
         id="stop18" />
      <stop
         offset="1"
         stop-color="#ff9436"
         id="stop20" />
    </linearGradient>
  </defs>
  <path
     inkscape:connector-curvature="0"
     style="fill:#ff6600"
     id="path26"
     d="m 43.032163,25.129391 c -2.696954,2.731846 -6.287456,4.235695 -10.090048,4.235695 -2.417094,0 -4.74132,-0.60637 -6.807018,-1.74411 l -3.072194,2.684811 c -0.150599,1.632244 -0.95002,3.353472 -2.35811,4.779777 -0.08535,0.08645 -0.171933,0.170343 -0.259781,0.251702 l 0.468108,4.784863 1.131994,1.146637 4.068649,-4.121287 c 0.533367,-0.540267 1.24243,-0.837732 1.996675,-0.837732 0.754243,0 1.463307,0.297465 1.996674,0.837732 l 0.02133,0.0216 c 0.529601,0.536453 0.823267,1.254692 0.823267,2.018693 0,0.764001 -0.293666,1.48224 -0.827033,2.022507 l -6.140624,6.220067 c -0.309979,0.31399 -0.717848,0.471622 -1.124462,0.471622 -0.406614,0 -0.814482,-0.157632 -1.124463,-0.471622 L 19.973139,45.64556 c -0.298686,-0.302548 -0.465598,-0.711881 -0.465598,-1.139009 0,-0.341958 0.109186,-0.671203 0.304961,-0.944516 L 18.26511,41.994626 c 0,0 -1.26e-4,-1.28e-4 -1.26e-4,-1.28e-4 l -2.723308,-2.758537 -2.292852,-2.322514 c 0,0 0,0 -1.24e-4,-1.26e-4 l -1.015281,-1.028415 -0.95253,-0.964855 c 0,0 0,0 0,0 L 10.20035,33.825534 c 0,0 0,0 0,0 L 8.9252883,32.533977 4.6533328,28.206753 c -0.2773508,0.204666 -0.6049009,0.307636 -0.9324509,0.307636 -0.406614,0 -0.814483,-0.157631 -1.1244632,-0.471622 l -1.76199352,-1.78479 c -0.29868559,-0.302548 -0.46559813,-0.711881 -0.46559813,-1.13901 0,-0.42713 0.16691254,-0.836461 0.46559813,-1.139011 L 6.9750482,17.759891 c 0.5333669,-0.540268 1.2424308,-0.837733 1.9966751,-0.837733 0.7542443,0 1.4633067,0.297465 1.9966737,0.837733 l 0.01757,0.0178 c 0.533367,0.540266 0.827033,1.258504 0.827033,2.022505 0,0.764002 -0.293666,1.48224 -0.827033,2.022508 l -4.0686487,4.121285 1.1319927,1.14664 4.727514,0.474162 c 0.08033,-0.08898 0.160639,-0.17797 0.244723,-0.263141 1.352868,-1.370372 3.040818,-2.215732 4.707433,-2.374634 L 20.395816,21.79601 C 17.466691,16.314517 18.282428,9.3075664 22.85056,4.6803355 c 2.6957,-2.7305744 6.287456,-4.23442454 10.090048,-4.23442454 3.813888,0 7.398115,1.50385014 10.090049,4.23569554 5.567097,5.6378495 5.567097,14.8134955 0,20.4538865" />
</svg>
