<?xml version="1.0" encoding="UTF-8" standalone="no"?>
<svg
   xmlns:dc="http://purl.org/dc/elements/1.1/"
   xmlns:cc="http://creativecommons.org/ns#"
   xmlns:rdf="http://www.w3.org/1999/02/22-rdf-syntax-ns#"
   xmlns:svg="http://www.w3.org/2000/svg"
   xmlns="http://www.w3.org/2000/svg"
   xmlns:sodipodi="http://sodipodi.sourceforge.net/DTD/sodipodi-0.dtd"
   xmlns:inkscape="http://www.inkscape.org/namespaces/inkscape"
   viewBox="0 0 48 48"
   id="svg2"
   version="1.1"
   inkscape:version="0.91 r13725"
   sodipodi:docname="gespeaker.svg">
  <metadata
     id="metadata34">
    <rdf:RDF>
      <cc:Work
         rdf:about="">
        <dc:format>image/svg+xml</dc:format>
        <dc:type
           rdf:resource="http://purl.org/dc/dcmitype/StillImage" />
        <dc:title></dc:title>
      </cc:Work>
    </rdf:RDF>
  </metadata>
  <sodipodi:namedview
     pagecolor="#ffffff"
     bordercolor="#666666"
     borderopacity="1"
     objecttolerance="10"
     gridtolerance="10"
     guidetolerance="10"
     inkscape:pageopacity="0"
     inkscape:pageshadow="2"
     inkscape:window-width="1280"
     inkscape:window-height="694"
     id="namedview32"
     showgrid="false"
     inkscape:zoom="4.9166667"
     inkscape:cx="-9.1525424"
     inkscape:cy="24"
     inkscape:window-x="0"
     inkscape:window-y="0"
     inkscape:window-maximized="1"
     inkscape:current-layer="svg2" />
  <defs
     id="defs4">
    <linearGradient
       id="0"
       gradientUnits="userSpaceOnUse"
       x1="62.6"
       y1="11.846"
       x2="62.15"
       y2="-35.476"
       gradientTransform="matrix(0.99999,0,0,0.99999,-38.469,35.815)">
      <stop
         stop-color="#d3d3d3"
         id="stop7" />
      <stop
         offset="1"
         stop-color="#fcf9f9"
         id="stop9" />
    </linearGradient>
    <linearGradient
       id="1"
       x1="23.799"
       y1="-.305"
       x2="24.2"
       y2="31.766"
       gradientUnits="userSpaceOnUse">
      <stop
         stop-color="#69159f"
         id="stop12" />
      <stop
         stop-color="#b92ff5"
         offset="1"
         id="stop14" />
    </linearGradient>
  </defs>
  <g
     id="g20"
     transform="matrix(4.1605969,0,0,2.8972814,-1552.5006,-1521.3218)"
     style="fill:#7f2aff">
    <flowRoot
       style="font-size:10px;line-height:125%;font-family:sans-serif;text-align:start;letter-spacing:0;word-spacing:0;fill:#7f2aff"
       id="flowRoot22"
       transform="translate(355.62,516.06)"
       text-align="start"
       word-spacing="0"
       line-height="125%"
       letter-spacing="0"
       font-size="10">
      <flowRegion
         id="flowRegion24">
        <path
           inkscape:connector-curvature="0"
           id="path26"
           d="m 22,3 27,0 0,15 -27,0 z"
           style="fill:#7f2aff" />
      </flowRegion>
      <flowPara
         id="flowPara28">Plasm</flowPara>
    </flowRoot>
    <path
       inkscape:connector-curvature="0"
       style="fill:#7f2aff;fill-opacity:0.85"
       id="path30"
       transform="matrix(0.58333,0,0,0.58333,364.91,519.41)"
       d="m 24,10 c -1.481,0 -2.748,0.528 -3.803,1.582 -1.055,1.054 -1.582,2.322 -1.582,3.803 l 0,8.615 c 0,1.481 0.528,2.749 1.582,3.803 1.054,1.054 2.322,1.58 3.803,1.58 1.481,0 2.748,-0.526 3.803,-1.58 1.054,-1.054 1.582,-2.322 1.582,-3.803 l 0,-8.615 c 0,-1.481 -0.527,-2.748 -1.582,-3.803 C 26.749,10.528 25.481,10 24,10 m -8.615,10.77 c -0.292,0 -0.545,0.105 -0.758,0.318 -0.213,0.213 -0.32,0.466 -0.32,0.758 l 0,2.154 c 0,2.478 0.83,4.636 2.484,6.471 1.654,1.834 3.698,2.885 6.133,3.154 l 0,2.221 -4.309,0 c -0.292,0 -0.543,0.107 -0.756,0.32 -0.213,0.213 -0.32,0.466 -0.32,0.758 0,0.291 0.107,0.543 0.32,0.756 0.213,0.213 0.464,0.32 0.756,0.32 l 10.77,0 c 0.292,0 0.543,-0.107 0.756,-0.32 0.213,-0.213 0.32,-0.464 0.32,-0.756 0,-0.292 -0.107,-0.545 -0.32,-0.758 -0.213,-0.213 -0.464,-0.32 -0.756,-0.32 l -4.309,0 0,-2.221 c 2.434,-0.269 4.478,-1.32 6.133,-3.154 1.654,-1.834 2.482,-3.991 2.482,-6.471 l 0,-2.154 c 0,-0.292 -0.105,-0.544 -0.318,-0.758 l -0.002,0 c -0.213,-0.213 -0.464,-0.318 -0.756,-0.318 -0.292,0 -0.545,0.105 -0.758,0.318 -0.213,0.213 -0.32,0.466 -0.32,0.758 l 0,2.154 c 0,2.076 -0.738,3.849 -2.213,5.324 -1.475,1.475 -3.249,2.213 -5.324,2.213 -2.076,0 -3.851,-0.738 -5.326,-2.213 C 17.199,27.849 16.461,26.075 16.461,24 l 0,-2.154 c 0,-0.292 -0.105,-0.545 -0.318,-0.758 C 15.93,20.875 15.677,20.77 15.385,20.77" />
  </g>
</svg>
