<?xml version="1.0" encoding="UTF-8" standalone="no"?>
<svg
   xmlns:dc="http://purl.org/dc/elements/1.1/"
   xmlns:cc="http://creativecommons.org/ns#"
   xmlns:rdf="http://www.w3.org/1999/02/22-rdf-syntax-ns#"
   xmlns:svg="http://www.w3.org/2000/svg"
   xmlns="http://www.w3.org/2000/svg"
   xmlns:sodipodi="http://sodipodi.sourceforge.net/DTD/sodipodi-0.dtd"
   xmlns:inkscape="http://www.inkscape.org/namespaces/inkscape"
   viewBox="0 0 48 48"
   id="svg2"
   version="1.1"
   inkscape:version="0.91 r13725"
   sodipodi:docname="gramps.svg">
  <metadata
     id="metadata29">
    <rdf:RDF>
      <cc:Work
         rdf:about="">
        <dc:format>image/svg+xml</dc:format>
        <dc:type
           rdf:resource="http://purl.org/dc/dcmitype/StillImage" />
        <dc:title></dc:title>
      </cc:Work>
    </rdf:RDF>
  </metadata>
  <sodipodi:namedview
     pagecolor="#ffffff"
     bordercolor="#666666"
     borderopacity="1"
     objecttolerance="10"
     gridtolerance="10"
     guidetolerance="10"
     inkscape:pageopacity="0"
     inkscape:pageshadow="2"
     inkscape:window-width="1280"
     inkscape:window-height="694"
     id="namedview27"
     showgrid="false"
     inkscape:zoom="4.9166667"
     inkscape:cx="-42.305085"
     inkscape:cy="24"
     inkscape:window-x="0"
     inkscape:window-y="0"
     inkscape:window-maximized="1"
     inkscape:current-layer="svg2" />
  <defs
     id="defs4">
    <linearGradient
       id="0"
       x1="61.57"
       y1="22.939"
       x2="60.753"
       y2="-27.706"
       gradientUnits="userSpaceOnUse">
      <stop
         stop-color="#2e3e46"
         id="stop7" />
      <stop
         stop-color="#47606a"
         offset="1"
         id="stop9" />
    </linearGradient>
  </defs>
  <g
     id="g4170"
     style="fill:#d38d5f"
     transform="matrix(1.3948314,0,0,1.8461482,-9.4756838,-20.20496)">
    <path
       d="m 23.23012,26.26846 0,2.738044 c 0,0.424829 0.344448,0.7692 0.7692,0.7692 0.424752,0 0.7692,-0.344371 0.7692,-0.7692 l 0,-2.738044 c 0,-0.424829 -0.344448,-0.7692 -0.7692,-0.7692 -0.424752,0 -0.7692,0.344371 -0.7692,0.7692"
       id="path23"
       inkscape:connector-curvature="0"
       style="fill:#d38d5f" />
    <g
       style="fill:#d38d5f"
       id="g4163">
      <path
         style="fill:#d38d5f"
         inkscape:connector-curvature="0"
         id="path15"
         d="m 19.814872,17.453428 8.368127,0 c 0.424752,0 0.7692,-0.344371 0.7692,-0.7692 l 0,-4.775963 c 0,-0.424829 -0.344448,-0.7692 -0.7692,-0.7692 l -8.368127,0 c -0.424752,0 -0.7692,0.344371 -0.7692,0.7692 l 0,4.775963 c 0,0.424829 0.344448,0.7692 0.7692,0.7692" />
      <path
         style="fill:#d38d5f"
         inkscape:connector-curvature="0"
         id="path17"
         d="m 28.183768,30.545212 -8.368127,0 c -0.424752,0 -0.7692,0.344371 -0.7692,0.7692 l 0,4.775194 c 0,0.424829 0.344448,0.7692 0.7692,0.7692 l 8.368127,0 c 0.424752,0 0.7692,-0.344371 0.7692,-0.7692 l 0,-4.775194 c 8e-6,-0.424829 -0.344371,-0.7692 -0.769123,-0.7692" />
      <path
         style="fill:#d38d5f"
         inkscape:connector-curvature="0"
         id="path19"
         d="m 40.22944,30.545212 -8.368127,0 c -0.424752,0 -0.7692,0.344371 -0.7692,0.7692 l 0,4.775194 c 0,0.424829 0.344448,0.7692 0.7692,0.7692 l 8.368127,0 c 0.424752,0 0.7692,-0.344371 0.7692,-0.7692 l 0,-4.775194 c 0,-0.424829 -0.344448,-0.7692 -0.7692,-0.7692" />
      <path
         style="fill:#d38d5f"
         inkscape:connector-curvature="0"
         id="path21"
         d="m 16.137327,30.545212 -8.368127,0 C 7.3444478,30.545212 7,30.889583 7,31.314412 l 0,4.775194 c 0,0.424829 0.3444478,0.7692 0.7692,0.7692 l 8.368127,0 c 0.424752,0 0.7692,-0.344371 0.7692,-0.7692 l 0,-4.775194 c 0,-0.424829 -0.344448,-0.7692 -0.7692,-0.7692" />
      <path
         style="fill:#d38d5f"
         inkscape:connector-curvature="0"
         id="path25"
         d="m 11.953648,29.776012 c 0.424752,0 0.7692,-0.344371 0.7692,-0.7692 l 0,-4.238292 22.553713,0 0,4.238292 c 0,0.424829 0.344448,0.7692 0.7692,0.7692 0.424752,0 0.7692,-0.344371 0.7692,-0.7692 l 0,-5.007492 c 0,-0.424829 -0.344448,-0.7692 -0.7692,-0.7692 l -11.277241,0 0,-4.238292 c 0,-0.424829 -0.344448,-0.7692 -0.7692,-0.7692 -0.424752,0 -0.7692,0.344371 -0.7692,0.7692 l 0,4.238292 -11.276472,0 c -0.424752,0 -0.7692,0.344371 -0.7692,0.7692 l 0,5.007492 c 0,0.424829 0.344371,0.7692 0.7692,0.7692" />
    </g>
  </g>
</svg>
