<?xml version="1.0" encoding="UTF-8" standalone="no"?>
<svg
   xmlns:dc="http://purl.org/dc/elements/1.1/"
   xmlns:cc="http://creativecommons.org/ns#"
   xmlns:rdf="http://www.w3.org/1999/02/22-rdf-syntax-ns#"
   xmlns:svg="http://www.w3.org/2000/svg"
   xmlns="http://www.w3.org/2000/svg"
   xmlns:sodipodi="http://sodipodi.sourceforge.net/DTD/sodipodi-0.dtd"
   xmlns:inkscape="http://www.inkscape.org/namespaces/inkscape"
   viewBox="0 0 48 48"
   id="svg2"
   version="1.1"
   inkscape:version="0.91 r13725"
   sodipodi:docname="idea.svg">
  <metadata
     id="metadata21">
    <rdf:RDF>
      <cc:Work
         rdf:about="">
        <dc:format>image/svg+xml</dc:format>
        <dc:type
           rdf:resource="http://purl.org/dc/dcmitype/StillImage" />
        <dc:title></dc:title>
      </cc:Work>
    </rdf:RDF>
  </metadata>
  <sodipodi:namedview
     pagecolor="#ffffff"
     bordercolor="#666666"
     borderopacity="1"
     objecttolerance="10"
     gridtolerance="10"
     guidetolerance="10"
     inkscape:pageopacity="0"
     inkscape:pageshadow="2"
     inkscape:window-width="1280"
     inkscape:window-height="694"
     id="namedview19"
     showgrid="false"
     inkscape:zoom="4.9166667"
     inkscape:cx="-9.1525424"
     inkscape:cy="24"
     inkscape:window-x="0"
     inkscape:window-y="0"
     inkscape:window-maximized="1"
     inkscape:current-layer="svg2" />
  <defs
     id="defs4">
    <linearGradient
       id="0"
       x1="61.57"
       y1="22.939"
       x2="60.753"
       y2="-27.706"
       gradientUnits="userSpaceOnUse">
      <stop
         stop-color="#197cf1"
         id="stop7" />
      <stop
         offset="1"
         stop-color="#21c9fb"
         id="stop9" />
    </linearGradient>
  </defs>
  <g
     id="g4151"
     style="fill:#00aad4"
     transform="matrix(1.5830012,0,0,1.5832052,-13.994786,-13.989061)">
    <path
       d="m 35.200446,8.9904864 c -0.535329,0 -0.6452,0.01052 -0.963124,0.094676 -0.633511,0.1671442 -1.124424,0.4581853 -1.563908,0.9210456 -0.696629,0.732863 -1.11858,1.809365 -1.245984,3.186258 -0.05143,0.566888 -0.04909,21.014575 0.0035,21.548734 0.08416,0.855591 0.274677,1.574428 0.585589,2.214952 0.521302,1.071827 1.376893,1.728715 2.516512,1.93443 l 0.0023,0 c 0.09584,0.01636 0.44299,0.02688 0.773772,0.02104 0.527147,-0.01052 0.647537,-0.02455 0.932734,-0.108703 1.601311,-0.47338 2.53989,-1.891183 2.733917,-4.137693 0.02922,-0.336626 0.03506,-3.490156 0.02688,-11.006966 -0.01286,-11.613595 0.0047,-10.715926 -0.230262,-11.646322 -0.395068,-1.565077 -1.29975,-2.5796301 -2.61002,-2.9256067 -0.316755,-0.082988 -0.426626,-0.094676 -0.963124,-0.094676 m -6.774596,0.4126006 -8.124607,0.00935 -8.123438,0.00117 -0.275847,0.078312 c -0.750395,0.2162354 -1.205074,0.474549 -1.727545,0.9876691 -0.5890954,0.578576 -0.8976692,1.140788 -1.0554626,1.912223 -0.4406527,2.151834 1.0624756,4.201979 3.2774276,4.470813 0.222079,0.02688 1.636376,0.03857 4.324708,0.03857 3.058854,0 4.005614,0.0094 4.038342,0.04325 0.05844,0.05727 0.06195,7.436161 0.0035,7.963307 -0.277015,2.522357 -1.829234,4.722114 -4.118992,5.831343 -0.428964,0.208054 -0.985332,0.410263 -1.442348,0.524809 -0.596109,0.149612 -0.938579,0.188184 -1.946119,0.218573 -0.852084,0.02688 -1.055462,0.04325 -1.318451,0.109871 -1.3804,0.355328 -2.4148238,1.368712 -2.7736577,2.715216 -0.077143,0.291041 -0.093507,0.434808 -0.097014,0.873123 -0.00234,0.320262 0.015195,0.627667 0.045585,0.781954 0.2945476,1.473907 1.4505307,2.635734 2.9372947,2.954828 0.317925,0.06779 0.439484,0.0713 1.499622,0.05727 1.180528,-0.01519 1.635207,-0.05143 2.491967,-0.20221 6.165631,-1.084683 11.039694,-5.902642 12.143079,-11.987623 0.232599,-1.285724 0.217404,-0.710654 0.230261,-9.444227 l 0.0012,-7.951618"
       id="path15"
       inkscape:connector-curvature="0"
       style="fill:#00aad4" />
    <path
       d="m 13.576906,19.860698 c -0.628836,-0.02221 -0.997021,0.02104 -1.496115,0.177664 -0.686109,0.216235 -1.43066,0.672083 -1.881833,1.154814 -1.2214374,1.305594 -1.538193,3.187427 -0.8053304,4.780556 0.2992231,0.648706 0.9233834,1.387413 1.5113104,1.782481 0.520134,0.349483 1.193385,0.613641 1.798845,0.708317 1.769623,0.274677 3.553273,-0.557537 4.464968,-2.085211 0.750396,-1.256503 0.805331,-2.843788 0.14143,-4.152888 -0.434809,-0.85676 -1.258841,-1.629363 -2.155341,-2.020925 -0.522471,-0.227924 -0.956111,-0.321431 -1.576765,-0.343639"
       id="path17"
       inkscape:connector-curvature="0"
       style="fill:#00aad4" />
  </g>
</svg>
