<?xml version="1.0" encoding="UTF-8" standalone="no"?>
<!-- Created with Inkscape (http://www.inkscape.org/) -->

<svg
   xmlns:dc="http://purl.org/dc/elements/1.1/"
   xmlns:cc="http://creativecommons.org/ns#"
   xmlns:rdf="http://www.w3.org/1999/02/22-rdf-syntax-ns#"
   xmlns:svg="http://www.w3.org/2000/svg"
   xmlns="http://www.w3.org/2000/svg"
   xmlns:sodipodi="http://sodipodi.sourceforge.net/DTD/sodipodi-0.dtd"
   xmlns:inkscape="http://www.inkscape.org/namespaces/inkscape"
   width="512"
   height="512"
   id="svg2"
   version="1.1"
   inkscape:version="0.91 r13725"
   sodipodi:docname="inkscape.svg">
  <sodipodi:namedview
     id="base"
     pagecolor="#ffffff"
     bordercolor="#666666"
     borderopacity="1.0"
     inkscape:pageopacity="0.0"
     inkscape:pageshadow="2"
     inkscape:zoom="0.7"
     inkscape:cx="290.50099"
     inkscape:cy="248.62338"
     inkscape:document-units="px"
     inkscape:current-layer="layer1"
     showgrid="false"
     inkscape:window-width="1280"
     inkscape:window-height="694"
     inkscape:window-x="0"
     inkscape:window-y="0"
     inkscape:window-maximized="1" />
  <defs
     id="defs4">
    <clipPath
       id="clipPath3839"
       clipPathUnits="userSpaceOnUse">
      <path
         sodipodi:nodetypes="sccsccsccsccs"
         inkscape:connector-curvature="0"
         id="path3841"
         d="m 302.72322,31.5 c -5.15761,0.03227 -10.28618,2.157894 -14.25019,5.90625 l -219.227391,207.375 c -4.724367,4.47496 -7.711236,11.23676 -8.045611,18.214 -0.334375,6.97724 1.988658,14.0674 6.257459,19.0985 l 219.227393,258.4375 c 4.17751,4.92309 10.1564,7.80968 16.17589,7.80968 6.01949,0 11.99839,-2.88659 16.1759,-7.80968 l 219.22739,-258.4375 c 4.26557,-5.03521 6.5837,-12.128 6.24418,-19.10533 -0.33952,-6.97734 -3.33171,-13.73669 -8.05985,-18.20717 L 317.221,37.40625 C 313.19355,33.597915 307.96337,31.467188 302.72322,31.5 z"
         style="font-size:medium;font-style:normal;font-variant:normal;font-weight:normal;font-stretch:normal;text-indent:0;text-align:start;text-decoration:none;line-height:normal;letter-spacing:normal;word-spacing:normal;text-transform:none;direction:ltr;block-progression:tb;writing-mode:lr-tb;text-anchor:start;baseline-shift:baseline;color:#000000;fill:#2d2d35;fill-opacity:1;fill-rule:evenodd;stroke:none;stroke-width:51.03818512;marker:none;visibility:visible;display:inline;overflow:visible;enable-background:accumulate;font-family:Sans;-inkscape-font-specification:Sans" />
    </clipPath>
    <clipPath
       clipPathUnits="userSpaceOnUse"
       id="clipPath3924">
      <path
         sodipodi:nodetypes="sccsccsccsccs"
         inkscape:connector-curvature="0"
         id="path3926"
         d="m 302.72322,31.5 c -5.15761,0.03227 -10.28618,2.157894 -14.25019,5.90625 l -219.227391,207.375 c -4.724367,4.47496 -7.711236,11.23676 -8.045611,18.214 -0.334375,6.97724 1.988658,14.0674 6.257459,19.0985 l 219.227393,258.4375 c 4.17751,4.92309 10.1564,7.80968 16.17589,7.80968 6.01949,0 11.99839,-2.88659 16.1759,-7.80968 l 219.22739,-258.4375 c 4.26557,-5.03521 6.5837,-12.128 6.24418,-19.10533 -0.33952,-6.97734 -3.33171,-13.73669 -8.05985,-18.20717 L 317.221,37.40625 C 313.19355,33.597915 307.96337,31.467188 302.72322,31.5 z"
         style="font-size:medium;font-style:normal;font-variant:normal;font-weight:normal;font-stretch:normal;text-indent:0;text-align:start;text-decoration:none;line-height:normal;letter-spacing:normal;word-spacing:normal;text-transform:none;direction:ltr;block-progression:tb;writing-mode:lr-tb;text-anchor:start;baseline-shift:baseline;color:#000000;fill:#2d2d35;fill-opacity:1;fill-rule:evenodd;stroke:none;stroke-width:51.03818512;marker:none;visibility:visible;display:inline;overflow:visible;enable-background:accumulate;font-family:Sans;-inkscape-font-specification:Sans" />
    </clipPath>
  </defs>
  <metadata
     id="metadata7">
    <rdf:RDF>
      <cc:Work
         rdf:about="">
        <dc:format>image/svg+xml</dc:format>
        <dc:type
           rdf:resource="http://purl.org/dc/dcmitype/StillImage" />
        <dc:title></dc:title>
      </cc:Work>
    </rdf:RDF>
  </metadata>
  <g
     inkscape:label="Capa 1"
     inkscape:groupmode="layer"
     id="layer1"
     transform="translate(0,-540.36218)">
    <g
       id="g4159"
       transform="matrix(1.2238593,0,0,1.1449437,-65.271042,-106.56679)">
      <path
         sodipodi:nodetypes="sccsccsccsccs"
         inkscape:connector-curvature="0"
         id="path2987"
         d="m 262.74186,567.67639 c -4.42595,0.0277 -8.82698,1.85178 -12.22866,5.06839 L 62.385498,750.70148 c -4.054167,3.84014 -6.617317,9.64271 -6.904258,15.63016 -0.28694,5.98744 1.706546,12.07179 5.369774,16.38918 L 248.97872,1004.4963 c 3.58489,4.2247 8.71561,6.7017 13.88117,6.7017 5.16557,0 10.2963,-2.477 13.88118,-6.7017 L 464.86878,782.72082 c 3.66046,-4.32092 5.64974,-10.40752 5.35838,-16.39505 -0.29135,-5.98753 -2.85907,-11.78799 -6.91647,-15.62429 L 275.18298,572.74478 c -3.45612,-3.26808 -7.94434,-5.09655 -12.44112,-5.06839 z"
         style="color:#000000;font-style:normal;font-variant:normal;font-weight:normal;font-stretch:normal;font-size:medium;line-height:normal;font-family:Sans;-inkscape-font-specification:Sans;text-indent:0;text-align:start;text-decoration:none;text-decoration-line:none;letter-spacing:normal;word-spacing:normal;text-transform:none;direction:ltr;block-progression:tb;writing-mode:lr-tb;baseline-shift:baseline;text-anchor:start;display:inline;overflow:visible;visibility:visible;fill:#535d6c;fill-opacity:1;fill-rule:evenodd;stroke:none;stroke-width:51.03818512;marker:none;enable-background:accumulate" />
      <path
         style="color:#000000;font-style:normal;font-variant:normal;font-weight:normal;font-stretch:normal;font-size:medium;line-height:normal;font-family:Sans;-inkscape-font-specification:Sans;text-indent:0;text-align:start;text-decoration:none;text-decoration-line:none;letter-spacing:normal;word-spacing:normal;text-transform:none;direction:ltr;block-progression:tb;writing-mode:lr-tb;baseline-shift:baseline;text-anchor:start;display:inline;overflow:visible;visibility:visible;fill:#dbdee3;fill-opacity:1;fill-rule:evenodd;stroke:none;stroke-width:51.03818512;marker:none;enable-background:accumulate"
         d="m 262.52561,604.45377 c -3.96108,0.0248 -7.89985,1.65728 -10.94424,4.53604 l -84.18398,79.63262 c -9.86687,9.32687 -22.60472,20.74172 -32.1308,29.82073 -0.9509,0.90628 -1.8698,1.78928 -2.75064,2.6446 -19.75511,14.37164 37.09703,20.07341 44.58065,18.5081 18.6292,-4.81685 8.3028,-35.38447 22.62526,-36.76049 18.63518,-1.79035 16.73304,40.17934 38.00595,41.35007 23.50005,1.29329 52.4113,-42.54269 83.46233,-41.49087 22.70143,0.76898 36.33359,37.55627 58.8268,34.39368 6.59253,-0.92692 24.97586,-3.86606 13.79334,-14.444 l -35.9663,-34.02182 -84.18399,-79.63262 c -3.09311,-2.92483 -7.10992,-4.56124 -11.13438,-4.53604 z"
         id="path3762"
         inkscape:connector-curvature="0"
         sodipodi:nodetypes="sccsccasaacccs" />
    </g>
  </g>
</svg>
