<?xml version="1.0" encoding="UTF-8" standalone="no"?>
<svg
   xmlns:dc="http://purl.org/dc/elements/1.1/"
   xmlns:cc="http://creativecommons.org/ns#"
   xmlns:rdf="http://www.w3.org/1999/02/22-rdf-syntax-ns#"
   xmlns:svg="http://www.w3.org/2000/svg"
   xmlns="http://www.w3.org/2000/svg"
   xmlns:sodipodi="http://sodipodi.sourceforge.net/DTD/sodipodi-0.dtd"
   xmlns:inkscape="http://www.inkscape.org/namespaces/inkscape"
   viewBox="0 0 48 48"
   id="svg2"
   version="1.1"
   inkscape:version="0.91 r13725"
   sodipodi:docname="internet-mail.svg">
  <metadata
     id="metadata35">
    <rdf:RDF>
      <cc:Work
         rdf:about="">
        <dc:format>image/svg+xml</dc:format>
        <dc:type
           rdf:resource="http://purl.org/dc/dcmitype/StillImage" />
        <dc:title></dc:title>
      </cc:Work>
    </rdf:RDF>
  </metadata>
  <sodipodi:namedview
     pagecolor="#ffffff"
     bordercolor="#666666"
     borderopacity="1"
     objecttolerance="10"
     gridtolerance="10"
     guidetolerance="10"
     inkscape:pageopacity="0"
     inkscape:pageshadow="2"
     inkscape:window-width="1280"
     inkscape:window-height="694"
     id="namedview33"
     showgrid="false"
     inkscape:zoom="4.9166667"
     inkscape:cx="-20.343952"
     inkscape:cy="23.274319"
     inkscape:window-x="0"
     inkscape:window-y="0"
     inkscape:window-maximized="1"
     inkscape:current-layer="svg2" />
  <defs
     id="defs4">
    <linearGradient
       id="0"
       x1="264.9"
       y1="544.13"
       x2="264.45"
       y2="534.56"
       gradientUnits="userSpaceOnUse"
       gradientTransform="matrix(2.0729608,0,0,2.0729608,-533.0828,-1082.1559)">
      <stop
         stop-color="#d8d8d8"
         id="stop7" />
      <stop
         offset="1"
         stop-color="#f9f9f9"
         id="stop9" />
    </linearGradient>
    <linearGradient
       id="1"
       x1="269.5"
       y1="543.62"
       x2="268.71"
       y2="523.22"
       gradientUnits="userSpaceOnUse"
       gradientTransform="matrix(2.0729608,0,0,2.0729608,-533.0828,-1082.1559)">
      <stop
         stop-color="#cfd0d2"
         id="stop12" />
      <stop
         offset="1"
         stop-color="#f4f4f5"
         id="stop14" />
    </linearGradient>
    <linearGradient
       id="2"
       x1="268.25"
       y1="539.24"
       x2="268.14"
       y2="522.76"
       gradientUnits="userSpaceOnUse"
       gradientTransform="matrix(2.0729608,0,0,2.0729608,-533.0828,-1082.1559)">
      <stop
         stop-color="#0a80fd"
         id="stop17" />
      <stop
         offset="1"
         stop-color="#56c5fa"
         id="stop19" />
    </linearGradient>
  </defs>
  <path
     style="fill:#00aa00;fill-opacity:1"
     inkscape:connector-curvature="0"
     id="path31"
     d="m 24.26604,0.45775815 q 9.984917,0 16.803216,6.89166825 6.818302,6.8916766 6.818302,16.6409076 0,5.485978 -2.374108,9.082303 -2.312619,3.596324 -6.756815,3.596324 -4.565457,0 -6.818299,-4.449662 -2.98386,4.449662 -8.522875,4.449662 -4.992461,0 -8.401607,-3.474905 -3.40915,-3.534762 -3.40915,-8.960885 0,-5.364561 3.40915,-8.899319 3.409146,-3.534761 8.157363,-3.534761 4.688438,0 7.791856,3.59632 l 0.244254,0 0,-2.742983 4.382705,0 0,15.908984 q 0,1.585256 0.852285,2.864408 0.913778,1.280857 2.739621,1.280857 4.322924,0 4.322924,-8.716343 0,-8.045983 -5.600501,-13.591811 -5.600506,-5.5475368 -13.636602,-5.5475368 -8.036095,0 -13.636601,5.5475368 -5.6004993,5.547541 -5.6004993,13.591811 0,8.045985 5.6004993,13.591818 5.600506,5.547536 13.636601,5.547536 4.322927,0 7.732075,-1.706673 l 1.704575,4.145267 q -4.261437,1.951214 -9.43665,1.951214 -10.106183,0 -16.9859692,-6.826689 -6.88320414,-6.891672 -6.88320414,-16.700759 0,-9.752658 6.88320414,-16.6409094 Q 14.221357,0.45946834 24.267759,0.45946834 M 18.605766,29.900417 q 2.191351,2.134194 5.234992,2.134194 3.043642,0 5.175217,-2.134194 2.19135,-2.134198 2.19135,-5.668958 0,-3.534762 -2.19135,-5.668956 -2.131575,-2.134193 -5.175217,-2.134193 -3.043641,0 -5.234992,2.134193 -2.131575,2.134194 -2.131575,5.668956 0,3.53476 2.131575,5.668958" />
</svg>
