<?xml version="1.0" encoding="UTF-8" standalone="no"?>
<svg
   xmlns:dc="http://purl.org/dc/elements/1.1/"
   xmlns:cc="http://creativecommons.org/ns#"
   xmlns:rdf="http://www.w3.org/1999/02/22-rdf-syntax-ns#"
   xmlns:svg="http://www.w3.org/2000/svg"
   xmlns="http://www.w3.org/2000/svg"
   xmlns:sodipodi="http://sodipodi.sourceforge.net/DTD/sodipodi-0.dtd"
   xmlns:inkscape="http://www.inkscape.org/namespaces/inkscape"
   viewBox="0 0 48 48"
   id="svg2"
   version="1.1"
   inkscape:version="0.91 r13725"
   sodipodi:docname="kamoso.svg">
  <metadata
     id="metadata42">
    <rdf:RDF>
      <cc:Work
         rdf:about="">
        <dc:format>image/svg+xml</dc:format>
        <dc:type
           rdf:resource="http://purl.org/dc/dcmitype/StillImage" />
        <dc:title></dc:title>
      </cc:Work>
    </rdf:RDF>
  </metadata>
  <sodipodi:namedview
     pagecolor="#ffffff"
     bordercolor="#666666"
     borderopacity="1"
     objecttolerance="10"
     gridtolerance="10"
     guidetolerance="10"
     inkscape:pageopacity="0"
     inkscape:pageshadow="2"
     inkscape:window-width="1280"
     inkscape:window-height="694"
     id="namedview40"
     showgrid="false"
     inkscape:zoom="4.9166667"
     inkscape:cx="-9.1525424"
     inkscape:cy="24"
     inkscape:window-x="0"
     inkscape:window-y="0"
     inkscape:window-maximized="1"
     inkscape:current-layer="svg2" />
  <defs
     id="defs4">
    <linearGradient
       id="3"
       y1="19.371"
       x2="0"
       y2="-7.344"
       gradientUnits="userSpaceOnUse"
       gradientTransform="matrix(1.789235,0,0,1.789235,-10.667679,13.152003)">
      <stop
         stop-color="#bfc1c1"
         id="stop7" />
      <stop
         offset="1"
         stop-color="#f1f2f3"
         id="stop9" />
    </linearGradient>
    <linearGradient
       id="2"
       x1="408.52"
       y1="506.48"
       x2="409.27"
       y2="533.2"
       gradientUnits="userSpaceOnUse"
       gradientTransform="matrix(-0.9849023,0,0,-0.98708516,426.20983,537.20104)">
      <stop
         stop-color="#222c35"
         id="stop12" />
      <stop
         offset="1"
         stop-color="#545e67"
         id="stop14" />
    </linearGradient>
    <linearGradient
       id="0"
       x1="398.3"
       y1="509.53"
       x2="419.77"
       y2="531"
       gradientUnits="userSpaceOnUse"
       gradientTransform="matrix(0.77384414,0,0,0.7755618,-292.36484,-379.03042)">
      <stop
         stop-color="#18222a"
         id="stop17" />
      <stop
         offset="1"
         stop-color="#566069"
         id="stop19" />
    </linearGradient>
    <linearGradient
       gradientTransform="matrix(0.9849023,0,0,0.98708516,-378.58807,-488.97891)"
       id="1"
       x1="407.38"
       y1="529.56"
       x2="407.51"
       y2="509.98"
       gradientUnits="userSpaceOnUse">
      <stop
         stop-color="#08f"
         id="stop22" />
      <stop
         offset="1"
         stop-color="#02c3ff"
         id="stop24" />
    </linearGradient>
  </defs>
  <path
     style="fill:#ffffff;fill-opacity:0.84600004"
     inkscape:connector-curvature="0"
     id="path28"
     d="m 36.269033,22.481061 c -0.173141,0.154284 -0.428567,0.162855 -0.611994,0.02229 l -6.102801,-4.643957 -2.891974,17.296984 c -0.01029,0.06514 -0.03429,0.125142 -0.06857,0.179998 -0.579423,2.478835 -3.743965,4.328532 -7.465646,4.328532 -4.170819,0 -7.565073,-2.309122 -7.565073,-5.14281 0,-2.838831 3.39254,-5.14281 7.565073,-5.14281 1.712556,0 3.341113,0.382282 4.664529,1.085133 L 27.617112,8.7737577 c 0.03429,-0.197141 0.18857,-0.3565681 0.390854,-0.3925678 0.193712,-0.034285 0.397711,0.054857 0.500567,0.2297122 l 7.854785,13.2753069 c 0.118285,0.202284 0.07886,0.454282 -0.09428,0.608566" />
  <rect
     width="47.801201"
     height="47.801201"
     x="0.10351566"
     y="0.011861405"
     rx="23.9006"
     id="rect32"
     style="fill:#dbdee3" />
  <path
     d="M 10.026293,24.111075 A 13.788609,13.819124 0 0 1 23.8149,10.291954 13.788609,13.819124 0 0 1 37.603505,24.111075 13.788609,13.819124 0 0 1 23.8149,37.930204 13.788609,13.819124 0 0 1 10.026293,24.111075"
     id="path34"
     style="fill:#373e48"
     inkscape:connector-curvature="0" />
  <ellipse
     cy="24.111067"
     cx="23.814457"
     rx="10.842764"
     ry="10.857078"
     id="ellipse36"
     style="fill:url(#0)" />
  <ellipse
     cx="23.814457"
     cy="24.111067"
     rx="9.8497391"
     ry="9.8712101"
     id="ellipse38"
     style="fill:#2a7fff" />
</svg>
