<?xml version="1.0" encoding="UTF-8" standalone="no"?>
<svg
   xmlns:dc="http://purl.org/dc/elements/1.1/"
   xmlns:cc="http://creativecommons.org/ns#"
   xmlns:rdf="http://www.w3.org/1999/02/22-rdf-syntax-ns#"
   xmlns:svg="http://www.w3.org/2000/svg"
   xmlns="http://www.w3.org/2000/svg"
   xmlns:sodipodi="http://sodipodi.sourceforge.net/DTD/sodipodi-0.dtd"
   xmlns:inkscape="http://www.inkscape.org/namespaces/inkscape"
   viewBox="0 0 48 48"
   id="svg2"
   version="1.1"
   inkscape:version="0.91 r13725"
   sodipodi:docname="kimagemapeditor.svg">
  <metadata
     id="metadata30">
    <rdf:RDF>
      <cc:Work
         rdf:about="">
        <dc:format>image/svg+xml</dc:format>
        <dc:type
           rdf:resource="http://purl.org/dc/dcmitype/StillImage" />
        <dc:title></dc:title>
      </cc:Work>
    </rdf:RDF>
  </metadata>
  <sodipodi:namedview
     pagecolor="#ffffff"
     bordercolor="#666666"
     borderopacity="1"
     objecttolerance="10"
     gridtolerance="10"
     guidetolerance="10"
     inkscape:pageopacity="0"
     inkscape:pageshadow="2"
     inkscape:window-width="1280"
     inkscape:window-height="694"
     id="namedview28"
     showgrid="false"
     inkscape:zoom="4.9166667"
     inkscape:cx="9.8202316"
     inkscape:cy="24"
     inkscape:window-x="0"
     inkscape:window-y="0"
     inkscape:window-maximized="1"
     inkscape:current-layer="svg2" />
  <defs
     id="defs4">
    <linearGradient
       gradientUnits="userSpaceOnUse"
       y2="15.827"
       x2="10.467"
       y1="42.526"
       x1="10.795"
       id="0"
       gradientTransform="matrix(1.8112435,0,0,1.7506836,6.1987791,-26.903721)">
      <stop
         stop-color="#197cf1"
         id="stop7" />
      <stop
         offset="1"
         stop-color="#20bcfa"
         id="stop9" />
    </linearGradient>
    <linearGradient
       id="1"
       gradientUnits="userSpaceOnUse"
       y1="42.475"
       x2="0"
       y2="28.899"
       gradientTransform="matrix(1.6060851,0,0,1.6060851,-14.479438,-21.954756)">
      <stop
         stop-color="#c52828"
         id="stop12" />
      <stop
         offset="1"
         stop-color="#ff5454"
         id="stop14" />
    </linearGradient>
  </defs>
  <path
     d="m 5.4718664,5.6740383 0.5201965,-0.3977528 3.115236,0 1.1280851,0.7204579 -0.06838,1.121427 0.951218,0.6304005 -0.790701,0.408474 0.176869,1.4741511 -2.8239275,2.46907 0,2.318972 1.5130293,0.528551 0,2.082037 1.4669562,1.789352 1.169699,0.127581 0.150114,-0.615391 -1.383723,-1.5492 -0.274961,-1.508458 0.821911,0 0.34779,1.553487 2.018363,2.123851 -0.541005,0.678644 1.294547,1.421618 3.194009,0.570363 0,-0.375239 1.273739,0.130797 -0.11445,0.660421 c 1.123625,0.130797 0.780294,0.07826 2.548964,0.430987 l 2.184827,1.796857 2.788256,0.153312 0.270501,1.643544 -1.914324,0.968115 -0.09364,1.459142 -0.264558,0.900572 2.757044,2.491583 0.212537,0.855545 c 0,0 1.003237,0.195123 1.113221,0.195123 0.118906,0 2.251709,1.170744 2.251709,1.170744 l 0,4.494285 0.759489,0.160816 -0.530602,2.063811 1.279684,1.21899 -0.228887,2.063811 1.679495,2.134571 2.164018,1.358363 2.164019,0.03431 0.218482,-0.502819 -1.591801,-0.971332 c 0.118907,-0.592877 0.03715,-0.367734 0.384946,-1.082832 l 0.06242,-0.588588 -1.086468,-0.0268 -0.555867,-0.48781 0.899196,-0.626113 0.124855,-0.465295 -1.003237,-0.202628 0.05648,-0.442782 1.425341,-0.153312 2.168478,-0.746189 c 0.972024,-1.286531 1.450606,-1.631751 3.006738,-3.065161 l -0.520196,-1.639257 0.697064,-0.873769 2.091191,0.03752 1.404532,-0.791216 0.457773,-3.174518 1.56059,-1.440916 0.280906,-0.911293 -1.429799,-0.333426 -0.936354,-1.110706 -3.219276,-0.02573 -2.548964,-0.701159 -0.118906,-1.316551 -0.853124,-1.068894 -2.288866,-0.02252 -1.336162,-1.511676 -1.186049,-0.405256 -0.06242,0.450285 -2.147669,0.09755 -0.790701,-0.788001 -2.251709,-0.33021 -1.851901,1.534189 -2.907158,-0.352723 -0.212537,-2.36722 -2.126862,-0.262666 0.853123,-1.166456 -0.243749,-0.656131 -2.782311,1.34657 -1.752321,-0.153312 -0.639099,-0.998134 c 0.478582,-1.256513 0.19173,-0.761199 1.362917,-2.311468 l 2.226442,-0.81802 4.30723,0 -0.01027,0.9456 1.550186,0.525333 -0.12484,-1.616741 c 1.186048,-0.85876 0.826369,-0.671141 3.364931,-1.876193 l 0.145613,-0.746188 2.251709,-1.688573 2.392905,-0.948816 -0.212537,-0.123293 1.61261,-1.098913 0.597485,0.112571 0.274961,0.2476582 0.613832,-0.4953152 0.139714,-0.052533 C 36.688221,9.3116968 36.979531,9.3642301 36.157622,9.1616014 l 0,-0.4760168 0.358191,-0.21335 0.801104,0 0.368597,0.1157881 0.312118,0.4577908 0.384946,-0.04074 0,-0.025731 0.11445,0.022514 1.11322,-0.1275812 0.15606,-0.3934643 0.624236,0.1125715 0,0.4234834 -0.587078,0.2959024 0.08768,0.472801 2.033227,0.4502847 c 0,0 0.0045,0.0075 0.0045,0.01501 l 0.462231,-0.02573 0.03121,-0.6304007 -1.606663,-0.5285502 -0.09364,-0.3109118 1.331704,-0.3302099 0.05648,-0.9112933 -1.388184,-0.6153911 -0.09364,-1.5491989 -1.924729,0.6754293 -0.697064,0 0.187272,-1.1814651 -2.590582,-0.4459977 -1.082008,0.585372 0,1.7968561 -1.935133,0.4352766 -0.780296,1.1707441 -0.836773,0.093274 0,-1.4891606 -1.814744,-0.1876192 -0.909601,-0.4234834 -0.368597,-0.9638268 3.256431,-1.3765892 1.591804,-0.3484356 0.156059,0.7687027 0.894738,-0.030019 0.07282,-0.3902481 0.925951,-0.093274 0.01039,-0.1307974 -0.389406,-0.1200763 -0.09364,-0.4084739 1.138488,-0.070759 0.686659,-0.517829 0.05201,-0.037524 0,0.00428 0.212538,-0.1576001 2.397365,-0.2176384 1.055256,0.6486266 -2.788256,1.0688935 3.541799,0.6003816 0.451828,-0.8555437 1.554645,0 0.541005,-0.7429722 -1.086468,-0.195124 0,-0.9380961 L 38.63082,0.77877105 36.264667,0.97389502 34.922559,1.4767146 35.026605,2.7032083 33.62802,2.5498965 33.415481,1.8744673 l 1.3213,-0.8737695 -2.413714,-0.0900575 -0.697064,0.1458071 -0.312118,0.5928766 0.915548,0.1125717 -0.187271,0.6561312 -1.539784,0.067543 -0.243748,0.4309882 -2.257655,0.045028 c 0,0 -0.05201,-0.9187982 -0.139714,-0.9187982 -0.09364,0 1.758265,-0.018225 1.758265,-0.018225 L 30.955569,1.083264 30.227294,0.81738074 29.255269,1.5003147 27.642658,1.4370607 26.681037,0.47323388 l -2.064438,0 -2.158075,1.16323912 1.976747,0 0.181328,0.4159787 -0.520197,0.3484357 2.184827,0.045028 0.337385,0.5703625 -2.45979,-0.070759 L 24.039918,2.5070259 22.495677,2.263657 21.673765,1.9409519 18.032388,1.9666829 16.914707,2.7503953 16.15076,2.7053673 15.303582,2.3494267 12.785829,1.8090834 l -4.6089437,0 -2.6678669,1.3090462 -1.7894775,0.1983403 -0.8219108,0.4610073 1.2737379,0.1350859 0,0.3677336 -2.7198859,0 -1.06566046,0.5478481 1.36291596,0.8330295 3.7290694,0.022514 m 22.98973,6.5580947 -1.159295,0 0.181325,-0.570361 0.545464,-0.04181 0.124839,-0.195125 0.832317,-0.08255 0,0.510324 0.0045,0 -0.530601,0.378455 m 0.807049,-1.410897 -0.545463,0.255162 -0.68666,0.08577 c 0,0 0,-0.780495 0,-0.863048 l 1.232123,0 0,0.521045 m 1.034449,-0.603598 0.561812,0.247658 -0.451829,0.265883 -0.43102,-0.265883 0.322522,-0.247658 m -0.738679,0.652916 0.08768,0 1.394128,0.292685 0,0.513542 -1.1697,0 -0.312118,-0.330212 c 0,0 0,-0.476015 0,-0.476015 m -0.905142,-1.4108971 0.753542,0.4953145 -0.753542,0.1307976 0,-0.6261121 m -3.19401,0.082552 1.050798,-0.3109119 1.440203,0 0,0.3109119 0.312117,0 0,0.5435601 -2.195231,0 -0.811506,-0.1608173 0.202133,-0.3827428 m -0.197674,1.4108971 0.832314,-0.652916 1.206857,0 -1.544242,1.556704 -0.645043,-0.247658 0.150114,-0.65613 M 24.154366,7.2532613 25.011948,7.395852 24.716179,8.236386 23.790228,8.4540243 23.207608,7.5802548 24.154366,7.2543334 m -4.317633,-3.9700229 0,-0.048245 0.795157,0 0.07282,-0.1983403 1.304953,0 0,0.4127622 -0.384946,0.3559405 -1.789478,0 0,-0.5210455 z m 1.263334,1.279027 c 0,0 0.801104,-0.1007785 0.863527,-0.1007785 0.06242,0 0,0.5778673 0,0.5778673 l -1.793937,0.082553 -0.337384,-0.292686 1.269281,-0.2658832"
     id="path22"
     inkscape:connector-curvature="0"
     style="fill:#2a7fff;fill-opacity:0.85100002" />
  <path
     style="fill:#d5e5ff;fill-opacity:1"
     inkscape:connector-curvature="0"
     id="path26"
     d="m 47.548186,33.589987 c -0.08338,-0.10867 -0.189081,-0.172694 -0.324564,-0.193535 l -2.827288,-0.433223 c -0.154838,-0.494262 -0.366254,-0.998944 -0.634243,-1.514048 0.184616,-0.257551 0.463026,-0.620805 0.833745,-1.089757 0.370719,-0.468953 0.632754,-0.811363 0.787591,-1.027229 0.08189,-0.113149 0.123568,-0.232244 0.123568,-0.35581 0,-0.14441 -0.03573,-0.257551 -0.108691,-0.339433 -0.37072,-0.525523 -1.220843,-1.400903 -2.548877,-2.626134 -0.123568,-0.102724 -0.251615,-0.154829 -0.385609,-0.154829 -0.154837,0 -0.278411,0.04614 -0.370719,0.138448 l -2.193046,1.652501 c -0.422814,-0.215864 -0.88584,-0.406422 -1.390554,-0.573161 l -0.43325,-2.842002 c -0.01038,-0.133985 -0.06997,-0.244153 -0.17717,-0.33199 -0.108693,-0.08784 -0.233747,-0.131004 -0.378164,-0.131004 l -3.430263,0 c -0.299255,0 -0.483871,0.14441 -0.556824,0.433223 -0.133993,0.515104 -0.282877,1.472362 -0.448138,2.873266 -0.483868,0.154829 -0.951361,0.349855 -1.405454,0.586564 L 29.548231,26.00933 c -0.133995,-0.102725 -0.26799,-0.15483 -0.401985,-0.15483 -0.226302,0 -0.713149,0.367719 -1.460542,1.104645 -0.747393,0.736926 -1.253595,1.289246 -1.523073,1.659942 -0.09231,0.133986 -0.138462,0.253087 -0.138462,0.355811 0,0.123559 0.05211,0.24713 0.154838,0.370695 0.689329,0.833694 1.241685,1.545311 1.652602,2.131873 -0.257567,0.47342 -0.45856,0.946839 -0.602976,1.421746 l -2.873442,0.433224 c -0.113151,0.02084 -0.211414,0.08784 -0.293299,0.200978 -0.08188,0.11315 -0.123575,0.232245 -0.123575,0.355809 l 0,3.430055 c 0,0.133985 0.04169,0.254574 0.123575,0.363253 0.08188,0.108671 0.189081,0.172693 0.324564,0.193536 l 2.827289,0.416847 c 0.144415,0.504682 0.35583,1.013831 0.632752,1.528933 -0.184615,0.257553 -0.463025,0.620805 -0.833744,1.089758 -0.370719,0.468952 -0.634242,0.811361 -0.787592,1.02723 -0.08188,0.11315 -0.123573,0.232243 -0.123573,0.355808 0,0.133986 0.03573,0.251597 0.108685,0.355809 0.401984,0.556789 1.252106,1.421744 2.548878,2.594872 0.113149,0.113149 0.242678,0.169715 0.385606,0.169715 0.154838,0 0.282877,-0.04615 0.385607,-0.138449 l 2.178159,-1.653989 c 0.422827,0.215867 0.885854,0.406425 1.390569,0.573164 l 0.433248,2.842002 c 0.01038,0.133986 0.06997,0.244155 0.177172,0.33199 0.108678,0.08784 0.233745,0.131004 0.378162,0.131004 l 3.430264,0 c 0.299256,0 0.48387,-0.14441 0.556822,-0.433223 0.133994,-0.515103 0.282879,-1.472363 0.448138,-2.873266 0.483871,-0.154829 0.954341,-0.349853 1.405456,-0.586562 l 2.132005,1.668876 c 0.14442,0.0923 0.278412,0.138449 0.401985,0.138449 0.2263,0 0.710172,-0.364741 1.451608,-1.0972 0.741438,-0.730971 1.252106,-1.28776 1.529028,-1.668877 0.09231,-0.102724 0.138457,-0.221822 0.138457,-0.355808 0,-0.133985 -0.05211,-0.263507 -0.154838,-0.385583 -0.741437,-0.906643 -1.292305,-1.616772 -1.6526,-2.131875 0.205458,-0.381117 0.40645,-0.850071 0.602975,-1.40537 l 2.857066,-0.431734 c 0.123566,-0.02083 0.226301,-0.08784 0.309675,-0.200979 0.08188,-0.113149 0.123568,-0.232243 0.123568,-0.355808 l 0,-3.430055 c 0,-0.133985 -0.04018,-0.254574 -0.123568,-0.363252 m -8.947864,4.842871 c -0.772702,0.772655 -1.70471,1.15824 -2.796022,1.15824 -1.091313,0 -2.023321,-0.385585 -2.796023,-1.15824 -0.772704,-0.772656 -1.15831,-1.704605 -1.15831,-2.795851 0,-1.091244 0.385606,-2.023196 1.15831,-2.795851 0.772702,-0.772655 1.70471,-1.158239 2.796023,-1.158239 1.091312,0 2.024808,0.385584 2.796022,1.158239 0.772702,0.772655 1.158311,1.704607 1.158311,2.795851 0,1.091246 -0.385609,2.023195 -1.158311,2.795851" />
</svg>
