<?xml version="1.0" encoding="UTF-8" standalone="no"?>
<svg
   xmlns:dc="http://purl.org/dc/elements/1.1/"
   xmlns:cc="http://creativecommons.org/ns#"
   xmlns:rdf="http://www.w3.org/1999/02/22-rdf-syntax-ns#"
   xmlns:svg="http://www.w3.org/2000/svg"
   xmlns="http://www.w3.org/2000/svg"
   xmlns:sodipodi="http://sodipodi.sourceforge.net/DTD/sodipodi-0.dtd"
   xmlns:inkscape="http://www.inkscape.org/namespaces/inkscape"
   viewBox="0 0 48 48"
   id="svg2"
   version="1.1"
   inkscape:version="0.91 r13725"
   sodipodi:docname="kmenuedit.svg">
  <metadata
     id="metadata23">
    <rdf:RDF>
      <cc:Work
         rdf:about="">
        <dc:format>image/svg+xml</dc:format>
        <dc:type
           rdf:resource="http://purl.org/dc/dcmitype/StillImage" />
        <dc:title></dc:title>
      </cc:Work>
    </rdf:RDF>
  </metadata>
  <sodipodi:namedview
     pagecolor="#ffffff"
     bordercolor="#666666"
     borderopacity="1"
     objecttolerance="10"
     gridtolerance="10"
     guidetolerance="10"
     inkscape:pageopacity="0"
     inkscape:pageshadow="2"
     inkscape:window-width="1280"
     inkscape:window-height="694"
     id="namedview21"
     showgrid="false"
     inkscape:zoom="4.9166667"
     inkscape:cx="-9.1525424"
     inkscape:cy="24"
     inkscape:window-x="0"
     inkscape:window-y="0"
     inkscape:window-maximized="1"
     inkscape:current-layer="svg2" />
  <defs
     id="defs4">
    <linearGradient
       gradientTransform="matrix(1.0909134,0,0,1.0652899,-421.71825,-535.0624)"
       gradientUnits="userSpaceOnUse"
       y2="507.8"
       x2="0"
       y1="542.8"
       id="0">
      <stop
         stop-color="#00a661"
         id="stop7" />
      <stop
         offset="1"
         stop-color="#37ce97"
         id="stop9" />
    </linearGradient>
  </defs>
  <g
     style="fill:#37c871;fill-opacity:0.847"
     id="g15"
     transform="matrix(1.5678666,0,0,2.770136,-767.60974,276.28065)">
    <path
       inkscape:connector-curvature="0"
       id="path17"
       transform="matrix(0.03775,0,0,0.03775,488.95,-86.58)"
       d="m 272.47,-343.97 -75.37,7.247 0,310.48 74.56,-11.273 0,-132.37 100.33,146.87 78.59,-24.961 -102.74,-141.23 103.55,-133.18 -80.2,-18.358 -99.52,133.18 0.805,-136.4 m -170.86,75.69 c -0.852,0.088 -1.774,0.323 -2.416,0.966 l -29.631,29.631 c -1.244,1.248 -1.397,3.159 -0.483,4.67 l 34.623,57.17 c -6.148,10.335 -11.14,21.421 -14.654,33.17 l -63.61,13.205 c -1.77,0.366 -3.06,2.051 -3.06,3.865 l 0,41.87 c 0,1.77 1.346,3.286 3.06,3.704 l 61.677,14.977 c 3.298,13.607 8.393,26.628 15.14,38.488 l -35.75,54.43 c -0.997,1.52 -0.803,3.548 0.483,4.831 l 29.631,29.631 c 1.248,1.244 3.163,1.4 4.67,0.483 l 56.04,-33.979 c 10.992,6.346 22.892,11.43 35.428,14.815 l 13.04,62.805 c 0.366,1.775 1.891,3.06 3.704,3.06 l 41.87,0 c 1.757,0 3.286,-1.18 3.704,-2.899 l 15.46,-63.13 c 12.929,-3.486 25.12,-8.661 36.39,-15.299 l 55.24,36.23 c 1.523,0.992 3.54,0.8 4.831,-0.483 l 29.47,-29.631 c 1.252,-1.25 1.561,-3.163 0.644,-4.67 l -20.13,-33.17 -6.603,2.093 c -0.953,0.294 -2.01,-0.137 -2.577,-0.966 0,0 -12.716,-18.705 -29.31,-42.997 -19.845,38.832 -60.32,65.38 -106.93,65.38 -66.24,0 -119.97,-53.737 -119.97,-119.97 0,-48.722 29.14,-90.57 70.857,-109.34 l 0,-30.919 c -7.593,2.658 -14.929,5.864 -21.901,9.662 -0.013,-0.008 0.013,-0.153 0,-0.161 l -56.52,-37.04 c -0.76,-0.497 -1.563,-0.571 -2.416,-0.483"
       style="fill:#37c871" />
    <path
       inkscape:connector-curvature="0"
       id="path19"
       d="m 505.99,-87.12 0,3.12 3.12,0 7.88,-7.88 -3.12,-3.12 z m 13.76,-7.51 c 0.33,-0.33 0.33,-0.85 0,-1.18 l -1.95,-1.95 c -0.33,-0.33 -0.85,-0.33 -1.18,0 l -1.63,1.64 3.12,3.12 z"
       style="fill:#37c871" />
  </g>
</svg>
