<?xml version="1.0" encoding="UTF-8" standalone="no"?>
<svg
   xmlns:dc="http://purl.org/dc/elements/1.1/"
   xmlns:cc="http://creativecommons.org/ns#"
   xmlns:rdf="http://www.w3.org/1999/02/22-rdf-syntax-ns#"
   xmlns:svg="http://www.w3.org/2000/svg"
   xmlns="http://www.w3.org/2000/svg"
   xmlns:sodipodi="http://sodipodi.sourceforge.net/DTD/sodipodi-0.dtd"
   xmlns:inkscape="http://www.inkscape.org/namespaces/inkscape"
   viewBox="0 0 48 48"
   id="svg2"
   version="1.1"
   inkscape:version="0.91 r13725"
   sodipodi:docname="knode.svg">
  <metadata
     id="metadata17">
    <rdf:RDF>
      <cc:Work
         rdf:about="">
        <dc:format>image/svg+xml</dc:format>
        <dc:type
           rdf:resource="http://purl.org/dc/dcmitype/StillImage" />
        <dc:title></dc:title>
      </cc:Work>
    </rdf:RDF>
  </metadata>
  <sodipodi:namedview
     pagecolor="#ffffff"
     bordercolor="#666666"
     borderopacity="1"
     objecttolerance="10"
     gridtolerance="10"
     guidetolerance="10"
     inkscape:pageopacity="0"
     inkscape:pageshadow="2"
     inkscape:window-width="1280"
     inkscape:window-height="694"
     id="namedview15"
     showgrid="false"
     inkscape:zoom="4.9166667"
     inkscape:cx="-9.1525424"
     inkscape:cy="24"
     inkscape:window-x="0"
     inkscape:window-y="0"
     inkscape:window-maximized="1"
     inkscape:current-layer="svg2" />
  <defs
     id="defs4">
    <linearGradient
       id="0"
       gradientUnits="userSpaceOnUse"
       gradientTransform="matrix(.49433 0 0 .4778 86.64 13.1)"
       x1="-123.97"
       y1="73.5"
       x2="-125.19"
       y2="-26.05">
      <stop
         stop-color="#c52828"
         id="stop7" />
      <stop
         offset="1"
         stop-color="#ff5454"
         id="stop9" />
    </linearGradient>
  </defs>
  <path
     d="M 19.937491,0.38322016 C 17.984373,0.67785544 16.329064,4.1582347 16.329064,9.0723301 l 0,23.3629989 c 0,0.849707 -0.295326,1.573142 -0.727146,1.573142 l -3.442152,0 c -7.4451719,0 -6.7887558,-20.166732 -0.446709,-20.193039 l 3.805724,0 0,-5.8663989 -3.944702,0 c -2.5263946,0 -4.4000963,1.9993108 -5.6632939,4.9772319 -1.2631976,2.97792 -1.898519,6.997588 -1.9010008,11.001471 0,4.003882 0.6229128,7.98935 1.917132,10.975164 1.2942192,2.972658 3.2510587,4.977232 5.9288397,4.977232 l 6.489708,0 c 0.428098,0 0.782984,-0.783941 0.782984,-1.691523 l 0,-28.4901789 c 0,-1.4626537 0.38839,-2.6069961 0.897143,-2.9410915 0.508754,-0.3340953 1.106849,0.084182 1.454291,1.1574958 l 0.01489,0.00789 c 1.846403,6.4030566 9.177415,31.3313056 9.188583,31.3707656 0.19978,0.607684 0.440506,0.712912 0.612986,0.594532 0.176203,-0.123647 0.351165,-0.523504 0.348683,-1.515268 l 0,-28.7058941 c 0,-1.4626536 0.388389,-2.606996 0.897143,-2.9410913 0.508753,-0.3340954 1.090717,0.084182 1.441882,1.1574957 l 0,0.00789 0.0273,0 c 1.846404,6.4030557 9.177417,31.3313037 9.188585,31.3707637 0.197297,0.599794 0.431819,0.718174 0.612986,0.594532 0.182406,-0.123646 0.367294,-0.502458 0.363572,-1.483699 l 0,-37.89746145 -2.783254,0 0,22.12132145 c 0,0 -1.661514,-6.011086 -4.501848,-16.365411 C 34.10565,-3.9074102 28.848118,0.28588117 28.848118,9.0197125 l 0,13.5821585 c 0,0 -1.630493,-6.011085 -4.477031,-16.3654095 C 23.153805,1.8011524 21.456305,0.10173824 19.93625,0.33586806 Z M 12.06422,0.53316847 c -15.4996081,0 -15.3395369,46.79702653 0.209706,46.82070153 l 6.082706,0 c 2.615737,0 4.283455,-3.280448 4.279733,-9.341517 l 0,-11.86433 c 0,0 3.414852,11.969558 4.757465,16.660046 2.274501,7.970937 7.777724,6.403056 7.762833,-3.5593 l 0,-13.132314 c 0,0 3.404926,11.969557 4.742576,16.660047 2.274499,7.970935 7.790132,6.403055 7.777723,-3.5593 l 0,-38.72875496 -2.783254,0 0,37.89746296 c 0,1.449499 -0.357367,2.528075 -0.853712,2.875324 -0.496345,0.339357 -1.065902,-0.08418 -1.41086,-1.13119 l -0.01489,0 0,-0.0078 c 0,0 -7.333494,-24.85722 -9.204715,-31.3444581 -0.0062,0 -0.0099,0 -0.01489,0 0,0 0,-0.00789 0,-0.00789 -0.191093,-0.5498104 -0.440506,-0.66556 -0.644007,-0.528765 -0.209706,0.1367948 -0.407003,0.5156116 -0.403281,1.483699 l 0,28.7006321 c 0,1.4495 -0.348682,2.585951 -0.837581,2.941091 -0.49014,0.352511 -1.053492,-0.110491 -1.398452,-1.157495 l 0,-0.0078 -0.01489,0 c 0,0 -7.3397,-24.909835 -9.204715,-31.3786574 -0.193575,-0.5866399 -0.44671,-0.731327 -0.656416,-0.594532 -0.209706,0.1367949 -0.407003,0.5156118 -0.40328,1.4836992 l 0,0.00789 0,28.4901792 c 0,1.730982 -0.671306,3.17522 -1.482831,3.17522 l -6.489708,0 c -2.8477785,0 -5.0130828,-2.175565 -6.4338698,-5.456013 -1.4269915,-3.280532 -2.1293194,-7.636925 -2.1268377,-11.980165 0,-4.34324 0.7060505,-8.72857 2.0982978,-12.006388 C 6.7893155,8.6620434 8.8764455,6.4943695 11.591452,6.4864775 l 3.9447,0 0,-5.93216556 -3.45456,0 z"
     id="path13"
     style="fill:#ff5555"
     inkscape:connector-curvature="0" />
</svg>
