<?xml version="1.0" encoding="UTF-8" standalone="no"?>
<svg
   xmlns:dc="http://purl.org/dc/elements/1.1/"
   xmlns:cc="http://creativecommons.org/ns#"
   xmlns:rdf="http://www.w3.org/1999/02/22-rdf-syntax-ns#"
   xmlns:svg="http://www.w3.org/2000/svg"
   xmlns="http://www.w3.org/2000/svg"
   xmlns:sodipodi="http://sodipodi.sourceforge.net/DTD/sodipodi-0.dtd"
   xmlns:inkscape="http://www.inkscape.org/namespaces/inkscape"
   viewBox="0 0 48 48"
   id="svg2"
   version="1.1"
   inkscape:version="0.91 r13725"
   sodipodi:docname="kompare.svg">
  <metadata
     id="metadata33">
    <rdf:RDF>
      <cc:Work
         rdf:about="">
        <dc:format>image/svg+xml</dc:format>
        <dc:type
           rdf:resource="http://purl.org/dc/dcmitype/StillImage" />
        <dc:title></dc:title>
      </cc:Work>
    </rdf:RDF>
  </metadata>
  <sodipodi:namedview
     pagecolor="#ffffff"
     bordercolor="#666666"
     borderopacity="1"
     objecttolerance="10"
     gridtolerance="10"
     guidetolerance="10"
     inkscape:pageopacity="0"
     inkscape:pageshadow="2"
     inkscape:window-width="1280"
     inkscape:window-height="694"
     id="namedview31"
     showgrid="false"
     inkscape:zoom="4.9166667"
     inkscape:cx="-42.305085"
     inkscape:cy="24"
     inkscape:window-x="0"
     inkscape:window-y="0"
     inkscape:window-maximized="1"
     inkscape:current-layer="svg2" />
  <defs
     id="defs4">
    <linearGradient
       gradientUnits="userSpaceOnUse"
       y2="-314.9"
       x2="488.29"
       y1="1133.61"
       x1="506.06"
       id="0"
       gradientTransform="matrix(0.03284,0,0,0.03284,8.696,10.996)">
      <stop
         stop-color="#b4b4b4"
         id="stop7" />
      <stop
         offset="1"
         stop-color="#f3f3f3"
         id="stop9" />
    </linearGradient>
  </defs>
  <g
     style="fill:#6f6f91;fill-opacity:1"
     id="g25"
     transform="matrix(0.05073193,0,0,0.07791901,0.56049624,-12.15002)">
    <path
       inkscape:connector-curvature="0"
       id="path27"
       d="m 466.07,161.53 c -205.6,0 -382.8,121.2 -464.2,296.1 -2.5,5.3 -2.5,11.5 0,16.9 81.4,174.9 258.6,296.1 464.2,296.1 205.6,0 382.8,-121.2 464.2,-296.1 2.5,-5.3 2.5,-11.5 0,-16.9 -81.4,-174.9 -258.6,-296.1 -464.2,-296.1 m 0,514.7 c -116.1,0 -210.1,-94.1 -210.1,-210.1 0,-116.1 94.1,-210.1 210.1,-210.1 116.1,0 210.1,94.1 210.1,210.1 0,116 -94.1,210.1 -210.1,210.1"
       style="fill:#6f6f91" />
    <circle
       id="circle29"
       cx="466.07999"
       cy="466.01999"
       r="134.5"
       style="fill:#6f6f91" />
  </g>
</svg>
