<?xml version="1.0" encoding="UTF-8" standalone="no"?>
<svg
   xmlns:dc="http://purl.org/dc/elements/1.1/"
   xmlns:cc="http://creativecommons.org/ns#"
   xmlns:rdf="http://www.w3.org/1999/02/22-rdf-syntax-ns#"
   xmlns:svg="http://www.w3.org/2000/svg"
   xmlns="http://www.w3.org/2000/svg"
   xmlns:sodipodi="http://sodipodi.sourceforge.net/DTD/sodipodi-0.dtd"
   xmlns:inkscape="http://www.inkscape.org/namespaces/inkscape"
   viewBox="0 0 48 48"
   id="svg2"
   version="1.1"
   inkscape:version="0.91 r13725"
   sodipodi:docname="konversation.svg">
  <metadata
     id="metadata24">
    <rdf:RDF>
      <cc:Work
         rdf:about="">
        <dc:format>image/svg+xml</dc:format>
        <dc:type
           rdf:resource="http://purl.org/dc/dcmitype/StillImage" />
        <dc:title></dc:title>
      </cc:Work>
    </rdf:RDF>
  </metadata>
  <sodipodi:namedview
     pagecolor="#ffffff"
     bordercolor="#666666"
     borderopacity="1"
     objecttolerance="10"
     gridtolerance="10"
     guidetolerance="10"
     inkscape:pageopacity="0"
     inkscape:pageshadow="2"
     inkscape:window-width="1280"
     inkscape:window-height="694"
     id="namedview22"
     showgrid="false"
     inkscape:zoom="4.9166667"
     inkscape:cx="-9.1525424"
     inkscape:cy="24"
     inkscape:window-x="0"
     inkscape:window-y="0"
     inkscape:window-maximized="1"
     inkscape:current-layer="svg2" />
  <defs
     id="defs4">
    <linearGradient
       id="0"
       y1="546.8"
       x2="0"
       y2="507.87"
       gradientUnits="userSpaceOnUse"
       gradientTransform="matrix(-0.55334921,0,0,0.65339777,242.23318,-309.18751)">
      <stop
         stop-color="#d3d3d3"
         id="stop7" />
      <stop
         offset="1"
         stop-color="#fcf9f9"
         id="stop9" />
    </linearGradient>
    <linearGradient
       id="1"
       x1="34.17"
       y1="46.44"
       x2="34.15"
       y2="22.749"
       gradientUnits="userSpaceOnUse"
       gradientTransform="matrix(1.71427,0,0,1.8590428,-34.21,-41.596891)">
      <stop
         stop-color="#1074f5"
         id="stop12" />
      <stop
         offset="1"
         stop-color="#02befd"
         id="stop14" />
    </linearGradient>
  </defs>
  <path
     inkscape:connector-curvature="0"
     style="fill:#0066ff"
     id="path18"
     d="M 40.92474,6.6954638 C 36.399067,2.7003808 30.390551,0.50113321 24.004895,0.50113321 17.619239,0.50113321 11.609009,2.7003808 7.08505,6.6954638 2.519949,10.72401 0.00511493,16.094784 0.00511493,21.815059 c 0,5.460009 2.29197897,10.600262 6.46965497,14.560023 -0.075428,0.184045 -0.1354273,0.377386 -0.1731413,0.580021 l -1.3731302,7.32277 c -0.1628557,0.870032 0.056571,1.388705 0.2691404,1.67128 0.2451406,0.325332 0.6102801,0.505659 1.0251334,0.505659 0.3137114,0 0.6514226,-0.100388 1.002848,-0.299306 L 15.21069,41.656623 c 2.765117,0.964843 5.735947,1.470503 8.794205,1.470503 6.385656,0 12.394172,-2.199248 16.921559,-6.194331 4.565101,-4.028546 7.079935,-9.388166 7.079935,-15.119595 0,-5.722134 -2.514834,-11.091049 -7.078221,-15.1195952" />
  <path
     inkscape:connector-curvature="0"
     style="fill:#d5e5ff"
     id="path20"
     d="m 27.21058,25.867772 c 2.262836,-2.17508 5.267952,-3.372303 8.459922,-3.372303 3.193685,0 6.197086,1.197223 8.459923,3.372303 2.281693,2.193671 3.539967,5.116086 3.539967,8.231842 0,2.972609 -1.145132,5.770469 -3.234827,7.926958 0.03771,0.100389 0.06686,0.204495 0.08743,0.316038 l 0.685708,3.985787 c 0.08228,0.474056 -0.02743,0.756631 -0.133714,0.909072 -0.123427,0.176609 -0.30514,0.275139 -0.512566,0.275139 -0.157713,0 -0.325712,-0.05391 -0.500567,-0.161737 l -3.992535,-2.44836 c -1.381702,0.52611 -2.867974,0.801248 -4.397102,0.801248 -3.193685,0 -6.197087,-1.197224 -8.459923,-3.372304 -2.281693,-2.19367 -3.539967,-5.116086 -3.539967,-8.231841 0,-3.113897 1.256559,-6.038171 3.539967,-8.231842" />
</svg>
