<?xml version="1.0" encoding="UTF-8" standalone="no"?>
<svg
   xmlns:dc="http://purl.org/dc/elements/1.1/"
   xmlns:cc="http://creativecommons.org/ns#"
   xmlns:rdf="http://www.w3.org/1999/02/22-rdf-syntax-ns#"
   xmlns:svg="http://www.w3.org/2000/svg"
   xmlns="http://www.w3.org/2000/svg"
   xmlns:sodipodi="http://sodipodi.sourceforge.net/DTD/sodipodi-0.dtd"
   xmlns:inkscape="http://www.inkscape.org/namespaces/inkscape"
   viewBox="0 0 48 48"
   id="svg2"
   version="1.1"
   inkscape:version="0.91 r13725"
   sodipodi:docname="korganizer.svg">
  <metadata
     id="metadata35">
    <rdf:RDF>
      <cc:Work
         rdf:about="">
        <dc:format>image/svg+xml</dc:format>
        <dc:type
           rdf:resource="http://purl.org/dc/dcmitype/StillImage" />
        <dc:title></dc:title>
      </cc:Work>
    </rdf:RDF>
  </metadata>
  <sodipodi:namedview
     pagecolor="#ffffff"
     bordercolor="#666666"
     borderopacity="1"
     objecttolerance="10"
     gridtolerance="10"
     guidetolerance="10"
     inkscape:pageopacity="0"
     inkscape:pageshadow="2"
     inkscape:window-width="1280"
     inkscape:window-height="694"
     id="namedview33"
     showgrid="false"
     inkscape:zoom="4.9166667"
     inkscape:cx="-9.1525424"
     inkscape:cy="24"
     inkscape:window-x="0"
     inkscape:window-y="0"
     inkscape:window-maximized="1"
     inkscape:current-layer="svg2" />
  <defs
     id="defs4">
    <linearGradient
       id="0"
       gradientUnits="userSpaceOnUse"
       x1="469.05"
       y1="76.873"
       x2="469.39"
       y2="-3.038">
      <stop
         stop-color="#fefffe"
         id="stop7" />
      <stop
         offset="1"
         stop-color="#f1f1f0"
         id="stop9" />
    </linearGradient>
    <linearGradient
       gradientUnits="userSpaceOnUse"
       y2="-75.34"
       x2="467.54"
       y1="130.35"
       x1="468.86"
       id="1"
       gradientTransform="matrix(0.24746217,0,0,0.24746217,-92.089766,14.500484)">
      <stop
         stop-color="#124da4"
         id="stop12" />
      <stop
         offset="1"
         stop-color="#2896ff"
         id="stop14" />
    </linearGradient>
    <linearGradient
       gradientTransform="matrix(0.24693291,-0.00106772,0.00107,0.24746,-91.893885,14.641929)"
       gradientUnits="userSpaceOnUse"
       y2="36.36"
       x2="472.17"
       y1="122.17"
       x1="469.01"
       id="2">
      <stop
         stop-color="#2381dd"
         id="stop17" />
      <stop
         offset="1"
         stop-color="#2381dd"
         id="stop19" />
    </linearGradient>
  </defs>
  <g
     style="fill:#2a7fff;fill-opacity:0.85100002"
     id="g27"
     transform="matrix(0.43731285,-0.00255995,0.00189091,0.59204289,-180.96111,3.3892517)">
    <path
       inkscape:connector-curvature="0"
       id="path29"
       d="m 463.01,75.11 -48.53,0 0,-10.239 q 21.814,-21.925 27.935,-28.603 5.454,-6.121 7.346,-9.238 1.892,-3.228 1.892,-7.902 0,-4.786 -3.784,-8.459 -3.784,-3.673 -10.128,-3.673 -5.787,0 -9.349,3.45 -3.561,3.339 -4.563,7.234 l -9.349,-3.784 q 1.892,-6.01 7.902,-11.352 6.01,-5.342 15.581,-5.342 10.573,0 17.362,6.455 6.789,6.455 6.789,15.47 0,11.13 -12.13,23.817 l -22.259,22.371 35.28,0 0,9.794"
       style="fill:#2a7fff" />
    <path
       inkscape:connector-curvature="0"
       id="path31"
       d="m 496.8,76.887 q -7.679,0 -14.914,-4.786 -7.234,-4.786 -10.02,-14.246 l 9.349,-3.895 q 1.781,6.233 5.899,9.683 4.118,3.45 9.683,3.45 6.233,0 10.684,-3.895 4.563,-3.895 4.563,-9.683 0,-5.676 -4.674,-9.571 -4.563,-3.895 -11.02,-3.895 l -6.566,0 0,-9.571 5.787,0 q 6.01,0 9.905,-3.339 4.01,-3.339 4.01,-8.904 0,-5.231 -3.895,-8.236 -3.784,-3 -9.46,-3 -9.794,0 -13.244,9.905 l -9.46,-4.01 q 2.226,-6.121 7.902,-10.907 5.676,-4.786 14.802,-4.786 10.239,0 17.03,6.01 6.789,5.899 6.789,15.02 0,11.02 -10.239,16.361 l 0,0.445 q 5.565,2.337 9.126,7.123 3.673,4.786 3.673,11.352 0,10.128 -7.457,16.806 -7.457,6.566 -18.253,6.566"
       style="fill:#2a7fff" />
  </g>
</svg>
