<?xml version="1.0" encoding="UTF-8" standalone="no"?>
<svg
   xmlns:dc="http://purl.org/dc/elements/1.1/"
   xmlns:cc="http://creativecommons.org/ns#"
   xmlns:rdf="http://www.w3.org/1999/02/22-rdf-syntax-ns#"
   xmlns:svg="http://www.w3.org/2000/svg"
   xmlns="http://www.w3.org/2000/svg"
   xmlns:sodipodi="http://sodipodi.sourceforge.net/DTD/sodipodi-0.dtd"
   xmlns:inkscape="http://www.inkscape.org/namespaces/inkscape"
   viewBox="0 0 48 48"
   id="svg2"
   version="1.1"
   inkscape:version="0.91 r13725"
   sodipodi:docname="kruler.svg">
  <metadata
     id="metadata19">
    <rdf:RDF>
      <cc:Work
         rdf:about="">
        <dc:format>image/svg+xml</dc:format>
        <dc:type
           rdf:resource="http://purl.org/dc/dcmitype/StillImage" />
        <dc:title></dc:title>
      </cc:Work>
    </rdf:RDF>
  </metadata>
  <sodipodi:namedview
     pagecolor="#ffffff"
     bordercolor="#666666"
     borderopacity="1"
     objecttolerance="10"
     gridtolerance="10"
     guidetolerance="10"
     inkscape:pageopacity="0"
     inkscape:pageshadow="2"
     inkscape:window-width="1280"
     inkscape:window-height="694"
     id="namedview17"
     showgrid="false"
     inkscape:zoom="4.9166667"
     inkscape:cx="-9.1525424"
     inkscape:cy="24"
     inkscape:window-x="0"
     inkscape:window-y="0"
     inkscape:window-maximized="1"
     inkscape:current-layer="svg2" />
  <defs
     id="defs4">
    <linearGradient
       gradientTransform="matrix(1.09092 0 0 1.06529-421.72-535.06)"
       gradientUnits="userSpaceOnUse"
       y2="507.8"
       x2="0"
       y1="542.8"
       id="0">
      <stop
         stop-color="#155bc2"
         id="stop7" />
      <stop
         offset="1"
         stop-color="#369dff"
         id="stop9" />
    </linearGradient>
  </defs>
  <path
     d="M 47.825085,46.010114 47.779047,31.17809 c -1.34e-4,-0.336556 -0.08665,-0.658106 -0.236955,-0.893909 -0.150298,-0.235803 -0.354757,-0.368711 -0.56734,-0.366567 l -2.91659,0.02358 C 43.735901,22.211136 41.665583,15.02128 38.172175,9.5463577 38.120721,9.4648985 38.067914,9.3834391 38.015106,9.3019799 34.23329,3.4990765 29.24909,0.32430737 23.980541,0.36503702 18.711995,0.40576667 13.748105,3.6555641 10.002846,9.5184901 6.4485066,15.079159 4.3660019,22.401922 4.0870709,30.249882 l -2.9165897,0.02358 c -0.44141515,0.0042 -0.79888019,0.572358 -0.79617212,1.271194 l 0.0460371,14.832024 c 1.354e-4,0.336556 0.0866582,0.658106 0.23695599,0.893909 0.15029779,0.235803 0.35475698,0.368711 0.56734038,0.366567 l 5.539354,-0.04288 -0.024372,-6.30881 C 6.7355647,40.352972 7.210828,39.59197 7.7998329,39.58554 8.3888378,39.57914 8.86952,40.331536 8.872228,41.26403 l 0.024373,6.313096 4.4168595,-0.0343 -0.02437,-6.201625 c -0.004,-0.932495 0.471204,-1.693496 1.060209,-1.699928 0.589005,-0.0064 1.069687,0.745996 1.072395,1.678491 l 0.02437,6.205913 4.327493,-0.0343 -0.02437,-6.270223 c -0.004,-0.932495 0.471204,-1.693496 1.06021,-1.699927 0.589005,-0.0064 1.069687,0.745996 1.072395,1.67849 l 0.02437,6.27451 4.442586,-0.0343 -0.02437,-6.16304 c -0.004,-0.932494 0.471204,-1.693496 1.060209,-1.699928 0.589004,-0.0064 1.069687,0.745996 1.072394,1.678492 l 0.02437,6.167326 4.308538,-0.0343 -0.02437,-6.14589 c -0.004,-0.932495 0.471204,-1.693496 1.060208,-1.699927 0.589005,-0.0064 1.069687,0.745996 1.072395,1.67849 l 0.02437,6.150178 4.461543,-0.0343 -0.02437,-6.126598 c -0.004,-0.932494 0.471203,-1.693496 1.060208,-1.699926 0.589005,-0.0064 1.069687,0.745995 1.072395,1.67849 l 0.02302,6.130884 5.509565,-0.04074 c 0.212583,-2.15e-4 0.415688,-0.137195 0.564632,-0.375142 0.148945,-0.237947 0.232895,-0.56164 0.231541,-0.898196 z M 13.0413,30.417088 c 0.162484,-4.287331 1.310704,-8.304561 3.261868,-11.357141 2.055424,-3.217643 4.775679,-5.011891 7.657064,-5.050477 2.881384,-0.03858 5.602993,1.682778 7.663834,4.844685 0.02844,0.04288 0.05687,0.08788 0.08531,0.132903 1.903772,2.983983 3.026266,6.911179 3.192813,11.136344 L 13.03453,30.419228"
     id="path15"
     style="fill:#2a7fff"
     inkscape:connector-curvature="0" />
</svg>
