<?xml version="1.0" encoding="UTF-8" standalone="no"?>
<svg
   xmlns:dc="http://purl.org/dc/elements/1.1/"
   xmlns:cc="http://creativecommons.org/ns#"
   xmlns:rdf="http://www.w3.org/1999/02/22-rdf-syntax-ns#"
   xmlns:svg="http://www.w3.org/2000/svg"
   xmlns="http://www.w3.org/2000/svg"
   xmlns:sodipodi="http://sodipodi.sourceforge.net/DTD/sodipodi-0.dtd"
   xmlns:inkscape="http://www.inkscape.org/namespaces/inkscape"
   viewBox="0 0 48 48"
   id="svg2"
   version="1.1"
   inkscape:version="0.91 r13725"
   sodipodi:docname="kteatime.svg">
  <metadata
     id="metadata19">
    <rdf:RDF>
      <cc:Work
         rdf:about="">
        <dc:format>image/svg+xml</dc:format>
        <dc:type
           rdf:resource="http://purl.org/dc/dcmitype/StillImage" />
        <dc:title></dc:title>
      </cc:Work>
    </rdf:RDF>
  </metadata>
  <sodipodi:namedview
     pagecolor="#ffffff"
     bordercolor="#666666"
     borderopacity="1"
     objecttolerance="10"
     gridtolerance="10"
     guidetolerance="10"
     inkscape:pageopacity="0"
     inkscape:pageshadow="2"
     inkscape:window-width="1280"
     inkscape:window-height="694"
     id="namedview17"
     showgrid="false"
     inkscape:zoom="4.9166667"
     inkscape:cx="-6.4067797"
     inkscape:cy="24"
     inkscape:window-x="0"
     inkscape:window-y="0"
     inkscape:window-maximized="1"
     inkscape:current-layer="svg2" />
  <defs
     id="defs4">
    <linearGradient
       id="0"
       x1="216.28"
       y1="324.17"
       x2="215.14"
       y2="298.79"
       gradientUnits="userSpaceOnUse"
       gradientTransform="matrix(1.7951595,0,0,1.9007723,-363.84183,-568.15782)">
      <stop
         stop-color="#c52828"
         id="stop7" />
      <stop
         stop-color="#ff5454"
         offset="1"
         id="stop9" />
    </linearGradient>
  </defs>
  <path
     inkscape:connector-curvature="0"
     style="fill:#ff5555"
     id="path13"
     d="m 23.912622,5.8754146 c -10.878667,0 -19.7467545,9.3803114 -19.7467545,20.9084954 0,11.51868 8.8591125,20.908495 19.7467545,20.908495 10.878667,0 19.746755,-9.380311 19.746755,-20.908495 0,-11.51868 -8.859113,-20.9084954 -19.746755,-20.9084954 M 2.8679672,14.413684 0.63478876,11.634755 C -0.32921189,10.414459 -0.17662333,8.5821144 0.97766423,7.5575981 L 8.5101535,0.74332939 C 9.6626459,-0.27548456 11.517046,-0.03598725 12.484637,1.1862093 L 15.10916,4.4536369 C 10.181447,6.506471 6.0436043,10.230084 3.3131667,14.964908 Z M 47.382537,11.562525 44.578498,15.111267 C 41.882169,10.353634 37.762278,6.6015096 32.847131,4.5163624 l 2.602981,-3.2921376 c 0.955025,-1.22789892 2.80763,-1.48640396 3.967303,-0.47519309 l 7.591729,6.74013859 c 1.159673,1.0131116 1.326623,2.8454557 0.373393,4.0733547" />
</svg>
