<?xml version="1.0" encoding="UTF-8" standalone="no"?>
<svg
   xmlns:dc="http://purl.org/dc/elements/1.1/"
   xmlns:cc="http://creativecommons.org/ns#"
   xmlns:rdf="http://www.w3.org/1999/02/22-rdf-syntax-ns#"
   xmlns:svg="http://www.w3.org/2000/svg"
   xmlns="http://www.w3.org/2000/svg"
   xmlns:sodipodi="http://sodipodi.sourceforge.net/DTD/sodipodi-0.dtd"
   xmlns:inkscape="http://www.inkscape.org/namespaces/inkscape"
   viewBox="0 0 48 48"
   id="svg2"
   version="1.1"
   inkscape:version="0.91 r13725"
   sodipodi:docname="kturtle.svg">
  <metadata
     id="metadata21">
    <rdf:RDF>
      <cc:Work
         rdf:about="">
        <dc:format>image/svg+xml</dc:format>
        <dc:type
           rdf:resource="http://purl.org/dc/dcmitype/StillImage" />
        <dc:title></dc:title>
      </cc:Work>
    </rdf:RDF>
  </metadata>
  <sodipodi:namedview
     pagecolor="#ffffff"
     bordercolor="#666666"
     borderopacity="1"
     objecttolerance="10"
     gridtolerance="10"
     guidetolerance="10"
     inkscape:pageopacity="0"
     inkscape:pageshadow="2"
     inkscape:window-width="1280"
     inkscape:window-height="694"
     id="namedview19"
     showgrid="false"
     inkscape:zoom="4.9166667"
     inkscape:cx="-6.4067797"
     inkscape:cy="24"
     inkscape:window-x="0"
     inkscape:window-y="0"
     inkscape:window-maximized="1"
     inkscape:current-layer="svg2" />
  <defs
     id="defs4">
    <linearGradient
       id="0"
       y1="26.672"
       x2="56.746"
       y2="-19.333"
       gradientUnits="userSpaceOnUse"
       x1="58.17"
       gradientTransform="matrix(0.99998,0,0,0.99998,-66.741666,41.763791)">
      <stop
         stop-color="#00a661"
         id="stop7" />
      <stop
         offset="1"
         stop-color="#37ce97"
         id="stop9" />
    </linearGradient>
  </defs>
  <g
     transform="matrix(1.033236,0,0,1.0289092,0.36026796,0.45762712)"
     id="g15"
     style="fill:#37c871">
    <path
       d="M 45.1,15.176 C 42.274,12.937 37.689,11.104 31.182,13.722 30.1,12.529 28.864,11.581 27.521,10.908 27.995,9.828 28.269,8.571 28.269,7.222 28.269,3.234 25.898,0 22.975,0 c -2.926,0 -5.296,3.234 -5.296,7.222 0,1.348 0.276,2.605 0.747,3.686 -1.341,0.673 -2.578,1.621 -3.66,2.814 -6.508,-2.62 -11.09,-0.786 -13.919,1.453 -0.526,0.417 -0.726,1.125 -0.498,1.756 0.229,0.631 0.834,1.046 1.506,1.03 3.197,-0.076 6.675,1.093 9.289,2.233 -0.636,2.01 -0.99,4.214 -0.99,6.528 0,3.949 1.032,7.573 2.748,10.453 -1.882,2.394 -2.531,4.963 -2.641,7.146 -0.034,0.67 0.367,1.287 0.992,1.53 0.625,0.246 1.336,0.063 1.767,-0.45 1.152,-1.377 2.662,-2.56 4.219,-3.55 1.728,1.146 3.672,1.807 5.737,1.807 2.064,0 4.01,-0.66 5.736,-1.807 1.558,0.99 3.066,2.173 4.218,3.55 0.434,0.515 1.145,0.696 1.77,0.45 0.625,-0.242 1.023,-0.859 0.99,-1.53 -0.108,-2.183 -0.759,-4.752 -2.641,-7.146 1.716,-2.88 2.748,-6.504 2.748,-10.453 0,-2.313 -0.354,-4.52 -0.99,-6.528 2.613,-1.141 6.092,-2.309 9.289,-2.234 0.671,0.017 1.277,-0.398 1.505,-1.03 0.226,-0.629 0.026,-1.337 -0.501,-1.754"
       id="path17"
       style="fill:#37c871"
       inkscape:connector-curvature="0" />
  </g>
</svg>
