<?xml version="1.0" encoding="UTF-8" standalone="no"?>
<!-- Generator: Adobe Illustrator 16.0.0, SVG Export Plug-In . SVG Version: 6.00 Build 0)  -->

<svg
   xmlns:dc="http://purl.org/dc/elements/1.1/"
   xmlns:cc="http://creativecommons.org/ns#"
   xmlns:rdf="http://www.w3.org/1999/02/22-rdf-syntax-ns#"
   xmlns:svg="http://www.w3.org/2000/svg"
   xmlns="http://www.w3.org/2000/svg"
   xmlns:sodipodi="http://sodipodi.sourceforge.net/DTD/sodipodi-0.dtd"
   xmlns:inkscape="http://www.inkscape.org/namespaces/inkscape"
   version="1.1"
   id="Capa_1"
   x="0px"
   y="0px"
   width="512px"
   height="512px"
   viewBox="0 0 473.462 473.461"
   style="enable-background:new 0 0 473.462 473.461;"
   xml:space="preserve"
   inkscape:version="0.91 r13725"
   sodipodi:docname="kwikdisk.svg"><metadata
     id="metadata45"><rdf:RDF><cc:Work
         rdf:about=""><dc:format>image/svg+xml</dc:format><dc:type
           rdf:resource="http://purl.org/dc/dcmitype/StillImage" /><dc:title></dc:title></cc:Work></rdf:RDF></metadata><defs
     id="defs43" /><sodipodi:namedview
     pagecolor="#ffffff"
     bordercolor="#666666"
     borderopacity="1"
     objecttolerance="10"
     gridtolerance="10"
     guidetolerance="10"
     inkscape:pageopacity="0"
     inkscape:pageshadow="2"
     inkscape:window-width="1280"
     inkscape:window-height="694"
     id="namedview41"
     showgrid="false"
     inkscape:zoom="0.4609375"
     inkscape:cx="-451.25424"
     inkscape:cy="256"
     inkscape:window-x="0"
     inkscape:window-y="0"
     inkscape:window-maximized="1"
     inkscape:current-layer="Capa_1" /><path
     d="m 437.959,321.40588 c 11.139,0 21.5,3.55751 30.099,9.63266 L 408.742,35.569484 C 405.272,18.281472 388.761,4.2740239 371.857,4.2740239 l -270.271,0 c -16.897,0 -33.416,14.0137191 -36.885,31.2954601 L 5.392,331.03854 c 8.599,-6.08247 18.959,-9.63266 30.098,-9.63266 l 402.469,0 0,0 z"
     id="path7"
     inkscape:connector-curvature="0"
     style="fill:#b7bec8" /><path
     d="m 35.496,469.18796 402.47,0 c 19.602,0 35.496,-16.61183 35.496,-37.0968 l 0,-54.40467 c 0,-7.28537 -2.038,-14.05343 -5.509,-19.7837 -6.291,-10.3935 -17.356,-17.30787 -29.987,-17.30787 l -402.47,0 c -12.631,0 -23.696,6.91959 -29.988,17.30787 C 2.038,363.63306 0,370.40739 0,377.68649 l 0,54.40467 c 0,20.49124 15.894,37.0968 35.496,37.0968 z m 376.674,-69.36002 -77.314,0 c -5.073,0 -9.18,-4.29013 -9.18,-9.594 0,-5.30074 4.106,-9.594 9.18,-9.594 l 77.314,0 c 5.073,0 9.18,4.29222 9.18,9.594 0,5.30283 -4.113,9.594 -9.18,9.594 z"
     id="path9"
     inkscape:connector-curvature="0"
     style="fill:#373e48" /><g
     id="g11" /><g
     id="g13" /><g
     id="g15" /><g
     id="g17" /><g
     id="g19" /><g
     id="g21" /><g
     id="g23" /><g
     id="g25" /><g
     id="g27" /><g
     id="g29" /><g
     id="g31" /><g
     id="g33" /><g
     id="g35" /><g
     id="g37" /><g
     id="g39" /><g
     id="g48"
     style="fill:#0b1728;stroke:#909296;stroke-width:0.0001"
     transform="matrix(8.279893,0,0,7.3577006,-625.52615,14.809129)"><path
       d="m 32.605,41.23 c 0.023,0 0.044,-0.009 0.061,-0.026 0.017,-0.017 0.026,-0.037 0.026,-0.061 l 0,-0.433 c 0,-0.023 -0.009,-0.044 -0.026,-0.061 -0.017,-0.017 -0.037,-0.026 -0.061,-0.026 -0.023,0 -0.044,0.009 -0.061,0.026 -0.017,0.017 -0.026,0.037 -0.026,0.061 l 0,0.433 c 0,0.023 0.009,0.044 0.026,0.061 0.017,0.017 0.037,0.026 0.061,0.026 z"
       id="path50"
       inkscape:connector-curvature="0"
       style="opacity:0.66799999;fill:#0b1728" /><path
       d="m 33.07,41 c -0.036,-0.073 -0.087,-0.134 -0.153,-0.183 -0.019,-0.014 -0.04,-0.02 -0.064,-0.017 -0.024,0.003 -0.043,0.014 -0.057,0.034 -0.014,0.019 -0.02,0.04 -0.017,0.064 0.003,0.024 0.015,0.043 0.034,0.057 0.044,0.033 0.078,0.074 0.103,0.123 0.024,0.048 0.036,0.1 0.036,0.154 0,0.047 -0.009,0.092 -0.027,0.134 -0.018,0.043 -0.043,0.08 -0.074,0.111 -0.031,0.031 -0.068,0.056 -0.111,0.074 -0.043,0.018 -0.087,0.027 -0.134,0.027 -0.047,0 -0.092,-0.009 -0.134,-0.027 -0.043,-0.018 -0.08,-0.043 -0.111,-0.074 -0.031,-0.031 -0.056,-0.068 -0.074,-0.111 -0.018,-0.043 -0.027,-0.087 -0.027,-0.134 0,-0.055 0.012,-0.106 0.036,-0.154 0.024,-0.048 0.058,-0.089 0.103,-0.123 0.019,-0.014 0.03,-0.034 0.034,-0.057 0.003,-0.024 -0.002,-0.045 -0.017,-0.064 -0.014,-0.019 -0.033,-0.031 -0.057,-0.034 -0.024,-0.003 -0.045,0.002 -0.065,0.017 -0.066,0.049 -0.117,0.11 -0.153,0.183 -0.036,0.073 -0.054,0.15 -0.054,0.232 0,0.07 0.014,0.138 0.041,0.202 0.028,0.064 0.065,0.119 0.111,0.166 0.046,0.046 0.102,0.084 0.166,0.111 0.064,0.028 0.131,0.041 0.202,0.041 0.07,0 0.138,-0.014 0.202,-0.041 0.064,-0.028 0.119,-0.065 0.166,-0.111 0.046,-0.046 0.083,-0.102 0.111,-0.166 0.028,-0.064 0.041,-0.131 0.041,-0.202 0,-0.082 -0.018,-0.16 -0.054,-0.232 z"
       id="path52"
       inkscape:connector-curvature="0"
       style="opacity:0.66799999;fill:#0b1728" /></g><g
     id="g54"
     style="fill:#0b1728;stroke:#909296;stroke-width:0.086"
     transform="matrix(13.402552,0,0,19.301733,50.520921,-170.47953)"><path
       style="fill:#0b1728"
       d="m 22.699,27.07 -2.986,5.92 c 1.313,0.29 2.738,0.382 4.183,0.198 4.735,-0.604 7.937,-3.799 7.36,-7.211 l -8.557,1.093 z"
       id="path56"
       inkscape:connector-curvature="0" /><path
       style="fill:#0b1728"
       d="m 18.807,20.776 z m 0.913,-0.225 2.927,5.817 8.456,-1.082 c -1.071,-3.349 -5.594,-5.54 -10.329,-4.935 -0.366,0.047 -0.707,0.124 -1.054,0.2 z"
       id="path58"
       inkscape:connector-curvature="0" /><path
       style="fill:#0b1728"
       d="m 18.807,20.776 c -2.395,0.738 -4.207,2.193 -5.01,3.933 -0.461,0.995 -0.588,2.086 -0.318,3.192 0.548,2.249 2.642,4.01 5.343,4.841 l 3,-5.971 -3.02,-5.995"
       id="path60"
       inkscape:connector-curvature="0" /></g></svg>