<?xml version="1.0" encoding="UTF-8" standalone="no"?>
<svg
   xmlns:dc="http://purl.org/dc/elements/1.1/"
   xmlns:cc="http://creativecommons.org/ns#"
   xmlns:rdf="http://www.w3.org/1999/02/22-rdf-syntax-ns#"
   xmlns:svg="http://www.w3.org/2000/svg"
   xmlns="http://www.w3.org/2000/svg"
   xmlns:sodipodi="http://sodipodi.sourceforge.net/DTD/sodipodi-0.dtd"
   xmlns:inkscape="http://www.inkscape.org/namespaces/inkscape"
   viewBox="0 0 48 48"
   id="svg2"
   version="1.1"
   inkscape:version="0.91 r13725"
   sodipodi:docname="linkedin.svg">
  <metadata
     id="metadata27">
    <rdf:RDF>
      <cc:Work
         rdf:about="">
        <dc:format>image/svg+xml</dc:format>
        <dc:type
           rdf:resource="http://purl.org/dc/dcmitype/StillImage" />
        <dc:title></dc:title>
      </cc:Work>
    </rdf:RDF>
  </metadata>
  <sodipodi:namedview
     pagecolor="#ffffff"
     bordercolor="#666666"
     borderopacity="1"
     objecttolerance="10"
     gridtolerance="10"
     guidetolerance="10"
     inkscape:pageopacity="0"
     inkscape:pageshadow="2"
     inkscape:window-width="1280"
     inkscape:window-height="694"
     id="namedview25"
     showgrid="false"
     inkscape:zoom="4.9166667"
     inkscape:cx="-9.1525424"
     inkscape:cy="24"
     inkscape:window-x="0"
     inkscape:window-y="0"
     inkscape:window-maximized="1"
     inkscape:current-layer="svg2" />
  <defs
     id="defs4">
    <linearGradient
       id="0"
       gradientUnits="userSpaceOnUse"
       x1="24.61"
       y1="47.593"
       x2="23.593"
       y2="-.203">
      <stop
         stop-color="#197ff1"
         id="stop7" />
      <stop
         stop-color="#21c6fb"
         offset="1"
         id="stop9" />
    </linearGradient>
  </defs>
  <g
     style="fill:#5599ff"
     id="g15"
     transform="matrix(0.15645709,0,0,0.16516775,-9.5462578,-11.596498)">
    <path
       inkscape:connector-curvature="0"
       id="path17"
       d="m 130.4,360.04 -64.987,0 0,-194.19 64.987,0 0,194.19"
       style="fill:#5599ff" />
    <path
       inkscape:connector-curvature="0"
       id="path19"
       d="m 97.91,139.31 -0.437,0 c -21.793,0 -35.92,-14.904 -35.92,-33.563 0,-19.03 14.542,-33.535 36.767,-33.535 22.23,0 35.899,14.496 36.33,33.535 0,18.663 -14.1,33.563 -36.741,33.563"
       style="fill:#5599ff" />
    <path
       inkscape:connector-curvature="0"
       id="path21"
       d="m 364.66,360.04 -64.966,0 0,-103.9 c 0,-26.11 -9.413,-43.921 -32.907,-43.921 -17.973,0 -28.642,12.02 -33.33,23.621 -1.736,4.144 -2.166,9.94 -2.166,15.728 l 0,108.47 -64.954,0 c 0,0 0.85,-175.98 0,-194.19 l 64.964,0 0,27.531 c 8.624,-13.229 24.03,-32.1 58.53,-32.1 42.76,0 74.822,27.739 74.822,87.41 l 0,111.35"
       style="fill:#5599ff" />
  </g>
  <path
     inkscape:connector-curvature="0"
     id="path23"
     d="m 25.99281,21.515858 c 0.01245,-0.02041 0.02984,-0.04498 0.04711,-0.06887 l 0,0.06887 -0.04711,0" />
</svg>
