<?xml version="1.0" encoding="UTF-8" standalone="no"?>
<svg
   xmlns:dc="http://purl.org/dc/elements/1.1/"
   xmlns:cc="http://creativecommons.org/ns#"
   xmlns:rdf="http://www.w3.org/1999/02/22-rdf-syntax-ns#"
   xmlns:svg="http://www.w3.org/2000/svg"
   xmlns="http://www.w3.org/2000/svg"
   xmlns:sodipodi="http://sodipodi.sourceforge.net/DTD/sodipodi-0.dtd"
   xmlns:inkscape="http://www.inkscape.org/namespaces/inkscape"
   viewBox="0 0 48 48"
   id="svg2"
   version="1.1"
   inkscape:version="0.91 r13725"
   sodipodi:docname="mahjongg.svg">
  <metadata
     id="metadata28">
    <rdf:RDF>
      <cc:Work
         rdf:about="">
        <dc:format>image/svg+xml</dc:format>
        <dc:type
           rdf:resource="http://purl.org/dc/dcmitype/StillImage" />
        <dc:title></dc:title>
      </cc:Work>
    </rdf:RDF>
  </metadata>
  <sodipodi:namedview
     pagecolor="#ffffff"
     bordercolor="#666666"
     borderopacity="1"
     objecttolerance="10"
     gridtolerance="10"
     guidetolerance="10"
     inkscape:pageopacity="0"
     inkscape:pageshadow="2"
     inkscape:window-width="1280"
     inkscape:window-height="694"
     id="namedview26"
     showgrid="false"
     inkscape:zoom="4.9166667"
     inkscape:cx="-9.1525424"
     inkscape:cy="24"
     inkscape:window-x="0"
     inkscape:window-y="0"
     inkscape:window-maximized="1"
     inkscape:current-layer="svg2" />
  <defs
     id="defs4">
    <clipPath
       id="clipPath6">
      <path
         transform="matrix(15.33333 0 0 11.5 415-125.5)"
         d="m-24 13c0 1.105-.672 2-1.5 2-.828 0-1.5-.895-1.5-2 0-1.105.672-2 1.5-2 .828 0 1.5.895 1.5 2"
         fill="#1890d0"
         id="path8" />
    </clipPath>
    <linearGradient
       id="0"
       gradientUnits="userSpaceOnUse"
       x1="24.61"
       y1="47.593"
       x2="23.593"
       y2="-.203">
      <stop
         stop-color="#dce2ff"
         id="stop11" />
      <stop
         stop-color="#f8feff"
         offset="1"
         id="stop13" />
    </linearGradient>
    <linearGradient
       id="1"
       gradientUnits="userSpaceOnUse"
       x1="24.61"
       y1="47.593"
       x2="24.456"
       y2="34.888">
      <stop
         stop-color="#1867c9"
         id="stop16" />
      <stop
         offset="1"
         stop-color="#5185ff"
         id="stop18" />
    </linearGradient>
  </defs>
  <rect
     height="48"
     width="48"
     rx="2.982"
     fill="url(#0)"
     fill-rule="evenodd"
     id="rect20"
     style="fill:#f4d7d7" />
  <path
     d="m 41.459346,26.037594 1.260182,1.629048 c -2.940426,2.100616 -6.895718,3.94633 -11.866998,5.53946 l 7.66639,0 c -0.280041,-0.651156 -0.630652,-1.230476 -1.050713,-1.73796 l 1.890835,-0.652315 c 0.560081,0.724151 0.980142,1.521295 1.260182,2.390275 l 6.511502,0 0,1.846873 -7.981155,0 0,1.955786 7.141034,0 0,1.846872 -7.141034,0 0,1.955785 7.141034,0 0,1.846872 -7.141034,0 0,1.955786 8.401216,0 0,1.955785 -17.853144,0 0,0.86898 -1.995009,0 0,-13.252529 -2.835131,0.760069 -0.945417,-1.955786 c 4.340629,-1.01381 7.946431,-2.136533 10.816287,-3.367009 l 0,-7.169667 2.100304,0 0,6.191774 c 1.609672,-0.795985 3.149895,-1.664965 4.620669,-2.606941 m -11.761703,9.015382 0,1.955784 7.351624,0 0,-1.955784 -7.351624,0 m 0,3.801499 0,1.955785 7.351624,0 0,-1.955785 -7.351624,0 m 0,3.8015 0,1.955784 7.351624,0 0,-1.955784 -7.351624,0 M 42.930118,23.539566 c 1.820264,1.086804 3.465782,2.353198 4.935435,3.801498 l -1.470773,1.846874 c -1.470773,-1.593131 -3.045721,-3.005514 -4.725965,-4.23599 l 1.260183,-1.412382 m -12.812415,0.543402 1.574949,1.412382 c -1.400203,1.882791 -3.185742,3.36701 -5.355496,4.453814 l -1.154887,-1.846873 c 1.890834,-0.940816 3.535232,-2.281363 4.935434,-4.019323"
     id="path22"
     style="fill:#ff2a2a;fill-opacity:1"
     inkscape:connector-curvature="0" />
</svg>
