<?xml version="1.0" encoding="UTF-8" standalone="no"?>
<!-- Created with Inkscape (http://www.inkscape.org/) -->

<svg
   xmlns:dc="http://purl.org/dc/elements/1.1/"
   xmlns:cc="http://creativecommons.org/ns#"
   xmlns:rdf="http://www.w3.org/1999/02/22-rdf-syntax-ns#"
   xmlns:svg="http://www.w3.org/2000/svg"
   xmlns="http://www.w3.org/2000/svg"
   xmlns:sodipodi="http://sodipodi.sourceforge.net/DTD/sodipodi-0.dtd"
   xmlns:inkscape="http://www.inkscape.org/namespaces/inkscape"
   id="svg2"
   version="1.1"
   inkscape:version="0.91 r13725"
   width="512"
   height="512"
   sodipodi:docname="nepomuk.svg">
  <metadata
     id="metadata8">
    <rdf:RDF>
      <cc:Work
         rdf:about="">
        <dc:format>image/svg+xml</dc:format>
        <dc:type
           rdf:resource="http://purl.org/dc/dcmitype/StillImage" />
        <dc:title></dc:title>
      </cc:Work>
    </rdf:RDF>
  </metadata>
  <defs
     id="defs6" />
  <sodipodi:namedview
     pagecolor="#ffffff"
     bordercolor="#666666"
     borderopacity="1"
     objecttolerance="10"
     gridtolerance="10"
     guidetolerance="10"
     inkscape:pageopacity="0"
     inkscape:pageshadow="2"
     inkscape:window-width="1280"
     inkscape:window-height="694"
     id="namedview4"
     showgrid="false"
     inkscape:zoom="0.4609375"
     inkscape:cx="-97.627119"
     inkscape:cy="256"
     inkscape:window-x="0"
     inkscape:window-y="0"
     inkscape:window-maximized="1"
     inkscape:current-layer="svg2" />
  <rect
     style="fill:#ffffff;fill-opacity:1;fill-rule:evenodd;stroke:none"
     id="rect3005"
     width="412.2034"
     height="416.54236"
     x="50.576275"
     y="47.559326"
     ry="39.142208" />
  <path
     inkscape:connector-curvature="0"
     id="path2984"
     d="M 51.919056,506.89722 C 30.096088,502.17566 10.408728,482.37914 5.7455588,460.46769 3.4333073,449.60284 3.4333073,63.741631 5.7455588,52.87678 10.464524,30.703161 30.153911,11.097951 52.422737,6.3991614 c 10.911501,-2.3023652 398.429463,-2.3023652 409.340923,0 22.26891,4.6987896 41.95826,24.3039996 46.67721,46.4776186 2.31228,10.864851 2.31228,396.72606 0,407.59091 -4.71895,22.17362 -24.4083,41.77883 -46.67721,46.47762 -10.551,2.22631 -399.543358,2.18065 -409.844604,-0.0481 z m 99.427424,-85.93959 c 14.69664,-3.81163 27.34079,-13.81577 34.42311,-27.23583 5.93908,-11.25377 12.95634,-16.22685 22.89689,-16.22685 9.0528,0 13.33099,1.99741 20.92266,9.76838 11.89031,12.17115 22.41074,18.86044 37.94126,24.1245 22.2993,7.55832 48.33444,5.86571 69.18551,-4.49793 18.0663,-8.97954 31.51633,-22.25583 40.06254,-39.54509 6.57531,-13.30199 9.25065,-23.41822 9.96952,-37.69756 0.95014,-18.87605 -2.88641,-33.83175 -12.92065,-50.36683 -4.21298,-6.94241 -4.56061,-8.09052 -4.56061,-15.06173 0,-5.62541 0.60898,-8.77674 2.39253,-12.37943 3.39617,-6.86032 11.44364,-14.60199 17.41224,-16.75053 17.99359,-6.47727 23.28818,-10.33862 28.99597,-21.14684 2.55907,-4.84564 2.95351,-6.82667 2.93302,-14.72756 -0.0194,-7.54483 -0.51158,-10.17613 -2.83486,-15.1646 -6.3104,-13.54937 -16.18113,-20.32757 -30.768,-21.12837 -8.08716,-0.44397 -9.4134,-0.21491 -15.69069,2.71003 -9.48664,4.42039 -14.14076,8.85252 -18.58574,17.69962 -3.66689,7.29832 -3.80936,8.02381 -3.83212,19.51805 -0.027,13.40199 -1.33002,17.62765 -7.65423,24.81576 -5.8946,6.69977 -12.33091,10.21413 -18.68909,10.20463 -8.2853,-0.0123 -22.88876,-1.88335 -29.3909,-3.76549 -6.91279,-2.00102 -13.84368,-7.80583 -16.6526,-13.94702 -2.18327,-4.77335 -2.63882,-14.89498 -0.94381,-20.9701 0.58104,-2.08251 3.44928,-6.60429 6.37385,-10.04835 10.42006,-12.27099 15.55309,-26.66807 15.55309,-43.62315 0,-31.93592 -18.81236,-57.403304 -49.78043,-67.390607 -11.58586,-3.736473 -29.85764,-3.913797 -39.99243,-0.388105 -25.94719,9.026504 -43.87354,28.466962 -49.15874,53.310792 -4.04411,19.00997 0.76252,39.84754 13.03014,56.48795 9.40877,12.76252 26.84192,23.30699 44.32211,26.80833 12.02822,2.40931 12.82511,2.78535 18.0083,8.49799 4.56966,5.03645 5.97991,8.04528 7.24037,15.44769 1.62231,9.52754 -0.34129,14.71175 -9.12293,24.0859 -4.25518,4.54229 -8.76552,9.70857 -10.02299,11.48064 -5.33575,7.51933 -11.43804,21.63405 -14.49931,33.53718 -3.63761,14.14408 -6.00377,18.06544 -13.56205,22.47596 -3.99294,2.33001 -6.38239,2.91442 -12.17367,2.97738 -6.64873,0.0723 -8.07491,-0.36315 -18.45471,-5.63464 -9.80346,-4.97879 -12.28875,-5.78664 -19.33858,-6.28617 -18.06678,-1.28014 -36.3998,6.9716 -46.408226,20.88845 -5.282957,7.34602 -9.678496,20.54686 -9.678496,29.06679 0,12.9901 5.9837,27.30107 15.289362,36.56694 5.63343,5.60935 17.32627,12.35072 24.21679,13.9619 6.56606,1.5353 16.62867,1.34212 23.5466,-0.45208 z M 127.6623,396.93102 c -5.44243,-2.51832 -11.7733,-9.05217 -14.05542,-14.50604 -3.74755,-8.95605 -1.49157,-21.30107 5.36977,-29.38413 5.36735,-6.32306 11.67227,-9.17876 20.43434,-9.2554 6.51212,-0.057 8.50315,0.38586 12.6714,2.81818 9.10513,5.31315 14.47319,13.05553 15.58296,22.47547 1.34882,11.44884 -4.19955,21.69634 -14.58733,26.942 -7.30892,3.69088 -18.53698,4.09286 -25.41572,0.90992 z M 288.41089,385.9537 c -17.23641,-2.46807 -30.78071,-10.75465 -41.08917,-25.13893 -7.36203,-10.27285 -10.38271,-19.26364 -10.99402,-32.72288 -0.46078,-10.14517 -0.22344,-12.139 2.36513,-19.86863 8.99654,-26.86429 33.45743,-43.6091 61.54402,-42.13024 19.9618,1.05106 36.33799,10.87367 47.94783,28.75962 6.7742,10.4361 8.13894,15.64947 8.13894,31.09128 0,15.80405 -1.52145,21.40313 -8.81101,32.42483 -13.30042,20.11011 -36.30825,30.84874 -59.10172,27.58495 z m 87.7821,-173.07169 c -6.24677,-4.19175 -8.80831,-9.01623 -8.27818,-15.59169 0.77788,-9.64816 7.81978,-16.33365 17.20449,-16.33365 6.50262,0 10.62359,2.02341 14.54361,7.14084 2.55745,3.33869 3.00637,4.94449 3.02189,10.81037 0.0183,6.82238 -0.0312,6.93548 -5.04229,11.65269 -4.81215,4.52961 -5.37355,4.76346 -11.43534,4.76346 -4.84471,0 -7.24845,-0.58619 -10.01418,-2.44202 z M 215.02816,186.97223 c -11.39123,-3.58718 -22.22121,-12.98009 -27.10571,-23.50897 -2.83958,-6.12092 -3.09484,-7.68978 -3.09484,-19.0219 0,-11.33422 0.24699,-12.85157 3.00084,-18.43534 4.0224,-8.15592 14.77534,-18.14 23.08269,-21.43223 5.12965,-2.03289 8.34018,-2.49269 17.59941,-2.52055 10.23727,-0.0308 11.91114,0.2525 17.42461,2.94907 8.47392,4.14452 19.32973,15.74751 22.48502,24.03264 9.19745,24.1505 -3.22856,49.7471 -27.82179,57.31069 -7.88003,2.4235 -18.99884,2.69595 -25.57023,0.62659 z"
     style="fill:#c83737" />
</svg>
