<?xml version="1.0" encoding="UTF-8" standalone="no"?>
<svg
   xmlns:dc="http://purl.org/dc/elements/1.1/"
   xmlns:cc="http://creativecommons.org/ns#"
   xmlns:rdf="http://www.w3.org/1999/02/22-rdf-syntax-ns#"
   xmlns:svg="http://www.w3.org/2000/svg"
   xmlns="http://www.w3.org/2000/svg"
   xmlns:sodipodi="http://sodipodi.sourceforge.net/DTD/sodipodi-0.dtd"
   xmlns:inkscape="http://www.inkscape.org/namespaces/inkscape"
   viewBox="0 0 48 48"
   id="svg2"
   version="1.1"
   inkscape:version="0.91 r13725"
   sodipodi:docname="ocenaudio.svg">
  <metadata
     id="metadata25">
    <rdf:RDF>
      <cc:Work
         rdf:about="">
        <dc:format>image/svg+xml</dc:format>
        <dc:type
           rdf:resource="http://purl.org/dc/dcmitype/StillImage" />
        <dc:title></dc:title>
      </cc:Work>
    </rdf:RDF>
  </metadata>
  <sodipodi:namedview
     pagecolor="#ffffff"
     bordercolor="#666666"
     borderopacity="1"
     objecttolerance="10"
     gridtolerance="10"
     guidetolerance="10"
     inkscape:pageopacity="0"
     inkscape:pageshadow="2"
     inkscape:window-width="1280"
     inkscape:window-height="694"
     id="namedview23"
     showgrid="false"
     inkscape:zoom="4.9166667"
     inkscape:cx="-9.1525424"
     inkscape:cy="24"
     inkscape:window-x="0"
     inkscape:window-y="0"
     inkscape:window-maximized="1"
     inkscape:current-layer="svg2" />
  <defs
     id="defs4">
    <linearGradient
       id="0"
       x1="25.422"
       y1="46.78"
       x2="24.21"
       y2="1.627"
       gradientUnits="userSpaceOnUse">
      <stop
         stop-color="#f15f19"
         id="stop7" />
      <stop
         stop-color="#fbb521"
         offset="1"
         id="stop9" />
    </linearGradient>
  </defs>
  <g
     id="g4157"
     style="fill:#aa4400;fill-opacity:1;stroke:none"
     transform="matrix(1.4830508,0,0,1.802477,-11.590322,-19.257491)">
    <path
       d="m 34.176544,36.060015 c -0.36169,0 -0.723381,-0.137635 -0.997049,-0.414504 -0.552138,-0.552138 -0.552138,-1.445161 0,-1.997299 2.576644,-2.576644 3.996199,-6.004701 3.996199,-9.650412 0,-3.647312 -1.419555,-7.072168 -3.996199,-9.650412 -0.552138,-0.552138 -0.552138,-1.445161 0,-1.997299 0.552138,-0.552138 1.445161,-0.552138 1.997299,0 3.111178,3.111177 4.817204,7.248211 4.817204,11.647711 0,4.3995 -1.712428,8.534933 -4.817204,11.647711 -0.275269,0.275269 -0.636959,0.414504 -0.997049,0.414504"
       id="path15"
       inkscape:connector-curvature="0"
       style="fill:#aa4400;fill-opacity:1;stroke:none" />
    <path
       d="m 29.162491,33.39855 c -0.361691,0 -0.723381,-0.137635 -0.997049,-0.414504 -0.552138,-0.552138 -0.552138,-1.445161 0,-1.997299 3.853763,-3.853763 3.853763,-10.124131 0,-13.977894 -0.552138,-0.552138 -0.552138,-1.445161 0,-1.997299 0.552138,-0.552138 1.445161,-0.552138 1.997299,0 2.4006,2.4006 3.72253,5.591798 3.72253,8.986246 0,3.394448 -1.32193,6.585646 -3.72253,8.986246 -0.275269,0.275269 -0.636959,0.414504 -0.997049,0.414504 z"
       id="path17"
       inkscape:connector-curvature="0"
       style="fill:#aa4400;fill-opacity:1;stroke:none" />
    <path
       d="m 24.145237,30.733884 c -0.361691,0 -0.723381,-0.137635 -0.997049,-0.414504 -0.552138,-0.552138 -0.552138,-1.445161 0,-1.997299 2.384596,-2.384596 2.384596,-6.267167 0,-8.651763 -0.552138,-0.552138 -0.552138,-1.445161 0,-1.997299 0.552138,-0.552138 1.445161,-0.552138 1.997299,0 3.487271,3.487272 3.487271,9.159089 0,12.647961 -0.275269,0.275269 -0.636959,0.414504 -0.997049,0.414504 z"
       id="path19"
       inkscape:connector-curvature="0"
       style="fill:#aa4400;fill-opacity:1;stroke:none" />
    <path
       d="m 20.232259,37.177094 c -0.244861,0 -0.484921,-0.09602 -0.665767,-0.275269 l -7.256213,-7.256213 -3.3752438,0 C 8.4149052,29.645612 7.994,29.224706 7.994,28.704576 l 0,-9.413552 c 0,-0.52013 0.4209052,-0.941036 0.9410352,-0.941036 l 3.3752438,0 7.256213,-7.256213 c 0.268868,-0.268867 0.673769,-0.350488 1.025857,-0.203251 0.352088,0.147237 0.580945,0.489722 0.580945,0.869017 l 0,24.473317 c 0,0.380895 -0.230458,0.724981 -0.580945,0.869017 -0.116829,0.04961 -0.23846,0.07202 -0.36009,0.07202"
       id="path21"
       inkscape:connector-curvature="0"
       style="fill:#aa4400;fill-opacity:1;stroke:none" />
  </g>
</svg>
