<?xml version="1.0" encoding="UTF-8" standalone="no"?>
<svg
   xmlns:dc="http://purl.org/dc/elements/1.1/"
   xmlns:cc="http://creativecommons.org/ns#"
   xmlns:rdf="http://www.w3.org/1999/02/22-rdf-syntax-ns#"
   xmlns:svg="http://www.w3.org/2000/svg"
   xmlns="http://www.w3.org/2000/svg"
   xmlns:sodipodi="http://sodipodi.sourceforge.net/DTD/sodipodi-0.dtd"
   xmlns:inkscape="http://www.inkscape.org/namespaces/inkscape"
   width="512px"
   height="512px"
   viewBox="0 0 512 512"
   version="1.1"
   id="svg3486"
   inkscape:version="0.91 r13725"
   sodipodi:docname="open365.svg"
   inkscape:export-filename="/home/eyeos/workspace/seafile-client-windows/data/icons/48x48/apps/seafile.png"
   inkscape:export-xdpi="8.4375"
   inkscape:export-ydpi="8.4375">
  <metadata
     id="metadata3596">
    <rdf:RDF>
      <cc:Work
         rdf:about="">
        <dc:format>image/svg+xml</dc:format>
        <dc:type
           rdf:resource="http://purl.org/dc/dcmitype/StillImage" />
        <dc:title>Artboard 1</dc:title>
      </cc:Work>
    </rdf:RDF>
  </metadata>
  <sodipodi:namedview
     pagecolor="#ffffff"
     bordercolor="#666666"
     borderopacity="1"
     objecttolerance="10"
     gridtolerance="10"
     guidetolerance="10"
     inkscape:pageopacity="0"
     inkscape:pageshadow="2"
     inkscape:window-width="1280"
     inkscape:window-height="694"
     id="namedview3594"
     showgrid="false"
     inkscape:zoom="0.56485677"
     inkscape:cx="106.76279"
     inkscape:cy="267.25547"
     inkscape:window-x="0"
     inkscape:window-y="0"
     inkscape:window-maximized="1"
     inkscape:current-layer="svg3486" />
  <!-- Generator: Sketch 3.6.1 (26313) - http://www.bohemiancoding.com/sketch -->
  <title
     id="title3488">Artboard 1</title>
  <desc
     id="desc3490">Created with Sketch.</desc>
  <defs
     id="defs3492">
    <linearGradient
       x1="87.482643"
       y1="154.64001"
       x2="305.11275"
       y2="154.64001"
       id="linearGradient-1"
       gradientTransform="scale(0.66869222,1.4954563)"
       gradientUnits="userSpaceOnUse">
      <stop
         stop-color="#1C94E0"
         offset="0%"
         id="stop3495" />
      <stop
         stop-color="#1CBCD6"
         offset="8.83%"
         id="stop3497" />
      <stop
         stop-color="#72E0FA"
         offset="33.6%"
         id="stop3499" />
      <stop
         stop-color="#CAF183"
         offset="79.17%"
         id="stop3501" />
      <stop
         stop-color="#9CEF61"
         offset="100%"
         id="stop3503" />
    </linearGradient>
    <linearGradient
       x1="-27.9651568%"
       y1="79.8191176%"
       x2="90.3239547%"
       y2="22.7620168%"
       id="linearGradient-2">
      <stop
         stop-color="#2C97CD"
         offset="0.081539%"
         id="stop3506" />
      <stop
         stop-color="#1CCBDB"
         offset="20.6%"
         id="stop3508" />
      <stop
         stop-color="#19D7DB"
         offset="34.91%"
         id="stop3510" />
      <stop
         stop-color="#59D6B8"
         offset="53.82%"
         id="stop3512" />
      <stop
         stop-color="#6BD5B5"
         offset="71.81%"
         id="stop3514" />
      <stop
         stop-color="#70E4A3"
         offset="82.03%"
         id="stop3516" />
      <stop
         stop-color="#79E990"
         offset="89.64%"
         id="stop3518" />
      <stop
         stop-color="#8CE079"
         offset="100%"
         id="stop3520" />
    </linearGradient>
    <linearGradient
       x1="2.0620442"
       y1="495.21425"
       x2="280.23651"
       y2="495.21425"
       id="linearGradient-3"
       gradientTransform="scale(1.3574498,0.7366755)"
       gradientUnits="userSpaceOnUse">
      <stop
         stop-color="#1F7CCE"
         offset="0%"
         id="stop3523" />
      <stop
         stop-color="#4273D2"
         offset="15.5%"
         id="stop3525" />
      <stop
         stop-color="#2FADE0"
         offset="37.29%"
         id="stop3527" />
      <stop
         stop-color="#4AD3C9"
         offset="60.69%"
         id="stop3529" />
      <stop
         stop-color="#BDE186"
         offset="100%"
         id="stop3531" />
    </linearGradient>
    <linearGradient
       x1="-0.031292517%"
       y1="49.9806452%"
       x2="99.9383673%"
       y2="49.9806452%"
       id="linearGradient-4">
      <stop
         stop-color="#1C94E0"
         offset="0%"
         id="stop3534" />
      <stop
         stop-color="#1CBCD6"
         offset="8.83%"
         id="stop3536" />
      <stop
         stop-color="#72E0FA"
         offset="33.6%"
         id="stop3538" />
      <stop
         stop-color="#CAF183"
         offset="79.17%"
         id="stop3540" />
      <stop
         stop-color="#9CEF61"
         offset="100%"
         id="stop3542" />
    </linearGradient>
    <linearGradient
       x1="0.74961399"
       y1="124.93743"
       x2="212.8876"
       y2="124.93743"
       id="linearGradient-5"
       gradientTransform="scale(0.99065807,1.00943)"
       gradientUnits="userSpaceOnUse">
      <stop
         stop-color="#2C97CD"
         offset="0.081539%"
         id="stop3545" />
      <stop
         stop-color="#1CCBDB"
         offset="20.6%"
         id="stop3547" />
      <stop
         stop-color="#19D7DB"
         offset="34.91%"
         id="stop3549" />
      <stop
         stop-color="#59D6B8"
         offset="53.82%"
         id="stop3551" />
      <stop
         stop-color="#6BD5B5"
         offset="71.81%"
         id="stop3553" />
      <stop
         stop-color="#70E4A3"
         offset="82.03%"
         id="stop3555" />
      <stop
         stop-color="#79E990"
         offset="89.64%"
         id="stop3557" />
      <stop
         stop-color="#8CE079"
         offset="100%"
         id="stop3559" />
    </linearGradient>
    <linearGradient
       x1="99.9359777%"
       y1="49.9625819%"
       x2="-0.0404314544%"
       y2="49.9625819%"
       id="linearGradient-6">
      <stop
         stop-color="#1F7CCE"
         offset="0%"
         id="stop3562" />
      <stop
         stop-color="#4273D2"
         offset="15.5%"
         id="stop3564" />
      <stop
         stop-color="#2FADE0"
         offset="69.24%"
         id="stop3566" />
      <stop
         stop-color="#4AD3C9"
         offset="100%"
         id="stop3568" />
      <stop
         stop-color="#BDE186"
         offset="100%"
         id="stop3570" />
    </linearGradient>
  </defs>
  <g
     id="Page-1"
     transform="matrix(1.0325314,0,0,1.0063444,-8.3408765,-1.6273368)"
     style="fill:#5599ff;fill-rule:evenodd;stroke:none;stroke-width:1">
    <g
       id="Artboard-1"
       style="fill:#5599ff">
      <g
         id="Group"
         transform="translate(11,6)"
         style="fill:#5599ff">
        <path
           d="M 142.24249,394.06387 C 89.770815,359.54118 58.372103,301.65252 58.372103,238.92227 c 0,-74.30798 44.042487,-141.24832 112.529617,-170.508405 l 33.08455,76.834035 c -37.50988,16.20882 -61.74378,52.83655 -61.74378,93.67437 0,34.52269 17.27983,66.30882 46.14978,85.2542 l -46.14978,69.8874 0,0 z"
           id="Shape"
           style="fill:#5599ff"
           inkscape:connector-curvature="0" />
        <path
           d="m 217.0515,450.26849 c -40.24935,0 -79.23433,-11.57773 -112.95107,-33.68068 l 57.52918,-87.35924 c 16.43691,10.73572 35.61331,16.41933 55.42189,16.41933 55.63262,0 100.93949,-45.2584 100.93949,-100.83151 0,-31.57563 -14.32962,-60.62521 -39.40644,-79.9916 l 63.85107,-82.728151 c 50.99657,39.153781 80.28799,98.515961 80.28799,162.719751 -0.21073,113.25126 -92.29958,205.4521 -205.67211,205.4521 l 0,0 z"
           id="path3576"
           inkscape:connector-curvature="0"
           style="fill:#5599ff" />
        <g
           transform="translate(247.58516,0)"
           id="g3578"
           style="opacity:0.81999972;fill:#5599ff">
          <path
             d="M 33.949603,501 0.44359469,337.01723 C 43.643166,328.17605 75.041878,289.65378 75.041878,245.4479 c 0,-39.36429 -24.866094,-74.72899 -61.954506,-87.99076 L 69.773638,0 C 173.03115,37.04874 242.36119,135.77521 242.36119,245.4479 c 0,60.4147 -21.28369,119.35588 -59.63648,165.87731 C 145.00411,457.21513 92.110977,489.00126 33.949603,501 l 0,0 z"
             id="path3580"
             style="fill:#5599ff"
             inkscape:connector-curvature="0" />
        </g>
        <path
           d="m 221.68755,467.31933 c -53.52532,0 -104.94334,-19.36639 -145.1927,-54.31009 C 36.666953,378.27605 10.536481,330.7021 2.9502146,278.70756 L 113.37253,262.49874 c 3.79314,25.68151 16.64764,49.25798 36.45622,66.51933 19.80859,17.26134 45.5176,26.94453 71.8588,26.94453 29.92361,0 57.73992,-11.78823 78.60215,-33.25966 l 80.07725,77.67605 c -41.93519,42.94286 -98.41073,66.94034 -158.6794,66.94034 l 0,0 z"
           id="path3582"
           style="mix-blend-mode:multiply;fill:#5599ff"
           inkscape:connector-curvature="0" />
        <g
           transform="translate(65.32618,25.260504)"
           id="g3584"
           style="opacity:0.91000001;fill:#5599ff">
          <path
             d="M 78.812876,143.77437 0,64.835294 C 41.724463,23.155462 97.357082,0.2105042 156.36137,0.2105042 c 57.52919,0 111.89743,21.8924368 153.41116,61.6777308 l -77.33777,80.412605 c -20.44077,-19.78739 -47.41416,-30.52311 -75.86266,-30.52311 -29.50214,0 -57.107722,11.36723 -77.759224,31.99664 l 0,0 z"
             id="path3586"
             style="fill:#5599ff"
             inkscape:connector-curvature="0" />
        </g>
        <path
           d="M 125.80558,233.23865 0.84291845,220.81891 C 4.8467811,179.98109 20.230043,140.82731 44.885408,107.56765 80.287983,59.993698 131.91674,28.628571 190.49957,18.945378 l 20.6515,123.776472 c -26.3412,4.42059 -49.52146,18.52437 -65.32618,39.78529 -11.3794,14.9458 -18.33347,32.41765 -20.01931,50.73151 l 0,0 z"
           id="path3588"
           style="mix-blend-mode:multiply;fill:#5599ff"
           inkscape:connector-curvature="0" />
        <g
           transform="translate(110.61091,54.731092)"
           id="g3590"
           style="opacity:0.6;fill:#5599ff">
          <path
             d="m 300.31183,225.6605 -55.00042,-9.26218 c 1.26437,-7.57815 1.89656,-15.1563 1.89656,-22.94496 0,-75.78151 -61.53305,-137.248738 -137.39571,-137.248738 -28.027034,0 -55.000425,8.420168 -77.759223,24.207983 L 0.44359469,34.522689 C 32.685226,12.209244 70.616556,0.6315126 110.02299,0.6315126 c 106.62919,0 193.23906,86.5172274 193.23906,193.0323574 -0.21073,10.52521 -1.05365,21.47142 -2.95022,31.99663 l 0,0 z"
             id="path3592"
             style="fill:#5599ff"
             inkscape:connector-curvature="0" />
        </g>
      </g>
    </g>
  </g>
</svg>
