<?xml version="1.0" encoding="UTF-8" standalone="no"?>
<svg
   xmlns:dc="http://purl.org/dc/elements/1.1/"
   xmlns:cc="http://creativecommons.org/ns#"
   xmlns:rdf="http://www.w3.org/1999/02/22-rdf-syntax-ns#"
   xmlns:svg="http://www.w3.org/2000/svg"
   xmlns="http://www.w3.org/2000/svg"
   xmlns:xlink="http://www.w3.org/1999/xlink"
   xmlns:sodipodi="http://sodipodi.sourceforge.net/DTD/sodipodi-0.dtd"
   xmlns:inkscape="http://www.inkscape.org/namespaces/inkscape"
   viewBox="0 0 48 48"
   id="svg2"
   version="1.1"
   inkscape:version="0.91 r13725"
   sodipodi:docname="openscad.svg">
  <metadata
     id="metadata22">
    <rdf:RDF>
      <cc:Work
         rdf:about="">
        <dc:format>image/svg+xml</dc:format>
        <dc:type
           rdf:resource="http://purl.org/dc/dcmitype/StillImage" />
        <dc:title></dc:title>
      </cc:Work>
    </rdf:RDF>
  </metadata>
  <sodipodi:namedview
     pagecolor="#ffffff"
     bordercolor="#666666"
     borderopacity="1"
     objecttolerance="10"
     gridtolerance="10"
     guidetolerance="10"
     inkscape:pageopacity="0"
     inkscape:pageshadow="2"
     inkscape:window-width="1280"
     inkscape:window-height="694"
     id="namedview20"
     showgrid="false"
     inkscape:zoom="4.9166667"
     inkscape:cx="-9.1525424"
     inkscape:cy="24"
     inkscape:window-x="0"
     inkscape:window-y="0"
     inkscape:window-maximized="1"
     inkscape:current-layer="svg2" />
  <defs
     id="defs4">
    <linearGradient
       id="0"
       x1="61.57"
       y1="22.939"
       x2="60.753"
       y2="-27.706"
       gradientUnits="userSpaceOnUse">
      <stop
         stop-color="#197cf1"
         id="stop7" />
      <stop
         offset="1"
         stop-color="#21c9fb"
         id="stop9" />
    </linearGradient>
    <linearGradient
       xlink:href="#0"
       id="1"
       x1="239.63"
       y1="539.55"
       x2="242.14"
       y2="-17.633"
       gradientUnits="userSpaceOnUse"
       gradientTransform="matrix(0.00721141,0,0,0.00721141,27.99576,25.56018)" />
  </defs>
  <path
     style="fill:#2a7fff;stroke:none;stroke-width:0.63409764;stroke-linecap:round;stroke-linejoin:round"
     inkscape:connector-curvature="0"
     id="path16"
     d="M 46.644472,9.1172523 43.444419,10.892271 C 39.422487,4.6219959 32.209126,0.43213137 23.995962,0.43213137 15.7828,0.43213137 8.5695498,4.621458 4.5475069,10.892271 L 1.3479006,9.1173601 C 1.0534136,8.9539613 0.67673897,9.0508823 0.50665333,9.3335761 0.33656745,9.6164866 0.43745392,9.9783534 0.73171751,10.141752 l 3.19680699,1.773297 c -1.7600914,3.107707 -2.7607873,6.667318 -2.7607873,10.447231 0,11.894052 9.9073018,21.606577 22.2108098,21.921759 l 0,2.887187 c 0,0.326798 0.275677,0.591637 0.615848,0.591637 0.340171,0 0.615848,-0.264839 0.615848,-0.591637 l 0,-2.886972 c 12.303508,-0.314106 22.21305,-10.027707 22.21305,-21.921759 0,-3.780021 -1.000584,-7.339523 -2.760676,-10.447231 L 47.259872,10.14186 C 47.55447,9.9784611 47.655357,9.6165943 47.484937,9.3336839 47.314849,9.0507746 46.938624,8.9535306 46.643801,9.1174678 Z" />
  <path
     inkscape:connector-curvature="0"
     style="fill:#5599ff;stroke:none;stroke-width:0.63409764;stroke-linecap:round;stroke-linejoin:round"
     id="path18"
     d="M 46.758908,29.630678 35.731742,24.078657 c -0.15121,-0.07608 -0.337424,-0.07608 -0.488635,0 l -11.028055,5.551246 c -0.151209,0.07608 -0.244317,0.216781 -0.244317,0.369102 l 0.001,11.330276 c 0,0.152166 0.09311,0.292786 0.24423,0.368947 l 11.026297,5.555895 c 0.07561,0.03812 0.160006,0.05718 0.244406,0.05718 0.08431,0 0.168713,-0.01906 0.244318,-0.0571 l 11.027165,-5.552021 c 0.151211,-0.07608 0.244318,-0.216783 0.244318,-0.369025 l 0,-11.33415 c 0,-0.152243 -0.09311,-0.292942 -0.244318,-0.369024 z m -11.271483,-4.690474 10.049895,5.060041 -10.049895,5.06004 -10.050784,-5.06004 10.050784,-5.059266 m -10.53942,5.797546 10.050784,5.06004 -8.8e-5,10.349415 -10.048119,-5.06314 -9.77e-4,-10.346315 m 21.077061,10.350189 -10.050784,5.06004 8.9e-5,-10.350189 10.049895,-5.06004 0,10.350189 z" />
</svg>
