<?xml version="1.0" encoding="UTF-8" standalone="no"?>
<svg
   xmlns:dc="http://purl.org/dc/elements/1.1/"
   xmlns:cc="http://creativecommons.org/ns#"
   xmlns:rdf="http://www.w3.org/1999/02/22-rdf-syntax-ns#"
   xmlns:svg="http://www.w3.org/2000/svg"
   xmlns="http://www.w3.org/2000/svg"
   xmlns:sodipodi="http://sodipodi.sourceforge.net/DTD/sodipodi-0.dtd"
   xmlns:inkscape="http://www.inkscape.org/namespaces/inkscape"
   viewBox="0 0 48 48"
   id="svg2"
   version="1.1"
   inkscape:version="0.91 r13725"
   sodipodi:docname="package_edutainment_astronomy.svg">
  <metadata
     id="metadata25">
    <rdf:RDF>
      <cc:Work
         rdf:about="">
        <dc:format>image/svg+xml</dc:format>
        <dc:type
           rdf:resource="http://purl.org/dc/dcmitype/StillImage" />
        <dc:title></dc:title>
      </cc:Work>
    </rdf:RDF>
  </metadata>
  <sodipodi:namedview
     pagecolor="#ffffff"
     bordercolor="#666666"
     borderopacity="1"
     objecttolerance="10"
     gridtolerance="10"
     guidetolerance="10"
     inkscape:pageopacity="0"
     inkscape:pageshadow="2"
     inkscape:window-width="1280"
     inkscape:window-height="694"
     id="namedview23"
     showgrid="false"
     inkscape:zoom="4.9166667"
     inkscape:cx="-9.1525424"
     inkscape:cy="24"
     inkscape:window-x="0"
     inkscape:window-y="0"
     inkscape:window-maximized="1"
     inkscape:current-layer="svg2" />
  <defs
     id="defs4">
    <linearGradient
       id="0"
       x1="25.07"
       y1="47.785"
       x2="24.643"
       y2="-.428"
       gradientUnits="userSpaceOnUse">
      <stop
         stop-color="#1d477c"
         id="stop7" />
      <stop
         stop-color="#2763b9"
         offset="1"
         id="stop9" />
    </linearGradient>
  </defs>
  <g
     id="g4157"
     style="fill:#0044aa"
     transform="matrix(1.5894129,0,0,1.8290952,-14.349487,-19.900031)">
    <path
       d="m 21.605574,37.003824 c -6.8613,0 -12.4433465,-5.582046 -12.4433465,-12.443346 0,-4.75199 2.6451795,-9.02228 6.9046365,-11.142424 0.191679,-0.09501 0.422528,-0.05834 0.573372,0.09251 0.150844,0.150844 0.190013,0.381693 0.09584,0.572539 -0.77672,1.579274 -1.170913,3.276889 -1.170913,5.042009 0,6.31293 5.135349,11.448279 11.447445,11.448279 1.787621,0 3.501905,-0.403361 5.09618,-1.196748 0.191679,-0.09501 0.421695,-0.05834 0.572539,0.09251 0.151677,0.150844 0.190013,0.381693 0.09501,0.572539 -2.110143,4.292792 -6.389601,6.95964 -11.169926,6.95964"
       id="path15"
       inkscape:connector-curvature="0"
       style="fill:#0044aa;fill-opacity:0.78500001" />
    <path
       d="m 29.254427,11.000389 -1.011735,2.698517 -1.90513,0.635043 1.90513,0.635043 1.011735,2.698517 1.010902,-2.698517 1.905963,-0.635043 -1.90513,-0.635043"
       id="path17"
       inkscape:connector-curvature="0"
       style="fill:#0044aa;fill-opacity:0.84600004" />
    <path
       d="m 32.587987,24.334629 1.011735,-2.698517 1.90513,-0.635043 -1.90513,-0.635043 -1.011735,-2.698517 -1.011735,2.698517 -1.90513,0.635043 1.90513,0.635043 z"
       id="path19"
       inkscape:connector-curvature="0"
       style="fill:#0044aa;fill-opacity:0.84600004" />
    <path
       d="m 36.032388,16.476595 0.722549,2.024304 0.722549,-2.024304 1.360926,-0.475866 -1.360926,-0.475865 -0.722549,-2.024305 -0.722549,2.024305 -1.360926,0.475865"
       id="path21"
       inkscape:connector-curvature="0"
       style="fill:#0044aa;fill-opacity:0.84600004" />
  </g>
</svg>
