<?xml version="1.0" encoding="UTF-8" standalone="no"?>
<svg
   xmlns:dc="http://purl.org/dc/elements/1.1/"
   xmlns:cc="http://creativecommons.org/ns#"
   xmlns:rdf="http://www.w3.org/1999/02/22-rdf-syntax-ns#"
   xmlns:svg="http://www.w3.org/2000/svg"
   xmlns="http://www.w3.org/2000/svg"
   xmlns:sodipodi="http://sodipodi.sourceforge.net/DTD/sodipodi-0.dtd"
   xmlns:inkscape="http://www.inkscape.org/namespaces/inkscape"
   viewBox="0 0 48 48"
   id="svg2"
   version="1.1"
   inkscape:version="0.91 r13725"
   sodipodi:docname="pdfmod.svg">
  <metadata
     id="metadata19">
    <rdf:RDF>
      <cc:Work
         rdf:about="">
        <dc:format>image/svg+xml</dc:format>
        <dc:type
           rdf:resource="http://purl.org/dc/dcmitype/StillImage" />
        <dc:title></dc:title>
      </cc:Work>
    </rdf:RDF>
  </metadata>
  <sodipodi:namedview
     pagecolor="#ffffff"
     bordercolor="#666666"
     borderopacity="1"
     objecttolerance="10"
     gridtolerance="10"
     guidetolerance="10"
     inkscape:pageopacity="0"
     inkscape:pageshadow="2"
     inkscape:window-width="1280"
     inkscape:window-height="694"
     id="namedview17"
     showgrid="false"
     inkscape:zoom="4.9166667"
     inkscape:cx="-9.1525424"
     inkscape:cy="24"
     inkscape:window-x="0"
     inkscape:window-y="0"
     inkscape:window-maximized="1"
     inkscape:current-layer="svg2" />
  <defs
     id="defs4">
    <linearGradient
       id="0"
       gradientUnits="userSpaceOnUse"
       y1="47.37"
       x2="0"
       y2="-1.429"
       gradientTransform="matrix(0.99999,0,0,0.99999,-58.3698,0.88225)">
      <stop
         stop-color="#c52828"
         id="stop7" />
      <stop
         offset="1"
         stop-color="#ff5454"
         id="stop9" />
    </linearGradient>
  </defs>
  <path
     style="fill:#c83737;fill-opacity:0.86299995"
     inkscape:connector-curvature="0"
     id="path15"
     d="m 47.086696,29.495413 c -0.954225,-0.947415 -3.069536,-1.450572 -6.289211,-1.492642 -2.180371,-0.03534 -4.802822,0.168281 -7.562068,0.558689 -1.236155,-0.718555 -2.509011,-1.501056 -3.508279,-2.443425 -2.68918,-2.532611 -4.932943,-6.047978 -6.332584,-9.915049 0.09175,-0.361802 0.168491,-0.678168 0.240223,-1.002949 0,0 1.51475,-8.6781915 1.114376,-11.6129931 -0.05505,-0.4021879 -0.08842,-0.519985 -0.19685,-0.8329854 L 24.420512,2.4141332 C 24.00846,1.4549383 23.201039,0.44021061 21.934856,0.49574302 l -0.74236,-0.0353391 -0.02002,0 c -1.412985,0 -2.562395,0.72865168 -2.866012,1.81742248 -0.919192,3.4160819 0.02837,8.5250576 1.746634,15.1435056 l -0.440414,1.078675 c -1.22948,3.023988 -2.770922,6.06817 -4.130526,8.755601 l -0.17683,0.350021 c -1.429669,2.823738 -2.727549,5.220042 -3.905315,7.25118 l -1.214469,0.647879 c -0.08842,0.04543 -2.1703626,1.157765 -2.6591527,1.45562 -4.1422041,2.495591 -6.8881042,5.32774 -7.34352914,7.574277 -0.14513757,0.716873 -0.0366949,1.63568 0.70065434,2.059746 l 1.1744318,0.59571 c 0.5104762,0.259152 1.0476442,0.388727 1.5981589,0.388727 2.951091,0 6.3759598,-3.707205 11.0937028,-12.0135 5.448424,-1.788815 11.650888,-3.276409 17.087634,-4.095933 4.142205,2.352555 9.238636,3.986551 12.453307,3.986551 0.570532,0 1.062658,-0.05554 1.463033,-0.16155 0.617244,-0.164916 1.136062,-0.519986 1.453026,-1.001265 0.623915,-0.947417 0.750702,-2.251586 0.580542,-3.587728 -0.05005,-0.395458 -0.363674,-0.886836 -0.703991,-1.221712 z M 3.018845,45.332231 C 3.5560131,43.848003 5.686338,40.914884 8.8359478,38.311596 9.0344666,38.150045 9.5215882,37.688961 9.9686724,37.261529 6.675595,42.55898 4.4702003,44.670891 3.0205124,45.333915 M 21.671276,2.0085797 c 0.949221,0 1.488058,2.4114495 1.533099,4.6731316 0.04504,2.2616806 -0.478779,3.8468777 -1.129387,5.0214707 -0.538838,-1.7383312 -0.79908,-4.4779263 -0.79908,-6.270108 0,0 -0.04004,-3.4244943 0.395368,-3.4244943 M 16.107744,32.882887 c 0.660617,-1.193104 1.347925,-2.450154 2.050248,-3.784614 1.711601,-3.266313 2.794278,-5.822485 3.598364,-7.922616 1.601496,2.939848 3.596694,5.438804 5.942221,7.441334 0.291938,0.249056 0.602228,0.501474 0.927532,0.75053 -4.767788,0.952463 -8.889974,2.110228 -12.518365,3.515366 m 30.061427,-0.269248 c -0.290271,0.181743 -1.122715,0.291125 -1.658216,0.291125 -1.726613,0 -3.863611,-0.795964 -6.859745,-2.09172 1.151076,-0.0875 2.207064,-0.129577 3.152947,-0.129577 1.731619,0 2.245432,0 3.938682,0.427432 1.693249,0.435844 1.714936,1.320996 1.424663,1.504421 z" />
</svg>
