<?xml version="1.0" encoding="UTF-8" standalone="no"?>
<svg
   xmlns:dc="http://purl.org/dc/elements/1.1/"
   xmlns:cc="http://creativecommons.org/ns#"
   xmlns:rdf="http://www.w3.org/1999/02/22-rdf-syntax-ns#"
   xmlns:svg="http://www.w3.org/2000/svg"
   xmlns="http://www.w3.org/2000/svg"
   xmlns:xlink="http://www.w3.org/1999/xlink"
   xmlns:sodipodi="http://sodipodi.sourceforge.net/DTD/sodipodi-0.dtd"
   xmlns:inkscape="http://www.inkscape.org/namespaces/inkscape"
   viewBox="0 0 48 48"
   id="svg2"
   version="1.1"
   inkscape:version="0.91 r13725"
   sodipodi:docname="photolayoutseditor.svg">
  <metadata
     id="metadata83">
    <rdf:RDF>
      <cc:Work
         rdf:about="">
        <dc:format>image/svg+xml</dc:format>
        <dc:type
           rdf:resource="http://purl.org/dc/dcmitype/StillImage" />
        <dc:title></dc:title>
      </cc:Work>
    </rdf:RDF>
  </metadata>
  <sodipodi:namedview
     pagecolor="#ffffff"
     bordercolor="#666666"
     borderopacity="1"
     objecttolerance="10"
     gridtolerance="10"
     guidetolerance="10"
     inkscape:pageopacity="0"
     inkscape:pageshadow="2"
     inkscape:window-width="1280"
     inkscape:window-height="694"
     id="namedview81"
     showgrid="false"
     inkscape:zoom="4.9166667"
     inkscape:cx="-0.43392901"
     inkscape:cy="24"
     inkscape:window-x="0"
     inkscape:window-y="0"
     inkscape:window-maximized="1"
     inkscape:current-layer="svg2" />
  <defs
     id="defs4">
    <clipPath
       id="clipPath6">
      <path
         d="m-24 13c0 1.105-.672 2-1.5 2-.828 0-1.5-.895-1.5-2 0-1.105.672-2 1.5-2 .828 0 1.5.895 1.5 2"
         transform="matrix(15.33333 0 0 11.5 415-125.5)"
         fill="#1890d0"
         id="path8" />
    </clipPath>
    <clipPath
       id="clipPath10">
      <path
         fill="#1890d0"
         transform="matrix(15.33333 0 0 11.5 415-125.5)"
         d="m-24 13c0 1.105-.672 2-1.5 2-.828 0-1.5-.895-1.5-2 0-1.105.672-2 1.5-2 .828 0 1.5.895 1.5 2"
         id="path12" />
    </clipPath>
    <clipPath
       id="clipPath14">
      <path
         fill="#1890d0"
         transform="matrix(15.33333 0 0 11.5 415-125.5)"
         d="m-24 13c0 1.105-.672 2-1.5 2-.828 0-1.5-.895-1.5-2 0-1.105.672-2 1.5-2 .828 0 1.5.895 1.5 2"
         id="path16" />
    </clipPath>
    <clipPath
       id="clipPath18">
      <path
         d="m-24 13c0 1.105-.672 2-1.5 2-.828 0-1.5-.895-1.5-2 0-1.105.672-2 1.5-2 .828 0 1.5.895 1.5 2"
         transform="matrix(15.33333 0 0 11.5 415-125.5)"
         fill="#1890d0"
         id="path20" />
    </clipPath>
    <clipPath
       id="clipPath22">
      <path
         d="m-24 13c0 1.105-.672 2-1.5 2-.828 0-1.5-.895-1.5-2 0-1.105.672-2 1.5-2 .828 0 1.5.895 1.5 2"
         transform="matrix(15.33333 0 0 11.5 415-125.5)"
         fill="#1890d0"
         id="path24" />
    </clipPath>
    <clipPath
       id="clipPath26">
      <path
         transform="matrix(15.33333 0 0 11.5 415-125.5)"
         d="m-24 13c0 1.105-.672 2-1.5 2-.828 0-1.5-.895-1.5-2 0-1.105.672-2 1.5-2 .828 0 1.5.895 1.5 2"
         fill="#1890d0"
         id="path28" />
    </clipPath>
    <clipPath
       id="clipPath30">
      <path
         d="m-24 13c0 1.105-.672 2-1.5 2-.828 0-1.5-.895-1.5-2 0-1.105.672-2 1.5-2 .828 0 1.5.895 1.5 2"
         transform="matrix(15.33333 0 0 11.5 415-125.5)"
         fill="#1890d0"
         id="path32" />
    </clipPath>
    <clipPath
       id="clipPath34">
      <path
         d="m-24 13c0 1.105-.672 2-1.5 2-.828 0-1.5-.895-1.5-2 0-1.105.672-2 1.5-2 .828 0 1.5.895 1.5 2"
         transform="matrix(15.33333 0 0 11.5 415-125.5)"
         fill="#1890d0"
         id="path36" />
    </clipPath>
    <linearGradient
       gradientUnits="userSpaceOnUse"
       y2="517.3"
       x2="0"
       y1="546.3"
       xlink:href="#4"
       id="linearGradient38" />
    <linearGradient
       gradientUnits="userSpaceOnUse"
       y1="545.62"
       x2="0"
       y2="517.62"
       id="linearGradient40">
      <stop
         stop-color="#e3e3e3"
         id="stop42" />
      <stop
         offset="1"
         stop-color="#fcf9f9"
         id="stop44" />
    </linearGradient>
    <linearGradient
       y2="545.81"
       x2="0"
       y1="515.24"
       gradientUnits="userSpaceOnUse"
       id="3"
       xlink:href="#4"
       gradientTransform="matrix(2.6838051,0,0,2.6838051,-1663.6756,-2234.5924)" />
    <linearGradient
       gradientUnits="userSpaceOnUse"
       y2="517.62"
       x2="0"
       y1="545.62"
       id="2">
      <stop
         stop-color="#d3d3d3"
         id="stop48" />
      <stop
         offset="1"
         stop-color="#fcf9f9"
         id="stop50" />
    </linearGradient>
    <linearGradient
       gradientUnits="userSpaceOnUse"
       x2="47"
       x1="0"
       id="linearGradient52">
      <stop
         stop-color="#a9a3d4"
         id="stop54" />
      <stop
         offset=".47"
         stop-color="#87baff"
         id="stop56" />
      <stop
         offset="1"
         stop-color="#89ec85"
         id="stop58" />
    </linearGradient>
    <linearGradient
       gradientUnits="userSpaceOnUse"
       x2="11.758"
       x1="2.819"
       xlink:href="#0"
       id="linearGradient60" />
    <linearGradient
       id="4">
      <stop
         stop-color="#00cafe"
         id="stop63" />
      <stop
         offset="1"
         stop-color="#1460f3"
         id="stop65" />
    </linearGradient>
    <linearGradient
       gradientUnits="userSpaceOnUse"
       y2="517.22"
       x2="0"
       y1="545.22"
       id="1"
       xlink:href="#0" />
    <linearGradient
       id="0">
      <stop
         stop-color="#333538"
         id="stop69" />
      <stop
         offset="1"
         stop-color="#566069"
         id="stop71" />
    </linearGradient>
  </defs>
  <g
     transform="translate(0.19627766,0.09397962)"
     id="g4155">
    <rect
       style="fill:#ff9955;stroke-width:0.65799999"
       id="rect22"
       rx="1.7036235"
       width="47.985134"
       height="47.3241"
       x="0.024603471"
       y="0.2910749" />
    <path
       style="fill:#e9c6af;fill-opacity:0.73299997"
       inkscape:connector-curvature="0"
       id="path36-4"
       d="m 12.097927,41.680268 c -0.726829,-7.728901 2.863518,-15.036439 8.543325,-17.389823 5.679218,-2.35329 11.835259,0.916441 14.648471,7.780161 1.341225,3.273348 1.740943,6.920409 1.288085,10.368725 -0.496556,3.783993 -2.01914,2.101097 -4.450211,4.64932 l -5.147435,-3.152255 -2.599778,-4.232044 z" />
    <path
       style="fill:#a05a2c;fill-rule:evenodd"
       inkscape:connector-curvature="0"
       id="path38"
       d="M 0.02038269,40.099368 C 21.828529,31.81502 19.003048,46.328552 47.913997,37.29291 l 0.07878,8.072652 c 0.163827,2.752059 -1.97008,2.559272 -1.97008,2.559272 l -44.3645094,-8.8e-4 c 0,0 -1.6580860223,-0.538542 -1.65369325,-2.943684 z" />
  </g>
</svg>
