<?xml version="1.0" encoding="UTF-8" standalone="no"?>
<!-- Created using Karbon, part of Calligra: http://www.calligra.org/karbon -->

<svg
   xmlns:dc="http://purl.org/dc/elements/1.1/"
   xmlns:cc="http://creativecommons.org/ns#"
   xmlns:rdf="http://www.w3.org/1999/02/22-rdf-syntax-ns#"
   xmlns:svg="http://www.w3.org/2000/svg"
   xmlns="http://www.w3.org/2000/svg"
   xmlns:sodipodi="http://sodipodi.sourceforge.net/DTD/sodipodi-0.dtd"
   xmlns:inkscape="http://www.inkscape.org/namespaces/inkscape"
   width="512"
   height="512"
   id="svg2"
   version="1.1"
   inkscape:version="0.91 r13725"
   sodipodi:docname="preferences-system-bluetooth-inactive.svg"
   viewBox="0 0 512 512">
  <sodipodi:namedview
     pagecolor="#ffffff"
     bordercolor="#666666"
     borderopacity="1"
     objecttolerance="10"
     gridtolerance="10"
     guidetolerance="10"
     inkscape:pageopacity="0"
     inkscape:pageshadow="2"
     inkscape:window-width="1280"
     inkscape:window-height="694"
     id="namedview9"
     showgrid="false"
     inkscape:showpageshadow="false"
     borderlayer="true"
     inkscape:zoom="0.43457603"
     inkscape:cx="-921.98206"
     inkscape:cy="74.911205"
     inkscape:window-x="0"
     inkscape:window-y="0"
     inkscape:window-maximized="1"
     inkscape:current-layer="svg2"
     inkscape:snap-global="false"
     inkscape:document-units="px" />
  <metadata
     id="metadata11">
    <rdf:RDF>
      <cc:Work
         rdf:about="">
        <dc:format>image/svg+xml</dc:format>
        <dc:type
           rdf:resource="http://purl.org/dc/dcmitype/StillImage" />
        <dc:title></dc:title>
      </cc:Work>
    </rdf:RDF>
  </metadata>
  <defs
     id="defs4">
    <clipPath
       clipPathUnits="userSpaceOnUse"
       id="clipPath3870">
      <rect
         style="fill:#41a9e4;fill-opacity:1;fill-rule:evenodd;stroke:none"
         y="31"
         x="31"
         ry="224.99998"
         height="450"
         width="450"
         stroke-miterlimit="2.01260185242"
         id="rect3872" />
    </clipPath>
  </defs>
  <path
     sodipodi:nodetypes="ccccccccccccccscccccccccccccccc"
     inkscape:connector-curvature="0"
     id="shape0"
     d="M 224.07549,2.9607603 C 214.92379,3.231029 206.90444,8.0056458 206.8603,13.21047 L 205.67304,180.57744 90.153115,114.08919 c -6.697486,-3.86449 -19.003412,-3.89674 -25.763434,-0.0675 L 8.1137904,145.98467 c -6.733389,3.7993 -6.7899972,10.73078 -0.1189159,14.56538 L 171.71735,254.55067 7.994875,348.55129 c -6.631912,3.81194 -6.631912,10.68601 0,14.49795 l 56.157164,32.09778 c 6.68928,3.82435 18.893276,3.85649 25.64471,0.0675 l 115.638641,-65.00474 0,168.58075 c 0.0497,3.97395 4.53455,7.81906 10.95797,9.3948 6.42345,1.57573 14.42673,0.79408 19.55448,-1.90981 l 267.6073,-143.29364 c 6.81846,-3.66534 7.26741,-10.48627 0.9498,-14.43052 L 353.4861,254.55074 504.03004,160.61755 c 6.38813,-3.95034 5.93753,-10.82817 -0.9498,-14.49795 L 237.37275,5.7254846 C 233.82983,3.8453858 228.91819,2.8241911 224.07549,2.9607603 Z m 98.30472,129.0654197 38.46706,20.76916 -38.46706,26.90547 z m 0.1189,203.24096 37.2798,21.64575 -37.2798,20.16227 z"
     style="color:#000000;font-style:normal;font-variant:normal;font-weight:normal;font-stretch:normal;font-size:medium;line-height:normal;font-family:Sans;-inkscape-font-specification:Sans;text-indent:0;text-align:start;text-decoration:none;text-decoration-line:none;letter-spacing:normal;word-spacing:normal;text-transform:none;direction:ltr;block-progression:tb;writing-mode:lr-tb;baseline-shift:baseline;text-anchor:start;display:inline;overflow:visible;visibility:visible;fill:#b7bec8;fill-opacity:1;fill-rule:nonzero;stroke:none;stroke-width:9.55799961;marker:none;enable-background:accumulate" />
</svg>
