<?xml version="1.0" encoding="UTF-8" standalone="no"?>
<!-- Generator: Adobe Illustrator 12.0.0, SVG Export Plug-In . SVG Version: 6.00 Build 51448)  -->

<svg
   xmlns:dc="http://purl.org/dc/elements/1.1/"
   xmlns:cc="http://creativecommons.org/ns#"
   xmlns:rdf="http://www.w3.org/1999/02/22-rdf-syntax-ns#"
   xmlns:svg="http://www.w3.org/2000/svg"
   xmlns="http://www.w3.org/2000/svg"
   xmlns:sodipodi="http://sodipodi.sourceforge.net/DTD/sodipodi-0.dtd"
   xmlns:inkscape="http://www.inkscape.org/namespaces/inkscape"
   version="1.1"
   id="图层_1"
   width="248"
   height="248"
   viewBox="0 0 248 248"
   style="overflow:visible;enable-background:new 0 0 248 248;"
   xml:space="preserve"
   inkscape:version="0.91 r13725"
   sodipodi:docname="preferences-desktop-emoticons.svg"><metadata
     id="metadata49"><rdf:RDF><cc:Work
         rdf:about=""><dc:format>image/svg+xml</dc:format><dc:type
           rdf:resource="http://purl.org/dc/dcmitype/StillImage" /><dc:title></dc:title></cc:Work></rdf:RDF></metadata><defs
     id="defs47" /><sodipodi:namedview
     pagecolor="#ffffff"
     bordercolor="#666666"
     borderopacity="1"
     objecttolerance="10"
     gridtolerance="10"
     guidetolerance="10"
     inkscape:pageopacity="0"
     inkscape:pageshadow="2"
     inkscape:window-width="1280"
     inkscape:window-height="694"
     id="namedview45"
     showgrid="false"
     inkscape:zoom="0.9516129"
     inkscape:cx="-218.57627"
     inkscape:cy="124"
     inkscape:window-x="0"
     inkscape:window-y="0"
     inkscape:window-maximized="1"
     inkscape:current-layer="图层_1" /><circle
     style="fill:#ffdd55"
     cx="124"
     cy="124"
     r="124"
     id="circle3" /><g
     id="g5"
     style="fill:#fff6d5"><g
       style="opacity:0.03;fill:#fff6d5"
       id="g7"><path
         d="M120.093,78.824c0,24.109-18.211,43.653-40.675,43.653s-40.675-19.544-40.675-43.653    c0-24.108,31.608-43.652,54.073-43.652S120.093,54.716,120.093,78.824z"
         id="path9"
         style="fill:#fff6d5" /></g><g
       id="g11"
       style="fill:#fff6d5"><path
         style="fill:#fff6d5"
         d="M120.093,71.824c0,24.109-18.211,43.653-40.675,43.653S38.742,95.933,38.742,71.824    c0-24.108,31.608-43.652,54.073-43.652S120.093,47.716,120.093,71.824z"
         id="path13" /></g></g><g
     id="g15"
     style="fill:#fff6d5"><g
       style="opacity:0.03;fill:#fff6d5"
       id="g17"><path
         d="M212.039,78.824c0,24.109-18.21,43.653-40.674,43.653c-22.466,0-40.676-19.543-40.676-43.653    c0-24.108,8.162-43.652,30.627-43.652S212.039,54.716,212.039,78.824z"
         id="path19"
         style="fill:#fff6d5" /></g><g
       id="g21"
       style="fill:#fff6d5"><path
         style="fill:#fff6d5"
         d="M212.039,71.824c0,24.109-18.21,43.653-40.674,43.653c-22.466,0-40.676-19.543-40.676-43.653    c0-24.108,8.162-43.652,30.627-43.652S212.039,47.716,212.039,71.824z"
         id="path23" /></g></g><g
     id="g25"
     style="fill:#fff6d5"><g
       style="opacity:0.03;fill:#fff6d5"
       id="g27"><path
         d="M201.586,172.609c0,35.931-34.062,65.058-76.078,65.058c-42.019,0-76.081-29.127-76.081-65.058    c0-35.932,37.582-14.849,79.6-14.849C171.044,157.761,201.586,136.678,201.586,172.609z"
         id="path29"
         style="fill:#fff6d5" /></g><g
       id="g31"
       style="fill:#fff6d5"><path
         style="fill:#fff6d5"
         d="M201.586,165.609c0,35.931-34.062,65.058-76.078,65.058c-42.019,0-76.081-29.127-76.081-65.058    c0-35.932,37.582-14.849,79.6-14.849C171.044,150.761,201.586,129.678,201.586,165.609z"
         id="path33" /></g></g><circle
     cx="152.066"
     cy="73.738"
     r="12.858"
     id="circle35"
     style="fill:#2b2200" /><circle
     cx="98.795"
     cy="73.738"
     r="12.859"
     id="circle39"
     style="fill:#2b2200" /></svg>