<?xml version="1.0" encoding="UTF-8" standalone="no"?>
<svg
   xmlns:dc="http://purl.org/dc/elements/1.1/"
   xmlns:cc="http://creativecommons.org/ns#"
   xmlns:rdf="http://www.w3.org/1999/02/22-rdf-syntax-ns#"
   xmlns:svg="http://www.w3.org/2000/svg"
   xmlns="http://www.w3.org/2000/svg"
   xmlns:sodipodi="http://sodipodi.sourceforge.net/DTD/sodipodi-0.dtd"
   xmlns:inkscape="http://www.inkscape.org/namespaces/inkscape"
   viewBox="0 0 48 48"
   id="svg2"
   version="1.1"
   inkscape:version="0.91 r13725"
   sodipodi:docname="preferences-driver.svg">
  <metadata
     id="metadata54">
    <rdf:RDF>
      <cc:Work
         rdf:about="">
        <dc:format>image/svg+xml</dc:format>
        <dc:type
           rdf:resource="http://purl.org/dc/dcmitype/StillImage" />
        <dc:title></dc:title>
      </cc:Work>
    </rdf:RDF>
  </metadata>
  <sodipodi:namedview
     pagecolor="#ffffff"
     bordercolor="#666666"
     borderopacity="1"
     objecttolerance="10"
     gridtolerance="10"
     guidetolerance="10"
     inkscape:pageopacity="0"
     inkscape:pageshadow="2"
     inkscape:window-width="1280"
     inkscape:window-height="694"
     id="namedview52"
     showgrid="false"
     inkscape:zoom="4.9166667"
     inkscape:cx="-9.1525424"
     inkscape:cy="24"
     inkscape:window-x="0"
     inkscape:window-y="0"
     inkscape:window-maximized="1"
     inkscape:current-layer="svg2" />
  <defs
     id="defs4">
    <linearGradient
       id="0"
       gradientUnits="userSpaceOnUse"
       x1="-10.754"
       x2="15.831"
       gradientTransform="matrix(0.99999,0,0,0.99999,-26.542,47.2)">
      <stop
         stop-color="#d3d3d3"
         id="stop7" />
      <stop
         offset="1"
         stop-color="#fcf9f9"
         id="stop9" />
    </linearGradient>
    <linearGradient
       id="1"
       gradientUnits="userSpaceOnUse"
       x1="73.05"
       y1="19.615"
       x2="71.21"
       y2="-24.693"
       gradientTransform="matrix(0.99999,0,0,0.99999,-47.2,26.542)">
      <stop
         stop-color="#124da4"
         id="stop12" />
      <stop
         offset="1"
         stop-color="#2896ff"
         id="stop14" />
    </linearGradient>
  </defs>
  <g
     style="fill:#0066ff"
     id="g22"
     transform="matrix(2.915666,0,0,4.6191096,-183.51237,35.726072)">
    <path
       inkscape:connector-curvature="0"
       id="path24"
       d="M 79.26,-4.772 C 78.495,-8.359 71.279,-8.586 66.629,-5.853 l 0,0.302 c 4.645,-2.306 11.236,-2.292 11.836,1.013 0.202,1.095 -0.434,2.233 -1.576,2.888 l 0,0.857 c 1.374,-0.485 2.778,-2.054 2.371,-3.978 M 70.802,1.51 c -3.21,0.286 -6.554,-0.164 -7.02,-2.586 -0.233,-1.193 0.333,-2.459 1.08,-3.244 l 0,-0.421 c -1.346,1.14 -2.078,2.582 -1.655,4.285 0.539,2.185 3.409,3.422 7.791,3.01 1.735,-0.161 4.01,-0.7 5.581,-1.537 l 0,-1.189 c -1.432,0.825 -3.8,1.506 -5.774,1.682 z"
       style="fill:#0066ff" />
    <path
       inkscape:connector-curvature="0"
       id="path26"
       d="m 76.939,-5.359 -0.888,0 0,3.733 c 0,0.438 0.223,0.82 0.888,0.88"
       style="fill:#0066ff" />
    <path
       inkscape:connector-curvature="0"
       id="path28"
       d="m 66.36,-3.994 -0.888,0 0,2.438 c 0,0.439 0.223,0.82 0.888,0.88"
       style="fill:#0066ff" />
    <path
       inkscape:connector-curvature="0"
       id="path30"
       d="m 65.47,-5.245 0.888,0 0,0.794 -0.888,0 z"
       style="fill:#0066ff" />
    <path
       inkscape:connector-curvature="0"
       id="path32"
       d="m 71.68,-0.715 c -0.72,0 -1.024,-0.472 -1.024,-0.938 l 0,-3.238 0.878,0 0,0.897 0.665,0 0,0.671 -0.665,0 0,1.62 c 0,0.191 0.097,0.295 0.307,0.295 l 0.358,0 0,0.693 -0.52,0"
       style="fill:#0066ff" />
    <path
       inkscape:connector-curvature="0"
       id="path34"
       d="m 74.02,-3.364 c -0.3,0 -0.533,0.147 -0.63,0.345 -0.058,0.119 -0.078,0.21 -0.087,0.357 l 1.36,0 C 74.644,-3.021 74.472,-3.364 74.02,-3.364 m -0.717,1.267 c 0,0.425 0.284,0.738 0.781,0.738 0.391,0 0.585,-0.103 0.811,-0.313 l 0.543,0.491 c -0.349,0.324 -0.714,0.52 -1.36,0.52 -0.843,0 -1.65,-0.434 -1.65,-1.699 0,-1.081 0.704,-1.692 1.631,-1.692 0.94,0 1.479,0.715 1.479,1.655 l 0,0.299 -2.235,0"
       style="fill:#0066ff" />
    <path
       inkscape:connector-curvature="0"
       id="path36"
       d="m 68.753,-3.323 c 0.258,0 0.365,0.12 0.365,0.315 l 0,2.297 0.882,0 0,-2.3 c 0,-0.467 -0.265,-0.983 -1.037,-0.983 l -1.818,0 0,3.283 0.878,0 0,-2.612"
       style="fill:#0066ff" />
  </g>
</svg>
