<?xml version="1.0" encoding="UTF-8" standalone="no"?>
<!-- Generator: Adobe Illustrator 18.0.0, SVG Export Plug-In . SVG Version: 6.00 Build 0)  -->

<svg
   xmlns:dc="http://purl.org/dc/elements/1.1/"
   xmlns:cc="http://creativecommons.org/ns#"
   xmlns:rdf="http://www.w3.org/1999/02/22-rdf-syntax-ns#"
   xmlns:svg="http://www.w3.org/2000/svg"
   xmlns="http://www.w3.org/2000/svg"
   xmlns:sodipodi="http://sodipodi.sourceforge.net/DTD/sodipodi-0.dtd"
   xmlns:inkscape="http://www.inkscape.org/namespaces/inkscape"
   version="1.1"
   id="Capa_1"
   x="0px"
   y="0px"
   viewBox="0 0 473.506 473.506"
   style="enable-background:new 0 0 473.506 473.506;"
   xml:space="preserve"
   width="512px"
   height="512px"
   inkscape:version="0.91 r13725"
   sodipodi:docname="preferences-system-firewall.svg"><metadata
     id="metadata43"><rdf:RDF><cc:Work
         rdf:about=""><dc:format>image/svg+xml</dc:format><dc:type
           rdf:resource="http://purl.org/dc/dcmitype/StillImage" /><dc:title></dc:title></cc:Work></rdf:RDF></metadata><defs
     id="defs41" /><sodipodi:namedview
     pagecolor="#ffffff"
     bordercolor="#666666"
     borderopacity="1"
     objecttolerance="10"
     gridtolerance="10"
     guidetolerance="10"
     inkscape:pageopacity="0"
     inkscape:pageshadow="2"
     inkscape:window-width="1280"
     inkscape:window-height="694"
     id="namedview39"
     showgrid="false"
     inkscape:zoom="0.4609375"
     inkscape:cx="-451.25424"
     inkscape:cy="256"
     inkscape:window-x="0"
     inkscape:window-y="0"
     inkscape:window-maximized="1"
     inkscape:current-layer="Capa_1" /><g
     id="g3"
     transform="matrix(1.1140506,0,0,1,-27.001746,0)"
     style="fill:#ffd42a"><path
       d="M 396.314,0 291.578,0 c -28.469,0 -51.542,23.074 -51.542,51.543 l 0,37.895 103.918,0 c 34.866,0 63.135,28.269 63.135,63.135 0,34.865 -28.268,63.134 -63.135,63.134 l -103.918,0 0,206.257 c 0,28.469 23.073,51.543 51.542,51.543 l 104.736,0 c 28.469,0 51.543,-23.074 51.543,-51.543 l 0,-370.421 C 447.857,23.074 424.783,0 396.314,0 Z m -29.903,335.493 0,29.247 c 0,11.405 -9.232,20.654 -20.652,20.654 -11.407,0 -20.655,-9.249 -20.655,-20.654 l 0,-29.247 c -8.353,-6.29 -13.81,-16.185 -13.81,-27.436 0,-19.028 15.428,-34.48 34.465,-34.48 19.034,0 34.463,15.452 34.463,34.48 0,11.252 -5.456,21.146 -13.811,27.436 z"
       id="path5"
       inkscape:connector-curvature="0"
       style="fill:#ffd42a" /><path
       d="m 383.413,152.572 c 0,-21.796 -17.663,-39.459 -39.459,-39.459 l -278.847,0 c -21.796,0 -39.459,17.663 -39.459,39.459 0,21.795 17.663,39.458 39.459,39.458 l 278.847,0 c 21.796,0 39.459,-17.663 39.459,-39.458 z"
       id="path7"
       inkscape:connector-curvature="0"
       style="fill:#ffd42a" /></g><g
     id="g9" /><g
     id="g11" /><g
     id="g13" /><g
     id="g15" /><g
     id="g17" /><g
     id="g19" /><g
     id="g21" /><g
     id="g23" /><g
     id="g25" /><g
     id="g27" /><g
     id="g29" /><g
     id="g31" /><g
     id="g33" /><g
     id="g35" /><g
     id="g37" /></svg>