<?xml version="1.0" encoding="UTF-8" standalone="no"?>
<svg
   xmlns:dc="http://purl.org/dc/elements/1.1/"
   xmlns:cc="http://creativecommons.org/ns#"
   xmlns:rdf="http://www.w3.org/1999/02/22-rdf-syntax-ns#"
   xmlns:svg="http://www.w3.org/2000/svg"
   xmlns="http://www.w3.org/2000/svg"
   xmlns:sodipodi="http://sodipodi.sourceforge.net/DTD/sodipodi-0.dtd"
   xmlns:inkscape="http://www.inkscape.org/namespaces/inkscape"
   viewBox="0 0 48 48"
   id="svg2"
   version="1.1"
   inkscape:version="0.91 r13725"
   sodipodi:docname="preferences-desktop-text-to-speech.svg">
  <metadata
     id="metadata122">
    <rdf:RDF>
      <cc:Work
         rdf:about="">
        <dc:format>image/svg+xml</dc:format>
        <dc:type
           rdf:resource="http://purl.org/dc/dcmitype/StillImage" />
        <dc:title></dc:title>
      </cc:Work>
    </rdf:RDF>
  </metadata>
  <sodipodi:namedview
     pagecolor="#ffffff"
     bordercolor="#666666"
     borderopacity="1"
     objecttolerance="10"
     gridtolerance="10"
     guidetolerance="10"
     inkscape:pageopacity="0"
     inkscape:pageshadow="2"
     inkscape:window-width="1280"
     inkscape:window-height="694"
     id="namedview120"
     showgrid="false"
     inkscape:zoom="4.9166667"
     inkscape:cx="-52.853539"
     inkscape:cy="24"
     inkscape:window-x="0"
     inkscape:window-y="0"
     inkscape:window-maximized="1"
     inkscape:current-layer="svg2" />
  <defs
     id="defs4">
    <clipPath
       id="clipPath6">
      <rect
         width="32"
         height="32"
         x="8"
         y="8"
         fill="none"
         rx="16"
         id="rect8" />
    </clipPath>
    <clipPath
       id="clipPath10">
      <rect
         width="32"
         height="32"
         x="392.57"
         y="507.8"
         fill="none"
         rx="16"
         id="rect12" />
    </clipPath>
    <clipPath
       id="clipPath14">
      <rect
         width="32"
         height="32"
         x="392.57"
         y="507.8"
         fill="none"
         rx="16"
         id="rect16" />
    </clipPath>
    <clipPath
       id="clipPath18">
      <rect
         width="32"
         height="32"
         x="392.57"
         y="507.8"
         fill="none"
         rx="16"
         id="rect20" />
    </clipPath>
    <clipPath
       id="clipPath22">
      <rect
         width="32"
         height="32"
         x="392.57"
         y="507.8"
         fill="none"
         rx="16"
         id="rect24" />
    </clipPath>
    <clipPath
       id="clipPath26">
      <rect
         width="32"
         height="32"
         x="392.57"
         y="507.8"
         fill="none"
         rx="16"
         id="rect28" />
    </clipPath>
    <clipPath
       id="clipPath30">
      <rect
         y="507.8"
         x="392.57"
         height="32"
         width="32"
         fill="none"
         rx="16"
         id="rect32" />
    </clipPath>
    <clipPath
       id="clipPath34">
      <rect
         width="32"
         height="32"
         x="392.57"
         y="507.8"
         fill="none"
         rx="16"
         id="rect36" />
    </clipPath>
    <clipPath
       id="clipPath38">
      <rect
         y="507.8"
         x="392.57"
         height="32"
         width="32"
         fill="none"
         rx="16"
         id="rect40" />
    </clipPath>
    <clipPath
       id="clipPath42">
      <rect
         width="32"
         height="32"
         x="392.57"
         y="507.8"
         fill="none"
         rx="16"
         id="rect44" />
    </clipPath>
    <clipPath
       id="clipPath46">
      <rect
         y="8"
         x="8"
         height="32"
         width="32"
         fill="none"
         rx="16"
         id="rect48" />
    </clipPath>
    <clipPath
       id="clipPath50">
      <rect
         width="32"
         height="32"
         x="8"
         y="8"
         fill="none"
         rx="16"
         id="rect52" />
    </clipPath>
    <clipPath
       id="clipPath54">
      <rect
         y="507.8"
         x="392.57"
         height="32"
         width="32"
         fill="none"
         rx="16"
         id="rect56" />
    </clipPath>
    <clipPath
       id="clipPath58">
      <path
         d="m22.2 686.12h1447.73v-667.19h-1447.73v667.19"
         id="path60" />
    </clipPath>
    <clipPath
       id="clipPath62">
      <path
         d="m0 706.47h1490.93v-706.47h-1490.93v706.47"
         id="path64" />
    </clipPath>
    <clipPath
       id="clipPath66">
      <rect
         width="32"
         height="32"
         x="8"
         y="8"
         fill="none"
         rx="16"
         id="rect68" />
    </clipPath>
    <clipPath
       id="clipPath70">
      <rect
         width="32"
         height="32"
         x="392.57"
         y="507.8"
         fill="none"
         rx="16"
         id="rect72" />
    </clipPath>
    <clipPath
       id="clipPath74">
      <rect
         width="32"
         height="32"
         x="392.57"
         y="507.8"
         fill="none"
         rx="16"
         id="rect76" />
    </clipPath>
    <linearGradient
       gradientUnits="userSpaceOnUse"
       y2="-2.623"
       x2="0"
       y1="986.67"
       id="1">
      <stop
         stop-color="#ffce3b"
         id="stop79" />
      <stop
         offset="1"
         stop-color="#ffd762"
         id="stop81" />
    </linearGradient>
    <linearGradient
       y2="-2.623"
       x2="0"
       y1="986.67"
       gradientUnits="userSpaceOnUse"
       id="linearGradient83">
      <stop
         stop-color="#ffcc32"
         id="stop85" />
      <stop
         offset="1"
         stop-color="#ffda6d"
         id="stop87" />
    </linearGradient>
    <linearGradient
       y2="-2.623"
       x2="0"
       y1="986.67"
       gradientUnits="userSpaceOnUse"
       id="linearGradient89">
      <stop
         stop-color="#ffce3b"
         id="stop91" />
      <stop
         offset="1"
         stop-color="#fef4ab"
         id="stop93" />
    </linearGradient>
    <linearGradient
       gradientUnits="userSpaceOnUse"
       y2="-2.623"
       x2="0"
       y1="986.67"
       id="0">
      <stop
         stop-color="#f4ffb5"
         id="stop96" />
      <stop
         offset="1"
         stop-color="#fdffd8"
         id="stop98" />
    </linearGradient>
    <linearGradient
       id="3"
       gradientUnits="userSpaceOnUse"
       y1="986.67"
       x2="0"
       y2="-2.623"
       gradientTransform="matrix(0.04891444,0,0,0.04891444,-0.0028032,-0.0058552)">
      <stop
         stop-color="#ff9300"
         id="stop101" />
      <stop
         offset="1"
         stop-color="#ffd702"
         id="stop103" />
    </linearGradient>
    <linearGradient
       y2="-2.623"
       x2="0"
       y1="986.67"
       gradientUnits="userSpaceOnUse"
       id="2">
      <stop
         stop-color="#ffc20b"
         id="stop106" />
      <stop
         offset="1"
         stop-color="#ffd351"
         id="stop108" />
    </linearGradient>
  </defs>
  <g
     transform="matrix(0.50424054,0,0,0.34955664,0.40163342,0.33114469)"
     id="g35"
     style="fill:#99ff55;fill-opacity:0.85">
    <path
       d="m 47,94.07 c 7.17,0 13.307,-2.553 18.412,-7.657 C 70.517,81.309 73.07,75.17 73.07,68 l 0,-41.714 C 73.07,19.116 70.519,12.979 65.412,7.873 60.307,2.768 54.17,0.214 47,0.214 c -7.17,0 -13.307,2.554 -18.413,7.659 -5.106,5.105 -7.659,11.243 -7.659,18.413 l 0,41.714 c 0,7.17 2.554,13.309 7.659,18.413 C 33.692,91.517 39.83,94.07 47,94.07"
       id="path37"
       inkscape:connector-curvature="0"
       style="fill:#99ff55" />
    <path
       d="m 92.38,53.905 c -1.03,-1.032 -2.254,-1.548 -3.666,-1.548 -1.412,0 -2.634,0.516 -3.666,1.548 -1.032,1.032 -1.548,2.254 -1.548,3.666 L 83.5,68 C 83.5,78.05 79.928,86.643 72.786,93.786 65.645,100.929 57.049,104.5 47,104.5 36.95,104.5 28.356,100.929 21.213,93.786 14.071,86.645 10.5,78.049 10.5,68 l 0,-10.429 C 10.5,56.159 9.984,54.937 8.952,53.905 7.92,52.873 6.699,52.357 5.286,52.357 c -1.413,0 -2.635,0.516 -3.667,1.548 -1.032,1.032 -1.548,2.254 -1.548,3.666 l 0,10.429 c 0,12 4.01,22.446 12.02,31.33 8.01,8.88 17.91,13.972 29.697,15.275 l 0,10.756 -20.857,0 c -1.412,0 -2.634,0.516 -3.666,1.548 -1.032,1.032 -1.548,2.254 -1.548,3.666 0,1.411 0.516,2.635 1.548,3.666 1.032,1.032 2.254,1.549 3.666,1.549 l 52.14,0 c 1.412,0 2.636,-0.517 3.666,-1.549 1.033,-1.031 1.55,-2.255 1.55,-3.666 0,-1.412 -0.517,-2.634 -1.55,-3.666 -1.03,-1.032 -2.254,-1.548 -3.666,-1.548 l -20.855,0 0,-10.756 C 64.001,113.302 73.9,108.21 81.912,99.33 89.922,90.45 93.932,80.008 93.932,68 l 0,-10.429 c 0,-1.412 -0.517,-2.633 -1.55,-3.666"
       id="path39"
       inkscape:connector-curvature="0"
       style="fill:#99ff55" />
  </g>
</svg>
