<?xml version="1.0" encoding="UTF-8" standalone="no"?>
<svg
   xmlns:dc="http://purl.org/dc/elements/1.1/"
   xmlns:cc="http://creativecommons.org/ns#"
   xmlns:rdf="http://www.w3.org/1999/02/22-rdf-syntax-ns#"
   xmlns:svg="http://www.w3.org/2000/svg"
   xmlns="http://www.w3.org/2000/svg"
   xmlns:sodipodi="http://sodipodi.sourceforge.net/DTD/sodipodi-0.dtd"
   xmlns:inkscape="http://www.inkscape.org/namespaces/inkscape"
   viewBox="0 0 48 48"
   id="svg2"
   version="1.1"
   inkscape:version="0.91 r13725"
   sodipodi:docname="pyrenamer.svg">
  <metadata
     id="metadata27">
    <rdf:RDF>
      <cc:Work
         rdf:about="">
        <dc:format>image/svg+xml</dc:format>
        <dc:type
           rdf:resource="http://purl.org/dc/dcmitype/StillImage" />
        <dc:title></dc:title>
      </cc:Work>
    </rdf:RDF>
  </metadata>
  <sodipodi:namedview
     pagecolor="#ffffff"
     bordercolor="#666666"
     borderopacity="1"
     objecttolerance="10"
     gridtolerance="10"
     guidetolerance="10"
     inkscape:pageopacity="0"
     inkscape:pageshadow="2"
     inkscape:window-width="1280"
     inkscape:window-height="694"
     id="namedview25"
     showgrid="false"
     inkscape:zoom="4.9166667"
     inkscape:cx="24"
     inkscape:cy="24"
     inkscape:window-x="0"
     inkscape:window-y="0"
     inkscape:window-maximized="1"
     inkscape:current-layer="svg2" />
  <defs
     id="defs4">
    <linearGradient
       gradientTransform="matrix(1.0909153,0,0,1.065289,-421.71538,-535.05613)"
       gradientUnits="userSpaceOnUse"
       y2="507.8"
       x2="0"
       y1="542.8"
       id="0">
      <stop
         stop-color="#155bc2"
         id="stop7" />
      <stop
         offset="1"
         stop-color="#369dff"
         id="stop9" />
    </linearGradient>
  </defs>
  <g
     style="fill:#2a7fff;fill-opacity:1"
     id="g15"
     transform="matrix(1.0994563,0,0,2.5970208,27.670873,-76.768994)">
    <path
       style="fill:#2a7fff;fill-opacity:1"
       inkscape:connector-curvature="0"
       id="path17"
       transform="matrix(1.13417,0,0,1.13417,-571.34,141.97)"
       d="m 505.99,-87.12 0,3.12 3.12,0 7.88,-7.88 -3.12,-3.12 z m 13.76,-7.51 c 0.33,-0.33 0.33,-0.85 0,-1.18 l -1.95,-1.95 c -0.33,-0.33 -0.85,-0.33 -1.18,0 l -1.63,1.64 3.12,3.12 z" />
    <g
       id="g19"
       style="fill:#2a7fff;fill-opacity:1">
      <path
         inkscape:connector-curvature="0"
         id="path21"
         d="m -20.363,47.972 q -1.95,0 -3.275,-1.125 -1.3,-1.125 -1.3,-2.975 0,-2 1.55,-3.125 1.55,-1.15 3.825,-1.15 2.025,0 3.325,0.75 l 0,-0.35 q 0,-1.35 -0.925,-2.15 -0.925,-0.825 -2.275,-0.825 -1,0 -1.825,0.475 -0.8,0.475 -1.1,1.3 l -2.1,-0.9 q 0.425,-1.1 1.675,-2.025 1.25,-0.95 3.3,-0.95 2.35,0 3.9,1.375 1.55,1.375 1.55,3.875 l 0,7.4 -2.2,0 0,-1.7 -0.1,0 q -1.375,2.1 -4.03,2.1 m 0.375,-2.1 q 1.425,0 2.575,-1.05 1.175,-1.075 1.175,-2.525 -0.975,-0.8 -2.925,-0.8 -1.675,0 -2.525,0.725 -0.85,0.725 -0.85,1.7 0,0.9 0.775,1.425 0.775,0.525 1.775,0.525"
         style="fill:#2a7fff;fill-opacity:1" />
      <path
         inkscape:connector-curvature="0"
         id="path23"
         d="m -4.97,47.972 q -1.4,0 -2.525,-0.6 -1.1,-0.6 -1.65,-1.5 l -0.1,0 0,1.7 -2.2,0 0,-17.9 2.3,0 0,5.65 -0.1,1.7 0.1,0 q 0.55,-0.9 1.65,-1.5 1.125,-0.6 2.525,-0.6 2.375,0 4.1,1.875 1.725,1.875 1.725,4.65 0,2.775 -1.725,4.65 -1.725,1.875 -4.1,1.875 m -0.375,-2.1 q 1.6,0 2.75,-1.2 1.15,-1.225 1.15,-3.225 0,-2 -1.15,-3.2 -1.15,-1.225 -2.75,-1.225 -1.625,0 -2.775,1.2 -1.125,1.2 -1.125,3.225 0,2.025 1.125,3.225 1.15,1.2 2.775,1.2"
         style="fill:#2a7fff;fill-opacity:1" />
    </g>
  </g>
</svg>
