<?xml version="1.0" encoding="UTF-8" standalone="no"?>
<svg
   xmlns:dc="http://purl.org/dc/elements/1.1/"
   xmlns:cc="http://creativecommons.org/ns#"
   xmlns:rdf="http://www.w3.org/1999/02/22-rdf-syntax-ns#"
   xmlns:svg="http://www.w3.org/2000/svg"
   xmlns="http://www.w3.org/2000/svg"
   xmlns:sodipodi="http://sodipodi.sourceforge.net/DTD/sodipodi-0.dtd"
   xmlns:inkscape="http://www.inkscape.org/namespaces/inkscape"
   viewBox="0 0 48 48"
   id="svg2"
   version="1.1"
   inkscape:version="0.91 r13725"
   sodipodi:docname="qtdbusviewer.svg">
  <metadata
     id="metadata21">
    <rdf:RDF>
      <cc:Work
         rdf:about="">
        <dc:format>image/svg+xml</dc:format>
        <dc:type
           rdf:resource="http://purl.org/dc/dcmitype/StillImage" />
        <dc:title></dc:title>
      </cc:Work>
    </rdf:RDF>
  </metadata>
  <sodipodi:namedview
     pagecolor="#ffffff"
     bordercolor="#666666"
     borderopacity="1"
     objecttolerance="10"
     gridtolerance="10"
     guidetolerance="10"
     inkscape:pageopacity="0"
     inkscape:pageshadow="2"
     inkscape:window-width="1280"
     inkscape:window-height="694"
     id="namedview19"
     showgrid="false"
     inkscape:zoom="4.9166667"
     inkscape:cx="-9.1525424"
     inkscape:cy="24"
     inkscape:window-x="0"
     inkscape:window-y="0"
     inkscape:window-maximized="1"
     inkscape:current-layer="svg2" />
  <defs
     id="defs4">
    <linearGradient
       id="0"
       gradientUnits="userSpaceOnUse"
       y1="59.805"
       x2="0"
       y2="0">
      <stop
         stop-color="#139702"
         id="stop7" />
      <stop
         stop-color="#80e950"
         offset="1"
         id="stop9" />
    </linearGradient>
  </defs>
  <path
     style="fill:#00aa00"
     inkscape:connector-curvature="0"
     id="path17"
     d="m 24.00012,0.32477402 c -10.377117,0 -19.3218258,9.46270558 -23.4308505,23.11802798 -0.12677281,0.414411 -0.12677281,0.897552 0,1.318027 4.1090247,13.655321 13.0524265,23.118027 23.4308505,23.118027 10.377117,0 19.321826,-9.462706 23.430851,-23.118027 0.126772,-0.414413 0.126772,-0.897553 0,-1.318027 C 43.321946,9.7874796 34.378544,0.32477402 24.00012,0.32477402 m 0,7.37852368 c 5.860326,0 10.603217,7.3441583 10.603217,16.4005393 0,9.056379 -4.748119,16.400537 -10.603217,16.400537 -5.860326,0 -10.603217,-7.344158 -10.603217,-16.400537 0,-9.064466 4.748119,-16.4005393 10.603217,-16.4005393 z m -1.227218,3.2566583 c -0.214339,0 -0.34634,0.157672 -0.398618,0.477078 -0.09541,0.570067 -0.203882,1.631361 -0.321507,3.181861 -0.346339,0.171841 -0.680917,0.390153 -1.006346,0.650927 l -1.526508,-1.83149 c -0.09541,-0.11321 -0.192119,-0.169816 -0.288833,-0.169816 -0.16206,0 -0.509707,0.408346 -1.044246,1.223014 -0.53454,0.814672 -0.89787,1.425169 -1.08999,1.835537 -0.06665,0.147574 -0.09933,0.28099 -0.09933,0.394193 0,0.13745 0.03659,0.272905 0.10979,0.410368 0.494025,0.923832 0.890027,1.710199 1.184089,2.361129 -0.184279,0.525592 -0.328043,1.051185 -0.43129,1.574756 l -2.057126,0.477079 c -0.08103,0.02229 -0.1503,0.09906 -0.209111,0.224397 -0.05882,0.125328 -0.08886,0.254711 -0.08886,0.390153 l 0,3.798424 c 0,0.147575 0.03006,0.283012 0.08886,0.402282 0.05882,0.119267 0.135917,0.190034 0.232635,0.212253 l 2.024453,0.462928 c 0.103243,0.557938 0.252239,1.123961 0.452202,1.694027 -0.133315,0.285033 -0.331963,0.689336 -0.597273,1.208867 -0.265309,0.519528 -0.453508,0.897551 -0.564598,1.138111 -0.05882,0.125328 -0.08627,0.258754 -0.08627,0.394196 0,0.147575 0.02483,0.276946 0.0771,0.39015 0.287526,0.616563 0.895254,1.57476 1.82449,2.874594 0.08103,0.125328 0.172516,0.190033 0.275765,0.190033 0.111099,0 0.203882,-0.05054 0.278378,-0.153646 l 1.559182,-1.831493 c 0.301903,0.24056 0.633867,0.452818 0.99589,0.634756 l 0.308437,3.147496 c 0.0077,0.147575 0.04966,0.270883 0.12808,0.367916 0.0771,0.09704 0.167287,0.14555 0.270537,0.14555 l 2.455742,0 c 0.21434,0 0.348954,-0.157672 0.401231,-0.477075 0.09541,-0.570066 0.20127,-1.631361 0.318894,-3.181862 0.34634,-0.171841 0.682223,-0.390153 1.006346,-0.650928 l 1.526508,1.847664 c 0.103243,0.10309 0.199961,0.153624 0.288833,0.153624 0.162061,0 0.5084,-0.402281 1.03902,-1.212909 0.530618,-0.810623 0.896561,-1.425165 1.095216,-1.847661 0.06665,-0.113206 0.09934,-0.246624 0.09934,-0.394197 0,-0.147574 -0.03528,-0.289074 -0.109789,-0.426538 -0.530619,-1.004693 -0.926622,-1.791061 -1.184089,-2.361127 0.147683,-0.422497 0.291448,-0.944047 0.43129,-1.558589 l 2.04667,-0.477075 c 0.08886,-0.02229 0.160754,-0.09904 0.219568,-0.224398 0.05882,-0.125328 0.08886,-0.25471 0.08886,-0.390152 l 0,-3.798423 c 0,-0.147574 -0.03006,-0.283012 -0.08886,-0.40228 -0.05882,-0.117261 -0.134624,-0.190035 -0.230023,-0.212254 l -2.024453,-0.477075 c -0.111099,-0.547832 -0.262695,-1.107791 -0.454814,-1.677858 0.133314,-0.285033 0.331961,-0.689336 0.597272,-1.208864 0.265309,-0.519528 0.453507,-0.897553 0.564598,-1.138114 0.05882,-0.125328 0.08886,-0.254709 0.08886,-0.390149 0,-0.159697 -0.02745,-0.287055 -0.07972,-0.380046 -0.265308,-0.582195 -0.874343,-1.552524 -1.82449,-2.908957 -0.08886,-0.113211 -0.180359,-0.169817 -0.275766,-0.169817 -0.111087,0 -0.198655,0.05053 -0.265309,0.153624 l -1.569636,1.83149 C 26.632299,15.01508 26.300336,14.802822 25.938313,14.620887 L 25.627261,11.47339 c -0.0077,-0.147574 -0.04704,-0.270883 -0.125462,-0.367917 -0.0771,-0.09704 -0.169902,-0.145551 -0.273151,-0.145551 l -2.455743,0 m 1.227218,8.76124 c 0.781551,0 1.448092,0.428562 2.000928,1.283661 0.552837,0.855099 0.829907,1.886072 0.829907,3.094936 0,1.208864 -0.27707,2.239837 -0.829907,3.094936 -0.552836,0.855102 -1.219377,1.283662 -2.000928,1.283662 -0.781551,0 -1.448092,-0.42856 -2.000928,-1.283662 -0.552837,-0.855099 -0.829907,-1.886072 -0.829907,-3.094936 0,-1.208864 0.27707,-2.239837 0.829907,-3.094936 0.552836,-0.855099 1.219377,-1.283661 2.000928,-1.283661" />
</svg>
