<?xml version="1.0" encoding="UTF-8" standalone="no"?>
<svg
   xmlns:dc="http://purl.org/dc/elements/1.1/"
   xmlns:cc="http://creativecommons.org/ns#"
   xmlns:rdf="http://www.w3.org/1999/02/22-rdf-syntax-ns#"
   xmlns:svg="http://www.w3.org/2000/svg"
   xmlns="http://www.w3.org/2000/svg"
   xmlns:xlink="http://www.w3.org/1999/xlink"
   xmlns:sodipodi="http://sodipodi.sourceforge.net/DTD/sodipodi-0.dtd"
   xmlns:inkscape="http://www.inkscape.org/namespaces/inkscape"
   viewBox="0 0 48 48"
   id="svg2"
   version="1.1"
   inkscape:version="0.91 r13725"
   sodipodi:docname="samsung-driver.svg">
  <metadata
     id="metadata44">
    <rdf:RDF>
      <cc:Work
         rdf:about="">
        <dc:format>image/svg+xml</dc:format>
        <dc:type
           rdf:resource="http://purl.org/dc/dcmitype/StillImage" />
        <dc:title></dc:title>
      </cc:Work>
    </rdf:RDF>
  </metadata>
  <sodipodi:namedview
     pagecolor="#ffffff"
     bordercolor="#666666"
     borderopacity="1"
     objecttolerance="10"
     gridtolerance="10"
     guidetolerance="10"
     inkscape:pageopacity="0"
     inkscape:pageshadow="2"
     inkscape:window-width="1280"
     inkscape:window-height="694"
     id="namedview42"
     showgrid="false"
     inkscape:zoom="4.9166667"
     inkscape:cx="-9.1525424"
     inkscape:cy="24"
     inkscape:window-x="0"
     inkscape:window-y="0"
     inkscape:window-maximized="1"
     inkscape:current-layer="svg2" />
  <defs
     id="defs4">
    <clipPath
       id="clipPath6">
      <path
         d="m69.63 12.145h-.052c-22.727-.292-46.47 4.077-46.709 4.122-2.424.451-4.946 2.974-5.397 5.397-.044.237-4.414 23.983-4.122 46.71-.292 22.777 4.078 46.523 4.122 46.761.451 2.423 2.974 4.945 5.398 5.398.237.044 23.982 4.413 46.709 4.121 22.779.292 46.524-4.077 46.761-4.121 2.423-.452 4.946-2.976 5.398-5.399.044-.236 4.413-23.981 4.121-46.709.292-22.777-4.077-46.523-4.121-46.761-.453-2.423-2.976-4.946-5.398-5.397-.238-.045-23.984-4.414-46.71-4.122"
         id="path8" />
    </clipPath>
    <linearGradient
       id="2">
      <stop
         stop-color="#08f"
         id="stop11" />
      <stop
         offset="1"
         stop-color="#02c3ff"
         id="stop13" />
    </linearGradient>
    <linearGradient
       gradientUnits="userSpaceOnUse"
       y2="1038.35"
       x2="8.115"
       y1="1050.47"
       x1="8.167"
       id="1"
       gradientTransform="matrix(6.0193961,0,0,3.4282525,-24.038881,-3556.3383)">
      <stop
         stop-color="#141414"
         id="stop16" />
      <stop
         offset="1"
         stop-color="#2d2d2f"
         id="stop18" />
    </linearGradient>
    <linearGradient
       xlink:href="#2"
       id="0"
       gradientUnits="userSpaceOnUse"
       x1="159.46"
       y1="668.03"
       x2="160.66"
       y2="596.97"
       gradientTransform="matrix(0.01961125,0,0,0.00481321,1.7342887,0.22999825)" />
    <linearGradient
       gradientTransform="matrix(0.13026818,0,0,0.06375151,3.5959476,2.4758755)"
       gradientUnits="userSpaceOnUse"
       y2="63.27"
       x2="159.24"
       y1="624.72"
       x1="169.5"
       id="3"
       xlink:href="#2" />
  </defs>
  <rect
     width="40.988361"
     height="36.47929"
     x="4.1194177"
     y="6.3140373"
     rx="1.3026538"
     id="rect26"
     style="fill:#80b3ff;fill-rule:evenodd" />
  <path
     d="m 44.606312,-0.0062866 -40.9740291,0 c -1.8660128,0 -3.37688124,0.86049138 -3.37688124,1.9232497 l 0,44.1456069 c 0,1.062759 1.51086844,1.92325 3.37688124,1.92325 l 40.9740291,0 c 1.866013,0 3.376881,-0.860491 3.376881,-1.92325 l 0,-44.1456069 c 0,-1.06275832 -1.510868,-1.9232497 -3.376881,-1.9232497 m -0.49359,40.3779576 -39.992868,0 0,-32.7569523 39.992868,0 z"
     id="path28"
     style="fill:#b7bec8"
     inkscape:connector-curvature="0" />
  <ellipse
     cx="24.115334"
     cy="44.476418"
     rx="3.5332136"
     ry="2.0119424"
     id="ellipse30"
     style="fill:#00112b;fill-rule:evenodd;stroke:none;stroke-width:0.73048598;stroke-linecap:round" />
  <g
     style="color:#000000;fill:#00112b;fill-opacity:0.847"
     id="g32"
     transform="matrix(1.3144756,0,0,0.74641901,622.29682,121.03824)">
    <circle
       r="2.5"
       id="ellipse34"
       cy="-130.50999"
       cx="-462.60999"
       style="fill:#00112b" />
    <circle
       r="3"
       id="ellipse36"
       cy="-123.01"
       cx="-458.10999"
       style="fill:#00112b" />
    <circle
       r="1.5"
       id="ellipse38"
       cy="-138.50999"
       cx="-460.60999"
       style="fill:#00112b" />
    <path
       inkscape:connector-curvature="0"
       id="path40"
       d="m -452.11,-140.01 -2.844,2.844 4.375,4.375 -4.531,5.156 3,2.625 7,-8 -7,-7"
       style="fill:#00112b" />
  </g>
</svg>
