<?xml version="1.0" encoding="UTF-8" standalone="no"?>
<!-- Generator: Adobe Illustrator 18.0.0, SVG Export Plug-In . SVG Version: 6.00 Build 0)  -->

<svg
   xmlns:dc="http://purl.org/dc/elements/1.1/"
   xmlns:cc="http://creativecommons.org/ns#"
   xmlns:rdf="http://www.w3.org/1999/02/22-rdf-syntax-ns#"
   xmlns:svg="http://www.w3.org/2000/svg"
   xmlns="http://www.w3.org/2000/svg"
   xmlns:sodipodi="http://sodipodi.sourceforge.net/DTD/sodipodi-0.dtd"
   xmlns:inkscape="http://www.inkscape.org/namespaces/inkscape"
   version="1.1"
   id="Capa_1"
   x="0px"
   y="0px"
   viewBox="0 0 455.731 455.731"
   style="enable-background:new 0 0 455.731 455.731;"
   xml:space="preserve"
   inkscape:version="0.91 r13725"
   sodipodi:docname="telegram.svg"><metadata
     id="metadata43"><rdf:RDF><cc:Work
         rdf:about=""><dc:format>image/svg+xml</dc:format><dc:type
           rdf:resource="http://purl.org/dc/dcmitype/StillImage" /><dc:title></dc:title></cc:Work></rdf:RDF></metadata><defs
     id="defs41" /><sodipodi:namedview
     pagecolor="#ffffff"
     bordercolor="#666666"
     borderopacity="1"
     objecttolerance="10"
     gridtolerance="10"
     guidetolerance="10"
     inkscape:pageopacity="0"
     inkscape:pageshadow="2"
     inkscape:window-width="1280"
     inkscape:window-height="694"
     id="namedview39"
     showgrid="false"
     inkscape:zoom="0.51784936"
     inkscape:cx="-86.897858"
     inkscape:cy="227.86549"
     inkscape:window-x="0"
     inkscape:window-y="0"
     inkscape:window-maximized="1"
     inkscape:current-layer="Capa_1" /><path
     inkscape:connector-curvature="0"
     id="path7"
     d="M 422.98151,4.7101967 14.027814,195.35892 c -13.24607719,6.17575 -12.4436099,28.91541 1.191624,33.73143 l 103.919512,36.71094 38.78279,147.21941 c 4.05125,15.37757 20.3408,20.03948 29.77046,8.52115 l 53.72908,-65.62955 105.42112,92.572 c 12.9012,11.32889 31.27475,2.91208 34.55037,-15.82706 L 451.21413,33.312576 C 454.63334,13.751478 438.54642,-2.5459453 422.98151,4.7101967 Z M 371.70949,93.334676 181.75287,294.28807 c -1.89344,2.00346 -3.09849,4.77589 -3.38029,7.78109 l -7.31345,77.77556 c -0.23887,2.53644 -3.20585,2.87196 -3.83923,0.43505 L 137.13004,264.28906 c -1.37815,-5.31047 0.41868,-11.06401 4.36795,-13.99376 L 365.81712,83.859952 c 5.15834,-3.830344 10.44013,4.665121 5.89237,9.474724 z"
     style="fill:#5599ff" /><g
     id="g9" /><g
     id="g11" /><g
     id="g13" /><g
     id="g15" /><g
     id="g17" /><g
     id="g19" /><g
     id="g21" /><g
     id="g23" /><g
     id="g25" /><g
     id="g27" /><g
     id="g29" /><g
     id="g31" /><g
     id="g33" /><g
     id="g35" /><g
     id="g37" /></svg>