<?xml version="1.0" encoding="UTF-8" standalone="no"?>
<svg
   xmlns:dc="http://purl.org/dc/elements/1.1/"
   xmlns:cc="http://creativecommons.org/ns#"
   xmlns:rdf="http://www.w3.org/1999/02/22-rdf-syntax-ns#"
   xmlns:svg="http://www.w3.org/2000/svg"
   xmlns="http://www.w3.org/2000/svg"
   xmlns:xlink="http://www.w3.org/1999/xlink"
   xmlns:sodipodi="http://sodipodi.sourceforge.net/DTD/sodipodi-0.dtd"
   xmlns:inkscape="http://www.inkscape.org/namespaces/inkscape"
   viewBox="0 0 48 48"
   id="svg2"
   version="1.1"
   inkscape:version="0.91 r13725"
   sodipodi:docname="thunderbird.svg">
  <metadata
     id="metadata37">
    <rdf:RDF>
      <cc:Work
         rdf:about="">
        <dc:format>image/svg+xml</dc:format>
        <dc:type
           rdf:resource="http://purl.org/dc/dcmitype/StillImage" />
        <dc:title></dc:title>
      </cc:Work>
    </rdf:RDF>
  </metadata>
  <sodipodi:namedview
     pagecolor="#ffffff"
     bordercolor="#666666"
     borderopacity="1"
     objecttolerance="10"
     gridtolerance="10"
     guidetolerance="10"
     inkscape:pageopacity="0"
     inkscape:pageshadow="2"
     inkscape:window-width="1280"
     inkscape:window-height="694"
     id="namedview35"
     showgrid="false"
     inkscape:zoom="4.9166667"
     inkscape:cx="-10.230421"
     inkscape:cy="24"
     inkscape:window-x="0"
     inkscape:window-y="0"
     inkscape:window-maximized="1"
     inkscape:current-layer="svg2" />
  <defs
     id="defs4">
    <linearGradient
       id="0">
      <stop
         stop-color="#124da4"
         id="stop7" />
      <stop
         offset="1"
         stop-color="#2896ff"
         id="stop9" />
    </linearGradient>
    <linearGradient
       xlink:href="#0"
       id="1"
       x1="317.9"
       y1="569.02"
       x2="317.98"
       y2="473.2"
       gradientUnits="userSpaceOnUse"
       gradientTransform="matrix(0.47261085,0,0,0.47261085,-125.99993,-221.88374)" />
    <linearGradient
       xlink:href="#0"
       id="2"
       x1="205.03"
       y1="573.24"
       x2="204.7"
       y2="473.58"
       gradientUnits="userSpaceOnUse"
       gradientTransform="matrix(0.4677,0,0,0.4677,-72.04,-220.2)" />
  </defs>
  <path
     d="m 20.601547,28.855298 c 1.058611,-3.444179 3.567483,-3.929133 4.370024,-3.996311 l 5.340568,-2.17224 c 0.04038,-0.588149 0.06816,-1.362185 0.08956,-1.946557 0.119743,-3.324257 0.255324,-7.092188 2.010996,-8.518854 0.251343,-0.203829 0.509818,-0.358555 0.773102,-0.460537 -0.884967,-1.724653 -2.454971,-4.5547832 -4.029039,-6.2614947 -2.37893,-2.5798971 -4.757777,0 -7.136624,-1.2898811 -2.378847,-1.2898811 -4.757777,-2.5798971 -4.757777,-3.86991312 0,0 -0.792922,3.86991312 1.585925,6.44967532 0,0 -3.964772,1.2898811 -6.343702,-3.8699131 0,0 -0.792922,3.8699131 1.585925,9.0297077 0,0 -3.171851,1.289881 -7.136624,0 0,0 0.7929214,5.159794 3.171851,7.739691 0,0 -2.3789296,3.869913 -7.1366238,1.289881 0,0 0.7929214,6.449675 3.9647728,7.739691 0,0 -3.1718514,3.869913 -6.34370281,2.579897 0,0 1.76354941,6.98508 8.81136181,4.783163 0,0 -0.8817333,4.24641 -6.4325147,4.24641 0,0 3.9647728,6.449675 10.3084757,1.289881 l -4.7577772,6.449675 c 0,0 3.1718512,0 7.9296282,-2.579897 3.030715,-1.643445 4.770465,-2.768213 5.637189,-5.033261 -1.512123,-2.029924 -3.167788,-6.188651 -1.504992,-11.598813 z m 6.969366,-11.746254 c 0,0 0,2.579897 -2.37893,2.579897 -2.37893,0 -3.171851,-6.449676 -3.171851,-6.449676 0,0 3.964856,0 5.550781,3.869779 z"
     id="path6"
     inkscape:connector-curvature="0"
     style="fill:#5599ff" />
  <path
     d="m 43.186705,15.669427 c -2.74446,0 -6.100238,2.729498 -6.100238,2.729498 -0.647804,-2.106545 -1.823835,-4.212955 -3.096556,-4.212955 -0.06974,0 -0.140308,0.02711 -0.21013,0.03993 -0.218008,0.03993 -0.437674,0.123835 -0.658169,0.303113 -1.585926,1.289881 -0.792922,9.029707 -1.585926,10.319588 l -6.343703,2.579897 c 0,0 -2.37893,0 -3.171851,2.579897 -1.13233,3.682812 -0.172814,6.33879 0.669281,7.78097 0.476566,0.816664 0.916644,1.248737 0.916644,1.248737 0,0 11.894485,-1.289881 15.859258,-2.579897 3.964772,-1.290016 3.171851,-5.159794 3.171851,-5.159794 0,0 0,1.289881 -2.37893,1.289881 -2.37893,0 -3.964773,-1.289881 -3.964773,-1.289881 0,0 -0.792921,0 1.585926,-2.579897 1.393293,-1.511786 2.787249,-2.137436 4.021078,-2.137436 0.87228,0 1.666031,0.313364 2.322625,0.84742 1.585925,1.289881 1.585925,5.159794 1.585925,5.159794 2.37893,-5.159794 2.37893,-11.609469 0,-15.479382 -0.648633,-1.055027 -1.592228,-1.439482 -2.622312,-1.439482 z"
     id="path8"
     inkscape:connector-curvature="0"
     style="fill:#535d6c" />
</svg>
