<?xml version="1.0" encoding="UTF-8" standalone="no"?>
<svg
   xmlns:dc="http://purl.org/dc/elements/1.1/"
   xmlns:cc="http://creativecommons.org/ns#"
   xmlns:rdf="http://www.w3.org/1999/02/22-rdf-syntax-ns#"
   xmlns:svg="http://www.w3.org/2000/svg"
   xmlns="http://www.w3.org/2000/svg"
   xmlns:sodipodi="http://sodipodi.sourceforge.net/DTD/sodipodi-0.dtd"
   xmlns:inkscape="http://www.inkscape.org/namespaces/inkscape"
   viewBox="0 0 48 48"
   id="svg2"
   version="1.1"
   inkscape:version="0.91 r13725"
   sodipodi:docname="unetbootin.svg">
  <metadata
     id="metadata56">
    <rdf:RDF>
      <cc:Work
         rdf:about="">
        <dc:format>image/svg+xml</dc:format>
        <dc:type
           rdf:resource="http://purl.org/dc/dcmitype/StillImage" />
        <dc:title></dc:title>
      </cc:Work>
    </rdf:RDF>
  </metadata>
  <sodipodi:namedview
     pagecolor="#ffffff"
     bordercolor="#666666"
     borderopacity="1"
     objecttolerance="10"
     gridtolerance="10"
     guidetolerance="10"
     inkscape:pageopacity="0"
     inkscape:pageshadow="2"
     inkscape:window-width="1280"
     inkscape:window-height="694"
     id="namedview54"
     showgrid="false"
     inkscape:zoom="4.9166667"
     inkscape:cx="-11.59322"
     inkscape:cy="24"
     inkscape:window-x="0"
     inkscape:window-y="0"
     inkscape:window-maximized="1"
     inkscape:current-layer="svg2" />
  <defs
     id="defs4">
    <linearGradient
       gradientTransform="matrix(0.84890151,0,0,1.6796732,-357.9772,-869.3594)"
       gradientUnits="userSpaceOnUse"
       y2="543.09"
       x2="0"
       y1="544.15"
       id="3">
      <stop
         stop-color="#1e56e6"
         id="stop7" />
      <stop
         offset="1"
         stop-color="#1f9aed"
         id="stop9" />
    </linearGradient>
    <linearGradient
       gradientTransform="matrix(0.41725583,0,0,0.4103059,-3.7077466,-0.76908349)"
       x2="122.72"
       x1="10.09"
       gradientUnits="userSpaceOnUse"
       id="2">
      <stop
         stop-color="#1a1a1a"
         id="stop12" />
      <stop
         offset=".111"
         stop-color="#2c2c2e"
         id="stop14" />
      <stop
         offset=".29"
         stop-color="#2b2b2d"
         id="stop16" />
      <stop
         offset=".512"
         stop-color="#2a2b2d"
         id="stop18" />
      <stop
         offset=".752"
         stop-color="#2b2b2d"
         id="stop20" />
      <stop
         offset=".897"
         stop-color="#323232"
         id="stop22" />
      <stop
         offset="1"
         stop-color="#171717"
         id="stop24" />
    </linearGradient>
    <linearGradient
       gradientUnits="userSpaceOnUse"
       y2="10.424"
       x2="1.816"
       y1="47.947"
       x1="1.613"
       id="0"
       gradientTransform="matrix(0.99999,0,0,0.99999,21.629,-9.118)">
      <stop
         stop-color="#b6b9bf"
         id="stop27" />
      <stop
         offset="1"
         stop-color="#dddfe2"
         id="stop29" />
    </linearGradient>
    <linearGradient
       gradientUnits="userSpaceOnUse"
       y2="51.26"
       x2="0"
       y1="54.824"
       id="1"
       gradientTransform="matrix(0.99999,0,0,0.99999,21.629,-9.118)">
      <stop
         stop-color="#040404"
         id="stop32" />
      <stop
         offset="1"
         stop-color="#121212"
         stop-opacity=".908"
         id="stop34" />
    </linearGradient>
  </defs>
  <g
     id="g4209"
     transform="matrix(1.5183582,0,0,1.4254,76.95866,-1.8021569)">
    <path
       style="fill:#939dac"
       inkscape:connector-curvature="0"
       id="path7"
       d="m -21.33684,24.19723 c 0.7385,0 1.425419,0.256097 1.99552,0.693432 L -23.273885,3.6205782 c -0.230056,-1.244521 -1.324712,-2.2528825 -2.445422,-2.2528825 l -17.918578,0 c -1.120247,0 -2.215433,1.0088129 -2.445423,2.2528825 l -3.932101,21.2700838 c 0.570101,-0.437862 1.256954,-0.693432 1.995454,-0.693432 l 26.683115,0 0,0 z" />
    <path
       style="fill:#6f7c91"
       inkscape:connector-curvature="0"
       id="path9"
       d="m -48.019557,34.835696 26.683181,0 c 1.299585,0 2.353334,-1.195845 2.353334,-2.670507 l 0,-3.916457 c 0,-0.524456 -0.135117,-1.011671 -0.365239,-1.42418 -0.417084,-0.748202 -1.150678,-1.24595 -1.988095,-1.24595 l -26.683181,0 c -0.837417,0 -1.571011,0.498124 -1.988162,1.24595 -0.230056,0.412509 -0.365172,0.900175 -0.365172,1.42418 l 0,3.916457 c 0,1.475113 1.053749,2.670507 2.353334,2.670507 z m 24.972943,-4.993056 -5.125806,0 c -0.336333,0 -0.608621,-0.308836 -0.608621,-0.690648 0,-0.381587 0.272222,-0.690648 0.608621,-0.690648 l 5.125806,0 c 0.336333,0 0.608621,0.308986 0.608621,0.690648 0,0.381737 -0.272686,0.690648 -0.608621,0.690648 z" />
  </g>
  <path
     style="fill:#0b1728;fill-rule:evenodd;stroke:#909296;stroke-width:0.1449831"
     inkscape:connector-curvature="0"
     id="path52"
     d="m 41.958871,22.313798 -5.19073,5.64683 -12.54254,2.493658 5.12352,5.567689 -4.880527,5.308049 5.828713,6.341056 4.880527,-5.308048 4.876391,5.308048 2.406141,-13.229162 5.324117,-5.79123 -5.828713,-6.341055" />
</svg>
