<?xml version="1.0" encoding="UTF-8" standalone="no"?>
<svg
   xmlns:dc="http://purl.org/dc/elements/1.1/"
   xmlns:cc="http://creativecommons.org/ns#"
   xmlns:rdf="http://www.w3.org/1999/02/22-rdf-syntax-ns#"
   xmlns:svg="http://www.w3.org/2000/svg"
   xmlns="http://www.w3.org/2000/svg"
   xmlns:xlink="http://www.w3.org/1999/xlink"
   xmlns:sodipodi="http://sodipodi.sourceforge.net/DTD/sodipodi-0.dtd"
   xmlns:inkscape="http://www.inkscape.org/namespaces/inkscape"
   viewBox="0 0 48 48"
   id="svg2"
   version="1.1"
   inkscape:version="0.91 r13725"
   sodipodi:docname="yarock.svg">
  <metadata
     id="metadata52">
    <rdf:RDF>
      <cc:Work
         rdf:about="">
        <dc:format>image/svg+xml</dc:format>
        <dc:type
           rdf:resource="http://purl.org/dc/dcmitype/StillImage" />
        <dc:title></dc:title>
      </cc:Work>
    </rdf:RDF>
  </metadata>
  <sodipodi:namedview
     pagecolor="#ffffff"
     bordercolor="#666666"
     borderopacity="1"
     objecttolerance="10"
     gridtolerance="10"
     guidetolerance="10"
     inkscape:pageopacity="0"
     inkscape:pageshadow="2"
     inkscape:window-width="1280"
     inkscape:window-height="694"
     id="namedview50"
     showgrid="false"
     inkscape:zoom="4.9166667"
     inkscape:cx="-9.1525424"
     inkscape:cy="24"
     inkscape:window-x="0"
     inkscape:window-y="0"
     inkscape:window-maximized="1"
     inkscape:current-layer="svg2" />
  <defs
     id="defs4">
    <linearGradient
       xlink:href="#3"
       id="6"
       gradientUnits="userSpaceOnUse"
       x1="65.02"
       y1="-3.263"
       x2="64.51"
       y2="1.927"
       gradientTransform="matrix(0.99999,0,0,0.99999,-33.371,20.882)" />
    <linearGradient
       xlink:href="#3"
       id="5"
       x1="77.12"
       y1="7.597"
       x2="63.54"
       y2="-14.96"
       gradientUnits="userSpaceOnUse"
       gradientTransform="matrix(0.99999,0,0,0.99999,-33.371,20.882)" />
    <linearGradient
       xlink:href="#3"
       id="7"
       x1="49.5"
       y1="-3.527"
       x2="48.754"
       y2="1.729"
       gradientUnits="userSpaceOnUse"
       gradientTransform="matrix(0.99999,0,0,0.99999,-33.371,20.882)" />
    <linearGradient
       xlink:href="#3"
       id="4"
       x1="40.32"
       y1="8.923"
       x2="50.806"
       y2="-14.96"
       gradientUnits="userSpaceOnUse"
       gradientTransform="matrix(0.99999,0,0,0.99999,-33.371,20.882)" />
    <linearGradient
       id="3">
      <stop
         stop-color="#141414"
         id="stop11" />
      <stop
         offset="1"
         stop-color="#2d2d2f"
         id="stop13" />
    </linearGradient>
    <linearGradient
       gradientTransform="matrix(0.01206988,0,0,0.01085989,-67.146662,-78.637005)"
       gradientUnits="userSpaceOnUse"
       y2="10541.96"
       x2="7555.92"
       y1="11644.14"
       x1="7633.22"
       id="0">
      <stop
         stop-color="#fd3865"
         id="stop16" />
      <stop
         offset="1"
         stop-color="#ff6a45"
         id="stop18" />
    </linearGradient>
    <linearGradient
       xlink:href="#3"
       id="2"
       gradientUnits="userSpaceOnUse"
       x1="57.46"
       y1="2.997"
       x2="57.937"
       y2="-20.18"
       gradientTransform="matrix(0.99999,0,0,0.99999,-33.371,20.882)" />
    <linearGradient
       id="1"
       gradientUnits="userSpaceOnUse"
       y1="25.01"
       x2="0"
       y2="-19.542"
       gradientTransform="matrix(0.99999,0,0,0.99999,-33.371,20.882)">
      <stop
         stop-color="#d3d3d3"
         id="stop22" />
      <stop
         offset="1"
         stop-color="#fcf9f9"
         id="stop24" />
    </linearGradient>
  </defs>
  <g
     id="g4191"
     transform="matrix(1.0174229,0,0,1.0263653,-0.62343761,-1.2657359)">
    <path
       d="M 0.828658,22.366985 C 1.7946483,10.977099 11.374553,4.8971599 12.66154,4.4661642 c 0.664993,-0.4699953 0.98999,0.1539984 0.99299,0.8179918 0.087,5.311947 1.645983,2.5209748 3.318967,1.2819872 1.303987,-0.9649904 3.077969,-0.8619914 2.755972,1.6069839 -0.622994,3.1379689 -1.892981,9.4729049 0.98299,8.6049139 0.667993,-0.064 0.328997,0.554994 0.328997,0.554994 -1.213988,4.591955 -0.617994,9.553905 -0.359997,14.800852 -0.037,0.199998 -0.841991,0.946991 -1.95798,-2.875971 -0.757992,-2.595974 -6.97893,-7.112929 -9.7669023,0.440996 C 7.431592,33.84587 3.6756295,28.368925 4.1366249,25.039958 4.7426189,20.662002 2.7586387,21.053998 1.2016543,22.804981 0.57766051,23.701972 0.78665842,23.083978 0.82965799,22.367985"
       id="path32"
       style="fill:#6f7c91;fill-rule:evenodd"
       inkscape:connector-curvature="0" />
    <path
       d="M 24.138425,13.291076 C 24.949417,11.667092 26.747399,1.9331895 31.128355,2.4331845 27.204394,1.4671941 21.128455,1.4451944 16.807498,2.6131827 21.60245,2.479184 23.105435,11.653092 24.137425,13.291076"
       id="path34"
       inkscape:connector-curvature="0"
       style="fill:#6f7c91;fill-rule:evenodd" />
    <path
       d="M 47.388192,22.366985 C 46.422202,10.977099 36.842298,4.8971599 35.555311,4.4661642 c -0.664994,-0.4699953 -0.98999,0.1539984 -0.99299,0.8179918 -0.087,5.311947 -1.645984,2.5209748 -3.318967,1.2819872 -1.303987,-0.9649904 -3.077969,-0.8619914 -2.755973,1.6069839 0.622994,3.1359689 1.891981,9.4649049 -0.97699,8.6069139 -0.625994,-0.03 -0.352996,0.484995 -0.352996,0.484995 1.238987,4.610954 0.636993,9.596904 0.378996,14.869851 0.037,0.199998 0.841992,0.946991 1.95798,-2.875971 0.757993,-2.595974 6.978931,-7.112929 9.766903,0.440996 1.524984,4.146958 5.280947,-1.329987 4.819951,-4.658954 -0.605993,-4.377956 1.377987,-3.98596 2.934971,-2.234977 0.623994,0.896991 0.414996,0.278997 0.371996,-0.436996"
       id="path36"
       style="fill:#6f7c91;fill-rule:evenodd"
       inkscape:connector-curvature="0" />
    <path
       d="m 10.928557,18.043028 c -3.5159648,7.093929 9.178908,6.436936 9.396906,0.162999 0,0 -0.108999,-0.811992 -0.95999,-0.811992 l -7.486926,0 c -0.641993,-0.029 -0.95099,0.647993 -0.95099,0.647993"
       id="path38"
       style="fill:#939dac;fill-rule:evenodd"
       inkscape:connector-curvature="0" />
    <path
       d="m 37.248294,18.043028 c 3.515965,7.093929 -9.178908,6.436936 -9.396906,0.162999 0,0 0.108999,-0.811992 0.95999,-0.811992 l 7.486925,0 c 0.641994,-0.029 0.950991,0.647993 0.950991,0.647993"
       id="path42"
       style="fill:#939dac;fill-rule:evenodd"
       inkscape:connector-curvature="0" />
    <path
       d="m 17.330493,37.124838 c 0,0 -0.779992,-2.977971 1.739983,-2.316977 0,0 4.473955,2.408976 10.069899,-0.03 2.515975,-0.674993 1.753982,2.306977 1.753982,2.306977 -1.425985,4.422956 -6.770932,4.079959 -6.770932,4.079959 0,0 -5.341947,0.374996 -6.793932,-4.039959"
       id="path46"
       inkscape:connector-curvature="0"
       style="opacity:0.997;fill:#6f7c91;fill-rule:evenodd;stroke-width:28.21999931;stroke-linejoin:round" />
    <path
       d="m 19.465472,37.079838 c 0.802992,-0.854991 1.99198,-0.99399 3.071969,-0.496995 1.300987,0.598994 2.432976,0.476995 3.581964,0.03 1.761982,-0.686993 2.659973,-0.078 3.00997,0.285997 0.267997,0.253997 0.051,0.533994 0.051,0.533994 l -3.817961,9.371907 c -0.406996,1.138988 -1.415986,1.865981 -2.348977,0.316997 l -3.594964,-9.587905 c -0.1,-0.210997 0.049,-0.452995 0.049,-0.452995"
       id="path48"
       style="fill:#ff2a2a;fill-rule:evenodd"
       inkscape:connector-curvature="0" />
  </g>
</svg>
