<?xml version="1.0" encoding="UTF-8" standalone="no"?>
<svg
   xmlns:dc="http://purl.org/dc/elements/1.1/"
   xmlns:cc="http://creativecommons.org/ns#"
   xmlns:rdf="http://www.w3.org/1999/02/22-rdf-syntax-ns#"
   xmlns:svg="http://www.w3.org/2000/svg"
   xmlns="http://www.w3.org/2000/svg"
   xmlns:xlink="http://www.w3.org/1999/xlink"
   xmlns:sodipodi="http://sodipodi.sourceforge.net/DTD/sodipodi-0.dtd"
   xmlns:inkscape="http://www.inkscape.org/namespaces/inkscape"
   viewBox="0 0 48 48"
   id="svg2"
   version="1.1"
   inkscape:version="0.91 r13725"
   sodipodi:docname="zeroinstall.svg">
  <metadata
     id="metadata79">
    <rdf:RDF>
      <cc:Work
         rdf:about="">
        <dc:format>image/svg+xml</dc:format>
        <dc:type
           rdf:resource="http://purl.org/dc/dcmitype/StillImage" />
        <dc:title></dc:title>
      </cc:Work>
    </rdf:RDF>
  </metadata>
  <sodipodi:namedview
     pagecolor="#ffffff"
     bordercolor="#666666"
     borderopacity="1"
     objecttolerance="10"
     gridtolerance="10"
     guidetolerance="10"
     inkscape:pageopacity="0"
     inkscape:pageshadow="2"
     inkscape:window-width="1280"
     inkscape:window-height="694"
     id="namedview77"
     showgrid="false"
     inkscape:zoom="4.9166667"
     inkscape:cx="-42"
     inkscape:cy="24"
     inkscape:window-x="0"
     inkscape:window-y="0"
     inkscape:window-maximized="1"
     inkscape:current-layer="svg2" />
  <defs
     id="defs4">
    <linearGradient
       x1="0"
       x2="47"
       gradientUnits="userSpaceOnUse"
       id="linearGradient6">
      <stop
         stop-color="#a9a3d4"
         id="stop8" />
      <stop
         offset=".47"
         stop-color="#87baff"
         id="stop10" />
      <stop
         offset="1"
         stop-color="#89ec85"
         id="stop12" />
    </linearGradient>
    <linearGradient
       xlink:href="#4"
       id="5"
       y1="-15.394"
       x2="0"
       y2="-39.39"
       gradientUnits="userSpaceOnUse"
       gradientTransform="matrix(1.0463395,0,0,1.0463395,-17.736143,32.481084)" />
    <linearGradient
       id="6"
       gradientUnits="userSpaceOnUse"
       x1="209.55"
       y1="385.21"
       x2="202.58"
       y2=".063">
      <stop
         stop-color="#8645a3"
         id="stop16" />
      <stop
         offset="1"
         stop-color="#d164ff"
         id="stop18" />
    </linearGradient>
    <linearGradient
       id="4">
      <stop
         stop-color="#2b65bd"
         id="stop21" />
      <stop
         offset="1"
         stop-color="#64a3dc"
         id="stop23" />
    </linearGradient>
    <linearGradient
       gradientUnits="userSpaceOnUse"
       y2="-31.865"
       x2="-61.694"
       y1="-.386"
       x1="-61.865"
       id="3">
      <stop
         stop-color="#bbbec4"
         id="stop26" />
      <stop
         offset="1"
         stop-color="#dddfe2"
         id="stop28" />
    </linearGradient>
    <linearGradient
       id="0"
       gradientUnits="userSpaceOnUse"
       y1="5.383"
       x2="0"
       y2="2.392">
      <stop
         stop-color="#040404"
         id="stop31" />
      <stop
         offset="1"
         stop-color="#121212"
         stop-opacity=".908"
         id="stop33" />
    </linearGradient>
    <linearGradient
       id="2"
       gradientUnits="userSpaceOnUse"
       gradientTransform="matrix(0.35005,0,0,0.34422,-84.47,-33.606)"
       x1="10.09"
       x2="122.72">
      <stop
         stop-color="#1a1a1a"
         id="stop36" />
      <stop
         offset=".111"
         stop-color="#2c2c2e"
         id="stop38" />
      <stop
         offset=".29"
         stop-color="#2b2b2d"
         id="stop40" />
      <stop
         offset=".512"
         stop-color="#2a2b2d"
         id="stop42" />
      <stop
         offset=".752"
         stop-color="#2b2b2d"
         id="stop44" />
      <stop
         offset=".897"
         stop-color="#323232"
         id="stop46" />
      <stop
         offset="1"
         stop-color="#171717"
         id="stop48" />
    </linearGradient>
    <linearGradient
       xlink:href="#4"
       id="1"
       gradientUnits="userSpaceOnUse"
       gradientTransform="matrix(0.71218,0,0,1.40915,-381.68,-762.3)"
       y1="544.31"
       x2="0"
       y2="542.96" />
  </defs>
  <path
     d="m 44.170166,32.753226 c 1.116522,0 2.155061,0.363483 3.016984,0.984204 L 41.241588,3.5483143 C 40.893771,1.7819367 39.238786,0.35074628 37.544406,0.35074628 l -27.090716,0 c -1.6936772,0 -3.3494667,1.43183112 -3.6971823,3.19756802 L 0.81164707,33.73743 C 1.6735715,33.115962 2.7120095,32.753226 3.8285316,32.753226 l 40.3416344,0 0,0 z"
     id="path7"
     inkscape:connector-curvature="0"
     style="fill:#b7bec8" />
  <path
     d="m 3.8291331,47.852643 40.3417339,0 c 1.964814,0 3.557955,-1.69729 3.557955,-3.790312 l 0,-5.558716 c 0,-0.744373 -0.204279,-1.435889 -0.552196,-2.021371 -0.630582,-1.06194 -1.739685,-1.768405 -3.005759,-1.768405 l -40.3417339,0 c -1.2660738,0 -2.3751772,0.706998 -3.0058591,1.768405 -0.34781678,0.585482 -0.55209616,1.27764 -0.55209616,2.021371 l 0,5.558716 c 0,2.093662 1.59314156,3.790312 3.55795526,3.790312 z m 37.7560619,-7.086759 -7.749598,0 c -0.508493,0 -0.920161,-0.438337 -0.920161,-0.980252 0,-0.541594 0.411566,-0.980253 0.920161,-0.980253 l 7.749598,0 c 0.508495,0 0.920162,0.438551 0.920162,0.980253 0,0.541809 -0.412268,0.980252 -0.920162,0.980252 z"
     id="path9"
     inkscape:connector-curvature="0"
     style="fill:#373e48" />
  <path
     d="m 38.75022,39.148118 5.097067,-4.108056 3.964386,3.195155 -11.893157,9.585465 -11.893158,-9.585465 3.964386,-3.195155 5.097068,4.108056 0,-15.062873 5.663408,0 0,15.062873"
     id="path75"
     inkscape:connector-curvature="0"
     style="fill:#0b1728;fill-opacity:1" />
</svg>
