<?xml version="1.0" encoding="UTF-8" standalone="no"?>
<svg
   xmlns:dc="http://purl.org/dc/elements/1.1/"
   xmlns:cc="http://creativecommons.org/ns#"
   xmlns:rdf="http://www.w3.org/1999/02/22-rdf-syntax-ns#"
   xmlns:svg="http://www.w3.org/2000/svg"
   xmlns="http://www.w3.org/2000/svg"
   xmlns:sodipodi="http://sodipodi.sourceforge.net/DTD/sodipodi-0.dtd"
   xmlns:inkscape="http://www.inkscape.org/namespaces/inkscape"
   viewBox="0 0 48 48"
   id="svg2"
   version="1.1"
   inkscape:version="0.91 r13725"
   sodipodi:docname="8-ball-pool.svg">
  <metadata
     id="metadata26">
    <rdf:RDF>
      <cc:Work
         rdf:about="">
        <dc:format>image/svg+xml</dc:format>
        <dc:type
           rdf:resource="http://purl.org/dc/dcmitype/StillImage" />
        <dc:title></dc:title>
      </cc:Work>
    </rdf:RDF>
  </metadata>
  <sodipodi:namedview
     pagecolor="#ffffff"
     bordercolor="#666666"
     borderopacity="1"
     objecttolerance="10"
     gridtolerance="10"
     guidetolerance="10"
     inkscape:pageopacity="0"
     inkscape:pageshadow="2"
     inkscape:window-width="1280"
     inkscape:window-height="694"
     id="namedview24"
     showgrid="false"
     inkscape:zoom="4.9166667"
     inkscape:cx="-14.100955"
     inkscape:cy="24"
     inkscape:window-x="0"
     inkscape:window-y="0"
     inkscape:window-maximized="1"
     inkscape:current-layer="svg2" />
  <defs
     id="defs4">
    <linearGradient
       id="0"
       y1="546.78"
       x2="0"
       y2="500.8"
       gradientUnits="userSpaceOnUse"
       gradientTransform="matrix(1.04347,0,0,1.0482632,-402.31,-524.97511)">
      <stop
         stop-color="#212121"
         id="stop7" />
      <stop
         stop-color="#3f3f41"
         offset="1"
         id="stop9" />
    </linearGradient>
    <linearGradient
       id="1"
       y1="546.78"
       x2="0"
       y2="500.8"
       gradientUnits="userSpaceOnUse"
       gradientTransform="matrix(0.43478,0,0,0.43493,-153.63,-203.81)">
      <stop
         stop-color="#dce2ff"
         id="stop12" />
      <stop
         stop-color="#f8feff"
         offset="1"
         id="stop14" />
    </linearGradient>
  </defs>
  <path
     d="m 40.972684,43.603332 q -6.849807,3.88826 -16.868929,3.88826 -10.019123,0 -16.8689284,-3.88826 -6.84980711,-3.888256 -6.84980711,-9.62179 0,-3.756452 3.16931651,-6.590265 3.1693104,-2.899719 8.281106,-4.547287 l 0,-0.26361 Q 7.8482448,20.932813 5.292346,18.428511 2.7364475,15.858308 2.7364475,13.090395 q 0,-5.4699216 6.0319159,-9.0945687 6.0319246,-3.69054955 15.3353916,-3.69054955 9.303472,0 15.335389,3.69054955 6.031926,3.6246471 6.031926,9.0945687 0,2.767913 -2.555899,5.338116 -2.555899,2.504302 -6.543104,4.151869 l 0,0.26361 q 5.111797,1.647568 8.281114,4.547287 3.169309,2.833813 3.169309,6.590265 0,5.733534 -6.849806,9.62179 M 15.61817,18.099 q 3.373788,1.911177 8.485585,1.911177 5.111796,0 8.383345,-1.911177 3.373787,-1.977081 3.373787,-5.140409 0,-3.1633293 -3.373787,-5.0086043 -3.271549,-1.8452747 -8.383345,-1.8452747 -5.111797,0 -8.485585,1.8452747 -3.271546,1.845275 -3.271546,5.0086043 0,3.163328 3.271546,5.140409 m -1.533538,21.352465 q 4.089438,2.24069 10.019123,2.24069 5.929686,0 10.019122,-2.24069 4.089438,-2.240692 4.089438,-5.799435 0,-3.492843 -4.089438,-5.733533 -4.089436,-2.240691 -10.019122,-2.240691 -5.929685,0 -10.019123,2.240691 -4.0894357,2.24069 -4.0894357,5.733533 0,3.558743 4.0894357,5.799435"
     id="path22"
     style="fill:#1a1a1a;fill-opacity:0.99199997"
     inkscape:connector-curvature="0" />
  <path
     d="m 44.305077,45.969741 q -3.413659,1.826807 -8.406772,1.826807 -4.993114,0 -8.406772,-1.826807 -3.413659,-1.826803 -3.413659,-4.520568 0,-1.76488 1.579455,-3.096279 1.579453,-1.362364 4.12696,-2.136434 l 0,-0.123851 q -1.987054,-0.774071 -3.260808,-1.950657 -1.273753,-1.207549 -1.273753,-2.507987 0,-2.569912 3.006056,-4.272866 3.00606,-1.733917 7.642521,-1.733917 4.636463,0 7.642519,1.733917 3.006061,1.702954 3.006061,4.272866 0,1.300438 -1.273753,2.507987 -1.273754,1.176586 -3.260811,1.950657 l 0,0.123851 q 2.547507,0.77407 4.126963,2.136434 1.579451,1.331399 1.579451,3.096279 0,2.693765 -3.413658,4.520568 M 31.669442,33.987139 q 1.681356,0.897921 4.228863,0.897921 2.547506,0 4.17791,-0.897921 1.681355,-0.928885 1.681355,-2.415098 0,-1.486215 -1.681355,-2.353174 -1.630404,-0.866958 -4.17791,-0.866958 -2.547507,0 -4.228863,0.866958 -1.630402,0.866959 -1.630402,2.353174 0,1.486213 1.630402,2.415098 m -0.764251,10.031946 q 2.038006,1.052736 4.993114,1.052736 2.955109,0 4.993113,-1.052736 2.038006,-1.052735 2.038006,-2.724726 0,-1.641028 -2.038006,-2.693763 -2.038004,-1.052735 -4.993113,-1.052735 -2.955108,0 -4.993114,1.052735 -2.038004,1.052735 -2.038004,2.693763 0,1.671991 2.038004,2.724726"
     id="path22-2"
     style="fill:#808080;fill-opacity:0.99199997"
     inkscape:connector-curvature="0" />
</svg>
