<?xml version="1.0" encoding="UTF-8" standalone="no"?>
<!-- Generator: Adobe Illustrator 19.0.0, SVG Export Plug-In . SVG Version: 6.00 Build 0)  -->

<svg
   xmlns:dc="http://purl.org/dc/elements/1.1/"
   xmlns:cc="http://creativecommons.org/ns#"
   xmlns:rdf="http://www.w3.org/1999/02/22-rdf-syntax-ns#"
   xmlns:svg="http://www.w3.org/2000/svg"
   xmlns="http://www.w3.org/2000/svg"
   xmlns:sodipodi="http://sodipodi.sourceforge.net/DTD/sodipodi-0.dtd"
   xmlns:inkscape="http://www.inkscape.org/namespaces/inkscape"
   version="1.1"
   id="Capa_1"
   x="0px"
   y="0px"
   viewBox="0 0 59 59"
   style="enable-background:new 0 0 59 59;"
   xml:space="preserve"
   inkscape:version="0.91 r13725"
   sodipodi:docname="accessories-camera.svg"><metadata
     id="metadata67"><rdf:RDF><cc:Work
         rdf:about=""><dc:format>image/svg+xml</dc:format><dc:type
           rdf:resource="http://purl.org/dc/dcmitype/StillImage" /><dc:title></dc:title></cc:Work></rdf:RDF></metadata><defs
     id="defs65" /><sodipodi:namedview
     pagecolor="#ffffff"
     bordercolor="#666666"
     borderopacity="1"
     objecttolerance="10"
     gridtolerance="10"
     guidetolerance="10"
     inkscape:pageopacity="0"
     inkscape:pageshadow="2"
     inkscape:window-width="1280"
     inkscape:window-height="694"
     id="namedview63"
     showgrid="false"
     inkscape:zoom="4"
     inkscape:cx="-3.375"
     inkscape:cy="29.5"
     inkscape:window-x="0"
     inkscape:window-y="0"
     inkscape:window-maximized="1"
     inkscape:current-layer="Capa_1" /><polygon
     style="fill:#38454F;"
     points="54.5,21 41.5,21 41.5,18 17.5,18 17.5,21 4.5,21 4.5,53 17.5,53 17.5,57 41.5,57 41.5,53   54.5,53 "
     id="polygon3" /><circle
     style="fill:#546A79;"
     cx="29.5"
     cy="7"
     r="3"
     id="circle23" /><g
     id="g4195"><circle
       id="circle5"
       r="16"
       cy="38"
       cx="29.5"
       style="fill:#50508A;stroke:#283238;stroke-width:4;stroke-linecap:round;stroke-miterlimit:10;" /><g
       id="g7"><path
         id="path9"
         d="M9.5,38c0-5.846,2.516-11.093,6.518-14.745C16.894,22.456,16.322,21,15.137,21L4.461,21   C3.378,21,2.5,21.878,2.5,22.961v28.078C2.5,52.122,3.378,53,4.461,53h8.749c1.121,0,1.7-1.304,0.978-2.162   C11.266,47.366,9.5,42.893,9.5,38z"
         style="fill:#546A79;" /><path
         id="path11"
         d="M43.863,21c-1.186,0-1.757,1.456-0.881,2.255C46.984,26.907,49.5,32.154,49.5,38   c0,4.893-1.766,9.366-4.687,12.838C44.091,51.696,44.669,53,45.79,53h8.749c1.083,0,1.961-0.878,1.961-1.961V22.961   c0-1.083-0.878-1.961-1.961-1.961H43.863z"
         style="fill:#546A79;" /></g><circle
       id="circle13"
       r="8"
       cy="38"
       cx="29.5"
       style="fill:#434C6D;stroke:#7383BF;stroke-width:2;stroke-linecap:round;stroke-miterlimit:10;" /><rect
       id="rect15"
       height="5"
       width="8"
       style="fill:#283238;"
       y="16"
       x="5.5" /><path
       id="path17"
       d="M41.5,53c-0.552,0-1,0.447-1,1v3h-22v-3c0-0.553-0.448-1-1-1s-1,0.447-1,1v4c0,0.553,0.448,1,1,1h24  c0.552,0,1-0.447,1-1v-4C42.5,53.447,42.052,53,41.5,53z"
       style="fill:#AFB6BB;" /><circle
       id="circle19"
       r="7"
       cy="7"
       cx="29.5"
       style="fill:#38454F;" /><path
       id="path21"
       d="M29.5,14c-0.695,0-1.366-0.105-2-0.294V18h4v-4.294C30.866,13.895,30.195,14,29.5,14z"
       style="fill:#546A79;" /><path
       id="path25"
       d="M41.5,16h-24c-0.552,0-1,0.447-1,1v3c0,0.553,0.448,1,1,1s1-0.447,1-1v-2h22v2c0,0.553,0.448,1,1,1  s1-0.447,1-1v-3C42.5,16.447,42.052,16,41.5,16z"
       style="fill:#AFB6BB;" /><rect
       id="rect27"
       height="3"
       width="7"
       style="fill:#283238;"
       y="18"
       x="46.5" /><circle
       id="circle29"
       r="3"
       cy="36"
       cx="29.5"
       style="fill:#71C3A9;" /><circle
       id="circle31"
       r="2"
       cy="47"
       cx="29.5"
       style="fill:#D75E72;" /></g><g
     id="g33" /><g
     id="g35" /><g
     id="g37" /><g
     id="g39" /><g
     id="g41" /><g
     id="g43" /><g
     id="g45" /><g
     id="g47" /><g
     id="g49" /><g
     id="g51" /><g
     id="g53" /><g
     id="g55" /><g
     id="g57" /><g
     id="g59" /><g
     id="g61" /></svg>