<?xml version="1.0" encoding="UTF-8" standalone="no"?>
<svg
   xmlns:dc="http://purl.org/dc/elements/1.1/"
   xmlns:cc="http://creativecommons.org/ns#"
   xmlns:rdf="http://www.w3.org/1999/02/22-rdf-syntax-ns#"
   xmlns:svg="http://www.w3.org/2000/svg"
   xmlns="http://www.w3.org/2000/svg"
   xmlns:xlink="http://www.w3.org/1999/xlink"
   xmlns:sodipodi="http://sodipodi.sourceforge.net/DTD/sodipodi-0.dtd"
   xmlns:inkscape="http://www.inkscape.org/namespaces/inkscape"
   viewBox="0 0 48 48"
   id="svg2"
   version="1.1"
   inkscape:version="0.91 r13725"
   sodipodi:docname="AdobeIndesign.svg">
  <metadata
     id="metadata48">
    <rdf:RDF>
      <cc:Work
         rdf:about="">
        <dc:format>image/svg+xml</dc:format>
        <dc:type
           rdf:resource="http://purl.org/dc/dcmitype/StillImage" />
        <dc:title></dc:title>
      </cc:Work>
    </rdf:RDF>
  </metadata>
  <sodipodi:namedview
     pagecolor="#ffffff"
     bordercolor="#666666"
     borderopacity="1"
     objecttolerance="10"
     gridtolerance="10"
     guidetolerance="10"
     inkscape:pageopacity="0"
     inkscape:pageshadow="2"
     inkscape:window-width="1280"
     inkscape:window-height="694"
     id="namedview46"
     showgrid="false"
     inkscape:zoom="4.9166667"
     inkscape:cx="-45.661017"
     inkscape:cy="24"
     inkscape:window-x="0"
     inkscape:window-y="0"
     inkscape:window-maximized="1"
     inkscape:current-layer="svg2" />
  <defs
     id="defs4">
    <clipPath
       id="clipPath6">
      <path
         d="m7 1023.36h1v1h-1z"
         id="path8" />
    </clipPath>
    <linearGradient
       xlink:href="#0"
       id="6"
       x1="400.47"
       y1="547.89"
       x2="401.27"
       y2="521.8"
       gradientUnits="userSpaceOnUse" />
    <linearGradient
       xlink:href="#0"
       id="8"
       x1="393.18"
       y1="546.67"
       x2="393.12"
       y2="516.79"
       gradientUnits="userSpaceOnUse" />
    <linearGradient
       xlink:href="#0"
       id="7"
       x1="394.48"
       y1="545.87"
       x2="395.39"
       y2="517.89"
       gradientUnits="userSpaceOnUse" />
    <linearGradient
       xlink:href="#0"
       id="5"
       x1="406.25"
       y1="545.77"
       x2="405.27"
       y2="519.92"
       gradientUnits="userSpaceOnUse" />
    <linearGradient
       xlink:href="#0"
       id="4"
       x1="405.05"
       y1="547.34"
       x2="403.98"
       y2="516.96"
       gradientUnits="userSpaceOnUse" />
    <linearGradient
       id="0"
       gradientUnits="userSpaceOnUse"
       y1="1052.61"
       x2="0"
       y2="1003.81">
      <stop
         stop-color="#ea0e79"
         id="stop16" />
      <stop
         offset="1"
         stop-color="#fa4ea9"
         id="stop18" />
    </linearGradient>
    <linearGradient
       xlink:href="#0"
       id="9"
       x1="399.4"
       y1="549.58"
       x2="397.79"
       y2="516.81"
       gradientUnits="userSpaceOnUse" />
    <linearGradient
       xlink:href="#0"
       id="1"
       gradientUnits="userSpaceOnUse"
       y1="61.831"
       x2="0"
       y2="-.203" />
    <linearGradient
       xlink:href="#0"
       id="3"
       x1="404.62"
       y1="545.61"
       x2="405.91"
       y2="519.89"
       gradientUnits="userSpaceOnUse" />
    <linearGradient
       xlink:href="#0"
       id="2"
       x1="401.1"
       y1="543.73"
       x2="401.02"
       y2="518.26"
       gradientUnits="userSpaceOnUse" />
  </defs>
  <g
     style="fill:#a02c2c;fill-rule:evenodd;stroke-width:0.49599999;stroke-linecap:round;stroke-linejoin:round;stroke:none"
     id="g28"
     transform="matrix(1.9371154,0,0,1.9451847,-752.02607,-1010.6072)">
    <path
       inkscape:connector-curvature="0"
       style="stroke:none;fill:#a02c2c"
       id="path30"
       d="m 400.45,543.89 c 4.644,-3.427 5.21,-7.04 0.165,-10.906 -5.898,4.307 -3.738,7.688 -0.165,10.906" />
    <path
       inkscape:connector-curvature="0"
       style="stroke:none;fill:#a02c2c"
       id="path32"
       d="m 400.45,519.87 c 4.644,3.427 5.21,7.04 0.165,10.906 -5.898,-4.307 -3.738,-7.688 -0.165,-10.906" />
    <path
       inkscape:connector-curvature="0"
       style="stroke:none;fill:#a02c2c"
       id="path34"
       d="m 412.68,531.73 c -3.427,4.644 -7.04,5.21 -10.906,0.165 4.307,-5.898 7.688,-3.738 10.906,-0.165" />
    <path
       inkscape:connector-curvature="0"
       style="stroke:none;fill:#a02c2c"
       id="path36"
       d="m 388.64,531.81 c 3.427,4.644 7.04,5.21 10.906,0.165 -4.307,-5.898 -7.688,-3.738 -10.906,-0.165" />
    <path
       inkscape:connector-curvature="0"
       style="stroke:none;fill:#a02c2c"
       id="path38"
       d="m 399.99,531.12 c -5.758,0.399 -8.529,-1.987 -7.191,-8.2 7.283,-0.54 7.828,3.434 7.191,8.2" />
    <path
       inkscape:connector-curvature="0"
       style="stroke:none;fill:#a02c2c"
       id="path40"
       d="m 392.66,540.9 c 5.758,0.399 8.529,-1.987 7.191,-8.2 -7.283,-0.54 -7.828,3.434 -7.191,8.2" />
    <path
       inkscape:connector-curvature="0"
       style="stroke:none;fill:#a02c2c"
       id="path42"
       d="m 401.41,531.18 c 5.758,0.399 8.529,-1.987 7.191,-8.2 -7.283,-0.54 -7.828,3.434 -7.191,8.2" />
    <path
       inkscape:connector-curvature="0"
       style="stroke:none;fill:#a02c2c"
       id="path44"
       d="m 408.73,540.92 c -5.758,0.399 -8.529,-1.987 -7.191,-8.2 7.283,-0.54 7.828,3.434 7.191,8.2" />
  </g>
</svg>
