<?xml version="1.0" encoding="UTF-8" standalone="no"?>
<svg
   xmlns:dc="http://purl.org/dc/elements/1.1/"
   xmlns:cc="http://creativecommons.org/ns#"
   xmlns:rdf="http://www.w3.org/1999/02/22-rdf-syntax-ns#"
   xmlns:svg="http://www.w3.org/2000/svg"
   xmlns="http://www.w3.org/2000/svg"
   xmlns:sodipodi="http://sodipodi.sourceforge.net/DTD/sodipodi-0.dtd"
   xmlns:inkscape="http://www.inkscape.org/namespaces/inkscape"
   viewBox="0 0 48 48"
   id="svg2"
   version="1.1"
   inkscape:version="0.91 r13725"
   sodipodi:docname="AdobePrelude.svg">
  <metadata
     id="metadata23">
    <rdf:RDF>
      <cc:Work
         rdf:about="">
        <dc:format>image/svg+xml</dc:format>
        <dc:type
           rdf:resource="http://purl.org/dc/dcmitype/StillImage" />
        <dc:title></dc:title>
      </cc:Work>
    </rdf:RDF>
  </metadata>
  <sodipodi:namedview
     pagecolor="#ffffff"
     bordercolor="#666666"
     borderopacity="1"
     objecttolerance="10"
     gridtolerance="10"
     guidetolerance="10"
     inkscape:pageopacity="0"
     inkscape:pageshadow="2"
     inkscape:window-width="1280"
     inkscape:window-height="694"
     id="namedview21"
     showgrid="false"
     inkscape:zoom="4.9166667"
     inkscape:cx="-45.661017"
     inkscape:cy="24"
     inkscape:window-x="0"
     inkscape:window-y="0"
     inkscape:window-maximized="1"
     inkscape:current-layer="svg2" />
  <defs
     id="defs4">
    <clipPath
       id="clipPath6">
      <path
         d="m7 1023.36h1v1h-1z"
         id="path8" />
    </clipPath>
    <linearGradient
       id="0"
       gradientUnits="userSpaceOnUse"
       x1="25.627"
       y1="46.983"
       x2="25.22"
       y2="-.203">
      <stop
         stop-color="#03adc9"
         id="stop11" />
      <stop
         stop-color="#01e1f1"
         offset="1"
         id="stop13" />
    </linearGradient>
  </defs>
  <path
     style="fill:#a02c2c;fill-rule:evenodd;stroke-width:1.31700003"
     inkscape:connector-curvature="0"
     id="path19"
     d="m 3.5777302,47.943031 41.2443018,0 c 1.756188,0 3.194259,-1.366558 3.194259,-3.037948 l 0,-41.6188407 c 0,-1.6672416 -1.438071,-3.03794681 -3.194259,-3.03794681 l -41.2443018,0 c -1.7605479,0 -3.19426,1.37070521 -3.19426,3.03794681 l 0,41.6188407 c 0,1.67139 1.4358911,3.037948 3.19426,3.037948 M 40.224562,3.9601904 c 0,-0.5039059 0.433601,-0.9103469 0.958715,-0.9103469 l 2.993801,0 c 0.529472,0 0.956535,0.406441 0.956535,0.9103469 l 0,2.9342629 c 0,0.5039058 -0.427063,0.910347 -0.956535,0.910347 l -2.993801,0 c -0.525114,0 -0.958715,-0.4064412 -0.958715,-0.910347 l 0,-2.9342629 m 0,7.4652626 c 0,-0.503906 0.433601,-0.912421 0.958715,-0.912421 l 2.993801,0 c 0.529472,0 0.956535,0.408515 0.956535,0.912421 l 0,2.934263 c 0,0.503906 -0.427063,0.914495 -0.956535,0.914495 l -2.993801,0 c -0.525114,0 -0.958715,-0.410589 -0.958715,-0.914495 l 0,-2.934263 m 0,7.469409 c 0,-0.503904 0.433601,-0.914493 0.958715,-0.914493 l 2.993801,0 c 0.529472,0 0.956535,0.410589 0.956535,0.914493 l 0,2.936338 c 0,0.499758 -0.427063,0.910347 -0.956535,0.910347 l -2.993801,0 c -0.525114,0 -0.958715,-0.410589 -0.958715,-0.910347 l 0,-2.936338 m 0,7.465263 c 0,-0.503904 0.433601,-0.914493 0.958715,-0.914493 l 2.993801,0 c 0.529472,0 0.956535,0.410589 0.956535,0.914493 l 0,2.936338 c 0,0.503906 -0.427063,0.910347 -0.956535,0.910347 l -2.993801,0 c -0.525114,0 -0.958715,-0.408515 -0.958715,-0.910347 l 0,-2.936338 m 0,7.465263 c 0,-0.503904 0.433601,-0.910347 0.958715,-0.910347 l 2.993801,0 c 0.529472,0 0.956535,0.406443 0.956535,0.910347 l 0,2.936338 c 0,0.501832 -0.427063,0.908274 -0.956535,0.908274 l -2.993801,0 c -0.525114,0 -0.958715,-0.408517 -0.958715,-0.908274 l 0,-2.936338 m 0,7.465263 c 0,-0.50183 0.433601,-0.910347 0.958715,-0.910347 l 2.993801,0 c 0.529472,0 0.956535,0.410591 0.956535,0.910347 l 0,2.940486 c 0,0.497684 -0.427063,0.908273 -0.956535,0.908273 l -2.993801,0 c -0.525114,0 -0.958715,-0.410589 -0.958715,-0.908273 l 0,-2.940486 M 11.456614,6.1645161 c 0,-0.5039043 0.431422,-0.9103471 0.960892,-0.9103471 l 23.564748,0 c 0.525114,0 0.956536,0.4064428 0.956536,0.9103471 l 0,14.5365269 c 0,0.499758 -0.431422,0.914494 -0.956536,0.914494 l -23.564748,0 c -0.52947,0 -0.960892,-0.414736 -0.960892,-0.914494 0,0 0,-14.5365269 0,-14.5365269 m 0,22.4061569 c 0,-0.499757 0.431422,-0.908273 0.960892,-0.908273 l 23.564748,0 c 0.525114,0 0.956536,0.408516 0.956536,0.908273 l 0,13.431252 c 0,0.501832 -0.431422,0.910347 -0.956536,0.910347 l -23.564748,0 c -0.52947,0 -0.960892,-0.410588 -0.960892,-0.910347 0,0 0,-13.431252 0,-13.431252 M 3.2617912,3.9622636 c 0,-0.5039043 0.4314207,-0.9103469 0.9587121,-0.9103469 l 2.9959821,0 c 0.5251136,0 0.9543553,0.4064426 0.9543553,0.9103469 l 0,2.9342629 c 0,0.5039058 -0.4292417,0.9103469 -0.9543553,0.9103469 l -2.9959821,0 c -0.5272914,0 -0.9587121,-0.4064411 -0.9587121,-0.9103469 0,0 0,-2.9342629 0,-2.9342629 m 0,7.4652634 c 0,-0.503905 0.4314207,-0.912421 0.9587121,-0.912421 l 2.9959821,0 c 0.5251136,0 0.9543553,0.408516 0.9543553,0.912421 l 0,2.934262 c 0,0.503906 -0.4292417,0.914495 -0.9543553,0.914495 l -2.9959821,0 c -0.5272914,0 -0.9587121,-0.410589 -0.9587121,-0.914495 0,0 0,-2.934262 0,-2.934262 m 0,7.469411 c 0,-0.503906 0.4314207,-0.914496 0.9587121,-0.914496 l 2.9959821,0 c 0.5251136,0 0.9543553,0.41059 0.9543553,0.914496 l 0,2.936335 c 0,0.499759 -0.4292417,0.910348 -0.9543553,0.910348 l -2.9959821,0 c -0.5272914,0 -0.9587121,-0.410589 -0.9587121,-0.910348 0,0 0,-2.936335 0,-2.936335 m 0,7.465263 c 0,-0.503906 0.4314207,-0.914496 0.9587121,-0.914496 l 2.9959821,0 c 0.5251136,0 0.9543553,0.41059 0.9543553,0.914496 l 0,2.936335 c 0,0.503906 -0.4292417,0.910348 -0.9543553,0.910348 l -2.9959821,0 c -0.5272914,0 -0.9587121,-0.408515 -0.9587121,-0.910348 0,0 0,-2.936335 0,-2.936335 m 0,7.465263 c 0,-0.503906 0.4314207,-0.910347 0.9587121,-0.910347 l 2.9959821,0 c 0.5251136,0 0.9543553,0.406441 0.9543553,0.910347 l 0,2.936335 c 0,0.501833 -0.4292417,0.908274 -0.9543553,0.908274 l -2.9959821,0 c -0.5272914,0 -0.9587121,-0.408515 -0.9587121,-0.908274 0,0 0,-2.936335 0,-2.936335 m 0,7.465263 c 0,-0.501832 0.4314207,-0.910347 0.9587121,-0.910347 l 2.9959821,0 c 0.5251136,0 0.9543553,0.410588 0.9543553,0.910347 l 0,2.940483 c 0,0.497685 -0.4292417,0.908274 -0.9543553,0.908274 l -2.9959821,0 c -0.5272914,0 -0.9587121,-0.410589 -0.9587121,-0.908274 0,0 0,-2.940483 0,-2.940483" />
</svg>
