<?xml version="1.0" encoding="UTF-8" standalone="no"?>
<svg
   xmlns:dc="http://purl.org/dc/elements/1.1/"
   xmlns:cc="http://creativecommons.org/ns#"
   xmlns:rdf="http://www.w3.org/1999/02/22-rdf-syntax-ns#"
   xmlns:svg="http://www.w3.org/2000/svg"
   xmlns="http://www.w3.org/2000/svg"
   xmlns:sodipodi="http://sodipodi.sourceforge.net/DTD/sodipodi-0.dtd"
   xmlns:inkscape="http://www.inkscape.org/namespaces/inkscape"
   viewBox="0 0 48 48"
   id="svg2"
   version="1.1"
   inkscape:version="0.91 r13725"
   sodipodi:docname="AdobeDreamweaver.svg">
  <metadata
     id="metadata23">
    <rdf:RDF>
      <cc:Work
         rdf:about="">
        <dc:format>image/svg+xml</dc:format>
        <dc:type
           rdf:resource="http://purl.org/dc/dcmitype/StillImage" />
        <dc:title></dc:title>
      </cc:Work>
    </rdf:RDF>
  </metadata>
  <sodipodi:namedview
     pagecolor="#ffffff"
     bordercolor="#666666"
     borderopacity="1"
     objecttolerance="10"
     gridtolerance="10"
     guidetolerance="10"
     inkscape:pageopacity="0"
     inkscape:pageshadow="2"
     inkscape:window-width="1280"
     inkscape:window-height="694"
     id="namedview21"
     showgrid="false"
     inkscape:zoom="4.9166667"
     inkscape:cx="-45.661017"
     inkscape:cy="24"
     inkscape:window-x="0"
     inkscape:window-y="0"
     inkscape:window-maximized="1"
     inkscape:current-layer="svg2" />
  <defs
     id="defs4">
    <clipPath
       id="clipPath6">
      <path
         d="m7 1023.36h1v1h-1z"
         id="path8" />
    </clipPath>
    <linearGradient
       id="0"
       gradientUnits="userSpaceOnUse"
       y1="61.831"
       x2="0"
       y2="-.203">
      <stop
         stop-color="#00ca00"
         id="stop11" />
      <stop
         stop-color="#65ff65"
         offset="1"
         id="stop13" />
    </linearGradient>
  </defs>
  <path
     style="color:#566060;fill:#a02c2c;fill-rule:evenodd"
     inkscape:connector-curvature="0"
     id="path19"
     d="M 24.20339,0.06779661 A 23.728814,23.932204 0 0 0 0.47457627,24 23.728814,23.932204 0 0 0 24.20339,47.932203 23.728814,23.932204 0 0 0 47.932203,24 23.728814,23.932204 0 0 0 24.20339,0.06779661 M 33.101695,15.025424 30.135593,24 A 5.9322034,5.9830508 0 0 1 24.20339,29.983051 L 15.305085,32.974576 18.271186,24 a 5.9322034,5.9830508 0 0 1 5.932204,-5.983051 l 8.898305,-2.991525 M 24.20339,21.008475 A 2.9661017,2.9915254 0 0 0 21.237288,24 2.9661017,2.9915254 0 0 0 24.20339,26.991525 2.9661017,2.9915254 0 0 0 27.169491,24 2.9661017,2.9915254 0 0 0 24.20339,21.008475" />
</svg>
