<?xml version="1.0" encoding="UTF-8" standalone="no"?>
<svg
   xmlns:dc="http://purl.org/dc/elements/1.1/"
   xmlns:cc="http://creativecommons.org/ns#"
   xmlns:rdf="http://www.w3.org/1999/02/22-rdf-syntax-ns#"
   xmlns:svg="http://www.w3.org/2000/svg"
   xmlns="http://www.w3.org/2000/svg"
   xmlns:sodipodi="http://sodipodi.sourceforge.net/DTD/sodipodi-0.dtd"
   xmlns:inkscape="http://www.inkscape.org/namespaces/inkscape"
   viewBox="0 0 48 48"
   id="svg2"
   version="1.1"
   inkscape:version="0.91 r13725"
   sodipodi:docname="akregator.svg">
  <metadata
     id="metadata29">
    <rdf:RDF>
      <cc:Work
         rdf:about="">
        <dc:format>image/svg+xml</dc:format>
        <dc:type
           rdf:resource="http://purl.org/dc/dcmitype/StillImage" />
        <dc:title></dc:title>
      </cc:Work>
    </rdf:RDF>
  </metadata>
  <sodipodi:namedview
     pagecolor="#ffffff"
     bordercolor="#666666"
     borderopacity="1"
     objecttolerance="10"
     gridtolerance="10"
     guidetolerance="10"
     inkscape:pageopacity="0"
     inkscape:pageshadow="2"
     inkscape:window-width="1280"
     inkscape:window-height="694"
     id="namedview27"
     showgrid="false"
     inkscape:zoom="4.9166667"
     inkscape:cx="-9.1525424"
     inkscape:cy="24"
     inkscape:window-x="0"
     inkscape:window-y="0"
     inkscape:window-maximized="1"
     inkscape:current-layer="svg2" />
  <defs
     id="defs4">
    <linearGradient
       y1="545.8"
       x2="0"
       y2="517.8"
       gradientUnits="userSpaceOnUse"
       id="linearGradient6">
      <stop
         stop-color="#3889e9"
         id="stop8" />
      <stop
         offset="1"
         stop-color="#5ea5fb"
         id="stop10" />
    </linearGradient>
    <linearGradient
       id="0"
       gradientUnits="userSpaceOnUse"
       y1="545.14"
       x2="0"
       y2="518.14">
      <stop
         stop-color="#f15f19"
         id="stop13" />
      <stop
         offset="1"
         stop-color="#fbb521"
         id="stop15" />
    </linearGradient>
  </defs>
  <path
     style="fill:#d45500"
     inkscape:connector-curvature="0"
     id="path25"
     d="m 4.757069,0.41242345 c 3.9763472,0 7.804453,0.51027829 11.483976,1.52998435 3.679524,1.0205545 7.123946,2.4640806 10.333272,4.3314267 3.209065,1.8673443 6.130542,4.1067995 8.763658,6.7175225 2.633372,2.611062 4.891783,5.507437 6.775144,8.689128 1.883362,3.181945 3.339269,6.597159 4.368581,10.24539 1.029308,3.64823 1.543108,7.443948 1.543108,11.386308 0,1.24501 -0.444638,2.308117 -1.334084,3.190251 -0.889447,0.882137 -1.961928,1.322654 -3.217617,1.322654 -1.255775,0 -2.327914,-0.440686 -3.217958,-1.322654 -0.889275,-0.88188 -1.333999,-1.945241 -1.333999,-3.190251 0,-3.112777 -0.409927,-6.11316 -1.229613,-9.001057 C 36.871851,31.424073 35.72012,28.725959 34.238564,26.218734 32.756156,23.711339 30.977946,21.428736 28.90223,19.371521 26.826771,17.313798 24.525102,15.550374 21.996285,14.080571 19.467467,12.610769 16.747151,11.46951 13.83448,10.656964 10.921809,9.8442511 7.8962908,9.4378936 4.757069,9.4378936 3.5013803,9.4378936 2.4291554,8.9969523 1.5393681,8.1150719 0.64992117,7.2331893 0.20519768,6.1697442 0.20519768,4.9247341 c 0,-1.2450099 0.44472349,-2.3081157 1.33417042,-3.1903356 C 2.4287273,0.85260089 3.5012938,0.41165966 4.7569839,0.41165966 m 0,17.06717334 c 3.5923215,0 6.9674991,0.683194 10.1238171,2.04874 3.156662,1.366389 5.912542,3.216272 8.266958,5.550326 2.354502,2.334477 4.220681,5.066413 5.597937,8.195803 1.378111,3.130155 2.066312,6.475948 2.066312,10.038566 0,1.24501 -0.444638,2.308116 -1.333997,3.190251 -0.889447,0.881883 -1.961929,1.322654 -3.21796,1.322654 -1.255688,0 -2.327914,-0.440687 -3.217616,-1.322654 -0.889447,-0.88188 -1.334168,-1.945241 -1.334168,-3.190251 0,-2.317271 -0.444723,-4.495867 -1.33417,-6.536128 -0.889446,-2.040263 -2.101533,-3.821149 -3.636266,-5.343506 -1.534729,-1.521761 -3.331062,-2.723456 -5.389337,-3.605424 -2.0577631,-0.881713 -4.2553891,-1.322653 -6.5921947,-1.322653 -1.2556874,0 -2.3279136,-0.440856 -3.2177022,-1.322737 -0.88944563,-0.881966 -1.33416776,-1.945412 -1.33416776,-3.190422 0,-1.24501 0.44472213,-2.308115 1.33416776,-3.190337 0.889447,-0.88205 1.9620148,-1.322991 3.2177022,-1.322991 m 8.3712577,23.706715 c 0,0.899257 -0.165673,1.729178 -0.497045,2.490102 -0.331361,0.761093 -0.784804,1.426573 -1.360328,1.997287 -0.575524,0.570375 -1.255689,1.019708 -2.0404951,1.34876 -0.7848038,0.32846 -1.61321,0.492562 -2.485216,0.492562 -0.9068866,0 -1.744012,-0.164264 -2.5113761,-0.492562 C 3.4657313,46.692476 2.7942872,46.242464 2.2187631,45.672174 1.6432389,45.101544 1.1894547,44.435811 0.85843248,43.674887 0.52707134,42.913963 0.36139009,42.084042 0.36139009,41.184785 c 0,-0.864337 0.16567315,-1.685868 0.49704239,-2.464081 0.33136252,-0.778472 0.78480642,-1.45285 1.36033062,-2.023227 0.5755241,-0.570627 1.2469682,-1.020554 2.0143337,-1.348758 0.7673641,-0.32846 1.6044895,-0.492816 2.5113761,-0.492816 0.872006,0 1.7004122,0.164361 2.485216,0.492816 0.7848061,0.328628 1.4653141,0.778131 2.0404951,1.348758 0.575524,0.570459 1.029308,1.24501 1.360328,2.023227 0.331365,0.777962 0.497045,1.599236 0.497045,2.464081 z" />
</svg>
