<?xml version="1.0" encoding="UTF-8" standalone="no"?>
<svg
   xmlns:dc="http://purl.org/dc/elements/1.1/"
   xmlns:cc="http://creativecommons.org/ns#"
   xmlns:rdf="http://www.w3.org/1999/02/22-rdf-syntax-ns#"
   xmlns:svg="http://www.w3.org/2000/svg"
   xmlns="http://www.w3.org/2000/svg"
   xmlns:sodipodi="http://sodipodi.sourceforge.net/DTD/sodipodi-0.dtd"
   xmlns:inkscape="http://www.inkscape.org/namespaces/inkscape"
   viewBox="0 0 48 48"
   id="svg2"
   version="1.1"
   inkscape:version="0.91 r13725"
   sodipodi:docname="alien-arena.svg">
  <metadata
     id="metadata23">
    <rdf:RDF>
      <cc:Work
         rdf:about="">
        <dc:format>image/svg+xml</dc:format>
        <dc:type
           rdf:resource="http://purl.org/dc/dcmitype/StillImage" />
        <dc:title></dc:title>
      </cc:Work>
    </rdf:RDF>
  </metadata>
  <sodipodi:namedview
     pagecolor="#ffffff"
     bordercolor="#666666"
     borderopacity="1"
     objecttolerance="10"
     gridtolerance="10"
     guidetolerance="10"
     inkscape:pageopacity="0"
     inkscape:pageshadow="2"
     inkscape:window-width="1280"
     inkscape:window-height="694"
     id="namedview21"
     showgrid="false"
     inkscape:zoom="4.9166667"
     inkscape:cx="-9.1525424"
     inkscape:cy="24"
     inkscape:window-x="0"
     inkscape:window-y="0"
     inkscape:window-maximized="1"
     inkscape:current-layer="svg2" />
  <defs
     id="defs4">
    <linearGradient
       y1="545.8"
       x2="0"
       y2="517.8"
       gradientUnits="userSpaceOnUse"
       id="linearGradient6">
      <stop
         stop-color="#3889e9"
         id="stop8" />
      <stop
         offset="1"
         stop-color="#5ea5fb"
         id="stop10" />
    </linearGradient>
    <linearGradient
       id="0"
       gradientUnits="userSpaceOnUse"
       y1="545.14"
       x2="0"
       y2="518.14">
      <stop
         stop-color="#30cf41"
         id="stop13" />
      <stop
         offset="1"
         stop-color="#47f383"
         id="stop15" />
    </linearGradient>
  </defs>
  <path
     d="m 0.11149332,18.733346 c 0,12.155993 12.69736368,28.969609 23.91094168,28.969609 10.556868,0 23.910942,-16.812844 23.910942,-28.969609 0,-12.155992 -10.705446,-18.28610871 -23.910942,-18.28610871 -13.205496,0 -23.91094168,6.13011671 -23.91094168,18.28610871 M 30.234921,27.722744 c 2.919533,-2.275919 6.99301,-3.103281 10.752,-2.484015 0.79439,2.930627 -0.267239,6.10618 -3.186475,8.381713 -2.919532,2.275918 -6.99301,3.10328 -10.751998,2.484014 -0.794391,-2.930705 0.267238,-6.10618 3.186473,-8.381712 z M 7.0579494,25.238729 c 3.7593856,-0.619266 7.8329626,0.208327 10.7519986,2.484015 2.919532,2.275918 3.980864,5.451394 3.186475,8.381712 C 17.237037,36.723722 13.163459,35.896129 10.244424,33.620442 7.3248911,31.344446 6.2635584,28.169047 7.0579494,25.238729"
     id="path19"
     inkscape:connector-curvature="0"
     style="fill:#195c28" />
</svg>
