<?xml version="1.0" encoding="UTF-8" standalone="no"?>
<svg
   xmlns:dc="http://purl.org/dc/elements/1.1/"
   xmlns:cc="http://creativecommons.org/ns#"
   xmlns:rdf="http://www.w3.org/1999/02/22-rdf-syntax-ns#"
   xmlns:svg="http://www.w3.org/2000/svg"
   xmlns="http://www.w3.org/2000/svg"
   xmlns:sodipodi="http://sodipodi.sourceforge.net/DTD/sodipodi-0.dtd"
   xmlns:inkscape="http://www.inkscape.org/namespaces/inkscape"
   viewBox="0 0 48 48"
   id="svg2"
   version="1.1"
   inkscape:version="0.91 r13725"
   sodipodi:docname="applications-engineering.svg">
  <metadata
     id="metadata31">
    <rdf:RDF>
      <cc:Work
         rdf:about="">
        <dc:format>image/svg+xml</dc:format>
        <dc:type
           rdf:resource="http://purl.org/dc/dcmitype/StillImage" />
        <dc:title></dc:title>
      </cc:Work>
    </rdf:RDF>
  </metadata>
  <sodipodi:namedview
     pagecolor="#ffffff"
     bordercolor="#666666"
     borderopacity="1"
     objecttolerance="10"
     gridtolerance="10"
     guidetolerance="10"
     inkscape:pageopacity="0"
     inkscape:pageshadow="2"
     inkscape:window-width="1280"
     inkscape:window-height="694"
     id="namedview29"
     showgrid="false"
     inkscape:zoom="4.9166667"
     inkscape:cx="-42.305085"
     inkscape:cy="24"
     inkscape:window-x="0"
     inkscape:window-y="0"
     inkscape:window-maximized="1"
     inkscape:current-layer="svg2" />
  <defs
     id="defs4">
    <linearGradient
       y1="545.8"
       x2="0"
       y2="517.8"
       gradientUnits="userSpaceOnUse"
       id="linearGradient6">
      <stop
         stop-color="#3889e9"
         id="stop8" />
      <stop
         offset="1"
         stop-color="#5ea5fb"
         id="stop10" />
    </linearGradient>
    <linearGradient
       id="0"
       gradientUnits="userSpaceOnUse"
       x1="400.51"
       y1="546.07"
       x2="400.7"
       y2="517.77"
       gradientTransform="matrix(1.71429,0,0,1.71429,-662.7,-887.66)">
      <stop
         stop-color="#2f3f47"
         id="stop13" />
      <stop
         offset="1"
         stop-color="#425963"
         id="stop15" />
    </linearGradient>
  </defs>
  <circle
     style="fill:#5ea5fb;fill-opacity:0"
     id="circle21"
     r="24.000059"
     cy="23.999401"
     cx="23.993158" />
  <g
     style="fill:#808080;fill-opacity:0.847"
     id="g23"
     transform="matrix(0.04030739,-0.04160298,0.04160299,0.04030738,-1.1590618,24.370923)">
    <path
       inkscape:connector-curvature="0"
       id="path25"
       d="M 562.04,0 C 391.35,0 220.65,0 49.96,0 22.369,0 0.001,22.368 0.001,49.959 c 0,170.69 0,341.39 0,512.08 0,27.591 22.368,49.959 49.959,49.959 170.69,0 341.39,0 512.08,0 27.591,0 49.959,-22.368 49.959,-49.959 0,-170.69 0,-341.39 0,-512.08 C 611.999,22.368 589.631,0 562.04,0 M 49.96,37.469 c 6.898,0 12.49,5.592 12.49,12.49 0,6.898 -5.592,12.49 -12.49,12.49 -6.898,0 -12.49,-5.592 -12.49,-12.49 0,-6.898 5.592,-12.49 12.49,-12.49 z m 0,537.06 c -6.898,0 -12.49,-5.592 -12.49,-12.49 0,-6.898 5.592,-12.49 12.49,-12.49 6.898,0 12.49,5.592 12.49,12.49 0,6.898 -5.592,12.49 -12.49,12.49 M 306,554.545 c -137.27,0 -248.55,-111.28 -248.55,-248.55 0,-137.27 111.28,-248.55 248.55,-248.55 137.27,0 248.55,111.28 248.55,248.55 0,137.27 -111.28,248.55 -248.55,248.55 m 256.04,19.984 c -6.898,0 -12.49,-5.592 -12.49,-12.49 0,-6.898 5.592,-12.49 12.49,-12.49 6.898,0 12.49,5.592 12.49,12.49 0,6.898 -5.592,12.49 -12.49,12.49 z m 0,-512.08 c -6.898,0 -12.49,-5.592 -12.49,-12.49 0,-6.898 5.592,-12.49 12.49,-12.49 6.898,0 12.49,5.592 12.49,12.49 0,6.898 -5.592,12.49 -12.49,12.49"
       style="fill:#808080" />
    <path
       inkscape:connector-curvature="0"
       id="path27"
       d="m 524.98,260.92 c -1.238,-6.01 -3.819,-10.307 -8.554,-14.218 -37.84,-31.27 -90.32,-29.17 -157.43,6.305 -4.38,-4.38 -9.121,-8.08 -14.434,-11.27 46.26,-41.499 88.42,-58.921 126.5,-52.27 11.225,1.961 18.998,-10.901 12.04,-19.926 -15.437,-20.03 -33.01,-36.35 -54.13,-50.26 -5.13,-3.378 -9.989,-4.586 -16.1,-4 -48.869,4.645 -84.49,43.24 -106.86,115.78 -6.195,0 -12.165,0.734 -18.18,2.237 3.365,-62.05 20.86,-104.19 52.49,-126.41 9.324,-6.55 5.725,-21.14 -5.574,-22.607 -25.08,-3.251 -49.04,-2.363 -73.813,2.737 -6.01,1.238 -10.307,3.819 -14.218,8.554 -31.27,37.84 -29.17,90.32 6.305,157.43 -4.38,4.38 -8.08,9.121 -11.27,14.434 -41.499,-46.26 -58.921,-88.42 -52.27,-126.5 1.961,-11.225 -10.901,-18.998 -19.926,-12.04 -20.03,15.437 -36.35,33.01 -50.26,54.13 -3.378,5.13 -4.586,9.989 -4,16.1 4.645,48.869 43.24,84.49 115.78,106.86 0,6.195 0.734,12.165 2.237,18.18 -62.05,-3.365 -104.19,-20.86 -126.41,-52.49 -6.55,-9.324 -21.14,-5.725 -22.607,5.574 -3.251,25.08 -2.363,49.04 2.737,73.813 1.238,6.01 3.819,10.307 8.554,14.218 37.84,31.27 90.32,29.17 157.43,-6.305 4.38,4.38 9.121,8.08 14.434,11.27 -46.26,41.499 -88.42,58.921 -126.5,52.27 -11.225,-1.961 -18.998,10.901 -12.04,19.926 15.437,20.04 33.01,36.35 54.13,50.26 5.13,3.378 9.989,4.586 16.1,4 48.869,-4.645 84.49,-43.24 106.86,-115.78 6.195,0 12.165,-0.734 18.18,-2.238 -3.365,62.05 -20.86,104.19 -52.49,126.41 -9.324,6.55 -5.725,21.14 5.574,22.607 25.08,3.251 49.04,2.363 73.813,-2.737 6.01,-1.238 10.307,-3.819 14.218,-8.554 31.27,-37.84 29.17,-90.32 -6.305,-157.43 4.38,-4.38 8.08,-9.121 11.27,-14.434 41.499,46.26 58.921,88.42 52.27,126.5 -1.961,11.225 10.901,18.998 19.926,12.04 20.04,-15.437 36.35,-33.01 50.26,-54.13 3.378,-5.13 4.586,-9.989 4,-16.1 -4.645,-48.869 -43.24,-84.49 -115.78,-106.86 0,-6.195 -0.734,-12.165 -2.237,-18.18 62.05,3.365 104.19,20.86 126.41,52.49 6.55,9.324 21.14,5.725 22.607,-5.574 3.251,-25.08 2.363,-49.04 -2.737,-73.811 M 306,368.451 c -34.489,0 -62.45,-27.96 -62.45,-62.45 0,-34.489 27.96,-62.45 62.45,-62.45 34.489,0 62.45,27.96 62.45,62.45 0,34.489 -27.96,62.45 -62.45,62.45"
       style="fill:#808080" />
  </g>
</svg>
