<?xml version="1.0" encoding="UTF-8" standalone="no"?>
<svg
   xmlns:dc="http://purl.org/dc/elements/1.1/"
   xmlns:cc="http://creativecommons.org/ns#"
   xmlns:rdf="http://www.w3.org/1999/02/22-rdf-syntax-ns#"
   xmlns:svg="http://www.w3.org/2000/svg"
   xmlns="http://www.w3.org/2000/svg"
   xmlns:sodipodi="http://sodipodi.sourceforge.net/DTD/sodipodi-0.dtd"
   xmlns:inkscape="http://www.inkscape.org/namespaces/inkscape"
   viewBox="0 0 48 48"
   id="svg2"
   version="1.1"
   inkscape:version="0.91 r13725"
   sodipodi:docname="applications-other.svg">
  <metadata
     id="metadata19">
    <rdf:RDF>
      <cc:Work
         rdf:about="">
        <dc:format>image/svg+xml</dc:format>
        <dc:type
           rdf:resource="http://purl.org/dc/dcmitype/StillImage" />
        <dc:title></dc:title>
      </cc:Work>
    </rdf:RDF>
  </metadata>
  <sodipodi:namedview
     pagecolor="#ffffff"
     bordercolor="#666666"
     borderopacity="1"
     objecttolerance="10"
     gridtolerance="10"
     guidetolerance="10"
     inkscape:pageopacity="0"
     inkscape:pageshadow="2"
     inkscape:window-width="1280"
     inkscape:window-height="694"
     id="namedview17"
     showgrid="false"
     inkscape:zoom="4.9166667"
     inkscape:cx="-45.661017"
     inkscape:cy="24"
     inkscape:window-x="0"
     inkscape:window-y="0"
     inkscape:window-maximized="1"
     inkscape:current-layer="svg2" />
  <defs
     id="defs4">
    <linearGradient
       id="0"
       gradientUnits="userSpaceOnUse"
       y1="12.529"
       x2="0"
       y2="-36.27"
       gradientTransform="matrix(0.99999,0,0,0.99999,11.629,35.722)">
      <stop
         stop-color="#0a80fd"
         id="stop7" />
      <stop
         offset="1"
         stop-color="#56c5fa"
         id="stop9" />
    </linearGradient>
  </defs>
  <path
     style="fill:#0066ff;fill-opacity:0.85199998"
     inkscape:connector-curvature="0"
     id="path15"
     d="m 4.9243601,45.101263 c 1.4264177,-1.493781 2.9147873,-3.04542 3.3076549,-3.446918 0.3928699,-0.401498 0.7162308,-0.771437 0.7192522,-0.822281 0.00459,-0.09116 -4.1749883,-3.355748 -4.3638691,-3.406593 -0.055903,-0.01402 -0.1375051,0.106953 -0.184344,0.27351 -0.1027565,0.373446 -1.4037524,6.022463 -2.1290498,9.241457 -0.1541255,0.68728 -0.1571475,0.878386 -0.010618,0.878386 0.036271,0 1.2330035,-1.222026 2.6594212,-2.717561 m 39.4833469,2.415999 c 0.760051,-1.155401 1.184652,-3.655558 1.003327,-5.896229 -0.205501,-2.549246 -0.803871,-4.314784 -1.950746,-5.755968 -0.850712,-1.069492 -1.569966,-1.302675 -2.393479,-0.774941 -1.284381,0.822279 -2.500764,1.695406 -2.682087,1.921577 -0.53944,0.675007 -0.503175,1.774303 0.107281,3.18042 0.616503,1.420145 1.287401,2.231908 2.780305,3.362763 1.539745,1.165921 2.165313,2.058334 2.502274,3.569646 0.10879,0.485654 0.219101,0.68728 0.380781,0.692541 0.03023,0 0.143549,-0.13325 0.252343,-0.299809 M 11.057651,37.034492 c 2.913275,-6.02597 6.628912,-13.50189 8.937772,-17.979727 0.503175,-0.976569 0.915687,-1.804111 0.915687,-1.839176 0,-0.112207 -4.333648,-3.203213 -4.448485,-3.173407 -0.116356,0.0298 -3.990645,7.596895 -6.7407297,13.167015 -0.8718667,1.770797 -2.168334,4.277967 -2.8800328,5.584149 -0.7116963,1.306181 -1.4022393,2.572039 -1.5336991,2.81399 -0.137505,0.254223 -0.2100343,0.471627 -0.1692357,0.517213 0.1949224,0.217403 4.5633249,3.464451 4.6328328,3.441658 0.042304,-0.01402 0.6210355,-1.153648 1.2874005,-2.531715 m 28.310754,-2.140735 c 1.125721,-0.743385 2.113938,-1.423651 2.197045,-1.513068 0.146573,-0.159549 0.142039,-0.180587 -0.273498,-1.013387 -0.232699,-0.468121 -0.800847,-1.61125 -1.260202,-2.54048 -0.459356,-0.929229 -0.888488,-1.70242 -0.953464,-1.716446 -0.172259,-0.03857 -4.425822,2.840289 -4.456043,3.015615 -0.02418,0.145523 2.210645,4.716282 2.458454,5.028362 0.07102,0.08941 0.155637,0.147275 0.185858,0.126231 0.03023,-0.01929 0.97764,-0.643449 2.103361,-1.386832 m 8.476907,-4.830244 c 0.03173,-0.06662 0.04987,-1.470989 0.0408,-3.124318 l -0.01661,-3.005095 -4.786961,-0.02279 c -4.178012,-0.02104 -4.783936,-0.007 -4.762782,0.110456 0.0136,0.07364 0.679967,1.490273 1.480814,3.147109 l 1.455128,3.013863 0.315806,0.0263 c 0.173768,0.01402 1.642495,0.01402 3.265346,0 2.333038,-0.02104 2.963139,-0.05259 3.008471,-0.147277 M 32.707761,29.933774 c 0.01209,-0.04559 -0.593837,-1.372806 -1.349354,-2.950744 l -1.373532,-2.866589 -5.837126,0 -5.83713,0 -1.378063,2.896395 c -0.758539,1.591964 -1.361442,2.927951 -1.34029,2.968276 0.05439,0.103437 17.086785,0.05611 17.115495,-0.04734 M 7.6321345,29.437597 c 0.1556371,-0.313833 0.8008494,-1.607743 1.4324617,-2.875354 0.6316112,-1.26761 1.1498968,-2.347621 1.1498968,-2.398466 0,-0.06311 -1.6122734,-0.08591 -4.9002868,-0.07013 l -4.90028596,0.02279 -0.0256879,0.639941 c -0.0135999,0.352407 0,1.677876 0.0287105,2.945487 l 0.0543973,2.305543 3.43760411,0 3.4376052,0 z M 36.508015,28.27343 c 1.999099,-1.276376 1.967367,-1.253583 1.967367,-1.416639 0,-0.159549 -1.053192,-2.319568 -4.628299,-9.497432 C 29.91688,9.4714207 28.185233,5.9929424 27.035336,3.6751278 25.902059,1.3906235 25.633096,0.96458037 25.146542,0.67529163 24.76274,0.44912051 24.15077,0.41405522 23.754879,0.59464152 23.37712,0.7682147 22.048921,1.6658858 21.696848,1.9849797 c -0.563615,0.5119532 -0.778182,1.5235882 -0.489575,2.3213227 0.155637,0.4295507 0.04987,0.215652 3.76701,7.6635196 5.853751,11.725835 8.862222,17.637842 9.048078,17.783363 0.04533,0.03507 0.26141,-0.05084 0.477487,-0.19286 0.216079,-0.142015 1.119679,-0.720591 2.008167,-1.286895 M 22.050432,14.778552 c 0.932309,-1.804109 1.068301,-2.119698 1.12572,-2.603598 0.119371,-1.00462 -0.336961,-1.67612 -1.775466,-2.6228841 -0.81596,-0.536499 -0.94742,-0.5943555 -1.426417,-0.6259146 -0.652766,-0.042079 -0.976128,0.1157162 -1.426417,0.7048124 -0.336961,0.4400683 -1.640984,3.1330833 -1.637961,3.3837993 0,0.08942 0.811424,0.720592 2.144159,1.669109 1.178606,0.838061 2.168334,1.527093 2.198555,1.5306 0.03021,0 0.388336,-0.643448 0.797827,-1.434171" />
</svg>
