<?xml version="1.0" encoding="UTF-8" standalone="no"?>
<svg
   xmlns:dc="http://purl.org/dc/elements/1.1/"
   xmlns:cc="http://creativecommons.org/ns#"
   xmlns:rdf="http://www.w3.org/1999/02/22-rdf-syntax-ns#"
   xmlns:svg="http://www.w3.org/2000/svg"
   xmlns="http://www.w3.org/2000/svg"
   xmlns:sodipodi="http://sodipodi.sourceforge.net/DTD/sodipodi-0.dtd"
   xmlns:inkscape="http://www.inkscape.org/namespaces/inkscape"
   viewBox="0 0 48 48"
   id="svg2"
   version="1.1"
   inkscape:version="0.91 r13725"
   sodipodi:docname="aptik.svg">
  <metadata
     id="metadata19">
    <rdf:RDF>
      <cc:Work
         rdf:about="">
        <dc:format>image/svg+xml</dc:format>
        <dc:type
           rdf:resource="http://purl.org/dc/dcmitype/StillImage" />
        <dc:title></dc:title>
      </cc:Work>
    </rdf:RDF>
  </metadata>
  <sodipodi:namedview
     pagecolor="#ffffff"
     bordercolor="#666666"
     borderopacity="1"
     objecttolerance="10"
     gridtolerance="10"
     guidetolerance="10"
     inkscape:pageopacity="0"
     inkscape:pageshadow="2"
     inkscape:window-width="1280"
     inkscape:window-height="694"
     id="namedview17"
     showgrid="false"
     inkscape:zoom="4.9166667"
     inkscape:cx="24"
     inkscape:cy="24"
     inkscape:window-x="0"
     inkscape:window-y="0"
     inkscape:window-maximized="1"
     inkscape:current-layer="svg2" />
  <defs
     id="defs4">
    <linearGradient
       id="0"
       y1="22.13"
       x2="0"
       y2="-25.872"
       gradientUnits="userSpaceOnUse"
       gradientTransform="matrix(0.99999,0,0,0.99999,-38.37,25.882)">
      <stop
         stop-color="#1365f4"
         id="stop7" />
      <stop
         offset="1"
         stop-color="#05b2fc"
         id="stop9" />
    </linearGradient>
  </defs>
  <path
     style="fill:#5f8dd3;fill-opacity:0.85"
     inkscape:connector-curvature="0"
     id="path15"
     d="M 22.071653,0.23427164 2.3672763,10.519919 11.891612,15.481132 22.06981,10.182156 Z m 4.101854,0 0,9.93939736 10.165307,5.310857 9.531702,-4.961212 z m -2.05369,11.85056036 -11.428833,5.955831 -0.0073,11.915058 11.421464,5.962622 11.428834,-5.950741 0,-11.915058 -11.41594,-5.962621 m -23.80438946,1.639593 -0.007328,20.537351 9.52433539,-4.961214 0,-10.628502 -9.51881002,-4.954424 m 47.60509582,0 -9.524334,4.961213 0,10.621713 9.518808,4.961214 0.0073,-20.537351 m -36.032595,18.772157 -9.5317028,4.973093 19.7099018,10.285649 0,-9.939399 z m 24.447203,0 -10.172675,5.298975 0,9.9394 19.697009,-10.268677 z" />
</svg>
