<?xml version="1.0" encoding="UTF-8" standalone="no"?>
<svg
   xmlns:dc="http://purl.org/dc/elements/1.1/"
   xmlns:cc="http://creativecommons.org/ns#"
   xmlns:rdf="http://www.w3.org/1999/02/22-rdf-syntax-ns#"
   xmlns:svg="http://www.w3.org/2000/svg"
   xmlns="http://www.w3.org/2000/svg"
   xmlns:sodipodi="http://sodipodi.sourceforge.net/DTD/sodipodi-0.dtd"
   xmlns:inkscape="http://www.inkscape.org/namespaces/inkscape"
   viewBox="0 0 48 48"
   id="svg2"
   version="1.1"
   inkscape:version="0.91 r13725"
   sodipodi:docname="bless-48x48.svg">
  <metadata
     id="metadata35">
    <rdf:RDF>
      <cc:Work
         rdf:about="">
        <dc:format>image/svg+xml</dc:format>
        <dc:type
           rdf:resource="http://purl.org/dc/dcmitype/StillImage" />
        <dc:title></dc:title>
      </cc:Work>
    </rdf:RDF>
  </metadata>
  <sodipodi:namedview
     pagecolor="#ffffff"
     bordercolor="#666666"
     borderopacity="1"
     objecttolerance="10"
     gridtolerance="10"
     guidetolerance="10"
     inkscape:pageopacity="0"
     inkscape:pageshadow="2"
     inkscape:window-width="1280"
     inkscape:window-height="694"
     id="namedview33"
     showgrid="false"
     inkscape:zoom="4.9166667"
     inkscape:cx="-9.1525424"
     inkscape:cy="24"
     inkscape:window-x="0"
     inkscape:window-y="0"
     inkscape:window-maximized="1"
     inkscape:current-layer="svg2" />
  <defs
     id="defs4">
    <linearGradient
       gradientTransform="matrix(.49433 0 0 .4778 86.64 13.1)"
       gradientUnits="userSpaceOnUse"
       y2="-26.05"
       x2="-125.19"
       y1="73.5"
       x1="-123.97"
       id="0">
      <stop
         stop-color="#97a9b1"
         id="stop7" />
      <stop
         offset="1"
         stop-color="#cfdce1"
         id="stop9" />
    </linearGradient>
  </defs>
  <g
     transform="matrix(0.21153547,0,0,0.18148259,-3.7486717,0.26795578)"
     id="g13"
     style="fill-opacity:0.82300002;fill:#374548">
    <path
       d="m 37.984,161.7 c 0,4.142 3.358,7.5 7.5,7.5 4.142,0 7.5,-3.358 7.5,-7.5 l 0,-58.63 c 0,-3.034 -1.827,-5.768 -4.63,-6.929 -2.801,-1.16 -6.03,-0.519 -8.173,1.626 l -19,19 c -2.929,2.929 -2.929,7.678 0,10.606 2.929,2.929 7.678,2.929 10.606,0 l 6.201,-6.201 0,40.521"
       id="path15"
       inkscape:connector-curvature="0"
       style="fill:#374548" />
    <path
       d="m 82.28,31.807 6.201,-6.201 0,40.521 c 0,4.142 3.358,7.5 7.5,7.5 4.142,0 7.5,-3.358 7.5,-7.5 l 0,-58.63 c 0,-3.034 -1.827,-5.768 -4.63,-6.929 -2.801,-1.16 -6.03,-0.519 -8.173,1.626 l -19,19 c -2.929,2.929 -2.929,7.678 0,10.606 2.929,2.929 7.678,2.929 10.606,0"
       id="path17"
       inkscape:connector-curvature="0"
       style="fill:#374548" />
    <path
       d="m 167.81,96.14 c -2.801,-1.16 -6.03,-0.519 -8.173,1.626 l -19,19 c -2.929,2.929 -2.929,7.678 0,10.606 2.929,2.929 7.678,2.929 10.606,0 l 6.201,-6.201 0,40.521 c 0,4.142 3.358,7.5 7.5,7.5 4.142,0 7.5,-3.358 7.5,-7.5 l 0,-58.63 c 0,-3.03 -1.827,-5.768 -4.63,-6.929"
       id="path19"
       inkscape:connector-curvature="0"
       style="fill:#374548" />
    <path
       d="m 135.22,188.44 c -2.801,-1.16 -6.03,-0.519 -8.173,1.626 l -19,19 c -2.929,2.929 -2.929,7.678 0,10.606 2.929,2.929 7.678,2.929 10.606,0 l 6.201,-6.201 0,22.2 c 0,4.142 3.358,7.5 7.5,7.5 4.142,0 7.5,-3.358 7.5,-7.5 l 0,-40.3 c 0,-3.034 -1.827,-5.768 -4.63,-6.929"
       id="path21"
       inkscape:connector-curvature="0"
       style="fill:#374548" />
    <path
       d="m 122.5,143.42 0,-22.07 c 0,-14.213 -11.563,-25.776 -25.776,-25.776 l -0.369,0 c -14.213,0 -25.776,11.563 -25.776,25.776 l 0,22.07 c 0,14.213 11.563,25.776 25.776,25.776 l 0.369,0 c 14.213,0 25.776,-11.563 25.776,-25.776 m -15,0 c 0,5.942 -4.834,10.776 -10.776,10.776 l -0.369,0 c -5.942,0 -10.776,-4.834 -10.776,-10.776 l 0,-22.07 c 0,-5.942 4.834,-10.776 10.776,-10.776 l 0.369,0 c 5.942,0 10.776,4.834 10.776,10.776 l 0,22.07"
       id="path23"
       inkscape:connector-curvature="0"
       style="fill:#374548" />
    <path
       d="m 216.75,95.57 -0.369,0 c -14.213,0 -25.776,11.563 -25.776,25.776 l 0,22.07 c 0,14.213 11.563,25.776 25.776,25.776 l 0.369,0 c 14.213,0 25.776,-11.563 25.776,-25.776 l 0,-22.07 c 0,-14.212 -11.563,-25.776 -25.776,-25.776 m 10.776,47.851 c 0,5.942 -4.834,10.776 -10.776,10.776 l -0.369,0 c -5.942,0 -10.776,-4.834 -10.776,-10.776 l 0,-22.07 c 0,-5.942 4.834,-10.776 10.776,-10.776 l 0.369,0 c 5.942,0 10.776,4.834 10.776,10.776 l 0,22.07"
       id="path25"
       inkscape:connector-curvature="0"
       style="fill:#374548" />
    <path
       d="m 147.22,0 -0.369,0 c -14.213,0 -25.776,11.563 -25.776,25.776 l 0,22.07 c 0,14.213 11.563,25.776 25.776,25.776 l 0.369,0 c 4.142,0 7.5,-3.358 7.5,-7.5 0,-4.142 -3.358,-7.5 -7.5,-7.5 l -0.369,0 c -5.942,0 -10.776,-4.834 -10.776,-10.776 l 0,-22.07 C 136.075,19.834 140.909,15 146.851,15 l 0.369,0 c 5.942,0 10.776,4.834 10.776,10.776 0,4.142 3.358,7.5 7.5,7.5 4.142,0 7.5,-3.358 7.5,-7.5 C 172.9961,11.563 161.434,0 147.22,0"
       id="path27"
       inkscape:connector-curvature="0"
       style="fill:#374548" />
    <path
       d="m 216.75,0 -0.369,0 c -14.213,0 -25.776,11.563 -25.776,25.776 l 0,22.07 c 0,14.213 11.563,25.776 25.776,25.776 l 0.369,0 c 14.213,0 25.776,-11.563 25.776,-25.776 l 0,-22.07 C 242.526,11.563 230.963,0 216.75,0 m 10.776,47.851 c 0,5.942 -4.834,10.776 -10.776,10.776 l -0.369,0 c -5.942,0 -10.776,-4.834 -10.776,-10.776 l 0,-22.07 c 0,-5.942 4.834,-10.776 10.776,-10.776 l 0.369,0 c 5.942,0 10.776,4.834 10.776,10.776 l 0,22.07 z"
       id="path29"
       inkscape:connector-curvature="0"
       style="fill:#374548" />
    <path
       d="m 61.682,187.87 -0.369,0 c -14.213,0 -25.776,11.563 -25.776,25.776 l 0,22.07 c 0,14.213 11.563,25.776 25.776,25.776 l 0.369,0 c 14.213,0 25.776,-11.563 25.776,-25.776 l 0,-22.07 C 87.4581,199.434 75.896,187.87 61.682,187.87 m 10.777,47.851 c 0,5.942 -4.834,10.776 -10.776,10.776 l -0.369,0 c -5.942,0 -10.776,-4.834 -10.776,-10.776 l 0,-22.07 c 0,-5.942 4.834,-10.776 10.776,-10.776 l 0.369,0 c 5.942,0 10.776,4.834 10.776,10.776 l 0,22.07 z"
       id="path31"
       inkscape:connector-curvature="0"
       style="fill:#374548" />
  </g>
</svg>
