<?xml version="1.0" encoding="UTF-8" standalone="no"?>
<svg
   xmlns:dc="http://purl.org/dc/elements/1.1/"
   xmlns:cc="http://creativecommons.org/ns#"
   xmlns:rdf="http://www.w3.org/1999/02/22-rdf-syntax-ns#"
   xmlns:svg="http://www.w3.org/2000/svg"
   xmlns="http://www.w3.org/2000/svg"
   xmlns:sodipodi="http://sodipodi.sourceforge.net/DTD/sodipodi-0.dtd"
   xmlns:inkscape="http://www.inkscape.org/namespaces/inkscape"
   viewBox="0 0 128 128"
   id="svg2"
   version="1.1"
   inkscape:version="0.91 r13725"
   width="100%"
   height="100%"
   sodipodi:docname="cantata.svg">
  <metadata
     id="metadata61">
    <rdf:RDF>
      <cc:Work
         rdf:about="">
        <dc:format>image/svg+xml</dc:format>
        <dc:type
           rdf:resource="http://purl.org/dc/dcmitype/StillImage" />
        <dc:title></dc:title>
      </cc:Work>
    </rdf:RDF>
  </metadata>
  <sodipodi:namedview
     pagecolor="#ffffff"
     bordercolor="#666666"
     borderopacity="1"
     objecttolerance="10"
     gridtolerance="10"
     guidetolerance="10"
     inkscape:pageopacity="0"
     inkscape:pageshadow="2"
     inkscape:window-width="1280"
     inkscape:window-height="694"
     id="namedview59"
     showgrid="false"
     inkscape:zoom="2.4583333"
     inkscape:cx="8.4023057"
     inkscape:cy="61.308944"
     inkscape:window-x="0"
     inkscape:window-y="0"
     inkscape:window-maximized="1"
     inkscape:current-layer="svg2" />
  <defs
     id="defs4">
    <linearGradient
       id="linearGradient3764"
       x1="1"
       x2="47"
       gradientUnits="userSpaceOnUse"
       gradientTransform="matrix(0,-1,1,0,-1.5e-6,47.999998)">
      <stop
         stop-color="#e4e4e4"
         stop-opacity="1"
         id="stop7" />
      <stop
         offset="1"
         stop-color="#eee"
         stop-opacity="1"
         id="stop9" />
    </linearGradient>
    <clipPath
       id="clipPath-725264839">
      <g
         transform="translate(0,-1004.3622)"
         id="g12">
        <path
           d="m -24,13 c 0,1.105 -0.672,2 -1.5,2 -0.828,0 -1.5,-0.895 -1.5,-2 0,-1.105 0.672,-2 1.5,-2 0.828,0 1.5,0.895 1.5,2 z"
           transform="matrix(15.333333,0,0,11.5,414.99999,878.8622)"
           id="path14"
           inkscape:connector-curvature="0"
           style="fill:#1890d0" />
      </g>
    </clipPath>
    <clipPath
       id="clipPath-730514797">
      <g
         transform="translate(0,-1004.3622)"
         id="g17">
        <path
           d="m -24,13 c 0,1.105 -0.672,2 -1.5,2 -0.828,0 -1.5,-0.895 -1.5,-2 0,-1.105 0.672,-2 1.5,-2 0.828,0 1.5,0.895 1.5,2 z"
           transform="matrix(15.333333,0,0,11.5,414.99999,878.8622)"
           id="path19"
           inkscape:connector-curvature="0"
           style="fill:#1890d0" />
      </g>
    </clipPath>
  </defs>
  <g
     id="g33"
     transform="translate(0,80)" />
  <g
     id="g3"
     transform="matrix(0.22677487,0,0,0.23822068,0.81357063,-2.7282573)"
     style="fill:#2c5aa0">
    <g
       id="g5"
       style="fill:#2c5aa0">
      <g
         id="g7"
         style="fill:#2c5aa0">
        <path
           d="m 153.704,364.272 c -29.4,0 -53.317,23.91 -53.317,53.302 0,29.399 23.919,53.319 53.317,53.319 29.393,0 53.301,-23.92 53.301,-53.319 0.002,-29.392 -23.909,-53.302 -53.301,-53.302 z"
           id="path9"
           inkscape:connector-curvature="0"
           style="fill:#2c5aa0" />
        <path
           d="m 499.843,12.801 -26.596,0 c -11.695,0 -21.177,19.798 -21.177,44.235 0,24.437 9.48,44.244 21.177,44.244 l 38.005,0 0,53.162 c 0,5.759 4.398,10.335 9.992,10.965 l 0,176.317 c 0,81.174 -66.032,147.207 -147.206,147.207 l -66.661,0 0,-71.246 68.578,0 c 40.818,0 74.034,-33.217 74.034,-74.033 l 0,-58.614 c 5.583,-0.648 9.974,-5.204 9.974,-10.965 l 0,-53.17 0,-25.945 0,-2.724 c 0,-33.029 -26.779,-59.811 -59.811,-59.811 l -26.597,0 c -11.694,0 -21.178,19.807 -21.178,44.244 0,24.437 9.482,44.235 21.178,44.235 l 38.012,0 0,53.17 c 0,5.761 4.391,10.317 9.974,10.965 l 0,58.614 c 0,25.142 -20.444,45.589 -45.588,45.589 l -68.578,0 0,-300.94 c 0,-20.251 -16.42,-36.671 -36.671,-36.671 l -234.035,0 C 16.418,51.629 0,68.046 0,88.3 l 0,421.884 c 0,20.25 16.418,36.668 36.669,36.668 l 234.037,0 c 17.788,0 32.595,-12.666 35.946,-29.473 l 67.386,0 c 96.858,0 175.651,-78.793 175.651,-175.652 l 0,-176.318 c 5.575,-0.649 9.964,-5.214 9.964,-10.965 l 0,-53.163 0,-25.965 0,-2.703 c 0,-33.03 -26.781,-59.812 -59.81,-59.812 z M 153.704,508.823 c -50.318,0 -91.247,-40.929 -91.247,-91.248 0,-50.3 40.929,-91.229 91.247,-91.229 50.302,0 91.231,40.928 91.231,91.229 0,50.318 -40.929,91.248 -91.231,91.248 z M 56.977,287.147 c -9.9,0 -17.93,-8.028 -17.93,-17.928 l 0,-154.789 c 0,-9.9 8.03,-17.928 17.93,-17.928 l 193.431,0 c 9.896,0 17.928,8.03 17.928,17.928 l 0,154.789 c 0,9.9 -8.03,17.928 -17.928,17.928 l -193.431,0 0,0 z"
           id="path11"
           inkscape:connector-curvature="0"
           style="fill:#2c5aa0" />
      </g>
    </g>
  </g>
  <g
     id="g47"
     transform="matrix(2.4148195,0,0,2.6521297,40.732898,32.392527)"
     style="fill:#87aade">
    <g
       clip-path="url(#clipPath-730514797)"
       id="g49"
       style="fill:#87aade">
      <!-- color: #eeeeee -->
      <g
         id="g51"
         style="fill:#87aade">
        <path
           d="m 36,13.977 c 0,0 -2,3.01 -5,3.01 -2.797,-0.539 -3.906,-0.082 -4,0 l 0,12.11 c -0.133,2.551 -2.223,5.109 -5.336,6.285 -3.949,1.492 -8.125,0.195 -9.332,-2.91 -1.211,-3.098 1,-6.855 4.953,-8.348 3.059,-1.152 5.867,-0.867 7.715,0.867 l 0,-12.01 c 4,-2.664 7.719,0.957 11,1 m 0,-0.004"
           id="path53"
           inkscape:connector-curvature="0"
           style="fill:#87aade;fill-opacity:1;fill-rule:nonzero;stroke:none" />
      </g>
    </g>
  </g>
</svg>
