<?xml version="1.0" encoding="UTF-8" standalone="no"?>
<svg
   xmlns:dc="http://purl.org/dc/elements/1.1/"
   xmlns:cc="http://creativecommons.org/ns#"
   xmlns:rdf="http://www.w3.org/1999/02/22-rdf-syntax-ns#"
   xmlns:svg="http://www.w3.org/2000/svg"
   xmlns="http://www.w3.org/2000/svg"
   xmlns:sodipodi="http://sodipodi.sourceforge.net/DTD/sodipodi-0.dtd"
   xmlns:inkscape="http://www.inkscape.org/namespaces/inkscape"
   viewBox="0 0 48 48"
   id="svg2"
   version="1.1"
   inkscape:version="0.91 r13725"
   sodipodi:docname="dassault-systems.draftsight.svg">
  <metadata
     id="metadata19">
    <rdf:RDF>
      <cc:Work
         rdf:about="">
        <dc:format>image/svg+xml</dc:format>
        <dc:type
           rdf:resource="http://purl.org/dc/dcmitype/StillImage" />
        <dc:title></dc:title>
      </cc:Work>
    </rdf:RDF>
  </metadata>
  <sodipodi:namedview
     pagecolor="#ffffff"
     bordercolor="#666666"
     borderopacity="1"
     objecttolerance="10"
     gridtolerance="10"
     guidetolerance="10"
     inkscape:pageopacity="0"
     inkscape:pageshadow="2"
     inkscape:window-width="1280"
     inkscape:window-height="694"
     id="namedview17"
     showgrid="false"
     inkscape:zoom="4.9166667"
     inkscape:cx="24"
     inkscape:cy="24"
     inkscape:window-x="0"
     inkscape:window-y="0"
     inkscape:window-maximized="1"
     inkscape:current-layer="svg2" />
  <defs
     id="defs4">
    <linearGradient
       id="0"
       x1="61.57"
       y1="22.939"
       x2="60.753"
       y2="-27.706"
       gradientUnits="userSpaceOnUse"
       gradientTransform="matrix(0.99999,0,0,0.99999,-38.378,25.875)">
      <stop
         stop-color="#2e3e46"
         id="stop7" />
      <stop
         stop-color="#47606a"
         offset="1"
         id="stop9" />
    </linearGradient>
  </defs>
  <path
     style="fill:#374548;fill-opacity:0.85"
     inkscape:connector-curvature="0"
     id="path15"
     d="m 47.800827,11.439876 c 0,-0.01352 -0.0034,-0.02536 -0.007,-0.03888 -0.0087,-0.04733 -0.0018,-0.09467 -0.03128,-0.142002 -1.73e-4,-0.0068 -0.0034,-0.01352 -0.0052,-0.02198 -0.0018,-0.05241 -0.0365,-0.104811 -0.05909,-0.155527 -0.0034,-0.0085 -0.0087,-0.0017 -0.01222,-0.02536 -0.02085,-0.04395 -0.04518,-0.08622 -0.07125,-0.126787 -0.0052,-0.0085 -0.01044,-0.0017 -0.01564,-0.02367 -0.02955,-0.04564 -0.06256,-0.08791 -0.09906,-0.128478 -0.007,-0.0085 -0.0139,-0.01522 -0.02259,-0.02367 -0.03128,-0.03381 -0.0643,-0.06593 -0.09905,-0.09636 -0.0087,-0.0085 -0.0018,-0.01521 -0.02607,-0.02367 -0.0417,-0.0355 -0.08689,-0.06762 -0.133811,-0.09805 -0.007,-0.0051 -0.0139,-0.0085 -0.0226,-0.01352 -0.04518,-0.02705 -0.09037,-0.05072 -0.139025,-0.07269 -0.0052,-1.69e-4 -0.0087,-0.0051 -0.0139,-0.0085 L 24.630598,0.5462868 c -0.342349,-0.15214511 -0.736832,-0.15214511 -1.080918,0 L 8.0640482,7.3826736 C 7.4071557,7.6734398 7.1152035,8.4257128 7.414107,9.0664128 7.7130104,9.7054222 8.488074,9.9894264 9.1449665,9.6986602 L 24.090138,3.0989435 43.292947,11.58526 24.090138,19.797714 2.2041505,10.44079 c -1.737e-4,0 -0.00348,-1.69e-4 -0.00522,0 -0.03128,-0.01352 -0.066037,-0.02536 -0.099055,-0.03719 -0.00869,-0.0034 -0.00174,-0.0068 -0.024329,-0.0085 -0.027805,-0.0085 -0.05561,-0.01521 -0.083415,-0.02198 -0.015641,-0.0034 -0.029543,-0.0085 -0.045184,-0.01183 -0.00174,-0.0034 -0.036494,-0.0051 -0.053873,-0.0085 -0.026068,-0.0034 -0.050396,-0.0085 -0.076464,-0.01183 -0.012169,-1.69e-4 -0.024329,-1.69e-4 -0.036494,-1.69e-4 -0.03128,-1.69e-4 -0.0643,-0.0051 -0.09558,-0.0051 -1.739e-4,0 -0.00348,0 -0.00695,0 -0.012169,0 -0.02433,1.69e-4 -0.036494,1.69e-4 -0.027805,0 -0.05561,1.7e-4 -0.085153,0.0034 -0.022591,1.69e-4 -0.043445,0.0051 -0.064299,0.0085 -0.019116,0.0034 -0.039969,0.0051 -0.059085,0.0085 -0.026068,0.0051 -0.052134,0.01183 -0.078201,0.0017 -0.013902,0.0034 -0.027805,0.0068 -0.041707,0.01014 -0.027805,0.0085 -0.05561,0.0017 -0.083415,0.02705 -0.012169,0.0034 -0.02433,0.0085 -0.034757,0.01183 -0.027805,0.01014 -0.053872,0.02198 -0.079939,0.03381 -0.012164,0.0051 -0.024329,0.01183 -0.036494,0.0017 -0.024329,0.01183 -0.046921,0.02536 -0.069513,0.03888 -0.0139024,0.0085 -0.027805,0.0017 -0.0417075,0.02536 -0.0191159,0.01183 -0.0382318,0.02536 -0.0573477,0.03888 -0.0156403,0.01183 -0.0312806,0.02198 -0.0469208,0.03381 -0.0156403,0.01183 -0.0312806,0.02536 -0.0469209,0.03888 -0.001738,0.01352 -0.0330184,0.02874 -0.0486587,0.04395 -0.0139024,0.01352 -0.0260672,0.02705 -0.0399696,0.04057 -0.0156403,0.0017 -0.0312806,0.03212 -0.0469209,0.04903 -0.0139024,0.01521 -0.0260672,0.03212 -0.0382318,0.04733 -0.0121643,0.0017 -0.0260672,0.03212 -0.0382318,0.04902 -0.0139024,0.02029 -0.027805,0.04226 -0.0399696,0.06255 -0.008689,0.01352 -0.001738,0.02705 -0.0260672,0.04057 -0.0156403,0.02705 -0.0295427,0.05579 -0.0434453,0.08453 -0.003475,0.0085 -0.008689,0.01521 -0.0121643,0.02367 0,1.69e-4 -1.7378e-4,0.0034 0,0.0051 -0.0139024,0.03043 -0.0260672,0.06255 -0.0364941,0.09467 -0.003475,0.0085 -0.006952,0.0017 -0.008689,0.02536 -0.008689,0.02705 -0.0156403,0.0541 -0.0225915,0.08115 -0.003475,0.01521 -0.008689,0.03043 -0.0121644,0.04395 -0.003475,0.0017 -0.005214,0.03381 -0.008689,0.05071 -0.005214,0.02536 -0.008689,0.05072 -0.0121644,0.07776 -1.7378e-4,0.01014 -1.7378e-4,0.02029 -1.7378e-4,0.03043 -0.003475,0.03212 -0.005214,0.06593 -0.005214,0.09805 0,1.69e-4 0,0.0034 0,0.0051 l 0,24.823319 c 0,0.495316 0.29542782,0.946681 0.75942322,1.154613 L 23.547768,47.620047 c 0,0 0.0034,1.68e-4 0.0034,1.68e-4 0.0087,0.0034 0.01912,0.0068 0.02954,0.01185 0.04345,0.0186 0.08689,0.03381 0.132074,0.04734 0.01564,0.005 0.03128,0.0084 0.04692,0.01184 0.0417,0.01185 0.08515,0.02029 0.126863,0.02705 0.01222,1.68e-4 0.02607,0.005 0.03997,0.0068 0.05561,0.0068 0.112962,0.01184 0.168567,0.01184 0.0052,0 0.01044,-1.69e-4 0.0018,-1.69e-4 0.04867,0 0.09906,-0.0034 0.147715,-0.01008 0.0018,-1.69e-4 0.0365,-0.005 0.05387,-0.0084 0.03823,-0.0068 0.07647,-0.01352 0.112962,-0.02366 0.0018,-0.0034 0.03475,-0.0084 0.05214,-0.01352 0.0417,-0.01185 0.08167,-0.02705 0.123387,-0.04395 0.01222,-0.005 0.02259,-0.0084 0.03475,-0.01352 0.0034,-1.7e-4 0.0052,-1.7e-4 0.0087,-0.0034 L 47.042969,37.549921 c 0.462256,-0.207932 0.759423,-0.657605 0.759423,-1.154612 l 0,-24.82332 c 0,-0.0541 -0.0052,-0.108193 -0.01222,-0.160598 m -22.40038,33.066204 0,-17.074062 c 0,-0.701558 -0.585643,-1.271257 -1.306834,-1.271257 -0.721191,0 -1.306834,0.569699 -1.306834,1.271257 l 0,17.074062 -19.7988765,-8.895418 0,-22.06104 20.5791545,8.797368 c 0.16683,0.071 0.345824,0.108188 0.526556,0.108188 0.178994,0 0.357989,-0.0355 0.526557,-0.108188 l 20.579155,-8.797368 0,22.06104 -19.798878,8.895418" />
</svg>
