<?xml version="1.0" encoding="UTF-8" standalone="no"?>
<svg
   xmlns:dc="http://purl.org/dc/elements/1.1/"
   xmlns:cc="http://creativecommons.org/ns#"
   xmlns:rdf="http://www.w3.org/1999/02/22-rdf-syntax-ns#"
   xmlns:svg="http://www.w3.org/2000/svg"
   xmlns="http://www.w3.org/2000/svg"
   xmlns:xlink="http://www.w3.org/1999/xlink"
   xmlns:sodipodi="http://sodipodi.sourceforge.net/DTD/sodipodi-0.dtd"
   xmlns:inkscape="http://www.inkscape.org/namespaces/inkscape"
   viewBox="0 0 48 48"
   id="svg2"
   version="1.1"
   inkscape:version="0.91 r13725"
   sodipodi:docname="designer-qt4.svg">
  <metadata
     id="metadata38">
    <rdf:RDF>
      <cc:Work
         rdf:about="">
        <dc:format>image/svg+xml</dc:format>
        <dc:type
           rdf:resource="http://purl.org/dc/dcmitype/StillImage" />
        <dc:title></dc:title>
      </cc:Work>
    </rdf:RDF>
  </metadata>
  <sodipodi:namedview
     pagecolor="#ffffff"
     bordercolor="#666666"
     borderopacity="1"
     objecttolerance="10"
     gridtolerance="10"
     guidetolerance="10"
     inkscape:pageopacity="0"
     inkscape:pageshadow="2"
     inkscape:window-width="1280"
     inkscape:window-height="694"
     id="namedview36"
     showgrid="false"
     inkscape:zoom="4.9166667"
     inkscape:cx="-5.2761715"
     inkscape:cy="24"
     inkscape:window-x="0"
     inkscape:window-y="0"
     inkscape:window-maximized="1"
     inkscape:current-layer="svg2" />
  <defs
     id="defs4">
    <linearGradient
       gradientTransform="matrix(0.357837,0,0,0.35169702,390.75628,-30.268082)"
       gradientUnits="userSpaceOnUse"
       y2="104.85"
       x2="-1060.26"
       y1="203.1"
       x1="-1092.91"
       id="3"
       xlink:href="#1" />
    <linearGradient
       gradientUnits="userSpaceOnUse"
       y2="3.112"
       x2="8.213"
       y1="44.685"
       x1="13.223"
       id="2"
       gradientTransform="matrix(0.9999878,0,0,0.99999154,11.401621,2.3536791)">
      <stop
         stop-color="#2a2c2f"
         id="stop8" />
      <stop
         offset="1"
         stop-color="#424649"
         id="stop10" />
    </linearGradient>
    <linearGradient
       gradientUnits="userSpaceOnUse"
       y2="25.11"
       x2="29.858"
       y1="43.667"
       x1="29.952"
       id="0"
       xlink:href="#1"
       gradientTransform="matrix(0.9999901,0,0,0.9999901,11.656021,-0.38565677)" />
    <linearGradient
       id="1">
      <stop
         stop-color="#49b202"
         id="stop14" />
      <stop
         offset="1"
         stop-color="#8cd958"
         id="stop16" />
    </linearGradient>
  </defs>
  <g
     style="fill:#447821;fill-opacity:0.85100002"
     id="g24"
     transform="matrix(1.9441195,0,0,3.3823144,-4.2672805,-51.862542)">
    <path
       inkscape:connector-curvature="0"
       id="path26"
       d="M 7.733,17.926 C 7.366,17.675 6.866,17.769 6.615,18.136 l -4.071,5.95 c -0.12,0.176 -0.166,0.393 -0.127,0.602 0.039,0.21 0.16,0.395 0.336,0.515 l 5.925,4.053 c 0.183,0.125 0.4,0.165 0.602,0.127 C 9.482,29.345 9.67,29.23 9.795,29.047 10.046,28.68 9.952,28.18 9.585,27.929 L 4.324,24.33 7.941,19.044 c 0.251,-0.367 0.157,-0.867 -0.21,-1.117"
       style="fill:#447821" />
    <path
       inkscape:connector-curvature="0"
       id="path28"
       d="M 26.396,19.589 20.47,15.536 c -0.366,-0.251 -0.867,-0.157 -1.117,0.21 -0.251,0.367 -0.157,0.867 0.21,1.118 l 5.262,3.599 -3.617,5.286 c -0.251,0.367 -0.157,0.867 0.21,1.118 0.183,0.125 0.4,0.165 0.602,0.127 0.202,-0.038 0.39,-0.153 0.515,-0.336 l 4.071,-5.95 c 0.12,-0.176 0.166,-0.393 0.127,-0.602 -0.04,-0.209 -0.16,-0.395 -0.337,-0.515"
       style="fill:#447821" />
    <path
       inkscape:connector-curvature="0"
       id="path30"
       d="m 17.76,15.828 c -0.398,-0.196 -0.88,-0.032 -1.076,0.367 L 11,27.752 c -0.196,0.398 -0.032,0.88 0.367,1.076 0.162,0.08 0.338,0.1 0.502,0.069 0.24,-0.045 0.458,-0.199 0.574,-0.436 l 5.684,-11.557 c 0.196,-0.398 0.032,-0.88 -0.366,-1.076"
       style="fill:#447821" />
  </g>
  <path
     style="fill:#aade87;fill-opacity:1"
     inkscape:connector-curvature="0"
     id="path34"
     d="M 47.41229,33.883358 C 47.33042,33.77617 47.225147,33.713801 47.092593,33.692364 l -2.787614,-0.426811 c -0.152054,-0.487228 -0.360636,-0.984198 -0.623803,-1.492861 0.183244,-0.253359 0.456156,-0.611957 0.82264,-1.073849 0.364533,-0.461891 0.623801,-0.799051 0.775853,-1.013431 0.08187,-0.111083 0.120865,-0.228022 0.120865,-0.350803 0,-0.142269 -0.0351,-0.253358 -0.107216,-0.335211 -0.364533,-0.51841 -1.202766,-1.379825 -2.512749,-2.588147 -0.120864,-0.101347 -0.249521,-0.15202 -0.38013,-0.15202 -0.152053,0 -0.274862,0.04483 -0.366483,0.136426 l -2.161867,1.629288 C 39.454921,27.812514 38.998767,27.623469 38.501676,27.461709 L 38.07476,24.661132 c -0.0097,-0.132532 -0.06823,-0.241664 -0.175446,-0.327415 -0.107217,-0.08575 -0.230026,-0.128623 -0.37233,-0.128623 l -3.380226,0 c -0.294357,0 -0.477597,0.142269 -0.547776,0.42681 -0.132562,0.506717 -0.278762,1.451936 -0.44251,2.831762 -0.477596,0.15202 -0.939601,0.344954 -1.386008,0.578824 l -2.101432,-1.629285 c -0.132562,-0.101347 -0.263166,-0.15202 -0.395724,-0.15202 -0.224179,0 -0.703726,0.362497 -1.438641,1.089437 -0.736867,0.724996 -1.235908,1.270688 -1.501024,1.637082 -0.09163,0.132533 -0.13645,0.249461 -0.13645,0.350803 0,0.122781 0.05068,0.243614 0.152052,0.364444 0.680335,0.82244 1.224212,1.522095 1.629682,2.10092 -0.253419,0.467739 -0.452256,0.933528 -0.59456,1.401265 l -2.83245,0.42681 c -0.111119,0.002 -0.208582,0.08575 -0.288508,0.198788 -0.08187,0.111084 -0.122817,0.228023 -0.122817,0.350802 l 0,3.379404 c 0,0.132533 0.04093,0.251409 0.122817,0.358598 0.08187,0.107189 0.187142,0.169557 0.319698,0.190995 l 2.787613,0.411219 c 0.142308,0.496971 0.350888,0.999789 0.623803,1.506503 -0.183244,0.253359 -0.456156,0.611958 -0.822639,1.073849 -0.364534,0.461889 -0.623803,0.799051 -0.775854,1.013432 -0.08187,0.111082 -0.122816,0.228019 -0.122816,0.350802 0,0.132533 0.03509,0.249458 0.107215,0.350802 0.395724,0.547641 1.233957,1.401263 2.51275,2.558914 0.111118,0.111083 0.237825,0.167606 0.380129,0.167606 0.152052,0 0.278762,-0.04482 0.380129,-0.136427 l 2.148216,-1.629285 c 0.417167,0.212431 0.873324,0.401474 1.370415,0.563233 l 0.426914,2.800578 c 0.0097,0.132532 0.06824,0.241663 0.175446,0.327415 0.107213,0.08575 0.231976,0.128623 0.372332,0.128623 l 3.380225,0 c 0.294355,0 0.477597,-0.142269 0.547775,-0.426808 0.132561,-0.506716 0.278762,-1.451936 0.44056,-2.831761 0.477597,-0.152021 0.939601,-0.344956 1.38601,-0.578825 l 2.101432,1.644877 c 0.142307,0.0916 0.274862,0.136427 0.395723,0.136427 0.22223,0 0.699827,-0.360547 1.430846,-1.081644 0.731016,-0.721095 1.233957,-1.268737 1.506871,-1.644875 0.09163,-0.101346 0.136451,-0.218279 0.136451,-0.350803 0,-0.132533 -0.05068,-0.259206 -0.152052,-0.380037 -0.731018,-0.892599 -1.274897,-1.594205 -1.629684,-2.100922 0.202736,-0.376139 0.401573,-0.838028 0.594562,-1.385669 l 2.816855,-0.426812 c 0.120864,-0.002 0.224179,-0.08576 0.304101,-0.198788 0.08187,-0.111082 0.120865,-0.228021 0.120865,-0.350803 l 0,-3.379402 c 0,-0.132532 -0.04093,-0.25141 -0.120865,-0.358598 m -8.817046,4.772868 c -0.762206,0.762022 -1.680364,1.142059 -2.75642,1.142059 -1.07606,0 -1.994217,-0.380037 -2.756425,-1.142059 -0.762206,-0.762021 -1.142335,-1.679956 -1.142335,-2.755754 0,-1.075794 0.380129,-1.993729 1.142335,-2.75575 0.762208,-0.762024 1.680365,-1.14206 2.756425,-1.14206 1.076056,0 1.996163,0.380036 2.75642,1.14206 0.762209,0.762021 1.142339,1.679956 1.142339,2.75575 0,1.075798 -0.38013,1.993733 -1.142339,2.755754" />
</svg>
