<?xml version="1.0" encoding="UTF-8" standalone="no"?>
<svg
   xmlns:dc="http://purl.org/dc/elements/1.1/"
   xmlns:cc="http://creativecommons.org/ns#"
   xmlns:rdf="http://www.w3.org/1999/02/22-rdf-syntax-ns#"
   xmlns:svg="http://www.w3.org/2000/svg"
   xmlns="http://www.w3.org/2000/svg"
   xmlns:sodipodi="http://sodipodi.sourceforge.net/DTD/sodipodi-0.dtd"
   xmlns:inkscape="http://www.inkscape.org/namespaces/inkscape"
   viewBox="0 0 48 48"
   id="svg2"
   version="1.1"
   inkscape:version="0.91 r13725"
   sodipodi:docname="firestorm_icon.svg">
  <metadata
     id="metadata17">
    <rdf:RDF>
      <cc:Work
         rdf:about="">
        <dc:format>image/svg+xml</dc:format>
        <dc:type
           rdf:resource="http://purl.org/dc/dcmitype/StillImage" />
        <dc:title></dc:title>
      </cc:Work>
    </rdf:RDF>
  </metadata>
  <sodipodi:namedview
     pagecolor="#ffffff"
     bordercolor="#666666"
     borderopacity="1"
     objecttolerance="10"
     gridtolerance="10"
     guidetolerance="10"
     inkscape:pageopacity="0"
     inkscape:pageshadow="2"
     inkscape:window-width="1280"
     inkscape:window-height="694"
     id="namedview15"
     showgrid="false"
     inkscape:zoom="4.9166667"
     inkscape:cx="24"
     inkscape:cy="24"
     inkscape:window-x="0"
     inkscape:window-y="0"
     inkscape:window-maximized="1"
     inkscape:current-layer="svg2" />
  <defs
     id="defs4">
    <linearGradient
       gradientTransform="matrix(.49433 0 0 .4778 86.64 13.1)"
       gradientUnits="userSpaceOnUse"
       y2="-26.05"
       x2="-125.19"
       y1="73.5"
       x1="-123.97"
       id="0">
      <stop
         stop-color="#c52828"
         id="stop7" />
      <stop
         offset="1"
         stop-color="#ff5454"
         id="stop9" />
    </linearGradient>
  </defs>
  <path
     d="m 35.989942,26.793777 c 0,-0.719459 4.121903,-10.272062 -3.900449,-13.159408 C 22.84716,10.305009 20.288929,7.6517391 20.369097,3.3955763 c -7.93e-4,0.1740725 -5.587944,6.9094327 -1.956574,10.2381987 5.647476,5.150884 3.261488,9.1397 0,8.773731 -5.47682,-0.61371 -4.818016,-5.964806 -3.90283,-7.311047 C 11.645078,14.868918 8.3319989,16.202088 6.689745,18.018857 1.7621937,23.501252 12.444377,28.742439 8.6463207,32.64214 5.7547172,35.610879 0.81843451,29.765487 0.83510351,29.719741 -5.0314444,52.63553 37.561552,53.216563 39.911029,34.106606 c 0.698493,-5.730729 7.590555,-8.847399 7.809628,-8.772543 -7.342113,-2.539201 -11.726746,1.641511 -11.726746,1.460309 M 28.188252,7.7842243 C 26.992877,6.824746 26.23247,5.6709955 26.23247,4.858855 c 0,-1.5215009 1.660509,-2.9824032 3.908387,-4.38508337 0.226216,1.21969597 -0.974716,3.04537827 0,4.38508337 0.756435,0.9921541 1.956574,2.1132288 1.956574,2.9253693 0,1.0878048 -0.542919,2.0793648 -1.956574,2.9241807 -0.214309,-0.406367 -0.587369,-1.7431015 -1.952605,-2.9241807"
     id="path13"
     style="fill:#ff7f2a"
     inkscape:connector-curvature="0" />
</svg>
