<?xml version="1.0" encoding="UTF-8" standalone="no"?>
<!-- Generator: Adobe Illustrator 19.0.0, SVG Export Plug-In . SVG Version: 6.00 Build 0)  -->

<svg
   xmlns:dc="http://purl.org/dc/elements/1.1/"
   xmlns:cc="http://creativecommons.org/ns#"
   xmlns:rdf="http://www.w3.org/1999/02/22-rdf-syntax-ns#"
   xmlns:svg="http://www.w3.org/2000/svg"
   xmlns="http://www.w3.org/2000/svg"
   xmlns:sodipodi="http://sodipodi.sourceforge.net/DTD/sodipodi-0.dtd"
   xmlns:inkscape="http://www.inkscape.org/namespaces/inkscape"
   version="1.1"
   id="Capa_1"
   x="0px"
   y="0px"
   viewBox="0 0 58 58"
   style="enable-background:new 0 0 58 58;"
   xml:space="preserve"
   inkscape:version="0.91 r13725"
   sodipodi:docname="foto.svg"><metadata
     id="metadata59"><rdf:RDF><cc:Work
         rdf:about=""><dc:format>image/svg+xml</dc:format><dc:type
           rdf:resource="http://purl.org/dc/dcmitype/StillImage" /><dc:title></dc:title></cc:Work></rdf:RDF></metadata><defs
     id="defs57" /><sodipodi:namedview
     pagecolor="#ffffff"
     bordercolor="#666666"
     borderopacity="1"
     objecttolerance="10"
     gridtolerance="10"
     guidetolerance="10"
     inkscape:pageopacity="0"
     inkscape:pageshadow="2"
     inkscape:window-width="1280"
     inkscape:window-height="694"
     id="namedview55"
     showgrid="false"
     inkscape:zoom="4.0689655"
     inkscape:cx="-25.589636"
     inkscape:cy="29"
     inkscape:window-x="0"
     inkscape:window-y="0"
     inkscape:window-maximized="1"
     inkscape:current-layer="Capa_1" /><path
     style="fill:#879AD8;"
     d="M32,31.5c0,3.595,1.418,6.778,3.6,8.785c2.667-2.007,4.4-5.19,4.4-8.785s-1.733-6.778-4.4-8.785  C33.418,24.722,32,27.905,32,31.5z"
     id="path13" /><path
     style="fill:#879AD8;"
     d="M18,31.5c0,3.595,1.733,6.778,4.4,8.785c2.182-2.007,3.6-5.19,3.6-8.785s-1.418-6.778-3.6-8.785  C19.733,24.722,18,27.905,18,31.5z"
     id="path15" /><path
     inkscape:connector-curvature="0"
     style="fill:#6f8a91"
     d="m 45,12.692031 -4,-12.3530475 -24,0 -4,12.3530475 -9.201,0 C 1.701,12.692031 0,14.793285 0,17.384954 l 0,36.278432 c 0,2.61514 1.716,4.734923 3.833,4.734923 l 50.333,0 c 2.117,0 3.833,-2.119783 3.833,-4.734923 l 0,-36.278432 c 0,-2.591669 -1.701,-4.692923 -3.799,-4.692923 l -9.2,0 z"
     id="path3" /><ellipse
     style="fill:#424a60;stroke:#2b313d;stroke-width:2.22288537;stroke-linecap:round;stroke-miterlimit:10"
     cx="29"
     cy="32.456909"
     id="circle5"
     rx="17"
     ry="21.000181" /><ellipse
     style="fill:#7383bf"
     cx="29"
     cy="32.456909"
     id="circle7"
     rx="11"
     ry="13.588353" /><rect
     x="6"
     y="6.5155077"
     style="fill:#38454f"
     width="4"
     height="6.1765242"
     id="rect9" /><ellipse
     style="fill:#efce4a"
     cx="51"
     cy="21.339165"
     id="circle11"
     rx="3"
     ry="3.7059145" /><path
     inkscape:connector-curvature="0"
     style="fill:#556080"
     d="m 29,47.280566 c -6.617,0 -12,-6.649646 -12,-14.823658 0,-8.174012 5.383,-14.823657 12,-14.823657 6.617,0 12,6.649645 12,14.823657 0,8.174012 -5.383,14.823658 -12,14.823658 z M 29,20.10386 c -5.514,0 -10,5.541578 -10,12.353048 0,6.811471 4.486,12.353048 10,12.353048 5.514,0 10,-5.541577 10,-12.353048 C 39,25.645438 34.514,20.10386 29,20.10386 Z"
     id="path17" /><ellipse
     style="fill:#4674e8"
     cx="30.5"
     cy="28.133341"
     id="circle19"
     rx="3.5"
     ry="4.3235669" /><ellipse
     style="fill:#bf4d90"
     cx="28"
     cy="29.9863"
     id="circle21"
     rx="2"
     ry="2.4706097" /><ellipse
     style="fill:#bccef7"
     cx="25"
     cy="27.51569"
     id="circle23"
     rx="2"
     ry="2.4706097" /><g
     id="g25" /><g
     id="g27" /><g
     id="g29" /><g
     id="g31" /><g
     id="g33" /><g
     id="g35" /><g
     id="g37" /><g
     id="g39" /><g
     id="g41" /><g
     id="g43" /><g
     id="g45" /><g
     id="g47" /><g
     id="g49" /><g
     id="g51" /><g
     id="g53" /></svg>