<?xml version="1.0" encoding="UTF-8" standalone="no"?>
<svg
   xmlns:dc="http://purl.org/dc/elements/1.1/"
   xmlns:cc="http://creativecommons.org/ns#"
   xmlns:rdf="http://www.w3.org/1999/02/22-rdf-syntax-ns#"
   xmlns:svg="http://www.w3.org/2000/svg"
   xmlns="http://www.w3.org/2000/svg"
   xmlns:sodipodi="http://sodipodi.sourceforge.net/DTD/sodipodi-0.dtd"
   xmlns:inkscape="http://www.inkscape.org/namespaces/inkscape"
   viewBox="0 0 48 48"
   id="svg2"
   version="1.1"
   inkscape:version="0.91 r13725"
   sodipodi:docname="freeciv-client.svg">
  <metadata
     id="metadata21">
    <rdf:RDF>
      <cc:Work
         rdf:about="">
        <dc:format>image/svg+xml</dc:format>
        <dc:type
           rdf:resource="http://purl.org/dc/dcmitype/StillImage" />
        <dc:title></dc:title>
      </cc:Work>
    </rdf:RDF>
  </metadata>
  <sodipodi:namedview
     pagecolor="#ffffff"
     bordercolor="#666666"
     borderopacity="1"
     objecttolerance="10"
     gridtolerance="10"
     guidetolerance="10"
     inkscape:pageopacity="0"
     inkscape:pageshadow="2"
     inkscape:window-width="1280"
     inkscape:window-height="694"
     id="namedview19"
     showgrid="false"
     inkscape:zoom="4.9166667"
     inkscape:cx="-16.212625"
     inkscape:cy="24"
     inkscape:window-x="0"
     inkscape:window-y="0"
     inkscape:window-maximized="1"
     inkscape:current-layer="svg2" />
  <defs
     id="defs4">
    <linearGradient
       id="0"
       gradientUnits="userSpaceOnUse"
       x1="61.62"
       y1="11.915"
       x2="62.74"
       y2="-36.26"
       gradientTransform="matrix(1.0000421,0,0,1.0000421,-38.4722,35.8167)">
      <stop
         stop-color="#212121"
         id="stop7" />
      <stop
         stop-color="#3f3f41"
         offset="1"
         id="stop9" />
    </linearGradient>
  </defs>
  <g
     id="g3"
     transform="matrix(1.8448006,0,0,1.843547,0.11971333,0.13558293)"
     style="fill:#808080">
    <path
       d="M 8.083,11.222 6.419,15 c -0.041,0.094 -0.144,0.154 -0.257,0.154 l -0.852,0 C 5.197,15.154 5.094,15.093 5.054,15 L 4.264,13.197 C 4.187,13.019 4.117,12.849 4.051,12.68 3.978,12.866 3.903,13.039 3.828,13.205 l -0.833,1.8 C 2.953,15.096 2.851,15.154 2.74,15.154 l -0.852,0 c -0.117,0 -0.219,-0.063 -0.259,-0.158 L 0.072,11.217 C 0.042,11.143 0.054,11.061 0.106,10.996 0.158,10.931 0.241,10.893 0.331,10.893 l 0.959,0 c 0.121,0 0.227,0.069 0.263,0.169 l 0.684,1.92 c 0.057,0.162 0.11,0.315 0.159,0.461 0.06,-0.146 0.125,-0.3 0.194,-0.463 l 0.842,-1.932 c 0.041,-0.093 0.143,-0.155 0.256,-0.155 l 0.792,0 c 0.115,0 0.217,0.063 0.258,0.157 l 0.798,1.89 c 0.072,0.17 0.136,0.329 0.195,0.479 0.049,-0.142 0.106,-0.296 0.171,-0.465 l 0.737,-1.898 c 0.038,-0.098 0.143,-0.164 0.26,-0.164 l 0.926,0 c 0.091,0 0.175,0.039 0.227,0.104 0.053,0.068 0.063,0.151 0.031,0.226 z m 8.922,0 L 15.341,15 c -0.041,0.094 -0.144,0.154 -0.256,0.154 l -0.854,0 c -0.113,0 -0.215,-0.061 -0.256,-0.154 l -0.789,-1.803 c -0.078,-0.178 -0.148,-0.348 -0.214,-0.517 -0.073,0.186 -0.148,0.359 -0.223,0.525 l -0.833,1.8 c -0.042,0.091 -0.143,0.149 -0.255,0.149 l -0.853,0 c -0.116,0 -0.219,-0.063 -0.259,-0.158 L 8.992,11.217 C 8.962,11.143 8.974,11.061 9.026,10.996 9.078,10.932 9.162,10.893 9.251,10.893 l 0.959,0 c 0.121,0 0.227,0.069 0.263,0.169 l 0.683,1.92 c 0.057,0.162 0.11,0.315 0.161,0.461 0.059,-0.146 0.123,-0.3 0.192,-0.463 l 0.843,-1.932 c 0.04,-0.093 0.142,-0.155 0.256,-0.155 l 0.792,0 c 0.115,0 0.218,0.063 0.258,0.157 l 0.799,1.89 c 0.071,0.17 0.135,0.329 0.193,0.479 0.051,-0.142 0.106,-0.296 0.172,-0.465 l 0.737,-1.898 c 0.038,-0.098 0.144,-0.164 0.261,-0.164 l 0.926,0 c 0.092,0 0.177,0.039 0.227,0.104 0.053,0.068 0.065,0.151 0.032,0.226 z m 8.921,0 L 24.263,15 c -0.042,0.094 -0.144,0.154 -0.257,0.154 l -0.853,0 C 23.04,15.154 22.937,15.093 22.897,15 L 22.108,13.197 C 22.03,13.019 21.96,12.849 21.894,12.68 c -0.073,0.186 -0.149,0.359 -0.224,0.525 l -0.833,1.8 c -0.042,0.091 -0.144,0.149 -0.255,0.149 l -0.852,0 c -0.117,0 -0.22,-0.063 -0.26,-0.158 l -1.557,-3.779 c -0.029,-0.074 -0.019,-0.156 0.033,-0.221 0.052,-0.065 0.136,-0.103 0.226,-0.103 l 0.96,0 c 0.121,0 0.227,0.069 0.262,0.169 l 0.684,1.92 c 0.057,0.162 0.11,0.315 0.16,0.461 0.059,-0.146 0.123,-0.3 0.192,-0.463 l 0.843,-1.932 c 0.041,-0.093 0.143,-0.155 0.257,-0.155 l 0.791,0 c 0.115,0 0.218,0.063 0.258,0.157 l 0.798,1.89 c 0.072,0.17 0.137,0.329 0.196,0.479 0.049,-0.142 0.106,-0.296 0.171,-0.465 l 0.738,-1.898 c 0.037,-0.098 0.142,-0.164 0.26,-0.164 l 0.926,0 c 0.092,0 0.176,0.039 0.227,0.104 0.051,0.068 0.063,0.151 0.031,0.226 z"
       id="path5"
       inkscape:connector-curvature="0"
       style="fill:#808080" />
    <g
       id="g7"
       style="fill:#808080">
      <path
         d="M 2.71,9 C 2.993,8.282 3.347,7.599 3.767,6.963 3.829,6.975 3.887,7 3.952,7 l 1.88,0 C 5.633,7.634 5.477,8.309 5.342,9 L 7.397,9 C 7.552,8.301 7.732,7.624 7.959,7 l 9.986,0 c 0.227,0.624 0.407,1.301 0.562,2 l 2.055,0 C 20.427,8.309 20.271,7.634 20.072,7 l 1.88,0 c 0.065,0 0.123,-0.025 0.186,-0.037 0.418,0.636 0.773,1.319 1.056,2.037 l 2.121,0 C 23.624,3.784 18.724,0 12.952,0 7.18,0 2.28,3.784 0.588,9 L 2.71,9 Z M 20.478,5 19.29,5 C 19.032,4.457 18.748,3.95 18.439,3.481 19.179,3.909 19.861,4.419 20.478,5 Z M 12.952,2 c 1.551,0 2.983,1.154 4.062,3 L 8.89,5 C 9.969,3.154 11.401,2 12.952,2 Z M 7.463,3.481 C 7.155,3.95 6.871,4.457 6.613,5 L 5.426,5 C 6.043,4.419 6.725,3.909 7.463,3.481 Z"
         id="path9"
         inkscape:connector-curvature="0"
         style="fill:#808080" />
      <path
         d="m 23.194,17 c -0.283,0.719 -0.638,1.4 -1.057,2.037 C 22.075,19.025 22.017,19 21.952,19 l -1.881,0 c 0.199,-0.634 0.355,-1.309 0.49,-2 l -2.055,0 c -0.154,0.699 -0.335,1.377 -0.562,2 L 7.959,19 C 7.732,18.377 7.552,17.699 7.397,17 l -2.054,0 c 0.135,0.691 0.291,1.366 0.49,2 L 3.952,19 C 3.887,19 3.829,19.025 3.767,19.037 3.348,18.4 2.993,17.719 2.71,17 l -2.122,0 c 1.692,5.216 6.592,9 12.364,9 5.772,0 10.672,-3.784 12.363,-9 l -2.121,0 z m -17.768,4 1.188,0 c 0.258,0.543 0.542,1.051 0.85,1.519 C 6.725,22.091 6.043,21.581 5.426,21 Z m 7.526,3 C 11.401,24 9.969,22.846 8.89,21 l 8.123,0 c -1.078,1.846 -2.51,3 -4.061,3 z M 18.44,22.519 C 18.749,22.051 19.033,21.543 19.291,21 l 1.188,0 c -0.618,0.581 -1.3,1.091 -2.039,1.519 z"
         id="path11"
         inkscape:connector-curvature="0"
         style="fill:#808080" />
    </g>
  </g>
  <path
     style="fill:#b3b3b3;fill-opacity:1;stroke-width:1.31700003"
     inkscape:connector-curvature="0"
     id="path17"
     d="m 28.546776,24.666629 c -0.223857,0 -0.448572,0.133137 -0.620109,0.398079 l -0.09349,0.145119 c -0.341361,0.531215 -0.341361,1.391277 0,1.921162 l 1.971828,3.060812 c -0.264169,0.934619 -0.866267,1.588321 -1.564426,1.588321 -0.941743,0 -1.706802,-1.18758 -1.706802,-2.646757 0,-0.274263 -0.106353,-0.521896 -0.269314,-0.627074 -0.163819,-0.105172 -0.35251,-0.04926 -0.477733,0.145119 -0.800224,1.242166 -1.190473,2.967616 -1.096985,4.854163 0.09091,1.847938 0.638979,3.635962 1.539553,5.033898 0.985484,1.52974 2.292603,2.408442 3.586856,2.408442 1.078116,0 2.066174,-0.612429 2.782344,-1.72412 0.125223,-0.19438 0.161246,-0.48728 0.09349,-0.741571 -0.06776,-0.254291 -0.22643,-0.41805 -0.403972,-0.41805 -0.935739,0 -1.723955,-1.228851 -1.723955,-2.676047 0,-1.083732 0.421982,-2.015689 1.023223,-2.42575 l 3.284949,5.101797 -4.64696,7.216008 c -0.163818,0.254291 -0.256449,0.599114 -0.256449,0.959915 0,0.3608 0.09263,0.706956 0.256449,0.962579 l 0.09349,0.145118 c 0.163819,0.254291 0.38596,0.398079 0.618394,0.398079 0.232433,0 0.455433,-0.142457 0.62011,-0.398079 l 4.648676,-7.216006 4.64696,7.216006 c 0.163818,0.254291 0.385961,0.398079 0.618394,0.398079 0.232433,0 0.455433,-0.142457 0.620109,-0.398079 l 0.09349,-0.145118 c 0.163819,-0.254291 0.256449,-0.601779 0.256449,-0.962579 0,-0.360801 -0.09263,-0.704292 -0.256449,-0.959915 l -4.64696,-7.216008 3.28495,-5.101797 c 0.602098,0.410061 1.023223,1.344679 1.023223,2.42575 0,1.452521 -0.791646,2.676047 -1.723955,2.676047 -0.176684,0 -0.336214,0.16509 -0.403972,0.41805 -0.06776,0.254291 -0.03002,0.547191 0.0952,0.741571 0.71617,1.111691 1.705086,1.72412 2.782344,1.72412 1.294253,0 2.598798,-0.877371 3.586856,-2.408442 0.900574,-1.397936 1.446922,-3.18596 1.537837,-5.033898 0.09349,-1.887879 -0.295045,-3.611997 -1.095269,-4.854163 -0.125222,-0.194379 -0.313914,-0.251629 -0.477733,-0.145119 -0.163819,0.105184 -0.269314,0.351481 -0.269314,0.627074 0,1.460509 -0.766774,2.646757 -1.708517,2.646757 -0.69816,0 -1.2994,-0.653702 -1.56271,-1.588321 l 1.971827,-3.060812 c 0.341361,-0.529885 0.341361,-1.391278 0,-1.921162 l -0.09349,-0.145119 c -0.17068,-0.264942 -0.395394,-0.398079 -0.620109,-0.398079 -0.223857,0 -0.446856,0.133137 -0.618394,0.398079 l -2.018998,3.131374 -2.241142,-1.740096 c -0.168107,-0.130474 -0.372237,-0.07854 -0.506037,0.127812 -0.132941,0.206362 -0.166392,0.520564 -0.08234,0.782843 l 1.122716,3.481524 -3.311539,5.143069 -3.313253,-5.143069 1.120999,-3.481524 c 0.08405,-0.262279 0.05232,-0.576481 -0.08062,-0.782843 -0.132941,-0.206363 -0.337071,-0.258286 -0.506036,-0.127812 l -2.242858,1.740096 -2.017285,-3.131374 c -0.17068,-0.264942 -0.394537,-0.398079 -0.618394,-0.398079" />
</svg>
