<?xml version="1.0" encoding="UTF-8" standalone="no"?>
<svg
   xmlns:dc="http://purl.org/dc/elements/1.1/"
   xmlns:cc="http://creativecommons.org/ns#"
   xmlns:rdf="http://www.w3.org/1999/02/22-rdf-syntax-ns#"
   xmlns:svg="http://www.w3.org/2000/svg"
   xmlns="http://www.w3.org/2000/svg"
   xmlns:sodipodi="http://sodipodi.sourceforge.net/DTD/sodipodi-0.dtd"
   xmlns:inkscape="http://www.inkscape.org/namespaces/inkscape"
   viewBox="0 0 48 48"
   id="svg2"
   version="1.1"
   inkscape:version="0.91 r13725"
   sodipodi:docname="frozensynapse.svg">
  <metadata
     id="metadata29">
    <rdf:RDF>
      <cc:Work
         rdf:about="">
        <dc:format>image/svg+xml</dc:format>
        <dc:type
           rdf:resource="http://purl.org/dc/dcmitype/StillImage" />
        <dc:title></dc:title>
      </cc:Work>
    </rdf:RDF>
  </metadata>
  <sodipodi:namedview
     pagecolor="#ffffff"
     bordercolor="#666666"
     borderopacity="1"
     objecttolerance="10"
     gridtolerance="10"
     guidetolerance="10"
     inkscape:pageopacity="0"
     inkscape:pageshadow="2"
     inkscape:window-width="1280"
     inkscape:window-height="694"
     id="namedview27"
     showgrid="false"
     inkscape:zoom="4.9166667"
     inkscape:cx="-9.1525424"
     inkscape:cy="24"
     inkscape:window-x="0"
     inkscape:window-y="0"
     inkscape:window-maximized="1"
     inkscape:current-layer="svg2" />
  <defs
     id="defs4">
    <clipPath
       id="1">
      <path
         transform="matrix(15.33333 0 0 11.5 415-125.5)"
         d="m-24 13c0 1.105-.672 2-1.5 2-.828 0-1.5-.895-1.5-2 0-1.105.672-2 1.5-2 .828 0 1.5.895 1.5 2"
         fill="#1890d0"
         id="path7" />
    </clipPath>
    <linearGradient
       gradientUnits="userSpaceOnUse"
       y2="116.52"
       x2="10.719"
       y1="216.07"
       x1="11.941"
       id="0"
       gradientTransform="matrix(0.4778,0,0,0.4778,19.6,-55.02)">
      <stop
         stop-color="#222c35"
         id="stop10" />
      <stop
         offset="1"
         stop-color="#545e67"
         id="stop12" />
    </linearGradient>
    <linearGradient
       id="2"
       y1="24.541"
       x2="0"
       y2=".457"
       gradientUnits="userSpaceOnUse">
      <stop
         stop-color="#0c7eed"
         id="stop15" />
      <stop
         offset="1"
         stop-color="#0bb6ff"
         id="stop17" />
    </linearGradient>
  </defs>
  <g
     id="g23"
     transform="matrix(1.9420954,0,0,2.7685812,-22.612372,-52.035587)"
     clip-path="url(#1)"
     style="fill:#37abc8">
    <path
       inkscape:connector-curvature="0"
       style="fill:#37abc8"
       id="path25"
       transform="matrix(0.70588,0,0,0.70588,92.73,18.677)"
       d="m -107.28,0.457 -7.082,7.084 7.082,7.082 7.084,-7.082 -7.084,-7.084 m 19.834,0 -7.084,7.084 7.084,7.082 7.084,-7.082 -7.084,-7.084 m -9.916,9.916 -7.084,7.084 7.084,7.084 7.082,-7.084 -7.082,-7.084" />
  </g>
</svg>
