<?xml version="1.0" encoding="UTF-8" standalone="no"?>
<!-- Created with Inkscape (http://www.inkscape.org/) -->

<svg
   xmlns:dc="http://purl.org/dc/elements/1.1/"
   xmlns:cc="http://creativecommons.org/ns#"
   xmlns:rdf="http://www.w3.org/1999/02/22-rdf-syntax-ns#"
   xmlns:svg="http://www.w3.org/2000/svg"
   xmlns="http://www.w3.org/2000/svg"
   xmlns:sodipodi="http://sodipodi.sourceforge.net/DTD/sodipodi-0.dtd"
   xmlns:inkscape="http://www.inkscape.org/namespaces/inkscape"
   id="svg2"
   version="1.1"
   inkscape:version="0.91 r13725"
   width="512"
   height="512"
   viewBox="0 0 512.00002 512.00002"
   sodipodi:docname="gimp.svg">
  <metadata
     id="metadata8">
    <rdf:RDF>
      <cc:Work
         rdf:about="">
        <dc:format>image/svg+xml</dc:format>
        <dc:type
           rdf:resource="http://purl.org/dc/dcmitype/StillImage" />
        <dc:title></dc:title>
      </cc:Work>
    </rdf:RDF>
  </metadata>
  <defs
     id="defs6">
    <clipPath
       clipPathUnits="userSpaceOnUse"
       id="clipPath4178">
      <circle
         r="225"
         cy="222.68037"
         cx="204.3168"
         id="circle4180"
         style="opacity:1;fill:#1c5266;fill-opacity:0.19099205;fill-rule:evenodd;stroke:none;stroke-width:3.33392239;stroke-linecap:butt;stroke-linejoin:miter;stroke-miterlimit:4;stroke-dasharray:none;stroke-dashoffset:0;stroke-opacity:1" />
    </clipPath>
    <clipPath
       clipPathUnits="userSpaceOnUse"
       id="clipPath4178-1">
      <circle
         r="225"
         cy="222.68037"
         cx="204.3168"
         id="circle4180-7"
         style="opacity:1;fill:#1c5266;fill-opacity:0.19099205;fill-rule:evenodd;stroke:none;stroke-width:3.33392239;stroke-linecap:butt;stroke-linejoin:miter;stroke-miterlimit:4;stroke-dasharray:none;stroke-dashoffset:0;stroke-opacity:1" />
    </clipPath>
  </defs>
  <sodipodi:namedview
     pagecolor="#ffffff"
     bordercolor="#666666"
     borderopacity="1"
     objecttolerance="10"
     gridtolerance="10"
     guidetolerance="10"
     inkscape:pageopacity="0"
     inkscape:pageshadow="2"
     inkscape:window-width="1280"
     inkscape:window-height="694"
     id="namedview4"
     showgrid="false"
     inkscape:zoom="0.4609375"
     inkscape:cx="-88.949149"
     inkscape:cy="254.91525"
     inkscape:window-x="0"
     inkscape:window-y="0"
     inkscape:window-maximized="1"
     inkscape:current-layer="svg2" />
  <g
     id="g4147"
     transform="matrix(1.4519754,0,0,1.7358278,-124.63042,-163.40596)">
    <path
       sodipodi:nodetypes="cacccc"
       inkscape:connector-curvature="0"
       id="path3342-7"
       d="m 280.43422,104.58051 c -8.47731,14.31655 -14.07059,30.12373 -24.13547,43.46724 -7.87709,10.44311 -16.63403,20.45627 -27.94149,28.06706 21.95349,-8.04702 48.35615,-11.56165 64.97997,-19.15065 0.57044,-0.27148 1.18306,-0.56598 1.76668,-0.84442 -2.60884,-17.52395 -7.26849,-35.02261 -14.66969,-51.53923 z"
       style="fill:#003380;fill-opacity:1;stroke-width:0.45385963" />
    <path
       sodipodi:nodetypes="cccsccccssssscccccccscccccscccccccccccccccccccccccscsscssccccccscccccsccscccscsssscccccsccccccccssccccccscccccccccccsccsccccssscsccccccscccsscccccccccsccccccccccccccc"
       inkscape:connector-curvature="0"
       id="path3344"
       d="m 415.60156,139.83478 c -17.81037,3.10201 2.63141,21.73281 -1.63129,31.90201 15.45901,-4.30399 18.53252,-27.6151 1.63129,-31.90201 z m 7.38998,39.39739 c -0.85962,0.011 -1.80557,0.32614 -2.39402,0.754 -11.11507,8.08159 -3.46018,25.25569 -10.88094,35.32418 5.24492,0.2998 10.51345,-1.43613 15.14244,-3.28466 15.05441,-4.94679 9.52873,-25.37081 -0.50924,-32.44562 -0.3579,-0.25224 -0.84251,-0.35475 -1.35824,-0.3479 z m -22.98598,0.78214 c -5.35435,-0.0391 -3.53139,14.03901 2.35163,14.27384 4.97679,0.19863 5.51748,-8.17231 3.42744,-11.85894 -0.90802,-1.60167 -4.41425,-2.40493 -5.77907,-2.4149 z m 6.11645,39.21257 c -17.46425,5.18408 -35.84544,10.97963 -54.60564,12.72869 0.003,-1.7e-4 0.008,-3.1e-4 0.011,-6.5e-4 0.19688,-0.009 0.38223,-0.013 0.5681,-0.0173 0.0837,-0.001 0.17136,-0.005 0.25267,-0.006 0.17428,-0.001 0.33659,10e-4 0.49904,0.005 0.0791,0.001 0.1616,0.001 0.23775,0.005 0.13865,0.005 0.2666,0.0152 0.39469,0.025 0.0938,0.008 0.18915,0.0138 0.27699,0.0237 0.17102,0.0191 0.33439,0.0416 0.48099,0.0716 0.001,3e-4 0.003,3.2e-4 0.005,6.7e-4 0.006,0.001 0.011,0.002 0.0173,0.003 0.0744,0.0157 0.14596,0.0329 0.21343,0.0518 0.011,0.002 0.0213,0.006 0.0322,0.01 0.0653,0.0192 0.12834,0.0391 0.18674,0.0615 10e-4,3.1e-4 10e-4,0.001 0.003,0.001 0.003,0.001 0.008,0.002 0.01,0.005 0.0623,0.0243 0.12114,0.0505 0.17499,0.0786 0.27381,0.14353 0.43369,0.33969 0.46059,0.59924 0.001,0.0123 0.005,0.0225 0.005,0.0346 0.001,0.0398 -10e-4,0.0826 -0.005,0.12536 -10e-4,0.0179 -10e-4,0.0347 -0.005,0.0532 -0.008,0.0438 -0.0184,0.0907 -0.0313,0.1375 -0.005,0.0196 -0.01,0.0381 -0.0164,0.0581 -0.0151,0.0463 -0.0354,0.0953 -0.0564,0.14453 -0.011,0.0249 -0.0199,0.0492 -0.0321,0.0748 -0.0217,0.0454 -0.0479,0.0928 -0.0745,0.14069 -0.0183,0.0327 -0.0366,0.0652 -0.0573,0.099 -0.0292,0.0477 -0.0617,0.0971 -0.0958,0.14709 -0.0253,0.0373 -0.0512,0.0746 -0.0792,0.11318 -0.0359,0.0494 -0.0751,0.10002 -0.11539,0.15157 -0.0335,0.0427 -0.0677,0.0862 -0.10432,0.13047 -0.0416,0.0502 -0.0854,0.10131 -0.13104,0.15349 -0.042,0.048 -0.0855,0.0968 -0.13103,0.14644 -0.0553,0.0606 -0.11354,0.12236 -0.1742,0.18549 -0.0258,0.0268 -0.0532,0.0545 -0.0801,0.0818 -0.1845,0.18818 -0.39426,0.38919 -0.62615,0.60053 -0.15297,0.13941 -0.33408,0.29265 -0.50848,0.44256 -0.1344,0.1155 -0.25585,0.22466 -0.40331,0.34662 -0.20606,0.17044 -0.4449,0.35708 -0.67717,0.54042 -0.1558,0.12298 -0.29507,0.23751 -0.46294,0.36645 -0.41109,0.31572 -0.85655,0.64874 -1.34257,1.00152 -0.54865,0.59444 -1.03928,1.18491 -1.4736,1.77088 -1.30342,1.75846 -2.10292,3.4764 -2.46777,5.13931 -0.0608,0.27713 -0.10976,0.55229 -0.14674,0.82629 -3e-5,2e-4 3e-5,3e-4 0,6.6e-4 -0.14302,1.0606 -0.10573,2.09659 0.0855,3.10559 0.006,0.0336 0.009,0.0676 0.0157,0.10109 5e-5,2.2e-4 -4e-5,3.2e-4 0,6.8e-4 0.052,0.25998 0.11476,0.51826 0.18755,0.77447 0.21849,0.76945 0.52854,1.52139 0.92197,2.25437 0.1311,0.24426 0.27132,0.48593 0.42058,0.72587 1.6e-4,2.6e-4 6.7e-4,3.1e-4 6.7e-4,6.7e-4 0.14914,0.23968 0.30733,0.4772 0.47394,0.71243 1.1e-4,1.8e-4 -1.2e-4,3.3e-4 0,6.8e-4 0.1667,0.23532 0.34216,0.46825 0.52571,0.69901 0.18383,0.23106 0.37587,0.45987 0.57596,0.68621 0.19996,0.22621 0.40743,0.44954 0.62302,0.67088 2.2e-4,2.4e-4 3.4e-4,3.3e-4 6.7e-4,6.7e-4 0.43119,0.4427 0.89266,0.87511 1.38257,1.29762 1.95968,1.69002 4.36886,3.21443 7.06592,4.5388 -0.13425,0.27754 -0.29099,0.55757 -0.46845,0.84034 -0.0887,0.14139 -0.183,0.28333 -0.28168,0.42595 -0.0988,0.14275 -0.20176,0.28581 -0.30996,0.42976 -0.21614,0.28754 -0.45042,0.57724 -0.7007,0.86913 -0.25039,0.29204 -0.51644,0.58597 -0.79643,0.88192 -0.55972,0.59156 -1.17432,1.19063 -1.82515,1.79518 -0.65079,0.60454 -1.33772,1.21443 -2.04326,1.82842 -1.76373,1.53488 -3.64246,3.09392 -5.35063,4.64944 -2.56258,2.33359 -4.74233,4.65962 -5.58211,6.88526 -0.056,0.14836 -0.10605,0.29574 -0.14987,0.44319 -0.0438,0.14765 -0.0812,0.29461 -0.11219,0.4413 -0.062,0.29272 -0.0984,0.5838 -0.10594,0.87231 -10e-6,2.2e-4 1e-5,3.2e-4 0,6.7e-4 -0.008,0.28873 0.0137,0.57483 0.0651,0.8589 0.0257,0.14203 0.059,0.28323 0.10045,0.42401 0.0414,0.14099 0.0906,0.28114 0.14829,0.42081 0.11502,0.2787 0.26275,0.55503 0.44568,0.82821 1.7e-4,2.6e-4 6.8e-4,3e-4 6.8e-4,6.6e-4 0.0915,0.13645 0.19126,0.2724 0.30052,0.40739 0.10963,0.13548 0.22808,0.26958 0.35625,0.40355 0.25584,0.26741 0.5497,0.532 0.88274,0.79301 0.1664,0.13041 0.34234,0.26013 0.52887,0.38885 0.37346,0.25774 0.7877,0.51167 1.24525,0.76233 0.45739,0.25055 0.95827,0.49754 1.50421,0.74058 0.4584,0.20407 0.95609,0.4046 1.47988,0.60309 0.10002,0.0379 0.19333,0.0768 0.29582,0.11452 0.63924,0.23517 1.32592,0.46585 2.06289,0.69262 0.3566,0.0257 0.68846,0.0717 1.00279,0.13303 0.0297,0.006 0.0617,0.01 0.091,0.016 2.3e-4,5e-5 3.2e-4,-7e-5 6.6e-4,0 0.0393,0.008 0.075,0.0194 0.11379,0.028 0.29525,0.0667 0.57531,0.14662 0.8341,0.24366 0.14643,0.0549 0.28679,0.11439 0.42215,0.17843 0.13537,0.0641 0.26523,0.1325 0.38997,0.20529 2.9e-4,1.8e-4 3.5e-4,3.1e-4 6.8e-4,6.6e-4 0.24928,0.14555 0.4779,0.30818 0.68735,0.48606 0.10476,0.0888 0.20516,0.18126 0.30054,0.27756 1.3e-4,1.2e-4 -1.2e-4,6.6e-4 0,6.6e-4 0.0954,0.0963 0.18654,0.19597 0.27307,0.2993 1.2e-4,1.4e-4 -1.3e-4,6.7e-4 0,6.7e-4 0.0864,0.10336 0.16905,0.20984 0.24716,0.31976 0.0783,0.11024 0.15172,0.2238 0.22206,0.34024 0.21074,0.34881 0.38667,0.72421 0.53358,1.12111 0.12584,0.34001 0.22515,0.69985 0.31229,1.06739 0.0145,0.0613 0.0343,0.11904 0.0479,0.18098 0.0634,0.28926 0.11611,0.58504 0.16086,0.8864 0.0447,0.30113 0.081,0.60726 0.11059,0.91709 4e-5,2.2e-4 -2e-5,3.1e-4 0,6.7e-4 0.0295,0.30962 0.0525,0.62263 0.0706,0.93755 6.7e-4,0.011 6.7e-4,0.0219 10e-4,0.0327 0.0348,0.61989 0.0513,1.24621 0.062,1.86681 0.011,0.63124 0.0164,1.25592 0.0306,1.86106 0.0213,0.90792 0.0621,1.77101 0.17027,2.54407 0.0361,0.25763 0.0799,0.50471 0.1326,0.74059 0.0265,0.11819 0.055,0.23329 0.0863,0.34533 0.0312,0.11183 0.0647,0.22016 0.1012,0.32554 0.0366,0.10562 0.0762,0.20769 0.11844,0.30633 0.0421,0.0985 0.0873,0.19283 0.13574,0.28396 0.0159,0.0297 0.0337,0.0567 0.0502,0.0857 0.0846,0.1485 0.17613,0.28849 0.28012,0.41442 0.062,0.0753 0.12815,0.14576 0.19774,0.21233 0.20881,0.19988 0.45168,0.35984 0.73602,0.47454 0.28413,0.11464 0.60933,0.18394 0.98082,0.20209 0.24767,0.0123 0.51573,10e-4 0.80664,-0.0333 0.14545,-0.0175 0.29661,-0.041 0.45354,-0.071 0.31386,-0.0599 0.65138,-0.14507 1.01378,-0.25709 0.18121,-0.056 0.3686,-0.11893 0.56261,-0.18867 0.77603,-0.27875 1.65602,-0.66858 2.65453,-1.18313 0.24962,-0.12865 0.50668,-0.26489 0.77133,-0.4093 0.51606,-0.42396 0.98489,-0.7999 1.42416,-1.14606 0.17021,-0.1341 0.31959,-0.24682 0.47867,-0.36965 0.26204,-0.20244 0.51744,-0.39835 0.75012,-0.5711 0.14267,-0.10594 0.27535,-0.2017 0.40725,-0.29675 0.21432,-0.15447 0.41584,-0.29665 0.60262,-0.42337 0.15968,-0.10828 0.32196,-0.21954 0.46218,-0.30827 0.0279,-0.0178 0.0581,-0.0367 0.0855,-0.0537 0.19852,-0.12357 0.37681,-0.22673 0.53594,-0.31082 0.0646,-0.0341 0.12765,-0.0661 0.18595,-0.0941 0.0256,-0.0123 0.0518,-0.0262 0.0762,-0.0371 0.0783,-0.0354 0.15098,-0.0642 0.21733,-0.0875 0.009,-0.002 0.0179,-0.008 0.0258,-0.01 0.0754,-0.0256 0.14195,-0.043 0.20168,-0.0532 0.009,-10e-4 0.0156,-6.7e-4 0.0242,-10e-4 0.0474,-0.006 0.0899,-0.008 0.12712,-0.005 0.0123,10e-4 0.022,0.005 0.0329,0.006 0.031,0.006 0.058,0.0158 0.0809,0.03 0.008,0.005 0.014,0.01 0.0204,0.0146 0.0223,0.0184 0.0403,0.0414 0.0534,0.0691 0.003,0.005 0.005,0.01 0.008,0.0146 0.0136,0.0354 0.0223,0.0758 0.0226,0.12409 0,0.0502 -0.005,0.10702 -0.0179,0.17073 16.11891,-25.83873 34.02899,-52.28014 35.1318,-81.88244 z"
       style="fill:#2a7fff;fill-opacity:1;stroke-width:0.45385963" />
    <path
       sodipodi:nodetypes="ccccsc"
       inkscape:connector-curvature="0"
       id="path3340"
       d="m 113.96729,314.43682 c -10.61873,7.93458 -32.306941,7.93803 -23.270832,24.71171 4.85512,7.50079 8.589085,13.57208 14.561822,19.38952 0.43353,-0.29352 0.79576,-0.57835 1.03263,-0.80012 4.65726,-4.36036 10.55204,-19.8915 10.54433,-33.98177 -0.002,-5.47905 -1.39754,-8.47659 -2.86795,-9.31934 z"
       style="fill:#003380;stroke-width:0.45385963" />
    <path
       sodipodi:nodetypes="ccccccscccccccscccccccccssccsscccccccccccccccccscccccscccccccc"
       id="path3342-8"
       d="m 367.65764,95.291084 c -7.2684,27.932476 -46.61045,47.623576 -73.01151,60.219206 -0.17136,0.0818 -0.34849,0.16677 -0.51875,0.24794 -0.41995,0.20095 -0.84497,0.40471 -1.24794,0.59649 -0.4772,0.21785 -0.96523,0.43181 -1.45826,0.64316 -0.0757,0.0324 -0.15119,0.0648 -0.22725,0.097 -0.25559,0.10851 -0.51818,0.21435 -0.77781,0.32128 -0.4174,0.17188 -0.83855,0.34256 -1.26608,0.51039 -0.21971,0.0862 -0.44061,0.17182 -0.6629,0.25703 -0.466,0.17868 -0.93837,0.3548 -1.41545,0.5292 -0.19759,0.0722 -0.39333,0.14548 -0.59279,0.21702 -0.63201,0.22672 -1.2714,0.45028 -1.9212,0.67044 -0.0329,0.011 -0.064,0.0229 -0.0968,0.0339 -0.005,0.001 -0.009,0.002 -0.013,0.005 -0.71047,0.23998 -1.43379,0.47559 -2.16401,0.70863 -0.1393,0.0445 -0.28078,0.0886 -0.42076,0.13274 -0.58982,0.18633 -1.18521,0.37043 -1.7868,0.55286 -0.19127,0.0579 -0.38346,0.11574 -0.5759,0.17337 -0.6025,0.18048 -1.2106,0.35927 -1.8238,0.53647 -0.13593,0.0392 -0.27066,0.0791 -0.4071,0.1182 -1.0012,0.28717 -2.02048,0.5696 -3.04703,0.84987 -0.9063,0.24733 -1.82204,0.49259 -2.74579,0.73591 -0.44801,0.11808 -0.89679,0.23605 -1.34852,0.35341 -0.25109,0.0651 -0.50686,0.13018 -0.75902,0.19519 -1.55652,0.40149 -3.13166,0.80112 -4.72412,1.19904 -4.99949,1.24929 -10.14275,2.49602 -15.29493,3.83231 -7.29497,1.89205 -14.58984,3.96376 -21.45007,6.47832 -2.7e-4,1.7e-4 -3.2e-4,3.1e-4 0,6.7e-4 -5.38061,1.97224 -10.498,4.21243 -15.13392,6.85657 -20.98203,11.9673 -36.24251,28.27235 -48.12461,47.23229 -15.98502,25.50683 -4.91319,58.30717 -48.64577,82.70628 -0.7245,0.86012 -1.61806,1.65259 -2.63151,2.39565 0.049,-0.036 0.0988,-0.0711 0.1474,-0.10723 1.4704,0.84275 2.86501,3.84046 2.86784,9.31952 0.007,14.09027 -5.88695,29.62124 -10.54421,33.98162 -0.23605,0.22098 -0.59759,0.50408 -1.02909,0.79651 15.60541,15.1998 38.19109,25.55754 62.6322,27.65731 12.10212,1.30529 29.16357,0.69357 36.3522,0.68014 61.07783,-0.15213 119.28148,-28.50614 154.24668,-68.72403 3.6461,-4.42384 22.32321,-26.2733 7.20304,-13.85198 -16.93698,9.24357 -2.67903,-14.29142 -15.16769,-15.19347 -23.57479,-7.2539 4.01364,-18.91986 8.30941,-27.80154 -10.78826,-5.29744 -16.97256,-13.79258 -8.19191,-23.30607 16.12573,-11.70491 -9.95292,-2.49454 -13.82432,-6.58683 20.60131,-23.02183 40.14835,-48.14296 44.49668,-77.0433 2.73018,-20.06743 -0.71097,-41.7505 -13.20429,-59.225283 z M 200.04694,234.99351 c 12.46114,-0.0151 13.3946,19.35377 14.76711,28.04584 2.07391,13.00425 4.47543,27.61707 -14.73788,32.48616 -1.30545,0.55686 -6.34962,3.78233 -4.86892,-0.2061 5.46194,-9.49652 -4.00274,-33.46914 -18.61143,-21.54874 -1.4555,-13.53342 3.38582,-29.00859 17.37002,-37.49629 2.28557,-0.88099 4.30095,-1.27871 6.0811,-1.28087 z m -87.00401,79.93422 c -0.0846,0.0598 -0.1715,0.11856 -0.25777,0.17761 0.0863,-0.059 0.17273,-0.11758 0.25777,-0.17761 z m -8.60936,43.39451 0,0.008 c 0.0583,0.0575 0.11943,0.11354 0.17792,0.17095 -0.06,-0.0589 -0.11844,-0.11869 -0.17792,-0.17764 z"
       style="fill:#0055d4;fill-opacity:1;stroke-width:0.45385963"
       inkscape:connector-curvature="0" />
  </g>
  <path
     style="opacity:1;fill:#9c4242;fill-opacity:1;fill-rule:evenodd;stroke:none;stroke-width:1.14897633;stroke-linecap:butt;stroke-linejoin:round;stroke-miterlimit:4;stroke-dasharray:none;stroke-dashoffset:0;stroke-opacity:1"
     id="path4231"
     sodipodi:type="arc"
     sodipodi:cx="-372.45239"
     sodipodi:cy="350.8894"
     sodipodi:rx="289.90512"
     sodipodi:ry="350.49344"
     sodipodi:start="0"
     sodipodi:end="0.049042181"
     sodipodi:open="true"
     d="m -82.547272,350.8894 a 289.90512,350.49344 0 0 1 -0.34856,17.18208" />
  <path
     style="opacity:1;fill:#9c4242;fill-opacity:1;fill-rule:evenodd;stroke:none;stroke-width:1.14897633;stroke-linecap:butt;stroke-linejoin:round;stroke-miterlimit:4;stroke-dasharray:none;stroke-dashoffset:0;stroke-opacity:1"
     id="path4233"
     sodipodi:type="arc"
     sodipodi:cx="-714.7525"
     sodipodi:cy="202.36014"
     sodipodi:rx="303.14401"
     sodipodi:ry="282.90164"
     sodipodi:start="0"
     sodipodi:end="0.049042181"
     sodipodi:open="true"
     d="m -411.60849,202.36014 a 303.14401,282.90164 0 0 1 -0.36448,13.86855" />
</svg>
