<?xml version="1.0" encoding="UTF-8" standalone="no"?>
<svg
   xmlns:dc="http://purl.org/dc/elements/1.1/"
   xmlns:cc="http://creativecommons.org/ns#"
   xmlns:rdf="http://www.w3.org/1999/02/22-rdf-syntax-ns#"
   xmlns:svg="http://www.w3.org/2000/svg"
   xmlns="http://www.w3.org/2000/svg"
   xmlns:xlink="http://www.w3.org/1999/xlink"
   xmlns:sodipodi="http://sodipodi.sourceforge.net/DTD/sodipodi-0.dtd"
   xmlns:inkscape="http://www.inkscape.org/namespaces/inkscape"
   viewBox="0 0 48 48"
   id="svg2"
   version="1.1"
   inkscape:version="0.91 r13725"
   sodipodi:docname="gwenview.svg">
  <metadata
     id="metadata50">
    <rdf:RDF>
      <cc:Work
         rdf:about="">
        <dc:format>image/svg+xml</dc:format>
        <dc:type
           rdf:resource="http://purl.org/dc/dcmitype/StillImage" />
        <dc:title></dc:title>
      </cc:Work>
    </rdf:RDF>
  </metadata>
  <sodipodi:namedview
     pagecolor="#ffffff"
     bordercolor="#666666"
     borderopacity="1"
     objecttolerance="10"
     gridtolerance="10"
     guidetolerance="10"
     inkscape:pageopacity="0"
     inkscape:pageshadow="2"
     inkscape:window-width="1280"
     inkscape:window-height="694"
     id="namedview48"
     showgrid="false"
     inkscape:zoom="4.9166667"
     inkscape:cx="3.8386379"
     inkscape:cy="24"
     inkscape:window-x="0"
     inkscape:window-y="0"
     inkscape:window-maximized="1"
     inkscape:current-layer="svg2" />
  <defs
     id="defs4">
    <linearGradient
       gradientUnits="userSpaceOnUse"
       y2="7.01"
       x2="15.586"
       y1="32.556"
       x1="16.183"
       id="4"
       gradientTransform="matrix(0.99998972,0,0,0.99998972,16.755178,-8.8929528)">
      <stop
         stop-color="#fe3f3c"
         id="stop7" />
      <stop
         offset="1"
         stop-color="#ff8729"
         id="stop9" />
    </linearGradient>
    <linearGradient
       id="5">
      <stop
         stop-color="#cfd6da"
         id="stop12" />
      <stop
         offset="1"
         stop-color="#f2f7f9"
         id="stop14" />
    </linearGradient>
    <linearGradient
       xlink:href="#5"
       id="3"
       x1="610.68"
       y1="499.8"
       x2="609.35"
       y2="460.12"
       gradientUnits="userSpaceOnUse"
       gradientTransform="matrix(0.57103408,0,0,0.5723351,-319.58213,-232.8353)" />
    <linearGradient
       gradientUnits="userSpaceOnUse"
       y2="20.552"
       x2=".293"
       y1="50.644"
       x1=".401"
       id="1"
       gradientTransform="matrix(0.99998789,0,0,0.99998789,18.024265,-5.9115542)">
      <stop
         stop-color="#0173dd"
         id="stop18" />
      <stop
         offset="1"
         stop-color="#00b1ff"
         id="stop20" />
    </linearGradient>
    <linearGradient
       id="0"
       x1="6.966"
       y1="38.651"
       x2="20.332"
       y2="53.3"
       gradientUnits="userSpaceOnUse"
       gradientTransform="matrix(0.99999046,0,0,0.99999046,17.986813,-6.0245466)">
      <stop
         stop-color="#d3d3d3"
         id="stop23" />
      <stop
         offset="1"
         stop-color="#fcf9f9"
         id="stop25" />
    </linearGradient>
    <linearGradient
       xlink:href="#5"
       id="2"
       x1="11.223"
       y1="59.39"
       x2="10.454"
       y2="36.423"
       gradientUnits="userSpaceOnUse"
       gradientTransform="matrix(0.99999046,0,0,0.99999046,17.986813,-6.0245466)" />
  </defs>
  <path
     d="m 12.590321,10.364233 c -3.1278916,0 -5.6660255,2.49471 -5.6660255,5.571782 l 0,3.876408 c -1.2997639,1.225103 -1.6936351,4.653832 -1.6936351,6.464121 l 14.5479486,0 c 0,-1.809217 -0.221063,-5.238044 -1.520827,-6.464218 l 0,-3.876311 c -1.1e-4,-3.075514 -2.537582,-5.571782 -5.667461,-5.571782 z m 4.425337,7.099558 c -0.02783,0 -0.05024,-0.01529 -0.07807,-0.0187 -0.07244,0.188537 -0.161214,0.368504 -0.264568,0.543797 -0.759916,1.308757 -2.299625,2.206256 -4.082811,2.206256 -1.546003,0 -2.906719,-0.678091 -3.7385194,-1.711345 -5.521e-4,-9.74e-4 -0.0011,-0.0019 -0.00166,-0.0029 C 8.7224992,18.323992 8.6064469,18.160093 8.5060743,17.986943 8.4030517,17.813695 8.3151567,17.63363 8.2427206,17.44519 c -0.025618,0.0034 -0.048033,0.0187 -0.076742,0.0187 -0.4507379,0 -0.8177769,-0.432487 -0.8177769,-0.967617 0,-0.389053 0.1985367,-0.709352 0.4786744,-0.858351 0.085134,0.308224 0.1884884,0.49715 0.2105726,0.49306 -0.075417,-0.1117 0.8530012,-1.859273 4.1734668,-1.306906 0.95503,0.158738 1.565437,-0.351852 1.892393,-1.038026 0.04251,0.01062 0.08149,0.02259 0.127205,0.03126 2.201571,0.458098 2.769576,2.244236 2.702661,2.3126 0.0201,0.0061 0.115941,-0.26216 0.177335,-0.671177 0.0056,0.03301 0.01568,0.06515 0.02109,0.09846 0.393871,0.06944 0.701835,0.453424 0.701835,0.937622 1.1e-4,0.536494 -0.366929,0.968981 -0.817777,0.968981 z"
     id="path7"
     inkscape:connector-curvature="0"
     style="fill:#80b3ff" />
  <path
     d="m 14.521803,15.255295 c -0.484748,0 -0.879171,0.347859 -0.879171,0.775379 0,0.42752 0.394423,0.775379 0.879171,0.775379 0.48541,0 0.880275,-0.347859 0.880275,-0.775379 0,-0.426741 -0.394644,-0.7746 -0.880275,-0.775379 z"
     id="path9"
     inkscape:connector-curvature="0"
     style="fill:#002255" />
  <path
     d="m 11.539115,16.030674 c 0,-0.426741 -0.394645,-0.7746 -0.880386,-0.775379 -0.484748,0 -0.8791709,0.347859 -0.8791709,0.775379 0,0.42752 0.3944229,0.775379 0.8791709,0.775379 0.485521,0 0.880386,-0.347762 0.880386,-0.775379 z"
     id="path11"
     inkscape:connector-curvature="0"
     style="fill:#002255" />
  <path
     d="m 13.773039,18.45887 c -0.279807,0.167892 -0.71089,0.264205 -1.182718,0.264205 -0.470614,0 -0.902249,-0.09651 -1.184374,-0.264692 -0.130628,-0.07791 -0.305424,-0.06388 -0.417943,0.03369 -0.112408,0.09758 -0.13129,0.251546 -0.04505,0.368018 0.294824,0.398207 0.92599,0.645565 1.647259,0.645565 0.721931,0 1.352986,-0.247553 1.646927,-0.646052 0.08602,-0.116667 0.0668,-0.270633 -0.04594,-0.368018 -0.11263,-0.09738 -0.287536,-0.111116 -0.418164,-0.03272 z"
     id="path13"
     inkscape:connector-curvature="0"
     style="fill:#002255" />
  <path
     d="m 40.657095,24.021791 -0.160883,0.305301 c -0.294824,-0.42937 -0.706914,-1.080583 -1.169798,-1.811749 -1.304733,-2.06164 -3.092005,-4.885316 -4.942659,-7.088066 l -0.03776,-0.04285 c -1.839832,-2.007785 -3.884164,-2.983972 -6.249048,-2.983972 -0.771952,0 -1.580895,0.108681 -2.404524,0.322928 -2.800273,0.728148 -3.23224,2.28806 -3.287892,2.923497 -0.108985,1.225492 0.959889,3.529133 3.819568,4.722293 l 0.0023,1.826942 c 1.420785,-0.336076 3.163116,-1.009882 3.302688,-2.014116 0.115611,-0.83118 -0.369468,-1.629932 -1.228211,-1.990451 -2.549618,-1.066852 -3.016698,-2.004279 -2.976395,-2.34425 0.179213,-1.51531 3.787988,-2.055504 6.724631,1.140085 1.732061,2.066509 3.45816,4.793775 4.719608,6.786952 0.408226,0.645078 0.761462,1.203289 1.055292,1.643956 l -8.381164,15.94922 c -0.825064,-0.197692 -1.546554,-0.286117 -2.276547,-0.286117 -0.454492,0 -0.871331,0.03331 -1.276686,0.06564 -0.445548,0.03535 -0.906334,0.07187 -1.497527,0.07187 -0.393099,0 -0.80265,-0.01578 -1.252394,-0.0484 -2.670197,-0.192725 -6.953201,-2.030087 -8.911957,-3.006371 -0.967508,-0.628133 -1.057059,-1.034325 -0.87884,-1.866382 l -2.958837,0 c -0.162871,1.230751 0.0784,2.662212 2.187216,4.001645 l 0.06338,0.04032 0.0678,0.03409 c 0.627412,0.31504 6.243306,3.086129 10.191956,3.371175 0.53002,0.03847 1.018081,0.05707 1.491676,0.05707 0.722925,0 1.273925,-0.04373 1.764415,-0.08278 0.369247,-0.0296 0.687811,-0.05483 1.01013,-0.05483 0.530682,0 1.205575,0.05941 2.537692,0.489749 l 0.286432,0.100015 -0.150062,0.284656 7.284353,2.987088 10.816496,-20.516964 -7.284464,-2.987185 z"
     id="path15"
     inkscape:connector-curvature="0"
     style="fill:#006df0" />
  <path
     d="m 24.863379,31.340562 0,-9.769951 -0.786197,-0.487704 C 23.232463,20.641851 22.526101,20.101851 21.9592,19.516471 l 0,9.001972 -18.7932993,0 0,-21.7354442 18.7932993,0 0,6.0505272 c 0.596604,-0.440278 1.399805,-0.84053 2.485794,-1.122849 0.139903,-0.03632 0.279144,-0.06924 0.418385,-0.100209 l 0,-7.6497824 c 0,-2.0379749 -1.87318,-3.69001317 -4.183957,-3.69001317 l -16.2336331,0 c -2.3107773,0 -4.1839568,1.65203827 -4.1839568,3.69001317 l 0,27.3797784 c 0,2.038072 1.8731795,3.690208 4.1839568,3.690208 l 16.2337431,0 c 2.310667,0 4.183847,-1.652136 4.183847,-3.69011 z M 19.200666,3.6742764 c 0.495569,0 0.897169,0.3542865 0.897169,0.7913501 0,0.4370637 -0.4016,0.7913501 -0.897169,0.7913501 -0.495569,0 -0.89739,-0.3542864 -0.89739,-0.7913501 0,-0.4370636 0.401821,-0.7913501 0.89739,-0.7913501 z m -10.5211205,0.1486095 7.7661195,0 0,1.2922983 -7.7661195,0 0,-1.2922983 z M 12.562605,32.189174 c -0.86327,0 -1.563007,-0.617128 -1.563007,-1.378386 0,-0.761161 0.699737,-1.37829 1.563007,-1.37829 0.86316,0 1.562897,0.617129 1.562897,1.37829 0,0.761258 -0.699737,1.378386 -1.562897,1.378386 z"
     id="path17"
     inkscape:connector-curvature="0"
     style="fill:#002255" />
</svg>
