<?xml version="1.0" encoding="UTF-8" standalone="no"?>
<svg
   xmlns:dc="http://purl.org/dc/elements/1.1/"
   xmlns:cc="http://creativecommons.org/ns#"
   xmlns:rdf="http://www.w3.org/1999/02/22-rdf-syntax-ns#"
   xmlns:svg="http://www.w3.org/2000/svg"
   xmlns="http://www.w3.org/2000/svg"
   xmlns:xlink="http://www.w3.org/1999/xlink"
   xmlns:sodipodi="http://sodipodi.sourceforge.net/DTD/sodipodi-0.dtd"
   xmlns:inkscape="http://www.inkscape.org/namespaces/inkscape"
   viewBox="0 0 48 48"
   id="svg2"
   version="1.1"
   inkscape:version="0.91 r13725"
   sodipodi:docname="heimdall-frontend.svg">
  <metadata
     id="metadata37">
    <rdf:RDF>
      <cc:Work
         rdf:about="">
        <dc:format>image/svg+xml</dc:format>
        <dc:type
           rdf:resource="http://purl.org/dc/dcmitype/StillImage" />
        <dc:title></dc:title>
      </cc:Work>
    </rdf:RDF>
  </metadata>
  <sodipodi:namedview
     pagecolor="#ffffff"
     bordercolor="#666666"
     borderopacity="1"
     objecttolerance="10"
     gridtolerance="10"
     guidetolerance="10"
     inkscape:pageopacity="0"
     inkscape:pageshadow="2"
     inkscape:window-width="1280"
     inkscape:window-height="694"
     id="namedview35"
     showgrid="false"
     inkscape:zoom="4.9166667"
     inkscape:cx="-6.4067797"
     inkscape:cy="24"
     inkscape:window-x="0"
     inkscape:window-y="0"
     inkscape:window-maximized="1"
     inkscape:current-layer="svg2" />
  <defs
     id="defs4">
    <linearGradient
       gradientUnits="userSpaceOnUse"
       y2="501.13"
       x2="0"
       y1="545.91"
       id="0">
      <stop
         stop-color="#4fd127"
         id="stop7" />
      <stop
         offset="1"
         stop-color="#c6f61a"
         id="stop9" />
    </linearGradient>
    <linearGradient
       y1="545.92"
       x2="0"
       y2="518.27"
       gradientUnits="userSpaceOnUse"
       xlink:href="#0"
       id="linearGradient11" />
  </defs>
  <g
     transform="matrix(4.1472066,0,0,3.5282254,-1268.1316,-1844.7173)"
     id="g15"
     style="opacity:0.9;fill:#225500">
    <path
       d="m 309.43,533.85 -0.211,1.846 c 0.15,1.021 1.399,0.828 1.582,0.158 l 0.292,-1.743 1.181,0.003 0.162,1.565 c 0.077,0.949 1.722,1.057 1.646,-0.246 l -0.274,-1.635 c 0.851,-0.035 1.152,-0.492 1.216,-1.014 l 0.089,-1.887 2.02,-2.162 c 0.528,-0.777 -0.218,-1.814 -1.108,-1.108 -0.611,0.791 -1.11,1.346 -2.407,1.633 -0.926,0.204 -2.54,0.314 -4.02,-0.043 -0.801,-0.193 -1.371,-0.433 -2.196,-1.513 -0.791,-0.94 -2.103,-0.081 -1.354,0.932 l 2.187,2.236 0.088,1.933 c 0.063,0.694 0.762,0.863 1.104,1.046"
       id="path17"
       style="opacity:1;fill:#225500;fill-rule:evenodd"
       inkscape:connector-curvature="0" />
    <g
       transform="matrix(1.0002,0,0,1.0002,-0.055,0.055)"
       id="g19"
       style="fill:#225500">
      <g
         transform="translate(16.831,2.279)"
         id="g21"
         style="fill:#225500">
        <path
           d="m 291.52,525.88 c 1.82,1.165 4.832,1.102 6.701,0.042 0.672,-5.247 -7.079,-5.664 -6.701,-0.042"
           id="path23"
           style="opacity:1;fill:#225500;fill-rule:evenodd"
           inkscape:connector-curvature="0" />
        <rect
           transform="matrix(0.86173,-0.50737,0.50737,0.86173,0,0)"
           y="596.81"
           x="-12.388"
           height="2.6719999"
           width="0.382"
           rx="0.191"
           id="rect25"
           style="opacity:1;fill:#225500" />
        <rect
           transform="matrix(-0.86173,-0.50737,-0.50737,0.86173,0,0)"
           y="297.64001"
           x="-520.51001"
           height="2.6719999"
           width="0.382"
           rx="0.191"
           id="rect27"
           style="opacity:1;fill:#225500" />
      </g>
      <g
         id="g29"
         style="fill:#225500">
        <circle
           cx="310.39999"
           cy="526.44"
           r="0.54900002"
           id="circle31"
           style="opacity:1;fill:#225500" />
        <circle
           cx="313"
           cy="526.42999"
           r="0.54900002"
           id="circle33"
           style="opacity:1;fill:#225500" />
      </g>
    </g>
  </g>
</svg>
