<?xml version="1.0" encoding="UTF-8" standalone="no"?>
<svg
   xmlns:dc="http://purl.org/dc/elements/1.1/"
   xmlns:cc="http://creativecommons.org/ns#"
   xmlns:rdf="http://www.w3.org/1999/02/22-rdf-syntax-ns#"
   xmlns:svg="http://www.w3.org/2000/svg"
   xmlns="http://www.w3.org/2000/svg"
   xmlns:sodipodi="http://sodipodi.sourceforge.net/DTD/sodipodi-0.dtd"
   xmlns:inkscape="http://www.inkscape.org/namespaces/inkscape"
   viewBox="0 0 48 48"
   id="svg2"
   version="1.1"
   inkscape:version="0.91 r13725"
   sodipodi:docname="im-qq.svg">
  <metadata
     id="metadata21">
    <rdf:RDF>
      <cc:Work
         rdf:about="">
        <dc:format>image/svg+xml</dc:format>
        <dc:type
           rdf:resource="http://purl.org/dc/dcmitype/StillImage" />
        <dc:title></dc:title>
      </cc:Work>
    </rdf:RDF>
  </metadata>
  <sodipodi:namedview
     pagecolor="#ffffff"
     bordercolor="#666666"
     borderopacity="1"
     objecttolerance="10"
     gridtolerance="10"
     guidetolerance="10"
     inkscape:pageopacity="0"
     inkscape:pageshadow="2"
     inkscape:window-width="1280"
     inkscape:window-height="694"
     id="namedview19"
     showgrid="false"
     inkscape:zoom="4.9166667"
     inkscape:cx="-9.1525424"
     inkscape:cy="24"
     inkscape:window-x="0"
     inkscape:window-y="0"
     inkscape:window-maximized="1"
     inkscape:current-layer="svg2" />
  <defs
     id="defs4">
    <linearGradient
       y2="518.14"
       x2="0"
       y1="545.14"
       gradientUnits="userSpaceOnUse"
       id="0">
      <stop
         stop-color="#197ff1"
         id="stop7" />
      <stop
         offset="1"
         stop-color="#21c6fb"
         id="stop9" />
    </linearGradient>
  </defs>
  <path
     d="m 42.061927,31.922846 c -2.009268,-1.421176 -4.514602,-1.320702 -5.942273,0.715214 -1.42504,2.034593 -11.393741,14.595135 -27.7244632,9.379753 0.6158068,0.538064 1.2645092,1.051008 1.9447912,1.532225 10.712143,7.579158 25.511243,4.997247 33.053561,-5.766664 1.427672,-2.035916 0.675018,-4.439355 -1.332932,-5.861851 M 10.546567,30.319231 C 9.5044325,28.061216 3.6634789,13.10649 16.323045,1.5070601 15.551971,1.7727867 14.78616,2.0808181 14.030875,2.4324762 2.1358044,7.9651428 -3.031446,22.134587 2.472656,34.079064 c 1.0421346,2.258016 3.4882559,2.807978 5.7198976,1.770189 2.2276944,-1.036465 3.3948314,-3.26804 2.3553294,-5.527378 M 26.129899,0.3225274 c -2.465858,-0.2234219 -4.161958,1.6326985 -4.384333,4.0916615 -0.219743,2.4589629 1.119769,4.5900641 3.585627,4.8121639 2.465858,0.2234219 18.27683,2.6176062 21.94667,19.4350612 0.157898,-0.805112 0.273692,-1.624767 0.348694,-2.458963 C 48.802905,13.090626 39.178951,1.5044161 26.129899,0.3225274 M 15.980931,25.467407 c -0.680283,1.60758 -0.789496,3.139804 -0.243428,3.426684 0.376326,0.196981 0.965816,-0.252507 1.518463,-1.07745 0.218427,0.898976 0.759232,1.713343 1.532938,2.366422 -0.810549,0.300099 -1.339511,0.791892 -1.339511,1.347141 0,0.91484 1.432934,1.655173 3.20009,1.655173 1.594781,0 2.914555,-0.60152 3.159298,-1.392091 0.0658,-1.32e-4 0.317115,-1.32e-4 0.380274,0 0.244744,0.789249 1.565834,1.392091 3.160616,1.392091 1.76847,0 3.20009,-0.741655 3.20009,-1.655173 0,-0.555249 -0.528962,-1.047042 -1.339512,-1.347141 0.771074,-0.654402 1.314511,-1.466124 1.532938,-2.366422 0.551332,0.824943 1.140822,1.274431 1.517148,1.07745 0.546068,-0.285558 0.43817,-1.820427 -0.243428,-3.426684 -0.534226,-1.262533 -1.259246,-2.193237 -1.811893,-2.39815 0.0078,-0.07932 0.01184,-0.161287 0.01184,-0.243253 0,-0.487827 -0.13553,-0.938636 -0.3658,-1.306158 0.004,-0.02909 0.004,-0.05817 0.004,-0.08593 0,-0.224745 -0.05396,-0.434947 -0.143425,-0.617386 -0.139478,-3.283904 -2.267169,-5.890935 -5.709371,-5.890935 -3.444834,0 -5.572525,2.607031 -5.709371,5.890935 -0.0921,0.182439 -0.144741,0.392641 -0.144741,0.617386 0,0.02908 0.0026,0.05817 0.0026,0.08593 -0.228953,0.367522 -0.363168,0.818331 -0.363168,1.306158 0,0.08197 0.0026,0.162609 0.01057,0.243253 -0.550016,0.206235 -1.277668,1.136939 -1.809262,2.39815 z"
     id="path17"
     style="fill:#00aad4"
     inkscape:connector-curvature="0" />
</svg>
