<?xml version="1.0" encoding="UTF-8" standalone="no"?>
<svg
   xmlns:dc="http://purl.org/dc/elements/1.1/"
   xmlns:cc="http://creativecommons.org/ns#"
   xmlns:rdf="http://www.w3.org/1999/02/22-rdf-syntax-ns#"
   xmlns:svg="http://www.w3.org/2000/svg"
   xmlns="http://www.w3.org/2000/svg"
   xmlns:sodipodi="http://sodipodi.sourceforge.net/DTD/sodipodi-0.dtd"
   xmlns:inkscape="http://www.inkscape.org/namespaces/inkscape"
   viewBox="0 0 48 48"
   id="svg2"
   version="1.1"
   inkscape:version="0.91 r13725"
   sodipodi:docname="internet-mail.svg">
  <metadata
     id="metadata35">
    <rdf:RDF>
      <cc:Work
         rdf:about="">
        <dc:format>image/svg+xml</dc:format>
        <dc:type
           rdf:resource="http://purl.org/dc/dcmitype/StillImage" />
        <dc:title></dc:title>
      </cc:Work>
    </rdf:RDF>
  </metadata>
  <sodipodi:namedview
     pagecolor="#ffffff"
     bordercolor="#666666"
     borderopacity="1"
     objecttolerance="10"
     gridtolerance="10"
     guidetolerance="10"
     inkscape:pageopacity="0"
     inkscape:pageshadow="2"
     inkscape:window-width="1280"
     inkscape:window-height="694"
     id="namedview33"
     showgrid="false"
     inkscape:zoom="4.9166667"
     inkscape:cx="-5.339082"
     inkscape:cy="23.274319"
     inkscape:window-x="0"
     inkscape:window-y="0"
     inkscape:window-maximized="1"
     inkscape:current-layer="svg2" />
  <defs
     id="defs4">
    <linearGradient
       id="0"
       x1="264.9"
       y1="544.13"
       x2="264.45"
       y2="534.56"
       gradientUnits="userSpaceOnUse"
       gradientTransform="matrix(2.0729608,0,0,2.0729608,-533.0828,-1082.1559)">
      <stop
         stop-color="#d8d8d8"
         id="stop7" />
      <stop
         offset="1"
         stop-color="#f9f9f9"
         id="stop9" />
    </linearGradient>
    <linearGradient
       id="1"
       x1="269.5"
       y1="543.62"
       x2="268.71"
       y2="523.22"
       gradientUnits="userSpaceOnUse"
       gradientTransform="matrix(2.0729608,0,0,2.0729608,-533.0828,-1082.1559)">
      <stop
         stop-color="#cfd0d2"
         id="stop12" />
      <stop
         offset="1"
         stop-color="#f4f4f5"
         id="stop14" />
    </linearGradient>
    <linearGradient
       id="2"
       x1="268.25"
       y1="539.24"
       x2="268.14"
       y2="522.76"
       gradientUnits="userSpaceOnUse"
       gradientTransform="matrix(2.0729608,0,0,2.0729608,-533.0828,-1082.1559)">
      <stop
         stop-color="#0a80fd"
         id="stop17" />
      <stop
         offset="1"
         stop-color="#56c5fa"
         id="stop19" />
    </linearGradient>
  </defs>
  <g
     id="g3"
     transform="matrix(0.14246383,0,0,0.09724691,-10.460885,0.40731556)">
    <path
       d="m 409.397,91.038 0,333.521 -30.322,0 0,-44.095 -75.821,41.285 L 303.077,88.73 C 297.065,49.634 273.343,17.739 240.86,0 l 77.562,0 c 46.195,6.576 83.69,43.74 90.975,91.038 z m -121.301,0 0,394.174 -30.327,0 0,-64.914 0.061,0 -151.692,-21.678 0,56.267 -30.323,0 0,-60.593 0,-303.256 C 83.869,38.62 128.943,0 181.954,0 234.965,0 280.04,38.62 288.096,91.038 Z m -45.491,-0.06 -121.302,0 0,60.651 121.302,0 0,-60.651 z"
       id="path5"
       inkscape:connector-curvature="0"
       style="fill:#006df0" />
  </g>
  <path
     style="fill:#003380;fill-opacity:1"
     inkscape:connector-curvature="0"
     id="path31"
     d="m 36.001558,23.440809 q 5.024263,0 8.455131,3.526056 3.430869,3.52606 3.430869,8.514161 0,2.806848 -1.194616,4.646873 -1.163676,1.840025 -3.39993,1.840025 -2.297271,0 -3.430868,-2.276627 -1.501434,2.276627 -4.288585,2.276627 -2.512133,0 -4.227565,-1.777902 -1.715434,-1.808527 -1.715434,-4.584751 0,-2.744726 1.715434,-4.553251 1.715432,-1.808527 4.104665,-1.808527 2.359153,0 3.920747,1.840023 l 0.122905,0 0,-1.403421 2.205313,0 0,8.139679 q 0,0.811081 0.428857,1.465547 0.4598,0.655338 1.378537,0.655338 2.175232,0 2.175232,-4.459633 0,-4.11665 -2.81809,-6.95412 -2.818092,-2.838344 -6.861737,-2.838344 -4.043645,0 -6.861737,2.838344 -2.818089,2.838346 -2.818089,6.95412 0,4.116651 2.818089,6.954123 2.818092,2.838344 6.861737,2.838344 2.175233,0 3.890666,-0.873203 l 0.857717,2.120886 q -2.144292,0.99832 -4.748383,0.99832 -5.085283,0 -8.54709,-3.49281 -3.463527,-3.526058 -3.463527,-8.544783 0,-4.989854 3.463527,-8.514162 3.491888,-3.526057 8.54709,-3.526057 m -2.849032,15.063179 q 1.102656,1.09194 2.634171,1.09194 1.531516,0 2.604093,-1.09194 1.102655,-1.091942 1.102655,-2.900468 0,-1.808527 -1.102655,-2.900467 -1.072577,-1.091939 -2.604093,-1.091939 -1.531515,0 -2.634171,1.091939 -1.072577,1.09194 -1.072577,2.900467 0,1.808526 1.072577,2.900468" />
</svg>
