<?xml version="1.0" encoding="UTF-8" standalone="no"?>
<svg
   xmlns:dc="http://purl.org/dc/elements/1.1/"
   xmlns:cc="http://creativecommons.org/ns#"
   xmlns:rdf="http://www.w3.org/1999/02/22-rdf-syntax-ns#"
   xmlns:svg="http://www.w3.org/2000/svg"
   xmlns="http://www.w3.org/2000/svg"
   xmlns:sodipodi="http://sodipodi.sourceforge.net/DTD/sodipodi-0.dtd"
   xmlns:inkscape="http://www.inkscape.org/namespaces/inkscape"
   viewBox="0 0 48 48"
   id="svg2"
   version="1.1"
   inkscape:version="0.91 r13725"
   sodipodi:docname="kblogger.svg">
  <metadata
     id="metadata57">
    <rdf:RDF>
      <cc:Work
         rdf:about="">
        <dc:format>image/svg+xml</dc:format>
        <dc:type
           rdf:resource="http://purl.org/dc/dcmitype/StillImage" />
        <dc:title></dc:title>
      </cc:Work>
    </rdf:RDF>
  </metadata>
  <sodipodi:namedview
     pagecolor="#ffffff"
     bordercolor="#666666"
     borderopacity="1"
     objecttolerance="10"
     gridtolerance="10"
     guidetolerance="10"
     inkscape:pageopacity="0"
     inkscape:pageshadow="2"
     inkscape:window-width="1280"
     inkscape:window-height="694"
     id="namedview55"
     showgrid="false"
     inkscape:zoom="4.9166667"
     inkscape:cx="-9.1525424"
     inkscape:cy="24"
     inkscape:window-x="0"
     inkscape:window-y="0"
     inkscape:window-maximized="1"
     inkscape:current-layer="svg2" />
  <defs
     id="defs4">
    <linearGradient
       y2="147.64"
       x2="3.419"
       y1="204.55"
       x1=".967"
       gradientUnits="userSpaceOnUse"
       id="0"
       gradientTransform="matrix(0.40839592,-2.99997e-4,3.099969e-4,0.38930611,13.379632,-57.777113)">
      <stop
         stop-color="#f15400"
         id="stop7" />
      <stop
         offset="1"
         stop-color="#fa8c00"
         id="stop9" />
    </linearGradient>
    <linearGradient
       id="1"
       y1="14.831"
       x2="0"
       y2="-8.704"
       gradientUnits="userSpaceOnUse"
       gradientTransform="matrix(0.99999,0,0,0.99999,-23.371,30.882)">
      <stop
         stop-color="#cdd7dc"
         id="stop12" />
      <stop
         offset="1"
         stop-color="#ecf0f3"
         id="stop14" />
    </linearGradient>
    <linearGradient
       gradientTransform="matrix(.4084-.0003.00031.38931 36.647-88.77)"
       id="2"
       gradientUnits="userSpaceOnUse"
       x1="23.69"
       y1="264.74"
       x2="24.303"
       y2="154.71">
      <stop
         stop-color="#f16319"
         id="stop17" />
      <stop
         offset="1"
         stop-color="#feb600"
         id="stop19" />
    </linearGradient>
  </defs>
  <path
     d="m 3.7087292,0.6023028 19.5048048,0 0,22.5627742 -22.60777377,0 0,-19.6528033 c 0,-3.12396876 2.93797057,-2.9099709 3.10296897,-2.9099709"
     id="path25"
     style="fill:#ff7f2a;fill-rule:evenodd"
     inkscape:connector-curvature="0" />
  <circle
     style="fill:#ffe6d5"
     id="circle35"
     r="13.175868"
     cy="34.241966"
     cx="34.327423" />
  <path
     style="fill:#ff7f2a"
     inkscape:connector-curvature="0"
     id="path37"
     d="m 29.058476,27.88403 c 1.151988,0.002 2.260977,0.152998 3.325966,0.452995 1.06599,0.299997 2.06298,0.723993 2.990971,1.270988 0.92899,0.546994 1.773982,1.202988 2.534974,1.96798 0.760993,0.763992 1.413986,1.611984 1.957981,2.542975 0.543994,0.93099 0.96399,1.92898 1.259987,2.99597 0.295997,1.066989 0.442996,2.175978 0.440996,3.327966 -10e-5,0.363997 -0.129999,0.673994 -0.387997,0.930991 -0.257997,0.256998 -0.568994,0.384996 -0.93299,0.384996 -0.363997,-10e-5 -0.673993,-0.129998 -0.931991,-0.387996 -0.256997,-0.257997 -0.384996,-0.568994 -0.384996,-0.932991 0.002,-0.90999 -0.114999,-1.785982 -0.350997,-2.630973 -0.235997,-0.843992 -0.567994,-1.632984 -0.99599,-2.365977 -0.427995,-0.732992 -0.94199,-1.400986 -1.541984,-1.99998 -0.599994,-0.601994 -1.265987,-1.118988 -1.99798,-1.549984 -0.731993,-0.430996 -1.518985,-0.765992 -2.362977,-0.99999 -0.842991,-0.238998 -1.719982,-0.358996 -2.628973,-0.360996 -0.363997,-1e-4 -0.673994,-0.129999 -0.930991,-0.387997 -0.256997,-0.257997 -0.384996,-0.568994 -0.384996,-0.93299 10e-5,-0.363997 0.129999,-0.673994 0.387996,-0.930991 0.257997,-0.256997 0.568994,-0.384996 0.932991,-0.384996 m -0.001,4.98695 c 1.040989,0.002 2.01998,0.202998 2.93197,0.603994 0.913991,0.400996 1.710983,0.942991 2.391976,1.625984 0.680994,0.682993 1.219988,1.482985 1.616984,2.397976 0.396996,0.914991 0.594994,1.892981 0.592994,2.93397 -1e-4,0.363997 -0.129998,0.673994 -0.387996,0.930991 -0.257997,0.256998 -0.568994,0.384996 -0.93299,0.384996 -0.363997,-1e-4 -0.673994,-0.129998 -0.930991,-0.387996 -0.256998,-0.257997 -0.384996,-0.568994 -0.384996,-0.932991 1e-4,-0.676993 -0.125999,-1.313986 -0.382996,-1.91098 -0.256998,-0.596994 -0.606994,-1.117989 -1.04999,-1.562985 -0.443995,-0.444995 -0.96399,-0.797992 -1.558984,-1.055989 -0.595994,-0.258998 -1.231988,-0.388996 -1.908981,-0.389996 -0.363997,-10e-5 -0.673994,-0.129999 -0.930991,-0.387996 -0.256997,-0.257998 -0.384996,-0.568995 -0.384996,-0.932991 10e-5,-0.363996 0.129999,-0.673993 0.387996,-0.930991 0.257997,-0.256997 0.568994,-0.384996 0.932991,-0.384996 m 2.411976,6.931931 c 0,0.262997 -0.049,0.504995 -0.144999,0.726992 -0.096,0.221998 -0.227998,0.415996 -0.394996,0.582995 -0.166998,0.165998 -0.363996,0.296997 -0.591994,0.392996 -0.227998,0.096 -0.467995,0.142998 -0.719993,0.142998 -0.262997,0 -0.504995,-0.049 -0.726993,-0.144998 -0.221997,-0.096 -0.415995,-0.227998 -0.582994,-0.394996 -0.165998,-0.166999 -0.296997,-0.361997 -0.392996,-0.583995 -0.096,-0.222997 -0.142998,-0.464995 -0.142998,-0.727992 0,-0.252998 0.049,-0.492995 0.144998,-0.719993 0.096,-0.226998 0.227998,-0.423996 0.394996,-0.589994 0.166999,-0.165998 0.361997,-0.296997 0.583994,-0.392996 0.221998,-0.096 0.464996,-0.142999 0.727993,-0.142999 0.252998,0 0.492995,0.049 0.719993,0.144999 0.226998,0.096 0.423996,0.227997 0.589994,0.394996 0.165998,0.166998 0.296997,0.363996 0.392996,0.591994 0.096,0.226998 0.142999,0.467995 0.142999,0.719993" />
  <g
     id="g41"
     style="color:#000000;fill:#ff7f2a;fill-opacity:0.847"
     transform="matrix(0.99999,0,0,0.99999,-23.371,30.882)">
    <ellipse
       cx="29.895"
       cy="3.918"
       rx="1.505"
       ry="1.5"
       id="ellipse43"
       style="fill:#ff7f2a" />
    <ellipse
       cx="32.603001"
       cy="8.4180002"
       rx="1.806"
       ry="1.8"
       id="ellipse45"
       style="fill:#ff7f2a" />
    <ellipse
       cx="31.1"
       cy="-0.88200003"
       rx="0.903"
       ry="0.89999998"
       id="ellipse47"
       style="fill:#ff7f2a" />
    <path
       d="m 36.21,-1.782 -1.712,1.706 2.633,2.625 -2.727,3.094 1.806,1.575 4.213,-4.8 -4.213,-4.2"
       id="path49"
       inkscape:connector-curvature="0"
       style="fill:#ff7f2a" />
  </g>
  <path
     style="fill:#ff7f2a;fill-opacity:0.847"
     d="M 34.088425,6.7722411 29.64247,12.463184 c -0.833992,1.06699 -0.599994,2.967971 0.466995,3.800962 1.06699,0.833992 2.967971,0.599994 3.800962,-0.466995 l 4.445956,-5.690943 0.555994,-0.7109931 C 39.468372,8.684222 39.312373,7.4172347 38.60138,6.8612402 37.890387,6.3052458 36.6234,6.4612442 36.067406,7.1722371 L 35.511411,7.88323 32.177445,12.151187 31.62145,12.86218 c -0.277997,0.355997 -0.199998,0.98899 0.155999,1.266988 0.355996,0.277997 0.98899,0.199998 1.266987,-0.155999 l 3.889961,-4.9789501 0.710993,0.5559944 -3.889961,4.9789507 c -0.555995,0.710992 -1.822982,0.866991 -2.533975,0.310996 -0.710993,-0.555994 -0.866991,-1.822981 -0.310997,-2.533974 l 0.555995,-0.710993 3.889961,-4.9789503 c 0.833991,-1.0669894 2.733972,-1.299987 3.800962,-0.4669954 1.066989,0.8339917 1.299987,2.7339727 0.466995,3.800962 l -0.555994,0.7109927 -4.445956,5.690943 c -1.111989,1.422986 -3.645963,1.733983 -5.067949,0.621994 -1.422986,-1.111989 -1.733983,-3.645963 -0.621994,-5.067949 l 4.445956,-5.6909433 0.710992,0.5559944"
     id="path51"
     inkscape:connector-curvature="0" />
  <path
     style="fill:#ffffff;fill-opacity:0.847"
     d="m 6.2427039,15.378155 0,2.672973 2.6729732,0 L 15.66661,11.300196 12.993636,8.6272225 Z M 18.030586,8.9442194 c 0.282997,-0.2829972 0.282997,-0.7279927 0,-1.0099899 L 16.359603,6.2632462 c -0.282997,-0.2829972 -0.727993,-0.2829972 -1.00999,0 L 13.953627,7.6682321 16.6266,10.341205 Z"
     id="path53"
     inkscape:connector-curvature="0" />
</svg>
