<?xml version="1.0" encoding="UTF-8" standalone="no"?>
<!-- Generator: Adobe Illustrator 19.0.0, SVG Export Plug-In . SVG Version: 6.00 Build 0)  -->

<svg
   xmlns:dc="http://purl.org/dc/elements/1.1/"
   xmlns:cc="http://creativecommons.org/ns#"
   xmlns:rdf="http://www.w3.org/1999/02/22-rdf-syntax-ns#"
   xmlns:svg="http://www.w3.org/2000/svg"
   xmlns="http://www.w3.org/2000/svg"
   xmlns:sodipodi="http://sodipodi.sourceforge.net/DTD/sodipodi-0.dtd"
   xmlns:inkscape="http://www.inkscape.org/namespaces/inkscape"
   version="1.1"
   id="Capa_1"
   x="0px"
   y="0px"
   viewBox="0 0 51.734 51.734"
   style="enable-background:new 0 0 51.734 51.734;"
   xml:space="preserve"
   inkscape:version="0.91 r13725"
   sodipodi:docname="keepass.svg"><metadata
     id="metadata43"><rdf:RDF><cc:Work
         rdf:about=""><dc:format>image/svg+xml</dc:format><dc:type
           rdf:resource="http://purl.org/dc/dcmitype/StillImage" /><dc:title></dc:title></cc:Work></rdf:RDF></metadata><defs
     id="defs41" /><sodipodi:namedview
     pagecolor="#ffffff"
     bordercolor="#666666"
     borderopacity="1"
     objecttolerance="10"
     gridtolerance="10"
     guidetolerance="10"
     inkscape:pageopacity="0"
     inkscape:pageshadow="2"
     inkscape:window-width="1280"
     inkscape:window-height="694"
     id="namedview39"
     showgrid="false"
     inkscape:zoom="4.5617968"
     inkscape:cx="-9.8645341"
     inkscape:cy="25.867001"
     inkscape:window-x="0"
     inkscape:window-y="0"
     inkscape:window-maximized="1"
     inkscape:current-layer="Capa_1" /><path
     style="fill:#E4C05C;"
     d="M29.882,22.364c3.03-6.001,2.891-12.665-2.121-17.678c-6.572-6.572-17.44-6.232-23.567,1.022  c-5.325,6.304-4.861,15.876,1.009,21.675c4.465,4.411,10.621,5.383,16.193,3.466l2.828,2.885h5.027v4h4v4h5v5h3v2.776  c0,0.807,0.039,1.046,0.551,1.557c0.388,0.388,0.902,0.625,1.449,0.667h8v-9L29.882,22.364z M15.74,15.293  c-1.953,1.953-5.118,1.953-7.071,0c-1.953-1.953-1.953-5.118,0-7.071c1.953-1.953,5.118-1.953,7.071,0  C17.692,10.174,17.692,13.34,15.74,15.293z"
     id="path3" /><path
     style="fill:#DDA86F;"
     d="M27.252,26.734l-5.611,4.364l2.584,2.636h5.027v4h4v4h5v5h3v2.776c0,0.807,0.039,1.046,0.551,1.557  c0.388,0.388,0.902,0.625,1.449,0.667h8v-1L27.252,26.734z"
     id="path5" /><path
     style="fill:#BC9C4D;"
     d="M12.252,4.734c-3.866,0-7,3.134-7,7c0,3.866,3.134,7,7,7s7-3.134,7-7  C19.252,7.868,16.118,4.734,12.252,4.734z M12.252,16.734c-2.761,0-5-2.239-5-5s2.239-5,5-5s5,2.239,5,5  S15.014,16.734,12.252,16.734z"
     id="path7" /><g
     id="g9" /><g
     id="g11" /><g
     id="g13" /><g
     id="g15" /><g
     id="g17" /><g
     id="g19" /><g
     id="g21" /><g
     id="g23" /><g
     id="g25" /><g
     id="g27" /><g
     id="g29" /><g
     id="g31" /><g
     id="g33" /><g
     id="g35" /><g
     id="g37" /></svg>