<?xml version="1.0" encoding="UTF-8" standalone="no"?>
<svg
   xmlns:dc="http://purl.org/dc/elements/1.1/"
   xmlns:cc="http://creativecommons.org/ns#"
   xmlns:rdf="http://www.w3.org/1999/02/22-rdf-syntax-ns#"
   xmlns:svg="http://www.w3.org/2000/svg"
   xmlns="http://www.w3.org/2000/svg"
   xmlns:sodipodi="http://sodipodi.sourceforge.net/DTD/sodipodi-0.dtd"
   xmlns:inkscape="http://www.inkscape.org/namespaces/inkscape"
   viewBox="0 0 48 48"
   id="svg2"
   version="1.1"
   inkscape:version="0.91 r13725"
   sodipodi:docname="kgeography.svg">
  <metadata
     id="metadata30">
    <rdf:RDF>
      <cc:Work
         rdf:about="">
        <dc:format>image/svg+xml</dc:format>
        <dc:type
           rdf:resource="http://purl.org/dc/dcmitype/StillImage" />
        <dc:title></dc:title>
      </cc:Work>
    </rdf:RDF>
  </metadata>
  <sodipodi:namedview
     pagecolor="#ffffff"
     bordercolor="#666666"
     borderopacity="1"
     objecttolerance="10"
     gridtolerance="10"
     guidetolerance="10"
     inkscape:pageopacity="0"
     inkscape:pageshadow="2"
     inkscape:window-width="1280"
     inkscape:window-height="694"
     id="namedview28"
     showgrid="false"
     inkscape:zoom="4.9166667"
     inkscape:cx="20.644068"
     inkscape:cy="24"
     inkscape:window-x="0"
     inkscape:window-y="0"
     inkscape:window-maximized="1"
     inkscape:current-layer="svg2" />
  <defs
     id="defs4">
    <linearGradient
       gradientUnits="userSpaceOnUse"
       y2="15.827"
       x2="10.467"
       y1="42.526"
       x1="10.795"
       id="0"
       gradientTransform="matrix(1.8111772,0,0,1.7506195,6.1975507,-26.903163)">
      <stop
         stop-color="#197cf1"
         id="stop7" />
      <stop
         offset="1"
         stop-color="#20bcfa"
         id="stop9" />
    </linearGradient>
    <linearGradient
       id="1"
       gradientUnits="userSpaceOnUse"
       y1="42.475"
       x2="0"
       y2="28.899"
       gradientTransform="matrix(1.6060263,0,0,1.6060263,-14.479909,-21.954379)">
      <stop
         stop-color="#c52828"
         id="stop12" />
      <stop
         offset="1"
         stop-color="#ff5454"
         id="stop14" />
    </linearGradient>
  </defs>
  <path
     style="fill:#2a7fff;fill-opacity:0.85100002"
     inkscape:connector-curvature="0"
     id="path20"
     d="m 5.4268406,5.7182428 0.5157252,-0.4011698 3.088453,0 1.1183852,0.7266471 -0.06777,1.1310611 0.943038,0.6358162 -0.783901,0.4119831 0.175346,1.4868156 -2.7996475,2.4902799 0,2.338895 1.500022,0.533092 0,2.099924 1.4543425,1.804723 1.159645,0.128677 0.148823,-0.620678 -1.371828,-1.562508 -0.272598,-1.521417 0.814847,0 0.344798,1.566833 2.001011,2.142095 -0.536353,0.684476 1.283416,1.433831 3.16655,0.575262 0,-0.378462 1.262789,0.131921 -0.113457,0.666093 c 1.113966,0.131921 0.773588,0.07894 2.527051,0.43469 l 2.166043,1.812294 2.764283,0.154629 0.268178,1.657663 -1.897867,0.976432 -0.09283,1.471677 -0.262284,0.908309 2.733341,2.512988 0.21071,0.862895 c 0,0 0.994611,0.1968 1.103649,0.1968 0.117886,0 2.232351,1.180801 2.232351,1.180801 l 0,4.532894 0.752959,0.162198 -0.526039,2.081542 1.268683,1.229461 -0.22692,2.081541 1.665054,2.152908 2.145414,1.370033 2.145414,0.0346 0.216604,-0.507138 -1.578117,-0.979677 c 0.117884,-0.59797 0.03683,-0.370893 0.381636,-1.092134 l 0.06189,-0.593644 -1.077127,-0.02703 -0.551088,-0.492 0.891466,-0.631492 0.123771,-0.469293 -0.994612,-0.204368 0.056,-0.446586 1.413086,-0.154629 2.149834,-0.752599 c 0.963668,-1.297584 1.438134,-1.64577 2.980889,-3.091495 l -0.515726,-1.653339 0.691072,-0.881276 2.073211,0.03785 1.392458,-0.798015 0.453836,-3.201788 1.547175,-1.453295 0.278491,-0.919122 -1.417505,-0.33629 -0.928306,-1.120248 -3.191598,-0.02595 -2.52705,-0.707183 -0.117885,-1.327862 -0.845787,-1.078076 -2.269189,-0.0227 -1.324674,-1.524662 -1.175852,-0.408738 -0.06189,0.454154 -2.129205,0.0984 -0.783902,-0.794771 -2.23235,-0.333046 -1.83598,1.547369 -2.882162,-0.355754 -0.210712,-2.387554 -2.108576,-0.264925 0.845789,-1.176476 -0.241654,-0.661768 -2.758389,1.358138 -1.737256,-0.154629 -0.633604,-1.006709 c 0.474467,-1.267308 0.190081,-0.767738 1.351198,-2.331326 l 2.207301,-0.825048 4.2702,0 -0.01027,0.953725 1.53686,0.529847 -0.123771,-1.63063 c 1.17585,-0.866138 0.819263,-0.676908 3.335999,-1.892311 l 0.144404,-0.752599 2.23235,-1.70308 2.372333,-0.956967 -0.21071,-0.124353 1.598746,-1.1083531 0.592346,0.1135385 0.272598,0.2497856 0.608555,-0.4995704 0.138503,-0.052984 C 36.374714,9.3871626 36.66352,9.4401466 35.848675,9.2357774 l 0,-0.4801061 0.355114,-0.2151828 0.794216,0 0.365427,0.1167826 0.309435,0.4617237 0.381635,-0.04109 0,-0.025952 0.113457,0.022707 1.103651,-0.1286772 0.154718,-0.3968444 0.618868,0.1135386 0,0.4271215 -0.582032,0.2984443 0.08693,0.4768624 2.015748,0.454154 c 0,0 0.0044,0.0075 0.0044,0.01514 l 0.458259,-0.02595 0.03093,-0.6358161 -1.592852,-0.533091 -0.09284,-0.3135828 1.320255,-0.3330465 0.056,-0.9191222 -1.376248,-0.6206779 -0.09283,-1.5625076 -1.908181,0.6812317 -0.691072,0 0.185662,-1.1916149 -2.568308,-0.4498292 -1.072708,0.5904008 0,1.8122927 -1.918495,0.4390161 -0.773587,1.1808016 -0.829579,0.094074 0,-1.5019538 -1.799143,-0.189231 -0.901781,-0.4271215 -0.365427,-0.9721068 3.228435,-1.3884152 1.578117,-0.3514291 0.154718,0.7753066 0.887046,-0.030277 0.0722,-0.3936006 0.917989,-0.094074 0.01026,-0.1319212 -0.386058,-0.1211078 -0.09283,-0.411983 1.128698,-0.071368 0.680759,-0.5222776 0.05157,-0.037845 0,0.00432 0.210711,-0.158954 2.376753,-0.219508 1.046185,0.6541988 -2.764285,1.0780761 3.511347,0.6055394 0.447944,-0.8628935 1.541281,0 0.536352,-0.7493549 -1.077126,-0.1968003 0,-0.9461551 L 38.300554,0.78093468 35.954743,0.97773504 34.624174,1.4848741 34.727319,2.7219045 33.340758,2.5672758 33.130046,1.8860439 34.439987,1.004768 32.047025,0.9139371 l -0.69107,0.1470595 -0.309435,0.5979701 0.907675,0.1135386 -0.185662,0.661768 -1.526543,0.068124 -0.241655,0.4346908 -2.238245,0.045416 c 0,0 -0.05157,-0.9266915 -0.138503,-0.9266915 -0.09284,0 1.743148,-0.018382 1.743148,-0.018382 l 1.324671,-0.9494 -0.722014,-0.26816748 -0.963668,0.68880098 -1.598746,-0.063798 -0.953354,-0.97210696 -2.046691,0 -2.139519,1.17323236 1.959754,0 0.179765,0.4195523 -0.515723,0.3514291 2.166042,0.045416 L 26.39178,3.0376512 23.95314,2.9662832 23.835256,2.5240233 22.304291,2.2785637 21.489445,1.9530862 17.879374,1.9790382 16.771303,2.7694833 16.013925,2.7240673 15.17403,2.365069 12.677925,1.8200836 l -4.5693215,0 -2.6449287,1.3202919 -1.7740926,0.2000443 -0.8148453,0.4649677 1.2627891,0.1362464 0,0.3708928 -2.6965034,0 -1.05649856,0.5525546 1.35119826,0.8401859 3.6970082,0.022707 m 22.7920775,6.6144368 -1.149328,0 0.179766,-0.575263 0.540774,-0.04217 0.123771,-0.1968 0.825161,-0.08325 0,0.514708 0.0044,0 -0.526039,0.381706 m 0.80011,-1.423018 -0.540773,0.257355 -0.680758,0.08651 c 0,0 0,-0.787202 0,-0.870463 l 1.221531,0 0,0.525522 m 1.025555,-0.608784 0.556984,0.249785 -0.447945,0.268168 -0.427314,-0.268168 0.319749,-0.249785 m -0.73233,0.658525 0.08693,0 1.382142,0.2952 0,0.517952 -1.159644,0 -0.309435,-0.333046 c 0,0 0,-0.480106 0,-0.480106 m -0.897361,-1.4230183 0.747065,0.4995693 -0.747065,0.131922 0,-0.6314913 m -3.166548,0.083261 1.041762,-0.3135829 1.427821,0 0,0.3135829 0.309435,0 0,0.5482293 -2.176357,0 -0.804531,-0.162198 0.200397,-0.3860313 m -0.195976,1.4230173 0.825159,-0.658524 1.196481,0 -1.530965,1.570076 -0.639498,-0.249784 0.148823,-0.661768 M 23.94872,7.3110275 24.798928,7.454843 24.505701,8.3025981 23.587713,8.5221061 23.0101,7.6408302 23.94872,7.3121088 M 19.668205,3.30798 l 0,-0.048659 0.788322,0 0.0722,-0.2000444 1.293732,0 0,0.4163083 -0.381635,0.3589983 -1.774094,0 0,-0.5255217 z m 1.252474,1.290015 c 0,0 0.794217,-0.1016448 0.856102,-0.1016448 0.06189,0 0,0.5828317 0,0.5828317 l -1.778512,0.083261 -0.334484,-0.2952003 1.258369,-0.2681675" />
  <path
     d="m 35.812949,26.015595 c -6.500379,0 -11.768237,3.376876 -11.768237,7.54384 0,0.317878 0.03953,0.628845 0.10061,0.937508 1.006139,5.892259 10.90583,12.68517 10.90583,12.68517 0.176084,0.126688 0.344963,0.205009 0.510257,0.260291 l 0.0071,0 0.330591,0.06679 0.330587,-0.06679 0.0071,0 c 0.1653,-0.05758 0.334181,-0.138206 0.510256,-0.260291 0,0 9.755957,-6.80443 10.736944,-12.69899 0.0575,-0.304056 0.09702,-0.612721 0.09702,-0.925992 0,-4.16466 -5.267859,-7.543841 -11.768235,-7.543841 m 0,12.397237 c -4.171886,0 -7.571198,-2.176773 -7.571198,-4.853396 0,-2.674321 3.395719,-4.853396 7.571198,-4.853396 4.171883,0 7.567603,2.176772 7.567603,4.853396 0,2.674321 -3.39572,4.853396 -7.567603,4.853396"
     id="path26"
     inkscape:connector-curvature="0"
     style="fill:#d5e5ff;fill-opacity:1;stroke-width:1.31700003" />
</svg>
