<?xml version="1.0" encoding="UTF-8" standalone="no"?>
<svg
   xmlns:dc="http://purl.org/dc/elements/1.1/"
   xmlns:cc="http://creativecommons.org/ns#"
   xmlns:rdf="http://www.w3.org/1999/02/22-rdf-syntax-ns#"
   xmlns:svg="http://www.w3.org/2000/svg"
   xmlns="http://www.w3.org/2000/svg"
   xmlns:sodipodi="http://sodipodi.sourceforge.net/DTD/sodipodi-0.dtd"
   xmlns:inkscape="http://www.inkscape.org/namespaces/inkscape"
   viewBox="0 0 48 48"
   id="svg2"
   version="1.1"
   inkscape:version="0.91 r13725"
   sodipodi:docname="kipi-debianscreenshots.svg">
  <metadata
     id="metadata19">
    <rdf:RDF>
      <cc:Work
         rdf:about="">
        <dc:format>image/svg+xml</dc:format>
        <dc:type
           rdf:resource="http://purl.org/dc/dcmitype/StillImage" />
        <dc:title></dc:title>
      </cc:Work>
    </rdf:RDF>
  </metadata>
  <sodipodi:namedview
     pagecolor="#ffffff"
     bordercolor="#666666"
     borderopacity="1"
     objecttolerance="10"
     gridtolerance="10"
     guidetolerance="10"
     inkscape:pageopacity="0"
     inkscape:pageshadow="2"
     inkscape:window-width="1280"
     inkscape:window-height="694"
     id="namedview17"
     showgrid="false"
     inkscape:zoom="4.9166667"
     inkscape:cx="-9.1525424"
     inkscape:cy="24"
     inkscape:window-x="0"
     inkscape:window-y="0"
     inkscape:window-maximized="1"
     inkscape:current-layer="svg2" />
  <defs
     id="defs4">
    <linearGradient
       id="0"
       gradientUnits="userSpaceOnUse"
       y1="545.14"
       x2="0"
       y2="518.14"
       gradientTransform="matrix(1.7142802,0,0,1.7142802,-662.68798,-887.64253)">
      <stop
         stop-color="#ec396c"
         id="stop7" />
      <stop
         offset="1"
         stop-color="#ff709a"
         id="stop9" />
    </linearGradient>
  </defs>
  <path
     style="fill:#ff5599;fill-opacity:0.85"
     inkscape:connector-curvature="0"
     id="path15"
     d="M 27.528973,48.060942 C 18.968746,45.434334 13.884203,42.210642 8.3094044,35.016451 6.9413947,33.034397 4.4258835,28.607413 4.5211527,22.837453 4.2985023,17.081189 7.7088933,10.448474 14.073669,6.9088951 20.220078,3.173028 28.151965,3.117337 32.870419,4.5926941 c 4.867244,1.5410901 6.841118,4.1083576 6.896781,3.9860194 -0.148785,0.031951 2.607567,2.0094435 3.83642,6.3140895 1.369079,4.137573 -0.02141,10.992139 -6.712666,13.804082 -3.077487,1.406883 -7.074472,1.661602 -10.20869,0.655511 -3.134219,-1.078216 -5.405673,-3.445543 -6.166747,-5.918774 -1.651674,-5.460464 3.205937,-8.486954 5.348939,-8.797363 8.718652,-2.479622 13.134174,9.157071 2.937259,10.143078 4.647807,1.323804 9.439052,-2.748035 8.528115,-6.888346 -0.184114,-4.144877 -6.067196,-8.2623632 -12.556143,-6.57246 -1.694489,0.398968 -4.260311,1.413276 -6.268438,3.694785 -2.059506,2.267812 -2.993992,5.821997 -1.923563,9.276671 1.04367,3.473843 4.217494,6.798874 8.638371,8.289752 4.465833,1.405058 9.43798,1.003353 13.544149,-0.818933 C 47.529958,28.06237 49.284393,19.050461 47.542802,14.09213 46.005666,8.7631329 42.611331,6.3227695 42.786882,6.285338 42.723725,6.430494 40.282075,3.2643249 34.248062,1.3425267 28.347854,-0.49253967 19.144296,-0.36289817 11.782949,4.0421745 4.2471223,8.1651397 0.16129114,16.26682 0.45780032,22.79637 0.35610904,29.427259 3.253764,34.502451 4.8347876,36.758394 11.208128,45.048147 18.510601,47.639151 27.527902,48.053639"
     ns2:knockout="Off" />
</svg>
