<?xml version="1.0" encoding="UTF-8" standalone="no"?>
<svg
   xmlns:dc="http://purl.org/dc/elements/1.1/"
   xmlns:cc="http://creativecommons.org/ns#"
   xmlns:rdf="http://www.w3.org/1999/02/22-rdf-syntax-ns#"
   xmlns:svg="http://www.w3.org/2000/svg"
   xmlns="http://www.w3.org/2000/svg"
   xmlns:sodipodi="http://sodipodi.sourceforge.net/DTD/sodipodi-0.dtd"
   xmlns:inkscape="http://www.inkscape.org/namespaces/inkscape"
   viewBox="0 0 48 48"
   id="svg2"
   version="1.1"
   inkscape:version="0.91 r13725"
   sodipodi:docname="kwalletmanager2.svg">
  <metadata
     id="metadata24">
    <rdf:RDF>
      <cc:Work
         rdf:about="">
        <dc:format>image/svg+xml</dc:format>
        <dc:type
           rdf:resource="http://purl.org/dc/dcmitype/StillImage" />
        <dc:title></dc:title>
      </cc:Work>
    </rdf:RDF>
  </metadata>
  <sodipodi:namedview
     pagecolor="#ffffff"
     bordercolor="#666666"
     borderopacity="1"
     objecttolerance="10"
     gridtolerance="10"
     guidetolerance="10"
     inkscape:pageopacity="0"
     inkscape:pageshadow="2"
     inkscape:window-width="1280"
     inkscape:window-height="694"
     id="namedview22"
     showgrid="false"
     inkscape:zoom="4.9166667"
     inkscape:cx="-12.036545"
     inkscape:cy="24"
     inkscape:window-x="0"
     inkscape:window-y="0"
     inkscape:window-maximized="1"
     inkscape:current-layer="svg2" />
  <defs
     id="defs4">
    <linearGradient
       id="0"
       gradientUnits="userSpaceOnUse"
       x1="3.147"
       x2="18.772">
      <stop
         stop-color="#e6f3ff"
         id="stop7" />
      <stop
         offset="1"
         stop-color="#dcffe7"
         id="stop9" />
    </linearGradient>
    <linearGradient
       id="1"
       x1="409.57"
       y1="542.8"
       x2="409.94"
       y2="501.23"
       gradientUnits="userSpaceOnUse"
       gradientTransform="matrix(1.0909108,0,0,1.0652853,-421.70943,-535.05257)">
      <stop
         stop-color="#197cf1"
         id="stop12" />
      <stop
         offset="1"
         stop-color="#20bcfa"
         id="stop14" />
    </linearGradient>
  </defs>
  <g
     id="g3"
     transform="matrix(0.82130332,0,0,0.8501816,0.18220417,-0.65526564)">
    <path
       style="fill:#86573f"
       d="M 55.6,13.2 C 54.561,12.421 53.298,12 52,12 l -1,0 0,0 -6,0 0,0 -32,0 0,0 -6,0 0,0 -1,0 C 4.702,12 3.439,12.421 2.4,13.2 0.889,14.333 0,16.111 0,18 l 0,32 2.388,0 C 4.935,50 7,52.065 7,54.612 L 7,57 51,57 51,54.612 C 51,52.065 53.065,50 55.612,50 L 58,50 58,18 c 0,-1.889 -0.889,-3.667 -2.4,-4.8 z"
       id="path5"
       inkscape:connector-curvature="0" />
    <g
       id="g7">
      <path
         style="fill:#a06646"
         d="M 11.181,9 8.819,9 C 7.815,9 7,9.814 7,10.819 L 7,37 l 0,1 0,3 c 0,1.657 1.343,3 3,3 1.657,0 3,-1.343 3,-3 l 0,-3 0,-1 0,-26.181 C 13,9.814 12.185,9 11.181,9 Z"
         id="path9"
         inkscape:connector-curvature="0" />
      <path
         style="fill:#a06646"
         d="M 49.181,9 46.82,9 C 45.815,9 45,9.814 45,10.819 L 45,37 l 0,2 0,2 c 0,1.657 1.343,3 3,3 1.657,0 3,-1.343 3,-3 l 0,-2 0,-2 0,-26.181 C 51,9.814 50.185,9 49.181,9 Z"
         id="path11"
         inkscape:connector-curvature="0" />
    </g>
    <path
       style="fill:#cbb292"
       d="M 7,57 4.422,57 C 1.98,57 0,55.02 0,52.578 L 0,50 2.388,50 C 4.935,50 7,52.065 7,54.612 L 7,57 Z"
       id="path13"
       inkscape:connector-curvature="0" />
    <path
       style="fill:#cbb292"
       d="m 58,50 0,2.578 C 58,55.02 56.02,57 53.578,57 L 51,57 51,54.612 C 51,52.065 53.065,50 55.612,50 L 58,50 Z"
       id="path15-3"
       inkscape:connector-curvature="0" />
    <rect
       x="16"
       y="9"
       style="fill:#d6dadb"
       width="8"
       height="3"
       id="rect17" />
    <rect
       x="34"
       y="9"
       style="fill:#d6dadb"
       width="8"
       height="3"
       id="rect19" />
    <path
       style="fill:#7b675f"
       d="M 36,6.444 36,9 40,9 40,6.889 C 40,3.636 37.364,1 34.111,1 L 23.889,1 C 20.636,1 18,3.636 18,6.889 L 18,9 22,9 22,6.444 C 22,5.331 23.13,4.575 24.159,5 c 3.1,1.281 6.582,1.281 9.682,0 C 34.87,4.575 36,5.331 36,6.444 Z"
       id="path21"
       inkscape:connector-curvature="0" />
    <rect
       x="24"
       y="21"
       style="fill:#cbb292"
       width="10"
       height="4"
       id="rect23" />
    <g
       id="g25">
      <rect
         y="33"
         style="fill:#583728"
         width="5"
         height="2"
         id="rect27"
         x="0" />
      <rect
         x="53"
         y="33"
         style="fill:#583728"
         width="5"
         height="2"
         id="rect29" />
      <rect
         x="15"
         y="33"
         style="fill:#583728"
         width="28"
         height="2"
         id="rect31" />
    </g>
    <circle
       style="fill:#4b3021"
       cx="10"
       cy="25"
       r="1"
       id="circle33" />
    <circle
       style="fill:#4b3021"
       cx="10"
       cy="40"
       r="1"
       id="circle35" />
    <circle
       style="fill:#4b3021"
       cx="48"
       cy="25"
       r="1"
       id="circle37" />
    <circle
       style="fill:#4b3021"
       cx="48"
       cy="40"
       r="1"
       id="circle39" />
    <rect
       x="28"
       y="35"
       style="fill:#583728"
       width="2"
       height="22"
       id="rect41" />
    <path
       style="fill:#cbb292"
       d="M 10,34 C 9.448,34 9,33.553 9,33 l 0,-4 c 0,-0.553 0.448,-1 1,-1 0.552,0 1,0.447 1,1 l 0,4 c 0,0.553 -0.448,1 -1,1 z"
       id="path43-9"
       inkscape:connector-curvature="0" />
    <path
       style="fill:#cbb292"
       d="m 48,34 c -0.552,0 -1,-0.447 -1,-1 l 0,-4 c 0,-0.553 0.448,-1 1,-1 0.552,0 1,0.447 1,1 l 0,4 c 0,0.553 -0.448,1 -1,1 z"
       id="path45-0"
       inkscape:connector-curvature="0" />
    <polygon
       style="fill:#cbb292"
       points="16,30 13,30 13,32 14,32 14,36 6,36 6,32 7,32 7,30 4,30 4,38 16,38 "
       id="polygon47" />
    <polygon
       style="fill:#cbb292"
       points="54,30 51,30 51,32 52,32 52,36 44,36 44,32 45,32 45,30 42,30 42,38 54,38 "
       id="polygon49" />
  </g>
</svg>
