<?xml version="1.0" encoding="UTF-8" standalone="no"?>
<svg
   xmlns:dc="http://purl.org/dc/elements/1.1/"
   xmlns:cc="http://creativecommons.org/ns#"
   xmlns:rdf="http://www.w3.org/1999/02/22-rdf-syntax-ns#"
   xmlns:svg="http://www.w3.org/2000/svg"
   xmlns="http://www.w3.org/2000/svg"
   xmlns:sodipodi="http://sodipodi.sourceforge.net/DTD/sodipodi-0.dtd"
   xmlns:inkscape="http://www.inkscape.org/namespaces/inkscape"
   viewBox="0 0 48 48"
   id="svg2"
   version="1.1"
   inkscape:version="0.91 r13725"
   sodipodi:docname="mail-client.svg">
  <metadata
     id="metadata35">
    <rdf:RDF>
      <cc:Work
         rdf:about="">
        <dc:format>image/svg+xml</dc:format>
        <dc:type
           rdf:resource="http://purl.org/dc/dcmitype/StillImage" />
        <dc:title></dc:title>
      </cc:Work>
    </rdf:RDF>
  </metadata>
  <sodipodi:namedview
     pagecolor="#ffffff"
     bordercolor="#666666"
     borderopacity="1"
     objecttolerance="10"
     gridtolerance="10"
     guidetolerance="10"
     inkscape:pageopacity="0"
     inkscape:pageshadow="2"
     inkscape:window-width="1280"
     inkscape:window-height="694"
     id="namedview33"
     showgrid="false"
     inkscape:zoom="4.9166667"
     inkscape:cx="-60.579659"
     inkscape:cy="23.274319"
     inkscape:window-x="0"
     inkscape:window-y="0"
     inkscape:window-maximized="1"
     inkscape:current-layer="svg2" />
  <defs
     id="defs4">
    <linearGradient
       id="0"
       x1="264.9"
       y1="544.13"
       x2="264.45"
       y2="534.56"
       gradientUnits="userSpaceOnUse"
       gradientTransform="matrix(2.0729608,0,0,2.0729608,-533.0828,-1082.1559)">
      <stop
         stop-color="#d8d8d8"
         id="stop7" />
      <stop
         offset="1"
         stop-color="#f9f9f9"
         id="stop9" />
    </linearGradient>
    <linearGradient
       id="1"
       x1="269.5"
       y1="543.62"
       x2="268.71"
       y2="523.22"
       gradientUnits="userSpaceOnUse"
       gradientTransform="matrix(2.0729608,0,0,2.0729608,-533.0828,-1082.1559)">
      <stop
         stop-color="#cfd0d2"
         id="stop12" />
      <stop
         offset="1"
         stop-color="#f4f4f5"
         id="stop14" />
    </linearGradient>
    <linearGradient
       id="2"
       x1="268.25"
       y1="539.24"
       x2="268.14"
       y2="522.76"
       gradientUnits="userSpaceOnUse"
       gradientTransform="matrix(2.0729608,0,0,2.0729608,-533.0828,-1082.1559)">
      <stop
         stop-color="#0a80fd"
         id="stop17" />
      <stop
         offset="1"
         stop-color="#56c5fa"
         id="stop19" />
    </linearGradient>
  </defs>
  <path
     style="fill:#003380;fill-opacity:1"
     inkscape:connector-curvature="0"
     id="path31"
     d="m 24.266044,0.2543682 q 9.984915,0 16.803213,6.9214545 6.818301,6.9214583 6.818301,16.7128253 0,5.509686 -2.374107,9.121553 -2.31262,3.611866 -6.756814,3.611866 -4.565457,0 -6.818298,-4.468891 -2.983861,4.468891 -8.522875,4.468891 -4.992459,0 -8.401607,-3.489923 -3.40915,-3.550038 -3.40915,-8.999611 0,-5.387745 3.40915,-8.93778 3.409148,-3.550037 8.157364,-3.550037 4.688437,0 7.791853,3.611864 l 0.244246,0 0,-2.75484 4.382705,0 0,15.977741 q 0,1.592106 0.852287,2.876785 0.913776,1.286394 2.73962,1.286394 4.322924,0 4.322924,-8.754012 0,-8.080757 -5.600503,-13.650552 -5.600503,-5.5715138 -13.636599,-5.5715138 -8.036096,0 -13.636599,5.5715138 -5.6004999,5.571515 -5.6004999,13.650552 0,8.080757 5.6004999,13.650557 5.600503,5.571512 13.636599,5.571512 4.322926,0 7.732074,-1.714049 l 1.704576,4.163181 q -4.261437,1.959647 -9.43665,1.959647 -10.106181,0 -16.9859681,-6.856192 -6.8832038,-6.921456 -6.8832038,-16.772936 0,-9.794807 6.8832038,-16.7128275 6.9395661,-6.921455 16.9859681,-6.921455 M 18.605762,29.824272 q 2.191352,2.143417 5.234992,2.143417 3.043639,0 5.175213,-2.143417 2.19135,-2.143421 2.19135,-5.693459 0,-3.550037 -2.19135,-5.693455 -2.131574,-2.143417 -5.175213,-2.143417 -3.04364,0 -5.234992,2.143417 -2.131574,2.143418 -2.131574,5.693455 0,3.550038 2.131574,5.693459" />
</svg>
