<?xml version="1.0" encoding="UTF-8" standalone="no"?>
<svg
   xmlns:dc="http://purl.org/dc/elements/1.1/"
   xmlns:cc="http://creativecommons.org/ns#"
   xmlns:rdf="http://www.w3.org/1999/02/22-rdf-syntax-ns#"
   xmlns:svg="http://www.w3.org/2000/svg"
   xmlns="http://www.w3.org/2000/svg"
   xmlns:xlink="http://www.w3.org/1999/xlink"
   xmlns:sodipodi="http://sodipodi.sourceforge.net/DTD/sodipodi-0.dtd"
   xmlns:inkscape="http://www.inkscape.org/namespaces/inkscape"
   viewBox="0 0 48 48"
   id="svg2"
   version="1.1"
   inkscape:version="0.91 r13725"
   sodipodi:docname="netbeans-beta.svg">
  <metadata
     id="metadata31">
    <rdf:RDF>
      <cc:Work
         rdf:about="">
        <dc:format>image/svg+xml</dc:format>
        <dc:type
           rdf:resource="http://purl.org/dc/dcmitype/StillImage" />
        <dc:title></dc:title>
      </cc:Work>
    </rdf:RDF>
  </metadata>
  <sodipodi:namedview
     pagecolor="#ffffff"
     bordercolor="#666666"
     borderopacity="1"
     objecttolerance="10"
     gridtolerance="10"
     guidetolerance="10"
     inkscape:pageopacity="0"
     inkscape:pageshadow="2"
     inkscape:window-width="1280"
     inkscape:window-height="694"
     id="namedview29"
     showgrid="false"
     inkscape:zoom="4.9166667"
     inkscape:cx="-9.1525424"
     inkscape:cy="24"
     inkscape:window-x="0"
     inkscape:window-y="0"
     inkscape:window-maximized="1"
     inkscape:current-layer="svg2" />
  <defs
     id="defs4">
    <linearGradient
       y2="-1.429"
       x2="0"
       y1="47.37"
       gradientUnits="userSpaceOnUse"
       id="0">
      <stop
         stop-color="#c52828"
         id="stop7" />
      <stop
         stop-color="#ff5454"
         offset="1"
         id="stop9" />
    </linearGradient>
    <linearGradient
       xlink:href="#0"
       id="1"
       x1="-10.767"
       y1="4.675"
       x2="-11.233"
       y2="-22.851"
       gradientUnits="userSpaceOnUse"
       gradientTransform="matrix(1.77384 0 0 1.71427 42.46 39.38)" />
    <linearGradient
       gradientUnits="userSpaceOnUse"
       y2="4.215"
       x2="-5.405"
       y1="43.607"
       x1="-5.35"
       id="2"
       xlink:href="#0"
       gradientTransform="matrix(1.25,0,0,1.25,30.831,-5.618)" />
  </defs>
  <g
     style="color:#000000;fill:#c83737"
     id="g19"
     transform="matrix(1.9310668,0,0,1.6733685,34.564609,-15.018869)">
    <path
       style="opacity:0.98699999;fill:#c83737"
       inkscape:connector-curvature="0"
       id="path21"
       d="m 0.938,21.948 -5.79,3.874 -0.002,5.878 c -10e-5,3.233 0.014,5.878 0.033,5.878 0.019,0 2.633,-1.738 5.809,-3.862 l 5.774,-3.862 0,-5.896 c 0,-3.243 -0.008,-5.893 -0.017,-5.891 -0.009,0 -2.622,1.748 -5.807,3.879" />
    <path
       style="opacity:0.98699999;fill:#c83737"
       inkscape:connector-curvature="0"
       id="path23"
       d="m -17.725,23.8 0,5.982 5.797,3.851 c 3.189,2.118 5.813,3.851 5.832,3.851 0.019,0 0.035,-2.689 0.035,-5.976 l 0,-5.975 -5.794,-3.858 c -3.186,-2.122 -5.811,-3.858 -5.832,-3.858 -0.021,0 -0.039,2.692 -0.039,5.982" />
    <path
       style="opacity:0.98699999;fill:#c83737"
       inkscape:connector-curvature="0"
       id="path25"
       d="m -11.165,12.985 c -3.107,2.077 -5.676,3.803 -5.709,3.835 -0.067,0.065 11.371,7.782 11.545,7.789 0.127,0 11.373,-7.52 11.35,-7.595 C 6.01,16.979 -4.511,9.861 -5.478,9.234 c -0.021,-0.015 -2.581,1.674 -5.688,3.751" />
  </g>
</svg>
