<?xml version="1.0" encoding="UTF-8" standalone="no"?>
<svg
   xmlns:dc="http://purl.org/dc/elements/1.1/"
   xmlns:cc="http://creativecommons.org/ns#"
   xmlns:rdf="http://www.w3.org/1999/02/22-rdf-syntax-ns#"
   xmlns:svg="http://www.w3.org/2000/svg"
   xmlns="http://www.w3.org/2000/svg"
   xmlns:sodipodi="http://sodipodi.sourceforge.net/DTD/sodipodi-0.dtd"
   xmlns:inkscape="http://www.inkscape.org/namespaces/inkscape"
   viewBox="0 0 48 48"
   id="svg2"
   version="1.1"
   inkscape:version="0.91 r13725"
   sodipodi:docname="omegat.svg">
  <metadata
     id="metadata32">
    <rdf:RDF>
      <cc:Work
         rdf:about="">
        <dc:format>image/svg+xml</dc:format>
        <dc:type
           rdf:resource="http://purl.org/dc/dcmitype/StillImage" />
        <dc:title></dc:title>
      </cc:Work>
    </rdf:RDF>
  </metadata>
  <sodipodi:namedview
     pagecolor="#ffffff"
     bordercolor="#666666"
     borderopacity="1"
     objecttolerance="10"
     gridtolerance="10"
     guidetolerance="10"
     inkscape:pageopacity="0"
     inkscape:pageshadow="2"
     inkscape:window-width="1280"
     inkscape:window-height="694"
     id="namedview30"
     showgrid="false"
     inkscape:zoom="4.9166667"
     inkscape:cx="-6.4067797"
     inkscape:cy="24"
     inkscape:window-x="0"
     inkscape:window-y="0"
     inkscape:window-maximized="1"
     inkscape:current-layer="svg2" />
  <defs
     id="defs4">
    <linearGradient
       gradientTransform="matrix(-0.55335,0,0,0.65341137,242.22,-309.20029)"
       gradientUnits="userSpaceOnUse"
       y2="507.87"
       x2="0"
       y1="546.8"
       id="0">
      <stop
         stop-color="#d3d3d3"
         id="stop7" />
      <stop
         offset="1"
         stop-color="#fcf9f9"
         id="stop9" />
    </linearGradient>
    <linearGradient
       id="1"
       gradientUnits="userSpaceOnUse"
       x1="-61.22"
       y1="55.24"
       x2="-61.43"
       y2="8.868"
       gradientTransform="matrix(1,0,0,1.0844642,85.42,-11.070235)">
      <stop
         stop-color="#00a661"
         id="stop12" />
      <stop
         stop-color="#37ce97"
         offset="1"
         id="stop14" />
    </linearGradient>
  </defs>
  <path
     inkscape:connector-curvature="0"
     style="fill:#00aa88"
     id="path18"
     d="M 40.92,6.8523388 C 36.394,2.7521895 30.385,0.49449123 23.999,0.49449123 c -6.386,0 -12.395,2.25769827 -16.921,6.35784757 -4.565,4.1357742 -7.079,9.6475412 -7.079,15.5222322 0,5.610847 2.291,10.88215 6.469,14.946675 -0.075,0.189255 -0.135,0.387416 -0.173,0.595595 l -1.373,7.516756 c -0.163,0.892837 0.057,1.42609 0.269,1.715539 0.246,0.333978 0.61,0.51878 1.025,0.51878 0.314,0 0.651,-0.103533 1,-0.307261 l 7.985,-4.617816 c 2.764,0.990804 5.736,1.510699 8.791,1.510699 6.386,0 12.395,-2.257699 16.921,-6.357849 4.565,-4.135773 7.079,-9.64754 7.079,-15.522232 0,-5.873577 -2.514,-11.385344 -7.079,-15.5222315" />
  <path
     inkscape:connector-curvature="0"
     style="fill:#aaffee"
     id="path20"
     d="m 28.250397,25.855771 c 2.147937,-2.179773 5.000147,-3.372684 8.030798,-3.372684 3.030651,0 5.881911,1.197249 8.030798,3.372684 2.16692,2.192787 3.360007,5.116502 3.360007,8.231083 0,2.973601 -1.087731,5.770434 -3.070515,7.926349 0.03607,0.100855 0.06359,0.204964 0.08258,0.315579 l 0.65112,3.986491 c 0.07783,0.47391 -0.02658,0.756956 -0.128136,0.909865 -0.116746,0.177852 -0.289492,0.27437 -0.486916,0.27437 -0.149017,0 -0.309424,-0.05531 -0.475526,-0.16267 l -3.789026,-2.44872 c -1.311732,0.52488 -2.722175,0.801419 -4.173433,0.801419 -3.030651,0 -5.881911,-1.197249 -8.030798,-3.372684 -2.16692,-2.192787 -3.360007,-5.116502 -3.360007,-8.231083 0,-3.114581 1.193087,-6.038297 3.360007,-8.231083" />
  <g
     style="fill:#11b271"
     id="g22"
     transform="matrix(1,0,0,1.0844642,85.42,-11.070235)">
    <circle
       id="circle24"
       r="2.1800001"
       cy="41.625"
       cx="-54.744999" />
    <circle
       id="circle26"
       r="2.1800001"
       cy="41.625"
       cx="-49.777" />
    <circle
       id="circle28"
       r="2.1800001"
       cy="41.625"
       cx="-44.556999" />
  </g>
</svg>
