<?xml version="1.0" encoding="UTF-8" standalone="no"?>
<!-- Generator: Adobe Illustrator 19.0.0, SVG Export Plug-In . SVG Version: 6.00 Build 0)  -->

<svg
   xmlns:dc="http://purl.org/dc/elements/1.1/"
   xmlns:cc="http://creativecommons.org/ns#"
   xmlns:rdf="http://www.w3.org/1999/02/22-rdf-syntax-ns#"
   xmlns:svg="http://www.w3.org/2000/svg"
   xmlns="http://www.w3.org/2000/svg"
   xmlns:sodipodi="http://sodipodi.sourceforge.net/DTD/sodipodi-0.dtd"
   xmlns:inkscape="http://www.inkscape.org/namespaces/inkscape"
   version="1.1"
   id="Capa_1"
   x="0px"
   y="0px"
   viewBox="0 0 370 370"
   style="enable-background:new 0 0 370 370;"
   xml:space="preserve"
   inkscape:version="0.91 r13725"
   sodipodi:docname="preferences-desktop-screensaver.svg"><metadata
     id="metadata51"><rdf:RDF><cc:Work
         rdf:about=""><dc:format>image/svg+xml</dc:format><dc:type
           rdf:resource="http://purl.org/dc/dcmitype/StillImage" /><dc:title></dc:title></cc:Work></rdf:RDF></metadata><defs
     id="defs49" /><sodipodi:namedview
     pagecolor="#ffffff"
     bordercolor="#666666"
     borderopacity="1"
     objecttolerance="10"
     gridtolerance="10"
     guidetolerance="10"
     inkscape:pageopacity="0"
     inkscape:pageshadow="2"
     inkscape:window-width="1280"
     inkscape:window-height="694"
     id="namedview47"
     showgrid="false"
     inkscape:zoom="0.90203892"
     inkscape:cx="5.6758538"
     inkscape:cy="171.68329"
     inkscape:window-x="0"
     inkscape:window-y="0"
     inkscape:window-maximized="1"
     inkscape:current-layer="Capa_1" /><g
     id="g4194"
     transform="matrix(1.4611774,0,0,1,-84.209227,0)"><g
       style="fill:#d35f5f"
       id="XMLID_503_"><g
         style="fill:#d35f5f"
         id="XMLID_511_"><g
           style="fill:#d35f5f"
           id="XMLID_1307_"><g
             style="fill:#d35f5f"
             id="XMLID_1308_"><g
               style="fill:#d35f5f"
               id="XMLID_1309_"><path
                 id="XMLID_1310_"
                 style="fill:#d35f5f"
                 d="M 185,290 C 129.86,290 85,245.14 85,190 l 0,-90 C 85,44.86 129.86,0 185,0 240.14,0 285,44.86 285,100 l 0,90 c 0,55.14 -44.86,100 -100,100 z m 0,-250 c -33.084,0 -60,26.916 -60,60 l 0,90 c 0,33.084 26.916,60 60,60 33.084,0 60,-26.916 60,-60 l 0,-90 C 245,66.916 218.084,40 185,40 Z"
                 inkscape:connector-curvature="0" /></g></g></g></g><path
         id="XMLID_524_"
         style="fill:#d35f5f"
         d="m 185,0 0,40 c 33.084,0 60,26.916 60,60 l 0,90 c 0,33.084 -26.916,60 -60,60 l 0,40 c 55.14,0 100,-44.86 100,-100 l 0,-90 C 285,44.86 240.14,0 185,0 Z"
         inkscape:connector-curvature="0" /></g><g
       style="fill:#c83737"
       id="XMLID_525_"><circle
         id="XMLID_526_"
         style="fill:#c83737"
         cx="185"
         cy="245"
         r="125" /><path
         id="XMLID_531_"
         style="fill:#c83737"
         d="m 185,120 0,250 c 69.036,0 125,-55.964 125,-125 0,-69.036 -55.964,-125 -125,-125 z"
         inkscape:connector-curvature="0" /></g><path
       inkscape:connector-curvature="0"
       d="m 216.25,231.607 c 0,-17.259 -13.991,-31.25 -31.25,-31.25 -17.259,0 -31.25,13.991 -31.25,31.25 0,11.565 6.287,21.655 15.625,27.059 l 0,30.977 31.25,0 0,-30.977 c 9.338,-5.404 15.625,-15.494 15.625,-27.059 z"
       style="fill:#d35f5f"
       id="XMLID_535_" /><path
       inkscape:connector-curvature="0"
       d="m 185,200.357 0,89.286 15.625,0 0,-30.977 c 9.338,-5.404 15.625,-15.494 15.625,-27.059 0,-17.259 -13.991,-31.25 -31.25,-31.25 z"
       style="fill:#d35f5f"
       id="XMLID_783_" /></g><g
     id="g17" /><g
     id="g19" /><g
     id="g21" /><g
     id="g23" /><g
     id="g25" /><g
     id="g27" /><g
     id="g29" /><g
     id="g31" /><g
     id="g33" /><g
     id="g35" /><g
     id="g37" /><g
     id="g39" /><g
     id="g41" /><g
     id="g43" /><g
     id="g45" /></svg>