<?xml version="1.0" encoding="UTF-8" standalone="no"?>
<!-- Generator: Adobe Illustrator 19.0.0, SVG Export Plug-In . SVG Version: 6.00 Build 0)  -->

<svg
   xmlns:dc="http://purl.org/dc/elements/1.1/"
   xmlns:cc="http://creativecommons.org/ns#"
   xmlns:rdf="http://www.w3.org/1999/02/22-rdf-syntax-ns#"
   xmlns:svg="http://www.w3.org/2000/svg"
   xmlns="http://www.w3.org/2000/svg"
   xmlns:sodipodi="http://sodipodi.sourceforge.net/DTD/sodipodi-0.dtd"
   xmlns:inkscape="http://www.inkscape.org/namespaces/inkscape"
   version="1.1"
   id="Capa_1"
   x="0px"
   y="0px"
   viewBox="0 0 58 58"
   style="enable-background:new 0 0 58 58;"
   xml:space="preserve"
   inkscape:version="0.91 r13725"
   sodipodi:docname="preferences-kde-connect.svg"><metadata
     id="metadata65"><rdf:RDF><cc:Work
         rdf:about=""><dc:format>image/svg+xml</dc:format><dc:type
           rdf:resource="http://purl.org/dc/dcmitype/StillImage" /><dc:title></dc:title></cc:Work></rdf:RDF></metadata><defs
     id="defs63" /><sodipodi:namedview
     pagecolor="#ffffff"
     bordercolor="#666666"
     borderopacity="1"
     objecttolerance="10"
     gridtolerance="10"
     guidetolerance="10"
     inkscape:pageopacity="0"
     inkscape:pageshadow="2"
     inkscape:window-width="1280"
     inkscape:window-height="694"
     id="namedview61"
     showgrid="false"
     inkscape:zoom="4.0689655"
     inkscape:cx="-51.118644"
     inkscape:cy="29"
     inkscape:window-x="0"
     inkscape:window-y="0"
     inkscape:window-maximized="1"
     inkscape:current-layer="Capa_1" /><path
     inkscape:connector-curvature="0"
     style="fill:#424a60"
     d="M 51.874602,58 6.371162,58 C 2.9751133,58 0.2203397,56.475 0.2203397,54.595 l 0,-51.19 C 0.2203397,1.525 2.9751133,0 6.371162,0 l 45.501634,0 c 3.397855,0 6.152629,1.525 6.152629,3.405 l 0,51.189 c 0,1.881 -2.754774,3.406 -6.150823,3.406 z"
     id="path3" /><rect
     x="0.2203397"
     y="6"
     style="fill:#e7eced"
     width="57.805084"
     height="40"
     id="rect5" /><ellipse
     style="fill:#262b35"
     cx="29.122883"
     cy="52"
     id="circle7"
     rx="5.4192266"
     ry="3" /><path
     inkscape:connector-curvature="0"
     style="fill:#262b35"
     d="m 29.122882,4 -7.225635,0 c -0.998945,0 -1.806409,-0.447 -1.806409,-1 0,-0.553 0.807464,-1 1.806409,-1 l 7.225635,0 c 0.998944,0 1.806409,0.447 1.806409,1 0,0.553 -0.807465,1 -1.806409,1 z"
     id="path9" /><path
     inkscape:connector-curvature="0"
     style="fill:#262b35"
     d="M 36.348518,4 34.542109,4 C 33.543165,4 32.7357,3.553 32.7357,3 c 0,-0.553 0.807465,-1 1.806409,-1 l 1.806409,0 c 0.998944,0 1.806409,0.447 1.806409,1 0,0.553 -0.807465,1 -1.806409,1 z"
     id="path11" /><path
     inkscape:connector-curvature="0"
     style="fill:#3083c9"
     d="m 32.667056,17.019 -7.088348,0 c -1.035072,0 -1.875053,-0.465 -1.875053,-1.038 l 0,-3.924 c 0,-0.573 0.839981,-1.038 1.875053,-1.038 l 7.088348,0 c 1.035073,0 1.875053,0.465 1.875053,1.038 l 0,3.924 c 0,0.573 -0.83998,1.038 -1.875053,1.038 z"
     id="path13" /><path
     inkscape:connector-curvature="0"
     style="fill:#88c057"
     d="m 16.409376,17.019 -7.0883483,0 c -1.0350723,0 -1.8750524,-0.465 -1.8750524,-1.038 l 0,-3.924 c 0,-0.573 0.8399801,-1.038 1.8750524,-1.038 l 7.0883483,0 c 1.035073,0 1.875053,0.465 1.875053,1.038 l 0,3.924 c 0,0.573 -0.83998,1.038 -1.875053,1.038 z"
     id="path15" /><path
     inkscape:connector-curvature="0"
     style="fill:#dc691d"
     d="m 48.924736,17.019 -7.088348,0 c -1.035072,0 -1.875052,-0.465 -1.875052,-1.038 l 0,-3.924 c 0,-0.573 0.83998,-1.038 1.875052,-1.038 l 7.088348,0 c 1.035073,0 1.875053,0.465 1.875053,1.038 l 0,3.924 c 0,0.573 -0.83998,1.038 -1.875053,1.038 z"
     id="path17" /><path
     inkscape:connector-curvature="0"
     style="fill:#ebba16"
     d="m 32.667056,26 -7.088348,0 c -1.035072,0 -1.875053,-0.465 -1.875053,-1.038 l 0,-3.924 c 0,-0.573 0.839981,-1.038 1.875053,-1.038 l 7.088348,0 c 1.035073,0 1.875053,0.465 1.875053,1.038 l 0,3.924 c 0,0.573 -0.83998,1.038 -1.875053,1.038 z"
     id="path19" /><path
     inkscape:connector-curvature="0"
     style="fill:#7383bf"
     d="M 16.409376,26 9.3210277,26 C 8.2859554,26 7.4459753,25.535 7.4459753,24.962 l 0,-3.924 c 0,-0.573 0.8399801,-1.038 1.8750524,-1.038 l 7.0883483,0 c 1.035073,0 1.875053,0.465 1.875053,1.038 l 0,3.924 c 0,0.573 -0.83998,1.038 -1.875053,1.038 z"
     id="path21" /><path
     inkscape:connector-curvature="0"
     style="fill:#dd352e"
     d="m 48.924736,26 -7.088348,0 c -1.035072,0 -1.875052,-0.465 -1.875052,-1.038 l 0,-3.924 c 0,-0.573 0.83998,-1.038 1.875052,-1.038 l 7.088348,0 c 1.035073,0 1.875053,0.465 1.875053,1.038 l 0,3.924 c 0,0.573 -0.83998,1.038 -1.875053,1.038 z"
     id="path23" /><path
     inkscape:connector-curvature="0"
     style="fill:#a485be"
     d="m 32.667056,35 -7.088348,0 c -1.035072,0 -1.875053,-0.465 -1.875053,-1.038 l 0,-3.924 c 0,-0.573 0.839981,-1.038 1.875053,-1.038 l 7.088348,0 c 1.035073,0 1.875053,0.465 1.875053,1.038 l 0,3.924 c 0,0.573 -0.83998,1.038 -1.875053,1.038 z"
     id="path25" /><path
     inkscape:connector-curvature="0"
     style="fill:#ea6248"
     d="M 16.409376,35 9.3210277,35 C 8.2859554,35 7.4459753,34.535 7.4459753,33.962 l 0,-3.924 c 0,-0.573 0.8399801,-1.038 1.8750524,-1.038 l 7.0883483,0 c 1.035073,0 1.875053,0.465 1.875053,1.038 l 0,3.924 c 0,0.573 -0.83998,1.038 -1.875053,1.038 z"
     id="path27" /><path
     inkscape:connector-curvature="0"
     style="fill:#25ae88"
     d="m 48.924736,35 -7.088348,0 c -1.035072,0 -1.875052,-0.465 -1.875052,-1.038 l 0,-3.924 c 0,-0.573 0.83998,-1.038 1.875052,-1.038 l 7.088348,0 c 1.035073,0 1.875053,0.465 1.875053,1.038 l 0,3.924 c 0,0.573 -0.83998,1.038 -1.875053,1.038 z"
     id="path29" /><g
     id="g31" /><g
     id="g33" /><g
     id="g35" /><g
     id="g37" /><g
     id="g39" /><g
     id="g41" /><g
     id="g43" /><g
     id="g45" /><g
     id="g47" /><g
     id="g49" /><g
     id="g51" /><g
     id="g53" /><g
     id="g55" /><g
     id="g57" /><g
     id="g59" /><g
     style="color:#000000;fill:#0b1728;fill-opacity:1"
     id="g36"
     transform="matrix(1.4491404,0,0,1.459131,703.14116,233.20161)"><circle
       r="2.5"
       id="ellipse38"
       cy="-130.50999"
       cx="-462.60999"
       style="fill:#0b1728;fill-opacity:1" /><circle
       r="3"
       id="ellipse40"
       cy="-123.01"
       cx="-458.10999"
       style="fill:#0b1728;fill-opacity:1" /><circle
       r="1.5"
       id="ellipse42"
       cy="-138.50999"
       cx="-460.60999"
       style="fill:#0b1728;fill-opacity:1" /><path
       inkscape:connector-curvature="0"
       id="path44"
       d="m -452.11,-140.01 -2.844,2.844 4.375,4.375 -4.531,5.156 3,2.625 7,-8 -7,-7"
       style="fill:#0b1728;fill-opacity:1" /></g></svg>