<?xml version="1.0" encoding="UTF-8" standalone="no"?>
<!-- Generator: Adobe Illustrator 19.0.0, SVG Export Plug-In . SVG Version: 6.00 Build 0)  -->

<svg
   xmlns:dc="http://purl.org/dc/elements/1.1/"
   xmlns:cc="http://creativecommons.org/ns#"
   xmlns:rdf="http://www.w3.org/1999/02/22-rdf-syntax-ns#"
   xmlns:svg="http://www.w3.org/2000/svg"
   xmlns="http://www.w3.org/2000/svg"
   xmlns:sodipodi="http://sodipodi.sourceforge.net/DTD/sodipodi-0.dtd"
   xmlns:inkscape="http://www.inkscape.org/namespaces/inkscape"
   version="1.1"
   id="Capa_1"
   x="0px"
   y="0px"
   viewBox="0 0 58 58"
   style="enable-background:new 0 0 58 58;"
   xml:space="preserve"
   inkscape:version="0.91 r13725"
   sodipodi:docname="preferences-desktop-wallpaper.svg"><metadata
     id="metadata57"><rdf:RDF><cc:Work
         rdf:about=""><dc:format>image/svg+xml</dc:format><dc:type
           rdf:resource="http://purl.org/dc/dcmitype/StillImage" /><dc:title></dc:title></cc:Work></rdf:RDF></metadata><defs
     id="defs55" /><sodipodi:namedview
     pagecolor="#ffffff"
     bordercolor="#666666"
     borderopacity="1"
     objecttolerance="10"
     gridtolerance="10"
     guidetolerance="10"
     inkscape:pageopacity="0"
     inkscape:pageshadow="2"
     inkscape:window-width="1280"
     inkscape:window-height="694"
     id="namedview53"
     showgrid="false"
     inkscape:zoom="4.0689655"
     inkscape:cx="-11.059322"
     inkscape:cy="29"
     inkscape:window-x="0"
     inkscape:window-y="0"
     inkscape:window-maximized="1"
     inkscape:current-layer="Capa_1" /><g
     id="g4185"
     transform="matrix(1,0,0,1.2300758,0,-6.4264334)"><rect
       id="rect3"
       height="38"
       width="58"
       style="fill:#38454f"
       y="5.5"
       x="0" /><path
       id="path5"
       d="m 13.962,21.5 -2.924,0 C 10.465,21.5 10,21.035 10,20.462 l 0,-2.924 C 10,16.965 10.465,16.5 11.038,16.5 l 2.924,0 c 0.573,0 1.038,0.465 1.038,1.038 l 0,2.924 c 0,0.573 -0.465,1.038 -1.038,1.038 z"
       style="fill:#61b872"
       inkscape:connector-curvature="0" /><path
       id="path7"
       d="m 24.962,21.5 -2.924,0 C 21.465,21.5 21,21.035 21,20.462 l 0,-2.924 C 21,16.965 21.465,16.5 22.038,16.5 l 2.924,0 c 0.573,0 1.038,0.465 1.038,1.038 l 0,2.924 c 0,0.573 -0.465,1.038 -1.038,1.038 z"
       style="fill:#48a0dc"
       inkscape:connector-curvature="0" /><path
       id="path9"
       d="m 35.962,21.5 -2.924,0 C 32.465,21.5 32,21.035 32,20.462 l 0,-2.924 C 32,16.965 32.465,16.5 33.038,16.5 l 2.924,0 c 0.573,0 1.038,0.465 1.038,1.038 l 0,2.924 c 0,0.573 -0.465,1.038 -1.038,1.038 z"
       style="fill:#ebba16"
       inkscape:connector-curvature="0" /><path
       id="path11"
       d="m 46.962,21.5 -2.924,0 C 43.465,21.5 43,21.035 43,20.462 l 0,-2.924 C 43,16.965 43.465,16.5 44.038,16.5 l 2.924,0 c 0.573,0 1.038,0.465 1.038,1.038 l 0,2.924 c 0,0.573 -0.465,1.038 -1.038,1.038 z"
       style="fill:#bf4d90"
       inkscape:connector-curvature="0" /><path
       id="path13"
       d="m 13.962,32.5 -2.924,0 C 10.465,32.5 10,32.035 10,31.462 l 0,-2.924 C 10,27.965 10.465,27.5 11.038,27.5 l 2.924,0 c 0.573,0 1.038,0.465 1.038,1.038 l 0,2.924 c 0,0.573 -0.465,1.038 -1.038,1.038 z"
       style="fill:#dd352e"
       inkscape:connector-curvature="0" /><path
       id="path15"
       d="m 24.962,32.5 -2.924,0 C 21.465,32.5 21,32.035 21,31.462 l 0,-2.924 C 21,27.965 21.465,27.5 22.038,27.5 l 2.924,0 c 0.573,0 1.038,0.465 1.038,1.038 l 0,2.924 c 0,0.573 -0.465,1.038 -1.038,1.038 z"
       style="fill:#a4e869"
       inkscape:connector-curvature="0" /><path
       id="path17"
       d="m 35.962,32.5 -2.924,0 C 32.465,32.5 32,32.035 32,31.462 l 0,-2.924 C 32,27.965 32.465,27.5 33.038,27.5 l 2.924,0 c 0.573,0 1.038,0.465 1.038,1.038 l 0,2.924 c 0,0.573 -0.465,1.038 -1.038,1.038 z"
       style="fill:#50508a"
       inkscape:connector-curvature="0" /><path
       id="path19"
       d="m 46.962,32.5 -2.924,0 C 43.465,32.5 43,32.035 43,31.462 l 0,-2.924 C 43,27.965 43.465,27.5 44.038,27.5 l 2.924,0 c 0.573,0 1.038,0.465 1.038,1.038 l 0,2.924 c 0,0.573 -0.465,1.038 -1.038,1.038 z"
       style="fill:#be7c6d"
       inkscape:connector-curvature="0" /><polygon
       id="polygon21"
       points="28,43.5 28,49.5 15,49.5 15,52.5 43,52.5 43,49.5 30,49.5 30,43.5 "
       style="fill:#afb6bb" /></g><g
     id="g23" /><g
     id="g25" /><g
     id="g27" /><g
     id="g29" /><g
     id="g31" /><g
     id="g33" /><g
     id="g35" /><g
     id="g37" /><g
     id="g39" /><g
     id="g41" /><g
     id="g43" /><g
     id="g45" /><g
     id="g47" /><g
     id="g49" /><g
     id="g51" /></svg>