<?xml version="1.0" encoding="UTF-8" standalone="no"?>
<svg
   xmlns:dc="http://purl.org/dc/elements/1.1/"
   xmlns:cc="http://creativecommons.org/ns#"
   xmlns:rdf="http://www.w3.org/1999/02/22-rdf-syntax-ns#"
   xmlns:svg="http://www.w3.org/2000/svg"
   xmlns="http://www.w3.org/2000/svg"
   xmlns:sodipodi="http://sodipodi.sourceforge.net/DTD/sodipodi-0.dtd"
   xmlns:inkscape="http://www.inkscape.org/namespaces/inkscape"
   viewBox="0 0 48 48"
   id="svg2"
   version="1.1"
   inkscape:version="0.91 r13725"
   sodipodi:docname="preferences-desktop-font-installer.svg">
  <metadata
     id="metadata30">
    <rdf:RDF>
      <cc:Work
         rdf:about="">
        <dc:format>image/svg+xml</dc:format>
        <dc:type
           rdf:resource="http://purl.org/dc/dcmitype/StillImage" />
        <dc:title></dc:title>
      </cc:Work>
    </rdf:RDF>
  </metadata>
  <sodipodi:namedview
     pagecolor="#ffffff"
     bordercolor="#666666"
     borderopacity="1"
     objecttolerance="10"
     gridtolerance="10"
     guidetolerance="10"
     inkscape:pageopacity="0"
     inkscape:pageshadow="2"
     inkscape:window-width="1280"
     inkscape:window-height="694"
     id="namedview28"
     showgrid="false"
     inkscape:zoom="4.9166667"
     inkscape:cx="-45.661017"
     inkscape:cy="24"
     inkscape:window-x="0"
     inkscape:window-y="0"
     inkscape:window-maximized="1"
     inkscape:current-layer="svg2" />
  <defs
     id="defs4">
    <linearGradient
       id="0"
       x1="56.876"
       y1="16.999"
       x2="56.42"
       y2="-4.536"
       gradientUnits="userSpaceOnUse"
       gradientTransform="matrix(1.03003,0,0,1.03003,-29.531,26.662)">
      <stop
         stop-color="#1f1f1f"
         id="stop7" />
      <stop
         offset="1"
         stop-color="#656565"
         id="stop9" />
    </linearGradient>
    <linearGradient
       gradientUnits="userSpaceOnUse"
       y2="-25.26"
       x2="51.49"
       y1="19.326"
       x1="52.04"
       id="1"
       gradientTransform="matrix(1.03003,0,0,1.03003,-29.531,26.662)">
      <stop
         stop-color="#d3d3d3"
         id="stop12" />
      <stop
         offset="1"
         stop-color="#fcf9f9"
         id="stop14" />
    </linearGradient>
  </defs>
  <g
     style="fill:#6f7c91"
     id="g20"
     transform="matrix(1.3200588,0,0,2.0305361,-42.723815,31.748939)">
    <path
       inkscape:connector-curvature="0"
       id="path22"
       d="m 32.866,7.415 8.623,-22.867 3.322,0 8.623,22.867 -3.258,0 -2.204,-6.196 -9.613,0 -2.236,6.196 -3.258,0 m 6.483,-8.943 7.601,0 -3.737,-10.316 -0.128,0 -3.737,10.316"
       style="fill:#6f7c91" />
    <path
       inkscape:connector-curvature="0"
       id="path24"
       d="m 60.55,7.926 q -2.491,0 -4.184,-1.437 -1.661,-1.437 -1.661,-3.801 0,-2.555 1.98,-3.992 1.98,-1.469 4.886,-1.469 2.587,0 4.248,0.958 l 0,-0.447 q 0,-1.725 -1.182,-2.747 -1.182,-1.054 -2.906,-1.054 -1.278,0 -2.331,0.607 -1.022,0.607 -1.405,1.661 l -2.683,-1.15 q 0.543,-1.405 2.14,-2.587 1.597,-1.214 4.216,-1.214 3,0 4.982,1.757 1.98,1.757 1.98,4.95 l 0,9.454 -2.811,0 0,-2.172 -0.128,0 q -1.757,2.683 -5.142,2.683 m 0.479,-2.683 q 1.82,0 3.29,-1.341 1.501,-1.373 1.501,-3.226 -1.246,-1.022 -3.737,-1.022 -2.14,0 -3.226,0.926 -1.086,0.926 -1.086,2.172 0,1.15 0.99,1.82 0.99,0.671 2.268,0.671"
       style="fill:#6f7c91" />
  </g>
  <circle
     style="fill:#dbdee3;fill-opacity:0.50800003;stroke:none;stroke-width:2.56065464"
     id="circle26"
     cy="33.655903"
     cx="33.253448"
     r="13.073141" />
</svg>
