<?xml version="1.0" encoding="UTF-8" standalone="no"?>
<svg
   xmlns:dc="http://purl.org/dc/elements/1.1/"
   xmlns:cc="http://creativecommons.org/ns#"
   xmlns:rdf="http://www.w3.org/1999/02/22-rdf-syntax-ns#"
   xmlns:svg="http://www.w3.org/2000/svg"
   xmlns="http://www.w3.org/2000/svg"
   xmlns:xlink="http://www.w3.org/1999/xlink"
   xmlns:sodipodi="http://sodipodi.sourceforge.net/DTD/sodipodi-0.dtd"
   xmlns:inkscape="http://www.inkscape.org/namespaces/inkscape"
   viewBox="0 0 48 48"
   id="svg2"
   version="1.1"
   inkscape:version="0.91 r13725"
   sodipodi:docname="preferences-kde-connect.svg">
  <metadata
     id="metadata48">
    <rdf:RDF>
      <cc:Work
         rdf:about="">
        <dc:format>image/svg+xml</dc:format>
        <dc:type
           rdf:resource="http://purl.org/dc/dcmitype/StillImage" />
        <dc:title></dc:title>
      </cc:Work>
    </rdf:RDF>
  </metadata>
  <sodipodi:namedview
     pagecolor="#ffffff"
     bordercolor="#666666"
     borderopacity="1"
     objecttolerance="10"
     gridtolerance="10"
     guidetolerance="10"
     inkscape:pageopacity="0"
     inkscape:pageshadow="2"
     inkscape:window-width="1280"
     inkscape:window-height="694"
     id="namedview46"
     showgrid="false"
     inkscape:zoom="6.9532167"
     inkscape:cx="-29.010782"
     inkscape:cy="17.864135"
     inkscape:window-x="0"
     inkscape:window-y="0"
     inkscape:window-maximized="1"
     inkscape:current-layer="svg2" />
  <defs
     id="defs4">
    <clipPath
       id="clipPath6">
      <path
         d="m69.63 12.145h-.052c-22.727-.292-46.47 4.077-46.709 4.122-2.424.451-4.946 2.974-5.397 5.397-.044.237-4.414 23.983-4.122 46.71-.292 22.777 4.078 46.523 4.122 46.761.451 2.423 2.974 4.945 5.398 5.398.237.044 23.982 4.413 46.709 4.121 22.779.292 46.524-4.077 46.761-4.121 2.423-.452 4.946-2.976 5.398-5.399.044-.236 4.413-23.981 4.121-46.709.292-22.777-4.077-46.523-4.121-46.761-.453-2.423-2.976-4.946-5.398-5.397-.238-.045-23.984-4.414-46.71-4.122"
         id="path8" />
    </clipPath>
    <linearGradient
       xlink:href="#1"
       id="5"
       gradientUnits="userSpaceOnUse"
       x1="159.46"
       y1="668.03"
       x2="160.66"
       y2="596.97"
       gradientTransform="matrix(0.1394434,0,0,0.06937732,1.719305,0.2150768)" />
    <linearGradient
       xlink:href="#0"
       gradientUnits="userSpaceOnUse"
       x1="184.71"
       y1="448.41"
       x2="187.28"
       y2="70.33"
       id="linearGradient11" />
    <linearGradient
       gradientUnits="userSpaceOnUse"
       y2="1038.35"
       x2="8.115"
       y1="1050.47"
       x1="8.167"
       id="4"
       xlink:href="#0"
       gradientTransform="matrix(5.9937445,0,0,3.4282525,-23.731904,-3556.3383)" />
    <linearGradient
       gradientUnits="userSpaceOnUse"
       y2="596.97"
       x2="160.66"
       y1="668.03"
       x1="159.46"
       id="3"
       xlink:href="#1"
       gradientTransform="matrix(0.1394434,0,0,0.06937732,1.719305,0.2150768)" />
    <linearGradient
       id="1">
      <stop
         stop-color="#08f"
         id="stop16" />
      <stop
         offset="1"
         stop-color="#02c3ff"
         id="stop18" />
    </linearGradient>
    <linearGradient
       id="0">
      <stop
         stop-color="#141414"
         id="stop21" />
      <stop
         offset="1"
         stop-color="#2d2d2f"
         id="stop23" />
    </linearGradient>
    <linearGradient
       gradientTransform="matrix(0.12971304,0,0,0.06375151,3.785159,2.4758755)"
       gradientUnits="userSpaceOnUse"
       y2="63.27"
       x2="159.24"
       y1="624.72"
       x1="169.5"
       id="2"
       xlink:href="#1" />
  </defs>
  <g
     id="g4153">
    <rect
       style="fill:#5599ff;fill-rule:evenodd"
       id="rect30"
       rx="1.2971026"
       y="6.3140373"
       x="4.3063984"
       height="36.47929"
       width="40.81369" />
    <path
       inkscape:connector-curvature="0"
       style="fill:#b7bec8"
       id="path32"
       d="m 44.620758,-0.0062866 -40.7994185,0 c -1.8580608,0 -3.3624907,0.86049138 -3.3624907,1.9232497 l 0,44.1456069 c 0,1.062759 1.5044299,1.92325 3.3624907,1.92325 l 40.7994185,0 c 1.858061,0 3.362491,-0.860491 3.362491,-1.92325 l 0,-44.1456069 c 0,-1.06275832 -1.50443,-1.9232497 -3.362491,-1.9232497 m -0.491487,40.3779576 -39.8224382,0 0,-32.7569523 39.8224382,0 z" />
    <ellipse
       style="fill:#0b1728;fill-rule:evenodd;stroke:none;stroke-width:0.72892785;stroke-linecap:round"
       id="ellipse34"
       ry="2.0119424"
       rx="3.518157"
       cy="44.476418"
       cx="24.217102" />
    <g
       transform="matrix(0.74871616,0,0,0.74641901,364.73543,121.03824)"
       id="g36"
       style="color:#000000;fill:#0b1728;fill-opacity:0.847">
      <circle
         style="fill:#0b1728"
         cx="-462.60999"
         cy="-130.50999"
         id="ellipse38"
         r="2.5" />
      <circle
         style="fill:#0b1728"
         cx="-458.10999"
         cy="-123.01"
         id="ellipse40"
         r="3" />
      <circle
         style="fill:#0b1728"
         cx="-460.60999"
         cy="-138.50999"
         id="ellipse42"
         r="1.5" />
      <path
         style="fill:#0b1728"
         d="m -452.11,-140.01 -2.844,2.844 4.375,4.375 -4.531,5.156 3,2.625 7,-8 -7,-7"
         id="path44"
         inkscape:connector-curvature="0" />
    </g>
  </g>
</svg>
