<?xml version="1.0" encoding="UTF-8" standalone="no"?>
<!-- Generator: Adobe Illustrator 19.0.0, SVG Export Plug-In . SVG Version: 6.00 Build 0)  -->

<svg
   xmlns:dc="http://purl.org/dc/elements/1.1/"
   xmlns:cc="http://creativecommons.org/ns#"
   xmlns:rdf="http://www.w3.org/1999/02/22-rdf-syntax-ns#"
   xmlns:svg="http://www.w3.org/2000/svg"
   xmlns="http://www.w3.org/2000/svg"
   xmlns:sodipodi="http://sodipodi.sourceforge.net/DTD/sodipodi-0.dtd"
   xmlns:inkscape="http://www.inkscape.org/namespaces/inkscape"
   version="1.1"
   id="Capa_1"
   x="0px"
   y="0px"
   viewBox="0 0 58 58"
   style="enable-background:new 0 0 58 58;"
   xml:space="preserve"
   inkscape:version="0.91 r13725"
   sodipodi:docname="preferences-driver.svg"><metadata
     id="metadata113"><rdf:RDF><cc:Work
         rdf:about=""><dc:format>image/svg+xml</dc:format><dc:type
           rdf:resource="http://purl.org/dc/dcmitype/StillImage" /><dc:title></dc:title></cc:Work></rdf:RDF></metadata><defs
     id="defs111" /><sodipodi:namedview
     pagecolor="#ffffff"
     bordercolor="#666666"
     borderopacity="1"
     objecttolerance="10"
     gridtolerance="10"
     guidetolerance="10"
     inkscape:pageopacity="0"
     inkscape:pageshadow="2"
     inkscape:window-width="1280"
     inkscape:window-height="694"
     id="namedview109"
     showgrid="false"
     inkscape:zoom="4.0689655"
     inkscape:cx="-11.059322"
     inkscape:cy="29"
     inkscape:window-x="0"
     inkscape:window-y="0"
     inkscape:window-maximized="1"
     inkscape:current-layer="Capa_1" /><path
     style="fill:#28812F;"
     d="M27.5,0c0,1.657-1.343,3-3,3s-3-1.343-3-3h-3v58h3c0-1.657,1.343-3,3-3s3,1.343,3,3h14.905  c1.157,0,2.095-0.938,2.095-2.095V2.095C44.5,0.938,43.562,0,42.405,0H27.5z M39.622,54.925c-1.862,0.449-3.496-1.186-3.047-3.047  c0.211-0.875,0.929-1.592,1.803-1.803c1.861-0.448,3.495,1.186,3.046,3.047C41.214,53.997,40.497,54.714,39.622,54.925z   M39.622,7.925c-1.862,0.449-3.496-1.186-3.047-3.047c0.211-0.875,0.929-1.592,1.803-1.803c1.861-0.448,3.495,1.186,3.046,3.047  C41.214,6.997,40.497,7.714,39.622,7.925z"
     id="path3" /><g
     id="g5"><rect
       x="38.5"
       y="10"
       style="fill:#ECD361;"
       width="6"
       height="2"
       id="rect7" /><rect
       x="38.5"
       y="13"
       style="fill:#ECD361;"
       width="6"
       height="2"
       id="rect9" /><rect
       x="38.5"
       y="16"
       style="fill:#ECD361;"
       width="6"
       height="2"
       id="rect11" /><rect
       x="38.5"
       y="19"
       style="fill:#ECD361;"
       width="6"
       height="2"
       id="rect13" /><rect
       x="38.5"
       y="22"
       style="fill:#ECD361;"
       width="6"
       height="2"
       id="rect15" /><rect
       x="38.5"
       y="25"
       style="fill:#ECD361;"
       width="6"
       height="2"
       id="rect17" /><rect
       x="38.5"
       y="28"
       style="fill:#ECD361;"
       width="6"
       height="2"
       id="rect19" /><rect
       x="38.5"
       y="31"
       style="fill:#ECD361;"
       width="6"
       height="2"
       id="rect21" /><rect
       x="38.5"
       y="34"
       style="fill:#ECD361;"
       width="6"
       height="2"
       id="rect23" /><rect
       x="38.5"
       y="37"
       style="fill:#ECD361;"
       width="6"
       height="2"
       id="rect25" /><rect
       x="38.5"
       y="40"
       style="fill:#ECD361;"
       width="6"
       height="2"
       id="rect27" /><rect
       x="38.5"
       y="43"
       style="fill:#ECD361;"
       width="6"
       height="2"
       id="rect29" /><rect
       x="38.5"
       y="46"
       style="fill:#ECD361;"
       width="6"
       height="2"
       id="rect31" /></g><rect
     x="22.5"
     y="8"
     style="fill:#38454F;"
     width="10"
     height="6"
     id="rect33" /><rect
     x="22.5"
     y="44"
     style="fill:#38454F;"
     width="10"
     height="6"
     id="rect35" /><rect
     x="22.5"
     y="26"
     style="fill:#38454F;"
     width="10"
     height="6"
     id="rect37" /><g
     id="g39"><rect
       x="23.5"
       y="5"
       style="fill:#ECD361;"
       width="2"
       height="3"
       id="rect41" /><rect
       x="26.5"
       y="5"
       style="fill:#ECD361;"
       width="2"
       height="3"
       id="rect43" /><rect
       x="29.5"
       y="5"
       style="fill:#ECD361;"
       width="2"
       height="3"
       id="rect45" /><rect
       x="23.5"
       y="14"
       style="fill:#ECD361;"
       width="2"
       height="3"
       id="rect47" /><rect
       x="26.5"
       y="14"
       style="fill:#ECD361;"
       width="2"
       height="3"
       id="rect49" /><rect
       x="29.5"
       y="14"
       style="fill:#ECD361;"
       width="2"
       height="3"
       id="rect51" /><rect
       x="23.5"
       y="41"
       style="fill:#ECD361;"
       width="2"
       height="3"
       id="rect53" /><rect
       x="26.5"
       y="41"
       style="fill:#ECD361;"
       width="2"
       height="3"
       id="rect55" /><rect
       x="29.5"
       y="41"
       style="fill:#ECD361;"
       width="2"
       height="3"
       id="rect57" /><rect
       x="23.5"
       y="50"
       style="fill:#ECD361;"
       width="2"
       height="3"
       id="rect59" /><rect
       x="26.5"
       y="50"
       style="fill:#ECD361;"
       width="2"
       height="3"
       id="rect61" /><rect
       x="29.5"
       y="50"
       style="fill:#ECD361;"
       width="2"
       height="3"
       id="rect63" /><rect
       x="23.5"
       y="23"
       style="fill:#ECD361;"
       width="2"
       height="3"
       id="rect65" /><rect
       x="26.5"
       y="23"
       style="fill:#ECD361;"
       width="2"
       height="3"
       id="rect67" /><rect
       x="29.5"
       y="23"
       style="fill:#ECD361;"
       width="2"
       height="3"
       id="rect69" /><rect
       x="23.5"
       y="32"
       style="fill:#ECD361;"
       width="2"
       height="3"
       id="rect71" /><rect
       x="26.5"
       y="32"
       style="fill:#ECD361;"
       width="2"
       height="3"
       id="rect73" /><rect
       x="29.5"
       y="32"
       style="fill:#ECD361;"
       width="2"
       height="3"
       id="rect75" /></g><polygon
     style="fill:#283238;"
     points="15.5,3 15.5,55 13.5,55 13.5,58 18.5,58 18.5,0 13.5,0 13.5,3 "
     id="polygon77" /><g
     id="g79" /><g
     id="g81" /><g
     id="g83" /><g
     id="g85" /><g
     id="g87" /><g
     id="g89" /><g
     id="g91" /><g
     id="g93" /><g
     id="g95" /><g
     id="g97" /><g
     id="g99" /><g
     id="g101" /><g
     id="g103" /><g
     id="g105" /><g
     id="g107" /></svg>