<?xml version="1.0" encoding="UTF-8" standalone="no"?>
<!-- Generator: Adobe Illustrator 18.0.0, SVG Export Plug-In . SVG Version: 6.00 Build 0)  -->

<svg
   xmlns:dc="http://purl.org/dc/elements/1.1/"
   xmlns:cc="http://creativecommons.org/ns#"
   xmlns:rdf="http://www.w3.org/1999/02/22-rdf-syntax-ns#"
   xmlns:svg="http://www.w3.org/2000/svg"
   xmlns="http://www.w3.org/2000/svg"
   xmlns:sodipodi="http://sodipodi.sourceforge.net/DTD/sodipodi-0.dtd"
   xmlns:inkscape="http://www.inkscape.org/namespaces/inkscape"
   version="1.1"
   id="Capa_1"
   x="0px"
   y="0px"
   viewBox="0 0 464.871 464.871"
   style="enable-background:new 0 0 464.871 464.871;"
   xml:space="preserve"
   width="512px"
   height="512px"
   inkscape:version="0.91 r13725"
   sodipodi:docname="preferences-system-login.svg"><metadata
     id="metadata65"><rdf:RDF><cc:Work
         rdf:about=""><dc:format>image/svg+xml</dc:format><dc:type
           rdf:resource="http://purl.org/dc/dcmitype/StillImage" /><dc:title></dc:title></cc:Work></rdf:RDF></metadata><defs
     id="defs63" /><sodipodi:namedview
     pagecolor="#ffffff"
     bordercolor="#666666"
     borderopacity="1"
     objecttolerance="10"
     gridtolerance="10"
     guidetolerance="10"
     inkscape:pageopacity="0"
     inkscape:pageshadow="2"
     inkscape:window-width="1280"
     inkscape:window-height="694"
     id="namedview61"
     showgrid="false"
     inkscape:zoom="0.4609375"
     inkscape:cx="-451.25424"
     inkscape:cy="256"
     inkscape:window-x="0"
     inkscape:window-y="0"
     inkscape:window-maximized="1"
     inkscape:current-layer="Capa_1" /><g
     id="g3"
     transform="matrix(1,0,0,1.7897141,0,-182.57309)"
     style="fill:#999999"><path
       d="m 410.66,252.471 -272.742,0 c -29.892,0 -54.211,24.319 -54.211,54.211 0,29.892 24.319,54.211 54.211,54.211 l 272.742,0 c 29.892,0 54.211,-24.319 54.211,-54.211 0,-29.892 -24.319,-54.211 -54.211,-54.211 z m 0,93.422 -272.742,0 c -21.621,0 -39.211,-17.59 -39.211,-39.211 0,-21.621 17.59,-39.211 39.211,-39.211 l 272.742,0 c 21.621,0 39.211,17.59 39.211,39.211 0,21.621 -17.59,39.211 -39.211,39.211 z"
       id="path5"
       inkscape:connector-curvature="0"
       style="fill:#999999" /><path
       d="m 175.964,292.369 c -2.071,-3.588 -6.66,-4.817 -10.245,-2.745 l -8.021,4.631 0,-9.261 c 0,-4.142 -3.357,-7.5 -7.5,-7.5 -4.143,0 -7.5,3.358 -7.5,7.5 l 0,9.261 -8.021,-4.631 c -3.589,-2.072 -8.175,-0.843 -10.245,2.745 -2.071,3.587 -0.842,8.174 2.745,10.245 l 8.021,4.631 -8.021,4.631 c -3.587,2.071 -4.816,6.658 -2.745,10.245 1.39,2.406 3.91,3.751 6.502,3.751 1.272,0 2.563,-0.324 3.743,-1.006 l 8.021,-4.631 0,9.261 c 0,4.142 3.357,7.5 7.5,7.5 4.143,0 7.5,-3.358 7.5,-7.5 l 0,-9.261 8.021,4.631 c 1.182,0.682 2.471,1.006 3.743,1.006 2.592,0 5.113,-1.345 6.502,-3.751 2.071,-3.587 0.842,-8.174 -2.745,-10.245 l -8.021,-4.631 8.021,-4.631 c 3.587,-2.071 4.816,-6.658 2.745,-10.245 z"
       id="path7"
       inkscape:connector-curvature="0"
       style="fill:#999999" /><path
       d="m 245.73,292.369 c -2.07,-3.588 -6.66,-4.817 -10.245,-2.745 l -8.021,4.631 0,-9.262 c 0,-4.142 -3.357,-7.5 -7.5,-7.5 -4.143,0 -7.5,3.358 -7.5,7.5 l 0,9.261 -8.021,-4.631 c -3.59,-2.072 -8.176,-0.842 -10.245,2.745 -2.071,3.587 -0.842,8.174 2.745,10.245 l 8.021,4.631 -8.021,4.631 c -3.587,2.071 -4.816,6.658 -2.745,10.245 1.389,2.406 3.91,3.751 6.502,3.751 1.272,0 2.563,-0.324 3.743,-1.006 l 8.021,-4.631 0,9.261 c 0,4.142 3.357,7.5 7.5,7.5 4.143,0 7.5,-3.358 7.5,-7.5 l 0,-9.262 8.021,4.631 c 1.182,0.682 2.471,1.006 3.743,1.006 2.592,0 5.113,-1.346 6.502,-3.751 2.071,-3.587 0.842,-8.174 -2.745,-10.245 l -8.021,-4.631 8.021,-4.631 c 3.587,-2.068 4.816,-6.655 2.745,-10.243 z"
       id="path9"
       inkscape:connector-curvature="0"
       style="fill:#999999" /><path
       d="m 315.494,292.369 c -2.07,-3.588 -6.659,-4.817 -10.245,-2.745 l -8.021,4.631 0,-9.262 c 0,-4.142 -3.357,-7.5 -7.5,-7.5 -4.143,0 -7.5,3.358 -7.5,7.5 l 0,9.261 -8.021,-4.631 c -3.59,-2.072 -8.175,-0.842 -10.245,2.745 -2.071,3.587 -0.842,8.174 2.745,10.245 l 8.021,4.631 -8.021,4.631 c -3.587,2.071 -4.816,6.658 -2.745,10.245 1.389,2.406 3.91,3.751 6.502,3.751 1.272,0 2.563,-0.324 3.743,-1.006 l 8.021,-4.631 0,9.261 c 0,4.142 3.357,7.5 7.5,7.5 4.143,0 7.5,-3.358 7.5,-7.5 l 0,-9.262 8.021,4.631 c 1.182,0.682 2.471,1.006 3.743,1.006 2.592,0 5.113,-1.346 6.502,-3.751 2.071,-3.587 0.842,-8.174 -2.745,-10.245 l -8.021,-4.631 8.021,-4.631 c 3.587,-2.068 4.817,-6.655 2.745,-10.243 z"
       id="path11"
       inkscape:connector-curvature="0"
       style="fill:#999999" /><path
       d="m 385.259,292.369 c -2.07,-3.588 -6.659,-4.817 -10.245,-2.745 l -8.021,4.631 0,-9.261 c 0,-4.142 -3.357,-7.5 -7.5,-7.5 -4.143,0 -7.5,3.358 -7.5,7.5 l 0,9.262 -8.021,-4.631 c -3.589,-2.072 -8.175,-0.842 -10.245,2.745 -2.071,3.587 -0.842,8.174 2.745,10.245 l 8.021,4.631 -8.021,4.631 c -3.587,2.071 -4.816,6.658 -2.745,10.245 1.389,2.406 3.91,3.751 6.502,3.751 1.272,0 2.563,-0.324 3.743,-1.006 l 8.021,-4.631 0,9.262 c 0,4.142 3.357,7.5 7.5,7.5 4.143,0 7.5,-3.358 7.5,-7.5 l 0,-9.261 8.021,4.631 c 1.182,0.682 2.471,1.006 3.743,1.006 2.592,0 5.113,-1.346 6.502,-3.751 2.071,-3.587 0.842,-8.174 -2.745,-10.245 l -8.021,-4.631 8.021,-4.631 c 3.587,-2.072 4.816,-6.659 2.745,-10.247 z"
       id="path13"
       inkscape:connector-curvature="0"
       style="fill:#999999" /><path
       d="m 58.58,292.421 -0.307,0 0,-6.32 c 0,-13.771 -11.204,-24.976 -24.976,-24.976 -13.772,0 -24.974,11.205 -24.974,24.976 l 0,6.32 -0.307,0 c -4.143,0 -7.5,3.358 -7.5,7.5 l 0,44.817 c 0,4.142 3.357,7.5 7.5,7.5 l 50.564,0 c 4.143,0 7.5,-3.358 7.5,-7.5 l 0,-44.817 c 0,-4.142 -3.357,-7.5 -7.5,-7.5 z m -35.257,-6.32 c 0,-5.5 4.475,-9.976 9.976,-9.976 5.501,0 9.976,4.475 9.976,9.976 l 0,6.32 -19.952,0 0,-6.32 z m 27.757,51.137 -35.564,0 0,-29.817 35.564,0 0,29.817 z"
       id="path15"
       inkscape:connector-curvature="0"
       style="fill:#999999" /><path
       d="m 137.918,212.401 272.742,0 c 29.892,0 54.211,-24.319 54.211,-54.211 0,-29.892 -24.319,-54.211 -54.211,-54.211 l -272.742,0 c -29.892,0 -54.211,24.319 -54.211,54.211 0,29.892 24.32,54.211 54.211,54.211 z m 0,-93.422 272.742,0 c 21.621,0 39.211,17.59 39.211,39.211 0,21.621 -17.59,39.211 -39.211,39.211 l -272.742,0 c -21.621,0 -39.211,-17.59 -39.211,-39.211 0,-21.621 17.59,-39.211 39.211,-39.211 z"
       id="path17"
       inkscape:connector-curvature="0"
       style="fill:#999999" /><path
       d="m 7.5,196.943 50.564,0 c 4.143,0 7.5,-3.358 7.5,-7.5 l 0,-3.156 c 0,-11.072 -5.523,-20.873 -13.952,-26.811 3.558,-4.259 5.704,-9.736 5.704,-15.706 0,-13.528 -11.006,-24.533 -24.534,-24.533 -13.527,0 -24.533,11.005 -24.533,24.533 0,5.97 2.146,11.447 5.704,15.706 C 5.523,165.414 0,175.214 0,186.287 l 0,3.156 c 0,4.142 3.357,7.5 7.5,7.5 z m 25.282,-62.706 c 5.257,0 9.534,4.276 9.534,9.533 0,5.257 -4.277,9.534 -9.534,9.534 -5.257,0 -9.533,-4.277 -9.533,-9.534 0,-5.257 4.276,-9.533 9.533,-9.533 z m 0,34.267 c 8.308,0 15.303,5.727 17.246,13.439 l -34.492,0 c 1.943,-7.712 8.939,-13.439 17.246,-13.439 z"
       id="path19"
       inkscape:connector-curvature="0"
       style="fill:#999999" /><path
       d="m 141.166,179.706 22,0 c 4.143,0 7.5,-3.358 7.5,-7.5 0,-4.142 -3.357,-7.5 -7.5,-7.5 l -14.5,0 0,-23.5 c 0,-4.142 -3.357,-7.5 -7.5,-7.5 -4.143,0 -7.5,3.358 -7.5,7.5 l 0,31 c 0,4.142 3.358,7.5 7.5,7.5 z"
       id="path21"
       inkscape:connector-curvature="0"
       style="fill:#999999" /><path
       d="m 289.766,179.706 c 4.143,0 7.5,-3.358 7.5,-7.5 l 0,-31 c 0,-4.142 -3.357,-7.5 -7.5,-7.5 -4.143,0 -7.5,3.358 -7.5,7.5 l 0,31 c 0,4.142 3.357,7.5 7.5,7.5 z"
       id="path23"
       inkscape:connector-curvature="0"
       style="fill:#999999" /><path
       d="m 316.766,179.706 c 4.143,0 7.5,-3.358 7.5,-7.5 l 0,-12.466 17.11,17.681 c 1.441,1.489 3.397,2.285 5.392,2.285 0.945,0 1.899,-0.179 2.812,-0.548 2.832,-1.146 4.687,-3.896 4.687,-6.952 l 0,-31 c 0,-4.142 -3.357,-7.5 -7.5,-7.5 -4.143,0 -7.5,3.358 -7.5,7.5 l 0,12.465 -17.11,-17.681 c -2.125,-2.195 -5.368,-2.885 -8.203,-1.736 -2.832,1.146 -4.687,3.896 -4.687,6.952 l 0,31 c -10e-4,4.142 3.356,7.5 7.499,7.5 z"
       id="path25"
       inkscape:connector-curvature="0"
       style="fill:#999999" /><path
       d="m 199.731,179.706 c 12.683,0 23,-10.318 23,-23 0,-12.682 -10.317,-23 -23,-23 -12.683,0 -23,10.318 -23,23 0,12.682 10.317,23 23,23 z m 0,-31 c 4.411,0 8,3.589 8,8 0,4.411 -3.589,8 -8,8 -4.411,0 -8,-3.589 -8,-8 0,-4.411 3.589,-8 8,-8 z"
       id="path27"
       inkscape:connector-curvature="0"
       style="fill:#999999" /><path
       d="m 256.338,179.435 0,3.771 c 0,4.142 3.357,7.5 7.5,7.5 4.143,0 7.5,-3.358 7.5,-7.5 l 0,-15.54 c 0,-3.033 -1.827,-5.768 -4.63,-6.929 -2.803,-1.161 -6.028,-0.519 -8.173,1.625 -3.119,3.119 -8.193,3.12 -11.314,0 -3.119,-3.119 -3.119,-8.195 -0.001,-11.313 3.121,-3.118 8.194,-3.12 11.315,0 2.928,2.929 7.677,2.928 10.606,0 2.929,-2.929 2.929,-7.678 -0.001,-10.607 -8.967,-8.967 -23.559,-8.965 -32.527,0 -8.967,8.968 -8.967,23.559 0.001,32.527 5.365,5.365 12.745,7.518 19.724,6.466 z"
       id="path29"
       inkscape:connector-curvature="0"
       style="fill:#999999" /></g><g
     id="g31" /><g
     id="g33" /><g
     id="g35" /><g
     id="g37" /><g
     id="g39" /><g
     id="g41" /><g
     id="g43" /><g
     id="g45" /><g
     id="g47" /><g
     id="g49" /><g
     id="g51" /><g
     id="g53" /><g
     id="g55" /><g
     id="g57" /><g
     id="g59" /></svg>