<?xml version="1.0" encoding="UTF-8" standalone="no"?>
<svg
   xmlns:dc="http://purl.org/dc/elements/1.1/"
   xmlns:cc="http://creativecommons.org/ns#"
   xmlns:rdf="http://www.w3.org/1999/02/22-rdf-syntax-ns#"
   xmlns:svg="http://www.w3.org/2000/svg"
   xmlns="http://www.w3.org/2000/svg"
   xmlns:sodipodi="http://sodipodi.sourceforge.net/DTD/sodipodi-0.dtd"
   xmlns:inkscape="http://www.inkscape.org/namespaces/inkscape"
   viewBox="0 0 48 48"
   id="svg2"
   version="1.1"
   inkscape:version="0.91 r13725"
   sodipodi:docname="preferences-desktop-default-applications.svg">
  <metadata
     id="metadata19">
    <rdf:RDF>
      <cc:Work
         rdf:about="">
        <dc:format>image/svg+xml</dc:format>
        <dc:type
           rdf:resource="http://purl.org/dc/dcmitype/StillImage" />
        <dc:title></dc:title>
      </cc:Work>
    </rdf:RDF>
  </metadata>
  <sodipodi:namedview
     pagecolor="#ffffff"
     bordercolor="#666666"
     borderopacity="1"
     objecttolerance="10"
     gridtolerance="10"
     guidetolerance="10"
     inkscape:pageopacity="0"
     inkscape:pageshadow="2"
     inkscape:window-width="1280"
     inkscape:window-height="694"
     id="namedview17"
     showgrid="false"
     inkscape:zoom="4.9166667"
     inkscape:cx="-9.1525424"
     inkscape:cy="24"
     inkscape:window-x="0"
     inkscape:window-y="0"
     inkscape:window-maximized="1"
     inkscape:current-layer="svg2" />
  <defs
     id="defs4">
    <clipPath
       id="clipPath6">
      <path
         d="m69.63 12.145h-.052c-22.727-.292-46.47 4.077-46.709 4.122-2.424.451-4.946 2.974-5.397 5.397-.044.237-4.414 23.983-4.122 46.71-.292 22.777 4.078 46.523 4.122 46.761.451 2.423 2.974 4.945 5.398 5.398.237.044 23.982 4.413 46.709 4.121 22.779.292 46.524-4.077 46.761-4.121 2.423-.452 4.946-2.976 5.398-5.399.044-.236 4.413-23.981 4.121-46.709.292-22.777-4.077-46.523-4.121-46.761-.453-2.423-2.976-4.946-5.398-5.397-.238-.045-23.984-4.414-46.71-4.122"
         id="path8" />
    </clipPath>
    <linearGradient
       gradientUnits="userSpaceOnUse"
       y2="-8.868"
       x2="68.07"
       y1="157.34"
       x1="72.03"
       id="0"
       gradientTransform="matrix(0.35406,0,0,0.36664434,-0.081,0.16397324)">
      <stop
         stop-color="#ff9300"
         id="stop11" />
      <stop
         offset="1"
         stop-color="#ffd702"
         id="stop13" />
    </linearGradient>
  </defs>
  <path
     d="m 47.993267,18.664847 c 0,-0.736955 -0.538171,-1.194894 -1.61593,-1.374183 L 31.897345,15.11023 25.407071,1.5187241 C 25.042035,0.70220714 24.570428,0.29413198 23.993664,0.29413198 c -0.576764,0 -1.048018,0.40807516 -1.413408,1.22459212 L 16.089628,15.11023 1.6089284,17.290664 c -1.07669648,0.179289 -1.61522174,0.637228 -1.61522174,1.374183 0,0.418342 0.24040674,0.896446 0.72122022,1.433946 L 11.21493,30.673183 8.7329696,45.608807 c -0.038593,0.279016 -0.057712,0.478471 -0.057712,0.59763 0,0.418341 0.1009071,0.77142 0.3027213,1.060702 0.2018142,0.288917 0.5045355,0.433007 0.9085179,0.433007 0.3462712,0 0.7307802,-0.118792 1.1538822,-0.358211 l 12.951514,-7.050204 12.952577,7.050204 c 0.404337,0.239052 0.788846,0.358211 1.153528,0.358211 0.385571,0 0.678379,-0.143724 0.880193,-0.433007 0.20146,-0.288915 0.302367,-0.642361 0.302367,-1.060702 0,-0.25885 -0.0096,-0.457939 -0.02903,-0.59763 l -2.48196,-14.935624 10.47097,-10.57439 c 0.500641,-0.517701 0.750253,-0.995805 0.750253,-1.433946"
     id="path15"
     style="fill:#ffcc00"
     inkscape:connector-curvature="0" />
</svg>
