<?xml version="1.0" encoding="UTF-8" standalone="no"?>
<svg
   xmlns:dc="http://purl.org/dc/elements/1.1/"
   xmlns:cc="http://creativecommons.org/ns#"
   xmlns:rdf="http://www.w3.org/1999/02/22-rdf-syntax-ns#"
   xmlns:svg="http://www.w3.org/2000/svg"
   xmlns="http://www.w3.org/2000/svg"
   xmlns:sodipodi="http://sodipodi.sourceforge.net/DTD/sodipodi-0.dtd"
   xmlns:inkscape="http://www.inkscape.org/namespaces/inkscape"
   viewBox="0 0 48 48"
   id="svg2"
   version="1.1"
   inkscape:version="0.91 r13725"
   sodipodi:docname="preferences-desktop-gaming.svg">
  <metadata
     id="metadata29">
    <rdf:RDF>
      <cc:Work
         rdf:about="">
        <dc:format>image/svg+xml</dc:format>
        <dc:type
           rdf:resource="http://purl.org/dc/dcmitype/StillImage" />
        <dc:title></dc:title>
      </cc:Work>
    </rdf:RDF>
  </metadata>
  <sodipodi:namedview
     pagecolor="#ffffff"
     bordercolor="#666666"
     borderopacity="1"
     objecttolerance="10"
     gridtolerance="10"
     guidetolerance="10"
     inkscape:pageopacity="0"
     inkscape:pageshadow="2"
     inkscape:window-width="1280"
     inkscape:window-height="694"
     id="namedview27"
     showgrid="false"
     inkscape:zoom="4.9166667"
     inkscape:cx="-45.661017"
     inkscape:cy="24"
     inkscape:window-x="0"
     inkscape:window-y="0"
     inkscape:window-maximized="1"
     inkscape:current-layer="svg2" />
  <defs
     id="defs4">
    <linearGradient
       y2="518.77"
       x2="455.78"
       y1="547.95"
       x1="455.55"
       gradientUnits="userSpaceOnUse"
       id="0"
       gradientTransform="matrix(1.6551784,0,0,1.6551784,-730.02402,-858.95665)">
      <stop
         stop-color="#69159f"
         id="stop7" />
      <stop
         offset="1"
         stop-color="#b92ff5"
         id="stop9" />
    </linearGradient>
  </defs>
  <g
     style="fill:#ff2a2a;fill-opacity:1"
     id="g15"
     transform="matrix(0.08610521,0,0,0.11993515,0.37348306,-9.0246011)">
    <path
       inkscape:connector-curvature="0"
       id="path17"
       d="m 541.95,272.34 c -12.381,0 -24.646,0 -37.22,0 -3.379,0 -9.01,-0.202 -9.01,-3.58 0,-12.583 0,-24.958 0,-37.565 0,-3.378 0.158,-7.815 -3.221,-7.815 -12.594,0 -24.883,0 -37.39,0 -3.385,0 -8.354,-1.047 -8.354,-4.425 0,-12.503 0,-24.786 0,-37.36 0,-3.384 -0.502,-7.172 -3.881,-7.172 -12.562,0 -24.889,0 -37.28,0 -3.379,0 -7.797,-1.702 -7.797,-5.08 0,-12.754 0,-25.17 0,-37.546 0,-3.378 -1.898,-6.089 -5.275,-6.06 -12.211,0.098 -24.719,0.11 -37.39,0.11 -3.377,0 -6.285,2.742 -6.285,6.12 0,12.668 0,24.976 0,37.22 -0.006,3.39 -1.561,5.239 -4.945,5.239 -45.941,0 -91.37,0 -137.3,0 -3.378,0 -4.639,-1.849 -4.639,-5.227 0,-12.442 0,-24.762 0,-37.25 0,-3.378 -3.476,-6.12 -6.854,-6.12 -12.552,0 -24.333,-0.012 -36.42,-0.11 -3.391,-0.024 -5.686,2.687 -5.686,6.07 0,12.491 0,25.03 0,37.895 0,3.385 -4.352,4.75 -7.736,4.75 -12.625,0 -25.01,0 -37.589,0 -3.378,0 -3.635,4.106 -3.635,7.484 0,12.589 0,24.884 0,37.412 0,3.384 -5.227,4.064 -8.605,4.064 -12.577,0 -24.939,0 -37.46,0 -3.378,0 -9.02,4.792 -9.02,8.176 0,12.546 0,24.859 0,37.46 0,3.378 0.153,3.323 -3.225,3.323 -12.436,0 -24.688,0 -36.885,0 -3.378,0 -8.85,5.532 -8.85,8.91 0,45.606 0,90.67 0,135.73 0,3.385 5.471,8.36 8.85,8.36 12.289,0 24.461,0 36.867,0 3.378,0 3.244,-4.988 3.244,-8.366 0,-28.966 0,-57.632 0,-86.38 0,-3.385 5.618,-3.17 8.997,-3.17 12.656,0 25.1,0 37.833,0 3.378,0 8.25,-0.208 8.25,3.17 0,29.02 0,57.84 0,86.94 0,3.378 1.67,6.114 5.06,6.114 12.558,0 25.24,0.018 37.33,0.109 3.378,0.031 6.573,-2.68 6.573,-6.06 0,-12.423 0,-24.853 0,-37.32 0,-3.379 0.759,-3.984 4.143,-3.984 79.12,0 157.75,0 236.54,0 3.379,0 6.119,1.677 6.119,5.06 0,12.559 -0.018,25.23 -0.115,37.455 -0.025,3.384 2.68,6.45 6.06,6.45 12.312,0 24.664,0 37.27,0 3.371,0 3.738,-4.468 3.738,-7.846 0,-29.24 0,-57.957 0,-86.82 0,-3.379 5.117,-3.256 8.5,-3.256 12.762,0 25.295,0 38.04,0 3.377,0 8.543,-0.123 8.543,3.256 0,28.953 0,57.63 0,86.3 0,3.378 0.324,8.366 3.703,8.366 12.338,0 24.418,0 36.4,0 3.379,0 8.857,-4.981 8.857,-8.36 0,-45.42 0,-90.51 0,-135.98 0.002,-3.383 -5.471,-8.659 -8.848,-8.659 m -339.99,-3.862 c 0,3.379 -3.831,3.862 -7.209,3.862 -12.405,0 -24.811,0 -37.39,0 -3.384,0 -4.363,-0.478 -4.363,-3.855 0,-12.356 0,-24.701 0,-37.33 0,-3.378 0.985,-7.778 4.37,-7.778 12.546,0 24.896,0 37.37,0 3.378,0 7.215,4.4 7.215,7.785 -1e-4,12.441 -1e-4,24.785 -1e-4,37.31 m 195.84,0.099 c 0,3.378 -1.023,3.764 -4.4,3.764 -12.369,0 -24.713,0 -37.32,0 -3.385,0 -7.24,-0.386 -7.24,-3.771 0,-12.509 0,-24.853 0,-37.34 0,-3.372 3.861,-7.846 7.24,-7.846 12.453,0 24.791,0 37.32,0 3.377,0 4.4,4.467 4.4,7.846 0,12.393 0,24.792 0,37.35"
       style="fill:#ff2a2a;fill-opacity:1" />
    <path
       inkscape:connector-curvature="0"
       id="path19"
       d="m 244.34,424.07 c -9.21,0.006 -18.5,0.018 -27.558,-0.007 -19.805,-0.061 -39.725,-0.146 -59.53,-0.227 -3.378,-0.012 -6.151,2.718 -6.12,6.103 0.098,12.239 0.08,25.27 0.085,37.521 0,3.378 2.711,6.842 6.09,6.842 29.425,0 58.01,0 86.57,0 3.378,-0.006 7.04,-4.204 7.04,-7.582 0,-12.204 0,-24.26 0,-36.524 0,-3.385 -3.201,-6.133 -6.579,-6.126"
       style="fill:#ff2a2a;fill-opacity:1" />
    <path
       inkscape:connector-curvature="0"
       id="path21"
       d="m 395.84,423.94 c -0.949,0.073 -1.463,0.753 -2.43,0.753 -29.14,0.018 -57.816,0.648 -86.953,0.648 -0.93,0 -1.861,0 -2.773,0 -1.529,0 -3.799,1.469 -3.799,4.847 0,12.491 0,24.566 0,36.616 0,3.378 3.77,7.497 7.154,7.497 28.793,0 57.37,0 86.49,0 3.379,0 4.279,-4.125 4.279,-7.503 0,-12.454 0,-24.768 0,-37.06 1e-4,-3.378 -0.366,-5.918 -1.964,-5.795"
       style="fill:#ff2a2a;fill-opacity:1" />
    <path
       inkscape:connector-curvature="0"
       id="path23"
       d="m 108.21,125.46 c 12.454,0 24.761,0 37.06,0 3.378,0 6.083,-2.644 6.06,-6.02 -0.098,-12.24 -0.11,-24.56 -0.116,-36.806 0,-3.378 -2.742,-6.126 -6.126,-6.126 -12.687,0 -24.811,0 -36.873,0 -3.378,-0.006 -4.174,2.846 -4.174,6.23 0,12.24 0,24.352 0,36.806 -1e-4,3.377 0.794,5.918 4.173,5.918"
       style="fill:#ff2a2a;fill-opacity:1" />
    <path
       inkscape:connector-curvature="0"
       id="path25"
       d="m 404.84,125.79 c 12.24,-0.098 24.05,-0.11 36.3,-0.116 3.383,0 5.617,-2.748 5.617,-6.126 0,-12.693 0,-24.816 0,-36.885 0,-3.378 -0.82,-6.163 -4.197,-6.163 -12.229,0 -24.34,0 -36.795,0 -3.377,0 -7.967,2.796 -7.967,6.175 0,12.454 0,24.768 0,37.06 0,3.378 3.664,6.083 7.04,6.05"
       style="fill:#ff2a2a;fill-opacity:1" />
  </g>
</svg>
