<?xml version="1.0" encoding="UTF-8" standalone="no"?>
<svg
   xmlns:dc="http://purl.org/dc/elements/1.1/"
   xmlns:cc="http://creativecommons.org/ns#"
   xmlns:rdf="http://www.w3.org/1999/02/22-rdf-syntax-ns#"
   xmlns:svg="http://www.w3.org/2000/svg"
   xmlns="http://www.w3.org/2000/svg"
   xmlns:sodipodi="http://sodipodi.sourceforge.net/DTD/sodipodi-0.dtd"
   xmlns:inkscape="http://www.inkscape.org/namespaces/inkscape"
   viewBox="0 0 48 48"
   id="svg2"
   version="1.1"
   inkscape:version="0.91 r13725"
   sodipodi:docname="ptbatcher.svg">
  <metadata
     id="metadata32">
    <rdf:RDF>
      <cc:Work
         rdf:about="">
        <dc:format>image/svg+xml</dc:format>
        <dc:type
           rdf:resource="http://purl.org/dc/dcmitype/StillImage" />
        <dc:title></dc:title>
      </cc:Work>
    </rdf:RDF>
  </metadata>
  <sodipodi:namedview
     pagecolor="#ffffff"
     bordercolor="#666666"
     borderopacity="1"
     objecttolerance="10"
     gridtolerance="10"
     guidetolerance="10"
     inkscape:pageopacity="0"
     inkscape:pageshadow="2"
     inkscape:window-width="1280"
     inkscape:window-height="694"
     id="namedview30"
     showgrid="false"
     inkscape:zoom="4.9166667"
     inkscape:cx="-18.093872"
     inkscape:cy="24"
     inkscape:window-x="0"
     inkscape:window-y="0"
     inkscape:window-maximized="1"
     inkscape:current-layer="svg2" />
  <defs
     id="defs4">
    <clipPath
       id="clipPath6">
      <path
         transform="matrix(15.33333 0 0 11.5 415-125.5)"
         d="m-24 13c0 1.105-.672 2-1.5 2-.828 0-1.5-.895-1.5-2 0-1.105.672-2 1.5-2 .828 0 1.5.895 1.5 2"
         fill="#1890d0"
         id="path8" />
    </clipPath>
    <linearGradient
       y1="545.8"
       x2="0"
       y2="517.8"
       gradientUnits="userSpaceOnUse"
       id="linearGradient10">
      <stop
         stop-color="#3889e9"
         id="stop12" />
      <stop
         offset="1"
         stop-color="#5ea5fb"
         id="stop14" />
    </linearGradient>
    <linearGradient
       id="1"
       gradientUnits="userSpaceOnUse"
       y1="653.96"
       x2="0"
       y2="301.3">
      <stop
         stop-color="#4965b6"
         id="stop17" />
      <stop
         offset="1"
         stop-color="#8d9dcc"
         id="stop19" />
    </linearGradient>
    <linearGradient
       id="0"
       y1="653.96"
       x2="0"
       y2="301.3"
       gradientUnits="userSpaceOnUse">
      <stop
         stop-color="#0a80fd"
         id="stop22" />
      <stop
         offset="1"
         stop-color="#56c5fa"
         id="stop24" />
    </linearGradient>
  </defs>
  <g
     id="g3"
     transform="matrix(1.5184166,0,0,1.9622415,0.40676584,-6.6495717)"
     style="fill:#ff6600">
    <g
       id="g5"
       style="fill:#ff6600">
      <path
         d="M 23.724,27.417 21.306,25.604 C 21.03,25.397 20.524,25.227 20.177,25.227 l -3.251,0 0,0.422 c 0,0.69 -0.562,1.254 -1.254,1.254 -0.691,0 -1.254,-0.563 -1.254,-1.254 l 0,-0.422 -3.251,0 c -0.346,0 -0.853,0.17 -1.13,0.377 L 7.62,27.417 c -0.277,0.206 -0.222,0.375 0.124,0.375 l 15.855,0 c 0.346,0 0.402,-0.168 0.125,-0.375 z"
         id="path7"
         inkscape:connector-curvature="0"
         style="fill:#ff6600" />
      <path
         d="m 30.089,3.551 -28.834,0 C 0.566,3.551 0,4.115 0,4.805 l 0,16.299 c 0,0.688 0.565,1.254 1.255,1.254 l 13.79,0 0,3.291 c 0,0.346 0.281,0.625 0.627,0.625 0.346,0 0.627,-0.279 0.627,-0.625 l 0,-3.291 13.79,0 c 0.688,0 1.255,-0.565 1.255,-1.254 l 0,-16.299 c 0,-0.69 -0.567,-1.254 -1.255,-1.254 z M 20.537,9.539 20.759,9.647 20.974,9.525 20.94,9.769 21.124,9.935 20.88,9.979 20.777,10.205 20.66,9.986 20.416,9.958 20.588,9.78 20.537,9.539 Z m -0.004,2.973 -0.117,-0.575 0.529,0.256 0.509,-0.291 -0.08,0.582 0.433,0.397 -0.578,0.103 -0.242,0.535 L 20.711,13 20.127,12.933 20.533,12.512 Z m -1.984,-2.201 0.363,0.176 0.351,-0.198 -0.057,0.399 0.297,0.271 -0.396,0.07 -0.166,0.366 -0.189,-0.354 -0.4,-0.046 0.28,-0.29 -0.083,-0.394 z M 11.774,8.07 11.996,8.179 12.211,8.055 12.178,8.3 12.36,8.467 12.117,8.511 12.014,8.736 11.898,8.518 11.652,8.489 11.825,8.312 11.774,8.07 Z m -2.245,3.16 0.211,-0.417 0.202,0.421 0.462,0.071 -0.337,0.323 0.075,0.46 L 9.73,11.867 9.314,12.081 9.399,11.622 9.066,11.292 9.529,11.23 Z m 6.387,7.007 c -0.09,0 -0.176,-0.01 -0.259,-0.025 -0.272,0.577 -0.855,0.979 -1.535,0.979 -0.463,0 -0.881,-0.184 -1.189,-0.483 -0.269,0.18 -0.59,0.284 -0.938,0.284 -0.567,0 -1.066,-0.28 -1.377,-0.707 -0.178,0.062 -0.367,0.104 -0.567,0.104 -0.942,0 -1.705,-0.764 -1.705,-1.703 0,-0.901 0.701,-1.633 1.586,-1.694 0.17,-0.764 0.849,-1.336 1.663,-1.336 0.546,0 1.025,0.263 1.338,0.66 0.332,-0.276 0.753,-0.447 1.219,-0.447 0.976,0 1.772,0.732 1.891,1.676 0.688,0.064 1.229,0.637 1.229,1.341 -0.002,0.746 -0.609,1.351 -1.356,1.351 z m 4.859,-0.205 c -1.389,0.801 -2.957,0.986 -4.403,0.652 0.807,-0.205 1.405,-0.932 1.405,-1.801 0,-0.83 -0.539,-1.535 -1.305,-1.771 -0.294,-1.023 -1.234,-1.754 -2.321,-1.754 -0.407,0 -0.799,0.101 -1.152,0.298 -0.375,-0.313 -0.838,-0.487 -1.329,-0.504 -0.143,-2.233 0.953,-4.46 3.022,-5.655 0.961,-0.557 2.01,-0.813 3.043,-0.811 -1.047,1.819 -1.127,4.128 -0.002,6.077 1.125,1.948 3.166,3.033 5.266,3.036 -0.517,0.897 -1.265,1.678 -2.224,2.233 z"
         id="path9"
         inkscape:connector-curvature="0"
         style="fill:#ff6600" />
    </g>
  </g>
</svg>
