<?xml version="1.0" encoding="UTF-8" standalone="no"?>
<svg
   xmlns:dc="http://purl.org/dc/elements/1.1/"
   xmlns:cc="http://creativecommons.org/ns#"
   xmlns:rdf="http://www.w3.org/1999/02/22-rdf-syntax-ns#"
   xmlns:svg="http://www.w3.org/2000/svg"
   xmlns="http://www.w3.org/2000/svg"
   xmlns:sodipodi="http://sodipodi.sourceforge.net/DTD/sodipodi-0.dtd"
   xmlns:inkscape="http://www.inkscape.org/namespaces/inkscape"
   viewBox="0 0 48 48"
   id="svg2"
   version="1.1"
   inkscape:version="0.91 r13725"
   sodipodi:docname="qdbusviewer-qt5.svg">
  <metadata
     id="metadata19">
    <rdf:RDF>
      <cc:Work
         rdf:about="">
        <dc:format>image/svg+xml</dc:format>
        <dc:type
           rdf:resource="http://purl.org/dc/dcmitype/StillImage" />
        <dc:title></dc:title>
      </cc:Work>
    </rdf:RDF>
  </metadata>
  <sodipodi:namedview
     pagecolor="#ffffff"
     bordercolor="#666666"
     borderopacity="1"
     objecttolerance="10"
     gridtolerance="10"
     guidetolerance="10"
     inkscape:pageopacity="0"
     inkscape:pageshadow="2"
     inkscape:window-width="1280"
     inkscape:window-height="694"
     id="namedview17"
     showgrid="false"
     inkscape:zoom="4.9166667"
     inkscape:cx="-9.1525424"
     inkscape:cy="24"
     inkscape:window-x="0"
     inkscape:window-y="0"
     inkscape:window-maximized="1"
     inkscape:current-layer="svg2" />
  <defs
     id="defs4">
    <linearGradient
       y2="-7.875"
       x2="0"
       y1="20.13"
       gradientUnits="userSpaceOnUse"
       id="0"
       gradientTransform="matrix(1.71427,0,0,1.71427,-49.21,13.512)">
      <stop
         stop-color="#139702"
         id="stop7" />
      <stop
         offset="1"
         stop-color="#80e950"
         id="stop9" />
    </linearGradient>
  </defs>
  <path
     style="fill:#00aa00;fill-opacity:1;fill-rule:evenodd;stroke-width:1.31700003"
     inkscape:connector-curvature="0"
     id="path15"
     d="m 47.883787,21.451406 c -0.07612,-0.67285 -0.859533,-1.178715 -1.537339,-1.178715 -2.193042,0 -4.135591,-1.286765 -4.960745,-3.278302 -0.832522,-2.038195 -0.297154,-4.415273 1.338418,-5.913222 0.513265,-0.469031 0.577117,-1.2572978 0.144894,-1.8024537 C 41.746708,7.8544331 40.472139,6.567668 39.079692,5.4528005 38.534502,5.0156937 37.733905,5.077084 37.262391,5.6001397 35.835562,7.1791277 33.276602,7.766029 31.297216,6.9409278 29.236787,6.0740812 27.940117,3.9892285 28.065363,1.7496693 28.107113,1.0473515 27.593848,0.43343721 26.891484,0.35240054 25.106107,0.14612532 23.303539,0.13875836 21.510795,0.33766648 20.818255,0.41379133 20.302534,1.0105165 20.327091,1.7054675 20.405683,3.9229258 19.091817,5.9733995 17.051034,6.8083232 15.096206,7.606412 12.551982,7.0244213 11.130065,5.4601677 10.661005,4.9444793 9.8726878,4.8806323 9.3250415,5.3079167 7.8908453,6.4326066 6.5868082,7.7193716 5.4546782,9.1338294 5.012631,9.6838973 5.0789376,10.479529 5.5971188,10.951016 c 1.6650424,1.507773 2.2028655,3.904495 1.3384189,5.967246 -0.8251528,1.966983 -2.8659357,3.231646 -5.203871,3.231646 -0.75884667,-0.0025 -1.2991259,0.483764 -1.38262363,1.173804 -0.21120004,1.79754 -0.21365589,3.627006 -0.009828,5.43928 0.0761298,0.675305 0.88409328,1.17626 1.56926558,1.17626 2.0825309,-0.05402 4.0815634,1.235195 4.9116298,3.278303 0.8349759,2.038195 0.2996096,4.41527 -1.3384202,5.913221 -0.5108093,0.46903 -0.5771159,1.254841 -0.1448917,1.802452 1.1124836,1.414458 2.3870512,2.703678 3.7844104,3.82837 0.5476463,0.442018 1.3457867,0.37817 1.8197587,-0.144884 1.431739,-1.583899 3.990697,-2.168344 5.962717,-1.340788 2.06534,0.864391 3.362011,2.949243 3.236765,5.191257 -0.04174,0.704775 0.476426,1.316233 1.173879,1.397269 0.913563,0.105583 1.834494,0.159618 2.755424,0.159618 0.87427,0 1.750996,-0.04911 2.625266,-0.144883 0.692539,-0.07612 1.208261,-0.672849 1.183702,-1.370256 -0.08104,-2.217459 1.235276,-4.265477 3.271146,-5.100401 1.967108,-0.802999 4.501508,-0.216097 5.923425,1.348156 0.473973,0.513232 1.254922,0.57708 1.805024,0.149795 1.43174,-1.122236 2.730865,-2.408999 3.870364,-3.825914 0.442046,-0.547611 0.378195,-1.3457 -0.14244,-1.817186 -1.665042,-1.507772 -2.205321,-3.904495 -1.340875,-5.967247 0.812874,-1.939968 2.777525,-3.241466 4.891982,-3.241466 l 0.294698,0.0073 c 0.685173,0.05649 1.316317,-0.471487 1.399815,-1.171349 0.211199,-1.797541 0.213655,-3.627006 0.0099,-5.43928 m -23.73063,10.684646 c -4.398365,0 -7.978942,-3.577892 -7.978942,-7.97843 0,-4.398081 3.578122,-7.97843 7.978942,-7.97843 4.398363,0 7.976486,3.577892 7.976486,7.97843 0,4.398082 -3.578123,7.97843 -7.976486,7.97843" />
  <path
     style="fill:#2aff2a;fill-opacity:1;fill-rule:evenodd;stroke-width:1.31700003"
     inkscape:connector-curvature="0"
     id="path15-3"
     d="m 47.846823,34.359751 c -0.03857,-0.338098 -0.435497,-0.592288 -0.778917,-0.592288 -1.111141,0 -2.095364,-0.646582 -2.513442,-1.647303 -0.42181,-1.024166 -0.150557,-2.218616 0.678131,-2.971315 0.260055,-0.235682 0.292406,-0.631776 0.07341,-0.90571 -0.568634,-0.715681 -1.214415,-1.362263 -1.91992,-1.92247 -0.27623,-0.21964 -0.681865,-0.188792 -0.920765,0.07403 -0.722926,0.79342 -2.019464,1.088331 -3.022351,0.673729 -1.043949,-0.435579 -1.700928,-1.48319 -1.63747,-2.608538 0.02115,-0.352906 -0.2389,-0.661389 -0.594765,-0.70211 -0.904589,-0.10365 -1.817889,-0.107352 -2.726211,-0.0074 -0.350887,0.03824 -0.612185,0.338098 -0.599743,0.687302 0.03982,1.114243 -0.625871,2.144579 -1.659866,2.564118 -0.990445,0.401028 -2.279517,0.108586 -2.999954,-0.677432 -0.237656,-0.259125 -0.637069,-0.291207 -0.914543,-0.0765 -0.726658,0.565141 -1.38737,1.211723 -1.960981,1.92247 -0.22397,0.276402 -0.190375,0.676196 0.07217,0.913112 0.843619,0.757636 1.116116,1.961957 0.678131,2.998462 -0.418077,0.988382 -1.452072,1.623859 -2.636625,1.623859 -0.384481,-0.0013 -0.658222,0.243084 -0.700527,0.589821 -0.107009,0.903239 -0.108253,1.822521 -0.0049,2.733165 0.03858,0.339332 0.447939,0.591055 0.795093,0.591055 1.055147,-0.02714 2.067989,0.620669 2.488556,1.647303 0.423053,1.024166 0.151802,2.218614 -0.678132,2.971315 -0.258809,0.235681 -0.292405,0.630541 -0.07341,0.905708 0.563658,0.710746 1.209438,1.358562 1.917432,1.923705 0.277474,0.222108 0.681864,0.190026 0.92201,-0.07281 0.725413,-0.795888 2.021949,-1.089564 3.021104,-0.673728 1.046439,0.434345 1.703417,1.481955 1.639959,2.608537 -0.02115,0.354141 0.241389,0.661389 0.594765,0.702109 0.462871,0.05305 0.929475,0.0802 1.396079,0.0802 0.442963,0 0.88717,-0.02468 1.330133,-0.07281 0.350886,-0.03824 0.612184,-0.338097 0.599741,-0.688535 -0.04106,-1.114243 0.625873,-2.143346 1.657378,-2.562883 0.996668,-0.403496 2.280761,-0.108586 3.001198,0.67743 0.240146,0.257892 0.635827,0.289975 0.914545,0.07527 0.725414,-0.563909 1.383636,-1.210489 1.960982,-1.922471 0.223969,-0.275167 0.191618,-0.676196 -0.07217,-0.913112 -0.843621,-0.757635 -1.117362,-1.961956 -0.679376,-2.998462 0.411855,-0.974808 1.407277,-1.628793 2.4786,-1.628793 l 0.149314,0.0037 c 0.347153,0.02839 0.666933,-0.236916 0.709238,-0.588587 0.107007,-0.903241 0.108252,-1.822522 0.005,-2.733165 m -12.023545,5.368885 c -2.228501,0 -4.042658,-1.797843 -4.042658,-4.009054 0,-2.209977 1.812913,-4.009055 4.042658,-4.009055 2.228501,0 4.041413,1.797843 4.041413,4.009055 0,2.209977 -1.812912,4.009054 -4.041413,4.009054" />
</svg>
