<?xml version="1.0" encoding="UTF-8" standalone="no"?>
<svg
   xmlns:dc="http://purl.org/dc/elements/1.1/"
   xmlns:cc="http://creativecommons.org/ns#"
   xmlns:rdf="http://www.w3.org/1999/02/22-rdf-syntax-ns#"
   xmlns:svg="http://www.w3.org/2000/svg"
   xmlns="http://www.w3.org/2000/svg"
   xmlns:sodipodi="http://sodipodi.sourceforge.net/DTD/sodipodi-0.dtd"
   xmlns:inkscape="http://www.inkscape.org/namespaces/inkscape"
   viewBox="0 0 48 48"
   id="svg2"
   version="1.1"
   inkscape:version="0.91 r13725"
   sodipodi:docname="qgis.svg">
  <metadata
     id="metadata28">
    <rdf:RDF>
      <cc:Work
         rdf:about="">
        <dc:format>image/svg+xml</dc:format>
        <dc:type
           rdf:resource="http://purl.org/dc/dcmitype/StillImage" />
        <dc:title></dc:title>
      </cc:Work>
    </rdf:RDF>
  </metadata>
  <sodipodi:namedview
     pagecolor="#ffffff"
     bordercolor="#666666"
     borderopacity="1"
     objecttolerance="10"
     gridtolerance="10"
     guidetolerance="10"
     inkscape:pageopacity="0"
     inkscape:pageshadow="2"
     inkscape:window-width="1280"
     inkscape:window-height="694"
     id="namedview26"
     showgrid="false"
     inkscape:zoom="4.9166667"
     inkscape:cx="-9.1525424"
     inkscape:cy="24"
     inkscape:window-x="0"
     inkscape:window-y="0"
     inkscape:window-maximized="1"
     inkscape:current-layer="svg2" />
  <defs
     id="defs4">
    <linearGradient
       id="0"
       x1="25.432"
       y1="48.41"
       x2="24.805"
       y2=".407"
       gradientUnits="userSpaceOnUse"
       gradientTransform="matrix(1.0078,0,0,1.0078,0,-0.376)">
      <stop
         stop-color="#566069"
         id="stop7" />
      <stop
         stop-color="#6c7884"
         offset="1"
         id="stop9" />
    </linearGradient>
    <linearGradient
       id="1"
       x1="12.864"
       y1="47.43"
       x2="12.465"
       y2="23.631"
       gradientUnits="userSpaceOnUse"
       gradientTransform="matrix(1.0078,0,0,1.0078,0,-0.376)">
      <stop
         stop-color="#54b60f"
         id="stop12" />
      <stop
         stop-color="#92dc41"
         offset="1"
         id="stop14" />
    </linearGradient>
  </defs>
  <path
     style="fill:#00aa00;fill-opacity:0.85100002"
     inkscape:connector-curvature="0"
     id="path20"
     d="m 5.4737823,5.527015 0.5140527,-0.3989787 3.0784455,0 1.1147615,0.7226783 -0.06756,1.124883 0.939983,0.6323435 -0.781361,0.4097328 0.174779,1.4786942 -2.7905765,2.4766789 0,2.32612 1.4951614,0.530179 0,2.088454 1.4496301,1.794866 1.155886,0.127974 0.148341,-0.617286 -1.367383,-1.553975 -0.271713,-1.513107 0.812204,0 0.343681,1.558276 1.994527,2.130394 -0.534616,0.680737 1.27926,1.426 3.156286,0.572119 0,-0.376394 1.258696,0.131201 -0.113096,0.662455 c 1.110354,0.131199 0.77108,0.0785 2.518861,0.432316 l 2.159023,1.802393 2.755327,0.153785 0.267306,1.648609 -1.891715,0.9711 -0.09253,1.463638 -0.261434,0.903348 2.724484,2.499263 0.210027,0.858179 c 0,0 0.991388,0.195725 1.100073,0.195725 0.117493,0 2.225118,1.174352 2.225118,1.174352 l 0,4.508136 0.750516,0.161313 -0.524333,2.070171 1.264571,1.222747 -0.226184,2.07017 1.659658,2.14115 2.138461,1.36255 2.138462,0.03441 0.215904,-0.504369 -1.573003,-0.974325 c 0.117491,-0.594704 0.03672,-0.368867 0.380398,-1.086169 l 0.0617,-0.590401 -1.073639,-0.02689 -0.549302,-0.489313 0.888579,-0.628043 0.12337,-0.466729 -0.991388,-0.203253 0.05581,-0.444147 1.408506,-0.153783 2.142867,-0.748489 c 0.960546,-1.290496 1.433475,-1.636779 2.971229,-3.074608 l -0.514053,-1.644307 0.688832,-0.876463 2.066493,0.03764 1.387944,-0.793656 0.452367,-3.1843 1.54216,-1.445358 0.27759,-0.914102 L 45.928312,29.0689 45.003016,27.954771 41.82176,27.928959 39.3029,27.225637 39.185409,25.905029 38.34236,24.832841 36.080526,24.81026 34.760143,23.293926 33.588101,22.88742 l -0.06167,0.451674 -2.122307,0.09787 -0.781361,-0.790429 -2.225116,-0.331228 -1.83003,1.538918 -2.872823,-0.353812 -0.210028,-2.374513 -2.101743,-0.263477 0.843046,-1.170051 -0.24087,-0.658152 -2.749451,1.350719 -1.731637,-0.153784 -0.631551,-1.001211 c 0.472928,-1.260385 0.189466,-0.763543 1.34682,-2.318592 l 2.200147,-0.820541 4.256362,0 -0.01028,0.948516 1.531879,0.526952 -0.123372,-1.621724 c 1.172042,-0.861407 0.81661,-0.67321 3.325191,-1.881975 l 0.143935,-0.748488 2.225116,-1.693777 2.364645,-0.951742 -0.210027,-0.123673 1.593564,-1.1022984 0.590428,0.112918 0.271713,0.2484203 0.606584,-0.4968404 0.138056,-0.052696 C 36.321399,9.1758983 36.609268,9.228594 35.797064,9.0253405 l 0,-0.4774838 0.353963,-0.2140073 0.791641,0 0.364244,0.1161446 0.308431,0.4592019 0.3804,-0.040866 0,-0.02581 0.113097,0.022584 1.100073,-0.1279743 0.154217,-0.3946769 0.616863,0.1129186 0,0.4247884 -0.580146,0.2968144 0.08665,0.474258 2.009213,0.4516727 c 0,0 0.0044,0.0075 0.0044,0.01506 l 0.456774,-0.02581 0.03084,-0.6323439 -1.58769,-0.5301791 -0.09253,-0.31187 1.315976,-0.3312276 0.05581,-0.914102 -1.371787,-0.6172876 -0.09253,-1.5539732 -1.901999,0.6775108 -0.688831,0 0.185059,-1.1851063 -2.559985,-0.4473722 -1.06923,0.587176 0,1.802394 -1.91228,0.436618 -0.77108,1.1743521 -0.82689,0.093561 0,-1.49375 L 28.876424,6.6583563 27.977566,6.2335677 27.613323,5.2667705 30.831297,3.8859389 32.4043,3.5364293 l 0.154215,0.771072 0.884172,-0.030111 0.07197,-0.3914507 0.915016,-0.093561 0.01028,-0.1312005 -0.384806,-0.1204464 -0.09253,-0.4097327 1.125042,-0.070978 0.67855,-0.5194249 0.0514,-0.037639 0,0.00431 0.210028,-0.1580857 2.369051,-0.2183092 1.042795,0.6506255 -2.755325,1.0721878 3.499968,0.6022319 0.446492,-0.8581804 1.536286,0 0.534614,-0.7452619 -1.073637,-0.1957254 0,-0.9409873 L 38.241005,0.61668454 35.902797,0.81240987 34.576538,1.316779 34.679341,2.5470526 33.297272,2.3932684 33.087244,1.7157576 34.392941,0.83929526 32.007733,0.74896004 31.318902,0.89521627 31.010469,1.4899203 l 0.904735,0.1129184 -0.185059,0.6581535 -1.521598,0.067751 -0.24087,0.4323164 -2.230993,0.045168 c 0,0 -0.0514,-0.9216299 -0.138056,-0.9216299 -0.09253,0 1.737499,-0.018282 1.737499,-0.018282 L 30.656518,0.92209204 29.936844,0.65538939 28.976298,1.3404281 27.382733,1.2769788 26.43247,0.31018151 l -2.040058,0 -2.132587,1.16682419 1.953404,0 0.179183,0.4172607 -0.514053,0.3495095 2.159023,0.045167 0.333401,0.5721203 L 23.940046,2.7900863 23.822553,2.3502419 22.296549,2.106123 21.484346,1.7824233 17.885972,1.8082332 16.781491,2.5943609 16.026568,2.5491943 15.189395,2.1921567 12.701377,1.650148 l -4.5545121,0 -2.6363594,1.3130806 -1.7683431,0.1989517 -0.8122045,0.4624279 1.2586961,0.1355023 0,0.3688669 -2.6877642,0 L 0.44781484,4.678514 1.7946344,5.5141107 5.479662,5.536695 m 22.718219,6.578308 -1.145604,0 0.179184,-0.57212 0.539021,-0.04194 0.123371,-0.195725 0.822485,-0.08281 0,0.511897 0.0044,0 -0.524334,0.379621 m 0.797516,-1.415245 -0.539021,0.255949 -0.67855,0.08603 c 0,0 0,-0.782902 0,-0.865708 l 1.217571,0 0,0.522651 m 1.022233,-0.605459 0.555177,0.248421 -0.446491,0.266703 -0.425931,-0.266703 0.318714,-0.248421 m -0.729956,0.654928 0.08665,0 1.377661,0.293588 0,0.515123 -1.155885,0 -0.30843,-0.331227 c 0,0 0,-0.477484 0,-0.477484 m -0.894454,-1.4152452 0.744643,0.4968408 -0.744643,0.1312013 0,-0.6280421 m -3.156288,0.082806 1.038389,-0.3118699 1.423193,0 0,0.3118699 0.308431,0 0,0.5452348 -2.169304,0 -0.801923,-0.1613117 0.199746,-0.3839231 m -0.195341,1.4152451 0.822486,-0.654927 1.192604,0 -1.526004,1.561501 -0.637426,-0.248421 0.14834,-0.658153 m -1.10448,-3.7187819 0.847455,0.1430302 -0.292276,0.8431245 -0.915016,0.2183091 -0.57574,-0.8764625 0.935577,-0.3269258 m -4.266643,-3.9822581 0,-0.048394 0.785768,0 0.07197,-0.1989515 1.28954,0 0,0.4140345 -0.380399,0.3570373 -1.768343,0 0,-0.5226512 z m 1.248416,1.2829688 c 0,0 0.791642,-0.1010879 0.853329,-0.1010879 0.06167,0 0,0.579648 0,0.579648 l -1.77275,0.082806 -0.333401,-0.293588 1.25429,-0.2667027" />
  <path
     style="fill:#55ff55;fill-opacity:1"
     inkscape:connector-curvature="0"
     id="path24"
     d="M 46.768758,33.086149 24.433615,24.636655 c -0.502069,-0.189798 -1.080696,-0.09289 -1.474031,0.247037 -0.393334,0.339928 -0.527034,0.858608 -0.340076,1.32105 l 8.300508,20.579954 c 0.191396,0.474494 0.681814,0.796345 1.239917,0.81392 0.56032,0.01708 1.071819,-0.274655 1.297612,-0.736594 l 3.7952,-7.750561 c 0.146458,-0.299759 0.417743,-0.533742 0.753935,-0.653243 l 8.728236,-3.075421 c 0.520376,-0.183269 0.865445,-0.634163 0.872103,-1.139285 0.0072,-0.502109 -0.325096,-0.962543 -0.84048,-1.157363" />
</svg>
