<?xml version="1.0" encoding="UTF-8" standalone="no"?>
<svg
   xmlns:dc="http://purl.org/dc/elements/1.1/"
   xmlns:cc="http://creativecommons.org/ns#"
   xmlns:rdf="http://www.w3.org/1999/02/22-rdf-syntax-ns#"
   xmlns:svg="http://www.w3.org/2000/svg"
   xmlns="http://www.w3.org/2000/svg"
   xmlns:sodipodi="http://sodipodi.sourceforge.net/DTD/sodipodi-0.dtd"
   xmlns:inkscape="http://www.inkscape.org/namespaces/inkscape"
   viewBox="0 0 48 48"
   id="svg2"
   version="1.1"
   inkscape:version="0.91 r13725"
   sodipodi:docname="quickusbformatter.svg">
  <metadata
     id="metadata56">
    <rdf:RDF>
      <cc:Work
         rdf:about="">
        <dc:format>image/svg+xml</dc:format>
        <dc:type
           rdf:resource="http://purl.org/dc/dcmitype/StillImage" />
        <dc:title></dc:title>
      </cc:Work>
    </rdf:RDF>
  </metadata>
  <sodipodi:namedview
     pagecolor="#ffffff"
     bordercolor="#666666"
     borderopacity="1"
     objecttolerance="10"
     gridtolerance="10"
     guidetolerance="10"
     inkscape:pageopacity="0"
     inkscape:pageshadow="2"
     inkscape:window-width="1280"
     inkscape:window-height="694"
     id="namedview54"
     showgrid="false"
     inkscape:zoom="4.9166667"
     inkscape:cx="-9.1525422"
     inkscape:cy="24"
     inkscape:window-x="0"
     inkscape:window-y="0"
     inkscape:window-maximized="1"
     inkscape:current-layer="svg2" />
  <defs
     id="defs4">
    <linearGradient
       gradientTransform="matrix(0.84890151,0,0,1.7238944,-357.9769,-892.87887)"
       gradientUnits="userSpaceOnUse"
       y2="543.09"
       x2="0"
       y1="544.15"
       id="3">
      <stop
         stop-color="#1e56e6"
         id="stop7" />
      <stop
         offset="1"
         stop-color="#1f9aed"
         id="stop9" />
    </linearGradient>
    <linearGradient
       gradientUnits="userSpaceOnUse"
       y2="6.259"
       x2="0"
       y1="9.824"
       id="2"
       gradientTransform="matrix(0.99999,0,0,1.026317,51.629,36.194595)">
      <stop
         stop-color="#040404"
         id="stop12" />
      <stop
         offset="1"
         stop-color="#121212"
         stop-opacity=".908"
         id="stop14" />
    </linearGradient>
    <linearGradient
       gradientUnits="userSpaceOnUse"
       y2="-34.576"
       x2="-28.18"
       y1="2.947"
       x1="-28.387"
       id="0"
       gradientTransform="matrix(0.99999,0,0,1.026317,51.629,36.194595)">
      <stop
         stop-color="#b6b9bf"
         id="stop17" />
      <stop
         offset="1"
         stop-color="#dddfe2"
         id="stop19" />
    </linearGradient>
    <linearGradient
       gradientTransform="matrix(0.41725583,0,0,0.42110813,-3.7104466,-1.4209494)"
       x2="122.72"
       x1="10.09"
       gradientUnits="userSpaceOnUse"
       id="1">
      <stop
         stop-color="#1a1a1a"
         id="stop22" />
      <stop
         offset=".111"
         stop-color="#2c2c2e"
         id="stop24" />
      <stop
         offset=".29"
         stop-color="#2b2b2d"
         id="stop26" />
      <stop
         offset=".512"
         stop-color="#2a2b2d"
         id="stop28" />
      <stop
         offset=".752"
         stop-color="#2b2b2d"
         id="stop30" />
      <stop
         offset=".897"
         stop-color="#323232"
         id="stop32" />
      <stop
         offset="1"
         stop-color="#171717"
         id="stop34" />
    </linearGradient>
  </defs>
  <g
     id="g4249"
     transform="matrix(0.10068368,0,0,0.10197484,0.09670168,-0.18974715)">
    <g
       transform="matrix(0.99999185,-0.0040371,0.0040371,0.99999185,-0.95377749,0.95763603)"
       id="g4223">
      <path
         d="m 437.959,321.40588 c 11.139,0 21.5,3.55751 30.099,9.63266 L 408.742,35.569484 C 405.272,18.281472 388.761,4.2740239 371.857,4.2740239 l -270.271,0 c -16.897,0 -33.416,14.0137191 -36.885,31.2954601 L 5.392,331.03854 c 8.599,-6.08247 18.959,-9.63266 30.098,-9.63266 l 402.469,0 0,0 z"
         id="path7"
         inkscape:connector-curvature="0"
         style="fill:#b7bec8" />
      <path
         d="m 35.496,469.18796 402.47,0 c 19.602,0 35.496,-16.61183 35.496,-37.0968 l 0,-54.40467 c 0,-7.28537 -2.038,-14.05343 -5.509,-19.7837 -6.291,-10.3935 -17.356,-17.30787 -29.987,-17.30787 l -402.47,0 c -12.631,0 -23.696,6.91959 -29.988,17.30787 C 2.038,363.63306 0,370.40739 0,377.68649 l 0,54.40467 c 0,20.49124 15.894,37.0968 35.496,37.0968 z m 376.674,-69.36002 -77.314,0 c -5.073,0 -9.18,-4.29013 -9.18,-9.594 0,-5.30074 4.106,-9.594 9.18,-9.594 l 77.314,0 c 5.073,0 9.18,4.29222 9.18,9.594 0,5.30283 -4.113,9.594 -9.18,9.594 z"
         id="path9"
         inkscape:connector-curvature="0"
         style="fill:#939dac" />
    </g>
    <path
       d="m 461.45541,265.30588 -48.66612,-0.0566 c -1.85424,8.2e-4 -3.62992,0.41279 -4.94095,1.15373 -1.31247,0.74072 -2.04973,1.74301 -2.05721,2.79427 l -0.0813,27.58348 c -0.0161,2.18475 3.1064,3.95975 6.96286,3.95862 l 6.78444,0.003 -0.065,21.01627 -51.58938,19.59984 0.23744,-80.29837 17.9419,0.0118 c 1.92465,8.1e-4 3.71449,-0.56657 4.71146,-1.49535 1.00509,-0.93412 1.07991,-2.09201 0.20004,-3.06218 l -35.38956,-38.85477 c -0.94656,-1.03249 -2.83577,-1.68534 -4.89395,-1.68919 -2.06062,0.003 -3.94705,0.64687 -4.89783,1.68264 l -35.62305,38.78726 c -0.88479,0.96576 -0.82296,2.1291 0.17239,3.06164 1.00023,0.93522 2.78761,1.50246 4.71128,1.50429 l 17.95815,0.0118 -0.33667,111.22017 -55.53236,-21.24978 0.0488,-16.68977 c 8.61736,-3.22097 14.31605,-8.74041 14.33506,-15.0239 0.0326,-9.97023 -14.19601,-18.06254 -31.80952,-18.07486 -17.57807,-0.0226 -31.84629,8.05147 -31.8845,18.02196 -0.0326,6.28776 5.65004,11.81761 14.25064,15.05283 l -0.065,21.97321 c -0.0135,3.31413 2.88067,6.40833 7.73344,8.25912 l 82.85262,31.69884 -0.11379,34.2992 c -11.68438,3.5498 -19.73073,10.45378 -19.75466,18.49508 -0.0326,11.65558 16.60583,21.12102 37.17384,21.14406 20.59222,0.0226 37.29139,-9.41305 37.32619,-21.07235 0.0326,-8.03983 -7.97853,-14.94789 -19.64113,-18.52451 l 0.20005,-65.22124 78.97841,-30.00445 c 0.94655,-0.36077 1.82544,-0.77013 2.6188,-1.21785 3.26237,-1.84254 5.15383,-4.36472 5.16033,-7.02973 l 0.0813,-26.30583 6.78949,0.007 c 1.85423,-8.2e-4 3.62534,-0.41617 4.93736,-1.15689 1.31085,-0.74072 2.04598,-1.74505 2.05215,-2.79599 l 0.065,-27.57669 c 0.0117,-2.18688 -3.10299,-3.95759 -6.96141,-3.95883 z"
       id="path72"
       inkscape:connector-curvature="0"
       style="fill:#0b1728;stroke:#909296;stroke-width:1.10277224" />
  </g>
</svg>
