<?xml version="1.0" encoding="UTF-8" standalone="no"?>
<svg
   xmlns:dc="http://purl.org/dc/elements/1.1/"
   xmlns:cc="http://creativecommons.org/ns#"
   xmlns:rdf="http://www.w3.org/1999/02/22-rdf-syntax-ns#"
   xmlns:svg="http://www.w3.org/2000/svg"
   xmlns="http://www.w3.org/2000/svg"
   xmlns:sodipodi="http://sodipodi.sourceforge.net/DTD/sodipodi-0.dtd"
   xmlns:inkscape="http://www.inkscape.org/namespaces/inkscape"
   viewBox="0 0 48 48"
   id="svg2"
   version="1.1"
   inkscape:version="0.91 r13725"
   sodipodi:docname="quickview.svg">
  <metadata
     id="metadata29">
    <rdf:RDF>
      <cc:Work
         rdf:about="">
        <dc:format>image/svg+xml</dc:format>
        <dc:type
           rdf:resource="http://purl.org/dc/dcmitype/StillImage" />
        <dc:title></dc:title>
      </cc:Work>
    </rdf:RDF>
  </metadata>
  <sodipodi:namedview
     pagecolor="#ffffff"
     bordercolor="#666666"
     borderopacity="1"
     objecttolerance="10"
     gridtolerance="10"
     guidetolerance="10"
     inkscape:pageopacity="0"
     inkscape:pageshadow="2"
     inkscape:window-width="1280"
     inkscape:window-height="694"
     id="namedview27"
     showgrid="false"
     inkscape:zoom="4.9166667"
     inkscape:cx="-9.1525424"
     inkscape:cy="24"
     inkscape:window-x="0"
     inkscape:window-y="0"
     inkscape:window-maximized="1"
     inkscape:current-layer="svg2" />
  <defs
     id="defs4">
    <linearGradient
       gradientUnits="userSpaceOnUse"
       y2="517.8"
       x2="0"
       y1="545.8"
       id="linearGradient6">
      <stop
         stop-color="#3889e9"
         id="stop8" />
      <stop
         offset="1"
         stop-color="#5ea5fb"
         id="stop10" />
    </linearGradient>
    <linearGradient
       y2="518.14"
       x2="0"
       y1="545.14"
       gradientUnits="userSpaceOnUse"
       id="0">
      <stop
         stop-color="#197ff1"
         id="stop13" />
      <stop
         offset="1"
         stop-color="#21c6fb"
         id="stop15" />
    </linearGradient>
  </defs>
  <path
     style="fill:#5fbcd3;fill-opacity:1"
     inkscape:connector-curvature="0"
     id="path25"
     d="m 24.080709,0.18002253 c -10.383214,0 -19.3321687,9.44242497 -23.44303337,23.06850147 -0.12625563,0.412911 -0.12625563,0.895393 0,1.316095 4.11086467,13.626075 13.05981937,23.0685 23.44303337,23.0685 10.383214,0 19.332169,-9.442425 23.443033,-23.0685 0.126253,-0.41291 0.126253,-0.895394 0,-1.316095 C 43.412878,9.6224475 34.463923,0.18002253 24.080709,0.18002253 m 0,7.35917007 c 5.863284,0 10.609967,7.3303454 10.609967,16.3676524 0,9.037304 -4.751734,16.372324 -10.609967,16.372324 -5.863284,0 -10.609968,-7.33502 -10.609968,-16.372324 0,-9.045098 4.751734,-16.3676524 10.609968,-16.3676524 m 0,5.8853634 a 6.7925203,10.478599 0 0 0 -6.792006,10.477803 6.7925203,10.478599 0 0 0 6.792006,10.477806 6.7925203,10.478599 0 0 0 6.792005,-10.477806 6.7925203,10.478599 0 0 0 -6.792005,-10.477803" />
</svg>
