<?xml version="1.0" encoding="UTF-8" standalone="no"?>
<svg
   xmlns:dc="http://purl.org/dc/elements/1.1/"
   xmlns:cc="http://creativecommons.org/ns#"
   xmlns:rdf="http://www.w3.org/1999/02/22-rdf-syntax-ns#"
   xmlns:svg="http://www.w3.org/2000/svg"
   xmlns="http://www.w3.org/2000/svg"
   xmlns:sodipodi="http://sodipodi.sourceforge.net/DTD/sodipodi-0.dtd"
   xmlns:inkscape="http://www.inkscape.org/namespaces/inkscape"
   viewBox="0 0 48 48"
   id="svg2"
   version="1.1"
   inkscape:version="0.91 r13725"
   sodipodi:docname="remmina.svg">
  <metadata
     id="metadata30">
    <rdf:RDF>
      <cc:Work
         rdf:about="">
        <dc:format>image/svg+xml</dc:format>
        <dc:type
           rdf:resource="http://purl.org/dc/dcmitype/StillImage" />
        <dc:title></dc:title>
      </cc:Work>
    </rdf:RDF>
  </metadata>
  <sodipodi:namedview
     pagecolor="#ffffff"
     bordercolor="#666666"
     borderopacity="1"
     objecttolerance="10"
     gridtolerance="10"
     guidetolerance="10"
     inkscape:pageopacity="0"
     inkscape:pageshadow="2"
     inkscape:window-width="1280"
     inkscape:window-height="694"
     id="namedview28"
     showgrid="false"
     inkscape:zoom="4.9166667"
     inkscape:cx="-6.1306849"
     inkscape:cy="24"
     inkscape:window-x="0"
     inkscape:window-y="0"
     inkscape:window-maximized="1"
     inkscape:current-layer="svg2" />
  <defs
     id="defs4">
    <linearGradient
       id="0"
       x1="-25.22"
       y1="44.538"
       x2="-24.94"
       y2="-4.625"
       gradientUnits="userSpaceOnUse"
       gradientTransform="translate(48.41,4.271)">
      <stop
         stop-color="#197cf1"
         id="stop7" />
      <stop
         offset="1"
         stop-color="#21c9fb"
         id="stop9" />
    </linearGradient>
    <linearGradient
       gradientUnits="userSpaceOnUse"
       y2="-4.271"
       x2="-25.421"
       y1="30.1"
       x1="-25.11"
       id="1"
       gradientTransform="translate(48.41,4.271)">
      <stop
         stop-color="#566069"
         id="stop12" />
      <stop
         offset="1"
         stop-color="#6c7884"
         id="stop14" />
    </linearGradient>
  </defs>
  <path
     d="m 27.916175,0.18564407 -8.282195,0.7559446 0,32.40504233 8.193359,-1.177717 0,-13.814643 11.02584,15.329776 8.637536,-2.602004 L 36.198368,16.342744 47.582966,2.4437447 38.767762,0.5263058 27.827339,14.425305 27.916169,0.19213286 M 9.1343202,8.0922409 c -0.092251,0.00649 -0.1947539,0.00324 -0.2630895,0.1005757 L 5.6116548,11.287972 c -0.1366699,0.129776 -0.1537531,0.327684 -0.051251,0.48666 l 3.806255,5.966446 c -0.6765156,1.077141 -1.2231952,2.235391 -1.6127041,3.461773 l -6.99066291,1.37887 c -0.19475453,0.04218 -0.33825789,0.21413 -0.33825789,0.402305 l 0,4.370203 c 0,0.184927 0.1469201,0.343906 0.33825789,0.386083 l 6.78224131,1.563799 c 0.3621751,1.421045 0.9259383,2.78045 1.6605388,4.016565 L 5.2768136,38.99837 c -0.1093363,0.158974 -0.088835,0.369862 0.051251,0.506126 l 3.259576,3.095156 c 0.1366699,0.129773 0.3450915,0.146009 0.512512,0.04868 l 6.1603934,-3.546126 c 1.206112,0.6651 2.518142,1.190692 3.884841,1.544332 l 1.431615,6.553683 c 0.04101,0.184927 0.208422,0.321194 0.406594,0.321194 l 4.602356,0 c 0.194758,0 0.362175,-0.126535 0.406595,-0.301729 l 1.701539,-6.589371 c 1.421366,-0.366617 2.76073,-0.901943 4.001009,-1.596243 l 6.071559,3.779723 c 0.167422,0.103825 0.389509,0.08435 0.533013,-0.04868 l 3.239075,-3.095156 c 0.140092,-0.129773 0.170843,-0.327682 0.06834,-0.486658 l -2.214052,-3.461773 -0.727768,0.217376 c -0.105928,0.0031 -0.222089,-0.01618 -0.283589,-0.10057 0,0 -1.397449,-1.949884 -3.218574,-4.487002 -2.183302,4.052252 -6.628489,6.822967 -11.767276,6.822967 -7.281086,0 -13.185223,-5.609563 -13.185223,-12.520128 0,-5.083971 3.204908,-9.450931 7.807265,-11.413791 l 0,-3.228176 c -0.833686,0.275774 -1.643455,0.613191 -2.408806,1.005764 0,0 0,-0.01624 0,-0.01947 L 9.393993,8.1344179 C 9.3085742,8.0792634 9.2231557,8.0760188 9.1309034,8.0857522"
     id="path24"
     inkscape:connector-curvature="0"
     style="fill:#939dac;fill-opacity:1" />
  <path
     d="m 29.132248,31.847293 c 0.265378,0 0.520742,0.03711 0.762755,0.109708 0.912967,-0.989 1.926077,-1.890877 3.022641,-2.68627 -0.04673,-0.187153 -0.07178,-0.38237 -0.07178,-0.582428 0,-0.277502 0.04673,-0.545322 0.135193,-0.795394 -1.230087,-0.85025 -2.563655,-1.563362 -3.985681,-2.115136 -1.331899,0.795393 -2.490216,1.829567 -3.416536,3.046054 0.687647,1.176149 1.503809,2.273246 2.431799,3.271925 0.338816,-0.158111 0.719358,-0.24846 1.121598,-0.24846 m -2.592028,2.505573 c 0,-0.351716 0.07678,-0.687299 0.2103,-0.988999 -0.831185,-0.885744 -1.583923,-1.836022 -2.243197,-2.852449 -0.827847,1.589174 -1.296849,3.383248 -1.296849,5.285419 0,2.19903 0.627563,4.257699 1.71411,6.019506 0.390557,-2.115137 1.126606,-4.118949 2.143055,-5.951745 -0.332141,-0.42109 -0.527419,-0.945437 -0.527419,-1.511732 m 8.894344,-8.166909 c 0.684309,0 1.303526,0.25814 1.769189,0.676004 1.350258,-0.561454 2.773954,-0.993839 4.254397,-1.269725 -1.787547,-0.997067 -3.860502,-1.568203 -6.070319,-1.568203 -1.507148,0 -2.950872,0.266208 -4.28277,0.751834 1.058174,0.5066 2.066278,1.093869 3.014296,1.760192 0.38555,-0.222644 0.836192,-0.350102 1.316877,-0.350102 m 3.873854,11.793776 c 0.161898,-0.324288 0.390558,-0.611468 0.674295,-0.838955 -0.764424,-2.273246 -1.974482,-4.356114 -3.536708,-6.145348 -0.310442,0.127458 -0.650928,0.198445 -1.009773,0.198445 -0.562468,0 -1.079873,-0.174243 -1.505479,-0.466264 -0.939671,0.688911 -1.809245,1.461717 -2.600373,2.307127 0.250358,0.382368 0.392227,0.835728 0.392227,1.318128 0,0.259754 -0.04172,0.511441 -0.118504,0.750219 2.273241,1.46656 4.890305,2.473305 7.704315,2.878263 m 3.354782,3.381636 c 0.03505,0.474331 0.05341,0.95189 0.05341,1.43429 0,0.850248 -0.05675,1.685979 -0.161899,2.5088 2.066278,-1.45688 3.636851,-3.530067 4.431317,-5.933997 -0.939673,0.221032 -1.904381,0.377531 -2.885781,0.466267 -0.228658,0.687298 -0.756077,1.239071 -1.437048,1.52464 m -3.965653,-1.697272 c -3.00762,-0.482399 -5.791586,-1.590789 -8.220049,-3.176737 -0.393895,0.233941 -0.857889,0.371076 -1.350258,0.371076 -0.183595,0 -0.360514,-0.01935 -0.532424,-0.05163 -1.161657,2.12643 -1.904383,4.499705 -2.114682,7.016571 1.158317,1.203578 2.571998,2.171604 4.16093,2.821794 1.974481,-2.933118 4.731745,-5.359635 8.056483,-6.97785 M 43.55947,27.071697 c -1.951114,0.183925 -3.815438,0.658257 -5.549576,1.366528 0.0084,0.08552 0.01335,0.169405 0.01335,0.251687 0,0.395278 -0.09848,0.767968 -0.265379,1.09871 1.735808,1.969932 3.081058,4.260924 3.928933,6.769725 1.054837,1.6e-4 1.956122,0.642123 2.343341,1.527866 1.171669,-0.114544 2.313296,-0.332355 3.411529,-0.64535 0.08011,-0.537255 0.123509,-1.087415 0.123509,-1.647257 0,-3.459076 -1.543866,-6.571279 -4.00404,-8.725135 m -3.556735,13.929892 c -3.101088,1.405251 -5.698124,3.568786 -7.57413,6.213109 0.946348,0.229101 1.936091,0.351716 2.957548,0.351716 1.835952,0 3.575097,-0.395277 5.137324,-1.098709 0.252025,-1.187445 0.383879,-2.41361 0.383879,-3.67043 0,-0.453358 -1.67e-4,-0.90349 -0.05675,-1.348782 -0.312112,-0.09842 -0.599188,-0.248459 -0.846207,-0.445291"
     id="path26"
     inkscape:connector-curvature="0"
     style="fill:#87aade;fill-opacity:1" />
</svg>
