<?xml version="1.0" encoding="UTF-8" standalone="no"?>
<svg
   xmlns:dc="http://purl.org/dc/elements/1.1/"
   xmlns:cc="http://creativecommons.org/ns#"
   xmlns:rdf="http://www.w3.org/1999/02/22-rdf-syntax-ns#"
   xmlns:svg="http://www.w3.org/2000/svg"
   xmlns="http://www.w3.org/2000/svg"
   xmlns:xlink="http://www.w3.org/1999/xlink"
   xmlns:sodipodi="http://sodipodi.sourceforge.net/DTD/sodipodi-0.dtd"
   xmlns:inkscape="http://www.inkscape.org/namespaces/inkscape"
   viewBox="0 0 48 48"
   id="svg2"
   version="1.1"
   inkscape:version="0.91 r13725"
   sodipodi:docname="shotwell.svg">
  <metadata
     id="metadata49">
    <rdf:RDF>
      <cc:Work
         rdf:about="">
        <dc:format>image/svg+xml</dc:format>
        <dc:type
           rdf:resource="http://purl.org/dc/dcmitype/StillImage" />
        <dc:title></dc:title>
      </cc:Work>
    </rdf:RDF>
  </metadata>
  <sodipodi:namedview
     pagecolor="#ffffff"
     bordercolor="#666666"
     borderopacity="1"
     objecttolerance="10"
     gridtolerance="10"
     guidetolerance="10"
     inkscape:pageopacity="0"
     inkscape:pageshadow="2"
     inkscape:window-width="1280"
     inkscape:window-height="694"
     id="namedview47"
     showgrid="false"
     inkscape:zoom="4.9166667"
     inkscape:cx="-9.1525424"
     inkscape:cy="24"
     inkscape:window-x="0"
     inkscape:window-y="0"
     inkscape:window-maximized="1"
     inkscape:current-layer="svg2" />
  <defs
     id="defs4">
    <linearGradient
       gradientTransform="matrix(.53361 0 0 .53476-223.16-206.18)"
       xlink:href="#1"
       id="8"
       x1="543.95"
       y1="484.81"
       x2="543.74"
       y2="427.54"
       gradientUnits="userSpaceOnUse" />
    <linearGradient
       gradientUnits="userSpaceOnUse"
       y2="35.17"
       x2="0"
       y1="38.442"
       id="5"
       xlink:href="#3" />
    <linearGradient
       y2="31.988"
       x2="69.26"
       y1="34.14"
       x1="69.39"
       gradientUnits="userSpaceOnUse"
       id="7"
       xlink:href="#3" />
    <linearGradient
       y2="507.67"
       x2="390.88"
       y1="531.8"
       x1="391.57"
       gradientTransform="matrix(.68488 0 0 .84437-199.89-395.47)"
       gradientUnits="userSpaceOnUse"
       id="6">
      <stop
         stop-color="#d3d3d3"
         id="stop10" />
      <stop
         offset="1"
         stop-color="#fcf9f9"
         id="stop12" />
    </linearGradient>
    <linearGradient
       y2="32.484"
       x2="80.37"
       y1="54.46"
       x1="80.978"
       gradientUnits="userSpaceOnUse"
       id="4"
       xlink:href="#3" />
    <linearGradient
       id="3">
      <stop
         stop-color="#222c35"
         id="stop16" />
      <stop
         offset="1"
         stop-color="#545e67"
         id="stop18" />
    </linearGradient>
    <linearGradient
       y2="35.427"
       x2="80.06"
       y1="53.46"
       x1="80.34"
       gradientUnits="userSpaceOnUse"
       id="0"
       xlink:href="#1" />
    <linearGradient
       y2="50.747"
       x2="88.18"
       y1="36.87"
       x1="74.3"
       gradientUnits="userSpaceOnUse"
       id="2"
       xlink:href="#3" />
    <linearGradient
       id="1">
      <stop
         stop-color="#ff433a"
         id="stop23" />
      <stop
         offset="1"
         stop-color="#ff9436"
         id="stop25" />
    </linearGradient>
  </defs>
  <path
     d="m 12.406783,10.567621 c -3.1501295,0 -5.7063086,2.49471 -5.7063086,5.571782 l 0,3.876408 c -1.3090048,1.225102 -1.7056762,4.653831 -1.7056762,6.46412 l 14.6513788,0 c 0,-1.809217 -0.222634,-5.238044 -1.531639,-6.464218 l 0,-3.87631 c -1.11e-4,-3.075513 -2.555623,-5.571782 -5.707755,-5.571782 z m 4.4568,7.099557 c -0.02802,0 -0.0506,-0.01529 -0.07862,-0.0187 -0.07295,0.188538 -0.162361,0.368505 -0.266449,0.543798 -0.765319,1.308756 -2.315975,2.206256 -4.111839,2.206256 -1.556994,0 -2.9273843,-0.678092 -3.7650984,-1.711346 -5.561e-4,-9.74e-4 -0.00111,-0.0019 -0.00167,-0.0029 C 8.5114627,18.527379 8.3945852,18.363481 8.2934991,18.19033 8.189744,18.017082 8.1012241,17.837018 8.028273,17.648578 c -0.0258,0.0034 -0.048375,0.0187 -0.077288,0.0187 -0.4539426,0 -0.823591,-0.432487 -0.823591,-0.967617 0,-0.389053 0.1999482,-0.709352 0.4820776,-0.858351 0.08574,0.308223 0.1898285,0.49715 0.2120697,0.49306 -0.075954,-0.111701 0.8590656,-1.859273 4.2031388,-1.306906 0.96182,0.158738 1.576566,-0.351852 1.905847,-1.038026 0.04281,0.01061 0.08207,0.02259 0.128109,0.03126 2.217223,0.458098 2.789266,2.244235 2.721876,2.3126 0.02024,0.0061 0.116766,-0.262161 0.178596,-0.671177 0.0057,0.03301 0.01579,0.06515 0.02124,0.09846 0.396671,0.06944 0.706824,0.453424 0.706824,0.937622 1.12e-4,0.536494 -0.369537,0.96898 -0.82359,0.96898 z"
     id="path7"
     inkscape:connector-curvature="0"
     style="fill:#ff6600" />
  <path
     d="m 14.351997,15.458683 c -0.488194,0 -0.885421,0.347859 -0.885421,0.775378 0,0.42752 0.397227,0.775379 0.885421,0.775379 0.488861,0 0.886534,-0.347859 0.886534,-0.775379 0,-0.42674 -0.39745,-0.774599 -0.886534,-0.775378 z"
     id="path9"
     inkscape:connector-curvature="0"
     style="fill:#803300" />
  <path
     d="m 11.348103,16.234061 c 0,-0.42674 -0.39745,-0.774599 -0.886645,-0.775378 -0.4881937,0 -0.8854212,0.347859 -0.8854212,0.775378 0,0.42752 0.3972275,0.775379 0.8854212,0.775379 0.488973,0 0.886645,-0.347761 0.886645,-0.775379 z"
     id="path11"
     inkscape:connector-curvature="0"
     style="fill:#803300" />
  <path
     d="m 13.59791,18.662258 c -0.281796,0.167891 -0.715944,0.264205 -1.191127,0.264205 -0.473959,0 -0.908663,-0.09651 -1.192794,-0.264692 -0.131557,-0.07791 -0.307596,-0.06389 -0.420915,0.03369 -0.113207,0.09758 -0.132224,0.251545 -0.04537,0.368018 0.29692,0.398207 0.932573,0.645564 1.65897,0.645564 0.727064,0 1.362606,-0.247552 1.658636,-0.646051 0.08663,-0.116668 0.06728,-0.270633 -0.04626,-0.368018 -0.11343,-0.09738 -0.289581,-0.111116 -0.421137,-0.03272 z"
     id="path13"
     inkscape:connector-curvature="0"
     style="fill:#803300" />
  <path
     d="m 40.673101,24.225177 -0.162027,0.305302 C 40.214155,24.101109 39.799134,23.449896 39.332959,22.71873 38.01895,20.657091 36.218971,17.833414 34.35516,15.630664 l -0.03803,-0.04285 c -1.852913,-2.007785 -3.911779,-2.983972 -6.293476,-2.983972 -0.777441,0 -1.592135,0.108682 -2.42162,0.322929 -2.820182,0.728147 -3.25522,2.288059 -3.311267,2.923495 -0.109761,1.225493 0.966713,3.529133 3.846723,4.722294 l 0.0023,1.826941 c 1.430886,-0.336075 3.185604,-1.009882 3.326168,-2.014115 0.116433,-0.831181 -0.372095,-1.629932 -1.236943,-1.990451 -2.567745,-1.066852 -3.038146,-2.00428 -2.997555,-2.34425 0.180487,-1.51531 3.814918,-2.055504 6.77244,1.140085 1.744375,2.066509 3.482746,4.793774 4.753163,6.786951 0.411128,0.645078 0.766876,1.203289 1.062794,1.643956 L 29.37914,41.570896 c -0.83093,-0.197691 -1.55755,-0.286117 -2.292732,-0.286117 -0.457723,0 -0.877526,0.03331 -1.285763,0.06564 -0.448715,0.03535 -0.912778,0.07187 -1.508174,0.07187 -0.395893,0 -0.808356,-0.01578 -1.261297,-0.0484 C 20.341992,41.181162 16.028537,39.3438 14.055856,38.367516 13.08147,37.739383 12.991282,37.33319 13.170768,36.501133 l -2.979874,0 c -0.164028,1.230751 0.07896,2.662213 2.202767,4.001645 l 0.06383,0.04032 0.06828,0.03408 c 0.631872,0.31504 6.287693,3.086129 10.264416,3.371175 0.533789,0.03847 1.025319,0.05707 1.502281,0.05707 0.728065,0 1.282983,-0.04373 1.776959,-0.08278 0.371873,-0.02961 0.692702,-0.05483 1.017312,-0.05483 0.534455,0 1.214146,0.0594 2.555734,0.489749 l 0.288468,0.100014 -0.151129,0.284657 7.336143,2.987088 10.893397,-20.516962 -7.336254,-2.987186 z"
     id="path15"
     inkscape:connector-curvature="0"
     style="fill:#d45500" />
  <path
     d="m 24.767098,31.543948 0,-9.769949 -0.791786,-0.487704 c -0.850726,-0.441057 -1.56211,-0.981056 -2.133041,-1.566437 l 0,9.001972 -18.9269121,0 0,-21.7354424 18.9269121,0 0,6.0505264 c 0.600846,-0.440277 1.409757,-0.84053 2.503468,-1.122848 0.140897,-0.03632 0.281128,-0.06924 0.421359,-0.10021 l 0,-7.6497814 c 0,-2.0379746 -1.886497,-3.69001274 -4.213703,-3.69001274 l -16.3490484,0 c -2.3272061,0 -4.21370318,1.65203814 -4.21370318,3.69001274 l 0,27.3797764 c 0,2.038072 1.88649708,3.690207 4.21370318,3.690207 l 16.3491594,0 c 2.327095,0 4.213592,-1.652135 4.213592,-3.69011 z M 19.064125,3.8776655 c 0.499092,0 0.903548,0.3542864 0.903548,0.79135 0,0.4370636 -0.404456,0.7913501 -0.903548,0.7913501 -0.499092,0 -0.90377,-0.3542865 -0.90377,-0.7913501 0,-0.4370636 0.404678,-0.79135 0.90377,-0.79135 z m -10.5959214,0.1486094 7.8213344,0 0,1.2922982 -7.8213344,0 0,-1.2922982 z M 12.378871,32.39256 c -0.869408,0 -1.57412,-0.617128 -1.57412,-1.378386 0,-0.761161 0.704712,-1.378289 1.57412,-1.378289 0.869296,0 1.574008,0.617128 1.574008,1.378289 0,0.761258 -0.704712,1.378386 -1.574008,1.378386 z"
     id="path17"
     inkscape:connector-curvature="0"
     style="fill:#ff7f2a" />
</svg>
