<?xml version="1.0" encoding="UTF-8" standalone="no"?>
<svg
   xmlns:dc="http://purl.org/dc/elements/1.1/"
   xmlns:cc="http://creativecommons.org/ns#"
   xmlns:rdf="http://www.w3.org/1999/02/22-rdf-syntax-ns#"
   xmlns:svg="http://www.w3.org/2000/svg"
   xmlns="http://www.w3.org/2000/svg"
   xmlns:sodipodi="http://sodipodi.sourceforge.net/DTD/sodipodi-0.dtd"
   xmlns:inkscape="http://www.inkscape.org/namespaces/inkscape"
   viewBox="0 0 48 48"
   id="svg2"
   version="1.1"
   inkscape:version="0.91 r13725"
   sodipodi:docname="soulseek.svg">
  <metadata
     id="metadata26">
    <rdf:RDF>
      <cc:Work
         rdf:about="">
        <dc:format>image/svg+xml</dc:format>
        <dc:type
           rdf:resource="http://purl.org/dc/dcmitype/StillImage" />
        <dc:title></dc:title>
      </cc:Work>
    </rdf:RDF>
  </metadata>
  <sodipodi:namedview
     pagecolor="#ffffff"
     bordercolor="#666666"
     borderopacity="1"
     objecttolerance="10"
     gridtolerance="10"
     guidetolerance="10"
     inkscape:pageopacity="0"
     inkscape:pageshadow="2"
     inkscape:window-width="1280"
     inkscape:window-height="694"
     id="namedview24"
     showgrid="false"
     inkscape:zoom="4.9166667"
     inkscape:cx="-9.1525424"
     inkscape:cy="24"
     inkscape:window-x="0"
     inkscape:window-y="0"
     inkscape:window-maximized="1"
     inkscape:current-layer="svg2" />
  <defs
     id="defs4">
    <linearGradient
       id="0"
       x1="64.46"
       y1="13.252"
       x2="60.55"
       y2="-36.791"
       gradientUnits="userSpaceOnUse"
       gradientTransform="matrix(0.99999,0,0,0.99999,-38.471,35.822)">
      <stop
         stop-color="#0164c2"
         id="stop7" />
      <stop
         offset="1"
         stop-color="#00a9f3"
         id="stop9" />
    </linearGradient>
    <linearGradient
       id="1"
       gradientUnits="userSpaceOnUse"
       x1="62.6"
       y1="11.846"
       x2="62.15"
       y2="-35.476"
       gradientTransform="matrix(0.99999,0,0,0.99999,-38.471,35.822)">
      <stop
         stop-color="#197dec"
         id="stop12" />
      <stop
         offset="1"
         stop-color="#3fcffb"
         id="stop14" />
    </linearGradient>
  </defs>
  <g
     id="g4148">
    <path
       d="m 15.019675,20.736083 -3.039244,6.935366 c -0.07489,0.172558 -0.263012,0.282702 -0.469403,0.282702 l -1.5561512,0 c -0.206391,0 -0.3945173,-0.111979 -0.467576,-0.282702 L 8.0443904,24.361638 C 7.9037523,24.034879 7.7758995,23.722806 7.6553525,23.412569 7.5220203,23.754013 7.3850352,24.071594 7.24805,24.376324 L 5.7266015,27.680628 C 5.6498898,27.847679 5.46359,27.954151 5.260852,27.954151 l -1.5561515,0 c -0.2136968,0 -0.3999966,-0.115651 -0.4730554,-0.290045 L 0.38783319,20.726904 c -0.0547941,-0.135844 -0.0328764,-0.286373 0.0620999,-0.405695 0.0949764,-0.119322 0.24657329,-0.18908 0.41095548,-0.18908 l 1.75158363,0 c 0.2210027,0 0.4146084,0.126665 0.4803613,0.310238 l 1.2493046,3.524591 c 0.1041088,0.297387 0.2009116,0.578253 0.2904086,0.846268 0.1095881,-0.268015 0.2283086,-0.550717 0.3543349,-0.84994 l 1.5378868,-3.546619 c 0.074885,-0.170723 0.261185,-0.284538 0.467576,-0.284538 l 1.4465633,0 c 0.2100439,0 0.3963437,0.115651 0.4712289,0.288209 l 1.4575224,3.469519 c 0.131505,0.312073 0.248399,0.603953 0.356161,0.879312 0.0895,-0.260673 0.193606,-0.543374 0.312326,-0.853612 l 1.346108,-3.484205 c 0.06941,-0.179901 0.261185,-0.301058 0.474882,-0.301058 l 1.69131,0 c 0.166208,0 0.319632,0.07159 0.414608,0.190915 0.0968,0.124829 0.115068,0.277194 0.05662,0.414874 z m 16.295754,0 -3.039244,6.935366 c -0.07489,0.172558 -0.263011,0.282702 -0.467576,0.282702 l -1.559804,0 c -0.206391,0 -0.392691,-0.111979 -0.467576,-0.282702 l -1.441084,-3.309811 c -0.142465,-0.326759 -0.270317,-0.638832 -0.390864,-0.949069 -0.133333,0.341444 -0.270318,0.659025 -0.407303,0.963755 l -1.521448,3.304304 c -0.07671,0.167051 -0.261185,0.273523 -0.46575,0.273523 l -1.557978,0 c -0.21187,0 -0.399996,-0.115651 -0.473055,-0.290045 l -2.843812,-6.937202 c -0.05479,-0.135844 -0.03288,-0.286373 0.0621,-0.405695 0.09498,-0.117487 0.2484,-0.18908 0.410955,-0.18908 l 1.751584,0 c 0.221003,0 0.414608,0.126665 0.480361,0.310238 l 1.247478,3.524591 c 0.104109,0.297387 0.200912,0.578253 0.294062,0.846268 0.107762,-0.268015 0.224656,-0.550717 0.350682,-0.84994 l 1.539713,-3.546619 c 0.07306,-0.170723 0.259359,-0.284538 0.467576,-0.284538 l 1.446563,0 c 0.210044,0 0.398171,0.115651 0.471229,0.288209 l 1.459349,3.469519 c 0.129679,0.312073 0.246573,0.603953 0.352508,0.879312 0.09315,-0.260673 0.193606,-0.543374 0.314153,-0.853612 l 1.346107,-3.484205 c 0.06941,-0.179901 0.263012,-0.301058 0.476709,-0.301058 l 1.69131,0 c 0.168035,0 0.323285,0.07159 0.414608,0.190915 0.0968,0.124829 0.118721,0.277194 0.05845,0.414874 z m 16.293929,0 -3.037418,6.935366 c -0.07671,0.172558 -0.263012,0.282702 -0.469403,0.282702 l -1.557977,0 c -0.206391,0 -0.394518,-0.111979 -0.467576,-0.282702 L 40.6359,24.361638 c -0.142465,-0.326759 -0.270318,-0.638832 -0.390865,-0.949069 -0.133332,0.341444 -0.272144,0.659025 -0.409129,0.963755 l -1.521448,3.304304 c -0.07671,0.167051 -0.263012,0.273523 -0.46575,0.273523 l -1.556151,0 c -0.213697,0 -0.401823,-0.115651 -0.474882,-0.290045 l -2.843812,-6.937202 c -0.05297,-0.135844 -0.0347,-0.286373 0.06027,-0.405695 0.09498,-0.119322 0.248399,-0.18908 0.412781,-0.18908 l 1.753411,0 c 0.221002,0 0.414608,0.126665 0.478534,0.310238 l 1.249305,3.524591 c 0.104109,0.297387 0.200912,0.578253 0.292235,0.846268 0.107762,-0.268015 0.224656,-0.550717 0.350682,-0.84994 l 1.539713,-3.546619 c 0.07488,-0.170723 0.261185,-0.284538 0.469403,-0.284538 l 1.444737,0 c 0.210043,0 0.39817,0.115651 0.471228,0.288209 l 1.457523,3.469519 c 0.131505,0.312073 0.250226,0.603953 0.357987,0.879312 0.0895,-0.260673 0.193606,-0.543374 0.312327,-0.853612 l 1.347934,-3.484205 c 0.06758,-0.179901 0.259358,-0.301058 0.474881,-0.301058 l 1.691311,0 c 0.168035,0 0.321458,0.07159 0.414608,0.190915 0.09315,0.124829 0.115068,0.277194 0.05662,0.414874 z"
       id="path5"
       inkscape:connector-curvature="0"
       style="fill:#006df0" />
    <g
       transform="matrix(1.8264688,0,0,1.8357244,0.25632744,0.13558335)"
       id="g7">
      <path
         d="M 2.71,9 C 2.993,8.282 3.347,7.599 3.767,6.963 3.829,6.975 3.887,7 3.952,7 l 1.88,0 C 5.633,7.634 5.477,8.309 5.342,9 L 7.397,9 C 7.552,8.301 7.732,7.624 7.959,7 l 9.986,0 c 0.227,0.624 0.407,1.301 0.562,2 l 2.055,0 C 20.427,8.309 20.271,7.634 20.072,7 l 1.88,0 c 0.065,0 0.123,-0.025 0.186,-0.037 0.418,0.636 0.773,1.319 1.056,2.037 l 2.121,0 C 23.624,3.784 18.724,0 12.952,0 7.18,0 2.28,3.784 0.588,9 L 2.71,9 Z M 20.478,5 19.29,5 C 19.032,4.457 18.748,3.95 18.439,3.481 19.179,3.909 19.861,4.419 20.478,5 Z M 12.952,2 c 1.551,0 2.983,1.154 4.062,3 L 8.89,5 C 9.969,3.154 11.401,2 12.952,2 Z M 7.463,3.481 C 7.155,3.95 6.871,4.457 6.613,5 L 5.426,5 C 6.043,4.419 6.725,3.909 7.463,3.481 Z"
         id="path9"
         inkscape:connector-curvature="0"
         style="fill:#006df0" />
      <path
         d="m 23.194,17 c -0.283,0.719 -0.638,1.4 -1.057,2.037 C 22.075,19.025 22.017,19 21.952,19 l -1.881,0 c 0.199,-0.634 0.355,-1.309 0.49,-2 l -2.055,0 c -0.154,0.699 -0.335,1.377 -0.562,2 L 7.959,19 C 7.732,18.377 7.552,17.699 7.397,17 l -2.054,0 c 0.135,0.691 0.291,1.366 0.49,2 L 3.952,19 C 3.887,19 3.829,19.025 3.767,19.037 3.348,18.4 2.993,17.719 2.71,17 l -2.122,0 c 1.692,5.216 6.592,9 12.364,9 5.772,0 10.672,-3.784 12.363,-9 l -2.121,0 z m -17.768,4 1.188,0 c 0.258,0.543 0.542,1.051 0.85,1.519 C 6.725,22.091 6.043,21.581 5.426,21 Z m 7.526,3 C 11.401,24 9.969,22.846 8.89,21 l 8.123,0 c -1.078,1.846 -2.51,3 -4.061,3 z M 18.44,22.519 C 18.749,22.051 19.033,21.543 19.291,21 l 1.188,0 c -0.618,0.581 -1.3,1.091 -2.039,1.519 z"
         id="path11"
         inkscape:connector-curvature="0"
         style="fill:#006df0" />
    </g>
  </g>
  <path
     style="fill:#002255;fill-opacity:1"
     inkscape:connector-curvature="0"
     id="path22"
     d="m 42.854006,38.01004 c -1.238941,0 -2.361912,0.496127 -3.199135,1.300144 l -3.093318,-2.372828 0,-3.623992 c 2.198396,-0.391717 3.871986,-2.348847 3.871986,-4.710316 0,-2.642999 -2.094954,-4.786038 -4.67865,-4.786038 -2.584172,0 -4.678652,2.143039 -4.678652,4.786038 0,2.361323 1.673591,4.318599 3.871988,4.710316 l 0,3.613314 -3.326303,2.441073 c -0.611452,-0.613642 -1.388885,-1.05487 -2.25771,-1.244709 -3.241366,-0.707664 -6.07418,2.021689 -5.670848,5.295707 0.262688,2.133283 1.946433,3.855529 4.032039,4.124634 3.200557,0.412589 5.868718,-2.485245 5.176885,-5.801494 -0.07517,-0.360749 -0.192651,-0.705334 -0.343639,-1.030503 l 3.185848,-2.337684 2.941049,2.256137 c -0.323947,0.65126 -0.510429,1.38601 -0.510429,2.166629 0,2.643 2.094954,4.786038 4.678652,4.786038 2.583697,0 4.678651,-2.143038 4.678651,-4.786038 -5e-6,-2.643001 -2.094954,-4.786039 -4.678651,-4.786039" />
</svg>
