<?xml version="1.0" encoding="UTF-8" standalone="no"?>
<svg
   xmlns:dc="http://purl.org/dc/elements/1.1/"
   xmlns:cc="http://creativecommons.org/ns#"
   xmlns:rdf="http://www.w3.org/1999/02/22-rdf-syntax-ns#"
   xmlns:svg="http://www.w3.org/2000/svg"
   xmlns="http://www.w3.org/2000/svg"
   xmlns:xlink="http://www.w3.org/1999/xlink"
   xmlns:sodipodi="http://sodipodi.sourceforge.net/DTD/sodipodi-0.dtd"
   xmlns:inkscape="http://www.inkscape.org/namespaces/inkscape"
   viewBox="0 0 48 48"
   id="svg2"
   version="1.1"
   inkscape:version="0.91 r13725"
   sodipodi:docname="system-lock-screen.svg">
  <metadata
     id="metadata28">
    <rdf:RDF>
      <cc:Work
         rdf:about="">
        <dc:format>image/svg+xml</dc:format>
        <dc:type
           rdf:resource="http://purl.org/dc/dcmitype/StillImage" />
        <dc:title></dc:title>
      </cc:Work>
    </rdf:RDF>
  </metadata>
  <sodipodi:namedview
     pagecolor="#ffffff"
     bordercolor="#666666"
     borderopacity="1"
     objecttolerance="10"
     gridtolerance="10"
     guidetolerance="10"
     inkscape:pageopacity="0"
     inkscape:pageshadow="2"
     inkscape:window-width="1280"
     inkscape:window-height="694"
     id="namedview26"
     showgrid="false"
     inkscape:zoom="4.9166667"
     inkscape:cx="-26.939792"
     inkscape:cy="24"
     inkscape:window-x="0"
     inkscape:window-y="0"
     inkscape:window-maximized="1"
     inkscape:current-layer="svg2" />
  <defs
     id="defs4">
    <linearGradient
       id="3"
       x1="490.22"
       y1="552.5"
       x2="490.31"
       y2="533.77"
       gradientUnits="userSpaceOnUse"
       gradientTransform="matrix(3.7198639,0,0,2.6081754,-1796.2389,-1390.3685)">
      <stop
         stop-color="#1c94f4"
         id="stop7" />
      <stop
         offset="1"
         stop-color="#1ea5f7"
         id="stop9" />
    </linearGradient>
    <linearGradient
       xlink:href="#1"
       id="2"
       gradientUnits="userSpaceOnUse"
       x1="487.74"
       y1="985.35"
       x2="493.51"
       y2="11.611"
       gradientTransform="matrix(0.04892058,0,0,0.04892058,0.0093464,0.0123104)" />
    <linearGradient
       xlink:href="#1"
       id="0"
       gradientUnits="userSpaceOnUse"
       x1="34.902"
       x2="946.35" />
    <linearGradient
       id="1">
      <stop
         stop-color="#197cf1"
         id="stop14" />
      <stop
         offset="1"
         stop-color="#20bcfa"
         id="stop16" />
    </linearGradient>
  </defs>
  <g
     id="g4186"
     transform="matrix(1.5466667,0,0,0.70131992,76.219661,8.1258648)">
    <g
       style="fill:#de8787"
       transform="matrix(0.1220339,0,0,0.18220339,-56.338983,-10.927966)"
       id="XMLID_503_">
      <g
         style="fill:#de8787"
         id="XMLID_511_">
        <g
           style="fill:#de8787"
           id="XMLID_1307_">
          <g
             style="fill:#de8787"
             id="XMLID_1308_">
            <g
               style="fill:#de8787"
               id="XMLID_1309_">
              <path
                 id="XMLID_1310_"
                 style="fill:#de8787"
                 d="M 185,290 C 129.86,290 85,245.14 85,190 l 0,-90 C 85,44.86 129.86,0 185,0 240.14,0 285,44.86 285,100 l 0,90 c 0,55.14 -44.86,100 -100,100 z m 0,-250 c -33.084,0 -60,26.916 -60,60 l 0,90 c 0,33.084 26.916,60 60,60 33.084,0 60,-26.916 60,-60 l 0,-90 C 245,66.916 218.084,40 185,40 Z"
                 inkscape:connector-curvature="0" />
            </g>
          </g>
        </g>
      </g>
      <path
         id="XMLID_524_"
         style="fill:#de8787"
         d="m 185,0 0,40 c 33.084,0 60,26.916 60,60 l 0,90 c 0,33.084 -26.916,60 -60,60 l 0,40 c 55.14,0 100,-44.86 100,-100 l 0,-90 C 285,44.86 240.14,0 185,0 Z"
         inkscape:connector-curvature="0" />
    </g>
    <g
       style="fill:#c83737"
       transform="matrix(0.1220339,0,0,0.18220339,-56.338983,-10.927966)"
       id="XMLID_525_">
      <circle
         id="XMLID_526_"
         style="fill:#c83737"
         cx="185"
         cy="245"
         r="125" />
      <path
         id="XMLID_531_"
         style="fill:#c83737"
         d="m 185,120 0,250 c 69.036,0 125,-55.964 125,-125 0,-69.036 -55.964,-125 -125,-125 z"
         inkscape:connector-curvature="0" />
    </g>
    <g
       style="fill:#de8787"
       transform="matrix(0.1220339,0,0,0.18220339,-56.338983,-10.927966)"
       id="XMLID_532_">
      <path
         id="XMLID_535_"
         style="fill:#de8787"
         d="m 216.25,231.607 c 0,-17.259 -13.991,-31.25 -31.25,-31.25 -17.259,0 -31.25,13.991 -31.25,31.25 0,11.565 6.287,21.655 15.625,27.059 l 0,30.977 31.25,0 0,-30.977 c 9.338,-5.404 15.625,-15.494 15.625,-27.059 z"
         inkscape:connector-curvature="0" />
      <path
         id="XMLID_783_"
         style="fill:#de8787"
         d="m 185,200.357 0,89.286 15.625,0 0,-30.977 c 9.338,-5.404 15.625,-15.494 15.625,-27.059 0,-17.259 -13.991,-31.25 -31.25,-31.25 z"
         inkscape:connector-curvature="0" />
    </g>
  </g>
</svg>
