<?xml version="1.0" encoding="UTF-8" standalone="no"?>
<svg
   xmlns:dc="http://purl.org/dc/elements/1.1/"
   xmlns:cc="http://creativecommons.org/ns#"
   xmlns:rdf="http://www.w3.org/1999/02/22-rdf-syntax-ns#"
   xmlns:svg="http://www.w3.org/2000/svg"
   xmlns="http://www.w3.org/2000/svg"
   xmlns:sodipodi="http://sodipodi.sourceforge.net/DTD/sodipodi-0.dtd"
   xmlns:inkscape="http://www.inkscape.org/namespaces/inkscape"
   viewBox="0 0 48 48"
   id="svg2"
   version="1.1"
   inkscape:version="0.91 r13725"
   sodipodi:docname="timeshift.svg">
  <metadata
     id="metadata21">
    <rdf:RDF>
      <cc:Work
         rdf:about="">
        <dc:format>image/svg+xml</dc:format>
        <dc:type
           rdf:resource="http://purl.org/dc/dcmitype/StillImage" />
        <dc:title></dc:title>
      </cc:Work>
    </rdf:RDF>
  </metadata>
  <sodipodi:namedview
     pagecolor="#ffffff"
     bordercolor="#666666"
     borderopacity="1"
     objecttolerance="10"
     gridtolerance="10"
     guidetolerance="10"
     inkscape:pageopacity="0"
     inkscape:pageshadow="2"
     inkscape:window-width="1280"
     inkscape:window-height="694"
     id="namedview19"
     showgrid="false"
     inkscape:zoom="4.9166667"
     inkscape:cx="-11.59322"
     inkscape:cy="24"
     inkscape:window-x="0"
     inkscape:window-y="0"
     inkscape:window-maximized="1"
     inkscape:current-layer="svg2" />
  <defs
     id="defs4">
    <linearGradient
       id="0"
       y1="48.61"
       x2="0"
       y2="-1.22"
       gradientUnits="userSpaceOnUse">
      <stop
         stop-color="#c52828"
         id="stop7" />
      <stop
         stop-color="#ff5454"
         offset="1"
         id="stop9" />
    </linearGradient>
  </defs>
  <g
     transform="matrix(0.61554804,0,0,0.61819342,53.899071,7.7847923)"
     id="g13"
     style="fill:#c83737">
    <path
       d="m -48.44,-12.394 c -21.281,0 -38.605,17.255 -38.605,38.595 l 5.131,0 c 0,-18.484 14.89,-33.444 33.474,-33.444 18.574,0 33.536,14.963 33.536,33.444 l 0,0.353 c -0.201,18.352 -15.09,33.17 -33.536,33.17 l 0,5.141 c 21.281,0 38.662,-17.317 38.662,-38.662 0,-21.35 -17.386,-38.577 -38.662,-38.577"
       id="path15"
       style="fill:#c83737"
       inkscape:connector-curvature="0" />
    <path
       d="m -85.59,15.939 c -0.907,3.279 -1.45,6.741 -1.45,10.303 0,4.448 0.786,8.745 2.174,12.719 l 0.402,0.162 15.454,-23.18"
       id="path17"
       style="fill:#c83737"
       inkscape:connector-curvature="0" />
  </g>
</svg>
