<?xml version="1.0" encoding="UTF-8" standalone="no"?>
<svg
   xmlns:dc="http://purl.org/dc/elements/1.1/"
   xmlns:cc="http://creativecommons.org/ns#"
   xmlns:rdf="http://www.w3.org/1999/02/22-rdf-syntax-ns#"
   xmlns:svg="http://www.w3.org/2000/svg"
   xmlns="http://www.w3.org/2000/svg"
   xmlns:xlink="http://www.w3.org/1999/xlink"
   xmlns:sodipodi="http://sodipodi.sourceforge.net/DTD/sodipodi-0.dtd"
   xmlns:inkscape="http://www.inkscape.org/namespaces/inkscape"
   viewBox="0 0 48 48"
   id="svg2"
   version="1.1"
   inkscape:version="0.91 r13725"
   sodipodi:docname="web-inbox.svg">
  <metadata
     id="metadata345">
    <rdf:RDF>
      <cc:Work
         rdf:about="">
        <dc:format>image/svg+xml</dc:format>
        <dc:type
           rdf:resource="http://purl.org/dc/dcmitype/StillImage" />
        <dc:title></dc:title>
      </cc:Work>
    </rdf:RDF>
  </metadata>
  <sodipodi:namedview
     pagecolor="#ffffff"
     bordercolor="#666666"
     borderopacity="1"
     objecttolerance="10"
     gridtolerance="10"
     guidetolerance="10"
     inkscape:pageopacity="0"
     inkscape:pageshadow="2"
     inkscape:window-width="1280"
     inkscape:window-height="694"
     id="namedview343"
     showgrid="false"
     inkscape:zoom="4.9166667"
     inkscape:cx="-16.669683"
     inkscape:cy="24"
     inkscape:window-x="0"
     inkscape:window-y="0"
     inkscape:window-maximized="1"
     inkscape:current-layer="svg2" />
  <defs
     id="defs4">
    <use
       xlink:href="#W"
       fill="#fff"
       opacity=".2"
       id="E" />
    <use
       xlink:href="#W"
       fill="none"
       id="F" />
    <use
       xlink:href="#W"
       fill="none"
       id="G" />
    <use
       xlink:href="#W"
       fill="none"
       id="H" />
    <use
       xlink:href="#W"
       fill="none"
       id="I" />
    <use
       xlink:href="#W"
       fill="none"
       id="J" />
    <use
       xlink:href="#W"
       fill="none"
       id="K" />
    <use
       xlink:href="#W"
       fill="none"
       id="L" />
    <use
       xlink:href="#W"
       fill="none"
       id="M" />
    <use
       xlink:href="#W"
       fill="none"
       id="N" />
    <use
       xlink:href="#W"
       fill="none"
       id="O" />
    <use
       xlink:href="#W"
       fill="none"
       id="P" />
    <use
       xlink:href="#W"
       fill="none"
       id="Q" />
    <use
       xlink:href="#W"
       fill="none"
       id="R" />
    <path
       color="#000"
       d="m296 26a10 10 0 1 1 -20 0 10 10 0 1 1 20 0"
       id="W" />
    <clipPath
       id="clipPath21">
      <rect
         rx="6"
         color="#bebebe"
         fill="url(#7)"
         y="37"
         x="433"
         height="30"
         width="30"
         id="rect23" />
    </clipPath>
    <clipPath
       id="clipPath25">
      <use
         xlink:href="#P"
         id="use27" />
    </clipPath>
    <clipPath
       id="clipPath29">
      <use
         xlink:href="#O"
         id="use31" />
    </clipPath>
    <clipPath
       id="clipPath33">
      <use
         xlink:href="#O"
         transform="matrix(8 0 0 8-2141.58-54.42)"
         id="use35" />
    </clipPath>
    <clipPath
       id="clipPath37">
      <use
         xlink:href="#P"
         transform="matrix(8 0 0 8-2141.58-54.42)"
         id="use39" />
    </clipPath>
    <clipPath
       id="clipPath41">
      <use
         xlink:href="#Q"
         id="use43" />
    </clipPath>
    <clipPath
       id="clipPath45">
      <use
         xlink:href="#R"
         transform="matrix(8 0 0 8-2141.58-54.42)"
         id="use47" />
    </clipPath>
    <clipPath
       id="clipPath49">
      <use
         xlink:href="#Q"
         transform="matrix(8 0 0 8-2141.58-54.42)"
         id="use51" />
    </clipPath>
    <clipPath
       id="clipPath53">
      <use
         xlink:href="#R"
         id="use55" />
    </clipPath>
    <clipPath
       id="clipPath57">
      <use
         xlink:href="#N"
         transform="matrix(8 0 0 8-2141.58-54.42)"
         id="use59" />
    </clipPath>
    <clipPath
       id="clipPath61">
      <use
         xlink:href="#N"
         id="use63" />
    </clipPath>
    <clipPath
       id="clipPath65">
      <rect
         rx="18"
         color="#bebebe"
         fill="url(#B)"
         y="32"
         x="292"
         height="88"
         width="88"
         id="rect67" />
    </clipPath>
    <clipPath
       id="clipPath69">
      <rect
         rx="3"
         color="#bebebe"
         fill="url(#8)"
         transform="matrix(0 1-1 0 0 0)"
         y="212"
         x="304"
         height="16"
         width="16"
         id="rect71" />
    </clipPath>
    <clipPath
       id="clipPath73">
      <rect
         rx="12.5"
         color="#bebebe"
         fill="url(#A)"
         width="60"
         height="60"
         x="290"
         y="142"
         id="rect75" />
    </clipPath>
    <clipPath
       id="clipPath77">
      <rect
         rx="5"
         color="#bebebe"
         fill="url(#C)"
         width="22"
         height="22"
         x="417"
         y="101"
         id="rect79" />
    </clipPath>
    <clipPath
       id="clipPath81">
      <rect
         rx="7"
         color="#bebebe"
         fill="url(#D)"
         y="53"
         x="417"
         height="30"
         width="30"
         id="rect83" />
    </clipPath>
    <clipPath
       id="clipPath85">
      <use
         xlink:href="#M"
         transform="matrix(8 0 0 8-2141.58-54.42)"
         id="use87" />
    </clipPath>
    <clipPath
       id="clipPath89">
      <use
         xlink:href="#L"
         transform="matrix(8 0 0 8-2141.58-54.42)"
         id="use91" />
    </clipPath>
    <clipPath
       id="clipPath93">
      <use
         xlink:href="#M"
         id="use95" />
    </clipPath>
    <clipPath
       id="clipPath97">
      <path
         d="m296 26a10 10 0 1 1 -20 0 10 10 0 1 1 20 0"
         id="path99" />
    </clipPath>
    <clipPath
       id="clipPath101">
      <rect
         color="#bebebe"
         width="20"
         x="434"
         y="78"
         rx="4"
         height="20"
         id="rect103" />
    </clipPath>
    <clipPath
       id="clipPath105">
      <rect
         color="#bebebe"
         fill="#986767"
         width="240"
         x="24"
         y="36"
         rx="50"
         height="240"
         id="rect107" />
    </clipPath>
    <clipPath
       id="clipPath109">
      <path
         d="m98.03 23.19c-41.492 1.052-74.844 35.07-74.844 76.81 0 42.41 34.406 76.81 76.81 76.81 42.41 0 76.81-34.406 76.81-76.81 0-42.41-34.406-76.81-76.81-76.81-.663 0-1.31-.017-1.969 0m1.969 27.469c27.24 0 49.34 22.1 49.34 49.34 0 27.24-22.1 49.34-49.34 49.34-27.24 0-49.34-22.1-49.34-49.34 0-27.24 22.1-49.34 49.34-49.34"
         id="path111" />
    </clipPath>
    <clipPath
       id="clipPath113">
      <rect
         color="#bebebe"
         fill="#6d6d6d"
         opacity=".2"
         width="16"
         x="432"
         y="116"
         rx="2"
         height="16"
         id="rect115" />
    </clipPath>
    <clipPath
       id="clipPath117">
      <rect
         color="#bebebe"
         fill="url(#S)"
         width="42"
         x="307"
         y="223"
         rx="9"
         height="42"
         transform="matrix(0 1-1 0 0 0)"
         id="rect119" />
    </clipPath>
    <clipPath
       id="clipPath121">
      <path
         d="m144 48l-23.594 55.06-55.59-22.25 22.25 55.59-55.06 23.594 55.06 23.594-22.25 55.59 55.59-22.25 23.594 55.06 23.594-55.06 55.59 22.25-22.25-55.59 55.06-23.594-55.06-23.594 22.25-55.59-55.59 22.25-23.594-55.06m-23.19 56h46.37l32.813 32.813v46.37l-32.813 32.813h-46.37l-32.813-32.813v-46.37l32.813-32.813"
         id="path123" />
    </clipPath>
    <clipPath
       id="clipPath125">
      <path
         d="m3058.65 3002.27c-14.89 0-29.94 4.4-43.13 13.52-178.01 123.45-386.8 188.7-603.76 188.7-125.5 0-248.31-21.67-365-64.43-39.31-14.41-82.83 5.8-97.24 45.1-14.4 39.32 5.78 82.85 45.1 97.25 133.45 48.9 273.8 73.67 417.14 73.67 247.98 0 486.64-74.6 690.13-215.72 34.42-23.85 42.95-71.06 19.12-105.45-14.73-21.23-38.35-32.64-62.36-32.64"
         id="path127" />
    </clipPath>
    <clipPath
       id="clipPath129">
      <path
         d="m3369.85 3687.72c-16.29 0-32.8 4.21-47.88 13.08-274.98 161.5-589.72 246.88-910.21 246.88-173.15 0-344.61-24.65-509.62-73.28-50.25-14.79-102.87 13.93-117.67 64.11-14.77 50.2 13.93 102.88 64.12 117.66 182.42 53.74 371.89 80.99 563.17 80.99 354.19 0 702.15-94.39 1006.18-272.98 45.13-26.5 60.22-84.55 33.72-129.68-17.66-30.05-49.31-46.78-81.81-46.78"
         id="path131" />
    </clipPath>
    <clipPath
       id="clipPath133">
      <path
         d="m3213.98 3344.37c-15.44 0-31.06 4.19-45.1 12.98-226.76 141.73-488.58 216.65-757.12 216.65-149.2 0-296.38-22.94-437.44-68.2-44.84-14.35-92.86 10.31-107.25 55.16-14.38 44.83 10.32 92.85 55.16 107.24 157.92 50.65 322.63 76.35 489.53 76.35 300.53 0 593.59-83.89 847.49-242.58 39.95-24.97 52.07-77.57 27.12-117.51-16.17-25.86-43.97-40.09-72.39-40.09"
         id="path135" />
    </clipPath>
    <clipPath
       id="clipPath137">
      <path
         d="m145 215c33.14 0 60-26.863 60-60 0-33.14-26.863-60-60-60-33.14 0-60 26.863-60 60 0 12.507 3.829 24.11 10.375 33.719l-6.375 22.281 22.281-6.375c9.612 6.547 21.21 10.375 33.719 10.375"
         id="path139" />
    </clipPath>
    <clipPath
       id="clipPath141">
      <rect
         color="#bebebe"
         width="16"
         x="432"
         y="116"
         rx="3"
         height="16"
         id="rect143" />
    </clipPath>
    <clipPath
       id="clipPath145">
      <rect
         color="#bebebe"
         width="30"
         x="433"
         y="29"
         rx="6"
         height="30"
         id="rect147" />
    </clipPath>
    <clipPath
       id="clipPath149">
      <rect
         color="#bebebe"
         width="22"
         x="433"
         y="77"
         rx="4"
         height="22"
         id="rect151" />
    </clipPath>
    <clipPath
       id="clipPath153">
      <rect
         color="#bebebe"
         width="22"
         x="433"
         y="77"
         rx="5"
         height="22"
         id="rect155" />
    </clipPath>
    <clipPath
       id="clipPath157">
      <rect
         color="#bebebe"
         fill="url(#V)"
         width="60"
         x="306"
         y="142"
         rx="12.5"
         height="60"
         transform="matrix(0-1 1 0 0 0)"
         id="rect159" />
    </clipPath>
    <clipPath
       id="clipPath161">
      <path
         d="m152 204a8 8 0 1 1 -16 0 8 8 0 1 1 16 0"
         id="path163" />
    </clipPath>
    <clipPath
       id="clipPath165">
      <rect
         color="#bebebe"
         fill="url(#U)"
         width="90"
         x="307"
         y="31"
         rx="18.75"
         height="90"
         id="rect167" />
    </clipPath>
    <clipPath
       id="clipPath169">
      <path
         d="m144 70c-49.706 0-90 40.29-90 90 0 49.706 40.29 90 90 90 49.706 0 90-40.29 90-90 0-49.706-40.29-90-90-90m0 32.19c32.03 0 58 25.967 58 58 0 32.03-25.967 58-58 58-32.03 0-58-25.967-58-58 0-32.03 25.967-58 58-58"
         id="path171" />
    </clipPath>
    <clipPath
       id="clipPath173">
      <rect
         color="#bebebe"
         fill="#6d6d6d"
         opacity=".2"
         width="30"
         x="433"
         y="29"
         rx="4"
         height="30"
         id="rect175" />
    </clipPath>
    <clipPath
       id="clipPath177">
      <rect
         color="#bebebe"
         fill="#6d6d6d"
         opacity=".2"
         width="22"
         x="433"
         y="77"
         rx="3"
         height="22"
         id="rect179" />
    </clipPath>
    <clipPath
       id="clipPath181">
      <rect
         rx="50"
         color="#bebebe"
         fill="url(#9)"
         width="220"
         height="220"
         x="34"
         y="46"
         id="rect183" />
    </clipPath>
    <clipPath
       id="clipPath185">
      <rect
         rx="18"
         color="#bebebe"
         fill="url(#B)"
         y="32"
         x="292"
         height="88"
         width="88"
         id="rect187" />
    </clipPath>
    <clipPath
       id="clipPath189">
      <use
         xlink:href="#F"
         id="use191" />
    </clipPath>
    <clipPath
       id="clipPath193">
      <rect
         rx="5"
         color="#bebebe"
         fill="url(#C)"
         width="22"
         height="22"
         x="417"
         y="101"
         id="rect195" />
    </clipPath>
    <clipPath
       id="clipPath197">
      <use
         transform="matrix(8 0 0 8-2141.58-54.42)"
         xlink:href="#E"
         id="use199" />
    </clipPath>
    <clipPath
       id="clipPath201">
      <use
         xlink:href="#E"
         id="use203" />
    </clipPath>
    <clipPath
       id="clipPath205">
      <rect
         rx="7"
         color="#bebebe"
         fill="url(#D)"
         y="53"
         x="417"
         height="30"
         width="30"
         id="rect207" />
    </clipPath>
    <clipPath
       id="clipPath209">
      <rect
         rx="12.5"
         color="#bebebe"
         fill="url(#A)"
         width="60"
         height="60"
         x="290"
         y="142"
         id="rect211" />
    </clipPath>
    <clipPath
       id="clipPath213">
      <path
         transform="matrix(15.33333 0 0 11.5 415-125.5)"
         d="m-24 13c0 1.105-.672 2-1.5 2-.828 0-1.5-.895-1.5-2 0-1.105.672-2 1.5-2 .828 0 1.5.895 1.5 2"
         fill="#1890d0"
         id="path215" />
    </clipPath>
    <clipPath
       id="clipPath217">
      <path
         d="m489.22 197.28c-2.603 0-3.953-1.367-3.953-3.971v-1.034c0-2.604 1.35-3.971 3.953-3.971h1.035c2.62 0 3.97 1.367 3.97 3.971v1.034c0 2.604-1.35 3.971-3.97 3.971h-1.035"
         id="path219" />
    </clipPath>
    <clipPath
       id="clipPath221">
      <rect
         rx="50"
         color="#bebebe"
         fill="url(#9)"
         width="220"
         height="220"
         x="34"
         y="46"
         id="rect223" />
    </clipPath>
    <clipPath
       id="clipPath225">
      <rect
         rx="9"
         color="#bebebe"
         fill="url(#5)"
         transform="matrix(0 1-1 0 0 0)"
         width="42"
         height="42"
         x="307"
         y="223"
         id="rect227" />
    </clipPath>
    <clipPath
       id="clipPath229">
      <rect
         rx="6"
         color="#bebebe"
         fill="url(#7)"
         y="37"
         x="433"
         height="30"
         width="30"
         id="rect231" />
    </clipPath>
    <clipPath
       id="clipPath233">
      <rect
         rx="3"
         color="#bebebe"
         fill="url(#8)"
         transform="matrix(0 1-1 0 0 0)"
         y="212"
         x="304"
         height="16"
         width="16"
         id="rect235" />
    </clipPath>
    <clipPath
       id="clipPath237">
      <rect
         rx="4"
         color="#bebebe"
         fill="url(#6)"
         width="22"
         height="22"
         x="433"
         y="85"
         id="rect239" />
    </clipPath>
    <clipPath
       id="clipPath241">
      <rect
         rx="4"
         color="#bebebe"
         fill="url(#6)"
         width="22"
         height="22"
         x="433"
         y="85"
         id="rect243" />
    </clipPath>
    <clipPath
       id="clipPath245">
      <use
         xlink:href="#I"
         transform="matrix(8 0 0 8-2141.58-54.42)"
         id="use247" />
    </clipPath>
    <clipPath
       id="clipPath249">
      <use
         xlink:href="#F"
         transform="matrix(8 0 0 8-2141.58-54.42)"
         id="use251" />
    </clipPath>
    <clipPath
       id="clipPath253">
      <use
         xlink:href="#I"
         id="use255" />
    </clipPath>
    <clipPath
       id="clipPath257">
      <use
         xlink:href="#J"
         transform="matrix(8 0 0 8-2141.58-54.42)"
         id="use259" />
    </clipPath>
    <clipPath
       id="clipPath261">
      <use
         xlink:href="#K"
         id="use263" />
    </clipPath>
    <clipPath
       id="clipPath265">
      <rect
         rx="9"
         color="#bebebe"
         fill="url(#5)"
         transform="matrix(0 1-1 0 0 0)"
         width="42"
         height="42"
         x="307"
         y="223"
         id="rect267" />
    </clipPath>
    <clipPath
       id="clipPath269">
      <use
         xlink:href="#K"
         transform="matrix(8 0 0 8-2141.58-54.42)"
         id="use271" />
    </clipPath>
    <clipPath
       id="clipPath273">
      <use
         xlink:href="#L"
         id="use275" />
    </clipPath>
    <clipPath
       id="clipPath277">
      <use
         xlink:href="#J"
         id="use279" />
    </clipPath>
    <clipPath
       id="clipPath281">
      <use
         xlink:href="#H"
         transform="matrix(8 0 0 8-2141.58-54.42)"
         id="use283" />
    </clipPath>
    <clipPath
       id="clipPath285">
      <use
         xlink:href="#G"
         transform="matrix(8 0 0 8-2141.58-54.42)"
         id="use287" />
    </clipPath>
    <clipPath
       id="clipPath289">
      <use
         xlink:href="#H"
         id="use291" />
    </clipPath>
    <clipPath
       id="clipPath293">
      <use
         xlink:href="#G"
         id="use295" />
    </clipPath>
    <linearGradient
       y2="52"
       x2="0"
       y1="84"
       gradientUnits="userSpaceOnUse"
       id="D"
       xlink:href="#4" />
    <linearGradient
       id="2"
       x1="4.199"
       y1="12.926"
       x2="4.065"
       y2="-6.998"
       gradientUnits="userSpaceOnUse"
       gradientTransform="matrix(1.71427,0,0,2.0055196,15.788649,11.014925)">
      <stop
         stop-color="#3d65cb"
         id="stop299" />
      <stop
         offset="1"
         stop-color="#4571d1"
         id="stop301" />
    </linearGradient>
    <linearGradient
       y2="223"
       x2="0"
       y1="265"
       gradientUnits="userSpaceOnUse"
       id="5"
       xlink:href="#4" />
    <linearGradient
       xlink:href="#3"
       id="0"
       x1=".152"
       y1="18.836"
       x2=".021"
       y2="7.269"
       gradientUnits="userSpaceOnUse"
       gradientTransform="matrix(1.71427,0,0,1.8654359,15.788649,12.687804)" />
    <linearGradient
       xlink:href="#3"
       id="1"
       x1="5.71"
       y1="18.227"
       x2="4.751"
       y2="-6.444"
       gradientUnits="userSpaceOnUse"
       gradientTransform="matrix(1.71427,0,0,1.8654359,15.788649,12.687804)" />
    <linearGradient
       id="3">
      <stop
         stop-color="#197cf1"
         id="stop307" />
      <stop
         offset="1"
         stop-color="#59d0ff"
         id="stop309" />
    </linearGradient>
    <linearGradient
       id="4">
      <stop
         stop-color="#f96963"
         id="stop312" />
      <stop
         stop-color="#f96963"
         offset="1"
         id="stop314" />
    </linearGradient>
    <linearGradient
       y2="85"
       x2="0"
       y1="107"
       gradientUnits="userSpaceOnUse"
       id="6"
       xlink:href="#4" />
    <linearGradient
       id="U"
       xlink:href="#T"
       y1="102.25"
       y2="49.75"
       x2="0"
       gradientUnits="userSpaceOnUse" />
    <linearGradient
       id="T">
      <stop
         stop-color="#151515"
         id="stop319" />
      <stop
         stop-color="#222"
         offset="1"
         id="stop321" />
    </linearGradient>
    <linearGradient
       id="V"
       xlink:href="#T"
       y1="189.5"
       y2="154.5"
       x2="0"
       gradientUnits="userSpaceOnUse" />
    <linearGradient
       y2="28"
       x2="0"
       y1="124"
       gradientUnits="userSpaceOnUse"
       id="B"
       xlink:href="#4" />
    <linearGradient
       y2="140"
       x2="0"
       y1="204"
       gradientUnits="userSpaceOnUse"
       id="A"
       xlink:href="#4" />
    <linearGradient
       y2="37"
       x2="0"
       y1="67"
       gradientUnits="userSpaceOnUse"
       id="7"
       xlink:href="#4" />
    <linearGradient
       id="S"
       xlink:href="#T"
       y1="265"
       y2="223"
       x2="0"
       gradientUnits="userSpaceOnUse" />
    <linearGradient
       y2="100"
       x2="0"
       y1="124"
       gradientUnits="userSpaceOnUse"
       id="C"
       xlink:href="#4" />
    <linearGradient
       y2="36"
       x2="0"
       y1="276"
       gradientUnits="userSpaceOnUse"
       id="9"
       xlink:href="#4" />
    <linearGradient
       y2="212"
       x2="0"
       y1="228"
       gradientUnits="userSpaceOnUse"
       id="8"
       xlink:href="#4" />
  </defs>
  <g
     id="g3"
     transform="matrix(0.09794717,0,0,0.09794125,0.33897569,0.34045985)">
    <path
       d="m 181.955,151.63 0,242.608 L 0,394.238 0,151.63 c 15.282,-36.721 51.174,-60.651 90.978,-60.651 39.804,0 75.695,23.93 90.977,60.651 z m 212.279,-60.651 -60.652,0 0,121.304 -30.322,0 0,-121.304 0,-30.327 90.975,0 0,-60.651 -121.307,0 0,90.978 -99.175,0 c 15.427,12.975 28.075,29.499 36.216,48.983 l 2.312,5.628 0,248.647 30.325,0 0,90.976 90.976,0 0,-90.976 151.633,0 0,-242.607 C 469.931,114.909 434.036,90.979 394.234,90.979 Z"
       id="path5"
       inkscape:connector-curvature="0"
       style="fill:#006df0" />
  </g>
  <path
     style="fill:#80b3ff;fill-opacity:1"
     inkscape:connector-curvature="0"
     id="path31"
     d="m 36.264741,24.367436 q 4.981499,0 8.383164,3.40692 3.401667,3.406923 3.401667,8.226489 0,2.712011 -1.184448,4.489866 -1.153772,1.777854 -3.37099,1.777854 -2.277719,0 -3.401667,-2.199704 -1.488655,2.199704 -4.252083,2.199704 -2.490749,0 -4.191582,-1.717831 -1.700833,-1.747421 -1.700833,-4.429843 0,-2.651988 1.700833,-4.399408 1.700833,-1.747421 4.069729,-1.747421 2.339073,0 3.887375,1.777854 l 0.121855,0 0,-1.356004 2.186542,0 0,7.86466 q 0,0.783676 0.425207,1.416029 0.455886,0.633197 1.366804,0.633197 2.156718,0 2.156718,-4.308953 0,-3.97756 -2.794105,-6.719158 -2.794105,-2.742444 -6.803332,-2.742444 -4.009229,0 -6.803333,2.742444 -2.794103,2.742445 -2.794103,6.719158 0,3.977559 2.794103,6.71916 2.794104,2.742443 6.803333,2.742443 2.156717,0 3.85755,-0.8437 l 0.850417,2.049227 q -2.126041,0.964589 -4.707967,0.964589 -5.041999,0 -8.474342,-3.374796 -3.434046,-3.406921 -3.434046,-8.256077 0,-4.821259 3.434046,-8.226489 3.462167,-3.406921 8.474342,-3.406921 m -2.824782,14.554233 q 1.093271,1.055045 2.61175,1.055045 1.518479,0 2.581926,-1.055045 1.09327,-1.055048 1.09327,-2.802469 0,-1.747421 -1.09327,-2.802467 -1.063447,-1.055046 -2.581926,-1.055046 -1.518479,0 -2.61175,1.055046 -1.063448,1.055046 -1.063448,2.802467 0,1.747421 1.063448,2.802469" />
</svg>
