<?xml version="1.0" encoding="UTF-8" standalone="no"?>
<svg
   xmlns:dc="http://purl.org/dc/elements/1.1/"
   xmlns:cc="http://creativecommons.org/ns#"
   xmlns:rdf="http://www.w3.org/1999/02/22-rdf-syntax-ns#"
   xmlns:svg="http://www.w3.org/2000/svg"
   xmlns="http://www.w3.org/2000/svg"
   xmlns:xlink="http://www.w3.org/1999/xlink"
   xmlns:sodipodi="http://sodipodi.sourceforge.net/DTD/sodipodi-0.dtd"
   xmlns:inkscape="http://www.inkscape.org/namespaces/inkscape"
   viewBox="0 0 48 48"
   id="svg2"
   version="1.1"
   inkscape:version="0.91 r13725"
   sodipodi:docname="wesnoth-1.10_editor-icon.svg">
  <metadata
     id="metadata27">
    <rdf:RDF>
      <cc:Work
         rdf:about="">
        <dc:format>image/svg+xml</dc:format>
        <dc:type
           rdf:resource="http://purl.org/dc/dcmitype/StillImage" />
        <dc:title></dc:title>
      </cc:Work>
    </rdf:RDF>
  </metadata>
  <sodipodi:namedview
     pagecolor="#ffffff"
     bordercolor="#666666"
     borderopacity="1"
     objecttolerance="10"
     gridtolerance="10"
     guidetolerance="10"
     inkscape:pageopacity="0"
     inkscape:pageshadow="2"
     inkscape:window-width="1280"
     inkscape:window-height="694"
     id="namedview25"
     showgrid="false"
     inkscape:zoom="4.9166667"
     inkscape:cx="-9.1525424"
     inkscape:cy="24"
     inkscape:window-x="0"
     inkscape:window-y="0"
     inkscape:window-maximized="1"
     inkscape:current-layer="svg2" />
  <defs
     id="defs4">
    <linearGradient
       id="0"
       gradientUnits="userSpaceOnUse"
       x1="508.18"
       y1="993.03"
       x2="486.06"
       y2="1.252">
      <stop
         stop-color="#ff9300"
         id="stop7" />
      <stop
         offset="1"
         stop-color="#ffd702"
         id="stop9" />
    </linearGradient>
    <linearGradient
       id="1"
       x1="508.18"
       y1="993.03"
       x2="486.06"
       y2="1.252"
       gradientUnits="userSpaceOnUse"
       gradientTransform="matrix(0.04696,0,0,0.04696,0.14544068,0.75461017)">
      <stop
         stop-color="#212121"
         id="stop12" />
      <stop
         stop-color="#3f3f41"
         offset="1"
         id="stop14" />
    </linearGradient>
    <linearGradient
       id="2"
       x1="92.49"
       y1="-7.661"
       x2="92.15"
       y2="-28"
       gradientUnits="userSpaceOnUse"
       xlink:href="#0" />
  </defs>
  <rect
     style="fill:#ffe680"
     id="rect6"
     height="2.1873739"
     width="8.374361"
     transform="matrix(0.70710642,-0.70710714,0.70710642,0.70710714,0,0)"
     y="32.847244"
     x="-32.481121" />
  <path
     style="fill:#aa8800"
     inkscape:connector-curvature="0"
     id="path8"
     d="m 7.2740542,46.194727 c -0.2799864,0 -0.5599728,-0.107183 -0.7732437,-0.320454 L 2.1260229,41.499481 c -0.4276355,-0.427636 -0.4276355,-1.118853 0,-1.546489 L 14.703537,27.375465 c 0.427635,-0.427636 1.118852,-0.427636 1.546487,0 l 4.374788,4.374792 c 0.427635,0.427636 0.427635,1.118853 0,1.546489 L 8.0472979,45.874273 C 7.834027,46.087544 7.5540406,46.194727 7.2740542,46.194727 Z" />
  <path
     style="fill:#aa8800"
     inkscape:connector-curvature="0"
     id="path10"
     d="m 38.444415,15.024334 c -0.279986,0 -0.559972,-0.107183 -0.773243,-0.320454 l -4.374788,-4.374792 c -0.427635,-0.4276363 -0.427635,-1.118853 0,-1.5464889 l 8.202727,-8.202735 c 0.427635,-0.42763591 1.118852,-0.42763591 1.546487,0 l 4.374788,4.374792 c 0.427635,0.4276359 0.427635,1.1188531 0,1.546489 L 39.217659,14.70388 c -0.213271,0.213271 -0.493257,0.320454 -0.773244,0.320454 z" />
  <path
     style="fill:#d4aa00"
     inkscape:connector-curvature="0"
     id="path12"
     d="m 25.866901,40.726237 c -0.279986,0 -0.559973,-0.107183 -0.773244,-0.320454 -0.427635,-0.427636 -0.427635,-1.118853 0,-1.546489 L 41.819564,22.133371 38.21802,18.531823 c -0.427635,-0.427636 -0.427635,-1.118853 0,-1.546489 0.427636,-0.427636 1.118852,-0.427636 1.546488,0 l 4.374787,4.374792 c 0.427636,0.427636 0.427636,1.118853 0,1.546489 l -17.49915,17.499168 c -0.213271,0.213271 -0.493257,0.320454 -0.773244,0.320454 z" />
  <path
     style="fill:#806600"
     inkscape:connector-curvature="0"
     id="path14"
     d="M 44.139295,12.610542 35.38972,3.8609581 c -0.427635,-0.4276359 -1.118852,-0.4276359 -1.546487,0 L 9.2350527,28.469163 c -0.4276354,0.427636 -0.4276354,1.118853 0,1.546489 l 8.7495753,8.749584 c 0.21327,0.213271 0.493257,0.320454 0.773243,0.320454 0.279987,0 0.559973,-0.107183 0.773244,-0.320454 l 24.60818,-24.608205 c 0.427636,-0.427636 0.427636,-1.118853 0,-1.546489 z" />
</svg>
