<?xml version="1.0" encoding="UTF-8" standalone="no"?>
<svg
   xmlns:dc="http://purl.org/dc/elements/1.1/"
   xmlns:cc="http://creativecommons.org/ns#"
   xmlns:rdf="http://www.w3.org/1999/02/22-rdf-syntax-ns#"
   xmlns:svg="http://www.w3.org/2000/svg"
   xmlns="http://www.w3.org/2000/svg"
   xmlns:sodipodi="http://sodipodi.sourceforge.net/DTD/sodipodi-0.dtd"
   xmlns:inkscape="http://www.inkscape.org/namespaces/inkscape"
   viewBox="0 0 48 48"
   id="svg2"
   version="1.1"
   inkscape:version="0.91 r13725"
   sodipodi:docname="wordview.svg">
  <metadata
     id="metadata33">
    <rdf:RDF>
      <cc:Work
         rdf:about="">
        <dc:format>image/svg+xml</dc:format>
        <dc:type
           rdf:resource="http://purl.org/dc/dcmitype/StillImage" />
        <dc:title></dc:title>
      </cc:Work>
    </rdf:RDF>
  </metadata>
  <sodipodi:namedview
     pagecolor="#ffffff"
     bordercolor="#666666"
     borderopacity="1"
     objecttolerance="10"
     gridtolerance="10"
     guidetolerance="10"
     inkscape:pageopacity="0"
     inkscape:pageshadow="2"
     inkscape:window-width="1280"
     inkscape:window-height="694"
     id="namedview31"
     showgrid="false"
     inkscape:zoom="4.9166667"
     inkscape:cx="-11.59322"
     inkscape:cy="24"
     inkscape:window-x="0"
     inkscape:window-y="0"
     inkscape:window-maximized="1"
     inkscape:current-layer="svg2" />
  <defs
     id="defs4">
    <linearGradient
       gradientUnits="userSpaceOnUse"
       y2="-314.9"
       x2="488.29"
       y1="1133.61"
       x1="506.06"
       id="0">
      <stop
         stop-color="#0c7eed"
         id="stop7" />
      <stop
         offset="1"
         stop-color="#0bb6ff"
         id="stop9" />
    </linearGradient>
  </defs>
  <g
     id="g4147"
     transform="matrix(1.0357607,0,0,1.0888364,-0.85842169,-2.1319382)">
    <path
       d="m 14.957,38.043 -4,-4 c -0.391,-0.391 -1.023,-0.391 -1.414,0 l -8,8 c -0.245,0.245 -0.346,0.6 -0.266,0.937 0.08,0.337 0.328,0.609 0.657,0.719 l 6,2 c 0.104,0.035 0.21,0.051 0.316,0.051 0.261,0 0.517,-0.103 0.707,-0.293 l 6,-6 c 0.391,-0.391 0.391,-1.023 0,-1.414 z"
       id="path6"
       inkscape:connector-curvature="0"
       style="fill:#80b3ff" />
    <path
       d="m 46.457,13.543 -11,-11 c -0.391,-0.391 -1.023,-0.391 -1.414,0 l -28,28 c -0.391,0.391 -0.391,1.023 0,1.414 l 11,11 c 0.195,0.195 0.451,0.293 0.707,0.293 0.256,0 0.512,-0.098 0.707,-0.293 l 28,-28 c 0.391,-0.391 0.391,-1.023 0,-1.414 z"
       id="path8"
       inkscape:connector-curvature="0"
       style="fill:#535d6c" />
    <path
       d="M 38.25,5.336 24.793,18.793 c -0.391,0.391 -0.391,1.024 0,1.414 l 4,4 c 0.391,0.391 1.024,0.391 1.414,0 L 43.664,10.75 38.25,5.336 Z"
       id="path10"
       inkscape:connector-curvature="0"
       style="fill:#80b3ff" />
  </g>
  <g
     style="fill:#80b3ff;fill-opacity:0.87300002"
     id="g25"
     transform="matrix(0.02607598,0,0,0.03751486,23.746814,18.783243)">
    <path
       inkscape:connector-curvature="0"
       id="path27"
       d="m 466.07,161.53 c -205.6,0 -382.8,121.2 -464.2,296.1 -2.5,5.3 -2.5,11.5 0,16.9 81.4,174.9 258.6,296.1 464.2,296.1 205.6,0 382.8,-121.2 464.2,-296.1 2.5,-5.3 2.5,-11.5 0,-16.9 -81.4,-174.9 -258.6,-296.1 -464.2,-296.1 m 0,514.7 c -116.1,0 -210.1,-94.1 -210.1,-210.1 0,-116.1 94.1,-210.1 210.1,-210.1 116.1,0 210.1,94.1 210.1,210.1 0,116 -94.1,210.1 -210.1,210.1"
       style="fill:#80b3ff" />
    <circle
       id="circle29"
       cx="466.07999"
       cy="466.01999"
       r="134.5"
       style="fill:#80b3ff" />
  </g>
</svg>
