<?xml version="1.0" encoding="UTF-8" standalone="no"?>
<svg
   xmlns:dc="http://purl.org/dc/elements/1.1/"
   xmlns:cc="http://creativecommons.org/ns#"
   xmlns:rdf="http://www.w3.org/1999/02/22-rdf-syntax-ns#"
   xmlns:svg="http://www.w3.org/2000/svg"
   xmlns="http://www.w3.org/2000/svg"
   xmlns:sodipodi="http://sodipodi.sourceforge.net/DTD/sodipodi-0.dtd"
   xmlns:inkscape="http://www.inkscape.org/namespaces/inkscape"
   viewBox="0 0 48 48"
   id="svg2"
   version="1.1"
   inkscape:version="0.91 r13725"
   sodipodi:docname="y-ppa-manager.svg">
  <metadata
     id="metadata19">
    <rdf:RDF>
      <cc:Work
         rdf:about="">
        <dc:format>image/svg+xml</dc:format>
        <dc:type
           rdf:resource="http://purl.org/dc/dcmitype/StillImage" />
        <dc:title></dc:title>
      </cc:Work>
    </rdf:RDF>
  </metadata>
  <sodipodi:namedview
     pagecolor="#ffffff"
     bordercolor="#666666"
     borderopacity="1"
     objecttolerance="10"
     gridtolerance="10"
     guidetolerance="10"
     inkscape:pageopacity="0"
     inkscape:pageshadow="2"
     inkscape:window-width="1280"
     inkscape:window-height="694"
     id="namedview17"
     showgrid="false"
     inkscape:zoom="4.9166667"
     inkscape:cx="-9.1525424"
     inkscape:cy="24"
     inkscape:window-x="0"
     inkscape:window-y="0"
     inkscape:window-maximized="1"
     inkscape:current-layer="svg2" />
  <defs
     id="defs4">
    <linearGradient
       id="0"
       gradientUnits="userSpaceOnUse"
       y1="12.529"
       x2="0"
       y2="-36.27"
       gradientTransform="matrix(0.99999,0,0,0.99999,11.629,35.722)">
      <stop
         stop-color="#0a80fd"
         id="stop7" />
      <stop
         offset="1"
         stop-color="#56c5fa"
         id="stop9" />
    </linearGradient>
  </defs>
  <path
     style="fill:#2a7fff;fill-opacity:0.85199998"
     inkscape:connector-curvature="0"
     id="path15"
     d="m 4.9243666,44.909549 c 1.4264176,-1.487363 2.9147871,-3.032336 3.3076559,-3.432109 0.3928699,-0.399773 0.7162296,-0.768122 0.7192522,-0.818748 0.00459,-0.09077 -4.1749892,-3.34133 -4.3638689,-3.391957 -0.055903,-0.01396 -0.137505,0.106493 -0.1843451,0.272335 -0.1027566,0.371842 -1.4037511,5.996588 -2.1290485,9.201752 -0.1541258,0.684327 -0.1571478,0.874612 -0.010618,0.874612 0.036271,0 1.2330035,-1.216775 2.6594211,-2.705885 m 39.4833401,2.405619 c 0.76005,-1.150437 1.184651,-3.639852 1.003326,-5.870896 -0.205501,-2.538294 -0.803871,-4.296246 -1.950746,-5.731239 -0.850712,-1.064897 -1.569966,-1.297077 -2.393479,-0.771612 -1.28438,0.818747 -2.500763,1.688122 -2.682086,1.913322 -0.539441,0.672107 -0.503175,1.76668 0.107281,3.166756 0.616502,1.414043 1.287401,2.222319 2.780305,3.348315 1.539743,1.160912 2.165311,2.04949 2.502273,3.554309 0.10879,0.483568 0.2191,0.684327 0.38078,0.689566 0.03023,1.74e-4 0.14355,-0.132678 0.252343,-0.298521 M 11.057657,36.877436 c 2.913275,-6.00008 6.62891,-13.44388 8.93777,-17.902479 0.503176,-0.972373 0.915688,-1.796359 0.915688,-1.831274 0,-0.111725 -4.333647,-3.189451 -4.448486,-3.159772 -0.116355,0.02967 -3.990643,7.564255 -6.7407275,13.110444 -0.8718666,1.763189 -2.1683339,4.259587 -2.8800314,5.560157 -0.7116975,1.300569 -1.4022392,2.560989 -1.533699,2.8019 -0.1375062,0.253131 -0.2100355,0.469601 -0.1692369,0.514991 0.1949224,0.216469 4.5633246,3.449566 4.6328325,3.426871 0.042304,-0.01396 0.6210353,-1.148691 1.2874003,-2.520838 m 28.310749,-2.131537 c 1.125722,-0.740191 2.113938,-1.417535 2.197046,-1.506567 0.146571,-0.158864 0.142038,-0.179812 -0.273499,-1.009033 -0.232699,-0.466111 -0.800848,-1.604328 -1.260202,-2.529565 -0.459355,-0.925238 -0.888489,-1.695107 -0.953463,-1.709072 -0.172259,-0.0384 -4.425821,2.828085 -4.456042,3.002659 -0.02418,0.144897 2.210644,4.696018 2.458453,5.006758 0.07102,0.08903 0.155637,0.146642 0.185858,0.125688 0.03023,-0.01921 0.97764,-0.640684 2.103361,-1.380874 m 8.476905,-4.809491 c 0.03173,-0.06633 0.04987,-1.464669 0.0408,-3.110895 l -0.01661,-2.992183 -4.78696,-0.0227 c -4.178011,-0.02095 -4.783935,-0.0069 -4.762781,0.109981 0.0136,0.07332 0.679966,1.483871 1.480814,3.133588 l 1.455127,3.000914 0.315806,0.02618 c 0.173768,0.01396 1.642495,0.01396 3.265346,0 2.333037,-0.02095 2.963138,-0.05237 3.00847,-0.146644 M 32.707764,29.807211 c 0.01209,-0.04539 -0.593836,-1.366908 -1.349354,-2.938067 l -1.373531,-2.854272 -5.837126,0 -5.837129,0 -1.378062,2.88395 c -0.75854,1.585125 -1.361443,2.915372 -1.34029,2.955524 0.0544,0.102992 17.086781,0.05587 17.115492,-0.04714 M 7.6321409,29.313181 c 0.155637,-0.312485 0.8008492,-1.600836 1.4324616,-2.863001 0.6316123,-1.262164 1.1498965,-2.337534 1.1498965,-2.388161 0,-0.06284 -1.6122731,-0.08554 -4.9002851,-0.06983 l -4.90028563,0.0227 -0.0256879,0.637191 c -0.0135999,0.350893 -1.5107e-4,1.670667 0.0287105,2.932831 l 0.0543973,2.295638 3.43760398,0 3.4376038,0 z M 36.508016,28.154015 c 1.9991,-1.270892 1.967368,-1.248197 1.967368,-1.410553 0,-0.158862 -1.053192,-2.309602 -4.628299,-9.456627 C 29.916883,9.4327871 28.185237,5.9692537 27.03534,3.6613975 25.902063,1.3867083 25.633099,0.96249564 25.146546,0.6744498 24.762744,0.44925041 24.150774,0.41433577 23.754883,0.5941462 23.377124,0.76697364 22.048925,1.660788 21.696853,1.9785109 21.133237,2.4882645 20.91867,3.4955531 21.207277,4.2898603 c 0.155637,0.4277051 0.04987,0.2147254 3.76701,7.6305937 5.853751,11.675456 8.86222,17.562063 9.048076,17.706959 0.04533,0.03492 0.26141,-0.05062 0.477487,-0.192031 0.216079,-0.141406 1.119679,-0.717496 2.008166,-1.281367 M 22.050436,14.717117 c 0.932309,-1.796358 1.068302,-2.110591 1.12572,-2.592412 0.119371,-1.000304 -0.336961,-1.668919 -1.775466,-2.6116152 -0.815959,-0.534194 -0.947419,-0.591802 -1.426417,-0.6232255 -0.652766,-0.041898 -0.976128,0.1152191 -1.426417,0.7017843 -0.33696,0.4381774 -1.640982,3.1196224 -1.637961,3.3692614 1.52e-4,0.08903 0.811425,0.717495 2.144159,1.661938 1.178608,0.834459 2.168334,1.520532 2.198555,1.524023 0.03023,1.75e-4 0.388336,-0.640683 0.797827,-1.428009" />
</svg>
