<?xml version="1.0" encoding="UTF-8" standalone="no"?>
<svg
   xmlns:dc="http://purl.org/dc/elements/1.1/"
   xmlns:cc="http://creativecommons.org/ns#"
   xmlns:rdf="http://www.w3.org/1999/02/22-rdf-syntax-ns#"
   xmlns:svg="http://www.w3.org/2000/svg"
   xmlns="http://www.w3.org/2000/svg"
   xmlns:sodipodi="http://sodipodi.sourceforge.net/DTD/sodipodi-0.dtd"
   xmlns:inkscape="http://www.inkscape.org/namespaces/inkscape"
   viewBox="0 0 48 48"
   id="svg2"
   version="1.1"
   inkscape:version="0.91 r13725"
   sodipodi:docname="drive-harddisk.svg">
  <metadata
     id="metadata108">
    <rdf:RDF>
      <cc:Work
         rdf:about="">
        <dc:format>image/svg+xml</dc:format>
        <dc:type
           rdf:resource="http://purl.org/dc/dcmitype/StillImage" />
        <dc:title></dc:title>
      </cc:Work>
    </rdf:RDF>
  </metadata>
  <sodipodi:namedview
     pagecolor="#ffffff"
     bordercolor="#666666"
     borderopacity="1"
     objecttolerance="10"
     gridtolerance="10"
     guidetolerance="10"
     inkscape:pageopacity="0"
     inkscape:pageshadow="2"
     inkscape:window-width="1280"
     inkscape:window-height="694"
     id="namedview106"
     showgrid="false"
     inkscape:zoom="4.9166667"
     inkscape:cx="-24.186824"
     inkscape:cy="24"
     inkscape:window-x="0"
     inkscape:window-y="0"
     inkscape:window-maximized="1"
     inkscape:current-layer="svg2" />
  <defs
     id="defs4">
    <clipPath
       id="clipPath6">
      <path
         d="m596.51 511.71c-7.452 6.109-22.261 15.989-32.626 11.818-5.793-2.332-8.254-7.974-1.48-7.577 13.816.809 20.506 2.306 34.11-4.241"
         id="path8" />
    </clipPath>
    <clipPath
       id="6">
      <path
         d="m596.5 511.72c-6.962 6.661-20.973 17.643-31.626 14.277-5.954-1.882-8.839-7.319-2.055-7.441 13.837-.25 20.622.731 33.681-6.836"
         id="path11" />
    </clipPath>
    <clipPath
       id="7">
      <path
         d="m556.75 546.2h27.01v-29.575h-27.01v29.575"
         id="path14" />
    </clipPath>
    <clipPath
       id="clipPath16">
      <path
         d="m556.74 544.61h28.84v-27.979h-28.84v27.979"
         id="path18" />
    </clipPath>
    <clipPath
       id="clipPath20">
      <path
         d="m548.84 543.24h11.247v-38.495h-11.247v38.495"
         id="path22" />
    </clipPath>
    <clipPath
       id="8">
      <path
         d="m556.75 516.63c2.252 9.368 8.092 26.19 18.874 29.12 6.02 1.639 11.393-1.373 5.753-5.147-11.502-7.696-17.738-10.542-24.627-23.971"
         id="path25" />
    </clipPath>
    <clipPath
       id="clipPath27">
      <path
         d="m558.32 524.53h38.19v-12.815h-38.19v12.815"
         id="path29" />
    </clipPath>
    <clipPath
       id="4">
      <path
         d="m0 792h612v-792h-612v792"
         id="path32" />
    </clipPath>
    <clipPath
       id="9">
      <path
         d="m547.05 542.87h13.05v-38.14h-13.05v38.14"
         id="path35" />
    </clipPath>
    <clipPath
       id="5">
      <path
         d="m558.89 526.62h37.604v-14.904h-37.604v14.904"
         id="path38" />
    </clipPath>
    <linearGradient
       id="1"
       gradientUnits="userSpaceOnUse"
       gradientTransform="matrix(0.84234735,0,0,1.6667047,-355.0276,-862.47207)"
       y1="544.31"
       x2="0"
       y2="542.96">
      <stop
         stop-color="#0a80fd"
         id="stop41" />
      <stop
         offset="1"
         stop-color="#56c5fa"
         id="stop43" />
    </linearGradient>
    <linearGradient
       id="2"
       gradientUnits="userSpaceOnUse"
       gradientTransform="matrix(0.41402972,0,0,0.40713416,-3.4956098,-0.5924098)"
       x1="10.09"
       x2="122.72">
      <stop
         stop-color="#1a1a1a"
         id="stop46" />
      <stop
         offset=".111"
         stop-color="#2c2c2e"
         id="stop48" />
      <stop
         offset=".29"
         stop-color="#2b2b2d"
         id="stop50" />
      <stop
         offset=".512"
         stop-color="#2a2b2d"
         id="stop52" />
      <stop
         offset=".752"
         stop-color="#2b2b2d"
         id="stop54" />
      <stop
         offset=".897"
         stop-color="#323232"
         id="stop56" />
      <stop
         offset="1"
         stop-color="#171717"
         id="stop58" />
    </linearGradient>
    <linearGradient
       gradientUnits="userSpaceOnUse"
       y2="-31.865"
       x2="-61.694"
       y1="-.386"
       x1="-61.865"
       id="3"
       gradientTransform="matrix(1.1827731,0,0,1.1827731,96.413234,39.155863)">
      <stop
         stop-color="#bbbec4"
         id="stop61" />
      <stop
         offset="1"
         stop-color="#dddfe2"
         id="stop63" />
    </linearGradient>
    <linearGradient
       id="0"
       gradientUnits="userSpaceOnUse"
       y1="5.383"
       x2="0"
       y2="2.392"
       gradientTransform="matrix(1.1827731,0,0,1.1827731,96.413234,39.155863)">
      <stop
         stop-color="#040404"
         id="stop66" />
      <stop
         offset="1"
         stop-color="#121212"
         stop-opacity=".908"
         id="stop68" />
    </linearGradient>
  </defs>
  <path
     d="m 44.546446,32.867267 c 1.126092,0 2.173533,0.364003 3.042845,0.985609 L 41.592766,3.6206727 C 41.241968,1.8517746 39.572796,0.41854159 37.863894,0.41854159 l -27.322925,0 c -1.7081948,0 -3.3781757,1.43387461 -3.7288727,3.20213111 L 0.81627963,33.852876 C 1.6855917,33.230521 2.7329312,32.867267 3.8590234,32.867267 l 40.6874226,0 0,0 z"
     id="path7"
     inkscape:connector-curvature="0"
     style="fill:#b7bec8" />
  <path
     d="m 3.85963,47.988234 40.687524,0 c 1.981655,0 3.588452,-1.699712 3.588452,-3.79572 l 0,-5.56665 c 0,-0.745436 -0.206031,-1.437939 -0.55693,-2.024256 -0.635986,-1.063456 -1.754597,-1.77093 -3.031522,-1.77093 l -40.687524,0 c -1.2769253,0 -2.3955365,0.708008 -3.0316234,1.77093 -0.35079809,0.586317 -0.55682878,1.279462 -0.55682878,2.024256 l 0,5.56665 c 0,2.09665 1.60679678,3.79572 3.58845218,3.79572 z m 38.079688,-7.096872 -7.816024,0 c -0.512852,0 -0.928048,-0.438963 -0.928048,-0.981652 0,-0.542368 0.415095,-0.981652 0.928048,-0.981652 l 7.816024,0 c 0.512853,0 0.928048,0.439177 0.928048,0.981652 0,0.542582 -0.415801,0.981652 -0.928048,0.981652 z"
     id="path9"
     inkscape:connector-curvature="0"
     style="fill:#373e48" />
  <path
     style="fill:#0b1728;stroke:#909296;stroke-width:0.10741489"
     inkscape:connector-curvature="0"
     id="path54"
     d="m 47.069207,28.366889 -4.831957,-0.0055 c -0.184094,6.5e-5 -0.360396,0.03944 -0.490555,0.110185 -0.130263,0.07079 -0.203473,0.166532 -0.204223,0.266984 l -0.0071,2.635799 c -0.0015,0.20876 0.308492,0.378412 0.691387,0.378352 l 0.673615,4.48e-4 -0.0066,2.008252 -5.121937,1.872317 0.02268,-7.673061 1.781401,0.0018 c 0.191094,1.9e-4 0.3688,-0.05405 0.467784,-0.142839 0.09979,-0.08923 0.10732,-0.199893 0.01975,-0.292603 l -3.514101,-3.713195 c -0.09405,-0.09873 -0.281582,-0.16108 -0.485923,-0.161476 -0.204594,2.37e-4 -0.391892,0.06177 -0.486271,0.160732 l -3.536442,3.705992 c -0.08776,0.09229 -0.08164,0.203433 0.01717,0.292557 0.09926,0.08943 0.2768,0.143606 0.467793,0.143796 l 1.78301,0.0018 -0.03192,10.627851 -5.513941,-2.031198 0.0047,-1.594823 c 0.85555,-0.307678 1.421277,-0.835037 1.423102,-1.435472 0.0037,-0.952717 -1.409726,-1.726152 -3.158537,-1.72753 -1.745284,-0.0022 -3.161838,0.769007 -3.165512,1.721752 -0.0025,0.600846 0.561133,1.129324 1.415109,1.438562 l -0.0062,2.099695 c -0.0013,0.316684 0.286092,0.612394 0.76794,0.789303 l 8.226663,3.029983 -0.01019,3.277518 c -1.160063,0.339076 -1.95888,0.998711 -1.961152,1.767116 -0.0025,1.113768 1.649015,2.018437 3.691164,2.020874 2.04457,0.002 3.702467,-0.899056 3.705761,-2.01318 0.0027,-0.768267 -0.792342,-1.428467 -1.950344,-1.770364 l 0.01893,-6.232336 7.841205,-2.866236 c 0.09409,-0.03446 0.181239,-0.07354 0.259988,-0.116347 0.323881,-0.176027 0.511659,-0.417015 0.512261,-0.671676 l 0.0074,-2.513701 0.674119,6.69e-4 c 0.184094,-6.4e-5 0.359945,-0.03969 0.490203,-0.110487 0.13016,-0.07074 0.203123,-0.166725 0.203722,-0.26715 l 0.0066,-2.63514 c 0.0011,-0.20898 -0.308139,-0.378219 -0.691235,-0.378379 z" />
</svg>
