<?xml version="1.0" encoding="UTF-8" standalone="no"?>
<svg
   xmlns:dc="http://purl.org/dc/elements/1.1/"
   xmlns:cc="http://creativecommons.org/ns#"
   xmlns:rdf="http://www.w3.org/1999/02/22-rdf-syntax-ns#"
   xmlns:svg="http://www.w3.org/2000/svg"
   xmlns="http://www.w3.org/2000/svg"
   xmlns:sodipodi="http://sodipodi.sourceforge.net/DTD/sodipodi-0.dtd"
   xmlns:inkscape="http://www.inkscape.org/namespaces/inkscape"
   viewBox="0 0 48 48"
   id="svg2"
   version="1.1"
   inkscape:version="0.91 r13725"
   sodipodi:docname="media-optical-video.svg">
  <metadata
     id="metadata26">
    <rdf:RDF>
      <cc:Work
         rdf:about="">
        <dc:format>image/svg+xml</dc:format>
        <dc:type
           rdf:resource="http://purl.org/dc/dcmitype/StillImage" />
        <dc:title></dc:title>
      </cc:Work>
    </rdf:RDF>
  </metadata>
  <sodipodi:namedview
     pagecolor="#ffffff"
     bordercolor="#666666"
     borderopacity="1"
     objecttolerance="10"
     gridtolerance="10"
     guidetolerance="10"
     inkscape:pageopacity="0"
     inkscape:pageshadow="2"
     inkscape:window-width="1280"
     inkscape:window-height="694"
     id="namedview24"
     showgrid="false"
     inkscape:zoom="4.9166667"
     inkscape:cx="-14.960657"
     inkscape:cy="24"
     inkscape:window-x="0"
     inkscape:window-y="0"
     inkscape:window-maximized="1"
     inkscape:current-layer="svg2" />
  <defs
     id="defs4">
    <linearGradient
       y2="506.8"
       x2="408.57"
       y1="544.88"
       x1="408.26"
       gradientTransform="matrix(1.52928 0 0 1.52941-592.82-769.1)"
       gradientUnits="userSpaceOnUse"
       id="0">
      <stop
         stop-color="#fa345d"
         id="stop7" />
      <stop
         offset="1"
         stop-color="#f76a8d"
         id="stop9" />
    </linearGradient>
    <linearGradient
       id="1"
       gradientUnits="userSpaceOnUse"
       y1="41"
       x2="0"
       y2="23">
      <stop
         stop-color="#ffb0d4"
         id="stop12" />
      <stop
         offset="1"
         stop-color="#fbf6fa"
         id="stop14" />
    </linearGradient>
  </defs>
  <path
     transform="matrix(.92308 0 0 .92308-5.534-5.541)"
     d="m32 6c-14.403 0-25.998 11.596-25.998 26 0 14.404 11.595 26 25.998 26 14.403 0 25.998-11.596 25.998-26 0-14.404-11.595-26-25.998-26m0 23c1.662 0 3 1.338 3 3 0 1.662-1.338 3-3 3-1.662 0-3-1.338-3-3 0-1.662 1.338-3 3-3z"
     fill="url(#0)"
     id="path16"
     style="fill:#ff80b2" />
  <path
     d="m 47.225964,24.199576 -1.232592,0 c -0.292807,0 -0.529988,0.224727 -0.529988,0.501959 l 0,0.624687 c 0,0.277331 -0.237272,0.501958 -0.529989,0.501958 l -1.14928,0 c -0.292806,0 -0.529988,-0.224752 -0.529988,-0.501958 l 0,-0.624687 c 0,-0.277332 -0.237241,-0.501959 -0.529988,-0.501959 l -13.837724,0 c -0.292806,0 -0.529988,0.224727 -0.529988,0.501959 l 0,0.624687 c 0,0.277331 -0.237271,0.501958 -0.529988,0.501958 l -1.14928,0 c -0.292806,0 -0.529988,-0.224752 -0.529988,-0.501958 l 0,-0.624687 c 0,-0.277332 -0.237271,-0.501959 -0.529988,-0.501959 l -1.191148,0 c -0.292807,0 -0.529989,0.224727 -0.529989,0.501959 l 0,22.588121 c 0,0.277331 0.237272,0.501958 0.529989,0.501958 l 1.191148,0 c 0.292806,0 0.529988,-0.224727 0.529988,-0.501958 l 0,-0.458916 c 0,-0.277331 0.237271,-0.501958 0.529988,-0.501958 l 1.14928,0 c 0.292807,0 0.529988,0.224727 0.529988,0.501958 l 0,0.458916 c 0,0.277331 0.237272,0.501958 0.529988,0.501958 l 13.837724,0 c 0.292806,0 0.529988,-0.224727 0.529988,-0.501958 l 0,-0.458916 c 0,-0.277331 0.237271,-0.501958 0.529988,-0.501958 l 1.14928,0 c 0.292807,0 0.529989,0.224727 0.529989,0.501958 l 0,0.458916 c 0,0.277331 0.23727,0.501958 0.529988,0.501958 l 1.232592,0 c 0.292806,0 0.529988,-0.224727 0.529988,-0.501958 l 0,-22.588121 c 0,-0.277081 -0.237272,-0.501959 -0.529988,-0.501959 M 28.356269,43.408765 c 0,0.277332 -0.237271,0.501959 -0.529988,0.501959 l -1.14928,0 c -0.292807,0 -0.529988,-0.224727 -0.529988,-0.501959 l 0,-1.088496 c 0,-0.277081 0.237271,-0.501958 0.529988,-0.501958 l 1.14928,0 c 0.292807,0 0.529988,0.224752 0.529988,0.501958 l 0,1.088496 m 0,-4.510597 c 0,0.277082 -0.237271,0.501958 -0.529988,0.501958 l -1.14928,0 c -0.292807,0 -0.529988,-0.224751 -0.529988,-0.501958 l 0,-1.088496 c 0,-0.277081 0.237271,-0.501958 0.529988,-0.501958 l 1.14928,0 c 0.292807,0 0.529988,0.224752 0.529988,0.501958 l 0,1.088496 m 0,-4.510596 c 0,0.277332 -0.237271,0.501958 -0.529988,0.501958 l -1.14928,0 c -0.292807,0 -0.529988,-0.224702 -0.529988,-0.501958 l 0,-1.088497 c 0,-0.277332 0.237271,-0.501958 0.529988,-0.501958 l 1.14928,0 c 0.292807,0 0.529988,0.224727 0.529988,0.501958 l 0,1.088497 m 0,-4.510597 c 0,0.277332 -0.237271,0.501958 -0.529988,0.501958 l -1.14928,0 c -0.292807,0 -0.529988,-0.224727 -0.529988,-0.501958 l 0,-1.088496 c 0,-0.277081 0.237271,-0.501959 0.529988,-0.501959 l 1.14928,0 c 0.292807,0 0.529988,0.224752 0.529988,0.501959 l 0,1.088496 m 12.606295,15.260786 c 0,0.277332 -0.237271,0.501958 -0.529988,0.501958 l -9.213046,0 c -0.292806,0 -0.529988,-0.224702 -0.529988,-0.501958 l 0,-4.033737 c 0,-0.277332 0.237271,-0.501958 0.529988,-0.501958 l 9.213046,0 c 0.292807,0 0.529988,0.224726 0.529988,0.501958 l 0,4.033737 m 0,-7.125548 c 0,0.277331 -0.237271,0.501958 -0.529988,0.501958 l -9.213046,0 c -0.292806,0 -0.529988,-0.224727 -0.529988,-0.501958 l 0,-4.033737 c 0,-0.277332 0.237271,-0.501958 0.529988,-0.501958 l 9.213046,0 c 0.292807,0 0.529988,0.224752 0.529988,0.501958 l 0,4.033737 m 0,-7.125549 c 0,0.277332 -0.237271,0.501958 -0.529988,0.501958 l -9.213046,0 c -0.292806,0 -0.529988,-0.224726 -0.529988,-0.501958 l 0,-4.033736 c 0,-0.277332 0.237271,-0.501959 0.529988,-0.501959 l 9.213046,0 c 0.292807,0 0.529988,0.224752 0.529988,0.501959 l 0,4.033736 m 4.500924,12.52185 c 0,0.277332 -0.237271,0.501958 -0.529988,0.501958 l -1.149278,0 c -0.292806,0 -0.529988,-0.224726 -0.529988,-0.501958 l 0,-1.088496 c 0,-0.277081 0.237272,-0.501958 0.529988,-0.501958 l 1.149278,0 c 0.292806,0 0.529988,0.224751 0.529988,0.501958 l 0,1.088496 m 0,-4.510596 c 0,0.27708 -0.237271,0.501958 -0.529988,0.501958 l -1.149278,0 c -0.292806,0 -0.529988,-0.224752 -0.529988,-0.501958 l 0,-1.088497 c 0,-0.277081 0.237272,-0.501958 0.529988,-0.501958 l 1.149278,0 c 0.292806,0 0.529988,0.224751 0.529988,0.501958 l 0,1.088497 m 0,-4.510597 c 0,0.277332 -0.237271,0.501958 -0.529988,0.501958 l -1.149278,0 c -0.292806,0 -0.529988,-0.224701 -0.529988,-0.501958 l 0,-1.088497 c 0,-0.277332 0.237272,-0.501958 0.529988,-0.501958 l 1.149278,0 c 0.292806,0 0.529988,0.224727 0.529988,0.501958 l 0,1.088497 m 0,-4.510597 c 0,0.277332 -0.237271,0.501958 -0.529988,0.501958 l -1.149278,0 c -0.292806,0 -0.529988,-0.224726 -0.529988,-0.501958 l 0,-1.088496 c 0,-0.277081 0.237272,-0.501959 0.529988,-0.501959 l 1.149278,0 c 0.292806,0 0.529988,0.224752 0.529988,0.501959 l 0,1.088496"
     id="path22"
     inkscape:connector-curvature="0"
     style="fill:#ffd5e5;fill-opacity:1;stroke:none;stroke-opacity:0.8" />
</svg>
