<?xml version="1.0" encoding="UTF-8" standalone="no"?>
<svg
   xmlns:dc="http://purl.org/dc/elements/1.1/"
   xmlns:cc="http://creativecommons.org/ns#"
   xmlns:rdf="http://www.w3.org/1999/02/22-rdf-syntax-ns#"
   xmlns:svg="http://www.w3.org/2000/svg"
   xmlns="http://www.w3.org/2000/svg"
   xmlns:sodipodi="http://sodipodi.sourceforge.net/DTD/sodipodi-0.dtd"
   xmlns:inkscape="http://www.inkscape.org/namespaces/inkscape"
   viewBox="0 0 48 48"
   id="svg2"
   version="1.1"
   inkscape:version="0.91 r13725"
   sodipodi:docname="Adobeillustrator.svg">
  <metadata
     id="metadata19">
    <rdf:RDF>
      <cc:Work
         rdf:about="">
        <dc:format>image/svg+xml</dc:format>
        <dc:type
           rdf:resource="http://purl.org/dc/dcmitype/StillImage" />
        <dc:title></dc:title>
      </cc:Work>
    </rdf:RDF>
  </metadata>
  <sodipodi:namedview
     pagecolor="#ffffff"
     bordercolor="#666666"
     borderopacity="1"
     objecttolerance="10"
     gridtolerance="10"
     guidetolerance="10"
     inkscape:pageopacity="0"
     inkscape:pageshadow="2"
     inkscape:window-width="1280"
     inkscape:window-height="694"
     id="namedview17"
     showgrid="false"
     inkscape:zoom="4.9166667"
     inkscape:cx="-45.661017"
     inkscape:cy="24"
     inkscape:window-x="0"
     inkscape:window-y="0"
     inkscape:window-maximized="1"
     inkscape:current-layer="svg2" />
  <defs
     id="defs4">
    <linearGradient
       id="0"
       gradientUnits="userSpaceOnUse"
       x1="25.02"
       y1="58.78"
       x2="25.22"
       y2="-.203">
      <stop
         stop-color="#fd8c00"
         id="stop7" />
      <stop
         stop-color="#ffc645"
         offset="1"
         id="stop9" />
    </linearGradient>
  </defs>
  <path
     style="fill:#a02c2c;fill-rule:evenodd"
     inkscape:connector-curvature="0"
     id="path15"
     d="m 5.6545486,45.696362 15.4090184,0 0,1.993648 5.602701,0 0,-1.993648 15.475794,0 0,2.252791 5.602701,0 0,-5.580305 -2.066832,0 0,-15.607366 2.001647,0 0,-5.580306 -2.001647,0 0,-14.4881251 2.066832,0 0,-5.5803051 -5.602701,0 0,1.135139 -15.475794,0 0,-1.99364751 -5.602701,0 0,1.99364751 -15.4090184,0 0,-1.39587124 -5.60270114,0 0,5.58030514 2.00164614,0 0,14.7488573 -2.00164614,0 0,5.580306 2.00164614,0 0,15.346634 -2.00164614,0 0,5.580305 5.60270114,0 0,-1.993648 m -1.6057681,0 0,0.399048 -2.4022942,0 0,-2.392696 0.400648,0 1.6057682,0 0.4006468,0 0,0.399048 0,1.58983 M 22.664567,2.2399355 l 0,-0.3990473 2.402293,0 0,0.3990473 0,0.8346611 0,0.7599389 0,0.3990475 -2.402293,0 0,-0.3990475 0,-0.7599389 0,-0.8346611 m 2.402293,43.4500675 0,0.399048 -2.402293,0 0,-0.399048 0,-0.83466 0,-0.75994 0,-0.399048 2.402293,0 0,0.399048 0,0.75994 0,0.83466 m 0.267097,-20.82678 c 0.155808,0.155804 0.155808,0.406998 0,0.5628 -0.0795,0.07791 -0.179655,0.116056 -0.282997,0.116056 -0.101753,0 -0.205093,-0.03816 -0.282997,-0.116056 l -0.899865,-0.896664 -0.899866,0.896664 c -0.0795,0.07791 -0.179656,0.116056 -0.282997,0.116056 -0.103341,0 -0.205094,-0.03816 -0.282997,-0.116056 -0.155808,-0.155802 -0.155808,-0.406996 0,-0.5628 l 0.899866,-0.896664 -0.899866,-0.896664 c -0.155808,-0.154213 -0.155808,-0.408586 0,-0.5628 0.155807,-0.154213 0.410186,-0.154213 0.565994,0 l 0.901456,0.896664 0.899866,-0.896664 c 0.155807,-0.154213 0.408596,-0.154213 0.565993,0 0.155807,0.154214 0.155807,0.408587 0,0.5628 l -0.899865,0.896664 0.901455,0.896664 m 20.811397,21.48497 -2.400704,0 0,-0.65819 0,-1.58983 0,-0.138316 0.333872,0 1.605769,0 0.467422,0 0,2.391105 m -4.003292,-3.985705 0,1.732916 -12.537714,0 c 6.987478,-1.97298 12.490018,-7.454716 14.470995,-14.419763 l 0,12.680488 -1.934872,0 m 3.936518,-17.201966 -0.400647,0 -0.837861,0 -0.763138,0 -0.400647,0 0,-2.392695 0.400647,0 0.763138,0 0.837861,0 0.400647,0 0,2.392695 M 43.7526,2.6946271 l 1.934871,0 0.467422,0 0,2.392695 -0.467422,0 -1.605769,0 -0.333872,0 0,-1.2559662 0,-1.135139 m -1.605768,1.135139 0,2.8505662 1.934871,0 0,11.5612469 C 42.095955,11.282892 36.591826,5.8027457 29.605937,3.8234068 l 12.537714,0 M 1.6512563,2.4275355 l 0.4006469,0 2.0016461,0 0,1.3958713 0,0.9968237 -0.4006468,0 -1.6057682,0 -0.400648,0 0,-2.392695 m 4.0032923,3.9857052 0,-2.5898339 12.4693494,0 C 11.13165,5.7979762 5.6291104,11.276532 3.6481324,18.243169 l 0,-11.8203894 2.0016462,0 m -4.0032923,16.3434574 0.400648,0 0.8378613,0 0.7631368,0 0.4006481,0 0,2.392695 -0.4006481,0 -0.7631368,0 -0.8378613,0 -0.400648,0 0,-2.392695 M 3.6481324,29.68041 C 5.6307008,36.640689 11.13165,42.120834 18.119128,44.100173 l -12.4693494,0 0,-1.993648 -2.0016462,0 0,-12.419756" />
</svg>
