<?xml version="1.0" encoding="UTF-8" standalone="no"?>
<svg
   xmlns:dc="http://purl.org/dc/elements/1.1/"
   xmlns:cc="http://creativecommons.org/ns#"
   xmlns:rdf="http://www.w3.org/1999/02/22-rdf-syntax-ns#"
   xmlns:svg="http://www.w3.org/2000/svg"
   xmlns="http://www.w3.org/2000/svg"
   xmlns:sodipodi="http://sodipodi.sourceforge.net/DTD/sodipodi-0.dtd"
   xmlns:inkscape="http://www.inkscape.org/namespaces/inkscape"
   viewBox="0 0 48 48"
   id="svg2"
   version="1.1"
   inkscape:version="0.91 r13725"
   sodipodi:docname="application-x-clementine.svg">
  <metadata
     id="metadata19">
    <rdf:RDF>
      <cc:Work
         rdf:about="">
        <dc:format>image/svg+xml</dc:format>
        <dc:type
           rdf:resource="http://purl.org/dc/dcmitype/StillImage" />
        <dc:title></dc:title>
      </cc:Work>
    </rdf:RDF>
  </metadata>
  <sodipodi:namedview
     pagecolor="#ffffff"
     bordercolor="#666666"
     borderopacity="1"
     objecttolerance="10"
     gridtolerance="10"
     guidetolerance="10"
     inkscape:pageopacity="0"
     inkscape:pageshadow="2"
     inkscape:window-width="1280"
     inkscape:window-height="694"
     id="namedview17"
     showgrid="false"
     inkscape:zoom="4.9166667"
     inkscape:cx="-9.1525424"
     inkscape:cy="24"
     inkscape:window-x="0"
     inkscape:window-y="0"
     inkscape:window-maximized="1"
     inkscape:current-layer="svg2" />
  <defs
     id="defs4">
    <linearGradient
       id="0"
       gradientUnits="userSpaceOnUse"
       y1="12.369"
       x2="0"
       y2="-36.429"
       gradientTransform="matrix(0.99999,0,0,0.99999,-23.371,35.882)">
      <stop
         stop-color="#ff6835"
         id="stop7" />
      <stop
         offset="1"
         stop-color="#ff956f"
         id="stop9" />
    </linearGradient>
  </defs>
  <path
     style="fill:#ff9955;fill-opacity:0.73000004"
     inkscape:connector-curvature="0"
     id="path15"
     d="m 47.317614,21.791523 c -0.330059,0.234556 -0.816564,0.246661 -1.169519,0.03481 L 34.504397,14.798701 28.988761,40.973733 c -0.02099,0.09987 -0.06488,0.189159 -0.129736,0.272389 -1.106562,3.752911 -7.143045,6.549433 -14.24221,6.549433 -7.9577026,0 -14.43299451,-3.495654 -14.43299451,-7.791826 0,-4.297688 6.47338521,-7.793342 14.43299451,-7.793342 3.268173,0 6.374176,0.579581 8.900188,1.643411 L 30.812678,1.0294568 c 0.06488,-0.29962756 0.360586,-0.5387242 0.744068,-0.59471515 0.370125,-0.0514517 0.757421,0.0832291 0.953932,0.34805212 L 47.496955,20.872967 c 0.227035,0.305681 0.150724,0.685512 -0.181249,0.920069" />
</svg>
