<?xml version="1.0" encoding="UTF-8" standalone="no"?>
<svg
   xmlns:dc="http://purl.org/dc/elements/1.1/"
   xmlns:cc="http://creativecommons.org/ns#"
   xmlns:rdf="http://www.w3.org/1999/02/22-rdf-syntax-ns#"
   xmlns:svg="http://www.w3.org/2000/svg"
   xmlns="http://www.w3.org/2000/svg"
   xmlns:xlink="http://www.w3.org/1999/xlink"
   xmlns:sodipodi="http://sodipodi.sourceforge.net/DTD/sodipodi-0.dtd"
   xmlns:inkscape="http://www.inkscape.org/namespaces/inkscape"
   viewBox="0 0 48 48"
   id="svg2"
   version="1.1"
   inkscape:version="0.91 r13725"
   sodipodi:docname="aptdaemon-download.svg">
  <metadata
     id="metadata31">
    <rdf:RDF>
      <cc:Work
         rdf:about="">
        <dc:format>image/svg+xml</dc:format>
        <dc:type
           rdf:resource="http://purl.org/dc/dcmitype/StillImage" />
        <dc:title></dc:title>
      </cc:Work>
    </rdf:RDF>
  </metadata>
  <sodipodi:namedview
     pagecolor="#ffffff"
     bordercolor="#666666"
     borderopacity="1"
     objecttolerance="10"
     gridtolerance="10"
     guidetolerance="10"
     inkscape:pageopacity="0"
     inkscape:pageshadow="2"
     inkscape:window-width="1280"
     inkscape:window-height="694"
     id="namedview29"
     showgrid="false"
     inkscape:zoom="4.9166667"
     inkscape:cx="-11.59322"
     inkscape:cy="24"
     inkscape:window-x="0"
     inkscape:window-y="0"
     inkscape:window-maximized="1"
     inkscape:current-layer="svg2" />
  <defs
     id="defs4">
    <linearGradient
       gradientUnits="userSpaceOnUse"
       y2="500.92"
       x2="0"
       y1="549.92"
       id="2"
       xlink:href="#0" />
    <linearGradient
       gradientUnits="userSpaceOnUse"
       y2="503.8"
       x2="409.57"
       y1="552.8"
       x1="408.57"
       xlink:href="#0"
       id="linearGradient7" />
    <linearGradient
       id="0">
      <stop
         stop-color="#197cf1"
         id="stop10" />
      <stop
         offset="1"
         stop-color="#59d0ff"
         id="stop12" />
    </linearGradient>
    <linearGradient
       id="1"
       x1="405.57"
       y1="543.8"
       x2="406.57"
       y2="501.8"
       gradientUnits="userSpaceOnUse">
      <stop
         stop-color="#1673db"
         id="stop15" />
      <stop
         offset="1"
         stop-color="#42d6fc"
         id="stop17" />
    </linearGradient>
  </defs>
  <path
     style="fill:#3771c8;fill-opacity:0.853;stroke:none;stroke-opacity:0.8"
     inkscape:connector-curvature="0"
     id="path27"
     d="m 46.280408,25.230624 c -1.622583,-1.306903 -4.256755,-1.306903 -5.879338,0 L 23.98505,39.778007 7.5690316,25.230624 c -1.6266318,-1.306903 -4.2567545,-1.306903 -5.8793385,0 -1.6266318,1.306902 -1.6266318,3.422533 0,4.726202 L 20.784393,46.878633 c 0.878057,0.705209 2.051495,1.015761 3.200657,0.957532 1.149163,0.05823 2.322603,-0.252323 3.20066,-0.957532 L 46.280408,29.956826 c 1.622585,-1.306904 1.622585,-3.422534 0,-4.726202 M 23.960772,11.155538 c 3.783333,0 6.850462,-2.4617661 6.850462,-5.4993447 0,-3.0375785 -3.067129,-5.49934481 -6.850462,-5.49934481 -3.783332,0 -6.850461,2.46176631 -6.850461,5.49934481 0,3.0375786 3.067129,5.4993447 6.850461,5.4993447 m 0,15.715185 c 3.783333,0 6.850462,-2.461764 6.850462,-5.499345 0,-3.037579 -3.067129,-5.499343 -6.850462,-5.499343 -3.783332,0 -6.850461,2.461764 -6.850461,5.499343 0,3.037581 3.067129,5.499345 6.850461,5.499345" />
</svg>
