<?xml version="1.0" encoding="UTF-8" standalone="no"?>
<!-- Generator: Adobe Illustrator 16.0.0, SVG Export Plug-In . SVG Version: 6.00 Build 0)  -->

<svg
   xmlns:dc="http://purl.org/dc/elements/1.1/"
   xmlns:cc="http://creativecommons.org/ns#"
   xmlns:rdf="http://www.w3.org/1999/02/22-rdf-syntax-ns#"
   xmlns:svg="http://www.w3.org/2000/svg"
   xmlns="http://www.w3.org/2000/svg"
   xmlns:sodipodi="http://sodipodi.sourceforge.net/DTD/sodipodi-0.dtd"
   xmlns:inkscape="http://www.inkscape.org/namespaces/inkscape"
   version="1.1"
   id="Capa_1"
   x="0px"
   y="0px"
   width="512px"
   height="512px"
   viewBox="0 0 424.49 424.49"
   style="enable-background:new 0 0 424.49 424.49;"
   xml:space="preserve"
   inkscape:version="0.91 r13725"
   sodipodi:docname="archive-manager.svg"><metadata
     id="metadata51"><rdf:RDF><cc:Work
         rdf:about=""><dc:format>image/svg+xml</dc:format><dc:type
           rdf:resource="http://purl.org/dc/dcmitype/StillImage" /><dc:title></dc:title></cc:Work></rdf:RDF></metadata><defs
     id="defs49" /><sodipodi:namedview
     pagecolor="#ffffff"
     bordercolor="#666666"
     borderopacity="1"
     objecttolerance="10"
     gridtolerance="10"
     guidetolerance="10"
     inkscape:pageopacity="0"
     inkscape:pageshadow="2"
     inkscape:window-width="1280"
     inkscape:window-height="694"
     id="namedview47"
     showgrid="false"
     inkscape:zoom="0.4609375"
     inkscape:cx="-97.627119"
     inkscape:cy="256"
     inkscape:window-x="0"
     inkscape:window-y="0"
     inkscape:window-maximized="1"
     inkscape:current-layer="Capa_1" /><g
     id="g3"
     transform="matrix(1,0,0,1.0989221,0,-21.895064)"><g
       id="g5"><path
         d="m 90.713,68.781 -10.76,-8.975 26.249,-31.513 10.771,8.973 -26.26,31.515 z m 34.299,-24.728 10.762,8.969 -26.261,31.512 -10.76,-8.973 26.259,-31.508 z m 193.237,-15.767 26.248,31.512 -10.764,8.975 -26.257,-31.512 10.773,-8.975 z m -18.799,15.767 26.265,31.508 -10.764,8.973 -26.265,-31.512 10.764,-8.969 z m -153.924,16.697 10.746,8.968 -26.28,31.499 -10.748,-8.975 26.282,-31.492 z m 20.803,16.839 10.756,8.98 -26.299,31.479 -10.748,-8.98 26.291,-31.479 z M 278.948,60.742 305.213,92.25 294.449,101.217 268.2,69.705 278.948,60.742 Z m -5.298,57.322 -26.265,-31.512 10.756,-8.963 26.265,31.508 -10.756,8.967 z"
         id="path7"
         inkscape:connector-curvature="0"
         style="fill:#91dc5a" /><path
         d="m 361.325,21.325 -22.117,19.791 15.938,19.122 -18.836,15.699 c 0.044,0.058 -21.452,18.005 -21.452,18.005 -0.192,-0.247 -20.494,16.681 -20.494,16.681 -0.229,-0.282 -20.774,16.847 -20.774,16.847 l -13.232,-15.865 -31.591,28.25 46.587,0 -28.021,95.607 0.729,0.452 c 10.74,6.388 17.156,17.609 17.156,29.984 l 0,48.145 c 0,10.264 -4.448,19.521 -11.514,25.937 l 0,63.185 c 0,0 11.529,0 25.756,0 14.238,0 25.768,-12.543 25.768,-27.987 l 0,-153.393 109.908,-98.262 c 11.545,-10.327 12.539,-28.014 2.22,-39.551 L 361.325,21.325 Z"
         id="path9"
         inkscape:connector-curvature="0"
         style="fill:#91dc5a" /><polygon
         points="212.228,268.351 229.724,268.351 265.948,146.702 212.228,146.702 158.51,146.702 194.722,268.351 "
         id="polygon11"
         style="fill:#91dc5a" /><path
         d="m 116.99,375.004 c 0,15.489 12.373,28 27.655,28 l 27.649,0 0,-62.652 c -7.333,-6.424 -13.014,-15.854 -13.014,-26.324 l 0,-48.146 c 0,-12.371 6.398,-23.58 17.154,-29.976 l 0.721,-0.444 -28.024,-95.315 46.909,0 -31.917,-28.535 -13.229,15.866 -20.55,-17.138 c -0.23,0.282 -20.53,-16.645 -20.53,-16.645 C 109.618,93.942 88.11,75.994 88.11,75.994 88.156,75.936 69.315,60.237 69.315,60.237 L 85.257,41.115 63.136,21.325 7.13,83.963 c -10.315,11.539 -9.319,29.232 2.216,39.547 l 107.644,96.251 0,155.243 z"
         id="path13"
         inkscape:connector-curvature="0"
         style="fill:#91dc5a" /><path
         d="m 230.169,341.586 c 15.477,0 27.995,-12.547 27.995,-28.004 l 0,-48.153 c 0,-10.227 -5.55,-19.095 -13.721,-23.972 l -11.887,39.85 -20.343,0 -20.348,0 -11.878,-39.85 c -8.181,4.877 -13.731,13.745 -13.731,23.972 l 0,48.153 c 0,15.473 12.545,28.004 28.014,28.004 l 12.684,0 0,15.312 -26.613,0 0,13.998 26.613,0 0,10.352 -26.613,0 0,13.998 26.613,0 0,7.59 10.503,0 0,-19.244 29.194,0 0,-14.014 -29.194,0 0,-11.085 29.194,0 0,-13.997 -29.194,0 0,-2.91 12.712,0 z m -40.477,-14.173 0,-12.964 46.388,0 0,12.964 -46.388,0 z"
         id="path15"
         inkscape:connector-curvature="0"
         style="fill:#91dc5a" /></g></g><g
     id="g17" /><g
     id="g19" /><g
     id="g21" /><g
     id="g23" /><g
     id="g25" /><g
     id="g27" /><g
     id="g29" /><g
     id="g31" /><g
     id="g33" /><g
     id="g35" /><g
     id="g37" /><g
     id="g39" /><g
     id="g41" /><g
     id="g43" /><g
     id="g45" /></svg>