<?xml version="1.0" encoding="UTF-8" standalone="no"?>
<svg
   xmlns:dc="http://purl.org/dc/elements/1.1/"
   xmlns:cc="http://creativecommons.org/ns#"
   xmlns:rdf="http://www.w3.org/1999/02/22-rdf-syntax-ns#"
   xmlns:svg="http://www.w3.org/2000/svg"
   xmlns="http://www.w3.org/2000/svg"
   xmlns:sodipodi="http://sodipodi.sourceforge.net/DTD/sodipodi-0.dtd"
   xmlns:inkscape="http://www.inkscape.org/namespaces/inkscape"
   viewBox="0 0 48 48"
   id="svg2"
   version="1.1"
   inkscape:version="0.91 r13725"
   sodipodi:docname="ario.svg">
  <metadata
     id="metadata19">
    <rdf:RDF>
      <cc:Work
         rdf:about="">
        <dc:format>image/svg+xml</dc:format>
        <dc:type
           rdf:resource="http://purl.org/dc/dcmitype/StillImage" />
        <dc:title></dc:title>
      </cc:Work>
    </rdf:RDF>
  </metadata>
  <sodipodi:namedview
     pagecolor="#ffffff"
     bordercolor="#666666"
     borderopacity="1"
     objecttolerance="10"
     gridtolerance="10"
     guidetolerance="10"
     inkscape:pageopacity="0"
     inkscape:pageshadow="2"
     inkscape:window-width="1280"
     inkscape:window-height="694"
     id="namedview17"
     showgrid="false"
     inkscape:zoom="4.9166667"
     inkscape:cx="-9.1525424"
     inkscape:cy="24"
     inkscape:window-x="0"
     inkscape:window-y="0"
     inkscape:window-maximized="1"
     inkscape:current-layer="svg2" />
  <defs
     id="defs4">
    <linearGradient
       id="0"
       y1="546.29"
       x2="0"
       y2="501.51"
       gradientUnits="userSpaceOnUse"
       gradientTransform="matrix(1.07196,0,0,1.07196,-413.17,-537.6)">
      <stop
         stop-color="#197cf1"
         id="stop7" />
      <stop
         offset="1"
         stop-color="#20bcfa"
         id="stop9" />
    </linearGradient>
  </defs>
  <path
     style="fill:#5599ff;fill-opacity:0.85;stroke-width:1.31700003"
     inkscape:connector-curvature="0"
     id="path15"
     d="M 44.414906,7.5188749 C 40.824621,3.3632868 34.380581,0.95183339 25.279683,0.35086634 l -0.01452,0 c -0.6709,-0.0587684 -1.31506,-0.0890987 -1.915466,-0.0890987 -4.586912,0 -6.215545,1.79152776 -6.215545,3.32522806 l 0,26.6928193 C 15.330511,29.855156 13.393166,29.733827 11.48256,29.92151 8.1523706,30.249483 5.1673534,31.46848 3.0792994,33.356692 0.99124738,35.243013 0.05052841,37.571051 0.42973306,39.91236 1.132232,44.257525 6.3462902,47.533463 12.559402,47.533463 c 0.583392,0 1.174075,-0.02844 1.759895,-0.08721 6.439178,-0.633194 11.1136,-4.616264 11.1136,-9.471401 l 0,-26.194225 c 0.483728,-0.02465 0.967456,-0.03792 1.43903,-0.03792 5.678338,0 10.897257,1.852193 15.095239,5.355625 1.730728,1.444599 2.946126,2.881614 3.660778,3.829512 0.175016,0.233183 0.517762,0.358305 0.860502,0.31091 0.340312,-0.0474 0.61013,-0.255932 0.670901,-0.521344 0.687915,-2.949861 1.249427,-8.586065 -2.744369,-13.2042249" />
</svg>
