<?xml version="1.0" encoding="UTF-8" standalone="no"?>
<svg
   xmlns:dc="http://purl.org/dc/elements/1.1/"
   xmlns:cc="http://creativecommons.org/ns#"
   xmlns:rdf="http://www.w3.org/1999/02/22-rdf-syntax-ns#"
   xmlns:svg="http://www.w3.org/2000/svg"
   xmlns="http://www.w3.org/2000/svg"
   xmlns:sodipodi="http://sodipodi.sourceforge.net/DTD/sodipodi-0.dtd"
   xmlns:inkscape="http://www.inkscape.org/namespaces/inkscape"
   viewBox="0 0 48 48"
   id="svg2"
   version="1.1"
   inkscape:version="0.91 r13725"
   sodipodi:docname="artha.svg">
  <metadata
     id="metadata27">
    <rdf:RDF>
      <cc:Work
         rdf:about="">
        <dc:format>image/svg+xml</dc:format>
        <dc:type
           rdf:resource="http://purl.org/dc/dcmitype/StillImage" />
        <dc:title></dc:title>
      </cc:Work>
    </rdf:RDF>
  </metadata>
  <sodipodi:namedview
     pagecolor="#ffffff"
     bordercolor="#666666"
     borderopacity="1"
     objecttolerance="10"
     gridtolerance="10"
     guidetolerance="10"
     inkscape:pageopacity="0"
     inkscape:pageshadow="2"
     inkscape:window-width="1280"
     inkscape:window-height="694"
     id="namedview25"
     showgrid="false"
     inkscape:zoom="4.9166667"
     inkscape:cx="-9.1525424"
     inkscape:cy="24"
     inkscape:window-x="0"
     inkscape:window-y="0"
     inkscape:window-maximized="1"
     inkscape:current-layer="svg2" />
  <defs
     id="defs4">
    <linearGradient
       id="0"
       x1="24.61"
       y1="48.41"
       x2="22.779"
       y2=".407"
       gradientUnits="userSpaceOnUse">
      <stop
         stop-color="#2b65bd"
         id="stop7" />
      <stop
         stop-color="#64a3dc"
         offset="1"
         id="stop9" />
    </linearGradient>
  </defs>
  <g
     id="g4160"
     transform="matrix(1.3778858,0,0,3.9646293,-9.069399,-71.26398)"
     style="fill:#80b3ff">
    <path
       d="m 7.4921796,22.862225 0,-1.285439 4.5715164,0 c 1.619057,0 2.428052,0.810061 2.429118,2.429118 l 0,3.57173 c 0,1.619057 -0.810061,2.429118 -2.429118,2.429118 l -2.8575974,0 c -1.6190566,0 -2.4291178,-0.810061 -2.4291178,-2.429118 l 0,-0.02878 c 0,-1.59987 0.8100612,-2.400339 2.4291178,-2.400339 l 3.1432504,0 0,1.285439 -3.1432504,0 c -0.7620971,0 -1.1426127,0.370923 -1.1426127,1.113835 l 0,0.02878 c 0,0.762097 0.3805156,1.142613 1.1426127,1.142613 l 2.8575974,0 c 0.762097,0 1.142613,-0.380516 1.142613,-1.142613 l 0,-3.57173 c 0,-0.762097 -0.380516,-1.142613 -1.142613,-1.142613 l -4.5715164,0"
       id="path15"
       inkscape:connector-curvature="0"
       style="fill:#80b3ff" />
    <path
       d="m 17.223573,30.003554 -1.28544,0 0,-5.999782 c 0,-1.619057 0.810062,-2.428052 2.429118,-2.429118 l 0.999786,0 0,1.285439 -0.999786,0 c -0.762097,0 -1.142612,0.380516 -1.142612,1.142613 l 0,5.999782"
       id="path17"
       inkscape:connector-curvature="0"
       style="fill:#80b3ff" />
    <path
       d="m 20.080104,21.572522 0.714133,0 0,-3.57173 1.185248,0 0,3.57173 1.528457,0 0,1.28544 -1.528457,0 0,7.142394 -1.185248,0 0,-7.142394 -0.714133,0 0,-1.28544"
       id="path19"
       inkscape:connector-curvature="0"
       style="fill:#80b3ff" />
    <path
       d="m 32.220364,30.003554 -1.28544,0 0,-5.999782 c 0,-0.762097 -0.380515,-1.142613 -1.142612,-1.142613 l -4.00021,0 0,7.142395 -1.28544,0 0,-11.999564 1.28544,0 0,3.57173 4.00021,0 c 1.619056,0 2.428052,0.810061 2.429117,2.429118 l 0,5.999782"
       id="path21"
       inkscape:connector-curvature="0"
       style="fill:#80b3ff" />
    <path
       d="m 34.224199,22.862225 0,-1.285439 4.571517,0 c 1.619056,0 2.428051,0.810061 2.428051,2.429118 l 0,3.57173 c 0,1.619057 -0.810061,2.429118 -2.428051,2.429118 l -2.857598,0 c -1.619056,0 -2.429118,-0.810061 -2.429118,-2.429118 l 0,-0.02878 c 0,-1.59987 0.810062,-2.400339 2.429118,-2.400339 l 3.143251,0 0,1.285439 -3.143251,0 c -0.762097,0 -1.142612,0.370923 -1.142612,1.113835 l 0,0.02878 c 0,0.762097 0.380515,1.142613 1.142612,1.142613 l 2.857598,0 c 0.762097,0 1.142612,-0.380516 1.142612,-1.142613 l 0,-3.57173 c 0,-0.762097 -0.380515,-1.142613 -1.142612,-1.142613 l -4.571517,0"
       id="path23"
       inkscape:connector-curvature="0"
       style="fill:#80b3ff" />
  </g>
</svg>
