<?xml version="1.0" encoding="UTF-8" standalone="no"?>
<svg
   xmlns:dc="http://purl.org/dc/elements/1.1/"
   xmlns:cc="http://creativecommons.org/ns#"
   xmlns:rdf="http://www.w3.org/1999/02/22-rdf-syntax-ns#"
   xmlns:svg="http://www.w3.org/2000/svg"
   xmlns="http://www.w3.org/2000/svg"
   xmlns:sodipodi="http://sodipodi.sourceforge.net/DTD/sodipodi-0.dtd"
   xmlns:inkscape="http://www.inkscape.org/namespaces/inkscape"
   viewBox="0 0 48 48"
   id="svg2"
   version="1.1"
   inkscape:version="0.91 r13725"
   sodipodi:docname="astah-community.svg">
  <metadata
     id="metadata19">
    <rdf:RDF>
      <cc:Work
         rdf:about="">
        <dc:format>image/svg+xml</dc:format>
        <dc:type
           rdf:resource="http://purl.org/dc/dcmitype/StillImage" />
        <dc:title></dc:title>
      </cc:Work>
    </rdf:RDF>
  </metadata>
  <sodipodi:namedview
     pagecolor="#ffffff"
     bordercolor="#666666"
     borderopacity="1"
     objecttolerance="10"
     gridtolerance="10"
     guidetolerance="10"
     inkscape:pageopacity="0"
     inkscape:pageshadow="2"
     inkscape:window-width="1280"
     inkscape:window-height="694"
     id="namedview17"
     showgrid="false"
     inkscape:zoom="4.9166667"
     inkscape:cx="-9.1525424"
     inkscape:cy="24"
     inkscape:window-x="0"
     inkscape:window-y="0"
     inkscape:window-maximized="1"
     inkscape:current-layer="svg2" />
  <defs
     id="defs4">
    <linearGradient
       id="0"
       x1="62.99"
       y1="22.532"
       x2="62.18"
       y2="-27.299"
       gradientUnits="userSpaceOnUse">
      <stop
         stop-color="#f16419"
         id="stop7" />
      <stop
         stop-color="#feb600"
         offset="1"
         id="stop9" />
    </linearGradient>
  </defs>
  <path
     d="M 23.473885,0.49427087 C 22.213979,2.8329595 21.47099,5.7003645 21.47099,8.8004048 c 0,1.7024672 0.224748,3.3344382 0.634581,4.8483292 0.742988,-0.165665 1.697503,-0.348953 2.58195,-0.512855 -0.416443,-1.522703 -0.643835,-3.1670111 -0.643835,-4.8818145 0,-2.6823542 0.556581,-5.1902322 1.522993,-7.33329577 L 23.472564,0.49250847 M 3.5758187,9.2180907 0.30508475,11.361154 c 2.41272815,4.41302 6.31672065,7.283949 10.72705525,7.283949 1.450282,0 2.842392,-0.318992 4.148571,-0.89353 l 0,24.021346 3.309073,0 0,-11.155915 c 0.327867,-1.381712 1.29428,-2.377461 2.441813,-2.377461 1.143567,0 2.107336,0.990462 2.437848,2.363362 l 0,11.170014 3.309072,0 0,-5.537423 0,-6.066138 0,-0.25026 c 0,-3.068317 -1.853504,-5.537422 -4.15518,-5.537422 -1.957946,0 -3.589347,1.787061 -4.034875,4.208582 l 0,-14.240094 -3.309074,0 0,-0.0088 c -0.593597,0.10222 -1.195126,0.170952 -1.808553,0.170952 -3.8074843,0 -7.2606601,-2.017934 -9.7963382,-5.287163 M 40.053625,9.366144 c -4.506845,0 -8.622363,2.23647 -11.756927,5.921623 0.481223,0.542815 1.257263,1.466307 2.039912,2.410947 3.110766,-3.159962 6.994929,-5.036904 11.208279,-5.036904 2.231609,0 4.370673,0.526954 6.352416,1.492742 L 47.384353,11.466898 C 45.148779,10.116909 42.667304,9.3661313 40.054946,9.3661313 M 27.877611,21.084248 25.594442,24.127892 c 7.507881,4.413019 13.365854,12.909491 15.970278,23.3816 L 46.429838,46.00265 C 43.750057,34.125918 36.757772,24.748252 27.881576,21.082486"
     id="path15"
     inkscape:connector-curvature="0"
     style="fill:#ff6600;fill-rule:evenodd" />
</svg>
