<?xml version="1.0" encoding="UTF-8" standalone="no"?>
<svg
   xmlns:dc="http://purl.org/dc/elements/1.1/"
   xmlns:cc="http://creativecommons.org/ns#"
   xmlns:rdf="http://www.w3.org/1999/02/22-rdf-syntax-ns#"
   xmlns:svg="http://www.w3.org/2000/svg"
   xmlns="http://www.w3.org/2000/svg"
   xmlns:sodipodi="http://sodipodi.sourceforge.net/DTD/sodipodi-0.dtd"
   xmlns:inkscape="http://www.inkscape.org/namespaces/inkscape"
   viewBox="0 0 48 48"
   id="svg2"
   version="1.1"
   inkscape:version="0.91 r13725"
   sodipodi:docname="atunes.svg">
  <metadata
     id="metadata19">
    <rdf:RDF>
      <cc:Work
         rdf:about="">
        <dc:format>image/svg+xml</dc:format>
        <dc:type
           rdf:resource="http://purl.org/dc/dcmitype/StillImage" />
        <dc:title></dc:title>
      </cc:Work>
    </rdf:RDF>
  </metadata>
  <sodipodi:namedview
     pagecolor="#ffffff"
     bordercolor="#666666"
     borderopacity="1"
     objecttolerance="10"
     gridtolerance="10"
     guidetolerance="10"
     inkscape:pageopacity="0"
     inkscape:pageshadow="2"
     inkscape:window-width="1280"
     inkscape:window-height="694"
     id="namedview17"
     showgrid="false"
     inkscape:zoom="4.9166667"
     inkscape:cx="24"
     inkscape:cy="24"
     inkscape:window-x="0"
     inkscape:window-y="0"
     inkscape:window-maximized="1"
     inkscape:current-layer="svg2" />
  <defs
     id="defs4">
    <linearGradient
       id="0"
       gradientUnits="userSpaceOnUse"
       y1="-2.471"
       x2="0"
       y2="-51.27"
       gradientTransform="matrix(0.9999917,0,0,0.9999917,-53.370085,50.71795)">
      <stop
         stop-color="#0a80fd"
         id="stop7" />
      <stop
         offset="1"
         stop-color="#56c5fa"
         id="stop9" />
    </linearGradient>
  </defs>
  <path
     style="fill:#2a7fff"
     inkscape:connector-curvature="0"
     id="path15"
     d="m 47.271758,21.578527 c -0.326661,0.235153 -0.808058,0.247397 -1.156603,0.03486 L 34.592894,14.56821 29.134199,40.808662 c -0.01992,0.09953 -0.06487,0.190256 -0.128564,0.272514 -1.094475,3.761509 -7.068562,6.565136 -14.09414,6.565136 -7.8734939,0 -14.28247886,-3.504064 -14.28247886,-7.811542 0,-4.307477 6.40585766,-7.812798 14.28247886,-7.812798 3.233798,0 6.30661,0.580818 8.806982,1.647014 L 30.938645,0.76638471 c 0.06487,-0.29982802 0.357532,-0.53969048 0.736944,-0.5958887 0.365345,-0.0508608 0.749448,0.0831987 0.944429,0.3481774 L 47.45071,20.658954 c 0.224288,0.306107 0.148485,0.687878 -0.179742,0.923031" />
</svg>
