<?xml version="1.0" encoding="UTF-8" standalone="no"?>
<!-- Generator: Adobe Illustrator 16.0.0, SVG Export Plug-In . SVG Version: 6.00 Build 0)  -->

<svg
   xmlns:dc="http://purl.org/dc/elements/1.1/"
   xmlns:cc="http://creativecommons.org/ns#"
   xmlns:rdf="http://www.w3.org/1999/02/22-rdf-syntax-ns#"
   xmlns:svg="http://www.w3.org/2000/svg"
   xmlns="http://www.w3.org/2000/svg"
   xmlns:sodipodi="http://sodipodi.sourceforge.net/DTD/sodipodi-0.dtd"
   xmlns:inkscape="http://www.inkscape.org/namespaces/inkscape"
   version="1.1"
   id="Capa_1"
   x="0px"
   y="0px"
   width="512px"
   height="512px"
   viewBox="0 0 75.889 75.889"
   style="enable-background:new 0 0 75.889 75.889;"
   xml:space="preserve"
   inkscape:version="0.91 r13725"
   sodipodi:docname="audiobook.svg"><metadata
     id="metadata41"><rdf:RDF><cc:Work
         rdf:about=""><dc:format>image/svg+xml</dc:format><dc:type
           rdf:resource="http://purl.org/dc/dcmitype/StillImage" /><dc:title></dc:title></cc:Work></rdf:RDF></metadata><defs
     id="defs39" /><sodipodi:namedview
     pagecolor="#ffffff"
     bordercolor="#666666"
     borderopacity="1"
     objecttolerance="10"
     gridtolerance="10"
     guidetolerance="10"
     inkscape:pageopacity="0"
     inkscape:pageshadow="2"
     inkscape:window-width="1280"
     inkscape:window-height="694"
     id="namedview37"
     showgrid="false"
     inkscape:zoom="0.4609375"
     inkscape:cx="-97.627119"
     inkscape:cy="256"
     inkscape:window-x="0"
     inkscape:window-y="0"
     inkscape:window-maximized="1"
     inkscape:current-layer="Capa_1" /><g
     id="g3"
     transform="matrix(1.1813064,0,0,1,-6.8795535,0)"
     style="fill:#0066ff"><path
       d="m 10.046,65.9 c 0.002,0.183 0.005,0.318 0.007,0.408 10e-4,0.053 -0.009,0.104 -0.012,0.158 0.122,3.01 2.603,5.422 5.642,5.422 l 50.186,0 0,-5.527 c 0,-1.104 0.896,-2 2,-2 1.104,0 2,0.896 2,2 l 0,7.527 c 0,1.104 -0.896,2 -2,2 l -52.488,0 c -0.104,0 -0.204,-0.015 -0.305,-0.031 -5.04,-0.314 -9.047,-4.504 -9.047,-9.623 0,-0.117 0.014,-0.229 0.018,-0.346 C 5.985,59.949 6.047,14.776 6.054,9.861 6.046,9.791 6.033,9.724 6.033,9.653 6.033,4.33 10.363,0 15.686,0 l 0.017,0 0,46.468 c 0,0.536 0.179,1.025 0.465,1.271 0.286,0.246 0.63,0.205 0.891,-0.104 l 7.033,-8.304 6.66,8.283 c 0.151,0.188 0.332,0.285 0.514,0.285 0.132,0 0.264,-0.051 0.385,-0.152 0.291,-0.243 0.475,-0.738 0.475,-1.28 l 0,-46.467 35.253,0 0.488,0 c 1.104,0 2,0.896 2,2 l 0,56.527 c 0,1.104 -0.896,2 -2,2 -0.012,0 -0.021,-0.004 -0.033,-0.004 -0.147,0.035 -0.301,0.059 -0.458,0.059 l -51.693,0 c -3.004,0 -5.462,2.357 -5.637,5.318 z"
       id="path5"
       inkscape:connector-curvature="0"
       style="fill:#0066ff" /></g><g
     id="g7" /><g
     id="g9" /><g
     id="g11" /><g
     id="g13" /><g
     id="g15" /><g
     id="g17" /><g
     id="g19" /><g
     id="g21" /><g
     id="g23" /><g
     id="g25" /><g
     id="g27" /><g
     id="g29" /><g
     id="g31" /><g
     id="g33" /><g
     id="g35" /><path
     style="fill:#0044aa;fill-rule:evenodd"
     inkscape:connector-curvature="0"
     id="path21"
     d="m 73.662148,55.439754 -6.038142,0 0,-1.798534 c 0,-0.99315 -0.901147,-1.798542 -2.012815,-1.798542 -1.111669,0 -2.012816,0.805251 -2.012816,1.798542 l 0,0.599502 c 0,0.529787 -0.744725,1.198982 -1.341825,1.198982 -0.596962,0 -1.341824,-0.669315 -1.341824,-1.198982 l 0,-5.39534 c 0,-0.993351 -0.901147,-1.798544 -2.012816,-1.798544 -1.111658,0 -2.012805,0.805253 -2.012805,1.798544 l 0,0.5996 c 0,0.529887 -0.744725,2.397955 -1.341677,2.397955 -0.597068,0 -1.341824,-1.868208 -1.341824,-2.397955 l 0,-6.594462 c 0,-0.993351 -0.901147,-1.798404 -2.012964,-1.798404 -1.111669,0 -2.012816,0.805252 -2.012816,1.798404 l 0,2.997515 -0.05597,0 c -0.13889,0.662434 -0.591259,1.198983 -2.03111,1.198983 -1.31168,0 -1.738563,-0.537268 -1.875763,-1.198983 l -0.06232,0 0,-0.672606 c -0.0028,-0.178225 0,-0.35615 0,-0.526695 -4.2e-5,-1.059625 -0.381076,-5.995162 -4.547763,-5.995162 -1.193978,0 -2.161856,0.85891 -2.161856,1.918324 l 0,33.332693 c 0,1.059514 0.967899,1.918453 2.161856,1.918453 4.166571,0 4.547721,-4.935398 4.547721,-5.994902 0,-0.170544 -0.0028,-0.348371 0,-0.526695 l 0,-0.672606 0.06232,0 c 0.1372,-0.662433 0.563903,-1.199112 1.875774,-1.199112 1.329224,0 1.840677,0.53996 2.038302,1.199112 l 0.04859,0 0,2.997516 c 0,0.99335 0.901147,1.798542 2.012815,1.798542 1.111658,0 2.012964,-0.805251 2.012964,-1.798542 l 0,-6.594453 c 0,-0.529787 0.744725,-2.398105 1.341825,-2.398105 0.596962,0 1.341676,1.868348 1.341676,2.398105 l 0,0.599401 c 0,0.993351 0.901147,1.798533 2.012806,1.798533 1.111668,0 2.012816,-0.805252 2.012816,-1.798533 l 0,-5.395351 c 0,-0.529887 0.744935,-1.198982 1.341824,-1.198982 0.597068,0 1.341824,0.669215 1.341824,1.198982 l 0,0.599402 c 0,0.993351 0.901148,1.798543 2.012816,1.798543 1.111669,0 2.012817,-0.805252 2.012817,-1.798543 l 0,-1.798533 6.038131,0 c 1.111668,0 2.012815,-0.805253 2.012815,-1.798544 0,-0.993351 -0.901147,-1.798403 -2.012657,-1.798403" /></svg>