<?xml version="1.0" encoding="UTF-8" standalone="no"?>
<svg
   xmlns:dc="http://purl.org/dc/elements/1.1/"
   xmlns:cc="http://creativecommons.org/ns#"
   xmlns:rdf="http://www.w3.org/1999/02/22-rdf-syntax-ns#"
   xmlns:svg="http://www.w3.org/2000/svg"
   xmlns="http://www.w3.org/2000/svg"
   xmlns:sodipodi="http://sodipodi.sourceforge.net/DTD/sodipodi-0.dtd"
   xmlns:inkscape="http://www.inkscape.org/namespaces/inkscape"
   viewBox="0 0 48 48"
   id="svg2"
   version="1.1"
   inkscape:version="0.91 r13725"
   sodipodi:docname="beryl.svg">
  <metadata
     id="metadata19">
    <rdf:RDF>
      <cc:Work
         rdf:about="">
        <dc:format>image/svg+xml</dc:format>
        <dc:type
           rdf:resource="http://purl.org/dc/dcmitype/StillImage" />
        <dc:title></dc:title>
      </cc:Work>
    </rdf:RDF>
  </metadata>
  <sodipodi:namedview
     pagecolor="#ffffff"
     bordercolor="#666666"
     borderopacity="1"
     objecttolerance="10"
     gridtolerance="10"
     guidetolerance="10"
     inkscape:pageopacity="0"
     inkscape:pageshadow="2"
     inkscape:window-width="1280"
     inkscape:window-height="694"
     id="namedview17"
     showgrid="false"
     inkscape:zoom="4.9166667"
     inkscape:cx="-9.1525424"
     inkscape:cy="24"
     inkscape:window-x="0"
     inkscape:window-y="0"
     inkscape:window-maximized="1"
     inkscape:current-layer="svg2" />
  <defs
     id="defs4">
    <linearGradient
       id="0"
       gradientUnits="userSpaceOnUse"
       y1="1061.36"
       x2="0"
       y2="1015.36"
       gradientTransform="matrix(1.0888505,0,0,1.0888505,51.168739,-2165.0875)">
      <stop
         stop-color="#ec396c"
         id="stop7" />
      <stop
         offset="1"
         stop-color="#ff709a"
         id="stop9" />
    </linearGradient>
  </defs>
  <path
     style="fill:#ff2a7f;fill-opacity:0.847"
     inkscape:connector-curvature="0"
     id="path15"
     d="M 38.582934,0.34275402 32.292544,11.986516 25.790809,0.34275402 l 12.792125,0 M 31.29389,14.649527 l -13.955339,0 6.976057,32.493487 6.977669,-32.493487 m -13.489086,-1.90836 13.019607,0 L 24.304927,1.0796259 17.787058,12.741167 m -1.464908,-0.754651 6.501737,-11.64376198 -12.790513,0 6.29039,11.64376198 m 6.501736,35.776813 -7.10835,-33.105898 -15.31537942,0 L 22.8255,47.763329 m -22.40114278,-35.01426 14.44417978,0 L 8.5765343,1.1033327 0.42919732,12.749069 M 40.026868,1.1230865 l -6.28071,11.6259825 14.419981,0 -8.131205,-11.6259825 m -7.130935,13.5323665 -7.10835,33.103925 22.399529,-33.103925 -15.289567,0" />
</svg>
