<?xml version="1.0" encoding="UTF-8" standalone="no"?>
<svg
   xmlns:dc="http://purl.org/dc/elements/1.1/"
   xmlns:cc="http://creativecommons.org/ns#"
   xmlns:rdf="http://www.w3.org/1999/02/22-rdf-syntax-ns#"
   xmlns:svg="http://www.w3.org/2000/svg"
   xmlns="http://www.w3.org/2000/svg"
   xmlns:sodipodi="http://sodipodi.sourceforge.net/DTD/sodipodi-0.dtd"
   xmlns:inkscape="http://www.inkscape.org/namespaces/inkscape"
   viewBox="0 0 48 48"
   id="svg2"
   version="1.1"
   inkscape:version="0.91 r13725"
   sodipodi:docname="bitdefender.svg">
  <metadata
     id="metadata19">
    <rdf:RDF>
      <cc:Work
         rdf:about="">
        <dc:format>image/svg+xml</dc:format>
        <dc:type
           rdf:resource="http://purl.org/dc/dcmitype/StillImage" />
        <dc:title></dc:title>
      </cc:Work>
    </rdf:RDF>
  </metadata>
  <sodipodi:namedview
     pagecolor="#ffffff"
     bordercolor="#666666"
     borderopacity="1"
     objecttolerance="10"
     gridtolerance="10"
     guidetolerance="10"
     inkscape:pageopacity="0"
     inkscape:pageshadow="2"
     inkscape:window-width="1280"
     inkscape:window-height="694"
     id="namedview17"
     showgrid="false"
     inkscape:zoom="4.9166667"
     inkscape:cx="-9.1525424"
     inkscape:cy="24"
     inkscape:window-x="0"
     inkscape:window-y="0"
     inkscape:window-maximized="1"
     inkscape:current-layer="svg2" />
  <defs
     id="defs4">
    <linearGradient
       gradientUnits="userSpaceOnUse"
       y2="-26.05"
       x2="-125.19"
       y1="73.5"
       x1="-123.97"
       id="0"
       gradientTransform="matrix(.49433 0 0 .4778 86.65 13.11)">
      <stop
         stop-color="#c52828"
         id="stop7" />
      <stop
         offset="1"
         stop-color="#ff5454"
         id="stop9" />
    </linearGradient>
  </defs>
  <path
     d="M 23.707071,0.44067797 13.14115,26.56544 47.074302,30.804081 c 0.02376,-0.07944 0.02716,-0.167315 0.04922,-0.246748 L 21.077896,18.579963 23.807213,0.44067797 c -0.03225,0 -0.06619,0 -0.09844,0 M 31.745658,2.2152283 C 31.572527,2.2456491 31.409583,2.4315545 31.34848,2.4129639 L 24.105945,16.511344 45.555186,27.934379 c 0.556727,-0.02366 0.538057,-0.3566 0.329284,-0.67771 L 31.250033,13.996554 32.142833,2.9064579 C 32.102096,2.3250814 31.918785,2.1864976 31.745657,2.2169184 M 14.580491,2.5126769 C 6.251661,6.1986715 0.44167797,14.461316 0.44167797,24.10304 c 0,13.067451 10.66097103,23.660672 23.81363203,23.660672 9.768172,0 18.15641,-5.834046 21.827748,-14.196403 l -37.2073147,0 z m 21.579937,2.4150785 -2.629174,8.0344886 11.827042,11.399374 c 0.337769,0.491803 2.213327,0.789252 2.608806,-0.65236 0,-7.725208 -3.61363,-14.1727417 -9.376088,-18.4840541 -1.342593,-0.6912297 -2.21163,-0.8534744 -2.430586,-0.2957584"
     id="path15"
     style="fill:#ff5555;fill-opacity:0.84299999"
     inkscape:connector-curvature="0" />
</svg>
