<?xml version="1.0" encoding="UTF-8" standalone="no"?>
<svg
   xmlns:dc="http://purl.org/dc/elements/1.1/"
   xmlns:cc="http://creativecommons.org/ns#"
   xmlns:rdf="http://www.w3.org/1999/02/22-rdf-syntax-ns#"
   xmlns:svg="http://www.w3.org/2000/svg"
   xmlns="http://www.w3.org/2000/svg"
   xmlns:sodipodi="http://sodipodi.sourceforge.net/DTD/sodipodi-0.dtd"
   xmlns:inkscape="http://www.inkscape.org/namespaces/inkscape"
   viewBox="0 0 48 48"
   id="svg2"
   version="1.1"
   inkscape:version="0.91 r13725"
   sodipodi:docname="boot-repair.svg">
  <metadata
     id="metadata23">
    <rdf:RDF>
      <cc:Work
         rdf:about="">
        <dc:format>image/svg+xml</dc:format>
        <dc:type
           rdf:resource="http://purl.org/dc/dcmitype/StillImage" />
        <dc:title></dc:title>
      </cc:Work>
    </rdf:RDF>
  </metadata>
  <sodipodi:namedview
     pagecolor="#ffffff"
     bordercolor="#666666"
     borderopacity="1"
     objecttolerance="10"
     gridtolerance="10"
     guidetolerance="10"
     inkscape:pageopacity="0"
     inkscape:pageshadow="2"
     inkscape:window-width="1280"
     inkscape:window-height="694"
     id="namedview21"
     showgrid="false"
     inkscape:zoom="4.9166667"
     inkscape:cx="-21.796764"
     inkscape:cy="24"
     inkscape:window-x="0"
     inkscape:window-y="0"
     inkscape:window-maximized="1"
     inkscape:current-layer="svg2" />
  <defs
     id="defs4">
    <linearGradient
       id="0"
       y1="542.8"
       x2="0"
       y2="507.8"
       gradientUnits="userSpaceOnUse"
       gradientTransform="matrix(1.0908991,0,0,1.4062418,-421.70677,-713.88184)">
      <stop
         stop-color="#030303"
         id="stop7" />
      <stop
         offset="1"
         stop-color="#272727"
         id="stop9" />
    </linearGradient>
  </defs>
  <g
     style="fill:#939dac;fill-opacity:0.85100002"
     id="g15"
     transform="matrix(3.3939373,0,0,2.8691865,-65.940697,11.275271)">
    <path
       inkscape:connector-curvature="0"
       id="path17"
       d="m 23.521,2.05 c 0.035,0.046 0.08,0.073 0.137,0.081 l 1.191,0.182 c 0.065,0.208 0.154,0.421 0.267,0.638 -0.078,0.109 -0.195,0.261 -0.351,0.459 -0.156,0.198 -0.267,0.342 -0.332,0.433 -0.035,0.048 -0.052,0.098 -0.052,0.15 0,0.061 0.015,0.108 0.046,0.143 0.156,0.221 0.514,0.59 1.074,1.107 0.052,0.043 0.106,0.065 0.163,0.065 0.065,0 0.117,-0.019 0.156,-0.058 l 0.924,-0.697 c 0.178,0.091 0.373,0.171 0.586,0.241 l 0.182,1.198 c 0.004,0.056 0.029,0.103 0.075,0.14 0.046,0.037 0.099,0.055 0.16,0.055 l 1.445,0 c 0.126,0 0.204,-0.061 0.234,-0.182 0.056,-0.217 0.119,-0.621 0.189,-1.211 0.204,-0.065 0.401,-0.148 0.592,-0.247 l 0.898,0.697 c 0.056,0.043 0.113,0.065 0.169,0.065 0.095,0 0.301,-0.155 0.615,-0.465 0.315,-0.31 0.528,-0.544 0.641,-0.7 0.039,-0.056 0.059,-0.106 0.059,-0.15 0,-0.052 -0.022,-0.104 -0.065,-0.156 C 32.233,3.486 32.001,3.187 31.827,2.939 31.936,2.739 32.02,2.54 32.081,2.34 l 1.211,-0.182 c 0.048,-0.009 0.089,-0.037 0.124,-0.085 0.035,-0.048 0.052,-0.098 0.052,-0.15 l 0,-1.445 C 33.468,0.422 33.451,0.371 33.416,0.325 33.381,0.279 33.336,0.252 33.279,0.243 L 32.088,0.067 c -0.061,-0.213 -0.15,-0.427 -0.267,-0.644 0.078,-0.109 0.195,-0.261 0.352,-0.459 0.156,-0.198 0.267,-0.342 0.332,-0.433 0.035,-0.048 0.052,-0.098 0.052,-0.15 0,-0.056 -0.015,-0.106 -0.046,-0.15 -0.169,-0.234 -0.527,-0.599 -1.074,-1.094 -0.048,-0.048 -0.102,-0.072 -0.163,-0.072 -0.065,0 -0.119,0.019 -0.163,0.058 L 30.193,-2.18 C 30.015,-2.271 29.82,-2.351 29.607,-2.421 l -0.182,-1.198 c -0.004,-0.056 -0.029,-0.103 -0.075,-0.14 -0.046,-0.037 -0.099,-0.055 -0.16,-0.055 l -1.445,0 c -0.126,0 -0.204,0.061 -0.235,0.182 -0.056,0.217 -0.119,0.621 -0.189,1.211 -0.204,0.065 -0.402,0.148 -0.592,0.247 L 25.83,-2.877 c -0.061,-0.039 -0.117,-0.058 -0.169,-0.058 -0.095,0 -0.299,0.154 -0.612,0.462 -0.313,0.308 -0.527,0.543 -0.644,0.703 -0.039,0.043 -0.059,0.093 -0.059,0.15 0,0.056 0.022,0.111 0.065,0.163 0.312,0.382 0.545,0.681 0.697,0.898 -0.087,0.161 -0.171,0.358 -0.254,0.592 L 23.65,0.215 C 23.598,0.224 23.554,0.252 23.52,0.3 23.485,0.348 23.468,0.398 23.468,0.45 l 0,1.445 c 0,0.056 0.017,0.107 0.052,0.153 m 3.769,-2.041 c 0.325,-0.326 0.718,-0.488 1.178,-0.488 0.46,0 0.853,0.163 1.178,0.488 0.325,0.325 0.488,0.718 0.488,1.178 0,0.46 -0.163,0.853 -0.488,1.178 -0.326,0.325 -0.718,0.488 -1.178,0.488 -0.46,0 -0.853,-0.163 -1.178,-0.488 -0.325,-0.326 -0.488,-0.718 -0.488,-1.178 0,-0.46 0.163,-0.853 0.488,-1.178"
       style="fill:#939dac" />
    <path
       inkscape:connector-curvature="0"
       id="path19"
       d="m 19.632,9.636 c 0.026,0.034 0.059,0.054 0.101,0.06 l 0.879,0.134 c 0.048,0.154 0.114,0.31 0.197,0.471 -0.058,0.08 -0.144,0.193 -0.259,0.339 -0.115,0.146 -0.197,0.252 -0.245,0.319 -0.026,0.035 -0.038,0.072 -0.038,0.11 0,0.045 0.011,0.08 0.034,0.106 0.115,0.163 0.379,0.435 0.792,0.816 0.038,0.032 0.078,0.048 0.12,0.048 0.048,0 0.086,-0.014 0.115,-0.043 l 0.682,-0.514 c 0.131,0.067 0.275,0.126 0.432,0.178 l 0.134,0.883 c 0.003,0.042 0.022,0.076 0.055,0.103 0.034,0.027 0.073,0.041 0.118,0.041 l 1.066,0 c 0.093,0 0.15,-0.045 0.173,-0.134 0.042,-0.16 0.088,-0.458 0.139,-0.893 0.15,-0.048 0.296,-0.109 0.437,-0.183 l 0.663,0.514 c 0.042,0.032 0.083,0.048 0.125,0.048 0.07,0 0.222,-0.114 0.454,-0.343 0.232,-0.229 0.39,-0.401 0.473,-0.516 0.029,-0.042 0.043,-0.078 0.043,-0.11 0,-0.038 -0.016,-0.077 -0.048,-0.115 -0.214,-0.259 -0.386,-0.48 -0.514,-0.663 0.08,-0.147 0.142,-0.294 0.187,-0.442 L 26.84,9.716 c 0.035,-0.006 0.066,-0.027 0.091,-0.062 0.026,-0.035 0.038,-0.072 0.038,-0.11 l 0,-1.066 C 26.969,8.436 26.956,8.399 26.931,8.365 26.905,8.331 26.872,8.311 26.83,8.305 L 25.951,8.175 C 25.906,8.018 25.841,7.86 25.754,7.7 25.812,7.62 25.898,7.507 26.013,7.361 26.128,7.215 26.21,7.109 26.258,7.042 26.284,7.007 26.296,6.97 26.296,6.932 26.296,6.89 26.285,6.854 26.262,6.822 26.137,6.649 25.873,6.38 25.47,6.015 25.435,5.98 25.395,5.962 25.35,5.962 c -0.048,0 -0.088,0.014 -0.12,0.043 L 24.553,6.519 C 24.422,6.452 24.278,6.393 24.121,6.341 L 23.987,5.458 C 23.984,5.416 23.965,5.382 23.932,5.355 23.898,5.328 23.859,5.314 23.814,5.314 l -1.066,0 c -0.093,0 -0.151,0.045 -0.173,0.134 -0.042,0.16 -0.088,0.458 -0.139,0.893 -0.15,0.048 -0.296,0.109 -0.437,0.183 L 21.336,6.005 C 21.291,5.976 21.25,5.962 21.211,5.962 c -0.07,0 -0.221,0.114 -0.451,0.341 -0.231,0.227 -0.389,0.4 -0.475,0.519 -0.029,0.032 -0.043,0.069 -0.043,0.11 0,0.042 0.016,0.082 0.048,0.12 0.23,0.282 0.402,0.503 0.514,0.663 -0.064,0.118 -0.126,0.264 -0.187,0.437 l -0.888,0.134 c -0.038,0.006 -0.07,0.027 -0.096,0.063 -0.026,0.035 -0.038,0.072 -0.038,0.11 l 0,1.066 c 0,0.042 0.013,0.079 0.038,0.113 m 2.78,-1.505 c 0.24,-0.24 0.53,-0.36 0.869,-0.36 0.339,0 0.629,0.12 0.869,0.36 0.24,0.24 0.36,0.53 0.36,0.869 0,0.339 -0.12,0.629 -0.36,0.869 -0.24,0.24 -0.53,0.36 -0.869,0.36 -0.339,0 -0.629,-0.12 -0.869,-0.36 -0.24,-0.24 -0.36,-0.53 -0.36,-0.869 0,-0.339 0.12,-0.629 0.36,-0.869"
       style="fill:#939dac" />
  </g>
</svg>
