<?xml version="1.0" encoding="UTF-8" standalone="no"?>
<svg
   xmlns:dc="http://purl.org/dc/elements/1.1/"
   xmlns:cc="http://creativecommons.org/ns#"
   xmlns:rdf="http://www.w3.org/1999/02/22-rdf-syntax-ns#"
   xmlns:svg="http://www.w3.org/2000/svg"
   xmlns="http://www.w3.org/2000/svg"
   xmlns:sodipodi="http://sodipodi.sourceforge.net/DTD/sodipodi-0.dtd"
   xmlns:inkscape="http://www.inkscape.org/namespaces/inkscape"
   viewBox="0 0 48 48"
   id="svg2"
   version="1.1"
   inkscape:version="0.91 r13725"
   sodipodi:docname="calligrasheets.svg">
  <metadata
     id="metadata29">
    <rdf:RDF>
      <cc:Work
         rdf:about="">
        <dc:format>image/svg+xml</dc:format>
        <dc:type
           rdf:resource="http://purl.org/dc/dcmitype/StillImage" />
        <dc:title></dc:title>
      </cc:Work>
    </rdf:RDF>
  </metadata>
  <sodipodi:namedview
     pagecolor="#ffffff"
     bordercolor="#666666"
     borderopacity="1"
     objecttolerance="10"
     gridtolerance="10"
     guidetolerance="10"
     inkscape:pageopacity="0"
     inkscape:pageshadow="2"
     inkscape:window-width="1280"
     inkscape:window-height="694"
     id="namedview27"
     showgrid="false"
     inkscape:zoom="4.9166667"
     inkscape:cx="-42.305085"
     inkscape:cy="24"
     inkscape:window-x="0"
     inkscape:window-y="0"
     inkscape:window-maximized="1"
     inkscape:current-layer="svg2" />
  <defs
     id="defs4">
    <linearGradient
       id="0"
       x1="-123.97"
       y1="73.5"
       x2="-125.19"
       y2="-26.05"
       gradientUnits="userSpaceOnUse"
       gradientTransform="matrix(0.4778,0,0,0.4778,84.550448,13.103358)">
      <stop
         stop-color="#5dae33"
         id="stop7" />
      <stop
         offset="1"
         stop-color="#9be058"
         id="stop9" />
    </linearGradient>
  </defs>
  <path
     style="fill:#217821;fill-rule:evenodd"
     inkscape:connector-curvature="0"
     id="path25"
     d="m 46.184085,0.42989037 -8.83398,0.005764 c -0.950496,0 -1.713497,0.60966483 -1.712629,1.36747503 l 0.03733,44.7468226 c 8.6e-5,0.756858 0.764738,1.364624 1.715234,1.364624 l 8.831375,-0.0028 c 0.950497,0 1.716103,-0.609667 1.715235,-1.367475 L 47.89932,1.7973654 C 47.899233,1.0405052 47.134583,0.42989037 46.184085,0.42989037 M 28.25398,12.659295 l -8.831373,0.0058 c -0.950497,0 -1.716104,0.609667 -1.715235,1.367475 l 0.03733,32.420554 c 8.5e-5,0.756861 0.764737,1.367476 1.715233,1.367476 l 8.83398,-0.0028 c 0.950497,0 1.713498,-0.609667 1.71263,-1.367476 L 29.970959,14.02977 c -8.8e-5,-0.75686 -0.767344,-1.367475 -1.71784,-1.367475 M 10.976644,25.07403 2.1452699,25.07683 c -0.9504972,0 -1.71436679,0.609667 -1.71263143,1.367476 l 0.0329963,20.094286 c 8.747e-5,0.75686 0.76734155,1.367475 1.71783875,1.367475 l 8.8339805,-0.0028 c 0.950495,0 1.714365,-0.609667 1.712628,-1.367476 L 12.694488,26.441506 C 12.6944,25.684645 11.927146,25.07403 10.97665,25.07403" />
</svg>
