<?xml version="1.0" encoding="UTF-8" standalone="no"?>
<svg
   xmlns:dc="http://purl.org/dc/elements/1.1/"
   xmlns:cc="http://creativecommons.org/ns#"
   xmlns:rdf="http://www.w3.org/1999/02/22-rdf-syntax-ns#"
   xmlns:svg="http://www.w3.org/2000/svg"
   xmlns="http://www.w3.org/2000/svg"
   xmlns:sodipodi="http://sodipodi.sourceforge.net/DTD/sodipodi-0.dtd"
   xmlns:inkscape="http://www.inkscape.org/namespaces/inkscape"
   class="nc-icon colored"
   x="0px"
   y="0px"
   width="48px"
   height="48px"
   viewBox="0 0 48 48"
   id="svg2"
   version="1.1"
   inkscape:version="0.91 r13725"
   sodipodi:docname="calligrawords.svg">
  <metadata
     id="metadata20">
    <rdf:RDF>
      <cc:Work
         rdf:about="">
        <dc:format>image/svg+xml</dc:format>
        <dc:type
           rdf:resource="http://purl.org/dc/dcmitype/StillImage" />
        <dc:title></dc:title>
      </cc:Work>
    </rdf:RDF>
  </metadata>
  <defs
     id="defs18" />
  <sodipodi:namedview
     pagecolor="#ffffff"
     bordercolor="#666666"
     borderopacity="1"
     objecttolerance="10"
     gridtolerance="10"
     guidetolerance="10"
     inkscape:pageopacity="0"
     inkscape:pageshadow="2"
     inkscape:window-width="1280"
     inkscape:window-height="694"
     id="namedview16"
     showgrid="false"
     inkscape:zoom="4.9166667"
     inkscape:cx="-9.1525424"
     inkscape:cy="24"
     inkscape:window-x="0"
     inkscape:window-y="0"
     inkscape:window-maximized="1"
     inkscape:current-layer="svg2" />
  <rect
     style="fill:#afc6e9"
     id="rect6"
     height="2.1873739"
     width="8.374361"
     transform="matrix(0.70710642,-0.70710714,0.70710642,0.70710714,0,0)"
     y="32.847069"
     x="-32.641804" />
  <path
     style="fill:#214478"
     inkscape:connector-curvature="0"
     id="path8"
     d="m 7.1603108,46.308221 c -0.2799864,0 -0.5599728,-0.107183 -0.7732437,-0.320454 L 2.0122795,41.612975 c -0.4276355,-0.427636 -0.4276355,-1.118853 0,-1.546489 L 14.589794,27.488959 c 0.427635,-0.427636 1.118852,-0.427636 1.546487,0 l 4.374788,4.374792 c 0.427635,0.427636 0.427635,1.118853 0,1.546489 L 7.9335545,45.987767 c -0.2132709,0.213271 -0.4932573,0.320454 -0.7732437,0.320454 z" />
  <path
     style="fill:#214478"
     inkscape:connector-curvature="0"
     id="path10"
     d="m 38.330672,15.137828 c -0.279986,0 -0.559972,-0.107183 -0.773243,-0.320454 l -4.374788,-4.374792 c -0.427635,-0.427636 -0.427635,-1.1188527 0,-1.5464886 l 8.202727,-8.20273499 c 0.427635,-0.42763591 1.118852,-0.42763591 1.546487,0 l 4.374788,4.37479199 c 0.427635,0.4276359 0.427635,1.1188531 0,1.546489 l -8.202727,8.2027346 c -0.213271,0.213271 -0.493257,0.320454 -0.773244,0.320454 z" />
  <path
     style="fill:#3771c8"
     inkscape:connector-curvature="0"
     id="path12"
     d="m 25.753158,40.839731 c -0.279986,0 -0.559973,-0.107183 -0.773244,-0.320454 -0.427635,-0.427636 -0.427635,-1.118853 0,-1.546489 L 41.705821,22.246865 38.104277,18.645317 c -0.427635,-0.427636 -0.427635,-1.118853 0,-1.546489 0.427636,-0.427636 1.118852,-0.427636 1.546488,0 l 4.374787,4.374792 c 0.427636,0.427636 0.427636,1.118853 0,1.546489 l -17.49915,17.499168 c -0.213271,0.213271 -0.493257,0.320454 -0.773244,0.320454 z" />
  <path
     style="fill:#2c5aa0"
     inkscape:connector-curvature="0"
     id="path14"
     d="M 44.025552,12.724036 35.275977,3.9744524 c -0.427635,-0.4276359 -1.118852,-0.4276359 -1.546487,0 L 9.1213093,28.582657 c -0.4276354,0.427636 -0.4276354,1.118853 0,1.546489 l 8.7495757,8.749584 c 0.21327,0.213271 0.493257,0.320454 0.773243,0.320454 0.279987,0 0.559973,-0.107183 0.773244,-0.320454 l 24.60818,-24.608205 c 0.427636,-0.427636 0.427636,-1.118853 0,-1.546489 z" />
</svg>
