<?xml version="1.0" encoding="UTF-8" standalone="no"?>
<svg
   xmlns:dc="http://purl.org/dc/elements/1.1/"
   xmlns:cc="http://creativecommons.org/ns#"
   xmlns:rdf="http://www.w3.org/1999/02/22-rdf-syntax-ns#"
   xmlns:svg="http://www.w3.org/2000/svg"
   xmlns="http://www.w3.org/2000/svg"
   xmlns:sodipodi="http://sodipodi.sourceforge.net/DTD/sodipodi-0.dtd"
   xmlns:inkscape="http://www.inkscape.org/namespaces/inkscape"
   viewBox="0 0 48 48"
   id="svg2"
   version="1.1"
   inkscape:version="0.91 r13725"
   sodipodi:docname="calligraplugins.svg">
  <metadata
     id="metadata17">
    <rdf:RDF>
      <cc:Work
         rdf:about="">
        <dc:format>image/svg+xml</dc:format>
        <dc:type
           rdf:resource="http://purl.org/dc/dcmitype/StillImage" />
        <dc:title></dc:title>
      </cc:Work>
    </rdf:RDF>
  </metadata>
  <sodipodi:namedview
     pagecolor="#ffffff"
     bordercolor="#666666"
     borderopacity="1"
     objecttolerance="10"
     gridtolerance="10"
     guidetolerance="10"
     inkscape:pageopacity="0"
     inkscape:pageshadow="2"
     inkscape:window-width="1280"
     inkscape:window-height="694"
     id="namedview15"
     showgrid="false"
     inkscape:zoom="4.9166667"
     inkscape:cx="-9.1525424"
     inkscape:cy="24"
     inkscape:window-x="0"
     inkscape:window-y="0"
     inkscape:window-maximized="1"
     inkscape:current-layer="svg2" />
  <defs
     id="defs4">
    <linearGradient
       id="0"
       x1="11.941"
       y1="216.07"
       x2="10.719"
       y2="116.52"
       gradientUnits="userSpaceOnUse">
      <stop
         stop-color="#0973d9"
         id="stop7" />
      <stop
         offset="1"
         stop-color="#0cbffe"
         id="stop9" />
    </linearGradient>
  </defs>
  <path
     d="m 47.244671,22.682536 -7.007737,-7.039755 c -0.667031,-0.669928 -0.459859,-1.385568 0.459858,-1.592063 0,0 0.759629,-0.171816 1.69661,-1.112868 2.008937,-2.017664 2.007368,-5.2916387 0,-7.30615 -2.010507,-2.017664 -5.267182,-2.017664 -7.276118,0 -0.936981,0.9394747 -1.106485,1.702404 -1.106485,1.702404 -0.207172,0.925288 -0.921287,1.1333596 -1.588316,0.4618558 L 25.414746,0.76093291 c -0.667031,-0.6699275 -1.75939,-0.6699275 -2.42642,0 L 15.982158,7.7975361 C 15.316698,8.46904 15.5223,9.1862565 16.442016,9.394328 c 0,0 0.761199,0.1718167 1.69661,1.109715 2.007368,2.017665 2.008937,5.290063 0,7.309303 -2.008936,2.017665 -5.26875,2.016088 -7.276118,0 C 9.9270966,16.872295 9.756023,16.109366 9.756023,16.109366 9.5504208,15.184078 8.834737,14.977583 8.1677072,15.64751 l -7.0061678,7.03818 c -0.66702992,0.669927 -0.66702992,1.765455 0,2.433806 l 7.0061678,7.03818 c 0.6670298,0.669928 0.4598582,1.387145 -0.4598582,1.595216 0,0 -0.7596294,0.171817 -1.6966102,1.112868 -2.008937,2.017663 -2.008937,5.290062 0,7.30615 2.0089371,2.016088 5.2671822,2.017664 7.2761182,0 0.936981,-0.939475 1.106485,-1.702404 1.106485,-1.702404 0.207172,-0.925288 0.921287,-1.133359 1.588316,-0.461855 l 7.007737,7.035027 c 0.66703,0.669927 1.75939,0.669927 2.42642,0 l 7.009307,-7.036604 c 0.667029,-0.669927 0.459857,-1.388721 -0.459859,-1.595215 0,0 -0.761198,-0.171817 -1.696609,-1.109716 -2.010507,-2.017664 -2.008938,-5.290063 0,-7.309303 2.008936,-2.017664 5.267181,-2.01924 7.276118,0 0.935411,0.939475 1.104915,1.70398 1.104915,1.70398 0.207172,0.925288 0.921286,1.13336 1.588316,0.465008 l 7.007738,-7.039755 c 0.667029,-0.669928 0.667029,-1.765456 0,-2.433807"
     id="path13"
     style="fill:#2a7fff;fill-opacity:0.85100002"
     inkscape:connector-curvature="0" />
</svg>
