<?xml version="1.0" encoding="UTF-8" standalone="no"?>
<svg
   xmlns:dc="http://purl.org/dc/elements/1.1/"
   xmlns:cc="http://creativecommons.org/ns#"
   xmlns:rdf="http://www.w3.org/1999/02/22-rdf-syntax-ns#"
   xmlns:svg="http://www.w3.org/2000/svg"
   xmlns="http://www.w3.org/2000/svg"
   xmlns:sodipodi="http://sodipodi.sourceforge.net/DTD/sodipodi-0.dtd"
   xmlns:inkscape="http://www.inkscape.org/namespaces/inkscape"
   viewBox="0 0 48 48"
   id="svg2"
   version="1.1"
   inkscape:version="0.91 r13725"
   sodipodi:docname="chrome-ahfgeienlihckogmohjhadlkjgocpleb-Default.svg">
  <metadata
     id="metadata51">
    <rdf:RDF>
      <cc:Work
         rdf:about="">
        <dc:format>image/svg+xml</dc:format>
        <dc:type
           rdf:resource="http://purl.org/dc/dcmitype/StillImage" />
        <dc:title></dc:title>
      </cc:Work>
    </rdf:RDF>
  </metadata>
  <sodipodi:namedview
     pagecolor="#ffffff"
     bordercolor="#666666"
     borderopacity="1"
     objecttolerance="10"
     gridtolerance="10"
     guidetolerance="10"
     inkscape:pageopacity="0"
     inkscape:pageshadow="2"
     inkscape:window-width="1280"
     inkscape:window-height="694"
     id="namedview49"
     showgrid="false"
     inkscape:zoom="4.9166667"
     inkscape:cx="-42.305085"
     inkscape:cy="24"
     inkscape:window-x="0"
     inkscape:window-y="0"
     inkscape:window-maximized="1"
     inkscape:current-layer="svg2" />
  <defs
     id="defs4">
    <linearGradient
       gradientUnits="userSpaceOnUse"
       y2="503.8"
       x2="0"
       y1="519.8"
       id="3"
       gradientTransform="matrix(1.2,0,0,1.2,-466.29,-604.56)">
      <stop
         stop-color="#f23b2a"
         id="stop7" />
      <stop
         offset="1"
         stop-color="#fd5757"
         id="stop9" />
    </linearGradient>
    <linearGradient
       gradientUnits="userSpaceOnUse"
       y2="505.46"
       x2="0"
       y1="542.13"
       id="4"
       gradientTransform="matrix(1.2,0,0,1.2,-466.29,-604.56)">
      <stop
         stop-color="#e7e7e7"
         id="stop12" />
      <stop
         offset="1"
         stop-color="#fcfcfc"
         id="stop14" />
    </linearGradient>
    <linearGradient
       gradientUnits="userSpaceOnUse"
       y2="513.8"
       x2="396.57"
       y1="540.8"
       x1="396.65"
       id="2"
       gradientTransform="matrix(1.2,0,0,1.2,-466.29,-604.56)">
      <stop
         stop-color="#11aa43"
         id="stop17" />
      <stop
         offset="1"
         stop-color="#5be654"
         id="stop19" />
    </linearGradient>
    <linearGradient
       id="0"
       y1="542.8"
       x2="0"
       y2="503.85"
       gradientUnits="userSpaceOnUse"
       gradientTransform="matrix(1.2,0,0,1.2,-466.29,-604.56)">
      <stop
         stop-color="#79a8ca"
         id="stop22" />
      <stop
         offset="1"
         stop-color="#9ecbda"
         id="stop24" />
    </linearGradient>
    <linearGradient
       gradientUnits="userSpaceOnUse"
       y2="15"
       x2="0"
       y1="44"
       id="1"
       gradientTransform="matrix(1.2,0,0,1.2,-4.806,-4.8)">
      <stop
         stop-color="#f3b200"
         id="stop27" />
      <stop
         offset="1"
         stop-color="#fee145"
         id="stop29" />
    </linearGradient>
  </defs>
  <path
     style="fill-opacity:1;fill:#806600"
     inkscape:connector-curvature="0"
     id="path47"
     d="m 4.8512305,44.964343 c 1.4271441,-1.501432 2.9183873,-3.059935 3.3124072,-3.463829 0.3940201,-0.403893 0.7182854,-0.774861 0.7201706,-0.825348 0.00566,-0.09219 -4.1796284,-3.371636 -4.3681546,-3.422121 -0.056558,-0.01537 -0.1376243,0.107559 -0.1847559,0.274383 -0.1018036,0.375358 -1.4045209,6.049628 -2.1322326,9.282972 -0.1545915,0.689254 -0.158362,0.88242 -0.01131,0.88242 0.035821,0 1.2348474,-1.229242 2.6619916,-2.730672 M 44.383312,47.3899 c 0.759761,-1.161195 1.185831,-3.67236 1.004847,-5.924507 -0.205495,-2.561653 -0.805008,-4.335274 -1.953134,-5.784022 -0.852138,-1.075587 -1.57231,-1.308265 -2.396169,-0.779252 -1.28575,0.827543 -2.50363,1.703378 -2.6865,1.931666 -0.54107,0.678278 -0.503365,1.782401 0.10746,3.193834 0.618366,1.426799 1.28952,2.241171 2.784533,3.378221 1.542146,1.172169 2.168053,2.06776 2.505516,3.586751 0.109346,0.487307 0.220575,0.691449 0.380823,0.695839 0.02828,0 0.14328,-0.133899 0.252624,-0.300725 M 11.002844,36.855736 c 2.916502,-6.054016 6.636126,-13.565564 8.947459,-18.063272 0.503365,-0.981198 0.916238,-1.813131 0.916238,-1.846057 0,-0.11195 -4.339876,-3.217981 -4.454878,-3.187249 -0.116882,0.02854 -3.994871,7.632274 -6.7492411,13.236301 -0.8728768,1.77362 -2.1699378,4.297957 -2.8844525,5.610611 -0.7126294,1.312656 -1.404521,2.583603 -1.5364895,2.827257 -0.1376241,0.254629 -0.2092642,0.474136 -0.1696736,0.520233 0.194182,0.217312 4.5736483,3.481388 4.6396325,3.457242 0.041476,-0.01322 0.6221372,-1.158999 1.2895202,-2.544091 m 28.335505,-2.151174 c 1.127387,-0.746326 2.11715,-1.431189 2.200101,-1.521186 0.147051,-0.160241 0.141396,-0.182191 -0.275248,-1.018515 -0.233773,-0.469747 -0.801236,-1.61777 -1.261241,-2.552873 -0.460005,-0.932906 -0.889844,-1.709963 -0.955829,-1.725328 -0.171558,-0.03732 -4.432254,2.853597 -4.460533,3.029203 -0.02451,0.14707 2.2133,4.739167 2.462155,5.050868 0.07164,0.09 0.154591,0.147069 0.18664,0.127315 0.03205,-0.01756 0.978452,-0.647547 2.105839,-1.393873 m 8.487455,-4.85331 c 0.03205,-0.06585 0.0509,-1.479481 0.04148,-3.138957 l -0.01508,-3.018228 -4.794223,-0.0022 c -4.1834,-0.01756 -4.790454,-0.01098 -4.767831,0.11195 0.01508,0.07463 0.68058,1.497041 1.483702,3.163103 l 1.457309,3.027008 0.316724,0.02854 c 0.173444,0.01322 1.645834,0.01322 3.269047,0 2.335841,-0.01756 2.965518,-0.05268 3.012649,-0.147069 z m -15.157516,-0.12951 c 0.0132,-0.04829 -0.593857,-1.380702 -1.349848,-2.963351 l -1.374357,-2.879939 -5.844315,0 -5.844315,0 -1.380013,2.908474 c -0.759761,1.600209 -1.363045,2.941401 -1.342308,2.983106 0.05467,0.10317 17.099337,0.05707 17.137042,-0.04829 M 7.564124,29.230048 c 0.1564769,-0.316092 0.8012369,-1.615575 1.4346853,-2.888719 0.6334484,-1.273144 1.1500107,-2.35751 1.1500107,-2.410192 0,-0.06366 -1.6156706,-0.08561 -4.9054548,-0.07024 l -4.90545461,0.0022 -0.0245084,0.643158 c -0.0150821,0.353405 -1.8853e-4,1.685817 0.0282789,2.958961 l 0.0546726,2.315803 3.44249047,0 3.4424905,0 z m 28.90674,-1.169978 c 2.002149,-1.281923 1.970099,-1.259973 1.970099,-1.424604 0,-0.16024 -1.053861,-2.331168 -4.633976,-9.54199 C 29.872443,9.1670608 28.132344,5.6746965 26.986105,3.3457222 25.851177,1.0496738 25.581584,0.62163416 25.100841,0.33188426 24.718134,0.10359648 24.103538,0.06847528 23.707633,0.2506665 23.33058,0.42407742 21.999584,1.3262532 21.647039,1.6467342 c -0.563693,0.5136474 -0.778613,1.5299671 -0.490168,2.3311694 0.154591,0.4324299 0.04901,0.2173125 3.770526,7.7003224 5.861283,11.780968 8.872049,17.714255 9.05869,17.865715 0.04525,0.03732 0.262052,-0.05049 0.478857,-0.193166 0.216805,-0.14268 1.121731,-0.724375 2.00969,-1.2929 M 21.999584,14.501093 c 0.933205,-1.813132 1.07083,-2.129223 1.127388,-2.616529 0.118769,-1.00754 -0.337463,-1.683623 -1.777804,-2.6362855 C 20.532849,8.7082901 20.398996,8.6512181 19.922024,8.618292 19.267837,8.576585 18.945458,8.7346305 18.49488,9.3251062 c -0.337463,0.44121 -1.642064,3.1477378 -1.64018,3.3979758 0,0.09 0.812549,0.724375 2.147316,1.677037 1.180175,0.842908 2.169937,1.534358 2.200101,1.536552 0.02828,2.2e-4 0.39025,-0.645352 0.797467,-1.439968" />
</svg>
