<?xml version="1.0" encoding="UTF-8" standalone="no"?>
<svg
   xmlns:dc="http://purl.org/dc/elements/1.1/"
   xmlns:cc="http://creativecommons.org/ns#"
   xmlns:rdf="http://www.w3.org/1999/02/22-rdf-syntax-ns#"
   xmlns:svg="http://www.w3.org/2000/svg"
   xmlns="http://www.w3.org/2000/svg"
   xmlns:sodipodi="http://sodipodi.sourceforge.net/DTD/sodipodi-0.dtd"
   xmlns:inkscape="http://www.inkscape.org/namespaces/inkscape"
   x="0px"
   y="0px"
   width="48px"
   height="48px"
   viewBox="0 0 48 48"
   id="svg2"
   version="1.1"
   inkscape:version="0.91 r13725"
   sodipodi:docname="clamav.svg">
  <metadata
     id="metadata26">
    <rdf:RDF>
      <cc:Work
         rdf:about="">
        <dc:format>image/svg+xml</dc:format>
        <dc:type
           rdf:resource="http://purl.org/dc/dcmitype/StillImage" />
        <dc:title></dc:title>
      </cc:Work>
    </rdf:RDF>
  </metadata>
  <defs
     id="defs24" />
  <sodipodi:namedview
     pagecolor="#ffffff"
     bordercolor="#666666"
     borderopacity="1"
     objecttolerance="10"
     gridtolerance="10"
     guidetolerance="10"
     inkscape:pageopacity="0"
     inkscape:pageshadow="2"
     inkscape:window-width="1280"
     inkscape:window-height="694"
     id="namedview22"
     showgrid="false"
     inkscape:zoom="4.9166667"
     inkscape:cx="-9.1525424"
     inkscape:cy="24"
     inkscape:window-x="0"
     inkscape:window-y="0"
     inkscape:window-maximized="1"
     inkscape:current-layer="svg2" />
  <path
     style="fill:#ff2a2a"
     inkscape:connector-curvature="0"
     id="path6"
     d="m 6.0228034,13.366016 c -0.1242112,0 -0.2495239,-0.01957 -0.3715094,-0.05924 C 5.2709157,13.180897 4.9881303,12.871479 4.9093883,12.493841 L 2.6492966,1.6501567 C 2.5661258,1.2534762 2.7224856,0.84569279 3.0540788,0.59287272 3.3845592,0.34058342 3.8381264,0.28504749 4.2240464,0.44954302 L 14.444385,4.7823634 c 0.355986,0.1507388 0.605499,0.4649116 0.662062,0.8324973 0.05655,0.3681164 -0.08871,0.7372944 -0.383705,0.9795424 L 6.7624947,13.105267 C 6.5528983,13.2761 6.2900766,13.366016 6.0228034,13.366016 Z" />
  <path
     style="fill:#ff2a2a"
     inkscape:connector-curvature="0"
     id="path8"
     d="m 42.383975,13.366016 c -0.267262,0 -0.530095,-0.08992 -0.739691,-0.260749 L 33.684037,6.5944031 C 33.389044,6.3521659 33.243767,5.9829879 33.300331,5.6148607 33.356884,5.2472642 33.606408,4.9331022 33.962393,4.7823634 L 44.182732,0.44954302 c 0.38592,-0.16449553 0.839499,-0.1089596 1.169968,0.1433297 0.331582,0.25282007 0.487953,0.66060348 0.404782,1.05728398 L 43.49739,12.493841 c -0.07874,0.377638 -0.361527,0.687056 -0.741905,0.812935 -0.121997,0.03968 -0.24731,0.05924 -0.37151,0.05924 z" />
  <path
     style="fill:#ff5555"
     inkscape:connector-curvature="0"
     id="path10"
     d="m 24.203389,48.016946 c -13.149147,0 -23.8474569,-10.204236 -23.8474569,-22.747307 0,-12.543071 10.6983099,-22.7473072 23.8474569,-22.7473072 13.149148,0 23.847457,10.2042362 23.847457,22.7473072 0,12.543071 -10.698309,22.747307 -23.847457,22.747307 z" />
  <path
     style="fill:#fa645a"
     inkscape:connector-curvature="0"
     id="path12"
     d="m 24.203389,39.351305 c -5.635267,0 -10.220338,-4.373549 -10.220338,-9.748846 0,-0.5982 0.508461,-1.083205 1.135593,-1.083205 l 18.169491,0 c 0.627131,0 1.135593,0.485005 1.135593,1.083205 0,5.375297 -4.585071,9.748846 -10.220339,9.748846 z" />
  <path
     style="fill:#ff2a2a"
     inkscape:connector-curvature="0"
     id="path14"
     d="m 24.203389,39.351305 c -5.635267,0 -10.220338,-4.373549 -10.220338,-9.748846 0,-0.5982 0.508461,-1.083205 1.135593,-1.083205 l 18.169491,0 c 0.627131,0 1.135593,0.485005 1.135593,1.083205 0,5.375297 -4.585071,9.748846 -10.220339,9.748846 z" />
  <path
     style="fill:#ff2a2a"
     inkscape:connector-curvature="0"
     id="path16"
     d="m 34.423728,29.602459 c 0,-0.5982 -0.508462,-1.083205 -1.135593,-1.083205 l -18.169491,0 c -0.627132,0 -1.135593,0.485005 -1.135593,1.083205 0,0.316946 0,0.696772 0,1.083205 l 20.440677,0 c 0,-0.386433 0,-0.766259 0,-1.083205 z" />
  <path
     style="fill:#ff2a2a"
     inkscape:connector-curvature="0"
     id="path18"
     d="m 11.573935,15.520793 c -0.616525,0.588148 -0.997937,1.400552 -0.997937,2.297976 0,1.794849 1.525397,3.249876 3.407052,3.249876 1.881656,0 3.407053,-1.455027 3.407053,-3.249876 l -5.816168,-2.297976 z" />
  <path
     style="fill:#ff2a2a"
     inkscape:connector-curvature="0"
     id="path20"
     d="m 36.832571,15.520793 c 0.616514,0.588148 0.997937,1.400552 0.997937,2.297976 0,1.794849 -1.525397,3.249876 -3.407052,3.249876 -1.881656,0 -3.407053,-1.455027 -3.407053,-3.249876 l 5.816168,-2.297976 z" />
</svg>
