<?xml version="1.0" encoding="UTF-8" standalone="no"?>
<svg
   xmlns:dc="http://purl.org/dc/elements/1.1/"
   xmlns:cc="http://creativecommons.org/ns#"
   xmlns:rdf="http://www.w3.org/1999/02/22-rdf-syntax-ns#"
   xmlns:svg="http://www.w3.org/2000/svg"
   xmlns="http://www.w3.org/2000/svg"
   xmlns:sodipodi="http://sodipodi.sourceforge.net/DTD/sodipodi-0.dtd"
   xmlns:inkscape="http://www.inkscape.org/namespaces/inkscape"
   viewBox="0 0 48 48"
   id="svg2"
   version="1.1"
   inkscape:version="0.91 r13725"
   sodipodi:docname="clementine-panel-grey.svg">
  <metadata
     id="metadata10">
    <rdf:RDF>
      <cc:Work
         rdf:about="">
        <dc:format>image/svg+xml</dc:format>
        <dc:type
           rdf:resource="http://purl.org/dc/dcmitype/StillImage" />
        <dc:title></dc:title>
      </cc:Work>
    </rdf:RDF>
  </metadata>
  <defs
     id="defs8" />
  <sodipodi:namedview
     pagecolor="#ffffff"
     bordercolor="#666666"
     borderopacity="1"
     objecttolerance="10"
     gridtolerance="10"
     guidetolerance="10"
     inkscape:pageopacity="0"
     inkscape:pageshadow="2"
     inkscape:window-width="1280"
     inkscape:window-height="694"
     id="namedview6"
     showgrid="false"
     inkscape:zoom="4.9166667"
     inkscape:cx="-9.1525424"
     inkscape:cy="24"
     inkscape:window-x="0"
     inkscape:window-y="0"
     inkscape:window-maximized="1"
     inkscape:current-layer="svg2" />
  <path
     d="m 47.336571,21.782617 c -0.330274,0.235483 -0.817094,0.247637 -1.170276,0.03495 L 34.51506,14.762174 28.995854,41.040626 c -0.021,0.100272 -0.06491,0.189907 -0.129813,0.273465 -1.107277,3.767738 -7.147669,6.575311 -14.251426,6.575311 -7.9628544,0 -14.44233711,-3.509466 -14.44233711,-7.822614 0,-4.314668 6.47757351,-7.824134 14.44233711,-7.824134 3.270286,0 6.378301,0.581872 8.905949,1.649906 L 30.820952,0.93851837 c 0.06491,-0.30081133 0.36082,-0.5408527 0.744549,-0.59706491 0.370366,-0.0516544 0.757914,0.0835587 0.954549,0.34942731 L 47.516027,20.860432 c 0.227182,0.306889 0.150824,0.68822 -0.181365,0.923704"
     id="path4"
     style="fill:#93a7ac;fill-opacity:0.33700005;enable-background:new"
     inkscape:connector-curvature="0" />
</svg>
