<?xml version="1.0" encoding="UTF-8" standalone="no"?>
<svg
   xmlns:dc="http://purl.org/dc/elements/1.1/"
   xmlns:cc="http://creativecommons.org/ns#"
   xmlns:rdf="http://www.w3.org/1999/02/22-rdf-syntax-ns#"
   xmlns:svg="http://www.w3.org/2000/svg"
   xmlns="http://www.w3.org/2000/svg"
   xmlns:sodipodi="http://sodipodi.sourceforge.net/DTD/sodipodi-0.dtd"
   xmlns:inkscape="http://www.inkscape.org/namespaces/inkscape"
   viewBox="0 0 48 48"
   id="svg2"
   version="1.1"
   inkscape:version="0.91 r13725"
   sodipodi:docname="converseen.svg">
  <metadata
     id="metadata23">
    <rdf:RDF>
      <cc:Work
         rdf:about="">
        <dc:format>image/svg+xml</dc:format>
        <dc:type
           rdf:resource="http://purl.org/dc/dcmitype/StillImage" />
        <dc:title></dc:title>
      </cc:Work>
    </rdf:RDF>
  </metadata>
  <sodipodi:namedview
     pagecolor="#ffffff"
     bordercolor="#666666"
     borderopacity="1"
     objecttolerance="10"
     gridtolerance="10"
     guidetolerance="10"
     inkscape:pageopacity="0"
     inkscape:pageshadow="2"
     inkscape:window-width="1280"
     inkscape:window-height="694"
     id="namedview21"
     showgrid="false"
     inkscape:zoom="4.9166667"
     inkscape:cx="-9.1525424"
     inkscape:cy="24"
     inkscape:window-x="0"
     inkscape:window-y="0"
     inkscape:window-maximized="1"
     inkscape:current-layer="svg2" />
  <defs
     id="defs4">
    <linearGradient
       id="0"
       y1="546.29"
       x2="0"
       y2="501.51"
       gradientUnits="userSpaceOnUse"
       gradientTransform="matrix(1.07196,0,0,1.07196,-413.17,-537.6)">
      <stop
         stop-color="#197cf1"
         id="stop7" />
      <stop
         offset="1"
         stop-color="#20bcfa"
         id="stop9" />
    </linearGradient>
  </defs>
  <g
     style="fill:#5599ff;fill-opacity:0.853"
     id="g15"
     transform="matrix(0.50623372,0,0,0.46155598,-1.9327417,0.35621609)">
    <path
       inkscape:connector-curvature="0"
       id="path17"
       d="m 61.977,17.16 -13.7,13.699 c -0.789,0.79 -2.074,0.79 -2.866,0 l -0.197,-0.202 0,-10.09 c -16.543,1.156 -29.65,14.975 -29.65,31.806 0,11.82 6.487,22.617 16.937,28.17 2.631,1.402 3.631,4.671 2.233,7.31 -1.403,2.635 -4.671,3.634 -7.306,2.231 C 13.445,82.644 4.758,68.195 4.758,52.368 4.758,29.576 22.711,10.898 45.215,9.727 l 0,-8.941 0.197,-0.199 c 0.792,-0.79 2.077,-0.79 2.866,0 l 13.699,13.696 c 0.794,0.794 0.794,2.08 0,2.867"
       style="fill:#5599ff" />
    <path
       inkscape:connector-curvature="0"
       id="path19"
       d="M 54.17,101.86 40.473,88.165 c -0.792,-0.79 -0.792,-2.074 0,-2.864 L 54.17,71.606 c 0.791,-0.794 2.074,-0.794 2.868,0 l 0.191,0.198 0.007,10.08 c 16.536,-1.154 29.65,-14.969 29.65,-31.803 0,-11.82 -6.491,-22.614 -16.939,-28.18 -2.635,-1.4 -3.635,-4.675 -2.234,-7.31 1.406,-2.635 4.678,-3.634 7.312,-2.231 13.979,7.44 22.669,21.892 22.669,37.716 0,22.794 -17.953,41.469 -40.457,42.636 l 0,8.942 -0.198,0.198 c -0.795,0.792 -2.078,0.792 -2.869,10e-5"
       style="fill:#5599ff" />
  </g>
</svg>
