<?xml version="1.0" encoding="UTF-8" standalone="no"?>
<svg
   xmlns:dc="http://purl.org/dc/elements/1.1/"
   xmlns:cc="http://creativecommons.org/ns#"
   xmlns:rdf="http://www.w3.org/1999/02/22-rdf-syntax-ns#"
   xmlns:svg="http://www.w3.org/2000/svg"
   xmlns="http://www.w3.org/2000/svg"
   xmlns:sodipodi="http://sodipodi.sourceforge.net/DTD/sodipodi-0.dtd"
   xmlns:inkscape="http://www.inkscape.org/namespaces/inkscape"
   viewBox="0 0 512 512"
   id="svg2"
   version="1.1"
   inkscape:version="0.91 r13725"
   width="512"
   height="512"
   sodipodi:docname="cs-tablet.svg">
  <metadata
     id="metadata77">
    <rdf:RDF>
      <cc:Work
         rdf:about="">
        <dc:format>image/svg+xml</dc:format>
        <dc:type
           rdf:resource="http://purl.org/dc/dcmitype/StillImage" />
        <dc:title></dc:title>
      </cc:Work>
    </rdf:RDF>
  </metadata>
  <sodipodi:namedview
     pagecolor="#ffffff"
     bordercolor="#666666"
     borderopacity="1"
     objecttolerance="10"
     gridtolerance="10"
     guidetolerance="10"
     inkscape:pageopacity="0"
     inkscape:pageshadow="2"
     inkscape:window-width="1280"
     inkscape:window-height="694"
     id="namedview75"
     showgrid="false"
     inkscape:zoom="0.43457603"
     inkscape:cx="-100.92758"
     inkscape:cy="277.75009"
     inkscape:window-x="0"
     inkscape:window-y="0"
     inkscape:window-maximized="1"
     inkscape:current-layer="g59" />
  <defs
     id="defs4">
    <linearGradient
       id="linearGradient3764"
       y1="47"
       x2="0"
       y2="1"
       gradientUnits="userSpaceOnUse">
      <stop
         stop-color="#a2e7e8"
         stop-opacity="1"
         id="stop7" />
      <stop
         offset="1"
         stop-color="#b2ecec"
         stop-opacity="1"
         id="stop9" />
    </linearGradient>
    <clipPath
       id="clipPath-599798769">
      <g
         transform="translate(0,-1004.3622)"
         id="g12">
        <path
           d="m -24,13 c 0,1.105 -0.672,2 -1.5,2 -0.828,0 -1.5,-0.895 -1.5,-2 0,-1.105 0.672,-2 1.5,-2 0.828,0 1.5,0.895 1.5,2 z"
           transform="matrix(15.333333,0,0,11.5,414.99999,878.8622)"
           id="path14"
           inkscape:connector-curvature="0"
           style="fill:#1890d0" />
      </g>
    </clipPath>
    <clipPath
       id="clipPath-609371321">
      <g
         transform="translate(0,-1004.3622)"
         id="g17">
        <path
           d="m -24,13 c 0,1.105 -0.672,2 -1.5,2 -0.828,0 -1.5,-0.895 -1.5,-2 0,-1.105 0.672,-2 1.5,-2 0.828,0 1.5,0.895 1.5,2 z"
           transform="matrix(15.333333,0,0,11.5,414.99999,878.8622)"
           id="path19"
           inkscape:connector-curvature="0"
           style="fill:#1890d0" />
      </g>
    </clipPath>
  </defs>
  <g
     id="g33"
     transform="translate(0,464)" />
  <g
     id="g55"
     transform="matrix(1.0391134,0,0,1,-0.4302477,464)">
    <g
       id="g59">
      <g
         id="g4161"
         transform="matrix(1.083231,0,0,1.3171483,4.5555647,45.901228)">
        <path
           id="rect4169"
           d="m 60.157228,-384.16508 0,384.545458 359.790992,0 c 17.08492,0 30.83926,-14.292266 30.83926,-32.045446 l 0,-320.454562 c 0,-17.75318 -13.75434,-32.04545 -30.83926,-32.04545 l -359.790992,0 z"
           style="opacity:1;fill:#dbdee3;fill-opacity:1;stroke:none;stroke-width:20.95770454;stroke-linecap:round;stroke-linejoin:round;stroke-miterlimit:4;stroke-dasharray:none;stroke-opacity:1"
           inkscape:connector-curvature="0" />
        <path
           id="rect4171"
           d="m 29.317978,-384.16508 c -17.08493,0 -30.8391603,14.29227 -30.8391603,32.04545 l 0,320.454559 c 0,17.753181 13.7542303,32.045454 30.8391603,32.045454 l 30.83926,0 0,-10.681818 0,-64.09091 0,-309.772735 -30.83926,0 z"
           style="opacity:1;fill:#b7bec8;fill-opacity:1;stroke:none;stroke-width:20.95770454;stroke-linecap:round;stroke-linejoin:round;stroke-miterlimit:4;stroke-dasharray:none;stroke-opacity:1"
           inkscape:connector-curvature="0" />
        <ellipse
           ry="16.022728"
           rx="15.419614"
           cy="-43.824661"
           cx="27.103594"
           id="path4242"
           style="opacity:1;fill:#0b1728;fill-opacity:1;stroke:none;stroke-width:20.95770454;stroke-linecap:round;stroke-linejoin:round;stroke-miterlimit:4;stroke-dasharray:none;stroke-opacity:1" />
      </g>
      <g
         id="g4137"
         transform="matrix(5.2284041,0,0,5.4230405,245.3448,-212.78023)"
         style="fill:#0b1728">
        <rect
           x="-32.641804"
           y="32.847069"
           transform="matrix(0.70710642,-0.70710714,0.70710642,0.70710714,0,0)"
           width="8.374361"
           height="2.1873739"
           id="rect6"
           style="fill:#0b1728" />
        <path
           d="m 7.1603108,46.308221 c -0.2799864,0 -0.5599728,-0.107183 -0.7732437,-0.320454 L 2.0122795,41.612975 c -0.4276355,-0.427636 -0.4276355,-1.118853 0,-1.546489 L 14.589794,27.488959 c 0.427635,-0.427636 1.118852,-0.427636 1.546487,0 l 4.374788,4.374792 c 0.427635,0.427636 0.427635,1.118853 0,1.546489 L 7.9335545,45.987767 c -0.2132709,0.213271 -0.4932573,0.320454 -0.7732437,0.320454 z"
           id="path8"
           inkscape:connector-curvature="0"
           style="fill:#0b1728" />
        <path
           d="m 38.330672,15.137828 c -0.279986,0 -0.559972,-0.107183 -0.773243,-0.320454 l -4.374788,-4.374792 c -0.427635,-0.427636 -0.427635,-1.1188527 0,-1.5464886 l 8.202727,-8.20273499 c 0.427635,-0.42763591 1.118852,-0.42763591 1.546487,0 l 4.374788,4.37479199 c 0.427635,0.4276359 0.427635,1.1188531 0,1.546489 l -8.202727,8.2027346 c -0.213271,0.213271 -0.493257,0.320454 -0.773244,0.320454 z"
           id="path10"
           inkscape:connector-curvature="0"
           style="fill:#0b1728" />
        <path
           d="m 25.753158,40.839731 c -0.279986,0 -0.559973,-0.107183 -0.773244,-0.320454 -0.427635,-0.427636 -0.427635,-1.118853 0,-1.546489 L 41.705821,22.246865 38.104277,18.645317 c -0.427635,-0.427636 -0.427635,-1.118853 0,-1.546489 0.427636,-0.427636 1.118852,-0.427636 1.546488,0 l 4.374787,4.374792 c 0.427636,0.427636 0.427636,1.118853 0,1.546489 l -17.49915,17.499168 c -0.213271,0.213271 -0.493257,0.320454 -0.773244,0.320454 z"
           id="path12"
           inkscape:connector-curvature="0"
           style="fill:#0b1728" />
        <path
           d="M 44.025552,12.724036 35.275977,3.9744524 c -0.427635,-0.4276359 -1.118852,-0.4276359 -1.546487,0 L 9.1213093,28.582657 c -0.4276354,0.427636 -0.4276354,1.118853 0,1.546489 l 8.7495757,8.749584 c 0.21327,0.213271 0.493257,0.320454 0.773243,0.320454 0.279987,0 0.559973,-0.107183 0.773244,-0.320454 l 24.60818,-24.608205 c 0.427636,-0.427636 0.427636,-1.118853 0,-1.546489 z"
           id="path14-5"
           inkscape:connector-curvature="0"
           style="fill:#0b1728" />
      </g>
    </g>
  </g>
</svg>
