<?xml version="1.0" encoding="UTF-8" standalone="no"?>
<svg
   xmlns:dc="http://purl.org/dc/elements/1.1/"
   xmlns:cc="http://creativecommons.org/ns#"
   xmlns:rdf="http://www.w3.org/1999/02/22-rdf-syntax-ns#"
   xmlns:svg="http://www.w3.org/2000/svg"
   xmlns="http://www.w3.org/2000/svg"
   xmlns:sodipodi="http://sodipodi.sourceforge.net/DTD/sodipodi-0.dtd"
   xmlns:inkscape="http://www.inkscape.org/namespaces/inkscape"
   viewBox="0 0 48 48"
   id="svg2"
   version="1.1"
   inkscape:version="0.91 r13725"
   sodipodi:docname="cxmenu-cxoffice-0-cxregister.svg">
  <metadata
     id="metadata44">
    <rdf:RDF>
      <cc:Work
         rdf:about="">
        <dc:format>image/svg+xml</dc:format>
        <dc:type
           rdf:resource="http://purl.org/dc/dcmitype/StillImage" />
        <dc:title></dc:title>
      </cc:Work>
    </rdf:RDF>
  </metadata>
  <sodipodi:namedview
     pagecolor="#ffffff"
     bordercolor="#666666"
     borderopacity="1"
     objecttolerance="10"
     gridtolerance="10"
     guidetolerance="10"
     inkscape:pageopacity="0"
     inkscape:pageshadow="2"
     inkscape:window-width="1280"
     inkscape:window-height="694"
     id="namedview42"
     showgrid="false"
     inkscape:zoom="4.9166667"
     inkscape:cx="-11.542603"
     inkscape:cy="24"
     inkscape:window-x="0"
     inkscape:window-y="0"
     inkscape:window-maximized="1"
     inkscape:current-layer="svg2" />
  <defs
     id="defs4">
    <linearGradient
       id="3"
       y1="923.15"
       x2="0"
       y2="859.58"
       gradientUnits="userSpaceOnUse"
       gradientTransform="matrix(0.28097991,0,0,0.28097991,-5.3719049,-212.78276)">
      <stop
         stop-color="#2e3436"
         id="stop7" />
      <stop
         offset="1"
         stop-color="#555753"
         id="stop9" />
    </linearGradient>
    <linearGradient
       id="2"
       y1="547.8"
       x2="0"
       y2="499.8"
       gradientUnits="userSpaceOnUse"
       gradientTransform="translate(-384.57,-499.8)">
      <stop
         stop-color="#e7e7e7"
         id="stop12" />
      <stop
         offset="1"
         stop-color="#fcfcfc"
         id="stop14" />
    </linearGradient>
    <linearGradient
       id="0"
       y1="536.64"
       x2="0"
       y2="515.74"
       gradientUnits="userSpaceOnUse"
       gradientTransform="matrix(1.24675,0,0,1.24675,-485.39,-629.05)">
      <stop
         stop-color="#197ff1"
         id="stop17" />
      <stop
         offset="1"
         stop-color="#21c6fb"
         id="stop19" />
    </linearGradient>
    <linearGradient
       id="1"
       y1="532.29"
       x2="0"
       y2="510.68"
       gradientUnits="userSpaceOnUse"
       gradientTransform="matrix(1.24675,0,0,1.24675,-485.39,-629.05)">
      <stop
         stop-color="#ff9300"
         id="stop22" />
      <stop
         offset="1"
         stop-color="#ffd702"
         id="stop24" />
    </linearGradient>
  </defs>
  <g
     id="g4183"
     transform="matrix(1.7883954,0,0,1.4701692,-18.920219,-11.281784)">
    <path
       inkscape:connector-curvature="0"
       style="fill:#ffd42a"
       id="path32"
       d="M 25.391007,7.98938 C 42.945248,29.321272 38.09165,37.723121 10.841435,33.186198 29.131258,32.545368 33.982362,24.146013 25.391007,7.98938" />
    <path
       inkscape:connector-curvature="0"
       style="fill:#2a7fff"
       id="path34"
       d="M 24.18166,13.599755 C 11.229174,13.817936 8.8902713,20.145193 17.088899,32.57529 17.861884,32.440641 18.601207,32.297265 19.30188,32.120226 16.168798,21.102697 22.118289,15.307803 37.15534,14.781674 32.046159,13.931391 27.716196,13.539911 24.18166,13.599755 m -6.031777,20.551427 c 1.280413,1.826489 2.752825,3.777653 4.455885,5.849751 -1.073452,-2.019735 -1.95241,-3.921029 -2.606954,-5.698894 -0.597194,-0.03616 -1.218075,-0.096 -1.848931,-0.152104" />
  </g>
  <path
     d="m 47.538386,33.891889 c -0.03716,-0.347609 -0.422825,-0.608832 -0.755713,-0.608832 -1.077353,0 -2.033481,-0.665395 -2.434802,-1.694855 -0.409627,-1.054144 -0.14567,-2.283632 0.65746,-3.058556 0.252722,-0.243225 0.283517,-0.649969 0.07137,-0.932789 -0.551389,-0.73687 -1.178054,-1.402267 -1.862886,-1.978702 -0.267872,-0.226253 -0.661371,-0.194888 -0.893559,0.07611 -0.700966,0.816575 -1.960161,1.119964 -2.932418,0.693165 -1.012342,-0.447883 -1.650739,-1.527222 -1.588169,-2.685236 0.02053,-0.364064 -0.232189,-0.680309 -0.576807,-0.722473 -0.878404,-0.106961 -1.764143,-0.110047 -2.644992,-0.0072 -0.340705,0.0396 -0.593426,0.348639 -0.582183,0.707562 0.03813,1.146701 -0.607599,2.207016 -1.610165,2.638957 -0.961016,0.412915 -2.210924,0.112091 -2.91042,-0.697278 -0.231211,-0.266363 -0.617867,-0.299273 -0.887206,-0.07868 -0.704874,0.581578 -1.345716,1.247489 -1.90199,1.978189 -0.217036,0.283848 -0.185261,0.695734 0.07039,0.939988 0.818282,0.779549 1.082731,2.019838 0.65746,3.085294 -0.40572,1.016604 -1.409262,1.671716 -2.558472,1.671716 -0.37297,-0.01241 -0.638397,0.250423 -0.678969,0.607288 -0.103619,0.929189 -0.104611,1.87586 -4.89e-4,2.812761 0.03667,0.349154 0.43407,0.608319 0.770866,0.608319 1.024073,-0.02725 2.006597,0.639169 2.419159,1.694854 0.411095,1.054143 0.146645,2.283119 -0.657461,3.058556 -0.25174,0.243224 -0.283513,0.649455 -0.07136,0.93176 0.546498,0.731729 1.173162,1.398153 1.859951,1.979732 0.269338,0.228311 0.661372,0.195915 0.895025,-0.07456 0.70341,-0.818632 1.960159,-1.121506 2.930952,-0.693678 1.014786,0.446339 1.653183,1.525679 1.590613,2.684721 -0.02052,0.364064 0.233656,0.680822 0.576807,0.722473 0.449223,0.05502 0.901377,0.08279 1.354512,0.08279 0.43016,0 0.86032,-0.02468 1.29048,-0.07507 0.341194,-0.0396 0.593425,-0.348638 0.582183,-0.708589 -0.0396,-1.146188 0.607599,-2.2065 1.608697,-2.637414 0.967372,-0.415485 2.212392,-0.11158 2.911888,0.696763 0.232678,0.26585 0.616401,0.298246 0.887205,0.07815 0.703411,-0.580036 1.342784,-1.245431 1.901991,-1.978187 0.217035,-0.283333 0.18624,-0.695736 -0.07039,-0.939988 -0.818282,-0.779552 -1.083707,-2.01984 -0.658926,-3.085294 0.399853,-1.003236 1.365757,-1.676859 2.405472,-1.676859 l 0.145187,0.0043 c 0.337284,0.02879 0.647194,-0.244252 0.688255,-0.606259 0.103618,-0.930219 0.10461,-1.875861 0.0054,-2.81276 M 35.877152,39.4168 c -2.16253,0 -3.92032,-1.850663 -3.92032,-4.124011 0,-2.274891 1.759256,-4.124012 3.92032,-4.124012 2.162531,0 3.920319,1.850663 3.920319,4.124012 0,2.274892 -1.759256,4.124011 -3.920319,4.124011"
     id="path40"
     inkscape:connector-curvature="0"
     style="fill:#dbdee3;fill-opacity:1;fill-rule:evenodd;stroke-width:1.31700003" />
</svg>
