<?xml version="1.0" encoding="UTF-8" standalone="no"?>
<svg
   xmlns:dc="http://purl.org/dc/elements/1.1/"
   xmlns:cc="http://creativecommons.org/ns#"
   xmlns:rdf="http://www.w3.org/1999/02/22-rdf-syntax-ns#"
   xmlns:svg="http://www.w3.org/2000/svg"
   xmlns="http://www.w3.org/2000/svg"
   xmlns:sodipodi="http://sodipodi.sourceforge.net/DTD/sodipodi-0.dtd"
   xmlns:inkscape="http://www.inkscape.org/namespaces/inkscape"
   viewBox="0 0 48 48"
   id="svg2"
   version="1.1"
   inkscape:version="0.91 r13725"
   sodipodi:docname="dianara.svg">
  <metadata
     id="metadata25">
    <rdf:RDF>
      <cc:Work
         rdf:about="">
        <dc:format>image/svg+xml</dc:format>
        <dc:type
           rdf:resource="http://purl.org/dc/dcmitype/StillImage" />
        <dc:title></dc:title>
      </cc:Work>
    </rdf:RDF>
  </metadata>
  <sodipodi:namedview
     pagecolor="#ffffff"
     bordercolor="#666666"
     borderopacity="1"
     objecttolerance="10"
     gridtolerance="10"
     guidetolerance="10"
     inkscape:pageopacity="0"
     inkscape:pageshadow="2"
     inkscape:window-width="1280"
     inkscape:window-height="694"
     id="namedview23"
     showgrid="false"
     inkscape:zoom="4.9166667"
     inkscape:cx="-9.1525424"
     inkscape:cy="24"
     inkscape:window-x="0"
     inkscape:window-y="0"
     inkscape:window-maximized="1"
     inkscape:current-layer="svg2" />
  <defs
     id="defs4">
    <linearGradient
       gradientUnits="userSpaceOnUse"
       y2="520.78"
       x2="361.83"
       y1="549.48"
       x1="361.86"
       id="0"
       gradientTransform="matrix(1.41506,0,0,1.41506,-487.69,-733.95)">
      <stop
         stop-color="#1074f5"
         id="stop7" />
      <stop
         offset="1"
         stop-color="#02befd"
         id="stop9" />
    </linearGradient>
  </defs>
  <g
     id="g4158"
     transform="matrix(1,0,0,1.1151778,0,-2.7649196)">
    <path
       d="M 40.919814,8.531982 C 36.394452,4.8485808 30.384692,2.8151396 23.998526,2.8151396 c -6.386166,0 -12.39451,2.027781 -16.9212874,5.7168424 -4.5649835,3.714532 -7.07529996,8.667243 -7.07529996,13.942586 0,5.034784 2.29239716,9.77382 6.46965436,13.426089 -0.074998,0.169808 -0.1358458,0.348105 -0.1726374,0.534893 l -1.3726082,6.752666 c -0.1627319,0.802339 0.056602,1.28063 0.2688614,1.541001 0.2462205,0.299993 0.6098909,0.46697 1.0259185,0.46697 0.3141434,0 0.6509276,-0.09198 1.0032776,-0.275937 l 7.9837681,-4.147541 c 2.765028,0.890073 5.736654,1.355628 8.794598,1.355628 6.386166,0 12.394511,-2.027781 16.921288,-5.716843 4.564983,-3.714532 7.0753,-8.665827 7.0753,-13.942586 0,-5.275344 -2.514562,-10.226639 -7.0753,-13.9425862"
       id="path13"
       style="fill:#2a7fff"
       inkscape:connector-curvature="0" />
    <g
       transform="matrix(1.132048,0,0,1.132048,-329.79761,-583.35931)"
       id="g15"
       style="fill:#d5e5ff;fill-opacity:0.847;fill-rule:evenodd">
      <circle
         cx="303.92001"
         cy="535.63"
         r="3.533"
         id="circle17"
         style="opacity:0.9;fill:#d5e5ff" />
      <circle
         cx="312.53"
         cy="535.63"
         r="3.533"
         id="circle19"
         style="opacity:0.9;fill:#d5e5ff" />
      <circle
         cx="321.16"
         cy="535.63"
         r="3.533"
         id="circle21"
         style="opacity:0.9;fill:#d5e5ff" />
    </g>
  </g>
</svg>
