<?xml version="1.0" encoding="UTF-8" standalone="no"?>
<svg
   xmlns:dc="http://purl.org/dc/elements/1.1/"
   xmlns:cc="http://creativecommons.org/ns#"
   xmlns:rdf="http://www.w3.org/1999/02/22-rdf-syntax-ns#"
   xmlns:svg="http://www.w3.org/2000/svg"
   xmlns="http://www.w3.org/2000/svg"
   xmlns:sodipodi="http://sodipodi.sourceforge.net/DTD/sodipodi-0.dtd"
   xmlns:inkscape="http://www.inkscape.org/namespaces/inkscape"
   viewBox="0 0 48 48"
   id="svg2"
   version="1.1"
   inkscape:version="0.91 r13725"
   sodipodi:docname="documentation.svg">
  <metadata
     id="metadata28">
    <rdf:RDF>
      <cc:Work
         rdf:about="">
        <dc:format>image/svg+xml</dc:format>
        <dc:type
           rdf:resource="http://purl.org/dc/dcmitype/StillImage" />
        <dc:title></dc:title>
      </cc:Work>
    </rdf:RDF>
  </metadata>
  <sodipodi:namedview
     pagecolor="#ffffff"
     bordercolor="#666666"
     borderopacity="1"
     objecttolerance="10"
     gridtolerance="10"
     guidetolerance="10"
     inkscape:pageopacity="0"
     inkscape:pageshadow="2"
     inkscape:window-width="1280"
     inkscape:window-height="694"
     id="namedview26"
     showgrid="false"
     inkscape:zoom="4.9166667"
     inkscape:cx="-3.282307"
     inkscape:cy="24"
     inkscape:window-x="0"
     inkscape:window-y="0"
     inkscape:window-maximized="1"
     inkscape:current-layer="svg2" />
  <defs
     id="defs4">
    <linearGradient
       id="0"
       x1="13.223"
       y1="44.685"
       x2="8.213"
       y2="3.112"
       gradientUnits="userSpaceOnUse"
       gradientTransform="matrix(0.9999895,0,0,0.99999324,11.401566,2.3501753)">
      <stop
         stop-color="#016ed4"
         id="stop7" />
      <stop
         offset="1"
         stop-color="#00b1ff"
         id="stop9" />
    </linearGradient>
    <linearGradient
       id="1"
       x1="-1092.91"
       y1="203.1"
       x2="-1060.26"
       y2="104.85"
       gradientUnits="userSpaceOnUse"
       gradientTransform="matrix(0.35783761,0,0,0.35169762,390.75749,-30.271597)">
      <stop
         stop-color="#2e3e46"
         id="stop12" />
      <stop
         offset="1"
         stop-color="#435a64"
         id="stop14" />
    </linearGradient>
  </defs>
  <rect
     width="40.667896"
     height="44.199829"
     x="-0.40852302"
     y="4.468761"
     transform="matrix(0.99371588,-0.11193191,0.15428808,0.9880259,0,0)"
     rx="1.2223771"
     id="rect22"
     style="fill:#5599ff" />
  <path
     style="fill:#d7e3f4;fill-opacity:1"
     inkscape:connector-curvature="0"
     id="path24"
     d="m 36.782606,24.745065 -3.956953,0.930705 2.423166,15.431564 3.886826,-1.090388 -1.035792,-6.595328 6.441717,6.565931 3.952451,-1.820208 -6.528428,-6.258146 4.429599,-7.396193 -4.37961,-0.324933 -4.20903,7.365013 -1.024184,-6.80913 m -8.453361,5.029901 c -0.04501,0.0062 -0.09501,0.03697 -0.125565,0.06147 l -1.309903,1.707517 c -0.05567,0.07328 -0.06539,0.186186 -0.005,0.255002 l 2.252113,2.569849 c -0.244259,0.558334 -0.395174,1.153637 -0.489704,1.762971 l -3.249479,1.12936 c -0.08979,0.0363 -0.164419,0.100887 -0.150442,0.19064 l 0.325759,2.074096 c 0.01375,0.08731 0.115614,0.173491 0.208959,0.182177 l 3.382672,0.293532 c 0.280269,0.652316 0.645118,1.258533 1.093836,1.797268 l -1.474084,2.960036 c -0.04076,0.08374 0.0053,0.188635 0.08315,0.242755 l 1.77236,1.237152 c 0.07511,0.05056 0.198771,0.06503 0.271505,0.0065 l 2.689458,-2.110844 c 0.630904,0.234513 1.281473,0.413127 1.970658,0.489293 l 1.194051,3.013042 c 0.03364,0.08797 0.107323,0.155006 0.202562,0.141866 l 2.206391,-0.306226 c 0.0931,-0.01292 0.18574,-0.108237 0.194506,-0.196876 l 0.30583,-3.221273 c 0.655781,-0.268143 1.274129,-0.644968 1.817848,-1.057427 l 3.199062,1.421112 c 0.08765,0.03652 0.20043,-0.0029 0.258001,-0.07995 l 1.316536,-1.666315 c 0.05614,-0.07327 0.06539,-0.186408 0.0052,-0.254781 l -1.319615,-1.511977 -0.333576,0.172601 c -0.04643,0.0314 -0.102818,0.01425 -0.13907,-0.02472 0,0 -0.816646,-0.857879 -1.883236,-1.942922 -0.745572,2.074319 -2.676903,3.677831 -5.140107,4.019913 -3.499678,0.48573 -6.769104,-1.760076 -7.285814,-5.050168 -0.380012,-2.420188 0.839388,-4.716994 2.897469,-5.954593 l -0.240912,-1.534917 c -0.380248,0.188636 -0.736806,0.375488 -1.075594,0.615793 -2.4e-5,0 -0.04312,0.006 -0.04407,0.0062 l -3.243141,-1.415306 c -0.04383,-0.0176 -0.09453,-0.03319 -0.138833,-0.02249" />
</svg>
