<?xml version="1.0" encoding="UTF-8" standalone="no"?>
<!-- Generator: Adobe Illustrator 18.1.1, SVG Export Plug-In . SVG Version: 6.00 Build 0)  -->

<svg
   xmlns:dc="http://purl.org/dc/elements/1.1/"
   xmlns:cc="http://creativecommons.org/ns#"
   xmlns:rdf="http://www.w3.org/1999/02/22-rdf-syntax-ns#"
   xmlns:svg="http://www.w3.org/2000/svg"
   xmlns="http://www.w3.org/2000/svg"
   xmlns:sodipodi="http://sodipodi.sourceforge.net/DTD/sodipodi-0.dtd"
   xmlns:inkscape="http://www.inkscape.org/namespaces/inkscape"
   version="1.1"
   id="Capa_1"
   x="0px"
   y="0px"
   viewBox="0 0 26 26"
   style="enable-background:new 0 0 26 26;"
   xml:space="preserve"
   width="512px"
   height="512px"
   inkscape:version="0.91 r13725"
   sodipodi:docname="dragonplayer.svg"><metadata
     id="metadata41"><rdf:RDF><cc:Work
         rdf:about=""><dc:format>image/svg+xml</dc:format><dc:type
           rdf:resource="http://purl.org/dc/dcmitype/StillImage" /><dc:title></dc:title></cc:Work></rdf:RDF></metadata><defs
     id="defs39" /><sodipodi:namedview
     pagecolor="#ffffff"
     bordercolor="#666666"
     borderopacity="1"
     objecttolerance="10"
     gridtolerance="10"
     guidetolerance="10"
     inkscape:pageopacity="0"
     inkscape:pageshadow="2"
     inkscape:window-width="1280"
     inkscape:window-height="694"
     id="namedview37"
     showgrid="false"
     inkscape:zoom="0.4609375"
     inkscape:cx="-97.627119"
     inkscape:cy="256"
     inkscape:window-x="0"
     inkscape:window-y="0"
     inkscape:window-maximized="1"
     inkscape:current-layer="Capa_1" /><g
     id="g3"
     transform="matrix(1,0,0,1.068856,0,-0.84004234)"
     style="fill:#003380"><path
       d="M 25,1 24,1 24,3 21,3 21,1 5,1 5,3 2,3 2,1 1,1 C 0.449,1 0,1.449 0,2 l 0,22 c 0,0.551 0.449,1 1,1 l 1,0 0,-1 3,0 0,1 16,0 0,-1 3,0 0,1 1,0 c 0.551,0 1,-0.449 1,-1 L 26,2 C 26,1.449 25.551,1 25,1 Z m -20,20 -3,0 0,-3 3,0 0,3 z m 0,-6 -3,0 0,-3 3,0 0,3 z M 5,9 2,9 2,6 5,6 5,9 Z m 12.588,4.656 -6.503,3.793 c -0.106,0.053 -0.222,0.078 -0.337,0.078 -0.138,0 -0.272,-0.037 -0.394,-0.109 C 10.134,17.285 10,17.047 10,16.793 l 0,-7.585 c 0,-0.255 0.134,-0.493 0.354,-0.626 0.222,-0.134 0.499,-0.146 0.73,-0.03 l 6.503,3.792 C 17.84,12.469 18,12.722 18,13 c 0,0.278 -0.16,0.531 -0.412,0.656 z M 24,21 l -3,0 0,-3 3,0 0,3 z m 0,-6 -3,0 0,-3 3,0 0,3 z m 0,-6 -3,0 0,-3 3,0 0,3 z"
       id="path5"
       inkscape:connector-curvature="0"
       style="fill:#003380" /></g><g
     id="g7" /><g
     id="g9" /><g
     id="g11" /><g
     id="g13" /><g
     id="g15" /><g
     id="g17" /><g
     id="g19" /><g
     id="g21" /><g
     id="g23" /><g
     id="g25" /><g
     id="g27" /><g
     id="g29" /><g
     id="g31" /><g
     id="g33" /><g
     id="g35" /></svg>