<?xml version="1.0" encoding="UTF-8" standalone="no"?>
<svg
   xmlns:dc="http://purl.org/dc/elements/1.1/"
   xmlns:cc="http://creativecommons.org/ns#"
   xmlns:rdf="http://www.w3.org/1999/02/22-rdf-syntax-ns#"
   xmlns:svg="http://www.w3.org/2000/svg"
   xmlns="http://www.w3.org/2000/svg"
   xmlns:sodipodi="http://sodipodi.sourceforge.net/DTD/sodipodi-0.dtd"
   xmlns:inkscape="http://www.inkscape.org/namespaces/inkscape"
   viewBox="0 0 48 48"
   id="svg2"
   version="1.1"
   inkscape:version="0.91 r13725"
   sodipodi:docname="feedly.svg">
  <metadata
     id="metadata27">
    <rdf:RDF>
      <cc:Work
         rdf:about="">
        <dc:format>image/svg+xml</dc:format>
        <dc:type
           rdf:resource="http://purl.org/dc/dcmitype/StillImage" />
        <dc:title></dc:title>
      </cc:Work>
    </rdf:RDF>
  </metadata>
  <sodipodi:namedview
     pagecolor="#ffffff"
     bordercolor="#666666"
     borderopacity="1"
     objecttolerance="10"
     gridtolerance="10"
     guidetolerance="10"
     inkscape:pageopacity="0"
     inkscape:pageshadow="2"
     inkscape:window-width="1280"
     inkscape:window-height="694"
     id="namedview25"
     showgrid="false"
     inkscape:zoom="4.9166667"
     inkscape:cx="-9.1525424"
     inkscape:cy="24"
     inkscape:window-x="0"
     inkscape:window-y="0"
     inkscape:window-maximized="1"
     inkscape:current-layer="svg2" />
  <defs
     id="defs4">
    <filter
       color-interpolation-filters="sRGB"
       id="filter6">
      <feGaussianBlur
         stdDeviation="1.71"
         id="feGaussianBlur8" />
    </filter>
    <linearGradient
       gradientTransform="scale(1.0059.99417)"
       gradientUnits="userSpaceOnUse"
       y2="7.02"
       x2="0"
       y1="92.54"
       id="linearGradient10">
      <stop
         id="stop12" />
      <stop
         offset="1"
         stop-opacity=".588"
         id="stop14" />
    </linearGradient>
    <linearGradient
       gradientUnits="userSpaceOnUse"
       y2="-33.3"
       x2="-72.48"
       y1="69.73"
       x1="-176.63"
       id="0"
       gradientTransform="matrix(1.03458 0 0 1 4.382 0)">
      <stop
         stop-color="#4fd127"
         id="stop17" />
      <stop
         offset="1"
         stop-color="#c6f61a"
         id="stop19" />
    </linearGradient>
  </defs>
  <path
     d="M 36.909307,0.69711864 C 35.94498,0.72103864 34.97788,0.97679795 34.257404,1.4846367 L 1.2180704,24.62626 c -1.44372167,1.011997 -1.40492761,2.587033 0.1108438,3.54199 L 4.2025021,29.978807 12.931337,29.743287 44.313576,7.7829411 C 45.754528,6.7709436 45.607661,5.1959075 44.091892,4.2409499 L 39.561211,1.4073569 C 38.801941,0.93079806 37.873635,0.6787187 36.909307,0.69895864 M 39.117842,18.252516 c -0.9671,0.02391 -1.925886,0.283359 -2.651904,0.787517 L 15.472396,33.601757 c -1.449264,1.006478 -1.404926,2.587035 0.110844,3.541992 l 2.873588,1.731436 8.728836,-0.15824 19.336448,-13.382287 c 1.449263,-1.006478 1.404927,-2.587034 -0.110843,-3.541991 l -4.641524,-2.833593 c -0.75927,-0.47656 -1.684805,-0.724959 -2.651903,-0.708398 m -2.100464,20.22891 c -0.936617,0 -1.923114,0.285199 -2.651902,0.787517 l -4.419839,2.989993 c -1.457577,1.004637 -1.41324,2.677193 0,3.698391 l 2.54106,1.889675 8.617994,0.07728 2.651902,-1.889676 c 1.457578,-1.004637 1.524083,-2.598074 0.110844,-3.62111 L 39.55844,39.263418 C 38.851819,38.7519 37.953997,38.560539 37.017378,38.55502 Z"
     id="path23"
     style="fill:#8dd35f;fill-opacity:0.85100002"
     inkscape:connector-curvature="0" />
</svg>
