<?xml version="1.0" encoding="UTF-8" standalone="no"?>
<!-- Generator: Adobe Illustrator 19.0.0, SVG Export Plug-In . SVG Version: 6.00 Build 0)  -->

<svg
   xmlns:dc="http://purl.org/dc/elements/1.1/"
   xmlns:cc="http://creativecommons.org/ns#"
   xmlns:rdf="http://www.w3.org/1999/02/22-rdf-syntax-ns#"
   xmlns:svg="http://www.w3.org/2000/svg"
   xmlns="http://www.w3.org/2000/svg"
   xmlns:sodipodi="http://sodipodi.sourceforge.net/DTD/sodipodi-0.dtd"
   xmlns:inkscape="http://www.inkscape.org/namespaces/inkscape"
   version="1.1"
   id="Capa_1"
   x="0px"
   y="0px"
   viewBox="0 0 121.101 121.101"
   style="enable-background:new 0 0 121.101 121.101;"
   xml:space="preserve"
   inkscape:version="0.91 r13725"
   sodipodi:docname="firefox.svg"><metadata
     id="metadata99"><rdf:RDF><cc:Work
         rdf:about=""><dc:format>image/svg+xml</dc:format><dc:type
           rdf:resource="http://purl.org/dc/dcmitype/StillImage" /><dc:title></dc:title></cc:Work></rdf:RDF></metadata><defs
     id="defs97" /><sodipodi:namedview
     pagecolor="#ffffff"
     bordercolor="#666666"
     borderopacity="1"
     objecttolerance="10"
     gridtolerance="10"
     guidetolerance="10"
     inkscape:pageopacity="0"
     inkscape:pageshadow="2"
     inkscape:window-width="1280"
     inkscape:window-height="694"
     id="namedview95"
     showgrid="false"
     inkscape:zoom="1.9487866"
     inkscape:cx="-106.73308"
     inkscape:cy="60.5505"
     inkscape:window-x="0"
     inkscape:window-y="0"
     inkscape:window-maximized="1"
     inkscape:current-layer="Capa_1" /><g
     id="g9"
     style="fill:#ff7f2a"
     transform="matrix(1,0,0,1.1206214,0,-7.0471402)"><g
       id="g11"
       style="fill:#ff7f2a"><path
         inkscape:connector-curvature="0"
         id="path13"
         d="m 63.298,84.602 c 9.878,8.14 22.859,2.689 30.54,-5.806 0.601,-0.664 1.281,-1.26 1.999,-1.828 3.252,-0.153 6.785,0.214 9.682,1.828 0,0 -5.193,3.922 -7.167,8.226 0,0 5.823,1.186 10.396,-1.694 0,0 -0.574,6.88 -5.447,12.828 -1.525,0.467 -3.165,0.883 -4.948,1.236 -30.029,5.917 -38.67,-11.149 -38.67,-11.149 l 3.615,-3.641 z"
         style="fill:#ff7f2a" /></g></g><g
     id="g15"
     style="fill:#ffe6d5"
     transform="matrix(1,0,0,1.1206214,0,-7.0471402)"><g
       id="g17"
       style="fill:#ffe6d5"><path
         inkscape:connector-curvature="0"
         id="path19"
         d="m 98.352,87.022 c 1.974,-4.304 7.167,-8.226 7.167,-8.226 -2.897,-1.614 -6.43,-1.981 -9.682,-1.828 8.477,-6.694 24.205,-6.947 24.205,-6.947 0,0 7.367,20.744 -16.741,28.135 4.874,-5.948 5.447,-12.828 5.447,-12.828 -4.573,2.88 -10.396,1.694 -10.396,1.694 z"
         style="fill:#ffe6d5" /></g></g><path
     style="clip-rule:evenodd;fill:#ff7f2a;fill-rule:evenodd"
     d="m 81.692,81.248861 c 0,21.490159 0,39.150029 -34.723,38.910219 l -0.635,0 C 11.612,122.82728 11.612,102.73902 11.612,81.248861 l 0,-0.634272 c 0,-21.489036 15.545,-38.909095 34.722,-38.909095 l 0.635,0 c 19.176,0 34.723,17.420059 34.723,38.909095 l 0,0.634272 z"
     id="path21"
     inkscape:connector-curvature="0" /><path
     style="clip-rule:evenodd;fill:#ff7f2a;fill-rule:evenodd"
     d="m 65.785,15.395545 c 0,0 9.023,-14.179223 26.426,-14.179223 0,0 1.751,18.389397 -9.369,32.606721"
     id="path29"
     inkscape:connector-curvature="0" /><path
     style="clip-rule:evenodd;fill:#ffccaa;fill-rule:evenodd"
     d="m 65.946,19.538482 c 0,0 6.994,-10.9921754 20.485,-10.9921754 0,0 1.357,14.2554244 -7.264,25.2756154"
     id="path31"
     inkscape:connector-curvature="0" /><path
     style="clip-rule:evenodd;fill:#ff7f2a;fill-rule:evenodd"
     d="m 26.527,15.395545 c 0,0 -9.023,-14.179223 -26.427,-14.179223 0,0 -1.751,18.389397 9.37,32.606721"
     id="path35"
     inkscape:connector-curvature="0" /><path
     style="clip-rule:evenodd;fill:#ffccaa;fill-rule:evenodd"
     d="m 26.366,19.538482 c 0,0 -6.994,-10.9921754 -20.485,-10.9921754 0,0 -1.357,14.2554244 7.264,25.2756154"
     id="path37"
     inkscape:connector-curvature="0" /><path
     inkscape:connector-curvature="0"
     id="path41"
     d="m 46.65,7.4985256 c 0,0 -36.619,0 -45.561,51.8040864 0,0 34.206,-7.746856 45.562,12.117279 C 55.876,53.624423 92.211,59.302612 92.211,59.302612 83.269,7.4985256 46.65,7.4985256 46.65,7.4985256 Z"
     style="clip-rule:evenodd;fill:#ff7f2a;fill-rule:evenodd" /><path
     inkscape:connector-curvature="0"
     id="path43"
     d="m 20.929,18.743961 c 0,0 5.352,2.671562 13.23,15.555346 8.368,13.68727 6.463,30.36884 6.463,30.36884 0,0 -10.153,-8.214155 -39.533,-5.364415 0,-0.0011 1.986,-25.720502 19.84,-40.559771 z"
     style="clip-rule:evenodd;fill:#ffe6d5;fill-rule:evenodd" /><path
     inkscape:connector-curvature="0"
     id="path45"
     d="m 72.558,18.743961 c 0,0 -5.353,2.671562 -13.23,15.555346 -8.368,13.68727 -6.464,30.36884 -6.464,30.36884 0,0 10.153,-8.214155 39.534,-5.364415 -10e-4,-0.0011 -1.986,-25.720502 -19.84,-40.559771 z"
     style="clip-rule:evenodd;fill:#ffe6d5;fill-rule:evenodd" /><g
     id="g47"
     transform="matrix(1,0,0,1.1206214,0,-7.0471402)"><g
       id="g49"><g
         id="g51"><circle
           style="clip-rule:evenodd;fill:#434849;fill-rule:evenodd"
           cx="65.783997"
           cy="42.240002"
           r="3.832"
           id="circle53" /><circle
           style="clip-rule:evenodd;fill:#ffffff;fill-rule:evenodd"
           cx="67.392998"
           cy="41.500999"
           r="1.447"
           id="circle55" /></g><g
         id="g57"><circle
           style="clip-rule:evenodd;fill:#434849;fill-rule:evenodd"
           cx="27.701"
           cy="42.240002"
           r="3.832"
           id="circle59" /><circle
           style="clip-rule:evenodd;fill:#ffffff;fill-rule:evenodd"
           cx="29.149"
           cy="41.500999"
           r="1.447"
           id="circle61" /></g></g><path
       style="clip-rule:evenodd;fill:#434849;fill-rule:evenodd"
       d="m 52.678,63.996 c 0,3.327 -2.698,6.026 -6.026,6.026 -3.33,0 -6.028,-2.699 -6.028,-6.026"
       id="path63"
       inkscape:connector-curvature="0" /></g><g
     id="g65" /><g
     id="g67" /><g
     id="g69" /><g
     id="g71" /><g
     id="g73" /><g
     id="g75" /><g
     id="g77" /><g
     id="g79" /><g
     id="g81" /><g
     id="g83" /><g
     id="g85" /><g
     id="g87" /><g
     id="g89" /><g
     id="g91" /><g
     id="g93" /></svg>