<?xml version="1.0" encoding="UTF-8" standalone="no"?>
<svg
   xmlns:dc="http://purl.org/dc/elements/1.1/"
   xmlns:cc="http://creativecommons.org/ns#"
   xmlns:rdf="http://www.w3.org/1999/02/22-rdf-syntax-ns#"
   xmlns:svg="http://www.w3.org/2000/svg"
   xmlns="http://www.w3.org/2000/svg"
   xmlns:sodipodi="http://sodipodi.sourceforge.net/DTD/sodipodi-0.dtd"
   xmlns:inkscape="http://www.inkscape.org/namespaces/inkscape"
   viewBox="0 0 48 48"
   id="svg2"
   version="1.1"
   inkscape:version="0.91 r13725"
   sodipodi:docname="flowblade.svg">
  <metadata
     id="metadata19">
    <rdf:RDF>
      <cc:Work
         rdf:about="">
        <dc:format>image/svg+xml</dc:format>
        <dc:type
           rdf:resource="http://purl.org/dc/dcmitype/StillImage" />
        <dc:title></dc:title>
      </cc:Work>
    </rdf:RDF>
  </metadata>
  <sodipodi:namedview
     pagecolor="#ffffff"
     bordercolor="#666666"
     borderopacity="1"
     objecttolerance="10"
     gridtolerance="10"
     guidetolerance="10"
     inkscape:pageopacity="0"
     inkscape:pageshadow="2"
     inkscape:window-width="1280"
     inkscape:window-height="694"
     id="namedview17"
     showgrid="false"
     inkscape:zoom="4.9166667"
     inkscape:cx="-9.1525424"
     inkscape:cy="24"
     inkscape:window-x="0"
     inkscape:window-y="0"
     inkscape:window-maximized="1"
     inkscape:current-layer="svg2" />
  <defs
     id="defs4">
    <linearGradient
       id="0"
       gradientUnits="userSpaceOnUse"
       y1="25.995"
       x2="0"
       y2="-20.291"
       gradientTransform="matrix(0.99999,0,0,0.99999,-28.3701,20.88205)">
      <stop
         stop-color="#4469b9"
         id="stop7" />
      <stop
         offset="1"
         stop-color="#5d91ff"
         id="stop9" />
    </linearGradient>
  </defs>
  <path
     style="fill:#3771c8;fill-opacity:0.83800001;stroke:none;stroke-opacity:0.8"
     inkscape:connector-curvature="0"
     id="path15"
     d="m 3.6920903,47.992031 40.8273097,0 c 1.738595,0 3.160879,-1.368922 3.160879,-3.042493 l 0,-41.6936391 c 0,-1.6696951 -1.423382,-3.04249307 -3.160879,-3.04249307 l -40.8273097,0 c -1.7424957,0 -3.16295264,1.37279797 -3.16295264,3.04249307 l 0,41.6936391 c 0,1.673571 1.42045694,3.042493 3.16295264,3.042493 M 39.968671,3.935427 c 0,-0.5050065 0.429223,-0.9126535 0.948556,-0.9126535 l 2.963584,0 c 0.523359,0 0.946604,0.407647 0.946604,0.9126535 l 0,2.939612 c 0,0.5050085 -0.423245,0.9126554 -0.946604,0.9126554 l -2.963584,0 c -0.519333,0 -0.948556,-0.4067085 -0.948556,-0.9126554 l 0,-2.939612 m 0,7.477632 c 0,-0.505008 0.429223,-0.913594 0.948556,-0.913594 l 2.963584,0 c 0.523359,0 0.946604,0.408586 0.946604,0.913594 l 0,2.939612 c 0,0.504069 -0.423245,0.915473 -0.946604,0.915473 l -2.963584,0 c -0.519333,0 -0.948556,-0.411404 -0.948556,-0.915473 l 0,-2.939612 m 0,7.483504 c 0,-0.504068 0.429223,-0.915473 0.948556,-0.915473 l 2.963584,0 c 0.523359,0 0.946604,0.411405 0.946604,0.915473 l 0,2.940787 c 0,0.500192 -0.423245,0.911714 -0.946604,0.911714 l -2.963584,0 c -0.519333,0 -0.948556,-0.411405 -0.948556,-0.911714 l 0,-2.940787 m 0,7.477632 c 0,-0.505009 0.429223,-0.915473 0.948556,-0.915473 l 2.963584,0 c 0.523359,0 0.946604,0.410464 0.946604,0.915473 l 0,2.940786 c 0,0.504068 -0.423245,0.912655 -0.946604,0.912655 l -2.963584,0 c -0.519333,0 -0.948556,-0.408587 -0.948556,-0.912655 l 0,-2.940786 m 0,7.47763 c 0,-0.505007 0.429223,-0.912653 0.948556,-0.912653 l 2.963584,0 c 0.523359,0 0.946604,0.406706 0.946604,0.912653 l 0,2.941963 c 0,0.502188 -0.423245,0.910775 -0.946604,0.910775 l -2.963584,0 c -0.519333,0 -0.948556,-0.408587 -0.948556,-0.910775 l 0,-2.941963 m 0,7.477632 c 0,-0.502189 0.429223,-0.912653 0.948556,-0.912653 l 2.963584,0 c 0.523359,0 0.946604,0.410464 0.946604,0.912653 l 0,2.945486 c 0,0.49831 -0.423245,0.910774 -0.946604,0.910774 l -2.963584,0 c -0.519333,0 -0.948556,-0.411407 -0.948556,-0.910774 l 0,-2.945486 M 11.492469,6.141018 c 0,-0.5050084 0.427149,-0.9126535 0.950507,-0.9126535 l 23.326756,0 c 0.520433,0 0.946607,0.4076451 0.946607,0.9126535 l 0,14.555954 c 0,0.500193 -0.426174,0.915473 -0.946607,0.915473 l -23.326756,0 c -0.523358,0 -0.950507,-0.41528 -0.950507,-0.915473 -1.2e-5,0 -1.2e-5,-14.555954 -1.2e-5,-14.555954 m 0,22.445813 c 0,-0.50125 0.427149,-0.909835 0.950507,-0.909835 l 23.326756,0 c 0.520433,0 0.946607,0.408585 0.946607,0.909835 l 0,13.455509 c 0,0.502188 -0.426174,0.912653 -0.946607,0.912653 l -23.326756,0 c -0.523358,0 -0.950507,-0.410465 -0.950507,-0.912653 -1.2e-5,0 -1.2e-5,-13.455509 -1.2e-5,-13.455509 M 3.3811223,3.9342536 c 0,-0.5050085 0.4261744,-0.9126555 0.9485568,-0.9126555 l 2.9646807,0 c 0.5204318,0 0.9456299,0.407647 0.9456299,0.9126555 l 0,2.9396118 c 0,0.5050067 -0.4251981,0.9126536 -0.9456299,0.9126536 l -2.9646807,0 c -0.5223824,0 -0.9485568,-0.4067066 -0.9485568,-0.9126536 0,0 0,-2.9396118 0,-2.9396118 m 0,7.4776304 c 0,-0.505007 0.4261744,-0.913592 0.9485568,-0.913592 l 2.9646807,0 c 0.5204318,0 0.9456299,0.408585 0.9456299,0.913592 l 0,2.939614 c 0,0.504065 -0.4251981,0.915472 -0.9456299,0.915472 l -2.9646807,0 c -0.5223824,0 -0.9485568,-0.411407 -0.9485568,-0.915472 0,0 0,-2.939614 0,-2.939614 m 0,7.483504 c 0,-0.504067 0.4261744,-0.915473 0.9485568,-0.915473 l 2.9646807,0 c 0.5204318,0 0.9456299,0.411406 0.9456299,0.915473 l 0,2.940787 c 0,0.500192 -0.4251981,0.911715 -0.9456299,0.911715 l -2.9646807,0 c -0.5223824,0 -0.9485568,-0.411405 -0.9485568,-0.911715 0,0 0,-2.940787 0,-2.940787 m 0,7.477631 c 0,-0.505006 0.4261744,-0.915472 0.9485568,-0.915472 l 2.9646807,0 c 0.5204318,0 0.9456299,0.410466 0.9456299,0.915472 l 0,2.940788 c 0,0.504068 -0.4251981,0.912653 -0.9456299,0.912653 l -2.9646807,0 c -0.5223824,0 -0.9485568,-0.408585 -0.9485568,-0.912653 0,0 0,-2.940788 0,-2.940788 m 0,7.477632 c 0,-0.505008 0.4261744,-0.912653 0.9485568,-0.912653 l 2.9646807,0 c 0.5204318,0 0.9456299,0.406706 0.9456299,0.912653 l 0,2.941962 c 0,0.502189 -0.4251981,0.910774 -0.9456299,0.910774 l -2.9646807,0 c -0.5223824,0 -0.9485568,-0.408585 -0.9485568,-0.910774 0,0 0,-2.941962 0,-2.941962 m 0,7.477631 c 0,-0.502188 0.4261744,-0.912653 0.9485568,-0.912653 l 2.9646807,0 c 0.5204318,0 0.9456299,0.410465 0.9456299,0.912653 l 0,2.945485 c 0,0.498314 -0.4251981,0.910775 -0.9456299,0.910775 l -2.9646807,0 c -0.5223824,0 -0.9485568,-0.411404 -0.9485568,-0.910775 0,-1.1e-5 0,-2.945485 0,-2.945485" />
</svg>
