<?xml version="1.0" encoding="UTF-8" standalone="no"?>
<svg
   xmlns:dc="http://purl.org/dc/elements/1.1/"
   xmlns:cc="http://creativecommons.org/ns#"
   xmlns:rdf="http://www.w3.org/1999/02/22-rdf-syntax-ns#"
   xmlns:svg="http://www.w3.org/2000/svg"
   xmlns="http://www.w3.org/2000/svg"
   xmlns:sodipodi="http://sodipodi.sourceforge.net/DTD/sodipodi-0.dtd"
   xmlns:inkscape="http://www.inkscape.org/namespaces/inkscape"
   viewBox="0 0 48 48"
   id="svg2"
   version="1.1"
   inkscape:version="0.91 r13725"
   sodipodi:docname="fritzing.svg">
  <metadata
     id="metadata22">
    <rdf:RDF>
      <cc:Work
         rdf:about="">
        <dc:format>image/svg+xml</dc:format>
        <dc:type
           rdf:resource="http://purl.org/dc/dcmitype/StillImage" />
        <dc:title></dc:title>
      </cc:Work>
    </rdf:RDF>
  </metadata>
  <sodipodi:namedview
     pagecolor="#ffffff"
     bordercolor="#666666"
     borderopacity="1"
     objecttolerance="10"
     gridtolerance="10"
     guidetolerance="10"
     inkscape:pageopacity="0"
     inkscape:pageshadow="2"
     inkscape:window-width="1280"
     inkscape:window-height="694"
     id="namedview20"
     showgrid="false"
     inkscape:zoom="4.9166667"
     inkscape:cx="-42.305085"
     inkscape:cy="24"
     inkscape:window-x="0"
     inkscape:window-y="0"
     inkscape:window-maximized="1"
     inkscape:current-layer="svg2" />
  <defs
     id="defs4">
    <linearGradient
       gradientUnits="userSpaceOnUse"
       y2="120.06"
       x2="154.97"
       y1="219.61"
       x1="156.19"
       id="0">
      <stop
         stop-color="#ececec"
         id="stop7" />
      <stop
         offset="1"
         stop-color="#fcfcfc"
         id="stop9" />
    </linearGradient>
    <linearGradient
       id="1"
       y1="41.604"
       x2="0"
       y2="9.604"
       gradientUnits="userSpaceOnUse">
      <stop
         stop-color="#00cafe"
         id="stop12" />
      <stop
         offset="1"
         stop-color="#1460f3"
         id="stop14" />
    </linearGradient>
  </defs>
  <path
     d="m 14.675277,0.27618313 c -0.991133,0 -1.794624,0.99031957 -1.794624,2.21191137 l 0,43.0225655 c 0,1.221592 0.803491,2.211912 1.794624,2.211912 l 18.850775,0 c 0.991134,0 1.794625,-0.99032 1.794625,-2.211912 l 0,-43.0225655 c 0,-1.2215918 -0.803491,-2.21191137 -1.794625,-2.21191137 l -18.850775,0 M 30.444398,4.3708877 c 0.76019,0 1.374837,0.7575648 1.374837,1.6945139 0,0.936949 -0.614647,1.6974789 -1.374837,1.6974789 -0.76019,0 -1.377241,-0.7605299 -1.377241,-1.6974789 0,-0.9369491 0.617051,-1.6945139 1.377241,-1.6945139 M 3.5683317,8.6420115 c -1.5949546,0 -2.8892013,1.5951855 -2.8892013,3.5609995 0,1.965814 1.2942467,3.558035 2.8892013,3.558035 0.9165569,0 1.7332797,-0.527776 2.2625253,-1.349089 l 3.9092023,0 0,-4.4208575 -3.9092023,0 C 5.3016114,9.1697866 4.4860921,8.6420115 3.5683317,8.6420115 m 41.0646663,0 c -0.916557,0 -1.733279,0.5277751 -2.262526,1.349088 l -3.909202,0 0,4.4208575 3.909202,0 c 0.529247,0.821313 1.344765,1.349089 2.262526,1.349089 1.594955,0 2.889202,-1.592221 2.889202,-3.558035 0,-1.965814 -1.294247,-3.5609995 -2.889202,-3.5609995 M 3.5683317,20.435412 c -1.5949546,0 -2.8892013,1.595186 -2.8892013,3.561001 0,1.965813 1.2942467,3.560999 2.8892013,3.560999 0.9165569,0 1.7332797,-0.527776 2.2625253,-1.349088 l 3.9092023,0 0,-4.423824 -3.9092023,0 C 5.3016114,20.963188 4.4860921,20.435412 3.5683317,20.435412 m 41.0646663,0 c -0.916557,0 -1.733279,0.527776 -2.262526,1.349088 l -3.909202,0 0,4.423824 3.909202,0 c 0.529247,0.821312 1.344765,1.349088 2.262526,1.349088 1.594955,0 2.889202,-1.595186 2.889202,-3.560999 0,-1.965815 -1.294247,-3.561001 -2.889202,-3.561001 M 3.5683317,32.23178 c -1.5949546,0 -2.8892013,1.592219 -2.8892013,3.558034 0,1.965814 1.2942467,3.560999 2.8892013,3.560999 0.9165569,0 1.7332797,-0.527774 2.2625253,-1.349088 l 3.9092023,0 0,-4.420857 -3.9092023,0 C 5.3016114,32.759555 4.4860921,32.23178 3.5683317,32.23178 m 41.0646663,0 c -0.916557,0 -1.733279,0.527775 -2.262526,1.349088 l -3.909202,0 0,4.420857 3.909202,0 c 0.529247,0.821314 1.344765,1.349088 2.262526,1.349088 1.594955,0 2.889202,-1.595185 2.889202,-3.560999 0,-1.965815 -1.294247,-3.558034 -2.889202,-3.558034"
     id="path18"
     style="fill:#c87137"
     inkscape:connector-curvature="0" />
</svg>
