<?xml version="1.0" encoding="UTF-8" standalone="no"?>
<svg
   xmlns:dc="http://purl.org/dc/elements/1.1/"
   xmlns:cc="http://creativecommons.org/ns#"
   xmlns:rdf="http://www.w3.org/1999/02/22-rdf-syntax-ns#"
   xmlns:svg="http://www.w3.org/2000/svg"
   xmlns="http://www.w3.org/2000/svg"
   xmlns:xlink="http://www.w3.org/1999/xlink"
   xmlns:sodipodi="http://sodipodi.sourceforge.net/DTD/sodipodi-0.dtd"
   xmlns:inkscape="http://www.inkscape.org/namespaces/inkscape"
   viewBox="0 0 48 48"
   id="svg2"
   version="1.1"
   inkscape:version="0.91 r13725"
   sodipodi:docname="gconf-editor.svg">
  <metadata
     id="metadata49">
    <rdf:RDF>
      <cc:Work
         rdf:about="">
        <dc:format>image/svg+xml</dc:format>
        <dc:type
           rdf:resource="http://purl.org/dc/dcmitype/StillImage" />
        <dc:title></dc:title>
      </cc:Work>
    </rdf:RDF>
  </metadata>
  <sodipodi:namedview
     pagecolor="#ffffff"
     bordercolor="#666666"
     borderopacity="1"
     objecttolerance="10"
     gridtolerance="10"
     guidetolerance="10"
     inkscape:pageopacity="0"
     inkscape:pageshadow="2"
     inkscape:window-width="1280"
     inkscape:window-height="694"
     id="namedview47"
     showgrid="false"
     inkscape:zoom="4.9166667"
     inkscape:cx="-9.1525424"
     inkscape:cy="24"
     inkscape:window-x="0"
     inkscape:window-y="0"
     inkscape:window-maximized="1"
     inkscape:current-layer="svg2" />
  <defs
     id="defs4">
    <linearGradient
       gradientUnits="userSpaceOnUse"
       y2="528.58"
       x2="408.32"
       y1="519.36"
       x1="408.24"
       id="5"
       gradientTransform="matrix(0.92308,0,0,0.92308,-353.144,-459.512)">
      <stop
         stop-color="#828282"
         id="stop7" />
      <stop
         offset="1"
         stop-color="#bfbfbf"
         id="stop9" />
    </linearGradient>
    <linearGradient
       gradientUnits="userSpaceOnUse"
       y2="509.27"
       x2="408.86"
       y1="527.73"
       x1="408.78"
       id="4"
       gradientTransform="matrix(0.92308,0,0,0.92308,-353.144,-459.512)">
      <stop
         stop-color="#cdced2"
         id="stop12" />
      <stop
         offset="1"
         stop-color="#f1f1f1"
         id="stop14" />
    </linearGradient>
    <linearGradient
       gradientUnits="userSpaceOnUse"
       y2="519.71"
       x2="408.22"
       y1="527.3"
       x1="408.34"
       id="6"
       xlink:href="#1"
       gradientTransform="matrix(0.92308,0,0,0.92308,-353.144,-459.512)" />
    <linearGradient
       gradientUnits="userSpaceOnUse"
       y2="506.15"
       x2="0"
       y1="539.83"
       id="3"
       xlink:href="#1"
       gradientTransform="matrix(1.07935,0,0,1.07935,-416.616,-541.366)" />
    <linearGradient
       id="1">
      <stop
         stop-color="#141414"
         id="stop19" />
      <stop
         offset="1"
         stop-color="#2d2d2f"
         id="stop21" />
    </linearGradient>
    <linearGradient
       gradientUnits="userSpaceOnUse"
       y2="503.1"
       x2="410.63"
       y1="531.06"
       x1="410.47"
       id="0"
       gradientTransform="translate(-384.586,-499.862)">
      <stop
         stop-color="#c0c1c4"
         id="stop24" />
      <stop
         offset="1"
         stop-color="#eaeaea"
         id="stop26" />
    </linearGradient>
    <linearGradient
       gradientUnits="userSpaceOnUse"
       y2="-543.7"
       x2="0"
       y1="-505.72"
       id="2"
       xlink:href="#1"
       gradientTransform="translate(-384.57,499.8)" />
  </defs>
  <g
     id="g4193"
     transform="matrix(1.9575438,0,0,1.9660722,-23.08353,-23.186392)">
    <path
       d="m 35.924989,22.668069 c -0.03785,-0.336924 -0.431078,-0.590771 -0.771695,-0.590771 -1.099388,0 -2.076007,-0.646156 -2.484931,-1.644006 -0.418155,-1.022773 -0.148616,-2.215392 0.671079,-2.967702 0.257539,-0.236309 0.288924,-0.630464 0.07292,-0.904618 -0.563078,-0.714464 -1.202773,-1.36062 -1.901544,-1.920007 -0.273232,-0.219693 -0.674772,-0.189231 -0.912003,0.07385 -0.715387,0.792002 -2.000315,1.086465 -2.992626,0.672002 -1.032926,-0.434771 -1.684621,-1.481544 -1.620928,-2.605855 0.02123,-0.352617 -0.237232,-0.660002 -0.588925,-0.700618 -0.896311,-0.103385 -1.800929,-0.107077 -2.700009,-0.0083 -0.348001,0.03877 -0.605541,0.337848 -0.594464,0.686772 0.03877,1.113234 -0.62031,2.141546 -1.643082,2.560624 -0.981234,0.400617 -2.256931,0.108923 -2.970472,-0.676618 -0.236308,-0.258462 -0.630463,-0.29077 -0.905541,-0.07569 -0.719079,0.564002 -1.373543,1.210158 -1.941237,1.919083 -0.22154,0.276001 -0.189232,0.674772 0.072,0.912003 0.835387,0.756003 1.104927,1.959699 0.671079,2.994472 -0.414463,0.986772 -1.438159,1.621851 -2.611393,1.621851 -0.380309,-0.012 -0.651695,0.24277 -0.693233,0.588925 -0.105231,0.901849 -0.107078,1.820314 -0.0046,2.729548 0.03785,0.33877 0.443079,0.589848 0.786464,0.589848 1.044927,-0.02677 2.048315,0.62031 2.469239,1.644005 0.419079,1.022773 0.149539,2.215392 -0.671079,2.967703 -0.256616,0.235385 -0.288924,0.630463 -0.07292,0.904618 0.55754,0.709848 1.197235,1.356004 1.898775,1.920929 0.275078,0.22154 0.674772,0.190155 0.912927,-0.072 0.718156,-0.793849 2.003083,-1.088311 2.991702,-0.672925 1.035696,0.432924 1.68739,1.479697 1.623698,2.604932 -0.02031,0.353539 0.238154,0.660925 0.588925,0.700617 0.45877,0.05354 0.92031,0.08031 1.382773,0.08031 0.439387,0 0.87785,-0.024 1.317236,-0.07292 0.348001,-0.03877 0.60554,-0.337847 0.594463,-0.687695 -0.04061,-1.112311 0.62031,-2.140622 1.642159,-2.558777 0.987696,-0.403386 2.257854,-0.108001 2.972318,0.676617 0.237232,0.258463 0.629541,0.288924 0.905542,0.07569 0.718156,-0.563079 1.370773,-1.208312 1.941237,-1.919083 0.221539,-0.275078 0.190154,-0.674772 -0.072,-0.912004 -0.835388,-0.756002 -1.10585,-1.959698 -0.672003,-2.993548 0.408002,-0.972926 1.393851,-1.626467 2.455393,-1.626467 l 0.148616,0.0028 c 0.344309,0.02769 0.660925,-0.237231 0.702464,-0.588002 0.106154,-0.902772 0.107077,-1.820313 0.0046,-2.729547 z m -11.905886,5.360325 c -2.207084,0 -4.002475,-1.79539 -4.002475,-4.002475 0,-2.207084 1.795391,-4.002474 4.002475,-4.002474 2.207085,0 4.002475,1.79539 4.002475,4.002474 0,2.207085 -1.79539,4.002475 -4.002475,4.002475"
       id="path41"
       style="fill:#cccccc;fill-rule:evenodd;stroke-width:1.31700003"
       inkscape:connector-curvature="0" />
    <circle
       cx="23.998802"
       cy="23.997293"
       r="4.6153998"
       id="circle43"
       style="fill:#999999;fill-rule:evenodd" />
    <circle
       cx="23.998802"
       cy="23.997293"
       r="3.2307799"
       id="circle45"
       style="fill:#1a1a1a;fill-rule:evenodd" />
  </g>
</svg>
