<?xml version="1.0" encoding="UTF-8" standalone="no"?>
<svg
   xmlns:dc="http://purl.org/dc/elements/1.1/"
   xmlns:cc="http://creativecommons.org/ns#"
   xmlns:rdf="http://www.w3.org/1999/02/22-rdf-syntax-ns#"
   xmlns:svg="http://www.w3.org/2000/svg"
   xmlns="http://www.w3.org/2000/svg"
   xmlns:sodipodi="http://sodipodi.sourceforge.net/DTD/sodipodi-0.dtd"
   xmlns:inkscape="http://www.inkscape.org/namespaces/inkscape"
   viewBox="0 0 48 48"
   id="svg2"
   version="1.1"
   inkscape:version="0.91 r13725"
   sodipodi:docname="genymotion.svg">
  <metadata
     id="metadata17">
    <rdf:RDF>
      <cc:Work
         rdf:about="">
        <dc:format>image/svg+xml</dc:format>
        <dc:type
           rdf:resource="http://purl.org/dc/dcmitype/StillImage" />
        <dc:title></dc:title>
      </cc:Work>
    </rdf:RDF>
  </metadata>
  <sodipodi:namedview
     pagecolor="#ffffff"
     bordercolor="#666666"
     borderopacity="1"
     objecttolerance="10"
     gridtolerance="10"
     guidetolerance="10"
     inkscape:pageopacity="0"
     inkscape:pageshadow="2"
     inkscape:window-width="1280"
     inkscape:window-height="694"
     id="namedview15"
     showgrid="false"
     inkscape:zoom="4.9166667"
     inkscape:cx="-9.1525424"
     inkscape:cy="24"
     inkscape:window-x="0"
     inkscape:window-y="0"
     inkscape:window-maximized="1"
     inkscape:current-layer="svg2" />
  <defs
     id="defs4">
    <linearGradient
       gradientTransform="matrix(.49433 0 0 .4778 86.64 13.1)"
       gradientUnits="userSpaceOnUse"
       y2="-26.05"
       x2="-125.19"
       y1="73.5"
       x1="-123.97"
       id="0">
      <stop
         stop-color="#e61a5f"
         id="stop7" />
      <stop
         offset="1"
         stop-color="#ff6c9d"
         id="stop9" />
    </linearGradient>
  </defs>
  <path
     d="M 35.128557,0.41615254 C 28.169105,0.41615254 22.528301,10.976785 22.528301,24 c 0,13.025978 5.64228,23.583847 12.600256,23.583847 6.959453,0 12.600257,-10.560632 12.600257,-23.583847 0,-13.025978 -5.64228,-23.58384746 -12.600257,-23.58384746 m 0,5.89527096 c 5.219959,0 9.450561,7.9184015 9.450561,17.6885765 0,9.770175 -4.230602,17.688577 -9.450561,17.688577 -5.219958,0 -9.450562,-7.918402 -9.450562,-17.688577 0,-9.770175 4.230604,-17.6885765 9.450562,-17.6885765 z M 9.9221377,9.2604408 c -5.2199585,0 -9.45056143,7.9184022 -9.45056143,17.6885762 0,9.770175 4.23060293,17.688577 9.45056143,17.688577 5.2199583,0 9.4505623,-7.918402 9.4505623,-17.688577 0,-9.770174 -4.230604,-17.6885762 -9.4505623,-17.6885762 m 0,5.8952712 c 3.4789873,0 6.3008663,5.278934 6.3008663,11.793305 0,6.511608 -2.820402,11.793306 -6.3008663,11.793306 -3.478988,0 -6.3008665,-5.278935 -6.3008665,-11.793306 0,-6.511607 2.820402,-11.793305 6.3008665,-11.793305"
     id="path13"
     style="fill:#ff5599;fill-opacity:0.85"
     inkscape:connector-curvature="0" />
</svg>
