<?xml version="1.0" encoding="UTF-8" standalone="no"?>
<svg
   xmlns:dc="http://purl.org/dc/elements/1.1/"
   xmlns:cc="http://creativecommons.org/ns#"
   xmlns:rdf="http://www.w3.org/1999/02/22-rdf-syntax-ns#"
   xmlns:svg="http://www.w3.org/2000/svg"
   xmlns="http://www.w3.org/2000/svg"
   xmlns:xlink="http://www.w3.org/1999/xlink"
   xmlns:sodipodi="http://sodipodi.sourceforge.net/DTD/sodipodi-0.dtd"
   xmlns:inkscape="http://www.inkscape.org/namespaces/inkscape"
   viewBox="0 0 48 48"
   id="svg2"
   version="1.1"
   inkscape:version="0.91 r13725"
   sodipodi:docname="gloobus.svg">
  <metadata
     id="metadata36">
    <rdf:RDF>
      <cc:Work
         rdf:about="">
        <dc:format>image/svg+xml</dc:format>
        <dc:type
           rdf:resource="http://purl.org/dc/dcmitype/StillImage" />
        <dc:title></dc:title>
      </cc:Work>
    </rdf:RDF>
  </metadata>
  <sodipodi:namedview
     pagecolor="#ffffff"
     bordercolor="#666666"
     borderopacity="1"
     objecttolerance="10"
     gridtolerance="10"
     guidetolerance="10"
     inkscape:pageopacity="0"
     inkscape:pageshadow="2"
     inkscape:window-width="1280"
     inkscape:window-height="694"
     id="namedview34"
     showgrid="false"
     inkscape:zoom="4.9166667"
     inkscape:cx="-9.1525424"
     inkscape:cy="24"
     inkscape:window-x="0"
     inkscape:window-y="0"
     inkscape:window-maximized="1"
     inkscape:current-layer="svg2" />
  <defs
     id="defs4">
    <clipPath
       id="5">
      <path
         fill="#1890d0"
         transform="matrix(15.33333 0 0 11.5 415-125.5)"
         d="m-24 13c0 1.105-.672 2-1.5 2-.828 0-1.5-.895-1.5-2 0-1.105.672-2 1.5-2 .828 0 1.5.895 1.5 2"
         id="path7" />
    </clipPath>
    <clipPath
       id="clipPath9">
      <path
         fill="#1890d0"
         transform="matrix(15.33333 0 0 11.5 415-125.5)"
         d="m-24 13c0 1.105-.672 2-1.5 2-.828 0-1.5-.895-1.5-2 0-1.105.672-2 1.5-2 .828 0 1.5.895 1.5 2"
         id="path11" />
    </clipPath>
    <linearGradient
       xlink:href="#0"
       id="4"
       gradientUnits="userSpaceOnUse"
       y1="555.64"
       x2="0"
       y2="507.64"
       gradientTransform="matrix(1.02134,0,0,1.02134,-375.52,-518.988)" />
    <linearGradient
       xlink:href="#0"
       id="3"
       gradientUnits="userSpaceOnUse"
       y1="555.3"
       x2="0"
       y2="507.3"
       gradientTransform="matrix(1.02134,0,0,1.02134,-375.52,-518.988)" />
    <linearGradient
       xlink:href="#0"
       id="2"
       x1="367.68"
       x2="414.68"
       gradientUnits="userSpaceOnUse" />
    <linearGradient
       id="1"
       y1="555.3"
       x2="0"
       y2="507.3"
       gradientUnits="userSpaceOnUse">
      <stop
         stop-color="#333"
         id="stop17" />
      <stop
         offset="1"
         stop-color="#515151"
         id="stop19" />
    </linearGradient>
    <linearGradient
       id="0">
      <stop
         stop-color="#197cf1"
         id="stop22" />
      <stop
         offset="1"
         stop-color="#21c9fb"
         id="stop24" />
    </linearGradient>
  </defs>
  <g
     style="fill:#00aad4;fill-opacity:0.85500004"
     id="g30"
     transform="matrix(2.1283604,0,0,1.9604602,-27.080905,-23.062012)"
     clip-path="url(#5)">
    <path
       style="fill:#00aad4;fill-opacity:0.85500004;fill-rule:evenodd"
       inkscape:connector-curvature="0"
       id="path32"
       d="m 24.32,24.645 c -0.18,-0.789 0.77,-1.25 1.414,-1.164 1.266,0.168 1.863,1.586 1.574,2.719 -0.441,1.727 -2.402,2.504 -4.01,1.988 -2.184,-0.703 -3.141,-3.234 -2.391,-5.32 0.953,-2.648 4.059,-3.793 6.605,-2.809 3.105,1.203 4.434,4.902 3.211,7.918 -1.445,3.582 -5.719,5.098 -9.199,3.633 -4.04,-1.695 -5.734,-6.566 -4.04,-10.52 1.941,-4.512 7.387,-6.395 11.797,-4.453 4.965,2.184 7.04,8.23 4.855,13.12 -2.426,5.441 -9.05,7.699 -14.391,5.277 -5.891,-2.672 -8.332,-9.898 -5.676,-15.719 2.082,-4.566 6.848,-7.438 11.836,-7.309" />
  </g>
</svg>
