<?xml version="1.0" encoding="UTF-8" standalone="no"?>
<svg
   xmlns:dc="http://purl.org/dc/elements/1.1/"
   xmlns:cc="http://creativecommons.org/ns#"
   xmlns:rdf="http://www.w3.org/1999/02/22-rdf-syntax-ns#"
   xmlns:svg="http://www.w3.org/2000/svg"
   xmlns="http://www.w3.org/2000/svg"
   xmlns:sodipodi="http://sodipodi.sourceforge.net/DTD/sodipodi-0.dtd"
   xmlns:inkscape="http://www.inkscape.org/namespaces/inkscape"
   viewBox="0 0 48 48"
   id="svg2"
   version="1.1"
   inkscape:version="0.91 r13725"
   sodipodi:docname="gmsh.svg">
  <metadata
     id="metadata19">
    <rdf:RDF>
      <cc:Work
         rdf:about="">
        <dc:format>image/svg+xml</dc:format>
        <dc:type
           rdf:resource="http://purl.org/dc/dcmitype/StillImage" />
        <dc:title></dc:title>
      </cc:Work>
    </rdf:RDF>
  </metadata>
  <sodipodi:namedview
     pagecolor="#ffffff"
     bordercolor="#666666"
     borderopacity="1"
     objecttolerance="10"
     gridtolerance="10"
     guidetolerance="10"
     inkscape:pageopacity="0"
     inkscape:pageshadow="2"
     inkscape:window-width="1280"
     inkscape:window-height="694"
     id="namedview17"
     showgrid="false"
     inkscape:zoom="4.9166667"
     inkscape:cx="-9.1525424"
     inkscape:cy="24"
     inkscape:window-x="0"
     inkscape:window-y="0"
     inkscape:window-maximized="1"
     inkscape:current-layer="svg2" />
  <defs
     id="defs4">
    <linearGradient
       id="0"
       x1="61.57"
       y1="22.939"
       x2="60.753"
       y2="-27.706"
       gradientUnits="userSpaceOnUse"
       gradientTransform="matrix(0.99999,0,0,0.99999,-38.378,25.875)">
      <stop
         stop-color="#197cf1"
         id="stop7" />
      <stop
         offset="1"
         stop-color="#21c9fb"
         id="stop9" />
    </linearGradient>
  </defs>
  <path
     style="fill:#37abc8;fill-opacity:0.85"
     inkscape:connector-curvature="0"
     id="path15"
     d="m 47.800833,11.439876 c 0,-0.01352 -0.0034,-0.02536 -0.007,-0.03888 -0.0087,-0.04733 -0.0018,-0.09467 -0.03128,-0.142002 -1.74e-4,-0.0068 -0.0034,-0.01352 -0.0052,-0.02198 -0.0018,-0.05241 -0.0365,-0.104811 -0.05909,-0.155527 -0.0034,-0.0085 -0.0087,-0.0017 -0.01215,-0.02536 -0.02085,-0.04395 -0.04518,-0.08622 -0.07125,-0.126787 -0.0052,-0.0085 -0.01038,-0.0017 -0.01564,-0.02367 -0.02955,-0.04564 -0.06256,-0.08791 -0.09905,-0.128478 -0.007,-0.0085 -0.0139,-0.01522 -0.02259,-0.02367 -0.03128,-0.03381 -0.0643,-0.06593 -0.09906,-0.09636 -0.0087,-0.0085 -0.0018,-0.01521 -0.02607,-0.02367 -0.0417,-0.0355 -0.08689,-0.06762 -0.133811,-0.09805 -0.007,-0.0051 -0.0139,-0.0085 -0.02259,-0.01352 -0.04519,-0.02705 -0.09037,-0.05072 -0.139024,-0.07269 -0.0052,-1.69e-4 -0.0087,-0.0051 -0.0139,-0.0085 L 24.630604,0.5462868 c -0.34235,-0.15214511 -0.736832,-0.15214511 -1.080919,0 L 8.0640548,7.3826736 C 7.4071621,7.6734398 7.1152101,8.4257128 7.4141139,9.0664128 7.7130166,9.7054222 8.4880804,9.9894264 9.1449731,9.6986602 L 24.090144,3.0989435 43.292953,11.58526 24.090144,19.797714 2.2041574,10.44079 c -1.735e-4,0 -0.00342,-1.69e-4 -0.00519,0 -0.031284,-0.01352 -0.066037,-0.02536 -0.099055,-0.03719 -0.00874,-0.0034 -0.00177,-0.0068 -0.024333,-0.0085 -0.027802,-0.0085 -0.055605,-0.01521 -0.08342,-0.02198 -0.015636,-0.0034 -0.029537,-0.0085 -0.045185,-0.01183 -0.00177,-0.0034 -0.036487,-0.0051 -0.05387,-0.0085 -0.026068,-0.0034 -0.050401,-0.0085 -0.076469,-0.01183 -0.012154,-1.69e-4 -0.024333,-1.69e-4 -0.036487,-1.69e-4 -0.031284,-1.69e-4 -0.064302,-0.0051 -0.095586,-0.0051 -1.734e-4,0 -0.00342,0 -0.00696,0 -0.012154,0 -0.024333,1.69e-4 -0.0365,1.69e-4 -0.027802,0 -0.055605,1.7e-4 -0.085154,0.0034 -0.022586,1.69e-4 -0.043451,0.0051 -0.064302,0.0085 -0.019117,0.0034 -0.039969,0.0051 -0.059086,0.0085 -0.026068,0.0051 -0.052136,0.01183 -0.078203,0.0017 -0.013901,0.0034 -0.027802,0.0068 -0.041704,0.01014 -0.027802,0.0085 -0.055605,0.0017 -0.083419,0.02705 -0.012154,0.0034 -0.024333,0.0085 -0.034753,0.01183 -0.027802,0.01014 -0.05387,0.02198 -0.079938,0.03381 -0.012154,0.0051 -0.024333,0.01183 -0.0365,0.0017 -0.024333,0.01183 -0.04692,0.02536 -0.069506,0.03888 -0.0139012,0.0085 -0.0278023,0.0017 -0.0417035,0.02536 -0.0191172,0.01183 -0.0382345,0.02536 -0.0573518,0.03888 -0.0156356,0.01183 -0.0312839,0.02198 -0.0469196,0.03381 -0.0156356,0.01183 -0.0312839,0.02536 -0.0469195,0.03888 -0.001772,0.01352 -0.0330184,0.02874 -0.048654,0.04395 -0.0139012,0.01352 -0.0260678,0.02705 -0.039969,0.04057 -0.0156356,0.0017 -0.0312839,0.03212 -0.0469196,0.04903 -0.0139012,0.01521 -0.0260678,0.03212 -0.0382345,0.04733 -0.012154,0.0017 -0.0260678,0.03212 -0.0382345,0.04902 -0.0139012,0.02029 -0.0278023,0.04226 -0.039969,0.06255 -0.008736,0.01352 -0.001772,0.02705 -0.0260678,0.04057 -0.0156356,0.02705 -0.0295368,0.05579 -0.0434506,0.08453 -0.003418,0.0085 -0.008736,0.01521 -0.012154,0.02367 0,1.69e-4 -1.7345e-4,0.0034 0,0.0051 -0.0139011,0.03043 -0.0260678,0.06255 -0.0364874,0.09467 -0.003418,0.0085 -0.006963,0.0017 -0.008736,0.02536 -0.008736,0.02705 -0.0156356,0.0541 -0.0225862,0.08115 -0.003418,0.01521 -0.008736,0.03043 -0.012154,0.04395 -0.003418,0.0017 -0.005191,0.03381 -0.008736,0.05071 -0.005191,0.02536 -0.008736,0.05072 -0.012154,0.07776 -1.7345e-4,0.01014 -1.7345e-4,0.02029 -1.7345e-4,0.03043 -0.003418,0.03212 -0.005191,0.06593 -0.005191,0.09805 0,1.69e-4 0,0.0034 0,0.0051 l 0,24.823319 c 0,0.495316 0.29542731,0.946681 0.75942319,1.154613 L 23.547735,47.620047 c 0,0 0.0034,1.68e-4 0.0034,1.68e-4 0.0087,0.0034 0.01912,0.0068 0.02954,0.01185 0.04345,0.0186 0.08689,0.03381 0.132073,0.04734 0.01564,0.005 0.03128,0.0084 0.04692,0.01184 0.0417,0.01185 0.08515,0.02029 0.12686,0.02705 0.01215,1.68e-4 0.02607,0.005 0.03997,0.0068 0.0556,0.0068 0.112956,0.01184 0.168567,0.01184 0.0052,0 0.01038,-1.69e-4 0.0018,-1.69e-4 0.04865,0 0.09905,-0.0034 0.147713,-0.01008 0.0018,-1.69e-4 0.0365,-0.005 0.05387,-0.0084 0.03823,-0.0068 0.07647,-0.01352 0.112956,-0.02366 0.0018,-0.0034 0.03475,-0.0084 0.05214,-0.01352 0.0417,-0.01185 0.08167,-0.02705 0.123388,-0.04395 0.01215,-0.005 0.02259,-0.0084 0.03475,-0.01352 0.0034,-1.7e-4 0.0052,-1.7e-4 0.0087,-0.0034 L 47.042947,37.549921 c 0.462258,-0.207932 0.759424,-0.657605 0.759424,-1.154612 l 0,-24.82332 c 0,-0.0541 -0.0052,-0.108193 -0.01215,-0.160598 m -22.400379,33.066204 0,-17.074062 c 0,-0.701558 -0.585642,-1.271257 -1.306833,-1.271257 -0.721193,0 -1.306834,0.569699 -1.306834,1.271257 l 0,17.074062 -19.7988766,-8.895418 0,-22.06104 20.5791526,8.797368 c 0.166831,0.071 0.345825,0.108188 0.526558,0.108188 0.178994,0 0.357989,-0.0355 0.526556,-0.108188 l 20.579153,-8.797368 0,22.06104 -19.798876,8.895418" />
</svg>
