<?xml version="1.0" encoding="UTF-8" standalone="no"?>
<svg
   xmlns:dc="http://purl.org/dc/elements/1.1/"
   xmlns:cc="http://creativecommons.org/ns#"
   xmlns:rdf="http://www.w3.org/1999/02/22-rdf-syntax-ns#"
   xmlns:svg="http://www.w3.org/2000/svg"
   xmlns="http://www.w3.org/2000/svg"
   xmlns:sodipodi="http://sodipodi.sourceforge.net/DTD/sodipodi-0.dtd"
   xmlns:inkscape="http://www.inkscape.org/namespaces/inkscape"
   viewBox="0 0 48 48"
   id="svg2"
   version="1.1"
   inkscape:version="0.91 r13725"
   sodipodi:docname="google-play-music.svg">
  <metadata
     id="metadata43">
    <rdf:RDF>
      <cc:Work
         rdf:about="">
        <dc:format>image/svg+xml</dc:format>
        <dc:type
           rdf:resource="http://purl.org/dc/dcmitype/StillImage" />
        <dc:title></dc:title>
      </cc:Work>
    </rdf:RDF>
  </metadata>
  <sodipodi:namedview
     pagecolor="#ffffff"
     bordercolor="#666666"
     borderopacity="1"
     objecttolerance="10"
     gridtolerance="10"
     guidetolerance="10"
     inkscape:pageopacity="0"
     inkscape:pageshadow="2"
     inkscape:window-width="1280"
     inkscape:window-height="694"
     id="namedview41"
     showgrid="false"
     inkscape:zoom="4.9166667"
     inkscape:cx="-9.1525424"
     inkscape:cy="24"
     inkscape:window-x="0"
     inkscape:window-y="0"
     inkscape:window-maximized="1"
     inkscape:current-layer="svg2" />
  <defs
     id="defs4">
    <linearGradient
       gradientUnits="userSpaceOnUse"
       y2="17.09"
       x2="0"
       y1="30.804"
       id="3"
       gradientTransform="matrix(2.5388234,0,0,3.4067742,-38.386204,-58.103068)">
      <stop
         stop-color="#ef4e06"
         id="stop7" />
      <stop
         offset="1"
         stop-color="#f9841c"
         id="stop9" />
    </linearGradient>
    <linearGradient
       id="4"
       gradientUnits="userSpaceOnUse"
       x1="22.263"
       y1="31.32"
       x2="22.366"
       y2="15.89"
       gradientTransform="matrix(1.71427,0,0,1.71427,-14.301,-16.568)">
      <stop
         stop-color="#fed9a5"
         id="stop12" />
      <stop
         offset="1"
         stop-color="#fffdfb"
         id="stop14" />
    </linearGradient>
    <linearGradient
       gradientUnits="userSpaceOnUse"
       y2="13.384"
       x2="0"
       y1="34"
       id="2"
       gradientTransform="matrix(1.71427,0,0,1.71427,-14.301,-16.568)">
      <stop
         stop-color="#ee6708"
         id="stop17" />
      <stop
         offset="1"
         stop-color="#f9aa2b"
         id="stop19" />
    </linearGradient>
    <linearGradient
       gradientUnits="userSpaceOnUse"
       y2="10.12"
       x2="0"
       y1="36.55"
       id="0"
       gradientTransform="matrix(1.71427,0,0,1.71427,-14.301,-16.568)">
      <stop
         stop-color="#f7891b"
         id="stop22" />
      <stop
         offset="1"
         stop-color="#fbc969"
         id="stop24" />
    </linearGradient>
    <linearGradient
       id="1"
       y1="37.922"
       x2="0"
       y2="9.352"
       gradientUnits="userSpaceOnUse"
       gradientTransform="matrix(1.71427,0,0,1.71427,-14.301,-16.568)">
      <stop
         stop-color="#f7881a"
         id="stop27" />
      <stop
         offset="1"
         stop-color="#fbc967"
         id="stop29" />
    </linearGradient>
  </defs>
  <path
     inkscape:connector-curvature="0"
     style="fill:#ff6600;stroke-width:1.31700003"
     id="path39"
     d="M 44.487955,7.5209632 C 40.89569,3.3466475 34.453719,0.9260934 25.35254,0.32323718 l -0.01565,0 c -0.672579,-0.0609026 -1.314054,-0.0882902 -1.916651,-0.0882902 -4.587525,0 -6.216484,1.79943242 -6.216484,3.34006142 l 0,26.8087926 C 15.39985,29.95754 13.463758,29.83575 11.550994,30.024523 8.2192088,30.353353 5.2334318,31.577333 3.1457199,33.474195 1.058008,35.368014 0.11717546,37.70636 0.49428499,40.056888 1.1979647,44.419977 6.4114127,47.711322 12.624009,47.711322 c 0.583159,0 1.174093,-0.003 1.757255,-0.0883 6.438083,-0.636347 11.115025,-4.637114 11.115025,-9.511717 l 0,-26.306412 c 0.482077,-0.02435 0.968044,-0.03959 1.43846,-0.03959 5.676088,0 10.897312,1.860326 15.096061,5.380026 1.73004,1.449287 2.946901,2.892486 3.658356,3.84853 0.174943,0.234444 0.517069,0.359278 0.859189,0.310562 0.342121,-0.04872 0.610373,-0.255756 0.672579,-0.523693 0.688126,-2.962514 1.247959,-8.622656 -2.74474,-13.2597713" />
</svg>
