<?xml version="1.0" encoding="UTF-8" standalone="no"?>
<svg
   xmlns:dc="http://purl.org/dc/elements/1.1/"
   xmlns:cc="http://creativecommons.org/ns#"
   xmlns:rdf="http://www.w3.org/1999/02/22-rdf-syntax-ns#"
   xmlns:svg="http://www.w3.org/2000/svg"
   xmlns="http://www.w3.org/2000/svg"
   xmlns:sodipodi="http://sodipodi.sourceforge.net/DTD/sodipodi-0.dtd"
   xmlns:inkscape="http://www.inkscape.org/namespaces/inkscape"
   viewBox="0 0 48 48"
   id="svg2"
   version="1.1"
   inkscape:version="0.91 r13725"
   sodipodi:docname="google.svg">
  <metadata
     id="metadata19">
    <rdf:RDF>
      <cc:Work
         rdf:about="">
        <dc:format>image/svg+xml</dc:format>
        <dc:type
           rdf:resource="http://purl.org/dc/dcmitype/StillImage" />
        <dc:title></dc:title>
      </cc:Work>
    </rdf:RDF>
  </metadata>
  <sodipodi:namedview
     pagecolor="#ffffff"
     bordercolor="#666666"
     borderopacity="1"
     objecttolerance="10"
     gridtolerance="10"
     guidetolerance="10"
     inkscape:pageopacity="0"
     inkscape:pageshadow="2"
     inkscape:window-width="1280"
     inkscape:window-height="694"
     id="namedview17"
     showgrid="false"
     inkscape:zoom="4.9166667"
     inkscape:cx="-9.1525424"
     inkscape:cy="24"
     inkscape:window-x="0"
     inkscape:window-y="0"
     inkscape:window-maximized="1"
     inkscape:current-layer="svg2" />
  <defs
     id="defs4">
    <linearGradient
       id="0"
       gradientUnits="userSpaceOnUse"
       y1="20.995"
       x2="0"
       y2="-25.291"
       gradientTransform="matrix(0.99999,0,0,0.99999,-38.37,25.882)">
      <stop
         stop-color="#1074f5"
         id="stop7" />
      <stop
         offset="1"
         stop-color="#02befd"
         id="stop9" />
    </linearGradient>
  </defs>
  <path
     style="fill:#0055d4;fill-opacity:0.85100002"
     inkscape:connector-curvature="0"
     id="path15"
     d="m 24.590344,47.91532 c -13.352536,0 -24.16105534,-10.698484 -24.16105534,-23.915085 0,-13.2166 10.80851934,-23.9150842 24.16105534,-23.9150842 6.519221,0 11.97962,2.3563393 16.183643,6.2530908 L 34.217813,12.59274 c -1.799287,-1.706412 -4.933118,-3.6871434 -9.62889,-3.6871434 -8.254554,0 -14.9755913,6.7637484 -14.9755913,15.0946384 0,8.33089 6.7324083,15.094638 14.9755913,15.094638 9.563514,0 13.152141,-6.800324 13.70358,-10.315842 l -13.70358,0 0,-8.194432 22.810877,0 c 0.201818,1.195755 0.37805,2.391507 0.37805,3.961462 0.01142,13.663954 -9.23805,23.369259 -23.190349,23.369259 z" />
</svg>
