<?xml version="1.0" encoding="UTF-8" standalone="no"?>
<svg
   xmlns:dc="http://purl.org/dc/elements/1.1/"
   xmlns:cc="http://creativecommons.org/ns#"
   xmlns:rdf="http://www.w3.org/1999/02/22-rdf-syntax-ns#"
   xmlns:svg="http://www.w3.org/2000/svg"
   xmlns="http://www.w3.org/2000/svg"
   xmlns:sodipodi="http://sodipodi.sourceforge.net/DTD/sodipodi-0.dtd"
   xmlns:inkscape="http://www.inkscape.org/namespaces/inkscape"
   viewBox="0 0 48 48"
   id="svg2"
   version="1.1"
   inkscape:version="0.91 r13725"
   sodipodi:docname="google-keep.svg">
  <metadata
     id="metadata43">
    <rdf:RDF>
      <cc:Work
         rdf:about="">
        <dc:format>image/svg+xml</dc:format>
        <dc:type
           rdf:resource="http://purl.org/dc/dcmitype/StillImage" />
        <dc:title></dc:title>
      </cc:Work>
    </rdf:RDF>
  </metadata>
  <sodipodi:namedview
     pagecolor="#ffffff"
     bordercolor="#666666"
     borderopacity="1"
     objecttolerance="10"
     gridtolerance="10"
     guidetolerance="10"
     inkscape:pageopacity="0"
     inkscape:pageshadow="2"
     inkscape:window-width="1280"
     inkscape:window-height="694"
     id="namedview41"
     showgrid="false"
     inkscape:zoom="4.9166667"
     inkscape:cx="-9.1525424"
     inkscape:cy="24"
     inkscape:window-x="0"
     inkscape:window-y="0"
     inkscape:window-maximized="1"
     inkscape:current-layer="svg2" />
  <defs
     id="defs4">
    <linearGradient
       id="0"
       x1="860"
       y1="525.97"
       x2="842.73"
       y2="507.21"
       gradientUnits="userSpaceOnUse">
      <stop
         stop-color="#ffee97"
         id="stop7" />
      <stop
         offset="1"
         stop-color="#ffe76b"
         id="stop9" />
    </linearGradient>
    <linearGradient
       id="1"
       x1="858.81"
       y1="529.48"
       x2="860.02"
       y2="517.32"
       gradientUnits="userSpaceOnUse">
      <stop
         stop-color="#fed45b"
         id="stop12" />
      <stop
         offset="1"
         stop-color="#ffcc54"
         id="stop14" />
    </linearGradient>
    <linearGradient
       id="2"
       x1="859.24"
       y1="526.27"
       x2="864.14"
       y2="531.15"
       gradientUnits="userSpaceOnUse">
      <stop
         stop-color="#f0a23a"
         id="stop17" />
      <stop
         offset="1"
         stop-color="#fde46a"
         id="stop19" />
    </linearGradient>
  </defs>
  <g
     style="fill:#ff9955;stroke:#cb8034;stroke-width:2.05100012;stroke-linecap:round;stroke-linejoin:round"
     id="g33"
     transform="matrix(0.14395549,0,0,0.09597303,-11.255624,0.4805526)">
    <path
       inkscape:connector-curvature="0"
       id="path35"
       d="m 306.55,367.59 -121.54,0 c -9.04,0 -16.382,7.338 -16.382,16.385 0,9.05 7.341,16.384 16.382,16.384 l 121.54,0 c 9.04,0 16.389,-7.334 16.389,-16.384 0,-9.05 -7.348,-16.385 -16.389,-16.385 z"
       style="fill:#ff9955" />
    <path
       inkscape:connector-curvature="0"
       id="path37"
       d="m 213.92,464.37 0,8.926 c 0,10.08 8.157,18.242 18.239,18.242 l 27.23,0 c 10.06,0 18.239,-8.166 18.239,-18.242 l 0,-8.926 c 20.642,-1.467 36.981,-18.498 36.981,-39.506 l -137.69,0 c 10e-5,21.01 16.357,38.04 36.997,39.506 z"
       style="fill:#ff9955" />
    <path
       inkscape:connector-curvature="0"
       id="path39"
       d="M 245.78,0 C 155.09,0 81.56,73.52 81.56,164.21 c 0,38.27 13.164,73.4 35.15,101.29 19.444,24.647 37.874,51.592 53.76,78.69 l 150.58,0 c 16.05,-27.353 34.15,-53.793 53.78,-78.71 21.968,-27.878 35.14,-63.01 35.14,-101.27 C 409.97,73.52 336.45,0 245.77,0"
       style="fill:#ff9955" />
  </g>
</svg>
