<?xml version="1.0" encoding="UTF-8" standalone="no"?>
<svg
   xmlns:dc="http://purl.org/dc/elements/1.1/"
   xmlns:cc="http://creativecommons.org/ns#"
   xmlns:rdf="http://www.w3.org/1999/02/22-rdf-syntax-ns#"
   xmlns:svg="http://www.w3.org/2000/svg"
   xmlns="http://www.w3.org/2000/svg"
   xmlns:sodipodi="http://sodipodi.sourceforge.net/DTD/sodipodi-0.dtd"
   xmlns:inkscape="http://www.inkscape.org/namespaces/inkscape"
   viewBox="0 0 48 48"
   id="svg2"
   version="1.1"
   inkscape:version="0.91 r13725"
   sodipodi:docname="gromit.svg">
  <metadata
     id="metadata28">
    <rdf:RDF>
      <cc:Work
         rdf:about="">
        <dc:format>image/svg+xml</dc:format>
        <dc:type
           rdf:resource="http://purl.org/dc/dcmitype/StillImage" />
        <dc:title></dc:title>
      </cc:Work>
    </rdf:RDF>
  </metadata>
  <sodipodi:namedview
     pagecolor="#ffffff"
     bordercolor="#666666"
     borderopacity="1"
     objecttolerance="10"
     gridtolerance="10"
     guidetolerance="10"
     inkscape:pageopacity="0"
     inkscape:pageshadow="2"
     inkscape:window-width="1280"
     inkscape:window-height="694"
     id="namedview26"
     showgrid="false"
     inkscape:zoom="4.9166667"
     inkscape:cx="-9.1525424"
     inkscape:cy="24"
     inkscape:window-x="0"
     inkscape:window-y="0"
     inkscape:window-maximized="1"
     inkscape:current-layer="svg2" />
  <defs
     id="defs4">
    <clipPath
       id="1">
      <path
         transform="matrix(15.33333 0 0 11.5 415-125.5)"
         d="m-24 13c0 1.105-.672 2-1.5 2-.828 0-1.5-.895-1.5-2 0-1.105.672-2 1.5-2 .828 0 1.5.895 1.5 2"
         fill="#1890d0"
         id="path7" />
    </clipPath>
    <linearGradient
       id="0"
       gradientUnits="userSpaceOnUse"
       gradientTransform="matrix(.49433 0 0 .4778 86.64 13.1)"
       x1="-123.97"
       y1="73.5"
       x2="-125.19"
       y2="-33.29">
      <stop
         stop-color="#00a661"
         id="stop10" />
      <stop
         stop-color="#37ce97"
         offset="1"
         id="stop12" />
    </linearGradient>
  </defs>
  <g
     transform="matrix(2.4744409,0,0,2.0408257,-35.141866,-25.080001)"
     id="g16"
     style="fill:#00aa88;stroke:none;stroke-width:0.63800001;stroke-linecap:round;stroke-linejoin:round">
    <g
       clip-path="url(#1)"
       id="g18"
       style="fill:#00aa88;stroke:none;stroke-width:0.63800001">
      <g
         id="g20"
         style="fill:#00aa88;stroke:none;stroke-width:0.63800001">
        <path
           d="m 30.625,8.527 c -1.766,0.08 -3.989,0.565 -6.643,2.223 -2.654,1.662 -5.743,4.462 -7.943,7.215 -2.191,2.743 -3.706,5.69 -4.377,8.537 -0.67,2.838 -0.599,5.132 -0.047,7.355 0.543,2.196 2.087,4.203 3.654,4.986 1.568,0.77 3.202,0.77 5.189,0.463 2.01,-0.302 3.994,-1.015 5.576,-1.879 1.601,-0.878 2.767,-1.916 3.641,-3.475 0.874,-1.558 1.444,-3.636 1.326,-4.859 -0.113,-1.237 -1.478,-1.525 -2.148,-0.713 -0.661,0.812 -0.632,2.705 -1.633,4.174 -1,1.468 -2.356,2.634 -4.184,3.305 -1.813,0.689 -4.381,1.215 -5.916,0.625 -1.525,-0.581 -2.341,-2.352 -2.695,-4.02 -0.354,-1.671 -0.303,-3.72 0.254,-5.646 0.567,-1.912 1.473,-3.859 2.965,-6.088 1.506,-2.233 3.897,-4.566 6.191,-6.412 l -0.039,0 c 2.295,-1.841 4.926,-3.01 6.971,-3.111 2.068,-0.099 3.428,1.357 4.41,1.645 0.992,0.293 1.766,-0.718 1.619,-1.389 C 36.664,10.783 35.71,9.97 34.694,9.399 33.679,8.828 32.394,8.466 30.624,8.532 Z m 0.84,15.58 c -1.487,-0.052 -3.725,1.063 -5.803,1.979 -2.078,0.916 -3.97,1.653 -4.834,2.531 -0.845,0.878 -0.662,1.894 0.037,2.191 l -10e-4,-0.016 c 0.685,0.279 1.866,-0.169 3.03,-0.693 1.152,-0.524 2.299,-1.142 3.371,-1.643 1.072,-0.5 2.077,-0.897 2.809,-1.1 0.727,-0.203 1.634,-0.104 1.426,1.27 -0.212,1.374 -0.874,4.566 -0.916,6.143 -0.047,1.591 1.163,1.45 1.824,1.152 0.656,-0.297 0.713,-1.12 1.199,-2.801 0.482,-1.681 0.886,-4.03 0.764,-5.813 -0.132,-1.775 -1.407,-3.149 -2.895,-3.201 z"
           transform="matrix(0.75044,0,0,0.75044,5.974,5.989)"
           id="path22"
           style="fill:#00aa88;stroke:none;stroke-width:0.85000002"
           inkscape:connector-curvature="0" />
        <path
           transform="scale(3.54331,3.54331)"
           d="M 6.734,4.722 C 6.248,5.113 5.818,5.607 5.501,6.08 5.184,6.552 4.98,7.002 4.859,7.407 4.738,7.812 4.698,8.172 4.773,8.526 4.848,8.88 5.035,9.227 5.363,9.352 5.688,9.477 6.15,9.38 6.538,9.233 6.925,9.09 7.237,8.896 7.45,8.585 7.662,8.274 7.775,7.845 7.915,7.673 8.056,7.501 8.228,7.587 8.251,7.849 8.276,8.109 8.155,8.548 7.97,8.878 7.786,9.208 7.538,9.428 7.199,9.614 6.864,9.799 6.443,9.95 6.019,10.014 5.597,10.078 5.17,10.054 4.841,9.885 4.51,9.722 4.272,9.413 4.157,8.947 4.04,8.476 4.05,7.849 4.192,7.248 4.336,6.645 4.615,6.074 5.083,5.491 5.548,4.908 6.203,4.315 6.764,3.965 7.326,3.612 7.797,3.509 8.172,3.492 8.546,3.481 8.819,3.557 9.033,3.676 9.248,3.797 9.401,3.96 9.432,4.105 9.464,4.246 9.372,4.372 9.163,4.31 8.957,4.246 8.633,4 8.194,4.021 7.762,4.041 7.214,4.331 6.729,4.719"
           id="path24"
           style="fill:#00aa88;fill-rule:evenodd;stroke:none;stroke-width:0.18000001"
           inkscape:connector-curvature="0" />
      </g>
    </g>
  </g>
</svg>
