<?xml version="1.0" encoding="UTF-8" standalone="no"?>
<svg
   xmlns:dc="http://purl.org/dc/elements/1.1/"
   xmlns:cc="http://creativecommons.org/ns#"
   xmlns:rdf="http://www.w3.org/1999/02/22-rdf-syntax-ns#"
   xmlns:svg="http://www.w3.org/2000/svg"
   xmlns="http://www.w3.org/2000/svg"
   xmlns:sodipodi="http://sodipodi.sourceforge.net/DTD/sodipodi-0.dtd"
   xmlns:inkscape="http://www.inkscape.org/namespaces/inkscape"
   viewBox="0 0 48 48"
   id="svg2"
   version="1.1"
   inkscape:version="0.91 r13725"
   sodipodi:docname="grsync-restore.svg">
  <metadata
     id="metadata78">
    <rdf:RDF>
      <cc:Work
         rdf:about="">
        <dc:format>image/svg+xml</dc:format>
        <dc:type
           rdf:resource="http://purl.org/dc/dcmitype/StillImage" />
        <dc:title></dc:title>
      </cc:Work>
    </rdf:RDF>
  </metadata>
  <sodipodi:namedview
     pagecolor="#ffffff"
     bordercolor="#666666"
     borderopacity="1"
     objecttolerance="10"
     gridtolerance="10"
     guidetolerance="10"
     inkscape:pageopacity="0"
     inkscape:pageshadow="2"
     inkscape:window-width="1280"
     inkscape:window-height="694"
     id="namedview76"
     showgrid="false"
     inkscape:zoom="4.9166667"
     inkscape:cx="-9.1525424"
     inkscape:cy="24"
     inkscape:window-x="0"
     inkscape:window-y="0"
     inkscape:window-maximized="1"
     inkscape:current-layer="svg2" />
  <defs
     id="defs4">
    <clipPath
       id="clipPath6">
      <path
         d="m-24 13c0 1.105-.672 2-1.5 2-.828 0-1.5-.895-1.5-2 0-1.105.672-2 1.5-2 .828 0 1.5.895 1.5 2"
         transform="matrix(15.33333 0 0 11.5 415-125.5)"
         fill="#1890d0"
         id="path8" />
    </clipPath>
    <clipPath
       id="clipPath10">
      <path
         d="m-24 13c0 1.105-.672 2-1.5 2-.828 0-1.5-.895-1.5-2 0-1.105.672-2 1.5-2 .828 0 1.5.895 1.5 2"
         transform="matrix(15.33333 0 0 11.5 415-125.5)"
         fill="#1890d0"
         id="path12" />
    </clipPath>
    <clipPath
       id="clipPath14">
      <path
         d="m69.63 12.145h-.052c-22.727-.292-46.47 4.077-46.709 4.122-2.424.451-4.946 2.974-5.397 5.397-.044.237-4.414 23.983-4.122 46.71-.292 22.777 4.078 46.523 4.122 46.761.451 2.423 2.974 4.945 5.398 5.398.237.044 23.982 4.413 46.709 4.121 22.779.292 46.524-4.077 46.761-4.121 2.423-.452 4.946-2.976 5.398-5.399.044-.236 4.413-23.981 4.121-46.709.292-22.777-4.077-46.523-4.121-46.761-.453-2.423-2.976-4.946-5.398-5.397-.238-.045-23.984-4.414-46.71-4.122"
         id="path16" />
    </clipPath>
    <clipPath
       id="clipPath18">
      <path
         transform="matrix(15.33333 0 0 11.5 415-125.5)"
         d="m-24 13c0 1.105-.672 2-1.5 2-.828 0-1.5-.895-1.5-2 0-1.105.672-2 1.5-2 .828 0 1.5.895 1.5 2"
         fill="#1890d0"
         id="path20" />
    </clipPath>
    <clipPath
       id="clipPath22">
      <path
         d="m-24 13c0 1.105-.672 2-1.5 2-.828 0-1.5-.895-1.5-2 0-1.105.672-2 1.5-2 .828 0 1.5.895 1.5 2"
         transform="matrix(15.33333 0 0 11.5 415-125.5)"
         fill="#1890d0"
         id="path24" />
    </clipPath>
    <clipPath
       id="clipPath26">
      <path
         transform="matrix(15.33333 0 0 11.5 415-125.5)"
         d="m-24 13c0 1.105-.672 2-1.5 2-.828 0-1.5-.895-1.5-2 0-1.105.672-2 1.5-2 .828 0 1.5.895 1.5 2"
         fill="#1890d0"
         id="path28" />
    </clipPath>
    <clipPath
       id="clipPath30">
      <path
         d="m-24 13c0 1.105-.672 2-1.5 2-.828 0-1.5-.895-1.5-2 0-1.105.672-2 1.5-2 .828 0 1.5.895 1.5 2"
         transform="matrix(15.33333 0 0 11.5 415-125.5)"
         fill="#1890d0"
         id="path32" />
    </clipPath>
    <clipPath
       id="clipPath34">
      <path
         d="m-24 13c0 1.105-.672 2-1.5 2-.828 0-1.5-.895-1.5-2 0-1.105.672-2 1.5-2 .828 0 1.5.895 1.5 2"
         transform="matrix(15.33333 0 0 11.5 415-125.5)"
         fill="#1890d0"
         id="path36" />
    </clipPath>
    <clipPath
       id="clipPath38">
      <path
         d="m-24 13c0 1.105-.672 2-1.5 2-.828 0-1.5-.895-1.5-2 0-1.105.672-2 1.5-2 .828 0 1.5.895 1.5 2"
         transform="matrix(15.33333 0 0 11.5 415-125.5)"
         fill="#1890d0"
         id="path40" />
    </clipPath>
    <clipPath
       id="clipPath42">
      <path
         fill="#1890d0"
         transform="matrix(15.33333 0 0 11.5 415-125.5)"
         d="m-24 13c0 1.105-.672 2-1.5 2-.828 0-1.5-.895-1.5-2 0-1.105.672-2 1.5-2 .828 0 1.5.895 1.5 2"
         id="path44" />
    </clipPath>
    <clipPath
       id="clipPath46">
      <path
         fill="#1890d0"
         transform="matrix(15.33333 0 0 11.5 415-125.5)"
         d="m-24 13c0 1.105-.672 2-1.5 2-.828 0-1.5-.895-1.5-2 0-1.105.672-2 1.5-2 .828 0 1.5.895 1.5 2"
         id="path48" />
    </clipPath>
    <linearGradient
       gradientUnits="userSpaceOnUse"
       y2="301.3"
       x2="0"
       y1="653.96"
       id="0">
      <stop
         stop-color="#0a80fd"
         id="stop51" />
      <stop
         offset="1"
         stop-color="#56c5fa"
         id="stop53" />
    </linearGradient>
    <linearGradient
       id="1"
       gradientUnits="userSpaceOnUse"
       y1="653.96"
       x2="0"
       y2="301.3">
      <stop
         stop-color="#00a661"
         id="stop56" />
      <stop
         offset="1"
         stop-color="#37ce97"
         id="stop58" />
    </linearGradient>
    <linearGradient
       gradientUnits="userSpaceOnUse"
       x1="398.31"
       x2="409.33"
       id="linearGradient60">
      <stop
         stop-color="#b9b9b9"
         id="stop62" />
      <stop
         offset="1"
         stop-color="#d1d1d1"
         id="stop64" />
    </linearGradient>
    <linearGradient
       gradientUnits="userSpaceOnUse"
       y2="517.8"
       x2="0"
       y1="545.8"
       id="linearGradient66">
      <stop
         stop-color="#3889e9"
         id="stop68" />
      <stop
         offset="1"
         stop-color="#5ea5fb"
         id="stop70" />
    </linearGradient>
  </defs>
  <path
     d="M 0.44275483,20.419646 C 0.60697786,20.042548 0.95758886,19.801292 1.3454775,19.801292 l 2.9489611,0 C 6.1694016,8.8252327 15.103938,0.48342742 25.812687,0.48342742 c 12.068876,0 21.889008,10.59244058 21.889008,23.61048158 0,13.018041 -9.819124,23.609395 -21.889008,23.609395 -7.789006,0 -15.053102,-4.521918 -18.9571759,-11.798719 -0.5500962,-1.026968 -0.2256813,-2.338662 0.7274169,-2.933108 0.9510837,-0.594446 2.1681456,-0.244516 2.717236,0.782452 3.1958,5.956414 9.138052,9.657846 15.512523,9.657846 9.874535,0 17.909371,-8.665654 17.909371,-19.315692 0,-10.652211 -8.034836,-19.3178647 -17.909371,-19.3178647 -8.505341,0 -15.631409,6.4345787 -17.4469291,15.0241597 l 2.9257891,0 c 0.387888,0 0.737493,0.241257 0.902722,0.618355 0.164224,0.377099 0.110821,0.821575 -0.137021,1.142162 l -4.9750484,6.438927 c -0.189411,0.244515 -0.4684889,0.385791 -0.7646954,0.385791 -0.295198,0 -0.5752839,-0.142362 -0.7636869,-0.385791 L 0.5787677,21.562895 C 0.33092212,21.24122 0.27853191,20.796744 0.44275483,20.419646"
     id="path74"
     style="fill:#00d4aa;fill-opacity:0.86299995"
     inkscape:connector-curvature="0" />
</svg>
