<?xml version="1.0" encoding="UTF-8" standalone="no"?>
<svg
   xmlns:dc="http://purl.org/dc/elements/1.1/"
   xmlns:cc="http://creativecommons.org/ns#"
   xmlns:rdf="http://www.w3.org/1999/02/22-rdf-syntax-ns#"
   xmlns:svg="http://www.w3.org/2000/svg"
   xmlns="http://www.w3.org/2000/svg"
   xmlns:sodipodi="http://sodipodi.sourceforge.net/DTD/sodipodi-0.dtd"
   xmlns:inkscape="http://www.inkscape.org/namespaces/inkscape"
   viewBox="0 0 48 48"
   id="svg2"
   version="1.1"
   inkscape:version="0.91 r13725"
   sodipodi:docname="grub-customizer.svg">
  <metadata
     id="metadata35">
    <rdf:RDF>
      <cc:Work
         rdf:about="">
        <dc:format>image/svg+xml</dc:format>
        <dc:type
           rdf:resource="http://purl.org/dc/dcmitype/StillImage" />
        <dc:title></dc:title>
      </cc:Work>
    </rdf:RDF>
  </metadata>
  <sodipodi:namedview
     pagecolor="#ffffff"
     bordercolor="#666666"
     borderopacity="1"
     objecttolerance="10"
     gridtolerance="10"
     guidetolerance="10"
     inkscape:pageopacity="0"
     inkscape:pageshadow="2"
     inkscape:window-width="1280"
     inkscape:window-height="694"
     id="namedview33"
     showgrid="false"
     inkscape:zoom="4.9166667"
     inkscape:cx="-42.305085"
     inkscape:cy="24"
     inkscape:window-x="0"
     inkscape:window-y="0"
     inkscape:window-maximized="1"
     inkscape:current-layer="svg2" />
  <defs
     id="defs4">
    <linearGradient
       id="0"
       y1="542.8"
       x2="0"
       y2="507.8"
       gradientUnits="userSpaceOnUse"
       gradientTransform="matrix(1.0908991,0,0,1.0652693,-421.70677,-535.04244)">
      <stop
         stop-color="#030303"
         id="stop7" />
      <stop
         offset="1"
         stop-color="#272727"
         id="stop9" />
    </linearGradient>
  </defs>
  <g
     style="fill:#a02c2c;fill-opacity:0.85100002"
     id="g15"
     transform="matrix(1.1467994,0,0,1.5854216,-1.6560085,19.052526)">
    <path
       inkscape:connector-curvature="0"
       id="path17"
       d="m 14.688,8.422 q -0.869,0 -1.418,-0.439 -0.549,-0.429 -0.789,-0.989 l 0.839,-0.35 q 0.14,0.4 0.509,0.669 0.38,0.27 0.859,0.27 0.759,0 1.189,-0.459 0.439,-0.449 0.439,-1.229 l 0,-0.469 -0.04,0 q -0.24,0.36 -0.679,0.599 -0.439,0.24 -0.989,0.24 -0.949,0 -1.638,-0.749 -0.689,-0.749 -0.689,-1.858 0,-1.109 0.689,-1.858 0.689,-0.749 1.638,-0.749 0.549,0 0.989,0.24 0.439,0.24 0.679,0.599 l 0.04,0 0,-0.679 0.879,0 0,4.644 q 0,1.258 -0.729,1.908 -0.729,0.659 -1.778,0.659 m 0.07,-2.996 q 0.649,0 1.099,-0.479 0.459,-0.479 0.459,-1.288 0,-0.809 -0.459,-1.288 -0.449,-0.479 -1.099,-0.479 -0.639,0 -1.099,0.489 Q 13.2,2.86 13.2,3.659 q 0,0.799 0.459,1.288 0.459,0.479 1.099,0.479"
       style="fill:#a02c2c" />
    <path
       inkscape:connector-curvature="0"
       id="path19"
       d="m 19.235,6.105 -0.919,0 0,-4.894 0.879,0 0,0.799 0.04,0 q 0.14,-0.4 0.569,-0.659 0.439,-0.26 0.849,-0.26 0.41,0 0.689,0.12 L 20.992,2.07 Q 20.812,2 20.503,2 q -0.499,0 -0.889,0.4 -0.38,0.39 -0.38,1.029 l 0,2.677"
       style="fill:#a02c2c" />
    <path
       inkscape:connector-curvature="0"
       id="path21"
       d="m 26.24,6.105 -0.879,0 0,-0.679 -0.04,0 q -0.21,0.35 -0.639,0.599 -0.429,0.24 -0.909,0.24 -0.919,0 -1.398,-0.559 -0.469,-0.559 -0.469,-1.498 l 0,-2.996 0.919,0 0,2.847 q 0,1.368 1.209,1.368 0.569,0 0.929,-0.459 0.36,-0.459 0.36,-1.059 l 0,-2.697 0.919,0 0,4.894"
       style="fill:#a02c2c" />
    <path
       inkscape:connector-curvature="0"
       id="path23"
       d="m 29.954,6.264 q -0.559,0 -1.01,-0.24 -0.439,-0.24 -0.659,-0.599 l -0.04,0 0,0.679 -0.879,0 0,-7.151 0.919,0 0,2.257 -0.04,0.679 0.04,0 q 0.22,-0.36 0.659,-0.599 0.449,-0.24 1.01,-0.24 0.949,0 1.638,0.749 0.689,0.749 0.689,1.858 0,1.109 -0.689,1.858 -0.689,0.749 -1.638,0.749 m -0.15,-0.839 q 0.639,0 1.099,-0.479 0.459,-0.489 0.459,-1.288 0,-0.799 -0.459,-1.278 -0.459,-0.489 -1.099,-0.489 -0.649,0 -1.109,0.479 -0.449,0.479 -0.449,1.288 0,0.809 0.449,1.288 0.459,0.479 1.109,0.479"
       style="fill:#a02c2c" />
    <path
       inkscape:connector-curvature="0"
       id="path25"
       d="m 39.23,12.2 c -0.035,-0.046 -0.08,-0.073 -0.137,-0.081 l -1.191,-0.182 c -0.065,-0.208 -0.154,-0.421 -0.267,-0.638 0.078,-0.109 0.195,-0.261 0.351,-0.459 0.156,-0.198 0.267,-0.342 0.332,-0.433 0.035,-0.048 0.052,-0.098 0.052,-0.15 0,-0.061 -0.015,-0.108 -0.046,-0.143 C 38.168,9.893 37.81,9.524 37.25,9.007 37.198,8.964 37.144,8.942 37.087,8.942 37.022,8.942 36.97,8.962 36.931,9 L 36.007,9.697 C 35.829,9.606 35.634,9.526 35.421,9.456 L 35.239,8.258 C 35.235,8.202 35.21,8.155 35.164,8.118 35.118,8.081 35.065,8.063 35.004,8.063 l -1.445,0 c -0.126,0 -0.204,0.061 -0.234,0.182 -0.056,0.217 -0.119,0.621 -0.189,1.211 -0.204,0.065 -0.401,0.148 -0.592,0.247 L 31.646,9.006 C 31.59,8.963 31.533,8.941 31.477,8.941 c -0.095,0 -0.301,0.155 -0.615,0.465 -0.315,0.31 -0.528,0.544 -0.641,0.7 -0.039,0.056 -0.059,0.106 -0.059,0.15 0,0.052 0.022,0.104 0.065,0.156 0.291,0.352 0.523,0.651 0.697,0.899 -0.109,0.2 -0.193,0.399 -0.254,0.599 l -1.211,0.182 c -0.048,0.009 -0.089,0.037 -0.124,0.085 -0.035,0.048 -0.052,0.098 -0.052,0.15 l 0,1.445 c 0,0.056 0.017,0.107 0.052,0.153 0.035,0.046 0.08,0.073 0.137,0.082 l 1.191,0.176 c 0.061,0.213 0.15,0.427 0.267,0.644 -0.078,0.109 -0.195,0.261 -0.352,0.459 -0.156,0.198 -0.267,0.342 -0.332,0.433 -0.035,0.048 -0.052,0.098 -0.052,0.15 0,0.056 0.015,0.106 0.046,0.15 0.169,0.234 0.527,0.599 1.074,1.094 0.048,0.048 0.102,0.072 0.163,0.072 0.065,0 0.119,-0.02 0.163,-0.058 l 0.918,-0.697 c 0.178,0.091 0.373,0.171 0.586,0.241 l 0.182,1.198 c 0.004,0.056 0.029,0.103 0.075,0.14 0.046,0.037 0.099,0.055 0.16,0.055 l 1.445,0 c 0.126,0 0.204,-0.061 0.235,-0.182 0.056,-0.217 0.119,-0.621 0.189,-1.211 0.204,-0.065 0.402,-0.148 0.592,-0.247 l 0.899,0.703 c 0.061,0.039 0.117,0.058 0.169,0.058 0.095,0 0.299,-0.154 0.612,-0.462 0.313,-0.308 0.527,-0.543 0.644,-0.703 0.039,-0.043 0.059,-0.093 0.059,-0.15 0,-0.056 -0.022,-0.111 -0.065,-0.163 -0.312,-0.382 -0.545,-0.681 -0.697,-0.898 0.087,-0.161 0.171,-0.358 0.254,-0.592 l 1.204,-0.182 c 0.052,-0.009 0.096,-0.037 0.13,-0.085 0.035,-0.048 0.052,-0.098 0.052,-0.15 l 0,-1.445 c 0,-0.056 -0.017,-0.107 -0.052,-0.153 m -3.769,2.041 c -0.325,0.326 -0.718,0.488 -1.178,0.488 -0.46,0 -0.853,-0.163 -1.178,-0.488 -0.325,-0.325 -0.488,-0.718 -0.488,-1.178 0,-0.46 0.163,-0.853 0.488,-1.178 0.326,-0.325 0.718,-0.488 1.178,-0.488 0.46,0 0.853,0.163 1.178,0.488 0.325,0.326 0.488,0.718 0.488,1.178 0,0.46 -0.163,0.853 -0.488,1.178"
       style="fill:#a02c2c" />
    <path
       inkscape:connector-curvature="0"
       id="path27"
       d="M 43.12,4.614 C 43.094,4.58 43.061,4.56 43.019,4.554 L 42.14,4.42 C 42.092,4.266 42.026,4.11 41.943,3.949 42.001,3.869 42.087,3.756 42.202,3.61 42.317,3.464 42.399,3.358 42.447,3.291 42.473,3.256 42.485,3.219 42.485,3.181 42.485,3.136 42.474,3.101 42.451,3.075 42.336,2.912 42.072,2.64 41.659,2.259 41.621,2.227 41.581,2.211 41.539,2.211 c -0.048,0 -0.086,0.014 -0.115,0.043 L 40.742,2.768 C 40.611,2.701 40.467,2.642 40.31,2.59 L 40.176,1.707 C 40.173,1.665 40.154,1.631 40.121,1.604 40.087,1.577 40.048,1.563 40.003,1.563 l -1.066,0 c -0.093,0 -0.15,0.045 -0.173,0.134 -0.042,0.16 -0.088,0.458 -0.139,0.893 -0.15,0.048 -0.296,0.109 -0.437,0.183 L 37.525,2.259 C 37.483,2.227 37.442,2.211 37.4,2.211 c -0.07,0 -0.222,0.114 -0.454,0.343 -0.232,0.229 -0.39,0.401 -0.473,0.516 -0.029,0.042 -0.043,0.078 -0.043,0.11 0,0.038 0.016,0.077 0.048,0.115 0.214,0.259 0.386,0.48 0.514,0.663 -0.08,0.147 -0.142,0.294 -0.187,0.442 l -0.893,0.134 c -0.035,0.006 -0.066,0.027 -0.091,0.062 -0.026,0.035 -0.038,0.072 -0.038,0.11 l 0,1.066 c 0,0.042 0.013,0.079 0.038,0.113 0.026,0.034 0.059,0.054 0.101,0.06 l 0.879,0.13 c 0.045,0.157 0.11,0.315 0.197,0.475 -0.058,0.08 -0.144,0.193 -0.259,0.339 -0.115,0.146 -0.197,0.252 -0.245,0.319 -0.026,0.035 -0.038,0.072 -0.038,0.11 0,0.042 0.011,0.078 0.034,0.11 0.125,0.173 0.389,0.442 0.792,0.807 0.035,0.035 0.075,0.053 0.12,0.053 0.048,0 0.088,-0.014 0.12,-0.043 l 0.677,-0.514 c 0.131,0.067 0.275,0.126 0.432,0.178 l 0.134,0.883 c 0.003,0.042 0.022,0.076 0.055,0.103 0.034,0.027 0.073,0.041 0.118,0.041 l 1.066,0 c 0.093,0 0.151,-0.045 0.173,-0.134 0.042,-0.16 0.088,-0.458 0.139,-0.893 0.15,-0.048 0.296,-0.109 0.437,-0.183 l 0.663,0.519 c 0.045,0.029 0.086,0.043 0.125,0.043 0.07,0 0.221,-0.114 0.451,-0.341 0.231,-0.227 0.389,-0.4 0.475,-0.519 0.029,-0.032 0.043,-0.069 0.043,-0.11 0,-0.042 -0.016,-0.082 -0.048,-0.12 C 42.232,6.916 42.06,6.695 41.948,6.535 42.012,6.417 42.074,6.271 42.135,6.098 l 0.888,-0.134 c 0.038,-0.006 0.07,-0.027 0.096,-0.063 0.026,-0.035 0.038,-0.072 0.038,-0.11 l 0,-1.066 c 0,-0.042 -0.013,-0.079 -0.038,-0.113 m -2.78,1.505 c -0.24,0.24 -0.53,0.36 -0.869,0.36 -0.339,0 -0.629,-0.12 -0.869,-0.36 -0.24,-0.24 -0.36,-0.53 -0.36,-0.869 0,-0.339 0.12,-0.629 0.36,-0.869 0.24,-0.24 0.53,-0.36 0.869,-0.36 0.339,0 0.629,0.12 0.869,0.36 0.24,0.24 0.36,0.53 0.36,0.869 0,0.339 -0.12,0.629 -0.36,0.869"
       style="fill:#a02c2c" />
    <path
       inkscape:connector-curvature="0"
       id="path29"
       d="m 5.521,-5.95 c 0.035,0.046 0.08,0.073 0.137,0.081 l 1.191,0.182 c 0.065,0.208 0.154,0.421 0.267,0.638 -0.078,0.109 -0.195,0.261 -0.351,0.459 -0.156,0.198 -0.267,0.342 -0.332,0.433 -0.035,0.048 -0.052,0.098 -0.052,0.15 0,0.061 0.015,0.108 0.046,0.143 0.156,0.221 0.514,0.59 1.074,1.107 0.052,0.043 0.106,0.065 0.163,0.065 0.065,0 0.117,-0.019 0.156,-0.058 l 0.924,-0.697 c 0.178,0.091 0.373,0.171 0.586,0.241 l 0.182,1.198 c 0.004,0.056 0.029,0.103 0.075,0.14 0.046,0.037 0.099,0.055 0.16,0.055 l 1.445,0 c 0.126,0 0.204,-0.061 0.234,-0.182 0.056,-0.217 0.119,-0.621 0.189,-1.211 0.204,-0.065 0.401,-0.148 0.592,-0.247 l 0.898,0.697 c 0.056,0.043 0.113,0.065 0.169,0.065 0.095,0 0.301,-0.155 0.615,-0.465 0.315,-0.31 0.528,-0.544 0.641,-0.7 0.039,-0.056 0.059,-0.106 0.059,-0.15 0,-0.052 -0.022,-0.104 -0.065,-0.156 -0.291,-0.352 -0.523,-0.651 -0.697,-0.899 0.109,-0.2 0.193,-0.399 0.254,-0.599 l 1.211,-0.182 c 0.048,-0.009 0.089,-0.037 0.124,-0.085 0.035,-0.048 0.052,-0.098 0.052,-0.15 l 0,-1.445 c 0,-0.056 -0.017,-0.107 -0.052,-0.153 -0.035,-0.046 -0.08,-0.073 -0.137,-0.082 l -1.191,-0.176 c -0.061,-0.213 -0.15,-0.427 -0.267,-0.644 0.078,-0.109 0.195,-0.261 0.352,-0.459 0.156,-0.198 0.267,-0.342 0.332,-0.433 0.035,-0.048 0.052,-0.098 0.052,-0.15 0,-0.056 -0.015,-0.106 -0.046,-0.15 -0.169,-0.234 -0.527,-0.599 -1.074,-1.094 -0.048,-0.048 -0.102,-0.072 -0.163,-0.072 -0.065,0 -0.119,0.02 -0.163,0.058 l -0.918,0.697 c -0.178,-0.091 -0.373,-0.171 -0.586,-0.241 l -0.182,-1.198 c -0.004,-0.056 -0.029,-0.103 -0.075,-0.14 -0.046,-0.037 -0.099,-0.055 -0.159,-0.055 l -1.445,0 c -0.126,0 -0.204,0.061 -0.235,0.182 -0.056,0.217 -0.119,0.621 -0.189,1.211 -0.204,0.065 -0.402,0.148 -0.592,0.247 l -0.899,-0.703 c -0.061,-0.039 -0.117,-0.058 -0.169,-0.058 -0.095,0 -0.299,0.154 -0.612,0.462 -0.313,0.308 -0.527,0.543 -0.644,0.703 -0.039,0.043 -0.059,0.093 -0.059,0.15 0,0.056 0.022,0.111 0.065,0.163 0.312,0.382 0.545,0.681 0.697,0.898 -0.087,0.161 -0.171,0.358 -0.254,0.592 L 5.651,-7.785 C 5.599,-7.776 5.555,-7.748 5.521,-7.7 5.486,-7.652 5.469,-7.602 5.469,-7.55 l 0,1.445 c 0,0.056 0.017,0.107 0.052,0.153 M 9.29,-7.993 c 0.325,-0.326 0.718,-0.488 1.178,-0.488 0.46,0 0.853,0.163 1.178,0.488 0.325,0.325 0.488,0.718 0.488,1.178 0,0.46 -0.163,0.853 -0.488,1.178 -0.326,0.325 -0.718,0.488 -1.178,0.488 -0.46,0 -0.853,-0.163 -1.178,-0.488 -0.325,-0.326 -0.488,-0.718 -0.488,-1.178 0,-0.46 0.163,-0.853 0.488,-1.178"
       style="fill:#a02c2c" />
    <path
       inkscape:connector-curvature="0"
       id="path31"
       d="M 1.632,1.636 C 1.658,1.67 1.691,1.69 1.733,1.696 L 2.612,1.83 C 2.66,1.984 2.726,2.14 2.809,2.301 2.751,2.381 2.665,2.494 2.55,2.64 2.435,2.786 2.353,2.892 2.305,2.959 2.279,2.994 2.267,3.031 2.267,3.069 c 0,0.045 0.011,0.08 0.034,0.106 0.115,0.163 0.379,0.435 0.792,0.816 0.038,0.032 0.078,0.048 0.12,0.048 0.048,0 0.086,-0.014 0.115,-0.043 L 4.01,3.482 C 4.141,3.549 4.285,3.608 4.442,3.66 l 0.134,0.883 c 0.003,0.042 0.022,0.076 0.055,0.103 0.034,0.027 0.073,0.041 0.118,0.041 l 1.066,0 c 0.093,0 0.15,-0.045 0.173,-0.134 C 6.03,4.393 6.076,4.095 6.127,3.66 6.277,3.612 6.423,3.551 6.564,3.477 L 7.227,3.991 C 7.269,4.023 7.31,4.039 7.352,4.039 7.422,4.039 7.574,3.925 7.806,3.696 8.038,3.467 8.196,3.295 8.279,3.18 8.308,3.138 8.322,3.102 8.322,3.07 8.322,3.032 8.306,2.993 8.274,2.955 8.06,2.696 7.888,2.475 7.76,2.292 7.84,2.145 7.902,1.998 7.947,1.85 L 8.84,1.716 C 8.875,1.71 8.906,1.689 8.931,1.654 8.957,1.619 8.969,1.582 8.969,1.544 l 0,-1.066 C 8.969,0.436 8.956,0.399 8.931,0.365 8.905,0.331 8.872,0.311 8.83,0.305 L 7.951,0.175 C 7.906,0.018 7.841,-0.14 7.754,-0.3 7.812,-0.38 7.898,-0.493 8.013,-0.639 8.128,-0.785 8.21,-0.891 8.258,-0.958 8.284,-0.993 8.296,-1.03 8.296,-1.068 8.296,-1.11 8.285,-1.146 8.262,-1.178 8.137,-1.351 7.873,-1.62 7.47,-1.985 7.435,-2.02 7.395,-2.038 7.35,-2.038 c -0.048,0 -0.088,0.014 -0.12,0.043 L 6.553,-1.481 C 6.422,-1.548 6.278,-1.607 6.121,-1.659 L 5.987,-2.542 C 5.984,-2.584 5.965,-2.618 5.932,-2.645 5.898,-2.672 5.859,-2.686 5.814,-2.686 l -1.066,0 c -0.093,0 -0.151,0.045 -0.173,0.134 -0.042,0.16 -0.088,0.458 -0.139,0.893 -0.15,0.048 -0.296,0.109 -0.437,0.183 L 3.336,-1.995 C 3.291,-2.024 3.25,-2.038 3.211,-2.038 c -0.07,0 -0.221,0.114 -0.451,0.341 -0.231,0.227 -0.389,0.4 -0.475,0.519 -0.029,0.032 -0.043,0.069 -0.043,0.11 0,0.042 0.016,0.082 0.048,0.12 0.23,0.282 0.402,0.503 0.514,0.663 C 2.74,-0.167 2.678,-0.021 2.617,0.152 L 1.729,0.286 C 1.691,0.292 1.659,0.313 1.633,0.349 1.607,0.384 1.595,0.421 1.595,0.459 l 0,1.066 c 0,0.042 0.013,0.079 0.038,0.113 m 2.78,-1.505 c 0.24,-0.24 0.53,-0.36 0.869,-0.36 0.339,0 0.629,0.12 0.869,0.36 0.24,0.24 0.36,0.53 0.36,0.869 0,0.339 -0.12,0.629 -0.36,0.869 -0.24,0.24 -0.53,0.36 -0.869,0.36 -0.339,0 -0.629,-0.12 -0.869,-0.36 -0.24,-0.24 -0.36,-0.53 -0.36,-0.869 0,-0.339 0.12,-0.629 0.36,-0.869"
       style="fill:#a02c2c" />
  </g>
</svg>
