<?xml version="1.0" encoding="UTF-8" standalone="no"?>
<svg
   xmlns:dc="http://purl.org/dc/elements/1.1/"
   xmlns:cc="http://creativecommons.org/ns#"
   xmlns:rdf="http://www.w3.org/1999/02/22-rdf-syntax-ns#"
   xmlns:svg="http://www.w3.org/2000/svg"
   xmlns="http://www.w3.org/2000/svg"
   xmlns:sodipodi="http://sodipodi.sourceforge.net/DTD/sodipodi-0.dtd"
   xmlns:inkscape="http://www.inkscape.org/namespaces/inkscape"
   viewBox="0 0 48 48"
   id="svg2"
   version="1.1"
   inkscape:version="0.91 r13725"
   sodipodi:docname="haguichi.svg">
  <metadata
     id="metadata21">
    <rdf:RDF>
      <cc:Work
         rdf:about="">
        <dc:format>image/svg+xml</dc:format>
        <dc:type
           rdf:resource="http://purl.org/dc/dcmitype/StillImage" />
        <dc:title></dc:title>
      </cc:Work>
    </rdf:RDF>
  </metadata>
  <sodipodi:namedview
     pagecolor="#ffffff"
     bordercolor="#666666"
     borderopacity="1"
     objecttolerance="10"
     gridtolerance="10"
     guidetolerance="10"
     inkscape:pageopacity="0"
     inkscape:pageshadow="2"
     inkscape:window-width="1280"
     inkscape:window-height="694"
     id="namedview19"
     showgrid="false"
     inkscape:zoom="4.9166667"
     inkscape:cx="-9.1525424"
     inkscape:cy="24"
     inkscape:window-x="0"
     inkscape:window-y="0"
     inkscape:window-maximized="1"
     inkscape:current-layer="svg2" />
  <defs
     id="defs4">
    <linearGradient
       y2="518.14"
       x2="0"
       y1="545.14"
       gradientUnits="userSpaceOnUse"
       id="0"
       gradientTransform="matrix(1.71429,0,0,1.71429,-662.7,-887.65)">
      <stop
         stop-color="#197ff1"
         id="stop7" />
      <stop
         offset="1"
         stop-color="#21c6fb"
         id="stop9" />
    </linearGradient>
  </defs>
  <circle
     style="fill:#5ea5fb;fill-opacity:0"
     id="circle15"
     r="24.000059"
     cy="24.009401"
     cx="23.993158" />
  <path
     d="m 10.386444,0.2779661 c -5.4924609,0 -9.9453762,4.374319 -9.9453762,9.7698359 0,5.395516 4.4529153,9.769835 9.9453762,9.769835 5.492461,0 9.945377,-4.374319 9.945377,-9.769835 0,-5.3955169 -4.452916,-9.7698359 -9.945377,-9.7698359 M 37.546759,15.233659 c -5.492461,0 -9.945376,4.374319 -9.945376,9.769835 0,5.395517 4.452915,9.769835 9.945376,9.769835 5.492461,0 9.945377,-4.374318 9.945377,-9.769835 0,-5.395516 -4.452916,-9.769835 -9.945377,-9.769835 M 11.838324,28.376584 c -5.4924612,0 -9.9453764,4.374318 -9.9453764,9.769834 0,5.395518 4.4529152,9.769836 9.9453764,9.769836 5.492461,0 9.945376,-4.374318 9.945376,-9.769836 0,-5.395516 -4.452915,-9.769834 -9.945376,-9.769834"
     id="path17"
     style="fill:#37abc8"
     inkscape:connector-curvature="0" />
</svg>
