<?xml version="1.0" encoding="UTF-8" standalone="no"?>
<svg
   xmlns:dc="http://purl.org/dc/elements/1.1/"
   xmlns:cc="http://creativecommons.org/ns#"
   xmlns:rdf="http://www.w3.org/1999/02/22-rdf-syntax-ns#"
   xmlns:svg="http://www.w3.org/2000/svg"
   xmlns="http://www.w3.org/2000/svg"
   xmlns:sodipodi="http://sodipodi.sourceforge.net/DTD/sodipodi-0.dtd"
   xmlns:inkscape="http://www.inkscape.org/namespaces/inkscape"
   viewBox="0 0 48 48"
   id="svg2"
   version="1.1"
   inkscape:version="0.91 r13725"
   sodipodi:docname="higan.svg">
  <metadata
     id="metadata24">
    <rdf:RDF>
      <cc:Work
         rdf:about="">
        <dc:format>image/svg+xml</dc:format>
        <dc:type
           rdf:resource="http://purl.org/dc/dcmitype/StillImage" />
        <dc:title></dc:title>
      </cc:Work>
    </rdf:RDF>
  </metadata>
  <sodipodi:namedview
     pagecolor="#ffffff"
     bordercolor="#666666"
     borderopacity="1"
     objecttolerance="10"
     gridtolerance="10"
     guidetolerance="10"
     inkscape:pageopacity="0"
     inkscape:pageshadow="2"
     inkscape:window-width="1280"
     inkscape:window-height="694"
     id="namedview22"
     showgrid="false"
     inkscape:zoom="4.9166667"
     inkscape:cx="-6.4067797"
     inkscape:cy="24"
     inkscape:window-x="0"
     inkscape:window-y="0"
     inkscape:window-maximized="1"
     inkscape:current-layer="svg2" />
  <defs
     id="defs4">
    <clipPath
       id="1">
      <path
         transform="matrix(15.33333 0 0 11.5 415-125.5)"
         d="m-24 13c0 1.105-.672 2-1.5 2-.828 0-1.5-.895-1.5-2 0-1.105.672-2 1.5-2 .828 0 1.5.895 1.5 2"
         fill="#1890d0"
         id="path7" />
    </clipPath>
    <linearGradient
       id="0"
       gradientUnits="userSpaceOnUse"
       gradientTransform="matrix(.49433 0 0 .4778 86.64 13.1)"
       x1="-123.97"
       y1="73.5"
       x2="-125.19"
       y2="-33.29">
      <stop
         stop-color="#e02d2d"
         id="stop10" />
      <stop
         offset="1"
         stop-color="#f75151"
         id="stop12" />
    </linearGradient>
  </defs>
  <g
     transform="matrix(1.9767014,0,0,1.9681964,-23.424424,-23.143833)"
     id="g16"
     style="fill:#550000;fill-opacity:0.78200001">
    <g
       clip-path="url(#1)"
       id="g18"
       style="fill:#550000;fill-opacity:0.78200001">
      <path
         d="m 12,35.992 c 0,-0.012 0.207,-0.129 0.461,-0.27 2.355,-1.285 4.309,-3.03 5.547,-4.957 1.414,-2.199 2.188,-4.809 2.5,-8.398 0.09,-1.016 0.094,-4.707 0.004,-5.539 -0.141,-1.352 -0.336,-2.293 -0.68,-3.285 -0.215,-0.629 -0.25,-0.988 -0.102,-1.254 0.219,-0.406 0.504,-0.391 1.973,0.09 1.809,0.598 2.07,0.695 2.172,0.84 0.117,0.16 0.098,0.266 -0.215,1.434 -0.543,2.01 -0.801,4.164 -0.867,7.172 L 22.758,23.446 23,23.774 c 0.652,0.875 1.016,1.379 1.672,2.328 1.605,2.305 2.527,3.469 3.438,4.332 1.262,1.195 2.148,1.844 3.633,2.652 0.93,0.508 1.465,0.754 2.727,1.242 0.559,0.215 1.098,0.434 1.195,0.477 0.211,0.102 0.383,0.293 0.316,0.359 -0.305,0.332 -4.973,0.641 -6.203,0.406 -2.07,-0.391 -3.91,-2.164 -7.316,-7.05 l -0.691,-0.988 -0.133,0.637 c -0.293,1.375 -0.793,2.688 -1.395,3.656 -0.41,0.656 -1.414,1.754 -2.01,2.188 -1.297,0.953 -2.895,1.543 -5.03,1.855 -0.848,0.121 -1.215,0.16 -1.215,0.133 m 4.832,-13.41 c -0.91,-0.41 -1.934,-1.707 -2.691,-3.414 -0.367,-0.836 -0.461,-1.316 -0.316,-1.688 0.195,-0.5 0.934,-0.453 2.039,0.137 1.074,0.574 1.945,1.285 2.289,1.871 0.266,0.457 0.34,0.777 0.309,1.375 -0.047,0.867 -0.32,1.504 -0.75,1.73 -0.273,0.145 -0.535,0.141 -0.875,-0.012 m 7.531,-0.207 c 0.965,-1.156 2.094,-2.469 2.797,-3.25 0.969,-1.074 0.98,-1.098 1.234,-2.176 0.094,-0.387 0.207,-0.746 0.25,-0.801 0.129,-0.156 0.371,-0.121 0.652,0.082 0.383,0.281 2.297,1.93 2.563,2.203 0.164,0.18 0.234,0.293 0.234,0.395 0,0.168 -0.141,0.25 -0.793,0.465 -0.602,0.199 -1.098,0.438 -2.973,1.457 -2.184,1.184 -2.617,1.375 -4.01,1.777 -0.082,0.023 -0.078,-0.004 0.051,-0.152"
         id="path20"
         style="fill:#550000;fill-opacity:0.78200001"
         inkscape:connector-curvature="0" />
    </g>
  </g>
</svg>
