<?xml version="1.0" encoding="UTF-8" standalone="no"?>
<svg
   xmlns:dc="http://purl.org/dc/elements/1.1/"
   xmlns:cc="http://creativecommons.org/ns#"
   xmlns:rdf="http://www.w3.org/1999/02/22-rdf-syntax-ns#"
   xmlns:svg="http://www.w3.org/2000/svg"
   xmlns="http://www.w3.org/2000/svg"
   xmlns:sodipodi="http://sodipodi.sourceforge.net/DTD/sodipodi-0.dtd"
   xmlns:inkscape="http://www.inkscape.org/namespaces/inkscape"
   viewBox="0 0 48 48"
   id="svg2"
   version="1.1"
   inkscape:version="0.91 r13725"
   sodipodi:docname="ibus-setup.svg">
  <metadata
     id="metadata19">
    <rdf:RDF>
      <cc:Work
         rdf:about="">
        <dc:format>image/svg+xml</dc:format>
        <dc:type
           rdf:resource="http://purl.org/dc/dcmitype/StillImage" />
        <dc:title></dc:title>
      </cc:Work>
    </rdf:RDF>
  </metadata>
  <sodipodi:namedview
     pagecolor="#ffffff"
     bordercolor="#666666"
     borderopacity="1"
     objecttolerance="10"
     gridtolerance="10"
     guidetolerance="10"
     inkscape:pageopacity="0"
     inkscape:pageshadow="2"
     inkscape:window-width="1280"
     inkscape:window-height="694"
     id="namedview17"
     showgrid="false"
     inkscape:zoom="4.9166667"
     inkscape:cx="-6.4067797"
     inkscape:cy="24"
     inkscape:window-x="0"
     inkscape:window-y="0"
     inkscape:window-maximized="1"
     inkscape:current-layer="svg2" />
  <defs
     id="defs4">
    <linearGradient
       id="0"
       gradientUnits="userSpaceOnUse"
       gradientTransform="matrix(.49433 0 0 .4778 86.64 13.1)"
       x1="-123.97"
       y1="73.5"
       x2="-125.19"
       y2="-33.29">
      <stop
         stop-color="#e02d2d"
         id="stop7" />
      <stop
         offset="1"
         stop-color="#f75151"
         id="stop9" />
    </linearGradient>
  </defs>
  <g
     id="g13"
     style="fill:#ff2a2a;fill-opacity:0.847;stroke-width:1.31700003"
     transform="matrix(1.9915254,0,0,1.9830508,-23.694915,-23.593318)">
    <path
       transform="matrix(0.3,0,0,0.3,12.3,11.8)"
       d="m 63,48.667 -8,0 0,-16 8,0 c 8.836,0 16,-7.164 16,-16 0,-8.836 -7.164,-16 -16,-16 -8.837,0 -16,7.164 -16,16 l 0,8 -16,0 0,-8 c 0,-8.836 -7.164,-16 -16,-16 -8.836,0 -16,7.164 -16,16 0,8.836 7.164,16 16,16 l 8,0 0,16 -8,0 c -8.836,0 -16,7.164 -16,16 0,8.836 7.164,16 16,16 8.837,0 16,-7.164 16,-16 l 0,-8 16,0 0,7.98 c 0,0.008 0,0.014 0,0.02 0,8.836 7.164,16 16,16 8.836,0 16,-7.164 16,-16 0,-8.836 -7.163,-15.998 -15.999,-16 m 0,-40 c 4.418,0 8,3.582 8,8 0,4.418 -3.582,8 -8,8 l -8,0 0,-8 c 0,-4.418 3.582,-8 8,-8 m -56,8 c 0,-4.418 3.582,-8 8,-8 4.418,0 8,3.582 8,8 l 0,8 -8,0 c -4.418,0 -8,-3.583 -8,-8 m 8,56 c -4.418,0 -8,-3.582 -8,-8 0,-4.418 3.582,-8 8,-8 l 8,0 0,8 c 0,4.418 -3.582,8 -8,8 m 16,-24 0,-16 16,0 0,16 -16,0 m 32,24 c -4.418,0 -8,-3.582 -8,-8 l 0,-8 7.999,0 c 4.418,0 8,3.582 8,8 0,4.418 -3.581,8 -7.999,8"
       id="path15"
       style="fill:#ff2a2a;fill-opacity:0.847"
       inkscape:connector-curvature="0" />
  </g>
</svg>
