<?xml version="1.0" encoding="UTF-8" standalone="no"?>
<svg
   xmlns:dc="http://purl.org/dc/elements/1.1/"
   xmlns:cc="http://creativecommons.org/ns#"
   xmlns:rdf="http://www.w3.org/1999/02/22-rdf-syntax-ns#"
   xmlns:svg="http://www.w3.org/2000/svg"
   xmlns="http://www.w3.org/2000/svg"
   xmlns:xlink="http://www.w3.org/1999/xlink"
   xmlns:sodipodi="http://sodipodi.sourceforge.net/DTD/sodipodi-0.dtd"
   xmlns:inkscape="http://www.inkscape.org/namespaces/inkscape"
   viewBox="0 0 48 48"
   id="svg2"
   version="1.1"
   inkscape:version="0.91 r13725"
   sodipodi:docname="iceweasel.svg">
  <metadata
     id="metadata54">
    <rdf:RDF>
      <cc:Work
         rdf:about="">
        <dc:format>image/svg+xml</dc:format>
        <dc:type
           rdf:resource="http://purl.org/dc/dcmitype/StillImage" />
        <dc:title></dc:title>
      </cc:Work>
    </rdf:RDF>
  </metadata>
  <sodipodi:namedview
     pagecolor="#ffffff"
     bordercolor="#666666"
     borderopacity="1"
     objecttolerance="10"
     gridtolerance="10"
     guidetolerance="10"
     inkscape:pageopacity="0"
     inkscape:pageshadow="2"
     inkscape:window-width="1280"
     inkscape:window-height="694"
     id="namedview52"
     showgrid="false"
     inkscape:zoom="4.9166667"
     inkscape:cx="-9.1525424"
     inkscape:cy="24"
     inkscape:window-x="0"
     inkscape:window-y="0"
     inkscape:window-maximized="1"
     inkscape:current-layer="svg2" />
  <defs
     id="defs4">
    <linearGradient
       xlink:href="#5"
       id="6"
       x1="-226.75"
       x2="-170.39"
       gradientUnits="userSpaceOnUse" />
    <linearGradient
       id="5">
      <stop
         stop-color="#d9d9d9"
         id="stop8" />
      <stop
         offset="1"
         stop-color="#f4f2f2"
         id="stop10" />
    </linearGradient>
    <linearGradient
       id="7"
       x1="-263.84"
       y1="247.6"
       x2="-125.58"
       y2="226.04"
       gradientUnits="userSpaceOnUse"
       gradientTransform="matrix(1,0,0,1.0085,2.747,1.166)">
      <stop
         stop-color="#d9d9d9"
         id="stop13" />
      <stop
         offset="1"
         stop-color="#eae8e8"
         id="stop15" />
    </linearGradient>
    <linearGradient
       xlink:href="#5"
       id="4"
       x1="-335.91"
       y1="120.49"
       x2="-268.99"
       y2="82.48"
       gradientUnits="userSpaceOnUse" />
    <linearGradient
       id="3"
       gradientUnits="userSpaceOnUse"
       x1="253.92"
       y1="519.71"
       x2="263.68"
       y2="24.896"
       gradientTransform="matrix(0.09000258,0,0,0.08986572,0.0012695,1.8056064)">
      <stop
         stop-color="#d9d9d9"
         id="stop19" />
      <stop
         offset="1"
         stop-color="#f5f3f3"
         id="stop21" />
    </linearGradient>
    <linearGradient
       id="0"
       gradientUnits="userSpaceOnUse"
       y1="542.2"
       x2="0"
       y2="526.2">
      <stop
         stop-color="#d0d0d0"
         id="stop24" />
      <stop
         offset="1"
         stop-color="#f1eeee"
         id="stop26" />
    </linearGradient>
    <linearGradient
       id="2"
       gradientUnits="userSpaceOnUse"
       x1="395.93"
       y1="539.09"
       x2="396.05"
       y2="513.03"
       gradientTransform="matrix(1.6880229,0,0,1.6880229,-644.82442,-865.34622)">
      <stop
         stop-color="#7737c5"
         id="stop29" />
      <stop
         offset="1"
         stop-color="#9371ff"
         id="stop31" />
    </linearGradient>
    <linearGradient
       id="1"
       gradientUnits="userSpaceOnUse"
       y1="537.65"
       x2="0"
       y2="494.02">
      <stop
         stop-color="#178aff"
         id="stop34" />
      <stop
         offset="1"
         stop-color="#1bbded"
         id="stop36" />
    </linearGradient>
  </defs>
  <g
     id="g4192"
     style="fill:#b7bec8"
     transform="matrix(1,0,0,1.1194352,0,-4.6032616)">
    <path
       d="m 47.933944,17.444938 -0.556036,3.560929 c 0,0 -0.794633,-6.592549 -1.768641,-9.057566 -1.492873,-3.7770563 -2.157002,-3.7463222 -2.161862,-3.7407506 0.999929,2.5369096 0.818123,3.9001726 0.818123,3.9001726 0,0 -1.77152,-4.8208469 -6.454985,-6.3544054 -5.188558,-1.6981925 -7.995829,-1.2338563 -8.319838,-1.1460575 -0.04923,-3.595e-4 -0.09675,-4.493e-4 -0.141934,-4.493e-4 0.03816,0.00297 0.07551,0.00692 0.113673,0.00989 -0.0017,9.885e-4 -0.0042,0.00198 -0.0038,0.00252 0.02097,0.025612 5.733164,0.9966109 6.746233,2.3868336 0,0 -2.426289,0 -4.840968,0.6947518 -0.109174,0.031183 8.884154,1.1216141 10.722907,10.0946168 0,0 -0.985978,-2.053611 -2.205243,-2.40238 0.801833,2.435361 0.595997,7.057155 -0.167585,9.354122 -0.09828,0.295389 -0.198816,-1.276902 -1.702939,-1.95413 0.481964,3.447249 -0.0288,8.91468 -2.423859,10.419931 -0.186666,0.117274 1.501423,-5.397336 0.339399,-3.264822 -6.689891,10.241097 -14.597518,4.726038 -18.15262,2.298675 1.821922,0.395949 5.280811,-0.06165 6.811395,-1.198898 0.002,-0.0013 0.0036,-0.0025 0.0056,-0.004 1.662618,-1.135094 2.647156,-1.963926 3.531702,-1.767839 0.884725,0.197166 1.473702,-0.68936 0.786532,-1.475864 -0.68798,-0.788033 -2.358067,-1.871095 -4.618032,-1.280946 -1.593766,0.416797 -3.568963,2.177446 -6.583689,0.39469 -2.313966,-1.369015 -2.531773,-2.506265 -2.552383,-3.293938 0.05706,-0.279213 0.129064,-0.540093 0.214476,-0.778148 0.266318,-0.74274 1.074001,-0.966865 1.523204,-1.14381 0.762052,0.130664 1.41853,0.368 2.10795,0.720723 0.0089,-0.229068 0.01179,-0.533174 -8.1e-4,-0.878078 0.06606,-0.131114 0.0252,-0.526613 -0.08073,-1.010091 -0.06102,-0.482489 -0.160295,-0.981693 -0.316539,-1.436504 5.4e-4,-9e-6 9e-5,-4.49e-4 0.0014,-6.29e-4 0.0026,-8.9e-5 0.005,-0.0019 0.0074,-0.0033 0.0037,-0.0021 0.0068,-0.0053 0.0097,-0.0089 5.4e-4,-9e-5 0.0014,-0.0015 0.0021,-0.0024 0.0039,-0.0058 0.0072,-0.01276 0.0093,-0.02184 0.04779,-0.216127 0.563596,-0.632655 1.205584,-1.081085 0.575297,-0.40161 1.251666,-0.828292 1.784481,-1.158549 0.471614,-0.292423 0.830634,-0.509358 0.907226,-0.566243 0.02889,-0.02184 0.06363,-0.04736 0.101433,-0.07657 0.007,-0.0055 0.01404,-0.01087 0.02124,-0.01663 0.0044,-0.0034 0.0089,-0.0069 0.01341,-0.01051 0.253537,-0.201659 0.631818,-0.5826 0.711471,-1.384382 1.8e-4,-0.002 4.5e-4,-0.0038 5.4e-4,-0.0058 0.0023,-0.02355 0.0043,-0.04745 0.006,-0.0718 0.0014,-0.01689 0.0023,-0.03397 0.0034,-0.05131 6.3e-4,-0.0133 0.0015,-0.02651 0.0021,-0.03999 0.0014,-0.03163 0.0023,-0.06389 0.0028,-0.09661 0,-0.0019 9e-6,-0.0036 1.8e-4,-0.0055 0.0011,-0.07764 -2.7e-4,-0.158523 -0.0049,-0.243446 -0.0025,-0.04745 -0.0059,-0.08987 -0.01395,-0.129227 -3.6e-4,-0.0021 -9e-5,-0.0043 -0.0013,-0.0064 -8.1e-4,-0.0038 -0.0017,-0.0076 -0.0027,-0.01141 -0.0017,-0.0068 -0.0036,-0.01366 -0.0057,-0.02013 -2.7e-4,-8.08e-4 -5.4e-4,-0.0015 -8.1e-4,-0.0022 -0.0024,-0.0075 -0.0052,-0.01474 -0.0081,-0.02175 -1.8e-4,-2.69e-4 -1.8e-4,-4.49e-4 -2.7e-4,-7.19e-4 -0.08217,-0.192222 -0.389981,-0.264834 -1.661358,-0.286402 -0.0012,-9e-6 -0.0023,-9e-6 -0.0035,-9e-6 -0.518775,-0.0088 -1.197124,-0.0092 -2.08626,-0.0056 -1.558574,0.0063 -2.420079,-1.521337 -2.695037,-2.112384 0.376931,-2.0812905 1.466142,-3.5638053 3.255393,-4.5694027 0.03384,-0.019052 0.02718,-0.034778 -0.01278,-0.045742 0.34984,-0.2113641 -4.230121,-0.00575 -6.337082,2.669641 C 11.944252,9.2428844 10.314575,9.2741577 8.9098149,9.6032459 8.6400771,9.5956972 8.3040075,9.5620874 7.9050261,9.4791414 6.9708893,8.6340441 5.6333609,7.0732563 5.5622589,5.2105197 c 0,0 -0.00432,0.00341 -0.01179,0.00953 -9.901e-4,-0.017883 -0.0027,-0.035587 -0.00342,-0.05347 0,0 -2.8461516,2.1840965 -2.4201694,8.1382393 -0.00108,0.09535 -0.00306,0.186561 -0.00558,0.274989 -0.770242,1.043161 -1.152483,1.919981 -1.1808338,2.113552 -0.6823096,1.387527 -1.37487942,3.475557 -1.93847558,6.64548 0,0 0.3941213,-1.248055 1.18524398,-2.661643 -0.58177668,1.779611 -1.03898979,4.547475 -0.77051209,8.699002 0,0 0.071012,-0.920495 0.32220924,-2.246374 0.19629562,2.574833 1.05564025,5.753204 3.22785255,9.491618 4.1698195,7.175778 10.5789032,10.800062 17.6630062,11.355432 1.257967,0.103525 2.533573,0.105952 3.81701,0.0086 0.117993,-0.0083 0.235897,-0.01689 0.3538,-0.02687 1.451742,-0.101728 2.912574,-0.32064 4.370705,-0.672285 19.930172,-4.811411 17.76381,-28.841504 17.76381,-28.841504"
       id="path42"
       style="fill:#b7bec8"
       inkscape:connector-curvature="0" />
    <g
       transform="matrix(0.12911,0,0,0.12911,45.519,-3.648)"
       id="g44"
       style="fill:#b7bec8;fill-rule:evenodd">
      <path
         d="m -328.74,133.5 c 9.444,-17.436 18.319,-28.874 37.579,-32.29 -10.833,-10.328 -13.918,-16.07 -18.906,-33.725 -19.268,20.841 -19.14,42.494 -18.673,66.01"
         id="path46"
         style="fill:#b7bec8"
         inkscape:connector-curvature="0" />
      <path
         d="m -208.66,177.1 c 11.229,-14.766 46.34,-22.761 36.03,-43.12 -24.18,-6.162 -39.33,5.305 -48.945,-17.389 -8.297,31.981 2.876,47.39 12.917,60.51"
         id="path48"
         style="fill:#b7bec8"
         inkscape:connector-curvature="0" />
      <path
         d="m -228.84,197.98 c -47.28,4.698 -39.13,30.09 -35.778,55.49 l 12.11,-10.09 c 8.495,24.705 58.644,20.754 86.45,12.11 12.664,-3.938 23.918,-2.969 28.817,-0.962 13.796,2.961 12.874,-8.73 6.842,-12.208 -33.02,-37.592 -63.52,34.659 -104.22,-26.704 -2.488,-3.752 -0.037,-9.9 5.786,-17.635"
         id="path50"
         style="fill:#b7bec8"
         inkscape:connector-curvature="0" />
    </g>
  </g>
</svg>
