<?xml version="1.0" encoding="UTF-8" standalone="no"?>
<svg
   xmlns:dc="http://purl.org/dc/elements/1.1/"
   xmlns:cc="http://creativecommons.org/ns#"
   xmlns:rdf="http://www.w3.org/1999/02/22-rdf-syntax-ns#"
   xmlns:svg="http://www.w3.org/2000/svg"
   xmlns="http://www.w3.org/2000/svg"
   xmlns:sodipodi="http://sodipodi.sourceforge.net/DTD/sodipodi-0.dtd"
   xmlns:inkscape="http://www.inkscape.org/namespaces/inkscape"
   viewBox="0 0 48 48"
   id="svg2"
   version="1.1"
   inkscape:version="0.91 r13725"
   sodipodi:docname="indicator-sound-switcher.svg">
  <metadata
     id="metadata27">
    <rdf:RDF>
      <cc:Work
         rdf:about="">
        <dc:format>image/svg+xml</dc:format>
        <dc:type
           rdf:resource="http://purl.org/dc/dcmitype/StillImage" />
        <dc:title></dc:title>
      </cc:Work>
    </rdf:RDF>
  </metadata>
  <sodipodi:namedview
     pagecolor="#ffffff"
     bordercolor="#666666"
     borderopacity="1"
     objecttolerance="10"
     gridtolerance="10"
     guidetolerance="10"
     inkscape:pageopacity="0"
     inkscape:pageshadow="2"
     inkscape:window-width="1280"
     inkscape:window-height="694"
     id="namedview25"
     showgrid="false"
     inkscape:zoom="4.9166667"
     inkscape:cx="-9.1525424"
     inkscape:cy="24"
     inkscape:window-x="0"
     inkscape:window-y="0"
     inkscape:window-maximized="1"
     inkscape:current-layer="svg2" />
  <defs
     id="defs4">
    <linearGradient
       id="0"
       x1="61.57"
       y1="22.939"
       x2="60.753"
       y2="-27.706"
       gradientUnits="userSpaceOnUse"
       gradientTransform="matrix(0.99999,0,0,0.99999,-38.378,25.875)">
      <stop
         stop-color="#197cf1"
         id="stop7" />
      <stop
         offset="1"
         stop-color="#21c9fb"
         id="stop9" />
    </linearGradient>
  </defs>
  <g
     style="fill:#00aad4"
     id="g15"
     transform="matrix(2.3734746,0,0,2.8599864,35.869306,3.9780824)">
    <path
       inkscape:connector-curvature="0"
       id="path17"
       d="m 1.36,14.537 c -0.226,0 -0.452,-0.086 -0.623,-0.259 -0.345,-0.345 -0.345,-0.903 0,-1.248 C 2.347,11.42 3.234,9.278 3.234,7 3.234,4.721 2.347,2.581 0.737,0.97 c -0.345,-0.345 -0.345,-0.903 0,-1.248 0.345,-0.345 0.903,-0.345 1.248,0 1.944,1.944 3.01,4.529 3.01,7.278 0,2.749 -1.07,5.333 -3.01,7.278 -0.172,0.172 -0.398,0.259 -0.623,0.259"
       style="fill:#00aad4" />
    <path
       inkscape:connector-curvature="0"
       id="path19"
       d="m -1.773,12.874 c -0.226,0 -0.452,-0.086 -0.623,-0.259 -0.345,-0.345 -0.345,-0.903 0,-1.248 2.408,-2.408 2.408,-6.326 0,-8.734 -0.345,-0.345 -0.345,-0.903 0,-1.248 0.345,-0.345 0.903,-0.345 1.248,0 1.5,1.5 2.326,3.494 2.326,5.615 0,2.121 -0.826,4.115 -2.326,5.615 -0.172,0.172 -0.398,0.259 -0.623,0.259 z"
       style="fill:#00aad4" />
    <path
       inkscape:connector-curvature="0"
       id="path21"
       d="m -4.908,11.209 c -0.226,0 -0.452,-0.086 -0.623,-0.259 -0.345,-0.345 -0.345,-0.903 0,-1.248 1.49,-1.49 1.49,-3.916 0,-5.406 -0.345,-0.345 -0.345,-0.903 0,-1.248 0.345,-0.345 0.903,-0.345 1.248,0 2.179,2.179 2.179,5.723 0,7.903 -0.172,0.172 -0.398,0.259 -0.623,0.259 z"
       style="fill:#00aad4" />
    <path
       inkscape:connector-curvature="0"
       id="path23"
       d="m -7.353,15.235 c -0.153,0 -0.303,-0.06 -0.416,-0.172 l -4.534,-4.534 -2.109,0 C -14.737,10.529 -15,10.266 -15,9.941 l 0,-5.882 c 0,-0.325 0.263,-0.588 0.588,-0.588 l 2.109,0 4.534,-4.534 c 0.168,-0.168 0.421,-0.219 0.641,-0.127 0.22,0.092 0.363,0.306 0.363,0.543 l 0,15.292 c 0,0.238 -0.144,0.453 -0.363,0.543 -0.073,0.031 -0.149,0.045 -0.225,0.045"
       style="fill:#00aad4" />
  </g>
</svg>
