<?xml version="1.0" encoding="UTF-8" standalone="no"?>
<svg
   xmlns:dc="http://purl.org/dc/elements/1.1/"
   xmlns:cc="http://creativecommons.org/ns#"
   xmlns:rdf="http://www.w3.org/1999/02/22-rdf-syntax-ns#"
   xmlns:svg="http://www.w3.org/2000/svg"
   xmlns="http://www.w3.org/2000/svg"
   xmlns:sodipodi="http://sodipodi.sourceforge.net/DTD/sodipodi-0.dtd"
   xmlns:inkscape="http://www.inkscape.org/namespaces/inkscape"
   viewBox="0 0 48 48"
   id="svg2"
   version="1.1"
   inkscape:version="0.91 r13725"
   sodipodi:docname="irc_protocol.svg">
  <metadata
     id="metadata24">
    <rdf:RDF>
      <cc:Work
         rdf:about="">
        <dc:format>image/svg+xml</dc:format>
        <dc:type
           rdf:resource="http://purl.org/dc/dcmitype/StillImage" />
        <dc:title></dc:title>
      </cc:Work>
    </rdf:RDF>
  </metadata>
  <sodipodi:namedview
     pagecolor="#ffffff"
     bordercolor="#666666"
     borderopacity="1"
     objecttolerance="10"
     gridtolerance="10"
     guidetolerance="10"
     inkscape:pageopacity="0"
     inkscape:pageshadow="2"
     inkscape:window-width="1280"
     inkscape:window-height="694"
     id="namedview22"
     showgrid="false"
     inkscape:zoom="4.9166667"
     inkscape:cx="-9.1525424"
     inkscape:cy="24"
     inkscape:window-x="0"
     inkscape:window-y="0"
     inkscape:window-maximized="1"
     inkscape:current-layer="svg2" />
  <defs
     id="defs4">
    <linearGradient
       id="0"
       y1="546.8"
       x2="0"
       y2="507.87"
       gradientUnits="userSpaceOnUse"
       gradientTransform="matrix(-0.55334921,0,0,0.66187836,242.23318,-313.41041)">
      <stop
         stop-color="#d3d3d3"
         id="stop7" />
      <stop
         offset="1"
         stop-color="#fcf9f9"
         id="stop9" />
    </linearGradient>
    <linearGradient
       id="1"
       x1="34.17"
       y1="46.44"
       x2="34.15"
       y2="22.749"
       gradientUnits="userSpaceOnUse"
       gradientTransform="matrix(1.71427,0,0,1.8831717,-34.21,-42.346678)">
      <stop
         stop-color="#1074f5"
         id="stop12" />
      <stop
         offset="1"
         stop-color="#02befd"
         id="stop14" />
    </linearGradient>
  </defs>
  <path
     inkscape:connector-curvature="0"
     style="fill:#2c89a0"
     id="path18"
     d="M 40.92474,6.5724733 C 36.399067,2.5255373 30.390551,0.29774515 24.004895,0.29774515 17.619239,0.29774515 11.609009,2.5255373 7.08505,6.5724733 2.519949,10.653306 0.00511493,16.093789 0.00511493,21.888309 c 0,5.530875 2.29197897,10.737845 6.46965497,14.749 -0.075428,0.186434 -0.1354273,0.382284 -0.1731413,0.58755 l -1.3731302,7.417813 c -0.1628557,0.881325 0.056571,1.40673 0.2691404,1.692972 0.2451406,0.329555 0.6102801,0.512222 1.0251334,0.512222 0.3137114,0 0.6514226,-0.101691 1.002848,-0.30319 L 15.21069,41.9874 c 2.765117,0.977366 5.735947,1.489589 8.794205,1.489589 6.385656,0 12.394172,-2.227792 16.921559,-6.274728 4.565101,-4.080833 7.079935,-9.519433 7.079935,-15.315835 0,-5.796403 -2.514834,-11.235003 -7.078221,-15.3158359" />
  <path
     inkscape:connector-curvature="0"
     style="fill:#d7eef4"
     id="path20"
     d="m 27.21058,25.993623 c 2.262836,-2.203311 5.267952,-3.416073 8.459922,-3.416073 3.193685,0 6.197086,1.212762 8.459923,3.416073 2.281693,2.222143 3.539967,5.182489 3.539967,8.338684 0,3.011192 -1.145132,5.845365 -3.234827,8.029844 0.03771,0.101692 0.06686,0.207149 0.08743,0.32014 l 0.685708,4.03752 c 0.08228,0.480209 -0.02743,0.766451 -0.133714,0.920871 -0.123427,0.178901 -0.30514,0.278709 -0.512566,0.278709 -0.157713,0 -0.325712,-0.05461 -0.500567,-0.163836 l -3.992535,-2.480137 c -1.381702,0.532938 -2.867974,0.811647 -4.397102,0.811647 -3.193685,0 -6.197087,-1.212763 -8.459923,-3.416073 -2.281693,-2.222143 -3.539967,-5.182489 -3.539967,-8.338685 0,-3.154312 1.256559,-6.116541 3.539967,-8.338684" />
</svg>
