<?xml version="1.0" encoding="UTF-8" standalone="no"?>
<svg
   xmlns:dc="http://purl.org/dc/elements/1.1/"
   xmlns:cc="http://creativecommons.org/ns#"
   xmlns:rdf="http://www.w3.org/1999/02/22-rdf-syntax-ns#"
   xmlns:svg="http://www.w3.org/2000/svg"
   xmlns="http://www.w3.org/2000/svg"
   xmlns:xlink="http://www.w3.org/1999/xlink"
   xmlns:sodipodi="http://sodipodi.sourceforge.net/DTD/sodipodi-0.dtd"
   xmlns:inkscape="http://www.inkscape.org/namespaces/inkscape"
   viewBox="0 0 48 48"
   id="svg2"
   version="1.1"
   inkscape:version="0.91 r13725"
   sodipodi:docname="kaffeine.svg">
  <metadata
     id="metadata45">
    <rdf:RDF>
      <cc:Work
         rdf:about="">
        <dc:format>image/svg+xml</dc:format>
        <dc:type
           rdf:resource="http://purl.org/dc/dcmitype/StillImage" />
        <dc:title></dc:title>
      </cc:Work>
    </rdf:RDF>
  </metadata>
  <sodipodi:namedview
     pagecolor="#ffffff"
     bordercolor="#666666"
     borderopacity="1"
     objecttolerance="10"
     gridtolerance="10"
     guidetolerance="10"
     inkscape:pageopacity="0"
     inkscape:pageshadow="2"
     inkscape:window-width="1280"
     inkscape:window-height="694"
     id="namedview43"
     showgrid="false"
     inkscape:zoom="4.9166667"
     inkscape:cx="-14.675819"
     inkscape:cy="24"
     inkscape:window-x="0"
     inkscape:window-y="0"
     inkscape:window-maximized="1"
     inkscape:current-layer="svg2" />
  <defs
     id="defs4">
    <linearGradient
       xlink:href="#0"
       id="4"
       x1="44.16"
       y1="490.59"
       x2="44.26"
       y2="461.93"
       gradientUnits="userSpaceOnUse" />
    <linearGradient
       y1="545.8"
       x2="0"
       y2="517.8"
       gradientUnits="userSpaceOnUse"
       id="linearGradient7">
      <stop
         stop-color="#3889e9"
         id="stop9" />
      <stop
         offset="1"
         stop-color="#5ea5fb"
         id="stop11" />
    </linearGradient>
    <linearGradient
       xlink:href="#0"
       id="3"
       x1="96.68"
       y1="490.36"
       x2="96.33"
       y2="462.83"
       gradientUnits="userSpaceOnUse" />
    <linearGradient
       id="1"
       x1="68.769"
       y1="571.75"
       x2="66.53"
       y2="491.06"
       gradientUnits="userSpaceOnUse"
       gradientTransform="matrix(0.39868,0,0,0.39868,-4.74,-182.14)">
      <stop
         stop-color="#ff803f"
         id="stop15" />
      <stop
         offset="1"
         stop-color="#ffc200"
         id="stop17" />
    </linearGradient>
    <linearGradient
       id="0">
      <stop
         stop-color="#2e3436"
         id="stop20" />
      <stop
         offset="1"
         stop-color="#555753"
         id="stop22" />
    </linearGradient>
    <linearGradient
       xlink:href="#0"
       id="2"
       x1="72.85"
       y1="491.15"
       x2="72.29"
       y2="462.68"
       gradientUnits="userSpaceOnUse"
       gradientTransform="matrix(0.39951723,0,0,0.39868,-4.5964122,-183.96971)" />
  </defs>
  <path
     d="m 45.02542,0.47457607 -10.411011,0 -20.822038,0 -10.4110131,0 c -1.6427126,0 -2.9745779,1.29312763 -2.9745779,2.93115723 l 0,41.5254237 c 0,1.63803 1.3318653,3.001047 2.9745779,3.001047 l 10.4110131,0 20.822038,0 10.411011,0 C 46.668134,47.932204 48,46.569187 48,44.931157 L 48,3.4057333 C 48,1.7677037 46.668134,0.47457607 45.02542,0.47457607 Z M 10.817798,42 l -4.4618673,0 0,-4.449152 4.4618673,0 0,4.449152 z m 0,-10.381356 -4.4618673,0 0,-4.449152 4.4618673,0 0,4.449152 z m 0,-10.381356 -4.4618673,0 0,-4.449152 4.4618673,0 0,4.449152 z m 0,-10.381355 -4.4618673,0 0,-4.4491529 4.4618673,0 0,4.4491529 z m 10.411013,19.244716 0,-10.381357 8.923729,5.190679 -8.923729,5.190678 z M 42.050849,42 l -4.461869,0 0,-4.449152 4.461869,0 0,4.449152 z m 0,-10.381356 -4.461869,0 0,-4.449152 4.461869,0 0,4.449152 z m 0,-10.381356 -4.461869,0 0,-4.449152 4.461869,0 0,4.449152 z m 0,-10.381355 -4.461869,0 0,-4.4491529 4.461869,0 0,4.4491529 z"
     id="path3"
     inkscape:connector-curvature="0"
     style="fill:#ff6600" />
  <path
     style="fill:#ff9955;fill-opacity:1;enable-background:new"
     inkscape:connector-curvature="0"
     id="path41"
     d="m 25.331866,44.034217 c -2.246943,-3.892985 -0.717644,-9.998643 3.930245,-14.567134 5.27827,-5.185473 12.577422,-6.422259 16.303427,-2.761262 0.0044,0.0049 0.008,0.01025 0.014,0.01509 -0.745774,2.131587 -3.120743,6.668347 -10.240055,9.120765 -6.521227,2.247792 -9.037285,5.821495 -10.008256,8.192824 m 21.28172,-15.995714 c -0.564858,1.294677 -1.547957,2.986901 -3.241596,4.650779 -1.702609,1.673611 -4.122145,3.317605 -7.550328,4.498685 -6.956836,2.396925 -8.900216,6.320723 -9.442754,8.222439 0.02563,0.02539 0.04766,0.05169 0.07248,0.07636 3.726078,3.660857 11.025158,2.424635 16.303428,-2.761968 4.696259,-4.614325 6.206898,-10.799662 3.859127,-14.686301 z" />
</svg>
