<?xml version="1.0" encoding="UTF-8" standalone="no"?>
<svg
   xmlns:dc="http://purl.org/dc/elements/1.1/"
   xmlns:cc="http://creativecommons.org/ns#"
   xmlns:rdf="http://www.w3.org/1999/02/22-rdf-syntax-ns#"
   xmlns:svg="http://www.w3.org/2000/svg"
   xmlns="http://www.w3.org/2000/svg"
   xmlns:sodipodi="http://sodipodi.sourceforge.net/DTD/sodipodi-0.dtd"
   xmlns:inkscape="http://www.inkscape.org/namespaces/inkscape"
   viewBox="0 0 48 48"
   id="svg2"
   version="1.1"
   inkscape:version="0.91 r13725"
   sodipodi:docname="kcm-systemd.svg">
  <metadata
     id="metadata17">
    <rdf:RDF>
      <cc:Work
         rdf:about="">
        <dc:format>image/svg+xml</dc:format>
        <dc:type
           rdf:resource="http://purl.org/dc/dcmitype/StillImage" />
        <dc:title></dc:title>
      </cc:Work>
    </rdf:RDF>
  </metadata>
  <sodipodi:namedview
     pagecolor="#ffffff"
     bordercolor="#666666"
     borderopacity="1"
     objecttolerance="10"
     gridtolerance="10"
     guidetolerance="10"
     inkscape:pageopacity="0"
     inkscape:pageshadow="2"
     inkscape:window-width="1280"
     inkscape:window-height="694"
     id="namedview15"
     showgrid="false"
     inkscape:zoom="4.9166667"
     inkscape:cx="-9.1525424"
     inkscape:cy="24"
     inkscape:window-x="0"
     inkscape:window-y="0"
     inkscape:window-maximized="1"
     inkscape:current-layer="svg2" />
  <defs
     id="defs4">
    <linearGradient
       id="0"
       gradientUnits="userSpaceOnUse"
       y1="211.23"
       x2="0"
       y2="157.23">
      <stop
         stop-color="#197ff1"
         id="stop7" />
      <stop
         stop-color="#21c6fb"
         offset="1"
         id="stop9" />
    </linearGradient>
  </defs>
  <path
     d="m 46.969597,6.9947991 -4.1455,-5.398599 c -0.568088,-0.73980805 -1.259004,-1.11114026 -2.07275,-1.11114026 -0.813748,0 -1.504664,0.37133221 -2.072751,1.11114026 L 18.683682,27.675147 9.7236974,15.966756 c -0.5680871,-0.739808 -1.2590047,-1.11114 -2.0727511,-1.11114 -0.8137463,0 -1.504664,0.371332 -2.0727512,1.11114 l -4.1455005,5.398599 c -0.56808702,0.739808 -0.85322713,1.639575 -0.85322713,2.699301 0,1.056868 0.28514011,1.959491 0.85322713,2.699298 l 11.0327354,14.367701 4.145502,5.398599 c 0.568087,0.739808 1.259004,1.11114 2.07275,1.11114 0.811553,0 1.50247,-0.371332 2.072751,-1.11114 l 4.1455,-5.398599 22.065471,-28.7354 c 0.568088,-0.739808 0.853227,-1.639575 0.853227,-2.6993 0,-1.0568686 -0.285139,-1.956635 -0.853227,-2.6992994"
     id="path13"
     style="fill:#0066ff;fill-opacity:0.85100002"
     inkscape:connector-curvature="0" />
</svg>
