<?xml version="1.0" encoding="UTF-8" standalone="no"?>
<svg
   xmlns:dc="http://purl.org/dc/elements/1.1/"
   xmlns:cc="http://creativecommons.org/ns#"
   xmlns:rdf="http://www.w3.org/1999/02/22-rdf-syntax-ns#"
   xmlns:svg="http://www.w3.org/2000/svg"
   xmlns="http://www.w3.org/2000/svg"
   xmlns:sodipodi="http://sodipodi.sourceforge.net/DTD/sodipodi-0.dtd"
   xmlns:inkscape="http://www.inkscape.org/namespaces/inkscape"
   viewBox="0 0 48 48"
   id="svg2"
   version="1.1"
   inkscape:version="0.91 r13725"
   sodipodi:docname="kde-windows.svg">
  <metadata
     id="metadata28">
    <rdf:RDF>
      <cc:Work
         rdf:about="">
        <dc:format>image/svg+xml</dc:format>
        <dc:type
           rdf:resource="http://purl.org/dc/dcmitype/StillImage" />
        <dc:title></dc:title>
      </cc:Work>
    </rdf:RDF>
  </metadata>
  <sodipodi:namedview
     pagecolor="#ffffff"
     bordercolor="#666666"
     borderopacity="1"
     objecttolerance="10"
     gridtolerance="10"
     guidetolerance="10"
     inkscape:pageopacity="0"
     inkscape:pageshadow="2"
     inkscape:window-width="1280"
     inkscape:window-height="694"
     id="namedview26"
     showgrid="false"
     inkscape:zoom="4.9166667"
     inkscape:cx="-1.0036046"
     inkscape:cy="24"
     inkscape:window-x="0"
     inkscape:window-y="0"
     inkscape:window-maximized="1"
     inkscape:current-layer="svg2" />
  <defs
     id="defs4">
    <linearGradient
       id="0"
       y1="65.44"
       x2="0"
       y2="42.17"
       gradientUnits="userSpaceOnUse"
       gradientTransform="matrix(0.99999,0,0,0.99999,-13.371,-19.12)">
      <stop
         stop-color="#2e3436"
         id="stop7" />
      <stop
         offset="1"
         stop-color="#555753"
         id="stop9" />
    </linearGradient>
    <linearGradient
       gradientUnits="userSpaceOnUse"
       y2="19.757"
       x2="37.1"
       y1="65.53"
       x1="37.666"
       id="1"
       gradientTransform="matrix(0.99999,0,0,0.99999,-13.371,-19.12)">
      <stop
         stop-color="#cdced2"
         id="stop12" />
      <stop
         offset="1"
         stop-color="#f1f1f1"
         id="stop14" />
    </linearGradient>
  </defs>
  <path
     style="fill:#4d4d4d"
     inkscape:connector-curvature="0"
     id="path20"
     d="M 0.37141184,22.497088 0.36962056,7.1037219 19.339175,4.531369 l 0,17.964089 -18.95343302,0 M 22.500769,4.0716713 47.793508,0.39734652 l 0,22.09811148 -25.292739,0 0,-18.4237867 m 25.292739,21.5813577 -0.0054,22.098112 -25.292739,-3.552064 0,-18.546048 25.292739,0 M 19.33201,43.796433 0.37678571,41.202888 l 0,-15.549859 18.95522429,0 0,18.143404" />
  <path
     style="fill:#e6e6e6;fill-opacity:1"
     inkscape:connector-curvature="0"
     id="path24"
     d="m 37.739724,24.151298 -4.159546,0.376403 0,16.107455 4.115744,-0.585191 0,-6.866437 5.537718,7.619245 4.337881,-1.295361 -5.670686,-7.326648 5.714486,-6.909076 -4.427045,-0.952772 -5.492354,6.909076 0.0438,-7.076694 m -9.432895,3.925778 c -0.04693,0.0044 -0.09856,0.01617 -0.132968,0.04999 l -1.634722,1.536493 c -0.06883,0.06469 -0.07665,0.163207 -0.02659,0.242605 l 1.911607,2.970064 c -0.339459,0.53667 -0.61478,1.111569 -0.808757,1.720285 l -3.51035,0.685172 c -0.09699,0.01911 -0.168948,0.105866 -0.168948,0.199966 l 0,2.171675 c 0,0.09116 0.07353,0.170559 0.168948,0.192614 l 3.403976,0.776333 c 0.181462,0.705758 0.463041,1.38211 0.835349,1.996707 l -1.972616,2.823034 c -0.05476,0.0794 -0.0438,0.18379 0.02659,0.249956 l 1.634722,1.536492 c 0.06883,0.06469 0.175204,0.07205 0.258113,0.025 l 3.092677,-1.762925 c 0.606958,0.329354 1.263974,0.592543 1.955409,0.768982 l 0.719589,3.25825 c 0.02033,0.09263 0.104815,0.158795 0.204928,0.158795 l 2.310511,0 c 0.09698,0 0.181462,-0.06175 0.204928,-0.149973 l 0.852557,-3.274423 c 0.713334,-0.180851 1.385993,-0.449921 2.008595,-0.793978 l 3.048875,1.879081 c 0.08447,0.05146 0.195539,0.04117 0.265935,-0.025 l 1.626901,-1.536496 c 0.06883,-0.06469 0.08604,-0.164677 0.03598,-0.242603 l -1.110671,-1.720284 -0.364489,0.108805 c -0.05319,0.0015 -0.111073,-0.0073 -0.142355,-0.04999 0,0 -0.702384,-0.970417 -1.617516,-2.230489 -1.095029,2.014352 -3.328887,3.392049 -5.902206,3.392049 -3.655833,0 -6.621797,-2.787744 -6.621797,-6.223901 0,-2.527497 1.608129,-4.699172 3.910818,-5.672531 l 0,-1.604128 c -0.419239,0.138211 -0.824401,0.304357 -1.209224,0.501382 0,0 0,-0.0073 0,-0.0088 l -3.11927,-1.921726 c -0.04224,-0.02647 -0.08604,-0.02941 -0.13297,-0.025" />
</svg>
