<?xml version="1.0" encoding="UTF-8" standalone="no"?>
<svg
   xmlns:dc="http://purl.org/dc/elements/1.1/"
   xmlns:cc="http://creativecommons.org/ns#"
   xmlns:rdf="http://www.w3.org/1999/02/22-rdf-syntax-ns#"
   xmlns:svg="http://www.w3.org/2000/svg"
   xmlns="http://www.w3.org/2000/svg"
   xmlns:sodipodi="http://sodipodi.sourceforge.net/DTD/sodipodi-0.dtd"
   xmlns:inkscape="http://www.inkscape.org/namespaces/inkscape"
   viewBox="0 0 48 48"
   id="svg2"
   version="1.1"
   inkscape:version="0.91 r13725"
   sodipodi:docname="knetattach.svg">
  <metadata
     id="metadata19">
    <rdf:RDF>
      <cc:Work
         rdf:about="">
        <dc:format>image/svg+xml</dc:format>
        <dc:type
           rdf:resource="http://purl.org/dc/dcmitype/StillImage" />
        <dc:title></dc:title>
      </cc:Work>
    </rdf:RDF>
  </metadata>
  <sodipodi:namedview
     pagecolor="#ffffff"
     bordercolor="#666666"
     borderopacity="1"
     objecttolerance="10"
     gridtolerance="10"
     guidetolerance="10"
     inkscape:pageopacity="0"
     inkscape:pageshadow="2"
     inkscape:window-width="1280"
     inkscape:window-height="694"
     id="namedview17"
     showgrid="false"
     inkscape:zoom="4.9166667"
     inkscape:cx="-9.1525424"
     inkscape:cy="24"
     inkscape:window-x="0"
     inkscape:window-y="0"
     inkscape:window-maximized="1"
     inkscape:current-layer="svg2" />
  <defs
     id="defs4">
    <linearGradient
       id="0"
       y1="62.12"
       x2="0"
       y2="14.12"
       gradientUnits="userSpaceOnUse"
       gradientTransform="matrix(0.99999,0,0,0.99999,-48.37,-14.12)">
      <stop
         stop-color="#1365f4"
         id="stop7" />
      <stop
         offset="1"
         stop-color="#05b2fc"
         id="stop9" />
    </linearGradient>
  </defs>
  <path
     style="fill:#162d50;fill-opacity:1"
     inkscape:connector-curvature="0"
     id="path15"
     d="m 38.842245,30.462433 c -2.750709,0 -5.176473,1.310945 -6.761532,3.318917 L 17.380661,26.257594 c 0.192701,-0.717808 0.330614,-1.460172 0.330614,-2.242202 0,-0.850037 -0.164364,-1.650959 -0.392959,-2.429214 l 14.63582,-7.489752 c 1.575611,2.098642 4.065608,3.470032 6.889999,3.470032 4.787293,0 8.660201,-3.87616 8.660201,-8.6609126 0,-4.7828647 -3.872908,-8.65902574 -8.660201,-8.65902574 -4.775959,0 -8.652646,3.87804994 -8.652646,8.65902574 0,0.7839195 0.137915,1.5281726 0.332503,2.2478706 L 15.827719,18.67717 c -1.58695,-2.009862 -4.016491,-3.326472 -6.7709782,-3.326472 -4.7816264,0 -8.65264613,3.87994 -8.65264613,8.664694 0,4.784751 3.87101973,8.660911 8.65264613,8.660911 2.8300562,0 5.3162762,-1.377057 6.8994442,-3.477587 l 14.628263,7.489752 c -0.228596,0.776366 -0.394848,1.584844 -0.394848,2.436769 0,4.784753 3.876686,8.660913 8.652645,8.660913 4.787294,0 8.658313,-3.87805 8.658313,-8.660913 0,-4.788532 -3.872909,-8.664692 -8.658313,-8.664692" />
</svg>
