<?xml version="1.0" encoding="UTF-8" standalone="no"?>
<svg
   xmlns:dc="http://purl.org/dc/elements/1.1/"
   xmlns:cc="http://creativecommons.org/ns#"
   xmlns:rdf="http://www.w3.org/1999/02/22-rdf-syntax-ns#"
   xmlns:svg="http://www.w3.org/2000/svg"
   xmlns="http://www.w3.org/2000/svg"
   xmlns:sodipodi="http://sodipodi.sourceforge.net/DTD/sodipodi-0.dtd"
   xmlns:inkscape="http://www.inkscape.org/namespaces/inkscape"
   viewBox="0 0 48 48"
   id="svg2"
   version="1.1"
   inkscape:version="0.91 r13725"
   sodipodi:docname="knewsticker.svg">
  <metadata
     id="metadata29">
    <rdf:RDF>
      <cc:Work
         rdf:about="">
        <dc:format>image/svg+xml</dc:format>
        <dc:type
           rdf:resource="http://purl.org/dc/dcmitype/StillImage" />
        <dc:title></dc:title>
      </cc:Work>
    </rdf:RDF>
  </metadata>
  <sodipodi:namedview
     pagecolor="#ffffff"
     bordercolor="#666666"
     borderopacity="1"
     objecttolerance="10"
     gridtolerance="10"
     guidetolerance="10"
     inkscape:pageopacity="0"
     inkscape:pageshadow="2"
     inkscape:window-width="1280"
     inkscape:window-height="694"
     id="namedview27"
     showgrid="false"
     inkscape:zoom="4.9166667"
     inkscape:cx="-39.559322"
     inkscape:cy="24"
     inkscape:window-x="0"
     inkscape:window-y="0"
     inkscape:window-maximized="1"
     inkscape:current-layer="svg2" />
  <defs
     id="defs4">
    <linearGradient
       id="0"
       x1="-11.312"
       y1="27.344"
       x2="-11.896"
       y2="-20.22"
       gradientUnits="userSpaceOnUse"
       gradientTransform="matrix(0.99999,0,0,0.99999,36.629,20.882)">
      <stop
         stop-color="#8798a9"
         id="stop7" />
      <stop
         offset="1"
         stop-color="#aeb6be"
         id="stop9" />
    </linearGradient>
  </defs>
  <path
     style="fill:#666666"
     inkscape:connector-curvature="0"
     id="path25"
     d="M 19.944472,0.48390942 C 17.986402,0.77766696 16.328098,4.2620938 16.328098,9.17467 l 0,23.375366 c 0,0.846888 -0.296812,1.571899 -0.728,1.571899 l -3.449509,0 C 4.6830532,34.140685 5.3460787,13.943496 11.703157,13.918495 l 3.814247,0 0,-5.8719664 -3.953054,0 c -2.532495,0 -4.4093463,2.0000294 -5.6763312,4.9813274 -1.2669865,2.98442 -1.9034324,7.000108 -1.9063857,11.003295 -0.00295,4.003191 0.6246322,7.997003 1.9211525,10.978298 1.2965188,2.978173 3.2575412,4.981328 5.9362254,4.981328 l 6.506222,0 c 0.429711,0 0.784114,-0.784387 0.784114,-1.690649 l 0,-28.5066984 c -0.0029,-1.465647 0.388365,-2.6062918 0.897818,-2.9406723 0.509451,-0.3312554 1.107504,0.087503 1.457476,1.1593954 l 0.0014,0.00313 c 1.850272,6.4032243 9.198197,31.3442393 9.210011,31.3754903 0.200826,0.609383 0.441525,0.715636 0.615773,0.596884 0.174247,-0.125008 0.352924,-0.525008 0.34997,-1.515649 l 0,-28.7191994 c -0.0029,-1.4656471 0.388367,-2.6062919 0.897818,-2.9406693 0.509454,-0.3312553 1.092739,0.087503 1.445663,1.1593923 l 0,0.00313 0.02658,0 c 1.850273,6.4032234 9.198199,31.3442414 9.210013,31.3754894 0.197872,0.603134 0.432664,0.721888 0.615772,0.596887 0.183106,-0.125008 0.367691,-0.50001 0.364738,-1.4844 l 0,-37.91309196 -2.789436,0 0,22.12847096 c 0,0 -1.664211,-6.01572 -4.512713,-16.3752577 C 34.127917,-3.844273 28.859146,0.35579106 28.859146,9.0903028 l 0,13.5877142 c 0,0 -1.634676,-6.01572 -4.486131,-16.3752577 C 23.153282,1.865181 21.450677,0.16828119 19.928228,0.399534 m -7.891343,0.15000384 c -15.5257417,0 -15.375121,46.81948316 0.209688,46.84448316 l 6.097183,0 c 2.621096,0 4.294166,-3.284428 4.291212,-9.343895 l 0,-11.868937 c 0,0 3.42293,11.975187 4.768179,16.66901 2.279985,7.978251 7.793881,6.403226 7.779114,-3.559429 l 0,-13.109581 c 0,0 3.411116,11.975187 4.753412,16.66901 2.279983,7.978251 7.808647,6.403226 7.793881,-3.559429 l 0,-38.74748232 -2.789436,0 0,37.91309132 c 0.0029,1.45315 -0.35883,2.531291 -0.85647,2.875046 -0.497639,0.343757 -1.069112,-0.0875 -1.416129,-1.128141 l -0.0014,0 0,-0.05625 c 0,0 -7.349403,-24.872266 -9.224779,-31.3442421 -0.0059,-0.012504 -0.0088,0.012504 -0.0014,0 -0.0029,0 0.0029,-0.00313 0,-0.00313 C 33.247873,8.2559058 32.998317,8.1340276 32.794534,8.2684061 32.584848,8.4059097 32.385497,8.7871631 32.38845,9.7528037 l 0,28.7129483 c 0.0029,1.446901 -0.349971,2.587542 -0.841704,2.940673 -0.491732,0.350006 -1.057298,-0.112504 -1.401363,-1.159392 l 0,-0.0031 -0.0014,0 c 0,0 -7.35531,-24.922269 -9.224777,-31.3754935 C 20.724154,8.2778526 20.471643,8.1340989 20.261955,8.2716024 20.052269,8.4091056 19.852916,8.7903594 19.85587,9.756 l 0,0.00313 0,28.506697 c 0,1.72815 -0.671885,3.178175 -1.49144,3.178175 l -6.506222,0 c -2.8544086,0 -5.0192126,-2.175033 -6.4501084,-5.459461 C 3.9772031,32.700116 3.27283,28.343798 3.2757833,23.996855 3.2787367,19.653033 3.9831098,15.26859 5.3785658,11.984165 6.7740227,8.6997371 8.8664688,6.5309533 11.57321,6.5247032 l 3.953054,0 0,-5.93446797 -3.461321,0 z" />
</svg>
