<?xml version="1.0" encoding="UTF-8" standalone="no"?>
<svg
   xmlns:dc="http://purl.org/dc/elements/1.1/"
   xmlns:cc="http://creativecommons.org/ns#"
   xmlns:rdf="http://www.w3.org/1999/02/22-rdf-syntax-ns#"
   xmlns:svg="http://www.w3.org/2000/svg"
   xmlns="http://www.w3.org/2000/svg"
   xmlns:sodipodi="http://sodipodi.sourceforge.net/DTD/sodipodi-0.dtd"
   xmlns:inkscape="http://www.inkscape.org/namespaces/inkscape"
   viewBox="0 0 48 48"
   id="svg2"
   version="1.1"
   inkscape:version="0.91 r13725"
   sodipodi:docname="kopete.svg">
  <metadata
     id="metadata36">
    <rdf:RDF>
      <cc:Work
         rdf:about="">
        <dc:format>image/svg+xml</dc:format>
        <dc:type
           rdf:resource="http://purl.org/dc/dcmitype/StillImage" />
        <dc:title></dc:title>
      </cc:Work>
    </rdf:RDF>
  </metadata>
  <sodipodi:namedview
     pagecolor="#ffffff"
     bordercolor="#666666"
     borderopacity="1"
     objecttolerance="10"
     gridtolerance="10"
     guidetolerance="10"
     inkscape:pageopacity="0"
     inkscape:pageshadow="2"
     inkscape:window-width="1280"
     inkscape:window-height="694"
     id="namedview34"
     showgrid="false"
     inkscape:zoom="4.9166667"
     inkscape:cx="-13.536468"
     inkscape:cy="24"
     inkscape:window-x="0"
     inkscape:window-y="0"
     inkscape:window-maximized="1"
     inkscape:current-layer="svg2" />
  <defs
     id="defs4">
    <linearGradient
       gradientUnits="userSpaceOnUse"
       y2="505.33"
       x2="355.69"
       y1="547"
       x1="355.73"
       id="0"
       gradientTransform="matrix(0.9746,0,0,1.056907,-322.33,-533.39791)">
      <stop
         stop-color="#1074f5"
         id="stop7" />
      <stop
         offset="1"
         stop-color="#02befd"
         id="stop9" />
    </linearGradient>
    <linearGradient
       gradientTransform="matrix(-0.55334864,0,0,0.65340105,242.22654,-309.19623)"
       gradientUnits="userSpaceOnUse"
       y2="507.87"
       x2="0"
       y1="546.8"
       id="1">
      <stop
         stop-color="#d3d3d3"
         id="stop12" />
      <stop
         offset="1"
         stop-color="#fcf9f9"
         id="stop14" />
    </linearGradient>
  </defs>
  <path
     inkscape:connector-curvature="0"
     style="fill:#2a7fff"
     id="path18"
     d="M 40.922912,6.6921361 C 36.39687,2.6980845 30.387486,0.49866105 24.001907,0.49866105 c -6.385579,0 -12.394963,2.19942345 -16.9210054,6.19347505 -4.5650264,4.0289299 -7.0794944,9.3980169 -7.0794944,15.1201119 0,5.461038 2.2912846,10.600777 6.4693948,14.55995 -0.075044,0.183902 -0.1354694,0.377316 -0.1734788,0.580242 l -1.3732114,7.322252 c -0.1627582,0.869835 0.056527,1.388776 0.2689896,1.67097 0.2455992,0.325527 0.6100996,0.505202 1.0252792,0.505202 0.3138212,0 0.6510328,-0.100407 1.0028634,-0.299105 l 7.984898,-4.498196 c 2.763965,0.964956 5.736495,1.471214 8.790892,1.471214 6.385579,0 12.394963,-2.199423 16.921005,-6.193475 4.565026,-4.028929 7.079494,-9.398017 7.079494,-15.120111 0,-5.721038 -2.514468,-11.091182 -7.079494,-15.1201118" />
  <path
     d="m 27.21029,25.864429 c 2.263021,-2.175115 5.267713,-3.37259 8.460503,-3.37259 3.192789,0 6.197481,1.197475 8.460502,3.37259 2.282513,2.193082 3.539747,5.116487 3.539747,8.231192 0,2.973079 -1.146129,5.770712 -3.234697,7.926802 0.03801,0.100406 0.06725,0.20504 0.08674,0.316015 l 0.686119,3.986654 c 0.08187,0.473494 -0.02826,0.756745 -0.134495,0.909997 -0.1228,0.17756 -0.30505,0.274795 -0.51264,0.274795 -0.15691,0 -0.325516,-0.05496 -0.500944,-0.162763 l -3.991962,-2.448854 c -1.381982,0.525283 -2.868247,0.801136 -4.397395,0.801136 -3.192789,0 -6.197481,-1.197476 -8.460502,-3.372591 -2.282514,-2.193082 -3.539748,-5.116486 -3.539748,-8.231191 0,-3.114705 1.257234,-6.03811 3.539748,-8.231192"
     id="path24"
     style="fill:#d5e5ff"
     inkscape:connector-curvature="0" />
  <path
     style="fill:#5599ff;fill-opacity:1"
     inkscape:connector-curvature="0"
     id="path20"
     d="m 27.189324,27.128977 c 0,-1.728065 1.33449,-3.130008 2.979689,-3.130008 1.645199,0 2.979689,1.401943 2.979689,3.130008 0,1.729031 -1.33449,3.130974 -2.979689,3.130974 -1.645199,0 -2.979689,-1.401943 -2.979689,-3.130974 m 13.511713,0 c 0,-1.728065 1.336323,-3.130008 2.980607,-3.130008 1.645198,0 2.979689,1.401943 2.979689,3.130008 0,1.729031 -1.334491,3.130974 -2.979689,3.130974 -1.644284,0 -2.980607,-1.401943 -2.980607,-3.130974 m 7.045486,12.82107 c -1.842257,4.485639 -6.172017,7.385045 -11.016877,7.385045 -4.950263,0 -9.300187,-2.913878 -11.081036,-7.421709 -0.30521,-0.771889 0.04307,-1.658595 0.778147,-1.979895 0.180559,-0.07815 0.368451,-0.115783 0.552678,-0.115783 0.565508,0 1.101688,0.351209 1.331741,0.933985 1.334489,3.374119 4.639553,5.554703 8.420303,5.554703 3.693678,0 6.981327,-2.18155 8.371727,-5.558562 0.316208,-0.76803 1.164929,-1.122133 1.894499,-0.788291 0.732319,0.331912 1.068692,1.223443 0.752484,1.990507" />
</svg>
