<?xml version="1.0" encoding="UTF-8" standalone="no"?>
<svg
   xmlns:dc="http://purl.org/dc/elements/1.1/"
   xmlns:cc="http://creativecommons.org/ns#"
   xmlns:rdf="http://www.w3.org/1999/02/22-rdf-syntax-ns#"
   xmlns:svg="http://www.w3.org/2000/svg"
   xmlns="http://www.w3.org/2000/svg"
   xmlns:sodipodi="http://sodipodi.sourceforge.net/DTD/sodipodi-0.dtd"
   xmlns:inkscape="http://www.inkscape.org/namespaces/inkscape"
   viewBox="0 0 48 48"
   id="svg2"
   version="1.1"
   inkscape:version="0.91 r13725"
   sodipodi:docname="krfb.svg">
  <metadata
     id="metadata19">
    <rdf:RDF>
      <cc:Work
         rdf:about="">
        <dc:format>image/svg+xml</dc:format>
        <dc:type
           rdf:resource="http://purl.org/dc/dcmitype/StillImage" />
        <dc:title></dc:title>
      </cc:Work>
    </rdf:RDF>
  </metadata>
  <sodipodi:namedview
     pagecolor="#ffffff"
     bordercolor="#666666"
     borderopacity="1"
     objecttolerance="10"
     gridtolerance="10"
     guidetolerance="10"
     inkscape:pageopacity="0"
     inkscape:pageshadow="2"
     inkscape:window-width="1280"
     inkscape:window-height="694"
     id="namedview17"
     showgrid="false"
     inkscape:zoom="4.9166667"
     inkscape:cx="-9.1525424"
     inkscape:cy="24"
     inkscape:window-x="0"
     inkscape:window-y="0"
     inkscape:window-maximized="1"
     inkscape:current-layer="svg2" />
  <defs
     id="defs4">
    <linearGradient
       id="0"
       y1="62.12"
       x2="0"
       y2="14.12"
       gradientUnits="userSpaceOnUse"
       gradientTransform="matrix(0.99999,0,0,0.99999,-48.37,-14.12)">
      <stop
         stop-color="#1365f4"
         id="stop7" />
      <stop
         offset="1"
         stop-color="#05b2fc"
         id="stop9" />
    </linearGradient>
  </defs>
  <path
     style="fill:#002255;fill-opacity:0.81699997"
     inkscape:connector-curvature="0"
     id="path15"
     d="m 39.174214,30.665824 c -2.774464,0 -5.221178,1.310944 -6.819927,3.318916 L 17.527278,26.460984 c 0.194366,-0.717809 0.33347,-1.460173 0.33347,-2.242202 0,-0.850037 -0.165783,-1.650959 -0.396352,-2.429214 l 14.76222,-7.489753 c 1.58922,2.098643 4.100722,3.470034 6.949505,3.470034 4.828638,0 8.734995,-3.876161 8.734995,-8.6609139 0,-4.7828647 -3.906357,-8.65902561 -8.734995,-8.65902561 -4.817206,0 -8.727374,3.87804991 -8.727374,8.65902561 0,0.7839197 0.139106,1.5281729 0.335375,2.2478709 l -14.823197,7.523755 c -1.600654,-2.009862 -4.051179,-3.326472 -6.8294561,-3.326472 -4.8229228,0 -8.72737423,3.879939 -8.72737423,8.664693 0,4.784751 3.90445143,8.660912 8.72737423,8.660912 2.8544991,0 5.3621901,-1.377057 6.9590321,-3.477588 L 30.8451,36.891859 c -0.230572,0.776365 -0.398258,1.584843 -0.398258,2.436767 0,4.784753 3.910166,8.660914 8.727372,8.660914 4.82864,0 8.733091,-3.878051 8.733091,-8.660914 0,-4.788531 -3.906357,-8.664692 -8.733091,-8.664692" />
</svg>
