<?xml version="1.0" encoding="UTF-8" standalone="no"?>
<svg
   xmlns:dc="http://purl.org/dc/elements/1.1/"
   xmlns:cc="http://creativecommons.org/ns#"
   xmlns:rdf="http://www.w3.org/1999/02/22-rdf-syntax-ns#"
   xmlns:svg="http://www.w3.org/2000/svg"
   xmlns="http://www.w3.org/2000/svg"
   xmlns:xlink="http://www.w3.org/1999/xlink"
   xmlns:sodipodi="http://sodipodi.sourceforge.net/DTD/sodipodi-0.dtd"
   xmlns:inkscape="http://www.inkscape.org/namespaces/inkscape"
   viewBox="0 0 48 48"
   id="svg2"
   version="1.1"
   inkscape:version="0.91 r13725"
   sodipodi:docname="kscd.svg">
  <metadata
     id="metadata26">
    <rdf:RDF>
      <cc:Work
         rdf:about="">
        <dc:format>image/svg+xml</dc:format>
        <dc:type
           rdf:resource="http://purl.org/dc/dcmitype/StillImage" />
        <dc:title></dc:title>
      </cc:Work>
    </rdf:RDF>
  </metadata>
  <sodipodi:namedview
     pagecolor="#ffffff"
     bordercolor="#666666"
     borderopacity="1"
     objecttolerance="10"
     gridtolerance="10"
     guidetolerance="10"
     inkscape:pageopacity="0"
     inkscape:pageshadow="2"
     inkscape:window-width="1280"
     inkscape:window-height="694"
     id="namedview24"
     showgrid="false"
     inkscape:zoom="4.9166667"
     inkscape:cx="-9.1525424"
     inkscape:cy="24"
     inkscape:window-x="0"
     inkscape:window-y="0"
     inkscape:window-maximized="1"
     inkscape:current-layer="svg2" />
  <defs
     id="defs4">
    <linearGradient
       gradientUnits="userSpaceOnUse"
       y2="501.51"
       x2="407.82"
       y1="546.29"
       x1="408.82"
       id="3"
       xlink:href="#1"
       gradientTransform="matrix(1.07196,0,0,1.07196,-413.17,-537.6)" />
    <linearGradient
       gradientUnits="userSpaceOnUse"
       y2="501.51"
       x2="0"
       y1="546.29"
       id="2"
       xlink:href="#1"
       gradientTransform="matrix(1.07196,0,0,1.07196,-413.17,-537.6)" />
    <linearGradient
       xlink:href="#1"
       id="0"
       x1="61.57"
       y1="22.939"
       x2="60.753"
       y2="-27.706"
       gradientUnits="userSpaceOnUse" />
    <linearGradient
       id="1">
      <stop
         stop-color="#197cf1"
         id="stop10" />
      <stop
         offset="1"
         stop-color="#21c9fb"
         id="stop12" />
    </linearGradient>
  </defs>
  <path
     style="fill:#37abc8"
     inkscape:connector-curvature="0"
     id="path20"
     d="m 30.764693,0.33132062 -0.0032,0.002635 -5.590511,0.26480592 C 24.564165,0.62774534 23.19441,1.1086117 22.514311,1.1731663 L 20.806896,2.0321387 C 14.838907,3.2165194 16.089206,0.4143196 12.448207,4.883084 L 8.0124306,6.1623204 C 3.9652839,11.129078 -0.38129802,15.59389 0.31632122,18.764974 c 0.0637099,0.285885 0.3344749,0.50985 0.68169177,0.56123 C 1.34523,19.377584 1.690854,19.243204 1.8692407,18.991574 2.5939365,17.969239 3.825123,16.425197 5.5803202,14.871932 9.8377085,11.102729 15.13197,9.1107563 20.888125,9.1107563 c 0.479414,0 0.968385,0.014492 1.458949,0.04084 l 0,28.1708697 c 0,5.219707 4.739987,9.505347 11.276584,10.186464 0.592499,0.06192 1.191368,0.09222 1.782274,0.09222 6.299278,0 11.587169,-3.524158 12.300715,-8.198444 0.38385,-2.517632 -0.568608,-5.020772 -2.688542,-7.050951 -2.116749,-2.028861 -5.146136,-3.344986 -8.524333,-3.698061 -1.938363,-0.202886 -3.900615,-0.06982 -5.730672,0.386011 z" />
</svg>
