<?xml version="1.0" encoding="UTF-8" standalone="no"?>
<svg
   xmlns:dc="http://purl.org/dc/elements/1.1/"
   xmlns:cc="http://creativecommons.org/ns#"
   xmlns:rdf="http://www.w3.org/1999/02/22-rdf-syntax-ns#"
   xmlns:svg="http://www.w3.org/2000/svg"
   xmlns="http://www.w3.org/2000/svg"
   xmlns:sodipodi="http://sodipodi.sourceforge.net/DTD/sodipodi-0.dtd"
   xmlns:inkscape="http://www.inkscape.org/namespaces/inkscape"
   x="0px"
   y="0px"
   width="48px"
   height="48px"
   viewBox="0 0 48 48"
   id="svg2"
   version="1.1"
   inkscape:version="0.91 r13725"
   sodipodi:docname="ksnapshot.svg">
  <metadata
     id="metadata24">
    <rdf:RDF>
      <cc:Work
         rdf:about="">
        <dc:format>image/svg+xml</dc:format>
        <dc:type
           rdf:resource="http://purl.org/dc/dcmitype/StillImage" />
        <dc:title></dc:title>
      </cc:Work>
    </rdf:RDF>
  </metadata>
  <defs
     id="defs22" />
  <sodipodi:namedview
     pagecolor="#ffffff"
     bordercolor="#666666"
     borderopacity="1"
     objecttolerance="10"
     gridtolerance="10"
     guidetolerance="10"
     inkscape:pageopacity="0"
     inkscape:pageshadow="2"
     inkscape:window-width="1280"
     inkscape:window-height="694"
     id="namedview20"
     showgrid="false"
     inkscape:zoom="4.9166667"
     inkscape:cx="-9.1525424"
     inkscape:cy="24"
     inkscape:window-x="0"
     inkscape:window-y="0"
     inkscape:window-maximized="1"
     inkscape:current-layer="svg2" />
  <path
     style="fill:#5aa02c"
     inkscape:connector-curvature="0"
     id="path6"
     d="m 43.68976,6.9645127 -10.309507,0 -2.52251,-5.5446247 C 30.508138,0.65140219 29.794699,0.16621246 29.014383,0.16621246 l -9.825373,0 c -0.780326,0 -1.493754,0.48520108 -1.84336,1.25367554 l -2.52251,5.5446247 -10.3095066,0 c -2.2775454,0 -4.12380282,2.0337335 -4.12380282,4.5425493 l 0,31.797847 c 0,2.508817 1.84625742,4.54255 4.12380282,4.54255 l 39.1761266,0 c 2.277545,0 4.123803,-2.033733 4.123803,-4.54255 l 0,-31.797847 c 0,-2.5088158 -1.846258,-4.5425493 -4.123803,-4.5425493 z" />
  <path
     style="fill:#5aa02c"
     inkscape:connector-curvature="0"
     id="path8"
     d="m 6.5755348,43.304909 -6.18570422,0 0,-31.797847 6.18570422,0 c 1.1387572,0 2.0619014,1.016884 2.0619014,2.271275 l 0,27.255298 c 0,1.254391 -0.9231442,2.271274 -2.0619014,2.271274 z" />
  <ellipse
     style="fill:#5aa02c"
     id="circle10"
     cy="27.405987"
     cx="24.101696"
     rx="11.340458"
     ry="12.492011" />
  <path
     style="fill:#447821"
     inkscape:connector-curvature="0"
     id="path12"
     d="m 24.101697,41.033635 c -6.821997,0 -12.371409,-6.113477 -12.371409,-13.627649 0,-7.514172 5.549412,-13.627649 12.371409,-13.627649 6.821996,0 12.371408,6.113477 12.371408,13.627649 0,7.514172 -5.549412,13.627649 -12.371408,13.627649 z m 0,-24.984023 c -5.684322,0 -10.309507,5.094288 -10.309507,11.356374 0,6.262086 4.625185,11.356374 10.309507,11.356374 5.684322,0 10.309507,-5.094288 10.309507,-11.356374 0,-6.262086 -4.625185,-11.356374 -10.309507,-11.356374 z" />
  <ellipse
     style="fill:#aade87"
     id="circle14"
     cy="27.405987"
     cx="24.101696"
     rx="6.1857042"
     ry="6.8138242" />
  <path
     style="fill:#aade87"
     inkscape:connector-curvature="0"
     id="path16"
     d="m 27.194549,9.2357875 -6.185704,0 c -0.569374,0 -1.030951,-0.5084362 -1.030951,-1.1356374 l 0,-3.4069122 c 0,-0.6271898 0.461577,-1.1356374 1.030951,-1.1356374 l 6.185704,0 c 0.569373,0 1.03095,0.5084476 1.03095,1.1356374 l 0,3.4069122 c 0,0.6272012 -0.461577,1.1356374 -1.03095,1.1356374 z" />
  <path
     style="fill:#aade87"
     inkscape:connector-curvature="0"
     id="path18"
     d="m 43.68976,13.778337 -6.185704,0 c -0.569374,0 -1.030951,-0.508436 -1.030951,-1.135637 l 0,-1.135638 c 0,-0.627201 0.461577,-1.135637 1.030951,-1.135637 l 6.185704,0 c 0.569373,0 1.030951,0.508436 1.030951,1.135637 l 0,1.135638 c 0,0.627201 -0.461578,1.135637 -1.030951,1.135637 z" />
</svg>
