<?xml version="1.0" encoding="UTF-8" standalone="no"?>
<svg
   xmlns:dc="http://purl.org/dc/elements/1.1/"
   xmlns:cc="http://creativecommons.org/ns#"
   xmlns:rdf="http://www.w3.org/1999/02/22-rdf-syntax-ns#"
   xmlns:svg="http://www.w3.org/2000/svg"
   xmlns="http://www.w3.org/2000/svg"
   xmlns:sodipodi="http://sodipodi.sourceforge.net/DTD/sodipodi-0.dtd"
   xmlns:inkscape="http://www.inkscape.org/namespaces/inkscape"
   viewBox="0 0 48 48"
   id="svg2"
   version="1.1"
   inkscape:version="0.91 r13725"
   sodipodi:docname="kupfer.svg">
  <metadata
     id="metadata24">
    <rdf:RDF>
      <cc:Work
         rdf:about="">
        <dc:format>image/svg+xml</dc:format>
        <dc:type
           rdf:resource="http://purl.org/dc/dcmitype/StillImage" />
        <dc:title></dc:title>
      </cc:Work>
    </rdf:RDF>
  </metadata>
  <sodipodi:namedview
     pagecolor="#ffffff"
     bordercolor="#666666"
     borderopacity="1"
     objecttolerance="10"
     gridtolerance="10"
     guidetolerance="10"
     inkscape:pageopacity="0"
     inkscape:pageshadow="2"
     inkscape:window-width="1280"
     inkscape:window-height="694"
     id="namedview22"
     showgrid="false"
     inkscape:zoom="4.9166667"
     inkscape:cx="-9.1525424"
     inkscape:cy="24"
     inkscape:window-x="0"
     inkscape:window-y="0"
     inkscape:window-maximized="1"
     inkscape:current-layer="svg2" />
  <defs
     id="defs4">
    <linearGradient
       id="0"
       gradientUnits="userSpaceOnUse"
       x1="3.147"
       x2="18.772">
      <stop
         stop-color="#e6f3ff"
         id="stop7" />
      <stop
         offset="1"
         stop-color="#dcffe7"
         id="stop9" />
    </linearGradient>
    <linearGradient
       id="1"
       x1="409.57"
       y1="542.8"
       x2="409.94"
       y2="501.23"
       gradientUnits="userSpaceOnUse"
       gradientTransform="matrix(1.0909108,0,0,1.0652853,-421.70943,-535.05257)">
      <stop
         stop-color="#197cf1"
         id="stop12" />
      <stop
         offset="1"
         stop-color="#20bcfa"
         id="stop14" />
    </linearGradient>
  </defs>
  <path
     style="fill:#2a7fff;fill-opacity:0.85199998"
     inkscape:connector-curvature="0"
     id="path20"
     d="m 47.824923,20.04584 c -0.166988,-0.214994 -0.383019,-0.343001 -0.655345,-0.383664 l -5.710433,-0.858823 c -0.312162,-0.981564 -0.738845,-1.983461 -1.279667,-3.006064 0.37421,-0.511303 0.935715,-1.231946 1.684519,-2.162681 0.7488,-0.930736 1.279284,-1.61034 1.591443,-2.039939 0.166606,-0.225152 0.249346,-0.460097 0.249346,-0.705582 0,-0.286148 -0.0724,-0.510926 -0.218329,-0.674707 C 42.737657,9.1710675 41.021348,7.4330906 38.337532,4.9993229 38.08857,4.7948647 37.828117,4.6928414 37.558088,4.6928414 c -0.312161,0 -0.561888,0.091881 -0.749186,0.2756059 L 32.378137,8.2508727 C 31.524769,7.8212735 30.588672,7.4428808 29.569458,7.1138087 L 28.695792,1.4699053 C 28.675076,1.2040897 28.555216,0.98420576 28.336903,0.81025801 28.118191,0.6363014 27.863872,0.54971268 27.572012,0.54971268 l -6.928816,0 c -0.603255,0 -0.977848,0.28614854 -1.123394,0.85882192 -0.270413,1.0222269 -0.572231,2.9239872 -0.905075,5.7041453 -0.977849,0.307234 -1.922755,0.6957931 -2.839704,1.1660559 L 11.468746,4.9963104 C 11.198332,4.7918743 10.927923,4.6898289 10.65751,4.6898289 c -0.457707,0 -1.4405348,0.7308103 -2.9488643,2.1931791 -1.5083296,1.4623687 -2.5325223,2.5614053 -3.0756436,3.297486 -0.1872991,0.265815 -0.2807519,0.501136 -0.2807519,0.705581 0,0.245485 0.1038011,0.490972 0.3117762,0.736081 1.3938072,1.656649 2.5068612,3.067436 3.339162,4.233491 -0.5201407,0.940526 -0.925759,1.881428 -1.2168537,2.821952 L 0.98359523,19.536422 C 0.7549345,19.577462 0.55729535,19.710379 0.39068329,19.935523 0.22407815,20.1603 0.14095302,20.395619 0.14095302,20.640728 l 0,6.811089 c 0,0.266194 0.0831155,0.50603 0.24973027,0.720641 0.16660515,0.214995 0.38301882,0.343381 0.65534591,0.384042 l 5.7108153,0.828324 c 0.2910947,1.001897 0.7173946,2.01396 1.2792835,3.034681 -0.3742101,0.511303 -0.9361005,1.231947 -1.6849005,2.162682 -0.7488042,0.930736 -1.2796674,1.610337 -1.5914464,2.039939 -0.1666051,0.225528 -0.2497275,0.460096 -0.2497275,0.705581 0,0.265818 0.072773,0.50076 0.2183276,0.705205 0.8112339,1.104685 2.5275427,2.822705 5.1489249,5.153686 0.2290459,0.225154 0.4891159,0.337354 0.7802109,0.337354 0.312162,0 0.572232,-0.09188 0.780211,-0.275607 l 4.400124,-3.2828 c 0.853366,0.4296 1.789465,0.807992 2.80868,1.137064 l 0.873666,5.643904 c 0.02117,0.265815 0.140576,0.485699 0.358889,0.659647 0.218328,0.174332 0.473411,0.260545 0.764505,0.260545 l 6.928817,0 c 0.604021,0 0.978231,-0.286149 1.124162,-0.858821 0.270028,-1.022606 0.571464,-2.923987 0.904308,-5.704146 0.977847,-0.306857 1.926586,-0.695793 2.839703,-1.166056 l 4.306668,3.313299 c 0.291095,0.183741 0.561887,0.275606 0.811235,0.275606 0.457324,0 1.435172,-0.725536 2.932776,-2.17774 1.498371,-1.451829 2.527927,-2.556511 3.087135,-3.313299 0.187298,-0.204436 0.281138,-0.439389 0.281138,-0.705205 0,-0.265818 -0.103802,-0.522221 -0.312162,-0.766954 -1.497605,-1.799724 -2.610658,-3.210512 -3.339162,-4.233116 0.41596,-0.756787 0.821961,-1.687146 1.217235,-2.791455 l 5.772099,-0.858446 c 0.249345,-0.04104 0.458092,-0.174333 0.624321,-0.399478 0.166223,-0.225154 0.248963,-0.460472 0.248963,-0.705581 l 0,-6.811089 c 0,-0.265816 -0.08234,-0.505655 -0.249345,-0.720643 m -18.067014,9.616474 c -1.560036,1.533907 -3.442959,2.300862 -5.648384,2.300862 -2.205422,0 -4.087963,-0.766955 -5.648381,-2.300862 -1.56004,-1.533531 -2.340248,-3.384082 -2.340248,-5.552034 0,-2.167953 0.779826,-4.018504 2.340248,-5.552412 1.560418,-1.53353 3.443341,-2.300483 5.648381,-2.300483 2.205425,0 4.088348,0.766953 5.648384,2.300483 1.560037,1.533908 2.340247,3.384459 2.340247,5.552412 0,2.167952 -0.78021,4.018503 -2.340247,5.552034" />
</svg>
