<?xml version="1.0" encoding="UTF-8" standalone="no"?>
<!-- Created with Inkscape (http://www.inkscape.org/) -->

<svg
   xmlns:dc="http://purl.org/dc/elements/1.1/"
   xmlns:cc="http://creativecommons.org/ns#"
   xmlns:rdf="http://www.w3.org/1999/02/22-rdf-syntax-ns#"
   xmlns:svg="http://www.w3.org/2000/svg"
   xmlns="http://www.w3.org/2000/svg"
   xmlns:sodipodi="http://sodipodi.sourceforge.net/DTD/sodipodi-0.dtd"
   xmlns:inkscape="http://www.inkscape.org/namespaces/inkscape"
   width="128"
   height="128"
   id="svg859"
   version="1.1"
   inkscape:version="0.91 r13725"
   sodipodi:docname="kwin.svg">
  <defs
     id="defs861" />
  <sodipodi:namedview
     id="base"
     pagecolor="#ffffff"
     bordercolor="#666666"
     borderopacity="1.0"
     inkscape:pageopacity="0.0"
     inkscape:pageshadow="2"
     inkscape:zoom="2.8694188"
     inkscape:cx="13.267918"
     inkscape:cy="63.081106"
     inkscape:document-units="px"
     inkscape:current-layer="layer1"
     showgrid="false"
     width="0px"
     height="0px"
     fit-margin-top="0"
     fit-margin-left="0"
     fit-margin-right="0"
     fit-margin-bottom="0"
     inkscape:window-width="1280"
     inkscape:window-height="694"
     inkscape:window-x="0"
     inkscape:window-y="0"
     inkscape:window-maximized="1"
     showguides="false">
    <sodipodi:guide
       position="2,41.000017"
       orientation="34,0"
       id="guide3353" />
    <sodipodi:guide
       position="2,7.0000174"
       orientation="0,43.999992"
       id="guide3355" />
    <sodipodi:guide
       position="45.999992,7.0000174"
       orientation="-34,0"
       id="guide3357" />
    <sodipodi:guide
       position="45.999992,41.000017"
       orientation="0,-43.999992"
       id="guide3359" />
    <sodipodi:guide
       position="2,41.000017"
       orientation="4,0"
       id="guide3361" />
    <sodipodi:guide
       position="2,37.000017"
       orientation="0,43.999981"
       id="guide3363" />
    <sodipodi:guide
       position="45.999981,37.000017"
       orientation="-4,0"
       id="guide3365" />
    <sodipodi:guide
       position="45.999981,41.000017"
       orientation="0,-43.999981"
       id="guide3367" />
  </sodipodi:namedview>
  <metadata
     id="metadata864">
    <rdf:RDF>
      <cc:Work
         rdf:about="">
        <dc:format>image/svg+xml</dc:format>
        <dc:type
           rdf:resource="http://purl.org/dc/dcmitype/StillImage" />
        <dc:title></dc:title>
      </cc:Work>
    </rdf:RDF>
  </metadata>
  <g
     inkscape:label="Capa 1"
     inkscape:groupmode="layer"
     id="layer1"
     transform="translate(0,-924.3622)">
    <rect
       style="fill:none;stroke:none"
       id="rect914"
       width="13.057858"
       height="9.431694"
       x="15.194091"
       y="965.58575" />
    <path
       sodipodi:type="arc"
       style="fill:none;stroke:none"
       id="path3290"
       sodipodi:cx="3.9986143"
       sodipodi:cy="1024.6736"
       sodipodi:rx="2.0013857"
       sodipodi:ry="2.0000615"
       d="m 6,1024.6736 a 2.0013857,2.0000615 0 0 1 -2.0013857,2 2.0013857,2.0000615 0 0 1 -2.0013857,-2 2.0013857,2.0000615 0 0 1 2.0013857,-2.0001 A 2.0013857,2.0000615 0 0 1 6,1024.6736 Z"
       transform="matrix(2.7062054,0,0,2.6527978,-1.0431435,-1738.5756)" />
    <path
       d="m 6,1017.3622 a 2.0013857,2.0000615 0 0 1 -2.0013857,2 2.0013857,2.0000615 0 0 1 -2.0013857,-2 2.0013857,2.0000615 0 0 1 2.0013857,-2.0001 A 2.0013857,2.0000615 0 0 1 6,1017.3622 Z"
       sodipodi:ry="2.0000615"
       sodipodi:rx="2.0013857"
       sodipodi:cy="1017.3622"
       sodipodi:cx="3.9986143"
       id="path3292"
       style="fill:none;stroke:none"
       sodipodi:type="arc"
       transform="matrix(2.7062054,0,0,2.6527978,-1.0431435,-1738.5756)" />
    <path
       sodipodi:type="arc"
       style="fill:none;stroke:none"
       id="path3294"
       sodipodi:cx="8.4118843"
       sodipodi:cy="1024.3622"
       sodipodi:rx="1.0006928"
       sodipodi:ry="1.0000308"
       d="m 9.4125772,1024.3622 a 1.0006928,1.0000308 0 0 1 -1.0006929,1 1.0006928,1.0000308 0 0 1 -1.0006928,-1 1.0006928,1.0000308 0 0 1 1.0006928,-1 1.0006928,1.0000308 0 0 1 1.0006929,1 z"
       transform="matrix(2.7062054,0,0,2.6527978,-1.0431435,-1738.5756)" />
    <path
       d="m 9.4125772,1030.3622 a 1.0006928,1.0000308 0 0 1 -1.0006929,1 1.0006928,1.0000308 0 0 1 -1.0006928,-1 1.0006928,1.0000308 0 0 1 1.0006928,-1 1.0006928,1.0000308 0 0 1 1.0006929,1 z"
       sodipodi:ry="1.0000308"
       sodipodi:rx="1.0006928"
       sodipodi:cy="1030.3622"
       sodipodi:cx="8.4118843"
       id="path3296"
       style="fill:none;stroke:none"
       sodipodi:type="arc"
       transform="matrix(2.7062054,0,0,2.6527978,-1.0431435,-1738.5756)" />
    <path
       sodipodi:type="arc"
       style="fill:none;stroke:none"
       id="path3303"
       sodipodi:cx="43.998596"
       sodipodi:cy="1013.3622"
       sodipodi:rx="2.0013857"
       sodipodi:ry="2.0000615"
       d="m 45.999982,1013.3622 a 2.0013857,2.0000615 0 0 1 -2.001386,2 2.0013857,2.0000615 0 0 1 -2.001385,-2 2.0013857,2.0000615 0 0 1 2.001385,-2.0001 2.0013857,2.0000615 0 0 1 2.001386,2.0001 z"
       transform="matrix(2.7062054,0,0,2.6527978,-1.0431435,-1738.5756)" />
    <path
       d="m 39.605666,1013.3622 a 1.0006928,1.0000308 0 0 1 -1.000693,1 1.0006928,1.0000308 0 0 1 -1.000693,-1 1.0006928,1.0000308 0 0 1 1.000693,-1 1.0006928,1.0000308 0 0 1 1.000693,1 z"
       sodipodi:ry="1.0000308"
       sodipodi:rx="1.0006928"
       sodipodi:cy="1013.3622"
       sodipodi:cx="38.604973"
       id="path3305"
       style="fill:none;stroke:none"
       sodipodi:type="arc"
       transform="matrix(2.7062054,0,0,2.6527978,-1.0431435,-1738.5756)" />
    <path
       sodipodi:type="arc"
       style="fill:none;stroke:none"
       id="path3307"
       sodipodi:cx="34.210655"
       sodipodi:cy="1013.3622"
       sodipodi:rx="1.0006928"
       sodipodi:ry="1.0000308"
       d="m 35.211348,1013.3622 a 1.0006928,1.0000308 0 0 1 -1.000693,1 1.0006928,1.0000308 0 0 1 -1.000693,-1 1.0006928,1.0000308 0 0 1 1.000693,-1 1.0006928,1.0000308 0 0 1 1.000693,1 z"
       transform="matrix(2.7062054,0,0,2.6527978,-1.0431435,-1738.5756)" />
    <path
       sodipodi:type="arc"
       style="fill:none;stroke:none"
       id="path3311"
       sodipodi:cx="23.997576"
       sodipodi:cy="1048.8622"
       sodipodi:rx="3.502425"
       sodipodi:ry="3.5001078"
       d="m 27.500001,1048.8622 a 3.502425,3.5001078 0 0 1 -3.502425,3.5001 3.502425,3.5001078 0 0 1 -3.502425,-3.5001 3.502425,3.5001078 0 0 1 3.502425,-3.5001 3.502425,3.5001078 0 0 1 3.502425,3.5001 z"
       transform="matrix(2.7062054,0,0,2.6527978,-1.0431435,-1738.5756)" />
    <path
       d="m 27.500001,1007.8622 a 3.502425,3.5001078 0 0 1 -3.502425,3.5001 3.502425,3.5001078 0 0 1 -3.502425,-3.5001 3.502425,3.5001078 0 0 1 3.502425,-3.5001 3.502425,3.5001078 0 0 1 3.502425,3.5001 z"
       sodipodi:ry="3.5001078"
       sodipodi:rx="3.502425"
       sodipodi:cy="1007.8622"
       sodipodi:cx="23.997576"
       id="path3313"
       style="fill:none;stroke:none"
       sodipodi:type="arc"
       transform="matrix(2.7062054,0,0,2.6527978,-1.0431435,-1738.5756)" />
    <path
       d="m 1.9999999,1028.3622 a 1.0006928,1.0000308 0 0 1 -1.0006928,1 1.0006928,1.0000308 0 0 1 -1.00069285,-1 1.0006928,1.0000308 0 0 1 1.00069285,-1 1.0006928,1.0000308 0 0 1 1.0006928,1 z"
       sodipodi:ry="1.0000308"
       sodipodi:rx="1.0006928"
       sodipodi:cy="1028.3622"
       sodipodi:cx="0.9993071"
       id="path3315"
       style="fill:none;stroke:none"
       sodipodi:type="arc"
       transform="matrix(2.7062054,0,0,2.6527978,-1.0431435,-1738.5756)" />
    <path
       sodipodi:type="arc"
       style="fill:none;stroke:none"
       id="path3317"
       sodipodi:cx="46.999306"
       sodipodi:cy="1028.3622"
       sodipodi:rx="1.0006928"
       sodipodi:ry="1.0000308"
       d="m 47.999999,1028.3622 a 1.0006928,1.0000308 0 0 1 -1.000693,1 1.0006928,1.0000308 0 0 1 -1.000693,-1 1.0006928,1.0000308 0 0 1 1.000693,-1 1.0006928,1.0000308 0 0 1 1.000693,1 z"
       transform="matrix(2.7062054,0,0,2.6527978,-1.0431435,-1738.5756)" />
    <rect
       y="924.84729"
       x="0.53573877"
       height="14.916224"
       width="127.43705"
       id="rect920"
       style="fill:#0b1728;fill-opacity:1;stroke:none" />
    <rect
       style="fill:#2a7fff;fill-opacity:1;stroke:none"
       id="rect825"
       width="6.9346499"
       height="8.9285355"
       x="96.7257"
       y="927.84082" />
    <rect
       y="927.84082"
       x="109.45294"
       height="8.9285355"
       width="6.9346499"
       id="rect827"
       style="fill:#2a7fff;fill-opacity:1;stroke:none" />
    <rect
       y="927.84082"
       x="83.998451"
       height="8.9285355"
       width="6.9346499"
       id="rect3309"
       style="fill:#0066ff;fill-opacity:1;stroke:none" />
    <path
       style="fill:#0066ff;fill-opacity:1;stroke:none"
       d="m 74.785569,940.18402 -22.33881,1.84577 0,76.26871 22.093245,-2.6654 0,-32.59885 29.457936,36.08505 23.07523,-6.1516 -30.19422,-34.64849 30.43972,-32.80438 -23.56616,-4.51127 -29.212442,32.80433 0.245978,-33.62387 z M 24.46194,958.84047 c -0.249388,0 -0.547977,0.11733 -0.736625,0.21161 l -8.591829,7.38063 c -0.36623,0.31948 -0.514496,0.85744 -0.245976,1.23109 l 10.064807,13.94194 c -1.806891,2.53746 -3.138367,5.3157 -4.173304,8.1989 l -18.6565658,3.28197 c -0.5199663,0.1199 -0.9813037,0.37651 -0.9813037,0.82205 l 0,10.25144 c 0,0.4336 0.4810153,0.9163 0.9813037,1.0217 l 18.1656388,3.6906 c 0.96723,3.3429 2.43611,6.5204 4.418597,9.4299 l -10.555592,13.3292 c -0.293123,0.3768 -0.140767,0.9157 0.245975,1.2305 l 8.591966,7.1743 c 0.365547,0.2969 1.026262,0.445 1.472774,0.2121 l 16.447374,-8.4052 c 3.233952,1.5581 6.62403,2.8578 10.310303,3.6894 l 3.927602,15.3768 c 0.112746,0.4448 0.451639,0.8221 0.981369,0.8221 l 12.274005,0 c 0.517229,0 1.103537,-0.3992 1.227278,-0.8221 l 4.418592,-15.3768 c 3.799762,-0.8573 7.488566,-2.2653 10.801298,-3.8945 l 16.201743,9.0208 c 0.44617,0.2331 1.0937,0.1177 1.47291,-0.2119 l 8.59176,-7.177 c 0.36827,-0.3193 0.51586,-0.8567 0.24597,-1.2294 l -5.89157,-8.1995 -1.96383,0.6113 c -0.28015,0.1177 -0.57189,0 -0.73656,-0.2119 0,0 -3.712988,-4.6978 -8.591897,-10.6629 -5.832471,9.5345 -17.718587,15.9934 -31.421565,15.9934 -19.468624,0 -35.349368,-13.0584 -35.349368,-29.3192 0,-11.9612 8.602281,-22.2498 20.865966,-26.85811 l 0,-7.58624 c -2.232083,0.6572 -4.333119,1.32182 -6.382634,2.25681 -0.0015,0 -0.240513,0 -0.245978,0 l -16.44717,-9.02264 c -0.223457,-0.11733 -0.486484,-0.22305 -0.736696,-0.19982 z"
       id="path5692_2_-3-8"
       inkscape:connector-curvature="0" />
  </g>
</svg>
