<?xml version="1.0" encoding="UTF-8" standalone="no"?>
<svg
   xmlns:dc="http://purl.org/dc/elements/1.1/"
   xmlns:cc="http://creativecommons.org/ns#"
   xmlns:rdf="http://www.w3.org/1999/02/22-rdf-syntax-ns#"
   xmlns:svg="http://www.w3.org/2000/svg"
   xmlns="http://www.w3.org/2000/svg"
   xmlns:sodipodi="http://sodipodi.sourceforge.net/DTD/sodipodi-0.dtd"
   xmlns:inkscape="http://www.inkscape.org/namespaces/inkscape"
   viewBox="0 0 48 48"
   id="svg2"
   version="1.1"
   inkscape:version="0.91 r13725"
   sodipodi:docname="libreoffice-impress.svg">
  <metadata
     id="metadata39">
    <rdf:RDF>
      <cc:Work
         rdf:about="">
        <dc:format>image/svg+xml</dc:format>
        <dc:type
           rdf:resource="http://purl.org/dc/dcmitype/StillImage" />
        <dc:title></dc:title>
      </cc:Work>
    </rdf:RDF>
  </metadata>
  <sodipodi:namedview
     pagecolor="#ffffff"
     bordercolor="#666666"
     borderopacity="1"
     objecttolerance="10"
     gridtolerance="10"
     guidetolerance="10"
     inkscape:pageopacity="0"
     inkscape:pageshadow="2"
     inkscape:window-width="1280"
     inkscape:window-height="694"
     id="namedview37"
     showgrid="false"
     inkscape:zoom="4.9166667"
     inkscape:cx="-9.1525424"
     inkscape:cy="24"
     inkscape:window-x="0"
     inkscape:window-y="0"
     inkscape:window-maximized="1"
     inkscape:current-layer="svg2" />
  <defs
     id="defs4">
    <linearGradient
       id="0"
       x1="25.276"
       y1="47.535"
       x2="24.709"
       y2="1.316"
       gradientUnits="userSpaceOnUse"
       gradientTransform="matrix(0.96853,0,0,0.96853,-58.024661,-1.0755085)">
      <stop
         stop-color="#dce2ff"
         id="stop7" />
      <stop
         offset="1"
         stop-color="#f8feff"
         id="stop9" />
    </linearGradient>
    <linearGradient
       id="1"
       x1="10.366"
       y1="50.599"
       x2="10.11"
       y2="-.747"
       gradientUnits="userSpaceOnUse"
       gradientTransform="matrix(0.94117871,0,0,0.94117871,1.4116633,1.4116633)">
      <stop
         stop-color="#dc3c30"
         id="stop12" />
      <stop
         offset="1"
         stop-color="#ff786d"
         id="stop14" />
    </linearGradient>
    <linearGradient
       id="2"
       y1="18.758"
       x2="0"
       y2="1.078"
       gradientUnits="userSpaceOnUse"
       gradientTransform="matrix(0.96853,0,0,0.96853,0.755,0.755)">
      <stop
         stop-color="#f26156"
         id="stop17" />
      <stop
         offset="1"
         stop-color="#fe766b"
         id="stop19" />
    </linearGradient>
  </defs>
  <g
     id="g4180"
     style="fill:#ff5555"
     transform="matrix(1.4000376,0,0,2.7735438,-8.6210341,-48.256471)">
    <path
       d="m 16.441166,17.575954 c 4.15359,0 7.52158,3.362054 7.52158,7.515644 l -7.52158,0 c 1.98e-4,0 1.98e-4,-7.515644 0,-7.515644 m -2.115383,2.044145 0,7.52158 7.52158,0 c 0,4.159526 -3.366011,7.52158 -7.52158,7.52158 -4.155569,0 -7.5196008,-3.364033 -7.5196008,-7.52158 0,-4.155569 3.3640318,-7.52158 7.5196008,-7.52158"
       id="path25"
       inkscape:connector-curvature="0"
       style="fill:#ff5555" />
    <path
       d="m 28.225845,20.733121 c -0.712473,0 -1.284709,0.57506 -1.284709,1.286591 0,0.712473 0.573178,1.284709 1.284709,1.284709 l 10.850849,0 c 0.712472,0 1.284709,-0.573178 1.284709,-1.284709 0,-0.712472 -0.573178,-1.286591 -1.284709,-1.286591 l -10.850849,0 m 0.01506,4.547776 c -0.712473,0 -1.286592,0.573177 -1.286592,1.284709 l 0,0.04235 c 0,0.712472 0.575061,1.284708 1.286592,1.284708 l 10.669201,0 c 0.712473,0 1.286592,-0.573177 1.286592,-1.284708 l 0,-0.04235 c 0,-0.712473 -0.57506,-1.284709 -1.286592,-1.284709 l -10.669201,0 m 0.01506,4.696481 c -0.708707,0 -1.279061,0.570355 -1.279061,1.279062 0,0.708708 0.570354,1.279062 1.279061,1.279062 l 10.82732,0 c 0.708708,0 1.279062,-0.570354 1.279062,-1.279062 0,-0.708707 -0.570354,-1.279062 -1.279062,-1.279062 l -10.82732,0"
       id="path31"
       inkscape:connector-curvature="0"
       style="fill:#ff5555;fill-rule:evenodd" />
  </g>
</svg>
