<?xml version="1.0" encoding="UTF-8" standalone="no"?>
<svg
   xmlns:dc="http://purl.org/dc/elements/1.1/"
   xmlns:cc="http://creativecommons.org/ns#"
   xmlns:rdf="http://www.w3.org/1999/02/22-rdf-syntax-ns#"
   xmlns:svg="http://www.w3.org/2000/svg"
   xmlns="http://www.w3.org/2000/svg"
   xmlns:xlink="http://www.w3.org/1999/xlink"
   xmlns:sodipodi="http://sodipodi.sourceforge.net/DTD/sodipodi-0.dtd"
   xmlns:inkscape="http://www.inkscape.org/namespaces/inkscape"
   viewBox="0 0 48 48"
   id="svg2"
   version="1.1"
   inkscape:version="0.91 r13725"
   sodipodi:docname="mameexecutor.svg">
  <metadata
     id="metadata28">
    <rdf:RDF>
      <cc:Work
         rdf:about="">
        <dc:format>image/svg+xml</dc:format>
        <dc:type
           rdf:resource="http://purl.org/dc/dcmitype/StillImage" />
        <dc:title></dc:title>
      </cc:Work>
    </rdf:RDF>
  </metadata>
  <sodipodi:namedview
     pagecolor="#ffffff"
     bordercolor="#666666"
     borderopacity="1"
     objecttolerance="10"
     gridtolerance="10"
     guidetolerance="10"
     inkscape:pageopacity="0"
     inkscape:pageshadow="2"
     inkscape:window-width="1280"
     inkscape:window-height="694"
     id="namedview26"
     showgrid="false"
     inkscape:zoom="4.9166667"
     inkscape:cx="-9.1525424"
     inkscape:cy="24"
     inkscape:window-x="0"
     inkscape:window-y="0"
     inkscape:window-maximized="1"
     inkscape:current-layer="svg2" />
  <defs
     id="defs4">
    <linearGradient
       xlink:href="#1"
       id="3"
       x1="-.584"
       y1="32.785"
       x2="-.625"
       y2="21.702"
       gradientUnits="userSpaceOnUse"
       gradientTransform="matrix(1.71427,0,0,1.71427,25.789,-26.488)" />
    <linearGradient
       gradientTransform="matrix(1.0908929,0,0,1.0652817,-421.70404,-535.04334)"
       gradientUnits="userSpaceOnUse"
       y2="507.8"
       x2="0"
       y1="542.8"
       id="2">
      <stop
         stop-color="#141414"
         id="stop8" />
      <stop
         offset="1"
         stop-color="#2d2d2f"
         id="stop10" />
    </linearGradient>
    <linearGradient
       xlink:href="#1"
       id="0"
       x1="-.315"
       y1="38.623"
       x2="-.17"
       y2="30.992"
       gradientUnits="userSpaceOnUse"
       gradientTransform="matrix(1.71427,0,0,1.71427,25.789,-26.488)" />
    <linearGradient
       id="1">
      <stop
         stop-color="#00cafe"
         id="stop14" />
      <stop
         offset="1"
         stop-color="#1460f3"
         id="stop16" />
    </linearGradient>
  </defs>
  <g
     id="g4159"
     style="fill:#0044aa"
     transform="matrix(1.0693129,0,0,1.6997521,-1.5623598,-17.534246)">
    <path
       d="m 9.5822914,38.354263 c 0,-0.03771 0.7285646,-0.783422 1.6182706,-1.657699 l 1.618271,-1.589129 0,-1.285702 c 0,-0.706279 -0.05143,-1.285703 -0.113142,-1.285703 -0.06171,0 -0.839992,0.730279 -1.731412,1.6217 l -1.6165569,1.621699 -0.073714,-1.923411 -0.073714,-1.923411 -1.8394117,1.767413 -1.8394117,1.767412 -1.7656981,0.0069 -1.7656981,0.0069 4.4879589,-4.491387 4.4879586,-4.491388 0.07371,1.897697 0.07371,1.897697 1.986839,-1.882268 1.986839,-1.882269 0.07371,3.075401 0.07371,3.0754 3.128543,-3.113114 3.128543,-3.113115 0,3.485111 c 0,1.916554 0.04114,3.485111 0.09086,3.485111 0.04971,0 1.705699,-1.565128 3.678823,-3.476539 l 3.587968,-3.47654 0,1.858269 c 0,1.021705 0.05143,1.858268 0.113141,1.858268 0.06171,0 0.971991,-0.862277 2.024553,-1.916553 l 1.911411,-1.916554 0.07371,3.025686 0.07371,3.025687 3.017115,-2.943402 3.017115,-2.943401 3.462825,-0.0051 3.462826,-0.0051 -1.097133,1.10399 -1.097133,1.10399 -1.794841,0 c -1.71427,0 -1.815411,0.0017 -2.249122,0.380568 -0.248569,0.209141 -0.452567,0.440567 -0.452567,0.515995 0,0.07371 0.378854,0.133713 0.843421,0.133713 l 0.843421,0 -1.170847,1.177704 -1.170846,1.177703 -0.968563,0 c -0.913706,0 -0.995991,0.02914 -1.467415,0.515995 l -0.498852,0.515996 3.046257,0 c 1.674842,0 3.046258,0.05657 3.046258,0.126856 0,0.06857 -0.524566,0.599994 -1.163989,1.177703 l -1.16399,1.050848 -4.748527,0 -4.748528,0 0.320568,-0.34114 c 0.270855,-0.287998 0.320569,-0.512567 0.320569,-1.472558 0,-0.62228 -0.04114,-1.131418 -0.09257,-1.131418 -0.05143,0 -0.846849,0.70285 -1.765698,1.559985 l -1.673128,1.559986 0,-1.962839 0,-1.962839 -1.878839,1.873697 -1.87884,1.873697 -2.021125,0 -2.021124,0 0,-1.472558 c 0,-0.809135 -0.04971,-1.469129 -0.109713,-1.465701 -0.06,0.0034 -1.467415,1.32856 -3.128543,2.943402 l -3.017115,2.936544 -1.731413,0 c -0.95142,0 -1.7314124,-0.03086 -1.7314124,-0.06857"
       id="path22"
       style="fill:#0044aa"
       inkscape:connector-curvature="0" />
    <path
       d="m 18.48621,10.524804 c -0.111428,0 -0.138856,0.09257 -0.138856,0.205712 l 0,1.215417 c 0,0.111428 0.02743,0.195427 0.138856,0.195427 l 1.222274,0 c 0.111428,0 0.20057,-0.08743 0.198856,-0.198855 -0.0034,-0.404568 -0.0034,-0.81085 -0.0034,-1.215418 0,-0.111427 -0.08914,-0.200569 -0.20057,-0.200569 l -1.217131,0 m 9.821053,0 c -0.111428,0 -0.263998,0.09086 -0.263998,0.202284 l 0,1.222274 c 0,0.111428 0.121713,0.202284 0.233141,0.20057 0.404567,-0.0034 0.795421,-0.0034 1.199989,-0.0034 0.111427,0 0.185141,-0.09086 0.185141,-0.202284 l 0,-1.217131 c 0,-0.111428 -0.02743,-0.202284 -0.138856,-0.202284 l -1.215417,0 m -8.154783,1.623414 c -0.111427,0 -0.186855,0.08914 -0.186855,0.200569 l 0,1.249703 c 0,0.111428 -0.143999,0.157713 -0.255426,0.157713 l -1.239418,0 c -0.111427,0 -0.121713,0.135427 -0.121713,0.246855 l 0,1.234274 c 0,0.111428 -0.171427,0.135427 -0.282854,0.135427 l -1.235989,0 c -0.111428,0 -0.298283,0.157713 -0.298283,0.269141 l 0,1.235988 c 0,0.111428 0.0051,0.109714 -0.106285,0.109714 l -1.217131,0 c -0.111428,0 -0.293141,0.183427 -0.293141,0.294854 l 0,4.477673 c 0,0.111428 0.181713,0.277712 0.293141,0.277712 l 1.217131,0 c 0.111428,0 0.106285,-0.166284 0.106285,-0.277712 l 0,-2.849116 c 0,-0.111428 0.185141,-0.106285 0.296569,-0.106285 l 1.249703,0 c 0.111427,0 0.270854,-0.0051 0.270854,0.106285 l 0,2.869688 c 0,0.111427 0.05657,0.200569 0.167999,0.200569 0.414853,0 0.833135,1.72e-4 1.23256,0.0034 0.111427,1.71e-4 0.215998,-0.08914 0.215998,-0.20057 l 0,-1.230846 c 0,-0.111427 0.02571,-0.131998 0.137141,-0.131998 l 7.806786,0 c 0.111428,0 0.20057,0.05657 0.20057,0.167998 0,0.414853 0,0.833135 -0.0034,1.235989 0,0.111427 0.08914,0.212569 0.20057,0.212569 l 1.230845,0 c 0.111428,0 0.123428,-0.147427 0.123428,-0.260569 l 0,-2.864545 c 0,-0.111428 0.167998,-0.107999 0.279426,-0.107999 l 1.25656,0 c 0.111427,0 0.282854,-0.0034 0.282854,0.107999 l 0,2.847402 c 0,0.111428 0.01029,0.277712 0.121714,0.277712 l 1.201703,0 c 0.111427,0 0.29314,-0.166284 0.29314,-0.277712 l 0,-4.486244 c 0,-0.111428 -0.181713,-0.286283 -0.29314,-0.286283 l -1.229132,0 c -0.111427,0 -0.296568,-0.0051 -0.296568,-0.116571 l 0,-1.239417 c 0,-0.111427 0.0069,-0.25714 -0.106285,-0.25714 l -1.234275,0 c -0.111427,0 -0.275997,-0.03429 -0.275997,-0.145713 l 0,-1.23256 c 0,-0.111428 -0.0017,-0.238284 -0.12857,-0.238284 l -1.230846,0 c -0.111428,0 -0.257141,-0.05486 -0.257141,-0.166284 l 0,-1.239417 c 0,-0.111428 -0.06171,-0.20057 -0.173141,-0.198856 -0.402853,0.0034 -0.815992,0.0034 -1.234274,0.0034 -0.111428,0 -0.207427,0.08914 -0.207427,0.200569 l 0,1.229132 c 0,0.111428 -0.04971,0.171427 -0.162856,0.171427 l -4.53253,0 c -0.111427,0 -0.15257,-0.06 -0.15257,-0.171427 l 0,-1.229132 c 0,-0.111427 -0.114856,-0.202283 -0.226283,-0.202283 -0.414854,0 -0.802279,0 -1.201703,-0.0034 m -0.04457,3.224542 1.234275,0 c 0.111427,0 0.238283,0.143999 0.238283,0.255426 0,0.411425 0,0.819421 0,1.23256 0,0.111428 -0.126856,0.126856 -0.238283,0.126856 l -1.234275,0 c -0.111427,0 -0.142284,-0.01543 -0.142284,-0.126856 l 0,-1.23256 c 0,-0.111427 0.03086,-0.255426 0.142284,-0.255426 m 6.558798,0 1.23256,0 c 0.111427,0 0.143998,0.145713 0.143998,0.25714 l 0,1.234275 c 0,0.111427 -0.03257,0.123427 -0.143998,0.123427 l -1.23256,0 c -0.111428,0 -0.238284,-0.012 -0.238284,-0.123427 l 0,-1.234275 c 0,-0.111427 0.126856,-0.25714 0.238284,-0.25714 m -6.562226,6.615368 c -0.111428,0 -0.202284,0.09086 -0.20057,0.202284 0.0034,0.404567 0.0034,0.834849 0.0034,1.237703 0,0.111427 0.08743,0.224569 0.198855,0.224569 l 2.857688,0 c 0.111428,0 0.233141,-0.138856 0.233141,-0.250283 l 0,-1.205132 c 0,-0.111428 -0.10457,-0.203998 -0.215998,-0.202284 -0.303426,0 -0.611994,0 -0.910277,0 -0.653137,-1.71e-4 -1.311417,-0.0051 -1.964554,-0.0086 m 7.875357,0.0034 c -0.03086,1.72e-4 -0.048,0.02571 -0.08057,0.02571 -0.961706,0 -1.907983,0.02229 -2.869688,0.02229 l -0.09257,0 c -0.04971,0 -0.125141,0.048 -0.125141,0.159427 l 0,1.206846 c 0,0.111427 0.125141,0.248569 0.236569,0.248569 l 2.854259,0 c 0.111428,0 0.140571,-0.137142 0.140571,-0.248569 l 0,-1.222275 c 0,-0.111427 -0.012,-0.195426 -0.06514,-0.191998"
       id="path24"
       style="fill:#0044aa"
       inkscape:connector-curvature="0" />
  </g>
</svg>
