<?xml version="1.0" encoding="UTF-8" standalone="no"?>
<svg
   xmlns:dc="http://purl.org/dc/elements/1.1/"
   xmlns:cc="http://creativecommons.org/ns#"
   xmlns:rdf="http://www.w3.org/1999/02/22-rdf-syntax-ns#"
   xmlns:svg="http://www.w3.org/2000/svg"
   xmlns="http://www.w3.org/2000/svg"
   xmlns:sodipodi="http://sodipodi.sourceforge.net/DTD/sodipodi-0.dtd"
   xmlns:inkscape="http://www.inkscape.org/namespaces/inkscape"
   viewBox="0 0 48 48"
   id="svg2"
   version="1.1"
   inkscape:version="0.91 r13725"
   sodipodi:docname="maxthon-browser.svg">
  <metadata
     id="metadata31">
    <rdf:RDF>
      <cc:Work
         rdf:about="">
        <dc:format>image/svg+xml</dc:format>
        <dc:type
           rdf:resource="http://purl.org/dc/dcmitype/StillImage" />
        <dc:title></dc:title>
      </cc:Work>
    </rdf:RDF>
  </metadata>
  <sodipodi:namedview
     pagecolor="#ffffff"
     bordercolor="#666666"
     borderopacity="1"
     objecttolerance="10"
     gridtolerance="10"
     guidetolerance="10"
     inkscape:pageopacity="0"
     inkscape:pageshadow="2"
     inkscape:window-width="1280"
     inkscape:window-height="694"
     id="namedview29"
     showgrid="false"
     inkscape:zoom="4.9166667"
     inkscape:cx="-9.1525424"
     inkscape:cy="24"
     inkscape:window-x="0"
     inkscape:window-y="0"
     inkscape:window-maximized="1"
     inkscape:current-layer="svg2" />
  <defs
     id="defs4">
    <linearGradient
       gradientTransform="matrix(.49433 0 0 .4778 86.64 13.1)"
       gradientUnits="userSpaceOnUse"
       y2="-26.05"
       x2="-125.19"
       y1="73.5"
       x1="-123.97"
       id="0">
      <stop
         stop-color="#197ff1"
         id="stop7" />
      <stop
         offset="1"
         stop-color="#21c6fb"
         id="stop9" />
    </linearGradient>
    <linearGradient
       y1="545.8"
       x2="0"
       y2="517.8"
       gradientUnits="userSpaceOnUse"
       id="linearGradient11">
      <stop
         stop-color="#3889e9"
         id="stop13" />
      <stop
         offset="1"
         stop-color="#5ea5fb"
         id="stop15" />
    </linearGradient>
  </defs>
  <path
     style="fill:#80b3ff"
     inkscape:connector-curvature="0"
     id="path21"
     d="m 23.268,33.841 c -4.538,0 -8.447,1.961 -10.39,4.793 -0.947,-0.807 -2.243,-1.28 -3.659,-1.28 -2.469,0 -4.514,1.512 -5.085,3.549 C 2.521,40.969 1.077,41.433 0,42.11 l 0,2.849 C 0.053,48.036 2.956,48 2.956,48 l 42.27,0 c 0,0 2.775,-0.164 2.775,-2.947 l 0,-2.285 c -0.237,-0.087 -0.475,-0.146 -0.732,-0.146 -0.912,0 -1.732,0.585 -2.268,1.5 -1.144,-2.922 -4.141,-5.01 -7.683,-5.01 -1.077,0 -2.095,0.198 -3.037,0.549 -1.628,-3.381 -5.942,-5.817 -11.01,-5.817" />
  <g
     style="fill:#2a7fff"
     id="g23"
     transform="matrix(1.9894068,0,0,2.9682204,-23.745763,-38.200423)">
    <path
       inkscape:connector-curvature="0"
       id="path25"
       d="m 18,19 12,0 0,10 6,0 0,-10 c 0,-3.314 -2.686,-6 -6,-6 l -18,0 0,16 6,0 0,-10"
       style="fill:#2a7fff" />
    <path
       inkscape:connector-curvature="0"
       id="path27"
       d="m 27,28.12 0,-6.125 -6,0 0,6.125 z"
       style="fill:#2a7fff" />
  </g>
</svg>
