<?xml version="1.0" encoding="UTF-8" standalone="no"?>
<svg
   xmlns:dc="http://purl.org/dc/elements/1.1/"
   xmlns:cc="http://creativecommons.org/ns#"
   xmlns:rdf="http://www.w3.org/1999/02/22-rdf-syntax-ns#"
   xmlns:svg="http://www.w3.org/2000/svg"
   xmlns="http://www.w3.org/2000/svg"
   xmlns:sodipodi="http://sodipodi.sourceforge.net/DTD/sodipodi-0.dtd"
   xmlns:inkscape="http://www.inkscape.org/namespaces/inkscape"
   viewBox="0 0 48 48"
   id="svg2"
   version="1.1"
   inkscape:version="0.91 r13725"
   sodipodi:docname="mongodb.svg">
  <metadata
     id="metadata19">
    <rdf:RDF>
      <cc:Work
         rdf:about="">
        <dc:format>image/svg+xml</dc:format>
        <dc:type
           rdf:resource="http://purl.org/dc/dcmitype/StillImage" />
        <dc:title></dc:title>
      </cc:Work>
    </rdf:RDF>
  </metadata>
  <sodipodi:namedview
     pagecolor="#ffffff"
     bordercolor="#666666"
     borderopacity="1"
     objecttolerance="10"
     gridtolerance="10"
     guidetolerance="10"
     inkscape:pageopacity="0"
     inkscape:pageshadow="2"
     inkscape:window-width="1280"
     inkscape:window-height="694"
     id="namedview17"
     showgrid="false"
     inkscape:zoom="4.9166667"
     inkscape:cx="-9.1525424"
     inkscape:cy="24"
     inkscape:window-x="0"
     inkscape:window-y="0"
     inkscape:window-maximized="1"
     inkscape:current-layer="svg2" />
  <defs
     id="defs4">
    <linearGradient
       id="0"
       x1="24.2"
       y1="47.593"
       x2="25.627"
       y2="0"
       gradientUnits="userSpaceOnUse">
      <stop
         stop-color="#74cb32"
         id="stop7" />
      <stop
         offset="1"
         stop-color="#abeb6b"
         id="stop9" />
    </linearGradient>
  </defs>
  <path
     style="fill:#2d5016"
     inkscape:connector-curvature="0"
     id="path15"
     d="m 40.544011,0.44078306 c 0,0 -5.4059,3.77703054 -11.251473,5.30028654 C -13.998772,17.01981 4.2588106,38.998846 4.8545682,39.070937 c 0,0 2.4275925,-3.044969 5.7068788,-4.781749 20.808616,-11.0187 25.038494,-23.701487 25.038494,-23.701487 0,0 -4.669547,15.261741 -23.182113,24.757956 -4.0892809,2.096291 -6.8571683,7.257975 -8.0296188,12.416741 0,0 2.8983584,-0.84346 4.144684,-1.071917 0.4860193,-2.284413 1.5021438,-4.47219 3.2206668,-6.42593 C 37.627304,42.483394 46.101356,27.46676 47.208273,22.229897 49.821147,9.8629332 40.544371,0.44052567 40.544371,0.44052567" />
</svg>
