<?xml version="1.0" encoding="UTF-8" standalone="no"?>
<svg
   xmlns:dc="http://purl.org/dc/elements/1.1/"
   xmlns:cc="http://creativecommons.org/ns#"
   xmlns:rdf="http://www.w3.org/1999/02/22-rdf-syntax-ns#"
   xmlns:svg="http://www.w3.org/2000/svg"
   xmlns="http://www.w3.org/2000/svg"
   xmlns:sodipodi="http://sodipodi.sourceforge.net/DTD/sodipodi-0.dtd"
   xmlns:inkscape="http://www.inkscape.org/namespaces/inkscape"
   viewBox="0 0 48 48"
   id="svg2"
   version="1.1"
   inkscape:version="0.91 r13725"
   sodipodi:docname="multisystem.svg">
  <metadata
     id="metadata52">
    <rdf:RDF>
      <cc:Work
         rdf:about="">
        <dc:format>image/svg+xml</dc:format>
        <dc:type
           rdf:resource="http://purl.org/dc/dcmitype/StillImage" />
        <dc:title></dc:title>
      </cc:Work>
    </rdf:RDF>
  </metadata>
  <sodipodi:namedview
     pagecolor="#ffffff"
     bordercolor="#666666"
     borderopacity="1"
     objecttolerance="10"
     gridtolerance="10"
     guidetolerance="10"
     inkscape:pageopacity="0"
     inkscape:pageshadow="2"
     inkscape:window-width="1280"
     inkscape:window-height="694"
     id="namedview50"
     showgrid="false"
     inkscape:zoom="4.9166667"
     inkscape:cx="21.81161"
     inkscape:cy="21.517627"
     inkscape:window-x="0"
     inkscape:window-y="0"
     inkscape:window-maximized="1"
     inkscape:current-layer="g26" />
  <defs
     id="defs4">
    <linearGradient
       y2="147.64"
       x2="3.419"
       y1="204.55"
       x1=".967"
       gradientUnits="userSpaceOnUse"
       id="3"
       gradientTransform="matrix(0.43368,-3.1e-4,3.3e-4,0.41341,32.05,-92.76)">
      <stop
         stop-color="#ec396c"
         id="stop7" />
      <stop
         offset="1"
         stop-color="#ff709a"
         id="stop9" />
    </linearGradient>
    <linearGradient
       gradientTransform="matrix(0.43368,-3.1e-4,3.3e-4,0.41341,31.937,-92.88)"
       id="2"
       gradientUnits="userSpaceOnUse"
       x1="22.642"
       y1="221.25"
       x2="24.303"
       y2="154.71">
      <stop
         stop-color="#0a80fd"
         id="stop12" />
      <stop
         offset="1"
         stop-color="#56c5fa"
         id="stop14" />
    </linearGradient>
    <linearGradient
       gradientTransform="matrix(0.43368,-3.1e-4,3.3e-4,0.41341,31.937,-92.88)"
       id="0"
       gradientUnits="userSpaceOnUse"
       x1="23.609"
       y1="265.85"
       x2="23.856"
       y2="184.57">
      <stop
         stop-color="#3585df"
         id="stop17" />
      <stop
         offset="1"
         stop-color="#a0dff0"
         id="stop19" />
    </linearGradient>
    <linearGradient
       id="1"
       gradientUnits="userSpaceOnUse"
       x1="23.69"
       y1="264.74"
       x2="24.18"
       y2="208.2"
       gradientTransform="matrix(0.43556,-3.1e-4,3.3e-4,0.41341,31.893,-92.88)">
      <stop
         stop-color="#4469b9"
         id="stop22" />
      <stop
         offset="1"
         stop-color="#5d91ff"
         id="stop24" />
    </linearGradient>
  </defs>
  <g
     transform="matrix(.99999 0 0 .99999-18.371 30.882)"
     enable-background="new"
     id="g26">
    <path
       style="fill:#5599ff;fill-opacity:0.85;fill-rule:evenodd"
       inkscape:connector-curvature="0"
       id="path38"
       d="m 54.223049,-30.71158 c -1.039294,2.615491 -1.667271,4.32789 -2.825051,6.865228 0.709225,0.772837 1.580945,1.670719 2.99601,2.686696 -1.521702,-0.642584 -2.559304,-1.286905 -3.334543,-1.957275 -1.482771,3.172975 -3.803409,7.691904 -8.514086,16.3789442 3.703543,-2.1934689 6.574297,-3.5463692 9.248701,-4.0621732 -0.115101,-0.50712 -0.179422,-1.055921 -0.176036,-1.627301 l 0.0034,-0.121569 c 0.05924,-2.434873 1.293193,-4.30705 2.755652,-4.178533 1.46246,0.12678 2.598235,2.203889 2.538992,4.638762 -0.01185,0.458493 -0.06094,0.897881 -0.148954,1.307745 2.64563,0.531435 5.485915,1.8808607 9.138678,4.0430692 -0.721074,-1.359847 -1.362592,-2.5877034 -1.977028,-3.7547742 -0.96651,-0.769364 -1.975336,-1.769711 -4.033612,-2.85342 1.415065,0.376866 2.427276,0.812782 3.216056,1.299061 -6.242534,-11.926011 -6.746947,-13.509895 -8.888164,-18.66446" />
    <path
       style="fill:#ff5599;fill-opacity:0.85"
       inkscape:connector-curvature="0"
       id="path42"
       ns2:knockout="Off"
       d="m 31.752088,-6.4555956 c -4.077967,-1.3311782 -6.50043,-2.9662861 -9.15485,-6.6134424 -0.650978,-1.005176 -1.85005,-3.246445 -1.805155,-6.173679 -0.106626,-2.918744 1.518949,-6.280648 4.551236,-8.075361 2.927532,-1.893194 6.706199,-1.922058 8.954693,-1.174969 2.317708,0.781049 3.258633,2.083362 3.284822,2.020539 -0.07108,0.01528 1.242096,1.018758 1.827603,3.2006 0.652849,2.096945 -0.0094,5.574309 -3.196902,6.998873 -1.466572,0.713131 -3.370871,0.842174 -4.863631,0.332795 -1.492761,-0.546734 -2.575854,-1.747172 -2.936885,-3.000245 -0.787534,-2.767628 1.526432,-4.302558 2.547794,-4.460466 4.152793,-1.256469 6.257249,4.642145 1.399229,5.144732 2.214823,0.670683 4.496988,-1.390605 4.063003,-3.492644 -0.08792,-2.102039 -2.890119,-4.187099 -5.980396,-3.331342 -0.808111,0.202054 -2.02963,0.716527 -2.985521,1.872819 -0.980209,1.149499 -1.425418,2.951004 -0.916607,4.703269 0.497587,1.760755 2.009053,3.446801 4.11538,4.204079 2.126903,0.713131 4.495117,0.509379 6.451794,-0.415994 4.17524,-1.874516 5.01141,-6.443649 4.180852,-8.956588 -0.731416,-2.701408 -2.349508,-3.9392 -2.26533,-3.957878 -0.02993,0.07301 -1.19346,-1.531534 -4.066744,-2.506146 -2.811553,-0.930467 -7.192562,-0.864247 -10.701859,1.368532 -3.591604,2.090154 -5.535186,6.19745 -5.394889,9.506718 -0.04864,3.361904 1.331887,5.93427 2.085749,7.078676 3.036029,4.20238 6.515395,5.5165789 10.810356,5.7254244" />
    <path
       style="opacity:0.85;fill:#5f8dd3;stroke:none;stroke-width:0.223"
       inkscape:connector-curvature="0"
       id="path44"
       d="m 30.525088,-5.9598373 c -6.389362,0 -11.570709,5.08859419 -11.570709,11.3673168 0,6.2770495 5.179643,11.3673175 11.570709,11.3673175 6.389362,0 11.570709,-5.088594 11.570709,-11.3673175 0,-6.27704873 -5.179643,-11.3673168 -11.570709,-11.3673168 z m 0,0.9474159 c 4.857619,0 8.953626,3.2088273 10.209349,7.5876965 -1.081932,2.1927824 -2.620491,4.1662872 -4.496408,5.7598206 -0.901326,0.7666369 -1.884435,1.4495798 -2.969775,1.9299833 -1.08534,0.480403 -2.281428,0.753246 -3.470702,0.686291 -0.892806,-0.05022 -1.777094,-0.294603 -2.559152,-0.721442 2.073561,-1.1047611 3.944366,-2.5761013 5.476109,-4.3386966 1.00526,-1.1566515 1.884436,-2.4723209 2.223498,-3.9553783 0.168679,-0.7415287 0.197645,-1.51988275 0.03919,-2.2647592 -0.158456,-0.7448765 -0.509445,-1.4546014 -1.039336,-2.0086556 -0.517964,-0.5406631 -1.197792,-0.9256555 -1.927032,-1.1231733 -0.729239,-0.1975178 -1.504481,-0.2125827 -2.249055,-0.078672 -1.487443,0.2678207 -2.816431,1.1164777 -3.881324,2.1710219 -1.877621,1.85968034 -3.039633,4.4826498 -2.826654,7.0939027 0.107341,1.3056262 0.552041,2.587818 1.315356,3.6624487 0.170383,0.2393648 0.357805,0.4686863 0.558857,0.684617 -1.110897,0.381644 -2.262686,0.654487 -3.424698,0.80681 -1.001852,-1.5918597 -1.581155,-3.466605 -1.581155,-5.4752612 0,-5.75479834 4.748574,-10.419901 10.606341,-10.419901 z m 0.06815,2.1057406 c 0.746278,1.674e-4 1.495963,0.222626 2.090599,0.6645302 0.536707,0.3983834 0.933699,0.9641547 1.158605,1.58516408 0.224905,0.62100936 0.282835,1.29725675 0.206163,1.95174372 C 33.895263,2.605405 33.222251,3.8089244 32.40782,4.858447 30.968084,6.718128 29.052979,8.206207 26.923191,9.249034 26.705101,9.3561623 26.483603,9.4565951 26.262105,9.555354 25.798664,9.1569706 25.401671,8.6849366 25.09839,8.1576645 24.466269,7.0579255 24.256698,5.7506255 24.379373,4.4935412 c 0.122676,-1.2570836 0.562264,-2.4706464 1.151789,-3.59214575 0.68494,-1.30227838 1.616935,-2.53425385 2.922069,-3.24230495 0.652567,-0.3531886 1.392029,-0.5674452 2.136602,-0.5657713 z m 10.442773,6.9198186 c 0.06134,0.4569691 0.09541,0.9223076 0.09541,1.3943417 0,5.7547985 -4.748574,10.4199015 -10.606341,10.4199015 -3.290096,0 -6.229202,-1.47134 -8.174976,-3.781294 1.2012,-0.267821 2.375139,-0.652813 3.499667,-1.14326 0.492406,0.368254 1.035928,0.671226 1.613526,0.88883 1.664642,0.626031 3.55419,0.535642 5.237574,-0.03683 1.685087,-0.572467 3.177642,-1.600229 4.479368,-2.797053 1.550486,-1.4244716 2.859027,-3.1033729 3.854064,-4.9463151 z" />
    <g
       id="g4197"
       transform="matrix(1.1706718,0,0,1.1279775,587.41254,152.38326)"
       style="color:#000000;fill:#3771c8">
      <circle
         id="ellipse4199"
         cx="-462.60999"
         cy="-130.50999"
         r="2.5"
         style="fill:#3771c8" />
      <circle
         id="ellipse4201"
         cx="-458.10999"
         cy="-123.01"
         r="3"
         style="fill:#3771c8" />
      <circle
         id="ellipse4203"
         cx="-460.60999"
         cy="-138.50999"
         r="1.5"
         style="fill:#3771c8" />
      <path
         id="path4205"
         d="m -452.11,-140.01 -2.844,2.844 4.375,4.375 -4.531,5.156 3,2.625 7,-8 -7,-7"
         inkscape:connector-curvature="0"
         style="fill:#3771c8" />
    </g>
  </g>
</svg>
