<?xml version="1.0" encoding="UTF-8" standalone="no"?>
<svg
   xmlns:dc="http://purl.org/dc/elements/1.1/"
   xmlns:cc="http://creativecommons.org/ns#"
   xmlns:rdf="http://www.w3.org/1999/02/22-rdf-syntax-ns#"
   xmlns:svg="http://www.w3.org/2000/svg"
   xmlns="http://www.w3.org/2000/svg"
   xmlns:sodipodi="http://sodipodi.sourceforge.net/DTD/sodipodi-0.dtd"
   xmlns:inkscape="http://www.inkscape.org/namespaces/inkscape"
   viewBox="0 0 48 48"
   id="svg2"
   version="1.1"
   inkscape:version="0.91 r13725"
   sodipodi:docname="musescore.svg">
  <metadata
     id="metadata19">
    <rdf:RDF>
      <cc:Work
         rdf:about="">
        <dc:format>image/svg+xml</dc:format>
        <dc:type
           rdf:resource="http://purl.org/dc/dcmitype/StillImage" />
        <dc:title></dc:title>
      </cc:Work>
    </rdf:RDF>
  </metadata>
  <sodipodi:namedview
     pagecolor="#ffffff"
     bordercolor="#666666"
     borderopacity="1"
     objecttolerance="10"
     gridtolerance="10"
     guidetolerance="10"
     inkscape:pageopacity="0"
     inkscape:pageshadow="2"
     inkscape:window-width="1280"
     inkscape:window-height="694"
     id="namedview17"
     showgrid="false"
     inkscape:zoom="4.9166667"
     inkscape:cx="-9.1525424"
     inkscape:cy="24"
     inkscape:window-x="0"
     inkscape:window-y="0"
     inkscape:window-maximized="1"
     inkscape:current-layer="svg2" />
  <defs
     id="defs4">
    <linearGradient
       gradientUnits="userSpaceOnUse"
       y2="1.017"
       x2="26.442"
       y1="47.39"
       x1="26.881"
       id="0"
       gradientTransform="matrix(0.99993369,0,0,0.99993369,0.00228757,0.00170063)">
      <stop
         stop-color="#841ac8"
         id="stop7" />
      <stop
         offset="1"
         stop-color="#b92ff5"
         id="stop9" />
    </linearGradient>
  </defs>
  <path
     style="fill:#aa00d4;stroke:none;stroke-width:1.71427;stroke-opacity:1"
     inkscape:connector-curvature="0"
     id="path15"
     d="m 38.276023,0.49286732 c -5.038921,0 -10.141403,3.88311478 -10.141403,11.29303268 l 0.864396,0 c 0,-6.726991 4.66774,-10.2471993 9.277007,-10.2471993 2.341497,0 4.499946,0.8973733 6.076197,2.5238602 1.777099,1.8343343 2.71268,4.5066564 2.71268,7.7266381 l 0.866938,0 c 0,-3.5334027 -1.047444,-6.4828534 -3.020303,-8.5217361 C 43.180202,1.4793175 40.823449,0.49286732 38.276023,0.49286732 Z m 0.05084,9.45209958 c -0.57457,0 -1.039818,0.5608581 -1.039818,1.2536831 0,0.689524 0.462706,1.247083 1.039818,1.247083 0.574568,0 1.037275,-0.557559 1.037275,-1.247083 0,-0.689525 -0.462707,-1.2536831 -1.037275,-1.2536831 z M 8.9195888,18.595371 c -0.9076149,0 -1.7694697,0.197951 -2.5881039,0.600448 -0.7881266,0.362909 -1.5126923,0.894074 -2.1787873,1.586897 -0.6660939,0.692824 -1.2279508,1.491222 -1.6804882,2.401791 -0.4550792,0.910569 -0.7855836,1.910214 -0.9991404,3.002238 l -0.094067,0 0,-6.93484 -0.90507383,0 0,28.062677 0.90507383,0 0,-15.885467 c 0,-1.567104 0.1677946,-3.058325 0.5008414,-4.476964 0.3635549,-1.41864 0.8643964,-2.655826 1.4999822,-3.711557 0.6660927,-1.092024 1.4669322,-1.953104 2.4050559,-2.570049 0.9381237,-0.656534 1.9804832,-0.97985 3.129624,-0.97985 1.3016788,0 2.3643778,0.254034 3.1804688,0.762105 0.818634,0.508071 1.449135,1.204196 1.904215,2.075174 0.452537,0.874278 0.757618,1.89042 0.910158,3.055024 0.183049,1.164606 0.274572,2.40509 0.274572,3.714857 l 0,18.016727 0.905074,0 0,-17.798982 c 0,-1.309767 0.167796,-2.546953 0.500843,-3.711558 0.333046,-1.200896 0.813549,-2.259927 1.449135,-3.170495 0.635585,-0.91057 1.408457,-1.619889 2.316074,-2.13126 0.907615,-0.54766 1.92201,-0.818192 3.04064,-0.818192 1.271171,0 2.318617,0.217744 3.134708,0.653234 0.8466,0.435492 1.512695,1.055733 1.998283,1.85743 0.513552,0.801697 0.861852,1.765051 1.044902,2.893365 0.211014,1.128314 0.31525,2.388594 0.31525,3.770942 l 0.03051,10.319782 c 0.05085,1.121715 0.124576,2.121359 0.41186,3.055023 0.424572,1.237186 0.996598,2.296218 1.723708,3.170495 0.757619,0.837988 1.634727,1.471428 2.633867,1.906916 1.029648,0.3992 2.15082,0.600449 3.360976,0.600449 2.300819,0 4.159271,-0.70602 5.582984,-2.12466 1.451677,-1.41864 2.392344,-3.223283 2.814373,-5.410628 l 0.09407,0 0,6.934839 0.897446,0 0.0076,0 0,-28.062675 -0.905074,0 0,15.885468 c 0,1.567101 -0.180507,3.058322 -0.544061,4.476962 -0.363556,1.42194 -0.907617,2.678919 -1.634727,3.770943 -0.696602,1.055732 -1.573709,1.910215 -2.633867,2.566749 -1.060155,0.620243 -2.285564,0.927065 -3.678768,0.927065 -0.99914,0 -1.95252,-0.161661 -2.860135,-0.491575 -0.877108,-0.362908 -1.667777,-0.91057 -2.364379,-1.639685 -0.666093,-0.765404 -1.194901,-1.708965 -1.588963,-2.83728 -0.394064,-1.164603 -0.429657,-2.606337 -0.429657,-4.242722 l -0.0076,-8.805466 c 0,-1.527512 -0.124576,-2.913159 -0.366098,-4.150345 -0.241523,-1.273478 -0.65084,-2.345705 -1.225409,-3.219984 -0.574569,-0.910568 -1.327103,-1.619887 -2.26777,-2.131258 -0.938125,-0.51137 -2.120313,-0.762108 -3.544026,-0.762108 -1.817774,0 -3.391484,0.597149 -4.72367,1.798046 -1.332188,1.200894 -2.224549,2.79109 -2.679629,4.757392 l -0.08898,0 C 15.509348,23.075635 14.693256,21.449148 13.452592,20.284544 12.242439,19.083647 10.727202,18.52279 8.9119696,18.595371 Z" />
</svg>
