<?xml version="1.0" encoding="UTF-8" standalone="no"?>
<svg
   xmlns:dc="http://purl.org/dc/elements/1.1/"
   xmlns:cc="http://creativecommons.org/ns#"
   xmlns:rdf="http://www.w3.org/1999/02/22-rdf-syntax-ns#"
   xmlns:svg="http://www.w3.org/2000/svg"
   xmlns="http://www.w3.org/2000/svg"
   xmlns:sodipodi="http://sodipodi.sourceforge.net/DTD/sodipodi-0.dtd"
   xmlns:inkscape="http://www.inkscape.org/namespaces/inkscape"
   viewBox="0 0 48 48"
   id="svg2"
   version="1.1"
   inkscape:version="0.91 r13725"
   sodipodi:docname="notifyosdconf.svg">
  <metadata
     id="metadata24">
    <rdf:RDF>
      <cc:Work
         rdf:about="">
        <dc:format>image/svg+xml</dc:format>
        <dc:type
           rdf:resource="http://purl.org/dc/dcmitype/StillImage" />
        <dc:title></dc:title>
      </cc:Work>
    </rdf:RDF>
  </metadata>
  <sodipodi:namedview
     pagecolor="#ffffff"
     bordercolor="#666666"
     borderopacity="1"
     objecttolerance="10"
     gridtolerance="10"
     guidetolerance="10"
     inkscape:pageopacity="0"
     inkscape:pageshadow="2"
     inkscape:window-width="1280"
     inkscape:window-height="694"
     id="namedview22"
     showgrid="false"
     inkscape:zoom="4.9166667"
     inkscape:cx="-9.1525424"
     inkscape:cy="24"
     inkscape:window-x="0"
     inkscape:window-y="0"
     inkscape:window-maximized="1"
     inkscape:current-layer="svg2" />
  <defs
     id="defs4">
    <linearGradient
       id="0"
       gradientUnits="userSpaceOnUse"
       x1="3.147"
       x2="18.772">
      <stop
         stop-color="#e6f3ff"
         id="stop7" />
      <stop
         offset="1"
         stop-color="#dcffe7"
         id="stop9" />
    </linearGradient>
    <linearGradient
       id="1"
       x1="409.57"
       y1="542.8"
       x2="409.94"
       y2="501.23"
       gradientUnits="userSpaceOnUse"
       gradientTransform="matrix(1.0909108,0,0,1.0652853,-421.70943,-535.05257)">
      <stop
         stop-color="#197cf1"
         id="stop12" />
      <stop
         offset="1"
         stop-color="#20bcfa"
         id="stop14" />
    </linearGradient>
  </defs>
  <path
     style="fill:#2a7fff;fill-opacity:1"
     inkscape:connector-curvature="0"
     id="path20"
     d="m 47.825966,20.010768 c -0.166279,-0.21685 -0.381393,-0.345962 -0.652563,-0.386976 l -5.686201,-0.866237 c -0.310838,-0.99004 -0.73571,-2.000586 -1.274237,-3.032017 0.372622,-0.515717 0.931744,-1.242583 1.677371,-2.181354 0.745624,-0.93877 1.273855,-1.624242 1.584689,-2.05755 0.165898,-0.227095 0.248287,-0.464068 0.248287,-0.711672 0,-0.288619 -0.07208,-0.515338 -0.217401,-0.680533 C 42.760287,9.0421091 41.051263,7.2891278 38.378835,4.8343484 38.130929,4.628125 37.871582,4.5252208 37.602698,4.5252208 c -0.310835,0 -0.559503,0.092675 -0.746006,0.2779853 L 32.444729,8.1139699 C 31.594982,7.6806619 30.662857,7.2990025 29.647969,6.9670894 L 28.77801,1.2744598 C 28.757381,1.0063493 28.638031,0.78456708 28.420643,0.60911757 28.20286,0.43365913 27.94962,0.34632285 27.658999,0.34632285 l -6.899414,0 c -0.600695,0 -0.973698,0.28861898 -1.118627,0.86623645 C 19.371692,2.2436115 19.071156,4.1617904 18.739725,6.9659507 17.766024,7.2758372 16.825128,7.667751 15.91207,8.1420736 L 11.624066,4.8313098 C 11.354801,4.6251087 11.085538,4.5221824 10.816273,4.5221824 c -0.455764,0 -1.4344215,0.7371197 -2.9363508,2.2121136 -1.5019292,1.4749939 -2.5217755,2.5835189 -3.0625923,3.325954 -0.186504,0.268111 -0.279561,0.505463 -0.279561,0.711673 0,0.247604 0.1033648,0.495211 0.3104537,0.742436 1.3878924,1.670951 2.4962236,3.093917 3.3249917,4.27004 -0.5179332,0.948646 -0.9218295,1.897672 -1.2116888,2.846316 l -5.7781163,0.866237 c -0.2276905,0.0414 -0.4244906,0.175459 -0.59039579,0.402547 -0.16589846,0.226717 -0.24867056,0.464068 -0.24867056,0.711293 l 0,6.869892 c 0,0.268492 0.0827586,0.510399 0.24867056,0.726862 0.16589845,0.216851 0.38139381,0.346345 0.65256459,0.387358 l 5.6865817,0.835476 c 0.2898593,1.010546 0.71435,2.031346 1.2738554,3.06088 -0.3726225,0.515717 -0.9321278,1.242582 -1.6777517,2.181354 -0.7456259,0.93877 -1.2742365,1.624239 -1.5846924,2.05755 -0.1658984,0.227474 -0.2486682,0.464068 -0.2486682,0.711672 0,0.268113 0.072467,0.505083 0.2174011,0.711294 0.8077926,1.114222 2.516818,2.847074 5.1270761,5.198179 0.228074,0.227098 0.487041,0.340267 0.7769,0.340267 0.310837,0 0.569804,-0.09267 0.7769,-0.277987 l 4.381452,-3.311141 c 0.849745,0.433309 1.781872,0.814968 2.796761,1.146881 l 0.869958,5.69263 c 0.02108,0.268109 0.139979,0.489892 0.357368,0.665341 0.217401,0.175838 0.471401,0.262795 0.76126,0.262795 l 6.899415,0 c 0.601458,0 0.97408,-0.288619 1.119391,-0.866237 0.268882,-1.031433 0.569039,-2.949231 0.900471,-5.753391 0.973698,-0.309506 1.91841,-0.7018 2.827653,-1.176123 l 4.288394,3.341904 c 0.289858,0.185326 0.559502,0.277985 0.807791,0.277985 0.455384,0 1.429082,-0.731799 2.920331,-2.196541 1.492012,-1.464362 2.517199,-2.578582 3.074035,-3.341904 0.186503,-0.206201 0.279944,-0.443183 0.279944,-0.711293 0,-0.268113 -0.103362,-0.526731 -0.310837,-0.773576 -1.49125,-1.815261 -2.599578,-3.238229 -3.324992,-4.269662 0.414195,-0.76332 0.818473,-1.701711 1.21207,-2.815554 l 5.747605,-0.865857 c 0.248287,-0.0414 0.456148,-0.175839 0.621672,-0.402927 0.165517,-0.227098 0.247906,-0.464449 0.247906,-0.711673 l 0,-6.869892 c 0,-0.268112 -0.08199,-0.510021 -0.248287,-0.726865 m -17.990346,9.699496 c -1.553417,1.547151 -3.428349,2.320728 -5.624416,2.320728 -2.196063,0 -4.070616,-0.773577 -5.624412,-2.320728 -1.55342,-1.546769 -2.330317,-3.413297 -2.330317,-5.599966 0,-2.186669 0.776516,-4.053197 2.330317,-5.600348 1.553796,-1.546769 3.42873,-2.320345 5.624412,-2.320345 2.196067,0 4.070999,0.773576 5.624416,2.320345 1.553415,1.547151 2.330315,3.413679 2.330315,5.600348 0,2.186669 -0.7769,4.053197 -2.330315,5.599966" />
  <path
     style="fill:#80b3ff;fill-opacity:1"
     inkscape:connector-curvature="0"
     id="path20-9"
     d="m 47.53708,33.494885 c -0.08337,-0.111051 -0.191229,-0.17717 -0.327193,-0.198174 l -2.851039,-0.443607 c -0.155853,-0.507008 -0.368882,-1.024517 -0.638898,-1.552722 0.186832,-0.264103 0.467174,-0.636337 0.841028,-1.11709 0.373853,-0.480752 0.638706,-0.831788 0.794557,-1.053689 0.08318,-0.116297 0.12449,-0.237653 0.12449,-0.364453 0,-0.147805 -0.03614,-0.263909 -0.109004,-0.348507 -0.373853,-0.538902 -1.230751,-1.436619 -2.570696,-2.693732 -0.1243,-0.105609 -0.254335,-0.158307 -0.389153,-0.158307 -0.155851,0 -0.280532,0.04746 -0.374044,0.142358 l -2.212141,1.695471 c -0.42606,-0.221901 -0.893423,-0.417351 -1.402285,-0.587327 l -0.436194,-2.915245 c -0.01034,-0.137301 -0.07019,-0.250878 -0.179182,-0.340727 -0.109195,-0.08985 -0.236169,-0.13458 -0.381885,-0.13458 l -3.45934,0 c -0.301186,0 -0.488209,0.147805 -0.560875,0.443608 -0.135009,0.528011 -0.285697,1.510326 -0.451875,2.94636 -0.48821,0.158696 -0.959972,0.359398 -1.417775,0.602303 l -2.149989,-1.69547 c -0.135008,-0.105598 -0.270016,-0.158307 -0.405024,-0.158307 -0.228518,0 -0.719213,0.377485 -1.472275,1.132842 -0.753061,0.755357 -1.264408,1.323042 -1.535572,1.703249 -0.09351,0.137303 -0.14017,0.258853 -0.14017,0.364454 0,0.126801 0.05183,0.253602 0.15566,0.380208 0.695883,0.855709 1.251596,1.584421 1.667138,2.186725 -0.25969,0.485809 -0.462202,0.971813 -0.607536,1.457622 l -2.897126,0.443607 c -0.114162,0.0212 -0.212837,0.08986 -0.296022,0.206148 -0.08318,0.116104 -0.124682,0.237654 -0.124682,0.364259 l 0,3.518131 c 0,0.137498 0.0415,0.26138 0.124682,0.372233 0.08318,0.111051 0.19123,0.177366 0.327194,0.198369 l 2.85123,0.427854 c 0.145334,0.51751 0.358172,1.04027 0.638705,1.567503 -0.186831,0.264103 -0.467364,0.636337 -0.841217,1.11709 -0.373854,0.480753 -0.638897,0.831787 -0.794559,1.053689 -0.08318,0.116492 -0.124681,0.237654 -0.124681,0.364454 0,0.137303 0.03634,0.258657 0.109003,0.364259 0.405025,0.570603 1.261924,1.458011 2.570697,2.662033 0.114355,0.116298 0.2442,0.174253 0.389535,0.174253 0.155852,0 0.285697,-0.04746 0.389534,-0.142359 l 2.196843,-1.695664 c 0.426059,0.221901 0.893424,0.417352 1.402285,0.587327 l 0.436194,2.915245 c 0.01057,0.137302 0.07019,0.250878 0.179182,0.340727 0.109005,0.09005 0.236359,0.13458 0.381693,0.13458 l 3.45934,0 c 0.30157,0 0.488401,-0.147805 0.561259,-0.443608 0.134816,-0.528205 0.285314,-1.510326 0.451493,-2.946361 0.488208,-0.1585 0.961883,-0.359398 1.417774,-0.602302 l 2.150184,1.711417 c 0.145334,0.09491 0.280532,0.142359 0.405023,0.142359 0.228328,0 0.716537,-0.37476 1.464243,-1.124868 0.748089,-0.749912 1.262114,-1.320513 1.541309,-1.711417 0.09351,-0.105598 0.140363,-0.226958 0.140363,-0.36426 0,-0.137303 -0.05183,-0.269743 -0.155853,-0.396154 -0.747707,-0.929612 -1.303418,-1.658325 -1.667137,-2.186531 0.207675,-0.390903 0.410378,-0.871461 0.607727,-1.44187 l 2.881827,-0.443412 c 0.12449,-0.0212 0.228711,-0.09005 0.311704,-0.206342 0.08299,-0.1163 0.124299,-0.237849 0.124299,-0.364454 l 0,-3.518131 c 0,-0.137302 -0.04111,-0.261186 -0.12449,-0.372234 m -9.02029,4.967195 c -0.778878,0.79231 -1.718962,1.188465 -2.820061,1.188465 -1.101097,0 -2.040991,-0.396155 -2.820058,-1.188465 -0.778879,-0.792113 -1.168412,-1.747979 -1.168412,-2.86779 0,-1.119812 0.389342,-2.075678 1.168412,-2.867987 0.779067,-0.792113 1.719152,-1.188268 2.820058,-1.188268 1.101099,0 2.041183,0.396155 2.820061,1.188268 0.778876,0.792309 1.168411,1.748175 1.168411,2.867987 0,1.119811 -0.389535,2.075677 -1.168411,2.86779" />
</svg>
