<?xml version="1.0" encoding="UTF-8" standalone="no"?>
<svg
   xmlns:dc="http://purl.org/dc/elements/1.1/"
   xmlns:cc="http://creativecommons.org/ns#"
   xmlns:rdf="http://www.w3.org/1999/02/22-rdf-syntax-ns#"
   xmlns:svg="http://www.w3.org/2000/svg"
   xmlns="http://www.w3.org/2000/svg"
   xmlns:xlink="http://www.w3.org/1999/xlink"
   xmlns:sodipodi="http://sodipodi.sourceforge.net/DTD/sodipodi-0.dtd"
   xmlns:inkscape="http://www.inkscape.org/namespaces/inkscape"
   height="128"
   width="128"
   version="1.1"
   id="svg2"
   inkscape:version="0.91 r13725"
   sodipodi:docname="onboard-settings.svg">
  <metadata
     id="metadata108">
    <rdf:RDF>
      <cc:Work
         rdf:about="">
        <dc:format>image/svg+xml</dc:format>
        <dc:type
           rdf:resource="http://purl.org/dc/dcmitype/StillImage" />
        <dc:title></dc:title>
      </cc:Work>
    </rdf:RDF>
  </metadata>
  <sodipodi:namedview
     pagecolor="#ffffff"
     bordercolor="#666666"
     borderopacity="1"
     objecttolerance="10"
     gridtolerance="10"
     guidetolerance="10"
     inkscape:pageopacity="0"
     inkscape:pageshadow="2"
     inkscape:window-width="1238"
     inkscape:window-height="684"
     id="namedview106"
     showgrid="false"
     inkscape:zoom="1.7383042"
     inkscape:cx="-57.913405"
     inkscape:cy="78.599623"
     inkscape:window-x="15"
     inkscape:window-y="1"
     inkscape:window-maximized="0"
     inkscape:current-layer="svg2" />
  <defs
     id="defs4">
    <linearGradient
       id="linearGradient3328"
       y2="22"
       gradientUnits="userSpaceOnUse"
       x2="10"
       x1="10">
      <stop
         stop-color="#fff"
         offset="0"
         id="stop7" />
      <stop
         stop-color="#fff"
         stop-opacity="0"
         offset=".13636"
         id="stop9" />
      <stop
         stop-opacity="0"
         offset=".81818"
         id="stop11" />
      <stop
         offset="1"
         id="stop13" />
    </linearGradient>
    <linearGradient
       id="linearGradient3328-2"
       y2="22"
       gradientUnits="userSpaceOnUse"
       gradientTransform="translate(0,25)"
       x2="10"
       x1="10">
      <stop
         stop-color="#fff"
         offset="0"
         id="stop16" />
      <stop
         stop-color="#fff"
         stop-opacity="0"
         offset=".13636"
         id="stop18" />
      <stop
         stop-opacity="0"
         offset=".81818"
         id="stop20" />
      <stop
         offset="1"
         id="stop22" />
    </linearGradient>
    <linearGradient
       id="linearGradient3328-7"
       y2="22"
       gradientUnits="userSpaceOnUse"
       gradientTransform="translate(25,0)"
       x2="10"
       x1="10">
      <stop
         stop-color="#fff"
         offset="0"
         id="stop25" />
      <stop
         stop-color="#fff"
         stop-opacity="0"
         offset=".13636"
         id="stop27" />
      <stop
         stop-opacity="0"
         offset=".81818"
         id="stop29" />
      <stop
         offset="1"
         id="stop31" />
    </linearGradient>
    <linearGradient
       id="linearGradient6815"
       y2="22"
       gradientUnits="userSpaceOnUse"
       gradientTransform="translate(25,25)"
       x2="10"
       x1="10">
      <stop
         stop-color="#fff"
         offset="0"
         id="stop34" />
      <stop
         stop-color="#fff"
         stop-opacity="0"
         offset=".13636"
         id="stop36" />
      <stop
         stop-opacity="0"
         offset=".81818"
         id="stop38" />
      <stop
         offset="1"
         id="stop40" />
    </linearGradient>
    <linearGradient
       inkscape:collect="always"
       xlink:href="#linearGradient6815"
       id="linearGradient3015"
       gradientUnits="userSpaceOnUse"
       gradientTransform="matrix(2.5100917,0,0,2.5100917,66.752292,66.829671)"
       x1="10"
       x2="10"
       y2="22" />
    <linearGradient
       inkscape:collect="always"
       xlink:href="#linearGradient3328-7"
       id="linearGradient3018"
       gradientUnits="userSpaceOnUse"
       gradientTransform="matrix(2.5100917,0,0,2.5100917,66.752292,4.077379)"
       x1="10"
       x2="10"
       y2="22" />
    <linearGradient
       inkscape:collect="always"
       xlink:href="#linearGradient3328-2"
       id="linearGradient3021"
       gradientUnits="userSpaceOnUse"
       gradientTransform="matrix(2.5100917,0,0,2.5100917,82.237172,49.859108)"
       x1="10"
       x2="10"
       y2="22" />
    <linearGradient
       inkscape:collect="always"
       xlink:href="#linearGradient3328"
       id="linearGradient3024"
       gradientUnits="userSpaceOnUse"
       x1="10"
       x2="10"
       y2="22"
       gradientTransform="matrix(2.5100917,0,0,2.5100917,4,4.077379)" />
  </defs>
  <rect
     id="rect44"
     x="1.0967199"
     y="1.5023917"
     width="64.551491"
     height="63.400948"
     ry="5.5131259"
     style="color:#000000;fill:#ffcc00" />
  <rect
     id="rect50"
     x="63.357632"
     y="62.037487"
     width="64.551491"
     height="65.12677"
     ry="5.663197"
     style="color:#000000;fill:#2a7fff" />
  <path
     inkscape:connector-curvature="0"
     id="path92"
     d="m 50.490725,41.257924 c -1.849923,0 -3.284703,0.68314 -4.304109,2.049652 -1.019637,1.366282 -1.52934,3.289777 -1.52934,5.770255 -8e-6,2.4701 0.509772,4.388291 1.529317,5.754572 1.019522,1.366397 2.454186,2.049584 4.304109,2.049584 1.86037,2e-6 3.300386,-0.683187 4.319792,-2.049584 1.018714,-1.365589 1.528418,-3.28378 1.528418,-5.75388 0,-2.480478 -0.509704,-4.403973 -1.528418,-5.770255 -1.019637,-1.366512 -2.459491,-2.049652 -4.319792,-2.049652 m 0,-4.398669 c 3.783796,2.3e-5 6.747916,1.082623 8.892129,3.2478 2.144167,2.165224 3.216204,5.155613 3.216204,8.970776 -2.7e-5,3.804785 -1.072129,6.789892 -3.216204,8.955093 -2.144213,2.165201 -5.108333,3.247801 -8.892129,3.247801 -3.773418,0 -6.737307,-1.0826 -8.892129,-3.247801 -2.144213,-2.165662 -3.216204,-5.150078 -3.216204,-8.955093 0,-3.815393 1.071991,-6.805575 3.216204,-8.970776 2.154591,-2.1652 5.118711,-3.2478 8.892129,-3.2478"
     style="fill:#ffe680" />
  <path
     inkscape:connector-curvature="0"
     id="path94"
     d="m 114.87875,109.80885 c 0.95646,10e-6 1.6817,-0.2102 2.17572,-0.63065 0.49399,-0.4204 0.74098,-1.04053 0.741,-1.86039 -10e-6,-0.8093 -0.24701,-1.42417 -0.741,-1.84461 -0.49402,-0.43092 -1.21926,-0.64638 -2.17572,-0.6464 l -3.35828,0 0,4.98216 3.35828,0 m 0.20496,10.29532 c 1.21923,0 2.13365,-0.25751 2.74341,-0.77254 0.6201,-0.51501 0.93017,-1.2928 0.93019,-2.33333 -1e-5,-1.01952 -0.30483,-1.78156 -0.91442,-2.28608 -0.60964,-0.51501 -1.52932,-0.77253 -2.75908,-0.77253 l -3.56308,0 0,6.16464 3.56308,0 m 5.64432,-8.46638 c 1.30332,0.3784 2.31235,1.07737 3.02709,2.09689 0.71471,1.01954 1.07206,2.27032 1.07208,3.75243 -2e-5,2.27032 -0.7673,3.96254 -2.30185,5.07673 -1.53372,1.11397 -3.86775,1.67211 -6.99977,1.67211 l -10.0746,0 0,-23.5386 9.11285,0 c 3.26879,3e-5 5.63372,0.49402 7.09479,1.48202 1.47148,0.98804 2.20723,2.56997 2.20725,4.74553 -2e-5,1.14568 -0.26805,2.12318 -0.80406,2.93253 -0.53607,0.79882 -1.31386,1.39269 -2.33334,1.78156"
     style="fill:#5599ff" />
  <path
     style="fill:#ffd42a;fill-opacity:1;fill-rule:evenodd;stroke-width:1.31700003"
     inkscape:connector-curvature="0"
     id="path23"
     d="m 61.377361,93.229718 c -0.09556,-0.865599 -1.085979,-1.516072 -1.942397,-1.516072 -2.768908,0 -5.225288,-1.656767 -6.256406,-4.218987 -1.052702,-2.624333 -0.37391,-5.684914 1.689675,-7.613629 0.649564,-0.605105 0.728483,-1.617577 0.183696,-2.321661 -1.417171,-1.832957 -3.027925,-3.490388 -4.786626,-4.926053 -0.688686,-0.563185 -1.699119,-0.484825 -2.296295,0.189014 -1.800971,2.032525 -5.035973,2.787933 -7.535748,1.725039 -2.601402,-1.115121 -4.241837,-3.801309 -4.080852,-6.685695 0.05285,-0.905693 -0.596726,-1.69319 -1.482821,-1.798347 -2.257398,-0.266009 -4.53278,-0.274253 -6.796923,-0.01844 -0.875979,0.09848 -1.525543,0.867444 -1.496088,1.761703 0.09849,2.855044 -1.561741,5.49426 -4.137287,6.569288 -2.46987,1.028057 -5.681714,0.279066 -7.480437,-1.735349 -0.594027,-0.663529 -1.587372,-0.74508 -2.280104,-0.195431 -1.809965,1.447799 -3.4578198,3.10571 -4.8880293,4.924448 -0.5578283,0.707053 -0.4757623,1.731919 0.1803258,2.340214 2.1029315,1.940647 2.7819495,5.027785 1.6894505,7.682363 -1.0430339,2.531772 -3.622178,4.160802 -6.5743309,4.160802 -0.9580433,-0.03135 -1.6404346,0.623897 -1.7452096,1.511499 -0.2657616,2.314099 -0.2689088,4.670136 -0.01303,7.002108 0.094887,0.86927 1.1154321,1.51402 1.9812928,1.51402 2.631081,-0.0684 5.1571625,1.59145 6.2168337,4.21921 1.0562994,2.62433 0.3772816,5.68307 -1.6894505,7.61363 -0.6464149,0.60511 -0.7284827,1.61758 -0.1836938,2.32006 1.4039026,1.82219 3.0148827,3.48032 4.7798807,4.9279 0.692284,0.56844 1.699567,0.48824 2.299666,-0.1856 1.807716,-2.03754 5.042493,-2.79159 7.532376,-1.72663 2.607921,1.11168 4.248357,3.79764 4.087595,6.68339 -0.05239,0.90618 0.600324,1.69502 1.482824,1.79859 1.154553,0.13721 2.316079,0.20574 3.480751,0.20574 1.10554,0 2.211306,-0.0618 3.316846,-0.18719 0.876201,-0.0985 1.525316,-0.86744 1.495862,-1.76329 -0.101401,-2.85345 1.561741,-5.49267 4.133914,-6.56587 2.486733,-1.03492 5.685312,-0.27746 7.482686,1.7349 0.597401,0.66215 1.585125,0.74211 2.280329,0.19429 1.807718,-1.44437 3.451075,-3.1009 4.88803,-4.92469 0.557603,-0.70545 0.478909,-1.7319 -0.180543,-2.33999 -2.102932,-1.94063 -2.785323,-5.02825 -1.692823,-7.68098 1.02707,-2.49716 3.510206,-4.17386 6.181084,-4.17386 l 0.373685,0.009 c 0.86631,0.0717 1.663369,-0.60832 1.76837,-1.50944 0.26621,-2.314096 0.269357,-4.670133 0.01357,-7.002103 M 31.401218,106.98192 c -5.557602,0 -10.078242,-4.60758 -10.078242,-10.270014 0,-5.663135 4.521539,-10.270034 10.078242,-10.270034 5.557377,0 10.078017,4.607581 10.078017,10.270034 0,5.663354 -4.521539,10.270014 -10.078017,10.270014" />
  <path
     style="fill:#2a7fff;fill-opacity:1;fill-rule:evenodd;stroke-width:1.31700003"
     inkscape:connector-curvature="0"
     id="path23-1"
     d="m 126.95847,27.200979 c -0.0956,-0.833264 -1.08597,-1.459424 -1.94239,-1.459424 -2.76892,0 -5.22528,-1.594848 -6.2564,-4.061335 -1.05271,-2.526259 -0.37392,-5.472456 1.68968,-7.329104 0.64956,-0.58249 0.72846,-1.557131 0.18369,-2.234903 -1.41718,-1.764456 -3.02793,-3.3599633 -4.78663,-4.7419721 -0.68867,-0.5421291 -1.69911,-0.4666986 -2.29629,0.1819589 -1.80096,1.9565601 -5.03597,2.6837352 -7.53575,1.6605722 C 103.413,8.1433219 101.77255,5.5575119 101.93354,2.7809216 101.98639,1.9090598 101.33681,1.1510069 100.45073,1.0497707 98.193326,0.79370389 95.917936,0.78576477 93.653803,1.0321953 92.777819,1.1270316 92.128256,1.8672232 92.157719,2.7280568 92.25617,5.4764164 90.595976,8.0170096 88.020436,9.051863 85.550568,10.041501 82.33873,9.3205007 80.539998,7.3813651 79.945977,6.7426334 78.952629,6.6641138 78.259903,7.19323 c -1.809964,1.3936991 -3.457815,2.989649 -4.888024,4.740429 -0.557826,0.680639 -0.475752,1.667191 0.180254,2.252768 2.102936,1.868117 2.781945,4.839901 1.689458,7.395273 -1.043044,2.437154 -3.622186,4.005313 -6.57434,4.005313 -0.958039,-0.03021 -1.640431,0.600576 -1.745199,1.455013 -0.265765,2.227624 -0.268914,4.495612 -0.01267,6.740439 0.09483,0.836793 1.115434,1.457442 1.981283,1.457442 2.631083,-0.06595 5.157162,1.531987 6.216838,4.061554 1.056291,2.526258 0.377283,5.47069 -1.689458,7.329105 -0.646415,0.582492 -0.72847,1.557129 -0.183692,2.233357 1.403912,1.754098 3.01488,3.350266 4.779878,4.743749 0.692285,0.547199 1.699568,0.469991 2.299652,-0.178666 1.807727,-1.9614 5.042495,-2.687265 7.532379,-1.662103 2.607917,1.070131 4.248348,3.655724 4.087586,6.433635 -0.0523,0.872309 0.60032,1.631674 1.482819,1.731375 1.154561,0.132082 2.316091,0.198052 3.480752,0.198052 1.105535,0 2.211305,-0.05947 3.316839,-0.180193 0.8762,-0.0948 1.52533,-0.835028 1.49587,-1.697395 -0.10135,-2.746826 1.56174,-5.287416 4.13392,-6.320513 2.48671,-0.996243 5.6853,-0.267093 7.48268,1.670073 0.59738,0.637402 1.5851,0.714379 2.28031,0.187028 1.80773,-1.390394 3.45107,-2.985017 4.88803,-4.74066 0.55761,-0.679086 0.4789,-1.66718 -0.18061,-2.252548 -2.10294,-1.868108 -2.78532,-4.840336 -1.69283,-7.393942 1.02708,-2.403851 3.51022,-4.017886 6.18108,-4.017886 l 0.3737,0.0094 c 0.8663,0.06904 1.66336,-0.585577 1.76836,-1.453027 0.2662,-2.227625 0.26935,-4.495613 0.0127,-6.74044 M 96.981665,40.439976 c -5.557591,0 -10.078238,-4.4354 -10.078238,-9.886242 0,-5.451506 4.521533,-9.886242 10.078238,-9.886242 5.557375,0 10.078005,4.435398 10.078005,9.886242 0,5.451724 -4.52153,9.886242 -10.078005,9.886242" />
</svg>
