<?xml version="1.0" encoding="UTF-8" standalone="no"?>
<svg
   xmlns:dc="http://purl.org/dc/elements/1.1/"
   xmlns:cc="http://creativecommons.org/ns#"
   xmlns:rdf="http://www.w3.org/1999/02/22-rdf-syntax-ns#"
   xmlns:svg="http://www.w3.org/2000/svg"
   xmlns="http://www.w3.org/2000/svg"
   xmlns:sodipodi="http://sodipodi.sourceforge.net/DTD/sodipodi-0.dtd"
   xmlns:inkscape="http://www.inkscape.org/namespaces/inkscape"
   viewBox="0 0 48 48"
   id="svg2"
   version="1.1"
   inkscape:version="0.91 r13725"
   sodipodi:docname="openjdk-6.svg">
  <metadata
     id="metadata37">
    <rdf:RDF>
      <cc:Work
         rdf:about="">
        <dc:format>image/svg+xml</dc:format>
        <dc:type
           rdf:resource="http://purl.org/dc/dcmitype/StillImage" />
        <dc:title></dc:title>
      </cc:Work>
    </rdf:RDF>
  </metadata>
  <sodipodi:namedview
     pagecolor="#ffffff"
     bordercolor="#666666"
     borderopacity="1"
     objecttolerance="10"
     gridtolerance="10"
     guidetolerance="10"
     inkscape:pageopacity="0"
     inkscape:pageshadow="2"
     inkscape:window-width="1280"
     inkscape:window-height="694"
     id="namedview35"
     showgrid="false"
     inkscape:zoom="4.9166667"
     inkscape:cx="-9.1525424"
     inkscape:cy="24"
     inkscape:window-x="0"
     inkscape:window-y="0"
     inkscape:window-maximized="1"
     inkscape:current-layer="svg2" />
  <defs
     id="defs4">
    <clipPath
       id="clipPath6">
      <path
         transform="matrix(15.33333 0 0 11.5 415-125.5)"
         d="m-24 13c0 1.105-.672 2-1.5 2-.828 0-1.5-.895-1.5-2 0-1.105.672-2 1.5-2 .828 0 1.5.895 1.5 2"
         fill="#1890d0"
         id="path8" />
    </clipPath>
    <linearGradient
       id="0"
       gradientUnits="userSpaceOnUse"
       x1="24.61"
       y1="47.593"
       x2="23.593"
       y2="-.203">
      <stop
         stop-color="#ff433a"
         id="stop11" />
      <stop
         stop-color="#ff9436"
         offset="1"
         id="stop13" />
    </linearGradient>
  </defs>
  <g
     transform="matrix(0.12609222,0,0,0.0946184,-7.6896738,0.3220339)"
     id="g17"
     style="fill:#d35f5f">
    <path
       d="m 240.86,269.89 c 0,0 -28.02,-53.992 -26.985,-93.44 0.755,-28.19 64.32,-56.06 89.28,-96.53 C 328.069,39.431 300.049,0 300.049,0 c 0,0 6.234,29.08 -10.376,59.15 -16.609,30.11 -77.914,47.779 -101.75,99.68 -23.835,51.9 52.935,111.07 52.935,111.07"
       id="path19"
       style="fill:#d35f5f"
       inkscape:connector-curvature="0" />
    <path
       d="m 345.74,105.87 c 0,0 -95.49,36.35 -95.49,77.849 0,41.545 25.928,55.03 30.11,68.51 4.142,13.525 -7.269,36.35 -7.269,36.35 0,0 37.36,-25.95 31.11,-56.06 -6.234,-30.11 -35.29,-39.475 -18.659,-69.54 11.11,-20.17 60.2,-57.1 60.2,-57.1"
       id="path21"
       style="fill:#d35f5f"
       inkscape:connector-curvature="0" />
    <path
       d="m 230.51,324.75 c 88.25,-3.149 120.43,-30.997 120.43,-30.997 -57.08,15.553 -208.65,14.539 -209.71,3.128 -1.014,-11.411 46.701,-20.773 46.701,-20.773 0,0 -74.72,0 -80.955,18.68 -6.235,18.681 35.35,33.05 123.54,29.962"
       id="path23"
       style="fill:#d35f5f"
       inkscape:connector-curvature="0" />
    <path
       d="m 358.19,368.49 c 0,0 86.37,-18.421 77.83,-65.34 -10.354,-57.12 -70.58,-24.936 -70.58,-24.936 0,0 42.602,0 46.722,25.928 4.164,25.95 -53.969,64.35 -53.969,64.35"
       id="path25"
       style="fill:#d35f5f"
       inkscape:connector-curvature="0" />
    <path
       d="m 315.63,343.6 c 0,0 -21.765,5.716 -54.01,9.34 -43.23,4.853 -95.49,1.014 -99.66,-6.256 -4.098,-7.269 7.269,-11.411 7.269,-11.411 -51.921,12.468 -23.512,34.23 37.34,38.42 52.16,3.559 129.79,-15.574 129.79,-15.574 L 315.63,343.602"
       id="path27"
       style="fill:#d35f5f"
       inkscape:connector-curvature="0" />
    <path
       d="m 181.74,388.94 c 0,0 -23.555,0.669 -24.936,13.14 -1.359,12.382 14.496,23.512 72.65,26.964 58.13,3.451 98.99,-15.898 98.99,-15.898 l -26.295,-15.962 c 0,0 -16.631,3.494 -42.24,6.946 -25.626,3.473 -78.17,-2.783 -80.24,-7.593 -2.113,-4.855 2.072,-7.594 2.072,-7.594"
       id="path29"
       style="fill:#d35f5f"
       inkscape:connector-curvature="0" />
    <path
       d="m 407.99,445 c 8.995,-9.707 -2.783,-17.321 -2.783,-17.321 0,0 4.142,4.853 -1.337,10.376 -5.544,5.522 -56.08,19.349 -137.06,23.512 -80.955,4.163 -168.86,-7.615 -171.64,-17.99 -2.696,-10.376 45.02,-18.659 45.02,-18.659 -5.522,0.69 -71.96,2.071 -74.07,20.08 -2.071,17.968 29.06,32.507 153.67,32.507 C 344.34,477.484 399.04,454.64 408,444.998"
       id="path31"
       style="fill:#d35f5f"
       inkscape:connector-curvature="0" />
    <path
       d="m 359.57,485.82 c -54.682,11.04 -220.73,4.077 -220.73,4.077 0,0 107.92,25.626 231.11,4.185 58.888,-10.268 62.32,-38.763 62.32,-38.763 0,0 -18.01,19.392 -72.69,30.501"
       id="path33"
       style="fill:#d35f5f"
       inkscape:connector-curvature="0" />
  </g>
</svg>
