<?xml version="1.0" encoding="UTF-8" standalone="no"?>
<svg
   xmlns:dc="http://purl.org/dc/elements/1.1/"
   xmlns:cc="http://creativecommons.org/ns#"
   xmlns:rdf="http://www.w3.org/1999/02/22-rdf-syntax-ns#"
   xmlns:svg="http://www.w3.org/2000/svg"
   xmlns="http://www.w3.org/2000/svg"
   xmlns:xlink="http://www.w3.org/1999/xlink"
   xmlns:sodipodi="http://sodipodi.sourceforge.net/DTD/sodipodi-0.dtd"
   xmlns:inkscape="http://www.inkscape.org/namespaces/inkscape"
   viewBox="0 0 48 48"
   id="svg2"
   version="1.1"
   inkscape:version="0.91 r13725"
   sodipodi:docname="opera-next-browser.svg">
  <metadata
     id="metadata33">
    <rdf:RDF>
      <cc:Work
         rdf:about="">
        <dc:format>image/svg+xml</dc:format>
        <dc:type
           rdf:resource="http://purl.org/dc/dcmitype/StillImage" />
        <dc:title></dc:title>
      </cc:Work>
    </rdf:RDF>
  </metadata>
  <sodipodi:namedview
     pagecolor="#ffffff"
     bordercolor="#666666"
     borderopacity="1"
     objecttolerance="10"
     gridtolerance="10"
     guidetolerance="10"
     inkscape:pageopacity="0"
     inkscape:pageshadow="2"
     inkscape:window-width="1280"
     inkscape:window-height="694"
     id="namedview31"
     showgrid="false"
     inkscape:zoom="4.9166667"
     inkscape:cx="-9.1525424"
     inkscape:cy="24"
     inkscape:window-x="0"
     inkscape:window-y="0"
     inkscape:window-maximized="1"
     inkscape:current-layer="svg2" />
  <defs
     id="defs4">
    <linearGradient
       id="3">
      <stop
         stop-color="#ccc"
         id="stop7" />
      <stop
         offset="1"
         stop-color="#fff"
         id="stop9" />
    </linearGradient>
    <linearGradient
       xlink:href="#3"
       id="4"
       x1="40.533"
       y1="107.5"
       x2="37.578"
       y2="15.16"
       gradientUnits="userSpaceOnUse"
       gradientTransform="matrix(0.43781,0,0,0.43781,-2.151,-2.128)" />
    <linearGradient
       xlink:href="#3"
       id="2"
       x1="74.64"
       y1="18.269"
       x2="83.932"
       y2="101.96"
       gradientUnits="userSpaceOnUse"
       gradientTransform="matrix(0.43781,0,0,0.43781,-2.151,-2.128)" />
    <linearGradient
       id="0"
       gradientUnits="userSpaceOnUse"
       y1="542.2"
       x2="0"
       y2="526.2">
      <stop
         stop-color="#d0d0d0"
         id="stop14" />
      <stop
         offset="1"
         stop-color="#f1eeee"
         id="stop16" />
    </linearGradient>
    <linearGradient
       gradientUnits="userSpaceOnUse"
       y2="516.48"
       x2="0"
       y1="546.93"
       id="1"
       gradientTransform="matrix(2.6571337,0,0,2.6606033,-1654.2078,-2219.1851)">
      <stop
         stop-color="#0c275c"
         id="stop19" />
      <stop
         offset="1"
         stop-color="#1072c0"
         id="stop21" />
    </linearGradient>
  </defs>
  <path
     inkscape:connector-curvature="0"
     style="fill:#2c5aa0"
     id="path27"
     d="m 16.60478,11.6941 c 2.160415,-2.4005127 4.9537,-3.8522907 7.99995,-3.8522907 6.856501,0 12.414708,7.3201837 12.414708,16.3434477 0,9.02808 -5.558207,16.343447 -12.414708,16.343447 -3.0509,0 -5.839535,-1.4474 -7.99995,-3.847912 3.379194,4.130299 8.397994,6.75103 14.005957,6.75103 3.449408,0 6.678405,-0.992953 9.438675,-2.713546 4.822569,-4.059375 7.854868,-9.958864 7.854868,-16.529079 0,-6.565837 -3.032299,-12.469705 -7.854868,-16.5290788 -2.76027,-1.7254092 -5.989267,-2.7135464 -9.438675,-2.7135464 -5.607963,0 -10.629088,2.6211685 -14.005957,6.7510302" />
  <path
     inkscape:connector-curvature="0"
     style="fill:#214478"
     id="path29"
     d="m 23.466869,0.10674937 c -12.688427,0 -22.97634014,10.76142563 -22.97634014,24.03385063 0,12.889796 9.70264614,23.407296 21.88353514,24.005154 0.365792,0.01913 0.727013,0.02869 1.092805,0.02869 5.884687,0 11.248119,-2.314902 15.312988,-6.117271 -2.693147,1.870096 -5.843535,2.941455 -9.208825,2.941455 -5.473171,0 -10.370217,-2.841015 -13.666922,-7.317769 -2.542258,-3.137553 -4.183752,-7.77214 -4.298062,-12.975887 0,-0.01435 0,-1.11919 0,-1.133538 0.11431,-5.203747 1.755804,-9.843118 4.298062,-12.975887 3.296705,-4.4767537 8.198324,-7.3177701 13.666922,-7.3177701 3.36529,0 6.515678,1.0761425 9.208825,2.9462392 -4.042008,-3.7832413 -9.378005,-6.09336063 -15.226112,-6.11727491 -0.02744,0 -0.05945,0 -0.08687,0" />
</svg>
