<?xml version="1.0" encoding="UTF-8" standalone="no"?>
<svg
   xmlns:dc="http://purl.org/dc/elements/1.1/"
   xmlns:cc="http://creativecommons.org/ns#"
   xmlns:rdf="http://www.w3.org/1999/02/22-rdf-syntax-ns#"
   xmlns:svg="http://www.w3.org/2000/svg"
   xmlns="http://www.w3.org/2000/svg"
   xmlns:sodipodi="http://sodipodi.sourceforge.net/DTD/sodipodi-0.dtd"
   xmlns:inkscape="http://www.inkscape.org/namespaces/inkscape"
   viewBox="0 0 48 48"
   id="svg2"
   version="1.1"
   inkscape:version="0.91 r13725"
   sodipodi:docname="othman-browser.svg">
  <metadata
     id="metadata19">
    <rdf:RDF>
      <cc:Work
         rdf:about="">
        <dc:format>image/svg+xml</dc:format>
        <dc:type
           rdf:resource="http://purl.org/dc/dcmitype/StillImage" />
        <dc:title></dc:title>
      </cc:Work>
    </rdf:RDF>
  </metadata>
  <sodipodi:namedview
     pagecolor="#ffffff"
     bordercolor="#666666"
     borderopacity="1"
     objecttolerance="10"
     gridtolerance="10"
     guidetolerance="10"
     inkscape:pageopacity="0"
     inkscape:pageshadow="2"
     inkscape:window-width="1280"
     inkscape:window-height="694"
     id="namedview17"
     showgrid="false"
     inkscape:zoom="4.9166667"
     inkscape:cx="-9.1525424"
     inkscape:cy="24"
     inkscape:window-x="0"
     inkscape:window-y="0"
     inkscape:window-maximized="1"
     inkscape:current-layer="svg2" />
  <defs
     id="defs4">
    <linearGradient
       id="0"
       x1="-12.713"
       y1="50.752"
       x2="-14.344"
       y2="5.074"
       gradientUnits="userSpaceOnUse"
       gradientTransform="matrix(0.99999,0,0,0.99999,41.629,-4.118)">
      <stop
         stop-color="#00a661"
         id="stop7" />
      <stop
         offset="1"
         stop-color="#37ce97"
         id="stop9" />
    </linearGradient>
  </defs>
  <path
     style="fill:#37c871;fill-opacity:0.85500004"
     inkscape:connector-curvature="0"
     id="path15"
     d="M 23.115768,47.322968 C 21.74598,46.7679 21.024327,44.681143 21.534433,42.742905 c 0.288063,-1.077133 0.0315,-1.248155 -0.85668,-0.612076 -0.28806,0.202524 -1.479311,0.709587 -2.672063,1.125137 -2.966124,1.045629 -5.723707,1.081634 -7.405562,0.109515 C 8.4786798,42.124829 7.7000176,39.984066 8.2581346,36.821677 8.4231692,35.905064 8.6302122,34.938946 8.7232331,34.674912 8.8267493,34.418381 8.3676573,34.706412 7.7135197,35.322992 6.4412513,36.52764 5.5965736,36.881685 4.5943606,36.619151 2.765475,36.142094 2.3138803,32.504145 3.6776668,29.202238 4.1307631,28.101103 4.1307631,28.053097 3.665661,27.460523 2.2643649,25.657301 2.4789101,23.264506 4.3453041,19.865089 c 1.2767679,-2.316286 1.3382815,-2.415298 1.5408251,-2.19477 0.079516,0.07951 -0.1410312,0.622577 -0.4951048,1.204648 -0.7576597,1.266156 -1.822885,3.832971 -2.0599344,5.055623 -0.2880605,1.338164 0.2565544,2.440801 1.1867502,2.440801 0.4170883,0 1.0937318,-0.189024 1.5168205,-0.417054 0.7576598,-0.409549 3.3937152,-2.739335 6.1017863,-5.405165 l 1.401296,-1.375668 -0.892688,-0.777096 C 12.154451,17.968856 10.601623,16.806212 9.201829,15.81009 6.3947361,13.817844 6.0091552,13.234272 6.4067384,11.566067 6.627286,10.635953 6.8163262,10.478434 9.1343137,9.2497825 L 11.617344,7.9416204 11.08473,7.3490461 c -0.403585,-0.4455549 -0.490604,-0.7830952 -0.360076,-1.38917 0.09302,-0.439554 0.304564,-0.916613 0.4711,-1.0651312 0.978206,-0.8431047 11.006322,-4.53055805 11.349894,-4.17051373 0.28206,0.28803553 -0.304564,0.58657233 -3.13116,1.59619653 -3.131162,1.1191385 -7.809147,3.0333737 -8.122714,3.3259098 -0.109525,0.103514 0.006,0.5925727 0.256554,1.0936349 0.250552,0.49506 0.4711,0.9361142 0.490604,0.9841205 0.02551,0.042006 1.564829,-0.4650573 3.449228,-1.1251391 4.427433,-1.558691 10.15114,-3.075378 11.606447,-3.075378 0.892688,0 1.296274,0.153019 1.80338,0.679583 0.550617,0.5805728 0.622632,0.8251024 0.477101,1.663705 -0.208543,1.138641 -1.065224,2.397295 -2.537035,3.7309591 -0.57462,0.5130641 -1.834887,1.7792201 -2.80109,2.8128471 l -1.761372,1.87673 0.654138,-1.327662 c 0.783165,-1.596197 1.809382,-2.770841 3.950334,-4.5005547 0.874684,-0.709587 1.596335,-1.4491779 1.596335,-1.6517034 0,-0.7890974 -0.99771,-1.4176736 -2.238472,-1.4176736 -2.525032,0 -9.980104,2.2877804 -15.508772,4.7630857 -4.0478536,1.809223 -4.1288699,1.908235 -2.4035064,2.812846 1.6263443,0.862606 6.5608854,3.999492 7.1865164,4.574064 0.397585,0.366044 0.568621,0.349542 1.75537,-0.16502 0.727654,-0.312039 1.485313,-0.568571 1.693859,-0.568571 0.282058,0 0.343571,-0.183022 0.220545,-0.72759 -0.08551,-0.40355 -0.318067,-1.749215 -0.513108,-2.989868 -0.195041,-1.240653 -0.42309,-2.556315 -0.507107,-2.916358 -0.07952,-0.3660458 -0.06151,-1.0816336 0.04801,-1.5901968 l 0.195039,-0.9241141 0.9467,1.5841959 c 1.009713,1.681707 1.272269,2.59832 0.562618,1.987745 -0.622631,-0.532566 -0.741156,-0.09901 -0.439592,1.600697 0.417087,2.305784 0.80117,2.971865 2.170958,3.723458 1.302275,0.709587 1.584334,1.167143 1.327781,2.20077 -0.153033,0.622576 -0.18304,0.636079 -0.904692,0.268534 -0.874684,-0.453055 -3.266188,-0.544567 -3.945833,-0.153018 -0.417087,0.244529 -0.330069,0.372045 0.763662,1.167143 0.679644,0.495062 2.624054,1.924737 4.323912,3.192393 3.030639,2.262279 3.095153,2.293781 3.17917,1.608197 0.04201,-0.385547 -0.04201,-3.307907 -0.195042,-6.5003 -0.238549,-4.866598 -0.220545,-5.906226 0.07952,-6.512301 l 0.355574,-0.703587 0.433593,1.05163 c 1.491315,3.663451 1.699858,4.818593 0.628632,3.553938 L 27.15912,15.0915 l 0.147032,4.115006 c 0.08553,2.262278 0.226547,4.866599 0.312066,5.790713 0.153033,1.608198 0.195042,1.693709 1.131239,2.18877 1.161246,0.618076 1.981918,0.65408 3.173169,0.135017 0.862681,-0.372044 0.886687,-0.427552 0.886687,-1.870729 0,-0.814601 -0.165036,-3.178892 -0.366077,-5.258148 C 32.240695,18.118874 31.948132,14.50493 31.7891,12.169141 31.630066,9.8333542 31.397517,6.8674894 31.275992,5.5833305 31.12296,3.9931354 31.134961,3.0150147 31.324003,2.5259545 c 0.268557,-0.6960856 0.298563,-0.6600812 1.254266,1.4116734 0.544614,1.1671434 0.984207,2.3612903 0.984207,2.6538278 -0.006,0.4590551 -0.08551,0.4275524 -0.654138,-0.2685342 l -0.648137,-0.7950969 0.147033,1.7252116 c 0.07952,0.9526179 0.439593,5.1606358 0.801169,9.3566528 0.825174,9.686691 0.622631,11.458409 -1.455308,12.586549 -0.789165,0.423052 -2.194962,0.417051 -3.503238,-0.0315 -0.513108,-0.171021 -0.580621,-0.135017 -0.459096,0.298537 0.07952,0.276033 0.214544,1.815224 0.304564,3.424921 0.177037,3.030374 -0.121527,6.365284 -0.709652,7.842966 -0.276057,0.715588 -0.318065,0.304537 -0.318065,-3.111383 0,-2.164766 -0.09902,-5.222141 -0.220547,-6.794337 l -0.21455,-2.860858 -1.741868,-1.389171 c -0.960202,-0.763595 -2.900111,-2.329786 -4.31791,-3.472928 -1.411799,-1.138639 -2.576043,-1.999745 -2.576043,-1.920236 0,0.07951 0.372079,0.831103 0.825175,1.663705 0.622629,1.155142 0.819171,1.828726 0.81467,2.848851 -0.01201,2.536813 -1.09373,3.723457 -4.115367,4.515556 -1.999923,0.519064 -4.286405,1.681707 -5.357631,2.727336 -1.437303,1.395172 -1.7418665,5.168135 -0.5806218,7.130377 1.2962728,2.188771 5.1910958,2.770841 8.8863748,1.338165 3.290193,-1.276657 6.169301,-3.2524 6.169301,-4.238021 0,-0.330041 -0.471099,-1.896234 -1.039719,-3.480429 -0.831177,-2.293783 -1.009714,-3.08288 -0.868684,-3.832972 l 0.171036,-0.952617 1.119236,1.327663 c 1.234762,1.473181 1.381792,1.846729 0.618131,1.596197 -0.580622,-0.189023 -0.628632,0.04801 -0.226548,1.113137 1.308276,3.429422 1.107233,5.252147 -0.801169,7.098874 -1.333783,1.290159 -1.786877,2.383794 -1.792877,4.292029 0,1.192646 0.568619,1.969742 1.462807,1.969742 0.814672,0 2.495027,-1.425176 4.151376,-3.540437 1.828886,-2.323786 3.030639,-3.234397 5.749213,-4.433045 1.131237,-0.495061 2.139452,-0.984121 2.262477,-1.087635 0.121527,-0.10351 0.244551,-1.009623 0.276058,-2.005745 0.06751,-1.999746 0.562619,-3.289905 1.534825,-3.949987 0.471099,-0.318039 0.733654,-0.355544 1.131237,-0.129017 0.490604,0.262532 1.045721,1.71921 1.045721,2.691331 0.006,1.009624 -0.868683,3.08888 -1.564829,3.73696 l -0.75166,0.696086 0.568621,0.555068 c 0.741156,0.703586 1.321779,0.703586 2.70807,0.01203 0.696148,-0.360045 1.155244,-0.783096 1.254265,-1.186647 0.07952,-0.343541 0.03151,-2.812846 -0.129029,-5.484674 -0.250553,-4.335534 -1.222758,-20.302 -1.338282,-21.994208 -0.0315,-0.3660453 0.03601,-1.0711317 0.153033,-1.5586921 0.23855,-1.0771328 0.330069,-0.9601188 1.437304,1.7867201 0.843176,2.091257 0.831174,2.629824 -0.02551,1.600696 l -0.544616,-0.636077 0.153032,1.992245 c 0.07352,1.093634 0.262556,3.900479 0.409587,6.242268 0.147032,2.335788 0.324067,4.545559 0.38558,4.910104 0.324069,1.956242 0.423089,11.134372 0.121528,12.616554 -0.495104,2.512808 -2.03743,4.121007 -3.914326,4.121007 -0.673641,0 -1.558828,-0.880609 -1.822885,-1.797222 -0.231047,-0.795097 -0.507106,-0.763593 -2.996132,0.379547 -2.787588,1.284158 -4.469443,2.598322 -6.220312,4.8726 -1.920404,2.508309 -2.936119,3.130887 -4.208387,2.617822 m 14.818626,-11.29489 c 0.685645,-0.600074 0.783165,-0.837103 0.654139,-1.515187 -0.23105,-1.22865 -0.856682,-1.815224 -1.522823,-1.455179 -0.789167,0.433554 -0.942199,0.769595 -0.769662,1.809224 0.336071,2.146764 0.42759,2.212772 1.639846,1.155141 M 6.4052433,34.43641 c 0.5506167,-0.379548 1.7418676,-1.437178 2.6600624,-2.35379 1.9819163,-1.975744 3.4672293,-2.806846 6.7214173,-3.74296 2.335991,-0.673585 3.486736,-1.357668 3.486736,-2.055255 0,-0.654079 -1.888899,-3.625946 -3.083151,-4.850096 l -1.22876,-1.266156 -0.715651,0.495062 c -0.391582,0.262531 -1.920405,1.657703 -3.413219,3.088878 C 7.4629658,27.011995 6.3377292,27.903105 5.3220152,28.111631 4.6123646,28.25265 4.44733,28.467175 3.9462247,29.89835 3.2860854,31.781083 3.1510571,34.043361 3.6641659,34.692941 4.1772735,35.335021 5.2725051,35.231508 6.4037423,34.43641 M 7.443462,31.238016 C 7.1313957,30.913975 7.2664252,29.116754 7.6700101,28.10713 c 0.2205464,-0.550568 0.4530963,-0.942116 0.5131076,-0.874607 0.061514,0.06751 -0.073519,0.586572 -0.2985629,1.161142 -0.2310477,0.56857 -0.3975832,1.081634 -0.3795792,1.138641 0.025508,0.0555 0.1650345,0.349542 0.3180668,0.648079 0.2760582,0.526565 0.2940622,0.526565 0.6286332,0.042 0.4275895,-0.606074 0.453095,-0.385546 0.055517,0.519065 -0.2880605,0.66008 -0.7216517,0.862605 -1.0652241,0.50106 m 4.5459589,-4.63557 c -0.423089,-0.330041 -0.80117,-0.622577 -0.850679,-0.660081 -0.159034,-0.115518 0.789165,-1.431176 1.033718,-1.431176 0.141031,0 0.574621,0.238529 0.972205,0.532564 l 0.715651,0.532567 0.501105,-0.715587 c 0.495105,-0.703589 0.513109,-0.709589 1.18675,-0.250532 0.924196,0.628577 1.045721,1.081633 0.490605,1.846727 l -0.465099,0.64208 -1.651849,-1.308162 -1.174747,1.417675 -0.75766,-0.600074 M 28.920494,46.91494 c 0.673643,-1.009625 0.747158,-1.741715 0.147032,-1.500184 -0.349573,0.141019 -0.366076,0.07951 -0.115522,-0.409551 0.612129,-1.192648 1.308276,-0.298537 0.789167,1.009624 -0.171036,0.427552 -0.550617,0.991622 -0.843179,1.260155 -0.519108,0.471059 -0.519108,0.459057 0.02551,-0.355543 m 4.50095,-1.468682 c -0.343573,-0.75159 -0.727653,-1.180646 -1.149242,-1.284157 -0.721652,-0.171022 -1.093731,-1.590195 -0.417087,-1.590195 0.397583,0 1.956412,1.699708 1.956412,2.133261 0,0.141018 0.115522,0.256533 0.256553,0.256533 0.141031,0 0.256555,-0.276035 0.256555,-0.606075 0,-0.64808 0.880685,-2.316286 1.216756,-2.316286 0.409587,0 0.825175,0.64808 0.825175,1.284159 0,0.636077 -0.01201,0.642078 -0.51911,0.165021 -0.66014,-0.622578 -0.880686,-0.385549 -1.455307,1.546689 l -0.453101,1.528689 M 6.0931771,39.95706 c 0.5131088,-1.045629 0.5131088,-1.639701 -0.012006,-1.639701 -0.3360696,0 -0.3555746,-0.07352 -0.099027,-0.397549 0.3600765,-0.459056 0.9241953,-0.519064 1.1432406,-0.135018 0.1890403,0.312039 -0.7096494,2.508309 -1.1387387,2.781342 -0.1890403,0.121516 -0.1470329,-0.121516 0.099015,-0.612075 m 6.2368159,-1.039628 c -0.195041,-0.532566 -0.195041,-1.131138 0.006,-2.176767 0.153032,-0.789098 0.231048,-1.491184 0.165035,-1.558693 -0.06151,-0.06151 -0.519111,0.135019 -1.014216,0.433553 -0.685643,0.427552 -0.90469,0.471058 -0.90469,0.183023 0,-0.202526 1.057723,-1.003623 2.353998,-1.78672 2.868605,-1.725212 2.787587,-1.687707 2.592547,-1.161142 -0.08553,0.238529 -0.642137,0.721589 -1.234761,1.087633 -0.814672,0.495061 -1.149243,0.910611 -1.37579,1.681707 -0.37208,1.290158 -0.37208,2.043251 -0.006,2.75884 0.282059,0.544566 0.294062,0.544566 0.642136,0.06151 0.409586,-0.586572 0.433592,-0.423051 0.09902,0.519065 -0.324069,0.892609 -0.966205,0.868607 -1.321779,-0.04801 m 4.515953,-2.029749 c -0.685645,-0.568571 -0.727654,-0.690086 -0.453096,-1.327664 0.360076,-0.819101 0.733654,-0.862607 1.596336,-0.177021 0.538615,0.433553 0.592625,0.606075 0.37208,1.234651 -0.33007,0.97212 -0.61213,1.020126 -1.51682,0.268534 m 3.686275,-0.195026 c -0.355574,-0.673583 -0.121526,-2.476805 0.423089,-3.41892 l 0.385582,-0.667584 -0.153032,0.667584 c -0.423089,1.786719 -0.439592,2.403295 -0.115523,2.806845 0.304565,0.391547 0.366078,0.385547 0.667641,-0.04801 0.397584,-0.562568 0.42759,-0.385547 0.08551,0.544569 -0.294061,0.8251 -0.89869,0.886609 -1.290273,0.115518 m 9.735554,-0.795099 c 0.141031,-0.276034 0.385582,-0.50106 0.538614,-0.50106 0.159034,0 0.08552,-0.23103 -0.165035,-0.526567 -0.42759,-0.49056 -0.433591,-0.562568 -0.036,-1.186645 0.562617,-0.898611 1.590334,-1.564693 2.09144,-1.369669 0.618131,0.25053 0.262555,0.837104 -0.459097,0.751593 -0.355573,-0.03601 -0.789167,0.115518 -0.972204,0.349543 -0.538614,0.673582 0.08551,1.039628 1.663851,0.972119 1.155243,-0.04801 1.369788,0.01203 1.248263,0.343543 -0.08553,0.220527 -0.397583,0.403549 -0.696146,0.409549 -0.294063,0 -1.204755,0.288035 -2.005924,0.628578 -1.338283,0.574571 -1.443305,0.586572 -1.204754,0.129018 m 14.230501,-2.550314 c 0.04801,-1.687709 -0.09903,-6.249769 -0.330069,-10.139748 -0.538614,-9.031112 -0.56262,-10.31677 -0.226548,-10.669313 0.202543,-0.202526 0.538615,0.366045 1.210755,2.029749 0.952702,2.373293 1.009713,3.145887 0.141031,1.969742 l -0.483101,-0.66008 -0.006,1.065132 c 0,0.58057 0.165034,3.448923 0.372079,6.371283 0.490604,6.836342 0.483102,9.778203 -0.006,11.495915 -0.214546,0.751591 -0.471101,1.417674 -0.574621,1.479182 -0.09903,0.06751 -0.141032,-1.260155 -0.09903,-2.941862 M 16.461864,33.080214 c 0.006,-0.121516 0.856683,-0.916613 1.896401,-1.773218 1.03972,-0.862605 2.262478,-1.969742 2.727574,-2.463304 0.733657,-0.789097 0.801169,-0.97812 0.532614,-1.425175 -0.42309,-0.696086 -0.397583,-1.45518 0.06151,-1.846727 0.519109,-0.453056 0.90469,-0.115518 0.90469,0.789098 0,0.417051 0.109525,0.837101 0.250554,0.930114 0.465098,0.294037 0.294062,0.972119 -0.202544,0.814599 -0.318067,-0.10351 -0.586623,0.08551 -0.90469,0.64208 -0.56862,1.009624 -5.290116,4.886101 -5.264611,4.341535 m 5.73571,-6.720827 c -0.08551,-0.15302 -0.268556,-0.276034 -0.397583,-0.276034 -0.13503,0 -0.238551,0.121517 -0.238551,0.276034 0,0.141018 0.177037,0.262531 0.397585,0.262531 0.214544,0 0.324067,-0.121516 0.238549,-0.262531 m 11.295883,4.727081 c 0.825174,-0.427553 0.70965,-0.831102 -0.18904,-0.696086 -0.85668,0.135019 -1.009712,-0.165019 -0.294062,-0.568569 0.501106,-0.276035 2.335992,-0.08551 2.335992,0.24453 0,0.366045 -0.904691,0.997621 -1.663851,1.155142 -0.696146,0.147019 -0.715651,0.135017 -0.195039,-0.135019 M 1.2351528,29.170733 c 0.7696623,-1.369669 0.7951677,-1.479182 0.2820596,-1.479182 -0.4906036,0 -0.4951045,-0.372047 -0.012002,-0.789097 0.4530955,-0.391549 0.9046909,-0.147019 0.9046909,0.48306 0,0.483059 -1.4057965,2.959863 -1.68185483,2.959863 -0.0855169,0 0.147031,-0.532565 0.50710693,-1.174644 m 34.6573119,-0.238529 -0.568621,-0.622576 0.550617,-0.72759 0.550615,-0.72159 1.210755,1.186647 0.654139,-0.636078 c 0.685643,-0.673583 1.192752,-0.562571 1.755369,0.360043 0.208546,0.343542 0.141031,0.574572 -0.28806,1.014126 l -0.550616,0.56857 -0.741156,-0.550569 -0.751658,-0.555068 -0.618131,0.660082 -0.636135,0.65408 m 0.226547,-5.760709 c -0.0315,-1.411674 -0.129028,-2.629825 -0.208543,-2.721334 -0.08551,-0.08551 -0.606127,0.115518 -1.155243,0.445554 -1.389294,0.831101 -1.266268,0.360045 0.147033,-0.56857 0.892688,-0.586572 1.119235,-0.880608 1.033718,-1.327663 -0.06151,-0.31804 -0.177038,-1.888733 -0.262557,-3.496931 -0.08551,-1.600697 -0.262555,-4.63557 -0.397584,-6.7268278 -0.231047,-3.5644384 -0.159034,-5.0931268 0.226549,-5.087126 0.165034,0.006 1.351785,2.7813416 1.699857,3.9814895 0.189041,0.6675827 0.189041,0.6675827 -0.355573,0.1590196 -0.298563,-0.2820346 -0.586624,-0.4590566 -0.642137,-0.3975484 -0.04801,0.061508 0.006,1.3021598 0.121528,2.7648391 0.121526,1.468683 0.28806,3.790967 0.372079,5.186139 0.202542,3.265902 0.24455,3.387417 0.886687,2.775342 0.459097,-0.423052 0.471099,-0.526564 0.121526,-0.924115 -0.220546,-0.244529 -0.385582,-0.618074 -0.385582,-0.843103 0,-0.532564 0.916694,-1.38167 1.260266,-1.161142 0.32407,0.214525 0.298563,2.800843 -0.02551,2.800843 -0.135029,0 -0.513106,0.330042 -0.85668,0.741092 -0.51911,0.612076 -0.622631,1.009625 -0.622631,2.500808 -0.01201,1.749215 -0.471099,4.46455 -0.75766,4.46455 -0.07952,0 -0.171036,-1.149142 -0.202544,-2.562315 m 2.323992,-6.867845 c -0.165036,-0.423054 -0.606129,-0.55507 -0.606129,-0.177023 0,0.282035 0.28206,0.574571 0.544615,0.574571 0.109525,0 0.141032,-0.177022 0.05552,-0.397548 m 7.423566,8.866089 c -0.495105,-0.807097 0.288061,-4.751084 0.930196,-4.751084 0.115522,0 -0.01201,0.507064 -0.28206,1.13114 -0.555116,1.260154 -0.622631,1.992245 -0.244551,2.586317 0.226547,0.355546 0.28206,0.355546 0.501107,0 0.312064,-0.513061 0.330068,-0.220526 0.01201,0.648081 -0.262555,0.721589 -0.628631,0.874607 -0.916692,0.385546 m -16.725535,-1.71321 c -0.13503,-0.379547 -0.238549,-0.789096 -0.238549,-0.924114 0,-0.439554 1.071224,-3.216396 1.198752,-3.088879 0.06151,0.06751 -0.07952,0.715588 -0.33007,1.431176 -0.477101,1.401172 -0.349574,2.353789 0.28806,2.097258 0.459098,-0.177022 0.507109,0.391549 0.07352,0.843103 -0.459097,0.47706 -0.703648,0.391549 -0.978206,-0.360043 m -5.858736,-1.963742 c -0.304564,-0.600074 0.288061,-2.800845 0.9422,-3.466927 0.349572,-0.355545 0.355573,-0.330041 0.07352,0.23853 -0.586623,1.192646 -0.769662,2.226273 -0.465099,2.611821 0.238552,0.294036 0.330071,0.298537 0.501107,0.0195 0.165035,-0.262533 0.214546,-0.250531 0.214546,0.06751 0.006,0.433552 -0.471099,1.051629 -0.801169,1.051629 -0.109526,0 -0.318067,-0.231028 -0.465099,-0.519065 M 7.887568,21.741814 C 7.4959853,21.129739 7.4959853,20.964718 7.86206,19.668558 c 0.2265469,-0.777095 0.5191081,-1.584195 0.6601381,-1.803223 0.3360708,-0.532564 0.3180668,-0.355542 -0.109525,1.107137 -0.4951048,1.719213 -0.195042,2.824849 0.5626177,2.043252 0.2145458,-0.226527 0.2565544,-0.15902 0.1470329,0.256532 -0.2565544,1.020126 -0.7696632,1.21665 -1.2347605,0.477057 M 0.61101965,20.286639 c 0,-0.141019 0.53861365,-0.57457 1.19875285,-0.978119 0.6601392,-0.397551 1.6938584,-1.20465 2.3059874,-1.792722 1.0652229,-1.020124 1.0877276,-1.077132 0.6601382,-1.564693 -0.403585,-0.459056 -0.4095867,-0.57457 -0.061514,-1.216649 0.2145446,-0.391548 0.5806217,-0.747092 0.8251727,-0.801098 0.3435735,-0.06751 0.4335924,0.109514 0.4335924,0.850604 0,0.513062 0.115522,1.003623 0.2565532,1.093635 0.4095878,0.268533 0.2940622,0.97812 -0.147033,0.886609 -0.2205452,-0.04801 -0.9662026,0.477059 -1.6518475,1.161142 -1.2287588,1.234653 -3.82130596,2.83835 -3.82130596,2.367292 M 5.3610181,14.752458 c -0.2565532,-0.268533 -0.471099,0.141019 -0.2565532,0.495061 0.1590328,0.276034 0.2205452,0.276034 0.3045635,0 0.055517,-0.183023 0.036006,-0.403549 -0.048012,-0.495061 M 2.5734306,16.62919 c -0.2685566,-0.276036 -0.2025427,-1.632203 0.079518,-1.815224 0.1470318,-0.09301 0.2565544,0.141019 0.2565544,0.550567 0,0.600074 0.061514,0.660082 0.3855821,0.379547 0.2085442,-0.183022 0.3795792,-0.214526 0.3795792,-0.0735 0,0.379545 -0.9046902,1.167142 -1.1012322,0.960117 M 14.407928,14.698459 c -0.298563,-0.757593 -1.276772,-1.896233 -1.276772,-1.485183 0,0.115518 -0.177035,0.06151 -0.385578,-0.121516 -0.513109,-0.439555 -0.490604,-1.327663 0.0315,-1.327663 0.226547,0 0.789166,0.427553 1.254263,0.952617 l 0.837176,0.952616 0.298563,-1.479181 c 0.324069,-1.651703 0.685644,-2.073255 1.174747,-1.37567 0.391583,0.55507 0.18304,1.401173 -0.231048,0.96612 -0.501106,-0.526566 -0.618131,-0.298537 -0.795167,1.564693 -0.195042,2.097258 -0.453097,2.476804 -0.904692,1.351665 M 29.22955,13.112762 c -0.29856,-0.586571 -0.05552,-2.226273 0.471102,-3.09938 0.276057,-0.4530561 0.298561,-0.4395543 0.115522,0.153019 -0.355574,1.228651 -0.256554,2.262278 0.208544,2.226274 0.33007,-0.02551 0.385579,0.09301 0.231049,0.513062 -0.268557,0.763593 -0.696147,0.850606 -1.027717,0.208526 m 4.629976,-0.08551 c -0.391582,-0.40355 -0.355574,-1.425176 0.08552,-2.59832 l 0.360073,-0.9301144 -0.153032,1.1191384 c -0.171034,1.351667 0.06151,2.27428 0.433591,1.663705 0.202544,-0.330041 0.238552,-0.32404 0.244553,0.042 0.006,0.64808 -0.606128,1.087634 -0.972205,0.703588 M 22.323598,10.167893 C 22.109053,9.7583412 22.170566,9.3427904 22.599656,8.3211649 22.898219,7.5935756 23.303305,6.8584852 23.498345,6.6889642 23.999451,6.2614118 23.94394,6.4999405 23.247793,7.7765985 c -0.648137,1.1866458 -0.648137,2.3897945 0,1.8347246 0.423089,-0.3600434 0.453095,-0.135018 0.09302,0.5745719 -0.343571,0.65408 -0.673642,0.648079 -1.014212,-0.0195 M 6.6557972,9.7208392 C 6.3512325,9.4027998 6.4847609,7.7645983 6.8763424,6.9695001 7.4389613,5.8383614 7.5724909,6.0033805 7.09689,7.2455337 6.6873021,8.3166658 6.7728214,9.2827854 7.255924,8.9752475 c 0.1410311,-0.099013 0.2565532,-0.055507 0.2565532,0.07951 0,0.3600448 -0.6541388,0.8746073 -0.85668,0.6675827 M 27.235636,2.1224031 C 28.300861,1.6828492 28.078815,1.315304 26.850056,1.4863251 L 25.768327,1.6333432 26.368454,1.12028 c 0.886687,-0.74709195 2.592547,-0.63607838 2.592547,0.1770217 0,0.4230521 -1.302274,1.1866462 -1.969916,1.1431409 -0.318067,-0.019502 -0.244551,-0.1155135 0.244551,-0.3180393" />
</svg>
