<?xml version="1.0" encoding="UTF-8" standalone="no"?>
<svg
   xmlns:dc="http://purl.org/dc/elements/1.1/"
   xmlns:cc="http://creativecommons.org/ns#"
   xmlns:rdf="http://www.w3.org/1999/02/22-rdf-syntax-ns#"
   xmlns:svg="http://www.w3.org/2000/svg"
   xmlns="http://www.w3.org/2000/svg"
   xmlns:sodipodi="http://sodipodi.sourceforge.net/DTD/sodipodi-0.dtd"
   xmlns:inkscape="http://www.inkscape.org/namespaces/inkscape"
   viewBox="0 0 48 48"
   id="svg2"
   version="1.1"
   inkscape:version="0.91 r13725"
   sodipodi:docname="package_development_debugger.svg">
  <metadata
     id="metadata17">
    <rdf:RDF>
      <cc:Work
         rdf:about="">
        <dc:format>image/svg+xml</dc:format>
        <dc:type
           rdf:resource="http://purl.org/dc/dcmitype/StillImage" />
        <dc:title></dc:title>
      </cc:Work>
    </rdf:RDF>
  </metadata>
  <sodipodi:namedview
     pagecolor="#ffffff"
     bordercolor="#666666"
     borderopacity="1"
     objecttolerance="10"
     gridtolerance="10"
     guidetolerance="10"
     inkscape:pageopacity="0"
     inkscape:pageshadow="2"
     inkscape:window-width="1280"
     inkscape:window-height="694"
     id="namedview15"
     showgrid="false"
     inkscape:zoom="4.9166667"
     inkscape:cx="-9.1525424"
     inkscape:cy="24"
     inkscape:window-x="0"
     inkscape:window-y="0"
     inkscape:window-maximized="1"
     inkscape:current-layer="svg2" />
  <defs
     id="defs4">
    <linearGradient
       id="0"
       x1="24.05"
       y1="48.44"
       x2="23.988"
       y2="-.311"
       gradientUnits="userSpaceOnUse">
      <stop
         stop-color="#c52828"
         id="stop7" />
      <stop
         offset="1"
         stop-color="#ff5454"
         id="stop9" />
    </linearGradient>
  </defs>
  <path
     d="m 47.075685,39.298012 -6.676539,-7.034451 c -0.510355,-0.538038 -1.234865,-0.69057 -1.871603,-0.394384 l -0.557861,0.259431 c 0.259249,-1.538115 0.397545,-3.142818 0.397545,-4.794044 0,-3.15951 -0.503266,-6.151926 -1.401211,-8.82365 l 1.851392,-0.86015 5.8448,6.157962 c 0.345363,0.363842 0.776843,0.543187 1.206514,0.543187 0.497233,0 0.992053,-0.239719 1.349633,-0.71028 0.666751,-0.87702 0.603258,-2.22478 -0.141758,-3.009641 L 40.400052,13.596833 C 39.889697,13.058794 39.165487,12.906261 38.528299,13.202449 L 35.30314,14.700965 C 33.848387,12.0644 31.948129,9.9509575 29.76449,8.5875723 L 31.000413,5.2172869 36.097779,7.360561 C 37.03931,7.756543 38.074951,7.1789066 38.411417,6.0698022 38.747733,4.9614079 38.256982,3.7418547 37.3153,3.3458727 L 30.619156,0.53120496 C 29.720455,0.15315766 28.72674,0.66189676 28.347896,1.693403 L 26.347798,7.1471215 C 25.583925,6.9677754 24.799995,6.8738407 24.00068,6.8738407 c -0.799315,0 -1.5834,0.09429 -2.347271,0.2732808 L 19.653161,1.693403 C 19.274919,0.66154162 18.280752,0.15315766 17.381902,0.53120496 L 10.687265,3.3458727 C 9.7457319,3.7416771 9.2549837,4.9617631 9.5911479,6.0701572 9.9273121,7.1785515 10.963557,7.7567206 11.904938,7.3607387 l 5.096458,-2.1432743 1.236072,3.3706406 c -2.183334,1.3633852 -4.084044,3.476828 -5.538345,6.112683 L 9.4744178,13.202449 C 8.8375288,12.906616 8.112566,13.058794 7.602815,13.596833 l -6.67804879,7.035159 c -0.7451718,0.784861 -0.80881522,2.132621 -0.14190842,3.009641 0.35758001,0.470561 0.85255181,0.71028 1.34963601,0.71028 0.4298185,0 0.8611479,-0.179345 1.2065122,-0.543187 l 5.8454018,-6.158139 1.8509412,0.86015 c -0.898097,2.672434 -1.4013632,5.663962 -1.4013632,8.823648 0,1.651227 0.1383038,3.255931 0.3975452,4.793691 L 9.474424,31.869 C 8.8372356,31.573168 8.1125723,31.725701 7.6028213,32.263384 L 0.92477373,39.298012 C 0.1797519,40.082872 0.11595776,41.430631 0.78271371,42.307651 1.1402938,42.778212 1.6352643,43.017933 2.1325,43.017933 c 0.4298198,0 0.861148,-0.179346 1.2065123,-0.542833 l 5.8454018,-6.157785 2.3006709,1.068973 c 2.465809,6.214608 7.147078,10.410951 12.514703,10.410951 5.369132,0 10.048742,-4.196165 12.514703,-10.410951 l 2.301422,-1.068973 5.844951,6.157429 c 0.345516,0.364198 0.776694,0.543189 1.206512,0.543189 0.497235,0 0.992208,-0.239721 1.349636,-0.710282 0.666748,-0.877197 0.603106,-2.224956 -0.14206,-3.009818 M 18.30413,20.752386 c 0,-1.52462 1.050722,-2.761753 2.347118,-2.761753 1.295947,0 2.346517,1.237133 2.346517,2.761753 0,1.524974 -1.05057,2.761396 -2.346517,2.761396 -1.296396,0 -2.347118,-1.236422 -2.347118,-2.761396 m 4.693333,16.617033 c -1.296246,0 -2.346517,-1.238198 -2.346517,-2.762461 0,-1.524265 1.050271,-2.760687 2.346517,-2.760687 1.294739,0 2.345462,1.236422 2.345462,2.760687 0,1.524263 -1.050723,2.762461 -2.345462,2.762461 m 4.617929,-10.339921 c 0,-1.705741 1.17665,-3.089015 2.626275,-3.089015 1.449927,0 2.624919,1.383451 2.624919,3.089015 0,1.708404 -1.174992,3.091499 -2.624919,3.091499 -1.449625,0 -2.626275,-1.383095 -2.626275,-3.091499"
     id="path13"
     style="fill:#c83737;fill-opacity:0.85199998"
     inkscape:connector-curvature="0" />
</svg>
