<?xml version="1.0" encoding="UTF-8" standalone="no"?>
<svg
   xmlns:dc="http://purl.org/dc/elements/1.1/"
   xmlns:cc="http://creativecommons.org/ns#"
   xmlns:rdf="http://www.w3.org/1999/02/22-rdf-syntax-ns#"
   xmlns:svg="http://www.w3.org/2000/svg"
   xmlns="http://www.w3.org/2000/svg"
   xmlns:sodipodi="http://sodipodi.sourceforge.net/DTD/sodipodi-0.dtd"
   xmlns:inkscape="http://www.inkscape.org/namespaces/inkscape"
   viewBox="0 0 48 48"
   id="svg2"
   version="1.1"
   inkscape:version="0.91 r13725"
   sodipodi:docname="paypal.svg">
  <metadata
     id="metadata37">
    <rdf:RDF>
      <cc:Work
         rdf:about="">
        <dc:format>image/svg+xml</dc:format>
        <dc:type
           rdf:resource="http://purl.org/dc/dcmitype/StillImage" />
        <dc:title></dc:title>
      </cc:Work>
    </rdf:RDF>
  </metadata>
  <sodipodi:namedview
     pagecolor="#ffffff"
     bordercolor="#666666"
     borderopacity="1"
     objecttolerance="10"
     gridtolerance="10"
     guidetolerance="10"
     inkscape:pageopacity="0"
     inkscape:pageshadow="2"
     inkscape:window-width="1280"
     inkscape:window-height="694"
     id="namedview35"
     showgrid="false"
     inkscape:zoom="4.9166667"
     inkscape:cx="-9.1525424"
     inkscape:cy="24"
     inkscape:window-x="0"
     inkscape:window-y="0"
     inkscape:window-maximized="1"
     inkscape:current-layer="svg2" />
  <defs
     id="defs4">
    <clipPath
       id="clipPath6">
      <path
         transform="matrix(15.33333 0 0 11.5 415-125.5)"
         d="m-24 13c0 1.105-.672 2-1.5 2-.828 0-1.5-.895-1.5-2 0-1.105.672-2 1.5-2 .828 0 1.5.895 1.5 2"
         fill="#1890d0"
         id="path8" />
    </clipPath>
    <linearGradient
       id="2"
       x1="-26.303"
       y1="29.398"
       x2="-23.612"
       y2="16.456"
       gradientUnits="userSpaceOnUse"
       gradientTransform="matrix(1.06038,0,0,1.06038,50.993,8.483)">
      <stop
         stop-color="#1b92f4"
         id="stop11" />
      <stop
         stop-color="#20b9fa"
         offset="1"
         id="stop13" />
    </linearGradient>
    <linearGradient
       id="1"
       x1="-31.916"
       y1="25.328"
       x2="-26.13"
       y2=".304"
       gradientUnits="userSpaceOnUse"
       gradientTransform="matrix(1.06038,0,0,1.06038,50.993,8.483)">
      <stop
         stop-color="#222d65"
         id="stop16" />
      <stop
         offset="1"
         stop-color="#3b4eaf"
         id="stop18" />
    </linearGradient>
    <linearGradient
       gradientTransform="matrix(1.77384 0 0 1.71427 42.46 39.38)"
       gradientUnits="userSpaceOnUse"
       y2="-22.851"
       x2="-11.233"
       y1="4.675"
       x1="-10.767"
       id="0">
      <stop
         stop-color="#e1e1e1"
         id="stop21" />
      <stop
         stop-color="#f4f4ff"
         offset="1"
         id="stop23" />
    </linearGradient>
  </defs>
  <g
     id="g4168"
     transform="matrix(1.7425031,0,0,1.4639809,-17.922679,-11.237516)">
    <path
       d="m 34.879466,16.131521 c -0.02969,0.189808 -0.06362,0.383857 -0.101797,0.583209 -1.31169,6.734473 -5.799218,9.060947 -11.530572,9.060947 l -2.918166,0 c -0.700911,0 -1.291543,0.508982 -1.400762,1.20035 l -1.494075,9.475556 -0.423092,2.685942 c -0.07105,0.453843 0.27888,0.86315 0.736964,0.86315 l 5.175715,0 c 0.6129,0 1.133546,-0.44536 1.230041,-1.049776 l 0.0509,-0.262975 0.974489,-6.184136 0.06256,-0.339321 c 0.09543,-0.606538 0.617141,-1.051897 1.230041,-1.051897 l 0.774077,0 c 5.014537,0 8.940064,-2.03593 10.087395,-7.927401 0.479292,-2.461142 0.231163,-4.516159 -1.037052,-5.961457 -0.383857,-0.435816 -0.859968,-0.797405 -1.416667,-1.092191"
       id="path31"
       style="fill:#2a7fff"
       inkscape:connector-curvature="0" />
    <path
       d="m 16.00046,8.0005271 c -0.699851,0 -1.295784,0.5089824 -1.403943,1.2014105 L 10.452552,35.463309 c -0.08165,0.519586 0.319174,0.988274 0.843002,0.988274 l 6.140661,0 1.495135,-9.475556 c 0.109219,-0.691368 0.698791,-1.19929 1.399702,-1.19929 l 2.918166,0 c 5.731354,0 10.217821,-2.329654 11.529511,-9.063067 0.03923,-0.199352 0.07423,-0.392341 0.103918,-0.582149 0.39022,-2.488712 -0.0021,-4.18426 -1.347743,-5.718629 C 32.051432,8.7237063 29.375033,8.0005271 25.948945,8.0005271 l -9.947425,0"
       id="path33"
       style="fill:#003380"
       inkscape:connector-curvature="0" />
  </g>
</svg>
