<?xml version="1.0" encoding="UTF-8" standalone="no"?>
<svg
   xmlns:dc="http://purl.org/dc/elements/1.1/"
   xmlns:cc="http://creativecommons.org/ns#"
   xmlns:rdf="http://www.w3.org/1999/02/22-rdf-syntax-ns#"
   xmlns:svg="http://www.w3.org/2000/svg"
   xmlns="http://www.w3.org/2000/svg"
   xmlns:sodipodi="http://sodipodi.sourceforge.net/DTD/sodipodi-0.dtd"
   xmlns:inkscape="http://www.inkscape.org/namespaces/inkscape"
   viewBox="0 0 48 48"
   id="svg2"
   version="1.1"
   inkscape:version="0.91 r13725"
   sodipodi:docname="phatch.svg">
  <metadata
     id="metadata24">
    <rdf:RDF>
      <cc:Work
         rdf:about="">
        <dc:format>image/svg+xml</dc:format>
        <dc:type
           rdf:resource="http://purl.org/dc/dcmitype/StillImage" />
        <dc:title></dc:title>
      </cc:Work>
    </rdf:RDF>
  </metadata>
  <sodipodi:namedview
     pagecolor="#ffffff"
     bordercolor="#666666"
     borderopacity="1"
     objecttolerance="10"
     gridtolerance="10"
     guidetolerance="10"
     inkscape:pageopacity="0"
     inkscape:pageshadow="2"
     inkscape:window-width="1280"
     inkscape:window-height="694"
     id="namedview22"
     showgrid="false"
     inkscape:zoom="4.9166667"
     inkscape:cx="-9.1525424"
     inkscape:cy="24"
     inkscape:window-x="0"
     inkscape:window-y="0"
     inkscape:window-maximized="1"
     inkscape:current-layer="svg2" />
  <defs
     id="defs4">
    <linearGradient
       gradientTransform="matrix(1.77384,0,0,1.71427,42.461,39.376)"
       gradientUnits="userSpaceOnUse"
       y2="-22.851"
       x2="-11.233"
       y1="4.675"
       x1="-10.767"
       id="0">
      <stop
         stop-color="#e1e1e1"
         id="stop7" />
      <stop
         stop-color="#f4f4ff"
         offset="1"
         id="stop9" />
    </linearGradient>
    <linearGradient
       id="1"
       x1="24.265"
       y1="36.512"
       x2="24.02"
       y2="12.06"
       gradientUnits="userSpaceOnUse">
      <stop
         stop-color="#2e3436"
         id="stop12" />
      <stop
         stop-color="#555753"
         offset="1"
         id="stop14" />
    </linearGradient>
  </defs>
  <path
     inkscape:connector-curvature="0"
     style="fill:#808080"
     id="path20"
     d="m 23.898305,0.44138983 c -10.407128,0 -19.3777068,9.45671787 -23.49861526,23.10340317 -0.12713999,0.414149 -0.12713999,0.896984 0,1.317194 C 4.5205982,38.508671 13.489865,47.96539 23.898305,47.96539 c 10.407129,0 19.377707,-9.456719 23.498615,-23.103403 0.12714,-0.414149 0.12714,-0.896985 0,-1.317194 C 43.276012,9.8981077 34.306744,0.44138983 23.898305,0.44138983 m 0,7.37385597 c 5.877275,0 10.633883,7.3395132 10.633883,16.3901642 0,9.050652 -4.761851,16.390164 -10.633883,16.390164 -5.877275,0 -10.633884,-7.339512 -10.633884,-16.390164 0,-9.058732 4.761851,-16.3901642 10.633884,-16.3901642 m -1.230768,3.2545982 c -0.214958,0 -0.347341,0.157579 -0.399769,0.476775 -0.09568,0.569707 -0.204473,1.63033 -0.322438,3.17985 -0.347341,0.17172 -0.682886,0.389905 -1.009256,0.650516 l -1.530923,-1.830333 c -0.09568,-0.113132 -0.192676,-0.1697 -0.289668,-0.1697 -0.162531,0 -0.511182,0.408088 -1.047267,1.222243 -0.536086,0.814153 -0.900466,1.424265 -1.093142,1.834372 -0.06685,0.147478 -0.09961,0.280813 -0.09961,0.393946 0,0.137376 0.0367,0.272732 0.110097,0.410108 0.495452,0.923247 0.892601,1.709119 1.187513,2.359633 -0.184811,0.525262 -0.328991,1.050522 -0.432537,1.573763 l -2.063076,0.476776 c -0.08127,0.02223 -0.150734,0.09899 -0.209716,0.224246 -0.05898,0.12525 -0.08913,0.254549 -0.08913,0.389905 l 0,3.796022 c 0,0.147476 0.03015,0.282833 0.08913,0.402026 0.05898,0.119198 0.136315,0.189901 0.233308,0.212125 l 2.030309,0.462634 c 0.103546,0.557584 0.252968,1.12325 0.453509,1.692956 -0.133693,0.284853 -0.332923,0.6889 -0.599,1.208101 -0.266077,0.5192 -0.454821,0.896984 -0.566231,1.137392 -0.05898,0.12525 -0.08651,0.258589 -0.08651,0.393945 0,0.147477 0.02491,0.276772 0.07733,0.389906 0.288359,0.616171 0.897844,1.573762 1.829767,2.872773 0.08127,0.12525 0.173016,0.189902 0.276562,0.189902 0.111417,0 0.204473,-0.05051 0.279184,-0.153538 l 1.563691,-1.830333 c 0.302777,0.240408 0.6357,0.452533 0.998769,0.634354 l 0.309331,3.145506 c 0.0078,0.147476 0.04981,0.270711 0.12845,0.367683 0.07733,0.09697 0.167773,0.145457 0.27132,0.145457 l 2.462846,0 c 0.214958,0 0.349963,-0.157579 0.402391,-0.476777 0.09568,-0.569705 0.201852,-1.630329 0.319817,-3.179848 0.347341,-0.17172 0.684196,-0.389905 1.009255,-0.650516 l 1.530923,1.846495 c 0.103547,0.103036 0.20054,0.153538 0.289669,0.153538 0.16253,0 0.509871,-0.402027 1.042023,-1.212141 0.532154,-0.810114 0.899156,-1.424265 1.098385,-1.846495 0.06685,-0.113132 0.09961,-0.246468 0.09961,-0.393946 0,-0.147477 -0.03539,-0.288893 -0.110098,-0.426269 -0.532152,-1.004056 -0.929301,-1.789928 -1.187512,-2.359634 0.14811,-0.422229 0.29229,-0.94345 0.432537,-1.557601 l 2.05259,-0.476775 c 0.08913,-0.02223 0.161219,-0.09899 0.220201,-0.224247 0.05898,-0.12525 0.08913,-0.254549 0.08913,-0.389904 l 0,-3.796022 c 0,-0.147476 -0.03015,-0.282833 -0.08913,-0.402027 -0.05898,-0.117176 -0.135004,-0.189901 -0.230686,-0.212124 l -2.030309,-0.476776 c -0.111416,-0.547483 -0.263454,-1.107088 -0.45613,-1.676795 0.133693,-0.284852 0.332923,-0.688899 0.599,-1.2081 0.266076,-0.5192 0.45482,-0.896984 0.566231,-1.137392 0.05898,-0.12525 0.08913,-0.254549 0.08913,-0.389905 0,-0.159598 -0.02752,-0.286874 -0.07996,-0.379805 -0.266077,-0.581827 -0.876873,-1.551539 -1.829767,-2.907117 -0.08913,-0.113132 -0.18088,-0.169699 -0.276562,-0.169699 -0.111417,0 -0.19923,0.05051 -0.266077,0.153538 l -1.574177,1.830332 C 26.538098,15.122436 26.205175,14.91031 25.842106,14.72849 l -0.311953,-3.145506 c -0.0078,-0.147478 -0.04718,-0.270711 -0.125828,-0.367683 -0.07733,-0.09697 -0.170395,-0.145457 -0.273941,-0.145457 l -2.462847,0 m 1.230768,8.755698 c 0.783811,0 1.45228,0.42829 2.006714,1.282848 0.554436,0.854559 0.832309,1.88488 0.832309,3.092979 0,1.208101 -0.277873,2.238421 -0.832309,3.09298 -0.554434,0.854559 -1.222903,1.282849 -2.006714,1.282849 -0.783812,0 -1.452279,-0.42829 -2.006715,-1.282849 -0.554435,-0.854559 -0.832307,-1.884879 -0.832307,-3.09298 0,-1.208099 0.277872,-2.23842 0.832307,-3.092979 0.554436,-0.854558 1.222903,-1.282848 2.006715,-1.282848" />
</svg>
