<?xml version="1.0" encoding="UTF-8" standalone="no"?>
<svg
   xmlns:dc="http://purl.org/dc/elements/1.1/"
   xmlns:cc="http://creativecommons.org/ns#"
   xmlns:rdf="http://www.w3.org/1999/02/22-rdf-syntax-ns#"
   xmlns:svg="http://www.w3.org/2000/svg"
   xmlns="http://www.w3.org/2000/svg"
   xmlns:sodipodi="http://sodipodi.sourceforge.net/DTD/sodipodi-0.dtd"
   xmlns:inkscape="http://www.inkscape.org/namespaces/inkscape"
   viewBox="0 0 48 48"
   id="svg2"
   version="1.1"
   inkscape:version="0.91 r13725"
   sodipodi:docname="photofilmstrip.svg">
  <metadata
     id="metadata17">
    <rdf:RDF>
      <cc:Work
         rdf:about="">
        <dc:format>image/svg+xml</dc:format>
        <dc:type
           rdf:resource="http://purl.org/dc/dcmitype/StillImage" />
        <dc:title></dc:title>
      </cc:Work>
    </rdf:RDF>
  </metadata>
  <sodipodi:namedview
     pagecolor="#ffffff"
     bordercolor="#666666"
     borderopacity="1"
     objecttolerance="10"
     gridtolerance="10"
     guidetolerance="10"
     inkscape:pageopacity="0"
     inkscape:pageshadow="2"
     inkscape:window-width="1280"
     inkscape:window-height="694"
     id="namedview15"
     showgrid="false"
     inkscape:zoom="4.9166667"
     inkscape:cx="-28.632871"
     inkscape:cy="24"
     inkscape:window-x="0"
     inkscape:window-y="0"
     inkscape:window-maximized="1"
     inkscape:current-layer="svg2" />
  <defs
     id="defs4">
    <linearGradient
       gradientTransform="matrix(.49433 0 0 .4778 86.64 13.1)"
       gradientUnits="userSpaceOnUse"
       y2="-26.05"
       x2="-125.19"
       y1="73.5"
       x1="-123.97"
       id="0">
      <stop
         stop-color="#2b65bd"
         id="stop7" />
      <stop
         offset="1"
         stop-color="#64a3dc"
         id="stop9" />
    </linearGradient>
  </defs>
  <path
     inkscape:connector-curvature="0"
     class="fill"
     d="m 36.425762,17.732577 c -1.769491,0 -3.204745,-1.739627 -3.204745,-3.884373 0,-2.120915 1.435254,-3.8605425 3.204745,-3.8605425 1.789153,0 3.224407,1.7396275 3.224407,3.8605425 0,2.144746 -1.435254,3.884373 -3.224407,3.884373 z m -23.121356,0 c -1.789152,0 -3.224406,-1.739627 -3.224406,-3.884373 0,-2.120915 1.435254,-3.8605425 3.224406,-3.8605425 1.769492,0 3.204746,1.7396275 3.204746,3.8605425 0,2.144746 -1.435254,3.884373 -3.204746,3.884373 z M 36.18983,0.16949205 c -5.721356,0 -10.44,5.07589835 -11.246102,11.67694895 l -0.373559,0 C 23.764067,5.2453904 19.025762,0.16949205 13.304406,0.16949205 c -6.291525,0 -11.3837284,6.14827115 -11.3837284,13.67871195 0,7.50661 4.9938983,13.58339 11.2067794,13.702542 l 0.353899,0 0,4.67078 -13.07457668,-4.265661 0,18.206508 13.07457668,-4.71844 0,6.386576 19.189152,0 -5.623051,-20.279763 9.142373,0 c 6.291526,0 11.40339,-6.12444 11.40339,-13.702542 0,-7.5304408 -5.111864,-13.67871195 -11.40339,-13.67871195 z"
     id="path4"
     style="clip-rule:evenodd;fill:#3771c8;fill-rule:evenodd" />
</svg>
