<?xml version="1.0" encoding="UTF-8" standalone="no"?>
<svg
   xmlns:dc="http://purl.org/dc/elements/1.1/"
   xmlns:cc="http://creativecommons.org/ns#"
   xmlns:rdf="http://www.w3.org/1999/02/22-rdf-syntax-ns#"
   xmlns:svg="http://www.w3.org/2000/svg"
   xmlns="http://www.w3.org/2000/svg"
   xmlns:sodipodi="http://sodipodi.sourceforge.net/DTD/sodipodi-0.dtd"
   xmlns:inkscape="http://www.inkscape.org/namespaces/inkscape"
   viewBox="0 0 48 48"
   id="svg2"
   version="1.1"
   inkscape:version="0.91 r13725"
   sodipodi:docname="plv.svg">
  <metadata
     id="metadata22">
    <rdf:RDF>
      <cc:Work
         rdf:about="">
        <dc:format>image/svg+xml</dc:format>
        <dc:type
           rdf:resource="http://purl.org/dc/dcmitype/StillImage" />
        <dc:title></dc:title>
      </cc:Work>
    </rdf:RDF>
  </metadata>
  <sodipodi:namedview
     pagecolor="#ffffff"
     bordercolor="#666666"
     borderopacity="1"
     objecttolerance="10"
     gridtolerance="10"
     guidetolerance="10"
     inkscape:pageopacity="0"
     inkscape:pageshadow="2"
     inkscape:window-width="1280"
     inkscape:window-height="694"
     id="namedview20"
     showgrid="false"
     inkscape:zoom="4.9166667"
     inkscape:cx="-9.1525424"
     inkscape:cy="24"
     inkscape:window-x="0"
     inkscape:window-y="0"
     inkscape:window-maximized="1"
     inkscape:current-layer="svg2" />
  <defs
     id="defs4">
    <linearGradient
       gradientTransform="matrix(1.05233 0 0 1.02761-21.291-14.594)"
       gradientUnits="userSpaceOnUse"
       y2="507.8"
       x2="0"
       y1="542.8"
       id="0">
      <stop
         stop-color="#141414"
         id="stop7" />
      <stop
         offset="1"
         stop-color="#2d2d2f"
         id="stop9" />
    </linearGradient>
    <linearGradient
       id="1"
       x1="407.61"
       y1="544.09"
       x2="407.79"
       y2="530.79"
       gradientUnits="userSpaceOnUse">
      <stop
         stop-color="#ff9300"
         id="stop12" />
      <stop
         offset="1"
         stop-color="#ffd702"
         id="stop14" />
    </linearGradient>
  </defs>
  <path
     d="m 44.402532,14.307894 c 1.850436,0 3.351961,-1.081035 3.351961,-2.416329 0,-1.331736 -1.499118,-2.4145503 -3.351961,-2.4145503 -1.850438,0 -3.349556,1.0810363 -3.349556,2.4145503 0,1.335294 1.499118,2.416329 3.349556,2.416329 m -12.28411,0 c 1.850438,0 3.351963,-1.081035 3.351963,-2.416329 0,-1.331736 -1.49912,-2.4145503 -3.351963,-2.4145503 -1.850436,0 -3.349555,1.0810363 -3.349555,2.4145503 0,1.335294 1.499119,2.416329 3.349555,2.416329 m -15.604788,9.178138 c 3.181115,0 6.145664,-0.666757 8.640987,-1.818914 1.453399,-0.668536 1.46543,-2.101619 0.245441,-2.979962 l -6.677454,-4.816654 c -1.222395,-0.88012 -1.222395,-2.306092 0,-3.184434 L 25.941477,5.4818045 C 27.163872,4.6016849 27.19756,3.1365958 25.792288,2.420054 23.169431,1.0812048 19.969067,0.29354303 16.511228,0.29354303 7.6320197,0.29372091 0.43240123,5.4889159 0.43240123,11.891565 c 0,6.402649 7.19961847,11.594467 16.08123277,11.594467"
     id="path18"
     style="fill:#ffd42a;stroke:none;stroke-opacity:0.8"
     inkscape:connector-curvature="0" />
  <path
     d="m 3.894305,33.886978 c -1.850436,0 -3.351961,1.081035 -3.351961,2.416329 0,1.331736 1.499118,2.414551 3.351961,2.414551 1.850438,0 3.349556,-1.081036 3.349556,-2.414551 0,-1.335294 -1.499118,-2.416329 -3.349556,-2.416329 m 12.28411,0 c -1.850438,0 -3.351963,1.081035 -3.351963,2.416329 0,1.331736 1.49912,2.414551 3.351963,2.414551 1.850436,0 3.349555,-1.081036 3.349555,-2.414551 0,-1.335294 -1.499119,-2.416329 -3.349555,-2.416329 M 31.783203,24.70884 c -3.181115,0 -6.145664,0.666757 -8.640987,1.818914 -1.453399,0.668537 -1.46543,2.101619 -0.245441,2.979962 l 6.677454,4.816655 c 1.222395,0.880119 1.222395,2.306091 0,3.184433 l -7.218869,5.204264 c -1.222395,0.880119 -1.256083,2.345208 0.149189,3.06175 2.622857,1.33885 5.823221,2.126511 9.28106,2.126511 8.879208,-1.78e-4 16.078826,-5.195373 16.078826,-11.598022 0,-6.402649 -7.199618,-11.594467 -16.081232,-11.594467"
     id="path18-3"
     style="fill:#ffd42a;stroke:none;stroke-opacity:0.8"
     inkscape:connector-curvature="0" />
</svg>
