<?xml version="1.0" encoding="UTF-8" standalone="no"?>
<svg
   xmlns:dc="http://purl.org/dc/elements/1.1/"
   xmlns:cc="http://creativecommons.org/ns#"
   xmlns:rdf="http://www.w3.org/1999/02/22-rdf-syntax-ns#"
   xmlns:svg="http://www.w3.org/2000/svg"
   xmlns="http://www.w3.org/2000/svg"
   xmlns:sodipodi="http://sodipodi.sourceforge.net/DTD/sodipodi-0.dtd"
   xmlns:inkscape="http://www.inkscape.org/namespaces/inkscape"
   viewBox="0 0 48 48"
   id="svg2"
   version="1.1"
   inkscape:version="0.91 r13725"
   sodipodi:docname="powder-toy.svg">
  <metadata
     id="metadata72">
    <rdf:RDF>
      <cc:Work
         rdf:about="">
        <dc:format>image/svg+xml</dc:format>
        <dc:type
           rdf:resource="http://purl.org/dc/dcmitype/StillImage" />
        <dc:title></dc:title>
      </cc:Work>
    </rdf:RDF>
  </metadata>
  <sodipodi:namedview
     pagecolor="#ffffff"
     bordercolor="#666666"
     borderopacity="1"
     objecttolerance="10"
     gridtolerance="10"
     guidetolerance="10"
     inkscape:pageopacity="0"
     inkscape:pageshadow="2"
     inkscape:window-width="1280"
     inkscape:window-height="694"
     id="namedview70"
     showgrid="false"
     inkscape:zoom="4.9166667"
     inkscape:cx="-9.1525424"
     inkscape:cy="24"
     inkscape:window-x="0"
     inkscape:window-y="0"
     inkscape:window-maximized="1"
     inkscape:current-layer="svg2" />
  <defs
     id="defs4">
    <clipPath
       id="1">
      <path
         transform="matrix(15.33333 0 0 11.5 415-125.5)"
         d="m-24 13c0 1.105-.672 2-1.5 2-.828 0-1.5-.895-1.5-2 0-1.105.672-2 1.5-2 .828 0 1.5.895 1.5 2"
         fill="#1890d0"
         id="path7" />
    </clipPath>
    <linearGradient
       id="0"
       x1="27.456"
       y1="47.39"
       x2="26.442"
       y2="1.017"
       gradientUnits="userSpaceOnUse">
      <stop
         stop-color="#ffbc00"
         id="stop10" />
      <stop
         offset="1"
         stop-color="#ffec00"
         id="stop12" />
    </linearGradient>
  </defs>
  <g
     transform="matrix(2.068453,0,0,2.0505134,-24.709942,-26.123166)"
     id="g16"
     style="fill:#d4aa00;fill-opacity:0.844">
    <g
       clip-path="url(#1)"
       id="g18"
       style="fill:#d4aa00;fill-opacity:0.844">
      <g
         id="g20"
         style="fill:#d4aa00;fill-opacity:0.844">
        <path
           d="m 18,24 c -3.313,0 -6,2.688 -6,6 0,3.313 2.688,6 6,6 3.313,0 6,-2.688 6,-6 l -6,0"
           id="path22"
           style="fill:#d4aa00"
           inkscape:connector-curvature="0" />
        <path
           d="m 25.02,29 1,0 0,0.996 -1,0"
           id="path24"
           style="fill:#d4aa00"
           inkscape:connector-curvature="0" />
        <path
           d="m 19,27 1,0 0,2 -1,0"
           id="path26"
           style="fill:#d4aa00"
           inkscape:connector-curvature="0" />
        <path
           d="m 21,28 0,-1 2,0 0,1"
           id="path28"
           style="fill:#d4aa00"
           inkscape:connector-curvature="0" />
        <path
           d="m 34,24 1,0 0,0.996 -1,0"
           id="path30"
           style="fill:#d4aa00"
           inkscape:connector-curvature="0" />
        <path
           d="m 20,16 0.996,0 0,1 L 20,17"
           id="path32"
           style="fill:#d4aa00"
           inkscape:connector-curvature="0" />
        <path
           d="m 19,24 1,0 0,0.996 -1,0"
           id="path34"
           style="fill:#d4aa00"
           inkscape:connector-curvature="0" />
        <path
           d="m 29,16 0.996,0 0,1 L 29,17"
           id="path36"
           style="fill:#d4aa00"
           inkscape:connector-curvature="0" />
        <path
           d="m 25.02,19 0,-1 2,0 0,1"
           id="path38"
           style="fill:#d4aa00"
           inkscape:connector-curvature="0" />
        <path
           d="m 22,19 1,0 0,1.996 -1,0"
           id="path40"
           style="fill:#d4aa00"
           inkscape:connector-curvature="0" />
        <path
           d="m 21,23 0,1 1,0 0,1 1,0 0,-2"
           id="path42"
           style="fill:#d4aa00"
           inkscape:connector-curvature="0" />
        <path
           d="m 26,26 -1,0 0,1 -0.996,0 0,1 1.996,0"
           id="path44"
           style="fill:#d4aa00"
           inkscape:connector-curvature="0" />
        <path
           d="m 28,24 0,0.996 1,0 0,1 0.996,0 0,-1.996"
           id="path46"
           style="fill:#d4aa00"
           inkscape:connector-curvature="0" />
        <path
           d="m 26,21 0,1 -1,0 0,1 1,0 0,1 1,0 0,-3"
           id="path48"
           style="fill:#d4aa00"
           inkscape:connector-curvature="0" />
        <path
           d="m 19,20 1,0 0,-1 0.996,0 0,-1 L 19,18"
           id="path50"
           style="fill:#d4aa00"
           inkscape:connector-curvature="0" />
        <path
           d="m 27,15 0,-0.996 3,0 0,0.996"
           id="path52"
           style="fill:#d4aa00"
           inkscape:connector-curvature="0" />
        <path
           d="m 28,13.988 0,-1 1,0 0,1"
           id="path54"
           style="fill:#d4aa00"
           inkscape:connector-curvature="0" />
        <path
           d="m 31,22 1,0 0,1 -1,0"
           id="path56"
           style="fill:#d4aa00"
           inkscape:connector-curvature="0" />
        <path
           d="m 35,21 0,-0.996 -1,0 0,-1 -0.996,0 0,1.996"
           id="path58"
           style="fill:#d4aa00"
           inkscape:connector-curvature="0" />
        <path
           d="m 25.02,13 1,0 0,2 -1,0"
           id="path60"
           style="fill:#d4aa00"
           inkscape:connector-curvature="0" />
        <path
           d="m 22,16 0,-0.996 2,0 0,0.996"
           id="path62"
           style="fill:#d4aa00"
           inkscape:connector-curvature="0" />
        <path
           d="m 31.996,13 1,0 0,1 -1,0"
           id="path64"
           style="fill:#d4aa00"
           inkscape:connector-curvature="0" />
        <path
           d="m 31,20 -1,0 0,-1 -0.996,0 0,1 -1,0 0,0.996 3,0 0,-0.996"
           id="path66"
           style="fill:#d4aa00"
           inkscape:connector-curvature="0" />
        <path
           d="m 33,18 0,-1 1.996,0 0,1"
           id="path68"
           style="fill:#d4aa00"
           inkscape:connector-curvature="0" />
      </g>
    </g>
  </g>
</svg>
