<?xml version="1.0" encoding="UTF-8" standalone="no"?>
<svg
   xmlns:dc="http://purl.org/dc/elements/1.1/"
   xmlns:cc="http://creativecommons.org/ns#"
   xmlns:rdf="http://www.w3.org/1999/02/22-rdf-syntax-ns#"
   xmlns:svg="http://www.w3.org/2000/svg"
   xmlns="http://www.w3.org/2000/svg"
   xmlns:sodipodi="http://sodipodi.sourceforge.net/DTD/sodipodi-0.dtd"
   xmlns:inkscape="http://www.inkscape.org/namespaces/inkscape"
   viewBox="0 0 48 48"
   id="svg2"
   version="1.1"
   inkscape:version="0.91 r13725"
   sodipodi:docname="pragha.svg">
  <metadata
     id="metadata32">
    <rdf:RDF>
      <cc:Work
         rdf:about="">
        <dc:format>image/svg+xml</dc:format>
        <dc:type
           rdf:resource="http://purl.org/dc/dcmitype/StillImage" />
        <dc:title></dc:title>
      </cc:Work>
    </rdf:RDF>
  </metadata>
  <sodipodi:namedview
     pagecolor="#ffffff"
     bordercolor="#666666"
     borderopacity="1"
     objecttolerance="10"
     gridtolerance="10"
     guidetolerance="10"
     inkscape:pageopacity="0"
     inkscape:pageshadow="2"
     inkscape:window-width="1280"
     inkscape:window-height="694"
     id="namedview30"
     showgrid="false"
     inkscape:zoom="4.9166667"
     inkscape:cx="-9.1525424"
     inkscape:cy="24"
     inkscape:window-x="0"
     inkscape:window-y="0"
     inkscape:window-maximized="1"
     inkscape:current-layer="svg2" />
  <defs
     id="defs4">
    <clipPath
       id="clipPath6">
      <path
         transform="matrix(15.33333 0 0 11.5 415-125.5)"
         d="m-24 13c0 1.105-.672 2-1.5 2-.828 0-1.5-.895-1.5-2 0-1.105.672-2 1.5-2 .828 0 1.5.895 1.5 2"
         fill="#1890d0"
         id="path8" />
    </clipPath>
    <linearGradient
       y1="545.8"
       x2="0"
       y2="517.8"
       gradientUnits="userSpaceOnUse"
       id="linearGradient10">
      <stop
         stop-color="#3889e9"
         id="stop12" />
      <stop
         offset="1"
         stop-color="#5ea5fb"
         id="stop14" />
    </linearGradient>
    <linearGradient
       id="1"
       gradientUnits="userSpaceOnUse"
       y1="653.96"
       x2="0"
       y2="301.3">
      <stop
         stop-color="#4965b6"
         id="stop17" />
      <stop
         offset="1"
         stop-color="#8d9dcc"
         id="stop19" />
    </linearGradient>
    <linearGradient
       id="0"
       y1="653.96"
       x2="0"
       y2="301.3"
       gradientUnits="userSpaceOnUse">
      <stop
         stop-color="#0a80fd"
         id="stop22" />
      <stop
         offset="1"
         stop-color="#56c5fa"
         id="stop24" />
    </linearGradient>
  </defs>
  <path
     d="m 47.530433,21.671011 c -0.330324,0.232504 -0.817632,0.245422 -1.167579,0.03359 L 34.719776,14.706226 29.202397,40.772519 c -0.01963,0.09816 -0.0654,0.188587 -0.130826,0.271255 -1.105439,3.735565 -7.142831,6.523031 -14.243147,6.523031 -7.9571925,0 -14.43283668,-3.479811 -14.43283668,-7.750136 0,-4.278075 6.47237288,-7.750137 14.43283668,-7.750137 3.267257,0 6.374258,0.576094 8.899105,1.635279 L 31.024081,1.0143144 c 0.06543,-0.29708855 0.359757,-0.53734279 0.74568,-0.59159374 0.369569,-0.0516676 0.758763,0.0826682 0.954995,0.34617276 L 47.710311,20.774579 c 0.225668,0.304839 0.150453,0.684595 -0.179872,0.9171"
     id="path28"
     style="fill:#5f8dd3;enable-background:new"
     inkscape:connector-curvature="0" />
</svg>
