<?xml version="1.0" encoding="UTF-8" standalone="no"?>
<svg
   xmlns:dc="http://purl.org/dc/elements/1.1/"
   xmlns:cc="http://creativecommons.org/ns#"
   xmlns:rdf="http://www.w3.org/1999/02/22-rdf-syntax-ns#"
   xmlns:svg="http://www.w3.org/2000/svg"
   xmlns="http://www.w3.org/2000/svg"
   xmlns:sodipodi="http://sodipodi.sourceforge.net/DTD/sodipodi-0.dtd"
   xmlns:inkscape="http://www.inkscape.org/namespaces/inkscape"
   viewBox="0 0 48 48"
   id="svg2"
   version="1.1"
   inkscape:version="0.91 r13725"
   sodipodi:docname="qtassistant.svg">
  <metadata
     id="metadata19">
    <rdf:RDF>
      <cc:Work
         rdf:about="">
        <dc:format>image/svg+xml</dc:format>
        <dc:type
           rdf:resource="http://purl.org/dc/dcmitype/StillImage" />
        <dc:title></dc:title>
      </cc:Work>
    </rdf:RDF>
  </metadata>
  <sodipodi:namedview
     pagecolor="#ffffff"
     bordercolor="#666666"
     borderopacity="1"
     objecttolerance="10"
     gridtolerance="10"
     guidetolerance="10"
     inkscape:pageopacity="0"
     inkscape:pageshadow="2"
     inkscape:window-width="1280"
     inkscape:window-height="694"
     id="namedview17"
     showgrid="false"
     inkscape:zoom="4.9166667"
     inkscape:cx="-9.1525424"
     inkscape:cy="24"
     inkscape:window-x="0"
     inkscape:window-y="0"
     inkscape:window-maximized="1"
     inkscape:current-layer="svg2" />
  <defs
     id="defs4">
    <linearGradient
       id="0"
       gradientUnits="userSpaceOnUse"
       y1="59.805"
       x2="0"
       y2="0">
      <stop
         stop-color="#139702"
         id="stop7" />
      <stop
         stop-color="#80e950"
         offset="1"
         id="stop9" />
    </linearGradient>
  </defs>
  <path
     style="fill:#00aa00;fill-opacity:1"
     inkscape:connector-curvature="0"
     id="path15"
     d="m 29.576602,46.223622 q -2.194679,1.272834 -5.547746,1.272834 -3.353071,0 -5.663257,-1.272834 -2.19468,-1.272834 -2.19468,-3.056618 0,-1.783785 2.19468,-3.056618 2.310186,-1.272834 5.663257,-1.272834 3.353067,0 5.547746,1.272834 2.310187,1.272833 2.310187,3.056618 0,1.783784 -2.310187,3.056618 m -0.115508,-13.246558 -10.864474,0 0,-2.992979 q 0,-2.865693 2.194675,-4.904046 2.19468,-2.101992 7.742427,-4.904044 3.122052,-1.59286 4.392653,-2.356561 1.386109,-0.827341 2.660016,-2.229276 1.386109,-1.465576 1.386109,-2.992977 0,-2.929335 -3.468578,-4.7131199 -3.35307,-1.7837847 -9.362856,-1.7837847 -9.933801,0 -13.639998,6.1132366 L 0.56726376,9.920595 Q 2.9929579,6.2912015 8.8905327,3.4255065 14.900318,0.49617114 24.147663,0.49617114 q 10.517948,0 17.105279,3.43847026 6.58733,3.3748261 6.58733,8.6607216 0,2.292918 -2.194675,4.649478 -2.194676,2.35656 -3.930617,3.374828 -1.61713,0.954625 -4.623673,2.483843 -0.346527,0.190925 -0.577545,0.318208 -7.04937,3.50211 -7.04937,7.004221 l 0,2.547485" />
</svg>
