<?xml version="1.0" encoding="UTF-8" standalone="no"?>
<svg
   xmlns:dc="http://purl.org/dc/elements/1.1/"
   xmlns:cc="http://creativecommons.org/ns#"
   xmlns:rdf="http://www.w3.org/1999/02/22-rdf-syntax-ns#"
   xmlns:svg="http://www.w3.org/2000/svg"
   xmlns="http://www.w3.org/2000/svg"
   xmlns:sodipodi="http://sodipodi.sourceforge.net/DTD/sodipodi-0.dtd"
   xmlns:inkscape="http://www.inkscape.org/namespaces/inkscape"
   viewBox="0 0 48 48"
   id="svg2"
   version="1.1"
   inkscape:version="0.91 r13725"
   sodipodi:docname="quiterss.svg">
  <metadata
     id="metadata19">
    <rdf:RDF>
      <cc:Work
         rdf:about="">
        <dc:format>image/svg+xml</dc:format>
        <dc:type
           rdf:resource="http://purl.org/dc/dcmitype/StillImage" />
        <dc:title></dc:title>
      </cc:Work>
    </rdf:RDF>
  </metadata>
  <sodipodi:namedview
     pagecolor="#ffffff"
     bordercolor="#666666"
     borderopacity="1"
     objecttolerance="10"
     gridtolerance="10"
     guidetolerance="10"
     inkscape:pageopacity="0"
     inkscape:pageshadow="2"
     inkscape:window-width="1280"
     inkscape:window-height="694"
     id="namedview17"
     showgrid="false"
     inkscape:zoom="4.9166667"
     inkscape:cx="-9.1525424"
     inkscape:cy="24"
     inkscape:window-x="0"
     inkscape:window-y="0"
     inkscape:window-maximized="1"
     inkscape:current-layer="svg2" />
  <defs
     id="defs4">
    <linearGradient
       id="0"
       x1="24"
       y1="48.2"
       x2="23.593"
       y2=".407"
       gradientUnits="userSpaceOnUse">
      <stop
         stop-color="#00a661"
         id="stop7" />
      <stop
         stop-color="#37ce97"
         offset="1"
         id="stop9" />
    </linearGradient>
  </defs>
  <circle
     cx="400.57"
     cy="531.8"
     r="14"
     fill="#5ea5fb"
     fill-opacity="0"
     transform="matrix(1.71428 0 0 1.71428-662.7-887.66)"
     id="circle13" />
  <path
     d="m 4.906647,0.19238983 c 3.9434196,0 7.738814,0.51335582 11.386181,1.53610337 3.649341,1.0247295 7.063815,2.4756038 10.245393,4.3506409 3.181577,1.8750371 6.078946,4.1246849 8.690129,6.7469619 2.611184,2.622278 4.851314,5.531954 6.71842,8.727048 1.867105,3.195096 3.311841,6.626056 4.332236,10.28892 1.020394,3.664846 1.529604,7.476364 1.529604,11.434554 0,1.250686 -0.440132,2.31704 -1.322368,3.203024 -0.882237,0.885984 -1.946051,1.327986 -3.189473,1.327986 -1.245394,0 -2.307236,-0.442002 -3.191447,-1.327986 -0.882236,-0.885984 -1.322367,-1.95432 -1.322367,-3.203024 0,-3.125722 -0.40658,-6.138466 -1.219738,-9.040214 C 36.75006,31.336636 35.609271,28.627148 34.138877,26.109922 32.668483,23.592694 30.905983,21.29944 28.847431,19.234124 26.788879,17.166826 24.507301,15.39684 22.000722,13.920198 19.494143,12.443557 16.796117,11.297921 13.908618,10.481309 11.021119,9.6646966 8.0211202,9.2563904 4.9086206,9.2563904 3.6632268,9.2563904 2.6013843,8.814389 1.7191472,7.9284043 0.83691142,7.0424196 0.39677966,5.9740844 0.39677966,4.7253812 0.39677966,3.4746958 0.83691142,2.4083428 1.7191472,1.522358 2.6013843,0.63637323 3.6652004,0.19437189 4.9086206,0.19437189 m 0,17.14093011 c 3.5624993,0 6.9078934,0.685796 10.0381554,2.057388 3.130262,1.371592 5.86184,3.230772 8.196709,5.573578 2.334868,2.344786 4.184209,5.08797 5.549998,8.23153 1.365789,3.143562 2.048684,6.503168 2.048684,10.080802 0,1.250686 -0.440131,2.31704 -1.322368,3.203024 -0.882237,0.885984 -1.946052,1.327986 -3.191447,1.327986 -1.245394,0 -2.307236,-0.442002 -3.189472,-1.327986 -0.882237,-0.885984 -1.322369,-1.95432 -1.322369,-3.203024 0,-2.326948 -0.440132,-4.515152 -1.322367,-6.564612 -0.882237,-2.049458 -2.084211,-3.837284 -3.605921,-5.36546 -1.52171,-1.528174 -3.301973,-2.735254 -5.342762,-3.621238 -2.0407882,-0.885986 -4.2197362,-1.327986 -6.5368404,-1.327986 -1.2453938,0 -2.3072363,-0.442002 -3.1894734,-1.327988 -0.88223578,-0.885984 -1.32236754,-1.954318 -1.32236754,-3.205004 0,-1.250686 0.44013176,-2.317038 1.32236754,-3.203024 0.8822371,-0.885984 1.9460532,-1.327986 3.1894734,-1.327986 m 8.3013144,23.804646 c 0,0.903824 -0.163817,1.736292 -0.493421,2.501372 -0.327632,0.765078 -0.777632,1.433036 -1.348027,2.005852 -0.570394,0.572818 -1.245394,1.02473 -2.0230257,1.353754 -0.7776305,0.329024 -1.5986838,0.495518 -2.4651309,0.495518 -0.8999994,0 -1.7289471,-0.164512 -2.4907889,-0.495518 C 3.6276996,46.671902 2.9625687,46.21999 2.3921738,45.647172 1.8217789,45.074356 1.3717792,44.406398 1.0441483,43.64132 0.71651617,42.87624 0.55072716,42.043772 0.55072716,41.139948 c 0,-0.868146 0.16381542,-1.692686 0.49342114,-2.475604 0.3276309,-0.780934 0.7776306,-1.458802 1.3480255,-2.03162 0.5703949,-0.572818 1.2355258,-1.02473 1.9973677,-1.353752 0.7618418,-0.329024 1.5907895,-0.495518 2.4907889,-0.495518 0.8644735,0 1.6855268,0.164512 2.4651309,0.495518 0.7776317,0.331004 1.4526317,0.780934 2.0230257,1.353752 0.570395,0.572818 1.020395,1.250686 1.348027,2.03162 0.327631,0.780936 0.493421,1.605476 0.493421,2.475604 z"
     id="path15"
     style="fill:#00aa88"
     inkscape:connector-curvature="0" />
</svg>
