<?xml version="1.0" encoding="UTF-8" standalone="no"?>
<svg
   xmlns:dc="http://purl.org/dc/elements/1.1/"
   xmlns:cc="http://creativecommons.org/ns#"
   xmlns:rdf="http://www.w3.org/1999/02/22-rdf-syntax-ns#"
   xmlns:svg="http://www.w3.org/2000/svg"
   xmlns="http://www.w3.org/2000/svg"
   xmlns:sodipodi="http://sodipodi.sourceforge.net/DTD/sodipodi-0.dtd"
   xmlns:inkscape="http://www.inkscape.org/namespaces/inkscape"
   viewBox="0 0 48 48"
   id="svg2"
   version="1.1"
   inkscape:version="0.91 r13725"
   sodipodi:docname="qutim.svg">
  <metadata
     id="metadata29">
    <rdf:RDF>
      <cc:Work
         rdf:about="">
        <dc:format>image/svg+xml</dc:format>
        <dc:type
           rdf:resource="http://purl.org/dc/dcmitype/StillImage" />
        <dc:title></dc:title>
      </cc:Work>
    </rdf:RDF>
  </metadata>
  <sodipodi:namedview
     pagecolor="#ffffff"
     bordercolor="#666666"
     borderopacity="1"
     objecttolerance="10"
     gridtolerance="10"
     guidetolerance="10"
     inkscape:pageopacity="0"
     inkscape:pageshadow="2"
     inkscape:window-width="1280"
     inkscape:window-height="694"
     id="namedview27"
     showgrid="false"
     inkscape:zoom="4.9166667"
     inkscape:cx="-9.1525424"
     inkscape:cy="24"
     inkscape:window-x="0"
     inkscape:window-y="0"
     inkscape:window-maximized="1"
     inkscape:current-layer="svg2" />
  <defs
     id="defs4">
    <clipPath
       id="1">
      <path
         transform="matrix(15.33333 0 0 11.5 415-125.5)"
         d="m-24 13c0 1.105-.672 2-1.5 2-.828 0-1.5-.895-1.5-2 0-1.105.672-2 1.5-2 .828 0 1.5.895 1.5 2"
         fill="#1890d0"
         id="path7" />
    </clipPath>
    <linearGradient
       gradientTransform="matrix(1.77384 0 0 1.71427 42.46 39.38)"
       gradientUnits="userSpaceOnUse"
       y2="-22.851"
       x2="-11.233"
       y1="4.675"
       x1="-10.767"
       id="0">
      <stop
         stop-color="#e1e1e1"
         id="stop10" />
      <stop
         stop-color="#f4f4ff"
         offset="1"
         id="stop12" />
    </linearGradient>
    <linearGradient
       id="2"
       x1="23.12"
       y1="42.29"
       x2="23.719"
       y2="4.07"
       gradientUnits="userSpaceOnUse">
      <stop
         stop-color="#197cf1"
         id="stop15" />
      <stop
         stop-color="#21c9fb"
         offset="1"
         id="stop17" />
    </linearGradient>
  </defs>
  <g
     id="g23"
     clip-path="url(#1)"
     transform="matrix(2.1368488,0,0,1.8013882,-27.413914,-19.024166)"
     style="fill:#2a7fff">
    <path
       inkscape:connector-curvature="0"
       style="fill:#2a7fff"
       id="path25"
       d="m 19.03,19.355 c 0.055,1.402 -1.43,1.465 -1.125,-0.156 0.348,-1.859 -0.891,-2.695 -2.074,-3.367 2.406,3.156 -0.477,3.164 -1.59,7.219 -0.379,1.375 -0.688,2.793 -0.148,4.01 0.156,0.348 0.57,0.766 0.531,1.184 -0.039,0.438 -0.27,0.773 -0.457,1.156 -0.289,0.586 -0.828,1.113 -1.07,1.633 -0.137,0.289 0.195,0.508 0.438,0.645 0.367,0.211 0.867,0.277 1.082,0.668 0.148,0.27 0.109,0.555 -0.02,0.816 -0.117,0.246 -0.203,0.613 0.039,0.777 0.18,0.121 0.414,0.184 0.539,0.395 0.117,0.199 0.063,0.438 0.25,0.594 0.313,0.258 0.828,0.234 1.066,0.777 0.109,0.25 0.184,0.531 0.328,0.777 0.223,0.379 0.844,0.492 1.273,0.453 0.461,-0.047 0.801,-0.191 1.242,-0.324 1.145,-0.355 2.227,-0.824 3.25,-1.469 0.859,-0.551 1.383,-0.863 2.156,-1.316 0.566,-0.32 1.371,-0.215 1.996,-0.375 0.773,-0.199 1.703,-0.512 2.25,-1.055 0.578,-0.57 0.816,-1.023 0.992,-2.074 -0.25,0.344 -0.895,1.133 -1.535,1.344 -0.703,0.23 -0.953,0.109 -1.168,-0.18 -0.18,-0.246 -0.227,-0.574 -0.219,-0.879 0.418,-1.375 2.219,-0.801 3.426,-1.277 2.203,-0.863 2.707,-2.828 2.855,-4.367 0.066,-0.84 0.176,-1.406 1.594,-3.098 -1.773,0.762 -2.508,1.457 -2.918,2.352 -0.383,0.84 -1.594,1.824 -2.32,1 -0.922,-1.051 1.141,-2.457 2.648,-2.832 1.203,-0.301 2.313,-1.504 2.563,-2.664 0.605,-4.03 -1.289,-5.82 0.152,-8.785 -4.289,3.352 -0.648,5.176 -3.387,7.934 -1.566,1.566 -3.207,0.734 -2.598,-0.605 0.402,-0.863 1.363,-0.34 1.684,-2.336 -0.895,1.293 -3.766,0.418 -4.578,2.52 -1.441,3.656 -3.422,0.141 -0.16,-1.613 1.375,-0.742 4.688,-0.5 5.488,-5.773 -1.609,3.121 -5.566,2.625 -8.742,3.973 -1.648,0.695 -3.816,2.316 -3.734,4.32" />
  </g>
</svg>
