<?xml version="1.0" encoding="UTF-8" standalone="no"?>
<svg
   xmlns:dc="http://purl.org/dc/elements/1.1/"
   xmlns:cc="http://creativecommons.org/ns#"
   xmlns:rdf="http://www.w3.org/1999/02/22-rdf-syntax-ns#"
   xmlns:svg="http://www.w3.org/2000/svg"
   xmlns="http://www.w3.org/2000/svg"
   xmlns:sodipodi="http://sodipodi.sourceforge.net/DTD/sodipodi-0.dtd"
   xmlns:inkscape="http://www.inkscape.org/namespaces/inkscape"
   viewBox="0 0 48 48"
   id="svg2"
   version="1.1"
   inkscape:version="0.91 r13725"
   sodipodi:docname="qwinff.svg">
  <metadata
     id="metadata33">
    <rdf:RDF>
      <cc:Work
         rdf:about="">
        <dc:format>image/svg+xml</dc:format>
        <dc:type
           rdf:resource="http://purl.org/dc/dcmitype/StillImage" />
        <dc:title></dc:title>
      </cc:Work>
    </rdf:RDF>
  </metadata>
  <sodipodi:namedview
     pagecolor="#ffffff"
     bordercolor="#666666"
     borderopacity="1"
     objecttolerance="10"
     gridtolerance="10"
     guidetolerance="10"
     inkscape:pageopacity="0"
     inkscape:pageshadow="2"
     inkscape:window-width="1280"
     inkscape:window-height="694"
     id="namedview31"
     showgrid="false"
     inkscape:zoom="4.9166667"
     inkscape:cx="-9.1525424"
     inkscape:cy="24"
     inkscape:window-x="0"
     inkscape:window-y="0"
     inkscape:window-maximized="1"
     inkscape:current-layer="svg2" />
  <defs
     id="defs4">
    <linearGradient
       id="0"
       gradientUnits="userSpaceOnUse"
       y1="542.2"
       x2="0"
       y2="526.2">
      <stop
         stop-color="#d0d0d0"
         id="stop7" />
      <stop
         offset="1"
         stop-color="#f1eeee"
         id="stop9" />
    </linearGradient>
    <linearGradient
       y2="147.64"
       x2="3.419"
       y1="204.55"
       x1=".967"
       gradientUnits="userSpaceOnUse"
       id="1"
       gradientTransform="matrix(0.41708309,-3.0000222e-4,3.2000237e-4,0.39759294,13.107874,-59.528012)">
      <stop
         stop-color="#566069"
         id="stop12" />
      <stop
         offset="1"
         stop-color="#6c7884"
         id="stop14" />
    </linearGradient>
    <linearGradient
       id="2"
       y1="551.67"
       x2="0"
       y2="528.33"
       gradientUnits="userSpaceOnUse"
       gradientTransform="matrix(1.0298719,0,0,1.0298719,-449.38822,-521.97559)">
      <stop
         stop-color="#197ff1"
         id="stop17" />
      <stop
         offset="1"
         stop-color="#21c6fb"
         id="stop19" />
    </linearGradient>
  </defs>
  <path
     style="fill:#535d6c;fill-opacity:0.847;stroke-width:1.31700003"
     inkscape:connector-curvature="0"
     id="path25"
     d="m 46.750248,0.43770414 -2.447837,0 c -0.5815,0 -1.052237,0.45034195 -1.052237,1.00664806 l 0,1.2538948 c 0,0.5563043 -0.470738,1.006648 -1.052238,1.006648 l -2.281693,0 c -0.581499,0 -1.052237,-0.4503437 -1.052237,-1.006648 l 0,-1.2538948 c 0,-0.55630611 -0.470738,-1.00664806 -1.052238,-1.00664806 l -27.483698,0 c -0.5814988,0 -1.0522375,0.45034195 -1.0522375,1.00664806 l 0,1.2538948 c 0,0.5563043 -0.4707375,1.006648 -1.0522375,1.006648 l -2.281692,0 c -0.5814999,0 -1.0522374,-0.4503437 -1.0522374,-1.006648 l 0,-1.2538948 c 0,-0.55630611 -0.4707388,-1.00664806 -1.0522375,-1.00664806 l -2.3666107,0 c -0.58149992,0 -1.05223743,0.45034195 -1.05223743,1.00664806 l 0,45.3150538 c 0,0.556305 0.47073751,1.006649 1.05223743,1.006649 l 2.3666107,0 c 0.5814987,0 1.0522375,-0.450344 1.0522375,-1.006649 l 0,-0.920112 c 0,-0.556304 0.4707375,-1.006648 1.0522374,-1.006648 l 2.281692,0 c 0.5815,0 1.0522375,0.450344 1.0522375,1.006648 l 0,0.920112 c 0,0.556305 0.4707387,1.006649 1.0522375,1.006649 l 27.483698,0 c 0.5815,0 1.052238,-0.450344 1.052238,-1.006649 l 0,-0.920112 c 0,-0.556304 0.470738,-1.006648 1.052237,-1.006648 l 2.281693,0 c 0.5815,0 1.052238,0.450344 1.052238,1.006648 l 0,0.920112 c 0,0.556305 0.470737,1.006649 1.052237,1.006649 l 2.447837,0 c 0.581499,0 1.052237,-0.450344 1.052237,-1.006649 l 0,-45.3150538 c 0,-0.55630611 -0.470738,-1.00664806 -1.052237,-1.00664806 M 9.2739885,38.974661 c 0,0.556305 -0.4707401,1.006648 -1.0522375,1.006648 l -2.2816945,0 c -0.5815,0 -1.0522375,-0.450343 -1.0522375,-1.006648 l 0,-2.182835 c 0,-0.556307 0.4707375,-1.006649 1.0522375,-1.006649 l 2.2816945,0 c 0.5814974,0 1.0522375,0.450342 1.0522375,1.006649 l 0,2.182835 m 0,-9.049235 c 0,0.556304 -0.4707401,1.006649 -1.0522375,1.006649 l -2.2816945,0 c -0.5815,0 -1.0522375,-0.450345 -1.0522375,-1.006649 l 0,-2.184604 c 0,-0.556304 0.4707375,-1.006647 1.0522375,-1.006647 l 2.2816945,0 c 0.5814974,0 1.0522375,0.450343 1.0522375,1.006647 l 0,2.184604 m 0,-9.049236 c 0,0.556306 -0.4707401,1.006648 -1.0522375,1.006648 l -2.2816945,0 c -0.5815,0 -1.0522375,-0.450342 -1.0522375,-1.006648 l 0,-2.182837 c 0,-0.556305 0.4707375,-1.006649 1.0522375,-1.006649 l 2.2816945,0 c 0.5814974,0 1.0522375,0.450344 1.0522375,1.006649 l 0,2.182837 m 0,-9.049237 c 0,0.556307 -0.4707401,1.006649 -1.0522375,1.006649 l -2.2816945,0 c -0.5815,0 -1.0522375,-0.450342 -1.0522375,-1.006649 l 0,-2.1828351 c 0,-0.5563061 0.4707375,-1.006648 1.0522375,-1.006648 l 2.2816945,0 c 0.5814974,0 1.0522375,0.4503419 1.0522375,1.006648 l 0,2.1828351 M 34.311696,42.443182 c 0,0.556305 -0.470738,1.006649 -1.052238,1.006649 l -18.297851,0 c -0.5815,0 -1.052238,-0.450344 -1.052238,-1.006649 l 0,-8.092036 c 0,-0.556307 0.470738,-1.006649 1.052238,-1.006649 l 18.297851,0 c 0.5815,0 1.052238,0.450342 1.052238,1.006649 l 0,8.092036 m 0,-14.2944 c 0,0.556304 -0.470738,1.006647 -1.052238,1.006647 l -18.297851,0 c -0.5815,0 -1.052238,-0.450343 -1.052238,-1.006647 l 0,-8.092038 c 0,-0.556306 0.470738,-1.006649 1.052238,-1.006649 l 18.297851,0 c 0.5815,0 1.052238,0.450343 1.052238,1.006649 l 0,8.092038 m 0,-14.294403 c 0,0.556305 -0.470738,1.006647 -1.052238,1.006647 l -18.297851,0 c -0.5815,0 -1.052238,-0.450342 -1.052238,-1.006647 l 0,-8.0920381 c 0,-0.5563043 0.470738,-1.006648 1.052238,-1.006648 l 18.297851,0 c 0.5815,0 1.052238,0.4503437 1.052238,1.006648 l 0,8.0920381 m 8.938478,25.120282 c 0,0.556305 -0.470738,1.006648 -1.052238,1.006648 l -2.281693,0 c -0.581499,0 -1.052237,-0.450343 -1.052237,-1.006648 l 0,-2.182835 c 0,-0.556307 0.470738,-1.006649 1.052237,-1.006649 l 2.281693,0 c 0.5815,0 1.052238,0.450342 1.052238,1.006649 l 0,2.182835 m 0,-9.049235 c 0,0.556304 -0.470738,1.006649 -1.052238,1.006649 l -2.281693,0 c -0.581499,0 -1.052237,-0.450345 -1.052237,-1.006649 l 0,-2.184604 c 0,-0.556304 0.470738,-1.006647 1.052237,-1.006647 l 2.281693,0 c 0.5815,0 1.052238,0.450343 1.052238,1.006647 l 0,2.184604 m 0,-9.049236 c 0,0.556306 -0.470738,1.006648 -1.052238,1.006648 l -2.281693,0 c -0.581499,0 -1.052237,-0.450342 -1.052237,-1.006648 l 0,-2.182837 c 0,-0.556305 0.470738,-1.006649 1.052237,-1.006649 l 2.281693,0 c 0.5815,0 1.052238,0.450344 1.052238,1.006649 l 0,2.182837 m 0,-9.049237 c 0,0.556307 -0.470738,1.006649 -1.052238,1.006649 l -2.281693,0 c -0.581499,0 -1.052237,-0.450342 -1.052237,-1.006649 l 0,-2.1828351 c 0,-0.5563061 0.470738,-1.006648 1.052237,-1.006648 l 2.281693,0 c 0.5815,0 1.052238,0.4503419 1.052238,1.006648 l 0,2.1828351" />
  <path
     style="fill:#5599ff;fill-opacity:1;stroke-width:1.31700003"
     inkscape:connector-curvature="0"
     id="path29"
     d="m 35.632161,24.150965 c 2.125575,0.0055 4.280683,0.775332 5.964824,2.300695 1.183638,1.585002 -1.071726,3.282961 -2.087495,1.737719 -3.057408,-2.151592 -7.369958,-1.393429 -9.670397,1.825375 -1.224053,1.595846 -1.913408,3.725749 -1.905636,5.863786 l 2.020657,0 -3.233051,5.638778 -3.23305,-5.638778 2.020657,0 c -0.0645,-5.104721 3.093159,-9.958228 7.332653,-11.282978 0.909295,-0.290072 1.846568,-0.45273 2.790838,-0.440981 m 8.870684,6.108676 3.233051,5.638778 -2.020656,0 c 0.05751,5.166169 -3.180981,10.076605 -7.494307,11.329064 -2.910523,0.945219 -6.201862,0.255734 -8.595564,-1.906701 -1.220166,-1.612113 1.066285,-3.293806 2.091381,-1.733202 2.962593,2.090142 7.111157,1.426864 9.449679,-1.557893 1.353841,-1.622053 2.132571,-3.870335 2.122467,-6.131268 l -2.020657,0 3.233051,-5.638778" />
</svg>
