<?xml version="1.0" encoding="UTF-8" standalone="no"?>
<svg
   xmlns:dc="http://purl.org/dc/elements/1.1/"
   xmlns:cc="http://creativecommons.org/ns#"
   xmlns:rdf="http://www.w3.org/1999/02/22-rdf-syntax-ns#"
   xmlns:svg="http://www.w3.org/2000/svg"
   xmlns="http://www.w3.org/2000/svg"
   xmlns:sodipodi="http://sodipodi.sourceforge.net/DTD/sodipodi-0.dtd"
   xmlns:inkscape="http://www.inkscape.org/namespaces/inkscape"
   viewBox="0 0 48 48"
   id="svg2"
   version="1.1"
   inkscape:version="0.91 r13725"
   sodipodi:docname="retroarch.svg">
  <metadata
     id="metadata24">
    <rdf:RDF>
      <cc:Work
         rdf:about="">
        <dc:format>image/svg+xml</dc:format>
        <dc:type
           rdf:resource="http://purl.org/dc/dcmitype/StillImage" />
        <dc:title></dc:title>
      </cc:Work>
    </rdf:RDF>
  </metadata>
  <sodipodi:namedview
     pagecolor="#ffffff"
     bordercolor="#666666"
     borderopacity="1"
     objecttolerance="10"
     gridtolerance="10"
     guidetolerance="10"
     inkscape:pageopacity="0"
     inkscape:pageshadow="2"
     inkscape:window-width="1280"
     inkscape:window-height="694"
     id="namedview22"
     showgrid="false"
     inkscape:zoom="4.9166667"
     inkscape:cx="24"
     inkscape:cy="24"
     inkscape:window-x="0"
     inkscape:window-y="0"
     inkscape:window-maximized="1"
     inkscape:current-layer="svg2" />
  <defs
     id="defs4">
    <linearGradient
       y2="518.77"
       x2="455.78"
       y1="547.95"
       x1="455.55"
       gradientUnits="userSpaceOnUse"
       id="0"
       gradientTransform="matrix(1.6550879,0,0,1.6550879,-729.97396,-858.91233)">
      <stop
         stop-color="#141414"
         id="stop7" />
      <stop
         offset="1"
         stop-color="#2d2d2f"
         id="stop9" />
    </linearGradient>
    <linearGradient
       id="1"
       y1="38"
       x2="0"
       y2="13"
       gradientUnits="userSpaceOnUse"
       gradientTransform="matrix(0.99994569,0,0,0.99994569,0.0054104,-0.0021038)">
      <stop
         stop-color="#00cafe"
         id="stop12" />
      <stop
         offset="1"
         stop-color="#1460f3"
         id="stop14" />
    </linearGradient>
  </defs>
  <path
     inkscape:connector-curvature="0"
     style="fill:#5599ff;fill-opacity:1"
     id="path20"
     d="m 9.7026148,0.34502814 c -0.2911407,0 -0.35789,0.34275701 -0.35789,0.74658146 l 0,4.3928193 c 0,0.4038244 0.066756,0.7071838 0.35789,0.7071838 l 3.1926052,0 c 0.291139,0 0.524053,-0.3151792 0.521213,-0.7190037 -0.0085,-1.4616451 -0.0099,-2.9311722 -0.01135,-4.3928193 0,-0.40382247 -0.235753,-0.73476156 -0.526894,-0.73476156 l -3.1755617,0 m 25.6203677,0 c -0.291141,0 -0.684536,0.33487707 -0.684536,0.73870156 l 0,4.424337 c 0,0.4038244 0.313864,0.7268836 0.605005,0.7229436 1.053787,-0.011814 2.072068,-0.00984 3.125854,-0.011814 0.291141,0 0.485709,-0.3309391 0.485709,-0.7347635 l 0,-4.4006993 c 0,-0.40382444 -0.07243,-0.73870151 -0.363571,-0.73870151 l -3.167041,0 M 14.05126,6.2231305 C 13.7587,6.2191905 13.559871,6.5422496 13.559871,6.946074 l 0,4.5248 c 0,0.403825 -0.374931,0.569293 -0.666072,0.569293 l -3.23379,0 c -0.2911407,0 -0.3138639,0.48853 -0.3138639,0.892354 l 0,4.467673 c 0,0.403825 -0.4502019,0.484589 -0.7399224,0.484589 l -3.22527,0 c -0.2911407,0 -0.7768471,0.573234 -0.7768471,0.977058 l 0,4.473585 c 0,0.403824 0.012784,0.395944 -0.2769392,0.395944 l -3.1755622,0 c -0.29114054,0 -0.7626462,0.657939 -0.7626462,1.061763 l 0,16.210093 c 0,0.403825 0.47150566,1.000696 0.7626462,1.000696 l 3.1727217,0 c 0.2911407,0 0.2797797,-0.596871 0.2797797,-1.000696 l 0,-10.314261 c 0,-0.403824 0.4828659,-0.376247 0.7740066,-0.376247 l 3.2593542,0 c 0.2911407,0 0.710099,-0.02561 0.710099,0.376247 l 0,10.381237 c 0,0.403824 0.1434405,0.730823 0.4360015,0.730823 1.0807691,0 2.1714821,0 3.2124861,0.01184 0.291141,0.004 0.565238,-0.31912 0.565238,-0.722945 l 0,-4.455855 c 0,-0.403824 0.06676,-0.47671 0.35789,-0.47671 l 20.365638,0 c 0.29114,0 0.526893,0.200929 0.526893,0.604753 0,1.499073 0,3.013907 -0.0085,4.473583 -0.0028,0.403825 0.230072,0.770221 0.521212,0.770221 l 3.206807,0 c 0.28972,0 0.322385,-0.535805 0.322385,-0.939629 l 0,-10.365477 c 0,-0.403824 0.441682,-0.388066 0.732823,-0.388066 l 3.276396,0 c 0.291141,0 0.735663,-0.01576 0.735663,0.388066 l 0,10.302441 c 0,0.403824 0.0284,1.000695 0.319542,1.000695 l 3.134377,0 c 0.291141,0 0.762646,-0.596871 0.762646,-1.000695 l 0,-16.235703 c 0,-0.403824 -0.471505,-1.034183 -0.762646,-1.034183 l -3.203965,0 c -0.291141,0 -0.776849,-0.02364 -0.776849,-0.427462 l 0,-4.485404 c 0,-0.403825 0.0014,-0.93569 -0.276939,-0.93569 l -3.218167,0 c -0.291141,0 -0.72146,-0.124111 -0.72146,-0.527925 l 0,-4.463735 c 0,-0.403825 -0.04261,-0.854927 -0.332327,-0.854927 l -3.209648,0 c -0.29114,0 -0.671753,-0.204866 -0.671753,-0.60869 l 0,-4.481463 c 0,-0.4038244 -0.164743,-0.7308236 -0.454463,-0.7268836 -1.050945,0.011814 -2.128876,0.01576 -3.221007,0.01576 -0.291141,0 -0.541097,0.3269992 -0.541097,0.7308236 l 0,4.444036 c 0,0.405793 -0.133492,0.626419 -0.424638,0.626419 l -11.821727,0 c -0.291141,0 -0.399075,-0.224566 -0.399075,-0.626419 l 0,-4.4479759 c 0,-0.4038245 -0.299663,-0.7308236 -0.590804,-0.7308236 -1.080769,0 -2.093369,0 -3.134376,-0.011814 m -0.113621,11.6616535 3.218168,0 c 0.291139,0 0.622046,0.525957 0.622046,0.931749 0,1.485287 0,2.958753 0,4.455857 0,0.403823 -0.330907,0.46095 -0.622046,0.46095 l -3.218168,0 c -0.291141,0 -0.377774,-0.0591 -0.377774,-0.46095 l 0,-4.455857 c 0,-0.403821 0.08522,-0.931749 0.377774,-0.931749 m 17.113382,0 3.212487,0 c 0.291141,0 0.380613,0.535805 0.380613,0.939629 l 0,4.459795 c 0,0.403824 -0.08947,0.451102 -0.380613,0.451102 l -3.212487,0 c -0.291141,0 -0.623467,-0.04531 -0.623467,-0.451102 l 0,-4.459795 c 0,-0.401854 0.333746,-0.939629 0.623467,-0.939629 m -17.113382,23.93791 c -0.291141,-1.97e-4 -0.529734,0.326999 -0.526894,0.730824 0.0085,1.461646 0.0057,3.015877 0.0057,4.477523 0,0.403823 0.232912,0.819468 0.524052,0.819468 l 7.453198,0 c 0.291139,0 0.607844,-0.504288 0.607844,-0.908112 l 0,-4.359332 c 0,-0.403824 -0.275518,-0.732793 -0.565238,-0.730823 -0.792472,0 -1.594882,0 -2.374571,-0.004 -1.705658,-0.0078 -3.418417,-0.01773 -5.122653,-0.02758 m 20.540319,0.01184 c -0.08238,0.0079 -0.127824,0.09259 -0.210188,0.09259 -2.50949,1.97e-4 -4.974954,0.07683 -7.484444,0.07683 l -0.241432,0 c -0.132072,0 -0.325226,0.173338 -0.325226,0.577171 l 0,4.375092 c 0,0.403824 0.323805,0.896292 0.616365,0.896292 l 7.444678,0 c 0.291141,0 0.369252,-0.492468 0.369252,-0.896292 l 0,-4.428277 c 0,-0.403825 -0.03124,-0.707186 -0.169005,-0.693396" />
</svg>
