<?xml version="1.0" encoding="UTF-8" standalone="no"?>
<svg
   xmlns:dc="http://purl.org/dc/elements/1.1/"
   xmlns:cc="http://creativecommons.org/ns#"
   xmlns:rdf="http://www.w3.org/1999/02/22-rdf-syntax-ns#"
   xmlns:svg="http://www.w3.org/2000/svg"
   xmlns="http://www.w3.org/2000/svg"
   xmlns:sodipodi="http://sodipodi.sourceforge.net/DTD/sodipodi-0.dtd"
   xmlns:inkscape="http://www.inkscape.org/namespaces/inkscape"
   viewBox="0 0 48 48"
   id="svg2"
   version="1.1"
   inkscape:version="0.91 r13725"
   sodipodi:docname="sanata-.svg">
  <metadata
     id="metadata23">
    <rdf:RDF>
      <cc:Work
         rdf:about="">
        <dc:format>image/svg+xml</dc:format>
        <dc:type
           rdf:resource="http://purl.org/dc/dcmitype/StillImage" />
        <dc:title></dc:title>
      </cc:Work>
    </rdf:RDF>
  </metadata>
  <sodipodi:namedview
     pagecolor="#ffffff"
     bordercolor="#666666"
     borderopacity="1"
     objecttolerance="10"
     gridtolerance="10"
     guidetolerance="10"
     inkscape:pageopacity="0"
     inkscape:pageshadow="2"
     inkscape:window-width="1280"
     inkscape:window-height="694"
     id="namedview21"
     showgrid="false"
     inkscape:zoom="4.9166667"
     inkscape:cx="24"
     inkscape:cy="24"
     inkscape:window-x="0"
     inkscape:window-y="0"
     inkscape:window-maximized="1"
     inkscape:current-layer="svg2" />
  <defs
     id="defs4">
    <clipPath
       id="clipPath6">
      <path
         transform="matrix(15.33333 0 0 11.5 415-125.5)"
         d="m-24 13c0 1.105-.672 2-1.5 2-.828 0-1.5-.895-1.5-2 0-1.105.672-2 1.5-2 .828 0 1.5.895 1.5 2"
         fill="#1890d0"
         id="path8" />
    </clipPath>
    <linearGradient
       id="0"
       gradientUnits="userSpaceOnUse"
       y1="56.14"
       x2="0"
       y2="7.339"
       gradientTransform="translate(56.36,-7.892)">
      <stop
         stop-color="#ff6835"
         id="stop11" />
      <stop
         offset="1"
         stop-color="#ff956f"
         id="stop13" />
    </linearGradient>
  </defs>
  <path
     style="fill:#ff9955;fill-opacity:1"
     inkscape:connector-curvature="0"
     id="path19"
     d="m 47.522602,21.784389 c -0.330063,0.234557 -0.816571,0.246663 -1.169528,0.03481 L 34.709316,14.791523 29.193651,40.966728 c -0.02099,0.09987 -0.06486,0.18916 -0.129741,0.272391 -1.106567,3.752935 -7.143082,6.549476 -14.242284,6.549476 -7.9577445,0 -14.43307068,-3.495677 -14.43307068,-7.791878 0,-4.297716 6.47341838,-7.793393 14.43307068,-7.793393 3.26819,0 6.37421,0.579586 8.900235,1.643422 L 31.017579,1.0221855 c 0.06486,-0.2996295 0.360588,-0.53872776 0.744071,-0.59471912 0.370127,-0.0514515 0.757426,0.0832304 0.953938,0.34805442 L 47.701941,20.865827 c 0.227038,0.305683 0.150724,0.685516 -0.181247,0.920075" />
</svg>
