<?xml version="1.0" encoding="UTF-8" standalone="no"?>
<svg
   xmlns:dc="http://purl.org/dc/elements/1.1/"
   xmlns:cc="http://creativecommons.org/ns#"
   xmlns:rdf="http://www.w3.org/1999/02/22-rdf-syntax-ns#"
   xmlns:svg="http://www.w3.org/2000/svg"
   xmlns="http://www.w3.org/2000/svg"
   xmlns:sodipodi="http://sodipodi.sourceforge.net/DTD/sodipodi-0.dtd"
   xmlns:inkscape="http://www.inkscape.org/namespaces/inkscape"
   viewBox="0 0 48 48"
   id="svg2"
   version="1.1"
   inkscape:version="0.91 r13725"
   sodipodi:docname="sheets.svg">
  <metadata
     id="metadata29">
    <rdf:RDF>
      <cc:Work
         rdf:about="">
        <dc:format>image/svg+xml</dc:format>
        <dc:type
           rdf:resource="http://purl.org/dc/dcmitype/StillImage" />
        <dc:title></dc:title>
      </cc:Work>
    </rdf:RDF>
  </metadata>
  <sodipodi:namedview
     pagecolor="#ffffff"
     bordercolor="#666666"
     borderopacity="1"
     objecttolerance="10"
     gridtolerance="10"
     guidetolerance="10"
     inkscape:pageopacity="0"
     inkscape:pageshadow="2"
     inkscape:window-width="1280"
     inkscape:window-height="694"
     id="namedview27"
     showgrid="false"
     inkscape:zoom="4.9166667"
     inkscape:cx="-9.1525424"
     inkscape:cy="24"
     inkscape:window-x="0"
     inkscape:window-y="0"
     inkscape:window-maximized="1"
     inkscape:current-layer="svg2" />
  <defs
     id="defs4">
    <linearGradient
       id="0"
       x1="-123.97"
       y1="73.5"
       x2="-125.19"
       y2="-26.05"
       gradientUnits="userSpaceOnUse">
      <stop
         stop-color="#5dae33"
         id="stop7" />
      <stop
         offset="1"
         stop-color="#9be058"
         id="stop9" />
    </linearGradient>
  </defs>
  <path
     style="fill:#447821;fill-rule:evenodd"
     inkscape:connector-curvature="0"
     id="path25"
     d="m 45.988199,0.22650054 -8.796157,0.005845 c -0.946427,0 -1.706161,0.6122752 -1.705297,1.37333104 l 0.03717,44.9384688 c 8.7e-5,0.7601 0.761464,1.37047 1.707891,1.37047 l 8.793563,-0.0028 c 0.946427,0 1.708755,-0.612278 1.707891,-1.373331 L 47.69609,1.5999076 C 47.696004,0.83980439 46.934626,0.22657506 45.988199,0.22657506 M 28.134864,12.508357 l -8.793563,0.0058 c -0.946427,0 -1.708757,0.612278 -1.707891,1.373331 l 0.03717,32.55941 c 8.5e-5,0.760101 0.761462,1.373331 1.707889,1.373331 l 8.796157,-0.0028 c 0.946427,0 1.706161,-0.612278 1.705297,-1.373332 l -0.03544,-32.559556 c -8.6e-5,-0.760101 -0.764056,-1.373332 -1.710485,-1.373332 M 10.9315,24.976169 l -8.7935632,0.0028 c -0.9464271,0 -1.70702681,0.612278 -1.70529833,1.373331 l 0.0328566,20.180348 c 8.63e-5,0.760102 0.76405543,1.373333 1.71048383,1.373333 l 8.7961561,-0.0028 c 0.946428,0 1.707026,-0.612278 1.705297,-1.373331 l -0.03543,-20.180348 c -8.8e-5,-0.760102 -0.764057,-1.373333 -1.710484,-1.373333" />
</svg>
