<?xml version="1.0" encoding="UTF-8" standalone="no"?>
<svg
   xmlns:dc="http://purl.org/dc/elements/1.1/"
   xmlns:cc="http://creativecommons.org/ns#"
   xmlns:rdf="http://www.w3.org/1999/02/22-rdf-syntax-ns#"
   xmlns:svg="http://www.w3.org/2000/svg"
   xmlns="http://www.w3.org/2000/svg"
   xmlns:sodipodi="http://sodipodi.sourceforge.net/DTD/sodipodi-0.dtd"
   xmlns:inkscape="http://www.inkscape.org/namespaces/inkscape"
   viewBox="0 0 48 48"
   id="svg2"
   version="1.1"
   inkscape:version="0.91 r13725"
   sodipodi:docname="simplescreenrecorder-recording.svg">
  <metadata
     id="metadata10">
    <rdf:RDF>
      <cc:Work
         rdf:about="">
        <dc:format>image/svg+xml</dc:format>
        <dc:type
           rdf:resource="http://purl.org/dc/dcmitype/StillImage" />
        <dc:title></dc:title>
      </cc:Work>
    </rdf:RDF>
  </metadata>
  <defs
     id="defs8" />
  <sodipodi:namedview
     pagecolor="#ffffff"
     bordercolor="#666666"
     borderopacity="1"
     objecttolerance="10"
     gridtolerance="10"
     guidetolerance="10"
     inkscape:pageopacity="0"
     inkscape:pageshadow="2"
     inkscape:window-width="1280"
     inkscape:window-height="694"
     id="namedview6"
     showgrid="false"
     inkscape:zoom="4.9166667"
     inkscape:cx="-16.489675"
     inkscape:cy="24.20339"
     inkscape:window-x="0"
     inkscape:window-y="0"
     inkscape:window-maximized="1"
     inkscape:current-layer="svg2" />
  <path
     class="fill"
     d="m 36.425753,17.783838 c -1.76949,0 -3.204747,-1.725395 -3.204747,-3.852603 0,-2.10357 1.435257,-3.828966 3.204747,-3.828966 1.789159,0 3.224414,1.725396 3.224414,3.828966 0,2.127208 -1.435255,3.852603 -3.224414,3.852603 z m -23.121364,0 c -1.78916,0 -3.224403,-1.725395 -3.224403,-3.852603 0,-2.10357 1.435243,-3.828966 3.224403,-3.828966 1.76949,0 3.204747,1.725396 3.204747,3.828966 0,2.127208 -1.435257,3.852603 -3.204747,3.852603 z M 36.189821,0.36440686 c -5.721354,0 -10.440005,5.03437104 -11.246103,11.58143714 l -0.37352,0 C 23.763998,5.3987779 19.025744,0.36440686 13.304389,0.36440686 c -6.2915342,0 -11.3837302,6.09797604 -11.3837302,13.56682814 0,7.445213 4.993893,13.472288 11.2067782,13.590465 l 0.35393,0 0,4.632575 -13.07458619,-4.230762 0,18.057584 13.07458619,-4.679851 0,6.334347 19.189155,0 -5.623053,-20.113893 9.142378,0 c 6.291507,0 11.403372,-6.074352 11.403372,-13.590465 0,-7.4688521 -5.111865,-13.56682814 -11.403398,-13.56682814 z"
     id="path4-6"
     style="clip-rule:evenodd;fill:#6f8a91;fill-rule:evenodd"
     inkscape:connector-curvature="0" />
  <path
     inkscape:connector-curvature="0"
     style="opacity:1;fill:#ff2a2a;fill-opacity:0.98550725"
     id="path41"
     d="m 36.40678,25.654792 c -6.241201,0 -11.301712,4.904517 -11.301712,10.955377 0,6.05086 5.05908,10.955376 11.301712,10.955376 6.241202,0 11.301712,-4.904516 11.301712,-10.955376 0,-6.05086 -5.059079,-10.955377 -11.301712,-10.955377" />
</svg>
