<?xml version="1.0" encoding="UTF-8" standalone="no"?>
<svg
   xmlns:dc="http://purl.org/dc/elements/1.1/"
   xmlns:cc="http://creativecommons.org/ns#"
   xmlns:rdf="http://www.w3.org/1999/02/22-rdf-syntax-ns#"
   xmlns:svg="http://www.w3.org/2000/svg"
   xmlns="http://www.w3.org/2000/svg"
   xmlns:sodipodi="http://sodipodi.sourceforge.net/DTD/sodipodi-0.dtd"
   xmlns:inkscape="http://www.inkscape.org/namespaces/inkscape"
   viewBox="0 0 48 48"
   id="svg2"
   version="1.1"
   inkscape:version="0.91 r13725"
   sodipodi:docname="skype-call-recorder.svg">
  <metadata
     id="metadata19">
    <rdf:RDF>
      <cc:Work
         rdf:about="">
        <dc:format>image/svg+xml</dc:format>
        <dc:type
           rdf:resource="http://purl.org/dc/dcmitype/StillImage" />
        <dc:title></dc:title>
      </cc:Work>
    </rdf:RDF>
  </metadata>
  <sodipodi:namedview
     pagecolor="#ffffff"
     bordercolor="#666666"
     borderopacity="1"
     objecttolerance="10"
     gridtolerance="10"
     guidetolerance="10"
     inkscape:pageopacity="0"
     inkscape:pageshadow="2"
     inkscape:window-width="1280"
     inkscape:window-height="694"
     id="namedview17"
     showgrid="false"
     inkscape:zoom="4.9166667"
     inkscape:cx="-9.1525424"
     inkscape:cy="24"
     inkscape:window-x="0"
     inkscape:window-y="0"
     inkscape:window-maximized="1"
     inkscape:current-layer="svg2" />
  <defs
     id="defs4">
    <linearGradient
       id="0"
       x1="54.19"
       y1="22.898"
       x2="53.629"
       y2="-28.23"
       gradientUnits="userSpaceOnUse">
      <stop
         stop-color="#0a80fd"
         id="stop7" />
      <stop
         offset="1"
         stop-color="#56c5fa"
         id="stop9" />
    </linearGradient>
  </defs>
  <g
     id="g3"
     transform="matrix(0.10835839,0,0,0.10775691,0.34205949,0.27060869)"
     style="fill:#ff2a2a">
    <path
       d="m 415.7,262.093 c 3.039,-14.657 4.564,-28.935 4.564,-42.826 0,-27.218 -5.276,-53.247 -15.844,-78.087 C 393.858,116.342 379.582,94.931 361.595,76.943 343.608,58.955 322.2,44.68 297.361,34.114 272.516,23.555 246.495,18.271 219.273,18.271 c -13.894,0 -28.171,1.524 -42.827,4.57 C 156.651,7.614 134.381,0 109.637,0 79.375,0 53.538,10.705 32.124,32.115 10.708,53.531 0.004,79.368 0.004,109.631 c 0,24.744 7.614,47.014 22.839,66.809 -3.044,14.655 -4.568,28.933 -4.568,42.827 0,27.215 5.28,53.243 15.843,78.085 10.562,24.838 24.838,46.25 42.827,64.241 17.987,17.986 39.401,32.257 64.239,42.824 24.84,10.564 50.869,15.845 78.087,15.845 13.893,0 28.17,-1.526 42.834,-4.572 19.79,15.229 42.058,22.847 66.804,22.847 30.259,0 56.103,-10.711 77.505,-32.12 21.416,-21.416 32.12,-47.253 32.12,-77.519 -0.005,-24.74 -7.616,-47.007 -22.834,-66.805 z m -90.228,42.397 c -6.276,11.136 -14.702,20.033 -25.263,26.696 -10.567,6.663 -22.224,11.748 -34.975,15.273 -12.751,3.518 -26.073,5.283 -39.971,5.283 -32.163,0 -59.855,-6.235 -83.078,-18.705 -23.223,-12.471 -34.833,-27.453 -34.833,-44.968 0,-8.562 2.428,-15.693 7.282,-21.408 4.853,-5.712 12.038,-8.562 21.555,-8.562 5.52,0 10.657,1.522 15.415,4.564 4.758,3.046 9.135,6.715 13.134,10.999 3.999,4.285 8.326,8.562 12.99,12.847 4.661,4.285 10.847,7.946 18.555,10.992 7.71,3.046 16.418,4.572 26.128,4.572 12.371,0 22.36,-2.423 29.981,-7.275 7.61,-4.859 11.416,-10.999 11.416,-18.418 0,-7.618 -3.042,-13.326 -9.13,-17.132 -4.182,-2.673 -14.846,-6.098 -31.977,-10.283 l -41.688,-10.284 c -11.419,-2.662 -21.222,-5.752 -29.408,-9.271 -8.186,-3.524 -15.8,-8.134 -22.841,-13.849 -7.039,-5.708 -12.369,-12.891 -15.986,-21.555 -3.616,-8.658 -5.424,-18.796 -5.424,-30.406 0,-13.896 3.189,-26.121 9.563,-36.688 6.374,-10.565 14.849,-18.846 25.409,-24.841 10.562,-5.996 21.935,-10.468 34.119,-13.418 12.179,-2.951 24.742,-4.426 37.685,-4.426 18.276,0 35.589,2.19 51.961,6.567 16.368,4.377 29.882,10.801 40.538,19.271 10.657,8.473 15.985,17.942 15.985,28.409 0,8.562 -2.707,15.893 -8.138,21.982 -5.414,6.088 -12.601,9.134 -21.55,9.134 -4.948,0 -9.514,-1.143 -13.702,-3.427 -4.186,-2.283 -7.99,-5.042 -11.423,-8.278 -3.426,-3.234 -7.047,-6.423 -10.852,-9.563 -3.806,-3.14 -8.946,-5.852 -15.41,-8.136 -6.479,-2.284 -13.802,-3.427 -21.986,-3.427 -27.406,0 -41.112,7.323 -41.112,21.982 0,3.234 0.715,6.09 2.141,8.564 1.427,2.474 3,4.473 4.71,5.996 1.709,1.525 4.565,3.046 8.564,4.57 3.999,1.525 7.33,2.622 9.994,3.284 2.663,0.666 6.854,1.665 12.562,2.996 l 29.694,6.851 c 9.325,2.096 17.648,4.286 24.981,6.567 7.331,2.288 15.181,5.521 23.555,9.71 8.374,4.187 15.321,8.848 20.838,13.988 5.523,5.144 10.137,11.656 13.853,19.555 3.714,7.901 5.564,16.61 5.564,26.124 -10e-4,13.894 -3.136,26.411 -9.425,37.544 z"
       id="path5"
       inkscape:connector-curvature="0"
       style="fill:#ff2a2a" />
  </g>
</svg>
