<?xml version="1.0" encoding="UTF-8" standalone="no"?>
<svg
   xmlns:dc="http://purl.org/dc/elements/1.1/"
   xmlns:cc="http://creativecommons.org/ns#"
   xmlns:rdf="http://www.w3.org/1999/02/22-rdf-syntax-ns#"
   xmlns:svg="http://www.w3.org/2000/svg"
   xmlns="http://www.w3.org/2000/svg"
   xmlns:sodipodi="http://sodipodi.sourceforge.net/DTD/sodipodi-0.dtd"
   xmlns:inkscape="http://www.inkscape.org/namespaces/inkscape"
   viewBox="0 0 48 48"
   id="svg2"
   version="1.1"
   inkscape:version="0.91 r13725"
   sodipodi:docname="smartsvn.svg">
  <metadata
     id="metadata43">
    <rdf:RDF>
      <cc:Work
         rdf:about="">
        <dc:format>image/svg+xml</dc:format>
        <dc:type
           rdf:resource="http://purl.org/dc/dcmitype/StillImage" />
        <dc:title></dc:title>
      </cc:Work>
    </rdf:RDF>
  </metadata>
  <sodipodi:namedview
     pagecolor="#ffffff"
     bordercolor="#666666"
     borderopacity="1"
     objecttolerance="10"
     gridtolerance="10"
     guidetolerance="10"
     inkscape:pageopacity="0"
     inkscape:pageshadow="2"
     inkscape:window-width="1280"
     inkscape:window-height="694"
     id="namedview41"
     showgrid="false"
     inkscape:zoom="4.9166667"
     inkscape:cx="-9.1525424"
     inkscape:cy="24"
     inkscape:window-x="0"
     inkscape:window-y="0"
     inkscape:window-maximized="1"
     inkscape:current-layer="svg2" />
  <defs
     id="defs4">
    <clipPath
       id="clipPath6">
      <path
         d="m69.63 12.145h-.052c-22.727-.292-46.47 4.077-46.709 4.122-2.424.451-4.946 2.974-5.397 5.397-.044.237-4.414 23.983-4.122 46.71-.292 22.777 4.078 46.523 4.122 46.761.451 2.423 2.974 4.945 5.398 5.398.237.044 23.982 4.413 46.709 4.121 22.779.292 46.524-4.077 46.761-4.121 2.423-.452 4.946-2.976 5.398-5.399.044-.236 4.413-23.981 4.121-46.709.292-22.777-4.077-46.523-4.121-46.761-.453-2.423-2.976-4.946-5.398-5.397-.238-.045-23.984-4.414-46.71-4.122"
         id="path8" />
    </clipPath>
    <clipPath
       id="clipPath10">
      <path
         transform="matrix(15.33333 0 0 11.5 415-125.5)"
         d="m-24 13c0 1.105-.672 2-1.5 2-.828 0-1.5-.895-1.5-2 0-1.105.672-2 1.5-2 .828 0 1.5.895 1.5 2"
         fill="#1890d0"
         id="path12" />
    </clipPath>
    <clipPath
       id="clipPath14">
      <path
         transform="matrix(15.33333 0 0 11.5 415-125.5)"
         d="m-24 13c0 1.105-.672 2-1.5 2-.828 0-1.5-.895-1.5-2 0-1.105.672-2 1.5-2 .828 0 1.5.895 1.5 2"
         fill="#1890d0"
         id="path16" />
    </clipPath>
    <linearGradient
       id="1"
       x1="-29.444"
       y1="45.33"
       x2="-29.582"
       y2="18.259"
       gradientUnits="userSpaceOnUse"
       gradientTransform="translate(59.811,-6.886)">
      <stop
         stop-color="#155bc2"
         id="stop19" />
      <stop
         offset="1"
         stop-color="#369dff"
         id="stop21" />
    </linearGradient>
    <linearGradient
       id="0"
       x1="-10.767"
       y1="4.675"
       x2="-11.233"
       y2="-22.851"
       gradientUnits="userSpaceOnUse"
       gradientTransform="matrix(1.77384,0,0,1.71427,42.46,39.374)">
      <stop
         stop-color="#e1e1e1"
         id="stop24" />
      <stop
         offset="1"
         stop-color="#f4f4ff"
         id="stop26" />
    </linearGradient>
    <linearGradient
       id="2"
       x1="-41.31"
       y1="39.14"
       x2="-41.489"
       y2="23.722"
       gradientUnits="userSpaceOnUse"
       gradientTransform="translate(59.811,-6.886)">
      <stop
         stop-color="#4965b6"
         id="stop29" />
      <stop
         offset="1"
         stop-color="#8d9dcc"
         id="stop31" />
    </linearGradient>
  </defs>
  <g
     id="g4174"
     transform="matrix(1.1779616,0,0,1.9313643,-4.1694737,-22.251981)">
    <path
       d="m 4,16.727 6.06,0 8.485,10.909 3.636,-4.848 3.636,3.636 -7.273,9.697"
       id="path37"
       style="fill:#5f5fd3"
       inkscape:connector-curvature="0" />
    <path
       d="m 27.031,25.214 -3.636,-3.636 7.273,-9.697 13.333,20.606 -6.06,0 -7.273,-12.12"
       id="path39"
       style="fill:#5f8dd3"
       inkscape:connector-curvature="0" />
  </g>
</svg>
