<?xml version="1.0" encoding="UTF-8" standalone="no"?>
<svg
   xmlns:dc="http://purl.org/dc/elements/1.1/"
   xmlns:cc="http://creativecommons.org/ns#"
   xmlns:rdf="http://www.w3.org/1999/02/22-rdf-syntax-ns#"
   xmlns:svg="http://www.w3.org/2000/svg"
   xmlns="http://www.w3.org/2000/svg"
   xmlns:sodipodi="http://sodipodi.sourceforge.net/DTD/sodipodi-0.dtd"
   xmlns:inkscape="http://www.inkscape.org/namespaces/inkscape"
   viewBox="0 0 48 48"
   id="svg2"
   version="1.1"
   inkscape:version="0.91 r13725"
   sodipodi:docname="solaar.svg">
  <metadata
     id="metadata30">
    <rdf:RDF>
      <cc:Work
         rdf:about="">
        <dc:format>image/svg+xml</dc:format>
        <dc:type
           rdf:resource="http://purl.org/dc/dcmitype/StillImage" />
        <dc:title></dc:title>
      </cc:Work>
    </rdf:RDF>
  </metadata>
  <sodipodi:namedview
     pagecolor="#ffffff"
     bordercolor="#666666"
     borderopacity="1"
     objecttolerance="10"
     gridtolerance="10"
     guidetolerance="10"
     inkscape:pageopacity="0"
     inkscape:pageshadow="2"
     inkscape:window-width="1280"
     inkscape:window-height="694"
     id="namedview28"
     showgrid="false"
     inkscape:zoom="4.9166667"
     inkscape:cx="-6.4067797"
     inkscape:cy="24"
     inkscape:window-x="0"
     inkscape:window-y="0"
     inkscape:window-maximized="1"
     inkscape:current-layer="svg2" />
  <defs
     id="defs4">
    <linearGradient
       y1="545.8"
       x2="0"
       y2="517.8"
       gradientUnits="userSpaceOnUse"
       id="linearGradient6">
      <stop
         stop-color="#3889e9"
         id="stop8" />
      <stop
         offset="1"
         stop-color="#5ea5fb"
         id="stop10" />
    </linearGradient>
    <linearGradient
       id="0"
       x1="-10.767"
       y1="4.675"
       x2="-11.233"
       y2="-22.851"
       gradientUnits="userSpaceOnUse"
       gradientTransform="matrix(1.7738122,0,0,1.7142469,42.471974,39.368378)">
      <stop
         stop-color="#141414"
         id="stop13" />
      <stop
         offset="1"
         stop-color="#2d2d2f"
         id="stop15" />
    </linearGradient>
    <linearGradient
       id="1"
       x1="-698.92"
       y1="775.93"
       x2="-704.74"
       y2="356.21"
       gradientUnits="userSpaceOnUse"
       gradientTransform="matrix(0.11136,0,0,0.11136,102.24,-39.548)">
      <stop
         stop-color="#197cf1"
         id="stop18" />
      <stop
         stop-color="#20bcfa"
         offset="1"
         id="stop20" />
    </linearGradient>
  </defs>
  <path
     inkscape:connector-curvature="0"
     style="fill:#2a7fff"
     id="path26"
     d="M 47.699805,20.06886 C 47.534649,19.850487 47.320609,19.720395 47.05091,19.679087 l -5.653277,-0.872492 c -0.309007,-0.997086 -0.731474,-2.015494 -1.267074,-3.053723 0.370445,-0.519366 0.926524,-1.251439 1.668071,-2.197056 0.741384,-0.945449 1.266579,-1.63588 1.57575,-2.072294 0.164989,-0.2287 0.246908,-0.467395 0.246908,-0.71675 0,-0.290664 -0.07168,-0.51903 -0.216189,-0.685433 C 42.663715,9.0214549 40.964264,7.2559832 38.307075,4.7835879 38.060499,4.5758753 37.802691,4.4722687 37.535304,4.4722687 c -0.309007,0 -0.556409,0.093277 -0.741715,0.2800051 L 32.406563,8.0869996 C 31.561626,7.6505871 30.634771,7.266144 29.625672,6.9318378 L 28.760587,1.1985077 C 28.740109,0.92849827 28.621361,0.7051282 28.405171,0.52889738 28.188654,0.35216699 27.936792,0.26421814 27.647769,0.26421814 l -6.8604,0 c -0.597367,0 -0.968141,0.29066418 -1.112321,0.87249226 C 19.40733,2.1751061 19.108399,4.1071481 18.778913,6.9313383 17.81077,7.2434904 16.875164,7.6380944 15.967964,8.1158157 L 11.704143,4.7810899 c -0.267717,-0.2077125 -0.535435,-0.311319 -0.803151,-0.311319 -0.453187,0 -1.4262846,0.7424005 -2.9197876,2.2280361 -1.493005,1.4856358 -2.5075572,2.6019865 -3.0453037,3.349718 -0.1854692,0.270009 -0.2779566,0.509037 -0.2779566,0.716749 0,0.249355 0.1027307,0.49871 0.308676,0.747732 1.3800392,1.682354 2.4822893,3.116021 3.3064151,4.300665 -0.5149554,0.955443 -0.9166144,1.91122 -1.2048097,2.866664 L 1.322792,19.551828 c -0.2264283,0.04164 -0.42213767,0.176729 -0.58712827,0.40543 -0.16499036,0.228367 -0.24723786,0.467395 -0.24723786,0.716417 l 0,6.91914 c 0,0.270343 0.0822464,0.514034 0.24723786,0.732073 0.1649906,0.218373 0.37919737,0.348798 0.64889647,0.390107 l 5.654927,0.841177 c 0.2881977,1.017741 0.7103352,2.045977 1.2665789,3.082873 -0.3704441,0.519364 -0.926853,1.251439 -1.6680716,2.197054 -0.7413838,0.945451 -1.2670745,1.635882 -1.5757506,2.072294 -0.1649896,0.229034 -0.2472361,0.467395 -0.2472361,0.71675 0,0.27001 0.072009,0.508705 0.2161887,0.716417 0.8031506,1.12218 2.5021069,2.867498 5.0980215,5.235454 0.22676,0.228699 0.484237,0.342633 0.772434,0.342633 0.309006,0 0.566648,-0.09327 0.772433,-0.280004 l 4.356639,-3.334726 c 0.844936,0.436412 1.771789,0.820856 2.78089,1.155162 l 0.865083,5.733331 c 0.02081,0.270007 0.139233,0.493377 0.355416,0.669609 0.216189,0.177064 0.468713,0.264679 0.756909,0.264679 l 6.860398,0 c 0.598029,0 0.968638,-0.290663 1.112983,-0.872493 0.267388,-1.038895 0.565824,-2.970438 0.89531,-5.794626 0.968141,-0.311653 1.907547,-0.706757 2.810948,-1.184478 l 4.264152,3.366373 c 0.288196,0.186726 0.55641,0.280004 0.803151,0.280004 0.452857,0 1.421,-0.73707 2.903766,-2.212213 1.483593,-1.474807 2.503759,-2.596989 3.0567,-3.366373 0.185469,-0.207713 0.278286,-0.446407 0.278286,-0.716417 0,-0.270009 -0.102731,-0.530524 -0.309005,-0.779046 -1.482767,-1.82827 -2.584849,-3.261436 -3.306414,-4.300332 0.411898,-0.768719 0.813886,-1.713836 1.20514,-2.835017 l 5.715043,-0.871992 c 0.246908,-0.04164 0.453518,-0.177063 0.618179,-0.405763 0.164659,-0.228702 0.246576,-0.467728 0.246576,-0.71675 l 0,-6.919139 c 0,-0.270011 -0.08159,-0.513703 -0.246907,-0.732076 m -17.888003,9.768983 c -1.5447,1.558259 -3.408977,2.336973 -5.592663,2.336973 -2.183688,0 -4.047634,-0.779047 -5.5925,-2.336973 -1.544701,-1.557927 -2.317133,-3.437833 -2.317133,-5.640052 0,-2.202385 0.772102,-4.082291 2.317133,-5.640384 1.545031,-1.557926 3.409307,-2.336973 5.5925,-2.336973 2.183686,0 4.047963,0.779047 5.592663,2.336973 1.5447,1.55826 2.317133,3.438165 2.317133,5.640384 0,2.202386 -0.772433,4.082292 -2.317133,5.640052" />
</svg>
