<?xml version="1.0" encoding="UTF-8" standalone="no"?>
<svg
   xmlns:dc="http://purl.org/dc/elements/1.1/"
   xmlns:cc="http://creativecommons.org/ns#"
   xmlns:rdf="http://www.w3.org/1999/02/22-rdf-syntax-ns#"
   xmlns:svg="http://www.w3.org/2000/svg"
   xmlns="http://www.w3.org/2000/svg"
   xmlns:sodipodi="http://sodipodi.sourceforge.net/DTD/sodipodi-0.dtd"
   xmlns:inkscape="http://www.inkscape.org/namespaces/inkscape"
   viewBox="0 0 48 48"
   id="svg2"
   version="1.1"
   inkscape:version="0.91 r13725"
   sodipodi:docname="spectacle.svg">
  <metadata
     id="metadata19">
    <rdf:RDF>
      <cc:Work
         rdf:about="">
        <dc:format>image/svg+xml</dc:format>
        <dc:type
           rdf:resource="http://purl.org/dc/dcmitype/StillImage" />
        <dc:title></dc:title>
      </cc:Work>
    </rdf:RDF>
  </metadata>
  <sodipodi:namedview
     pagecolor="#ffffff"
     bordercolor="#666666"
     borderopacity="1"
     objecttolerance="10"
     gridtolerance="10"
     guidetolerance="10"
     inkscape:pageopacity="0"
     inkscape:pageshadow="2"
     inkscape:window-width="1280"
     inkscape:window-height="694"
     id="namedview17"
     showgrid="false"
     inkscape:zoom="4.9166667"
     inkscape:cx="-9.1525422"
     inkscape:cy="24"
     inkscape:window-x="0"
     inkscape:window-y="0"
     inkscape:window-maximized="1"
     inkscape:current-layer="svg2" />
  <defs
     id="defs4">
    <linearGradient
       id="0-7"
       y1="542.8"
       x2="0"
       y2="507.8"
       gradientUnits="userSpaceOnUse"
       gradientTransform="matrix(0.69204,0,0,0.67579,117.82,177.15)">
      <stop
         id="stop4152"
         stop-color="#42a603" />
      <stop
         id="stop4154"
         stop-color="#78da06"
         offset="1" />
    </linearGradient>
  </defs>
  <g
     style="enable-background:new;fill:#ffffff;fill-opacity:0.93145162"
     transform="matrix(0.99999,0,0,0.99999,-48.375776,30.874431)"
     id="g11">
    <path
       style="opacity:0.79500002;fill:#ffffff;fill-opacity:0.93145162"
       inkscape:connector-curvature="0"
       d="m 82.63,-12.53 c -0.579,-0.564 -1.278,-0.846 -2.097,-0.846 l -2.595,0 -0.591,-1.535 c -0.147,-0.369 -0.415,-0.687 -0.805,-0.954 -0.39,-0.267 -0.79,-0.401 -1.199,-0.401 l -5.932,0 c -0.409,0 -0.809,0.134 -1.199,0.401 -0.39,0.267 -0.658,0.585 -0.805,0.954 l -0.591,1.535 -2.595,0 c -0.819,0 -1.518,0.282 -2.097,0.846 -0.579,0.564 -0.869,1.245 -0.869,2.043 l 0,10.114 c 0,0.798 0.29,1.479 0.869,2.043 0.579,0.564 1.278,0.847 2.097,0.847 l 16.311,0 c 0.819,0 1.517,-0.282 2.097,-0.847 0.579,-0.564 0.869,-1.245 0.869,-2.043 l 0,-10.114 c 0,-0.798 -0.29,-1.479 -0.869,-2.043 m -6.586,10.673 c -1.016,0.99 -2.238,1.484 -3.667,1.484 -1.429,0 -2.651,-0.495 -3.667,-1.484 -1.016,-0.989 -1.523,-2.18 -1.523,-3.572 0,-1.392 0.508,-2.583 1.523,-3.572 1.016,-0.99 2.238,-1.484 3.667,-1.484 1.429,0 2.651,0.495 3.667,1.484 1.016,0.989 1.523,2.18 1.523,3.572 0,1.392 -0.508,2.583 -1.523,3.572 M 72.376,-8.68 c -0.919,0 -1.705,0.318 -2.358,0.954 -0.653,0.636 -0.979,1.401 -0.979,2.297 0,0.896 0.326,1.661 0.979,2.297 0.653,0.636 1.438,0.954 2.358,0.954 0.919,0 1.705,-0.318 2.358,-0.954 0.653,-0.636 0.979,-1.402 0.979,-2.297 0,-0.896 -0.326,-1.661 -0.979,-2.297 -0.653,-0.636 -1.439,-0.954 -2.358,-0.954"
       id="path15" />
  </g>
  <path
     style="fill:#008000"
     inkscape:connector-curvature="0"
     id="path6"
     d="m 43.588061,7.0593723 -10.309506,0 -2.52251,-5.5446247 C 30.40644,0.74626179 29.693001,0.26107206 28.912685,0.26107206 l -9.825372,0 c -0.780326,0 -1.493754,0.48520108 -1.84336,1.25367554 l -2.522509,5.5446247 -10.3095062,0 c -2.2775451,0 -4.12380239,2.0337335 -4.12380239,4.5425497 l 0,31.797847 c 0,2.508816 1.84625729,4.54255 4.12380239,4.54255 l 39.1761232,0 c 2.277545,0 4.123802,-2.033734 4.123802,-4.54255 l 0,-31.797847 c 0,-2.5088162 -1.846257,-4.5425497 -4.123802,-4.5425497 z" />
  <path
     style="fill:#008000"
     inkscape:connector-curvature="0"
     id="path8"
     d="m 6.473839,43.399769 -6.18570359,0 0,-31.797847 6.18570359,0 c 1.1387571,0 2.0619012,1.016884 2.0619012,2.271275 l 0,27.255297 c 0,1.254391 -0.9231441,2.271275 -2.0619012,2.271275 z" />
  <ellipse
     style="fill:#005500"
     id="circle10"
     cy="27.500845"
     cx="24"
     rx="11.340457"
     ry="12.492011" />
  <path
     style="fill:#00aa00"
     inkscape:connector-curvature="0"
     id="path12"
     d="m 23.999999,41.128494 c -6.821996,0 -12.371407,-6.113477 -12.371407,-13.627649 0,-7.514171 5.549411,-13.627648 12.371407,-13.627648 6.821996,0 12.371407,6.113477 12.371407,13.627648 0,7.514172 -5.549411,13.627649 -12.371407,13.627649 z m 0,-24.984022 c -5.684321,0 -10.309506,5.094287 -10.309506,11.356373 0,6.262087 4.625185,11.356374 10.309506,11.356374 5.684322,0 10.309506,-5.094287 10.309506,-11.356374 0,-6.262086 -4.625184,-11.356373 -10.309506,-11.356373 z" />
  <ellipse
     style="fill:#aaffaa"
     id="circle14"
     cy="27.500845"
     cx="24"
     rx="6.1857038"
     ry="6.8138242" />
  <path
     style="fill:#aaffaa"
     inkscape:connector-curvature="0"
     id="path16"
     d="m 27.092851,9.3306471 -6.185704,0 c -0.569373,0 -1.03095,-0.5084362 -1.03095,-1.1356374 l 0,-3.4069122 c 0,-0.6271898 0.461577,-1.1356374 1.03095,-1.1356374 l 6.185704,0 c 0.569373,0 1.030951,0.5084476 1.030951,1.1356374 l 0,3.4069122 c 0,0.6272012 -0.461578,1.1356374 -1.030951,1.1356374 z" />
  <path
     style="fill:#aaffaa"
     inkscape:connector-curvature="0"
     id="path18"
     d="m 43.588061,13.873197 -6.185704,0 c -0.569373,0 -1.030951,-0.508437 -1.030951,-1.135638 l 0,-1.135637 c 0,-0.627201 0.461578,-1.135637 1.030951,-1.135637 l 6.185704,0 c 0.569373,0 1.03095,0.508436 1.03095,1.135637 l 0,1.135637 c 0,0.627201 -0.461577,1.135638 -1.03095,1.135638 z" />
</svg>
