<?xml version="1.0" encoding="UTF-8" standalone="no"?>
<svg
   xmlns:dc="http://purl.org/dc/elements/1.1/"
   xmlns:cc="http://creativecommons.org/ns#"
   xmlns:rdf="http://www.w3.org/1999/02/22-rdf-syntax-ns#"
   xmlns:svg="http://www.w3.org/2000/svg"
   xmlns="http://www.w3.org/2000/svg"
   xmlns:sodipodi="http://sodipodi.sourceforge.net/DTD/sodipodi-0.dtd"
   xmlns:inkscape="http://www.inkscape.org/namespaces/inkscape"
   viewBox="0 0 48 48"
   id="svg2"
   version="1.1"
   inkscape:version="0.91 r13725"
   sodipodi:docname="spideroak.svg">
  <metadata
     id="metadata34">
    <rdf:RDF>
      <cc:Work
         rdf:about="">
        <dc:format>image/svg+xml</dc:format>
        <dc:type
           rdf:resource="http://purl.org/dc/dcmitype/StillImage" />
        <dc:title></dc:title>
      </cc:Work>
    </rdf:RDF>
  </metadata>
  <sodipodi:namedview
     pagecolor="#ffffff"
     bordercolor="#666666"
     borderopacity="1"
     objecttolerance="10"
     gridtolerance="10"
     guidetolerance="10"
     inkscape:pageopacity="0"
     inkscape:pageshadow="2"
     inkscape:window-width="1280"
     inkscape:window-height="694"
     id="namedview32"
     showgrid="false"
     inkscape:zoom="4.9166667"
     inkscape:cx="-9.1525424"
     inkscape:cy="24"
     inkscape:window-x="0"
     inkscape:window-y="0"
     inkscape:window-maximized="1"
     inkscape:current-layer="svg2" />
  <defs
     id="defs4">
    <clipPath
       id="clipPath6">
      <path
         d="m-24 13c0 1.105-.672 2-1.5 2-.828 0-1.5-.895-1.5-2 0-1.105.672-2 1.5-2 .828 0 1.5.895 1.5 2"
         transform="matrix(15.33333 0 0 11.5 415-125.5)"
         fill="#1890d0"
         id="path8" />
    </clipPath>
    <linearGradient
       id="1"
       x1="-36.1"
       y1="413.55"
       x2="-36.21"
       y2="404.39"
       gradientUnits="userSpaceOnUse">
      <stop
         stop-color="#ff433a"
         id="stop11" />
      <stop
         offset="1"
         stop-color="#ff9436"
         id="stop13" />
    </linearGradient>
    <linearGradient
       y1="545.8"
       x2="0"
       y2="517.8"
       gradientUnits="userSpaceOnUse"
       id="linearGradient15">
      <stop
         stop-color="#3889e9"
         id="stop17" />
      <stop
         offset="1"
         stop-color="#5ea5fb"
         id="stop19" />
    </linearGradient>
    <linearGradient
       id="0"
       x1="-10.767"
       y1="4.675"
       x2="-11.233"
       y2="-22.851"
       gradientUnits="userSpaceOnUse"
       gradientTransform="matrix(15.92863 0 0 15.39374-156.49 587.27)">
      <stop
         stop-color="#141414"
         id="stop22" />
      <stop
         offset="1"
         stop-color="#2d2d2f"
         id="stop24" />
    </linearGradient>
  </defs>
  <g
     id="g4170"
     transform="matrix(1.440136,0,0,1.3873997,52.905256,-521.49308)">
    <rect
       ry="0"
       y="-137.74828"
       x="372.69534"
       height="33.102486"
       width="4.1378055"
       id="rect4165"
       style="fill:#e67e22;fill-opacity:1;stroke:none"
       transform="matrix(0.25881905,0.96592583,0.96592583,-0.25881905,0,0)" />
    <g
       transform="matrix(1,0,0,1.0460224,0,-18.230964)"
       id="g4162">
      <path
         style="fill:#f39c12;fill-opacity:1;stroke:none"
         d="m -9.8301167,380.19617 -10.8585003,10.85851 4.614623,1.23649 9.1694361,-9.16944 z"
         id="rect4167"
         inkscape:connector-curvature="0"
         sodipodi:nodetypes="ccccc" />
      <path
         style="fill:#f1c40f;fill-opacity:1;stroke:none"
         d="m -17.785688,376.84067 -4.732613,17.66325 c 0.78376,-0.19749 1.600301,-0.31358 2.447122,-0.31358 0.641034,0 1.265108,0.0662 1.87171,0.18107 l 4.410962,-16.46071 -3.997181,-1.07 z"
         id="rect4169"
         inkscape:connector-curvature="0" />
      <path
         style="fill:#e67e22;fill-opacity:1;stroke:none"
         d="m -22.356669,376.84067 -3.997184,1.07001 4.410964,16.46071 c 0.606601,-0.11489 1.230679,-0.18107 1.87171,-0.18107 0.846821,0 1.663363,0.11596 2.447123,0.31356 l -4.732613,-17.66323 z"
         id="rect4171"
         inkscape:connector-curvature="0" />
      <path
         style="fill:#f39c12;fill-opacity:1;stroke:none"
         d="m -30.312243,380.19617 -2.925555,2.92556 11.254501,11.25449 c 0.618967,-0.11999 1.257081,-0.1859 1.912118,-0.1859 1.940332,0 3.74135,0.5599 5.267616,1.51451 z"
         id="rect4173"
         inkscape:connector-curvature="0"
         sodipodi:nodetypes="cccscc" />
      <rect
         style="fill:#c0392b;fill-opacity:1;stroke:none"
         id="rect4120"
         width="4.1378055"
         height="14.89609"
         x="-22.140102"
         y="395.01669"
         ry="0" />
      <rect
         transform="matrix(0.25881905,-0.96592583,0.96592583,0.25881905,0,0)"
         style="fill:#e67e22;fill-opacity:1;stroke:none"
         id="rect4190"
         width="4.1378055"
         height="33.102486"
         x="-387.22287"
         y="65.871239"
         ry="0" />
    </g>
  </g>
</svg>
