<?xml version="1.0" encoding="UTF-8" standalone="no"?>
<svg
   xmlns:dc="http://purl.org/dc/elements/1.1/"
   xmlns:cc="http://creativecommons.org/ns#"
   xmlns:rdf="http://www.w3.org/1999/02/22-rdf-syntax-ns#"
   xmlns:svg="http://www.w3.org/2000/svg"
   xmlns="http://www.w3.org/2000/svg"
   xmlns:sodipodi="http://sodipodi.sourceforge.net/DTD/sodipodi-0.dtd"
   xmlns:inkscape="http://www.inkscape.org/namespaces/inkscape"
   viewBox="0 0 48 48"
   id="svg2"
   version="1.1"
   inkscape:version="0.91 r13725"
   sodipodi:docname="stock_tasks.svg">
  <metadata
     id="metadata50">
    <rdf:RDF>
      <cc:Work
         rdf:about="">
        <dc:format>image/svg+xml</dc:format>
        <dc:type
           rdf:resource="http://purl.org/dc/dcmitype/StillImage" />
        <dc:title></dc:title>
      </cc:Work>
    </rdf:RDF>
  </metadata>
  <sodipodi:namedview
     pagecolor="#ffffff"
     bordercolor="#666666"
     borderopacity="1"
     objecttolerance="10"
     gridtolerance="10"
     guidetolerance="10"
     inkscape:pageopacity="0"
     inkscape:pageshadow="2"
     inkscape:window-width="1280"
     inkscape:window-height="694"
     id="namedview48"
     showgrid="false"
     inkscape:zoom="4.9166667"
     inkscape:cx="-9.1525424"
     inkscape:cy="24"
     inkscape:window-x="0"
     inkscape:window-y="0"
     inkscape:window-maximized="1"
     inkscape:current-layer="svg2" />
  <defs
     id="defs4">
    <clipPath
       id="clipPath6">
      <path
         d="m-24 13c0 1.105-.672 2-1.5 2-.828 0-1.5-.895-1.5-2 0-1.105.672-2 1.5-2 .828 0 1.5.895 1.5 2"
         transform="matrix(15.33333 0 0 11.5 415-125.5)"
         fill="#1890d0"
         id="path8" />
    </clipPath>
    <clipPath
       id="clipPath10">
      <path
         d="m-24 13c0 1.105-.672 2-1.5 2-.828 0-1.5-.895-1.5-2 0-1.105.672-2 1.5-2 .828 0 1.5.895 1.5 2"
         transform="matrix(15.33333 0 0 11.5 415-125.5)"
         fill="#1890d0"
         id="path12" />
    </clipPath>
    <linearGradient
       gradientTransform="matrix(.99978 0 0 .98633-.833 5.996)"
       gradientUnits="userSpaceOnUse"
       y2="317.35"
       x2="-1003.64"
       y1="433.28"
       x1="-989.67"
       id="0">
      <stop
         stop-color="#1584d8"
         id="stop15" />
      <stop
         offset="1"
         stop-color="#1cb2ff"
         id="stop17" />
    </linearGradient>
    <linearGradient
       gradientTransform="matrix(.99834 0 0 .98513-2.169 6.702)"
       gradientUnits="userSpaceOnUse"
       y2="104.85"
       x2="-1060.26"
       y1="203.1"
       x1="-1092.91"
       id="1">
      <stop
         stop-color="#f2b333"
         id="stop20" />
      <stop
         offset="1"
         stop-color="#fcde3f"
         id="stop22" />
    </linearGradient>
  </defs>
  <g
     id="g4281"
     transform="matrix(2.3051784,0,0,2.6248585,-446.90351,-1849.6568)"
     style="fill:#803300;fill-opacity:1">
    <rect
       transform="matrix(0.70710678,-0.70710678,0.70710678,0.70710678,0,0)"
       y="645.69183"
       x="-362.37311"
       height="5.2367983"
       width="2.3999994"
       id="rect3284"
       style="fill:#803300;fill-opacity:1;fill-rule:evenodd;stroke:none" />
    <g
       id="g4277"
       style="fill:#803300;fill-opacity:1">
      <path
         inkscape:connector-curvature="0"
         style="fill:#803300;fill-opacity:1;fill-rule:evenodd;stroke:none"
         d="m 203.03309,704.81251 c -2.35636,1.4e-4 -4.69714,0.97062 -6.36211,2.63672 -1.66496,1.66609 -2.63437,4.00727 -2.63437,6.36328 0,2.356 0.96941,4.69718 2.63437,6.36328 1.66497,1.66609 4.00575,2.63657 6.36211,2.63671 2.35636,1.4e-4 4.69853,-0.96944 6.36562,-2.63554 1.66709,-1.66611 2.63789,-4.00819 2.63789,-6.36445 l -2.4,0 c 0,1.72792 -0.71223,3.44576 -1.93476,4.66757 -1.22253,1.22181 -2.94075,1.93253 -4.66875,1.93242 -1.728,-10e-5 -3.44426,-0.71178 -4.66523,-1.93359 -1.22098,-1.2218 -1.93125,-2.93867 -1.93125,-4.6664 0,-1.72774 0.71027,-3.4446 1.93125,-4.66641 1.22097,-1.2218 2.93723,-1.93349 4.66523,-1.93359 0.001,0 0.002,0 0.004,0 l 0,-2.4 c -0.001,0 -0.002,0 -0.004,0 z"
         id="path3304" />
      <path
         inkscape:connector-curvature="0"
         style="fill:#803300;fill-opacity:1;fill-rule:evenodd;stroke:none"
         d="m 212.73973,704.81251 -10.19999,10.2 1.69687,1.69687 10.19999,-10.2 -1.69687,-1.69687 z"
         id="path4149" />
    </g>
  </g>
</svg>
