<?xml version="1.0" encoding="UTF-8" standalone="no"?>
<svg
   xmlns:dc="http://purl.org/dc/elements/1.1/"
   xmlns:cc="http://creativecommons.org/ns#"
   xmlns:rdf="http://www.w3.org/1999/02/22-rdf-syntax-ns#"
   xmlns:svg="http://www.w3.org/2000/svg"
   xmlns="http://www.w3.org/2000/svg"
   xmlns:sodipodi="http://sodipodi.sourceforge.net/DTD/sodipodi-0.dtd"
   xmlns:inkscape="http://www.inkscape.org/namespaces/inkscape"
   viewBox="0 0 48 48"
   id="svg2"
   version="1.1"
   inkscape:version="0.91 r13725"
   sodipodi:docname="sweeper.svg">
  <metadata
     id="metadata40">
    <rdf:RDF>
      <cc:Work
         rdf:about="">
        <dc:format>image/svg+xml</dc:format>
        <dc:type
           rdf:resource="http://purl.org/dc/dcmitype/StillImage" />
        <dc:title></dc:title>
      </cc:Work>
    </rdf:RDF>
  </metadata>
  <sodipodi:namedview
     pagecolor="#ffffff"
     bordercolor="#666666"
     borderopacity="1"
     objecttolerance="10"
     gridtolerance="10"
     guidetolerance="10"
     inkscape:pageopacity="0"
     inkscape:pageshadow="2"
     inkscape:window-width="1280"
     inkscape:window-height="694"
     id="namedview38"
     showgrid="false"
     inkscape:zoom="4.9166667"
     inkscape:cx="-9.1525424"
     inkscape:cy="24"
     inkscape:window-x="0"
     inkscape:window-y="0"
     inkscape:window-maximized="1"
     inkscape:current-layer="svg2" />
  <defs
     id="defs4">
    <linearGradient
       id="0"
       y1="549.91"
       x2="0"
       y2="516.93"
       gradientUnits="userSpaceOnUse">
      <stop
         stop-color="#317a02"
         id="stop7" />
      <stop
         offset="1"
         stop-color="#8cff58"
         id="stop9" />
    </linearGradient>
    <linearGradient
       id="1"
       gradientUnits="userSpaceOnUse"
       y1="549.91"
       x2="0"
       y2="516.93">
      <stop
         stop-color="#4da70e"
         id="stop12" />
      <stop
         offset="1"
         stop-color="#9ded46"
         id="stop14" />
    </linearGradient>
  </defs>
  <g
     id="g4205"
     transform="matrix(0.81702085,0,0,1.3940298,76.677074,-1.8414376)">
    <path
       style="fill:#8dd35f;stroke-width:0.78468841"
       d="m -67.349403,35.606996 c -7.384599,-0.255501 -13.396656,-1.273326 -15.994308,-2.707791 -0.924927,-0.510759 -1.175262,-0.784292 -1.449359,-1.58366 -0.75645,-2.206086 -8.189057,-22.3884962 -8.383416,-22.7642292 -1.330756,-2.572601 4.099145,-4.9026665 14.399687,-6.1791582 2.358963,-0.2923335 5.943362,-0.5818307 8.787718,-0.7097485 2.553796,-0.1148509 8.481182,-0.1148509 11.034976,0 12.461009,0.5604021 21.789041,2.7282149 23.194624,5.3903755 0.271411,0.5140543 0.24828,0.9069605 -0.09524,1.6177821 -0.371592,0.7689034 -8.38608,22.6929403 -8.38608,22.9405483 0,0.100506 -0.202995,0.387761 -0.451102,0.638344 -1.259069,1.27164 -5.480724,2.398558 -11.182235,2.98496 -3.173413,0.326386 -8.144984,0.487803 -11.475263,0.372577 z"
       id="path3348"
       inkscape:connector-curvature="0" />
    <path
       style="fill:#cccccc;stroke-width:0.78468841"
       d="m -67.795212,12.166545 c -8.986565,-0.226108 -17.290863,-1.482211 -20.876934,-3.1578327 -0.910046,-0.4252252 -1.635507,-1.0317743 -1.63298,-1.365311 0.0043,-0.5644837 1.379617,-1.4079963 3.309056,-2.0294891 8.257393,-2.6597918 25.345042,-3.368084 37.871233,-1.5697842 4.326816,0.6211718 7.596122,1.4675498 9.402104,2.434076 1.221034,0.6534725 1.451268,1.06812 0.920618,1.6580168 -1.246806,1.3860128 -6.798795,2.7971902 -13.784546,3.5036872 -2.811852,0.284374 -5.488798,0.44583 -8.805392,0.531081 -2.903054,0.07462 -3.270846,0.07437 -6.403159,-0.0044 z"
       id="path3340"
       inkscape:connector-curvature="0" />
    <path
       sodipodi:nodetypes="ssscscssscs"
       inkscape:connector-curvature="0"
       id="path3370"
       d="m -81.327744,10.38836 c -3.613101,-0.5796586 -3.677403,-0.6636781 -3.720613,-1.4599417 -0.01922,-0.3542256 -0.04543,-0.70322 -0.05825,-0.7755421 -0.02981,-0.1682336 7.302078,-2.7936048 7.825175,-2.8020056 0.215917,-0.00347 0.673461,0.047593 1.016766,0.1134675 l 0.624188,0.1197727 -0.606461,0.3799948 c -2.472199,1.5490205 -3.873537,2.5482305 -3.873537,2.7619855 0,0.1379428 0.368343,0.6587373 0.818539,1.157321 0.450198,0.4985839 0.79016,0.9208389 0.75547,0.9383459 -0.03469,0.01751 -1.331469,-0.200802 -2.781278,-0.433398 z"
       style="opacity:1;fill:#f9de69;fill-opacity:1;stroke:none;stroke-width:1.94914401;stroke-miterlimit:4;stroke-dasharray:none;stroke-dashoffset:0;stroke-opacity:1" />
    <path
       sodipodi:nodetypes="sssscss"
       inkscape:connector-curvature="0"
       id="path3374"
       d="m -46.452435,9.8413263 c 0,-0.2351352 -0.474974,-0.5995206 -1.724396,-1.3229132 -1.937709,-1.1218897 -1.96691,-1.0582148 0.566047,-1.2340356 1.108083,-0.076915 1.250611,-0.057951 1.898636,0.2526324 1.259426,0.6036057 3.183473,1.8021373 2.882709,1.8915797 -0.272482,0.1103304 -3.762612,0.8580994 -4.088886,0.8580994 -0.132014,0 0.46589,-0.266876 0.46589,-0.4453627 z"
       style="opacity:1;fill:#1ba39c;fill-opacity:0.99607843;stroke:none;stroke-width:1.94914401;stroke-miterlimit:4;stroke-dasharray:none;stroke-dashoffset:0;stroke-opacity:1" />
    <path
       sodipodi:nodetypes="ssssssssssssssss"
       inkscape:connector-curvature="0"
       id="path3361"
       d="m -70.504934,11.4981 c -2.632542,-0.152864 -7.343941,-0.594131 -8.02763,-0.670318 -0.634731,-0.07073 -0.793147,-0.329195 -1.421876,-1.1173465 -0.416936,-0.5226598 -0.758069,-0.9994796 -0.758069,-1.0595994 0,-0.1076247 3.143283,-2.1448231 5.697251,-3.6924537 0.718092,-0.4351421 1.474648,-0.7923078 1.681238,-0.7937013 0.53417,-0.0036 9.957129,0.5713809 10.620725,0.6480711 0.368861,0.042628 0.708571,0.2397499 1.026237,0.5954883 0.261169,0.2924716 0.624119,0.5601401 0.806552,0.5948194 0.182435,0.034679 1.654417,-0.074299 3.271072,-0.2421729 1.616653,-0.1678741 3.152884,-0.3052258 3.413845,-0.3052258 0.591239,0 8.141359,3.9234612 8.141359,4.2307028 0,0.2496352 -0.03674,0.477154 -0.675526,0.583806 -0.605527,0.101099 -1.617283,0.301191 -3.003947,0.470696 -4.920385,0.601463 -7.343414,0.827262 -13.928243,0.864652 -3.32933,0.0189 -6.386022,-0.08088 -6.842988,-0.107418 z"
       style="opacity:1;fill:#ffffff;fill-opacity:1;stroke:none;stroke-width:1.94914401;stroke-miterlimit:4;stroke-dasharray:none;stroke-dashoffset:0;stroke-opacity:1" />
  </g>
</svg>
