<?xml version="1.0" encoding="UTF-8" standalone="no"?>
<svg
   xmlns:dc="http://purl.org/dc/elements/1.1/"
   xmlns:cc="http://creativecommons.org/ns#"
   xmlns:rdf="http://www.w3.org/1999/02/22-rdf-syntax-ns#"
   xmlns:svg="http://www.w3.org/2000/svg"
   xmlns="http://www.w3.org/2000/svg"
   xmlns:sodipodi="http://sodipodi.sourceforge.net/DTD/sodipodi-0.dtd"
   xmlns:inkscape="http://www.inkscape.org/namespaces/inkscape"
   viewBox="0 0 48 48"
   id="svg2"
   version="1.1"
   inkscape:version="0.91 r13725"
   sodipodi:docname="system-help.svg">
  <metadata
     id="metadata19">
    <rdf:RDF>
      <cc:Work
         rdf:about="">
        <dc:format>image/svg+xml</dc:format>
        <dc:type
           rdf:resource="http://purl.org/dc/dcmitype/StillImage" />
        <dc:title></dc:title>
      </cc:Work>
    </rdf:RDF>
  </metadata>
  <sodipodi:namedview
     pagecolor="#ffffff"
     bordercolor="#666666"
     borderopacity="1"
     objecttolerance="10"
     gridtolerance="10"
     guidetolerance="10"
     inkscape:pageopacity="0"
     inkscape:pageshadow="2"
     inkscape:window-width="1280"
     inkscape:window-height="694"
     id="namedview17"
     showgrid="false"
     inkscape:zoom="4.9166667"
     inkscape:cx="-11.59322"
     inkscape:cy="24"
     inkscape:window-x="0"
     inkscape:window-y="0"
     inkscape:window-maximized="1"
     inkscape:current-layer="svg2" />
  <defs
     id="defs4">
    <linearGradient
       id="0"
       gradientUnits="userSpaceOnUse"
       y1="-9.01"
       x2="0"
       y2="-55.29"
       gradientTransform="matrix(0.99999,0,0,0.99999,-38.37,55.882)">
      <stop
         stop-color="#197ff1"
         id="stop7" />
      <stop
         offset="1"
         stop-color="#21c6fb"
         id="stop9" />
    </linearGradient>
  </defs>
  <path
     style="fill:#00aad4;fill-opacity:0.85500004"
     inkscape:connector-curvature="0"
     id="path15"
     d="m 29.724803,46.571216 q -2.204122,1.283849 -5.571616,1.283849 -3.367496,0 -5.687622,-1.283849 -2.204122,-1.28385 -2.204122,-3.083073 0,-1.799223 2.204122,-3.083072 2.320126,-1.283851 5.687622,-1.283851 3.367494,0 5.571616,1.283851 2.320126,1.283849 2.320126,3.083072 0,1.799223 -2.320126,3.083073 m -0.116013,-13.361207 -10.91122,0 0,-3.01888 q 0,-2.890496 2.204119,-4.94649 2.204121,-2.120185 7.775736,-4.946488 3.135486,-1.606646 4.411555,-2.376956 1.392072,-0.834501 2.671459,-2.248571 1.392073,-1.47826 1.392073,-3.01888 0,-2.9546886 -3.483502,-4.7539117 -3.367497,-1.7992232 -9.403139,-1.7992232 -9.976541,0 -13.698682,6.1661459 L 0.59065339,9.953992 Q 3.0267832,6.2931867 8.9497329,3.4026897 14.985375,0.44800132 24.272506,0.44800132 q 10.563201,0 17.178873,3.46822958 6.615673,3.4040347 6.615673,8.7356791 0,2.312763 -2.204118,4.689719 -2.204119,2.376955 -3.947528,3.404035 -1.624089,0.962888 -4.643566,2.505341 -0.348019,0.192577 -0.58003,0.320962 -7.079699,3.532421 -7.079699,7.064841 l 0,2.569534" />
</svg>
