<?xml version="1.0" encoding="UTF-8" standalone="no"?>
<svg
   xmlns:dc="http://purl.org/dc/elements/1.1/"
   xmlns:cc="http://creativecommons.org/ns#"
   xmlns:rdf="http://www.w3.org/1999/02/22-rdf-syntax-ns#"
   xmlns:svg="http://www.w3.org/2000/svg"
   xmlns="http://www.w3.org/2000/svg"
   xmlns:sodipodi="http://sodipodi.sourceforge.net/DTD/sodipodi-0.dtd"
   xmlns:inkscape="http://www.inkscape.org/namespaces/inkscape"
   viewBox="0 0 48 48"
   id="svg2"
   version="1.1"
   inkscape:version="0.91 r13725"
   sodipodi:docname="tomate.svg">
  <metadata
     id="metadata24">
    <rdf:RDF>
      <cc:Work
         rdf:about="">
        <dc:format>image/svg+xml</dc:format>
        <dc:type
           rdf:resource="http://purl.org/dc/dcmitype/StillImage" />
        <dc:title></dc:title>
      </cc:Work>
    </rdf:RDF>
  </metadata>
  <sodipodi:namedview
     pagecolor="#ffffff"
     bordercolor="#666666"
     borderopacity="1"
     objecttolerance="10"
     gridtolerance="10"
     guidetolerance="10"
     inkscape:pageopacity="0"
     inkscape:pageshadow="2"
     inkscape:window-width="1280"
     inkscape:window-height="694"
     id="namedview22"
     showgrid="false"
     inkscape:zoom="4.9166667"
     inkscape:cx="-5.7966102"
     inkscape:cy="24"
     inkscape:window-x="0"
     inkscape:window-y="0"
     inkscape:window-maximized="1"
     inkscape:current-layer="svg2" />
  <defs
     id="defs4">
    <linearGradient
       id="0"
       y1="17.208"
       x2="0"
       y2="2.868"
       gradientUnits="userSpaceOnUse"
       gradientTransform="matrix(2.78938,0,0,2.78938,0,0.002)">
      <stop
         stop-color="#e3203a"
         id="stop7" />
      <stop
         offset="1"
         stop-color="#fd5420"
         id="stop9" />
    </linearGradient>
    <linearGradient
       id="1"
       x1="8.963"
       y1="8.245"
       x2="7.17"
       y2="-.717"
       gradientUnits="userSpaceOnUse"
       gradientTransform="matrix(2.78938,0,0,2.78938,0,0.002)">
      <stop
         stop-color="#2fae61"
         id="stop12" />
      <stop
         offset="1"
         stop-color="#4bdf88"
         id="stop14" />
    </linearGradient>
  </defs>
  <path
     inkscape:connector-curvature="0"
     style="fill:#c83737"
     id="path18"
     d="M 35.952319,7.8262109 35.04856,8.2055666 c -1.386322,0.580191 -2.2064,1.336113 -2.912113,2.1004034 0.647136,0.301253 1.269168,0.686187 1.860516,1.146435 1.319377,1.073911 2.209189,2.234293 2.906534,3.774031 l 1.048807,2.301239 -2.510442,-0.309622 c -1.79915,-0.217571 -3.004162,0.184099 -4.172912,0.571823 -0.476984,0.161784 -0.965126,0.323568 -1.475582,0.435144 0.03347,0.211992 0.05858,0.426775 0.07531,0.638768 0.111575,1.271957 -0.05858,2.56344 -0.499299,3.838186 -0.588559,1.598315 -1.391901,2.817274 -2.622017,3.974867 l -0.828446,0.778237 -0.940021,-0.635979 c -1.397479,-0.951178 -2.387709,-2.02509 -3.210576,-3.483935 -0.549508,-1.026492 -0.90376,-2.075299 -1.054386,-3.152 -0.574612,0.100418 -1.143646,0.119944 -1.701522,0.142259 -1.227327,0.04742 -2.499284,0.09484 -4.103178,0.937231 l -2.239872,1.179908 0.164573,-2.524389 c 0.108786,-1.684785 0.529983,-3.082265 1.372375,-4.532742 0.510457,-0.842393 1.110174,-1.573211 1.80194,-2.186874 -0.158995,-0.139469 -0.3152,-0.284517 -0.468616,-0.426775 -0.903759,-0.834025 -1.838201,-1.698733 -3.570406,-2.237083 L 9.5508371,9.7815663 11.031998,8.4789258 C 2.6694367,10.997736 0,18.353331 0,26.609896 c 0,11.564769 10.744692,20.939875 23.999826,20.939875 13.252344,0 23.999825,-9.375106 23.999825,-20.939875 0,-8.524345 -3.076686,-16.6219156 -12.047332,-18.7836851" />
  <path
     inkscape:connector-curvature="0"
     style="fill:#5aa02c"
     id="path20"
     d="m 17.665144,13.650436 c -0.878655,0.610875 -1.631788,1.408637 -2.237083,2.410025 -0.594138,1.020913 -1.073912,2.20361 -1.182697,3.91071 3.55088,-1.866095 5.762859,-0.429564 7.835368,-1.852148 -0.04463,0.446301 -0.05579,0.887023 -0.01674,1.330534 0.07531,1.068333 0.382145,2.119929 0.937231,3.152 0.580192,1.029281 1.35285,2.041826 2.772644,3.004162 1.244064,-1.174329 1.84657,-2.298449 2.256609,-3.408622 0.384934,-1.104595 0.521614,-2.189664 0.423985,-3.257996 -0.05858,-0.694556 -0.217571,-1.380743 -0.465826,-2.058563 2.245451,0.323568 3.840976,-1.570421 7.623375,-1.104594 C 34.903512,14.21668 34.036015,13.279449 33.121098,12.534684 32.200603,11.812235 31.215952,11.335251 30.175513,11.075839 29.960731,11.020051 29.748738,10.981 29.528377,10.947527 30.839385,9.8485114 31.681778,8.0437825 34.501841,6.8666642 33.109941,5.8652768 31.890982,5.4803423 30.72781,5.2906645 29.567428,5.1205123 28.47678,5.1930362 27.44471,5.4859211 26.412639,5.7704378 25.436356,6.2697369 24.527018,7.0089226 24.178346,7.3045968 23.840831,7.6449012 23.514473,8.0186781 22.262042,3.9712877 20.78367,0.7411857 20.64978,0.45387956 l -0.967915,0.44909018 c 0.03068,0.0697345 1.576,3.43372676 2.853536,7.59827116 C 22.468456,8.4398745 22.395932,8.3812975 22.323408,8.3310887 21.349915,7.6811631 20.331791,7.276703 19.274616,7.092604 18.22302,6.9029261 17.124004,6.9336093 15.988726,7.2125473 c -1.140856,0.3040424 -2.315185,0.8005521 -3.603879,1.930251 3.416991,1.0627537 4.225911,3.2273127 6.108742,4.0083387 -0.284516,0.153416 -0.563454,0.3152 -0.828445,0.499299 m 7.101761,-2.061351 c 0.01395,0 0.0028,0.0084 0.03905,0.01116 -0.05021,0.02232 -0.103207,0.05021 -0.153416,0.07531 0.03626,-0.0028 0.07531,-0.05579 0.114365,-0.08647" />
</svg>
