<?xml version="1.0" encoding="UTF-8" standalone="no"?>
<svg
   xmlns:dc="http://purl.org/dc/elements/1.1/"
   xmlns:cc="http://creativecommons.org/ns#"
   xmlns:rdf="http://www.w3.org/1999/02/22-rdf-syntax-ns#"
   xmlns:svg="http://www.w3.org/2000/svg"
   xmlns="http://www.w3.org/2000/svg"
   xmlns:sodipodi="http://sodipodi.sourceforge.net/DTD/sodipodi-0.dtd"
   xmlns:inkscape="http://www.inkscape.org/namespaces/inkscape"
   viewBox="0 0 48 48"
   id="svg2"
   version="1.1"
   inkscape:version="0.91 r13725"
   sodipodi:docname="transcoder.svg">
  <metadata
     id="metadata32">
    <rdf:RDF>
      <cc:Work
         rdf:about="">
        <dc:format>image/svg+xml</dc:format>
        <dc:type
           rdf:resource="http://purl.org/dc/dcmitype/StillImage" />
        <dc:title></dc:title>
      </cc:Work>
    </rdf:RDF>
  </metadata>
  <sodipodi:namedview
     pagecolor="#ffffff"
     bordercolor="#666666"
     borderopacity="1"
     objecttolerance="10"
     gridtolerance="10"
     guidetolerance="10"
     inkscape:pageopacity="0"
     inkscape:pageshadow="2"
     inkscape:window-width="1280"
     inkscape:window-height="694"
     id="namedview30"
     showgrid="false"
     inkscape:zoom="4.9166667"
     inkscape:cx="-11.59322"
     inkscape:cy="24"
     inkscape:window-x="0"
     inkscape:window-y="0"
     inkscape:window-maximized="1"
     inkscape:current-layer="svg2" />
  <defs
     id="defs4">
    <linearGradient
       gradientUnits="userSpaceOnUse"
       y2="516.93"
       x2="0"
       y1="549.91"
       id="0">
      <stop
         stop-color="#d5dbff"
         id="stop7" />
      <stop
         offset="1"
         stop-color="#f9ffff"
         id="stop9" />
    </linearGradient>
    <linearGradient
       gradientUnits="userSpaceOnUse"
       y2=".523"
       x2="24.713"
       y1="39.03"
       x1="17.917"
       id="linearGradient11">
      <stop
         stop-color="#016ed4"
         id="stop13" />
      <stop
         offset="1"
         stop-color="#00aefd"
         id="stop15" />
    </linearGradient>
    <linearGradient
       y2="516.93"
       x2="0"
       y1="549.91"
       gradientUnits="userSpaceOnUse"
       id="1">
      <stop
         stop-color="#c52828"
         id="stop18" />
      <stop
         offset="1"
         stop-color="#ff5454"
         id="stop20" />
    </linearGradient>
  </defs>
  <g
     id="g4162"
     style="fill:#c83737"
     transform="matrix(1.1421365,0,0,1.3010816,-3.3104026,-7.2294585)">
    <path
       d="m 39.240114,32.228125 c 0.347996,0.596566 0.320568,1.338845 -0.06343,1.911411 -4.271961,6.380513 -12.31703,9.61534 -20.098102,7.43136 C 13.046068,39.878912 8.3832536,35.282954 6.5729845,29.372151 6.4941281,29.116725 6.2644159,28.941869 5.9969898,28.943584 l -2.1342662,0.0086 c -0.4645672,0 -0.7559931,-0.498853 -0.5245666,-0.901706 L 6.9552667,21.73165 7.668403,20.481947 c 0.2297122,-0.402854 0.8108497,-0.406282 1.0439904,-0.0051 l 1.218846,2.089695 3.1765426,5.444522 c 0.23314,0.401139 -0.05314,0.90342 -0.51771,0.906848 l -2.358835,0.01029 c 1.577128,4.434817 5.201095,7.866785 9.824481,9.164488 6.239943,1.750269 12.687312,-0.839993 16.107281,-5.955374 0.745707,-1.114276 2.379407,-1.10399 3.054829,0.05486 l 0.02229,0.03771"
       id="path26"
       inkscape:connector-curvature="0"
       style="fill:#c83737;fill-opacity:0.84799966" />
    <path
       d="M 41.571521,19.076245 C 39.857251,12.961444 35.110437,8.1837738 28.937351,6.4523611 21.151137,4.2683812 13.11121,7.5032086 8.8392494,13.883722 8.4552529,14.456288 8.4278246,15.200281 8.7758214,15.795133 l 0.022286,0.03771 c 0.6754224,1.157132 2.3108356,1.169132 3.0548286,0.05486 3.418254,-5.115381 9.862195,-7.7073577 16.107281,-5.9553738 4.618243,1.2959878 8.243924,4.7228138 9.821053,9.1576308 l -2.358836,0.01028 c -0.464567,0 -0.75085,0.50571 -0.517709,0.906849 l 3.179971,5.451379 1.218846,2.089695 c 0.23314,0.401139 0.814278,0.39771 1.04399,-0.0051 l 0.713136,-1.249703 3.613681,-6.325656 c 0.229713,-0.402854 -0.06171,-0.90342 -0.52628,-0.901706 l -2.578262,0.012"
       id="path28"
       inkscape:connector-curvature="0"
       style="fill:#c83737;fill-opacity:0.84799966" />
  </g>
</svg>
