<?xml version="1.0" encoding="UTF-8" standalone="no"?>
<!-- Created with Inkscape (http://www.inkscape.org/) -->

<svg
   xmlns:dc="http://purl.org/dc/elements/1.1/"
   xmlns:cc="http://creativecommons.org/ns#"
   xmlns:rdf="http://www.w3.org/1999/02/22-rdf-syntax-ns#"
   xmlns:svg="http://www.w3.org/2000/svg"
   xmlns="http://www.w3.org/2000/svg"
   xmlns:sodipodi="http://sodipodi.sourceforge.net/DTD/sodipodi-0.dtd"
   xmlns:inkscape="http://www.inkscape.org/namespaces/inkscape"
   id="svg2"
   version="1.1"
   inkscape:version="0.91 r13725"
   width="512"
   height="512"
   sodipodi:docname="uget.svg">
  <metadata
     id="metadata8">
    <rdf:RDF>
      <cc:Work
         rdf:about="">
        <dc:format>image/svg+xml</dc:format>
        <dc:type
           rdf:resource="http://purl.org/dc/dcmitype/StillImage" />
        <dc:title></dc:title>
      </cc:Work>
    </rdf:RDF>
  </metadata>
  <defs
     id="defs6">
    <clipPath
       clipPathUnits="userSpaceOnUse"
       id="clipPath4137">
      <rect
         style="opacity:1;fill:none;fill-opacity:1;stroke:#000000;stroke-width:0.2;stroke-miterlimit:4;stroke-dasharray:none;stroke-dashoffset:0;stroke-opacity:1"
         id="rect4139"
         width="449.48022"
         height="444.87802"
         x="33.749367"
         y="33.372604"
         ry="63.543999" />
    </clipPath>
    <clipPath
       clipPathUnits="userSpaceOnUse"
       id="clipPath4141">
      <rect
         style="opacity:1;fill:none;fill-opacity:1;stroke:#000000;stroke-width:0.2;stroke-miterlimit:4;stroke-dasharray:none;stroke-dashoffset:0;stroke-opacity:1"
         id="rect4143"
         width="449.48022"
         height="444.87802"
         x="33.749367"
         y="33.372604"
         ry="63.543999" />
    </clipPath>
    <clipPath
       clipPathUnits="userSpaceOnUse"
       id="clipPath4145">
      <rect
         style="opacity:1;fill:none;fill-opacity:1;stroke:#000000;stroke-width:0.2;stroke-miterlimit:4;stroke-dasharray:none;stroke-dashoffset:0;stroke-opacity:1"
         id="rect4147"
         width="449.48022"
         height="444.87802"
         x="33.749367"
         y="33.372604"
         ry="63.543999" />
    </clipPath>
  </defs>
  <sodipodi:namedview
     pagecolor="#ffffff"
     bordercolor="#666666"
     borderopacity="1"
     objecttolerance="10"
     gridtolerance="10"
     guidetolerance="10"
     inkscape:pageopacity="0"
     inkscape:pageshadow="2"
     inkscape:window-width="1280"
     inkscape:window-height="694"
     id="namedview4"
     showgrid="false"
     inkscape:zoom="0.4609375"
     inkscape:cx="-157.06274"
     inkscape:cy="133.71161"
     inkscape:window-x="0"
     inkscape:window-y="0"
     inkscape:window-maximized="1"
     inkscape:current-layer="svg2" />
  <path
     style="fill:#71c837;fill-opacity:1;fill-rule:nonzero;stroke:none"
     d="m 217.63285,406.05857 c -17.03973,-2.12642 -21.18816,-4.3758 -37.9962,-20.6026 -20.17274,-19.47513 -26.45598,-22.41572 -47.8963,-22.41572 -28.14484,0 -42.668907,-10.50354 -47.142473,-34.09256 -1.466124,-7.73085 -2.665678,-38.79466 -2.665678,-69.03069 l 0,-54.9746 26.349631,0 26.34965,0 0,52.69928 0,52.69928 11.49423,0 11.49422,0 1.30848,-71.80277 c 1.43723,-78.86803 2.07575,-82.40459 18.19162,-100.75977 16.19361,-18.44372 23.7628,-20.18665 98.30888,-22.63727 36.326,-1.19417 85.17521,-2.22776 108.55376,-2.29686 l 42.50655,-0.12564 1.88394,22.61667 c 1.03617,12.43918 1.06026,31.92185 0.0534,43.29484 l -1.83043,20.67814 -16.43504,1.76005 c -20.33824,2.17803 -68.81657,0.68151 -71.70404,-2.21352 -1.17125,-1.17431 -2.58778,-14.51383 -3.14783,-29.64334 l -1.01826,-27.50824 -44.44785,0 -44.44784,0 -0.70642,62.58041 -0.70644,62.58039 -20.42683,1.31749 -20.42681,1.31748 41.10665,51.38181 c 22.60865,28.25998 42.42176,51.38179 44.02914,51.38179 1.60738,0 22.33471,-23.12181 46.06075,-51.38179 l 43.13824,-51.38181 -18.76241,-0.77639 c -17.54223,-0.72591 -18.93451,-1.22896 -21.40819,-7.73527 -1.45517,-3.82736 -2.29498,-12.96385 -1.86627,-20.3033 l 0.77948,-13.34447 47.07959,-0.7208 47.07961,-0.7208 -1.81736,56.05505 c -2.24625,69.28353 -4.32669,84.05841 -13.53649,96.13306 -9.34456,12.25138 -27.56202,23.50653 -43.62228,26.95084 -12.0148,2.5767 -134.75952,3.39228 -153.75647,1.02163 l 0,0 z"
     id="path3005"
     inkscape:connector-curvature="0"
     clip-path="url(#clipPath4137)"
     transform="matrix(1.4669815,0,0,1.7286911,-118.53201,-192.78114)" />
</svg>
