<?xml version="1.0" encoding="UTF-8" standalone="no"?>
<svg
   xmlns:dc="http://purl.org/dc/elements/1.1/"
   xmlns:cc="http://creativecommons.org/ns#"
   xmlns:rdf="http://www.w3.org/1999/02/22-rdf-syntax-ns#"
   xmlns:svg="http://www.w3.org/2000/svg"
   xmlns="http://www.w3.org/2000/svg"
   xmlns:sodipodi="http://sodipodi.sourceforge.net/DTD/sodipodi-0.dtd"
   xmlns:inkscape="http://www.inkscape.org/namespaces/inkscape"
   viewBox="0 0 48 48"
   id="svg2"
   version="1.1"
   inkscape:version="0.91 r13725"
   sodipodi:docname="visualvm.svg">
  <metadata
     id="metadata47">
    <rdf:RDF>
      <cc:Work
         rdf:about="">
        <dc:format>image/svg+xml</dc:format>
        <dc:type
           rdf:resource="http://purl.org/dc/dcmitype/StillImage" />
        <dc:title></dc:title>
      </cc:Work>
    </rdf:RDF>
  </metadata>
  <sodipodi:namedview
     pagecolor="#ffffff"
     bordercolor="#666666"
     borderopacity="1"
     objecttolerance="10"
     gridtolerance="10"
     guidetolerance="10"
     inkscape:pageopacity="0"
     inkscape:pageshadow="2"
     inkscape:window-width="1280"
     inkscape:window-height="694"
     id="namedview45"
     showgrid="false"
     inkscape:zoom="4.9166667"
     inkscape:cx="-9.1525424"
     inkscape:cy="24"
     inkscape:window-x="0"
     inkscape:window-y="0"
     inkscape:window-maximized="1"
     inkscape:current-layer="svg2" />
  <defs
     id="defs4">
    <clipPath
       id="clipPath6">
      <path
         transform="matrix(15.33333 0 0 11.5 415-125.5)"
         d="m-24 13c0 1.105-.672 2-1.5 2-.828 0-1.5-.895-1.5-2 0-1.105.672-2 1.5-2 .828 0 1.5.895 1.5 2"
         fill="#1890d0"
         id="path8" />
    </clipPath>
    <clipPath
       id="1">
      <path
         transform="matrix(15.33333 0 0 11.5 415-125.5)"
         d="m-24 13c0 1.105-.672 2-1.5 2-.828 0-1.5-.895-1.5-2 0-1.105.672-2 1.5-2 .828 0 1.5.895 1.5 2"
         fill="#1890d0"
         id="path11" />
    </clipPath>
    <clipPath
       id="clipPath13">
      <path
         d="m69.63 12.145h-.052c-22.727-.292-46.47 4.077-46.709 4.122-2.424.451-4.946 2.974-5.397 5.397-.044.237-4.414 23.983-4.122 46.71-.292 22.777 4.078 46.523 4.122 46.761.451 2.423 2.974 4.945 5.398 5.398.237.044 23.982 4.413 46.709 4.121 22.779.292 46.524-4.077 46.761-4.121 2.423-.452 4.946-2.976 5.398-5.399.044-.236 4.413-23.981 4.121-46.709.292-22.777-4.077-46.523-4.121-46.761-.453-2.423-2.976-4.946-5.398-5.397-.238-.045-23.984-4.414-46.71-4.122"
         id="path15" />
    </clipPath>
    <clipPath
       id="clipPath17">
      <path
         transform="matrix(15.33333 0 0 11.5 415-125.5)"
         d="m-24 13c0 1.105-.672 2-1.5 2-.828 0-1.5-.895-1.5-2 0-1.105.672-2 1.5-2 .828 0 1.5.895 1.5 2"
         fill="#1890d0"
         id="path19" />
    </clipPath>
    <clipPath
       id="clipPath21">
      <path
         transform="matrix(15.33333 0 0 11.5 415-125.5)"
         d="m-24 13c0 1.105-.672 2-1.5 2-.828 0-1.5-.895-1.5-2 0-1.105.672-2 1.5-2 .828 0 1.5.895 1.5 2"
         fill="#1890d0"
         id="path23" />
    </clipPath>
    <linearGradient
       id="0"
       x1="-10.767"
       y1="4.675"
       x2="-11.233"
       y2="-22.851"
       gradientUnits="userSpaceOnUse"
       gradientTransform="matrix(1.77384 0 0 1.71427 42.46 39.38)">
      <stop
         stop-color="#e3e3e3"
         id="stop26" />
      <stop
         offset="1"
         stop-color="#fcf9f9"
         id="stop28" />
    </linearGradient>
    <linearGradient
       id="2"
       x1="23.262"
       y1="46"
       x2="22.869"
       y2=".558"
       gradientUnits="userSpaceOnUse">
      <stop
         stop-color="#ff433a"
         id="stop31" />
      <stop
         stop-color="#ff9436"
         offset="1"
         id="stop33" />
    </linearGradient>
  </defs>
  <g
     transform="matrix(1.96859,0,0,1.8083244,-23.241294,-19.400439)"
     id="g39"
     style="fill:#ff6600">
    <g
       clip-path="url(#1)"
       id="g41"
       style="fill:#ff6600">
      <path
         d="m 19.527,7 c -1.578,0 -2.85,1.286 -2.85,2.875 0,1.109 0.628,2.059 1.539,2.539 l -0.918,6.555 c -0.144,-0.007 -0.286,-0.021 -0.432,-0.021 -4.735,0 -8.563,3.862 -8.563,8.629 0,4.767 3.838,8.633 8.563,8.633 2.169,0 4.141,-0.818 5.648,-2.156 l 0.871,3.459 c -0.489,0.347 -0.809,0.92 -0.809,1.572 0,1.058 0.846,1.916 1.898,1.916 1.053,0 1.9,-0.858 1.9,-1.916 0,-1.063 -0.848,-1.92 -1.9,-1.92 -0.093,0 -0.182,0.014 -0.271,0.027 L 23.23,33.337 c 1.361,-1.529 2.195,-3.543 2.195,-5.76 0,-0.05 -0.007,-0.099 -0.008,-0.148 l 5.68,-4.711 c 0.864,1.198 2.257,1.982 3.84,1.982 2.631,0 4.756,-2.146 4.756,-4.797 0,-2.645 -2.127,-4.791 -4.756,-4.791 -2.631,0 -4.756,2.146 -4.756,4.791 0,0.698 0.155,1.357 0.42,1.955 l -5.287,4.385 C 25.047,24.508 24.27,22.948 23.138,21.718 l 0.615,-1.672 c 0.298,0.136 0.626,0.217 0.973,0.217 1.312,0 2.375,-1.073 2.375,-2.396 0,-1.323 -1.067,-2.395 -2.375,-2.395 -1.317,0 -2.381,1.071 -2.381,2.395 0,0.592 0.223,1.129 0.578,1.547 l -0.568,1.545 c -1.15,-0.97 -2.558,-1.632 -4.104,-1.887 l 0.889,-6.357 c 0.127,0.017 0.253,0.039 0.385,0.039 1.578,0 2.855,-1.288 2.855,-2.877 0,-1.589 -1.277,-2.875 -2.855,-2.875"
         transform="matrix(0.76471,0,0,0.76471,5.645,5.647)"
         id="path43"
         style="fill:#ff6600"
         inkscape:connector-curvature="0" />
    </g>
  </g>
</svg>
