<?xml version="1.0" encoding="UTF-8" standalone="no"?>
<svg
   xmlns:dc="http://purl.org/dc/elements/1.1/"
   xmlns:cc="http://creativecommons.org/ns#"
   xmlns:rdf="http://www.w3.org/1999/02/22-rdf-syntax-ns#"
   xmlns:svg="http://www.w3.org/2000/svg"
   xmlns="http://www.w3.org/2000/svg"
   xmlns:xlink="http://www.w3.org/1999/xlink"
   xmlns:sodipodi="http://sodipodi.sourceforge.net/DTD/sodipodi-0.dtd"
   xmlns:inkscape="http://www.inkscape.org/namespaces/inkscape"
   viewBox="0 0 48 48"
   id="svg2"
   version="1.1"
   inkscape:version="0.91 r13725"
   sodipodi:docname="vstudio.svg">
  <metadata
     id="metadata50">
    <rdf:RDF>
      <cc:Work
         rdf:about="">
        <dc:format>image/svg+xml</dc:format>
        <dc:type
           rdf:resource="http://purl.org/dc/dcmitype/StillImage" />
        <dc:title></dc:title>
      </cc:Work>
    </rdf:RDF>
  </metadata>
  <sodipodi:namedview
     pagecolor="#ffffff"
     bordercolor="#666666"
     borderopacity="1"
     objecttolerance="10"
     gridtolerance="10"
     guidetolerance="10"
     inkscape:pageopacity="0"
     inkscape:pageshadow="2"
     inkscape:window-width="1280"
     inkscape:window-height="694"
     id="namedview48"
     showgrid="false"
     inkscape:zoom="4.9166667"
     inkscape:cx="-9.1525424"
     inkscape:cy="24"
     inkscape:window-x="0"
     inkscape:window-y="0"
     inkscape:window-maximized="1"
     inkscape:current-layer="svg2" />
  <defs
     id="defs4">
    <clipPath
       id="clipPath6">
      <path
         d="m-24 13c0 1.105-.672 2-1.5 2-.828 0-1.5-.895-1.5-2 0-1.105.672-2 1.5-2 .828 0 1.5.895 1.5 2"
         transform="matrix(15.33333 0 0 11.5 415-125.5)"
         fill="#1890d0"
         id="path8" />
    </clipPath>
    <clipPath
       id="clipPath10">
      <path
         fill="#1890d0"
         transform="matrix(15.33333 0 0 11.5 415-125.5)"
         d="m-24 13c0 1.105-.672 2-1.5 2-.828 0-1.5-.895-1.5-2 0-1.105.672-2 1.5-2 .828 0 1.5.895 1.5 2"
         id="path12" />
    </clipPath>
    <clipPath
       id="clipPath14">
      <path
         transform="matrix(15.33333 0 0 11.5 415-125.5)"
         d="m-24 13c0 1.105-.672 2-1.5 2-.828 0-1.5-.895-1.5-2 0-1.105.672-2 1.5-2 .828 0 1.5.895 1.5 2"
         fill="#1890d0"
         id="path16" />
    </clipPath>
    <clipPath
       id="clipPath18">
      <path
         fill="#1890d0"
         transform="matrix(15.33333 0 0 11.5 415-125.5)"
         d="m-24 13c0 1.105-.672 2-1.5 2-.828 0-1.5-.895-1.5-2 0-1.105.672-2 1.5-2 .828 0 1.5.895 1.5 2"
         id="path20" />
    </clipPath>
    <clipPath
       id="clipPath22">
      <path
         d="m-24 13c0 1.105-.672 2-1.5 2-.828 0-1.5-.895-1.5-2 0-1.105.672-2 1.5-2 .828 0 1.5.895 1.5 2"
         transform="matrix(15.33333 0 0 11.5 415-125.5)"
         fill="#1890d0"
         id="path24" />
    </clipPath>
    <clipPath
       id="clipPath26">
      <path
         d="m-24 13c0 1.105-.672 2-1.5 2-.828 0-1.5-.895-1.5-2 0-1.105.672-2 1.5-2 .828 0 1.5.895 1.5 2"
         transform="matrix(15.33333 0 0 11.5 415-125.5)"
         fill="#1890d0"
         id="path28" />
    </clipPath>
    <linearGradient
       y2="-26.429"
       x2="0"
       y1="22.369"
       gradientUnits="userSpaceOnUse"
       id="0">
      <stop
         stop-color="#d8d8d8"
         id="stop31" />
      <stop
         stop-color="#fff"
         offset="1"
         id="stop33" />
    </linearGradient>
    <linearGradient
       id="3"
       x1="158.39"
       y1="590.84"
       x2="151.42"
       y2="342.04"
       gradientUnits="userSpaceOnUse">
      <stop
         stop-color="#016ed4"
         id="stop36" />
      <stop
         stop-color="#00b1ff"
         offset="1"
         id="stop38" />
    </linearGradient>
    <linearGradient
       gradientTransform="matrix(1.4 0 0 1.39991 109.94 1027.47)"
       gradientUnits="userSpaceOnUse"
       y2="4.445"
       x2="0"
       y1="35.14"
       id="1"
       xlink:href="#0" />
    <linearGradient
       xlink:href="#0"
       id="2"
       x1="24.791"
       y1="47.32"
       x2="24.2"
       y2=".483"
       gradientUnits="userSpaceOnUse" />
  </defs>
  <path
     d="m 30.794086,31.019139 -2.023466,7.445805 c -0.02391,0.08928 -0.07489,0.167852 -0.14315,0.227436 l -6.221466,5.296817 c -0.08114,0.06823 -0.180506,0.104319 -0.282626,0.104319 -0.04453,0 -0.08593,-0.0065 -0.128988,-0.02012 -0.143151,-0.04511 -0.253555,-0.159768 -0.29514,-0.306004 l -2.136994,-7.518171 c -1.557206,0.06429 -2.931516,-0.300555 -4.062759,-1.095829 l -2.831784,2.381311 c -0.179586,0.150184 -0.441054,0.134959 -0.601871,-0.03778 L 9.9632558,35.23196 c -0.081145,-0.08759 -0.1242024,-0.205632 -0.1208942,-0.327808 0,-0.121241 0.055746,-0.23627 0.1431493,-0.318223 L 12.788962,31.954438 C 12.549576,31.286039 12.1203,29.620681 12.575337,27.086742 L 5.36983,24.393786 c -0.1400255,-0.05225 -0.2449049,-0.17349 -0.2785776,-0.32217 -0.034949,-0.148679 0,-0.304501 0.1113187,-0.4154 l 5.5789319,-5.9998 c 0.06532,-0.06993 0.1496,-0.11654 0.242514,-0.134207 l 7.348476,-1.34488 C 19.755451,14.540918 21.36436,12.884958 23.156169,11.252681 33.473145,1.8546844 41.539777,0.45228733 45.427734,0.45228733 c 1.280099,0 1.985746,0.15901728 2.01537,0.16540805 0.174987,0.0402242 0.308387,0.18476831 0.339116,0.36558938 0.07801,0.46765364 1.75648,11.60901324 -12.407235,26.10815624 -0.01913,0.01861 -1.91748,1.902381 -4.580353,3.929381 z m -0.669582,-8.104995 c 2.464519,0 4.462041,-2.044669 4.462041,-4.567329 0,-2.522661 -1.997339,-4.56733 -4.462041,-4.56733 -2.464334,0 -4.462041,2.044669 -4.462041,4.56733 0,2.52266 1.997522,4.567329 4.462041,4.567329 M 13.330669,39.251948 c 0.0955,-0.09642 0.234603,-0.134958 0.365797,-0.102063 0.130451,0.03308 0.236257,0.131762 0.278577,0.261834 l 1.014954,3.085799 c 0.04931,0.14774 0.01596,0.310893 -0.100283,0.418596 l -4.813485,4.708489 c -0.07324,0.07162 -0.1702012,0.111652 -0.2715869,0.111652 l -4.0572378,0 c -0.160081,0 -0.3036027,-0.09962 -0.3641376,-0.250742 -0.058876,-0.151876 -0.023914,-0.325366 0.090708,-0.439461 l 7.8555835,-7.794477 m -5.3746894,-2.51627 c 0.074885,-0.0795 0.1773776,-0.246608 0.2840978,-0.246608 l 0.015786,0 c 0.1113187,0 0.2143622,0.175182 0.2864917,0.261081 l 1.7447039,2.188461 c 0.133776,0.158265 0.125679,0.394536 -0.01579,0.543968 l -7.7759127,8.135068 c -0.073239,0.07706 -0.1749837,0.120488 -0.2800498,0.120488 l -1.28561977,0 -0.39247577,0 c -0.21656982,0 -0.39247552,-0.179881 -0.39247552,-0.401678 l 0,-1.923245 c 0,-0.102815 0.0397447,-0.263525 0.10819367,-0.338146 L 7.9613178,36.736618 Z M 0.25550857,37.72512 5.8741837,32.119102 c 0.1304512,-0.13101 0.3319408,-0.151123 0.4835584,-0.05131 L 8.65813,33.558909 c 0.1019287,0.06579 0.1670696,0.17443 0.1795858,0.295666 0.015959,0.12124 -0.028702,0.242661 -0.1146219,0.328561 L 0.80365757,42.22347 c -0.0748896,0.07632 -0.17590545,0.11654 -0.27710651,0.11654 -0.0509693,0 -0.10193616,-0.0098 -0.15124956,-0.03139 C 0.23049217,42.24678 0.13517933,42.100544 0.13517933,41.938332 l 0,-3.926186 c 0,-0.107704 0.0430553,-0.212023 0.11776178,-0.286832 z"
     id="path46"
     style="fill:#2a7fff"
     inkscape:connector-curvature="0" />
</svg>
