<?xml version="1.0" encoding="UTF-8" standalone="no"?>
<svg
   xmlns:dc="http://purl.org/dc/elements/1.1/"
   xmlns:cc="http://creativecommons.org/ns#"
   xmlns:rdf="http://www.w3.org/1999/02/22-rdf-syntax-ns#"
   xmlns:svg="http://www.w3.org/2000/svg"
   xmlns="http://www.w3.org/2000/svg"
   xmlns:sodipodi="http://sodipodi.sourceforge.net/DTD/sodipodi-0.dtd"
   xmlns:inkscape="http://www.inkscape.org/namespaces/inkscape"
   viewBox="0 0 48 48"
   id="svg2"
   version="1.1"
   inkscape:version="0.91 r13725"
   sodipodi:docname="web-google-apps-script.svg">
  <metadata
     id="metadata29">
    <rdf:RDF>
      <cc:Work
         rdf:about="">
        <dc:format>image/svg+xml</dc:format>
        <dc:type
           rdf:resource="http://purl.org/dc/dcmitype/StillImage" />
        <dc:title></dc:title>
      </cc:Work>
    </rdf:RDF>
  </metadata>
  <sodipodi:namedview
     pagecolor="#ffffff"
     bordercolor="#666666"
     borderopacity="1"
     objecttolerance="10"
     gridtolerance="10"
     guidetolerance="10"
     inkscape:pageopacity="0"
     inkscape:pageshadow="2"
     inkscape:window-width="1280"
     inkscape:window-height="694"
     id="namedview27"
     showgrid="false"
     inkscape:zoom="4.9166667"
     inkscape:cx="-9.1525424"
     inkscape:cy="24"
     inkscape:window-x="0"
     inkscape:window-y="0"
     inkscape:window-maximized="1"
     inkscape:current-layer="svg2" />
  <defs
     id="defs4">
    <linearGradient
       gradientUnits="userSpaceOnUse"
       y2="7.091"
       x2="22.717"
       y1="34.836"
       x1="23.06"
       id="0">
      <stop
         stop-color="#276ad6"
         id="stop7" />
      <stop
         offset="1"
         stop-color="#41aaff"
         id="stop9" />
    </linearGradient>
  </defs>
  <path
     style="fill:#37abc8"
     inkscape:connector-curvature="0"
     id="path25"
     d="m 0.45314739,23.979478 c 0,13.112928 10.63126561,23.745744 23.74574661,23.745744 13.11448,0 23.745744,-10.632816 23.745744,-23.745744 0,-13.112929 -10.632817,-23.74574602 -23.745744,-23.74574602 -13.11293,0 -23.74574661,10.63126602 -23.74574661,23.74574602 m 12.28570761,0 c 0,-0.884955 0.719047,-1.600121 1.603848,-1.600121 l 16.971222,0 -6.608922,-6.608922 c -0.625458,-0.627012 -0.622356,-1.640165 0.004,-2.268728 0.625461,-0.627012 1.637991,-0.627012 2.264848,0 l 9.071494,9.066838 c 0.383037,0.384743 0.50161,0.913668 0.413456,1.410777 0.08816,0.498661 -0.02887,1.025878 -0.413611,1.410777 l -9.071494,9.066839 c -0.62546,0.627012 -1.637991,0.627012 -2.264848,0 -0.627012,-0.625459 -0.627012,-1.637991 0,-2.264847 l 6.605041,-6.608922 -16.971223,0 c -0.884955,0 -1.603847,-0.719046 -1.603847,-1.603847" />
</svg>
