<?xml version="1.0" encoding="UTF-8" standalone="no"?>
<svg
   xmlns:dc="http://purl.org/dc/elements/1.1/"
   xmlns:cc="http://creativecommons.org/ns#"
   xmlns:rdf="http://www.w3.org/1999/02/22-rdf-syntax-ns#"
   xmlns:svg="http://www.w3.org/2000/svg"
   xmlns="http://www.w3.org/2000/svg"
   xmlns:sodipodi="http://sodipodi.sourceforge.net/DTD/sodipodi-0.dtd"
   xmlns:inkscape="http://www.inkscape.org/namespaces/inkscape"
   viewBox="0 0 48 48"
   id="svg2"
   version="1.1"
   inkscape:version="0.91 r13725"
   sodipodi:docname="x-plane.svg">
  <metadata
     id="metadata30">
    <rdf:RDF>
      <cc:Work
         rdf:about="">
        <dc:format>image/svg+xml</dc:format>
        <dc:type
           rdf:resource="http://purl.org/dc/dcmitype/StillImage" />
        <dc:title></dc:title>
      </cc:Work>
    </rdf:RDF>
  </metadata>
  <sodipodi:namedview
     pagecolor="#ffffff"
     bordercolor="#666666"
     borderopacity="1"
     objecttolerance="10"
     gridtolerance="10"
     guidetolerance="10"
     inkscape:pageopacity="0"
     inkscape:pageshadow="2"
     inkscape:window-width="1280"
     inkscape:window-height="694"
     id="namedview28"
     showgrid="false"
     inkscape:zoom="4.9166667"
     inkscape:cx="-9.1525424"
     inkscape:cy="24"
     inkscape:window-x="0"
     inkscape:window-y="0"
     inkscape:window-maximized="1"
     inkscape:current-layer="svg2" />
  <defs
     id="defs4">
    <linearGradient
       id="0"
       x1="74.28"
       y1="7.138"
       x2="75.02"
       y2="-21.54"
       gradientUnits="userSpaceOnUse"
       gradientTransform="matrix(0.99999,0,0,0.99999,-53.36985,30.88195)">
      <stop
         stop-color="#016ed4"
         id="stop7" />
      <stop
         offset="1"
         stop-color="#00b1ff"
         id="stop9" />
    </linearGradient>
    <linearGradient
       y1="17.12"
       x2="0"
       y2="-27.875"
       gradientUnits="userSpaceOnUse"
       id="linearGradient11">
      <stop
         stop-color="#e7f0f4"
         id="stop13" />
      <stop
         offset="1"
         stop-color="#f4faff"
         id="stop15" />
    </linearGradient>
    <linearGradient
       gradientTransform="matrix(1.7142729,0,0,1.7153928,-662.68376,-888.23886)"
       gradientUnits="userSpaceOnUse"
       y2="519.56"
       x2="0"
       y1="545.79"
       id="1">
      <stop
         stop-color="#e7f0f4"
         id="stop18" />
      <stop
         offset="1"
         stop-color="#f6ffff"
         id="stop20" />
    </linearGradient>
  </defs>
  <path
     inkscape:connector-curvature="0"
     style="fill:#2a7fff"
     id="path26"
     d="M 44.958958,9.9821597 C 46.917269,7.3829966 48.08987,4.6824347 48.096688,2.7541855 48.093279,2.1288996 47.967155,1.6421902 47.726841,1.2788478 47.701275,1.2349088 47.633099,1.1182996 47.510388,1.0033826 47.389377,0.88339402 47.280299,0.81917644 47.256437,0.80734657 46.871251,0.55216289 46.376986,0.43048598 45.748076,0.43048598 43.808512,0.43386598 41.084941,1.5948707 38.461929,3.541708 36.341701,5.1150647 34.221476,7.3306073 31.286564,10.397891 30.78889,10.9184 30.263946,11.465947 29.710028,12.038846 l -5.685753,-1.689964 0.0017,-0.01521 c 0.236906,-0.236594 0.371551,-0.5627588 0.368142,-0.8821617 0.0034,-0.3379928 -0.134646,-0.6641556 -0.371551,-0.8973696 L 22.996544,7.5350932 c -0.236905,-0.2365956 -0.564142,-0.3717924 -0.90331,-0.3717924 -0.342577,0 -0.661293,0.1301285 -0.899904,0.3701024 L 19.6577,9.0577505 18.844719,8.8177748 c 0.175549,-0.2213857 0.272697,-0.4968491 0.269288,-0.7672426 0.0034,-0.3430627 -0.129532,-0.6624656 -0.371551,-0.8990613 l -1.031139,-1.022428 c -0.235201,-0.2349056 -0.560734,-0.3684124 -0.90331,-0.3684124 -0.340872,0 -0.659589,0.1318184 -0.894791,0.3701024 L 14.503707,7.5283333 8.7225114,5.81133 C 8.5929781,5.77415 8.4566317,5.75387 8.310057,5.75387 7.8993041,5.75893 7.5192312,5.9093483 7.2414206,6.1831218 L 5.2098215,8.1992482 C 4.9797324,8.4273922 4.8502004,8.736657 4.8519055,9.0307103 4.845085,9.4633401 5.0854037,9.8621722 5.4722922,10.066659 l 12.1555128,6.732814 c 0.05966,0.0338 0.231793,0.158858 0.294853,0.221386 l 3.46497,3.435696 c -3.241697,3.379926 -6.128886,6.665216 -8.38035,9.517875 -0.209636,0.265323 -0.409048,0.523889 -0.605048,0.779073 L 2.9975587,29.90683 C 2.9515448,29.90173 2.9004033,29.8967 2.8356428,29.8967 2.4044382,29.9051 1.9834618,30.074146 1.669859,30.374961 L 0.72223364,31.31458 c -0.23349768,0.226456 -0.36643787,0.534029 -0.36302921,0.829772 -0.00682,0.45291 0.26928928,0.870331 0.68344927,1.054538 l 6.616333,3.116292 c 0.056245,0.02872 0.2045245,0.131818 0.2539511,0.180826 l 0.5488056,0.540788 c -0.1721405,0.47995 -0.259064,0.895682 -0.2641781,1.260715 -1.693e-4,0.488398 0.156803,0.907508 0.4618834,1.208322 l 0.02386,0.02028 0.00682,0.0051 c 0.3119009,0.299126 0.7158333,0.452913 1.216915,0.452913 0.3596213,-0.0051 0.7754853,-0.09126 1.2612283,-0.260256 l 0.557328,0.552619 c 0.0426,0.04563 0.146576,0.189275 0.173844,0.246733 l 3.136026,6.54523 c 0.190889,0.417421 0.60505,0.687816 1.055001,0.687816 l 0.0068,0 c 0.311897,0 0.608456,-0.123368 0.836841,-0.349823 l 0.969782,-0.96497 c 0.288039,-0.300813 0.456771,-0.714853 0.463587,-1.152555 0,-0.05408 -1.7e-4,-0.09464 -0.0034,-0.116608 l -0.85559,-9.359018 c 0.257358,-0.192657 0.518126,-0.390382 0.785711,-0.596558 2.882076,-2.234131 6.190243,-5.10369 9.597263,-8.309551 l 3.468376,3.442457 c 0.05625,0.05408 0.18748,0.223074 0.224977,0.294053 l 6.778247,12.030851 c 0.206229,0.388692 0.605051,0.628666 1.04648,0.628666 0.315306,0 0.615275,-0.123368 0.845363,-0.353202 l 2.046939,-2.027956 c 0.265882,-0.275464 0.414161,-0.648946 0.419274,-1.057918 0,-0.136888 -0.01875,-0.270393 -0.05454,-0.39545 l -1.731633,-5.732357 1.409509,-1.39929 c 0.236907,-0.233216 0.371551,-0.557688 0.371551,-0.892302 0,-0.334613 -0.131237,-0.650635 -0.369847,-0.890611 l -1.032845,-1.024117 c -0.236907,-0.234905 -0.562439,-0.368411 -0.899904,-0.368411 -0.284627,0 -0.564142,0.09464 -0.780597,0.265323 l -0.24202,-0.802732 1.537335,-1.524347 c 0.236907,-0.234906 0.371551,-0.559379 0.371551,-0.893992 0,-0.336303 -0.131237,-0.652326 -0.371551,-0.888921 L 39.90041,24.29784 c -0.236906,-0.238285 -0.565847,-0.373481 -0.905016,-0.373481 -0.339168,0 -0.669814,0.136889 -0.901608,0.371791 l -0.01023,0.01013 -1.702658,-5.636028 c 0.588004,-0.555998 1.147035,-1.084957 1.680501,-1.583496 3.083192,-2.899978 5.309089,-4.995532 6.885624,-7.0927772" />
</svg>
