<?xml version="1.0" encoding="UTF-8" standalone="no"?>
<svg
   xmlns:dc="http://purl.org/dc/elements/1.1/"
   xmlns:cc="http://creativecommons.org/ns#"
   xmlns:rdf="http://www.w3.org/1999/02/22-rdf-syntax-ns#"
   xmlns:svg="http://www.w3.org/2000/svg"
   xmlns="http://www.w3.org/2000/svg"
   xmlns:sodipodi="http://sodipodi.sourceforge.net/DTD/sodipodi-0.dtd"
   xmlns:inkscape="http://www.inkscape.org/namespaces/inkscape"
   viewBox="0 0 48 48"
   id="svg2"
   version="1.1"
   inkscape:version="0.91 r13725"
   sodipodi:docname="xonotic.svg">
  <metadata
     id="metadata31">
    <rdf:RDF>
      <cc:Work
         rdf:about="">
        <dc:format>image/svg+xml</dc:format>
        <dc:type
           rdf:resource="http://purl.org/dc/dcmitype/StillImage" />
        <dc:title></dc:title>
      </cc:Work>
    </rdf:RDF>
  </metadata>
  <sodipodi:namedview
     pagecolor="#ffffff"
     bordercolor="#666666"
     borderopacity="1"
     objecttolerance="10"
     gridtolerance="10"
     guidetolerance="10"
     inkscape:pageopacity="0"
     inkscape:pageshadow="2"
     inkscape:window-width="1280"
     inkscape:window-height="694"
     id="namedview29"
     showgrid="false"
     inkscape:zoom="4.9166667"
     inkscape:cx="-9.1525424"
     inkscape:cy="24"
     inkscape:window-x="0"
     inkscape:window-y="0"
     inkscape:window-maximized="1"
     inkscape:current-layer="svg2" />
  <defs
     id="defs4">
    <linearGradient
       id="0"
       x1="29.652"
       y1="6.598"
       x2="26.28"
       y2="-32.11"
       gradientUnits="userSpaceOnUse"
       gradientTransform="matrix(0.99999,0,0,0.99999,-3.361,35.882)">
      <stop
         stop-color="#016ed4"
         id="stop7" />
      <stop
         offset="1"
         stop-color="#00b1ff"
         id="stop9" />
    </linearGradient>
    <linearGradient
       gradientTransform="matrix(2.6570968,0,0,2.6605568,-1654.199,-2219.1405)"
       gradientUnits="userSpaceOnUse"
       y2="844.95"
       x2="0"
       y1="867.5"
       id="1">
      <stop
         stop-color="#2a2c2f"
         id="stop12" />
      <stop
         offset="1"
         stop-color="#4d5153"
         id="stop14" />
    </linearGradient>
    <linearGradient
       id="2"
       x1="27.967"
       y1="2.33"
       x2="27.29"
       y2="-20.21"
       gradientUnits="userSpaceOnUse"
       gradientTransform="matrix(0.99999,0,0,0.99999,-3.361,35.882)">
      <stop
         stop-color="#ff9300"
         id="stop17" />
      <stop
         offset="1"
         stop-color="#ffd702"
         id="stop19" />
    </linearGradient>
  </defs>
  <g
     id="g4162"
     transform="matrix(1.4180655,0,0,1.4766848,-9.9378231,-11.341418)">
    <path
       d="m 28.107685,14.450214 c -5.149948,1.372987 -9.110909,5.975941 -13.673863,9.162909 1.944981,-0.795992 4.388956,-2.04598 5.385946,-2.132979 l -3.216968,3.567964 2.482976,-1.083989 c -1.109989,3.299967 -2.425976,6.381936 -5.628944,7.588924 l 10.559894,8.122919 11.05989,-8.681913 c -4.318957,0.117999 -8.156919,-0.388996 -8.567915,-5.349947 -0.104999,-0.593994 0.048,-4.721952 5.98094,-6.608934 -0.598994,-0.410995 -2.604973,-0.134998 -4.019959,-0.139998 -0.062,-0.559995 0.283997,-2.98097 4.860951,-3.251968 -1.148988,-1.180988 -2.595974,-1.271987 -4.650953,-0.629993 -0.217998,-0.209998 -0.345997,-0.187998 -0.559995,-0.559995"
       id="path25"
       style="fill:#ffcc00"
       inkscape:connector-curvature="0" />
    <path
       d="M 16.952797,8.0112787 C 11.212854,10.673252 7.2298941,16.478194 7.2298941,23.224127 c 0,9.266907 7.5149249,16.781832 16.7868319,16.781832 9.266908,0 16.781832,-7.514925 16.781832,-16.781832 0,-6.661934 -3.886961,-12.410876 -9.511904,-15.1098493 l -0.174999,0.1749982 c 4.441956,2.4919751 7.452926,7.2349281 7.452926,12.6908731 0,7.326927 -5.407946,13.359866 -12.449876,14.373856 L 24.016726,38.88997 21.918747,35.354005 C 14.878818,34.340015 9.4688717,28.304076 9.4688717,20.980149 c 0,-5.512945 3.0729693,-10.294897 7.5889243,-12.7648723 -0.03,-0.065999 -0.074,-0.1399986 -0.104999,-0.2099979"
       id="path27"
       style="fill:#0055d4"
       inkscape:connector-curvature="0" />
  </g>
</svg>
