<?xml version="1.0" encoding="UTF-8" standalone="no"?>
<svg
   xmlns:dc="http://purl.org/dc/elements/1.1/"
   xmlns:cc="http://creativecommons.org/ns#"
   xmlns:rdf="http://www.w3.org/1999/02/22-rdf-syntax-ns#"
   xmlns:svg="http://www.w3.org/2000/svg"
   xmlns="http://www.w3.org/2000/svg"
   xmlns:sodipodi="http://sodipodi.sourceforge.net/DTD/sodipodi-0.dtd"
   xmlns:inkscape="http://www.inkscape.org/namespaces/inkscape"
   viewBox="0 0 48 48"
   id="svg2"
   version="1.1"
   inkscape:version="0.91 r13725"
   sodipodi:docname="zekr.svg">
  <metadata
     id="metadata19">
    <rdf:RDF>
      <cc:Work
         rdf:about="">
        <dc:format>image/svg+xml</dc:format>
        <dc:type
           rdf:resource="http://purl.org/dc/dcmitype/StillImage" />
        <dc:title></dc:title>
      </cc:Work>
    </rdf:RDF>
  </metadata>
  <sodipodi:namedview
     pagecolor="#ffffff"
     bordercolor="#666666"
     borderopacity="1"
     objecttolerance="10"
     gridtolerance="10"
     guidetolerance="10"
     inkscape:pageopacity="0"
     inkscape:pageshadow="2"
     inkscape:window-width="1280"
     inkscape:window-height="694"
     id="namedview17"
     showgrid="false"
     inkscape:zoom="4.9166667"
     inkscape:cx="-9.1525424"
     inkscape:cy="24"
     inkscape:window-x="0"
     inkscape:window-y="0"
     inkscape:window-maximized="1"
     inkscape:current-layer="svg2" />
  <defs
     id="defs4">
    <linearGradient
       id="0"
       x1="-12.713"
       y1="50.752"
       x2="-14.344"
       y2="5.074"
       gradientUnits="userSpaceOnUse"
       gradientTransform="matrix(0.99999,0,0,0.99999,41.629,-4.118)">
      <stop
         stop-color="#00a661"
         id="stop7" />
      <stop
         offset="1"
         stop-color="#37ce97"
         id="stop9" />
    </linearGradient>
  </defs>
  <path
     style="fill:#37c871;fill-opacity:0.85500004"
     inkscape:connector-curvature="0"
     id="path15"
     d="m 23.009852,47.522902 c -1.375722,-0.562279 -2.1005,-2.676144 -1.588184,-4.639561 0.289311,-1.091125 0.03164,-1.264368 -0.86039,-0.620027 -0.289308,0.205155 -1.485718,0.718805 -2.683636,1.139754 -2.97897,1.059212 -5.748496,1.095685 -7.437635,0.110939 -2.1306358,-1.256769 -2.9126703,-3.425343 -2.3521362,-6.628812 0.1657493,-0.928522 0.3736891,-1.907189 0.4671129,-2.174654 0.1039644,-0.259862 -0.3571159,0.03192 -1.0140865,0.6565 -1.2777784,1.220298 -2.1261143,1.57894 -3.1326679,1.312997 C 2.571423,36.196783 2.1178725,32.511576 3.4875655,29.166776 3.942624,28.051335 3.942624,28.002705 3.4755076,27.402435 2.0681427,25.575787 2.2836171,23.151909 4.1580943,19.708332 c 1.2822974,-2.346377 1.3440774,-2.446674 1.5474982,-2.223281 0.079861,0.08054 -0.141642,0.630664 -0.4972491,1.220296 -0.7609411,1.282603 -1.8307797,3.882764 -2.0688557,5.121298 -0.2893081,1.355549 0.2576655,2.472508 1.1918899,2.472508 0.4188946,0 1.0984686,-0.191479 1.5233897,-0.42247 0.7609411,-0.414871 3.408413,-2.774921 6.1282127,-5.475382 l 1.407365,-1.393538 -0.896554,-0.787191 C 12.001062,17.787465 10.441508,16.609718 9.0356522,15.600655 6.2164021,13.582529 5.8291513,12.991376 6.2284564,11.3015 6.4499591,10.359304 6.6398181,10.199738 8.9678445,8.955126 L 11.461629,7.6299689 10.926708,7.0296967 c -0.405333,-0.4513428 -0.492729,-0.7932681 -0.361636,-1.407216 0.09342,-0.445264 0.305884,-0.9285203 0.473141,-1.0789679 0.982442,-0.8540571 11.053989,-4.58941251 11.399049,-4.22469102 0.283282,0.29177723 -0.305883,0.59419213 -3.144721,1.61693202 -3.144722,1.1336767 -7.842968,3.072779 -8.157892,3.3691151 -0.109999,0.1048582 0.006,0.6002708 0.257664,1.107842 0.251638,0.501491 0.473141,0.9482748 0.492729,0.9969048 0.02562,0.042552 1.571607,-0.4710988 3.464167,-1.1397554 4.446608,-1.5789393 10.195104,-3.1153287 11.656713,-3.1153287 0.896555,0 1.301889,0.1550066 1.811191,0.688411 0.553001,0.5881148 0.625328,0.8358209 0.479167,1.6853175 -0.209446,1.1534326 -1.069838,2.4284372 -2.548023,3.7794263 -0.577109,0.5197287 -1.842834,1.8023336 -2.813221,2.8493876 l -1.769,1.901111 0.656971,-1.344911 c 0.786557,-1.616931 1.817218,-2.8068351 3.967442,-4.5590187 0.878472,-0.718805 1.603249,-1.4680036 1.603249,-1.67316 0,-0.7993483 -1.002031,-1.43609 -2.248167,-1.43609 -2.535967,0 -10.023327,2.3175 -15.575939,4.8249611 -4.0653845,1.8327256 -4.1467516,1.9330236 -2.4139158,2.8493856 1.6333879,0.873812 6.5893008,4.051449 7.2176408,4.633484 0.399306,0.370799 0.571084,0.354083 1.762972,-0.167163 0.730805,-0.316094 1.491746,-0.575959 1.701195,-0.575959 0.28328,0 0.345059,-0.185398 0.2215,-0.737041 C 18.9731,15.463882 18.73954,14.100735 18.543654,12.843965 18.347769,11.587196 18.118732,10.254443 18.034351,9.8897223 17.95449,9.5189215 17.972571,8.7940379 18.08257,8.2788681 l 0.195886,-0.9361186 0.9508,1.6047754 c 1.014085,1.7035531 1.277778,2.6320741 0.565054,2.0135671 -0.625328,-0.539485 -0.744365,-0.1003 -0.441495,1.621491 0.418893,2.335737 0.804639,3.010472 2.18036,3.771827 1.307915,0.718805 1.591195,1.182306 1.333531,2.229359 -0.153695,0.630666 -0.183833,0.644342 -0.90861,0.272023 -0.878472,-0.458941 -3.280334,-0.551641 -3.962922,-0.155007 -0.418893,0.247708 -0.331498,0.376879 0.766969,1.182306 0.682588,0.501493 2.635419,1.949741 4.342639,3.233865 3.043764,2.291667 3.108558,2.323578 3.192939,1.629089 0.0422,-0.390558 -0.0422,-3.35088 -0.195887,-6.584743 -0.239582,-4.929819 -0.2215,-5.982952 0.07986,-6.5969 l 0.357115,-0.712728 0.43547,1.065291 c 1.497774,3.711042 1.70722,4.88119 0.631354,3.600107 l -0.534918,-0.644342 0.147669,4.168462 c 0.08589,2.291667 0.227528,4.929819 0.313418,5.865938 0.153695,1.629089 0.195886,1.715711 1.136137,2.217202 1.166275,0.626105 1.990502,0.662578 3.186912,0.136772 0.866418,-0.376878 0.890527,-0.433106 0.890527,-1.895032 0,-0.825183 -0.16575,-3.220187 -0.367662,-5.326453 -0.20342,-2.100188 -0.497249,-5.76108 -0.656971,-8.127212 -0.159723,-2.3661296 -0.393278,-5.3705227 -0.51533,-6.6713635 -0.153695,-1.6108526 -0.141642,-2.6016795 0.04822,-3.0970931 0.269719,-0.7051281 0.299856,-0.668656 1.259697,1.430012 0.546973,1.1823052 0.988469,2.3919647 0.988469,2.6883025 -0.006,0.4650184 -0.08588,0.4331064 -0.65697,-0.2720228 l -0.650944,-0.8054255 0.147669,1.7476231 c 0.07986,0.9649928 0.441497,5.2276753 0.80464,9.4782013 0.828747,9.812527 0.625326,11.60726 -1.461611,12.750055 -0.792583,0.428548 -2.204469,0.422468 -3.51841,-0.03192 -0.515331,-0.173243 -0.583137,-0.136772 -0.461085,0.302414 0.07986,0.27962 0.215473,1.838804 0.305883,3.469413 0.177804,3.06974 -0.122053,6.447974 -0.712725,7.944852 -0.277253,0.724883 -0.319443,0.308492 -0.319443,-3.151803 0,-2.192888 -0.09944,-5.289981 -0.221502,-6.882599 l -0.21548,-2.898015 -1.749411,-1.407217 c -0.964361,-0.773513 -2.912671,-2.360051 -4.336611,-3.518043 -1.417913,-1.153431 -2.587199,-2.025722 -2.587199,-1.945181 0,0.08054 0.37369,0.841899 0.828748,1.685317 0.625326,1.170148 0.822719,1.852482 0.818199,2.885859 -0.01206,2.569767 -1.098467,3.771829 -4.13319,4.574216 -2.008585,0.525807 -4.30497,1.703553 -5.380835,2.762766 -1.4435277,1.413297 -1.7494102,5.235273 -0.5831363,7.223004 1.3018873,2.217204 5.2135783,2.806838 8.9248613,1.355549 3.304442,-1.293241 6.196019,-3.29465 6.196019,-4.293075 0,-0.334328 -0.473139,-1.920868 -1.044222,-3.525641 -0.834776,-2.323581 -1.014087,-3.12293 -0.872446,-3.882765 l 0.171777,-0.964993 1.124083,1.344911 c 1.240109,1.492318 1.387777,1.870718 0.620808,1.616931 -0.583136,-0.191478 -0.631355,0.04862 -0.227529,1.127599 1.313942,3.473971 1.112029,5.320375 -0.804638,7.191093 -1.33956,1.306917 -1.794616,2.41476 -1.800643,4.347783 0,1.20814 0.571082,1.995331 1.469143,1.995331 0.8182,0 2.505832,-1.443691 4.169355,-3.586429 1.836807,-2.353972 3.043765,-3.276414 5.774112,-4.490634 1.136137,-0.501491 2.148718,-0.996903 2.272276,-1.101763 0.122053,-0.104859 0.24561,-1.022739 0.277254,-2.031802 0.0678,-2.025723 0.565055,-3.332642 1.541471,-4.001298 0.47314,-0.322172 0.736832,-0.360164 1.136137,-0.130694 0.492729,0.265942 1.05025,1.741544 1.05025,2.726294 0.006,1.022739 -0.872446,3.129005 -1.571607,3.785505 l -0.754914,0.705127 0.571083,0.562281 c 0.744365,0.712725 1.327503,0.712725 2.719799,0.01216 0.699162,-0.364722 1.160247,-0.79327 1.259696,-1.202062 0.07986,-0.348005 0.03164,-2.849387 -0.129588,-5.555924 -0.251637,-4.391855 -1.228053,-20.565734 -1.344077,-22.2799239 -0.03164,-0.3708009 0.03616,-1.0850467 0.153695,-1.5789408 0.239584,-1.0911254 0.331499,-0.9725912 1.443529,1.8099307 0.846828,2.118423 0.834774,2.663987 -0.02562,1.62149 l -0.546975,-0.644339 0.153695,2.018125 c 0.07384,1.107841 0.263693,3.95115 0.41136,6.323359 0.14767,2.36613 0.325471,4.604609 0.387251,4.973889 0.325472,1.981655 0.424921,11.279013 0.122054,12.78045 -0.497248,2.545452 -2.046254,4.174541 -3.931278,4.174541 -0.676559,0 -1.565579,-0.892048 -1.83078,-1.820569 -0.232048,-0.805425 -0.509302,-0.773512 -3.009108,0.384479 -2.799661,1.300839 -4.4888,2.632073 -6.247251,4.935896 -1.928722,2.540895 -2.948836,3.171559 -4.226614,2.65183 M 37.883614,36.085842 c 0.688615,-0.607868 0.786557,-0.847976 0.656972,-1.534869 -0.232051,-1.244611 -0.860391,-1.838805 -1.529417,-1.474083 -0.792585,0.439186 -0.94628,0.779593 -0.772996,1.832726 0.337527,2.174652 0.429442,2.241517 1.646948,1.170148 M 6.2269548,34.468912 c 0.5530014,-0.384478 1.7494115,-1.455847 2.6715829,-2.384366 1.9905003,-2.001409 3.4822463,-2.843308 6.7505273,-3.791583 2.346108,-0.682334 3.501836,-1.375305 3.501836,-2.081953 0,-0.662577 -1.897079,-3.67305 -3.096503,-4.913101 l -1.234082,-1.282606 -0.718751,0.501493 c -0.393277,0.265942 -1.928721,1.679239 -3.428001,3.129005 -3.3843057,3.30225 -4.5144157,4.204936 -5.5345286,4.416171 -0.7127241,0.14285 -0.8784734,0.360162 -1.3817489,1.80993 -0.6629984,1.90719 -0.7986114,4.198857 -0.2832804,4.856874 0.5153298,0.650421 1.6153047,0.545564 2.7514412,-0.259864 M 7.2696699,31.228969 C 6.9562522,30.90072 7.0918664,29.080152 7.4971992,28.057412 c 0.2215016,-0.557719 0.4550586,-0.954354 0.5153299,-0.885968 0.06178,0.06838 -0.073838,0.594192 -0.299856,1.176226 -0.2320483,0.575956 -0.3993051,1.095684 -0.3812232,1.153433 0.025619,0.05622 0.1657493,0.354082 0.3194444,0.656497 0.2772538,0.533406 0.2953358,0.533406 0.6313557,0.04256 0.4294413,-0.613948 0.4550574,-0.390555 0.055757,0.525808 C 8.048699,31.394623 7.61323,31.599779 7.2681696,31.233537 m 4.5656464,-4.695789 c -0.424921,-0.334328 -0.804639,-0.630664 -0.854362,-0.668655 -0.159723,-0.117018 0.792582,-1.449769 1.038195,-1.449769 0.141642,0 0.577109,0.241628 0.976415,0.539483 l 0.71875,0.539485 0.503276,-0.724883 c 0.497249,-0.712728 0.515331,-0.718807 1.19189,-0.253787 0.928198,0.636744 1.050249,1.095685 0.492728,1.870718 l -0.467112,0.65042 -1.659003,-1.325154 -1.179835,1.43609 -0.760942,-0.607869 m 17.005906,20.565734 c 0.67656,-1.022741 0.750393,-1.764341 0.147669,-1.519673 -0.351087,0.142851 -0.367662,0.08054 -0.116023,-0.414872 0.61478,-1.208139 1.313943,-0.302415 0.792585,1.022741 -0.171777,0.433107 -0.553001,1.004503 -0.846831,1.276525 -0.521356,0.477177 -0.521356,0.465019 0.02562,-0.360162 m 4.520443,-1.487761 c -0.345061,-0.761364 -0.730805,-1.195992 -1.15422,-1.300849 -0.724777,-0.173243 -1.098467,-1.610853 -0.418893,-1.610853 0.399305,0 1.964885,1.721789 1.964885,2.160974 0,0.14285 0.116023,0.259865 0.257665,0.259865 0.141642,0 0.257665,-0.27962 0.257665,-0.613948 0,-0.656499 0.8845,-2.346376 1.222026,-2.346376 0.411361,0 0.828749,0.6565 0.828749,1.300841 0,0.644341 -0.01206,0.650419 -0.521359,0.167165 -0.662998,-0.630665 -0.884499,-0.390557 -1.461609,1.566781 l -0.455069,1.548547 M 5.9135371,40.061308 c 0.515331,-1.059212 0.515331,-1.661003 -0.012058,-1.661003 -0.3375251,0 -0.3571146,-0.07446 -0.099456,-0.402713 0.361636,-0.465019 0.9281979,-0.525807 1.1481919,-0.136772 0.189859,0.316093 -0.7127229,2.540893 -1.1436705,2.817473 -0.189859,0.123095 -0.1476697,-0.123094 0.099444,-0.620026 m 6.2638274,-1.053133 c -0.195886,-0.539484 -0.195886,-1.145833 0.006,-2.205045 0.153695,-0.799349 0.232048,-1.510555 0.165749,-1.578941 -0.06178,-0.0623 -0.521359,0.136772 -1.018608,0.439186 -0.688613,0.433106 -0.908608,0.477177 -0.908608,0.1854 0,-0.205156 1.062303,-1.016661 2.364192,-1.809931 2.881029,-1.747624 2.79966,-1.709632 2.603776,-1.176226 -0.0859,0.241628 -0.644918,0.730963 -1.240109,1.101762 -0.818201,0.501493 -1.15422,0.922442 -1.381749,1.703553 -0.373691,1.306919 -0.373691,2.069794 -0.006,2.79468 0.28328,0.55164 0.295335,0.55164 0.644917,0.0623 0.411359,-0.594192 0.435469,-0.428548 0.09944,0.525808 -0.325472,0.904205 -0.970389,0.87989 -1.327503,-0.04862 m 4.535511,-2.056118 c -0.688615,-0.575957 -0.730805,-0.69905 -0.455058,-1.344911 0.361635,-0.829741 0.736832,-0.873811 1.60325,-0.179321 0.540947,0.439187 0.595191,0.613948 0.373691,1.250691 -0.3315,0.984748 -0.614781,1.033378 -1.52339,0.272022 m 3.70224,-0.197561 c -0.357113,-0.682334 -0.122052,-2.508981 0.424922,-3.463334 l 0.387252,-0.676255 -0.153695,0.676255 c -0.424922,1.80993 -0.441496,2.434516 -0.116023,2.843307 0.305884,0.396634 0.367663,0.390556 0.670533,-0.04862 0.399305,-0.569877 0.429441,-0.390555 0.08588,0.551642 -0.295334,0.83582 -0.902582,0.898127 -1.29586,0.117018 m 9.777717,-0.805427 c 0.141642,-0.279618 0.387252,-0.50757 0.540947,-0.50757 0.159723,0 0.0859,-0.234029 -0.165749,-0.533405 -0.429443,-0.496933 -0.435469,-0.569876 -0.03616,-1.202062 0.565054,-0.910284 1.597222,-1.585018 2.100498,-1.387461 0.620808,0.253786 0.263692,0.847979 -0.461085,0.761357 -0.357113,-0.03648 -0.792585,0.117018 -0.976415,0.354084 -0.540947,0.682333 0.08588,1.053133 1.671057,0.984747 1.160247,-0.04862 1.37572,0.01216 1.253669,0.348006 -0.0859,0.223393 -0.399305,0.408791 -0.699161,0.414869 -0.295336,0 -1.209972,0.291778 -2.014611,0.636744 -1.344079,0.582034 -1.449555,0.594192 -1.209972,0.130694 M 44.48344,33.355006 c 0.04822,-1.709633 -0.09946,-6.330956 -0.331499,-10.271468 -0.540947,-9.148432 -0.565057,-10.450791 -0.227529,-10.807914 0.203419,-0.205156 0.540947,0.370801 1.215998,2.056117 0.956828,2.404123 1.014087,3.186753 0.141642,1.99533 l -0.485193,-0.668655 -0.006,1.078968 c 0,0.588113 0.165749,3.493728 0.37369,6.45405 0.492729,6.92515 0.485195,9.905228 -0.006,11.645252 -0.215475,0.761357 -0.47314,1.436093 -0.57711,1.498399 -0.09946,0.06838 -0.141642,-1.276526 -0.09946,-2.980079 M 16.32713,33.095127 c 0.006,-0.123095 0.860393,-0.92852 1.904614,-1.796253 1.044223,-0.873812 2.272277,-1.995331 2.739387,-2.495304 0.736834,-0.799347 0.804639,-0.990825 0.53492,-1.443688 -0.424922,-0.705129 -0.399305,-1.474083 0.06178,-1.870718 0.521358,-0.458941 0.908609,-0.117018 0.908609,0.799349 0,0.422469 0.109999,0.847976 0.251639,0.942197 0.467113,0.297856 0.295336,0.984748 -0.203421,0.825181 -0.319444,-0.104859 -0.589164,0.08662 -0.908608,0.650421 -0.571082,1.02274 -5.313027,4.949574 -5.287411,4.397934 m 5.76055,-6.808135 c -0.08588,-0.155007 -0.269719,-0.27962 -0.399305,-0.27962 -0.135614,0 -0.239584,0.123096 -0.239584,0.27962 0,0.14285 0.177804,0.265942 0.399307,0.265942 0.215474,0 0.325471,-0.123094 0.239582,-0.265942 m 11.344805,4.788488 c 0.828747,-0.433106 0.712723,-0.841898 -0.189859,-0.705127 -0.860391,0.136772 -1.014086,-0.167164 -0.295336,-0.575956 0.503277,-0.279621 2.346109,-0.08662 2.346109,0.247706 0,0.370801 -0.908609,1.010583 -1.671057,1.170148 -0.699161,0.14893 -0.71875,0.136772 -0.195884,-0.136772 M 1.0344731,29.13486 c 0.7729957,-1.387462 0.7986115,-1.498398 0.2832812,-1.498398 -0.49272837,0 -0.49724869,-0.37688 -0.012054,-0.799348 0.4550579,-0.396634 0.908609,-0.148929 0.908609,0.489335 0,0.489335 -1.41188477,2.998314 -1.68913871,2.998314 -0.0858873,0 0.14766778,-0.539483 0.50930321,-1.189903 m 34.8074085,-0.241628 -0.571083,-0.630664 0.553001,-0.737041 0.553001,-0.730964 1.215998,1.202063 0.656972,-0.644342 c 0.688613,-0.682334 1.197917,-0.569879 1.762972,0.364721 0.209448,0.348005 0.141642,0.582035 -0.289308,1.0273 l -0.553001,0.575955 -0.744366,-0.557721 -0.754914,-0.562279 -0.620808,0.668657 -0.638889,0.662576 m 0.227528,-5.835543 c -0.03164,-1.430013 -0.129587,-2.663987 -0.209446,-2.756686 -0.08588,-0.08662 -0.608753,0.117018 -1.160247,0.451343 -1.39531,0.841898 -1.271751,0.364722 0.14767,-0.575956 0.896554,-0.594192 1.124082,-0.892048 1.038195,-1.344911 -0.06178,-0.32217 -0.177805,-1.913268 -0.263694,-3.542357 -0.08588,-1.621491 -0.263692,-4.69579 -0.399305,-6.8142137 -0.232049,-3.6107424 -0.159723,-5.1592894 0.227529,-5.1532107 0.165749,0.00608 1.35764,2.8174729 1.70722,4.0332113 0.189859,0.676255 0.189859,0.676255 -0.357114,0.1610854 -0.299856,-0.2856984 -0.589164,-0.46502 -0.644917,-0.4027128 -0.04822,0.062308 0.006,1.3190756 0.122053,2.8007565 0.122053,1.48776 0.289308,3.840214 0.373691,5.253509 0.203419,3.308328 0.24561,3.431421 0.890527,2.811395 0.461085,-0.428547 0.473139,-0.533404 0.122053,-0.936118 -0.221502,-0.247706 -0.387252,-0.626105 -0.387252,-0.854056 0,-0.539484 0.920663,-1.399619 1.265724,-1.176226 0.325473,0.217312 0.299856,2.837229 -0.02562,2.837229 -0.135614,0 -0.515328,0.334328 -0.86039,0.750717 -0.521359,0.620028 -0.625328,1.022739 -0.625328,2.533295 -0.01206,1.771939 -0.473139,4.522547 -0.760941,4.522547 -0.07986,0 -0.171777,-1.16407 -0.203421,-2.595601 m 2.334057,-6.957062 c -0.165751,-0.42855 -0.608754,-0.562281 -0.608754,-0.179321 0,0.285698 0.283282,0.582034 0.546974,0.582034 0.109999,0 0.141642,-0.179323 0.05576,-0.402713 m 7.455717,8.981266 c -0.497249,-0.817584 0.289308,-4.812804 0.934224,-4.812804 0.116023,0 -0.01206,0.513649 -0.283281,1.145833 -0.557521,1.276525 -0.625328,2.018126 -0.24561,2.619916 0.227528,0.360162 0.283281,0.360162 0.503276,0 0.313416,-0.519728 0.331498,-0.223392 0.01206,0.656499 -0.263692,0.730962 -0.631353,0.885969 -0.920661,0.390556 M 29.621752,23.987728 c -0.135614,-0.384478 -0.239583,-0.799349 -0.239583,-0.936119 0,-0.445264 1.075864,-3.25818 1.203945,-3.129006 0.06178,0.06838 -0.07986,0.724883 -0.3315,1.449768 -0.479167,1.419375 -0.351088,2.384366 0.289308,2.124502 0.461086,-0.179321 0.509304,0.396636 0.07384,0.854056 -0.461085,0.483255 -0.706695,0.396635 -0.982443,-0.364721 m -5.884109,-1.989252 c -0.305884,-0.607869 0.289308,-2.837228 0.94628,-3.511964 0.351087,-0.360164 0.357113,-0.334328 0.07384,0.241629 -0.589164,1.20814 -0.772996,2.255194 -0.467113,2.64575 0.239585,0.297856 0.3315,0.302414 0.503277,0.01976 0.165749,-0.265943 0.215475,-0.253786 0.215475,0.06838 0.006,0.439185 -0.47314,1.06529 -0.804639,1.06529 -0.11,0 -0.319445,-0.23403 -0.467113,-0.525807 M 7.7156869,21.60944 c -0.3932785,-0.620026 -0.3932785,-0.787191 -0.025618,-2.100189 0.2275281,-0.78719 0.5213563,-1.604775 0.6629971,-1.826646 0.3375263,-0.539484 0.3194443,-0.360163 -0.1099994,1.121519 -0.4972491,1.741545 -0.1958867,2.861543 0.5650544,2.069794 0.215475,-0.22947 0.2576655,-0.161087 0.1476697,0.259865 -0.2576656,1.033377 -0.7729966,1.232454 -1.2401082,0.483254 m -7.30804877,-1.48168 c 0,-0.142852 0.54094634,-0.582036 1.20394457,-0.990827 0.6629982,-0.402714 1.7011943,-1.220298 2.3159744,-1.816008 1.0698363,-1.033379 1.0924385,-1.091127 0.6629972,-1.58502 -0.4053329,-0.465021 -0.4113606,-0.582034 -0.06178,-1.232456 0.2154738,-0.396633 0.5831363,-0.756797 0.8287464,-0.811504 0.3450615,-0.06838 0.4354702,0.110939 0.4354702,0.861654 0,0.519728 0.1160223,1.016661 0.2576643,1.107843 0.4113618,0.27202 0.2953358,0.990825 -0.1476697,0.898126 -0.2215003,-0.04864 -0.9703872,0.483257 -1.6590015,1.176226 -1.2340805,1.250692 -3.83785569,2.875221 -3.83785569,2.398044 M 5.1782036,14.529284 c -0.2576643,-0.272022 -0.4731393,0.14285 -0.2576643,0.501491 0.1597215,0.27962 0.2215003,0.27962 0.3058825,0 0.055757,-0.185399 0.036162,-0.408791 -0.048219,-0.501491 m -2.7996603,1.90111 C 2.1088272,16.150773 2.175127,14.77699 2.4584086,14.59159 c 0.1476685,-0.09422 0.2576655,0.14285 0.2576655,0.55772 0,0.607868 0.06178,0.668656 0.387252,0.384478 0.2094473,-0.185401 0.3812231,-0.217315 0.3812231,-0.07446 0,0.384476 -0.9086084,1.182304 -1.1060015,0.97259 m 11.8857503,-1.95734 c -0.299856,-0.767433 -1.282301,-1.920865 -1.282301,-1.504475 0,0.117018 -0.177802,0.0623 -0.387248,-0.123095 -0.515331,-0.445264 -0.492729,-1.34491 0.03164,-1.34491 0.227528,0 0.792584,0.433106 1.259695,0.964993 l 0.840802,0.964991 0.299856,-1.498398 c 0.325472,-1.673159 0.688613,-2.1001872 1.179835,-1.39354 0.393278,0.56228 0.183832,1.419375 -0.232048,0.97867 -0.503277,-0.533406 -0.620808,-0.302415 -0.798612,1.58502 -0.195887,2.124503 -0.455058,2.508979 -0.908609,1.369223 m 14.882803,-1.604773 c -0.299854,-0.594192 -0.05576,-2.255195 0.473141,-3.1396442 0.277253,-0.4589413 0.299855,-0.4452641 0.116023,0.1550067 -0.357114,1.2446125 -0.257665,2.2916665 0.209447,2.2551945 0.3315,-0.02584 0.38725,0.09422 0.232049,0.519727 -0.269719,0.773514 -0.699161,0.861656 -1.032167,0.211235 m 4.650028,-0.08662 c -0.393278,-0.408793 -0.357114,-1.44369 0.0859,-2.632074 l 0.361633,-0.9422009 -0.153695,1.1336769 c -0.171775,1.369225 0.06178,2.303825 0.435469,1.685317 0.203421,-0.334328 0.239585,-0.328249 0.245612,0.04256 0.006,0.656498 -0.608753,1.101763 -0.976416,0.712727 M 22.214251,9.8851618 c -0.215474,-0.4148719 -0.153696,-0.8358209 0.277253,-1.8707179 0.299856,-0.737041 0.706697,-1.4816806 0.902581,-1.653404 0.503277,-0.4331064 0.447525,-0.191479 -0.251637,1.1017634 -0.650944,1.2020611 -0.650944,2.4208388 0,1.8585588 0.424922,-0.3647206 0.455058,-0.136772 0.09342,0.5820359 -0.345059,0.662576 -0.676559,0.656498 -1.018604,-0.019756 M 6.4785938,9.4323008 C 6.1727101,9.1101299 6.3068168,7.4506473 6.7000942,6.6452201 7.2651498,5.4993875 7.3992577,5.6665501 6.9215969,6.9248397 6.5102352,8.0098865 6.5961249,8.9885564 7.0813197,8.6770234 7.2229617,8.5767237 7.338984,8.6207954 7.338984,8.7575674 c 0,0.3647222 -0.6569718,0.885969 -0.8603902,0.6762552 M 27.147562,1.7351569 c 1.069839,-0.4452641 0.846831,-0.81758393 -0.38725,-0.6443412 l -1.086414,0.1489279 0.602726,-0.51972811 c 0.890527,-0.75679707 2.603775,-0.64434137 2.603775,0.17932138 0,0.42854773 -1.307913,1.20206123 -1.978447,1.15799073 -0.319444,-0.019756 -0.24561,-0.1170148 0.24561,-0.3221707" />
</svg>
