<?xml version="1.0" encoding="UTF-8" standalone="no"?>
<!-- Generator: Adobe Illustrator 19.1.0, SVG Export Plug-In . SVG Version: 6.00 Build 0)  -->

<svg
   xmlns:dc="http://purl.org/dc/elements/1.1/"
   xmlns:cc="http://creativecommons.org/ns#"
   xmlns:rdf="http://www.w3.org/1999/02/22-rdf-syntax-ns#"
   xmlns:svg="http://www.w3.org/2000/svg"
   xmlns="http://www.w3.org/2000/svg"
   xmlns:sodipodi="http://sodipodi.sourceforge.net/DTD/sodipodi-0.dtd"
   xmlns:inkscape="http://www.inkscape.org/namespaces/inkscape"
   version="1.1"
   id="Capa_1"
   x="0px"
   y="0px"
   viewBox="0 0 421.141 421.141"
   style="enable-background:new 0 0 421.141 421.141;"
   xml:space="preserve"
   inkscape:version="0.91 r13725"
   sodipodi:docname="meeting-chair.svg"><metadata
     id="metadata123"><rdf:RDF><cc:Work
         rdf:about=""><dc:format>image/svg+xml</dc:format><dc:type
           rdf:resource="http://purl.org/dc/dcmitype/StillImage" /><dc:title></dc:title></cc:Work></rdf:RDF></metadata><defs
     id="defs121" /><sodipodi:namedview
     pagecolor="#ffffff"
     bordercolor="#666666"
     borderopacity="1"
     objecttolerance="10"
     gridtolerance="10"
     guidetolerance="10"
     inkscape:pageopacity="0"
     inkscape:pageshadow="2"
     inkscape:window-width="1280"
     inkscape:window-height="694"
     id="namedview119"
     showgrid="false"
     inkscape:zoom="0.5603824"
     inkscape:cx="-80.302308"
     inkscape:cy="210.5705"
     inkscape:window-x="0"
     inkscape:window-y="0"
     inkscape:window-maximized="1"
     inkscape:current-layer="Capa_1" /><g
     id="g3"
     transform="matrix(1.2190352,0,0,1,-46.12236,0)"><g
       id="g5"><path
         style="fill:#7c828d"
         d="M 289.534,69.466 C 281.857,33.274 259.923,8.598 250.052,3.663 c -22.209,-11.104 -29.611,6.58 -39.482,6.58 -9.871,0 -17.273,-17.685 -39.482,-6.58 -9.87,4.935 -31.805,29.611 -39.482,65.803 -7.677,36.192 78.964,6.58 78.964,6.58 0,0 86.641,29.612 78.964,-6.58 z"
         id="path7"
         inkscape:connector-curvature="0" /></g><g
       id="g9"><ellipse
         style="fill:#6e6e79"
         cx="210.57001"
         cy="121.736"
         rx="151.347"
         ry="55.932999"
         id="ellipse11" /></g><g
       id="g13"><path
         style="fill:#ffd7a3"
         d="m 138.277,281.887 c 14.716,-9.475 13.07,-37.675 13.07,-44.255 l 118.446,0 c 0,6.58 -1.825,34.78 12.89,44.255 l -72.113,80.771 -72.293,-80.771 z"
         id="path15"
         inkscape:connector-curvature="0" /></g><g
       id="g17"><path
         style="fill:#fdc88e"
         d="m 256.632,310.016 26.051,-28.129 c -14.716,-9.474 -12.89,-37.675 -12.89,-44.255 l -118.446,0 c 8.498,24.433 64.707,66.352 105.285,72.384 z"
         id="path19"
         inkscape:connector-curvature="0" /></g><g
       id="g21"><path
         style="fill:#7c828d"
         d="m 361.918,421.14 c 10.903,0 19.741,-8.838 19.741,-19.741 l 0,-42.981 c 0,-28.954 -22.562,-59.864 -50.138,-68.687 l -41.168,-13.173 c -22.149,16.936 -53.802,40.039 -79.782,40.039 -25.98,0 -57.633,-23.103 -79.782,-40.039 L 89.62,289.731 c -27.576,8.823 -50.138,39.733 -50.138,68.687 l 0,42.981 c 0,10.903 8.838,19.741 19.741,19.741 l 302.695,0 z"
         id="path23"
         inkscape:connector-curvature="0" /></g><g
       id="g25"><path
         style="fill:#29394a"
         d="m 210.57,316.596 c -18.694,0 -40.309,-11.967 -59.223,-24.985 l 0,63.726 46.059,65.803 26.325,0 46.061,-65.803 0,-63.726 c -18.913,13.018 -40.528,24.985 -59.222,24.985 z"
         id="path27"
         inkscape:connector-curvature="0" /></g><g
       id="g29"><path
         style="fill:#6e6e79"
         d="m 158.094,281.765 45.896,139.375 -26.321,0 -61.768,-74.928 c -2.316,-2.316 -2.576,-5.981 -0.611,-8.601 l 16.317,-21.756 -33.95,-11.317 c -3.25,-1.083 -5.137,-4.443 -4.326,-7.771 3.657,-15.002 17.009,-53.296 58.016,-53.296 l 0,0 c 0,13.061 2.284,26.02 6.747,38.294 z"
         id="path31"
         inkscape:connector-curvature="0" /></g><g
       id="g33"><path
         style="fill:#6e6e79"
         d="m 263.047,281.765 -45.896,139.375 26.321,0 61.768,-74.928 c 2.316,-2.316 2.576,-5.981 0.611,-8.601 l -16.317,-21.756 33.95,-11.317 c 3.25,-1.083 5.137,-4.443 4.326,-7.771 -3.657,-15.002 -17.009,-53.296 -58.016,-53.296 l 0,0 c -10e-4,13.061 -2.284,26.02 -6.747,38.294 z"
         id="path35"
         inkscape:connector-curvature="0" /></g><g
       id="g37"><path
         style="fill:#ffe1b2"
         d="m 120.114,118.285 c -1.582,9.309 -1.668,20.502 -1.668,33.803 0,52.696 30.343,118.446 92.124,118.446 61.781,0 92.124,-65.75 92.124,-118.446 0,-13.302 -0.086,-24.494 -1.668,-33.803 -24.784,-8.127 -56.221,-13 -90.457,-13 -34.236,0 -65.671,4.873 -90.455,13 z"
         id="path39"
         inkscape:connector-curvature="0" /></g><g
       id="g41"><path
         style="fill:#ffe1b2"
         d="m 121.521,163.604 c -9.864,-2.468 -16.326,2.805 -16.326,13.161 0,13.709 13.265,47.296 27.21,26.321 13.946,-20.975 -10.884,-39.482 -10.884,-39.482 z"
         id="path43"
         inkscape:connector-curvature="0" /></g><g
       id="g45"><path
         style="fill:#ffe1b2"
         d="m 297.944,163.604 c 10.767,-2.468 17.821,2.805 17.821,13.161 0,13.709 -14.479,47.296 -29.701,26.321 -15.222,-20.975 11.88,-39.482 11.88,-39.482 z"
         id="path47"
         inkscape:connector-curvature="0" /></g><g
       id="g49"><path
         style="fill:#29394a"
         d="m 118.446,152.088 c 0,6.44 0.46,13.075 1.369,19.761 l 11.792,6.56 c 0,0 6.992,-49.682 13.161,-66.544 -0.01,-0.016 -0.017,-0.031 -0.028,-0.048 -8.739,1.833 -17.027,3.975 -24.626,6.467 -1.582,9.311 -1.668,20.503 -1.668,33.804 z"
         id="path51"
         inkscape:connector-curvature="0" /></g><g
       id="g53"><path
         style="fill:#29394a"
         d="m 302.695,152.088 c 0,6.44 -0.46,13.075 -1.369,19.761 l -11.792,6.56 c 0,0 -6.992,-49.682 -13.161,-66.544 0.01,-0.016 0.017,-0.031 0.028,-0.048 8.739,1.833 17.027,3.975 24.626,6.467 1.582,9.311 1.668,20.503 1.668,33.804 z"
         id="path55"
         inkscape:connector-curvature="0" /></g><g
       id="g57"><g
         id="g59"><g
           id="g61"><path
             style="fill:#29394a"
             d="m 195.918,166.153 0,4.935 c 0,14.514 -11.808,26.321 -26.321,26.321 l -6.58,0 c -7.257,0 -13.161,-5.904 -13.161,-13.161 l 0,-18.096 46.062,0 m 0,-6.579 -46.062,0 c -3.634,0 -6.58,2.946 -6.58,6.58 l 0,18.096 c 0,10.903 8.838,19.741 19.741,19.741 l 6.58,0 c 18.171,0 32.902,-14.731 32.902,-32.902 l 0,-4.935 c -0.001,-3.634 -2.947,-6.58 -6.581,-6.58 l 0,0 z"
             id="path63"
             inkscape:connector-curvature="0" /></g></g><g
         id="g65"><g
           id="g67"><path
             style="fill:#29394a"
             d="m 271.465,166.153 0,18.096 c 0,7.257 -5.904,13.161 -13.161,13.161 l -6.58,0 c -14.514,0 -26.321,-11.808 -26.321,-26.321 l 0,-4.935 46.062,0 m 0,-6.581 -46.062,0 c -3.634,0 -6.58,2.946 -6.58,6.58 l 0,4.935 c 0,18.171 14.731,32.902 32.902,32.902 l 6.58,0 c 10.903,0 19.741,-8.838 19.741,-19.741 l 0,-18.096 c 0,-3.634 -2.946,-6.58 -6.581,-6.58 l 0,0 z"
             id="path69"
             inkscape:connector-curvature="0" /></g></g><g
         id="g71"><g
           id="g73"><polygon
             style="fill:#29394a"
             points="149.856,175.227 125.026,167.659 125.026,159.573 149.856,159.573 "
             id="polygon75" /></g></g><g
         id="g77"><g
           id="g79"><polygon
             style="fill:#29394a"
             points="271.466,175.227 296.114,167.659 296.114,159.573 271.466,159.573 "
             id="polygon81" /></g></g><g
         id="g83"><g
           id="g85"><path
             style="fill:#29394a"
             d="m 225.691,175.227 -6.58,0 c 0,-2.847 -3.949,-5.347 -8.45,-5.347 -4.501,0 -8.45,2.5 -8.45,5.347 l -6.58,0 c 0,-6.69 6.603,-11.927 15.031,-11.927 8.428,0 15.029,5.237 15.029,11.927 z"
             id="path87"
             inkscape:connector-curvature="0" /></g></g></g></g><g
     id="g89" /><g
     id="g91" /><g
     id="g93" /><g
     id="g95" /><g
     id="g97" /><g
     id="g99" /><g
     id="g101" /><g
     id="g103" /><g
     id="g105" /><g
     id="g107" /><g
     id="g109" /><g
     id="g111" /><g
     id="g113" /><g
     id="g115" /><g
     id="g117" /></svg>