<?xml version="1.0" encoding="UTF-8" standalone="no"?>
<svg
   xmlns:dc="http://purl.org/dc/elements/1.1/"
   xmlns:cc="http://creativecommons.org/ns#"
   xmlns:rdf="http://www.w3.org/1999/02/22-rdf-syntax-ns#"
   xmlns:svg="http://www.w3.org/2000/svg"
   xmlns="http://www.w3.org/2000/svg"
   xmlns:sodipodi="http://sodipodi.sourceforge.net/DTD/sodipodi-0.dtd"
   xmlns:inkscape="http://www.inkscape.org/namespaces/inkscape"
   viewBox="0 0 64 64"
   id="svg2"
   version="1.1"
   inkscape:version="0.91 r13725"
   sodipodi:docname="weather-many-clouds.svg">
  <metadata
     id="metadata31">
    <rdf:RDF>
      <cc:Work
         rdf:about="">
        <dc:format>image/svg+xml</dc:format>
        <dc:type
           rdf:resource="http://purl.org/dc/dcmitype/StillImage" />
        <dc:title></dc:title>
      </cc:Work>
    </rdf:RDF>
  </metadata>
  <sodipodi:namedview
     pagecolor="#ffffff"
     bordercolor="#666666"
     borderopacity="1"
     objecttolerance="10"
     gridtolerance="10"
     guidetolerance="10"
     inkscape:pageopacity="0"
     inkscape:pageshadow="2"
     inkscape:window-width="1280"
     inkscape:window-height="694"
     id="namedview29"
     showgrid="false"
     inkscape:zoom="3.6875"
     inkscape:cx="-25.659745"
     inkscape:cy="32"
     inkscape:window-x="0"
     inkscape:window-y="0"
     inkscape:window-maximized="1"
     inkscape:current-layer="svg2" />
  <defs
     id="defs4">
    <linearGradient
       id="0"
       gradientUnits="userSpaceOnUse"
       gradientTransform="matrix(-2.2653413,0,0,2.2775109,935.03141,-1200.6105)"
       x1="393.83"
       y1="549.46"
       x2="395.79"
       y2="542.83">
      <stop
         stop-color="#c8e1e8"
         id="stop7" />
      <stop
         offset="1"
         stop-color="#fff"
         id="stop9" />
    </linearGradient>
    <linearGradient
       id="1"
       gradientUnits="userSpaceOnUse"
       gradientTransform="matrix(1.7049831,0,0,1.7141401,-655.05007,-892.97438)"
       x1="393.83"
       y1="549.46"
       x2="390.45"
       y2="542.88">
      <stop
         stop-color="#c3e6ee"
         id="stop12" />
      <stop
         offset="1"
         stop-color="#fff"
         id="stop14" />
    </linearGradient>
    <linearGradient
       id="2"
       gradientUnits="userSpaceOnUse"
       gradientTransform="matrix(2.6951055,0,0,2.7095802,-1031.6428,-1445.7149)"
       x1="396.64"
       y1="546.11"
       x2="394.41"
       y2="538.61">
      <stop
         stop-color="#b7d7e1"
         id="stop17" />
      <stop
         offset="1"
         stop-color="#fff"
         id="stop19" />
    </linearGradient>
  </defs>
  <path
     inkscape:connector-curvature="0"
     id="path5-2"
     d="m 61.706762,35.571596 c 1.407417,-2.30022 2.151287,-5.037843 2.151287,-7.917172 0,-6.38154 -3.714842,-11.72169 -8.638487,-12.954856 C 53.490732,6.5282685 47.424316,0.63782237 40.343848,0.63782237 c -6.343549,0 -12.007717,4.80717463 -14.296605,11.90386263 1.521206,-0.459446 3.108573,-0.703339 4.738161,-0.703339 9.277064,0 17.197425,7.877493 19.22334,18.705957 3.988627,0.793874 7.400463,3.715715 9.430368,7.778298 0.853925,-0.767107 1.617745,-1.688675 2.26765,-2.751005 z"
     style="fill:#2488ff" />
  <path
     inkscape:connector-curvature="0"
     id="path7-3"
     d="m 30.785275,11.838188 c -1.629459,0 -3.216826,0.244051 -4.738161,0.703339 -7.139035,2.155994 -12.815045,9.076178 -14.485179,18.002618 -6.467377,1.287172 -11.41998422,8.167678 -11.41998422,16.436441 0,9.1823 6.10709142,16.652622 13.61374922,16.652622 l 17.029575,0 0,-51.79502 z"
     style="fill:#bddbff" />
  <path
     inkscape:connector-curvature="0"
     id="path9-3"
     d="M 50.008744,30.544145 C 47.982829,19.715839 40.062468,11.838188 30.785404,11.838188 l 0,51.795177 17.029575,0 c 7.506657,0 13.613749,-7.470322 13.613749,-16.652622 0,-3.169041 -0.728166,-6.13371 -1.989616,-8.658299 -2.029905,-4.062583 -5.441741,-6.984424 -9.430368,-7.778299 z"
     style="fill:#80b3ff" />
  <path
     inkscape:connector-curvature="0"
     id="path5"
     d="m 61.471662,50.657946 c 1.39628,-1.053173 2.134263,-2.306615 2.134263,-3.624938 0,-2.921838 -3.685443,-5.366868 -8.570124,-5.931482 -1.715149,-3.741293 -7.733556,-6.43828 -14.75799,-6.43828 -6.293348,0 -11.912691,2.201002 -14.183465,5.450276 1.509167,-0.210361 3.083973,-0.322029 4.700664,-0.322029 9.203647,0 17.061328,3.606772 19.07121,8.564668 3.957062,0.363482 7.341898,1.70127 9.355739,3.561355 0.847166,-0.351226 1.604942,-0.773173 2.249703,-1.25957 z"
     style="fill:#57a4ff" />
  <path
     inkscape:connector-curvature="0"
     id="path7"
     d="m 30.794882,39.791421 c -1.616563,0 -3.191369,0.11174 -4.700664,0.322029 -7.082538,0.987139 -12.713629,4.155599 -14.370546,8.242639 -6.4161955,0.589342 -11.32960877,3.739635 -11.32960877,7.525552 0,4.204188 6.05876117,7.624533 13.50601277,7.624533 l 16.894806,0 0,-23.714753 z"
     style="fill:#80b3ff" />
  <path
     inkscape:connector-curvature="0"
     id="path9"
     d="M 49.86622,48.356089 C 47.856338,43.398265 39.998657,39.791421 30.79501,39.791421 l 0,23.714825 16.894806,0 c 7.447252,0 13.506013,-3.420345 13.506013,-7.624533 0,-1.45097 -0.722403,-2.808366 -1.97387,-3.964269 -2.013841,-1.860086 -5.398677,-3.197873 -9.355739,-3.561355 z"
     style="fill:#9bc9ff" />
</svg>
