<?xml version="1.0" encoding="UTF-8" standalone="no"?>
<svg
   xmlns:dc="http://purl.org/dc/elements/1.1/"
   xmlns:cc="http://creativecommons.org/ns#"
   xmlns:rdf="http://www.w3.org/1999/02/22-rdf-syntax-ns#"
   xmlns:svg="http://www.w3.org/2000/svg"
   xmlns="http://www.w3.org/2000/svg"
   xmlns:sodipodi="http://sodipodi.sourceforge.net/DTD/sodipodi-0.dtd"
   xmlns:inkscape="http://www.inkscape.org/namespaces/inkscape"
   viewBox="0 0 48 48"
   id="svg2"
   version="1.1"
   inkscape:version="0.91 r13725"
   sodipodi:docname="distributor-logo-gentoo.svg">
  <metadata
     id="metadata29">
    <rdf:RDF>
      <cc:Work
         rdf:about="">
        <dc:format>image/svg+xml</dc:format>
        <dc:type
           rdf:resource="http://purl.org/dc/dcmitype/StillImage" />
        <dc:title></dc:title>
      </cc:Work>
    </rdf:RDF>
  </metadata>
  <sodipodi:namedview
     pagecolor="#ffffff"
     bordercolor="#666666"
     borderopacity="1"
     objecttolerance="10"
     gridtolerance="10"
     guidetolerance="10"
     inkscape:pageopacity="0"
     inkscape:pageshadow="2"
     inkscape:window-width="1280"
     inkscape:window-height="694"
     id="namedview27"
     showgrid="false"
     inkscape:zoom="4.9166667"
     inkscape:cx="-9.1525424"
     inkscape:cy="24"
     inkscape:window-x="0"
     inkscape:window-y="0"
     inkscape:window-maximized="1"
     inkscape:current-layer="svg2" />
  <defs
     id="defs4">
    <linearGradient
       y1="545.8"
       x2="0"
       y2="517.8"
       gradientUnits="userSpaceOnUse"
       id="linearGradient6">
      <stop
         stop-color="#3889e9"
         id="stop8" />
      <stop
         offset="1"
         stop-color="#5ea5fb"
         id="stop10" />
    </linearGradient>
    <linearGradient
       id="0"
       gradientUnits="userSpaceOnUse"
       y1="545.14"
       x2="0"
       y2="518.14"
       gradientTransform="matrix(1.7142808,0,0,1.7142808,-662.71237,-887.65186)">
      <stop
         stop-color="#9662ff"
         id="stop13" />
      <stop
         offset="1"
         stop-color="#bc9bff"
         id="stop15" />
    </linearGradient>
  </defs>
  <g
     id="g21"
     transform="matrix(2.0439572,0,0,1.9971893,-866.39691,-1037.9043)"
     style="fill:#aa87de">
    <path
       style="fill:#aa87de;fill-opacity:0.85;fill-rule:evenodd"
       inkscape:connector-curvature="0"
       id="path23"
       d="m 25.757,521.91 c 0.068,-26.26 22.392,-62.92 54.11,-96.23 21.2,-22.26 42.731,-41.8 89.66,-81.81 C 137.057,326.06 86.572,304.56 61.237,276.42 51.866,266 34.876,242.41 38.167,210.89 c 6.717,-64.25 86.02,-161.75 198.74,-182.36 37.504,-6.859 80.56,-1.908 116,14.02 111.18,49.984 247.15,174.16 263.88,234.79 5.888,21.342 4.757,55.36 -5.395,74.32 -12.581,23.498 -56.14,71.23 -115.72,120.47 -93.5,77.27 -224.52,160.25 -322.35,174.21 -31.611,4.511 -63.908,-0.194 -86.57,-12.983 -35.481,-20.01 -47.25,-46.72 -51.39,-54.73 -11,-21.29 -9.637,-48.27 -9.613,-56.73 z"
       transform="matrix(0.03847,0,0,0.03869,423.2,518.68)" />
    <ellipse
       style="fill:#aa87de"
       id="ellipse25"
       cx="-279.13"
       cy="624.09998"
       ry="2.7049999"
       transform="matrix(0.44099,-0.89751,0.89751,0.44099,0,0)"
       rx="2.2539999" />
  </g>
</svg>
