<?xml version="1.0" encoding="UTF-8" standalone="no"?>
<svg
   xmlns:dc="http://purl.org/dc/elements/1.1/"
   xmlns:cc="http://creativecommons.org/ns#"
   xmlns:rdf="http://www.w3.org/1999/02/22-rdf-syntax-ns#"
   xmlns:svg="http://www.w3.org/2000/svg"
   xmlns="http://www.w3.org/2000/svg"
   xmlns:xlink="http://www.w3.org/1999/xlink"
   xmlns:sodipodi="http://sodipodi.sourceforge.net/DTD/sodipodi-0.dtd"
   xmlns:inkscape="http://www.inkscape.org/namespaces/inkscape"
   viewBox="0 0 64 64"
   id="svg13202"
   version="1.1"
   inkscape:version="0.91 r13725"
   sodipodi:docname="folder-script.svg">
  <metadata
     id="metadata13228">
    <rdf:RDF>
      <cc:Work
         rdf:about="">
        <dc:format>image/svg+xml</dc:format>
        <dc:type
           rdf:resource="http://purl.org/dc/dcmitype/StillImage" />
        <dc:title></dc:title>
      </cc:Work>
    </rdf:RDF>
  </metadata>
  <sodipodi:namedview
     pagecolor="#ffffff"
     bordercolor="#666666"
     borderopacity="1"
     objecttolerance="10"
     gridtolerance="10"
     guidetolerance="10"
     inkscape:pageopacity="0"
     inkscape:pageshadow="2"
     inkscape:window-width="1280"
     inkscape:window-height="694"
     id="namedview13226"
     showgrid="false"
     inkscape:zoom="3.6875"
     inkscape:cx="-5.6753756"
     inkscape:cy="32"
     inkscape:window-x="0"
     inkscape:window-y="0"
     inkscape:window-maximized="1"
     inkscape:current-layer="svg13202" />
  <defs
     id="defs13204">
    <linearGradient
       xlink:href="#1"
       id="3"
       x1="-19.915"
       y1="1048.7"
       x2="-19.996"
       y2="1025.51"
       gradientUnits="userSpaceOnUse"
       gradientTransform="translate(51.949,-1001.46)" />
    <linearGradient
       gradientUnits="userSpaceOnUse"
       y2="354.29"
       x2="-704.05"
       y1="647.77"
       x1="-701.19"
       id="2"
       gradientTransform="matrix(0.01590505,0,0,0.01845141,129.51168,-45.007092)">
      <stop
         stop-color="#93cfff"
         id="stop13208" />
      <stop
         offset="1"
         stop-color="#cde8fe"
         id="stop13210" />
    </linearGradient>
    <linearGradient
       xlink:href="#1"
       id="0"
       x1="59.12"
       y1="-13.295"
       x2="59.15"
       y2="-37.783"
       gradientUnits="userSpaceOnUse"
       gradientTransform="matrix(0.52660675,0,0,0.52570737,-19.441377,28.676662)" />
    <linearGradient
       id="1">
      <stop
         stop-color="#289bf7"
         id="stop13214" />
      <stop
         offset="1"
         stop-color="#71b9f1"
         id="stop13216" />
    </linearGradient>
  </defs>
  <path
     inkscape:connector-curvature="0"
     style="fill:#ffffff"
     id="path24"
     d="m 43.224105,-43.186568 c -0.07746,-5.11e-4 -0.155259,0.01328 -0.228462,0.0429 -0.146407,0.05941 -0.264724,0.174837 -0.32618,0.320392 l -9.361328,22.144819 c -0.12819,0.303027 0.01328,0.653041 0.316476,0.781232 l 1.568422,0.664106 c 0.07405,0.03149 0.151513,0.04682 0.230505,0.04682 0.0761,0 0.152705,-0.01583 0.224546,-0.04494 0.146407,-0.05941 0.26251,-0.174836 0.324137,-0.320391 l 9.3632,-22.144819 c 0.128021,-0.303028 -0.01345,-0.653041 -0.316476,-0.781232 l -1.568421,-0.662063 c -0.07269,-0.03081 -0.14896,-0.04631 -0.22659,-0.04682 m -11.089433,4.140577 c -0.150833,-0.02179 -0.309667,0.01464 -0.441433,0.11321 l -8.879718,6.638679 c -0.150322,0.112358 -0.240209,0.290599 -0.240209,0.478544 0,0.187945 0.08989,0.364144 0.240209,0.476502 l 8.879718,6.641063 c 0.106911,0.08018 0.231357,0.119168 0.355462,0.119168 0.181475,0 0.361589,-0.08376 0.478544,-0.240209 l 1.019568,-1.363623 c 0.09465,-0.126828 0.135681,-0.284981 0.113209,-0.441432 -0.02264,-0.15645 -0.107932,-0.29792 -0.23442,-0.392573 l -6.418048,-4.799066 6.418048,-4.800768 c 0.126488,-0.09465 0.211778,-0.23425 0.23442,-0.390701 0.02247,-0.15645 -0.01839,-0.316476 -0.113209,-0.443305 l -1.019568,-1.363622 c -0.09857,-0.131766 -0.241741,-0.210587 -0.392573,-0.232378 m 14.375065,0 c -0.150832,0.02179 -0.294004,0.100782 -0.392573,0.232378 l -1.019567,1.363622 c -0.09465,0.126659 -0.133809,0.286855 -0.111337,0.443305 0.02264,0.156281 0.105719,0.296048 0.232377,0.390701 l 6.418048,4.800768 -6.418048,4.799066 c -0.126658,0.09465 -0.209735,0.236293 -0.232377,0.392573 -0.02247,0.156451 0.01651,0.314774 0.111337,0.441432 l 1.019567,1.363623 c 0.117125,0.15645 0.297069,0.240209 0.478545,0.240209 0.124105,0 0.24838,-0.03916 0.355461,-0.119168 l 8.879718,-6.641063 c 0.150322,-0.112358 0.240209,-0.288557 0.240209,-0.476502 0,-0.187945 -0.08989,-0.366186 -0.240209,-0.478544 l -8.879718,-6.638683 c -0.131766,-0.09857 -0.2906,-0.135001 -0.441433,-0.11321" />
  <g
     transform="matrix(1.0981882,0,0,1.1038042,0.28813597,-0.01032499)"
     id="g4158">
    <path
       id="path3"
       d="m 58,16.694284 -58,0 L 0,2.3625868 C 0,1.2028319 0.916,0.26271195 2.046,0.26271195 l 53.908,0 c 1.13,0 2.046,0.94011995 2.046,2.09987485 l 0,14.3316972 z"
       style="fill:#d45500"
       inkscape:connector-curvature="0" />
    <rect
       id="rect5"
       height="41.043011"
       width="52"
       style="fill:#ff9955"
       y="16.694284"
       x="3" />
    <path
       id="path7"
       d="m 38,12.588957 -18,0 c -2.209,0 -4,-1.83816 -4,-4.1053273 l 0,0 c 0,-2.267167 1.791,-4.1053272 4,-4.1053272 l 18,0 c 2.209,0 4,1.8381602 4,4.1053272 l 0,0 c 0,2.2671673 -1.791,4.1053273 -4,4.1053273 z"
       style="fill:#aa4400"
       inkscape:connector-curvature="0" />
    <rect
       id="rect9"
       height="5.131659"
       width="52"
       style="fill:#aa4400"
       y="52.605633"
       x="3" />
    <rect
       id="rect11"
       height="14.368646"
       width="28"
       style="fill:#ffccaa"
       y="24.894674"
       x="15" />
    <g
       style="fill:#aa4400"
       transform="matrix(1,0,0,1.0263318,0,-0.76361985)"
       id="g13">
      <path
         id="path15"
         d="m 19,31 6,0 c 0.553,0 1,-0.447 1,-1 0,-0.553 -0.447,-1 -1,-1 l -6,0 c -0.553,0 -1,0.447 -1,1 0,0.553 0.447,1 1,1 z"
         style="fill:#aa4400"
         inkscape:connector-curvature="0" />
      <path
         id="path17"
         d="m 29,31 c 0.26,0 0.52,-0.11 0.71,-0.29 C 29.89,30.52 30,30.26 30,30 c 0,-0.261 -0.11,-0.521 -0.29,-0.71 -0.38,-0.37 -1.05,-0.37 -1.42,0 C 28.109,29.479 28,29.739 28,30 c 0,0.27 0.109,0.52 0.29,0.71 C 28.479,30.89 28.729,31 29,31 Z"
         style="fill:#aa4400"
         inkscape:connector-curvature="0" />
      <path
         id="path19"
         d="m 39,33 -16,0 c -0.553,0 -1,0.447 -1,1 0,0.553 0.447,1 1,1 l 16,0 c 0.553,0 1,-0.447 1,-1 0,-0.553 -0.447,-1 -1,-1 z"
         style="fill:#aa4400"
         inkscape:connector-curvature="0" />
      <path
         id="path21"
         d="M 18.29,33.29 C 18.109,33.479 18,33.739 18,34 c 0,0.26 0.109,0.52 0.29,0.71 0.189,0.18 0.439,0.29 0.71,0.29 0.27,0 0.52,-0.11 0.71,-0.29 C 19.89,34.52 20,34.26 20,34 c 0,-0.261 -0.11,-0.521 -0.29,-0.71 -0.37,-0.37 -1.04,-0.37 -1.42,0 z"
         style="fill:#aa4400"
         inkscape:connector-curvature="0" />
    </g>
    <rect
       id="rect23"
       height="5.131659"
       width="52"
       style="fill:#aa4400"
       y="16.684021"
       x="3" />
  </g>
  <path
     inkscape:connector-curvature="0"
     style="fill:#ffffff"
     id="path24-2"
     d="m 57.161533,0.20325784 c -0.03921,-3.8398e-4 -0.07859,0.009979 -0.11564,0.0322357 -0.07411,0.0446416 -0.133994,0.13137521 -0.165101,0.24074747 L 52.142414,17.116199 c -0.06489,0.227699 0.0067,0.490705 0.160189,0.58703 l 0.793881,0.499019 c 0.03748,0.02366 0.07669,0.03518 0.116673,0.03518 0.03852,0 0.07729,-0.01189 0.113658,-0.03377 0.07411,-0.04464 0.132873,-0.131375 0.164067,-0.240747 L 58.230207,1.3229531 c 0.0648,-0.2276969 -0.0068,-0.49070202 -0.160189,-0.58702668 l -0.79388,-0.49748431 c -0.03679,-0.0231511 -0.0754,-0.034798 -0.114692,-0.0351813 M 51.548361,3.314554 c -0.07635,-0.016373 -0.156742,0.011001 -0.223438,0.085068 l -4.494604,4.988406 c -0.07609,0.084428 -0.121585,0.2183606 -0.121585,0.3595853 0,0.1412248 0.0455,0.2736234 0.121585,0.358051 l 4.494604,4.9901967 c 0.05412,0.06025 0.117105,0.08954 0.179923,0.08954 0.09186,0 0.183024,-0.06294 0.242222,-0.180496 l 0.51607,-1.024648 c 0.04791,-0.0953 0.06868,-0.214139 0.0573,-0.331698 -0.01146,-0.117559 -0.05463,-0.223862 -0.118655,-0.294986 L 48.953193,8.7474853 52.201785,5.1401139 c 0.06402,-0.071122 0.107195,-0.1760191 0.118655,-0.2935788 0.01137,-0.1175589 -0.0093,-0.2378049 -0.0573,-0.3331062 L 51.747068,3.4887824 C 51.697175,3.3897714 51.624707,3.3305441 51.548361,3.31417 m 7.276158,0 c -0.07635,0.016373 -0.148815,0.075729 -0.198707,0.1746124 l -0.51607,1.0246465 c -0.04791,0.095174 -0.06773,0.2155473 -0.05635,0.3331062 0.01146,0.117432 0.05351,0.222455 0.117621,0.2935788 l 3.248592,3.6073714 -3.248592,3.6060917 c -0.06411,0.07112 -0.106161,0.177554 -0.117621,0.294986 -0.01137,0.117559 0.0084,0.236526 0.05635,0.331698 l 0.51607,1.024648 c 0.05928,0.117559 0.150366,0.180496 0.242223,0.180496 0.06282,0 0.125721,-0.02942 0.179922,-0.08954 l 4.494604,-4.990197 c 0.07609,-0.084428 0.121585,-0.2168262 0.121585,-0.358051 0,-0.1412247 -0.0455,-0.2751577 -0.121585,-0.3595853 l -4.494604,-4.988409 c -0.0667,-0.074067 -0.147092,-0.1014418 -0.223438,-0.085068" />
</svg>
