<?xml version="1.0" encoding="UTF-8" standalone="no"?>
<svg
   xmlns:dc="http://purl.org/dc/elements/1.1/"
   xmlns:cc="http://creativecommons.org/ns#"
   xmlns:rdf="http://www.w3.org/1999/02/22-rdf-syntax-ns#"
   xmlns:svg="http://www.w3.org/2000/svg"
   xmlns="http://www.w3.org/2000/svg"
   xmlns:sodipodi="http://sodipodi.sourceforge.net/DTD/sodipodi-0.dtd"
   xmlns:inkscape="http://www.inkscape.org/namespaces/inkscape"
   viewBox="0 0 48 48"
   id="svg2"
   version="1.1"
   inkscape:version="0.91 r13725"
   sodipodi:docname="user-trash-full.svg">
  <metadata
     id="metadata40">
    <rdf:RDF>
      <cc:Work
         rdf:about="">
        <dc:format>image/svg+xml</dc:format>
        <dc:type
           rdf:resource="http://purl.org/dc/dcmitype/StillImage" />
        <dc:title></dc:title>
      </cc:Work>
    </rdf:RDF>
  </metadata>
  <sodipodi:namedview
     pagecolor="#ffffff"
     bordercolor="#666666"
     borderopacity="1"
     objecttolerance="10"
     gridtolerance="10"
     guidetolerance="10"
     inkscape:pageopacity="0"
     inkscape:pageshadow="2"
     inkscape:window-width="1280"
     inkscape:window-height="694"
     id="namedview38"
     showgrid="false"
     inkscape:zoom="4.9166667"
     inkscape:cx="-75.152543"
     inkscape:cy="24"
     inkscape:window-x="0"
     inkscape:window-y="0"
     inkscape:window-maximized="1"
     inkscape:current-layer="svg2" />
  <defs
     id="defs4">
    <linearGradient
       id="0"
       y1="549.91"
       x2="0"
       y2="516.93"
       gradientUnits="userSpaceOnUse">
      <stop
         stop-color="#317a02"
         id="stop7" />
      <stop
         offset="1"
         stop-color="#8cff58"
         id="stop9" />
    </linearGradient>
    <linearGradient
       id="1"
       gradientUnits="userSpaceOnUse"
       y1="549.91"
       x2="0"
       y2="516.93">
      <stop
         stop-color="#4da70e"
         id="stop12" />
      <stop
         offset="1"
         stop-color="#9ded46"
         id="stop14" />
    </linearGradient>
  </defs>
  <path
     inkscape:connector-curvature="0"
     id="path3348"
     d="M 21.651208,47.795776 C 15.617836,47.4396 10.70586,46.020722 8.5835244,44.021035 7.8278398,43.309021 7.6233108,42.927708 7.3993679,41.813365 6.7813325,38.738016 0.70873756,10.603134 0.54994221,10.079351 -0.53731319,6.493069 3.8990291,3.2448883 12.314787,1.4654208 c 1.927322,-0.4075216 4.85585,-0.81108935 7.179749,-0.98941057 2.086504,-0.16010558 6.929302,-0.16010558 9.015805,0 10.180904,0.78121727 17.802101,3.80321287 18.950491,7.51434407 0.221749,0.716607 0.20285,1.26433 -0.07781,2.2552367 -0.303598,1.071874 -6.851602,31.634635 -6.851602,31.979808 0,0.140108 -0.165851,0.54055 -0.36856,0.88987 -1.028685,1.772704 -4.477865,3.343662 -9.136119,4.161123 -2.592744,0.454992 -6.654621,0.680012 -9.375529,0.519384 z"
     style="fill:#ff2a2a;stroke-width:0.78468841" />
  <path
     inkscape:connector-curvature="0"
     id="path3340"
     d="M 21.286972,15.119089 C 13.944761,14.803887 7.1599767,13.052842 4.2300819,10.716976 3.4865553,10.124199 2.8938386,9.2786517 2.8959032,8.8136916 2.8994164,8.0267845 4.0230791,6.8509028 5.5994709,5.9845233 12.345933,2.2766943 26.306899,1.2893138 36.541058,3.7961973 c 3.535099,0.865932 6.20619,2.0458082 7.681715,3.3931745 0.99761,0.9109602 1.185716,1.4889911 0.752164,2.3113249 -1.018666,1.9321433 -5.554757,3.8993663 -11.262261,4.8842443 -2.297342,0.396426 -4.484463,0.6215 -7.194189,0.740343 -2.371856,0.104022 -2.67235,0.103674 -5.231515,-0.0061 z"
     style="fill:#cccccc;stroke-width:0.78468841" />
  <path
     style="opacity:1;fill:#f9de69;fill-opacity:1;stroke:none;stroke-width:1.94914401;stroke-miterlimit:4;stroke-dasharray:none;stroke-dashoffset:0;stroke-opacity:1"
     d="M 10.230611,12.640246 C 7.2786326,11.832184 7.2260965,11.715059 7.1907931,10.605044 7.1750899,10.111243 7.1536758,9.6247339 7.1432016,9.5239148 7.1188462,9.2893921 13.109152,5.6295464 13.536533,5.6178355 c 0.176408,-0.00484 0.550231,0.066346 0.830719,0.158177 l 0.509974,0.1669668 -0.495491,0.529724 c -2.019838,2.1593808 -3.16476,3.5523097 -3.16476,3.8502897 0,0.192297 0.300944,0.9183 0.668763,1.61334 0.367821,0.695041 0.645577,1.283677 0.617235,1.308083 -0.02834,0.02441 -1.087838,-0.279924 -2.272362,-0.60417 z"
     id="path3370"
     inkscape:connector-curvature="0"
     sodipodi:nodetypes="ssscscssscs" />
  <path
     style="opacity:1;fill:#1ba39c;fill-opacity:0.99607843;stroke:none;stroke-width:1.94914401;stroke-miterlimit:4;stroke-dasharray:none;stroke-dashoffset:0;stroke-opacity:1"
     d="m 38.724466,11.877665 c 0,-0.327786 -0.388064,-0.83575 -1.408867,-1.844181 -1.583149,-1.5639476 -1.607007,-1.4751829 0.462472,-1.7202823 0.905327,-0.1072218 1.021775,-0.080785 1.551225,0.3521771 1.028977,0.8414443 2.600964,2.5122332 2.355233,2.6369182 -0.222623,0.153804 -3.074132,1.196216 -3.340705,1.196216 -0.107858,0 0.380642,-0.372033 0.380642,-0.620848 z"
     id="path3374"
     inkscape:connector-curvature="0"
     sodipodi:nodetypes="sssscss" />
  <path
     style="opacity:1;fill:#ffffff;fill-opacity:1;stroke:none;stroke-width:1.94914401;stroke-miterlimit:4;stroke-dasharray:none;stroke-dashoffset:0;stroke-opacity:1"
     d="m 19.073073,14.187256 c -2.150842,-0.213097 -6.000153,-0.828236 -6.558741,-0.934443 -0.518589,-0.0986 -0.648018,-0.458907 -1.161703,-1.557614 -0.340645,-0.728603 -0.619358,-1.393304 -0.619358,-1.477113 0,-0.150032 2.568128,-2.9899476 4.654773,-5.1473908 0.586696,-0.606601 1.204818,-1.1045007 1.373607,-1.1064432 0.436428,-0.00502 8.135182,0.796522 8.677353,0.9034304 0.301368,0.059425 0.578918,0.3342185 0.838457,0.8301284 0.213381,0.4077141 0.509919,0.780852 0.65897,0.829196 0.149053,0.048344 1.351693,-0.103575 2.672534,-0.3375962 1.320839,-0.2340215 2.575972,-0.4254939 2.789183,-0.4254939 0.483054,0 6.65166,5.4694223 6.65166,5.8977253 0,0.347999 -0.03002,0.665167 -0.551919,0.813843 -0.494728,0.140935 -1.321354,0.41987 -2.454287,0.656165 -4.020057,0.838457 -5.999723,1.153228 -11.379665,1.20535 -2.720132,0.02635 -5.217513,-0.112749 -5.590864,-0.149744 z"
     id="path3361"
     inkscape:connector-curvature="0"
     sodipodi:nodetypes="ssssssssssssssss" />
</svg>
