<?xml version="1.0" encoding="UTF-8" standalone="no"?>
<svg
   xmlns:dc="http://purl.org/dc/elements/1.1/"
   xmlns:cc="http://creativecommons.org/ns#"
   xmlns:rdf="http://www.w3.org/1999/02/22-rdf-syntax-ns#"
   xmlns:svg="http://www.w3.org/2000/svg"
   xmlns="http://www.w3.org/2000/svg"
   xmlns:sodipodi="http://sodipodi.sourceforge.net/DTD/sodipodi-0.dtd"
   xmlns:inkscape="http://www.inkscape.org/namespaces/inkscape"
   viewBox="0 0 48 48"
   id="svg2"
   version="1.1"
   inkscape:version="0.91 r13725"
   sodipodi:docname="org.kde.contrib.simpledateandtime.svg">
  <metadata
     id="metadata34">
    <rdf:RDF>
      <cc:Work
         rdf:about="">
        <dc:format>image/svg+xml</dc:format>
        <dc:type
           rdf:resource="http://purl.org/dc/dcmitype/StillImage" />
        <dc:title></dc:title>
      </cc:Work>
    </rdf:RDF>
  </metadata>
  <sodipodi:namedview
     pagecolor="#848484"
     bordercolor="#666666"
     borderopacity="1"
     objecttolerance="10"
     gridtolerance="10"
     guidetolerance="10"
     inkscape:pageopacity="0"
     inkscape:pageshadow="2"
     inkscape:window-width="1280"
     inkscape:window-height="694"
     id="namedview32"
     showgrid="false"
     inkscape:zoom="4.9166667"
     inkscape:cx="-40.474577"
     inkscape:cy="24"
     inkscape:window-x="0"
     inkscape:window-y="0"
     inkscape:window-maximized="1"
     inkscape:current-layer="svg2" />
  <defs
     id="defs4">
    <linearGradient
       id="0"
       gradientUnits="userSpaceOnUse"
       x1="55.05"
       y1="57.62"
       x2="54.654"
       y2="36.752">
      <stop
         stop-color="#0a80fd"
         id="stop7" />
      <stop
         offset="1"
         stop-color="#56c5fa"
         id="stop9" />
    </linearGradient>
    <linearGradient
       id="linearGradient4256"
       gradientUnits="userSpaceOnUse"
       x1="346.57"
       y1="513.8"
       x2="361.57"
       y2="528.8">
      <stop
         id="stop4258"
         stop-color="#2e5d89" />
      <stop
         id="stop4260"
         stop-color="#1b92f4"
         offset="1" />
    </linearGradient>
    <linearGradient
       id="0-9"
       y1="7.758"
       x2="0"
       y2="-19.542"
       gradientUnits="userSpaceOnUse">
      <stop
         id="stop4276"
         stop-color="#dce2ff" />
      <stop
         id="stop4278"
         stop-color="#f8feff"
         offset="1" />
    </linearGradient>
  </defs>
  <g
     id="g20"
     style="fill:#0066ff"
     transform="matrix(1.146203,0,0,3.0095438,-38.740068,-117.80521)">
    <path
       inkscape:connector-curvature="0"
       id="path22"
       transform="translate(30.915001,23.190001)"
       d="m 3.9550781,16.099609 c -0.473,0 -0.7472187,0.275454 -0.8242187,0.814453 l 0,0.759766 c 0,0.462 0.3190312,0.757391 0.9570312,0.900391 0.539,0 0.8144532,0.462437 0.8144532,1.398437 l 0,11.089844 c 0,0.473 0.2754531,0.749172 0.8144531,0.826172 l 0.7792969,0 c 0.4729999,0 0.7491718,-0.275453 0.8261718,-0.814453 l 0,-14.150391 c 0,-0.473 -0.2754531,-0.747219 -0.8144531,-0.824219 l -2.5527344,0 z m 5.2695313,0 c -0.462,0 -0.7257344,0.275454 -0.8027344,0.814453 l 0,5.722657 c 0,0.473 0.2973437,0.758422 0.9023438,0.857422 0.3629999,0.099 0.6048437,0.26314 0.7148432,0.49414 0.11,0.814 0.428313,1.222657 0.945313,1.222657 l 4.798828,0 c 0.539,0.011 0.814453,0.05386 0.814453,0.130859 0.451,0 0.669922,0.450516 0.669922,1.353515 l 0,1.310547 c -0.022,0.539 -0.06486,0.802735 -0.130859,0.802735 0,0.451 -0.452469,0.68164 -1.355469,0.68164 l -6.5585938,0 c -0.462,0 -0.7257343,0.275454 -0.8027343,0.814454 l 0,0.759765 c 0,0.473 0.2637344,0.747219 0.8027343,0.824219 l 7.8574218,0 c 0.473,0 0.758422,-0.297344 0.857422,-0.902344 0.099,-0.363 0.265094,-0.604844 0.496094,-0.714844 0.803,-0.121 1.208984,-0.440031 1.208984,-0.957031 l 0,-3.917969 c 0,-0.473 -0.297344,-0.758422 -0.902344,-0.857422 -0.363,-0.099 -0.604843,-0.26314 -0.714843,-0.49414 -0.11,-0.814 -0.428313,-1.222656 -0.945313,-1.222656 l -4.798828,0 c -0.539,-0.011 -0.8125,-0.05386 -0.8125,-0.13086 -0.451,0 -0.671875,-0.450515 -0.671875,-1.353515 l 0,-1.355469 c 0.022,-0.539 0.06681,-0.802734 0.132813,-0.802734 0,-0.451001 0.450515,-0.681641 1.353515,-0.681641 l 6.558594,0 c 0.462,0 0.725734,-0.275453 0.802734,-0.814453 l 0,-0.757813 c 0,-0.473 -0.263734,-0.749172 -0.802734,-0.826172 l -9.6171876,0 z m 19.9492186,0 c -0.471704,8.2e-4 -0.747334,0.276258 -0.824219,0.814453 l 0,0.759766 c 0,0.462 0.319032,0.757391 0.957032,0.900391 0.539,0 0.814453,0.462437 0.814453,1.398437 l 0,11.089844 c 0,0.473 0.275453,0.749172 0.814453,0.826172 l 0.78125,0 c 0.473,0 0.747219,-0.275453 0.824219,-0.814453 l 0,-14.150391 c 0,-0.473 -0.275453,-0.747219 -0.814454,-0.824219 l -2.550781,0 -0.002,0 z m 5.271484,0 c -0.462,0 -0.725734,0.275454 -0.802734,0.814453 l 0,0.759766 c 0,0.473 0.263734,0.747219 0.802734,0.824219 l 6.558594,0 c 0.539,0.022 0.814453,0.06681 0.814453,0.132812 0.451,0 0.669922,0.450516 0.669922,1.353516 l 0,1.353516 c -0.022,0.539 -0.06486,0.814453 -0.130859,0.814453 0,0.451 -0.450516,0.669922 -1.353516,0.669922 l -4.798828,0 c -0.473,0 -0.758422,0.297343 -0.857422,0.902343 -0.099,0.374 -0.265093,0.616563 -0.496094,0.726563 -0.802999,0.11 -1.208984,0.428312 -1.208984,0.945312 l 0,3.917969 c 0,0.484 0.297344,0.771375 0.902344,0.859375 0.363,0.099 0.604844,0.263141 0.714844,0.494141 0.11,0.814 0.428312,1.220703 0.945312,1.220703 l 7.857422,0 c 0.462,0 0.725734,-0.275453 0.802734,-0.814453 l 0,-0.757813 c 0,-0.473 -0.263734,-0.749172 -0.802734,-0.826172 l -6.558594,0 c -0.539,-0.022 -0.814453,-0.06486 -0.814453,-0.130859 -0.451,0 -0.671875,-0.450516 -0.671875,-1.353516 l 0,-1.310547 c 0.022,-0.539 0.06681,-0.814453 0.132813,-0.814453 0,-0.451 0.450515,-0.669921 1.353515,-0.669921 l 4.798828,0 c 0.473,0 0.758422,-0.297344 0.857422,-0.902344 0.099,-0.374 0.263141,-0.616563 0.494141,-0.726563 0.803,-0.11 1.210937,-0.428312 1.210937,-0.945312 l 0,-3.962891 c 0,-0.484 -0.297343,-0.769422 -0.902343,-0.857422 -0.363,-0.099 -0.604844,-0.265094 -0.714844,-0.496094 -0.11,-0.814 -0.428313,-1.220703 -0.945313,-1.220703 l -7.857422,0 z m -11.060546,4.132813 0,2.794922 2.322265,0 0,-2.794922 -2.322265,0 z m 0,8.857422 0,2.794922 2.322265,0 0,-2.794922 -2.322265,0 z"
       style="fill:#0066ff;fill-opacity:1" />
  </g>
</svg>
