<?xml version="1.0" encoding="UTF-8" standalone="no"?>
<svg
   xmlns:dc="http://purl.org/dc/elements/1.1/"
   xmlns:cc="http://creativecommons.org/ns#"
   xmlns:rdf="http://www.w3.org/1999/02/22-rdf-syntax-ns#"
   xmlns:svg="http://www.w3.org/2000/svg"
   xmlns="http://www.w3.org/2000/svg"
   xmlns:sodipodi="http://sodipodi.sourceforge.net/DTD/sodipodi-0.dtd"
   xmlns:inkscape="http://www.inkscape.org/namespaces/inkscape"
   viewBox="0 0 48 48"
   id="svg2"
   version="1.1"
   inkscape:version="0.91 r13725"
   sodipodi:docname="org.kde.ktpcontactlist.svg">
  <metadata
     id="metadata24">
    <rdf:RDF>
      <cc:Work
         rdf:about="">
        <dc:format>image/svg+xml</dc:format>
        <dc:type
           rdf:resource="http://purl.org/dc/dcmitype/StillImage" />
        <dc:title></dc:title>
      </cc:Work>
    </rdf:RDF>
  </metadata>
  <sodipodi:namedview
     pagecolor="#ffffff"
     bordercolor="#666666"
     borderopacity="1"
     objecttolerance="10"
     gridtolerance="10"
     guidetolerance="10"
     inkscape:pageopacity="0"
     inkscape:pageshadow="2"
     inkscape:window-width="1280"
     inkscape:window-height="694"
     id="namedview22"
     showgrid="false"
     inkscape:zoom="4.9166667"
     inkscape:cx="-17.239359"
     inkscape:cy="24"
     inkscape:window-x="0"
     inkscape:window-y="0"
     inkscape:window-maximized="1"
     inkscape:current-layer="svg2" />
  <defs
     id="defs4">
    <linearGradient
       gradientUnits="userSpaceOnUse"
       y2="7.379"
       x2="89.41"
       y1="47.992"
       x1="89.45"
       id="0"
       gradientTransform="matrix(1,0,0,1.0938145,-65.08,-7.3870667)">
      <stop
         stop-color="#1074f5"
         id="stop7" />
      <stop
         offset="1"
         stop-color="#02befd"
         id="stop9" />
    </linearGradient>
    <linearGradient
       gradientTransform="matrix(-0.55335,0,0,0.65904511,242.23,-311.87221)"
       gradientUnits="userSpaceOnUse"
       y2="507.87"
       x2="0"
       y1="546.8"
       id="1">
      <stop
         stop-color="#d3d3d3"
         id="stop12" />
      <stop
         offset="1"
         stop-color="#fcf9f9"
         id="stop14" />
    </linearGradient>
  </defs>
  <g
     transform="matrix(0.82115722,0,0,0.83019518,0.28813581,-0.07565806)"
     id="g4182">
    <path
       style="fill:#ffcc00"
       d="m 44,17.509919 0,22.903238 c 0,2.948896 -2.207,5.339864 -4.929,5.339864 L 22,45.829939 l -10,11.91692 0,-11.91692 -7.071,0 C 2.207,45.829939 0,43.438971 0,40.490075 L 0,17.586838 c 0,-2.948896 2.207,-5.339864 4.929,-5.339864 l 34.141,-0.07692 c 2.723,0 4.93,2.390967 4.93,5.339863 z"
       id="path5"
       inkscape:connector-curvature="0" />
    <path
       style="fill:#ff6600"
       d="M 53.071,0.32897027 18.93,0.25313533 c -2.723,0 -4.93,2.39096757 -4.93,5.33986367 l 0,6.632308 25.071,-0.05634 c 2.722,0 4.929,2.390968 4.929,5.340947 l 0,19.978176 7,8.341844 0,-11.91692 2.071,0 c 2.722,0 4.929,-2.390968 4.929,-5.339864 L 58,5.6699173 C 58,2.7199378 55.793,0.32897027 53.071,0.32897027 Z"
       id="path7"
       inkscape:connector-curvature="0" />
    <ellipse
       ry="3.2500691"
       rx="3"
       style="fill:#fff6d5"
       cx="11"
       cy="29.487509"
       id="circle9" />
    <ellipse
       ry="3.2500691"
       rx="3"
       style="fill:#fff6d5"
       cx="22"
       cy="29.487509"
       id="circle11" />
    <ellipse
       ry="3.2500691"
       rx="3"
       style="fill:#fff6d5"
       cx="33"
       cy="29.487509"
       id="circle13" />
  </g>
</svg>
