<?xml version="1.0" encoding="UTF-8" standalone="no"?>
<svg
   xmlns:dc="http://purl.org/dc/elements/1.1/"
   xmlns:cc="http://creativecommons.org/ns#"
   xmlns:rdf="http://www.w3.org/1999/02/22-rdf-syntax-ns#"
   xmlns:svg="http://www.w3.org/2000/svg"
   xmlns="http://www.w3.org/2000/svg"
   xmlns:sodipodi="http://sodipodi.sourceforge.net/DTD/sodipodi-0.dtd"
   xmlns:inkscape="http://www.inkscape.org/namespaces/inkscape"
   viewBox="0 0 48 48"
   id="svg2"
   version="1.1"
   inkscape:version="0.91 r13725"
   sodipodi:docname="RSS_feeds.svg">
  <metadata
     id="metadata29">
    <rdf:RDF>
      <cc:Work
         rdf:about="">
        <dc:format>image/svg+xml</dc:format>
        <dc:type
           rdf:resource="http://purl.org/dc/dcmitype/StillImage" />
        <dc:title></dc:title>
      </cc:Work>
    </rdf:RDF>
  </metadata>
  <sodipodi:namedview
     pagecolor="#ffffff"
     bordercolor="#666666"
     borderopacity="1"
     objecttolerance="10"
     gridtolerance="10"
     guidetolerance="10"
     inkscape:pageopacity="0"
     inkscape:pageshadow="2"
     inkscape:window-width="1280"
     inkscape:window-height="694"
     id="namedview27"
     showgrid="false"
     inkscape:zoom="4.9166667"
     inkscape:cx="-9.1525424"
     inkscape:cy="24"
     inkscape:window-x="0"
     inkscape:window-y="0"
     inkscape:window-maximized="1"
     inkscape:current-layer="svg2" />
  <defs
     id="defs4">
    <linearGradient
       gradientUnits="userSpaceOnUse"
       y2="517.8"
       x2="0"
       y1="545.8"
       id="linearGradient6">
      <stop
         stop-color="#3889e9"
         id="stop8" />
      <stop
         offset="1"
         stop-color="#5ea5fb"
         id="stop10" />
    </linearGradient>
    <linearGradient
       y2="518.14"
       x2="0"
       y1="545.14"
       gradientUnits="userSpaceOnUse"
       id="0">
      <stop
         stop-color="#f15f19"
         id="stop13" />
      <stop
         offset="1"
         stop-color="#fbb521"
         id="stop15" />
    </linearGradient>
  </defs>
  <path
     style="fill:#ff6600;fill-opacity:0.85399996"
     inkscape:connector-curvature="0"
     id="path25"
     d="m 4.9023692,0.41242018 c 3.9256107,0 7.7048708,0.50808934 11.3374448,1.52342112 3.632574,1.0161767 7.033047,2.4535104 10.201423,4.3128463 3.16812,1.8593339 6.052319,4.0891834 8.651838,6.6887064 2.599771,2.599861 4.829365,5.483811 6.688696,8.651854 1.85933,3.168295 3.296662,6.568859 4.312839,10.20144 1.016174,3.632581 1.523418,7.412016 1.523418,11.337465 0,1.239669 -0.438964,2.298215 -1.317061,3.176565 -0.878098,0.878353 -1.936895,1.316981 -3.176562,1.316981 -1.239752,0 -2.29821,-0.438796 -3.176898,-1.316981 -0.877929,-0.878097 -1.316978,-1.936896 -1.316978,-3.176565 0,-3.099425 -0.404696,-6.086936 -1.213924,-8.962446 C 36.607379,31.291039 35.470343,28.604499 34.00769,26.108029 32.544197,23.61139 30.788678,21.338579 28.739447,19.290188 26.69047,17.241292 24.418169,15.485433 21.921619,14.021936 19.425068,12.558438 16.739463,11.422075 13.863955,10.613015 10.98845,9.8037881 8.0015359,9.3991737 4.9023692,9.3991737 3.662702,9.3991737 2.6041586,8.9601239 1.7257246,8.0820265 0.84762668,7.203927 0.40857772,6.1450437 0.40857772,4.9053744 c 0,-1.2396692 0.43904896,-2.2982146 1.31714688,-3.1766501 0.8780115,-0.87801492 1.936893,-1.31706464 3.17656,-1.31706464 m 0,16.99396034 c 3.5464851,0 6.8785964,0.680264 9.9946424,2.039951 3.116383,1.360528 5.837099,3.202476 8.161474,5.526517 2.32446,2.324463 4.166826,5.04468 5.526509,8.160645 1.360528,3.116728 2.039947,6.448169 2.039947,9.995504 0,1.23967 -0.438964,2.298215 -1.316976,3.176566 -0.878098,0.8781 -1.936895,1.31698 -3.1769,1.31698 -1.239665,0 -2.298211,-0.438796 -3.17656,-1.31698 -0.878098,-0.878097 -1.317145,-1.936896 -1.317145,-3.176566 0,-2.307331 -0.439049,-4.47658 -1.317146,-6.50809 C 19.442033,34.588636 18.245411,32.815389 16.730261,31.299563 15.215114,29.78433 13.441702,28.58779 11.40969,27.709605 9.3781834,26.831675 7.2085976,26.392627 4.9016086,26.392627 c -1.239665,0 -2.2982106,-0.438965 -3.1766445,-1.317064 -0.87809794,-0.878182 -1.31714493,-1.937066 -1.31714493,-3.176735 0,-1.23967 0.43904699,-2.298215 1.31714493,-3.176652 0.878098,-0.878266 1.9369795,-1.317316 3.1766445,-1.317316 m 8.2644444,23.60502 c 0,0.8954 -0.163559,1.721761 -0.490703,2.47942 -0.327133,0.757828 -0.77479,1.420454 -1.34297,1.98872 -0.568181,0.567928 -1.239667,1.015334 -2.0144598,1.342975 -0.7747902,0.32705 -1.5926269,0.490448 -2.4535062,0.490448 -0.8953146,0 -1.7217586,-0.16356 -2.4793322,-0.490448 C 3.6275083,46.493945 2.9646311,46.045863 2.3964506,45.47802 1.8282699,44.909838 1.3802756,44.24696 1.0534777,43.4893 0.72634377,42.731641 0.56277682,41.90528 0.56277682,41.00988 c 0,-0.860628 0.16355909,-1.678635 0.49070088,-2.453511 0.3271339,-0.775132 0.7747922,-1.446618 1.3429729,-2.014547 0.5681805,-0.56818 1.2310577,-1.016177 1.9886312,-1.342973 0.7575736,-0.327051 1.5840176,-0.490702 2.4793322,-0.490702 0.8608793,0 1.678716,0.163657 2.4535062,0.490702 0.7747928,0.327219 1.4466168,0.774793 2.0144598,1.342973 0.56818,0.568012 1.016175,1.239669 1.34297,2.014547 0.327137,0.774625 0.490703,1.592376 0.490703,2.453511 z" />
</svg>
