<?xml version="1.0" encoding="UTF-8" standalone="no"?>
<svg
   xmlns:dc="http://purl.org/dc/elements/1.1/"
   xmlns:cc="http://creativecommons.org/ns#"
   xmlns:rdf="http://www.w3.org/1999/02/22-rdf-syntax-ns#"
   xmlns:svg="http://www.w3.org/2000/svg"
   xmlns="http://www.w3.org/2000/svg"
   xmlns:xlink="http://www.w3.org/1999/xlink"
   xmlns:sodipodi="http://sodipodi.sourceforge.net/DTD/sodipodi-0.dtd"
   xmlns:inkscape="http://www.inkscape.org/namespaces/inkscape"
   viewBox="0 0 64 64"
   id="svg13202"
   version="1.1"
   inkscape:version="0.91 r13725"
   sodipodi:docname="certificate-server.svg">
  <metadata
     id="metadata13228">
    <rdf:RDF>
      <cc:Work
         rdf:about="">
        <dc:format>image/svg+xml</dc:format>
        <dc:type
           rdf:resource="http://purl.org/dc/dcmitype/StillImage" />
        <dc:title />
      </cc:Work>
    </rdf:RDF>
  </metadata>
  <sodipodi:namedview
     pagecolor="#ffffff"
     bordercolor="#666666"
     borderopacity="1"
     objecttolerance="10"
     gridtolerance="10"
     guidetolerance="10"
     inkscape:pageopacity="0"
     inkscape:pageshadow="2"
     inkscape:window-width="1280"
     inkscape:window-height="688"
     id="namedview13226"
     showgrid="false"
     inkscape:zoom="3.6875"
     inkscape:cx="-41.526324"
     inkscape:cy="32"
     inkscape:window-x="0"
     inkscape:window-y="0"
     inkscape:window-maximized="1"
     inkscape:current-layer="svg13202" />
  <defs
     id="defs13204">
    <linearGradient
       xlink:href="#1"
       id="3"
       x1="-19.915"
       y1="1048.7"
       x2="-19.996"
       y2="1025.51"
       gradientUnits="userSpaceOnUse"
       gradientTransform="translate(51.949,-1001.46)" />
    <linearGradient
       gradientUnits="userSpaceOnUse"
       y2="354.29"
       x2="-704.05"
       y1="647.77"
       x1="-701.19"
       id="2"
       gradientTransform="matrix(0.01590505,0,0,0.01845141,129.51168,-45.007092)">
      <stop
         stop-color="#93cfff"
         id="stop13208" />
      <stop
         offset="1"
         stop-color="#cde8fe"
         id="stop13210" />
    </linearGradient>
    <linearGradient
       xlink:href="#1"
       id="0"
       x1="59.12"
       y1="-13.295"
       x2="59.15"
       y2="-37.783"
       gradientUnits="userSpaceOnUse"
       gradientTransform="matrix(0.52660675,0,0,0.52570737,-19.441377,28.676662)" />
    <linearGradient
       id="1">
      <stop
         stop-color="#289bf7"
         id="stop13214" />
      <stop
         offset="1"
         stop-color="#71b9f1"
         id="stop13216" />
    </linearGradient>
  </defs>
  <path
     inkscape:connector-curvature="0"
     style="fill:#2a2aff"
     d="m 63.983049,18.416896 -63.69491529,0 0,-15.819388 c 0,-1.2801423 1.00594039,-2.31785064 2.24689309,-2.31785064 l 59.2011292,0 c 1.240953,0 2.246893,1.03770834 2.246893,2.31785064 l 0,15.819388 z"
     id="path3" />
  <rect
     x="3.5826983"
     y="18.416897"
     style="fill:#2a2aff"
     width="57.105785"
     height="45.303448"
     id="rect5" />
  <path
     inkscape:connector-curvature="0"
     style="fill:#000055"
     d="m 42.019285,13.885418 -19.767387,0 c -2.425898,0 -4.392753,-2.028968 -4.392753,-4.5314771 l 0,0 c 0,-2.5025085 1.966855,-4.5314774 4.392753,-4.5314774 l 19.767387,0 c 2.425898,0 4.392753,2.0289689 4.392753,4.5314774 l 0,0 c 0,2.5025091 -1.966855,4.5314771 -4.392753,4.5314771 z"
     id="path7" />
  <rect
     x="3.5826983"
     y="58.055992"
     style="fill:#000055"
     width="57.105785"
     height="5.6643467"
     id="rect9" />
  <rect
     x="16.760956"
     y="27.468521"
     style="fill:#d5d5ff"
     width="30.749269"
     height="15.860171"
     id="rect11" />
  <path
     id="path15"
     d="m 21.15371,34.265739 6.589129,0 c 0.607298,0 1.098188,-0.506392 1.098188,-1.132869 0,-0.626477 -0.49089,-1.132869 -1.098188,-1.132869 l -6.589129,0 c -0.607299,0 -1.098189,0.506392 -1.098189,1.132869 0,0.626477 0.49089,1.132869 1.098189,1.132869 z"
     style="fill:#000055"
     inkscape:connector-curvature="0" />
  <path
     id="path17"
     d="m 32.135592,34.265739 c 0.285528,0 0.571057,-0.124615 0.779713,-0.328532 0.197674,-0.215245 0.318475,-0.509791 0.318475,-0.804337 0,-0.295679 -0.120801,-0.590225 -0.318475,-0.804337 -0.417311,-0.419162 -1.153097,-0.419162 -1.559427,0 -0.198772,0.214112 -0.318475,0.508658 -0.318475,0.804337 0,0.305875 0.119703,0.589092 0.318475,0.804337 0.207557,0.203917 0.482105,0.328532 0.779714,0.328532 z"
     style="fill:#000055"
     inkscape:connector-curvature="0" />
  <path
     id="path19"
     d="m 43.117474,36.531478 -17.571012,0 c -0.607298,0 -1.098188,0.506393 -1.098188,1.13287 0,0.626476 0.49089,1.132869 1.098188,1.132869 l 17.571012,0 c 0.607298,0 1.098188,-0.506393 1.098188,-1.132869 0,-0.626477 -0.49089,-1.13287 -1.098188,-1.13287 z"
     style="fill:#000055"
     inkscape:connector-curvature="0" />
  <path
     id="path21"
     d="m 20.373996,36.86001 c -0.198772,0.214113 -0.318475,0.508659 -0.318475,0.804338 0,0.294546 0.119703,0.589092 0.318475,0.804337 0.207557,0.203916 0.482105,0.328532 0.779714,0.328532 0.29651,0 0.571057,-0.124616 0.779713,-0.328532 0.197674,-0.215245 0.318475,-0.509791 0.318475,-0.804337 0,-0.295679 -0.120801,-0.590225 -0.318475,-0.804338 -0.40633,-0.419161 -1.142116,-0.419161 -1.559427,0 z"
     style="fill:#000055"
     inkscape:connector-curvature="0" />
  <rect
     x="3.5826983"
     y="18.405567"
     style="fill:#000055"
     width="57.105785"
     height="5.6643467"
     id="rect23" />
  <g
     id="XMLID_503_"
     transform="matrix(0.06691525,0,0,0.04738892,42.535932,0.31779603)"
     style="fill:#ffffff">
    <g
       id="XMLID_511_"
       style="fill:#ffffff">
      <g
         id="XMLID_1307_"
         style="fill:#ffffff">
        <g
           id="XMLID_1308_"
           style="fill:#ffffff">
          <g
             id="XMLID_1309_"
             style="fill:#ffffff">
            <path
               inkscape:connector-curvature="0"
               d="M 185,290 C 129.86,290 85,245.14 85,190 l 0,-90 C 85,44.86 129.86,0 185,0 240.14,0 285,44.86 285,100 l 0,90 c 0,55.14 -44.86,100 -100,100 z m 0,-250 c -33.084,0 -60,26.916 -60,60 l 0,90 c 0,33.084 26.916,60 60,60 33.084,0 60,-26.916 60,-60 l 0,-90 C 245,66.916 218.084,40 185,40 Z"
               style="fill:#ffffff"
               id="XMLID_1310_" />
          </g>
        </g>
      </g>
    </g>
    <path
       inkscape:connector-curvature="0"
       d="m 185,0 0,40 c 33.084,0 60,26.916 60,60 l 0,90 c 0,33.084 -26.916,60 -60,60 l 0,40 c 55.14,0 100,-44.86 100,-100 l 0,-90 C 285,44.86 240.14,0 185,0 Z"
       style="fill:#ffffff"
       id="XMLID_524_" />
  </g>
  <g
     id="XMLID_525_"
     transform="matrix(0.06691525,0,0,0.04738892,42.535932,0.31779603)"
     style="fill:#ffffff">
    <circle
       r="125"
       cy="245"
       cx="185"
       style="fill:#ffffff"
       id="XMLID_526_" />
    <path
       inkscape:connector-curvature="0"
       d="m 185,120 0,250 c 69.036,0 125,-55.964 125,-125 0,-69.036 -55.964,-125 -125,-125 z"
       style="fill:#ffffff"
       id="XMLID_531_" />
  </g>
  <g
     id="XMLID_532_"
     transform="matrix(0.06691525,0,0,0.04738892,42.535932,0.31779603)"
     style="fill:#2a2aff">
    <path
       inkscape:connector-curvature="0"
       d="m 216.25,231.607 c 0,-17.259 -13.991,-31.25 -31.25,-31.25 -17.259,0 -31.25,13.991 -31.25,31.25 0,11.565 6.287,21.655 15.625,27.059 l 0,30.977 31.25,0 0,-30.977 c 9.338,-5.404 15.625,-15.494 15.625,-27.059 z"
       style="fill:#2a2aff"
       id="XMLID_535_" />
    <path
       inkscape:connector-curvature="0"
       d="m 185,200.357 0,89.286 15.625,0 0,-30.977 c 9.338,-5.404 15.625,-15.494 15.625,-27.059 0,-17.259 -13.991,-31.25 -31.25,-31.25 z"
       style="fill:#2a2aff"
       id="XMLID_783_" />
  </g>
</svg>
