<?xml version="1.0" encoding="UTF-8" standalone="no"?>
<svg
   xmlns:dc="http://purl.org/dc/elements/1.1/"
   xmlns:cc="http://creativecommons.org/ns#"
   xmlns:rdf="http://www.w3.org/1999/02/22-rdf-syntax-ns#"
   xmlns:svg="http://www.w3.org/2000/svg"
   xmlns="http://www.w3.org/2000/svg"
   xmlns:sodipodi="http://sodipodi.sourceforge.net/DTD/sodipodi-0.dtd"
   xmlns:inkscape="http://www.inkscape.org/namespaces/inkscape"
   viewBox="0 0 48 48"
   id="svg2"
   version="1.1"
   inkscape:version="0.91 r13725"
   sodipodi:docname="distributor-logo-guix.svg">
  <metadata
     id="metadata35">
    <rdf:RDF>
      <cc:Work
         rdf:about="">
        <dc:format>image/svg+xml</dc:format>
        <dc:type
           rdf:resource="http://purl.org/dc/dcmitype/StillImage" />
        <dc:title></dc:title>
      </cc:Work>
    </rdf:RDF>
  </metadata>
  <sodipodi:namedview
     pagecolor="#ffffff"
     bordercolor="#666666"
     borderopacity="1"
     objecttolerance="10"
     gridtolerance="10"
     guidetolerance="10"
     inkscape:pageopacity="0"
     inkscape:pageshadow="2"
     inkscape:window-width="1280"
     inkscape:window-height="694"
     id="namedview33"
     showgrid="false"
     inkscape:zoom="4.9166667"
     inkscape:cx="-9.1525424"
     inkscape:cy="24"
     inkscape:window-x="0"
     inkscape:window-y="0"
     inkscape:window-maximized="1"
     inkscape:current-layer="svg2" />
  <defs
     id="defs4">
    <linearGradient
       y2="517.8"
       x2="0"
       y1="545.8"
       gradientUnits="userSpaceOnUse"
       id="linearGradient6">
      <stop
         stop-color="#3889e9"
         id="stop8" />
      <stop
         offset="1"
         stop-color="#5ea5fb"
         id="stop10" />
    </linearGradient>
    <linearGradient
       x1="-324.94"
       y1="649.74"
       x2="-328.21"
       y2="307.75"
       gradientUnits="userSpaceOnUse"
       id="linearGradient12">
      <stop
         stop-color="#016ed4"
         id="stop14" />
      <stop
         offset="1"
         stop-color="#00b1ff"
         id="stop16" />
    </linearGradient>
    <linearGradient
       gradientUnits="userSpaceOnUse"
       x1="346.57"
       y1="513.8"
       x2="361.57"
       y2="528.8"
       id="linearGradient18">
      <stop
         stop-color="#2e5d89"
         id="stop20" />
      <stop
         offset="1"
         stop-color="#1b92f4"
         id="stop22" />
    </linearGradient>
    <linearGradient
       gradientUnits="userSpaceOnUse"
       y2="516.48"
       x2="0"
       y1="546.93"
       id="0">
      <stop
         stop-color="#ff9300"
         id="stop25" />
      <stop
         offset="1"
         stop-color="#ffd702"
         id="stop27" />
    </linearGradient>
  </defs>
  <path
     d="M 1.7874404,0.32210169 0.24864407,1.2745736 c 0.57219685,2.3427903 1.17819963,4.3535643 1.81675623,6.0260966 0.6222798,1.6725323 1.322188,3.0587008 2.0959684,4.1460538 0.7737804,1.060377 1.63771,1.836466 2.596797,2.338641 0.9590872,0.502174 2.0433814,0.740811 3.2553873,0.740811 0.924029,0 1.690297,-0.06433 2.30882,-0.20751 2.850968,1.888342 5.516629,23.247369 8.289968,33.492149 l -0.005,0.01248 0.0075,0 6.214033,0 0.533383,0 c 2.774591,-10.238554 5.442756,-31.614181 8.294976,-33.492148 0.618523,0.143182 1.382287,0.20751 2.306316,0.20751 1.210753,0 2.298804,-0.240713 3.257891,-0.740812 0.959087,-0.502175 1.820513,-1.278263 2.594293,-2.33864 0.773781,-1.087353 1.473689,-2.4735216 2.095968,-4.1460539 0.639762,-1.6725324 1.247017,-3.6853813 1.819214,-6.0260967 L 46.190917,0.3345826 c -0.488307,1.4774727 -0.981623,2.6789569 -1.487461,3.6272785 -0.488308,0.9192703 -1.025447,1.6600818 -1.61392,2.2162092 -0.572197,0.529151 -1.223275,0.9109699 -1.946972,1.1350808 -0.706168,0.1950596 -1.517511,0.2925894 -2.442793,0.2925894 -0.682379,0 -1.295893,-0.056028 -1.834285,-0.1660082 -0.0026,0 -0.005,0 -0.0075,0 -0.06886,-0.00833 -0.211601,-0.047758 -0.356841,-0.08511 -0.153973,-0.039426 -0.310483,-0.078853 -0.557141,-0.153557 -4.536256,-1.3903184 -6.039995,3.8285637 -6.365533,5.2686847 -0.05134,0.226186 -0.07637,0.365218 -0.07637,0.365218 l -5.511623,25.471878 -5.51162,-25.471878 c 0,0 -0.02754,-0.139032 -0.07888,-0.365218 -0.325538,-1.440121 -1.829277,-6.6590031 -6.365534,-5.2686847 -0.24791,0.076779 -0.404418,0.1141305 -0.557171,0.1535575 -0.14524,0.037351 -0.286725,0.076779 -0.354337,0.085079 -0.0026,0 -0.0075,0 -0.01,0 C 10.574481,7.5496823 9.9609657,7.60571 9.2785865,7.60571 8.3533053,7.60571 7.5419627,7.508181 6.8357942,7.3131205 6.1120967,7.0910849 5.4635235,6.707191 4.8913266,6.17804 4.3028528,5.6198375 3.7632099,4.8811011 3.2749018,3.9618308 2.7703168,3.0135092 2.2757485,1.812025 1.7874404,0.3345523"
     id="path31"
     style="fill:#ffcc00;fill-opacity:0.628"
     inkscape:connector-curvature="0" />
</svg>
