<?xml version="1.0" encoding="UTF-8" standalone="no"?>
<svg
   xmlns:dc="http://purl.org/dc/elements/1.1/"
   xmlns:cc="http://creativecommons.org/ns#"
   xmlns:rdf="http://www.w3.org/1999/02/22-rdf-syntax-ns#"
   xmlns:svg="http://www.w3.org/2000/svg"
   xmlns="http://www.w3.org/2000/svg"
   xmlns:sodipodi="http://sodipodi.sourceforge.net/DTD/sodipodi-0.dtd"
   xmlns:inkscape="http://www.inkscape.org/namespaces/inkscape"
   viewBox="0 0 48 48"
   id="svg2"
   version="1.1"
   inkscape:version="0.91 r13725"
   sodipodi:docname="distributor-logo-slackware.svg">
  <metadata
     id="metadata28">
    <rdf:RDF>
      <cc:Work
         rdf:about="">
        <dc:format>image/svg+xml</dc:format>
        <dc:type
           rdf:resource="http://purl.org/dc/dcmitype/StillImage" />
        <dc:title></dc:title>
      </cc:Work>
    </rdf:RDF>
  </metadata>
  <sodipodi:namedview
     pagecolor="#ffffff"
     bordercolor="#666666"
     borderopacity="1"
     objecttolerance="10"
     gridtolerance="10"
     guidetolerance="10"
     inkscape:pageopacity="0"
     inkscape:pageshadow="2"
     inkscape:window-width="1280"
     inkscape:window-height="694"
     id="namedview26"
     showgrid="false"
     inkscape:zoom="4.9166667"
     inkscape:cx="-9.1525424"
     inkscape:cy="24"
     inkscape:window-x="0"
     inkscape:window-y="0"
     inkscape:window-maximized="1"
     inkscape:current-layer="svg2" />
  <defs
     id="defs4">
    <linearGradient
       y1="545.8"
       x2="0"
       y2="517.8"
       gradientUnits="userSpaceOnUse"
       id="linearGradient6">
      <stop
         stop-color="#3889e9"
         id="stop8" />
      <stop
         offset="1"
         stop-color="#5ea5fb"
         id="stop10" />
    </linearGradient>
    <linearGradient
       id="0"
       gradientUnits="userSpaceOnUse"
       x1="396.12"
       y1="544.26"
       x2="395.64"
       y2="518.27">
      <stop
         stop-color="#030303"
         id="stop13" />
      <stop
         offset="1"
         stop-color="#383838"
         id="stop15" />
    </linearGradient>
    <linearGradient
       id="1"
       x1="270.91"
       y1="568.02"
       x2="270.4"
       y2="536.48"
       gradientUnits="userSpaceOnUse">
      <stop
         stop-color="#197cf1"
         id="stop18" />
      <stop
         offset="1"
         stop-color="#20bcfa"
         id="stop20" />
    </linearGradient>
  </defs>
  <path
     d="m 9.4166919,44.585694 c 5.1082781,1.677558 9.8007921,2.592728 15.0135331,2.592728 14.284378,0 23.458387,-5.565885 23.458387,-13.796305 0,-7.014269 -6.046365,-11.208162 -17.932252,-12.344868 l -8.131462,-0.762386 c -7.820158,-0.762388 -11.67696,-2.973159 -11.67696,-6.708703 0,-4.7271061 5.526135,-8.0822209 13.866522,-8.0822209 5.421669,0 9.800792,1.5247744 11.990352,3.8883275 2.189561,2.3635534 1.564868,5.1090634 5.630598,5.1090634 2.398487,0 3.856803,-0.991561 3.856803,-2.74551 0,-0.152783 0,-0.229175 0,-0.381958 L 44.763056,3.5772071 C 44.554129,1.5956114 44.240737,0.75683275 40.592861,0.75683275 c -2.294024,0 -3.232107,0.45682125 -3.232107,1.90673195 -4.692515,-1.3719914 -8.758246,-2.21077013 -12.928439,-2.21077013 -13.137365,0 -22.5202999,6.02270623 -22.5202999,13.41893143 0,7.472617 6.6731443,11.055379 20.2262749,12.427371 l 7.506767,0.762386 c 6.464218,0.685997 9.905256,3.125941 9.905256,7.014269 0,4.574323 -5.735061,8.082221 -14.804606,8.082221 -7.29784,0 -12.619224,-2.134379 -14.8046063,-5.413102 -1.8761703,-2.745512 -1.3559413,-5.642277 -5.6305986,-5.642277 -3.1276456,0 -3.96126593,1.067953 -3.96126593,3.202331 0,0.229175 0,0.456822 0,0.762388 l 0.62469275,8.615434 C 1.1828565,46.351866 2.434334,47.571075 5.35305,47.571075 c 2.8142543,0 3.7544282,-0.762388 4.0657318,-2.973158"
     id="path24"
     style="fill:#2a7fff"
     inkscape:connector-curvature="0" />
</svg>
