<?xml version="1.0" encoding="UTF-8" standalone="no"?>
<svg
   xmlns:dc="http://purl.org/dc/elements/1.1/"
   xmlns:cc="http://creativecommons.org/ns#"
   xmlns:rdf="http://www.w3.org/1999/02/22-rdf-syntax-ns#"
   xmlns:svg="http://www.w3.org/2000/svg"
   xmlns="http://www.w3.org/2000/svg"
   xmlns:sodipodi="http://sodipodi.sourceforge.net/DTD/sodipodi-0.dtd"
   xmlns:inkscape="http://www.inkscape.org/namespaces/inkscape"
   viewBox="0 0 48 48"
   id="svg2"
   version="1.1"
   inkscape:version="0.91 r13725"
   sodipodi:docname="distributor-logo-ubuntu.svg">
  <metadata
     id="metadata25">
    <rdf:RDF>
      <cc:Work
         rdf:about="">
        <dc:format>image/svg+xml</dc:format>
        <dc:type
           rdf:resource="http://purl.org/dc/dcmitype/StillImage" />
        <dc:title></dc:title>
      </cc:Work>
    </rdf:RDF>
  </metadata>
  <sodipodi:namedview
     pagecolor="#ffffff"
     bordercolor="#666666"
     borderopacity="1"
     objecttolerance="10"
     gridtolerance="10"
     guidetolerance="10"
     inkscape:pageopacity="0"
     inkscape:pageshadow="2"
     inkscape:window-width="1280"
     inkscape:window-height="694"
     id="namedview23"
     showgrid="false"
     inkscape:zoom="4.9166667"
     inkscape:cx="-9.1525424"
     inkscape:cy="24"
     inkscape:window-x="0"
     inkscape:window-y="0"
     inkscape:window-maximized="1"
     inkscape:current-layer="svg2" />
  <defs
     id="defs4">
    <linearGradient
       y1="545.8"
       x2="0"
       y2="517.8"
       gradientUnits="userSpaceOnUse"
       id="linearGradient6">
      <stop
         stop-color="#3889e9"
         id="stop8" />
      <stop
         offset="1"
         stop-color="#5ea5fb"
         id="stop10" />
    </linearGradient>
    <linearGradient
       id="0"
       gradientUnits="userSpaceOnUse"
       y1="545.14"
       x2="0"
       y2="518.14"
       gradientTransform="matrix(1.7142912,0,0,1.7142912,-662.71508,-887.65454)">
      <stop
         stop-color="#ff6835"
         id="stop13" />
      <stop
         offset="1"
         stop-color="#ff956f"
         id="stop15" />
    </linearGradient>
  </defs>
  <path
     style="fill:#ff7f2a;fill-opacity:0.85"
     inkscape:connector-curvature="0"
     id="path21"
     d="m 39.722142,0.58487177 c -0.22284,-0.00137 -0.441396,-0.0109831 -0.658523,0.002739 -1.442749,0.097436 -2.774077,0.86457753 -3.551163,2.15732693 -1.238479,2.0653798 -0.497106,4.6906761 1.657019,5.8846161 2.149839,1.1898233 4.886779,0.4981618 6.125257,-1.5740797 C 44.537496,4.9955839 43.826121,2.3222553 41.674853,1.1310596 41.069184,0.796213 40.387807,0.62466977 39.720713,0.58487177 M 27.920165,5.1630156 c -3.10834,0 -6.015265,0.7053853 -8.627926,1.9487307 l 3.124051,5.4180197 c 1.682732,-0.75479 3.525452,-1.199431 5.49959,-1.199431 6.870916,0 12.540492,5.050232 13.131877,11.508488 l 6.378096,-0.07685 C 47.107304,18.002674 44.940324,13.720956 41.613429,10.578286 39.9007,11.195842 37.95513,11.101149 36.248115,10.148742 34.541099,9.2004519 33.462608,7.615393 33.165488,5.8752593 31.501327,5.4361085 29.722889,5.1630117 27.914452,5.1630117 M 17.088117,8.3290128 C 13.149839,10.8555 10.248627,14.732376 9.0301462,19.25837 c 1.4256088,1.112972 2.2841158,2.779 2.2841158,4.685187 0,1.893837 -0.855651,3.620247 -2.2841158,4.740082 1.2184808,4.524622 4.1196928,8.385028 8.0579708,10.910145 l 3.295467,-5.323328 c -3.379747,-2.282211 -5.579582,-6.056159 -5.579582,-10.328271 0,-4.276228 2.199835,-8.04606 5.579582,-10.328272 z M 5.0090183,19.633021 c -2.4883858,0 -4.48680808,1.919911 -4.48680808,4.310536 0,2.382392 1.99842228,4.310537 4.48680808,4.310537 2.4898147,0 4.5096634,-1.929517 4.5096634,-4.310537 0,-2.390625 -2.0198487,-4.310536 -4.5096634,-4.310536 m 36.0401667,5.455073 c -0.591384,6.447278 -6.262389,11.508487 -13.131876,11.508487 -1.975567,0 -3.816857,-0.4268 -5.499589,-1.181589 l -3.124054,5.378221 c 2.606949,1.247463 5.515303,1.929517 8.627928,1.929517 1.808436,0 3.585446,-0.231925 5.251037,-0.675193 0.295692,-1.738762 1.372755,-3.318332 3.082627,-4.270739 1.7113,-0.94829 3.652585,-1.040237 5.365313,-0.414448 3.326895,-3.148161 5.493877,-7.420271 5.812424,-12.183682 z M 39.077904,38.71411 c -0.65138,0.05352 -1.308473,0.260745 -1.912714,0.598343 -2.154125,1.185705 -2.895499,3.805513 -1.65702,5.866776 1.242766,2.072241 4.011129,2.772137 6.163827,1.576824 2.152695,-1.192567 2.856929,-3.821981 1.619879,-5.887361 -0.777085,-1.292749 -2.129841,-2.057146 -3.571163,-2.154582 -0.215699,-0.01785 -0.425683,-0.01785 -0.641381,0" />
</svg>
