<?xml version="1.0" encoding="UTF-8" standalone="no"?>
<svg
   xmlns:dc="http://purl.org/dc/elements/1.1/"
   xmlns:cc="http://creativecommons.org/ns#"
   xmlns:rdf="http://www.w3.org/1999/02/22-rdf-syntax-ns#"
   xmlns:svg="http://www.w3.org/2000/svg"
   xmlns="http://www.w3.org/2000/svg"
   xmlns:xlink="http://www.w3.org/1999/xlink"
   xmlns:sodipodi="http://sodipodi.sourceforge.net/DTD/sodipodi-0.dtd"
   xmlns:inkscape="http://www.inkscape.org/namespaces/inkscape"
   viewBox="0 0 64 64"
   id="svg13202"
   version="1.1"
   inkscape:version="0.91 r13725"
   sodipodi:docname="folder-downloads.svg">
  <metadata
     id="metadata13228">
    <rdf:RDF>
      <cc:Work
         rdf:about="">
        <dc:format>image/svg+xml</dc:format>
        <dc:type
           rdf:resource="http://purl.org/dc/dcmitype/StillImage" />
        <dc:title></dc:title>
      </cc:Work>
    </rdf:RDF>
  </metadata>
  <sodipodi:namedview
     pagecolor="#ffffff"
     bordercolor="#666666"
     borderopacity="1"
     objecttolerance="10"
     gridtolerance="10"
     guidetolerance="10"
     inkscape:pageopacity="0"
     inkscape:pageshadow="2"
     inkscape:window-width="1280"
     inkscape:window-height="688"
     id="namedview13226"
     showgrid="false"
     inkscape:zoom="3.6875"
     inkscape:cx="-49.49271"
     inkscape:cy="32"
     inkscape:window-x="0"
     inkscape:window-y="0"
     inkscape:window-maximized="1"
     inkscape:current-layer="svg13202" />
  <defs
     id="defs13204">
    <linearGradient
       xlink:href="#1"
       id="3"
       x1="-19.915"
       y1="1048.7"
       x2="-19.996"
       y2="1025.51"
       gradientUnits="userSpaceOnUse"
       gradientTransform="translate(51.949,-1001.46)" />
    <linearGradient
       gradientUnits="userSpaceOnUse"
       y2="354.29"
       x2="-704.05"
       y1="647.77"
       x1="-701.19"
       id="2"
       gradientTransform="matrix(0.01590505,0,0,0.01845141,129.51168,-45.007092)">
      <stop
         stop-color="#93cfff"
         id="stop13208" />
      <stop
         offset="1"
         stop-color="#cde8fe"
         id="stop13210" />
    </linearGradient>
    <linearGradient
       xlink:href="#1"
       id="0"
       x1="59.12"
       y1="-13.295"
       x2="59.15"
       y2="-37.783"
       gradientUnits="userSpaceOnUse"
       gradientTransform="matrix(0.52660675,0,0,0.52570737,-19.441377,28.676662)" />
    <linearGradient
       id="1">
      <stop
         stop-color="#289bf7"
         id="stop13214" />
      <stop
         offset="1"
         stop-color="#71b9f1"
         id="stop13216" />
    </linearGradient>
  </defs>
  <path
     inkscape:connector-curvature="0"
     style="fill:#2a2aff"
     d="m 64.254236,18.494424 -63.96610073,0 0,-15.8870084 c 0,-1.2856144 1.01022323,-2.3277585 2.25645933,-2.3277585 l 59.4531814,0 c 1.246236,0 2.25646,1.0421441 2.25646,2.3277585 l 0,15.8870084 z"
     id="path3" />
  <rect
     x="3.5967267"
     y="18.494425"
     style="fill:#2a2aff"
     width="57.348919"
     height="45.497101"
     id="rect5" />
  <path
     inkscape:connector-curvature="0"
     style="fill:#000055"
     d="m 42.19696,13.943577 -19.851549,0 c -2.436226,0 -4.411455,-2.037642 -4.411455,-4.5508476 l 0,0 c 0,-2.5132056 1.975229,-4.5508476 4.411455,-4.5508476 l 19.851549,0 c 2.436226,0 4.411455,2.037642 4.411455,4.5508476 l 0,0 c 0,2.5132056 -1.975229,4.5508476 -4.411455,4.5508476 z"
     id="path7" />
  <rect
     x="3.5967267"
     y="58.302963"
     style="fill:#000055"
     width="57.348919"
     height="5.6885595"
     id="rect9" />
  <rect
     x="16.831093"
     y="27.584742"
     style="fill:#d5d5ff"
     width="30.880186"
     height="15.927967"
     id="rect11" />
  <path
     id="path15"
     d="m 21.242547,34.411014 6.617183,0 c 0.609884,0 1.102864,-0.508557 1.102864,-1.137712 0,-0.629154 -0.49298,-1.137712 -1.102864,-1.137712 l -6.617183,0 c -0.609883,0 -1.102863,0.508558 -1.102863,1.137712 0,0.629155 0.49298,1.137712 1.102863,1.137712 z"
     style="fill:#000055"
     inkscape:connector-curvature="0" />
  <path
     id="path17"
     d="m 32.271185,34.411014 c 0.286745,0 0.57349,-0.125148 0.783034,-0.329936 0.198515,-0.216166 0.31983,-0.511971 0.31983,-0.807776 0,-0.296943 -0.121315,-0.592748 -0.31983,-0.807775 -0.419088,-0.420954 -1.158007,-0.420954 -1.566067,0 -0.199618,0.215027 -0.31983,0.510832 -0.31983,0.807775 0,0.307182 0.120212,0.59161 0.31983,0.807776 0.208441,0.204788 0.484157,0.329936 0.783033,0.329936 z"
     style="fill:#000055"
     inkscape:connector-curvature="0" />
  <path
     id="path19"
     d="m 43.299823,36.686438 -17.64582,0 c -0.609884,0 -1.102864,0.508557 -1.102864,1.137712 0,0.629154 0.49298,1.137712 1.102864,1.137712 l 17.64582,0 c 0.609884,0 1.102864,-0.508558 1.102864,-1.137712 0,-0.629155 -0.49298,-1.137712 -1.102864,-1.137712 z"
     style="fill:#000055"
     inkscape:connector-curvature="0" />
  <path
     id="path21"
     d="m 20.459514,37.016374 c -0.199618,0.215028 -0.31983,0.510833 -0.31983,0.807776 0,0.295805 0.120212,0.59161 0.31983,0.807775 0.208441,0.204788 0.484157,0.329937 0.783033,0.329937 0.297774,0 0.57349,-0.125149 0.783034,-0.329937 0.198515,-0.216165 0.31983,-0.51197 0.31983,-0.807775 0,-0.296943 -0.121315,-0.592748 -0.31983,-0.807776 -0.40806,-0.420953 -1.146979,-0.420953 -1.566067,0 z"
     style="fill:#000055"
     inkscape:connector-curvature="0" />
  <rect
     x="3.5967267"
     y="18.483047"
     style="fill:#000055"
     width="57.348919"
     height="5.6885595"
     id="rect23" />
  <path
     inkscape:connector-curvature="0"
     style="fill:#ffffff"
     id="path24"
     d="m 55.322034,0.47325632 c -4.680856,0 -8.475897,3.97659418 -8.475897,8.88267568 0,4.906082 3.795041,8.882676 8.475897,8.882676 4.680855,0 8.475896,-3.977175 8.475896,-8.882676 0,-4.9055013 -3.794487,-8.88267568 -8.475896,-8.88267568 m 0,4.59605858 c 0.315879,0 0.571125,0.2689482 0.571125,0.5999877 l 0,6.3482094 2.359125,-2.4723443 c 0.223808,-0.2339684 0.585557,-0.233098 0.809919,0.00148 0.223808,0.2339683 0.223808,0.6127893 0,0.8473383 l -3.236352,3.393124 c -0.137332,0.143284 -0.326128,0.187639 -0.503568,0.154663 -0.177994,0.03297 -0.366209,-0.01077 -0.503568,-0.154692 l -3.236352,-3.393124 c -0.223808,-0.233969 -0.223808,-0.6127888 0,-0.8473382 0.223254,-0.2345494 0.584726,-0.2345494 0.808534,0 l 2.359125,2.4708932 0,-6.3482097 c 0,-0.3310395 0.256631,-0.5999877 0.57251,-0.5999877" />
</svg>
