<?xml version="1.0" encoding="UTF-8" standalone="no"?>
<!-- Created with Inkscape (http://www.inkscape.org/) -->

<svg
   xmlns:dc="http://purl.org/dc/elements/1.1/"
   xmlns:cc="http://creativecommons.org/ns#"
   xmlns:rdf="http://www.w3.org/1999/02/22-rdf-syntax-ns#"
   xmlns:svg="http://www.w3.org/2000/svg"
   xmlns="http://www.w3.org/2000/svg"
   xmlns:sodipodi="http://sodipodi.sourceforge.net/DTD/sodipodi-0.dtd"
   xmlns:inkscape="http://www.inkscape.org/namespaces/inkscape"
   width="10"
   height="10"
   id="svg3795"
   version="1.1"
   inkscape:version="0.91 r13725"
   sodipodi:docname="close_hover.svg">
  <defs
     id="defs3797" />
  <sodipodi:namedview
     id="base"
     pagecolor="#808080"
     bordercolor="#ffffff"
     borderopacity="0.0"
     inkscape:pageopacity="0.50196078"
     inkscape:pageshadow="0"
     inkscape:zoom="20.48"
     inkscape:cx="-6.0161003"
     inkscape:cy="1.5760216"
     inkscape:document-units="px"
     inkscape:current-layer="g4137"
     showgrid="true"
     inkscape:window-width="1280"
     inkscape:window-height="688"
     inkscape:window-x="0"
     inkscape:window-y="0"
     inkscape:window-maximized="1"
     borderlayer="true"
     showborder="true">
    <inkscape:grid
       type="xygrid"
       id="grid3556"
       empspacing="5"
       visible="true"
       enabled="true"
       snapvisiblegridlinesonly="true" />
  </sodipodi:namedview>
  <metadata
     id="metadata3800">
    <rdf:RDF>
      <cc:Work
         rdf:about="">
        <dc:format>image/svg+xml</dc:format>
        <dc:type
           rdf:resource="http://purl.org/dc/dcmitype/StillImage" />
        <dc:title />
      </cc:Work>
    </rdf:RDF>
  </metadata>
  <g
     id="g4137"
     transform="matrix(0.33466812,0,0,0.33466812,-8.0520568,2.657323)">
    <path
       style="opacity:1;fill:#ff0000;fill-opacity:1;stroke:#ff0000;stroke-width:4.23397875;stroke-linecap:round;stroke-linejoin:round;stroke-miterlimit:4;stroke-dasharray:none;stroke-opacity:1"
       d="m 27.657082,-5.5763876 c -0.277503,0 -0.551974,0.1083221 -0.763595,0.3216989 -0.423416,0.426725 -0.423416,1.1186766 0,1.5454049 l 8.174169,8.2379642 c 0.211523,0.2132799 0.486007,0.3216984 0.763624,0.3216984 0.277503,0 0.558043,-0.1084161 0.769837,-0.3216984 0.423416,-0.4267282 0.423416,-1.1186766 0,-1.545405 l -8.174188,-8.2379636 c -0.211687,-0.213377 -0.492331,-0.3216993 -0.769847,-0.3216993 z m 22.857674,0 c -0.277503,0 -0.558241,0.1083221 -0.769866,0.3216989 L 26.893487,17.781333 c -0.423416,0.42673 -0.423416,1.118685 0,1.545409 0.211628,0.213255 0.486014,0.321694 0.763595,0.321694 0.277593,0 0.558045,-0.108414 0.769847,-0.321694 L 51.278345,-3.7092838 c 0.423417,-0.4269093 0.423417,-1.1184959 0,-1.5454049 -0.211852,-0.2133768 -0.486071,-0.3216989 -0.763589,-0.3216989 z M 41.965034,9.0387481 c -0.277503,0.003 -0.554232,0.112448 -0.763586,0.3280041 -0.418903,0.431282 -0.408999,1.1232348 0.01907,1.5454068 l 8.53719,8.420897 c 0.211195,0.20817 0.483732,0.315389 0.757337,0.315389 0.28137,0 0.563754,-0.109432 0.776088,-0.327999 0.4189,-0.431272 0.409003,-1.123224 -0.01907,-1.545401 L 42.734868,9.3541487 C 42.520803,9.1429669 42.24249,9.0357451 41.965034,9.0387484 Z"
       id="path4143"
       inkscape:connector-curvature="0" />
  </g>
</svg>
