<?xml version="1.0" encoding="UTF-8" standalone="no"?>
<!-- Created with Inkscape (http://www.inkscape.org/) -->

<svg
   xmlns:dc="http://purl.org/dc/elements/1.1/"
   xmlns:cc="http://creativecommons.org/ns#"
   xmlns:rdf="http://www.w3.org/1999/02/22-rdf-syntax-ns#"
   xmlns:svg="http://www.w3.org/2000/svg"
   xmlns="http://www.w3.org/2000/svg"
   xmlns:sodipodi="http://sodipodi.sourceforge.net/DTD/sodipodi-0.dtd"
   xmlns:inkscape="http://www.inkscape.org/namespaces/inkscape"
   width="10"
   height="10"
   id="svg3795"
   version="1.1"
   inkscape:version="0.91 r13725"
   sodipodi:docname="help_hover.svg">
  <defs
     id="defs3797">
    <linearGradient
       id="0"
       x1="409.57"
       y1="542.8"
       x2="409.94"
       y2="508.63"
       gradientUnits="userSpaceOnUse"
       gradientTransform="matrix(1.05233,0,0,1.02761,-22.768,-10.984)">
      <stop
         id="stop4148"
         stop-color="#197cf1" />
      <stop
         id="stop4150"
         stop-color="#20bcfa"
         offset="1" />
    </linearGradient>
    <linearGradient
       id="1"
       x1="3.147"
       x2="18.772"
       gradientUnits="userSpaceOnUse">
      <stop
         id="stop4153"
         stop-color="#e6f3ff" />
      <stop
         id="stop4155"
         stop-color="#dcffe7"
         offset="1" />
    </linearGradient>
  </defs>
  <sodipodi:namedview
     id="base"
     pagecolor="#808080"
     bordercolor="#ffffff"
     borderopacity="0.0"
     inkscape:pageopacity="0.50196078"
     inkscape:pageshadow="0"
     inkscape:zoom="28.963094"
     inkscape:cx="-3.4263646"
     inkscape:cy="6.1132922"
     inkscape:document-units="px"
     inkscape:current-layer="svg3795"
     showgrid="true"
     inkscape:window-width="1280"
     inkscape:window-height="688"
     inkscape:window-x="0"
     inkscape:window-y="0"
     inkscape:window-maximized="1"
     borderlayer="true"
     showborder="true">
    <inkscape:grid
       type="xygrid"
       id="grid3556"
       empspacing="5"
       visible="true"
       enabled="true"
       snapvisiblegridlinesonly="true" />
  </sodipodi:namedview>
  <metadata
     id="metadata3800">
    <rdf:RDF>
      <cc:Work
         rdf:about="">
        <dc:format>image/svg+xml</dc:format>
        <dc:type
           rdf:resource="http://purl.org/dc/dcmitype/StillImage" />
        <dc:title />
      </cc:Work>
    </rdf:RDF>
  </metadata>
  <path
     style="fill:#0064ff;fill-opacity:1;fill-rule:evenodd;stroke:#0064ff;stroke-width:0.13746072;stroke-linecap:round;stroke-linejoin:round;stroke-miterlimit:4;stroke-dasharray:none;stroke-opacity:1"
     d="m 4.5112419,2.1424968 c -0.6171735,0 -1.1251558,0.1178548 -1.5265012,0.3547073 -0.3930802,0.2324115 -0.6724635,0.4966303 -0.834105,0.7912701 l 0.9955451,0.2790541 c 0.246133,-0.4952999 0.7019663,-0.7453814 1.3650611,-0.7453814 0.4013465,0 0.7123442,0.073495 0.9327628,0.2182798 0.2351138,0.1447786 0.3515793,0.3342582 0.3515793,0.5717487 0,0.1231915 -0.047156,0.247123 -0.1399133,0.3658693 C 5.5711715,4.0910732 5.4811153,4.1805022 5.3901918,4.2471743 5.3056921,4.3094041 5.1582768,4.4028267 4.950717,4.5349102 4.5805963,4.7616067 4.3218322,4.9612868 4.1758045,5.1314671 4.0288674,5.2965659 3.9551688,5.4950046 3.9551688,5.7267806 l 0,0.3646293 1.0870282,0 0,-0.3100593 c 0,-0.2838448 0.236519,-0.5669562 0.7067481,-0.8508016 L 5.8045528,4.892102 C 6.0056989,4.7682765 6.1616886,4.666319 6.2691436,4.5894838 6.3811961,4.5062986 6.5150326,4.3713693 6.6619809,4.1789654 6.8080068,3.9878266 6.8826142,3.7982327 6.8826142,3.612178 6.8826142,3.1841868 6.660631,2.8341433 6.2207121,2.5604581 5.7817068,2.2816905 5.2129097,2.1424968 4.5112419,2.1424968 Z m -0.014241,4.6620465 c -0.2231751,0 -0.4125396,0.051463 -0.5668328,0.1575081 -0.1460366,0.1009672 -0.2170387,0.2235675 -0.2170387,0.3683502 0,0.1447786 0.071017,0.2666624 0.2170383,0.3720711 0.1542986,0.1028725 0.3436628,0.1550302 0.5668369,0.1550302 0.2240895,0 0.4109165,-0.052154 0.5578621,-0.1550302 C 5.20916,7.5970597 5.286263,7.475183 5.286263,7.3304016 5.286263,7.1856231 5.2091581,7.0630173 5.0548664,6.9620514 4.9079111,6.8560067 4.7210827,6.8045433 4.496991,6.8045433 Z"
     id="path4186"
     inkscape:connector-curvature="0" />
</svg>
