<?xml version="1.0" encoding="UTF-8" standalone="no"?>
<svg
   xmlns:dc="http://purl.org/dc/elements/1.1/"
   xmlns:cc="http://creativecommons.org/ns#"
   xmlns:rdf="http://www.w3.org/1999/02/22-rdf-syntax-ns#"
   xmlns:svg="http://www.w3.org/2000/svg"
   xmlns="http://www.w3.org/2000/svg"
   xmlns:xlink="http://www.w3.org/1999/xlink"
   xmlns:sodipodi="http://sodipodi.sourceforge.net/DTD/sodipodi-0.dtd"
   xmlns:inkscape="http://www.inkscape.org/namespaces/inkscape"
   viewBox="0 0 64 64"
   id="svg2"
   version="1.1"
   inkscape:version="0.91 r13725"
   sodipodi:docname="weather-snow-rain.svg">
  <metadata
     id="metadata44">
    <rdf:RDF>
      <cc:Work
         rdf:about="">
        <dc:format>image/svg+xml</dc:format>
        <dc:type
           rdf:resource="http://purl.org/dc/dcmitype/StillImage" />
        <dc:title></dc:title>
      </cc:Work>
    </rdf:RDF>
  </metadata>
  <sodipodi:namedview
     pagecolor="#ffffff"
     bordercolor="#666666"
     borderopacity="1"
     objecttolerance="10"
     gridtolerance="10"
     guidetolerance="10"
     inkscape:pageopacity="0"
     inkscape:pageshadow="2"
     inkscape:window-width="1280"
     inkscape:window-height="694"
     id="namedview42"
     showgrid="false"
     inkscape:zoom="3.6875"
     inkscape:cx="-60.881356"
     inkscape:cy="32"
     inkscape:window-x="0"
     inkscape:window-y="0"
     inkscape:window-maximized="1"
     inkscape:current-layer="svg2" />
  <defs
     id="defs4">
    <linearGradient
       gradientTransform="matrix(0.24869,0.02086,-0.02071,0.25039,-584.84,-336.51)"
       xlink:href="#1"
       id="9"
       y1="583.19"
       x2="0"
       y2="563.88"
       gradientUnits="userSpaceOnUse" />
    <linearGradient
       xlink:href="#1"
       id="6"
       x1="-528.02"
       y1="-180.99"
       x2="-527.45"
       y2="-187.92"
       gradientUnits="userSpaceOnUse" />
    <linearGradient
       gradientTransform="matrix(0.24869,0.02086,-0.02071,0.25039,-579.55,-326.54)"
       xlink:href="#1"
       id="8"
       y1="583.19"
       x2="0"
       y2="563.88"
       gradientUnits="userSpaceOnUse" />
    <linearGradient
       gradientTransform="matrix(0.24869,0.02086,-0.02071,0.25039,-610.69,-323.28)"
       xlink:href="#1"
       id="7"
       y1="583.19"
       x2="0"
       y2="563.88"
       gradientUnits="userSpaceOnUse" />
    <linearGradient
       xlink:href="#1"
       id="5"
       x1="-528.84"
       y1="-164.71"
       x2="-528.26"
       y2="-171.64"
       gradientUnits="userSpaceOnUse" />
    <linearGradient
       gradientTransform="matrix(2.7232432,0,0,2.737869,-1043.6592,-1467.6682)"
       xlink:href="#1"
       id="0"
       gradientUnits="userSpaceOnUse"
       x1="396.46"
       y1="549.38"
       x2="394.7"
       y2="538.79" />
    <linearGradient
       xlink:href="#1"
       id="4"
       x1="-503.39"
       y1="-182.24"
       x2="-503.03"
       y2="-189.19"
       gradientUnits="userSpaceOnUse" />
    <linearGradient
       id="1">
      <stop
         stop-color="#7a808a"
         id="stop14" />
      <stop
         offset="1"
         stop-color="#ced8e0"
         id="stop16" />
    </linearGradient>
    <linearGradient
       xlink:href="#1"
       id="3"
       x1="-521.31"
       y1="-170.61"
       x2="-520.73"
       y2="-177.54"
       gradientUnits="userSpaceOnUse" />
    <linearGradient
       xlink:href="#1"
       id="2"
       x1="-543.1"
       y1="-180.81"
       x2="-541.16"
       y2="-187.49"
       gradientUnits="userSpaceOnUse" />
  </defs>
  <path
     inkscape:connector-curvature="0"
     id="path15"
     d="m 32.271183,0.73285565 c -1.675257,0 -3.30724,0.2076878 -4.871334,0.59854285 -7.33969,1.8347542 -13.175234,7.7238423 -14.89231,15.3202585 -6.6491543,1.095385 -11.74096307,6.950707 -11.74096307,13.987438 0,7.814153 6.27874177,14.17141 13.99638707,14.17141 l 17.50822,0 0,-44.07764935 z"
     style="fill:#bddbff" />
  <path
     inkscape:connector-curvature="0"
     id="path19"
     d="M 52.034961,16.651657 C 49.951972,7.4366159 41.808995,0.73285565 32.271183,0.73285565 l 0,44.07778335 17.508221,0 c 7.717645,0 13.996387,-6.357257 13.996387,-14.17141 0,-2.696859 -0.748632,-5.219797 -2.045537,-7.368227 -2.086827,-3.457265 -5.594558,-5.943757 -9.695293,-6.619345 z"
     style="fill:#9bc9ff" />
  <g
     transform="matrix(1.2661754,0,0,1.2919338,-9.0955964,-18.521758)"
     id="g4159">
    <path
       style="fill:#d1e7f8"
       d="m 23.446509,63.539483 c -1.462175,0 -2.651751,-1.212272 -2.651751,-2.702346 0,-1.490073 1.189576,-2.702346 2.651751,-2.702346 1.462176,0 2.651752,1.212273 2.651752,2.702346 0,1.490074 -1.189576,2.702346 -2.651752,2.702346 z"
       id="path5-4"
       inkscape:connector-curvature="0" />
    <path
       style="fill:#bddbff"
       d="m 41.680615,63.539483 c -1.462176,0 -2.651751,-1.212272 -2.651751,-2.702346 0,-1.490073 1.189575,-2.702346 2.651751,-2.702346 1.462176,0 2.651751,1.212273 2.651751,2.702346 0,1.490074 -1.189575,2.702346 -2.651751,2.702346 z"
       id="path7-3"
       inkscape:connector-curvature="0" />
    <path
       style="fill:#d1e7f8"
       d="m 14.32939,54.081272 c -1.462175,0 -2.651751,-1.212272 -2.651751,-2.702346 0,-1.490073 1.189576,-2.702346 2.651751,-2.702346 1.462176,0 2.651752,1.212273 2.651752,2.702346 0,1.490074 -1.189576,2.702346 -2.651752,2.702346 z"
       id="path9-0"
       inkscape:connector-curvature="0" />
    <path
       style="fill:#bddbff"
       d="m 50.797734,54.081272 c -1.462176,0 -2.651751,-1.212272 -2.651751,-2.702346 0,-1.490073 1.189575,-2.702346 2.651751,-2.702346 1.462176,0 2.651751,1.212273 2.651751,2.702346 0,1.490074 -1.189575,2.702346 -2.651751,2.702346 z"
       id="path11"
       inkscape:connector-curvature="0" />
    <path
       style="fill:#bddbff"
       d="m 32.563496,48.67658 c -1.462176,0 -2.651752,1.212273 -2.651752,2.702346 0,1.490074 1.189576,2.702346 2.651752,2.702346 1.462176,0 2.651751,-1.212272 2.651751,-2.702346 0,-1.490073 -1.189575,-2.702346 -2.651751,-2.702346 z"
       id="path13"
       inkscape:connector-curvature="0" />
  </g>
  <g
     transform="translate(0.54237525,-19.254238)"
     id="g4147">
    <path
       style="fill:#57a4ff"
       d="m 61.471662,50.657946 c 1.39628,-1.053173 2.134263,-2.306615 2.134263,-3.624938 0,-2.921838 -3.685443,-5.366868 -8.570124,-5.931482 -1.715149,-3.741293 -7.733556,-6.43828 -14.75799,-6.43828 -6.293348,0 -11.912691,2.201002 -14.183465,5.450276 1.509167,-0.210361 3.083973,-0.322029 4.700664,-0.322029 9.203647,0 17.061328,3.606772 19.07121,8.564668 3.957062,0.363482 7.341898,1.70127 9.355739,3.561355 0.847166,-0.351226 1.604942,-0.773173 2.249703,-1.25957 z"
       id="path5"
       inkscape:connector-curvature="0" />
    <path
       style="fill:#80b3ff"
       d="m 30.794882,39.791421 c -1.616563,0 -3.191369,0.11174 -4.700664,0.322029 -7.082538,0.987139 -12.713629,4.155599 -14.370546,8.242639 -6.4161955,0.589342 -11.32960877,3.739635 -11.32960877,7.525552 0,4.204188 6.05876117,7.624533 13.50601277,7.624533 l 16.894806,0 0,-23.714753 z"
       id="path7"
       inkscape:connector-curvature="0" />
    <path
       style="fill:#9bc9ff"
       d="M 49.86622,48.356089 C 47.856338,43.398265 39.998657,39.791421 30.79501,39.791421 l 0,23.714825 16.894806,0 c 7.447252,0 13.506013,-3.420345 13.506013,-7.624533 0,-1.45097 -0.722403,-2.808366 -1.97387,-3.964269 -2.013841,-1.860086 -5.398677,-3.197873 -9.355739,-3.561355 z"
       id="path9"
       inkscape:connector-curvature="0" />
  </g>
</svg>
