<?xml version="1.0" encoding="UTF-8" standalone="no"?>
<!-- Generator: Adobe Illustrator 19.0.0, SVG Export Plug-In . SVG Version: 6.00 Build 0)  -->

<svg
   xmlns:dc="http://purl.org/dc/elements/1.1/"
   xmlns:cc="http://creativecommons.org/ns#"
   xmlns:rdf="http://www.w3.org/1999/02/22-rdf-syntax-ns#"
   xmlns:svg="http://www.w3.org/2000/svg"
   xmlns="http://www.w3.org/2000/svg"
   xmlns:sodipodi="http://sodipodi.sourceforge.net/DTD/sodipodi-0.dtd"
   xmlns:inkscape="http://www.inkscape.org/namespaces/inkscape"
   version="1.1"
   id="Capa_1"
   x="0px"
   y="0px"
   viewBox="0 0 58 58"
   style="enable-background:new 0 0 58 58;"
   xml:space="preserve"
   inkscape:version="0.91 r13725"
   sodipodi:docname="background.svg"><metadata
     id="metadata49"><rdf:RDF><cc:Work
         rdf:about=""><dc:format>image/svg+xml</dc:format><dc:type
           rdf:resource="http://purl.org/dc/dcmitype/StillImage" /><dc:title></dc:title></cc:Work></rdf:RDF></metadata><defs
     id="defs47" /><sodipodi:namedview
     pagecolor="#ffffff"
     bordercolor="#666666"
     borderopacity="1"
     objecttolerance="10"
     gridtolerance="10"
     guidetolerance="10"
     inkscape:pageopacity="0"
     inkscape:pageshadow="2"
     inkscape:window-width="1280"
     inkscape:window-height="694"
     id="namedview45"
     showgrid="false"
     inkscape:zoom="4.0689655"
     inkscape:cx="-11.059322"
     inkscape:cy="29"
     inkscape:window-x="0"
     inkscape:window-y="0"
     inkscape:window-maximized="1"
     inkscape:current-layer="Capa_1" /><g
     id="g4177"
     transform="matrix(1,0,0,1.2511054,0,-7.1591746)"><rect
       id="rect3"
       height="38"
       width="58"
       style="fill:#556080"
       y="6"
       x="0" /><rect
       id="rect5"
       height="4"
       width="4"
       style="fill:#61b872"
       y="10"
       x="49" /><path
       id="path7"
       d="m 39.326,34.814 c 0.162,-0.11 0.329,-0.211 0.488,-0.325 -0.289,-0.255 -0.609,-0.479 -0.964,-0.656 l -4.664,-3.018 c -0.693,-0.346 -2,-0.225 -2,-1 l 0,-2.105 c 0.151,-0.171 1.323,-0.885 1.507,-1.145 0.731,-1.032 1.476,-2.168 1.86,-3.359 0.688,-0.212 1.633,-0.847 1.633,-1.602 l 0,-2.246 c 0,-0.195 -0.102,-0.382 -0.248,-0.556 -0.464,-0.556 -0.752,-1.237 -0.752,-1.961 l 0,-1.027 c 0,0 -0.158,-6 -7,-6 -6.842,0 -7,6 -7,6 l 0,1.027 c 0,0.724 -0.288,1.406 -0.752,1.961 -0.145,0.174 -0.248,0.361 -0.248,0.556 l 0,2.246 c 0,0.592 0.75,1.112 1.215,1.413 0.561,2.443 3.785,4.201 3.785,4.201 l 0,2.052 c 0,0.748 -1.838,1.437 -2.495,1.796 l -4.707,2.732 c -0.342,0.187 -0.648,0.42 -0.925,0.68 0.163,0.118 0.337,0.224 0.504,0.337 l 20.763,0 z"
       style="fill:#fbce9d"
       inkscape:connector-curvature="0" /><rect
       id="rect9"
       height="5"
       width="5"
       style="fill:#ebba16"
       y="34"
       x="5" /><polygon
       id="polygon11"
       points="27,44 27,49 22,49 22,52 36,52 36,49 31,49 31,44 "
       style="fill:#424a60" /><rect
       id="rect13"
       height="5"
       width="39"
       style="fill:#d75a4a"
       y="34"
       x="14" /></g><g
     id="g15" /><g
     id="g17" /><g
     id="g19" /><g
     id="g21" /><g
     id="g23" /><g
     id="g25" /><g
     id="g27" /><g
     id="g29" /><g
     id="g31" /><g
     id="g33" /><g
     id="g35" /><g
     id="g37" /><g
     id="g39" /><g
     id="g41" /><g
     id="g43" /></svg>