<?xml version="1.0" encoding="UTF-8" standalone="no"?>
<svg
   xmlns:dc="http://purl.org/dc/elements/1.1/"
   xmlns:cc="http://creativecommons.org/ns#"
   xmlns:rdf="http://www.w3.org/1999/02/22-rdf-syntax-ns#"
   xmlns:svg="http://www.w3.org/2000/svg"
   xmlns="http://www.w3.org/2000/svg"
   xmlns:sodipodi="http://sodipodi.sourceforge.net/DTD/sodipodi-0.dtd"
   xmlns:inkscape="http://www.inkscape.org/namespaces/inkscape"
   viewBox="0 0 48 48"
   id="svg2"
   version="1.1"
   inkscape:version="0.91 r13725"
   sodipodi:docname="bitcoin-qt.svg">
  <metadata
     id="metadata19">
    <rdf:RDF>
      <cc:Work
         rdf:about="">
        <dc:format>image/svg+xml</dc:format>
        <dc:type
           rdf:resource="http://purl.org/dc/dcmitype/StillImage" />
        <dc:title></dc:title>
      </cc:Work>
    </rdf:RDF>
  </metadata>
  <sodipodi:namedview
     pagecolor="#ffffff"
     bordercolor="#666666"
     borderopacity="1"
     objecttolerance="10"
     gridtolerance="10"
     guidetolerance="10"
     inkscape:pageopacity="0"
     inkscape:pageshadow="2"
     inkscape:window-width="1280"
     inkscape:window-height="694"
     id="namedview17"
     showgrid="false"
     inkscape:zoom="4.9166667"
     inkscape:cx="-9.1525424"
     inkscape:cy="24"
     inkscape:window-x="0"
     inkscape:window-y="0"
     inkscape:window-maximized="1"
     inkscape:current-layer="svg2" />
  <defs
     id="defs4">
    <linearGradient
       id="0"
       y1="547.8"
       x2="0"
       y2="499.8"
       gradientUnits="userSpaceOnUse"
       gradientTransform="translate(-384.57,-499.8)">
      <stop
         stop-color="#ff9300"
         id="stop7" />
      <stop
         offset="1"
         stop-color="#ffd702"
         id="stop9" />
    </linearGradient>
  </defs>
  <path
     style="fill:#aa8800"
     inkscape:connector-curvature="0"
     id="path15"
     d="m 18.809258,0.23728814 0,3.58986676 0,3.5881696 0.286624,0.05092 c 0.157643,0.027158 1.179938,0.039038 2.269112,0.023762 l 1.982487,-0.02546 0.03344,-3.6119322 0.03344,-3.6119322 3.002394,0 3.002395,0 0,3.6373923 c 0,2.8311574 0.03583,3.6441816 0.160031,3.6696416 0.08837,0.01867 0.867039,0.098446 1.729302,0.1799177 3.855102,0.3615327 7.268325,1.2085036 9.554157,2.3711793 1.853506,0.938627 3.343955,2.423797 3.831217,3.81731 0.300957,0.858852 0.308122,2.6767 0.01188,3.538946 -0.585192,1.71431 -2.307328,3.447291 -4.459403,4.489456 -0.334395,0.161247 -0.606689,0.329283 -0.606689,0.373414 0,0.04412 0.300956,0.149366 0.671181,0.23593 1.050956,0.244416 2.625004,0.835089 3.609082,1.354474 1.898888,1.001429 3.255579,2.381364 3.847937,3.910664 0.284236,0.736644 0.389332,2.912629 0.188695,3.983648 -0.537423,2.895657 -2.023094,4.864567 -4.777079,6.339552 -2.725323,1.45971 -6.03584,2.130158 -11.082822,2.245577 l -2.622617,0.0594 -0.03344,3.65776 -0.03344,3.657766 -3.002395,0 -3.002394,0 -0.03344,-3.65776 -0.03344,-3.65776 -2.23806,0 -2.238062,0 -0.03344,3.65776 -0.03344,3.65776 -3.002394,0 -3.002394,0 0,-3.679826 0,-3.679826 -6.0740549,0 -6.07405529,0 0,-0.848668 c 0,-0.466768 0.0382166,-1.468196 0.0835989,-2.225208 l 0.0835988,-1.378238 2.49124635,0 c 2.7659285,0 3.2890186,-0.0662 3.9315356,-0.497318 C 8.0894929,34.87653 8.0560532,35.355186 8.0536647,23.689386 8.0534258,13.47142 8.046499,13.17778 7.8028681,12.797576 7.5950651,12.471688 7.4302559,12.366453 6.8140129,12.16447 6.092674,11.92854 5.9995209,11.921751 3.1022229,11.886107 l -2.97373137,-0.03734 0,-2.1691961 0,-2.1691962 6.29857797,-0.023762 6.2985775,-0.023762 0.06449,-3.5898668 0.06449,-3.58816954 2.973731,-0.0237628 z m 0,12.00016986 0,4.353668 c 0,2.394942 0.03583,4.418168 0.07882,4.497942 0.06927,0.1273 0.587581,0.144274 4.533448,0.144274 4.344752,0 4.476122,-0.0034 5.276283,-0.212168 2.309718,-0.595764 3.59714,-1.581918 4.179943,-3.202874 0.618633,-1.717704 0.03344,-3.347148 -1.50239,-4.190724 -1.937106,-1.06423 -4.113065,-1.388421 -9.28903,-1.388421 z m 0.06449,13.493826 -0.03344,4.771212 c -0.0191,2.624082 -0.0048,4.825528 0.03344,4.893422 0.09793,0.183312 9.336801,0.09166 10.61228,-0.105238 2.629782,-0.405663 4.540613,-1.201714 5.539023,-2.311772 0.604301,-0.670448 1.058123,-1.753349 1.134555,-2.698765 0.183918,-2.254063 -1.521499,-3.591564 -5.524691,-4.3333 -1.117836,-0.207076 -1.299364,-0.213865 -6.45622,-0.213865 z" />
</svg>
