<?xml version="1.0" encoding="UTF-8" standalone="no"?>
<svg
   xmlns:dc="http://purl.org/dc/elements/1.1/"
   xmlns:cc="http://creativecommons.org/ns#"
   xmlns:rdf="http://www.w3.org/1999/02/22-rdf-syntax-ns#"
   xmlns:svg="http://www.w3.org/2000/svg"
   xmlns="http://www.w3.org/2000/svg"
   xmlns:sodipodi="http://sodipodi.sourceforge.net/DTD/sodipodi-0.dtd"
   xmlns:inkscape="http://www.inkscape.org/namespaces/inkscape"
   viewBox="0 0 48 48"
   id="svg2"
   version="1.1"
   inkscape:version="0.91 r13725"
   sodipodi:docname="Blender.svg">
  <metadata
     id="metadata31">
    <rdf:RDF>
      <cc:Work
         rdf:about="">
        <dc:format>image/svg+xml</dc:format>
        <dc:type
           rdf:resource="http://purl.org/dc/dcmitype/StillImage" />
        <dc:title></dc:title>
      </cc:Work>
    </rdf:RDF>
  </metadata>
  <sodipodi:namedview
     pagecolor="#ffffff"
     bordercolor="#666666"
     borderopacity="1"
     objecttolerance="10"
     gridtolerance="10"
     guidetolerance="10"
     inkscape:pageopacity="0"
     inkscape:pageshadow="2"
     inkscape:window-width="1280"
     inkscape:window-height="694"
     id="namedview29"
     showgrid="false"
     inkscape:zoom="4.9166667"
     inkscape:cx="-9.1525424"
     inkscape:cy="24"
     inkscape:window-x="0"
     inkscape:window-y="0"
     inkscape:window-maximized="1"
     inkscape:current-layer="svg2" />
  <defs
     id="defs4">
    <linearGradient
       id="0"
       x1="406.5"
       y1="543.69"
       x2="407.45"
       y2="503.77"
       gradientUnits="userSpaceOnUse"
       gradientTransform="matrix(1.11468,0,0,1.1858189,-430.8,-596.91801)">
      <stop
         stop-color="#f15f19"
         id="stop7" />
      <stop
         offset="1"
         stop-color="#fbb521"
         id="stop9" />
    </linearGradient>
    <linearGradient
       id="1"
       x1="-413.59"
       y1="-531.74"
       x2="-413.61"
       y2="-523.63"
       gradientUnits="userSpaceOnUse"
       gradientTransform="matrix(1.11468,0,0,1.11468,430.8,559.86)">
      <stop
         stop-color="#197cf1"
         id="stop12" />
      <stop
         offset="1"
         stop-color="#21c9fb"
         id="stop14" />
    </linearGradient>
    <linearGradient
       id="2"
       x1="413.49"
       y1="537.26"
       x2="413.7"
       y2="517.88"
       gradientUnits="userSpaceOnUse"
       gradientTransform="matrix(1.11468,0,0,1.11468,-430.8,-559.86)">
      <stop
         stop-color="#e8ebec"
         id="stop17" />
      <stop
         offset="1"
         stop-color="#fdfeff"
         id="stop19" />
    </linearGradient>
  </defs>
  <path
     inkscape:connector-curvature="0"
     style="fill:#ff7f2a"
     id="path23"
     d="M 23.372387,0.46503614 A 3.3443744,3.5578123 0 0 0 21.471768,6.8712327 l 3.801059,3.1104028 -18.4813946,0 a 3.3443744,3.5578123 0 1 0 0,7.1149135 l 8.3823936,0 L 1.4822116,27.678796 A 3.3443744,3.5578123 0 1 0 5.4118933,33.43418 L 12.40874,28.02566 A 17.83485,18.973069 0 0 0 12.36516,28.954393 17.83485,18.973069 0 0 0 30.20004,47.927495 17.83485,18.973069 0 0 0 48.03492,28.954393 17.83485,18.973069 0 0 0 40.282231,13.304822 3.3443744,3.5578123 0 0 0 40.04058,13.08943 L 25.549736,1.2312411 A 3.3443744,3.5578123 0 0 0 23.372621,0.46463295" />
</svg>
