<?xml version="1.0" encoding="UTF-8" standalone="no"?>
<svg
   xmlns:dc="http://purl.org/dc/elements/1.1/"
   xmlns:cc="http://creativecommons.org/ns#"
   xmlns:rdf="http://www.w3.org/1999/02/22-rdf-syntax-ns#"
   xmlns:svg="http://www.w3.org/2000/svg"
   xmlns="http://www.w3.org/2000/svg"
   xmlns:sodipodi="http://sodipodi.sourceforge.net/DTD/sodipodi-0.dtd"
   xmlns:inkscape="http://www.inkscape.org/namespaces/inkscape"
   viewBox="0 0 48 48"
   id="svg2"
   version="1.1"
   inkscape:version="0.91 r13725"
   sodipodi:docname="defcon.svg">
  <metadata
     id="metadata24">
    <rdf:RDF>
      <cc:Work
         rdf:about="">
        <dc:format>image/svg+xml</dc:format>
        <dc:type
           rdf:resource="http://purl.org/dc/dcmitype/StillImage" />
        <dc:title></dc:title>
      </cc:Work>
    </rdf:RDF>
  </metadata>
  <sodipodi:namedview
     pagecolor="#ffffff"
     bordercolor="#666666"
     borderopacity="1"
     objecttolerance="10"
     gridtolerance="10"
     guidetolerance="10"
     inkscape:pageopacity="0"
     inkscape:pageshadow="2"
     inkscape:window-width="1280"
     inkscape:window-height="694"
     id="namedview22"
     showgrid="false"
     inkscape:zoom="4.9166667"
     inkscape:cx="24"
     inkscape:cy="24"
     inkscape:window-x="0"
     inkscape:window-y="0"
     inkscape:window-maximized="1"
     inkscape:current-layer="svg2" />
  <defs
     id="defs4">
    <linearGradient
       id="0"
       x1="15.37"
       y1="29.24"
       x2="14.99"
       y2=".736"
       gradientUnits="userSpaceOnUse">
      <stop
         stop-color="#e6c02a"
         id="stop7" />
      <stop
         offset="1"
         stop-opacity="0"
         id="stop9" />
    </linearGradient>
    <linearGradient
       id="1"
       gradientUnits="userSpaceOnUse"
       x1="2.367"
       y1="21.609"
       x2="27.445"
       y2="8.06"
       gradientTransform="matrix(0.77848897,-1.3991513,1.3991513,0.77848897,-8.6443762,33.300633)">
      <stop
         stop-color="#dc3c30"
         id="stop12" />
      <stop
         offset="1"
         stop-color="#ff786d"
         id="stop14" />
    </linearGradient>
  </defs>
  <path
     inkscape:connector-curvature="0"
     style="fill:#ff5555"
     id="path20"
     d="M 11.987443,3.2143963 C 0.51672422,9.8542574 -3.4106943,24.529893 3.222476,36.006051 9.8550257,47.480031 24.537194,51.405588 36.007597,44.77288 47.484692,38.134734 51.402779,23.459404 44.770229,11.985423 38.13768,0.51144283 23.465306,-3.4086643 11.987443,3.2143963 m 12.004025,20.5184357 19.762786,0.507927 c -0.02688,1.648775 -0.252662,3.289491 -0.672652,4.880782 -1.304346,4.853624 -4.418114,9.195206 -9.079484,11.931786 L 23.999232,23.75181 13.570879,40.84776 C 10.879797,39.1837 8.5396771,36.859229 6.8389764,33.915748 5.0556318,30.831003 4.2069684,27.469264 4.1871843,24.149116 L 23.983073,23.728161 14.204817,6.809984 C 18.906732,4.145435 24.221723,3.6030019 29.077683,4.90315 c 1.397703,0.3727439 2.751915,0.9026876 4.039629,1.5751974 L 23.991468,23.732832" />
</svg>
