<?xml version="1.0" encoding="UTF-8" standalone="no"?>
<svg
   xmlns:dc="http://purl.org/dc/elements/1.1/"
   xmlns:cc="http://creativecommons.org/ns#"
   xmlns:rdf="http://www.w3.org/1999/02/22-rdf-syntax-ns#"
   xmlns:svg="http://www.w3.org/2000/svg"
   xmlns="http://www.w3.org/2000/svg"
   xmlns:sodipodi="http://sodipodi.sourceforge.net/DTD/sodipodi-0.dtd"
   xmlns:inkscape="http://www.inkscape.org/namespaces/inkscape"
   viewBox="0 0 48 48"
   id="svg2"
   version="1.1"
   inkscape:version="0.91 r13725"
   sodipodi:docname="devhelp.svg">
  <metadata
     id="metadata19">
    <rdf:RDF>
      <cc:Work
         rdf:about="">
        <dc:format>image/svg+xml</dc:format>
        <dc:type
           rdf:resource="http://purl.org/dc/dcmitype/StillImage" />
        <dc:title></dc:title>
      </cc:Work>
    </rdf:RDF>
  </metadata>
  <sodipodi:namedview
     pagecolor="#ffffff"
     bordercolor="#666666"
     borderopacity="1"
     objecttolerance="10"
     gridtolerance="10"
     guidetolerance="10"
     inkscape:pageopacity="0"
     inkscape:pageshadow="2"
     inkscape:window-width="1280"
     inkscape:window-height="694"
     id="namedview17"
     showgrid="false"
     inkscape:zoom="4.9166667"
     inkscape:cx="-9.1525424"
     inkscape:cy="24"
     inkscape:window-x="0"
     inkscape:window-y="0"
     inkscape:window-maximized="1"
     inkscape:current-layer="svg2" />
  <defs
     id="defs4">
    <linearGradient
       id="0"
       gradientUnits="userSpaceOnUse"
       y1="-9.01"
       x2="0"
       y2="-55.29"
       gradientTransform="matrix(0.99999,0,0,0.99999,-38.37,55.882)">
      <stop
         stop-color="#dc3c30"
         id="stop7" />
      <stop
         offset="1"
         stop-color="#ff786d"
         id="stop9" />
    </linearGradient>
  </defs>
  <path
     style="fill:#ff5555;fill-opacity:0.85500004"
     inkscape:connector-curvature="0"
     id="path15"
     d="m 29.521412,46.565707 q -2.204121,1.289358 -5.571614,1.289358 -3.367497,0 -5.687624,-1.289358 -2.204121,-1.289357 -2.204121,-3.096299 0,-1.806942 2.204121,-3.096301 2.320127,-1.289356 5.687624,-1.289356 3.367493,0 5.571614,1.289356 2.320127,1.289359 2.320127,3.096301 0,1.806942 -2.320127,3.096299 m -0.11601,-13.418528 -10.911219,0 0,-3.031833 q 0,-2.902897 2.204119,-4.967712 2.204121,-2.129281 7.775737,-4.967711 3.135485,-1.613538 4.411555,-2.387153 1.392072,-0.838081 2.671458,-2.258218 1.392073,-1.484602 1.392073,-3.031832 0,-2.9673648 -3.483501,-4.7743071 -3.367497,-1.8069423 -9.403139,-1.8069423 -9.976542,0 -13.698684,6.1926004 L 0.38726356,9.7913856 Q 2.8233933,6.1148744 8.7463424,3.2119762 14.781984,0.24461149 24.069117,0.24461149 q 10.563199,0 17.178872,3.48310931 6.615673,3.418639 6.615673,8.7731572 0,2.322685 -2.204118,4.709838 -2.204119,2.387154 -3.947528,3.418641 -1.624088,0.967019 -4.643566,2.516089 -0.348019,0.193404 -0.58003,0.322339 -7.0797,3.547577 -7.0797,7.095152 l 0,2.580558" />
</svg>
