<?xml version="1.0" encoding="UTF-8" standalone="no"?>
<!-- Created with Inkscape (http://www.inkscape.org/) -->

<svg
   xmlns:dc="http://purl.org/dc/elements/1.1/"
   xmlns:cc="http://creativecommons.org/ns#"
   xmlns:rdf="http://www.w3.org/1999/02/22-rdf-syntax-ns#"
   xmlns:svg="http://www.w3.org/2000/svg"
   xmlns="http://www.w3.org/2000/svg"
   xmlns:sodipodi="http://sodipodi.sourceforge.net/DTD/sodipodi-0.dtd"
   xmlns:inkscape="http://www.inkscape.org/namespaces/inkscape"
   id="svg2"
   version="1.1"
   inkscape:version="0.91 r13725"
   width="1024"
   height="1024"
   sodipodi:docname="diffuse.svg">
  <metadata
     id="metadata8">
    <rdf:RDF>
      <cc:Work
         rdf:about="">
        <dc:format>image/svg+xml</dc:format>
        <dc:type
           rdf:resource="http://purl.org/dc/dcmitype/StillImage" />
        <dc:title></dc:title>
      </cc:Work>
    </rdf:RDF>
  </metadata>
  <defs
     id="defs6" />
  <sodipodi:namedview
     pagecolor="#ffffff"
     bordercolor="#666666"
     borderopacity="1"
     objecttolerance="10"
     gridtolerance="10"
     guidetolerance="10"
     inkscape:pageopacity="0"
     inkscape:pageshadow="2"
     inkscape:window-width="1280"
     inkscape:window-height="694"
     id="namedview4"
     showgrid="false"
     inkscape:zoom="0.32"
     inkscape:cx="-128.5625"
     inkscape:cy="471.185"
     inkscape:window-x="0"
     inkscape:window-y="0"
     inkscape:window-maximized="1"
     inkscape:current-layer="svg2" />
  <path
     style="fill:#d4aa00"
     d="m 566.67415,1019.3288 c 30.79334,-2.7002 48.1961,-8.2622 88.66837,-28.33878 63.8634,-31.68 114.38539,-69.62581 142.46129,-106.99915 38.86811,-51.73942 62.66956,-109.56589 70.93081,-172.32899 2.92464,-22.21929 2.11858,-87.97898 -1.31762,-107.49211 -12.15478,-69.02367 -42.1458,-132.21659 -85.02468,-179.15231 -42.32657,-46.33113 -90.24198,-75.7462 -152.44672,-93.58635 -8.20558,-2.35333 -15.45836,-4.79242 -16.11728,-5.42019 -1.37589,-1.31086 8.99107,-4.45778 22.89876,-6.95097 14.74742,-2.64374 60.81673,-2.23362 76.63066,0.68218 28.6271,5.27829 67.18508,21.82581 92.1289,39.53798 15.36633,10.91137 38.9105,32.91332 52.54293,49.10121 38.52549,45.74735 64.67588,106.32771 73.185,169.54149 1.09763,8.15426 2.54276,32.96522 3.2114,55.13546 1.33886,44.39306 2.40398,50.90663 9.66374,59.09797 10.29552,11.61664 26.9443,5.72933 40.74908,-14.40959 15.31871,-22.34755 28.93121,-63.00999 33.61571,-100.41466 2.139,-17.07998 1.7709,-61.78545 -0.66,-80.15689 -13.9546,-105.4599 -80.22836,-208.15943 -170.8417,-264.74109 -39.7219,-24.80353 -80.10515,-39.47718 -129.52617,-47.06456 -19.61098,-3.01078 -81.11787,-3.40018 -103.07842,-0.65255 -61.74023,7.72466 -119.80843,28.31438 -165.46799,58.67134 -32.76365,21.78306 -54.73268,44.12747 -74.85394,76.13293 -15.80547,25.14063 -14.96108,24.75237 -14.16343,6.51278 1.93843,-44.32529 21.43582,-86.6063 56.69115,-122.93743 25.31833,-26.09089 48.15598,-42.47728 81.40335,-58.40818 45.89099,-21.98927 86.38621,-31.09339 138.76973,-31.19817 44.37118,-0.0887 69.25275,4.58625 114.71919,21.55465 30.67297,11.44735 39.80478,13.89352 52.10509,13.95752 11.66927,0.0607 18.64685,-2.63966 22.3441,-8.6473 7.5456,-12.26091 -0.80579,-31.28867 -24.27885,-55.316782 C 762.34459,44.837596 715.40137,21.393313 651.64632,10.140449 631.33071,6.5547007 579.13807,5.1358856 553.31494,7.4673892 460.27366,15.867829 385.07891,49.11648 325.35274,108.2648 c -45.30006,44.86179 -77.48571,99.284 -95.60989,161.66527 -21.17312,72.87544 -18.37574,151.36108 7.71152,216.36054 10.56,26.31147 22.66264,47.57423 43.76976,76.8978 6.38326,8.8681 11.62307,16.87442 11.64404,17.79184 0.0536,2.34639 -14.48547,-3.25807 -32.47903,-12.51988 C 149.9921,511.63584 113.81441,352.92155 179.76213,214.74355 c 9.93704,-20.82072 22.70245,-41.18179 40.91441,-65.25927 19.1703,-25.34447 25.20284,-36.80574 25.81595,-49.04807 0.35494,-7.087013 -0.10474,-9.736061 -2.2874,-13.182057 -8.86724,-13.999704 -33.69687,-13.137013 -63.31255,2.199746 -29.02104,15.028821 -52.56483,34.948581 -78.72622,66.608181 -17.765948,21.49971 -39.108169,60.11354 -51.192011,92.62019 -6.788693,18.26217 -15.622543,50.47103 -19.003941,69.28977 -3.775532,21.01218 -4.897967,37.27976 -4.886757,70.82465 0.01214,36.28513 1.069634,49.07981 6.084726,73.61786 9.050248,44.28151 23.711712,80.31544 46.469829,114.21037 74.897954,111.54966 228.147124,181.63937 354.960774,162.34413 18.05599,-2.7473 36.31585,-8.2646 57.16229,-17.27186 9.46492,-4.08957 17.76919,-7.25057 18.45394,-7.02445 2.44413,0.80712 -15.72612,23.95141 -28.15747,35.86548 -34.1663,32.74466 -75.89093,48.82631 -131.55768,50.70542 -36.28892,1.22499 -63.90718,-2.28797 -97.8781,-12.44979 C 197.22793,772.22369 150.86359,744.63254 109.71208,703.74902 89.499382,683.66792 77.854477,669.31152 61.713668,644.57421 50.956946,628.0885 39.401996,615.52608 31.819522,612.07362 c -3.103232,-1.41299 -8.572254,-2.48286 -12.778234,-2.49973 -6.917985,-0.0278 -7.686218,0.31497 -12.9842518,5.79277 -7.4720974,7.72562 -9.4437521,14.98848 -9.2214697,33.96873 0.2881604,24.60502 7.4577939,49.39277 24.0766325,83.24068 49.190019,100.18626 162.798591,176.95134 285.557051,192.95032 7.23057,0.94235 26.8716,1.66784 44.75774,1.65324 35.73821,-0.0292 51.95742,-2.09646 83.37561,-10.62695 116.16317,-31.54001 216.66531,-122.47344 253.92418,-229.74835 11.68082,-33.63118 14.20922,-49.26944 15.20689,-94.0556 l 0.80816,-36.27859 5.76617,7.51471 c 52.26565,68.11458 48.49961,163.4924 -9.92146,251.26799 -13.60528,20.44145 -23.74857,32.48182 -45.21866,53.67584 -28.67711,28.30835 -59.15717,49.9163 -93.03702,65.95586 -18.25439,8.64207 -35.91059,14.84716 -65.09568,22.87721 -29.99086,8.25175 -35.9411,10.73213 -42.19383,17.58864 -4.61549,5.06119 -4.87537,5.82255 -4.30659,12.61727 1.43544,17.14824 20.32743,28.04514 54.25227,31.29284 16.48734,1.5783 44.31678,1.609 61.88712,0.068 z"
     id="path3211"
     inkscape:connector-curvature="0" />
</svg>
