<?xml version="1.0" encoding="UTF-8" standalone="no"?>
<svg
   xmlns:dc="http://purl.org/dc/elements/1.1/"
   xmlns:cc="http://creativecommons.org/ns#"
   xmlns:rdf="http://www.w3.org/1999/02/22-rdf-syntax-ns#"
   xmlns:svg="http://www.w3.org/2000/svg"
   xmlns="http://www.w3.org/2000/svg"
   xmlns:sodipodi="http://sodipodi.sourceforge.net/DTD/sodipodi-0.dtd"
   xmlns:inkscape="http://www.inkscape.org/namespaces/inkscape"
   viewBox="0 0 48 48"
   id="svg2"
   version="1.1"
   inkscape:version="0.91 r13725"
   sodipodi:docname="emesene.svg">
  <metadata
     id="metadata24">
    <rdf:RDF>
      <cc:Work
         rdf:about="">
        <dc:format>image/svg+xml</dc:format>
        <dc:type
           rdf:resource="http://purl.org/dc/dcmitype/StillImage" />
        <dc:title></dc:title>
      </cc:Work>
    </rdf:RDF>
  </metadata>
  <sodipodi:namedview
     pagecolor="#ffffff"
     bordercolor="#666666"
     borderopacity="1"
     objecttolerance="10"
     gridtolerance="10"
     guidetolerance="10"
     inkscape:pageopacity="0"
     inkscape:pageshadow="2"
     inkscape:window-width="1280"
     inkscape:window-height="694"
     id="namedview22"
     showgrid="false"
     inkscape:zoom="4.9166667"
     inkscape:cx="24"
     inkscape:cy="24"
     inkscape:window-x="0"
     inkscape:window-y="0"
     inkscape:window-maximized="1"
     inkscape:current-layer="svg2" />
  <defs
     id="defs4">
    <linearGradient
       id="0"
       y1="546.8"
       x2="0"
       y2="507.87"
       gradientUnits="userSpaceOnUse"
       gradientTransform="matrix(-0.55334921,0,0,0.65622465,242.23318,-310.52735)">
      <stop
         stop-color="#4fd127"
         id="stop7" />
      <stop
         offset="1"
         stop-color="#c6f61a"
         id="stop9" />
    </linearGradient>
    <linearGradient
       id="1"
       x1="34.17"
       y1="46.44"
       x2="34.15"
       y2="22.749"
       gradientUnits="userSpaceOnUse"
       gradientTransform="matrix(1.71427,0,0,1.8670858,-34.21,-41.779023)">
      <stop
         stop-color="#1074f5"
         id="stop12" />
      <stop
         offset="1"
         stop-color="#02befd"
         id="stop14" />
    </linearGradient>
  </defs>
  <path
     inkscape:connector-curvature="0"
     style="fill:#2a7fff"
     id="path18"
     d="M 40.92474,6.7222648 C 36.399067,2.7098974 30.390551,0.50113494 24.004895,0.50113494 17.619239,0.50113494 11.609009,2.7098974 7.08505,6.7222648 2.519949,10.76824 0.00511493,16.162251 0.00511493,21.907274 c 0,5.483631 2.29197897,10.646123 6.46965497,14.623016 -0.075428,0.184841 -0.1354273,0.379018 -0.1731413,0.58253 l -1.3731302,7.354451 c -0.1628557,0.873797 0.056571,1.394713 0.2691404,1.67851 0.2451406,0.326741 0.6102801,0.507848 1.0251334,0.507848 0.3137114,0 0.6514226,-0.100823 1.002848,-0.300601 L 15.21069,41.83468 c 2.765117,0.969018 5.735947,1.476865 8.794205,1.476865 6.385656,0 12.394172,-2.208762 16.921559,-6.22113 4.565101,-4.045975 7.079935,-9.438118 7.079935,-15.185008 0,-5.746891 -2.514834,-11.139034 -7.078221,-15.1850093" />
  <path
     inkscape:connector-curvature="0"
     style="fill:#99ff55"
     id="path20"
     d="m 27.21058,25.977521 c 2.262836,-2.184491 5.267952,-3.386894 8.459922,-3.386894 3.193685,0 6.197086,1.202403 8.459923,3.386894 2.281693,2.203161 3.539967,5.13822 3.539967,8.267456 0,2.98547 -1.145132,5.795434 -3.234827,7.961253 0.03771,0.100823 0.06686,0.20538 0.08743,0.317405 l 0.685708,4.003032 c 0.08228,0.476107 -0.02743,0.759904 -0.133714,0.913005 -0.123427,0.177373 -0.30514,0.276329 -0.512566,0.276329 -0.157713,0 -0.325712,-0.05415 -0.500567,-0.162437 l -3.992535,-2.458952 c -1.381702,0.528385 -2.867974,0.804714 -4.397102,0.804714 -3.193685,0 -6.197087,-1.202403 -8.459923,-3.386893 -2.281693,-2.203162 -3.539967,-5.138221 -3.539967,-8.267456 0,-3.127369 1.256559,-6.064295 3.539967,-8.267456" />
</svg>
