<?xml version="1.0" encoding="UTF-8" standalone="no"?>
<svg
   xmlns:dc="http://purl.org/dc/elements/1.1/"
   xmlns:cc="http://creativecommons.org/ns#"
   xmlns:rdf="http://www.w3.org/1999/02/22-rdf-syntax-ns#"
   xmlns:svg="http://www.w3.org/2000/svg"
   xmlns="http://www.w3.org/2000/svg"
   xmlns:xlink="http://www.w3.org/1999/xlink"
   xmlns:sodipodi="http://sodipodi.sourceforge.net/DTD/sodipodi-0.dtd"
   xmlns:inkscape="http://www.inkscape.org/namespaces/inkscape"
   viewBox="0 0 48 48"
   id="svg2"
   version="1.1"
   inkscape:version="0.91 r13725"
   sodipodi:docname="gFTP.svg">
  <metadata
     id="metadata31">
    <rdf:RDF>
      <cc:Work
         rdf:about="">
        <dc:format>image/svg+xml</dc:format>
        <dc:type
           rdf:resource="http://purl.org/dc/dcmitype/StillImage" />
        <dc:title></dc:title>
      </cc:Work>
    </rdf:RDF>
  </metadata>
  <sodipodi:namedview
     pagecolor="#ffffff"
     bordercolor="#666666"
     borderopacity="1"
     objecttolerance="10"
     gridtolerance="10"
     guidetolerance="10"
     inkscape:pageopacity="0"
     inkscape:pageshadow="2"
     inkscape:window-width="1280"
     inkscape:window-height="694"
     id="namedview29"
     showgrid="false"
     inkscape:zoom="4.9166667"
     inkscape:cx="-9.1525424"
     inkscape:cy="24"
     inkscape:window-x="0"
     inkscape:window-y="0"
     inkscape:window-maximized="1"
     inkscape:current-layer="svg2" />
  <defs
     id="defs4">
    <linearGradient
       gradientUnits="userSpaceOnUse"
       y2="227.95"
       x2="-424.98"
       y1="519.48"
       x1="-423.09"
       id="0"
       xlink:href="#2"
       gradientTransform="matrix(0.099,0,0,0.099,17.961,-9.608)" />
    <linearGradient
       y2="23.362"
       x2="-208.33"
       y1="315.36"
       x1="-206.67"
       gradientTransform="matrix(0.09878715,0,0,0.099,-3.71406,10.489)"
       gradientUnits="userSpaceOnUse"
       id="1"
       xlink:href="#2" />
    <linearGradient
       id="2">
      <stop
         stop-color="#2e3e46"
         id="stop9" />
      <stop
         offset="1"
         stop-color="#435a64"
         id="stop11" />
    </linearGradient>
  </defs>
  <rect
     style="fill:none;stroke:none;stroke-width:0.198;stroke-linecap:round"
     id="rect19"
     rx="0.95337003"
     y="10.102133"
     x="-46.87608"
     height="31.861938"
     width="45.822151"
     transform="scale(-1,1)" />
  <g
     style="fill:#53536c"
     id="g21"
     transform="matrix(0.06513859,0,0,0.16705917,-17.600712,-54.744659)">
    <path
       inkscape:connector-curvature="0"
       id="path23"
       d="m 447.47,384.75 c 17.779,0 28.28,-14.546 28.28,-27.476 0,-14.546 -10.506,-25.05 -28.28,-25.05 l -141.83,0 c -17.779,0 -28.688,10.506 -28.688,25.05 l 0,229.51 c 0,14.14 10.91,25.05 28.688,25.05 14.14,0 24.24,-10.91 24.24,-25.05 l 0,-84.85 103.04,0 c 14.546,0 29.09,-10.91 29.09,-24.24 0,-14.14 -14.546,-28.688 -29.09,-28.688 l -103.04,0 0,-64.25 117.58,0"
       style="fill:#53536c" />
    <path
       inkscape:connector-curvature="0"
       id="path25"
       d="m 596.39,586.78 c 0,35.961 53.34,35.15 53.34,0 l 0,-204.05 67.07,0 c 35.961,0 35.961,-51.72 0,-51.72 l -191.12,0 c -35.15,0 -35.15,51.72 0,51.72 l 70.71,0 0,204.05"
       style="fill:#53536c" />
    <path
       inkscape:connector-curvature="0"
       id="path27"
       d="m 782.84,583.95 c 0,17.779 14.14,27.88 27.476,27.88 14.546,0 25.86,-10.1 25.86,-27.88 l 0,-53.34 67.48,0 c 52.53,0 99.8,-35.557 99.8,-99.4 0,-67.48 -47.28,-102.63 -99.8,-102.63 l -93.34,0 c -16.971,0 -27.476,14.546 -27.476,27.88 l 0,227.49 M 903.65,379.5 c 27.07,0 48.49,23.436 48.49,51.72 0,25.05 -21.415,48.891 -48.49,48.891 l -67.48,0 0,-100.61 67.48,0"
       style="fill:#53536c" />
  </g>
</svg>
