<?xml version="1.0" encoding="UTF-8" standalone="no"?>
<svg
   xmlns:dc="http://purl.org/dc/elements/1.1/"
   xmlns:cc="http://creativecommons.org/ns#"
   xmlns:rdf="http://www.w3.org/1999/02/22-rdf-syntax-ns#"
   xmlns:svg="http://www.w3.org/2000/svg"
   xmlns="http://www.w3.org/2000/svg"
   xmlns:sodipodi="http://sodipodi.sourceforge.net/DTD/sodipodi-0.dtd"
   xmlns:inkscape="http://www.inkscape.org/namespaces/inkscape"
   viewBox="0 0 48 48"
   id="svg2"
   version="1.1"
   inkscape:version="0.91 r13725"
   sodipodi:docname="KBibTex.svg">
  <metadata
     id="metadata25">
    <rdf:RDF>
      <cc:Work
         rdf:about="">
        <dc:format>image/svg+xml</dc:format>
        <dc:type
           rdf:resource="http://purl.org/dc/dcmitype/StillImage" />
        <dc:title></dc:title>
      </cc:Work>
    </rdf:RDF>
  </metadata>
  <sodipodi:namedview
     pagecolor="#ffffff"
     bordercolor="#666666"
     borderopacity="1"
     objecttolerance="10"
     gridtolerance="10"
     guidetolerance="10"
     inkscape:pageopacity="0"
     inkscape:pageshadow="2"
     inkscape:window-width="1280"
     inkscape:window-height="694"
     id="namedview23"
     showgrid="false"
     inkscape:zoom="4.9166667"
     inkscape:cx="-9.1525424"
     inkscape:cy="24"
     inkscape:window-x="0"
     inkscape:window-y="0"
     inkscape:window-maximized="1"
     inkscape:current-layer="svg2" />
  <defs
     id="defs4">
    <linearGradient
       id="0"
       x1="61.57"
       y1="22.939"
       x2="60.753"
       y2="-27.706"
       gradientUnits="userSpaceOnUse">
      <stop
         stop-color="#197cf1"
         id="stop7" />
      <stop
         offset="1"
         stop-color="#21c9fb"
         id="stop9" />
    </linearGradient>
  </defs>
  <g
     id="g4157"
     style="fill:#0066ff"
     transform="matrix(1.2408506,0,0,3.453463,-5.6767028,-58.864298)">
    <path
       d="m 14.91588,17.111708 0,0.07491 -4.9810827,5.749108 5.3181927,7.510872 0,0.07491 -2.116138,0 -4.3632109,-6.253632 -2.05979,2.378334 0,3.876275 -1.7226802,0 0,-13.409481 1.7226802,0 0,6.911566 0.074913,0 5.8986079,-6.911566 2.228508,0"
       id="path15"
       inkscape:connector-curvature="0"
       style="fill:#0066ff" />
    <path
       d="m 21.785104,30.573303 -1.72268,0 0,-11.761389 -3.745339,0 0,-1.647766 9.214336,0 0,1.647766 -3.74534,0 0,11.761389"
       id="path17"
       inkscape:connector-curvature="0"
       style="fill:#0066ff" />
    <path
       d="m 29.670543,30.872956 q -2.078681,0 -3.389338,-1.385896 -1.292092,-1.385896 -1.292092,-3.501709 0,-2.003767 1.254635,-3.445686 1.273526,-1.441918 3.239512,-1.441918 2.041225,0 3.2571,1.329548 1.23607,1.329549 1.23607,3.558056 l -0.01889,0.318219 -7.247047,0 q 0.07491,1.385896 0.917525,2.191051 0.861503,0.805155 2.003768,0.805155 1.853941,0 2.50927,-1.573179 l 1.535722,0.636763 q -0.449479,1.067352 -1.479375,1.797594 -1.029895,0.711676 -2.528161,0.711676 m 2.471814,-5.992413 q -0.05602,-0.786589 -0.730242,-1.498266 -0.654677,-0.711676 -1.967289,-0.711676 -0.954981,0 -1.666658,0.599306 -0.692785,0.599307 -0.954981,1.610311 l 5.318193,0"
       id="path19"
       inkscape:connector-curvature="0"
       style="fill:#0066ff" />
    <path
       d="m 42.992082,30.573303 -2.022333,0 -2.265965,-3.389339 -2.228507,3.389339 -2.022334,0 3.239512,-4.662865 -3.164598,-4.513038 1.94742,0 2.265964,3.239512 2.153595,-3.239512 2.022333,0 -3.202055,4.513038 3.276643,4.662865"
       id="path21"
       inkscape:connector-curvature="0"
       style="fill:#0066ff" />
  </g>
</svg>
