<?xml version="1.0" encoding="UTF-8" standalone="no"?>
<svg
   xmlns:dc="http://purl.org/dc/elements/1.1/"
   xmlns:cc="http://creativecommons.org/ns#"
   xmlns:rdf="http://www.w3.org/1999/02/22-rdf-syntax-ns#"
   xmlns:svg="http://www.w3.org/2000/svg"
   xmlns="http://www.w3.org/2000/svg"
   xmlns:sodipodi="http://sodipodi.sourceforge.net/DTD/sodipodi-0.dtd"
   xmlns:inkscape="http://www.inkscape.org/namespaces/inkscape"
   viewBox="0 0 48 48"
   id="svg2"
   version="1.1"
   inkscape:version="0.91 r13725"
   sodipodi:docname="kmymoney.svg">
  <metadata
     id="metadata19">
    <rdf:RDF>
      <cc:Work
         rdf:about="">
        <dc:format>image/svg+xml</dc:format>
        <dc:type
           rdf:resource="http://purl.org/dc/dcmitype/StillImage" />
        <dc:title></dc:title>
      </cc:Work>
    </rdf:RDF>
  </metadata>
  <sodipodi:namedview
     pagecolor="#ffffff"
     bordercolor="#666666"
     borderopacity="1"
     objecttolerance="10"
     gridtolerance="10"
     guidetolerance="10"
     inkscape:pageopacity="0"
     inkscape:pageshadow="2"
     inkscape:window-width="1280"
     inkscape:window-height="694"
     id="namedview17"
     showgrid="false"
     inkscape:zoom="4.9166667"
     inkscape:cx="-9.1525424"
     inkscape:cy="24"
     inkscape:window-x="0"
     inkscape:window-y="0"
     inkscape:window-maximized="1"
     inkscape:current-layer="svg2" />
  <defs
     id="defs4">
    <linearGradient
       id="0"
       gradientUnits="userSpaceOnUse"
       gradientTransform="matrix(.49433 0 0 .4778 86.64 13.1)"
       x1="-123.97"
       y1="73.5"
       x2="-125.19"
       y2="-33.29">
      <stop
         stop-color="#00a661"
         id="stop7" />
      <stop
         stop-color="#37ce97"
         offset="1"
         id="stop9" />
    </linearGradient>
  </defs>
  <g
     id="g13"
     style="fill:#5fd38d;stroke:none"
     transform="matrix(2.7970024,0,0,1.4766935,-43.201685,-11.340086)">
    <path
       d="m -62.07,43.46 0,-3.44 q -2.84,-0.4 -5.24,-2.28 -2.36,-1.88 -3.12,-5.04 l 3.28,-1.32 q 0.48,1.92 1.84,3.32 1.4,1.4 3.24,1.76 l 0,-9.6 q -0.12,0 -0.2,-0.08 -7.16,-2.8 -7.16,-8 0,-2.72 2,-4.8 2,-2.12 5.36,-2.44 l 0,-3.44 3.04,0 0,3.52 q 2.8,0.44 4.48,2.04 1.72,1.56 2.28,3.32 l -3.28,1.4 q -0.28,-1 -1.2,-1.88 -0.88,-0.92 -2.28,-1.28 l 0,9 q 3.48,1.44 5.4,3.24 1.96,1.76 1.96,4.72 0,3.36 -2.12,5.32 -2.12,1.96 -5.24,2.44 l 0,3.52 -3.04,0 z m 6.72,-11.2 q 0,-1.4 -0.92,-2.32 -0.92,-0.96 -2.76,-1.84 l 0,8.28 q 1.68,-0.36 2.68,-1.4 1,-1.08 1,-2.72 z m -10.4,-13.48 q 0,2.52 3.68,4.2 l 0,-7.88 q -1.68,0.28 -2.68,1.28 -1,0.96 -1,2.4 z"
       transform="matrix(0.90498,0,0,0.90498,79.29,0.672)"
       id="path15"
       style="fill:#5fd38d;stroke:none"
       inkscape:connector-curvature="0" />
  </g>
</svg>
