<?xml version="1.0" encoding="UTF-8" standalone="no"?>
<svg
   xmlns:dc="http://purl.org/dc/elements/1.1/"
   xmlns:cc="http://creativecommons.org/ns#"
   xmlns:rdf="http://www.w3.org/1999/02/22-rdf-syntax-ns#"
   xmlns:svg="http://www.w3.org/2000/svg"
   xmlns="http://www.w3.org/2000/svg"
   xmlns:xlink="http://www.w3.org/1999/xlink"
   xmlns:sodipodi="http://sodipodi.sourceforge.net/DTD/sodipodi-0.dtd"
   xmlns:inkscape="http://www.inkscape.org/namespaces/inkscape"
   viewBox="0 0 48 48"
   id="svg2"
   version="1.1"
   inkscape:version="0.91 r13725"
   sodipodi:docname="kpat.svg">
  <metadata
     id="metadata22">
    <rdf:RDF>
      <cc:Work
         rdf:about="">
        <dc:format>image/svg+xml</dc:format>
        <dc:type
           rdf:resource="http://purl.org/dc/dcmitype/StillImage" />
        <dc:title></dc:title>
      </cc:Work>
    </rdf:RDF>
  </metadata>
  <sodipodi:namedview
     pagecolor="#ffffff"
     bordercolor="#666666"
     borderopacity="1"
     objecttolerance="10"
     gridtolerance="10"
     guidetolerance="10"
     inkscape:pageopacity="0"
     inkscape:pageshadow="2"
     inkscape:window-width="1280"
     inkscape:window-height="694"
     id="namedview20"
     showgrid="false"
     inkscape:zoom="4.9166667"
     inkscape:cx="-1.0036046"
     inkscape:cy="24"
     inkscape:window-x="0"
     inkscape:window-y="0"
     inkscape:window-maximized="1"
     inkscape:current-layer="svg2" />
  <defs
     id="defs4">
    <path
       id="1"
       d="m50.19 53.628l.566-.051c4.266-.5 7.585-4.134 7.585-8.529 0-5.868-13.207-17.812-13.207-17.812-.504-.559-1.221-.559-1.725 0 0 0-13.207 11.944-13.207 17.812 0 4.396 3.32 8.03 7.585 8.529l.567.051c.146.009.291.011.439.011 1.227 0 2.408-.256 3.492-.736.387 5.275-8.202 6.465-8.01 6.381v2.443h19.999v-2.443c.188.084-8.4-1.104-8.02-6.381 1.084.48 2.267.736 3.492.736.152 0 .297-.002.443-.011"
       fill-opacity=".851"
       fill="#fff" />
    <linearGradient
       id="0"
       x1="211.38"
       y1="214.74"
       x2="207.4"
       y2="118.42"
       gradientUnits="userSpaceOnUse"
       gradientTransform="matrix(0.48909536,0,0,0.4778,-78.310432,-55.02)">
      <stop
         stop-color="#2b65bd"
         id="stop8" />
      <stop
         offset="1"
         stop-color="#64a3dc"
         id="stop10" />
    </linearGradient>
  </defs>
  <rect
     width="47.491161"
     height="47.999786"
     x="0.35566422"
     y="-0.0013292709"
     rx="2.729641"
     id="rect12"
     style="fill:#3771c8;fill-rule:evenodd;stroke-width:1" />
  <use
     transform="matrix(0.84432975,0,0,0.68197983,-1.9637085,6.1137135)"
     xlink:href="#1"
     id="use14"
     style="fill:#d7e3f4;fill-opacity:0.78431373"
     x="0"
     y="0"
     width="100%"
     height="100%" />
</svg>
