<?xml version="1.0" encoding="UTF-8" standalone="no"?>
<svg
   xmlns:dc="http://purl.org/dc/elements/1.1/"
   xmlns:cc="http://creativecommons.org/ns#"
   xmlns:rdf="http://www.w3.org/1999/02/22-rdf-syntax-ns#"
   xmlns:svg="http://www.w3.org/2000/svg"
   xmlns="http://www.w3.org/2000/svg"
   xmlns:xlink="http://www.w3.org/1999/xlink"
   xmlns:sodipodi="http://sodipodi.sourceforge.net/DTD/sodipodi-0.dtd"
   xmlns:inkscape="http://www.inkscape.org/namespaces/inkscape"
   viewBox="0 0 48 48"
   id="svg2"
   version="1.1"
   inkscape:version="0.91 r13725"
   sodipodi:docname="mediainfo-gui.svg">
  <metadata
     id="metadata39">
    <rdf:RDF>
      <cc:Work
         rdf:about="">
        <dc:format>image/svg+xml</dc:format>
        <dc:type
           rdf:resource="http://purl.org/dc/dcmitype/StillImage" />
        <dc:title></dc:title>
      </cc:Work>
    </rdf:RDF>
  </metadata>
  <sodipodi:namedview
     pagecolor="#ffffff"
     bordercolor="#666666"
     borderopacity="1"
     objecttolerance="10"
     gridtolerance="10"
     guidetolerance="10"
     inkscape:pageopacity="0"
     inkscape:pageshadow="2"
     inkscape:window-width="1280"
     inkscape:window-height="694"
     id="namedview37"
     showgrid="false"
     inkscape:zoom="4.9166667"
     inkscape:cx="-9.1525424"
     inkscape:cy="24"
     inkscape:window-x="0"
     inkscape:window-y="0"
     inkscape:window-maximized="1"
     inkscape:current-layer="svg2" />
  <defs
     id="defs4">
    <linearGradient
       xlink:href="#0"
       id="3"
       x1="96.68"
       y1="490.36"
       x2="96.33"
       y2="462.83"
       gradientUnits="userSpaceOnUse" />
    <linearGradient
       xlink:href="#0"
       id="4"
       x1="44.16"
       y1="490.59"
       x2="44.26"
       y2="461.93"
       gradientUnits="userSpaceOnUse" />
    <linearGradient
       xlink:href="#0"
       id="2"
       x1="72.85"
       y1="491.15"
       x2="72.29"
       y2="462.68"
       gradientUnits="userSpaceOnUse"
       gradientTransform="matrix(1.0021,0,0,1,-0.15,0.002)" />
    <linearGradient
       id="0">
      <stop
         stop-color="#2e3436"
         id="stop10" />
      <stop
         offset="1"
         stop-color="#555753"
         id="stop12" />
    </linearGradient>
    <linearGradient
       id="1"
       x1="70.03"
       y1="569.24"
       x2="66.53"
       y2="491.06"
       gradientUnits="userSpaceOnUse">
      <stop
         stop-color="#0bac83"
         id="stop15" />
      <stop
         offset="1"
         stop-color="#10da96"
         id="stop17" />
    </linearGradient>
  </defs>
  <g
     transform="matrix(0.25213584,0,0,0.19844589,-104.90592,-77.613237)"
     id="Calque.__209"
     style="fill:#37c871">
    <g
       id="shape14"
       style="fill:#37c871">
      <path
         style="fill:#37c871;fill-opacity:1"
         inkscape:connector-curvature="0"
         id="path8-5"
         d="m 455.9,395.95 q -7.55,-5.25 -16.6,-4.1 c -6.05,0.75 -11.05,3.4 -15.1,7.95 -4.05,4.55 -6.1,9.9 -6.1,16 l 0,192.5 c 0,6.1 2.05,11.45 6.1,16 4.05,4.55 9.05,7.2 15.1,7.95 6.05,0.75 11.55,-0.65 16.6,-4.1 L 595.55,531.9 c 4.45,-3.05 7.5,-7.15 9.2,-12.2 1.7,-5.1 1.7,-10.2 0,-15.25 -1.7,-5.05 -4.75,-9.15 -9.15,-12.25 L 455.9,395.95 Z" />
    </g>
  </g>
  <path
     style="fill:#16502d;fill-opacity:1"
     inkscape:connector-curvature="0"
     id="path35"
     d="m 47.536159,33.93235 c -0.07937,-0.10609 -0.182684,-0.169485 -0.309932,-0.190186 l -2.701198,-0.424362 c -0.147407,-0.485169 -0.348989,-0.980689 -0.606006,-1.485265 0.177644,-0.252288 0.44222,-0.609373 0.797509,-1.068667 0.354028,-0.460587 0.604745,-0.795678 0.753412,-1.007859 0.07937,-0.111265 0.118429,-0.227706 0.118429,-0.349322 0,-0.141022 -0.03402,-0.252288 -0.10331,-0.333796 -0.354029,-0.516221 -1.166656,-1.375294 -2.436622,-2.577221 -0.118429,-0.100915 -0.240638,-0.151372 -0.369147,-0.151372 -0.147406,0 -0.265836,0.04528 -0.354028,0.135847 l -2.096452,1.622407 C 39.82565,27.890373 39.38217,27.702774 38.899633,27.541051 L 38.48639,24.75165 c -0.01008,-0.131966 -0.06677,-0.240644 -0.170084,-0.326034 -0.103311,-0.08668 -0.22426,-0.129379 -0.361588,-0.129379 l -3.276966,0 c -0.285994,0 -0.462379,0.141023 -0.531672,0.424362 -0.128509,0.50587 -0.270876,1.445158 -0.428362,2.820452 -0.462378,0.151373 -0.910898,0.344147 -1.343039,0.575734 l -2.037238,-1.622406 c -0.128508,-0.100916 -0.255757,-0.151373 -0.384265,-0.151373 -0.216701,0 -0.681599,0.360966 -1.394695,1.084192 -0.713096,0.723226 -1.198153,1.266616 -1.45391,1.630169 -0.08819,0.131966 -0.132288,0.247113 -0.132288,0.349322 0,0.121616 0.04914,0.243232 0.147407,0.363554 0.658921,0.818966 1.185553,1.516316 1.579898,2.092051 -0.245678,0.464469 -0.438441,0.930232 -0.575768,1.3947 l -2.746554,0.424362 c -0.10835,0.0207 -0.201582,0.08668 -0.280955,0.196655 -0.07937,0.111266 -0.118429,0.227707 -0.118429,0.348029 l 0,3.366429 c 0,0.131966 0.03906,0.249701 0.118429,0.355791 0.07937,0.10609 0.182684,0.169486 0.309932,0.190186 l 2.702458,0.408837 c 0.137328,0.495519 0.33891,0.994921 0.604746,1.500791 -0.177644,0.252288 -0.44348,0.609372 -0.797509,1.068666 -0.354028,0.460588 -0.606005,0.795678 -0.753412,1.007859 -0.07937,0.111266 -0.118429,0.227706 -0.118429,0.349322 0,0.131966 0.03402,0.247113 0.10331,0.348028 0.384266,0.545978 1.195633,1.394701 2.436622,2.547464 0.10835,0.111265 0.231819,0.166898 0.369147,0.166898 0.147406,0 0.270875,-0.04528 0.369147,-0.135848 l 2.081333,-1.622406 c 0.403164,0.21218 0.846644,0.399779 1.329181,0.561502 l 0.413243,2.789402 c 0.01008,0.131966 0.06677,0.240644 0.170084,0.326033 0.103311,0.08668 0.22426,0.129379 0.361588,0.129379 l 3.278226,0 c 0.285994,0 0.462378,-0.141023 0.531672,-0.424362 0.127249,-0.50587 0.270876,-1.445158 0.428362,-2.820452 0.462378,-0.151372 0.910898,-0.344146 1.343039,-0.575734 l 2.037238,1.637932 c 0.137327,0.09056 0.265836,0.135848 0.384265,0.135848 0.216701,0 0.679079,-0.358379 1.387136,-1.07643 0.709316,-0.718051 1.195633,-1.264028 1.461469,-1.637932 0.08819,-0.100915 0.133548,-0.217356 0.133548,-0.348028 0,-0.131966 -0.04914,-0.257463 -0.147407,-0.379079 -0.708057,-0.890125 -1.234689,-1.587475 -1.579898,-2.092051 0.196542,-0.373904 0.389305,-0.834492 0.575768,-1.379175 l 2.731435,-0.424362 c 0.118429,-0.0207 0.216701,-0.08668 0.294814,-0.197949 0.07811,-0.111266 0.118429,-0.227706 0.118429,-0.349322 l 0,-3.365136 c 0,-0.131966 -0.03906,-0.2497 -0.118429,-0.355791 m -8.548334,4.753368 c -0.738293,0.758158 -1.629034,1.137237 -2.67222,1.137237 -1.043186,0 -1.933927,-0.379079 -2.67222,-1.137237 -0.738294,-0.758159 -1.107441,-1.672865 -1.107441,-2.744119 0,-1.071254 0.369147,-1.98596 1.107441,-2.744119 0.738293,-0.758158 1.629034,-1.137237 2.67222,-1.137237 1.043186,0 1.933927,0.379079 2.67222,1.137237 0.738294,0.758159 1.107441,1.672865 1.107441,2.744119 0,1.071254 -0.369147,1.98596 -1.107441,2.744119" />
</svg>
