<?xml version="1.0" encoding="UTF-8" standalone="no"?>
<svg
   xmlns:dc="http://purl.org/dc/elements/1.1/"
   xmlns:cc="http://creativecommons.org/ns#"
   xmlns:rdf="http://www.w3.org/1999/02/22-rdf-syntax-ns#"
   xmlns:svg="http://www.w3.org/2000/svg"
   xmlns="http://www.w3.org/2000/svg"
   xmlns:xlink="http://www.w3.org/1999/xlink"
   xmlns:sodipodi="http://sodipodi.sourceforge.net/DTD/sodipodi-0.dtd"
   xmlns:inkscape="http://www.inkscape.org/namespaces/inkscape"
   viewBox="0 0 48 48"
   id="svg2"
   version="1.1"
   inkscape:version="0.91 r13725"
   sodipodi:docname="movie-editor.svg">
  <metadata
     id="metadata63">
    <rdf:RDF>
      <cc:Work
         rdf:about="">
        <dc:format>image/svg+xml</dc:format>
        <dc:type
           rdf:resource="http://purl.org/dc/dcmitype/StillImage" />
        <dc:title></dc:title>
      </cc:Work>
    </rdf:RDF>
  </metadata>
  <sodipodi:namedview
     pagecolor="#ffffff"
     bordercolor="#666666"
     borderopacity="1"
     objecttolerance="10"
     gridtolerance="10"
     guidetolerance="10"
     inkscape:pageopacity="0"
     inkscape:pageshadow="2"
     inkscape:window-width="1280"
     inkscape:window-height="694"
     id="namedview61"
     showgrid="false"
     inkscape:zoom="4.9166667"
     inkscape:cx="-17.524197"
     inkscape:cy="24"
     inkscape:window-x="0"
     inkscape:window-y="0"
     inkscape:window-maximized="1"
     inkscape:current-layer="svg2" />
  <defs
     id="defs4">
    <linearGradient
       gradientUnits="userSpaceOnUse"
       y2="2.054"
       x2="-1.682"
       y1="8.72"
       x1="-1.706"
       id="3"
       xlink:href="#4" />
    <linearGradient
       id="4">
      <stop
         stop-color="#2e3436"
         id="stop8" />
      <stop
         offset="1"
         stop-color="#555753"
         id="stop10" />
    </linearGradient>
    <linearGradient
       gradientUnits="userSpaceOnUse"
       y2="2.264"
       x2="10.428"
       y1="8.666"
       x1="10.508"
       id="2"
       xlink:href="#4" />
    <linearGradient
       gradientTransform="matrix(0.0542,0,0,0.05409,-37.54,-80.21)"
       gradientUnits="userSpaceOnUse"
       y2="462.68"
       x2="72.29"
       y1="491.15"
       x1="72.85"
       id="0"
       xlink:href="#4" />
    <linearGradient
       gradientUnits="userSpaceOnUse"
       y2="8.699"
       x2="6.576"
       y1="27.421"
       x1="6.978"
       id="1"
       gradientTransform="matrix(1.71427,0,0,1.71427,15.789,-1.488)">
      <stop
         stop-color="#69159f"
         id="stop15" />
      <stop
         offset="1"
         stop-color="#b92ff5"
         id="stop17" />
    </linearGradient>
  </defs>
  <path
     d="m 45.012706,0.33898072 -10.455505,0 -20.911023,0 -10.4555057,0 c -1.6497241,0 -2.98727796,1.30051728 -2.98727796,2.94790738 l 0,41.7627129 c 0,1.647391 1.33755386,3.018197 2.98727796,3.018197 l 10.4555057,0 20.911023,0 10.455505,0 c 1.649737,0 2.987291,-1.370806 2.987291,-3.018197 l 0,-41.7627129 c 0,-1.6473901 -1.337554,-2.94790738 -2.987291,-2.94790738 z M 10.658899,42.101694 l -4.480936,0 0,-4.474576 4.480936,0 0,4.474576 z m 0,-10.440678 -4.480936,0 0,-4.474577 4.480936,0 0,4.474577 z m 0,-10.440679 -4.480936,0 0,-4.474575 4.480936,0 0,4.474575 z m 0,-10.440678 -4.480936,0 0,-4.4745763 4.480936,0 0,4.4745763 z m 10.455506,19.354688 0,-10.440679 8.96186,5.220339 -8.96186,5.22034 z m 20.91101,11.967347 -4.480924,0 0,-4.474576 4.480924,0 0,4.474576 z m 0,-10.440678 -4.480924,0 0,-4.474577 4.480924,0 0,4.474577 z m 0,-10.440679 -4.480924,0 0,-4.474575 4.480924,0 0,4.474575 z m 0,-10.440678 -4.480924,0 0,-4.4745763 4.480924,0 0,4.4745763 z"
     id="path3"
     inkscape:connector-curvature="0"
     style="fill:#660080" />
  <g
     style="fill:#ab37c8"
     id="g33"
     transform="matrix(0.90591936,0,0,1.71427,31.865941,4.8170848)">
    <g
       id="g35"
       transform="matrix(0.02279,-0.00991,0.00991,0.02278,-8.774,15.567)"
       style="fill:#ab37c8">
      <path
         style="opacity:0.82999998;fill:#ab37c8"
         inkscape:connector-curvature="0"
         id="path37"
         d="M 137.21,107.66 181.54,64.43 120.26,55.53 92.86,0 l -27.4,55.53 -61.28,8.9 44.33,43.23 -10.46,61.02 54.81,-28.82 54.81,28.82 z" />
      <path
         style="opacity:0.82999998;fill:#ab37c8"
         inkscape:connector-curvature="0"
         id="path39"
         d="m 398.08,470.11 -13.73,-80.03 58.14,-56.66 -80.35,-11.68 -35.93,-72.82 -35.94,72.82 -80.34,11.68 58.13,56.66 -13.72,80.03 71.87,-37.79 z" />
      <path
         style="opacity:0.82999998;fill:#ab37c8"
         inkscape:connector-curvature="0"
         id="path41"
         d="m 427.82,34.527 -23.66,-33.741 -15.65,38.12 -33.74,23.649 38.1,15.65 23.66,33.74 15.65,-38.11 33.75,-23.639 z" />
      <path
         style="opacity:0.82999998;fill:#ab37c8"
         inkscape:connector-curvature="0"
         id="path43"
         d="m 97.37,279.25 21.15,23.82 8.66,-30.65 23.8,-21.14 -30.64,-8.65 -21.15,-23.82 -8.64,30.66 -23.815,21.13 z" />
      <path
         style="opacity:0.82999998;fill:#ab37c8"
         inkscape:connector-curvature="0"
         id="path45"
         d="M 64.63,401.48 78.982,445.06 93.35,401.48 136.93,387.13 93.35,372.76 78.982,329.19 64.63,372.76 21.05,387.13 Z" />
      <path
         style="opacity:0.82999998;fill:#ab37c8"
         inkscape:connector-curvature="0"
         id="path47"
         d="m 304.83,166.87 16.92,-42.64 -38.95,24.23 -42.65,-16.94 24.23,38.97 -16.93,42.65 38.95,-24.23 42.66,16.93 z" />
    </g>
    <path
       style="opacity:0.76599995;fill:#ab37c8"
       inkscape:connector-curvature="0"
       id="path49"
       d="m 14.24,15.209 c 0.004,-0.205 -0.128,-0.274 -0.293,-0.152 l -1.943,1.427 c -0.165,0.122 -0.459,0.166 -0.653,0.098 L 9.074,15.79 c -0.194,-0.068 -0.3,0.037 -0.235,0.232 l 0.757,2.29 C 9.661,18.507 9.612,18.8 9.488,18.964 L 8.032,20.885 C 7.908,21.049 7.975,21.181 8.18,21.18 l 2.411,-0.012 c 0.205,0 0.469,0.136 0.586,0.305 l 1.377,1.98 c 0.117,0.169 0.264,0.146 0.327,-0.049 l 0.733,-2.297 c 0.062,-0.196 0.274,-0.404 0.471,-0.464 l 2.307,-0.698 c 0.196,-0.059 0.221,-0.206 0.054,-0.326 l -1.958,-1.408 c -0.167,-0.12 -0.3,-0.386 -0.295,-0.591 l 0.049,-2.411" />
    <path
       style="opacity:0.76599995;fill:#ab37c8"
       inkscape:connector-curvature="0"
       id="path51"
       d="m 15.191,13.739 c 0.076,-0.146 0.019,-0.327 -0.127,-0.403 -0.146,-0.076 -0.326,-0.019 -0.402,0.127 l -0.309,0.596 c -0.076,0.146 -0.019,0.327 0.127,0.403 0.146,0.076 0.326,0.019 0.402,-0.127 l 0.309,-0.596" />
    <path
       style="opacity:0.76599995;fill:#ab37c8"
       inkscape:connector-curvature="0"
       id="path53"
       d="m 14.466,22.987 c 0.065,0.152 0.24,0.222 0.392,0.157 0.152,-0.065 0.222,-0.24 0.157,-0.392 l -0.264,-0.618 c -0.065,-0.152 -0.24,-0.222 -0.392,-0.157 -0.152,0.065 -0.222,0.24 -0.157,0.392 l 0.264,0.618" />
    <path
       style="opacity:0.76599995;fill:#ab37c8"
       inkscape:connector-curvature="0"
       id="path55"
       d="m 17.374,18.2 c 0.163,-0.027 0.273,-0.181 0.246,-0.343 -0.027,-0.163 -0.181,-0.273 -0.343,-0.246 l -0.663,0.11 c -0.163,0.027 -0.273,0.181 -0.246,0.343 0.027,0.163 0.181,0.273 0.343,0.246 l 0.663,-0.11" />
    <path
       style="opacity:0.76599995;fill:#ab37c8"
       inkscape:connector-curvature="0"
       id="path57"
       d="m 7.392,19.313 c -0.161,0.034 -0.32,-0.069 -0.354,-0.23 -0.034,-0.161 0.069,-0.32 0.23,-0.354 l 0.657,-0.14 c 0.161,-0.034 0.32,0.069 0.354,0.23 0.034,0.161 -0.069,0.32 -0.23,0.354 l -0.657,0.14" />
    <path
       style="opacity:0.76599995;fill:#ab37c8"
       inkscape:connector-curvature="0"
       id="path59"
       d="M 9.635,14.177 C 9.564,14.028 9.626,13.85 9.774,13.779 c 0.149,-0.071 0.327,-0.009 0.398,0.14 l 0.291,0.605 c 0.072,0.149 0.009,0.327 -0.139,0.398 -0.149,0.071 -0.327,0.009 -0.399,-0.14 L 9.634,14.177" />
  </g>
</svg>
