<?xml version="1.0" encoding="UTF-8" standalone="no"?>
<svg
   xmlns:dc="http://purl.org/dc/elements/1.1/"
   xmlns:cc="http://creativecommons.org/ns#"
   xmlns:rdf="http://www.w3.org/1999/02/22-rdf-syntax-ns#"
   xmlns:svg="http://www.w3.org/2000/svg"
   xmlns="http://www.w3.org/2000/svg"
   xmlns:sodipodi="http://sodipodi.sourceforge.net/DTD/sodipodi-0.dtd"
   xmlns:inkscape="http://www.inkscape.org/namespaces/inkscape"
   viewBox="0 0 48 48"
   id="svg2"
   version="1.1"
   inkscape:version="0.91 r13725"
   sodipodi:docname="nemiver.svg">
  <metadata
     id="metadata32">
    <rdf:RDF>
      <cc:Work
         rdf:about="">
        <dc:format>image/svg+xml</dc:format>
        <dc:type
           rdf:resource="http://purl.org/dc/dcmitype/StillImage" />
        <dc:title></dc:title>
      </cc:Work>
    </rdf:RDF>
  </metadata>
  <sodipodi:namedview
     pagecolor="#ffffff"
     bordercolor="#666666"
     borderopacity="1"
     objecttolerance="10"
     gridtolerance="10"
     guidetolerance="10"
     inkscape:pageopacity="0"
     inkscape:pageshadow="2"
     inkscape:window-width="1280"
     inkscape:window-height="694"
     id="namedview30"
     showgrid="false"
     inkscape:zoom="4.9166667"
     inkscape:cx="-9.1525424"
     inkscape:cy="24"
     inkscape:window-x="0"
     inkscape:window-y="0"
     inkscape:window-maximized="1"
     inkscape:current-layer="svg2" />
  <defs
     id="defs4">
    <clipPath
       id="clipPath6">
      <path
         transform="matrix(15.33333 0 0 11.5 415-125.5)"
         d="m-24 13c0 1.105-.672 2-1.5 2-.828 0-1.5-.895-1.5-2 0-1.105.672-2 1.5-2 .828 0 1.5.895 1.5 2"
         fill="#1890d0"
         id="path8" />
    </clipPath>
    <clipPath
       id="clipPath10">
      <path
         transform="matrix(15.33333 0 0 11.5 415-125.5)"
         d="m-24 13c0 1.105-.672 2-1.5 2-.828 0-1.5-.895-1.5-2 0-1.105.672-2 1.5-2 .828 0 1.5.895 1.5 2"
         fill="#1890d0"
         id="path12" />
    </clipPath>
    <linearGradient
       gradientUnits="userSpaceOnUse"
       y2="1.017"
       x2="26.442"
       y1="47.39"
       x1="27.456"
       id="0"
       gradientTransform="matrix(0.99993369,0,0,0.99993369,0.00228757,0.00170063)">
      <stop
         stop-color="#2e3436"
         id="stop15" />
      <stop
         offset="1"
         stop-color="#555753"
         id="stop17" />
    </linearGradient>
    <linearGradient
       id="1"
       x1="-24.371"
       y1="28.988"
       x2="-24.333"
       y2="11.454"
       gradientUnits="userSpaceOnUse"
       gradientTransform="matrix(2.9387216,0,0,2.9387216,183.14331,-29.141725)">
      <stop
         stop-color="#197ff1"
         id="stop20" />
      <stop
         stop-color="#21c6fb"
         offset="1"
         id="stop22" />
    </linearGradient>
  </defs>
  <path
     inkscape:connector-curvature="0"
     style="fill:#2a7fff;stroke:none;stroke-width:2.00055313;stroke-linecap:round;stroke-linejoin:round"
     id="path28"
     d="m 27.208407,47.705963 q -11.513511,0 -19.3078488,-6.7829 -7.79746022,-6.782901 -7.79746022,-16.923297 0,-10.140395 7.79746022,-16.9232961 7.7974598,-6.78290091 19.3078488,-6.78290091 11.803927,0 19.164205,7.41582691 L 41.710373,11.640056 Q 36.392361,5.8730951 27.211532,5.8730951 q -8.525057,0 -14.427022,5.0063629 -5.8301398,5.006363 -5.8301398,13.120308 0,8.113946 5.8301398,13.120309 5.901965,5.006362 14.427022,5.006362 9.39942,0 16.02898,-6.592752 l 4.662239,4.055616 q -3.569283,3.740509 -8.962239,5.957109 -5.392959,2.154121 -11.732105,2.154121 z" />
</svg>
