<?xml version="1.0" encoding="UTF-8" standalone="no"?>
<svg
   xmlns:dc="http://purl.org/dc/elements/1.1/"
   xmlns:cc="http://creativecommons.org/ns#"
   xmlns:rdf="http://www.w3.org/1999/02/22-rdf-syntax-ns#"
   xmlns:svg="http://www.w3.org/2000/svg"
   xmlns="http://www.w3.org/2000/svg"
   xmlns:xlink="http://www.w3.org/1999/xlink"
   xmlns:sodipodi="http://sodipodi.sourceforge.net/DTD/sodipodi-0.dtd"
   xmlns:inkscape="http://www.inkscape.org/namespaces/inkscape"
   viewBox="0 0 48 48"
   id="svg2"
   version="1.1"
   inkscape:version="0.91 r13725"
   sodipodi:docname="octave.svg">
  <metadata
     id="metadata27">
    <rdf:RDF>
      <cc:Work
         rdf:about="">
        <dc:format>image/svg+xml</dc:format>
        <dc:type
           rdf:resource="http://purl.org/dc/dcmitype/StillImage" />
        <dc:title></dc:title>
      </cc:Work>
    </rdf:RDF>
  </metadata>
  <sodipodi:namedview
     pagecolor="#ffffff"
     bordercolor="#666666"
     borderopacity="1"
     objecttolerance="10"
     gridtolerance="10"
     guidetolerance="10"
     inkscape:pageopacity="0"
     inkscape:pageshadow="2"
     inkscape:window-width="1280"
     inkscape:window-height="694"
     id="namedview25"
     showgrid="false"
     inkscape:zoom="4.9166667"
     inkscape:cx="-9.1525424"
     inkscape:cy="24"
     inkscape:window-x="0"
     inkscape:window-y="0"
     inkscape:window-maximized="1"
     inkscape:current-layer="svg2" />
  <defs
     id="defs4">
    <clipPath
       id="clipPath6">
      <path
         transform="matrix(15.33333 0 0 11.5 415-125.5)"
         d="m-24 13c0 1.105-.672 2-1.5 2-.828 0-1.5-.895-1.5-2 0-1.105.672-2 1.5-2 .828 0 1.5.895 1.5 2"
         fill="#1890d0"
         id="path8" />
    </clipPath>
    <linearGradient
       xlink:href="#1"
       id="2"
       x1="24.17"
       y1="48.25"
       x2="23.465"
       y2=".217"
       gradientUnits="userSpaceOnUse"
       gradientTransform="matrix(0.99999478,0,0,0.99999478,-9.208e-5,1.66e-6)" />
    <linearGradient
       xlink:href="#1"
       id="0"
       gradientUnits="userSpaceOnUse"
       x1="24.61"
       y1="47.593"
       x2="23.593"
       y2="-.203" />
    <linearGradient
       id="1">
      <stop
         stop-color="#ff433a"
         id="stop13" />
      <stop
         stop-color="#ff9436"
         offset="1"
         id="stop15" />
    </linearGradient>
  </defs>
  <g
     id="g4163"
     transform="matrix(1.2397766,0,0,1.3915729,-5.6534336,-9.4993548)">
    <path
       d="M 41.168545,23.514686 A 14.65328,14.65328 0 0 1 26.515265,38.167966 14.65328,14.65328 0 0 1 11.861985,23.514686 14.65328,14.65328 0 0 1 26.515265,8.8614061 14.65328,14.65328 0 0 1 41.168545,23.514686 Z"
       id="path21"
       inkscape:connector-curvature="0"
       style="fill:none;fill-opacity:0.52399998;stroke:#ff6400;stroke-width:3.66332006;stroke-linecap:round;stroke-linejoin:round;stroke-opacity:1" />
    <path
       d="m 34.369729,8.6479565 c -0.732997,0 -1.323994,0.5899969 -1.323994,1.3219931 l 0,6.5139664 c 0,0.732996 0.591997,1.321993 1.323994,1.321993 l 6.511966,0 c 0.732996,0 1.321993,-0.589997 1.321993,-1.321993 l 0,-6.5139664 c 0,-0.7329962 -0.589997,-1.3219931 -1.321993,-1.3219931 l -6.511966,0 z M 6.8558721,14.715925 c -1.0259946,0 -1.8519903,0.825996 -1.8519903,1.85199 l 0,9.118953 c 0,1.025994 0.8259957,1.85199 1.8519903,1.85199 l 9.1189529,0 c 1.025994,0 1.85199,-0.825996 1.85199,-1.85199 l 0,-9.118953 c 0,-1.025994 -0.825996,-1.85199 -1.85199,-1.85199 l -9.1189529,0 z m 23.6408769,15.26392 c -0.878996,0 -1.587992,0.706996 -1.587992,1.585992 l 0,7.815959 c 0,0.878995 0.708996,1.587992 1.587992,1.587992 l 7.815959,0 c 0.878995,0 1.585992,-0.708997 1.585992,-1.587992 l 0,-7.815959 c 0,-0.878996 -0.706997,-1.585992 -1.585992,-1.585992 l -7.815959,0 z"
       id="path23"
       style="fill:#ff6600;stroke:none;stroke-linecap:round;stroke-linejoin:round"
       inkscape:connector-curvature="0" />
  </g>
</svg>
