<?xml version="1.0" encoding="UTF-8" standalone="no"?>
<svg
   xmlns:dc="http://purl.org/dc/elements/1.1/"
   xmlns:cc="http://creativecommons.org/ns#"
   xmlns:rdf="http://www.w3.org/1999/02/22-rdf-syntax-ns#"
   xmlns:svg="http://www.w3.org/2000/svg"
   xmlns="http://www.w3.org/2000/svg"
   xmlns:sodipodi="http://sodipodi.sourceforge.net/DTD/sodipodi-0.dtd"
   xmlns:inkscape="http://www.inkscape.org/namespaces/inkscape"
   viewBox="0 0 48 48"
   id="svg2"
   version="1.1"
   inkscape:version="0.91 r13725"
   sodipodi:docname="preferences-system-search.svg">
  <metadata
     id="metadata29">
    <rdf:RDF>
      <cc:Work
         rdf:about="">
        <dc:format>image/svg+xml</dc:format>
        <dc:type
           rdf:resource="http://purl.org/dc/dcmitype/StillImage" />
        <dc:title></dc:title>
      </cc:Work>
    </rdf:RDF>
  </metadata>
  <sodipodi:namedview
     pagecolor="#ffffff"
     bordercolor="#666666"
     borderopacity="1"
     objecttolerance="10"
     gridtolerance="10"
     guidetolerance="10"
     inkscape:pageopacity="0"
     inkscape:pageshadow="2"
     inkscape:window-width="1280"
     inkscape:window-height="694"
     id="namedview27"
     showgrid="false"
     inkscape:zoom="4.9166667"
     inkscape:cx="-9.1525424"
     inkscape:cy="24"
     inkscape:window-x="0"
     inkscape:window-y="0"
     inkscape:window-maximized="1"
     inkscape:current-layer="svg2" />
  <defs
     id="defs4">
    <linearGradient
       y1="545.8"
       x2="0"
       y2="517.8"
       gradientUnits="userSpaceOnUse"
       id="linearGradient6">
      <stop
         stop-color="#3889e9"
         id="stop8" />
      <stop
         offset="1"
         stop-color="#5ea5fb"
         id="stop10" />
    </linearGradient>
    <linearGradient
       id="0"
       gradientUnits="userSpaceOnUse"
       y1="545.14"
       x2="0"
       y2="518.14">
      <stop
         stop-color="#197ff1"
         id="stop13" />
      <stop
         offset="1"
         stop-color="#21c6fb"
         id="stop15" />
    </linearGradient>
  </defs>
  <path
     style="fill:#0066ff;fill-opacity:0.847"
     inkscape:connector-curvature="0"
     id="path25"
     d="m 46.783883,41.613031 -9.774121,-9.774042 c 2.355654,-3.400365 3.532604,-7.190712 3.532604,-11.369994 0,-2.716585 -0.52744,-5.3146 -1.581978,-7.793697 C 37.907604,10.195849 36.48127,8.058815 34.685939,6.2634984 32.890604,4.468182 30.753905,3.0432588 28.274787,1.989084 25.794968,0.93630627 23.196929,0.40746819 20.480321,0.40746819 c -2.716608,0 -5.314644,0.5270885 -7.793764,1.58161581 C 10.207091,3.0418596 8.0700378,4.468182 6.2747062,6.2634984 4.4793746,8.058815 3.0544402,10.196197 2.0002539,12.675298 0.94746937,15.154744 0.41862702,17.75241 0.41862702,20.468995 c 0,2.716585 0.52709248,5.313904 1.58162688,7.7937 1.0527859,2.479097 2.4791207,4.615781 4.2744523,6.411098 1.7953316,1.795668 3.9327328,3.220239 6.4118508,4.274767 2.479468,1.056274 5.077156,1.581613 7.793764,1.581613 4.180016,0 7.970045,-1.178341 11.37044,-3.532573 l 9.774121,9.745357 c 0.683787,0.721904 1.537908,1.082858 2.564462,1.082858 0.987729,0 1.843248,-0.360954 2.56446,-1.082858 0.721911,-0.721555 1.082866,-1.576717 1.082866,-2.56444 3.5e-5,-1.006258 -0.349763,-1.86142 -1.052787,-2.56409 M 29.502104,29.488953 c -2.498357,2.498334 -5.504569,3.747329 -9.019334,3.747329 -3.515115,0 -6.520628,-1.249342 -9.018984,-3.747329 -2.4983537,-2.498334 -3.7473581,-5.504169 -3.7473581,-9.018906 0,-3.515089 1.2493525,-6.520924 3.7473581,-9.018911 2.498008,-2.4983336 5.504568,-3.7473254 9.018984,-3.7473254 3.515116,0 6.520629,1.2493422 9.019334,3.7473254 2.498356,2.497987 3.747708,5.504521 3.747708,9.018911 0,3.515084 -1.249703,6.520572 -3.747708,9.018906" />
</svg>
