<?xml version="1.0" encoding="UTF-8" standalone="no"?>
<svg
   xmlns:dc="http://purl.org/dc/elements/1.1/"
   xmlns:cc="http://creativecommons.org/ns#"
   xmlns:rdf="http://www.w3.org/1999/02/22-rdf-syntax-ns#"
   xmlns:svg="http://www.w3.org/2000/svg"
   xmlns="http://www.w3.org/2000/svg"
   xmlns:sodipodi="http://sodipodi.sourceforge.net/DTD/sodipodi-0.dtd"
   xmlns:inkscape="http://www.inkscape.org/namespaces/inkscape"
   viewBox="0 0 48 48"
   id="svg2"
   version="1.1"
   inkscape:version="0.91 r13725"
   sodipodi:docname="qgo.svg">
  <metadata
     id="metadata34">
    <rdf:RDF>
      <cc:Work
         rdf:about="">
        <dc:format>image/svg+xml</dc:format>
        <dc:type
           rdf:resource="http://purl.org/dc/dcmitype/StillImage" />
        <dc:title></dc:title>
      </cc:Work>
    </rdf:RDF>
  </metadata>
  <sodipodi:namedview
     pagecolor="#ffffff"
     bordercolor="#666666"
     borderopacity="1"
     objecttolerance="10"
     gridtolerance="10"
     guidetolerance="10"
     inkscape:pageopacity="0"
     inkscape:pageshadow="2"
     inkscape:window-width="1280"
     inkscape:window-height="694"
     id="namedview32"
     showgrid="false"
     inkscape:zoom="6.9532167"
     inkscape:cx="-2.3613911"
     inkscape:cy="21.914997"
     inkscape:window-x="0"
     inkscape:window-y="0"
     inkscape:window-maximized="1"
     inkscape:current-layer="svg2" />
  <defs
     id="defs4">
    <clipPath
       id="1">
      <path
         transform="matrix(15.33333 0 0 11.5 415-125.5)"
         d="m-24 13c0 1.105-.672 2-1.5 2-.828 0-1.5-.895-1.5-2 0-1.105.672-2 1.5-2 .828 0 1.5.895 1.5 2"
         fill="#1890d0"
         id="path7" />
    </clipPath>
    <linearGradient
       id="0"
       x1="61.57"
       y1="22.939"
       x2="60.753"
       y2="-27.706"
       gradientUnits="userSpaceOnUse">
      <stop
         stop-color="#197cf1"
         id="stop10" />
      <stop
         offset="1"
         stop-color="#21c9fb"
         id="stop12" />
    </linearGradient>
  </defs>
  <g
     id="g4180"
     transform="matrix(1.3275862,0,0,1.3275862,-7.8620686,-7.8620686)">
    <path
       d="M 22.5,33.75 C 22.5,38.3085 18.8085,42 14.25,42 9.6915,42 6,38.3085 6,33.75 6,29.1915 9.6915,25.5 14.25,25.5 c 4.5585,0 8.25,3.6915 8.25,8.25"
       id="path22"
       inkscape:connector-curvature="0"
       style="fill:#002255;fill-opacity:1" />
    <g
       transform="matrix(1.5,0,0,1.5,-12,-12)"
       id="g24"
       style="fill:#80b3ff">
      <path
         style="fill:#80b3ff"
         d="M 36,30.5 C 36,33.539 33.539,36 30.5,36 27.461,36 25,33.539 25,30.5 25,27.461 27.461,25 30.5,25 c 3.039,0 5.5,2.461 5.5,5.5"
         id="path26"
         inkscape:connector-curvature="0" />
      <path
         style="fill:#80b3ff"
         d="M 23,17.5 C 23,20.539 20.539,23 17.5,23 14.461,23 12,20.539 12,17.5 12,14.461 14.461,12 17.5,12 c 3.039,0 5.5,2.461 5.5,5.5"
         id="path28"
         inkscape:connector-curvature="0" />
    </g>
    <path
       d="m 42,14.25 c 0,4.5585 -3.6915,8.25 -8.25,8.25 -4.5585,0 -8.25,-3.6915 -8.25,-8.25 C 25.5,9.6915 29.1915,6 33.75,6 38.3085,6 42,9.6915 42,14.25"
       id="path30"
       inkscape:connector-curvature="0"
       style="fill:#002255;fill-opacity:1" />
  </g>
</svg>
