<?xml version="1.0" encoding="UTF-8" standalone="no"?>
<svg
   xmlns:dc="http://purl.org/dc/elements/1.1/"
   xmlns:cc="http://creativecommons.org/ns#"
   xmlns:rdf="http://www.w3.org/1999/02/22-rdf-syntax-ns#"
   xmlns:svg="http://www.w3.org/2000/svg"
   xmlns="http://www.w3.org/2000/svg"
   xmlns:sodipodi="http://sodipodi.sourceforge.net/DTD/sodipodi-0.dtd"
   xmlns:inkscape="http://www.inkscape.org/namespaces/inkscape"
   viewBox="0 0 48 48"
   id="svg2"
   version="1.1"
   inkscape:version="0.91 r13725"
   sodipodi:docname="snappy.svg">
  <metadata
     id="metadata19">
    <rdf:RDF>
      <cc:Work
         rdf:about="">
        <dc:format>image/svg+xml</dc:format>
        <dc:type
           rdf:resource="http://purl.org/dc/dcmitype/StillImage" />
        <dc:title></dc:title>
      </cc:Work>
    </rdf:RDF>
  </metadata>
  <sodipodi:namedview
     pagecolor="#ffffff"
     bordercolor="#666666"
     borderopacity="1"
     objecttolerance="10"
     gridtolerance="10"
     guidetolerance="10"
     inkscape:pageopacity="0"
     inkscape:pageshadow="2"
     inkscape:window-width="1280"
     inkscape:window-height="694"
     id="namedview17"
     showgrid="false"
     inkscape:zoom="4.9166667"
     inkscape:cx="-6.4067797"
     inkscape:cy="24"
     inkscape:window-x="0"
     inkscape:window-y="0"
     inkscape:window-maximized="1"
     inkscape:current-layer="svg2" />
  <defs
     id="defs4">
    <linearGradient
       id="0"
       x1="233.53"
       y1="143.37"
       x2="232.31"
       y2="43.821"
       gradientUnits="userSpaceOnUse"
       gradientTransform="matrix(0.4778,0,0,0.4778,-86.27,-20.282)">
      <stop
         stop-color="#974eb7"
         id="stop7" />
      <stop
         offset="1"
         stop-color="#d164ff"
         id="stop9" />
    </linearGradient>
  </defs>
  <path
     style="fill:#bc5fd3"
     inkscape:connector-curvature="0"
     id="path15"
     d="m 47.172241,3.9931945 -2.639356,0 c -0.583702,0 -1.055744,0.9920598 -1.055744,2.219076 l 0,2.5974938 -14.594089,0 C 28.280657,3.9147428 26.169171,0.31200954 23.654019,0.31200954 c -2.328843,0 -4.309913,3.09365126 -5.073775,7.44043016 L 17.276092,4.8806956 c -0.50924,-1.1225923 -1.353898,-1.200912 -1.906548,-0.156638 l -2.154956,4.0987617 -0.01863,0 -1.782342,-3.9421208 C 10.904382,3.7581048 10.059787,3.6797865 9.5070738,4.7240605 l -2.1549568,4.0857082 -0.018623,0 L 5.5511511,4.8807015 C 5.0418971,3.7581033 4.197303,3.6797836 3.6445907,4.7240547 L 1.7690948,8.2745738 c 0,0 -9.245822,40.8231602 19.9349062,39.3690122 l 21.816612,0 c 2.602096,0 4.707371,-4.424969 4.707371,-9.894467 l -20.208157,0 c -2.322635,0 -4.204341,-3.955175 -4.204341,-8.837143 l 1.589825,0 1.999701,4.412177 c 0.509241,1.122591 1.353834,1.200781 1.906547,0.156501 l 2.167315,-4.111816 1.788615,3.955175 c 0.509178,1.122591 1.353834,1.200781 1.906484,0.156501 l 2.167377,-4.111816 1.788554,3.955176 c 0.50924,1.122593 1.353835,1.200783 1.906546,0.1565 l 2.409577,-4.568686 0.614816,0 c 2.080433,0 3.806884,-3.211133 4.117397,-7.401139 l 0.04968,0 0,-15.2724587 c 6e-6,-1.2531276 -0.471917,-2.2450527 -1.055681,-2.2450527 M 23.647813,16.197952 c -1.186157,0 -2.148746,-2.023273 -2.148746,-4.5166 0,-2.4931993 0.962589,-4.5164724 2.148746,-4.5164724 1.186158,0 2.148747,2.0232731 2.148747,4.5164724 -6e-6,2.493195 -0.96265,4.5166 -2.148747,4.5166" />
</svg>
