<?xml version="1.0" encoding="UTF-8" standalone="no"?>
<svg
   xmlns:dc="http://purl.org/dc/elements/1.1/"
   xmlns:cc="http://creativecommons.org/ns#"
   xmlns:rdf="http://www.w3.org/1999/02/22-rdf-syntax-ns#"
   xmlns:svg="http://www.w3.org/2000/svg"
   xmlns="http://www.w3.org/2000/svg"
   xmlns:sodipodi="http://sodipodi.sourceforge.net/DTD/sodipodi-0.dtd"
   xmlns:inkscape="http://www.inkscape.org/namespaces/inkscape"
   viewBox="0 0 48 48"
   id="svg2"
   version="1.1"
   inkscape:version="0.91 r13725"
   sodipodi:docname="soundconverter.svg">
  <metadata
     id="metadata28">
    <rdf:RDF>
      <cc:Work
         rdf:about="">
        <dc:format>image/svg+xml</dc:format>
        <dc:type
           rdf:resource="http://purl.org/dc/dcmitype/StillImage" />
        <dc:title></dc:title>
      </cc:Work>
    </rdf:RDF>
  </metadata>
  <sodipodi:namedview
     pagecolor="#ffffff"
     bordercolor="#666666"
     borderopacity="1"
     objecttolerance="10"
     gridtolerance="10"
     guidetolerance="10"
     inkscape:pageopacity="0"
     inkscape:pageshadow="2"
     inkscape:window-width="1280"
     inkscape:window-height="694"
     id="namedview26"
     showgrid="false"
     inkscape:zoom="4.9166667"
     inkscape:cx="-9.1525424"
     inkscape:cy="24"
     inkscape:window-x="0"
     inkscape:window-y="0"
     inkscape:window-maximized="1"
     inkscape:current-layer="svg2" />
  <defs
     id="defs4">
    <linearGradient
       gradientTransform="matrix(0.41708309,-3.0000222e-4,3.2000237e-4,0.39759294,13.089329,-59.530936)"
       id="0"
       gradientUnits="userSpaceOnUse"
       x1="5.485"
       y1="262.77"
       x2="3.419"
       y2="147.64">
      <stop
         stop-color="#1074f5"
         id="stop7" />
      <stop
         offset="1"
         stop-color="#02befd"
         id="stop9" />
    </linearGradient>
    <linearGradient
       gradientUnits="userSpaceOnUse"
       y2="528.33"
       x2="0"
       y1="551.67"
       id="1"
       gradientTransform="matrix(1.0298719,0,0,1.0298719,-449.36522,-521.97159)">
      <stop
         stop-color="#e3e3e3"
         id="stop12" />
      <stop
         offset="1"
         stop-color="#fcf9f9"
         id="stop14" />
    </linearGradient>
    <clipPath
       id="clipPath-730514797">
      <g
         transform="translate(0,-1004.3622)"
         id="g17">
        <path
           d="m -24,13 c 0,1.105 -0.672,2 -1.5,2 -0.828,0 -1.5,-0.895 -1.5,-2 0,-1.105 0.672,-2 1.5,-2 0.828,0 1.5,0.895 1.5,2 z"
           transform="matrix(15.333333,0,0,11.5,414.99999,878.8622)"
           id="path19"
           inkscape:connector-curvature="0"
           style="fill:#1890d0" />
      </g>
    </clipPath>
  </defs>
  <g
     id="g47"
     transform="matrix(1.9742911,0,0,1.9742452,-23.485286,-23.284522)">
    <g
       clip-path="url(#clipPath-730514797)"
       id="g49">
      <!-- color: #eeeeee -->
      <g
         id="g51">
        <path
           d="m 36,13.977 c 0,0 -2,3.01 -5,3.01 -2.797,-0.539 -3.906,-0.082 -4,0 l 0,12.11 c -0.133,2.551 -2.223,5.109 -5.336,6.285 -3.949,1.492 -8.125,0.195 -9.332,-2.91 -1.211,-3.098 1,-6.855 4.953,-8.348 3.059,-1.152 5.867,-0.867 7.715,0.867 l 0,-12.01 c 4,-2.664 7.719,0.957 11,1 m 0,-0.004"
           id="path53"
           inkscape:connector-curvature="0"
           style="fill:#1086b9;fill-opacity:1;fill-rule:nonzero;stroke:none" />
      </g>
    </g>
  </g>
  <path
     style="fill:#214478;stroke-width:1.31700003"
     inkscape:connector-curvature="0"
     id="path24"
     d="m 36.061771,22.934627 c 2.054259,0.0058 4.137059,0.822317 5.764694,2.440115 1.143925,1.681053 -1.035768,3.481908 -2.017456,1.843025 -2.954827,-2.281977 -7.122683,-1.47787 -9.345938,1.935991 -1.182984,1.692554 -1.849209,3.951528 -1.841698,6.21913 l 1.95286,0 -3.124576,5.980485 -3.124576,-5.980485 1.95286,0 c -0.06234,-5.414065 2.989378,-10.561692 7.08663,-11.966722 0.878787,-0.30765 1.784613,-0.480165 2.6972,-0.467705 m 8.573057,6.47886 3.124577,5.980485 -1.95286,0 c 0.05558,5.479236 -3.074253,10.687243 -7.24286,12.015601 -2.812869,1.002499 -5.993778,0.271231 -8.307167,-2.022247 -1.179228,-1.709805 1.030509,-3.49341 2.021211,-1.838233 2.863194,2.216804 6.872566,1.513331 9.132626,-1.6523 1.308417,-1.720349 2.061019,-4.104876 2.051254,-6.502821 l -1.95286,0 3.124577,-5.980485" />
</svg>
