<?xml version="1.0" encoding="UTF-8" standalone="no"?>
<svg
   xmlns:dc="http://purl.org/dc/elements/1.1/"
   xmlns:cc="http://creativecommons.org/ns#"
   xmlns:rdf="http://www.w3.org/1999/02/22-rdf-syntax-ns#"
   xmlns:svg="http://www.w3.org/2000/svg"
   xmlns="http://www.w3.org/2000/svg"
   xmlns:sodipodi="http://sodipodi.sourceforge.net/DTD/sodipodi-0.dtd"
   xmlns:inkscape="http://www.inkscape.org/namespaces/inkscape"
   viewBox="0 0 48 48"
   id="svg2"
   version="1.1"
   inkscape:version="0.91 r13725"
   sodipodi:docname="typecatcher.svg">
  <metadata
     id="metadata19">
    <rdf:RDF>
      <cc:Work
         rdf:about="">
        <dc:format>image/svg+xml</dc:format>
        <dc:type
           rdf:resource="http://purl.org/dc/dcmitype/StillImage" />
        <dc:title></dc:title>
      </cc:Work>
    </rdf:RDF>
  </metadata>
  <sodipodi:namedview
     pagecolor="#ffffff"
     bordercolor="#666666"
     borderopacity="1"
     objecttolerance="10"
     gridtolerance="10"
     guidetolerance="10"
     inkscape:pageopacity="0"
     inkscape:pageshadow="2"
     inkscape:window-width="1280"
     inkscape:window-height="694"
     id="namedview17"
     showgrid="false"
     inkscape:zoom="4.9166667"
     inkscape:cx="-11.59322"
     inkscape:cy="24"
     inkscape:window-x="0"
     inkscape:window-y="0"
     inkscape:window-maximized="1"
     inkscape:current-layer="svg2" />
  <defs
     id="defs4">
    <linearGradient
       id="0"
       x1="25.738"
       y1="39.09"
       x2="25.368"
       y2="6.25"
       gradientUnits="userSpaceOnUse">
      <stop
         stop-color="#a0d5ff"
         id="stop7" />
      <stop
         offset="1"
         stop-color="#fff"
         id="stop9" />
    </linearGradient>
  </defs>
  <g
     id="g4162"
     transform="matrix(1.5756354,0,0,1.3628308,85.631594,-11.997268)">
    <path
       sodipodi:nodetypes="cccccc"
       inkscape:connector-curvature="0"
       id="path3066"
       d="m -48.587475,43.580576 18.338508,0.112397 c 4.208849,0.675837 11.348846,-13.404353 0.450957,-21.176627 -0.225444,-14.5307683 -7.966732,-17.9099198 -13.077479,-7.546984 -3.578774,-2.298222 -8.567992,0.788442 -7.440635,9.912501 -6.375188,3.845703 -3.833037,17.121431 1.728647,18.698442 z"
       style="opacity:0.9;fill:#80ffe6;fill-opacity:1;stroke:none" />
    <g
       id="text3777"
       style="font-style:normal;font-variant:normal;font-weight:normal;font-stretch:normal;font-size:40px;line-height:125%;font-family:Ubuntu;-inkscape-font-specification:Ubuntu;letter-spacing:0px;word-spacing:0px;fill:#202d3a;fill-opacity:1;stroke:none"
       transform="matrix(0.75082832,0,0,1.121128,-58.279473,-1.0135018)">
      <path
         inkscape:connector-curvature="0"
         id="path3782"
         style="font-style:italic;-inkscape-font-specification:'Ubuntu Italic';fill:#202d3a;fill-opacity:1"
         d="m 21.407258,30.820263 -2.363344,4.292604 -2.55627,0 c 1.800641,-3.247585 3.553051,-6.237935 5.257235,-8.97106 1.72025,-2.733108 3.41639,-5.313491 5.088424,-7.741159 l 2.290997,0 c 0.241144,1.205804 0.458186,2.427668 0.651125,3.665596 0.20899,1.221876 0.409954,2.508048 0.602894,3.858521 0.192912,1.35049 0.3778,2.781357 0.554663,4.292604 0.176834,1.511257 0.361721,3.143089 0.554662,4.895498 l -2.363344,0 C 29.0439,34.389395 28.971554,33.665923 28.907258,32.94245 28.842938,32.202902 28.77059,31.495508 28.690217,30.820263 l -7.282959,0 m 7.065916,-1.881029 c -0.128629,-1.302243 -0.281362,-2.596455 -0.458199,-3.882636 -0.160783,-1.286163 -0.353709,-2.612528 -0.578778,-3.979101 -0.562711,0.81995 -1.262068,1.881042 -2.098071,3.18328 -0.83602,1.286184 -1.784573,2.845668 -2.845659,4.678457 l 5.980707,0" />
    </g>
  </g>
</svg>
