<?xml version="1.0" encoding="UTF-8" standalone="no"?>
<svg
   xmlns:dc="http://purl.org/dc/elements/1.1/"
   xmlns:cc="http://creativecommons.org/ns#"
   xmlns:rdf="http://www.w3.org/1999/02/22-rdf-syntax-ns#"
   xmlns:svg="http://www.w3.org/2000/svg"
   xmlns="http://www.w3.org/2000/svg"
   xmlns:xlink="http://www.w3.org/1999/xlink"
   xmlns:sodipodi="http://sodipodi.sourceforge.net/DTD/sodipodi-0.dtd"
   xmlns:inkscape="http://www.inkscape.org/namespaces/inkscape"
   viewBox="0 0 48 48"
   id="svg2"
   version="1.1"
   inkscape:version="0.91 r13725"
   sodipodi:docname="welcome.svg">
  <metadata
     id="metadata39">
    <rdf:RDF>
      <cc:Work
         rdf:about="">
        <dc:format>image/svg+xml</dc:format>
        <dc:type
           rdf:resource="http://purl.org/dc/dcmitype/StillImage" />
        <dc:title></dc:title>
      </cc:Work>
    </rdf:RDF>
  </metadata>
  <sodipodi:namedview
     pagecolor="#ffffff"
     bordercolor="#666666"
     borderopacity="1"
     objecttolerance="10"
     gridtolerance="10"
     guidetolerance="10"
     inkscape:pageopacity="0"
     inkscape:pageshadow="2"
     inkscape:window-width="1280"
     inkscape:window-height="694"
     id="namedview37"
     showgrid="false"
     inkscape:zoom="4.9166667"
     inkscape:cx="-11.59322"
     inkscape:cy="24"
     inkscape:window-x="0"
     inkscape:window-y="0"
     inkscape:window-maximized="1"
     inkscape:current-layer="svg2" />
  <defs
     id="defs4">
    <linearGradient
       xlink:href="#2"
       id="5"
       x1="-4.373"
       y1="48.46"
       x2="-4.315"
       y2="33.21"
       gradientUnits="userSpaceOnUse"
       gradientTransform="translate(38.03,-7.119)" />
    <linearGradient
       id="4"
       x1="-123.97"
       y1="73.5"
       x2="-125.19"
       y2="-26.05"
       gradientUnits="userSpaceOnUse"
       gradientTransform="matrix(.49433 0 0 .4778 86.64 13.1)">
      <stop
         stop-color="#2b65bd"
         id="stop8" />
      <stop
         stop-color="#64a3dc"
         offset="1"
         id="stop10" />
    </linearGradient>
    <linearGradient
       xlink:href="#4"
       id="6"
       x1="-4.78"
       y1="29.438"
       x2="-4.518"
       y2="13.777"
       gradientUnits="userSpaceOnUse"
       gradientTransform="translate(38.03,-7.119)" />
    <linearGradient
       xlink:href="#4"
       id="3"
       x1="-22.736"
       y1="48.46"
       x2="-22.678"
       y2="32.596"
       gradientUnits="userSpaceOnUse"
       gradientTransform="translate(38.03,-7.119)" />
    <linearGradient
       xlink:href="#2"
       id="1"
       x1="-22.939"
       y1="30.25"
       x2="-22.678"
       y2="13.573"
       gradientUnits="userSpaceOnUse"
       gradientTransform="translate(38.03,-7.119)" />
    <linearGradient
       id="0"
       gradientUnits="userSpaceOnUse"
       gradientTransform="matrix(.49433 0 0 .4778 86.64 13.1)"
       x1="-123.97"
       y1="73.5"
       x2="-125.19"
       y2="-26.05">
      <stop
         stop-color="#e1e1e1"
         id="stop16" />
      <stop
         offset="1"
         stop-color="#f4f4ff"
         id="stop18" />
    </linearGradient>
    <linearGradient
       gradientUnits="userSpaceOnUse"
       y2="-1.823"
       x2="22.382"
       y1="48.821"
       x1="23.2"
       id="2">
      <stop
         stop-color="#7737c5"
         id="stop21" />
      <stop
         offset="1"
         stop-color="#9371ff"
         id="stop23" />
    </linearGradient>
  </defs>
  <g
     id="g4171"
     transform="matrix(1.3163842,0,0,1.3163578,-7.388565,-7.5933785)">
    <path
       d="m 40.819,6.001 c 0.652,0 1.177,0.523 1.177,1.173 l 0,14.427 c 0,0.65 -0.525,1.173 -1.177,1.173 l -14.47,0 c -0.652,0 -1.177,-0.523 -1.177,-1.173 l 0,-14.427 c 0,-0.65 0.525,-1.173 1.177,-1.173 l 14.47,0"
       id="path29"
       style="fill:#5f8dd3"
       inkscape:connector-curvature="0" />
    <path
       d="m 21.643,6.001 c 0.652,0 1.177,0.523 1.177,1.173 l 0,14.427 c 0,0.65 -0.525,1.173 -1.177,1.173 l -14.47,0 c -0.652,0 -1.177,-0.523 -1.177,-1.173 l 0,-14.427 c 0,-0.65 0.525,-1.173 1.177,-1.173 l 14.47,0"
       id="path31"
       style="fill:#9955ff"
       inkscape:connector-curvature="0" />
    <path
       d="m 40.819,25.231 c 0.652,0 1.177,0.523 1.177,1.173 l 0,14.427 c 0,0.65 -0.525,1.173 -1.177,1.173 l -14.47,0 c -0.652,0 -1.177,-0.523 -1.177,-1.173 l 0,-14.427 c 0,-0.65 0.525,-1.173 1.177,-1.173 l 14.47,0"
       id="path33"
       style="fill:#9955ff"
       inkscape:connector-curvature="0" />
    <path
       d="m 21.643,25.231 c 0.652,0 1.177,0.523 1.177,1.173 l 0,14.427 c 0,0.65 -0.525,1.173 -1.177,1.173 l -14.47,0 c -0.652,0 -1.177,-0.523 -1.177,-1.173 l 0,-14.427 c 0,-0.65 0.525,-1.173 1.177,-1.173 l 14.47,0"
       id="path35"
       style="fill:#5f8dd3"
       inkscape:connector-curvature="0" />
  </g>
</svg>
