<?xml version="1.0" encoding="UTF-8" standalone="no"?>
<svg
   xmlns:dc="http://purl.org/dc/elements/1.1/"
   xmlns:cc="http://creativecommons.org/ns#"
   xmlns:rdf="http://www.w3.org/1999/02/22-rdf-syntax-ns#"
   xmlns:svg="http://www.w3.org/2000/svg"
   xmlns="http://www.w3.org/2000/svg"
   xmlns:xlink="http://www.w3.org/1999/xlink"
   xmlns:sodipodi="http://sodipodi.sourceforge.net/DTD/sodipodi-0.dtd"
   xmlns:inkscape="http://www.inkscape.org/namespaces/inkscape"
   viewBox="0 0 64 64"
   id="svg13202"
   version="1.1"
   inkscape:version="0.91 r13725"
   sodipodi:docname="folder-documents.svg">
  <metadata
     id="metadata13228">
    <rdf:RDF>
      <cc:Work
         rdf:about="">
        <dc:format>image/svg+xml</dc:format>
        <dc:type
           rdf:resource="http://purl.org/dc/dcmitype/StillImage" />
        <dc:title />
      </cc:Work>
    </rdf:RDF>
  </metadata>
  <sodipodi:namedview
     pagecolor="#ffffff"
     bordercolor="#666666"
     borderopacity="1"
     objecttolerance="10"
     gridtolerance="10"
     guidetolerance="10"
     inkscape:pageopacity="0"
     inkscape:pageshadow="2"
     inkscape:window-width="1280"
     inkscape:window-height="688"
     id="namedview13226"
     showgrid="false"
     inkscape:zoom="3.6875"
     inkscape:cx="-16.677966"
     inkscape:cy="32"
     inkscape:window-x="0"
     inkscape:window-y="0"
     inkscape:window-maximized="1"
     inkscape:current-layer="svg13202" />
  <defs
     id="defs13204">
    <linearGradient
       xlink:href="#1"
       id="3"
       x1="-19.915"
       y1="1048.7"
       x2="-19.996"
       y2="1025.51"
       gradientUnits="userSpaceOnUse"
       gradientTransform="translate(51.949,-1001.46)" />
    <linearGradient
       gradientUnits="userSpaceOnUse"
       y2="354.29"
       x2="-704.05"
       y1="647.77"
       x1="-701.19"
       id="2"
       gradientTransform="matrix(0.01590505,0,0,0.01845141,129.51168,-45.007092)">
      <stop
         stop-color="#93cfff"
         id="stop13208" />
      <stop
         offset="1"
         stop-color="#cde8fe"
         id="stop13210" />
    </linearGradient>
    <linearGradient
       xlink:href="#1"
       id="0"
       x1="59.12"
       y1="-13.295"
       x2="59.15"
       y2="-37.783"
       gradientUnits="userSpaceOnUse"
       gradientTransform="matrix(0.52660675,0,0,0.52570737,-19.441377,28.676662)" />
    <linearGradient
       id="1">
      <stop
         stop-color="#289bf7"
         id="stop13214" />
      <stop
         offset="1"
         stop-color="#71b9f1"
         id="stop13216" />
    </linearGradient>
  </defs>
  <path
     inkscape:connector-curvature="0"
     style="fill:#2a2aff"
     d="m 63.983051,18.416896 -63.6949152,0 0,-15.8193877 c 0,-1.2801423 1.0059404,-2.31785064 2.2468931,-2.31785064 l 59.2011291,0 c 1.240953,0 2.246893,1.03770834 2.246893,2.31785064 l 0,15.8193877 z"
     id="path3" />
  <rect
     x="3.5827005"
     y="18.416897"
     style="fill:#2a2aff"
     width="57.105785"
     height="45.303448"
     id="rect5" />
  <path
     inkscape:connector-curvature="0"
     style="fill:#000055"
     d="m 42.019287,13.885419 -19.767387,0 c -2.425898,0 -4.392753,-2.028969 -4.392753,-4.5314778 l 0,0 c 0,-2.5025085 1.966855,-4.5314774 4.392753,-4.5314774 l 19.767387,0 c 2.425898,0 4.392753,2.0289689 4.392753,4.5314774 l 0,0 c 0,2.5025088 -1.966855,4.5314778 -4.392753,4.5314778 z"
     id="path7" />
  <rect
     x="3.5827005"
     y="58.055992"
     style="fill:#000055"
     width="57.105785"
     height="5.6643467"
     id="rect9" />
  <rect
     x="16.76096"
     y="27.468521"
     style="fill:#d5d5ff"
     width="30.749269"
     height="15.860171"
     id="rect11" />
  <path
     id="path15"
     d="m 21.153712,34.26574 6.589129,0 c 0.607298,0 1.098188,-0.506393 1.098188,-1.13287 0,-0.626476 -0.49089,-1.132869 -1.098188,-1.132869 l -6.589129,0 c -0.607298,0 -1.098189,0.506393 -1.098189,1.132869 0,0.626477 0.490891,1.13287 1.098189,1.13287 z"
     style="fill:#000055"
     inkscape:connector-curvature="0" />
  <path
     id="path17"
     d="m 32.135594,34.26574 c 0.285529,0 0.571057,-0.124616 0.779713,-0.328532 0.197674,-0.215246 0.318475,-0.509792 0.318475,-0.804338 0,-0.295679 -0.120801,-0.590225 -0.318475,-0.804337 -0.417311,-0.419162 -1.153097,-0.419162 -1.559427,0 -0.198772,0.214112 -0.318475,0.508658 -0.318475,0.804337 0,0.305875 0.119703,0.589092 0.318475,0.804338 0.207558,0.203916 0.482105,0.328532 0.779714,0.328532 z"
     style="fill:#000055"
     inkscape:connector-curvature="0" />
  <path
     id="path19"
     d="m 43.117476,36.531479 -17.571012,0 c -0.607298,0 -1.098188,0.506392 -1.098188,1.132869 0,0.626477 0.49089,1.132869 1.098188,1.132869 l 17.571012,0 c 0.607298,0 1.098188,-0.506392 1.098188,-1.132869 0,-0.626477 -0.49089,-1.132869 -1.098188,-1.132869 z"
     style="fill:#000055"
     inkscape:connector-curvature="0" />
  <path
     id="path21"
     d="m 20.373998,36.860011 c -0.198772,0.214112 -0.318475,0.508658 -0.318475,0.804337 0,0.294546 0.119703,0.589092 0.318475,0.804337 0.207558,0.203917 0.482105,0.328532 0.779714,0.328532 0.29651,0 0.571057,-0.124615 0.779713,-0.328532 0.197674,-0.215245 0.318475,-0.509791 0.318475,-0.804337 0,-0.295679 -0.120801,-0.590225 -0.318475,-0.804337 -0.406329,-0.419162 -1.142116,-0.419162 -1.559427,0 z"
     style="fill:#000055"
     inkscape:connector-curvature="0" />
  <rect
     x="3.5827005"
     y="18.405567"
     style="fill:#000055"
     width="57.105785"
     height="5.6643467"
     id="rect23" />
  <path
     inkscape:connector-curvature="0"
     style="fill:#ffffff"
     id="path24"
     d="m 55.440093,2.0328594 -6.507895,8.2310346 c -1.220207,1.542979 -0.878681,4.292402 0.683144,5.498846 1.561733,1.205809 4.343857,0.868277 5.564248,-0.675155 L 61.687485,6.8565505 62.500926,5.8276259 C 63.314459,4.7987012 63.086713,2.9659034 62.045435,2.1620303 61.00425,1.3581579 59.149531,1.5832094 58.335631,2.6121341 L 57.522098,3.6410587 52.641452,9.8147879 51.82792,10.843713 c -0.406766,0.514508 -0.292894,1.430861 0.227745,1.833251 0.520639,0.401936 1.447952,0.289456 1.854443,-0.225051 l 5.694546,-7.2023825 1.041186,0.8038725 -5.694545,7.202382 c -0.813533,1.028925 -2.668344,1.253977 -3.709805,0.450104 -1.041186,-0.803873 -1.268932,-2.636943 -0.455491,-3.665595 l 0.813534,-1.0289255 5.694545,-7.202382 c 1.220207,-1.54297852 4.002332,-1.8809646 5.564248,-0.6751552 1.561734,1.2058093 1.903443,3.9550516 0.683235,5.4988463 L 62.728029,7.6616024 56.220134,15.892637 C 54.59316,17.950486 50.883447,18.40059 48.801443,16.792844 46.718978,15.185098 46.26358,11.519866 47.890554,9.4616535 l 6.507894,-8.2310341 1.041187,0.8038731" />
</svg>
