<?xml version="1.0" encoding="UTF-8" standalone="no"?>
<svg
   xmlns:dc="http://purl.org/dc/elements/1.1/"
   xmlns:cc="http://creativecommons.org/ns#"
   xmlns:rdf="http://www.w3.org/1999/02/22-rdf-syntax-ns#"
   xmlns:svg="http://www.w3.org/2000/svg"
   xmlns="http://www.w3.org/2000/svg"
   xmlns:sodipodi="http://sodipodi.sourceforge.net/DTD/sodipodi-0.dtd"
   xmlns:inkscape="http://www.inkscape.org/namespaces/inkscape"
   viewBox="0 0 64 64"
   id="svg2"
   version="1.1"
   inkscape:version="0.91 r13725"
   sodipodi:docname="application-sxw.svg">
  <metadata
     id="metadata30">
    <rdf:RDF>
      <cc:Work
         rdf:about="">
        <dc:format>image/svg+xml</dc:format>
        <dc:type
           rdf:resource="http://purl.org/dc/dcmitype/StillImage" />
        <dc:title></dc:title>
      </cc:Work>
    </rdf:RDF>
  </metadata>
  <sodipodi:namedview
     pagecolor="#ffffff"
     bordercolor="#666666"
     borderopacity="1"
     objecttolerance="10"
     gridtolerance="10"
     guidetolerance="10"
     inkscape:pageopacity="0"
     inkscape:pageshadow="2"
     inkscape:window-width="1280"
     inkscape:window-height="694"
     id="namedview28"
     showgrid="true"
     inkscape:zoom="3.6875"
     inkscape:cx="-15.275669"
     inkscape:cy="32"
     inkscape:window-x="0"
     inkscape:window-y="0"
     inkscape:window-maximized="1"
     inkscape:current-layer="svg2">
    <inkscape:grid
       type="xygrid"
       id="grid4142" />
  </sodipodi:namedview>
  <defs
     id="defs4">
    <clipPath
       id="1">
      <path
         transform="matrix(15.33333 0 0 11.5 415-125.5)"
         d="m-24 13c0 1.105-.672 2-1.5 2-.828 0-1.5-.895-1.5-2 0-1.105.672-2 1.5-2 .828 0 1.5.895 1.5 2"
         fill="#1890d0"
         id="path7" />
    </clipPath>
    <linearGradient
       id="0"
       x1="-74.929"
       y1="52.2"
       x2="-75.26"
       y2="2.356"
       gradientUnits="userSpaceOnUse"
       gradientTransform="matrix(1.07499,0,0,1.02929,113.079,0.073)">
      <stop
         stop-color="#197cf1"
         id="stop10" />
      <stop
         offset="1"
         stop-color="#20bcfa"
         id="stop12" />
    </linearGradient>
  </defs>
  <rect
     style="fill:#2a7fff;stroke-width:1"
     id="rect16"
     rx="3.6093991"
     y="0.37806776"
     x="0.50847554"
     height="53.207962"
     width="63.525421" />
  <g
     style="fill:#d5e5ff;stroke:none;stroke-width:0.94099998;stroke-linecap:round;stroke-linejoin:round"
     id="g20"
     transform="matrix(0.97168,0,0,2.0748507,18.976085,1.5182393)"
     clip-path="url(#1)">
    <g
       style="fill:#d5e5ff;stroke:none;stroke-width:0.94099998"
       id="g22">
      <path
         inkscape:connector-curvature="0"
         id="path24"
         d="m 36.18,16 c -1.582,-0.023 -3.086,0.391 -4.379,1.133 -1.012,-0.57 -2.164,-0.941 -3.398,-1.059 -1.699,-0.156 -3.328,0.191 -4.738,0.922 -0.016,0.008 -0.031,0.016 -0.043,0.023 -0.035,0.027 -0.059,0.07 -0.059,0.117 0,0.082 0.066,0.141 0.145,0.141 0.008,0 0.02,0 0.027,0 0.004,0 0.008,-0.004 0.008,-0.004 0.762,-0.137 1.551,-0.176 2.359,-0.102 2.258,0.211 4.23,0.906 5.613,2.461 0.07,0.074 0.133,0.066 0.203,-0.004 1.742,-1.996 4.406,-2.789 7.27,-2.52 0.16,0.016 0.32,0.031 0.477,0.059 0.055,0.008 0.141,0.02 0.191,0.023 0.094,0.012 0.145,-0.063 0.145,-0.141 0,-0.063 -0.023,-0.105 -0.078,-0.129 -0.055,-0.027 -0.109,-0.063 -0.164,-0.082 -0.887,-0.43 -1.863,-0.699 -2.898,-0.809 -0.227,-0.02 -0.457,-0.039 -0.684,-0.043"
         style="fill:#d5e5ff;stroke:none" />
      <path
         inkscape:connector-curvature="0"
         id="path26"
         d="m 30.938,22.84 c -3.191,0 -6.141,1.012 -8.555,2.711 -1.844,-0.82 -3.883,-1.277 -6.03,-1.277 -3.055,0 -5.887,0.922 -8.242,2.5 -0.004,0.004 -0.016,0.012 -0.02,0.016 -0.055,0.039 -0.082,0.098 -0.082,0.168 0,0.121 0.098,0.219 0.215,0.219 0.016,0 0.031,-0.004 0.043,-0.004 0.012,0 0.02,-0.004 0.023,-0.008 1.352,-0.406 2.785,-0.621 4.27,-0.621 3.934,0 7.449,0.926 10.09,3.391 0.008,0.004 0.016,0.012 0.023,0.016 0.039,0.035 0.086,0.047 0.145,0.047 0.066,0 0.125,-0.02 0.164,-0.07 0,0 0.086,-0.113 0.129,-0.18 2.691,-3.641 7.121,-5.438 12.04,-5.438 0.352,0 0.703,0.008 1.051,0.035 0.098,0.004 0.313,0.023 0.316,0.023 0.117,0 0.215,-0.098 0.215,-0.219 0,-0.086 -0.051,-0.156 -0.125,-0.188 -0.008,-0.004 -0.016,-0.008 -0.023,-0.012 -1.742,-0.711 -3.641,-1.113 -5.633,-1.113"
         style="fill:#d5e5ff;stroke:none" />
    </g>
  </g>
</svg>
