<?xml version="1.0" encoding="UTF-8" standalone="no"?>
<svg
   xmlns:dc="http://purl.org/dc/elements/1.1/"
   xmlns:cc="http://creativecommons.org/ns#"
   xmlns:rdf="http://www.w3.org/1999/02/22-rdf-syntax-ns#"
   xmlns:svg="http://www.w3.org/2000/svg"
   xmlns="http://www.w3.org/2000/svg"
   xmlns:sodipodi="http://sodipodi.sourceforge.net/DTD/sodipodi-0.dtd"
   xmlns:inkscape="http://www.inkscape.org/namespaces/inkscape"
   viewBox="0 0 64 64"
   id="svg2"
   version="1.1"
   inkscape:version="0.91 r13725"
   sodipodi:docname="application-vnd.oasis.opendocument.chart.svg">
  <metadata
     id="metadata19">
    <rdf:RDF>
      <cc:Work
         rdf:about="">
        <dc:format>image/svg+xml</dc:format>
        <dc:type
           rdf:resource="http://purl.org/dc/dcmitype/StillImage" />
        <dc:title></dc:title>
      </cc:Work>
    </rdf:RDF>
  </metadata>
  <sodipodi:namedview
     pagecolor="#ffffff"
     bordercolor="#666666"
     borderopacity="1"
     objecttolerance="10"
     gridtolerance="10"
     guidetolerance="10"
     inkscape:pageopacity="0"
     inkscape:pageshadow="2"
     inkscape:window-width="1280"
     inkscape:window-height="694"
     id="namedview17"
     showgrid="true"
     inkscape:zoom="3.6875"
     inkscape:cx="-27.543217"
     inkscape:cy="32"
     inkscape:window-x="0"
     inkscape:window-y="0"
     inkscape:window-maximized="1"
     inkscape:current-layer="svg2">
    <inkscape:grid
       type="xygrid"
       id="grid4137" />
  </sodipodi:namedview>
  <defs
     id="defs4">
    <linearGradient
       id="0"
       x1="-74.929"
       y1="52.2"
       x2="-75.26"
       y2="2.356"
       gradientUnits="userSpaceOnUse"
       gradientTransform="matrix(1.07499,0,0,1.02929,113.079,0.074)">
      <stop
         stop-color="#309bd5"
         id="stop7" />
      <stop
         offset="1"
         stop-color="#1ab4fd"
         id="stop9" />
    </linearGradient>
  </defs>
  <rect
     style="fill:#5599ff"
     id="rect13"
     rx="3.5939908"
     y="0.65025425"
     x="0.50847554"
     height="52.936779"
     width="63.254234" />
  <path
     style="fill:#aaccff;fill-opacity:0.85399996"
     inkscape:connector-curvature="0"
     id="path15"
     d="m 57.940437,34.509935 c 0.297063,-0.44348 0.173436,-1.038609 -0.273938,-1.333088 -0.448262,-0.293597 -1.047723,-0.171927 -1.344787,0.272437 l -3.593213,5.385258 c -0.149422,-0.0238 -0.297953,-0.04585 -0.452709,-0.04585 -1.602716,0 -2.911037,1.295178 -2.911037,2.885716 0,0.30594 0.06137,0.595129 0.15031,0.871974 l -3.466028,4.381033 c -0.447373,-0.276846 -0.970345,-0.444363 -1.53512,-0.444363 -1.565361,0 -2.837216,1.234342 -2.899475,2.770215 l -5.483208,3.165206 c -0.533645,-0.678889 -1.357239,-1.125897 -2.292008,-1.125897 -1.604494,0 -2.911036,1.295178 -2.911036,2.885716 0,0.625105 0.207232,1.202602 0.548765,1.675179 l -4.270943,6.452962 c -0.294395,0.445246 -0.169878,1.040375 0.278384,1.332209 0.163653,0.106689 0.349539,0.157819 0.531867,0.157819 0.31663,0 0.627034,-0.151647 0.812032,-0.433783 l 4.24515,-6.411525 c 0.245477,0.06524 0.500737,0.112858 0.765781,0.112858 1.565361,0 2.837216,-1.231697 2.899475,-2.771098 l 5.483208,-3.163442 c 0.532756,0.67977 1.356349,1.125015 2.291118,1.125015 1.604494,0 2.911036,-1.294296 2.911036,-2.885715 0,-0.305059 -0.06048,-0.595129 -0.148531,-0.871092 l 3.46425,-4.380152 c 0.447372,0.275964 0.970346,0.443481 1.53512,0.443481 1.603605,0 2.911036,-1.294295 2.911036,-2.885716 0,-0.737959 -0.289058,-1.403622 -0.747992,-1.91411 L 57.93688,34.51082 M 33.842782,55.140199 c -0.535424,0 -0.970346,-0.430255 -0.970346,-0.961905 0,-0.529885 0.434922,-0.961905 0.970346,-0.961905 0.535425,0 0.970345,0.43202 0.970345,0.961905 0,0.53165 -0.43492,0.961905 -0.970345,0.961905 m 10.672912,-4.809526 c -0.535425,0 -0.970346,-0.430256 -0.970346,-0.961904 0,-0.529886 0.434921,-0.961906 0.970346,-0.961906 0.535424,0 0.970344,0.43202 0.970344,0.961906 0,0.531648 -0.43492,0.961904 -0.970344,0.961904 m 7.761875,-7.694359 c -0.535425,0 -0.970346,-0.431137 -0.970346,-0.961904 0,-0.529887 0.434921,-0.961905 0.970346,-0.961905 0.535424,0 0.970344,0.432018 0.970344,0.961905 0,0.530767 -0.43581,0.961904 -0.970344,0.961904 M 32.871547,61.873535 c -0.536314,0 -0.970346,0.43202 -0.970346,0.961905 0,0.531649 0.434032,0.961905 0.970346,0.961905 0.536314,0 0.970345,-0.430256 0.970345,-0.961905 0,-0.529885 -0.433141,-0.961905 -0.970345,-0.961905 m 4.851728,0 c -0.536314,0 -0.970346,0.43202 -0.970346,0.961905 0,0.531649 0.434032,0.961905 0.970346,0.961905 0.536313,0 0.970346,-0.430256 0.970346,-0.961905 0,-0.529885 -0.433143,-0.961905 -0.970346,-0.961905 m 4.851727,0 c -0.536313,0 -0.970345,0.43202 -0.970345,0.961905 0,0.531649 0.434032,0.961905 0.970345,0.961905 0.536314,0 0.970346,-0.430256 0.970346,-0.961905 0,-0.529885 -0.433143,-0.961905 -0.970346,-0.961905 m 4.851728,0 c -0.536314,0 -0.970346,0.43202 -0.970346,0.961905 0,0.531649 0.434032,0.961905 0.970346,0.961905 0.537204,0 0.970346,-0.430256 0.970346,-0.961905 0,-0.529885 -0.433142,-0.961905 -0.970346,-0.961905 m 4.851727,0 c -0.536313,0 -0.970344,0.43202 -0.970344,0.961905 0,0.531649 0.434031,0.961905 0.970344,0.961905 0.537204,0 0.970346,-0.430256 0.970346,-0.961905 0,-0.529885 -0.433142,-0.961905 -0.970346,-0.961905 m 4.851729,0 c -0.536315,0 -0.970346,0.43202 -0.970346,0.961905 0,0.531649 0.434031,0.961905 0.970346,0.961905 0.537203,0 0.970345,-0.430256 0.970345,-0.961905 0,-0.529885 -0.433142,-0.961905 -0.970345,-0.961905 M 28.021598,58.987821 c 0.536314,0 0.970346,-0.430258 0.970346,-0.961907 0,-0.529885 -0.434032,-0.961905 -0.970346,-0.961905 -0.536313,0 -0.970345,0.43202 -0.970345,0.961905 0,0.531649 0.434032,0.961907 0.970345,0.961907 m 0,-4.809527 c 0.536314,0 0.970346,-0.430257 0.970346,-0.961905 0,-0.529885 -0.434032,-0.961905 -0.970346,-0.961905 -0.536313,0 -0.970345,0.43202 -0.970345,0.961905 0,0.531648 0.434032,0.961905 0.970345,0.961905 m 0,-4.809525 c 0.536314,0 0.970346,-0.430256 0.970346,-0.961906 0,-0.529884 -0.434032,-0.961905 -0.970346,-0.961905 -0.536313,0 -0.970345,0.431138 -0.970345,0.961905 0,0.53165 0.434032,0.961906 0.970345,0.961906 m 0,-4.809526 c 0.536314,0 0.970346,-0.429374 0.970346,-0.961904 0,-0.530767 -0.434032,-0.961906 -0.970346,-0.961906 -0.536313,0 -0.970345,0.431139 -0.970345,0.961906 0,0.533411 0.434032,0.961904 0.970345,0.961904 m 0,-4.809525 c 0.536314,0 0.970346,-0.429375 0.970346,-0.961906 0,-0.530767 -0.434032,-0.961904 -0.970346,-0.961904 -0.536313,0 -0.970345,0.431137 -0.970345,0.961904 0,0.533413 0.434032,0.961906 0.970345,0.961906 m 0,-4.809525 c 0.536314,0 0.970346,-0.429375 0.970346,-0.961905 0,-0.530768 -0.434032,-0.961906 -0.970346,-0.961906 -0.536313,0 -0.970345,0.431138 -0.970345,0.961906 0,0.533411 0.434032,0.961905 0.970345,0.961905" />
</svg>
