<?xml version="1.0" encoding="UTF-8" standalone="no"?>
<svg
   xmlns:dc="http://purl.org/dc/elements/1.1/"
   xmlns:cc="http://creativecommons.org/ns#"
   xmlns:rdf="http://www.w3.org/1999/02/22-rdf-syntax-ns#"
   xmlns:svg="http://www.w3.org/2000/svg"
   xmlns="http://www.w3.org/2000/svg"
   xmlns:sodipodi="http://sodipodi.sourceforge.net/DTD/sodipodi-0.dtd"
   xmlns:inkscape="http://www.inkscape.org/namespaces/inkscape"
   viewBox="0 0 64 64"
   id="svg2"
   version="1.1"
   inkscape:version="0.91 r13725"
   sodipodi:docname="application-sql.svg">
  <metadata
     id="metadata19">
    <rdf:RDF>
      <cc:Work
         rdf:about="">
        <dc:format>image/svg+xml</dc:format>
        <dc:type
           rdf:resource="http://purl.org/dc/dcmitype/StillImage" />
        <dc:title></dc:title>
      </cc:Work>
    </rdf:RDF>
  </metadata>
  <sodipodi:namedview
     pagecolor="#ffffff"
     bordercolor="#666666"
     borderopacity="1"
     objecttolerance="10"
     gridtolerance="10"
     guidetolerance="10"
     inkscape:pageopacity="0"
     inkscape:pageshadow="2"
     inkscape:window-width="1280"
     inkscape:window-height="694"
     id="namedview17"
     showgrid="true"
     inkscape:zoom="3.6875"
     inkscape:cx="-2.2008734"
     inkscape:cy="32"
     inkscape:window-x="0"
     inkscape:window-y="0"
     inkscape:window-maximized="1"
     inkscape:current-layer="svg2">
    <inkscape:grid
       type="xygrid"
       id="grid4137" />
  </sodipodi:namedview>
  <defs
     id="defs4">
    <linearGradient
       id="0"
       x1="-74.929"
       y1="59.2"
       x2="-75.26"
       y2="2.356"
       gradientUnits="userSpaceOnUse"
       gradientTransform="matrix(1.07499,0,0,1.02929,113.079,0.074)">
      <stop
         stop-color="#8cbdf8"
         id="stop7" />
      <stop
         offset="1"
         stop-color="#d5e8ff"
         id="stop9" />
    </linearGradient>
  </defs>
  <rect
     style="fill:#afc6e9"
     id="rect13"
     rx="3.5939908"
     y="0.65025425"
     x="0.50847554"
     height="52.936779"
     width="63.254234" />
  <path
     style="fill:#162d50"
     inkscape:connector-curvature="0"
     id="path15"
     d="m 26.91967,44.764328 c 0.436635,0.426391 1.079843,0.426391 1.291333,0.426391 0.392064,0 0.877201,-0.05977 1.571426,-0.194025 0.545657,-0.10547 1.015391,-0.210529 1.429958,-0.302911 0.814934,-0.182352 1.403961,-0.314184 1.958465,-0.314184 0.312538,0 0.882665,0.124784 1.486546,0.256922 0.940125,0.205798 2.110093,0.461715 3.241824,0.461715 1.142548,0 2.345177,-0.08182 3.10287,-0.145016 0.251691,0.869086 0.850439,2.302433 2.2095,3.328008 1.847805,1.394602 3.21779,2.01673 3.275251,2.042593 0.350881,0.157596 0.773423,0.07507 1.023694,-0.200666 0.250816,-0.275439 0.265673,-0.672746 0.03616,-0.963482 -0.0077,-0.01001 -0.931056,-1.212655 -0.895663,-2.564186 0.01409,-0.537694 0.03529,-0.959055 0.05691,-1.279879 1.150959,0.312573 3.110625,1.011384 4.121429,2.326687 1.531552,1.992074 2.159576,5.058933 1.991237,6.065286 -0.175223,1.048217 -0.196197,1.048217 -0.736064,1.048217 -1.176411,0 -2.164711,0.04438 -3.278309,0.602603 -0.984258,0.493616 -1.527075,1.033726 -1.585518,1.093804 -0.220665,0.226028 -0.279656,0.549369 -0.150861,0.829235 0.1288,0.280068 0.421996,0.465941 0.751792,0.47681 0.318219,0.01103 1.281066,0.08484 1.899804,0.291742 0.328815,0.109894 0.611639,0.238504 0.885396,0.362991 0.438053,0.199057 0.851639,0.387043 1.334263,0.439575 0.15698,0.01711 0.31811,0.02545 0.47061,0.02284 0.177953,0.380705 0.480658,0.834469 0.989719,1.194541 0.38977,0.275741 0.786424,0.445714 1.136321,0.595661 0.429643,0.184263 0.769054,0.329782 1.029811,0.62746 0.683081,0.780325 0.912268,1.626266 0.914452,1.63482 0.08925,0.337933 0.410418,0.582779 0.787515,0.598577 0.01295,6.05e-4 0.02621,8.06e-4 0.03922,8.06e-4 0.361587,0 0.686033,-0.210026 0.804011,-0.527832 0.05309,-0.1427 0.501087,-1.450556 -0.09504,-3.36494 -0.213129,-0.68432 -0.543363,-1.276759 -0.862564,-1.849877 -0.51944,-0.932084 -0.96809,-1.737066 -0.779868,-2.72319 0.884739,-4.636266 0.823674,-8.405055 -0.181449,-11.203721 -1.562796,-4.351469 -5.346125,-6.775772 -6.088743,-7.217561 -0.368359,-0.219284 -0.699903,-0.412201 -0.979342,-0.572614 0.259119,-0.190201 0.588589,-0.389961 0.980217,-0.543329 0.891293,-0.349105 1.265988,-0.444506 1.369768,-0.467251 0.0067,2.02e-4 0.01308,2.02e-4 0.01955,2.02e-4 0.369998,9e-6 0.654351,-0.22492 0.762608,-0.557317 0.112415,-0.345079 -0.09646,-0.715618 -0.433138,-0.898774 -0.06401,-0.03492 -1.595241,-0.854997 -3.613679,-0.854997 -0.416426,0 -0.83012,0.03522 -1.229611,0.10456 -1.244579,0.216366 -2.124074,0.539706 -2.974622,0.852179 -0.830446,0.305227 -1.615013,0.593547 -2.786182,0.82078 -0.568925,0.110396 -1.092406,0.195636 -1.599501,0.278056 -1.743151,0.28349 -3.248487,0.528436 -5.499169,1.58722 -2.93759,1.382124 -4.589198,2.894269 -4.651247,4.257877 -0.01295,0.287414 -0.0062,0.544134 0.02053,0.769859 -0.274848,0.126592 -0.608906,0.286609 -0.94635,0.463526 -1.3737,0.719743 -1.949836,1.258846 -1.988178,1.860444 -0.02666,0.418643 0.09515,0.763016 0.362132,1.023863" />
</svg>
