<?xml version="1.0" encoding="UTF-8" standalone="no"?>
<svg
   xmlns:dc="http://purl.org/dc/elements/1.1/"
   xmlns:cc="http://creativecommons.org/ns#"
   xmlns:rdf="http://www.w3.org/1999/02/22-rdf-syntax-ns#"
   xmlns:svg="http://www.w3.org/2000/svg"
   xmlns="http://www.w3.org/2000/svg"
   xmlns:sodipodi="http://sodipodi.sourceforge.net/DTD/sodipodi-0.dtd"
   xmlns:inkscape="http://www.inkscape.org/namespaces/inkscape"
   viewBox="0 0 64 64"
   id="svg2"
   version="1.1"
   inkscape:version="0.91 r13725"
   sodipodi:docname="application-vnd.ms-access.svg">
  <metadata
     id="metadata19">
    <rdf:RDF>
      <cc:Work
         rdf:about="">
        <dc:format>image/svg+xml</dc:format>
        <dc:type
           rdf:resource="http://purl.org/dc/dcmitype/StillImage" />
        <dc:title></dc:title>
      </cc:Work>
    </rdf:RDF>
  </metadata>
  <sodipodi:namedview
     pagecolor="#ffffff"
     bordercolor="#666666"
     borderopacity="1"
     objecttolerance="10"
     gridtolerance="10"
     guidetolerance="10"
     inkscape:pageopacity="0"
     inkscape:pageshadow="2"
     inkscape:window-width="1280"
     inkscape:window-height="694"
     id="namedview17"
     showgrid="true"
     inkscape:zoom="3.6875"
     inkscape:cx="-24.504947"
     inkscape:cy="32"
     inkscape:window-x="0"
     inkscape:window-y="0"
     inkscape:window-maximized="1"
     inkscape:current-layer="svg2">
    <inkscape:grid
       type="xygrid"
       id="grid4137" />
  </sodipodi:namedview>
  <defs
     id="defs4">
    <linearGradient
       id="0"
       x1="-74.929"
       y1="52.2"
       x2="-75.26"
       y2="2.356"
       gradientUnits="userSpaceOnUse"
       gradientTransform="matrix(1.07499,0,0,1.02929,113.079,0.073)">
      <stop
         stop-color="#cd3336"
         id="stop7" />
      <stop
         offset="1"
         stop-color="#ed7b66"
         id="stop9" />
    </linearGradient>
  </defs>
  <rect
     style="fill:#ff2a2a;stroke-width:1"
     id="rect13"
     rx="3.6248074"
     y="0.37806776"
     x="0.50847554"
     height="52.936775"
     width="63.796608" />
  <path
     style="color:#000000;fill:#ffaaaa;fill-opacity:0.85"
     inkscape:connector-curvature="0"
     id="path15"
     d="m 44.531679,31.432204 -17.791085,3.463598 0,25.395838 17.791085,3.463598 0,-32.321741 m 3.43421,4.616837 c -0.335216,0.0039 -0.675121,0.02198 -1.013854,0.0362 l -1.373684,0.0362 0,2.921886 0,2.921885 0.52275,0.0724 c 1.043156,0.144801 3.497503,0.100843 5.134907,-0.0724 4.404697,-0.465433 7.180195,-1.800967 6.704328,-3.210195 -0.534471,-1.58118 -4.953233,-2.75252 -9.974447,-2.705977 m 10.170186,3.967817 -0.392649,0.505512 c -0.51689,0.685221 -1.94449,1.415693 -3.695585,1.839754 -1.081835,0.262452 -2.250405,0.362003 -4.937996,0.433111 l -3.527978,0.0724 0,2.272865 0,2.236664 3.434211,-0.108601 c 2.72041,-0.07111 3.781147,-0.173244 5.003633,-0.469311 1.763988,-0.425355 3.138844,-1.036882 3.662767,-1.658752 l 0.35983,-0.433112 0.06564,-2.345265 0.03282,-2.345266 m -23.317468,2.019463 1.046672,0 c 0.872032,0 1.079491,0.04525 1.145128,0.28831 0.04337,0.161608 0.652851,2.64909 1.373684,5.51926 0.720832,2.870171 1.337349,5.295594 1.373684,5.41066 0.04805,0.153851 -0.181673,0.226252 -0.818116,0.215909 -0.480555,-0.0078 -0.947045,-0.06335 -1.046672,-0.108601 -0.09846,-0.04396 -0.277784,-0.646435 -0.425467,-1.334242 l -0.294193,-1.226933 -1.373685,0 -1.406502,0 -0.228557,1.118332 -0.195738,1.154533 -0.981036,0.0362 -0.948217,0.0362 0.06564,-0.28831 c 0.04571,-0.166781 0.583699,-2.281915 1.172085,-4.689239 0.593076,-2.407323 1.183807,-4.744831 1.308048,-5.23095 l 0.228557,-0.902423 m 0.981035,2.598668 c -0.04337,0.0013 -0.243794,0.7434 -0.458285,1.694952 -0.228557,1.014903 -0.446565,1.966455 -0.491104,2.128063 -0.07033,0.259867 0.04805,0.324511 0.915399,0.324511 l 0.981035,0 -0.458285,-1.984555 c -0.246146,-1.087304 -0.466498,-2.075056 -0.491112,-2.164264 m 22.339949,0.721421 -0.458286,0.541713 c -1.194355,1.426035 -5.047,2.324579 -9.778709,2.272864 l -2.223446,-0.0362 -0.06564,2.164264 -0.03282,2.164264 0.261375,0.108601 c 0.571978,0.190052 6.028036,-0.05171 7.391171,-0.324511 1.902295,-0.380103 3.646358,-1.029124 4.283972,-1.623844 l 0.52275,-0.505512 0.06564,-2.381466 0.03282,-2.381466 m 0,5.197336 -0.458286,0.612821 c -1.114653,1.416985 -4.540659,2.252178 -9.353242,2.272864 l -2.747368,0 0,2.200465 0,2.200464 0.818116,0.0724 c 1.656156,0.129287 2.258608,0.100844 4.283972,-0.0724 3.427178,-0.292189 6.043273,-1.060153 6.900067,-2.055663 l 0.458285,-0.541712 0.06564,-2.345266 0.03282,-2.345266" />
</svg>
