<?xml version="1.0" encoding="UTF-8" standalone="no"?>
<svg
   xmlns:dc="http://purl.org/dc/elements/1.1/"
   xmlns:cc="http://creativecommons.org/ns#"
   xmlns:rdf="http://www.w3.org/1999/02/22-rdf-syntax-ns#"
   xmlns:svg="http://www.w3.org/2000/svg"
   xmlns="http://www.w3.org/2000/svg"
   xmlns:sodipodi="http://sodipodi.sourceforge.net/DTD/sodipodi-0.dtd"
   xmlns:inkscape="http://www.inkscape.org/namespaces/inkscape"
   viewBox="0 0 64 64"
   id="svg2"
   version="1.1"
   inkscape:version="0.91 r13725"
   sodipodi:docname="application-x-dgn.svg">
  <metadata
     id="metadata19">
    <rdf:RDF>
      <cc:Work
         rdf:about="">
        <dc:format>image/svg+xml</dc:format>
        <dc:type
           rdf:resource="http://purl.org/dc/dcmitype/StillImage" />
        <dc:title></dc:title>
      </cc:Work>
    </rdf:RDF>
  </metadata>
  <sodipodi:namedview
     pagecolor="#ffffff"
     bordercolor="#666666"
     borderopacity="1"
     objecttolerance="10"
     gridtolerance="10"
     guidetolerance="10"
     inkscape:pageopacity="0"
     inkscape:pageshadow="2"
     inkscape:window-width="1280"
     inkscape:window-height="694"
     id="namedview17"
     showgrid="true"
     inkscape:zoom="3.6875"
     inkscape:cx="-3.9966256"
     inkscape:cy="32"
     inkscape:window-x="0"
     inkscape:window-y="0"
     inkscape:window-maximized="1"
     inkscape:current-layer="svg2">
    <inkscape:grid
       type="xygrid"
       id="grid4137" />
  </sodipodi:namedview>
  <defs
     id="defs4">
    <linearGradient
       id="0"
       x1="-74.929"
       y1="52.2"
       x2="-75.26"
       y2="2.356"
       gradientUnits="userSpaceOnUse"
       gradientTransform="matrix(1.07499,0,0,1.02929,113.079,0.074)">
      <stop
         stop-color="#0074e3"
         id="stop7" />
      <stop
         offset="1"
         stop-color="#03b8ff"
         id="stop9" />
    </linearGradient>
  </defs>
  <rect
     style="fill:#2a7fff"
     id="rect13"
     rx="3.5939908"
     y="0.37906781"
     x="0.50847477"
     height="52.936775"
     width="63.254238" />
  <path
     style="fill:#aaccff;fill-opacity:0.85"
     inkscape:connector-curvature="0"
     id="path15"
     d="m 57.79332,41.15143 c -1.15e-4,-0.008 -0.0027,-0.01597 -0.004,-0.0239 -0.0052,-0.02955 -0.01189,-0.05857 -0.02067,-0.08697 -0.0013,-0.0044 -0.0023,-0.0086 -0.0037,-0.01306 -0.01082,-0.03278 -0.02389,-0.06474 -0.03916,-0.09564 -0.0025,-0.0052 -0.0055,-0.0102 -0.0082,-0.01545 -0.0139,-0.02674 -0.02941,-0.05262 -0.0464,-0.07758 -0.0033,-0.005 -0.0065,-0.01008 -0.01002,-0.01504 -0.01987,-0.02778 -0.04158,-0.0543 -0.06512,-0.07946 -0.0045,-0.0049 -0.0095,-0.0095 -0.01436,-0.01441 -0.02067,-0.02099 -0.0425,-0.04093 -0.06547,-0.05982 -0.0059,-0.0049 -0.01149,-0.0098 -0.01746,-0.01441 -0.02791,-0.02172 -0.0573,-0.04187 -0.08809,-0.06025 -0.0048,-0.0028 -0.0098,-0.0053 -0.01459,-0.008 -0.02929,-0.0167 -0.05972,-0.03174 -0.09119,-0.04521 -0.0032,-0.0013 -0.0061,-0.0033 -0.0094,-0.0046 L 42.524823,34.442984 c -0.226139,-0.09345 -0.485815,-0.09345 -0.711954,0 l -10.205568,4.21101 c -0.433214,0.178756 -0.624898,0.642876 -0.428274,1.036725 0.196507,0.393849 0.707245,0.568637 1.140344,0.389359 l 9.849532,-4.064412 12.658762,5.222779 -12.658762,5.057805 -14.424004,-5.762598 c -0.001,-4.18e-4 -0.002,-6.27e-4 -0.0031,-1.05e-4 -0.02114,-0.0084 -0.04296,-0.01556 -0.06489,-0.02245 -0.0055,-0.0018 -0.01109,-0.0039 -0.01654,-0.0056 -0.01804,-0.0052 -0.03664,-0.0094 -0.05513,-0.01347 -0.0098,-0.0022 -0.01952,-0.0049 -0.02941,-0.0068 -0.01189,-0.0023 -0.02401,-0.0035 -0.03606,-0.0055 -0.01677,-0.0026 -0.03354,-0.0053 -0.0503,-0.007 -0.0077,-7.31e-4 -0.01597,-8.36e-4 -0.02389,-0.0013 -0.02102,-0.0015 -0.04193,-0.0027 -0.06282,-0.0028 -0.0015,0 -0.0028,-2.09e-4 -0.0044,-2.09e-4 -0.0081,0 -0.01607,9.39e-4 -0.02412,0.0011 -0.01861,4.18e-4 -0.03721,9.4e-4 -0.05559,0.0026 -0.01436,0.0011 -0.02837,0.0033 -0.04249,0.0051 -0.01296,0.0018 -0.02607,0.0032 -0.03883,0.0055 -0.01757,0.003 -0.03469,0.007 -0.05191,0.01081 -0.0094,0.0022 -0.01861,0.0041 -0.02779,0.0066 -0.01861,0.0049 -0.03676,0.01081 -0.05478,0.0167 -0.0077,0.0026 -0.01562,0.0049 -0.02331,0.0078 -0.0178,0.0064 -0.03514,0.01368 -0.05237,0.0212 -0.0079,0.0035 -0.01609,0.0068 -0.02389,0.01057 -0.01562,0.0073 -0.03089,0.01535 -0.04594,0.0236 -0.0094,0.005 -0.01861,0.01 -0.02756,0.01525 -0.01296,0.0077 -0.02549,0.01588 -0.03801,0.02412 -0.01042,0.0069 -0.0209,0.01379 -0.03101,0.02109 -0.01056,0.0078 -0.02079,0.01588 -0.03089,0.02401 -0.01109,0.0087 -0.02194,0.01743 -0.03239,0.02674 -0.0091,0.008 -0.01769,0.0166 -0.02629,0.02495 -0.01029,0.01008 -0.02067,0.01994 -0.03056,0.03049 -0.0087,0.0094 -0.01689,0.01942 -0.02527,0.02924 -0.0086,0.01008 -0.017,0.01984 -0.02504,0.03038 -0.0095,0.01253 -0.01814,0.02558 -0.02688,0.03864 -0.0056,0.0085 -0.01162,0.0167 -0.017,0.02537 -0.01029,0.01692 -0.01952,0.03435 -0.02859,0.05189 -0.0025,0.005 -0.0056,0.0095 -0.008,0.01461 -4.59e-4,9.4e-4 -6.89e-4,0.0019 -1.15e-4,0.0028 -0.0092,0.01922 -0.01711,0.03894 -0.02458,0.05879 -0.002,0.0051 -0.0044,0.01008 -0.0061,0.01524 -0.0056,0.01618 -0.01015,0.03289 -0.01459,0.0495 -0.0025,0.0092 -0.0056,0.01827 -0.0077,0.02756 -0.0024,0.0102 -0.0037,0.02067 -0.0056,0.03101 -0.0029,0.01588 -0.0061,0.03174 -0.008,0.04771 -6.88e-4,0.0063 -6.88e-4,0.01254 -0.0013,0.01879 -0.0019,0.02004 -0.0032,0.04019 -0.0033,0.06025 0,0.0011 -1.2e-5,0.0022 -1.2e-5,0.0034 l 0,15.289317 c 0,0.30541 0.195245,0.582941 0.500172,0.710952 l 14.770853,6.202182 c 0,0 0.002,6.26e-4 0.0029,0.0011 0.0063,0.0025 0.01269,0.0044 0.01907,0.0068 0.02871,0.01118 0.05754,0.02099 0.08683,0.02913 0.01029,0.0028 0.02056,0.0052 0.03101,0.0078 0.02791,0.0068 0.05582,0.01222 0.08384,0.0164 0.0086,0.0012 0.01722,0.0028 0.02596,0.0039 0.03698,0.0044 0.07407,0.0073 0.110948,0.0073 0.0037,0 0.0072,-6.26e-4 0.01096,-7.3e-4 0.03251,-3.13e-4 0.065,-0.0026 0.09739,-0.0063 0.01189,-0.0013 0.02366,-0.0034 0.03538,-0.0052 0.02515,-0.0039 0.0502,-0.0086 0.07499,-0.01461 0.01162,-0.0027 0.02297,-0.0055 0.03434,-0.0086 0.02744,-0.0077 0.05432,-0.0167 0.08109,-0.02694 0.0075,-0.0028 0.01504,-0.0051 0.02239,-0.0081 0.0017,-7.31e-4 0.0036,-0.0011 0.0052,-0.0018 L 57.302728,57.252248 C 57.607655,57.124236 57.8029,56.846705 57.8029,56.541295 l 0,-15.289316 c 0,-0.03372 -0.0031,-0.06683 -0.0077,-0.0994 m -14.762813,20.365916 0,-10.515516 c 0,-0.432586 -0.385551,-0.783104 -0.861374,-0.783104 -0.475823,0 -0.861375,0.350518 -0.861375,0.783104 l 0,10.515516 -13.048103,-5.478593 0,-13.588415 13.562631,5.418659 c 0.110481,0.04417 0.228436,0.0662 0.346847,0.0662 0.118177,0 0.236132,-0.02203 0.346846,-0.0662 l 13.562631,-5.418659 0,13.588415 -13.048103,5.478593" />
</svg>
