<?xml version="1.0" encoding="UTF-8" standalone="no"?>
<svg
   xmlns:dc="http://purl.org/dc/elements/1.1/"
   xmlns:cc="http://creativecommons.org/ns#"
   xmlns:rdf="http://www.w3.org/1999/02/22-rdf-syntax-ns#"
   xmlns:svg="http://www.w3.org/2000/svg"
   xmlns="http://www.w3.org/2000/svg"
   xmlns:sodipodi="http://sodipodi.sourceforge.net/DTD/sodipodi-0.dtd"
   xmlns:inkscape="http://www.inkscape.org/namespaces/inkscape"
   viewBox="0 0 64 64"
   id="svg2"
   version="1.1"
   inkscape:version="0.91 r13725"
   sodipodi:docname="application-vnd.openxmlformats-officedocument.spreadsheetml.sheet.svg">
  <metadata
     id="metadata19">
    <rdf:RDF>
      <cc:Work
         rdf:about="">
        <dc:format>image/svg+xml</dc:format>
        <dc:type
           rdf:resource="http://purl.org/dc/dcmitype/StillImage" />
        <dc:title></dc:title>
      </cc:Work>
    </rdf:RDF>
  </metadata>
  <sodipodi:namedview
     pagecolor="#ffffff"
     bordercolor="#666666"
     borderopacity="1"
     objecttolerance="10"
     gridtolerance="10"
     guidetolerance="10"
     inkscape:pageopacity="0"
     inkscape:pageshadow="2"
     inkscape:window-width="1280"
     inkscape:window-height="694"
     id="namedview17"
     showgrid="true"
     inkscape:zoom="3.6875"
     inkscape:cx="-22.606028"
     inkscape:cy="32"
     inkscape:window-x="0"
     inkscape:window-y="0"
     inkscape:window-maximized="1"
     inkscape:current-layer="svg2">
    <inkscape:grid
       type="xygrid"
       id="grid4137" />
  </sodipodi:namedview>
  <defs
     id="defs4">
    <linearGradient
       id="0"
       x1="-74.929"
       y1="52.2"
       x2="-75.26"
       y2="2.356"
       gradientUnits="userSpaceOnUse"
       gradientTransform="matrix(1.07499,0,0,1.02929,113.079,0.074)">
      <stop
         stop-color="#5dae33"
         id="stop7" />
      <stop
         offset="1"
         stop-color="#9be058"
         id="stop9" />
    </linearGradient>
  </defs>
  <rect
     style="fill:#71c837"
     id="rect13"
     rx="3.5785823"
     y="0.65025425"
     x="0.77966195"
     height="52.665592"
     width="62.983051" />
  <path
     style="color:#000000;fill:#c6e9af;fill-opacity:0.85"
     inkscape:connector-curvature="0"
     id="path15"
     d="m 44.804466,34.372881 -17.798059,3.093937 0,22.692482 17.798059,3.093937 z m 1.046801,2.062625 0,2.062624 4.188426,0 0,3.093938 -4.188426,0 0,1.031312 4.188426,0 0,3.093937 -4.188426,0 0,1.031312 4.188426,0 0,3.093937 -4.188426,0 0,1.031313 4.188426,0 0,3.093937 -4.188426,0 0,1.031312 4.188426,0 0,3.093937 -4.188426,0 0,2.062625 12.564055,0 0,-23.723794 z m 5.235227,2.062624 5.235226,0 0,3.093938 -5.235226,0 z m 0,4.126453 5.235226,0 0,3.093937 -5.235226,0 z m -11.876367,0.741294 c 0.19055,-0.0036 0.294375,-0.0072 0.294375,0 0,0.01564 -0.535004,1.215432 -1.210478,2.642662 l -1.243458,2.578883 1.243458,2.578882 c 0.675474,1.40918 1.210478,2.616188 1.210478,2.675155 0,0.12395 -0.902667,0.103492 -1.66853,-0.03249 -0.506911,-0.08905 -0.532561,-0.145611 -1.177498,-1.740114 -0.367663,-0.908566 -0.723111,-1.708825 -0.785406,-1.772606 -0.06229,-0.06378 -0.421408,0.624564 -0.785407,1.515079 -0.363998,0.889311 -0.703567,1.654673 -0.752426,1.708826 -0.04886,0.05295 -0.497139,0.05295 -1.013821,0 l -0.949083,-0.09627 1.14574,-2.385136 1.14574,-2.385135 -1.013821,-2.288864 c -0.55577,-1.262365 -1.013822,-2.392356 -1.013822,-2.482611 0,-0.09988 0.383542,-0.161255 0.982063,-0.161255 l 0.982063,0 0.55577,1.54757 c 0.312697,0.847193 0.629058,1.581266 0.687688,1.643842 0.05741,0.06258 0.447059,-0.69075 0.850144,-1.676333 l 0.719447,-1.772606 1.046801,-0.06498 c 0.288267,-0.01324 0.561877,-0.02888 0.752426,-0.03249 m 11.876367,3.383956 5.235226,0 0,3.093937 -5.235226,0 z m 0,4.126452 5.235226,0 0,3.093937 -5.235226,0 z m 0,4.126453 5.235226,0 0,3.093937 -5.235226,0 z" />
</svg>
