<?xml version="1.0" encoding="UTF-8" standalone="no"?>
<svg
   xmlns:dc="http://purl.org/dc/elements/1.1/"
   xmlns:cc="http://creativecommons.org/ns#"
   xmlns:rdf="http://www.w3.org/1999/02/22-rdf-syntax-ns#"
   xmlns:svg="http://www.w3.org/2000/svg"
   xmlns="http://www.w3.org/2000/svg"
   xmlns:sodipodi="http://sodipodi.sourceforge.net/DTD/sodipodi-0.dtd"
   xmlns:inkscape="http://www.inkscape.org/namespaces/inkscape"
   viewBox="0 0 64 64"
   id="svg2"
   version="1.1"
   inkscape:version="0.91 r13725"
   sodipodi:docname="application-vnd.debian.binary-package.svg">
  <metadata
     id="metadata19">
    <rdf:RDF>
      <cc:Work
         rdf:about="">
        <dc:format>image/svg+xml</dc:format>
        <dc:type
           rdf:resource="http://purl.org/dc/dcmitype/StillImage" />
        <dc:title></dc:title>
      </cc:Work>
    </rdf:RDF>
  </metadata>
  <sodipodi:namedview
     pagecolor="#ffffff"
     bordercolor="#666666"
     borderopacity="1"
     objecttolerance="10"
     gridtolerance="10"
     guidetolerance="10"
     inkscape:pageopacity="0"
     inkscape:pageshadow="2"
     inkscape:window-width="1280"
     inkscape:window-height="694"
     id="namedview17"
     showgrid="true"
     inkscape:zoom="3.6875"
     inkscape:cx="-20.598795"
     inkscape:cy="32"
     inkscape:window-x="0"
     inkscape:window-y="0"
     inkscape:window-maximized="1"
     inkscape:current-layer="svg2">
    <inkscape:grid
       type="xygrid"
       id="grid4137" />
  </sodipodi:namedview>
  <defs
     id="defs4">
    <linearGradient
       id="0"
       x1="-74.929"
       y1="52.2"
       x2="-75.26"
       y2="2.356"
       gradientUnits="userSpaceOnUse"
       gradientTransform="matrix(1.07499,0,0,1.02929,113.079,0.074)">
      <stop
         stop-color="#de2b5b"
         id="stop7" />
      <stop
         offset="1"
         stop-color="#f73667"
         id="stop9" />
    </linearGradient>
  </defs>
  <rect
     style="fill:#ff2a7f"
     id="rect13"
     rx="3.6248074"
     y="0.65025425"
     x="0.23728909"
     height="52.936779"
     width="63.796608" />
  <path
     style="fill:#ffd5e5;fill-opacity:0.85399996"
     inkscape:connector-curvature="0"
     id="path15"
     ns2:rgbTrio="#4F008000FFFF"
     ns2:dimmedPercent="50"
     ns2:layer="yes"
     d="m 44.384632,63.794425 c -5.512992,-1.705279 -8.78756,-3.798202 -12.377864,-8.468898 -0.88103,-1.286811 -2.50108,-4.16095 -2.439725,-7.906991 -0.143399,-3.737148 2.052982,-8.043318 6.15205,-10.341324 3.958434,-2.425444 9.066758,-2.4616 12.105557,-1.50375 3.134622,1.000525 4.405844,2.667275 4.44169,2.58785 -0.09582,0.02075 1.679337,1.304594 2.470748,4.099306 0.881721,2.686243 -0.01384,7.136445 -4.323118,8.962046 -1.981974,0.913394 -4.556129,1.078765 -6.57464,0.42558 -2.018512,-0.700011 -3.481383,-2.236955 -3.971533,-3.842656 -1.063718,-3.545106 2.064701,-5.509999 3.444844,-5.711526 5.615021,-1.609851 8.458724,5.94506 1.891666,6.585206 2.993299,0.859457 6.078975,-1.78411 5.49231,-4.472131 -0.118571,-2.690985 -3.907419,-5.364188 -8.086458,-4.267049 -1.091291,0.259022 -2.743741,0.917543 -4.037022,2.39877 -1.326373,1.472336 -1.928204,3.779826 -1.238822,6.022709 0.67215,2.255329 2.716168,4.414044 5.563318,5.38197 2.876104,0.912208 6.078284,0.651408 8.722757,-0.531678 5.645353,-2.40114 6.775251,-8.251958 5.653626,-11.471064 -0.989953,-3.459753 -3.175986,-5.044114 -3.062926,-5.068416 -0.04067,0.09425 -1.613155,-1.961337 -5.499205,-3.209029 -3.799877,-1.191384 -9.727186,-1.107217 -14.46807,1.752696 -4.853254,2.67676 -7.484627,7.936628 -7.293667,12.175818 -0.06549,4.304983 1.800667,7.599958 2.818884,9.064587 4.104584,5.381971 8.807552,7.064133 14.614909,7.333231"
     ns2:knockout="Off" />
</svg>
