<?xml version="1.0" encoding="UTF-8" standalone="no"?>
<svg
   xmlns:dc="http://purl.org/dc/elements/1.1/"
   xmlns:cc="http://creativecommons.org/ns#"
   xmlns:rdf="http://www.w3.org/1999/02/22-rdf-syntax-ns#"
   xmlns:svg="http://www.w3.org/2000/svg"
   xmlns="http://www.w3.org/2000/svg"
   xmlns:sodipodi="http://sodipodi.sourceforge.net/DTD/sodipodi-0.dtd"
   xmlns:inkscape="http://www.inkscape.org/namespaces/inkscape"
   viewBox="0 0 64 64"
   id="svg2"
   version="1.1"
   inkscape:version="0.91 r13725"
   sodipodi:docname="libreoffice-formula.svg">
  <metadata
     id="metadata19">
    <rdf:RDF>
      <cc:Work
         rdf:about="">
        <dc:format>image/svg+xml</dc:format>
        <dc:type
           rdf:resource="http://purl.org/dc/dcmitype/StillImage" />
        <dc:title></dc:title>
      </cc:Work>
    </rdf:RDF>
  </metadata>
  <sodipodi:namedview
     pagecolor="#ffffff"
     bordercolor="#666666"
     borderopacity="1"
     objecttolerance="10"
     gridtolerance="10"
     guidetolerance="10"
     inkscape:pageopacity="0"
     inkscape:pageshadow="2"
     inkscape:window-width="1280"
     inkscape:window-height="694"
     id="namedview17"
     showgrid="true"
     inkscape:zoom="3.6875"
     inkscape:cx="-66.865221"
     inkscape:cy="32"
     inkscape:window-x="0"
     inkscape:window-y="0"
     inkscape:window-maximized="1"
     inkscape:current-layer="svg2">
    <inkscape:grid
       type="xygrid"
       id="grid4137" />
  </sodipodi:namedview>
  <defs
     id="defs4">
    <linearGradient
       id="0"
       x1="-74.929"
       y1="52.2"
       x2="-75.26"
       y2="2.356"
       gradientUnits="userSpaceOnUse"
       gradientTransform="matrix(1.07499,0,0,1.02929,113.079,0.206)">
      <stop
         stop-color="#9154ae"
         id="stop7" />
      <stop
         offset="1"
         stop-color="#ba8bcf"
         id="stop9" />
    </linearGradient>
  </defs>
  <rect
     style="fill:#b380ff"
     id="rect13"
     rx="3.6093988"
     y="0.51206785"
     x="0.23728909"
     height="53.219151"
     width="63.525421" />
  <path
     style="opacity:0.9;fill:#220055"
     inkscape:connector-curvature="0"
     id="path15"
     d="M 51.147721,57.895437 C 46.672463,54.390204 49.83096,39.972103 49.83096,39.972103 c 0,0 4.898944,0 5.469623,0 0.570678,0 2.808925,-0.36005 2.808925,-3.043725 0,-3.302318 -2.734811,-3.099403 -2.734811,-3.099403 0,0 -14.992052,0 -20.140513,0 -3.30549,0 -6.289819,3.791046 -8.00309,6.503178 -0.911604,1.448863 -0.396511,1.854693 1.169767,1.171711 5.489387,-2.40776 7.035901,-1.540422 7.035901,-1.540422 0.386629,1.854693 0.515093,10.221225 -0.893075,13.523543 -1.427932,3.109301 -4.061454,7.047584 -0.193932,9.362548 3.020151,1.716116 6.188529,-1.807676 5.87478,-7.804804 -0.146993,-3.173641 -0.396511,-15.072626 -0.396511,-15.072626 l 5.047172,0 c -0.156875,1.854693 -1.012893,11.318698 -0.119818,16.927318 0.930132,9.362548 11.087473,7.546211 12.984795,2.241964 0.469389,-1.466185 0.359453,-2.592116 0.0086,-3.440894 -0.644793,-1.577541 -1.721918,-1.660439 -1.6021,-0.921779 0.07411,0.470169 0.02717,0.931677 -0.0457,1.347405 -0.221107,1.281829 -2.8361,3.29242 -4.953294,1.771795" />
</svg>
