<?xml version="1.0" encoding="UTF-8" standalone="no"?>
<svg
   xmlns:dc="http://purl.org/dc/elements/1.1/"
   xmlns:cc="http://creativecommons.org/ns#"
   xmlns:rdf="http://www.w3.org/1999/02/22-rdf-syntax-ns#"
   xmlns:svg="http://www.w3.org/2000/svg"
   xmlns="http://www.w3.org/2000/svg"
   xmlns:sodipodi="http://sodipodi.sourceforge.net/DTD/sodipodi-0.dtd"
   xmlns:inkscape="http://www.inkscape.org/namespaces/inkscape"
   viewBox="0 0 64 64"
   id="svg2"
   version="1.1"
   inkscape:version="0.91 r13725"
   sodipodi:docname="text-plain.svg">
  <metadata
     id="metadata19">
    <rdf:RDF>
      <cc:Work
         rdf:about="">
        <dc:format>image/svg+xml</dc:format>
        <dc:type
           rdf:resource="http://purl.org/dc/dcmitype/StillImage" />
        <dc:title></dc:title>
      </cc:Work>
    </rdf:RDF>
  </metadata>
  <sodipodi:namedview
     pagecolor="#ffffff"
     bordercolor="#666666"
     borderopacity="1"
     objecttolerance="10"
     gridtolerance="10"
     guidetolerance="10"
     inkscape:pageopacity="0"
     inkscape:pageshadow="2"
     inkscape:window-width="1280"
     inkscape:window-height="694"
     id="namedview17"
     showgrid="true"
     inkscape:zoom="3.6875"
     inkscape:cx="-12.20339"
     inkscape:cy="32"
     inkscape:window-x="0"
     inkscape:window-y="0"
     inkscape:window-maximized="1"
     inkscape:current-layer="svg2">
    <inkscape:grid
       type="xygrid"
       id="grid4147" />
  </sodipodi:namedview>
  <defs
     id="defs4">
    <linearGradient
       id="0"
       x1="-74.58"
       y1="60.31"
       x2="-75.26"
       y2="2.356"
       gradientUnits="userSpaceOnUse"
       gradientTransform="matrix(1.5387762,0,0,0.89555871,148.06259,-0.79493906)">
      <stop
         stop-color="#d1d7df"
         id="stop7" />
      <stop
         offset="1"
         stop-color="#eaf0f2"
         id="stop9" />
    </linearGradient>
  </defs>
  <rect
     style="fill:url(#0)"
     id="rect13"
     rx="3.5785823"
     y="0.65025425"
     x="0.51047444"
     height="52.665592"
     width="62.983047" />
  <path
     style="fill:#3d434a;stroke:none;stroke-width:0.071;stroke-opacity:0.8"
     inkscape:connector-curvature="0"
     id="path15"
     d="M 42.179388,37.373599 30.747473,51.19867 c -2.142938,2.591302 -1.543439,7.209241 1.199,9.233825 2.744619,2.024584 7.629996,1.457864 9.775115,-1.133438 l 11.431915,-13.825072 1.427899,-1.728903 c 1.430079,-1.728904 1.028959,-4.806846 -0.80006,-6.155883 -1.829019,-1.351092 -5.088118,-0.971226 -6.516017,0.755625 l -1.430079,1.728904 -8.573936,10.369317 -1.43008,1.728903 c -0.715039,0.864452 -0.514479,2.402397 0.39894,3.077941 0.9156,0.675546 2.544059,0.486641 3.259099,-0.377812 l 10.004015,-12.096166 1.829019,1.35109 -10.004015,12.096168 c -1.43008,1.728903 -4.686998,2.106715 -6.516017,0.755625 -1.829019,-1.351091 -2.230138,-4.429033 -0.80006,-6.155884 l 1.43008,-1.728904 10.004015,-12.096166 c 2.142939,-2.591302 7.030497,-3.158022 9.775116,-1.133438 2.744619,2.024583 3.344118,6.642522 1.20118,9.233824 l -1.43008,1.728905 -11.431914,13.82507 c -2.857979,3.455754 -9.373996,4.21138 -13.032034,1.511251 -3.658039,-2.700129 -4.458098,-8.856012 -1.60012,-12.31382 l 11.431915,-13.82507 1.829019,1.35109" />
</svg>
