<?xml version="1.0" encoding="UTF-8" standalone="no"?>
<svg
   xmlns:dc="http://purl.org/dc/elements/1.1/"
   xmlns:cc="http://creativecommons.org/ns#"
   xmlns:rdf="http://www.w3.org/1999/02/22-rdf-syntax-ns#"
   xmlns:svg="http://www.w3.org/2000/svg"
   xmlns="http://www.w3.org/2000/svg"
   xmlns:sodipodi="http://sodipodi.sourceforge.net/DTD/sodipodi-0.dtd"
   xmlns:inkscape="http://www.inkscape.org/namespaces/inkscape"
   viewBox="0 0 64 64"
   id="svg2"
   version="1.1"
   inkscape:version="0.91 r13725"
   sodipodi:docname="text-x-rpm-spec.svg">
  <metadata
     id="metadata27">
    <rdf:RDF>
      <cc:Work
         rdf:about="">
        <dc:format>image/svg+xml</dc:format>
        <dc:type
           rdf:resource="http://purl.org/dc/dcmitype/StillImage" />
        <dc:title></dc:title>
      </cc:Work>
    </rdf:RDF>
  </metadata>
  <sodipodi:namedview
     pagecolor="#ffffff"
     bordercolor="#666666"
     borderopacity="1"
     objecttolerance="10"
     gridtolerance="10"
     guidetolerance="10"
     inkscape:pageopacity="0"
     inkscape:pageshadow="2"
     inkscape:window-width="1280"
     inkscape:window-height="694"
     id="namedview25"
     showgrid="true"
     inkscape:zoom="3.6875"
     inkscape:cx="-12.20339"
     inkscape:cy="32"
     inkscape:window-x="0"
     inkscape:window-y="0"
     inkscape:window-maximized="1"
     inkscape:current-layer="svg2">
    <inkscape:grid
       type="xygrid"
       id="grid4155" />
  </sodipodi:namedview>
  <defs
     id="defs4">
    <linearGradient
       id="0"
       x1="-74.929"
       y1="52.2"
       x2="-75.26"
       y2="2.356"
       gradientUnits="userSpaceOnUse"
       gradientTransform="matrix(1.5520272,0,0,0.90939295,149.32977,-1.0884504)">
      <stop
         stop-color="#ff1526"
         id="stop7" />
      <stop
         offset="1"
         stop-color="#ff461c"
         id="stop9" />
    </linearGradient>
  </defs>
  <rect
     style="fill:#ff5555"
     id="rect13"
     rx="3.6093991"
     y="0.37906781"
     x="0.50847554"
     height="53.479149"
     width="63.525421" />
  <g
     id="g4167"
     transform="matrix(1.3162189,0,0,1.214713,-25.512525,-13.63915)">
    <path
       style="fill:#cccccc"
       inkscape:connector-curvature="0"
       id="path17"
       d="M 61.601208,58.046324 C 61.138566,57.940629 60.647545,57.87314 60.15151,57.87314 c -0.849672,0 -1.622029,0.147963 -2.19202,0.384574 -0.06343,0.03169 -0.10735,0.09757 -0.10735,0.171579 0,0.02763 0.0057,0.0553 0.0171,0.07807 0.06669,0.195145 -0.04392,0.405733 -0.595162,0.528476 -0.817934,0.178899 -1.334275,1.023658 -1.6294,1.302537 -0.347169,0.329269 -1.326102,0.531734 -1.178941,0.334183 0.115472,-0.151924 0.556052,-0.630962 0.823649,-1.148056 0.240672,-0.461839 0.454269,-0.593557 0.748039,-1.03504 0.08699,-0.129261 0.421176,-0.58378 0.518749,-0.943183 0.108954,-0.351482 0.07235,-0.791912 0.11462,-0.973268 0.06017,-0.261831 0.306505,-0.828513 0.325208,-1.150512 0.01058,-0.179702 -0.757114,0.260176 -1.121231,0.260176 -0.364267,0 -0.719559,-0.218711 -1.044817,-0.233351 -0.402625,-0.01951 -0.661848,0.309764 -1.026918,0.251201 -0.207329,-0.03254 -0.383771,-0.215452 -0.746384,-0.228488 -0.517946,-0.01951 -1.151314,0.287001 -2.339231,0.249597 -1.169215,-0.03821 -2.24898,-1.478177 -2.396141,-1.706766 -0.173183,-0.267497 -0.384574,-0.267497 -0.613864,-0.05611 -0.230092,0.208983 -0.514687,0.04392 -0.594359,-0.09677 -0.153679,-0.268299 -0.563474,-1.051285 -1.198447,-1.216396 -0.878101,-0.227636 -1.322843,0.486208 -1.265032,1.05294 0.05856,0.57646 0.431756,0.738261 0.604689,1.044817 0.171579,0.305704 0.260176,0.503907 0.58378,0.639887 0.230894,0.09592 0.316283,0.237413 0.247992,0.42604 -0.06017,0.164258 -0.299236,0.202565 -0.457778,0.209785 -0.334183,0.01625 -0.568337,-0.07481 -0.739916,-0.183763 -0.198404,-0.127656 -0.361008,-0.303347 -0.533389,-0.60168 -0.201563,-0.330122 -0.517947,-0.473221 -0.886225,-0.473221 -0.17564,0 -0.340701,0.04633 -0.486208,0.120336 -0.577261,0.301843 -1.265032,0.478887 -2.005048,0.478887 l -0.835834,8.02e-4 c 1.60092,4.745751 6.091509,8.162291 11.380777,8.162291 4.223794,0 7.938667,-2.179085 10.078642,-5.476792" />
    <path
       style="fill:#6f0a10"
       inkscape:connector-curvature="0"
       id="path19"
       d="m 61.601208,58.047828 c -0.462642,-0.10735 -0.953663,-0.173986 -1.449698,-0.173986 -0.849672,0 -1.622029,0.147963 -2.19202,0.384574 -0.06343,0.03169 -0.10735,0.09677 -0.10735,0.171579 0,0.02683 0.0057,0.0553 0.0171,0.07727 0.06669,0.195947 -0.04392,0.407337 -0.595162,0.529328 -0.817934,0.179702 -1.334275,1.022856 -1.6294,1.301734 -0.347169,0.330122 -1.326102,0.532588 -1.178941,0.335788 0.115472,-0.153679 0.556052,-0.632566 0.823649,-1.14966 0.240672,-0.460987 0.454269,-0.593557 0.748039,-1.034238 0.08699,-0.129261 0.421176,-0.584582 0.518749,-0.943183 0.108954,-0.351983 0.07235,-0.791911 0.11462,-0.973268 0.06017,-0.261831 0.306505,-0.828513 0.325208,-1.14966 0.01058,-0.181306 -0.757114,0.258572 -1.121231,0.258572 -0.364267,0 -0.719559,-0.217908 -1.044817,-0.232549 -0.402625,-0.02031 -0.661848,0.309765 -1.026918,0.251201 -0.207329,-0.03254 -0.383771,-0.215451 -0.746384,-0.22929 -0.517946,-0.0187 -1.151314,0.287804 -2.339231,0.249597 -1.169215,-0.03821 -2.24898,-1.476523 -2.396141,-1.705262 -0.173183,-0.269151 -0.384574,-0.269151 -0.613864,-0.05771 -0.230092,0.209786 -0.514687,0.04472 -0.594359,-0.09592 -0.153679,-0.269151 -0.563474,-1.052137 -1.198447,-1.217148 -0.878101,-0.227636 -1.322843,0.486208 -1.265032,1.053943 0.05856,0.575657 0.431756,0.737459 0.604689,1.043965 0.171579,0.305703 0.260176,0.50491 0.58378,0.640689 0.230894,0.09511 0.316283,0.237413 0.247992,0.426039 -0.06017,0.164259 -0.299236,0.202566 -0.457778,0.209786 -0.334183,0.01544 -0.568337,-0.07481 -0.739916,-0.185368 -0.198404,-0.125199 -0.361008,-0.301842 -0.533389,-0.600877 -0.201563,-0.32927 -0.517947,-0.473222 -0.886225,-0.473222 -0.17564,0 -0.340701,0.04718 -0.486208,0.120336 -0.577261,0.301843 -1.265032,0.47969 -2.005048,0.47969 l -0.835834,0 c -0.406535,-1.204363 -0.626048,-2.494515 -0.626048,-3.835209 0,-6.628006 5.375008,-12.000006 12.006525,-12.000006 6.630012,0 12.006023,5.372 12.006023,12.000006 0,2.405065 -0.707977,4.642463 -1.926981,6.522713" />
    <path
       style="fill:#333333"
       inkscape:connector-curvature="0"
       id="path21"
       d="m 54.165948,56.947255 c 0.06177,0.05937 0.16832,0.261831 0.03821,0.519551 -0.07315,0.136581 -0.151924,0.231747 -0.291915,0.34391 -0.169924,0.135779 -0.499244,0.291915 -0.951306,0.0041 -0.243931,-0.153679 -0.259374,-0.205724 -0.595162,-0.161802 -0.23987,0.03089 -0.334985,-0.212192 -0.249597,-0.413053 0.08699,-0.201061 0.440681,-0.363465 0.882163,-0.104893 0.199207,0.116275 0.508169,0.363465 0.778123,0.143902 0.113016,-0.08865 0.180504,-0.148815 0.335788,-0.329269 0.0073,-0.0073 0.0171,-0.01138 0.02848,-0.01138 0.0098,0 0.0187,0.0033 0.02522,0.0089" />
    <path
       style="fill:#ff3021"
       inkscape:connector-curvature="0"
       id="path23"
       d="m 50.587456,45.239565 c -1.386271,0.100029 -1.531025,0.249597 -1.790399,0.525267 -0.365872,0.391092 -0.848871,-0.50491 -0.848871,-0.50491 -0.29026,-0.06097 -0.640688,-0.527674 -0.45126,-0.962688 0.187023,-0.430903 0.531735,-0.302344 0.639085,-0.16832 0.130915,0.163406 0.411399,0.430903 0.775666,0.421176 0.364267,-0.0098 0.783788,-0.08619 1.370025,-0.08619 0.593557,0 0.99197,0.221168 1.013881,0.412251 0.02031,0.161802 -0.04798,0.314679 -0.707977,0.363465 m 1.457069,-2.290445 -0.0065,0 c -0.02116,0 -0.03821,-0.01625 -0.03821,-0.0358 0,-0.01464 0.0089,-0.02763 0.02196,-0.03334 0.269152,-0.141495 0.669971,-0.255313 1.128551,-0.30084 0.137434,-0.01464 0.272361,-0.02276 0.401622,-0.02276 l 0.06909,0 c 0.77,0.0179 1.385469,0.323604 1.376544,0.682957 -0.0098,0.359353 -0.639887,0.636628 -1.410438,0.620382 -0.247993,-0.0065 -0.482146,-0.04227 -0.682957,-0.100781 -0.02522,-0.0057 -0.04147,-0.02602 -0.04147,-0.05064 0,-0.02357 0.01624,-0.04392 0.04227,-0.05064 0.478887,-0.110559 0.803243,-0.292717 0.78053,-0.464246 -0.03089,-0.226833 -0.657837,-0.350429 -1.402567,-0.27562 -0.08213,0.0081 -0.160999,0.0187 -0.238215,0.03089 m 6.252458,5.383531 c -0.118731,0.398413 -0.287001,0.908036 -1.038299,1.293612 -0.109756,0.05611 -0.15042,-0.0358 -0.100781,-0.12194 0.284594,-0.482949 0.334183,-0.603184 0.417114,-0.792764 0.11462,-0.278878 0.176443,-0.674834 -0.05365,-1.499286 -0.45126,-1.623684 -1.394394,-3.795598 -2.078303,-4.498561 -0.661046,-0.679748 -1.857687,-0.871634 -2.940862,-0.593557 -0.398412,0.101634 -1.178139,0.506414 -2.623826,0.181306 -2.501836,-0.563473 -2.872521,0.688673 -3.015921,1.234246 -0.144704,0.545574 -0.489467,2.096103 -0.489467,2.096103 -0.11462,0.632566 -0.26504,1.730231 3.62061,2.470899 1.810054,0.343911 1.900957,0.812268 1.982285,1.148056 0.143901,0.602683 0.373192,0.947245 0.631764,1.119576 0.258571,0.172381 0,0.315481 -0.287002,0.34391 -0.77,0.08047 -3.619606,-0.736657 -5.306316,-1.693629 -1.37895,-0.842352 -1.401714,-1.600118 -1.086283,-2.244066 -2.083066,-0.225228 -3.646682,0.195145 -3.929472,1.181399 -0.48701,1.691172 3.720388,4.580791 8.512268,6.031341 5.028039,1.521247 10.198977,0.45858 10.774083,-2.70019 0.260979,-1.435057 -0.948047,-2.496922 -2.987843,-2.956354" />
  </g>
</svg>
