<?xml version="1.0" encoding="UTF-8" standalone="no"?>
<!-- Generator: Adobe Illustrator 12.0.0, SVG Export Plug-In . SVG Version: 6.00 Build 51448)  -->

<svg
   xmlns:dc="http://purl.org/dc/elements/1.1/"
   xmlns:cc="http://creativecommons.org/ns#"
   xmlns:rdf="http://www.w3.org/1999/02/22-rdf-syntax-ns#"
   xmlns:svg="http://www.w3.org/2000/svg"
   xmlns="http://www.w3.org/2000/svg"
   xmlns:sodipodi="http://sodipodi.sourceforge.net/DTD/sodipodi-0.dtd"
   xmlns:inkscape="http://www.inkscape.org/namespaces/inkscape"
   version="1.1"
   id="图层_1"
   width="248"
   height="248"
   viewBox="0 0 248 248"
   style="overflow:visible;enable-background:new 0 0 248 248;"
   xml:space="preserve"
   inkscape:version="0.91 r13725"
   sodipodi:docname="face-laughing.svg"><metadata
     id="metadata41"><rdf:RDF><cc:Work
         rdf:about=""><dc:format>image/svg+xml</dc:format><dc:type
           rdf:resource="http://purl.org/dc/dcmitype/StillImage" /><dc:title></dc:title></cc:Work></rdf:RDF></metadata><defs
     id="defs39" /><sodipodi:namedview
     pagecolor="#ffffff"
     bordercolor="#666666"
     borderopacity="1"
     objecttolerance="10"
     gridtolerance="10"
     guidetolerance="10"
     inkscape:pageopacity="0"
     inkscape:pageshadow="2"
     inkscape:window-width="1280"
     inkscape:window-height="694"
     id="namedview37"
     showgrid="false"
     inkscape:zoom="0.9516129"
     inkscape:cx="-47.288136"
     inkscape:cy="124"
     inkscape:window-x="0"
     inkscape:window-y="0"
     inkscape:window-maximized="1"
     inkscape:current-layer="图层_1" /><circle
     style="fill:#ffdd55"
     cx="124"
     cy="124"
     r="124"
     id="circle3" /><g
     id="g5"
     style="fill:#ff5555"><g
       style="opacity:0.03;fill:#ff5555"
       id="g7"><path
         d="M221.334,156.407c0,58.573-60.713,84.928-95.666,84.928C80.777,241.335,30,214.98,30,156.407    c0-58.577,59.24-11.307,95.667-11.307C160.621,145.101,221.334,97.831,221.334,156.407z"
         id="path9"
         style="fill:#ff5555" /></g><g
       id="g11"
       style="fill:#ff5555"><path
         style="fill:#ff5555"
         d="M221.334,149.407c0,58.573-60.713,84.928-95.666,84.928C80.777,234.335,30,207.98,30,149.407    c0-58.577,59.24-11.307,95.667-11.307C160.621,138.101,221.334,90.831,221.334,149.407z"
         id="path13" /></g></g><path
     style="fill:none;stroke:#000000;stroke-width:13;stroke-linecap:round;"
     d="M70.109,37.334c0,0,14.667-22,28.667-1.333"
     id="path15" /><path
     style="fill:none;stroke:#000000;stroke-width:13;stroke-linecap:round;"
     d="M146.546,37.334c0,0,14.667-22,28.666-1.333"
     id="path17" /><g
     id="g21"
     style="fill:#80b3ff"><g
       style="opacity:0.03;fill:#80b3ff"
       id="g23"><path
         d="M142.243,105.145c-3.769-17.417-17.886-24.461-17.886-24.461s-9.94,12.251-6.17,29.667c0,0,4.292,14.79,13.794,12.733    C144.993,120.268,142.243,105.145,142.243,105.145z"
         id="path25"
         style="fill:#80b3ff" /><ellipse
         transform="matrix(0.9967 0.0808 -0.0808 0.9967 9.367 -10.4895)"
         cx="134.299"
         cy="110.5"
         rx="3.251"
         ry="5.451"
         id="ellipse27"
         style="fill:#80b3ff" /></g><g
       id="g29"
       style="fill:#80b3ff"><g
         id="g31"
         style="fill:#80b3ff"><path
           style="fill:#80b3ff"
           d="M142.243,98.145c-3.769-17.417-17.886-24.461-17.886-24.461s-9.94,12.251-6.17,29.667     c0,0,4.292,14.789,13.794,12.733C144.993,113.268,142.243,98.145,142.243,98.145z"
           id="path33" /><ellipse
           transform="matrix(0.9967 0.0808 -0.0808 0.9967 8.8014 -10.5124)"
           style="fill:#80b3ff"
           cx="134.299"
           cy="103.5"
           rx="3.251"
           ry="5.451"
           id="ellipse35" /></g></g></g></svg>