<?xml version="1.0" encoding="UTF-8" standalone="no"?>
<!-- Generator: Adobe Illustrator 12.0.0, SVG Export Plug-In . SVG Version: 6.00 Build 51448)  -->

<svg
   xmlns:dc="http://purl.org/dc/elements/1.1/"
   xmlns:cc="http://creativecommons.org/ns#"
   xmlns:rdf="http://www.w3.org/1999/02/22-rdf-syntax-ns#"
   xmlns:svg="http://www.w3.org/2000/svg"
   xmlns="http://www.w3.org/2000/svg"
   xmlns:sodipodi="http://sodipodi.sourceforge.net/DTD/sodipodi-0.dtd"
   xmlns:inkscape="http://www.inkscape.org/namespaces/inkscape"
   version="1.1"
   id="图层_1"
   width="251.993"
   height="226.217"
   viewBox="0 0 251.993 226.217"
   style="overflow:visible;enable-background:new 0 0 251.993 226.217;"
   xml:space="preserve"
   inkscape:version="0.91 r13725"
   sodipodi:docname="face-crying.svg"><metadata
     id="metadata49"><rdf:RDF><cc:Work
         rdf:about=""><dc:format>image/svg+xml</dc:format><dc:type
           rdf:resource="http://purl.org/dc/dcmitype/StillImage" /><dc:title></dc:title></cc:Work></rdf:RDF></metadata><defs
     id="defs47" /><sodipodi:namedview
     pagecolor="#ffffff"
     bordercolor="#666666"
     borderopacity="1"
     objecttolerance="10"
     gridtolerance="10"
     guidetolerance="10"
     inkscape:pageopacity="0"
     inkscape:pageshadow="2"
     inkscape:window-width="1280"
     inkscape:window-height="694"
     id="namedview45"
     showgrid="false"
     inkscape:zoom="1.0432461"
     inkscape:cx="-115.52686"
     inkscape:cy="113.1085"
     inkscape:window-x="0"
     inkscape:window-y="0"
     inkscape:window-maximized="1"
     inkscape:current-layer="图层_1" /><ellipse
     style="fill:#ffdd55"
     cx="126.13419"
     cy="113.109"
     id="circle3"
     rx="112.62974"
     ry="113.109" /><g
     id="g5"><path
       style="fill:none;stroke:#000000;stroke-width:13;stroke-linecap:round;stroke-linejoin:round;"
       d="M192.422,44.051   c0,0-32.614-0.259-43.664,21.913"
       id="path7" /><path
       style="fill:none;stroke:#000000;stroke-width:13;stroke-linecap:round;stroke-linejoin:round;"
       d="M148.758,65.964   c0,0,23.054-4.189,33.088,12.687"
       id="path9" /></g><g
     id="g11"><path
       style="fill:none;stroke:#000000;stroke-width:13;stroke-linecap:round;stroke-linejoin:round;"
       d="M66.712,44.051   c0,0,32.615-0.259,43.665,21.913"
       id="path13" /><path
       style="fill:none;stroke:#000000;stroke-width:13;stroke-linecap:round;stroke-linejoin:round;"
       d="M110.376,65.964   c0,0-24.765-1.908-33.43,12.687"
       id="path15" /></g><path
     style="fill:#ff5555"
     d="M172,168.336c0,26.686-19.069,41.32-42.592,41.32c-23.523,0-42.592-14.635-42.592-41.32  c0-26.688,19.069-48.321,42.592-48.321C152.931,120.015,172,141.649,172,168.336z"
     id="path17" /><g
     id="g19"
     style="fill:#80b3ff"><path
       style="fill:#80b3ff"
       d="M207.009,63.958c0,0,16.629,6.563,16.855,20.321c0.609,37.29,45.067,23.272,20.98-11.123   C244.845,73.157,234.16,55.996,207.009,63.958z"
       id="path21" /><ellipse
       transform="matrix(0.9808 -0.1948 0.1948 0.9808 -12.8685 49.1959)"
       style="fill:#80b3ff"
       cx="243.701"
       cy="90.027"
       rx="3.692"
       ry="6.903"
       id="ellipse23" /></g><g
     id="g25"
     style="fill:#80b3ff"><path
       style="fill:#80b3ff"
       d="M192.913,99.688c0,0,7.916,8.861,3.943,17.1c-10.77,22.326,19.816,27.271,15.779-0.342   C212.636,116.447,211.413,103.065,192.913,99.688z"
       id="path27" /><ellipse
       transform="matrix(0.9638 0.2666 -0.2666 0.9638 41.1165 -50.6034)"
       style="fill:#80b3ff"
       cx="206.921"
       cy="126.123"
       rx="2.454"
       ry="4.588"
       id="ellipse29" /></g><g
     id="g31"
     style="fill:#80b3ff"><path
       style="fill:#80b3ff"
       d="M44.984,55.114c0,0-16.629,6.563-16.855,20.321c-0.609,37.289-45.067,23.272-20.98-11.123   C7.148,64.312,17.833,47.151,44.984,55.114z"
       id="path33" /><ellipse
       transform="matrix(-0.9808 -0.1948 0.1948 -0.9808 0.6123 162.4254)"
       style="fill:#80b3ff"
       cx="8.292"
       cy="81.183"
       rx="3.692"
       ry="6.903"
       id="ellipse35" /></g><g
     id="g37"
     style="fill:#80b3ff"><path
       style="fill:#80b3ff"
       d="M64.012,95.921c0,0-7.916,8.861-3.943,17.1c10.77,22.326-19.816,27.271-15.779-0.342   C44.29,112.679,45.512,99.298,64.012,95.921z"
       id="path39" /><ellipse
       transform="matrix(-0.9638 0.2666 -0.2666 -0.9638 130.8207 226.9489)"
       style="fill:#80b3ff"
       cx="50.004"
       cy="122.355"
       rx="2.454"
       ry="4.588"
       id="ellipse41" /></g><path
     style="fill:#fff6d5"
     d="M129.318,141.525c13.363,0,26.058,1.392,37.502,3.891c-7.196-15.123-21.291-25.4-37.502-25.4  c-16.212,0-30.306,10.277-37.503,25.4C103.261,142.917,115.954,141.525,129.318,141.525z"
     id="path43" /></svg>