<?xml version="1.0" encoding="UTF-8" standalone="no"?>
<svg
   xmlns:dc="http://purl.org/dc/elements/1.1/"
   xmlns:cc="http://creativecommons.org/ns#"
   xmlns:rdf="http://www.w3.org/1999/02/22-rdf-syntax-ns#"
   xmlns:svg="http://www.w3.org/2000/svg"
   xmlns="http://www.w3.org/2000/svg"
   xmlns:sodipodi="http://sodipodi.sourceforge.net/DTD/sodipodi-0.dtd"
   xmlns:inkscape="http://www.inkscape.org/namespaces/inkscape"
   viewBox="0 0 64 64"
   id="svg2"
   version="1.1"
   inkscape:version="0.91 r13725"
   sodipodi:docname="application-x-sqlite.svg">
  <metadata
     id="metadata19">
    <rdf:RDF>
      <cc:Work
         rdf:about="">
        <dc:format>image/svg+xml</dc:format>
        <dc:type
           rdf:resource="http://purl.org/dc/dcmitype/StillImage" />
        <dc:title></dc:title>
      </cc:Work>
    </rdf:RDF>
  </metadata>
  <sodipodi:namedview
     pagecolor="#ffffff"
     bordercolor="#666666"
     borderopacity="1"
     objecttolerance="10"
     gridtolerance="10"
     guidetolerance="10"
     inkscape:pageopacity="0"
     inkscape:pageshadow="2"
     inkscape:window-width="1280"
     inkscape:window-height="694"
     id="namedview17"
     showgrid="true"
     inkscape:zoom="3.6875"
     inkscape:cx="-12.20339"
     inkscape:cy="32"
     inkscape:window-x="0"
     inkscape:window-y="0"
     inkscape:window-maximized="1"
     inkscape:current-layer="svg2">
    <inkscape:grid
       type="xygrid"
       id="grid4147" />
  </sodipodi:namedview>
  <defs
     id="defs4">
    <linearGradient
       id="0"
       x1="-74.929"
       y1="59.2"
       x2="-75.26"
       y2="2.356"
       gradientUnits="userSpaceOnUse"
       gradientTransform="matrix(1.5520272,0,0,0.89555871,149.32977,-0.79493906)">
      <stop
         stop-color="#8cbdf8"
         id="stop7" />
      <stop
         offset="1"
         stop-color="#d5e8ff"
         id="stop9" />
    </linearGradient>
  </defs>
  <rect
     style="fill:#afc6e9"
     id="rect13"
     rx="3.6093991"
     y="0.65025425"
     x="0.50847554"
     height="52.665592"
     width="63.525421" />
  <path
     style="fill:#3f546c"
     inkscape:connector-curvature="0"
     id="path15"
     d="m 27.455785,45.756151 c 0.429181,0.403852 1.061409,0.403852 1.269288,0.403852 0.385372,0 0.862227,-0.05662 1.5446,-0.183768 0.536342,-0.0999 0.998057,-0.1994 1.405547,-0.286899 0.801023,-0.172713 1.379993,-0.297576 1.925031,-0.297576 0.307203,0 0.867597,0.118187 1.461169,0.24334 0.924076,0.194921 2.07407,0.437309 3.186482,0.437309 1.123043,0 2.305142,-0.0775 3.0499,-0.137351 0.247393,0.823146 0.835919,2.180725 2.17178,3.152087 1.81626,1.320883 3.162858,1.910124 3.219338,1.934621 0.344891,0.149264 0.76022,0.07111 1.006218,-0.190059 0.246535,-0.26088 0.261138,-0.637185 0.03554,-0.912552 -0.0075,-0.0095 -0.915162,-1.148553 -0.880373,-2.428642 0.01385,-0.50927 0.03469,-0.908357 0.05594,-1.212223 1.13131,0.296051 3.057523,0.957921 4.05107,2.203696 1.505407,1.886773 2.12271,4.791515 1.957244,5.744671 -0.172231,0.992807 -0.192847,0.992807 -0.723498,0.992807 -1.156328,0 -2.127756,0.04203 -3.222343,0.57075 -0.967456,0.467522 -1.501006,0.979082 -1.558452,1.035984 -0.216898,0.21408 -0.274881,0.520328 -0.148286,0.785401 0.126602,0.265263 0.414792,0.441311 0.738959,0.451605 0.312787,0.01045 1.259195,0.08035 1.867371,0.276321 0.323202,0.104085 0.601198,0.225897 0.870281,0.343803 0.430576,0.188534 0.837101,0.366583 1.311486,0.416338 0.1543,0.0162 0.312679,0.02411 0.462575,0.02163 0.174916,0.36058 0.472453,0.790358 0.972824,1.131396 0.383116,0.261165 0.772998,0.422153 1.116922,0.564173 0.422309,0.174523 0.755925,0.31235 1.012231,0.594293 0.67142,0.739077 0.896694,1.5403 0.898841,1.548402 0.08773,0.320069 0.403411,0.551973 0.774072,0.566936 0.01273,5.72e-4 0.02577,7.63e-4 0.03855,7.63e-4 0.355414,0 0.67432,-0.198924 0.790285,-0.49993 0.05219,-0.135157 0.492533,-1.373878 -0.09342,-3.187067 -0.209496,-0.648146 -0.534092,-1.209269 -0.847844,-1.752091 -0.510572,-0.882813 -0.951564,-1.645243 -0.766555,-2.57924 0.869635,-4.391189 0.809613,-7.960757 -0.178352,-10.611484 -1.536117,-4.121446 -5.254859,-6.417598 -5.984798,-6.836035 -0.362072,-0.207692 -0.687956,-0.390412 -0.962624,-0.542345 0.254695,-0.180146 0.578541,-0.369347 0.963483,-0.514608 0.876077,-0.330651 1.244376,-0.421009 1.346383,-0.442551 0.0066,1.9e-4 0.01286,1.9e-4 0.01923,1.9e-4 0.363682,1e-5 0.64318,-0.213029 0.74959,-0.527856 0.110495,-0.326838 -0.09482,-0.67779 -0.425744,-0.851264 -0.06292,-0.03308 -1.568009,-0.809801 -3.551989,-0.809801 -0.409317,0 -0.815949,0.03336 -1.208621,0.09903 -1.223331,0.204929 -2.087813,0.511178 -2.92384,0.807133 -0.81627,0.289092 -1.587443,0.562171 -2.738618,0.777393 -0.559213,0.104559 -1.073757,0.185294 -1.572195,0.263358 -1.713393,0.268504 -3.193031,0.500502 -5.405292,1.503317 -2.88744,1.309064 -4.510853,2.741276 -4.571843,4.032803 -0.01273,0.272221 -0.0062,0.515371 0.02018,0.729164 -0.270157,0.1199 -0.598512,0.271459 -0.930195,0.439023 -1.350249,0.681697 -1.916549,1.192303 -1.954238,1.7621 -0.0262,0.396512 0.09353,0.722682 0.35595,0.969741" />
</svg>
