<?xml version="1.0" encoding="UTF-8" standalone="no"?>
<svg
   xmlns:dc="http://purl.org/dc/elements/1.1/"
   xmlns:cc="http://creativecommons.org/ns#"
   xmlns:rdf="http://www.w3.org/1999/02/22-rdf-syntax-ns#"
   xmlns:svg="http://www.w3.org/2000/svg"
   xmlns="http://www.w3.org/2000/svg"
   xmlns:sodipodi="http://sodipodi.sourceforge.net/DTD/sodipodi-0.dtd"
   xmlns:inkscape="http://www.inkscape.org/namespaces/inkscape"
   viewBox="0 0 64 64"
   id="svg2"
   version="1.1"
   inkscape:version="0.91 r13725"
   sodipodi:docname="application-x-designer.svg">
  <metadata
     id="metadata19">
    <rdf:RDF>
      <cc:Work
         rdf:about="">
        <dc:format>image/svg+xml</dc:format>
        <dc:type
           rdf:resource="http://purl.org/dc/dcmitype/StillImage" />
        <dc:title></dc:title>
      </cc:Work>
    </rdf:RDF>
  </metadata>
  <sodipodi:namedview
     pagecolor="#ffffff"
     bordercolor="#666666"
     borderopacity="1"
     objecttolerance="10"
     gridtolerance="10"
     guidetolerance="10"
     inkscape:pageopacity="0"
     inkscape:pageshadow="2"
     inkscape:window-width="1280"
     inkscape:window-height="694"
     id="namedview17"
     showgrid="true"
     inkscape:zoom="3.6875"
     inkscape:cx="-16.909272"
     inkscape:cy="32"
     inkscape:window-x="0"
     inkscape:window-y="0"
     inkscape:window-maximized="1"
     inkscape:current-layer="svg2">
    <inkscape:grid
       type="xygrid"
       id="grid4137" />
  </sodipodi:namedview>
  <defs
     id="defs4">
    <linearGradient
       id="0"
       x1="-74.929"
       y1="52.2"
       x2="-75.26"
       y2="2.356"
       gradientUnits="userSpaceOnUse"
       gradientTransform="matrix(1.07499,0,0,1.02929,113.079,0.074)">
      <stop
         stop-color="#259ee1"
         id="stop7" />
      <stop
         offset="1"
         stop-color="#19b4fd"
         id="stop9" />
    </linearGradient>
  </defs>
  <rect
     style="fill:#00aad4"
     id="rect13"
     rx="3.6093991"
     y="0.37906781"
     x="0.50847554"
     height="53.207962"
     width="63.525421" />
  <path
     style="fill:#004455;fill-rule:evenodd"
     inkscape:connector-curvature="0"
     id="path15"
     d="m 42.64475,48.57723 c 1.37173,0 0.855685,1.510422 0,1.862281 -1.437551,0.590928 -2.90933,-0.577442 -3.209479,-1.862281 -0.454171,-1.937066 1.215074,-3.702494 3.209479,-3.973438 2.605232,-0.356764 4.901102,1.602371 5.178871,3.973438 0.339641,2.89334 -2.155011,5.40417 -5.178871,5.653047 -3.545171,0.291786 -6.595359,-2.395588 -6.850749,-5.653047 -0.290932,-3.718432 2.938292,-6.89988 6.850749,-7.130366 4.382425,-0.257458 8.117162,3.08582 8.354121,7.130366 0.261972,4.467513 -3.638637,8.264409 -8.354121,8.480183 -5.151226,0.23539 -9.521803,-3.714754 -9.745598,-8.480183 -0.242225,-5.16265 4.282376,-9.535761 9.745598,-9.739276 5.871317,-0.219452 10.838241,4.293422 11.051505,9.739276 C 53.923998,54.395786 48.81095,59.312011 42.64475,59.506944 36.0902,59.714136 30.557207,54.664278 30.35316,48.57723 30.137263,42.134645 35.809799,36.701051 42.64475,36.513474 49.850937,36.31609 55.927619,41.878413 56.123768,48.57723 56.330448,55.616873 50.120806,61.54822 42.64475,61.72844 34.811938,61.918469 28.215262,55.863297 28.019113,48.57723 27.820331,40.961371 34.546018,34.551888 42.64475,34.376571 51.083124,34.193898 58.182678,40.722303 58.36698,48.57723 58.55918,56.749689 51.334563,63.622597 42.64475,63.79301 35.579422,63.931547 29.089378,59.634447 26.78166,53.401506" />
</svg>
