<?xml version="1.0" encoding="UTF-8" standalone="no"?>
<svg
   xmlns:dc="http://purl.org/dc/elements/1.1/"
   xmlns:cc="http://creativecommons.org/ns#"
   xmlns:rdf="http://www.w3.org/1999/02/22-rdf-syntax-ns#"
   xmlns:svg="http://www.w3.org/2000/svg"
   xmlns="http://www.w3.org/2000/svg"
   xmlns:sodipodi="http://sodipodi.sourceforge.net/DTD/sodipodi-0.dtd"
   xmlns:inkscape="http://www.inkscape.org/namespaces/inkscape"
   viewBox="0 0 64 64"
   id="svg2"
   version="1.1"
   inkscape:version="0.91 r13725"
   sodipodi:docname="image-x-psd.svg">
  <metadata
     id="metadata19">
    <rdf:RDF>
      <cc:Work
         rdf:about="">
        <dc:format>image/svg+xml</dc:format>
        <dc:type
           rdf:resource="http://purl.org/dc/dcmitype/StillImage" />
        <dc:title></dc:title>
      </cc:Work>
    </rdf:RDF>
  </metadata>
  <sodipodi:namedview
     pagecolor="#ffffff"
     bordercolor="#666666"
     borderopacity="1"
     objecttolerance="10"
     gridtolerance="10"
     guidetolerance="10"
     inkscape:pageopacity="0"
     inkscape:pageshadow="2"
     inkscape:window-width="1280"
     inkscape:window-height="694"
     id="namedview17"
     showgrid="true"
     inkscape:zoom="3.6875"
     inkscape:cx="-12.20339"
     inkscape:cy="32"
     inkscape:window-x="0"
     inkscape:window-y="0"
     inkscape:window-maximized="1"
     inkscape:current-layer="svg2">
    <inkscape:grid
       type="xygrid"
       id="grid4147" />
  </sodipodi:namedview>
  <defs
     id="defs4">
    <linearGradient
       id="0"
       x1="-74.929"
       y1="52.2"
       x2="-75.26"
       y2="2.356"
       gradientUnits="userSpaceOnUse"
       gradientTransform="matrix(1.5520272,0,0,0.90887576,149.32977,-0.9554987)">
      <stop
         stop-color="#0074e3"
         id="stop7" />
      <stop
         offset="1"
         stop-color="#03b8ff"
         id="stop9" />
    </linearGradient>
  </defs>
  <rect
     style="fill:url(#0)"
     id="rect13"
     rx="3.6093991"
     y="0.51206785"
     x="0.50847554"
     height="53.219151"
     width="63.525421" />
  <path
     style="fill:#d5e5ff;fill-opacity:0.85"
     inkscape:connector-curvature="0"
     id="path15"
     d="m 37.290763,34.475576 c -1.527,0.01737 -3.45,0.173698 -5.507,0.681764 l 0,28.266389 4.638,0 0,-10.219209 c 0,0 9.138,1.227463 9.311,-8.443151 0,0 1.205,-10.391459 -8.442,-10.278555 m 0.471,5.034335 c 2.814,0.01592 3.55,1.461955 3.623,4.142688 0,5.626355 -4.964,4.248354 -4.964,4.248354 l 0,-8.285376 c 0.491,-0.055 0.939,-0.107113 1.341,-0.104218 m 14.467,2.465058 c -1.126,0.07382 -2.237,0.453061 -3.225,1.259308 -1.83,1.561831 -2.059,5.374493 -1.051,7.867054 1.26,2.692312 3.684,3.07879 5.398,4.930117 0.87,0.836643 0.422,2.958649 -0.58,3.094712 -1.846,0.437139 -3.703,-0.52833 -5.362,-1.62552 l 0,3.828584 c -0.23,1.134825 0.732,1.162327 1.268,1.467745 1.993,0.70058 4.152,0.804799 6.123,-0.104219 1.741,-0.741109 2.992,-3.252487 2.898,-5.873873 -1e-4,-0.702028 -0.093,-1.379449 -0.254,-2.04529 -0.686,-2.751659 -2.815,-3.649097 -4.456,-4.82445 -1.043,-0.386478 -2.579,-2.275439 -1.196,-3.566591 1.554,-0.70637 3.161,0.345948 4.565,1.259307 l 1.014,-3.513034 c 0.339,-1.104427 -1.306,-1.088504 -1.812,-1.57341 -1.066,-0.434244 -2.207,-0.651366 -3.333,-0.577545" />
</svg>
