<?xml version="1.0" encoding="UTF-8" standalone="no"?>
<svg
   xmlns:dc="http://purl.org/dc/elements/1.1/"
   xmlns:cc="http://creativecommons.org/ns#"
   xmlns:rdf="http://www.w3.org/1999/02/22-rdf-syntax-ns#"
   xmlns:svg="http://www.w3.org/2000/svg"
   xmlns="http://www.w3.org/2000/svg"
   xmlns:xlink="http://www.w3.org/1999/xlink"
   xmlns:sodipodi="http://sodipodi.sourceforge.net/DTD/sodipodi-0.dtd"
   xmlns:inkscape="http://www.inkscape.org/namespaces/inkscape"
   viewBox="0 0 64 64"
   id="svg2"
   version="1.1"
   inkscape:version="0.91 r13725"
   sodipodi:docname="text-x-c++hdr.svg">
  <metadata
     id="metadata24">
    <rdf:RDF>
      <cc:Work
         rdf:about="">
        <dc:format>image/svg+xml</dc:format>
        <dc:type
           rdf:resource="http://purl.org/dc/dcmitype/StillImage" />
        <dc:title></dc:title>
      </cc:Work>
    </rdf:RDF>
  </metadata>
  <sodipodi:namedview
     pagecolor="#ffffff"
     bordercolor="#666666"
     borderopacity="1"
     objecttolerance="10"
     gridtolerance="10"
     guidetolerance="10"
     inkscape:pageopacity="0"
     inkscape:pageshadow="2"
     inkscape:window-width="1280"
     inkscape:window-height="694"
     id="namedview22"
     showgrid="true"
     inkscape:zoom="3.6875"
     inkscape:cx="-12.20339"
     inkscape:cy="32"
     inkscape:window-x="0"
     inkscape:window-y="0"
     inkscape:window-maximized="1"
     inkscape:current-layer="svg2">
    <inkscape:grid
       type="xygrid"
       id="grid4152" />
  </sodipodi:namedview>
  <defs
     id="defs4">
    <linearGradient
       id="0"
       x1="-74.929"
       y1="52.2"
       x2="-75.26"
       y2="2.356"
       gradientUnits="userSpaceOnUse"
       gradientTransform="matrix(1.5454017,0,0,0.90017013,148.69446,-0.80238067)">
      <stop
         stop-color="#dc1666"
         id="stop7" />
      <stop
         offset="1"
         stop-color="#ff5390"
         id="stop9" />
    </linearGradient>
  </defs>
  <rect
     style="fill:url(#0)"
     id="rect13"
     rx="3.5939908"
     y="0.65025425"
     x="0.50847554"
     height="52.936779"
     width="63.254234" />
  <g
     id="g15"
     transform="matrix(1.4115528,0,0,1.3128008,-629.3103,-660.0308)"
     style="fill:#ffaacc">
    <path
       style="fill:#ffaacc"
       inkscape:connector-curvature="0"
       id="path17"
       transform="matrix(0.91884,0,0,0.91884,81.11,44)"
       d="m 420.65,528.23 0,7.557 -0.134,2.274 0.134,0 q 0.669,-1.17 2.107,-1.973 1.438,-0.836 3.076,-0.836 3.043,0 4.648,1.873 1.605,1.873 1.605,5.02 l 0,10.03 -3.076,0 0,-9.564 q 0,-4.548 -4.046,-4.548 -1.906,0 -3.11,1.538 -1.204,1.505 -1.204,3.511 l 0,9.06 -3.076,0 0,-23.943 3.076,0" />
    <path
       style="fill:#ffaacc;stroke:#fce0ea;stroke-width:0.60600001"
       inkscape:connector-curvature="0"
       id="1"
       transform="matrix(0.66042,0,0,0.66042,159.83,180.71)"
       d="m 491.34,527.93 0,3.754 3.754,0 0,1.576 -3.754,0 0,3.754 -1.576,0 0,-3.754 -3.754,0 0,-1.576 3.754,0 0,-3.754 1.576,0 z" />
    <use
       height="100%"
       width="100%"
       y="0"
       x="0"
       id="use20"
       xlink:href="#1"
       transform="translate(0,8.25)"
       style="fill:#ffaacc" />
  </g>
</svg>
