<?xml version="1.0" encoding="UTF-8" standalone="no"?>
<svg
   xmlns:dc="http://purl.org/dc/elements/1.1/"
   xmlns:cc="http://creativecommons.org/ns#"
   xmlns:rdf="http://www.w3.org/1999/02/22-rdf-syntax-ns#"
   xmlns:svg="http://www.w3.org/2000/svg"
   xmlns="http://www.w3.org/2000/svg"
   xmlns:sodipodi="http://sodipodi.sourceforge.net/DTD/sodipodi-0.dtd"
   xmlns:inkscape="http://www.inkscape.org/namespaces/inkscape"
   viewBox="0 0 64 64"
   id="svg2"
   version="1.1"
   inkscape:version="0.91 r13725"
   sodipodi:docname="video-x-msvideo.svg">
  <metadata
     id="metadata19">
    <rdf:RDF>
      <cc:Work
         rdf:about="">
        <dc:format>image/svg+xml</dc:format>
        <dc:type
           rdf:resource="http://purl.org/dc/dcmitype/StillImage" />
        <dc:title></dc:title>
      </cc:Work>
    </rdf:RDF>
  </metadata>
  <sodipodi:namedview
     pagecolor="#ffffff"
     bordercolor="#666666"
     borderopacity="1"
     objecttolerance="10"
     gridtolerance="10"
     guidetolerance="10"
     inkscape:pageopacity="0"
     inkscape:pageshadow="2"
     inkscape:window-width="1280"
     inkscape:window-height="694"
     id="namedview17"
     showgrid="true"
     inkscape:zoom="3.6875"
     inkscape:cx="-12.20339"
     inkscape:cy="32"
     inkscape:window-x="0"
     inkscape:window-y="0"
     inkscape:window-maximized="1"
     inkscape:current-layer="svg2">
    <inkscape:grid
       type="xygrid"
       id="grid4147" />
  </sodipodi:namedview>
  <defs
     id="defs4">
    <linearGradient
       id="0"
       x1="-74.929"
       y1="52.2"
       x2="-75.26"
       y2="2.356"
       gradientUnits="userSpaceOnUse"
       gradientTransform="matrix(1.5454017,0,0,0.89555871,148.69446,-0.79593906)">
      <stop
         stop-color="#1b92f4"
         id="stop7" />
      <stop
         offset="1"
         stop-color="#20b9fa"
         id="stop9" />
    </linearGradient>
  </defs>
  <rect
     style="fill:url(#0);stroke-width:1"
     id="rect13"
     rx="3.5939908"
     y="0.6492542"
     x="0.50847554"
     height="52.665592"
     width="63.254234" />
  <path
     style="fill:#d5e5ff;fill-opacity:0.85399996;stroke:none;stroke-opacity:0.8"
     inkscape:connector-curvature="0"
     id="path15"
     d="m 28.943647,63.516736 27.265124,0 c 1.16106,0 2.110884,-0.835215 2.110884,-1.856304 l 0,-25.438365 c 0,-1.018724 -0.950558,-1.856303 -2.110884,-1.856303 l -27.265124,0 c -1.163666,0 -2.11227,0.837579 -2.11227,1.856303 l 0,25.438365 c 0,1.021089 0.948604,1.856304 2.11227,1.856304 M 53.169722,36.636665 c 0,-0.308118 0.286641,-0.556834 0.63346,-0.556834 l 1.979128,0 c 0.349507,0 0.632158,0.248716 0.632158,0.556834 l 0,1.793534 c 0,0.308118 -0.282651,0.556833 -0.632158,0.556833 l -1.979128,0 c -0.346819,0 -0.63346,-0.248142 -0.63346,-0.556833 l 0,-1.793534 m 0,4.562295 c 0,-0.308118 0.286641,-0.557406 0.63346,-0.557406 l 1.979128,0 c 0.349507,0 0.632158,0.249288 0.632158,0.557406 l 0,1.793534 c 0,0.307545 -0.282651,0.558554 -0.632158,0.558554 l -1.979128,0 c -0.346819,0 -0.63346,-0.251009 -0.63346,-0.558554 l 0,-1.793534 m 0,4.56588 c 0,-0.307545 0.286641,-0.558554 0.63346,-0.558554 l 1.979128,0 c 0.349507,0 0.632158,0.251009 0.632158,0.558554 l 0,1.79425 c 0,0.30518 -0.282651,0.55626 -0.632158,0.55626 l -1.979128,0 c -0.346819,0 -0.63346,-0.251009 -0.63346,-0.55626 l 0,-1.79425 m 0,4.562295 c 0,-0.308118 0.286641,-0.558553 0.63346,-0.558553 l 1.979128,0 c 0.349507,0 0.632158,0.250435 0.632158,0.558553 l 0,1.794251 c 0,0.307544 -0.282651,0.556833 -0.632158,0.556833 l -1.979128,0 c -0.346819,0 -0.63346,-0.249289 -0.63346,-0.556833 l 0,-1.794251 m 0,4.562297 c 0,-0.308118 0.286641,-0.556833 0.63346,-0.556833 l 1.979128,0 c 0.349507,0 0.632158,0.248142 0.632158,0.556833 l 0,1.794966 c 0,0.306399 -0.282651,0.555688 -0.632158,0.555688 l -1.979128,0 c -0.346819,0 -0.63346,-0.249289 -0.63346,-0.555688 l 0,-1.794966 m 0,4.562296 c 0,-0.306398 0.286641,-0.556834 0.63346,-0.556834 l 1.979128,0 c 0.349507,0 0.632158,0.250436 0.632158,0.556834 l 0,1.797116 c 0,0.304034 -0.282651,0.555688 -0.632158,0.555688 l -1.979128,0 c -0.346819,0 -0.63346,-0.251009 -0.63346,-0.555688 l 0,-1.797116 M 34.152863,37.982352 c 0,-0.308118 0.285257,-0.556833 0.634764,-0.556833 l 15.577977,0 c 0.347553,0 0.632159,0.248715 0.632159,0.556833 l 0,8.880964 c 0,0.30518 -0.284606,0.558554 -0.632159,0.558554 l -15.577977,0 c -0.349507,0 -0.634764,-0.253374 -0.634764,-0.558554 -8e-6,0 -8e-6,-8.880964 -8e-6,-8.880964 m 0,13.69477 c 0,-0.305824 0.285257,-0.555113 0.634764,-0.555113 l 15.577977,0 c 0.347553,0 0.632159,0.249289 0.632159,0.555113 l 0,8.209553 c 0,0.3064 -0.284606,0.556835 -0.632159,0.556835 l -15.577977,0 c -0.349507,0 -0.634764,-0.250435 -0.634764,-0.556835 -8e-6,0 -8e-6,-8.209553 -8e-6,-8.209553 M 28.735979,36.635948 c 0,-0.308118 0.284605,-0.556833 0.633461,-0.556833 l 1.97986,0 c 0.347553,0 0.631506,0.248715 0.631506,0.556833 l 0,1.793534 c 0,0.308118 -0.283953,0.556833 -0.631506,0.556833 l -1.97986,0 c -0.348856,0 -0.633461,-0.248142 -0.633461,-0.556833 0,0 0,-1.793534 0,-1.793534 m 0,4.562296 c 0,-0.308118 0.284605,-0.557407 0.633461,-0.557407 l 1.97986,0 c 0.347553,0 0.631506,0.249289 0.631506,0.557407 l 0,1.793534 c 0,0.307544 -0.283953,0.558553 -0.631506,0.558553 l -1.97986,0 c -0.348856,0 -0.633461,-0.251009 -0.633461,-0.558553 0,0 0,-1.793534 0,-1.793534 m 0,4.565879 c 0,-0.307545 0.284605,-0.558554 0.633461,-0.558554 l 1.97986,0 c 0.347553,0 0.631506,0.251009 0.631506,0.558554 l 0,1.79425 c 0,0.30518 -0.283953,0.55626 -0.631506,0.55626 l -1.97986,0 c -0.348856,0 -0.633461,-0.251008 -0.633461,-0.55626 0,0 0,-1.79425 0,-1.79425 m 0,4.562297 c 0,-0.308118 0.284605,-0.558554 0.633461,-0.558554 l 1.97986,0 c 0.347553,0 0.631506,0.250436 0.631506,0.558554 l 0,1.794249 c 0,0.307545 -0.283953,0.556833 -0.631506,0.556833 l -1.97986,0 c -0.348856,0 -0.633461,-0.249288 -0.633461,-0.556833 0,0 0,-1.794249 0,-1.794249 m 0,4.562295 c 0,-0.308118 0.284605,-0.556833 0.633461,-0.556833 l 1.97986,0 c 0.347553,0 0.631506,0.248142 0.631506,0.556833 l 0,1.794966 c 0,0.306399 -0.283953,0.555688 -0.631506,0.555688 l -1.97986,0 c -0.348856,0 -0.633461,-0.249289 -0.633461,-0.555688 0,0 0,-1.794966 0,-1.794966 m 0,4.562296 c 0,-0.306398 0.284605,-0.556833 0.633461,-0.556833 l 1.97986,0 c 0.347553,0 0.631506,0.250435 0.631506,0.556833 l 0,1.797116 c 0,0.304034 -0.283953,0.555688 -0.631506,0.555688 l -1.97986,0 c -0.348856,0 -0.633461,-0.251009 -0.633461,-0.555688 0,-6e-6 0,-1.797116 0,-1.797116" />
</svg>
