<?xml version="1.0" encoding="UTF-8" standalone="no"?>
<svg
   xmlns:dc="http://purl.org/dc/elements/1.1/"
   xmlns:cc="http://creativecommons.org/ns#"
   xmlns:rdf="http://www.w3.org/1999/02/22-rdf-syntax-ns#"
   xmlns:svg="http://www.w3.org/2000/svg"
   xmlns="http://www.w3.org/2000/svg"
   xmlns:sodipodi="http://sodipodi.sourceforge.net/DTD/sodipodi-0.dtd"
   xmlns:inkscape="http://www.inkscape.org/namespaces/inkscape"
   viewBox="0 0 64 64"
   id="svg2"
   version="1.1"
   inkscape:version="0.91 r13725"
   sodipodi:docname="video-x-theora+ogg.svg">
  <metadata
     id="metadata19">
    <rdf:RDF>
      <cc:Work
         rdf:about="">
        <dc:format>image/svg+xml</dc:format>
        <dc:type
           rdf:resource="http://purl.org/dc/dcmitype/StillImage" />
        <dc:title></dc:title>
      </cc:Work>
    </rdf:RDF>
  </metadata>
  <sodipodi:namedview
     pagecolor="#ffffff"
     bordercolor="#666666"
     borderopacity="1"
     objecttolerance="10"
     gridtolerance="10"
     guidetolerance="10"
     inkscape:pageopacity="0"
     inkscape:pageshadow="2"
     inkscape:window-width="1280"
     inkscape:window-height="694"
     id="namedview17"
     showgrid="true"
     inkscape:zoom="3.6875"
     inkscape:cx="-12.20339"
     inkscape:cy="32"
     inkscape:window-x="0"
     inkscape:window-y="0"
     inkscape:window-maximized="1"
     inkscape:current-layer="svg2">
    <inkscape:grid
       type="xygrid"
       id="grid4147" />
  </sodipodi:namedview>
  <defs
     id="defs4">
    <linearGradient
       id="0"
       x1="-74.929"
       y1="52.2"
       x2="-75.26"
       y2="2.356"
       gradientUnits="userSpaceOnUse"
       gradientTransform="matrix(1.5520272,0,0,0.89555871,149.32977,-0.79493906)">
      <stop
         stop-color="#2fb67d"
         id="stop7" />
      <stop
         offset="1"
         stop-color="#45d88d"
         id="stop9" />
    </linearGradient>
  </defs>
  <rect
     style="fill:url(#0)"
     id="rect13"
     rx="3.6093991"
     y="0.65025425"
     x="0.50847554"
     height="52.665592"
     width="63.525425" />
  <path
     style="fill:#155137;stroke:none;stroke-opacity:0.8"
     inkscape:connector-curvature="0"
     id="path15"
     d="m 28.708843,63.783922 27.734755,0 c 1.181058,0 2.147243,-0.842985 2.147243,-1.873572 l 0,-25.675014 c 0,-1.028202 -0.96693,-1.873573 -2.147243,-1.873573 l -27.734755,0 c -1.183709,0 -2.148653,0.845371 -2.148653,1.873573 l 0,25.675014 c 0,1.030587 0.964944,1.873572 2.148653,1.873572 M 53.352202,36.65379 c 0,-0.310984 0.291579,-0.562013 0.644372,-0.562013 l 2.013217,0 c 0.355527,0 0.643047,0.251029 0.643047,0.562013 l 0,1.810219 c 0,0.310984 -0.28752,0.562013 -0.643047,0.562013 l -2.013217,0 c -0.352793,0 -0.644372,-0.25045 -0.644372,-0.562013 l 0,-1.810219 m 0,4.604738 c 0,-0.310984 0.291579,-0.562592 0.644372,-0.562592 l 2.013217,0 c 0.355527,0 0.643047,0.251608 0.643047,0.562592 l 0,1.810219 c 0,0.310405 -0.28752,0.563749 -0.643047,0.563749 l -2.013217,0 c -0.352793,0 -0.644372,-0.253344 -0.644372,-0.563749 l 0,-1.810219 m 0,4.608355 c 0,-0.310406 0.291579,-0.56375 0.644372,-0.56375 l 2.013217,0 c 0.355527,0 0.643047,0.253344 0.643047,0.56375 l 0,1.810942 c 0,0.308018 -0.28752,0.561435 -0.643047,0.561435 l -2.013217,0 c -0.352793,0 -0.644372,-0.253344 -0.644372,-0.561435 l 0,-1.810942 m 0,4.604739 c 0,-0.310986 0.291579,-0.563751 0.644372,-0.563751 l 2.013217,0 c 0.355527,0 0.643047,0.252765 0.643047,0.563751 l 0,1.810941 c 0,0.310405 -0.28752,0.562013 -0.643047,0.562013 l -2.013217,0 c -0.352793,0 -0.644372,-0.251608 -0.644372,-0.562013 l 0,-1.810941 m 0,4.604738 c 0,-0.310985 0.291579,-0.562014 0.644372,-0.562014 l 2.013217,0 c 0.355527,0 0.643047,0.250451 0.643047,0.562014 l 0,1.811664 c 0,0.309249 -0.28752,0.560857 -0.643047,0.560857 l -2.013217,0 c -0.352793,0 -0.644372,-0.251608 -0.644372,-0.560857 l 0,-1.811664 m 0,4.604738 c 0,-0.309249 0.291579,-0.562014 0.644372,-0.562014 l 2.013217,0 c 0.355527,0 0.643047,0.252765 0.643047,0.562014 l 0,1.813834 c 0,0.306862 -0.28752,0.560857 -0.643047,0.560857 l -2.013217,0 c -0.352793,0 -0.644372,-0.253344 -0.644372,-0.560857 l 0,-1.813834 M 34.007786,38.011996 c 0,-0.310984 0.29017,-0.562013 0.645697,-0.562013 l 15.846302,0 c 0.35354,0 0.643047,0.251029 0.643047,0.562013 l 0,8.963583 c 0,0.308018 -0.289507,0.563749 -0.643047,0.563749 l -15.846302,0 c -0.355527,0 -0.645697,-0.255731 -0.645697,-0.563749 -8e-6,0 -8e-6,-8.963583 -8e-6,-8.963583 m 0,13.822171 c 0,-0.30867 0.29017,-0.560278 0.645697,-0.560278 l 15.846301,0 c 0.35354,0 0.643048,0.251608 0.643048,0.560278 l 0,8.285925 c 0,0.309249 -0.289508,0.562014 -0.643048,0.562014 l -15.846301,0 c -0.355527,0 -0.645697,-0.252765 -0.645697,-0.562014 -9e-6,0 -9e-6,-8.285925 -9e-6,-8.285925 m -5.510171,-15.1811 c 0,-0.310985 0.289508,-0.562014 0.644372,-0.562014 l 2.013963,0 c 0.353539,0 0.642383,0.251029 0.642383,0.562014 l 0,1.810219 c 0,0.310984 -0.288844,0.562013 -0.642383,0.562013 l -2.013963,0 c -0.354864,0 -0.644372,-0.25045 -0.644372,-0.562013 0,0 0,-1.810219 0,-1.810219 m 0,4.604738 c 0,-0.310985 0.289508,-0.562592 0.644372,-0.562592 l 2.013963,0 c 0.353539,0 0.642383,0.251607 0.642383,0.562592 l 0,1.810218 c 0,0.310406 -0.288844,0.56375 -0.642383,0.56375 l -2.013963,0 c -0.354864,0 -0.644372,-0.253344 -0.644372,-0.56375 0,0 0,-1.810218 0,-1.810218 m 0,4.608354 c 0,-0.310405 0.289508,-0.563749 0.644372,-0.563749 l 2.013963,0 c 0.353539,0 0.642383,0.253344 0.642383,0.563749 l 0,1.810942 c 0,0.308019 -0.288844,0.561435 -0.642383,0.561435 l -2.013963,0 c -0.354864,0 -0.644372,-0.253344 -0.644372,-0.561435 0,0 0,-1.810942 0,-1.810942 m 0,4.60474 c 0,-0.310985 0.289508,-0.56375 0.644372,-0.56375 l 2.013963,0 c 0.353539,0 0.642383,0.252765 0.642383,0.56375 l 0,1.81094 c 0,0.310406 -0.288844,0.562014 -0.642383,0.562014 l -2.013963,0 c -0.354864,0 -0.644372,-0.251608 -0.644372,-0.562014 0,0 0,-1.81094 0,-1.81094 m 0,4.604737 c 0,-0.310984 0.289508,-0.562013 0.644372,-0.562013 l 2.013963,0 c 0.353539,0 0.642383,0.25045 0.642383,0.562013 l 0,1.811665 c 0,0.309249 -0.288844,0.560857 -0.642383,0.560857 l -2.013963,0 c -0.354864,0 -0.644372,-0.251608 -0.644372,-0.560857 0,0 0,-1.811665 0,-1.811665 m 0,4.604738 c 0,-0.309248 0.289508,-0.562013 0.644372,-0.562013 l 2.013963,0 c 0.353539,0 0.642383,0.252765 0.642383,0.562013 l 0,1.813834 c 0,0.306863 -0.288844,0.560858 -0.642383,0.560858 l -2.013963,0 c -0.354864,0 -0.644372,-0.253344 -0.644372,-0.560858 0,-6e-6 0,-1.813834 0,-1.813834" />
</svg>
