<?xml version="1.0" encoding="UTF-8" standalone="no"?>
<svg
   xmlns:dc="http://purl.org/dc/elements/1.1/"
   xmlns:cc="http://creativecommons.org/ns#"
   xmlns:rdf="http://www.w3.org/1999/02/22-rdf-syntax-ns#"
   xmlns:svg="http://www.w3.org/2000/svg"
   xmlns="http://www.w3.org/2000/svg"
   xmlns:sodipodi="http://sodipodi.sourceforge.net/DTD/sodipodi-0.dtd"
   xmlns:inkscape="http://www.inkscape.org/namespaces/inkscape"
   viewBox="0 0 64 64"
   id="svg2"
   version="1.1"
   inkscape:version="0.91 r13725"
   sodipodi:docname="text-x-pascal.svg">
  <metadata
     id="metadata23">
    <rdf:RDF>
      <cc:Work
         rdf:about="">
        <dc:format>image/svg+xml</dc:format>
        <dc:type
           rdf:resource="http://purl.org/dc/dcmitype/StillImage" />
        <dc:title></dc:title>
      </cc:Work>
    </rdf:RDF>
  </metadata>
  <sodipodi:namedview
     pagecolor="#ffffff"
     bordercolor="#666666"
     borderopacity="1"
     objecttolerance="10"
     gridtolerance="10"
     guidetolerance="10"
     inkscape:pageopacity="0"
     inkscape:pageshadow="2"
     inkscape:window-width="1280"
     inkscape:window-height="694"
     id="namedview21"
     showgrid="true"
     inkscape:zoom="3.6875"
     inkscape:cx="-12.20339"
     inkscape:cy="32"
     inkscape:window-x="0"
     inkscape:window-y="0"
     inkscape:window-maximized="1"
     inkscape:current-layer="svg2">
    <inkscape:grid
       type="xygrid"
       id="grid4151" />
  </sodipodi:namedview>
  <defs
     id="defs4">
    <linearGradient
       id="0"
       x1="-74.929"
       y1="52.2"
       x2="-75.26"
       y2="2.356"
       gradientUnits="userSpaceOnUse"
       gradientTransform="matrix(1.5454017,0,0,0.89555871,148.69446,-0.79493906)">
      <stop
         stop-color="#dc1666"
         id="stop7" />
      <stop
         offset="1"
         stop-color="#ff5390"
         id="stop9" />
    </linearGradient>
  </defs>
  <rect
     style="fill:url(#0)"
     id="rect13"
     rx="3.5939908"
     y="0.65025425"
     x="0.50847554"
     height="52.665592"
     width="63.254234" />
  <g
     style="fill:#ffd5f6;fill-opacity:0.85"
     id="g15"
     transform="matrix(1.2612178,0,0,1.2074235,-492.75617,-603.82583)">
    <path
       inkscape:connector-curvature="0"
       id="path17"
       d="m 416.16,545.25 q -0.669,0.669 -1.605,0.669 -0.936,0 -1.605,-0.669 -0.669,-0.669 -0.669,-1.605 0,-0.936 0.669,-1.605 0.669,-0.669 1.605,-0.669 0.936,0 1.605,0.669 0.669,0.669 0.669,1.605 0,0.936 -0.669,1.605"
       style="fill:#ffd5f6" />
    <path
       inkscape:connector-curvature="0"
       id="path19"
       d="m 428.85,546.25 q -1.873,0 -3.377,-0.803 -1.471,-0.803 -2.207,-2.01 l -0.134,0 0.134,2.274 0,7.223 -3.076,0 0,-23.609 2.943,0 0,2.274 0.134,0 q 0.736,-1.204 2.207,-2.01 1.505,-0.803 3.377,-0.803 3.177,0 5.484,2.508 2.307,2.508 2.307,6.22 0,3.712 -2.307,6.22 -2.307,2.508 -5.484,2.508 m -0.502,-2.809 q 2.14,0 3.678,-1.605 1.538,-1.639 1.538,-4.314 0,-2.675 -1.538,-4.28 -1.538,-1.639 -3.678,-1.639 -2.174,0 -3.712,1.605 -1.505,1.605 -1.505,4.314 0,2.709 1.505,4.314 1.538,1.605 3.712,1.605"
       style="fill:#ffd5f6" />
  </g>
</svg>
