<?xml version="1.0" encoding="UTF-8" standalone="no"?>
<svg
   xmlns:dc="http://purl.org/dc/elements/1.1/"
   xmlns:cc="http://creativecommons.org/ns#"
   xmlns:rdf="http://www.w3.org/1999/02/22-rdf-syntax-ns#"
   xmlns:svg="http://www.w3.org/2000/svg"
   xmlns="http://www.w3.org/2000/svg"
   xmlns:xlink="http://www.w3.org/1999/xlink"
   xmlns:sodipodi="http://sodipodi.sourceforge.net/DTD/sodipodi-0.dtd"
   xmlns:inkscape="http://www.inkscape.org/namespaces/inkscape"
   viewBox="0 0 64 64"
   id="svg13202"
   version="1.1"
   inkscape:version="0.91 r13725"
   sodipodi:docname="folder-image-people.svg">
  <metadata
     id="metadata13228">
    <rdf:RDF>
      <cc:Work
         rdf:about="">
        <dc:format>image/svg+xml</dc:format>
        <dc:type
           rdf:resource="http://purl.org/dc/dcmitype/StillImage" />
        <dc:title />
      </cc:Work>
    </rdf:RDF>
  </metadata>
  <sodipodi:namedview
     pagecolor="#ffffff"
     bordercolor="#666666"
     borderopacity="1"
     objecttolerance="10"
     gridtolerance="10"
     guidetolerance="10"
     inkscape:pageopacity="0"
     inkscape:pageshadow="2"
     inkscape:window-width="1280"
     inkscape:window-height="688"
     id="namedview13226"
     showgrid="false"
     inkscape:zoom="3.6875"
     inkscape:cx="-52.1951"
     inkscape:cy="32"
     inkscape:window-x="0"
     inkscape:window-y="0"
     inkscape:window-maximized="1"
     inkscape:current-layer="svg13202" />
  <defs
     id="defs13204">
    <linearGradient
       xlink:href="#1"
       id="3"
       x1="-19.915"
       y1="1048.7"
       x2="-19.996"
       y2="1025.51"
       gradientUnits="userSpaceOnUse"
       gradientTransform="translate(51.949,-1001.46)" />
    <linearGradient
       gradientUnits="userSpaceOnUse"
       y2="354.29"
       x2="-704.05"
       y1="647.77"
       x1="-701.19"
       id="2"
       gradientTransform="matrix(0.01590505,0,0,0.01845141,129.51168,-45.007092)">
      <stop
         stop-color="#93cfff"
         id="stop13208" />
      <stop
         offset="1"
         stop-color="#cde8fe"
         id="stop13210" />
    </linearGradient>
    <linearGradient
       xlink:href="#1"
       id="0"
       x1="59.12"
       y1="-13.295"
       x2="59.15"
       y2="-37.783"
       gradientUnits="userSpaceOnUse"
       gradientTransform="matrix(0.52660675,0,0,0.52570737,-19.441377,28.676662)" />
    <linearGradient
       id="1">
      <stop
         stop-color="#289bf7"
         id="stop13214" />
      <stop
         offset="1"
         stop-color="#71b9f1"
         id="stop13216" />
    </linearGradient>
  </defs>
  <path
     inkscape:connector-curvature="0"
     style="fill:#ffffff"
     id="path24"
     d="m 21.513734,-44.271137 c -0.673209,0 -1.220026,0.547321 -1.220026,1.220026 l 0,21.559849 c 0,0.673209 0.547322,1.220026 1.220026,1.220026 l 23.144168,0 c 0.673209,0 1.217881,-0.547321 1.217881,-1.220026 l 0,-21.559849 c 0,-0.673209 -0.545177,-1.220026 -1.217881,-1.220026 l -23.144168,0 m 11.535503,3.670674 c 2.137064,0 3.976438,1.448466 3.976438,4.213707 0,1.798378 -0.842237,3.626146 -1.944448,4.76128 l 0.0063,0 c -0.422822,1.285367 0.253541,1.591004 0.360129,1.625945 2.561778,0.880079 5.803702,3.074284 5.731802,6.453322 l -16.192592,0 c -0.06484,-3.538227 4.033201,-5.966422 5.539943,-6.453322 0.161585,-0.05853 0.936085,-0.479585 0.503803,-1.613457 -1.108897,-1.132485 -1.946592,-2.967948 -1.946592,-4.773768 0,-2.765998 1.827516,-4.213707 3.965967,-4.213707" />
  <path
     inkscape:connector-curvature="0"
     style="fill:#d4aa00"
     d="m 63.711866,18.416896 -63.42373047,0 0,-15.8193876 c 0,-1.2801423 1.00165757,-2.31785069 2.23732677,-2.31785069 l 58.9490777,0 c 1.235669,0 2.237326,1.03770839 2.237326,2.31785069 l 0,15.8193876 z"
     id="path3" />
  <rect
     x="3.5686734"
     y="18.416897"
     style="fill:#d4aa00"
     width="56.862656"
     height="45.303448"
     id="rect5" />
  <path
     inkscape:connector-curvature="0"
     style="fill:#aa8800"
     d="m 41.841614,13.885419 -19.683226,0 c -2.41557,0 -4.374051,-2.028969 -4.374051,-4.5314777 l 0,0 c 0,-2.5025085 1.958481,-4.5314775 4.374051,-4.5314775 l 19.683226,0 c 2.41557,0 4.374051,2.028969 4.374051,4.5314775 l 0,0 c 0,2.5025087 -1.958481,4.5314777 -4.374051,4.5314777 z"
     id="path7-3" />
  <rect
     x="3.5686734"
     y="58.055992"
     style="fill:#aa8800"
     width="56.862656"
     height="5.6643467"
     id="rect9" />
  <rect
     x="16.690825"
     y="27.468521"
     style="fill:#fff6d5"
     width="30.618353"
     height="15.860171"
     id="rect11" />
  <g
     id="g13"
     transform="matrix(1.0935126,0,0,1.1328694,0.28813553,-0.85321164)"
     style="fill:#aa8800">
    <path
       inkscape:connector-curvature="0"
       style="fill:#aa8800"
       d="m 19,31 6,0 c 0.553,0 1,-0.447 1,-1 0,-0.553 -0.447,-1 -1,-1 l -6,0 c -0.553,0 -1,0.447 -1,1 0,0.553 0.447,1 1,1 z"
       id="path15" />
    <path
       inkscape:connector-curvature="0"
       style="fill:#aa8800"
       d="m 29,31 c 0.26,0 0.52,-0.11 0.71,-0.29 C 29.89,30.52 30,30.26 30,30 c 0,-0.261 -0.11,-0.521 -0.29,-0.71 -0.38,-0.37 -1.05,-0.37 -1.42,0 C 28.109,29.479 28,29.739 28,30 c 0,0.27 0.109,0.52 0.29,0.71 C 28.479,30.89 28.729,31 29,31 Z"
       id="path17" />
    <path
       inkscape:connector-curvature="0"
       style="fill:#aa8800"
       d="m 39,33 -16,0 c -0.553,0 -1,0.447 -1,1 0,0.553 0.447,1 1,1 l 16,0 c 0.553,0 1,-0.447 1,-1 0,-0.553 -0.447,-1 -1,-1 z"
       id="path19" />
    <path
       inkscape:connector-curvature="0"
       style="fill:#aa8800"
       d="M 18.29,33.29 C 18.109,33.479 18,33.739 18,34 c 0,0.26 0.109,0.52 0.29,0.71 0.189,0.18 0.439,0.29 0.71,0.29 0.27,0 0.52,-0.11 0.71,-0.29 C 19.89,34.52 20,34.26 20,34 c 0,-0.261 -0.11,-0.521 -0.29,-0.71 -0.37,-0.37 -1.04,-0.37 -1.42,0 z"
       id="path21" />
  </g>
  <rect
     x="3.5686734"
     y="18.405567"
     style="fill:#aa8800"
     width="56.862656"
     height="5.6643467"
     id="rect23" />
  <g
     id="g3"
     transform="matrix(0.0386851,0,0,0.03325872,44.799321,0.27118251)"
     style="fill:#ffffff">
    <g
       id="g5"
       style="fill:#ffffff">
      <path
         d="m 145.1,229.6 c 17.2,56.4 61.4,115 121,115 59.6,0 103.9,-58.6 121,-115 14.7,-5.1 27,-19.8 31.801,-38.8 6.6,-26.1 -3.101,-50.3 -21.9,-57.6 1.7,-6.9 2.6,-14 2.6,-21.3 C 399.599,50 337.9,0 261.799,0 c -76.1,0 -138,50.1 -138,111.9 0,8.8 1.4,17.4 3.7,25.6 -13.6,10.3 -19.8,31.1 -14.2,53.4 4.801,18.9 17.1,33.6 31.801,38.7 z m -9.201,-71.9 c 2,-3.3 4.6,-5.5 7.9,-6.4 0.6,-0.1 1.4,-0.2 2.1,-0.2 0.6,0 1.1,0 1.7,0.1 l 9.5,0.9 1.4,-9.4 c 2.9,-19.6 9,-37.2 17.6,-52.2 16.1,18.1 48.1,30.4 85,30.4 41.7,0 77.2,-15.7 90.3,-37.7 11,16.5 18.8,36.6 22.199,59.5 l 1.4,9.4 9.5,-0.9 c 1.4,-0.1 2.7,-0.1 3.8,0.1 0.7,0.1 1.101,0.6 1.8,0.8 8.601,3.8 13,18.9 9.301,33.9 -3.801,15.3 -13.801,24.3 -21.7,25.3 l -6.601,0.9 -1.8,6.4 c -14.399,52.6 -54.399,106 -103.4,106 -49,0 -89,-53.3 -103.2,-106 l -1.8,-6.4 -6.6,-0.9 c -7.9,-1 -17.9,-10.2 -21.7,-25.3 -2.498,-10.8 -0.998,-21.7 3.301,-28.3 z"
         id="path7"
         inkscape:connector-curvature="0"
         style="fill:#ffffff" />
      <path
         d="m 383.599,299.4 c -12.8,21.8 -27.6,40.3 -47.3,50.199 -40.5,20.7 -70.6,37.5 -70.6,37.5 l -0.1,-0.1 0,-0.5 -0.5,0.2 -0.5,-0.2 0,0.5 -0.1,0.1 c 0,0 -30.1,-16.699 -70.6,-37.5 -19.6,-10.1 -34.4,-28.5 -47.3,-50.199 -59.899,24.3 -101.8,80.4 -101.8,129.2 0,51.5 0,101.4 0,101.4 l 219.7,0 0.8,0 219.9,0 c 0,0 0,-49.9 0,-101.4 C 485.4,379.8 443.5,323.8 383.599,299.4 Z"
         id="path9"
         inkscape:connector-curvature="0"
         style="fill:#ffffff" />
    </g>
  </g>
</svg>
