<?xml version="1.0" encoding="UTF-8" standalone="no"?>
<svg
   xmlns:dc="http://purl.org/dc/elements/1.1/"
   xmlns:cc="http://creativecommons.org/ns#"
   xmlns:rdf="http://www.w3.org/1999/02/22-rdf-syntax-ns#"
   xmlns:svg="http://www.w3.org/2000/svg"
   xmlns="http://www.w3.org/2000/svg"
   xmlns:sodipodi="http://sodipodi.sourceforge.net/DTD/sodipodi-0.dtd"
   xmlns:inkscape="http://www.inkscape.org/namespaces/inkscape"
   viewBox="0 0 48 48"
   id="svg2"
   version="1.1"
   inkscape:version="0.91 r13725"
   sodipodi:docname="network-card.svg">
  <metadata
     id="metadata32">
    <rdf:RDF>
      <cc:Work
         rdf:about="">
        <dc:format>image/svg+xml</dc:format>
        <dc:type
           rdf:resource="http://purl.org/dc/dcmitype/StillImage" />
        <dc:title></dc:title>
      </cc:Work>
    </rdf:RDF>
  </metadata>
  <sodipodi:namedview
     pagecolor="#ffffff"
     bordercolor="#666666"
     borderopacity="1"
     objecttolerance="10"
     gridtolerance="10"
     guidetolerance="10"
     inkscape:pageopacity="0"
     inkscape:pageshadow="2"
     inkscape:window-width="1280"
     inkscape:window-height="694"
     id="namedview30"
     showgrid="false"
     inkscape:zoom="4.9166667"
     inkscape:cx="-10.118414"
     inkscape:cy="24"
     inkscape:window-x="0"
     inkscape:window-y="0"
     inkscape:window-maximized="1"
     inkscape:current-layer="svg2" />
  <defs
     id="defs4">
    <linearGradient
       id="0"
       y1="540.8"
       x2="0"
       y2="504.8"
       gradientUnits="userSpaceOnUse"
       gradientTransform="matrix(0.82759,0,0,1.2557791,-314.13,-633.77545)">
      <stop
         stop-color="#08f"
         id="stop7" />
      <stop
         offset="1"
         stop-color="#02c3ff"
         id="stop9" />
    </linearGradient>
    <linearGradient
       id="1"
       y1="535.8"
       x2="0"
       y2="511.8"
       gradientUnits="userSpaceOnUse"
       gradientTransform="matrix(0.82759,0,0,1.2557791,-314.13,-633.77545)">
      <stop
         stop-color="#2a2c2f"
         id="stop12" />
      <stop
         offset="1"
         stop-color="#424649"
         id="stop14" />
    </linearGradient>
  </defs>
  <rect
     style="fill:#5599ff;fill-rule:evenodd"
     id="rect22"
     rx="1.241385"
     width="48.000221"
     height="47.719604"
     x="-0.0016576386"
     y="0.14182435" />
  <path
     d="m -0.0016637,45.224309 48.0002197,0 0,1.255779 -48.0002197,0 z"
     id="path26"
     inkscape:connector-curvature="0"
     style="fill:#d5e5ff" />
  <path
     style="fill:#d5e5ff;fill-opacity:1"
     inkscape:connector-curvature="0"
     id="path28"
     d="m 29.239656,31.12599 c 0.263963,0 0.520439,0.03829 0.761937,0.116785 0.913578,-1.04532 1.924502,-1.998744 3.019671,-2.841126 -0.0468,-0.197194 -0.07114,-0.403961 -0.07114,-0.614555 0,-0.292919 0.04867,-0.576266 0.134797,-0.840469 -1.228086,-0.897902 -2.562882,-1.654132 -3.981919,-2.238055 -1.32918,0.840466 -2.489871,1.935563 -3.414681,3.220196 0.687055,1.244429 1.503284,2.402704 2.431836,3.459511 0.338848,-0.168477 0.71888,-0.262287 1.121378,-0.262287 m -2.589091,2.647759 c 0,-0.371414 0.07675,-0.725597 0.209673,-1.045319 -0.831205,-0.936193 -1.583781,-1.943222 -2.242755,-3.015345 -0.827461,1.680935 -1.295481,3.57821 -1.295481,5.588439 0,2.326125 0.627148,4.501002 1.712955,6.363816 0.389393,-2.238058 1.125122,-4.353586 2.143536,-6.292979 -0.331359,-0.444165 -0.527928,-0.999371 -0.527928,-1.598612 m 8.888651,-8.634416 c 0.68331,0 1.30297,0.27186 1.767247,0.716025 1.349772,-0.593497 2.772555,-1.051064 4.2515,-1.342069 -1.787839,-1.052976 -3.858363,-1.65796 -6.067421,-1.65796 -1.507027,0 -2.948531,0.283346 -4.279583,0.794519 1.057729,0.534148 2.064908,1.156361 3.012182,1.858984 0.38565,-0.235484 0.83495,-0.371414 1.316075,-0.371414 m 3.869596,12.469169 c 0.161,-0.342695 0.389392,-0.647101 0.67395,-0.886414 -0.76381,-2.402703 -1.975048,-4.604384 -3.534493,-6.495916 -0.308893,0.13593 -0.651485,0.208683 -1.010925,0.208683 -0.561625,0 -1.080192,-0.185708 -1.503282,-0.493943 -0.939787,0.729427 -1.808433,1.546919 -2.598452,2.439079 0.248986,0.403961 0.393138,0.882586 0.393138,1.393759 0,0.273774 -0.0412,0.541805 -0.119814,0.792605 2.270836,1.550749 4.886136,2.615213 7.699878,3.044063 m 3.358517,3.57438 c 0.03369,0.5016 0.05429,1.007031 0.05429,1.516289 0,0.897902 -0.05616,1.782403 -0.160998,2.651589 2.063035,-1.541176 3.635585,-3.731371 4.427476,-6.275748 -0.939787,0.233571 -1.902036,0.398218 -2.884881,0.493943 -0.228394,0.725597 -0.756321,1.311436 -1.435886,1.612013 m -3.9632,-1.795805 c -3.004694,-0.509259 -5.788482,-1.68285 -8.212829,-3.359956 -0.395011,0.24697 -0.855543,0.390558 -1.349774,0.390558 -0.183463,0 -0.359438,-0.0019 -0.53167,-0.05552 -1.160693,2.247628 -1.902038,4.757544 -2.115454,7.418707 1.158818,1.271231 2.57037,2.295491 4.159769,2.982798 1.973174,-3.101497 4.730753,-5.666933 8.051828,-7.376588 M 43.664063,26.0717 c -1.950711,0.193366 -3.813434,0.694965 -5.545111,1.445452 0.0075,0.08999 0.01309,0.178049 0.01309,0.266116 0,0.417362 -0.09735,0.811751 -0.265836,1.162104 1.73355,2.081068 3.077705,4.50483 3.927632,7.156419 1.053981,0.02105 1.954454,0.679649 2.341975,1.615843 1.171924,-0.122529 2.312023,-0.352269 3.409063,-0.681565 0.07863,-0.568607 0.121686,-1.150616 0.121686,-1.740284 -1.88e-4,-3.656704 -1.544469,-6.947738 -4.000642,-9.224085 m -3.553218,14.728286 c -3.10017,1.485656 -5.693005,3.771574 -7.563217,6.568668 0.945403,0.241225 1.935734,0.371413 2.954148,0.371413 1.834642,0 3.573807,-0.417363 5.135124,-1.162105 0.250861,-1.255916 0.383777,-2.552035 0.383777,-3.880701 0,-0.480541 -0.0206,-0.957252 -0.05616,-1.426306 -0.312637,-0.103383 -0.599066,-0.260372 -0.846182,-0.470969" />
</svg>
