<?xml version="1.0" encoding="UTF-8" standalone="no"?>
<svg
   xmlns:dc="http://purl.org/dc/elements/1.1/"
   xmlns:cc="http://creativecommons.org/ns#"
   xmlns:rdf="http://www.w3.org/1999/02/22-rdf-syntax-ns#"
   xmlns:svg="http://www.w3.org/2000/svg"
   xmlns="http://www.w3.org/2000/svg"
   xmlns:sodipodi="http://sodipodi.sourceforge.net/DTD/sodipodi-0.dtd"
   xmlns:inkscape="http://www.inkscape.org/namespaces/inkscape"
   viewBox="0 0 48 48"
   id="svg2"
   version="1.1"
   inkscape:version="0.91 r13725"
   sodipodi:docname="org.kde.activeWindowControl.svg">
  <metadata
     id="metadata17">
    <rdf:RDF>
      <cc:Work
         rdf:about="">
        <dc:format>image/svg+xml</dc:format>
        <dc:type
           rdf:resource="http://purl.org/dc/dcmitype/StillImage" />
        <dc:title></dc:title>
      </cc:Work>
    </rdf:RDF>
  </metadata>
  <sodipodi:namedview
     pagecolor="#ffffff"
     bordercolor="#666666"
     borderopacity="1"
     objecttolerance="10"
     gridtolerance="10"
     guidetolerance="10"
     inkscape:pageopacity="0"
     inkscape:pageshadow="2"
     inkscape:window-width="1280"
     inkscape:window-height="694"
     id="namedview15"
     showgrid="false"
     inkscape:zoom="4.9166667"
     inkscape:cx="-9.1525424"
     inkscape:cy="24"
     inkscape:window-x="0"
     inkscape:window-y="0"
     inkscape:window-maximized="1"
     inkscape:current-layer="svg2" />
  <defs
     id="defs4">
    <linearGradient
       id="0"
       gradientUnits="userSpaceOnUse"
       y1="67.769"
       x2="0"
       y2="18.972">
      <stop
         stop-color="#c52828"
         id="stop7" />
      <stop
         offset="1"
         stop-color="#ff5454"
         id="stop9" />
    </linearGradient>
  </defs>
  <path
     d="M 34.789467,24.095389 46.466983,12.367535 c 0.742168,-0.745368 1.111883,-1.64751 1.111883,-2.7119286 0,-1.0644183 -0.369715,-1.9665609 -1.111883,-2.7119288 L 41.066405,1.5170695 C 40.324236,0.77170163 39.425966,0.40039291 38.366117,0.40039291 c -1.059851,0 -1.96086,0.37130872 -2.70029,1.11667659 L 23.988309,13.244924 12.310792,1.5170695 C 11.568623,0.77170163 10.670353,0.40039291 9.6105036,0.40039291 8.550653,0.40039291 7.652382,0.77170163 6.910214,1.5170695 L 1.5068958,6.9436776 C 0.76472784,7.6890455 0.39501266,8.5911881 0.39501266,9.6556064 c 0,1.0644186 0.36971518,1.9665606 1.11188314,2.7119286 L 13.184415,24.095389 1.5068958,35.823244 c -0.74216796,0.745368 -1.11188314,1.64751 -1.11188314,2.711929 0,1.064418 0.36971518,1.966561 1.11188314,2.711928 l 5.4033182,5.423858 c 0.742168,0.745368 1.643178,1.116677 2.7002896,1.116677 1.0598494,0 1.9581194,-0.371309 2.7002884,-1.116677 L 23.988309,34.943104 35.665827,46.670959 c 0.742168,0.745368 1.640439,1.116677 2.70029,1.116677 1.059849,0 1.958119,-0.371309 2.700288,-1.116677 l 5.400578,-5.423858 c 0.742168,-0.745367 1.111883,-1.64751 1.111883,-2.711928 0,-1.064419 -0.369715,-1.966561 -1.111883,-2.711929 L 34.789467,24.095389"
     id="path13"
     inkscape:connector-curvature="0"
     style="fill:#ff2a2a;fill-opacity:0.847" />
</svg>
