<?xml version="1.0" encoding="UTF-8" standalone="no"?>
<svg
   xmlns:dc="http://purl.org/dc/elements/1.1/"
   xmlns:cc="http://creativecommons.org/ns#"
   xmlns:rdf="http://www.w3.org/1999/02/22-rdf-syntax-ns#"
   xmlns:svg="http://www.w3.org/2000/svg"
   xmlns="http://www.w3.org/2000/svg"
   xmlns:sodipodi="http://sodipodi.sourceforge.net/DTD/sodipodi-0.dtd"
   xmlns:inkscape="http://www.inkscape.org/namespaces/inkscape"
   viewBox="0 0 64 64"
   id="svg2"
   version="1.1"
   inkscape:version="0.91 r13725"
   sodipodi:docname="application-x-gzdvi.svg">
  <metadata
     id="metadata19">
    <rdf:RDF>
      <cc:Work
         rdf:about="">
        <dc:format>image/svg+xml</dc:format>
        <dc:type
           rdf:resource="http://purl.org/dc/dcmitype/StillImage" />
        <dc:title></dc:title>
      </cc:Work>
    </rdf:RDF>
  </metadata>
  <sodipodi:namedview
     pagecolor="#ffffff"
     bordercolor="#666666"
     borderopacity="1"
     objecttolerance="10"
     gridtolerance="10"
     guidetolerance="10"
     inkscape:pageopacity="0"
     inkscape:pageshadow="2"
     inkscape:window-width="1280"
     inkscape:window-height="694"
     id="namedview17"
     showgrid="true"
     inkscape:zoom="3.6875"
     inkscape:cx="-12.20339"
     inkscape:cy="32"
     inkscape:window-x="0"
     inkscape:window-y="0"
     inkscape:window-maximized="1"
     inkscape:current-layer="svg2">
    <inkscape:grid
       type="xygrid"
       id="grid4137" />
  </sodipodi:namedview>
  <defs
     id="defs4">
    <linearGradient
       id="0"
       x1="-74.929"
       y1="52.2"
       x2="-75.26"
       y2="2.356"
       gradientUnits="userSpaceOnUse"
       gradientTransform="matrix(1.07499,0,0,1.02929,113.079,0.074)">
      <stop
         stop-color="#fa883c"
         id="stop7" />
      <stop
         offset="1"
         stop-color="#ff923c"
         id="stop9" />
    </linearGradient>
  </defs>
  <rect
     style="fill:#ff9955"
     id="rect13"
     rx="3.6093991"
     y="0.65025425"
     x="0.50847554"
     height="53.207966"
     width="63.525421" />
  <path
     style="fill:#552200"
     inkscape:connector-curvature="0"
     id="path15"
     d="m 28.644626,33.827508 c -0.973831,0 -1.756761,0.667509 -1.756761,1.497773 l 0,26.968156 c 0,0.830265 0.78293,1.497773 1.756761,1.497773 l 28.117853,0 c 0.973831,0 1.759984,-0.667508 1.759984,-1.497773 l 0,-26.968156 c 0,-0.830264 -0.786153,-1.497773 -1.759984,-1.497773 l -28.117853,0 m 13.146312,0.833012 1.953301,0 c 0.432545,0 0.779709,0.295984 0.779709,0.664761 l 0,0.167564 c 0,0.368778 -0.347164,0.664761 -0.779709,0.664761 l -1.953301,0 c -0.432544,0 -0.779708,-0.295983 -0.779708,-0.664761 l 0,-0.167564 c 0,-0.368777 0.347164,-0.664761 0.779708,-0.664761 m -0.0065,2.165281 1.953299,0 c 0.432546,0 0.77971,0.298731 0.77971,0.667509 l 0,0.164816 c 0,0.368778 -0.347164,0.667509 -0.77971,0.667509 l -1.953299,0 c -0.432545,0 -0.782932,-0.298731 -0.782932,-0.667509 l 0,-0.164816 c 0,-0.368778 0.350387,-0.667509 0.782932,-0.667509 m -0.02175,2.141933 1.953299,0 c 0.432546,0 0.77971,0.295983 0.77971,0.664761 l 0,0.167564 c 0,0.368777 -0.347164,0.664761 -0.77971,0.664761 l -1.953299,0 c -0.432546,0 -0.782932,-0.295984 -0.782932,-0.664761 l 0,-0.167564 c 0,-0.368778 0.350386,-0.664761 0.782932,-0.664761 m 0.03705,2.229147 1.9533,0 c 0.432546,0 0.780514,0.295984 0.780514,0.664762 l 0,0.167563 c 0,0.368778 -0.347164,0.664762 -0.780514,0.664762 l -1.9533,0 c -0.432545,0 -0.779709,-0.295984 -0.779709,-0.664762 l 0,-0.167563 c 0,-0.368778 0.347164,-0.664762 0.779709,-0.664762 m 0,2.189317 1.9533,0 c 0.432546,0 0.780514,0.295984 0.780514,0.664762 l 0,0.167563 c 0,0.368778 -0.347164,0.664762 -0.780514,0.664762 l -1.9533,0 c -0.432545,0 -0.779709,-0.295984 -0.779709,-0.664762 l 0,-0.167563 c 0,-0.368778 0.347164,-0.664762 0.779709,-0.664762 m 0,2.240136 1.9533,0 c 0.432546,0 0.780514,0.29873 0.780514,0.667508 l 0,0.164817 c 0,0.368778 -0.347164,0.667508 -0.780514,0.667508 l -1.9533,0 c -0.432545,0 -0.779709,-0.29873 -0.779709,-0.667508 l 0,-0.164817 c 0,-0.368778 0.347164,-0.667508 0.779709,-0.667508 m 0.156265,2.266918 1.550557,0 c 0.307695,0 0.555784,0.212889 0.555784,0.475909 l 0,0.94701 0.861063,2.165281 c 0.24084,0.602955 0.125655,1.27321 -0.309306,1.79307 -0.434156,0.519173 -1.138955,0.830265 -1.884834,0.830265 -0.745878,0 -1.450678,-0.311092 -1.884833,-0.830265 -0.434156,-0.51986 -0.550146,-1.189428 -0.309306,-1.79307 l 0.861062,-2.165281 0,-0.94701 c 0,-0.263707 0.250506,-0.475909 0.558201,-0.475909 m -0.06846,3.171351 -0.286752,0.726568 c -0.124044,0.311778 -0.06524,0.657893 0.159486,0.925721 0.447043,0.534968 1.497396,0.534968 1.943634,0 0.223924,-0.267828 0.282725,-0.61463 0.159486,-0.925721 l -0.286753,-0.726568 -1.688295,0" />
</svg>
