<?xml version="1.0" encoding="UTF-8" standalone="no"?>
<svg
   xmlns:dc="http://purl.org/dc/elements/1.1/"
   xmlns:cc="http://creativecommons.org/ns#"
   xmlns:rdf="http://www.w3.org/1999/02/22-rdf-syntax-ns#"
   xmlns:svg="http://www.w3.org/2000/svg"
   xmlns="http://www.w3.org/2000/svg"
   xmlns:sodipodi="http://sodipodi.sourceforge.net/DTD/sodipodi-0.dtd"
   xmlns:inkscape="http://www.inkscape.org/namespaces/inkscape"
   viewBox="0 0 64 64"
   id="svg2"
   version="1.1"
   inkscape:version="0.91 r13725"
   sodipodi:docname="application-pgp-keys.svg">
  <metadata
     id="metadata19">
    <rdf:RDF>
      <cc:Work
         rdf:about="">
        <dc:format>image/svg+xml</dc:format>
        <dc:type
           rdf:resource="http://purl.org/dc/dcmitype/StillImage" />
        <dc:title></dc:title>
      </cc:Work>
    </rdf:RDF>
  </metadata>
  <sodipodi:namedview
     pagecolor="#ffffff"
     bordercolor="#666666"
     borderopacity="1"
     objecttolerance="10"
     gridtolerance="10"
     guidetolerance="10"
     inkscape:pageopacity="0"
     inkscape:pageshadow="2"
     inkscape:window-width="1280"
     inkscape:window-height="694"
     id="namedview17"
     showgrid="true"
     inkscape:zoom="3.6875"
     inkscape:cx="-19.667601"
     inkscape:cy="32"
     inkscape:window-x="0"
     inkscape:window-y="0"
     inkscape:window-maximized="1"
     inkscape:current-layer="svg2">
    <inkscape:grid
       type="xygrid"
       id="grid4137" />
  </sodipodi:namedview>
  <defs
     id="defs4">
    <linearGradient
       id="0"
       x1="-74.929"
       y1="52.2"
       x2="-75.26"
       y2="2.356"
       gradientUnits="userSpaceOnUse"
       gradientTransform="matrix(1.07499,0,0,1.02929,113.079,0.074)">
      <stop
         stop-color="#da111a"
         id="stop7" />
      <stop
         offset="1"
         stop-color="#fe423d"
         id="stop9" />
    </linearGradient>
  </defs>
  <rect
     style="fill:#ff2a2a"
     id="rect13"
     rx="3.6248076"
     y="0.65025425"
     x="0.23728909"
     height="52.936779"
     width="63.796608" />
  <path
     d="m 56.830747,40.485029 c -1.615943,-2.736261 -4.409373,-3.563961 -6.788795,-3.710492 -0.320574,-0.56148 -0.728873,-1.089518 -1.228191,-1.563578 -1.3513,-1.282985 -3.147835,-1.989382 -5.058685,-1.989382 -1.911018,0 -3.707553,0.706397 -5.058706,1.989382 -1.974209,1.874387 -2.609774,4.599355 -1.687319,7.065145 l -9.39578,8.920611 c -0.12634,0.120122 -0.20525,0.2781 -0.222481,0.447072 l -0.163067,1.580299 c -0.02267,0.218401 0.05897,0.434899 0.22246,0.590082 l 2.047894,1.944353 c 0.1276,0.121161 0.295852,0.195959 0.475519,0.211654 l 0.865119,0.07553 c 0.02372,0.0021 0.04722,0.0031 0.07072,0.0031 0.203782,0 0.400575,-0.07671 0.546098,-0.214735 l 1.577012,-1.497281 c 0.144809,-0.137588 0.226175,-0.324156 0.226175,-0.51865 l 0,-0.150638 0.158661,0 c 0.204831,0 0.401352,-0.0773 0.546266,-0.214882 l 0.310374,-0.294676 c 0.144809,-0.137588 0.226154,-0.324157 0.226154,-0.518502 l 0,-1.14819 1.209344,0 c 0.204832,0 0.401352,-0.0773 0.546266,-0.214736 l 1.090371,-1.035247 c 0.145019,-0.137581 0.226174,-0.324009 0.226174,-0.51865 l 0,-0.0902 0.09507,0 c 0.204832,0 0.401352,-0.0773 0.546266,-0.214737 l 1.010809,-0.959708 c 0.145019,-0.137583 0.226176,-0.324156 0.226176,-0.51865 l 0,-0.301861 0.317929,0 c 0.204831,0 0.401373,-0.0773 0.546266,-0.214735 l 1.058093,-1.004593 c 0.764402,0.256685 1.564336,0.386494 2.384984,0.386494 1.910095,0 3.705706,-0.705956 5.056229,-1.988208 1.849673,-1.756313 2.471345,-4.242491 1.867911,-6.490758 1.792359,0.241725 3.687468,0.989778 4.801638,2.876339 1.967704,3.331918 0.257529,6.281449 -0.713426,7.541406 l -5.036607,-1.038053 c -0.256144,-0.05295 -0.524187,0.02156 -0.710026,0.19816 l -8.875012,8.426318 c -0.145019,0.137587 -0.226175,0.324156 -0.226175,0.518649 0,0.194495 0.08143,0.381068 0.226175,0.518652 l 6.615928,6.281303 c 0.150895,0.143161 0.348528,0.214734 0.546266,0.214734 0.197695,0 0.39535,-0.07157 0.546287,-0.214734 l 8.875012,-8.426162 c 0.185734,-0.176453 0.264308,-0.430351 0.208609,-0.67413 l -1.084347,-4.742687 c 0.407081,-0.506037 0.968185,-1.3066 1.404459,-2.323807 1.018071,-2.376316 0.869757,-4.795756 -0.430104,-6.996646 z M 45.952186,39.815301 c -0.530966,0 -1.030117,-0.196254 -1.405676,-0.552825 -0.775064,-0.736026 -0.775064,-1.933353 0,-2.669232 0.375559,-0.356572 0.874857,-0.552826 1.405845,-0.552826 0.530966,0 1.030116,0.196401 1.405676,0.552826 0.08017,0.07613 0.150895,0.158558 0.215345,0.244658 -1.02827,0.1103 -1.73179,0.287047 -1.825119,0.311249 -0.411383,0.106928 -0.653634,0.51029 -0.540851,0.901037 0.1127,0.390602 0.537472,0.620444 0.949024,0.513517 0.02141,-0.0056 0.721758,-0.181586 1.747552,-0.276339 -0.07408,0.367279 -0.261391,0.705077 -0.545951,0.975255 -0.37556,0.35628 -0.874857,0.55268 -1.405845,0.55268 z"
     id="path3"
     inkscape:connector-curvature="0"
     style="fill:#ff8080" />
</svg>
