<?xml version="1.0" encoding="UTF-8" standalone="no"?>
<svg
   xmlns:dc="http://purl.org/dc/elements/1.1/"
   xmlns:cc="http://creativecommons.org/ns#"
   xmlns:rdf="http://www.w3.org/1999/02/22-rdf-syntax-ns#"
   xmlns:svg="http://www.w3.org/2000/svg"
   xmlns="http://www.w3.org/2000/svg"
   xmlns:sodipodi="http://sodipodi.sourceforge.net/DTD/sodipodi-0.dtd"
   xmlns:inkscape="http://www.inkscape.org/namespaces/inkscape"
   viewBox="0 0 64 64"
   id="svg2"
   version="1.1"
   inkscape:version="0.91 r13725"
   sodipodi:docname="text-x-javascript.svg">
  <metadata
     id="metadata19">
    <rdf:RDF>
      <cc:Work
         rdf:about="">
        <dc:format>image/svg+xml</dc:format>
        <dc:type
           rdf:resource="http://purl.org/dc/dcmitype/StillImage" />
        <dc:title></dc:title>
      </cc:Work>
    </rdf:RDF>
  </metadata>
  <sodipodi:namedview
     pagecolor="#ffffff"
     bordercolor="#666666"
     borderopacity="1"
     objecttolerance="10"
     gridtolerance="10"
     guidetolerance="10"
     inkscape:pageopacity="0"
     inkscape:pageshadow="2"
     inkscape:window-width="1280"
     inkscape:window-height="694"
     id="namedview17"
     showgrid="true"
     inkscape:zoom="3.6875"
     inkscape:cx="-9.6933815"
     inkscape:cy="32"
     inkscape:window-x="0"
     inkscape:window-y="0"
     inkscape:window-maximized="1"
     inkscape:current-layer="svg2">
    <inkscape:grid
       type="xygrid"
       id="grid4137" />
  </sodipodi:namedview>
  <defs
     id="defs4">
    <linearGradient
       id="0"
       x1="-74.929"
       y1="52.2"
       x2="-75.26"
       y2="2.356"
       gradientUnits="userSpaceOnUse"
       gradientTransform="matrix(1.07499,0,0,1.02929,113.079,0.206)">
      <stop
         stop-color="#ff721a"
         id="stop7" />
      <stop
         offset="1"
         stop-color="#fbb521"
         id="stop9" />
    </linearGradient>
  </defs>
  <rect
     style="fill:#ff7f2a"
     id="rect13"
     rx="3.5939908"
     y="0.24088138"
     x="0.50847554"
     height="53.219151"
     width="63.254234" />
  <path
     style="fill:#552200"
     inkscape:connector-curvature="0"
     id="path15"
     d="M 27.865427,58.876125 C 24.857414,53.801896 26.904708,45.8436 33.126904,39.888893 c 7.066094,-6.758899 16.837573,-8.370962 21.825629,-3.59911 0.0059,0.0062 0.0107,0.01332 0.01873,0.01967 -0.99838,2.778373 -4.177786,8.691721 -13.708509,11.888275 -8.730059,2.929836 -12.098342,7.587907 -13.398196,10.678765 M 56.354703,38.027214 c -0.756183,1.687519 -2.072272,3.893215 -4.339571,6.061963 -2.279307,2.181431 -5.518373,4.324261 -10.107731,5.863717 -9.313215,3.124221 -11.914844,8.238615 -12.641149,10.717369 0.0343,0.03309 0.0638,0.06737 0.09704,0.09954 4.988153,4.771669 14.759536,3.160342 21.825629,-3.600027 6.286948,-6.014447 8.309264,-14.076599 5.16627,-19.142557 z" />
</svg>
