<?xml version="1.0" encoding="UTF-8" standalone="no"?>
<svg
   xmlns:dc="http://purl.org/dc/elements/1.1/"
   xmlns:cc="http://creativecommons.org/ns#"
   xmlns:rdf="http://www.w3.org/1999/02/22-rdf-syntax-ns#"
   xmlns:svg="http://www.w3.org/2000/svg"
   xmlns="http://www.w3.org/2000/svg"
   xmlns:xlink="http://www.w3.org/1999/xlink"
   xmlns:sodipodi="http://sodipodi.sourceforge.net/DTD/sodipodi-0.dtd"
   xmlns:inkscape="http://www.inkscape.org/namespaces/inkscape"
   viewBox="0 0 64 64"
   id="svg13202"
   version="1.1"
   inkscape:version="0.91 r13725"
   sodipodi:docname="user-desktop.svg">
  <metadata
     id="metadata13228">
    <rdf:RDF>
      <cc:Work
         rdf:about="">
        <dc:format>image/svg+xml</dc:format>
        <dc:type
           rdf:resource="http://purl.org/dc/dcmitype/StillImage" />
        <dc:title />
      </cc:Work>
    </rdf:RDF>
  </metadata>
  <sodipodi:namedview
     pagecolor="#ffffff"
     bordercolor="#666666"
     borderopacity="1"
     objecttolerance="10"
     gridtolerance="10"
     guidetolerance="10"
     inkscape:pageopacity="0"
     inkscape:pageshadow="2"
     inkscape:window-width="1280"
     inkscape:window-height="688"
     id="namedview13226"
     showgrid="false"
     inkscape:zoom="3.6875"
     inkscape:cx="-51.809045"
     inkscape:cy="32"
     inkscape:window-x="0"
     inkscape:window-y="0"
     inkscape:window-maximized="1"
     inkscape:current-layer="svg13202" />
  <defs
     id="defs13204">
    <linearGradient
       xlink:href="#1"
       id="3"
       x1="-19.915"
       y1="1048.7"
       x2="-19.996"
       y2="1025.51"
       gradientUnits="userSpaceOnUse"
       gradientTransform="translate(51.949,-1001.46)" />
    <linearGradient
       gradientUnits="userSpaceOnUse"
       y2="354.29"
       x2="-704.05"
       y1="647.77"
       x1="-701.19"
       id="2"
       gradientTransform="matrix(0.01590505,0,0,0.01845141,129.51168,-45.007092)">
      <stop
         stop-color="#93cfff"
         id="stop13208" />
      <stop
         offset="1"
         stop-color="#cde8fe"
         id="stop13210" />
    </linearGradient>
    <linearGradient
       xlink:href="#1"
       id="0"
       x1="59.12"
       y1="-13.295"
       x2="59.15"
       y2="-37.783"
       gradientUnits="userSpaceOnUse"
       gradientTransform="matrix(0.52660675,0,0,0.52570737,-19.441377,28.676662)" />
    <linearGradient
       id="1">
      <stop
         stop-color="#289bf7"
         id="stop13214" />
      <stop
         offset="1"
         stop-color="#71b9f1"
         id="stop13216" />
    </linearGradient>
    <clipPath
       id="3-5">
      <path
         inkscape:connector-curvature="0"
         d="M 0,792 612,792 612,0 0,0 0,792"
         id="path38" />
    </clipPath>
    <clipPath
       id="4-5">
      <path
         inkscape:connector-curvature="0"
         d="m 558.89,526.62 37.604,0 0,-14.904 -37.604,0 0,14.904"
         id="path35" />
    </clipPath>
    <clipPath
       id="5">
      <path
         inkscape:connector-curvature="0"
         d="m 596.5,511.72 c -6.962,6.661 -20.973,17.643 -31.626,14.277 -5.954,-1.882 -8.839,-7.319 -2.055,-7.441 13.837,-0.25 20.622,0.731 33.681,-6.836"
         id="path32" />
    </clipPath>
    <clipPath
       id="6">
      <path
         inkscape:connector-curvature="0"
         d="m 556.75,546.2 27.01,0 0,-29.575 -27.01,0 0,29.575"
         id="path29" />
    </clipPath>
    <clipPath
       id="7">
      <path
         inkscape:connector-curvature="0"
         d="m 556.75,516.63 c 2.252,9.368 8.092,26.19 18.874,29.12 6.02,1.639 11.393,-1.373 5.753,-5.147 -11.502,-7.696 -17.738,-10.542 -24.627,-23.971"
         id="path22" />
    </clipPath>
    <clipPath
       id="8">
      <path
         inkscape:connector-curvature="0"
         d="m 547.05,542.87 13.05,0 0,-38.14 -13.05,0 0,38.14"
         id="path15" />
    </clipPath>
  </defs>
  <path
     inkscape:connector-curvature="0"
     style="fill:#d38d5f"
     d="m 63.440676,18.494425 -63.15254022,0 0,-15.887009 c 0,-1.2856144 0.99737462,-2.3277585 2.22776032,-2.3277585 l 58.6970199,0 c 1.230385,0 2.22776,1.0421441 2.22776,2.3277585 l 0,15.887009 z"
     id="path3" />
  <rect
     x="3.5546465"
     y="18.494425"
     style="fill:#d38d5f"
     width="56.619518"
     height="45.497101"
     id="rect5" />
  <path
     inkscape:connector-curvature="0"
     style="fill:#a05a2c"
     d="m 41.663938,13.943577 -19.599064,0 c -2.405241,0 -4.355348,-2.037641 -4.355348,-4.5508472 l 0,0 c 0,-2.5132056 1.950107,-4.5508476 4.355348,-4.5508476 l 19.599064,0 c 2.405241,0 4.355348,2.037642 4.355348,4.5508476 l 0,0 c 0,2.5132062 -1.950107,4.5508472 -4.355348,4.5508472 z"
     id="path7-1" />
  <rect
     x="3.5546465"
     y="58.302963"
     style="fill:#a05a2c"
     width="56.619518"
     height="5.6885595"
     id="rect9" />
  <rect
     x="16.620689"
     y="27.584742"
     style="fill:#f4e3d7"
     width="30.487432"
     height="15.927967"
     id="rect11" />
  <g
     id="g13"
     transform="matrix(1.0888369,0,0,1.1377119,0.28813578,-0.8580544)"
     style="fill:#a05a2c">
    <path
       inkscape:connector-curvature="0"
       style="fill:#a05a2c"
       d="m 19,31 6,0 c 0.553,0 1,-0.447 1,-1 0,-0.553 -0.447,-1 -1,-1 l -6,0 c -0.553,0 -1,0.447 -1,1 0,0.553 0.447,1 1,1 z"
       id="path15-0" />
    <path
       inkscape:connector-curvature="0"
       style="fill:#a05a2c"
       d="m 29,31 c 0.26,0 0.52,-0.11 0.71,-0.29 C 29.89,30.52 30,30.26 30,30 c 0,-0.261 -0.11,-0.521 -0.29,-0.71 -0.38,-0.37 -1.05,-0.37 -1.42,0 C 28.109,29.479 28,29.739 28,30 c 0,0.27 0.109,0.52 0.29,0.71 C 28.479,30.89 28.729,31 29,31 Z"
       id="path17" />
    <path
       inkscape:connector-curvature="0"
       style="fill:#a05a2c"
       d="m 39,33 -16,0 c -0.553,0 -1,0.447 -1,1 0,0.553 0.447,1 1,1 l 16,0 c 0.553,0 1,-0.447 1,-1 0,-0.553 -0.447,-1 -1,-1 z"
       id="path19" />
    <path
       inkscape:connector-curvature="0"
       style="fill:#a05a2c"
       d="M 18.29,33.29 C 18.109,33.479 18,33.739 18,34 c 0,0.26 0.109,0.52 0.29,0.71 0.189,0.18 0.439,0.29 0.71,0.29 0.27,0 0.52,-0.11 0.71,-0.29 C 19.89,34.52 20,34.26 20,34 c 0,-0.261 -0.11,-0.521 -0.29,-0.71 -0.37,-0.37 -1.04,-0.37 -1.42,0 z"
       id="path21" />
  </g>
  <rect
     x="3.5546465"
     y="18.483047"
     style="fill:#a05a2c"
     width="56.619518"
     height="5.6885595"
     id="rect23" />
  <g
     id="g3"
     transform="matrix(0.55608955,0,0,0.67589411,46.110041,-1.0166748)"
     style="fill:#ffffff">
    <g
       id="g5"
       style="fill:#ffffff">
      <path
         d="m 17.246,8.419 c 0.023,-0.013 0.045,-0.027 0.068,-0.042 0.112,-0.068 0.234,-0.133 0.36,-0.2 0.126,-0.067 0.261,-0.13 0.397,-0.193 0.068,-0.032 0.141,-0.06 0.212,-0.089 L 18.389,7.851 C 18.436,7.833 18.464,7.826 18.502,7.812 L 18.717,7.741 C 18.792,7.72 18.865,7.699 18.94,7.678 19.087,7.636 19.231,7.6 19.371,7.571 19.649,7.508 19.912,7.462 20.14,7.427 c 0.45,-0.069 0.758,-0.082 0.758,-0.082 0,0 -0.07,0.03 -0.193,0.083 -0.124,0.051 -0.301,0.121 -0.514,0.201 -0.106,0.039 -0.221,0.082 -0.344,0.126 -0.123,0.043 -0.25,0.089 -0.385,0.136 -0.131,0.047 -0.268,0.096 -0.404,0.145 -0.136,0.046 -0.276,0.1 -0.418,0.155 -0.132,0.05 -0.27,0.115 -0.404,0.167 -0.133,0.061 -0.361,0.141 -0.49,0.197 -0.156,0.065 -0.256,0.101 -0.353,0.153 -1.113,0.647 -1.604,1.795 -1.904,3.009 -0.053,-1.14 -0.293,-2.247 -1.116,-3.063 0,0 0.001,-10e-4 0.002,-10e-4 C 14.264,8.549 14.147,8.436 14.028,8.315 13.929,8.214 13.826,8.113 13.726,8.006 13.622,7.905 13.52,7.794 13.417,7.696 13.307,7.592 13.197,7.488 13.09,7.395 12.981,7.296 12.875,7.2 12.771,7.106 12.666,7.011 12.564,6.92 12.468,6.834 12.372,6.747 12.282,6.664 12.199,6.586 12.033,6.43 11.895,6.299 11.801,6.204 11.707,6.108 11.655,6.054 11.655,6.054 c 0,0 0.279,0.13 0.67,0.365 0.195,0.118 0.42,0.262 0.653,0.426 0.118,0.08 0.236,0.168 0.358,0.263 0.06,0.048 0.12,0.096 0.181,0.143 l 0.171,0.148 c 0.03,0.027 0.054,0.044 0.089,0.079 L 13.86,7.56 c 0.056,0.053 0.111,0.107 0.163,0.163 0.102,0.111 0.203,0.22 0.293,0.33 0.091,0.111 0.179,0.217 0.256,0.323 0.016,0.023 0.032,0.043 0.048,0.066 C 14.863,8.046 14.873,6.864 13.823,6.067 12.681,5.202 11.088,5.59 10.421,5.271 c 0.674,1.03 0.544,1.717 1.676,2.848 0.756,0.757 1.462,0.804 1.938,0.672 0.965,0.931 1.116,2.352 1.117,3.711 -0.1,-0.081 -0.22,-0.144 -0.358,-0.144 -0.392,0 -0.677,0.221 -0.814,0.535 -0.862,-0.293 -1.434,0.389 -1.484,0.963 -0.41,-0.153 -0.93,0.32 -0.93,0.729 0,0.405 0.319,0.732 0.72,0.75 l 6.345,0.011 c 0,0 0.676,-0.364 0.676,-0.761 0,-0.416 -0.336,-0.752 -0.752,-0.752 -0.057,0 -0.113,0.008 -0.166,0.02 0.004,-0.029 -0.072,-1.308 -1.182,-0.793 -0.087,-0.4 -0.2,-0.701 -0.867,-0.701 -0.328,0 -0.551,0.12 -0.693,0.241 0.278,-1.413 0.707,-2.889 1.958,-3.619 0.014,-0.007 0.021,-0.019 0.029,-0.028 0.387,0.311 1.063,0.551 2.066,0.134 1.479,-0.614 1.619,-1.299 2.636,-1.994 -0.737,0.042 -2.063,-0.926 -3.45,-0.562 -1.271,0.333 -1.714,1.43 -1.64,1.888 z m -1.808,4.432 c 0,0 -0.004,-0.008 -0.007,-0.015 l 0.041,-0.041 c -0.021,0.032 -0.034,0.056 -0.034,0.056 z"
         id="path7"
         inkscape:connector-curvature="0"
         style="fill:#ffffff" />
      <path
         d="m 28.525,18.524 -26.357,0 -2.168,9.827 30.693,0 -2.168,-9.827 z m -16.208,8.475 0.442,-2.004 5.177,0 0.44,2.004 -6.059,0 z"
         id="path9"
         inkscape:connector-curvature="0"
         style="fill:#ffffff" />
      <path
         d="m 28.457,17.903 0,-6.033 0,0 0,-9.528 -9.889,0 -6.44,0 -9.891,0 0,9.528 0,6.031 26.22,0 0,0.002 z m -1.864,-1.557 -22.49,0 0,-12.139 8.422,0 5.645,0 8.423,0 0,12.139 z"
         id="path11"
         inkscape:connector-curvature="0"
         style="fill:#ffffff" />
    </g>
  </g>
</svg>
