<?xml version="1.0" encoding="UTF-8" standalone="no"?>
<!-- Generator: Adobe Illustrator 19.0.0, SVG Export Plug-In . SVG Version: 6.00 Build 0)  -->

<svg
   xmlns:dc="http://purl.org/dc/elements/1.1/"
   xmlns:cc="http://creativecommons.org/ns#"
   xmlns:rdf="http://www.w3.org/1999/02/22-rdf-syntax-ns#"
   xmlns:svg="http://www.w3.org/2000/svg"
   xmlns="http://www.w3.org/2000/svg"
   xmlns:sodipodi="http://sodipodi.sourceforge.net/DTD/sodipodi-0.dtd"
   xmlns:inkscape="http://www.inkscape.org/namespaces/inkscape"
   version="1.1"
   id="Capa_1"
   x="0px"
   y="0px"
   viewBox="0 0 58 58"
   style="enable-background:new 0 0 58 58;"
   xml:space="preserve"
   inkscape:version="0.91 r13725"
   sodipodi:docname="battery-charging-040.svg"><metadata
     id="metadata73"><rdf:RDF><cc:Work
         rdf:about=""><dc:format>image/svg+xml</dc:format><dc:type
           rdf:resource="http://purl.org/dc/dcmitype/StillImage" /><dc:title></dc:title></cc:Work></rdf:RDF></metadata><defs
     id="defs71" /><sodipodi:namedview
     pagecolor="#ffffff"
     bordercolor="#666666"
     borderopacity="1"
     objecttolerance="10"
     gridtolerance="10"
     guidetolerance="10"
     inkscape:pageopacity="0"
     inkscape:pageshadow="2"
     inkscape:window-width="1280"
     inkscape:window-height="694"
     id="namedview69"
     showgrid="false"
     inkscape:zoom="4.0689655"
     inkscape:cx="-11.059322"
     inkscape:cy="29"
     inkscape:window-x="0"
     inkscape:window-y="0"
     inkscape:window-maximized="1"
     inkscape:current-layer="Capa_1" /><path
     style="fill:#424A60;"
     d="M41.536,58H16.464C15.103,58,14,56.897,14,55.536V6.464C14,5.103,15.103,4,16.464,4h25.072  C42.897,4,44,5.103,44,6.464v49.072C44,56.897,42.897,58,41.536,58z"
     id="path3" /><rect
     x="24"
     style="fill:#D8A852;"
     width="10"
     height="4"
     id="rect5" /><path
     style="fill:#43B05C;"
     d="M41.536,58H16.464C15.103,58,14,56.897,14,55.536v-5.072C14,49.103,15.103,48,16.464,48h25.072  C42.897,48,44,49.103,44,50.464v5.072C44,56.897,42.897,58,41.536,58z"
     id="path7" /><g
     id="g9"><circle
       style="fill:#A4E869;"
       cx="17"
       cy="52"
       r="1"
       id="circle11" /><circle
       style="fill:#A4E869;"
       cx="20"
       cy="55"
       r="1"
       id="circle13" /><circle
       style="fill:#A4E869;"
       cx="23"
       cy="52"
       r="1"
       id="circle15" /><circle
       style="fill:#A4E869;"
       cx="29"
       cy="52"
       r="1"
       id="circle17" /><circle
       style="fill:#A4E869;"
       cx="26"
       cy="55"
       r="1"
       id="circle19" /><circle
       style="fill:#A4E869;"
       cx="32"
       cy="55"
       r="1"
       id="circle21" /><circle
       style="fill:#A4E869;"
       cx="35"
       cy="52"
       r="1"
       id="circle23" /><circle
       style="fill:#A4E869;"
       cx="41"
       cy="52"
       r="1"
       id="circle25" /><circle
       style="fill:#A4E869;"
       cx="38"
       cy="55"
       r="1"
       id="circle27" /><circle
       style="fill:#A4E869;"
       cx="20"
       cy="49"
       r="1"
       id="circle29" /><circle
       style="fill:#A4E869;"
       cx="26"
       cy="49"
       r="1"
       id="circle31" /><circle
       style="fill:#A4E869;"
       cx="32"
       cy="49"
       r="1"
       id="circle33" /><circle
       style="fill:#A4E869;"
       cx="38"
       cy="49"
       r="1"
       id="circle35" /></g><path
     style="fill:#292F3A;"
     d="M41.536,6C41.792,6,42,6.208,42,6.464v49.072C42,55.792,41.792,56,41.536,56H16.464  C16.208,56,16,55.792,16,55.536V6.464C16,6.208,16.208,6,16.464,6H41.536 M41.536,4H16.464C15.103,4,14,5.103,14,6.464v49.072  C14,56.897,15.103,58,16.464,58h25.072C42.897,58,44,56.897,44,55.536V6.464C44,5.103,42.897,4,41.536,4L41.536,4z"
     id="path37" /><g
     id="g39" /><g
     id="g41" /><g
     id="g43" /><g
     id="g45" /><g
     id="g47" /><g
     id="g49" /><g
     id="g51" /><g
     id="g53" /><g
     id="g55" /><g
     id="g57" /><g
     id="g59" /><g
     id="g61" /><g
     id="g63" /><g
     id="g65" /><g
     id="g67" /></svg>