<?xml version="1.0" encoding="UTF-8" standalone="no"?>
<svg
   xmlns:dc="http://purl.org/dc/elements/1.1/"
   xmlns:cc="http://creativecommons.org/ns#"
   xmlns:rdf="http://www.w3.org/1999/02/22-rdf-syntax-ns#"
   xmlns:svg="http://www.w3.org/2000/svg"
   xmlns="http://www.w3.org/2000/svg"
   xmlns:sodipodi="http://sodipodi.sourceforge.net/DTD/sodipodi-0.dtd"
   xmlns:inkscape="http://www.inkscape.org/namespaces/inkscape"
   viewBox="0 0 64 64"
   id="svg2"
   version="1.1"
   inkscape:version="0.91 r13725"
   sodipodi:docname="task-delegate.svg">
  <metadata
     id="metadata30">
    <rdf:RDF>
      <cc:Work
         rdf:about="">
        <dc:format>image/svg+xml</dc:format>
        <dc:type
           rdf:resource="http://purl.org/dc/dcmitype/StillImage" />
        <dc:title></dc:title>
      </cc:Work>
    </rdf:RDF>
  </metadata>
  <sodipodi:namedview
     pagecolor="#ffffff"
     bordercolor="#666666"
     borderopacity="1"
     objecttolerance="10"
     gridtolerance="10"
     guidetolerance="10"
     inkscape:pageopacity="0"
     inkscape:pageshadow="2"
     inkscape:window-width="1280"
     inkscape:window-height="694"
     id="namedview28"
     showgrid="false"
     inkscape:zoom="3.6875"
     inkscape:cx="-11.5923"
     inkscape:cy="32"
     inkscape:window-x="0"
     inkscape:window-y="0"
     inkscape:window-maximized="1"
     inkscape:current-layer="svg2" />
  <defs
     id="defs4">
    <linearGradient
       y2="157.23"
       x2="0"
       y1="211.23"
       gradientUnits="userSpaceOnUse"
       id="0"
       gradientTransform="matrix(1.1271172,0,0,1.1271172,-834.45941,-175.87595)">
      <stop
         stop-color="#197ff1"
         id="stop7" />
      <stop
         offset="1"
         stop-color="#21c6fb"
         id="stop9" />
    </linearGradient>
    <linearGradient
       gradientUnits="userSpaceOnUse"
       y2="-1033.91"
       x2="12.182"
       y1="-1049.18"
       x1="11.818"
       id="1"
       gradientTransform="matrix(1.4255221,0,0,1.3901621,32.186044,1400.4559)">
      <stop
         stop-color="#2a2c2f"
         id="stop12" />
      <stop
         offset="1"
         stop-color="#424649"
         id="stop14" />
    </linearGradient>
  </defs>
  <circle
     style="fill:#2a7fff"
     id="circle18"
     cx="32.13591"
     cy="32.133537"
     r="31.559282" />
  <path
     style="fill:#d5e5ff;fill-opacity:1"
     inkscape:connector-curvature="0"
     id="path20"
     d="m 63.157335,36.205978 -2.685351,-3.636436 c -0.367993,-0.498326 -0.815551,-0.748452 -1.342676,-0.748452 -0.527125,0 -0.974683,0.250126 -1.342676,0.748452 L 44.834426,50.136033 39.030371,42.249391 c -0.367992,-0.498326 -0.815551,-0.748452 -1.342676,-0.748452 -0.527124,0 -0.974683,0.250126 -1.342676,0.748452 l -2.685351,3.636436 c -0.367993,0.498327 -0.5527,1.104399 -0.5527,1.818219 0,0.711895 0.184707,1.319891 0.5527,1.818218 l 7.14673,9.677925 2.685351,3.636436 c 0.367993,0.498326 0.815553,0.748452 1.342677,0.748452 0.525704,0 0.973263,-0.250126 1.342676,-0.748452 l 2.685352,-3.636436 14.293462,-19.35585 c 0.367992,-0.498325 0.552699,-1.104398 0.552699,-1.818218 0,-0.711895 -0.184707,-1.317968 -0.552699,-1.818218" />
  <path
     d="m 54.494293,62.831844 c -0.230546,-0.302144 -0.247334,-1.26557 -0.03357,-1.989312 0.461095,-1.569277 1.462744,-3.014417 2.929964,-4.233925 l 0.580844,-0.483274 -2.675913,-1.97604 8.12399,0 c 0.0045,0.117891 0,5.687653 0,5.687653 l -2.856099,-1.830042 c -0.49355,0.131944 -3.187371,1.919046 -3.921541,2.599847 -0.500265,0.464537 -1.088944,1.239806 -1.395593,1.83863 -0.327915,0.640202 -0.495789,0.725302 -0.754315,0.385682 z"
     id="path26"
     inkscape:connector-curvature="0"
     style="fill:#2a7fff;fill-opacity:0.947;stroke:#f6f6f6;stroke-width:0.11030115;stroke-linecap:round;stroke-linejoin:round" />
</svg>
