<?xml version="1.0" encoding="UTF-8" standalone="no"?>
<svg
   xmlns:dc="http://purl.org/dc/elements/1.1/"
   xmlns:cc="http://creativecommons.org/ns#"
   xmlns:rdf="http://www.w3.org/1999/02/22-rdf-syntax-ns#"
   xmlns:svg="http://www.w3.org/2000/svg"
   xmlns="http://www.w3.org/2000/svg"
   xmlns:sodipodi="http://sodipodi.sourceforge.net/DTD/sodipodi-0.dtd"
   xmlns:inkscape="http://www.inkscape.org/namespaces/inkscape"
   viewBox="0 0 64 64"
   id="svg2"
   version="1.1"
   inkscape:version="0.91 r13725"
   sodipodi:docname="task-accepted.svg">
  <metadata
     id="metadata17">
    <rdf:RDF>
      <cc:Work
         rdf:about="">
        <dc:format>image/svg+xml</dc:format>
        <dc:type
           rdf:resource="http://purl.org/dc/dcmitype/StillImage" />
        <dc:title></dc:title>
      </cc:Work>
    </rdf:RDF>
  </metadata>
  <sodipodi:namedview
     pagecolor="#ffffff"
     bordercolor="#666666"
     borderopacity="1"
     objecttolerance="10"
     gridtolerance="10"
     guidetolerance="10"
     inkscape:pageopacity="0"
     inkscape:pageshadow="2"
     inkscape:window-width="1280"
     inkscape:window-height="694"
     id="namedview15"
     showgrid="false"
     inkscape:zoom="3.6875"
     inkscape:cx="9.6755886"
     inkscape:cy="32"
     inkscape:window-x="0"
     inkscape:window-y="0"
     inkscape:window-maximized="1"
     inkscape:current-layer="svg2" />
  <defs
     id="defs4">
    <linearGradient
       y2="157.23"
       x2="0"
       y1="211.23"
       gradientUnits="userSpaceOnUse"
       id="0"
       gradientTransform="matrix(1.1222746,0,0,1.1222746,-830.60053,-175.11819)">
      <stop
         stop-color="#197ff1"
         id="stop7" />
      <stop
         offset="1"
         stop-color="#21c6fb"
         id="stop9" />
    </linearGradient>
  </defs>
  <circle
     cy="31.997597"
     cx="32.271503"
     id="circle11"
     style="fill:#5599ff"
     r="31.423689" />
  <path
     d="m 63.170808,36.675482 -2.613953,-3.574338 c -0.358208,-0.489816 -0.793868,-0.73567 -1.306977,-0.73567 -0.513109,0 -0.948768,0.245854 -1.306976,0.73567 L 45.33507,50.367652 39.685334,42.61569 c -0.358208,-0.489817 -0.793867,-0.735671 -1.306977,-0.735671 -0.513109,0 -0.948768,0.245854 -1.306976,0.735671 l -2.613954,3.574337 c -0.358209,0.489817 -0.538005,1.08554 -0.538005,1.787169 0,0.699738 0.179796,1.297352 0.538005,1.787168 l 6.956712,9.512655 2.613954,3.574338 c 0.358208,0.489816 0.793867,0.73567 1.306977,0.73567 0.511726,0 0.947386,-0.245854 1.306976,-0.73567 L 49.256,59.277019 63.169425,40.25171 c 0.358208,-0.489817 0.538005,-1.085539 0.538005,-1.787169 0,-0.699738 -0.179797,-1.29546 -0.538005,-1.787168"
     id="path13"
     style="fill:#d5e5ff;fill-opacity:1"
     inkscape:connector-curvature="0" />
</svg>
