<?xml version="1.0" encoding="UTF-8" standalone="no"?>
<svg
   xmlns:dc="http://purl.org/dc/elements/1.1/"
   xmlns:cc="http://creativecommons.org/ns#"
   xmlns:rdf="http://www.w3.org/1999/02/22-rdf-syntax-ns#"
   xmlns:svg="http://www.w3.org/2000/svg"
   xmlns="http://www.w3.org/2000/svg"
   xmlns:sodipodi="http://sodipodi.sourceforge.net/DTD/sodipodi-0.dtd"
   xmlns:inkscape="http://www.inkscape.org/namespaces/inkscape"
   viewBox="0 0 64 64"
   id="svg2"
   version="1.1"
   inkscape:version="0.91 r13725"
   sodipodi:docname="user-trash-full.svg">
  <metadata
     id="metadata23">
    <rdf:RDF>
      <cc:Work
         rdf:about="">
        <dc:format>image/svg+xml</dc:format>
        <dc:type
           rdf:resource="http://purl.org/dc/dcmitype/StillImage" />
        <dc:title></dc:title>
      </cc:Work>
    </rdf:RDF>
  </metadata>
  <sodipodi:namedview
     pagecolor="#ffffff"
     bordercolor="#666666"
     borderopacity="1"
     objecttolerance="10"
     gridtolerance="10"
     guidetolerance="10"
     inkscape:pageopacity="0"
     inkscape:pageshadow="2"
     inkscape:window-width="1280"
     inkscape:window-height="694"
     id="namedview21"
     showgrid="false"
     inkscape:zoom="3.6875"
     inkscape:cx="-12.20339"
     inkscape:cy="32"
     inkscape:window-x="0"
     inkscape:window-y="0"
     inkscape:window-maximized="1"
     inkscape:current-layer="svg2" />
  <defs
     id="defs4">
    <linearGradient
       id="0"
       x1="-28.999"
       y1="514.82"
       x2="-15.58"
       y2="-56.05"
       gradientUnits="userSpaceOnUse"
       gradientTransform="matrix(0.10401741,0,0,0.10361961,46.022685,9.2083266)">
      <stop
         stop-color="#dc3c30"
         id="stop7" />
      <stop
         offset="1"
         stop-color="#ff786d"
         id="stop9" />
    </linearGradient>
  </defs>
  <path
     style="fill:#ffffff;fill-opacity:0.85100002"
     inkscape:connector-curvature="0"
     id="path13"
     d="m 45.835601,25.637937 -2.518772,-2.518772 c -0.345165,-0.345165 -0.76496,-0.518414 -1.259386,-0.518414 -0.494426,0 -0.914221,0.173249 -1.259386,0.518414 l -12.148745,12.167402 -5.444013,-5.46267 c -0.345165,-0.345165 -0.76496,-0.518414 -1.259386,-0.518414 -0.494425,0 -0.914221,0.173249 -1.259386,0.518414 l -2.518772,2.518772 c -0.345165,0.345165 -0.518414,0.76496 -0.518414,1.259386 0,0.493093 0.173249,0.914221 0.518414,1.259386 l 6.703399,6.703399 2.518772,2.518772 c 0.345165,0.345165 0.764961,0.518414 1.259386,0.518414 0.493093,0 0.912889,-0.173249 1.259386,-0.518414 L 32.427471,41.56484 45.834269,28.158042 c 0.345165,-0.345165 0.518414,-0.76496 0.518414,-1.259386 0,-0.493093 -0.173249,-0.912888 -0.518414,-1.259386" />
  <path
     d="m 32.085487,0.57147282 c -4.315302,0 -8.419159,0.85236588 -12.358179,2.53559008 C 11.902697,6.4508723 6.1720759,12.121991 2.8094141,19.929118 1.1246729,23.841171 0.30731185,27.932075 0.30731185,32.230127 c 0,4.300315 0.81736105,8.429705 2.50210225,12.341758 3.3626618,7.807127 9.0944199,13.508808 16.9178939,16.85375 3.940158,1.683224 8.048561,2.53559 12.358179,2.53559 4.315303,0 8.446443,-0.86029 12.39001,-2.53559 7.889409,-3.352866 13.59161,-9.05568 16.948588,-16.85375 1.689287,-3.924505 2.544164,-8.042576 2.544164,-12.341758 0,-4.299185 -0.852601,-8.376504 -2.544164,-12.301009 C 58.068244,12.134443 52.364906,6.4587961 44.475497,3.1070629 40.53193,1.4317623 36.401926,0.57147282 32.085487,0.57147282"
     id="path17"
     style="opacity:0.98999999;fill:#ff5555"
     inkscape:connector-curvature="0" />
  <path
     d="m 37.68349,55.089285 c -0.330999,0.612163 -0.594645,1.532389 -0.594645,2.112854 0,0.134718 0,0.306084 0.03271,0.543817 l -4.136536,-7.323178 c -0.132784,-0.237734 -0.230929,-0.578485 -0.230929,-0.885557 0,-0.307074 0.0991,-0.681503 0.230929,-0.919236 l 1.985999,-3.576897 -2.216928,-1.293667 7.213677,-0.137686 3.507251,6.50597 -2.249644,-1.328335 z m 3.177214,-21.441569 c 0.628322,-1.125273 1.654997,-1.738426 2.915491,-1.738426 1.357676,0 2.417068,0.647823 3.177213,1.975169 l 1.125784,1.941488 -3.905605,7.750109 -6.319786,-4.580331 z m 0.461859,27.333394 c -1.885929,0 -3.440858,-1.600737 -3.440858,-3.542228 0,-0.544805 0.231892,-1.466021 0.562893,-2.044506 l 1.057466,-1.94149 7.842963,0 0,7.528224 -6.023426,0 m 6.288996,-27.539431 c -0.495538,-0.884566 -1.157537,-1.4997 -1.952322,-1.840452 l 8.139323,0 c 0.728392,0 1.290322,0.307072 1.622285,0.887538 l 2.018713,3.542227 2.183252,-1.329325 -3.508214,6.473282 -7.179038,-0.104009 2.216929,-1.293666 z m 12.537578,20.079556 c 0.991076,0 1.819537,-0.272402 2.514252,-0.816218 l -4.103821,7.356858 c -0.330999,0.578485 -0.925643,0.943009 -1.620359,0.919235 l -3.8777,0 0,2.622992 -3.705466,-6.369274 3.705466,-6.371253 0,2.65766 7.082818,0 m 3.174326,-6.131539 c 0.298285,0.544805 0.464746,1.123289 0.464746,1.737433 0,1.22631 -0.762068,2.520965 -1.819536,3.133129 -0.497461,0.274384 -1.194101,0.487354 -1.88593,0.444759 l -2.186138,0 -3.902718,-6.953702 6.319787,-3.713593 z"
     id="path19"
     inkscape:connector-curvature="0"
     style="fill:#ffd5d5;fill-opacity:1" />
</svg>
