<?xml version="1.0" encoding="UTF-8" standalone="no"?>
<svg
   xmlns:dc="http://purl.org/dc/elements/1.1/"
   xmlns:cc="http://creativecommons.org/ns#"
   xmlns:rdf="http://www.w3.org/1999/02/22-rdf-syntax-ns#"
   xmlns:svg="http://www.w3.org/2000/svg"
   xmlns="http://www.w3.org/2000/svg"
   xmlns:sodipodi="http://sodipodi.sourceforge.net/DTD/sodipodi-0.dtd"
   xmlns:inkscape="http://www.inkscape.org/namespaces/inkscape"
   viewBox="0 0 64 64"
   id="svg2"
   version="1.1"
   inkscape:version="0.91 r13725"
   sodipodi:docname="weather-mist.svg">
  <metadata
     id="metadata17">
    <rdf:RDF>
      <cc:Work
         rdf:about="">
        <dc:format>image/svg+xml</dc:format>
        <dc:type
           rdf:resource="http://purl.org/dc/dcmitype/StillImage" />
        <dc:title></dc:title>
      </cc:Work>
    </rdf:RDF>
  </metadata>
  <sodipodi:namedview
     pagecolor="#ffffff"
     bordercolor="#666666"
     borderopacity="1"
     objecttolerance="10"
     gridtolerance="10"
     guidetolerance="10"
     inkscape:pageopacity="0"
     inkscape:pageshadow="2"
     inkscape:window-width="1280"
     inkscape:window-height="694"
     id="namedview15"
     showgrid="false"
     inkscape:zoom="3.6875"
     inkscape:cx="-21.994938"
     inkscape:cy="32"
     inkscape:window-x="0"
     inkscape:window-y="0"
     inkscape:window-maximized="1"
     inkscape:current-layer="svg2" />
  <defs
     id="defs4">
    <linearGradient
       gradientTransform="matrix(2.07793 0 0 2.08909-503.11-599.88)"
       id="0"
       gradientUnits="userSpaceOnUse"
       x1="395.72"
       y1="557.23"
       x2="395.48"
       y2="541.46">
      <stop
         stop-color="#add4e9"
         id="stop7" />
      <stop
         offset="1"
         stop-color="#f0fbfe"
         id="stop9" />
    </linearGradient>
  </defs>
  <g
     id="g3"
     transform="matrix(0.12817154,0,0,0.15795001,0.14195019,-6.8215196)">
    <path
       style="fill:#57a4ff"
       d="M 478.287,269.323 C 489.221,254.714 495,237.327 495,219.04 495,178.51 466.14,144.594 427.889,136.762 414.458,84.865 367.329,47.454 312.322,47.454 c -49.282,0 -93.286,30.531 -111.068,75.603 11.818,-2.918 24.15,-4.467 36.81,-4.467 72.072,0 133.604,50.031 149.343,118.804 30.987,5.042 57.493,23.599 73.263,49.401 6.634,-4.872 12.568,-10.725 17.617,-17.472 z"
       id="path5"
       inkscape:connector-curvature="0" />
    <path
       style="fill:#bddbff"
       d="m 238.063,118.589 c -12.659,0 -24.991,1.55 -36.81,4.467 C 145.791,136.749 101.695,180.7 88.72,237.393 38.476,245.568 0,289.267 0,341.783 0,400.101 47.445,447.546 105.763,447.546 l 132.3,0 0,-328.957 z"
       id="path7"
       inkscape:connector-curvature="0" />
    <path
       style="fill:#9bc9ff"
       d="M 387.407,237.393 C 371.668,168.621 310.136,118.589 238.064,118.589 l 0,328.958 132.3,0 c 58.318,0 105.763,-47.445 105.763,-105.763 0,-20.127 -5.657,-38.956 -15.457,-54.99 -15.77,-25.802 -42.276,-44.359 -73.263,-49.401 z"
       id="path9"
       inkscape:connector-curvature="0" />
  </g>
  <path
     d="m 47.70604,0.33838708 c -3.700765,0 -6.883309,4.26132742 -8.28729,10.36542692 -0.751277,-1.1640772 -1.694073,-1.8580739 -2.718542,-1.8580739 -2.411552,0 -4.373182,3.8454829 -4.435144,8.6325209 -0.64214,0.481208 -1.234292,1.159905 -1.763074,1.994366 -2.934699,1.280903 -5.350477,5.184801 -6.540411,10.359861 -0.783667,-1.214144 -1.767297,-1.937346 -2.837534,-1.937346 -0.513995,0 -1.006866,0.175243 -1.468759,0.483991 -1.182892,-3.009631 -3.055102,-4.962274 -5.170931,-4.962274 -2.648835,0 -4.928016,3.048571 -5.9327708,7.418376 l 0,0.0027 C 8.0136495,30.004879 7.3391194,29.506983 6.6054434,29.506983 c -1.7264602,0 -3.1311454,2.752337 -3.1755039,6.179199 -1.7820843,1.335141 -3.05017318,4.767567 -3.05017318,8.792463 0,4.755047 1.76941078,8.686759 4.06478568,9.305654 l 0,0.08483 7.93524,0 c 0.791411,4.953929 2.950895,8.688153 5.595505,9.401618 l 0,0.122398 23.698695,0 0,-0.02224 c 2.449571,-0.283718 4.518931,-3.36706 5.427928,-7.671499 l 12.3563,0 0,-0.0014 c 2.267915,-0.262858 4.064787,-4.017941 4.064787,-8.613052 0,-3.837137 -1.255415,-7.087371 -2.989621,-8.208332 0.958284,-2.133447 1.545506,-4.945587 1.545506,-8.037273 0,-6.190325 -2.336213,-11.291678 -5.344141,-11.975936 0.01268,-0.3769 0.01902,-0.756579 0.01902,-1.140433 0,-9.5935461 -4.052113,-17.37074259 -9.051242,-17.37074259"
     id="path13"
     inkscape:connector-curvature="0"
     style="fill:#b7bec8;fill-opacity:0.39215686" />
</svg>
