<?xml version="1.0" encoding="UTF-8" standalone="no"?>
<svg
   xmlns:dc="http://purl.org/dc/elements/1.1/"
   xmlns:cc="http://creativecommons.org/ns#"
   xmlns:rdf="http://www.w3.org/1999/02/22-rdf-syntax-ns#"
   xmlns:svg="http://www.w3.org/2000/svg"
   xmlns="http://www.w3.org/2000/svg"
   xmlns:xlink="http://www.w3.org/1999/xlink"
   xmlns:sodipodi="http://sodipodi.sourceforge.net/DTD/sodipodi-0.dtd"
   xmlns:inkscape="http://www.inkscape.org/namespaces/inkscape"
   viewBox="0 0 64 64"
   id="svg2"
   version="1.1"
   inkscape:version="0.91 r13725"
   sodipodi:docname="weather-clouds-night.svg">
  <metadata
     id="metadata42">
    <rdf:RDF>
      <cc:Work
         rdf:about="">
        <dc:format>image/svg+xml</dc:format>
        <dc:type
           rdf:resource="http://purl.org/dc/dcmitype/StillImage" />
        <dc:title></dc:title>
      </cc:Work>
    </rdf:RDF>
  </metadata>
  <sodipodi:namedview
     pagecolor="#ffffff"
     bordercolor="#666666"
     borderopacity="1"
     objecttolerance="10"
     gridtolerance="10"
     guidetolerance="10"
     inkscape:pageopacity="0"
     inkscape:pageshadow="2"
     inkscape:window-width="1280"
     inkscape:window-height="694"
     id="namedview40"
     showgrid="false"
     inkscape:zoom="3.6875"
     inkscape:cx="-19.845512"
     inkscape:cy="32"
     inkscape:window-x="0"
     inkscape:window-y="0"
     inkscape:window-maximized="1"
     inkscape:current-layer="svg2" />
  <defs
     id="defs4">
    <linearGradient
       gradientUnits="userSpaceOnUse"
       y2="8.935"
       x2="0"
       y1="15.753"
       id="4"
       xlink:href="#1" />
    <linearGradient
       y2="538.36"
       x2="0"
       y1="549.61"
       gradientUnits="userSpaceOnUse"
       id="5"
       gradientTransform="matrix(3.3176545,0,0,2.8828756,-1278.4669,-1521.8259)">
      <stop
         stop-color="#ebebeb"
         id="stop8" />
      <stop
         offset="1"
         stop-color="#fff"
         id="stop10" />
    </linearGradient>
    <linearGradient
       gradientUnits="userSpaceOnUse"
       y2="2.117"
       x2="0"
       y1="8.935"
       id="3"
       xlink:href="#1" />
    <linearGradient
       id="1">
      <stop
         stop-color="#ff9300"
         id="stop14" />
      <stop
         offset="1"
         stop-color="#ffd702"
         id="stop16" />
    </linearGradient>
    <linearGradient
       gradientUnits="userSpaceOnUse"
       y2="-16.683"
       x2="95.62"
       y1="320.21"
       x1="151.76"
       id="0"
       gradientTransform="matrix(-0.21510668,0,0,0.21516604,63.684325,0.49763319)">
      <stop
         stop-color="#92ccff"
         id="stop19" />
      <stop
         offset="1"
         stop-color="#e5f9fd"
         id="stop21" />
    </linearGradient>
    <linearGradient
       gradientUnits="userSpaceOnUse"
       y2="5.526"
       x2="18.17"
       y1="8.935"
       x1="21.58"
       id="2"
       xlink:href="#1" />
  </defs>
  <g
     id="g3"
     transform="matrix(0.13365959,0,0,0.18123595,0.31612171,-11.281309)">
    <path
       style="fill:#ffde55"
       d="m 362.958,149.034 c 11.435,16.047 19.877,34.437 24.449,54.414 20.953,3.409 39.856,13.001 54.779,26.829 11.56,-9.694 20.77,-22.11 26.69,-36.402 C 488.922,145.479 465.857,89.797 417.462,69.752 402.056,63.37 385.189,61.156 368.683,63.346 l -34.26,4.546 21.012,27.44 c 11.739,15.331 14.585,35.827 7.523,53.702 z"
       id="path5"
       inkscape:connector-curvature="0" />
    <path
       style="fill:#2488ff"
       d="m 238.063,84.644 c -12.659,0 -24.991,1.55 -36.81,4.467 C 145.79,102.804 101.694,146.755 88.719,203.447 38.476,211.623 0,255.322 0,307.838 0,366.156 47.445,413.601 105.763,413.601 l 132.3,0 0,-328.957 z"
       id="path7-3"
       inkscape:connector-curvature="0" />
    <path
       style="fill:#006df0"
       d="M 387.407,203.448 C 371.668,134.676 310.136,84.644 238.064,84.644 l 0,328.958 132.3,0 c 58.318,0 105.763,-47.445 105.763,-105.763 0,-20.127 -5.657,-38.956 -15.457,-54.99 -15.77,-25.802 -42.276,-44.359 -73.263,-49.401 z"
       id="path9-9"
       inkscape:connector-curvature="0" />
  </g>
</svg>
