<?xml version="1.0" encoding="UTF-8" standalone="no"?>
<svg
   xmlns:dc="http://purl.org/dc/elements/1.1/"
   xmlns:cc="http://creativecommons.org/ns#"
   xmlns:rdf="http://www.w3.org/1999/02/22-rdf-syntax-ns#"
   xmlns:svg="http://www.w3.org/2000/svg"
   xmlns="http://www.w3.org/2000/svg"
   xmlns:sodipodi="http://sodipodi.sourceforge.net/DTD/sodipodi-0.dtd"
   xmlns:inkscape="http://www.inkscape.org/namespaces/inkscape"
   viewBox="0 0 48 48"
   id="svg2"
   version="1.1"
   inkscape:version="0.91 r13725"
   sodipodi:docname="com.bxabi.bumblebee-indicator.svg">
  <metadata
     id="metadata17">
    <rdf:RDF>
      <cc:Work
         rdf:about="">
        <dc:format>image/svg+xml</dc:format>
        <dc:type
           rdf:resource="http://purl.org/dc/dcmitype/StillImage" />
        <dc:title></dc:title>
      </cc:Work>
    </rdf:RDF>
  </metadata>
  <sodipodi:namedview
     pagecolor="#ffffff"
     bordercolor="#666666"
     borderopacity="1"
     objecttolerance="10"
     gridtolerance="10"
     guidetolerance="10"
     inkscape:pageopacity="0"
     inkscape:pageshadow="2"
     inkscape:window-width="1280"
     inkscape:window-height="694"
     id="namedview15"
     showgrid="false"
     inkscape:zoom="4.9166667"
     inkscape:cx="-9.1525424"
     inkscape:cy="24"
     inkscape:window-x="0"
     inkscape:window-y="0"
     inkscape:window-maximized="1"
     inkscape:current-layer="svg2" />
  <defs
     id="defs4">
    <linearGradient
       gradientTransform="matrix(.49433 0 0 .4778 86.64 13.1)"
       gradientUnits="userSpaceOnUse"
       y2="-26.05"
       x2="-125.19"
       y1="73.5"
       x1="-123.97"
       id="0">
      <stop
         stop-color="#5dae33"
         id="stop7" />
      <stop
         offset="1"
         stop-color="#9be058"
         id="stop9" />
    </linearGradient>
  </defs>
  <path
     d="m 4.9852088,20.810122 c 0,0 4.32158,-9.552999 12.9488082,-10.542262 l 0,-3.4653811 C 8.376089,7.9516823 0.10069492,20.081505 0.10069492,20.081505 c 0,0 4.68669038,20.304568 17.83332208,22.162643 l 0,-3.684558 C 8.2871348,36.741005 4.9852088,20.810122 4.9852088,20.810122 m 12.9488082,10.421815 0,3.374551 C 10.643757,32.659556 8.6137427,21.301792 8.6137427,21.301792 c 0,0 3.5010773,-5.811178 9.3202743,-6.753051 l 0,3.702332 c -0.004,0 -0.0066,-1.99e-4 -0.0092,-1.99e-4 -3.050995,-0.548932 -5.435499,3.722077 -5.435499,3.722077 0,0 1.340952,7.191406 5.446121,9.260763 m 0,-30.82313601 0,6.39367801 c 0.280139,-0.031593 0.561606,-0.059238 0.843072,-0.073059 10.86436,-0.5489322 17.944847,13.352085 17.944847,13.352085 0,0 -8.130678,14.815245 -16.601239,14.815245 -0.77669,0 -1.502928,-0.108604 -2.185352,-0.288288 l 0,3.949152 c 0.584176,0.110575 1.189596,0.175738 1.820242,0.175738 7.882401,0 13.583435,-6.032331 19.102577,-13.172398 0.914768,1.097864 4.661465,3.769466 5.432844,4.94039 -5.248297,6.583236 -17.48016,11.886949 -24.414603,11.886949 -0.66782,0 -1.310416,-0.06121 -1.94106,-0.152043 l 0,5.554483 29.961626,0 0,-47.38982994 -29.961626,0 z m 0,14.13994101 0,-4.280882 c 0.277484,-0.02567 0.557623,-0.05134 0.843072,-0.06516 7.813365,-0.3672714 12.939515,10.060466 12.939515,10.060466 0,0 -5.536402,11.521653 -11.472433,11.521653 -0.853696,0 -1.619764,-0.205356 -2.310154,-0.552881 l 0,-12.980866 c 3.041702,0.550908 3.65376,2.564975 5.481967,7.13217 l 4.066666,-5.137847 c 0,0 -2.968679,-5.834874 -7.979323,-5.834874 -0.544346,0 -1.064794,0.05726 -1.575948,0.138221"
     id="path13"
     inkscape:connector-curvature="0"
     style="fill-opacity:0.703;fill:#5aa02c" />
</svg>
