<?xml version="1.0" encoding="UTF-8" standalone="no"?>
<svg
   xmlns:dc="http://purl.org/dc/elements/1.1/"
   xmlns:cc="http://creativecommons.org/ns#"
   xmlns:rdf="http://www.w3.org/1999/02/22-rdf-syntax-ns#"
   xmlns:svg="http://www.w3.org/2000/svg"
   xmlns="http://www.w3.org/2000/svg"
   xmlns:sodipodi="http://sodipodi.sourceforge.net/DTD/sodipodi-0.dtd"
   xmlns:inkscape="http://www.inkscape.org/namespaces/inkscape"
   viewBox="0 0 64 64"
   id="svg2"
   version="1.1"
   inkscape:version="0.91 r13725"
   sodipodi:docname="libreoffice-oasis-master-document.svg">
  <metadata
     id="metadata21">
    <rdf:RDF>
      <cc:Work
         rdf:about="">
        <dc:format>image/svg+xml</dc:format>
        <dc:type
           rdf:resource="http://purl.org/dc/dcmitype/StillImage" />
        <dc:title></dc:title>
      </cc:Work>
    </rdf:RDF>
  </metadata>
  <sodipodi:namedview
     pagecolor="#ffffff"
     bordercolor="#666666"
     borderopacity="1"
     objecttolerance="10"
     gridtolerance="10"
     guidetolerance="10"
     inkscape:pageopacity="0"
     inkscape:pageshadow="2"
     inkscape:window-width="1280"
     inkscape:window-height="694"
     id="namedview19"
     showgrid="true"
     inkscape:zoom="3.6875"
     inkscape:cx="-12.20339"
     inkscape:cy="32"
     inkscape:window-x="0"
     inkscape:window-y="0"
     inkscape:window-maximized="1"
     inkscape:current-layer="svg2">
    <inkscape:grid
       type="xygrid"
       id="grid4149" />
  </sodipodi:namedview>
  <defs
     id="defs4">
    <linearGradient
       id="0"
       x1="-74.929"
       y1="52.2"
       x2="-75.26"
       y2="2.356"
       gradientUnits="userSpaceOnUse"
       gradientTransform="matrix(1.07499,0,0,1.02929,56.689,0.25)">
      <stop
         stop-color="#8798a9"
         id="stop7" />
      <stop
         offset="1"
         stop-color="#aeb6be"
         id="stop9" />
    </linearGradient>
  </defs>
  <g
     transform="matrix(1.431433,0,0,0.87455443,66.91265,-1.0220193)"
     id="g11">
    <rect
       width="44"
       height="60.529999"
       x="-46.389999"
       y="1.911"
       rx="2.5"
       id="rect13"
       style="fill:url(#0);stroke-width:1" />
  </g>
  <path
     style="fill:#3d434a;fill-opacity:1;stroke:none;stroke-opacity:0.8"
     inkscape:connector-curvature="0"
     id="path17"
     d="M 57.656498,51.530217 54.868684,48.969359 57.656498,46.4085 c 0.404211,-0.35413 0.538866,-0.796733 0.404211,-1.327811 -0.161436,-0.518504 -0.511587,-0.840968 -1.0507,-0.967393 l -3.798094,-0.910585 1.070788,-3.527321 c 0.161436,-0.518272 0.03397,-0.961109 -0.384126,-1.327811 C 53.508254,37.9555 53.03684,37.835361 52.484336,37.987163 l -3.756928,1.005346 -0.970106,-3.566204 C 47.622648,34.9078 47.279688,34.585336 46.727433,34.458911 46.174929,34.31968 45.703514,34.440051 45.31319,34.819326 l -2.727803,2.636761 -2.727554,-2.636761 c -0.390571,-0.39208 -0.861986,-0.512218 -1.414241,-0.360415 -0.552257,0.126425 -0.895712,0.448889 -1.030366,0.967394 l -0.969858,3.566204 -3.756928,-1.005346 c -0.552257,-0.151802 -1.023671,-0.03167 -1.414242,0.360416 -0.417602,0.366702 -0.545561,0.809305 -0.383876,1.327811 l 1.070786,3.527321 -3.798341,0.910585 c -0.538618,0.126425 -0.889016,0.448889 -1.050453,0.967393 -0.134902,0.531078 0,0.973681 0.403964,1.327811 l 2.788062,2.560859 -2.788062,2.560858 c -0.403964,0.35413 -0.538618,0.796733 -0.403964,1.327811 0.161437,0.518504 0.511835,0.840969 1.050453,0.967393 l 3.798341,0.910352 -1.070786,3.527322 c -0.161685,0.518504 -0.03373,0.960875 0.383876,1.32781 0.390571,0.392079 0.861985,0.511985 1.414242,0.360415 l 3.756928,-1.005112 0.969858,3.565971 c 0.134654,0.518506 0.478109,0.847256 1.030366,0.986253 0.565647,0.126426 1.037061,0 1.414241,-0.379274 l 2.727554,-2.617669 2.727803,2.617902 c 0.269309,0.277762 0.612764,0.416992 1.030118,0.416992 0.09448,0 0.222192,-0.0128 0.384125,-0.03772 0.552255,-0.151803 0.895463,-0.480554 1.030117,-0.986252 l 0.96961,-3.565971 3.756928,1.005112 c 0.552504,0.15157 1.023919,0.03167 1.414242,-0.360416 0.417849,-0.366935 0.54556,-0.809538 0.384124,-1.32781 l -1.070539,-3.527322 3.797845,-0.910352 c 0.539362,-0.126424 0.889264,-0.448889 1.0507,-0.967394 0.134904,-0.53131 2.6e-5,-0.973913 -0.404209,-1.328042" />
</svg>
