<?xml version="1.0" encoding="UTF-8" standalone="no"?>
<svg
   xmlns:dc="http://purl.org/dc/elements/1.1/"
   xmlns:cc="http://creativecommons.org/ns#"
   xmlns:rdf="http://www.w3.org/1999/02/22-rdf-syntax-ns#"
   xmlns:svg="http://www.w3.org/2000/svg"
   xmlns="http://www.w3.org/2000/svg"
   xmlns:sodipodi="http://sodipodi.sourceforge.net/DTD/sodipodi-0.dtd"
   xmlns:inkscape="http://www.inkscape.org/namespaces/inkscape"
   viewBox="0 0 48 48"
   id="svg2"
   version="1.1"
   inkscape:version="0.91 r13725"
   sodipodi:docname="media-flash-memory-stick.svg">
  <metadata
     id="metadata53">
    <rdf:RDF>
      <cc:Work
         rdf:about="">
        <dc:format>image/svg+xml</dc:format>
        <dc:type
           rdf:resource="http://purl.org/dc/dcmitype/StillImage" />
        <dc:title></dc:title>
      </cc:Work>
    </rdf:RDF>
  </metadata>
  <sodipodi:namedview
     pagecolor="#ffffff"
     bordercolor="#666666"
     borderopacity="1"
     objecttolerance="10"
     gridtolerance="10"
     guidetolerance="10"
     inkscape:pageopacity="0"
     inkscape:pageshadow="2"
     inkscape:window-width="1280"
     inkscape:window-height="694"
     id="namedview51"
     showgrid="false"
     inkscape:zoom="4.9166667"
     inkscape:cx="-9.1525424"
     inkscape:cy="24"
     inkscape:window-x="0"
     inkscape:window-y="0"
     inkscape:window-maximized="1"
     inkscape:current-layer="svg2" />
  <defs
     id="defs4">
    <linearGradient
       gradientTransform="matrix(0,1.5357326,0.92308,0,-466.89115,-615.66989)"
       gradientUnits="userSpaceOnUse"
       x2="401.08"
       x1="432.23"
       id="0">
      <stop
         stop-color="#151515"
         id="stop7" />
      <stop
         offset="1"
         stop-color="#3f3f3f"
         id="stop9" />
    </linearGradient>
  </defs>
  <path
     inkscape:connector-curvature="0"
     style="fill:#373e48"
     id="path13"
     d="m 0.0027156,3.2459887 0,32.9519133 c 0,1.462204 0.28892404,1.930169 0.92215692,2.955805 l 4.60801538,7.463519 c 0.9323108,1.510046 0.912003,1.510046 1.8295445,1.510046 l 6.4892526,0 1.84616,0 4.6154,0 1.84616,0 23.989926,0 c 0.01015,0 1.855391,0.02691 1.855391,-2.982716 l 0,-5.033988 c -0.593541,-1.089925 -0.921234,-2.492325 -0.92308,-3.945558 0.0018,-1.453233 0.329539,-2.855633 0.92308,-3.945558 l 0,-28.9914045 c 0,0.044853 0.02215,-2.94533891 -1.793545,-2.94533891 l -21.286224,0 -12.00004,0 -11.0861913,0 c -1.8360061,0 -1.8360061,2.96627031 -1.8360061,2.96627031" />
  <g
     style="fill:#dbdee3"
     id="g15"
     transform="matrix(0.92308,0,0,1.4950959,-353.14,-758.92998)">
    <path
       style="fill-rule:evenodd;fill:#dbdee3"
       inkscape:connector-curvature="0"
       id="path17"
       d="m 393.6,535.69 -3.728,-2.116 3.728,-2.116 z" />
    <g
       style="color:#000000;fill:#dbdee3"
       id="g19"
       transform="matrix(0.36368,0,0,0.36256,593.47,561.43)">
      <circle
         r="2.5"
         id="ellipse21"
         cx="-462.60999"
         cy="-130.50999"
         style="fill:#dbdee3" />
      <circle
         r="3"
         id="ellipse23"
         cx="-458.10999"
         cy="-123.01"
         style="fill:#dbdee3" />
      <circle
         r="1.5"
         id="ellipse25"
         cx="-460.60999"
         cy="-138.50999"
         style="fill:#dbdee3" />
      <path
         inkscape:connector-curvature="0"
         id="path27"
         d="m -452.11,-140.01 -2.844,2.844 4.375,4.375 -4.531,5.156 3,2.625 7,-8 -7,-7"
         style="fill:#dbdee3" />
    </g>
    <path
       inkscape:connector-curvature="0"
       id="path29"
       d="m 401.86,534.91 0,-2.39 0.429,0 0,0.332 0.019,0 q 0.102,-0.171 0.312,-0.288 0.215,-0.122 0.424,-0.122 0.556,0 0.756,0.459 0.293,-0.459 0.834,-0.459 0.424,0 0.639,0.273 0.215,0.268 0.215,0.732 l 0,1.463 -0.449,0 0,-1.395 q 0,-0.361 -0.132,-0.512 -0.132,-0.151 -0.4,-0.151 -0.263,0 -0.439,0.224 -0.171,0.224 -0.171,0.512 l 0,1.322 -0.449,0 0,-1.395 q 0,-0.361 -0.132,-0.512 -0.132,-0.151 -0.4,-0.151 -0.263,0 -0.439,0.224 -0.171,0.224 -0.171,0.512 l 0,1.322 -0.449,0"
       style="fill:#dbdee3" />
    <path
       inkscape:connector-curvature="0"
       id="path31"
       d="m 407.1,534.99 q -0.541,0 -0.883,-0.361 -0.337,-0.361 -0.337,-0.912 0,-0.522 0.327,-0.898 0.332,-0.376 0.844,-0.376 0.532,0 0.849,0.346 0.322,0.346 0.322,0.927 l -0.005,0.083 -1.888,0 q 0.019,0.361 0.239,0.571 0.224,0.21 0.522,0.21 0.483,0 0.654,-0.41 l 0.4,0.166 q -0.117,0.278 -0.385,0.468 -0.268,0.185 -0.659,0.185 m 0.644,-1.561 q -0.015,-0.205 -0.19,-0.39 -0.171,-0.185 -0.512,-0.185 -0.249,0 -0.434,0.156 -0.18,0.156 -0.249,0.42 l 1.385,0"
       style="fill:#dbdee3" />
    <path
       inkscape:connector-curvature="0"
       id="path33"
       d="m 408.62,534.91 0,-2.39 0.429,0 0,0.332 0.019,0 q 0.102,-0.171 0.312,-0.288 0.215,-0.122 0.424,-0.122 0.556,0 0.756,0.459 0.293,-0.459 0.834,-0.459 0.424,0 0.639,0.273 0.215,0.268 0.215,0.732 l 0,1.463 -0.449,0 0,-1.395 q 0,-0.361 -0.132,-0.512 -0.132,-0.151 -0.4,-0.151 -0.263,0 -0.439,0.224 -0.171,0.224 -0.171,0.512 l 0,1.322 -0.449,0 0,-1.395 q 0,-0.361 -0.132,-0.512 -0.132,-0.151 -0.4,-0.151 -0.263,0 -0.439,0.224 -0.171,0.224 -0.171,0.512 l 0,1.322 -0.449,0"
       style="fill:#dbdee3" />
    <path
       inkscape:connector-curvature="0"
       id="path35"
       d="m 412.99,532.81 q 0.346,-0.366 0.883,-0.366 0.537,0 0.883,0.366 0.346,0.361 0.346,0.907 0,0.546 -0.346,0.912 -0.346,0.361 -0.883,0.361 -0.537,0 -0.883,-0.361 -0.346,-0.366 -0.346,-0.912 0,-0.546 0.346,-0.907 m 0.332,1.537 q 0.234,0.234 0.551,0.234 0.317,0 0.546,-0.234 0.234,-0.239 0.234,-0.629 0,-0.39 -0.234,-0.624 -0.229,-0.239 -0.546,-0.239 -0.317,0 -0.551,0.239 -0.229,0.234 -0.229,0.624 0,0.39 0.229,0.629"
       style="fill:#dbdee3" />
    <path
       inkscape:connector-curvature="0"
       id="path37"
       d="m 415.91,534.91 -0.449,0 0,-2.39 0.429,0 0,0.39 0.019,0 q 0.068,-0.195 0.278,-0.322 0.215,-0.127 0.415,-0.127 0.2,0 0.337,0.058 l -0.171,0.42 q -0.088,-0.034 -0.239,-0.034 -0.244,0 -0.434,0.195 -0.185,0.19 -0.185,0.502 l 0,1.307"
       style="fill:#dbdee3" />
    <path
       inkscape:connector-curvature="0"
       id="path39"
       d="m 417.92,535.96 -0.463,0 0.556,-1.205 -0.985,-2.239 0.488,0 0.712,1.717 10e-4,0 0.693,-1.717 0.488,0 -1.498,3.444"
       style="fill:#dbdee3" />
    <path
       inkscape:connector-curvature="0"
       id="path41"
       d="m 421.68,534.99 q -0.4,0 -0.663,-0.195 -0.259,-0.195 -0.38,-0.488 l 0.4,-0.166 q 0.19,0.449 0.649,0.449 0.21,0 0.341,-0.093 0.137,-0.093 0.137,-0.244 0,-0.234 -0.327,-0.317 l -0.483,-0.117 q -0.229,-0.058 -0.434,-0.22 -0.205,-0.166 -0.205,-0.444 0,-0.317 0.278,-0.512 0.283,-0.2 0.668,-0.2 0.317,0 0.566,0.146 0.249,0.141 0.356,0.41 l -0.39,0.161 q -0.132,-0.317 -0.546,-0.317 -0.2,0 -0.337,0.083 -0.137,0.083 -0.137,0.224 0,0.205 0.317,0.278 l 0.473,0.112 q 0.337,0.078 0.498,0.268 0.161,0.19 0.161,0.429 0,0.322 -0.263,0.537 -0.263,0.215 -0.678,0.215"
       style="fill:#dbdee3" />
    <path
       inkscape:connector-curvature="0"
       id="path43"
       d="m 424.02,534.95 q -0.376,0 -0.576,-0.2 -0.195,-0.2 -0.195,-0.566 l 0,-1.254 -0.42,0 0,-0.41 0.42,0 0,-0.732 0.449,0 0,0.732 0.585,0 0,0.41 -0.585,0 0,1.22 q 0,0.39 0.322,0.39 0.122,0 0.205,-0.039 l 0.156,0.385 q -0.146,0.063 -0.361,0.063"
       style="fill:#dbdee3" />
    <path
       inkscape:connector-curvature="0"
       id="path45"
       d="m 425.22,531.92 q -0.093,0.093 -0.224,0.093 -0.132,0 -0.224,-0.093 -0.093,-0.093 -0.093,-0.224 0,-0.132 0.093,-0.224 0.093,-0.093 0.224,-0.093 0.132,0 0.224,0.093 0.093,0.093 0.093,0.224 0,0.132 -0.093,0.224 m 0,2.99 -0.449,0 0,-2.39 0.449,0 0,2.39"
       style="fill:#dbdee3" />
    <path
       inkscape:connector-curvature="0"
       id="path47"
       d="m 426.88,534.99 q -0.537,0 -0.883,-0.361 -0.346,-0.366 -0.346,-0.912 0,-0.546 0.346,-0.907 0.346,-0.366 0.883,-0.366 0.4,0 0.663,0.195 0.263,0.195 0.385,0.493 l -0.41,0.171 q -0.185,-0.449 -0.668,-0.449 -0.298,0 -0.527,0.244 -0.224,0.244 -0.224,0.62 0,0.376 0.224,0.62 0.229,0.244 0.527,0.244 0.502,0 0.693,-0.449 l 0.4,0.171 q -0.122,0.293 -0.395,0.493 -0.268,0.195 -0.668,0.195"
       style="fill:#dbdee3" />
    <path
       inkscape:connector-curvature="0"
       id="path49"
       d="m 428.78,531.42 0,2.151 1.034,-1.049 0.576,0 0,0.019 -0.932,0.932 0.976,1.42 0,0.019 -0.541,0 -0.751,-1.127 -0.361,0.361 0,0.766 -0.449,0 0,-3.493 0.449,0"
       style="fill:#dbdee3" />
  </g>
</svg>
