<?xml version="1.0" encoding="UTF-8" standalone="no"?>
<svg
   xmlns:dc="http://purl.org/dc/elements/1.1/"
   xmlns:cc="http://creativecommons.org/ns#"
   xmlns:rdf="http://www.w3.org/1999/02/22-rdf-syntax-ns#"
   xmlns:svg="http://www.w3.org/2000/svg"
   xmlns="http://www.w3.org/2000/svg"
   xmlns:sodipodi="http://sodipodi.sourceforge.net/DTD/sodipodi-0.dtd"
   xmlns:inkscape="http://www.inkscape.org/namespaces/inkscape"
   viewBox="0 0 64 64"
   id="svg2"
   version="1.1"
   inkscape:version="0.91 r13725"
   sodipodi:docname="appointment-recurring.svg">
  <metadata
     id="metadata22">
    <rdf:RDF>
      <cc:Work
         rdf:about="">
        <dc:format>image/svg+xml</dc:format>
        <dc:type
           rdf:resource="http://purl.org/dc/dcmitype/StillImage" />
        <dc:title></dc:title>
      </cc:Work>
    </rdf:RDF>
  </metadata>
  <sodipodi:namedview
     pagecolor="#ffffff"
     bordercolor="#666666"
     borderopacity="1"
     objecttolerance="10"
     gridtolerance="10"
     guidetolerance="10"
     inkscape:pageopacity="0"
     inkscape:pageshadow="2"
     inkscape:window-width="1280"
     inkscape:window-height="694"
     id="namedview20"
     showgrid="false"
     inkscape:zoom="3.6875"
     inkscape:cx="32"
     inkscape:cy="32"
     inkscape:window-x="0"
     inkscape:window-y="0"
     inkscape:window-maximized="1"
     inkscape:current-layer="svg2" />
  <defs
     id="defs4">
    <linearGradient
       y2="157.23"
       x2="0"
       y1="211.23"
       gradientUnits="userSpaceOnUse"
       id="0">
      <stop
         stop-color="#2fae61"
         id="stop7" />
      <stop
         offset="1"
         stop-color="#4bdf88"
         id="stop9" />
    </linearGradient>
    <linearGradient
       id="1"
       x1="301.25"
       y1="970.76"
       x2="291.65"
       y2="-409.58"
       gradientUnits="userSpaceOnUse"
       gradientTransform="matrix(0.07856236,0,0,0.07239412,10.215587,12.044092)">
      <stop
         stop-color="#dbdada"
         id="stop12" />
      <stop
         offset="1"
         stop-color="#fff"
         id="stop14" />
    </linearGradient>
  </defs>
  <path
     d="m 61.147565,34.257505 -5.46087,0 c -1.381912,0 -2.497024,1.018586 -2.544713,2.274552 -1.134206,9.71312 -10.05441,17.274686 -20.91016,17.274686 -11.617799,0 -21.024856,-8.659063 -21.024856,-19.347331 0,-10.59126 9.473048,-19.198196 20.938438,-19.347328 l 0,3.144077 c 0,1.431593 1.105373,2.072643 2.459004,1.431593 l 17.526477,-8.263789 c 1.353315,-0.641195 1.353315,-1.6773722 0,-2.3187843 L 34.604408,0.85876618 c -1.353314,-0.64104996 -2.459004,0 -2.459004,1.42276162 l 0,3.1703559 C 14.8664,5.6012328 0.69453604,18.546533 0.69453604,34.477584 c 0,16.027335 14.11451396,29.025699 31.53650296,29.025699 16.659932,0 30.307,-11.882771 31.450869,-26.953057 0.0094,-1.264652 -1.143711,-2.292214 -2.535207,-2.292214 z"
     id="path18"
     style="fill:#37c871;fill-opacity:0.85;stroke:url(#1);stroke-width:0.11960852"
     inkscape:connector-curvature="0" />
</svg>
