<?xml version="1.0" encoding="iso-8859-1"?>
<!-- Generator: Adobe Illustrator 18.1.1, SVG Export Plug-In . SVG Version: 6.00 Build 0)  -->
<svg xmlns="http://www.w3.org/2000/svg" xmlns:xlink="http://www.w3.org/1999/xlink" version="1.1" id="Capa_1" x="0px" y="0px" viewBox="0 0 525.153 525.153" style="enable-background:new 0 0 525.153 525.153;" xml:space="preserve" width="512px" height="512px">
<g>
	<path d="M373.909,151.266c-30.721-30.743-70.874-46.213-111.332-46.213v157.524l-111.31,111.332   c61.421,61.465,161.244,61.465,222.905,0C435.614,312.488,435.614,212.665,373.909,151.266z M262.576,0   C117.634,0,0,117.634,0,262.576c0,144.92,117.634,262.576,262.576,262.576c144.92,0,262.576-117.656,262.576-262.576   C525.153,117.634,407.496,0,262.576,0z M262.576,472.637c-116.081,0-210.061-93.98-210.061-210.061s93.98-210.061,210.061-210.061   s210.061,93.98,210.061,210.061S378.657,472.637,262.576,472.637z" fill="#006DF0"/>
</g>
<g>
</g>
<g>
</g>
<g>
</g>
<g>
</g>
<g>
</g>
<g>
</g>
<g>
</g>
<g>
</g>
<g>
</g>
<g>
</g>
<g>
</g>
<g>
</g>
<g>
</g>
<g>
</g>
<g>
</g>
</svg>
