<?xml version="1.0" encoding="UTF-8" standalone="no"?>
<svg
   xmlns:dc="http://purl.org/dc/elements/1.1/"
   xmlns:cc="http://creativecommons.org/ns#"
   xmlns:rdf="http://www.w3.org/1999/02/22-rdf-syntax-ns#"
   xmlns:svg="http://www.w3.org/2000/svg"
   xmlns="http://www.w3.org/2000/svg"
   xmlns:xlink="http://www.w3.org/1999/xlink"
   xmlns:sodipodi="http://sodipodi.sourceforge.net/DTD/sodipodi-0.dtd"
   xmlns:inkscape="http://www.inkscape.org/namespaces/inkscape"
   viewBox="0 0 48 48"
   id="svg2"
   version="1.1"
   inkscape:version="0.91 r13725"
   sodipodi:docname="meeting-attending.svg">
  <metadata
     id="metadata48">
    <rdf:RDF>
      <cc:Work
         rdf:about="">
        <dc:format>image/svg+xml</dc:format>
        <dc:type
           rdf:resource="http://purl.org/dc/dcmitype/StillImage" />
        <dc:title></dc:title>
      </cc:Work>
    </rdf:RDF>
  </metadata>
  <sodipodi:namedview
     pagecolor="#ffffff"
     bordercolor="#666666"
     borderopacity="1"
     objecttolerance="10"
     gridtolerance="10"
     guidetolerance="10"
     inkscape:pageopacity="0"
     inkscape:pageshadow="2"
     inkscape:window-width="1280"
     inkscape:window-height="694"
     id="namedview46"
     showgrid="false"
     inkscape:zoom="4.9166667"
     inkscape:cx="-7.2130425"
     inkscape:cy="24"
     inkscape:window-x="0"
     inkscape:window-y="0"
     inkscape:window-maximized="1"
     inkscape:current-layer="svg2" />
  <defs
     id="defs4">
    <linearGradient
       gradientUnits="userSpaceOnUse"
       y1="545.62"
       x2="0"
       y2="517.62"
       id="linearGradient6">
      <stop
         stop-color="#e3e3e3"
         id="stop8" />
      <stop
         offset="1"
         stop-color="#fcf9f9"
         id="stop10" />
    </linearGradient>
    <linearGradient
       gradientUnits="userSpaceOnUse"
       x2="11.758"
       x1="2.819"
       xlink:href="#2"
       id="linearGradient12" />
    <linearGradient
       gradientUnits="userSpaceOnUse"
       y2="517.3"
       x2="0"
       y1="546.3"
       id="linearGradient14">
      <stop
         stop-color="#00cafe"
         id="stop16" />
      <stop
         offset="1"
         stop-color="#1460f3"
         id="stop18" />
    </linearGradient>
    <linearGradient
       gradientUnits="userSpaceOnUse"
       y2="517.62"
       x2="0"
       y1="545.62"
       xlink:href="#3"
       id="linearGradient20" />
    <linearGradient
       gradientUnits="userSpaceOnUse"
       y2="517.22"
       x2="0"
       y1="545.22"
       xlink:href="#2"
       id="linearGradient22" />
    <linearGradient
       id="3">
      <stop
         stop-color="#d3d3d3"
         id="stop25" />
      <stop
         offset="1"
         stop-color="#fcf9f9"
         id="stop27" />
    </linearGradient>
    <linearGradient
       gradientUnits="userSpaceOnUse"
       y2="505.33"
       x2="355.69"
       y1="547"
       x1="355.73"
       id="0"
       gradientTransform="matrix(0.9746,0,0,0.9746,-322.33,-489.99)">
      <stop
         stop-color="#1074f5"
         id="stop30" />
      <stop
         offset="1"
         stop-color="#02befd"
         id="stop32" />
    </linearGradient>
    <linearGradient
       id="2">
      <stop
         stop-color="#333538"
         id="stop35" />
      <stop
         offset="1"
         stop-color="#566069"
         id="stop37" />
    </linearGradient>
    <linearGradient
       gradientTransform="matrix(-0.55334864,0,0,0.60251721,242.22654,-283.2481)"
       gradientUnits="userSpaceOnUse"
       y2="507.87"
       x2="0"
       y1="546.8"
       id="1"
       xlink:href="#3" />
  </defs>
  <path
     inkscape:connector-curvature="0"
     style="fill:#3771c8"
     id="path42"
     d="M 40.922912,6.488384 C 36.39687,2.3634171 30.387486,0.09190186 24.001907,0.09190186 c -6.385579,0 -12.394963,2.27151524 -16.9210054,6.39648214 -4.5650264,4.160988 -7.0794944,9.706061 -7.0794944,15.615713 0,5.640038 2.2912846,10.948245 6.4693948,15.03719 -0.075044,0.18993 -0.1354694,0.389683 -0.1734788,0.599262 l -1.3732114,7.562256 c -0.1627582,0.898346 0.056527,1.434297 0.2689896,1.72574 0.2455992,0.336198 0.6100996,0.521762 1.0252792,0.521762 0.3138212,0 0.6510328,-0.103702 1.0028634,-0.30891 l 7.984898,-4.645636 c 2.763965,0.996586 5.736495,1.519439 8.790892,1.519439 6.385579,0 12.394963,-2.271516 16.921005,-6.396483 4.565026,-4.160988 7.079494,-9.706062 7.079494,-15.615712 0,-5.90856 -2.514468,-11.454724 -7.079494,-15.6157126" />
  <path
     inkscape:connector-curvature="0"
     style="fill:#d7e3f4"
     id="path44"
     d="m 27.21029,25.993772 c 2.263021,-2.182558 5.267713,-3.384131 8.460503,-3.384131 3.192789,0 6.197481,1.201573 8.460502,3.384131 2.282513,2.200587 3.539747,5.133996 3.539747,8.259359 0,2.983253 -1.146129,5.790459 -3.234697,7.953927 0.03801,0.100753 0.06725,0.205741 0.08674,0.317096 l 0.686119,4.000295 c 0.08187,0.475115 -0.02826,0.759335 -0.134495,0.913111 -0.1228,0.178168 -0.30505,0.275736 -0.51264,0.275736 -0.15691,0 -0.325516,-0.05515 -0.500944,-0.16332 l -3.991962,-2.457234 c -1.381982,0.527081 -2.868247,0.803877 -4.397395,0.803877 -3.192789,0 -6.197481,-1.201573 -8.460502,-3.38413 -2.282514,-2.200587 -3.539748,-5.133995 -3.539748,-8.259358 0,-3.125363 1.257234,-6.058772 3.539748,-8.259359" />
</svg>
