<?xml version="1.0" encoding="UTF-8" standalone="no"?>
<svg
   xmlns:dc="http://purl.org/dc/elements/1.1/"
   xmlns:cc="http://creativecommons.org/ns#"
   xmlns:rdf="http://www.w3.org/1999/02/22-rdf-syntax-ns#"
   xmlns:svg="http://www.w3.org/2000/svg"
   xmlns="http://www.w3.org/2000/svg"
   xmlns:sodipodi="http://sodipodi.sourceforge.net/DTD/sodipodi-0.dtd"
   xmlns:inkscape="http://www.inkscape.org/namespaces/inkscape"
   viewBox="0 0 48 48"
   id="svg2"
   version="1.1"
   inkscape:version="0.91 r13725"
   sodipodi:docname="view-statistics.svg">
  <metadata
     id="metadata29">
    <rdf:RDF>
      <cc:Work
         rdf:about="">
        <dc:format>image/svg+xml</dc:format>
        <dc:type
           rdf:resource="http://purl.org/dc/dcmitype/StillImage" />
        <dc:title></dc:title>
      </cc:Work>
    </rdf:RDF>
  </metadata>
  <sodipodi:namedview
     pagecolor="#ffffff"
     bordercolor="#666666"
     borderopacity="1"
     objecttolerance="10"
     gridtolerance="10"
     guidetolerance="10"
     inkscape:pageopacity="0"
     inkscape:pageshadow="2"
     inkscape:window-width="1280"
     inkscape:window-height="694"
     id="namedview27"
     showgrid="false"
     inkscape:zoom="4.9166667"
     inkscape:cx="-9.1525424"
     inkscape:cy="24"
     inkscape:window-x="0"
     inkscape:window-y="0"
     inkscape:window-maximized="1"
     inkscape:current-layer="svg2" />
  <defs
     id="defs4">
    <linearGradient
       gradientUnits="userSpaceOnUse"
       y2="517.8"
       x2="0"
       y1="545.8"
       id="linearGradient6">
      <stop
         stop-color="#3889e9"
         id="stop8" />
      <stop
         offset="1"
         stop-color="#5ea5fb"
         id="stop10" />
    </linearGradient>
    <linearGradient
       y2="517.77"
       x2="400.7"
       y1="546.07"
       x1="400.51"
       gradientUnits="userSpaceOnUse"
       id="0">
      <stop
         stop-color="#ff9300"
         id="stop13" />
      <stop
         offset="1"
         stop-color="#ffd702"
         id="stop15" />
    </linearGradient>
  </defs>
  <path
     style="fill:#554400;stroke:none;stroke-width:1.97634614"
     inkscape:connector-curvature="0"
     id="path25"
     d="m 43.803308,14.931738 c -0.453864,0 -0.882599,-0.182531 -1.286199,-0.472257 l -5.943137,18.235412 c 0.824943,1.529759 1.345337,3.679533 1.345337,6.078474 0,4.629835 -1.915997,8.381796 -4.278469,8.381796 -2.362472,0 -4.27699,-3.751961 -4.27699,-8.381796 0,-1.283491 0.158188,-2.485858 0.421341,-3.575234 L 21.982236,24.023368 c -0.607618,1.016939 -1.385253,1.65144 -2.245678,1.65144 -0.950606,0 -1.812508,-0.753287 -2.439349,-1.964347 l -7.9803623,9.781181 c 0.4080368,1.393588 0.6445806,3.007367 0.6445806,4.728346 0,5.267232 -2.1776744,9.534912 -4.863912,9.534912 -2.6862396,0 -4.86391205,-4.26768 -4.86391205,-9.534912 0,-5.267238 2.17767245,-9.534915 4.86391205,-9.534915 1.2226282,0 2.3388173,0.892361 3.1933265,2.35548 l 8.1651632,-10.01296 c -0.116816,-0.683758 -0.195149,-1.405175 -0.195149,-2.16716 0,-3.760657 1.55527,-6.811481 3.474223,-6.811481 1.920433,0 3.4757,3.050824 3.4757,6.811481 0,0.935819 -0.09758,1.828176 -0.273502,2.64231 l 7.789652,11.154486 c 0.764328,-1.396482 1.781462,-2.268562 2.909474,-2.268562 0.560313,0 1.091054,0.225983 1.581881,0.608426 l 5.928355,-18.209338 c -0.680061,-1.326947 -1.099924,-3.1638176 -1.099924,-5.1919051 0,-4.0532782 1.675018,-7.33588478 3.74329,-7.33588478 2.06679,0 3.743288,3.28260658 3.743288,7.33588478 0,4.0532801 -1.675019,7.3329881 -3.741809,7.3329881 z" />
</svg>
