<?xml version="1.0" encoding="UTF-8" standalone="no"?>
<svg
   xmlns:dc="http://purl.org/dc/elements/1.1/"
   xmlns:cc="http://creativecommons.org/ns#"
   xmlns:rdf="http://www.w3.org/1999/02/22-rdf-syntax-ns#"
   xmlns:svg="http://www.w3.org/2000/svg"
   xmlns="http://www.w3.org/2000/svg"
   xmlns:sodipodi="http://sodipodi.sourceforge.net/DTD/sodipodi-0.dtd"
   xmlns:inkscape="http://www.inkscape.org/namespaces/inkscape"
   viewBox="0 0 64 64"
   id="svg2"
   version="1.1"
   inkscape:version="0.91 r13725"
   sodipodi:docname="application-x-compress.svg">
  <metadata
     id="metadata19">
    <rdf:RDF>
      <cc:Work
         rdf:about="">
        <dc:format>image/svg+xml</dc:format>
        <dc:type
           rdf:resource="http://purl.org/dc/dcmitype/StillImage" />
        <dc:title></dc:title>
      </cc:Work>
    </rdf:RDF>
  </metadata>
  <sodipodi:namedview
     pagecolor="#ffffff"
     bordercolor="#666666"
     borderopacity="1"
     objecttolerance="10"
     gridtolerance="10"
     guidetolerance="10"
     inkscape:pageopacity="0"
     inkscape:pageshadow="2"
     inkscape:window-width="1280"
     inkscape:window-height="694"
     id="namedview17"
     showgrid="true"
     inkscape:zoom="3.6875"
     inkscape:cx="-0.95835576"
     inkscape:cy="32"
     inkscape:window-x="0"
     inkscape:window-y="0"
     inkscape:window-maximized="1"
     inkscape:current-layer="svg2">
    <inkscape:grid
       type="xygrid"
       id="grid4137" />
  </sodipodi:namedview>
  <defs
     id="defs4">
    <linearGradient
       id="0"
       x1="-74.929"
       y1="59.57"
       x2="-75.26"
       y2="2.356"
       gradientUnits="userSpaceOnUse"
       gradientTransform="matrix(1.07499,0,0,1.02929,113.079,0.074)">
      <stop
         stop-color="#d1d7df"
         id="stop7" />
      <stop
         offset="1"
         stop-color="#eaf0f2"
         id="stop9" />
    </linearGradient>
  </defs>
  <rect
     style="fill:#dbe2e3"
     id="rect13"
     rx="3.563174"
     y="0.65025425"
     x="0.77966195"
     height="52.936779"
     width="62.711864" />
  <path
     style="fill:#374548"
     inkscape:connector-curvature="0"
     id="path15"
     d="m 28.893575,34.370681 c -0.957182,0 -1.728685,0.654673 -1.728685,1.469949 l 0,26.483592 c 0,0.815275 0.771503,1.469948 1.728685,1.469948 l 27.635938,0 c 0.957182,0 1.728686,-0.654673 1.728686,-1.469948 l 0,-26.483592 c 0,-0.815276 -0.771504,-1.469949 -1.728686,-1.469949 l -27.635938,0 m 12.92124,0.816502 1.917244,0 c 0.424615,0 0.767186,0.291783 0.767186,0.653447 l 0,0.165507 c 0,0.361664 -0.342571,0.653446 -0.767186,0.653446 l -1.917244,0 c -0.424614,0 -0.767184,-0.291782 -0.767184,-0.653446 l 0,-0.165507 c 0,-0.361664 0.34257,-0.653447 0.767184,-0.653447 m -0.0086,2.128299 1.920122,0 c 0.424615,0 0.767186,0.291783 0.767186,0.653447 l 0,0.163054 c 0,0.361664 -0.342571,0.653447 -0.767186,0.653447 l -1.920122,0 c -0.424615,0 -0.767184,-0.291783 -0.767184,-0.653447 l 0,-0.163054 c 0,-0.361664 0.342569,-0.653447 0.767184,-0.653447 m -0.02303,2.102554 1.920122,0 c 0.424615,0 0.767186,0.291782 0.767186,0.653447 l 0,0.163054 c 0,0.361664 -0.342571,0.653447 -0.767186,0.653447 l -1.920122,0 c -0.424615,0 -0.767184,-0.291783 -0.767184,-0.653447 l 0,-0.163054 c 0,-0.361665 0.342569,-0.653447 0.767184,-0.653447 m 0.03886,2.188372 1.920123,0 c 0.424614,0 0.767185,0.291783 0.767185,0.653447 l 0,0.163054 c 0,0.361664 -0.342571,0.653447 -0.767185,0.653447 l -1.920123,0 c -0.424614,0 -0.767184,-0.291783 -0.767184,-0.653447 l 0,-0.163054 c 0,-0.361664 0.34257,-0.653447 0.767184,-0.653447 m 0,2.150366 1.920123,0 c 0.424614,0 0.767185,0.291783 0.767185,0.653447 l 0,0.163055 c 0,0.361664 -0.342571,0.653446 -0.767185,0.653446 l -1.920123,0 c -0.424614,0 -0.767184,-0.291782 -0.767184,-0.653446 l 0,-0.163055 c 0,-0.361664 0.34257,-0.653447 0.767184,-0.653447 m 0,2.200631 1.920123,0 c 0.424614,0 0.767185,0.291784 0.767185,0.653447 l 0,0.163056 c 0,0.361664 -0.342571,0.653447 -0.767185,0.653447 l -1.920123,0 c -0.424614,0 -0.767184,-0.291783 -0.767184,-0.653447 l 0,-0.163056 c 0,-0.361663 0.34257,-0.653447 0.767184,-0.653447 m 0.154013,2.223926 1.521417,0 c 0.302267,0 0.5484,0.208417 0.5484,0.467099 l 0,0.929291 0.846351,2.125848 c 0.237496,0.592147 0.123787,1.251723 -0.303708,1.762956 -0.427493,0.510007 -1.119831,0.814051 -1.852471,0.814051 -0.732641,0 -1.424978,-0.30527 -1.852471,-0.814051 -0.427494,-0.510007 -0.541205,-1.169583 -0.303708,-1.762956 l 0.849229,-2.125848 0,-0.929291 c 0,-0.258682 0.246132,-0.467099 0.548401,-0.467099 m -0.06765,3.11276 -0.286435,0.71352 c -0.122347,0.306495 -0.06333,0.646091 0.156891,0.909676 0.439008,0.525944 1.472477,0.525944 1.911486,0 0.220224,-0.263585 0.279238,-0.604407 0.156891,-0.909676 l -0.283556,-0.71352 -1.655277,0" />
</svg>
