<?xml version="1.0" encoding="UTF-8" standalone="no"?>
<svg
   xmlns:dc="http://purl.org/dc/elements/1.1/"
   xmlns:cc="http://creativecommons.org/ns#"
   xmlns:rdf="http://www.w3.org/1999/02/22-rdf-syntax-ns#"
   xmlns:svg="http://www.w3.org/2000/svg"
   xmlns="http://www.w3.org/2000/svg"
   xmlns:sodipodi="http://sodipodi.sourceforge.net/DTD/sodipodi-0.dtd"
   xmlns:inkscape="http://www.inkscape.org/namespaces/inkscape"
   viewBox="0 0 64 64"
   id="svg2"
   version="1.1"
   inkscape:version="0.91 r13725"
   sodipodi:docname="application-x-tzo.svg">
  <metadata
     id="metadata19">
    <rdf:RDF>
      <cc:Work
         rdf:about="">
        <dc:format>image/svg+xml</dc:format>
        <dc:type
           rdf:resource="http://purl.org/dc/dcmitype/StillImage" />
        <dc:title></dc:title>
      </cc:Work>
    </rdf:RDF>
  </metadata>
  <sodipodi:namedview
     pagecolor="#ffffff"
     bordercolor="#666666"
     borderopacity="1"
     objecttolerance="10"
     gridtolerance="10"
     guidetolerance="10"
     inkscape:pageopacity="0"
     inkscape:pageshadow="2"
     inkscape:window-width="1280"
     inkscape:window-height="694"
     id="namedview17"
     showgrid="true"
     inkscape:zoom="3.6875"
     inkscape:cx="-56.40678"
     inkscape:cy="32"
     inkscape:window-x="0"
     inkscape:window-y="0"
     inkscape:window-maximized="1"
     inkscape:current-layer="svg2">
    <inkscape:grid
       type="xygrid"
       id="grid4149" />
  </sodipodi:namedview>
  <defs
     id="defs4">
    <linearGradient
       id="0"
       x1="-74.929"
       y1="52.2"
       x2="-75.26"
       y2="2.356"
       gradientUnits="userSpaceOnUse"
       gradientTransform="matrix(1.5454017,0,0,0.90478153,148.69446,-1.0810087)">
      <stop
         stop-color="#e0494c"
         id="stop7" />
      <stop
         offset="1"
         stop-color="#ff705c"
         id="stop9" />
    </linearGradient>
  </defs>
  <rect
     style="fill:#ff5555"
     id="rect13"
     rx="3.5939908"
     y="0.37906781"
     x="0.50847554"
     height="53.207962"
     width="63.254234" />
  <path
     style="fill:#632222"
     inkscape:connector-curvature="0"
     id="path15"
     d="m 28.114779,34.100274 c -0.981285,0 -1.772437,0.661376 -1.772437,1.484723 l 0,26.72636 c 0,0.821997 0.78954,1.484723 1.772437,1.484723 l 28.35899,0 c 0.981286,0 1.77566,-0.661377 1.77566,-1.484723 l 0,-26.72636 c 0,-0.821997 -0.792763,-1.484723 -1.77566,-1.484723 l -28.35899,0 m 13.259439,0.824696 1.970628,0 c 0.436664,0 0.786317,0.294246 0.786317,0.658678 l 0,0.166018 c 0,0.365782 -0.351264,0.658677 -0.786317,0.658677 l -1.970628,0 c -0.436664,0 -0.786317,-0.294245 -0.786317,-0.658677 l 0,-0.166018 c 0,-0.365782 0.351264,-0.658678 0.786317,-0.658678 m -0.0065,2.146099 1.970628,0 c 0.436664,0 0.786317,0.295595 0.786317,0.661377 l 0,0.163319 c 0,0.365782 -0.351264,0.661377 -0.786317,0.661377 l -1.970626,0 c -0.436665,0 -0.78954,-0.295595 -0.78954,-0.661377 l 0,-0.163319 c 0,-0.365782 0.352875,-0.661377 0.78954,-0.661377 m -0.02255,2.121804 1.970628,0 c 0.436664,0 0.786317,0.294245 0.786317,0.658677 l 0,0.16602 c 0,0.365781 -0.351264,0.658676 -0.786317,0.658676 l -1.970628,0 c -0.436664,0 -0.78954,-0.294244 -0.78954,-0.658676 l 0,-0.16602 c 0,-0.365782 0.352876,-0.658677 0.78954,-0.658677 m 0.03706,2.209538 1.970627,0 c 0.436664,0 0.786318,0.294246 0.786318,0.658678 l 0,0.166018 c 0,0.365782 -0.351266,0.658678 -0.786318,0.658678 l -1.970627,0 c -0.436664,0 -0.786318,-0.294246 -0.786318,-0.658678 l 0,-0.166018 c 0,-0.365782 0.351266,-0.658678 0.786318,-0.658678 m 0,2.169045 1.970627,0 c 0.436664,0 0.786318,0.294245 0.786318,0.658677 l 0,0.16602 c 0,0.365781 -0.351266,0.658676 -0.786318,0.658676 l -1.970627,0 c -0.436664,0 -0.786318,-0.294244 -0.786318,-0.658676 l 0,-0.16602 c 0,-0.365782 0.351266,-0.658677 0.786318,-0.658677 m 0,2.220335 1.970627,0 c 0.436664,0 0.786318,0.295595 0.786318,0.661377 l 0,0.163319 c 0,0.365782 -0.351266,0.661377 -0.786318,0.661377 l -1.970627,0 c -0.436664,0 -0.786318,-0.295595 -0.786318,-0.661377 l 0,-0.163319 c 0,-0.365782 0.351266,-0.661377 0.786318,-0.661377 m 0.157908,2.245982 1.564578,0 c 0.310982,0 0.560735,0.21056 0.560735,0.472411 l 0,0.938075 0.868494,2.146099 c 0.243307,0.597939 0.127291,1.262015 -0.310983,1.776269 -0.438274,0.514254 -1.14886,0.821996 -1.901341,0.821996 -0.75248,0 -1.463066,-0.307742 -1.901342,-0.821996 -0.438274,-0.515604 -0.554288,-1.17833 -0.310981,-1.776269 l 0.868494,-2.146099 0,-0.938075 c 0,-0.260501 0.252975,-0.472411 0.563957,-0.472411 m -0.06929,3.142213 -0.290035,0.719416 c -0.125681,0.309092 -0.06607,0.651927 0.161131,0.917828 0.451166,0.53045 1.509793,0.53045 1.960959,0 0.225583,-0.265901 0.285202,-0.608736 0.161131,-0.917828 l -0.290035,-0.719416 -1.703151,0" />
</svg>
