<?xml version="1.0" encoding="UTF-8" standalone="no"?>
<svg
   xmlns:dc="http://purl.org/dc/elements/1.1/"
   xmlns:cc="http://creativecommons.org/ns#"
   xmlns:rdf="http://www.w3.org/1999/02/22-rdf-syntax-ns#"
   xmlns:svg="http://www.w3.org/2000/svg"
   xmlns="http://www.w3.org/2000/svg"
   xmlns:sodipodi="http://sodipodi.sourceforge.net/DTD/sodipodi-0.dtd"
   xmlns:inkscape="http://www.inkscape.org/namespaces/inkscape"
   viewBox="0 0 64 64"
   id="svg2"
   version="1.1"
   inkscape:version="0.91 r13725"
   sodipodi:docname="application-x-sif.svg">
  <metadata
     id="metadata19">
    <rdf:RDF>
      <cc:Work
         rdf:about="">
        <dc:format>image/svg+xml</dc:format>
        <dc:type
           rdf:resource="http://purl.org/dc/dcmitype/StillImage" />
        <dc:title></dc:title>
      </cc:Work>
    </rdf:RDF>
  </metadata>
  <sodipodi:namedview
     pagecolor="#ffffff"
     bordercolor="#666666"
     borderopacity="1"
     objecttolerance="10"
     gridtolerance="10"
     guidetolerance="10"
     inkscape:pageopacity="0"
     inkscape:pageshadow="2"
     inkscape:window-width="1280"
     inkscape:window-height="694"
     id="namedview17"
     showgrid="true"
     inkscape:zoom="3.6875"
     inkscape:cx="-12.20339"
     inkscape:cy="32"
     inkscape:window-x="0"
     inkscape:window-y="0"
     inkscape:window-maximized="1"
     inkscape:current-layer="svg2">
    <inkscape:grid
       type="xygrid"
       id="grid4147" />
  </sodipodi:namedview>
  <defs
     id="defs4">
    <linearGradient
       id="0"
       x1="-74.929"
       y1="52.2"
       x2="-75.26"
       y2="2.356"
       gradientUnits="userSpaceOnUse"
       gradientTransform="matrix(1.07499,0,0,1.02929,56.689,0.25)">
      <stop
         stop-color="#197cf1"
         id="stop7" />
      <stop
         offset="1"
         stop-color="#20bcfa"
         id="stop9" />
    </linearGradient>
  </defs>
  <g
     transform="matrix(1.4437596,0,0,0.87903463,67.484483,-1.3017674)"
     id="g11">
    <rect
       width="44"
       height="60.529999"
       x="-46.389999"
       y="1.911"
       rx="2.5"
       id="rect13"
       style="fill:url(#0);stroke-width:1" />
  </g>
  <path
     d="m 42.771883,34.245538 c -0.136917,-0.0031 -0.270722,0.03358 -0.365631,0.100732 -1.372282,0.965348 -2.766347,2.048216 -4.026606,3.079669 -1.56e-4,1.05e-4 -0.0031,0.0031 -0.0047,0.0031 -3.105528,2.611685 -5.465792,5.29892 -7.175699,8.167681 -1.593217,2.676742 -2.525187,4.991478 -3.373139,8.363899 -0.185149,0.738701 -0.37341,1.633746 -0.502548,2.35356 -0.06535,0.359907 -0.115135,0.675743 -0.14314,0.909735 -0.014,0.116472 -0.02178,0.213006 -0.02489,0.290654 -1.56e-4,0.03882 -1.56e-4,0.07135 0.0047,0.111225 0.0031,0.01994 0.0062,0.04197 0.02023,0.07765 0.0016,0.03672 0.0031,0.110176 0.220934,0.201464 0.116691,0.04932 0.133805,0.03882 0.161811,0.04407 0.02956,0.0042 0.05134,0.0084 0.07468,10e-4 0.04668,0.0052 0.09802,0.0094 0.155588,0.01259 0.115134,0.0084 0.256719,0.01574 0.407639,0.02099 1.190245,0.04407 2.945273,0.247633 4.110624,0.477427 0.785717,0.155295 1.303824,0.283309 2.070871,0.513104 0.17737,0.05351 0.339181,0.101781 0.460539,0.136408 0.06068,0.01784 0.110467,0.03148 0.147808,0.04197 0.01712,0.0052 0.03267,0.0094 0.04823,0.01259 1.56e-4,0 1.56e-4,1.05e-4 0.0031,1.05e-4 1.56e-4,0 1.56e-4,1.05e-4 0.0031,1.05e-4 0.0047,0.0021 0.01089,0.0031 0.02023,0.0073 0,-1.05e-4 -0.0031,-0.0031 -0.0047,-0.0031 0.0031,1.05e-4 0.0047,1.05e-4 0.0062,0.0021 0.0062,0.0021 0.014,0.0031 0.02801,0.0073 0.0047,1.05e-4 0.01089,0.0031 0.01712,0.0052 -0.0047,-1.05e-4 -0.01712,0 -0.01867,-1.05e-4 0.03423,0.01259 0.07468,0.02728 0.129138,0.04827 0.129137,0.04827 0.308063,0.114373 0.502548,0.188873 1.877942,0.712468 3.282898,1.445923 5.526471,2.896043 0.295616,0.190971 0.571006,0.364104 0.779493,0.492117 0.104244,0.06401 0.191373,0.116472 0.259832,0.156345 0.03423,0.01994 0.06379,0.03568 0.09491,0.05142 0.0016,0.0084 0.03112,0.01574 0.05601,0.02728 0.014,0.0052 0.02956,0.01154 0.05757,0.02098 0.02956,0.0094 0.05757,0.02833 0.191373,0.03253 0.160255,0.0052 0.192928,-0.01889 0.225602,-0.02833 0.03267,-10e-4 0.04979,-0.01679 0.06379,-0.02204 0.02801,-0.01154 0.04356,-0.01994 0.06068,-0.02833 0.03267,-0.01679 0.06224,-0.03358 0.09958,-0.05456 0.07468,-0.04197 0.16959,-0.09863 0.283169,-0.167886 0.227158,-0.137457 0.527442,-0.32528 0.851064,-0.531991 1.85616,-1.186748 2.753901,-1.688309 4.046833,-2.266468 2.822359,-1.262297 5.336655,-1.823668 9.196782,-2.04297 l 0.312732,-0.01784 c 0.252051,-0.01364 0.44498,-0.156344 0.44498,-0.326329 l 0,-0.123817 c 0,-0.259175 -0.0918,-0.793264 -0.214711,-1.454317 -0.122914,-0.662103 -0.280058,-1.415494 -0.423198,-1.987357 -0.846397,-3.402851 -1.809484,-5.799432 -3.422927,-8.509751 -1.453188,-2.4417 -3.53495,-4.907534 -6.022795,-7.140425 -0.0047,-0.0052 -0.01245,-0.001 -0.01711,-0.01469 -1.674122,-1.336797 -3.293789,-2.739699 -5.059708,-4.039771 -0.08869,-0.06506 -0.211599,-0.103879 -0.343849,-0.107027"
     id="path15"
     inkscape:connector-curvature="0"
     style="fill:#aaccff;fill-opacity:0.87999998" />
</svg>
