<?xml version="1.0" encoding="UTF-8" standalone="no"?>
<svg
   xmlns:dc="http://purl.org/dc/elements/1.1/"
   xmlns:cc="http://creativecommons.org/ns#"
   xmlns:rdf="http://www.w3.org/1999/02/22-rdf-syntax-ns#"
   xmlns:svg="http://www.w3.org/2000/svg"
   xmlns="http://www.w3.org/2000/svg"
   xmlns:sodipodi="http://sodipodi.sourceforge.net/DTD/sodipodi-0.dtd"
   xmlns:inkscape="http://www.inkscape.org/namespaces/inkscape"
   viewBox="0 0 64 64"
   id="svg2"
   version="1.1"
   inkscape:version="0.91 r13725"
   sodipodi:docname="application-x-perl.svg">
  <metadata
     id="metadata19">
    <rdf:RDF>
      <cc:Work
         rdf:about="">
        <dc:format>image/svg+xml</dc:format>
        <dc:type
           rdf:resource="http://purl.org/dc/dcmitype/StillImage" />
        <dc:title></dc:title>
      </cc:Work>
    </rdf:RDF>
  </metadata>
  <sodipodi:namedview
     pagecolor="#ffffff"
     bordercolor="#666666"
     borderopacity="1"
     objecttolerance="10"
     gridtolerance="10"
     guidetolerance="10"
     inkscape:pageopacity="0"
     inkscape:pageshadow="2"
     inkscape:window-width="1280"
     inkscape:window-height="694"
     id="namedview17"
     showgrid="true"
     inkscape:zoom="3.6875"
     inkscape:cx="-12.20339"
     inkscape:cy="32"
     inkscape:window-x="0"
     inkscape:window-y="0"
     inkscape:window-maximized="1"
     inkscape:current-layer="svg2">
    <inkscape:grid
       type="xygrid"
       id="grid4149" />
  </sodipodi:namedview>
  <defs
     id="defs4">
    <linearGradient
       id="0"
       x1="-74.929"
       y1="52.2"
       x2="-75.26"
       y2="2.356"
       gradientUnits="userSpaceOnUse"
       gradientTransform="matrix(1.5454017,0,0,0.90017013,148.69446,-0.80238067)">
      <stop
         stop-color="#197cf1"
         id="stop7" />
      <stop
         offset="1"
         stop-color="#20bcfa"
         id="stop9" />
    </linearGradient>
  </defs>
  <rect
     style="fill:url(#0)"
     id="rect13"
     rx="3.5939908"
     y="0.65025425"
     x="0.50847554"
     height="52.936779"
     width="63.254234" />
  <path
     style="fill:#0b3969"
     inkscape:connector-curvature="0"
     id="path15"
     d="m 55.533301,36.048683 c -1.008576,-0.04903 -1.184291,-1.285406 -2.170008,-1.342388 -0.518574,-0.03048 -1.498578,-0.07156 -2.351438,0.216001 -0.950003,-0.602948 -2.170009,-1.341062 -0.387145,1.534536 -0.387144,1.940035 -1.678577,7.37982 -3.048583,7.402347 -1.368577,0.02386 -2.272866,-2.299154 -3.435726,-2.2753 -1.162862,0.02252 -1.162862,0.02252 -1.162862,0.02252 -1.368577,0 -2.270009,-2.246147 -5.037163,-2.323006 -1.731435,-0.0477 -3.100012,2.777536 -6.948598,3.088949 -1.032861,0.07156 -2.622867,0.445254 -2.782868,2.650321 0,0 -2.270009,1.967864 -1.201433,6.515815 0.267144,-2.263374 0.400002,-4.16233 1.201433,-5.400029 -0.06,1.236375 0.355716,2.435645 0,3.71575 -0.355715,1.27878 -1.487148,3.46662 -1.487148,3.46662 0,0 -0.248572,0.45453 0.375715,2.02352 0.62286,1.567665 1.86858,5.453036 1.86858,5.453036 0.06286,0.682458 0.167142,1.041576 0.682859,1.352989 -0.129996,0.453205 -0.565717,1.364915 0.984289,1.364915 0.664289,0 0,0 1.502863,0 1.050005,0 0.708574,-0.837501 -0.987147,-1.604769 0.05143,-0.57512 -0.335715,-1.174092 -0.594288,-1.294682 -0.620001,-1.461651 -1.420005,-4.261716 -1.420005,-4.261716 0,0 -0.284287,-2.444921 0.697146,-3.261221 0.981432,-0.813649 2.16715,-1.579592 2.968582,-4.286894 0.02572,-0.192149 1.368577,0.959416 4.05573,1.676329 2.685725,0.719562 4.747161,-0.04903 5.047162,0.07156 0.300002,0.120587 0.945719,1.580916 0.945719,2.996188 0,1.413946 -0.54286,2.348185 -0.54286,2.899451 0,0.551267 0.438573,1.509359 0.438573,1.509359 0,0 0.258572,2.635744 -0.07715,4.121249 -0.232857,0.932912 -0.620002,1.40732 0.930005,1.409971 1.550005,0.0027 3.668585,0.314063 0.904289,-1.386119 0.231429,-0.527413 0.05143,-1.246975 -0.207144,-1.509357 -0.05143,-1.294682 0.104291,-2.565511 0.36143,-3.0916 0.258573,-0.527413 0.07857,-2.036772 0.129997,-2.802715 0.05142,-0.767268 0.801431,-3.522277 1.627148,-4.50422 0.827146,-0.983269 4.494303,-3.881395 5.115734,-6.709288 0.620003,-2.827893 1.291434,-5.704817 3.100013,-5.679639 1.084289,0 1.265718,0.57512 1.730006,0.551267 0.465716,-0.02518 1.291433,-0.740765 1.291433,-1.125062 0,-0.382971 -0.10285,-1.168791 -2.11715,-1.192644" />
</svg>
