<?xml version="1.0" encoding="UTF-8" standalone="no"?>
<svg
   xmlns:dc="http://purl.org/dc/elements/1.1/"
   xmlns:cc="http://creativecommons.org/ns#"
   xmlns:rdf="http://www.w3.org/1999/02/22-rdf-syntax-ns#"
   xmlns:svg="http://www.w3.org/2000/svg"
   xmlns="http://www.w3.org/2000/svg"
   xmlns:sodipodi="http://sodipodi.sourceforge.net/DTD/sodipodi-0.dtd"
   xmlns:inkscape="http://www.inkscape.org/namespaces/inkscape"
   viewBox="0 0 64 64"
   id="svg2"
   version="1.1"
   inkscape:version="0.91 r13725"
   sodipodi:docname="application-vnd.android.package-archive.svg">
  <metadata
     id="metadata19">
    <rdf:RDF>
      <cc:Work
         rdf:about="">
        <dc:format>image/svg+xml</dc:format>
        <dc:type
           rdf:resource="http://purl.org/dc/dcmitype/StillImage" />
        <dc:title></dc:title>
      </cc:Work>
    </rdf:RDF>
  </metadata>
  <sodipodi:namedview
     pagecolor="#ffffff"
     bordercolor="#666666"
     borderopacity="1"
     objecttolerance="10"
     gridtolerance="10"
     guidetolerance="10"
     inkscape:pageopacity="0"
     inkscape:pageshadow="2"
     inkscape:window-width="1280"
     inkscape:window-height="694"
     id="namedview17"
     showgrid="true"
     inkscape:zoom="3.6875"
     inkscape:cx="-82.886537"
     inkscape:cy="32"
     inkscape:window-x="0"
     inkscape:window-y="0"
     inkscape:window-maximized="1"
     inkscape:current-layer="svg2">
    <inkscape:grid
       type="xygrid"
       id="grid4137" />
  </sodipodi:namedview>
  <defs
     id="defs4">
    <linearGradient
       id="0"
       x1="-74.929"
       y1="60.12"
       x2="-75.26"
       y2="2.356"
       gradientUnits="userSpaceOnUse"
       gradientTransform="matrix(1.07499,0,0,1.02929,113.079,0.074)">
      <stop
         stop-color="#54cf03"
         id="stop7" />
      <stop
         offset="1"
         stop-color="#83ef53"
         id="stop9" />
    </linearGradient>
  </defs>
  <rect
     style="fill:#80ff80;stroke-width:1"
     id="rect13"
     rx="3.6248074"
     y="0.65025455"
     x="0.50847226"
     height="52.936779"
     width="63.796612" />
  <path
     style="fill:#165016"
     inkscape:connector-curvature="0"
     id="path15"
     d="m 50.587671,41.21724 2.711761,-7.26592 c 0.174313,-0.458278 0.09708,-1.084879 -0.169346,-1.383251 -0.263892,-0.302579 -0.624984,-0.177145 -0.796873,0.293965 l -2.811272,7.5168 c -2.109059,-1.499873 -4.464695,-2.34269 -6.952853,-2.34269 -2.490122,0 -4.840792,0.842817 -6.955163,2.34269 l -2.806306,-7.5168 c -0.171772,-0.471103 -0.535401,-0.596544 -0.801835,-0.293965 -0.266432,0.298172 -0.34366,0.924973 -0.169346,1.383251 l 2.714187,7.26592 c -4.893434,4.162577 -8.192433,12.007805 -8.192433,21.006247 0,0.553258 0.01995,1.097904 0.04734,1.638137 l 32.328517,0 c 0.02733,-0.540233 0.04477,-1.084879 0.04477,-1.638137 3e-6,-8.999242 -3.301777,-16.844271 -8.192321,-21.006247 M 35.072754,54.227766 c -0.859091,0 -1.556339,-1.2017 -1.556339,-2.697166 0,-1.495465 0.697248,-2.692961 1.556339,-2.692961 0.864056,0 1.556342,1.197295 1.556342,2.692961 0,1.495665 -0.697249,2.697166 -1.556342,2.697166 m 14.988521,0 c -0.859091,0 -1.556339,-1.2017 -1.556339,-2.697166 0,-1.495465 0.697248,-2.692961 1.556339,-2.692961 0.861518,0 1.553801,1.197295 1.553801,2.692961 0,1.495466 -0.692283,2.697166 -1.553801,2.697166" />
</svg>
