<?xml version="1.0" encoding="UTF-8" standalone="no"?>
<svg
   xmlns:dc="http://purl.org/dc/elements/1.1/"
   xmlns:cc="http://creativecommons.org/ns#"
   xmlns:rdf="http://www.w3.org/1999/02/22-rdf-syntax-ns#"
   xmlns:svg="http://www.w3.org/2000/svg"
   xmlns="http://www.w3.org/2000/svg"
   xmlns:sodipodi="http://sodipodi.sourceforge.net/DTD/sodipodi-0.dtd"
   xmlns:inkscape="http://www.inkscape.org/namespaces/inkscape"
   viewBox="0 0 64 64"
   id="svg2"
   version="1.1"
   inkscape:version="0.91 r13725"
   sodipodi:docname="message-news.svg">
  <metadata
     id="metadata19">
    <rdf:RDF>
      <cc:Work
         rdf:about="">
        <dc:format>image/svg+xml</dc:format>
        <dc:type
           rdf:resource="http://purl.org/dc/dcmitype/StillImage" />
        <dc:title></dc:title>
      </cc:Work>
    </rdf:RDF>
  </metadata>
  <sodipodi:namedview
     pagecolor="#ffffff"
     bordercolor="#666666"
     borderopacity="1"
     objecttolerance="10"
     gridtolerance="10"
     guidetolerance="10"
     inkscape:pageopacity="0"
     inkscape:pageshadow="2"
     inkscape:window-width="1280"
     inkscape:window-height="694"
     id="namedview17"
     showgrid="true"
     inkscape:zoom="3.6875"
     inkscape:cx="-12.20339"
     inkscape:cy="32"
     inkscape:window-x="0"
     inkscape:window-y="0"
     inkscape:window-maximized="1"
     inkscape:current-layer="svg2">
    <inkscape:grid
       type="xygrid"
       id="grid4149" />
  </sodipodi:namedview>
  <defs
     id="defs4">
    <linearGradient
       id="0"
       x1="-74.929"
       y1="52.2"
       x2="-75.26"
       y2="2.356"
       gradientUnits="userSpaceOnUse"
       gradientTransform="matrix(1.5520272,0,0,0.90478153,149.32977,-1.0810087)">
      <stop
         stop-color="#8798a9"
         id="stop7" />
      <stop
         offset="1"
         stop-color="#aeb6be"
         id="stop9" />
    </linearGradient>
  </defs>
  <rect
     style="fill:url(#0)"
     id="rect13"
     rx="3.6093991"
     y="0.37906781"
     x="0.50847554"
     height="53.207962"
     width="63.525421" />
  <path
     style="fill:#2c3137"
     inkscape:connector-curvature="0"
     id="path15"
     d="m 39.959943,35.125253 c -1.292552,0.178025 -2.387604,2.28413 -2.387604,5.253876 l 0,14.129028 c 0,0.511372 -0.195545,0.950774 -0.481042,0.950774 l -2.278099,0 c -4.931645,0.01132 -4.493625,-12.197176 -0.295273,-12.212329 l 2.51862,0 0,-3.549303 -2.610526,0 c -1.67191,0 -2.911665,1.208355 -3.748599,3.011415 -0.836932,1.803062 -1.257354,4.231133 -1.259309,6.651629 -1.96e-4,2.420495 0.4126,4.833415 1.269087,6.636477 0.856488,1.799273 2.150995,3.011414 3.924589,3.011414 l 4.296124,0 c 0.28354,0 0.518194,-0.473492 0.518194,-1.022744 l 0,-17.231354 c -1.95e-4,-0.886379 0.256164,-1.575784 0.592502,-1.776546 0.336337,-0.200761 0.731339,0.05304 0.962082,0.700769 l 0.0098,0.01894 c 1.222156,3.871278 6.073628,18.947291 6.08145,18.973807 0.132971,0.367431 0.291363,0.431826 0.406734,0.359855 0.115372,-0.07576 0.232699,-0.318188 0.230743,-0.916683 l 0,-17.360143 c -1.95e-4,-0.886379 0.256164,-1.575783 0.592502,-1.776546 0.336337,-0.20076 0.721561,0.05304 0.95426,0.70077 l 0,0.01894 0.0176,0 c 1.222156,3.871278 6.073629,18.947292 6.08145,18.973808 0.131016,0.363641 0.285497,0.435613 0.406735,0.359854 0.121237,-0.07576 0.242475,-0.303035 0.24052,-0.897743 l 0,-22.917055 -1.842034,0 0,13.375228 c 0,0 -1.098964,-3.636426 -2.980107,-9.897897 -1.84399,-6.132679 -5.322735,-3.594757 -5.322735,1.685635 l 0,8.212262 c 0,0 -1.079409,-3.636426 -2.962507,-9.897897 -0.805646,-2.68187 -1.93003,-3.708402 -2.935132,-3.568248 m -5.211297,0.09091 c -10.252426,0 -10.152698,28.299724 0.138837,28.314874 l 4.026272,0 c 1.730574,0 2.835403,-1.984881 2.833448,-5.647822 l 0,-7.174365 c 0,0 2.2605,7.23876 3.148275,10.075929 1.505697,4.822051 5.146745,3.871278 5.136968,-2.151552 l 0,-7.924377 c 0,0 2.252678,7.23876 3.138498,10.075929 1.505697,4.822051 5.156522,3.871278 5.146745,-2.151552 l 0,-23.420851 -1.842034,0 0,22.917055 c 1.95e-4,0.878803 -0.23661,1.530328 -0.565125,1.738665 -0.328516,0.208337 -0.705918,-0.05304 -0.934706,-0.68183 l -0.0098,0 0,-0.0341 c 0,0 -4.853428,-15.034347 -6.091228,-18.954868 -0.0039,-0.0075 -0.0058,0.0075 -0.0098,0 -1.96e-4,0 1.96e-4,-0.01894 0,-0.01894 -0.127104,-0.329551 -0.291363,-0.401521 -0.426288,-0.321975 -0.138838,0.08334 -0.269853,0.314399 -0.267897,0.897743 l 0,17.356355 c 1.96e-4,0.875014 -0.230743,1.56442 -0.555348,1.776544 -0.324605,0.212126 -0.698096,-0.06818 -0.924928,-0.700769 l 0,-0.01894 -0.0098,0 c 0,0 -4.857339,-15.064648 -6.091228,-18.973806 -0.12906,-0.356067 -0.295273,-0.44319 -0.43411,-0.359855 -0.138837,0.08335 -0.269852,0.314399 -0.267897,0.897743 l 0,0.01894 0,17.231352 c 0,1.045474 -0.443887,1.920488 -0.981636,1.920488 l -4.296124,0 c -1.885055,0 -3.314488,-1.314417 -4.258971,-3.299298 -0.944483,-1.984883 -1.40988,-4.617503 -1.407924,-7.246336 1.95e-4,-2.625045 0.467352,-5.276605 1.38837,-7.261486 0.921016,-1.984883 2.30352,-3.29551 4.090801,-3.299299 l 2.610526,0 0,-3.587183 -2.285921,0 z" />
</svg>
