<?xml version="1.0" encoding="UTF-8" standalone="no"?>
<svg
   xmlns:dc="http://purl.org/dc/elements/1.1/"
   xmlns:cc="http://creativecommons.org/ns#"
   xmlns:rdf="http://www.w3.org/1999/02/22-rdf-syntax-ns#"
   xmlns:svg="http://www.w3.org/2000/svg"
   xmlns="http://www.w3.org/2000/svg"
   xmlns:sodipodi="http://sodipodi.sourceforge.net/DTD/sodipodi-0.dtd"
   xmlns:inkscape="http://www.inkscape.org/namespaces/inkscape"
   viewBox="0 0 64 64"
   id="svg2"
   version="1.1"
   inkscape:version="0.91 r13725"
   sodipodi:docname="text-x-python.svg">
  <metadata
     id="metadata19">
    <rdf:RDF>
      <cc:Work
         rdf:about="">
        <dc:format>image/svg+xml</dc:format>
        <dc:type
           rdf:resource="http://purl.org/dc/dcmitype/StillImage" />
        <dc:title></dc:title>
      </cc:Work>
    </rdf:RDF>
  </metadata>
  <sodipodi:namedview
     pagecolor="#ffffff"
     bordercolor="#666666"
     borderopacity="1"
     objecttolerance="10"
     gridtolerance="10"
     guidetolerance="10"
     inkscape:pageopacity="0"
     inkscape:pageshadow="2"
     inkscape:window-width="1280"
     inkscape:window-height="694"
     id="namedview17"
     showgrid="true"
     inkscape:zoom="3.6875"
     inkscape:cx="-56.40678"
     inkscape:cy="32"
     inkscape:window-x="0"
     inkscape:window-y="0"
     inkscape:window-maximized="1"
     inkscape:current-layer="svg2">
    <inkscape:grid
       type="xygrid"
       id="grid4149" />
  </sodipodi:namedview>
  <defs
     id="defs4">
    <linearGradient
       id="0"
       x1="-74.929"
       y1="52.2"
       x2="-75.26"
       y2="2.356"
       gradientUnits="userSpaceOnUse"
       gradientTransform="matrix(1.5453978,0,0,0.89556051,148.70091,-0.79589776)">
      <stop
         stop-color="#f4a01c"
         id="stop7" />
      <stop
         offset="1"
         stop-color="#fac632"
         id="stop9" />
    </linearGradient>
  </defs>
  <rect
     style="fill:#d4aa00"
     id="rect13"
     rx="3.5934551"
     y="0.64949763"
     x="0.50916886"
     height="52.666737"
     width="63.254234" />
  <path
     style="fill:#554400"
     inkscape:connector-curvature="0"
     id="path15"
     d="m 39.647927,34.100621 c -2.325073,0 -4.197705,1.788992 -4.197705,4.012858 l 0,2.675237 6.994942,0 0,1.337619 -6.994942,0 -2.79847,0 c -3.100507,0 -5.595706,2.3865 -5.595706,5.349298 l 0,2.675237 c 0,2.963976 2.496432,5.349298 5.595706,5.349298 l 0,-2.675239 c 0,-2.461925 1.732094,-4.505478 4.092917,-5.132449 0.205879,-0.05421 0.415456,-0.09663 0.628731,-0.133173 0.286012,-0.04243 0.574488,-0.08367 0.874059,-0.08367 l 5.595707,0 4.510837,0 c 0.668182,-0.709469 1.08487,-1.640499 1.08487,-2.675239 l 0,-6.686915 c 0,-2.222687 -1.871399,-4.012858 -4.197704,-4.012858 z m 12.591881,8.024536 0,2.675237 c 0,2.461927 -1.732091,4.505478 -4.092915,5.132451 -0.205879,0.05421 -0.415457,0.09664 -0.628732,0.133172 -0.28601,0.04243 -0.574487,0.08367 -0.874059,0.08367 l -5.595708,0 -4.510837,0 c -0.66818,0.709468 -1.084869,1.640498 -1.084869,2.675237 l 0,6.686917 c 0,2.222687 1.8714,4.012856 4.197705,4.012856 l 5.595707,0 c 2.325072,0 4.197705,-1.788991 4.197705,-4.012856 l 0,-2.675238 -6.994942,0 0,-1.33762 6.994942,0 2.79847,0 c 3.100507,0 5.595706,-2.3865 5.595706,-5.349296 l 0,-2.675238 c 0,-2.963975 -2.496432,-5.349298 -5.595706,-5.349298" />
</svg>
