<?xml version="1.0" encoding="UTF-8" standalone="no"?>
<svg
   xmlns:dc="http://purl.org/dc/elements/1.1/"
   xmlns:cc="http://creativecommons.org/ns#"
   xmlns:rdf="http://www.w3.org/1999/02/22-rdf-syntax-ns#"
   xmlns:svg="http://www.w3.org/2000/svg"
   xmlns="http://www.w3.org/2000/svg"
   xmlns:sodipodi="http://sodipodi.sourceforge.net/DTD/sodipodi-0.dtd"
   xmlns:inkscape="http://www.inkscape.org/namespaces/inkscape"
   viewBox="0 0 48 48"
   id="svg2"
   version="1.1"
   inkscape:version="0.91 r13725"
   sodipodi:docname="scanner.svg">
  <metadata
     id="metadata94">
    <rdf:RDF>
      <cc:Work
         rdf:about="">
        <dc:format>image/svg+xml</dc:format>
        <dc:type
           rdf:resource="http://purl.org/dc/dcmitype/StillImage" />
        <dc:title></dc:title>
      </cc:Work>
    </rdf:RDF>
  </metadata>
  <sodipodi:namedview
     pagecolor="#ffffff"
     bordercolor="#666666"
     borderopacity="1"
     objecttolerance="10"
     gridtolerance="10"
     guidetolerance="10"
     inkscape:pageopacity="0"
     inkscape:pageshadow="2"
     inkscape:window-width="1280"
     inkscape:window-height="694"
     id="namedview92"
     showgrid="false"
     inkscape:zoom="4.9166667"
     inkscape:cx="-42.305085"
     inkscape:cy="24"
     inkscape:window-x="0"
     inkscape:window-y="0"
     inkscape:window-maximized="1"
     inkscape:current-layer="svg2" />
  <defs
     id="defs4">
    <clipPath
       id="clipPath6">
      <path
         d="m596.51 511.71c-7.452 6.109-22.261 15.989-32.626 11.818-5.793-2.332-8.254-7.974-1.48-7.577 13.816.809 20.506 2.306 34.11-4.241"
         id="path8" />
    </clipPath>
    <clipPath
       id="6">
      <path
         d="m596.5 511.72c-6.962 6.661-20.973 17.643-31.626 14.277-5.954-1.882-8.839-7.319-2.055-7.441 13.837-.25 20.622.731 33.681-6.836"
         id="path11" />
    </clipPath>
    <clipPath
       id="7">
      <path
         d="m556.75 546.2h27.01v-29.575h-27.01v29.575"
         id="path14" />
    </clipPath>
    <clipPath
       id="clipPath16">
      <path
         d="m556.74 544.61h28.84v-27.979h-28.84v27.979"
         id="path18" />
    </clipPath>
    <clipPath
       id="clipPath20">
      <path
         d="m548.84 543.24h11.247v-38.495h-11.247v38.495"
         id="path22" />
    </clipPath>
    <clipPath
       id="8">
      <path
         d="m556.75 516.63c2.252 9.368 8.092 26.19 18.874 29.12 6.02 1.639 11.393-1.373 5.753-5.147-11.502-7.696-17.738-10.542-24.627-23.971"
         id="path25" />
    </clipPath>
    <clipPath
       id="clipPath27">
      <path
         d="m558.32 524.53h38.19v-12.815h-38.19v12.815"
         id="path29" />
    </clipPath>
    <clipPath
       id="4">
      <path
         d="m0 792h612v-792h-612v792"
         id="path32" />
    </clipPath>
    <clipPath
       id="9">
      <path
         d="m547.05 542.87h13.05v-38.14h-13.05v38.14"
         id="path35" />
    </clipPath>
    <clipPath
       id="5">
      <path
         d="m558.89 526.62h37.604v-14.904h-37.604v14.904"
         id="path38" />
    </clipPath>
    <linearGradient
       gradientUnits="userSpaceOnUse"
       y2="1049.64"
       x2="11.718"
       y1="1009.42"
       x1="10.261"
       id="1"
       gradientTransform="matrix(1.3300277,0,0,1.0548715,-7.7217389,-1060.7792)">
      <stop
         stop-color="#f4f4f4"
         id="stop41" />
      <stop
         offset="1"
         stop-color="#dbdbdb"
         id="stop43" />
    </linearGradient>
    <linearGradient
       gradientUnits="userSpaceOnUse"
       y2="1011.78"
       x2="21.16"
       y1="1043.65"
       x1="24.477"
       id="2">
      <stop
         stop-color="#dcdcdc"
         id="stop46" />
      <stop
         offset="1"
         stop-color="#f0f0f0"
         id="stop48" />
    </linearGradient>
    <linearGradient
       id="3"
       gradientUnits="userSpaceOnUse"
       gradientTransform="matrix(0.7829,0,0,0.72089,-1.832,288.38)"
       spreadMethod="reflect"
       y1="1017.87"
       x2="0"
       y2="1015.36">
      <stop
         stop-color="#00a5cc"
         id="stop51" />
      <stop
         offset="1"
         stop-color="#0086cc"
         stop-opacity="0"
         id="stop53" />
    </linearGradient>
    <linearGradient
       gradientUnits="userSpaceOnUse"
       y2="1006.42"
       x2="25.1"
       y1="1048.54"
       x1="24.947"
       id="0">
      <stop
         stop-color="#141414"
         id="stop56" />
      <stop
         offset="1"
         stop-color="#2d2d2f"
         id="stop58" />
    </linearGradient>
  </defs>
  <rect
     y="0.52699041"
     x="0.68004596"
     height="46.942837"
     width="47.043079"
     rx="2.3740995"
     id="rect64"
     style="fill:#b7bec8;fill-rule:evenodd;stroke:url(#1);stroke-width:1.05656195;stroke-linecap:round" />
  <rect
     y="5.273912"
     x="6.369905"
     height="37.440556"
     width="35.667351"
     rx="1.1863847"
     id="rect66"
     style="fill:#87aade;fill-rule:evenodd" />
  <g
     id="g86"
     transform="matrix(1.3300277,0,0,1.0548715,-7.7217389,-1060.7792)">
    <path
       inkscape:connector-curvature="0"
       style="opacity:0.8;fill:url(#3)"
       id="path88"
       d="m 6.78,1020.34 34.448,0 0,3.61 -34.448,0 z" />
    <path
       style="opacity:0.8;fill:#ffffff"
       inkscape:connector-curvature="0"
       id="path90"
       d="m 6.78,1021.94 34.448,0 0,0.41 -34.448,0 z" />
  </g>
</svg>
