<?xml version="1.0" encoding="UTF-8" standalone="no"?>
<svg
   xmlns:dc="http://purl.org/dc/elements/1.1/"
   xmlns:cc="http://creativecommons.org/ns#"
   xmlns:rdf="http://www.w3.org/1999/02/22-rdf-syntax-ns#"
   xmlns:svg="http://www.w3.org/2000/svg"
   xmlns="http://www.w3.org/2000/svg"
   xmlns:sodipodi="http://sodipodi.sourceforge.net/DTD/sodipodi-0.dtd"
   xmlns:inkscape="http://www.inkscape.org/namespaces/inkscape"
   viewBox="0 0 64 64"
   id="svg2"
   version="1.1"
   inkscape:version="0.91 r13725"
   sodipodi:docname="application-rtf.svg">
  <metadata
     id="metadata19">
    <rdf:RDF>
      <cc:Work
         rdf:about="">
        <dc:format>image/svg+xml</dc:format>
        <dc:type
           rdf:resource="http://purl.org/dc/dcmitype/StillImage" />
        <dc:title></dc:title>
      </cc:Work>
    </rdf:RDF>
  </metadata>
  <sodipodi:namedview
     pagecolor="#ffffff"
     bordercolor="#666666"
     borderopacity="1"
     objecttolerance="10"
     gridtolerance="10"
     guidetolerance="10"
     inkscape:pageopacity="0"
     inkscape:pageshadow="2"
     inkscape:window-width="1280"
     inkscape:window-height="694"
     id="namedview17"
     showgrid="true"
     inkscape:zoom="3.6875"
     inkscape:cx="-25.722088"
     inkscape:cy="32"
     inkscape:window-x="0"
     inkscape:window-y="0"
     inkscape:window-maximized="1"
     inkscape:current-layer="svg2">
    <inkscape:grid
       type="xygrid"
       id="grid4137" />
  </sodipodi:namedview>
  <defs
     id="defs4">
    <linearGradient
       id="0"
       x1="-74.929"
       y1="52.2"
       x2="-75.26"
       y2="2.356"
       gradientUnits="userSpaceOnUse"
       gradientTransform="matrix(1.07499,0,0,1.02929,113.079,0.074)">
      <stop
         stop-color="#4965b6"
         id="stop7" />
      <stop
         offset="1"
         stop-color="#8d9dcc"
         id="stop9" />
    </linearGradient>
  </defs>
  <rect
     style="fill:#5f5fd3"
     id="rect13"
     rx="3.6093988"
     y="0.37906781"
     x="0.23728909"
     height="52.936775"
     width="63.525421" />
  <path
     style="fill:#0b0b28;stroke:none;stroke-width:0.071;stroke-opacity:0.8"
     inkscape:connector-curvature="0"
     id="path15"
     d="M 42.168887,34.64015 30.534179,49.750062 c -2.18215,2.833498 -1.571312,7.880537 1.221675,10.094078 2.792988,2.213541 7.76607,1.593583 9.94822,-1.239916 l 11.634708,-15.109912 1.454081,-1.888999 c 1.454081,-1.888997 1.046856,-5.252997 -0.81445,-6.730079 -1.861307,-1.474999 -5.176694,-1.063082 -6.632832,0.825918 l -1.454082,1.888998 -8.726545,11.333994 -1.454081,1.888999 c -0.728069,0.9445 -0.524456,2.62754 0.407225,3.364 0.931681,0.73854 2.589376,0.530501 3.315388,-0.413998 l 10.180626,-13.220913 1.861307,1.475 -10.180626,13.220912 c -1.454082,1.889 -4.76947,2.302999 -6.632833,0.825917 -1.861307,-1.475 -2.268531,-4.84108 -0.814451,-6.730078 l 1.454083,-1.888998 10.180625,-13.220914 c 2.182151,-2.833498 7.155233,-3.453455 9.948221,-1.239915 2.792987,2.21354 3.403825,7.26058 1.221675,10.094076 l -1.454081,1.889001 -11.634708,15.109912 c -2.908163,3.777997 -9.540995,4.603914 -13.263608,1.651833 -3.722613,-2.952081 -4.537062,-9.68008 -1.628901,-13.458077 l 11.634708,-15.109912 1.861307,1.475002" />
</svg>
