<?xml version="1.0" encoding="UTF-8" standalone="no"?>
<svg
   xmlns:dc="http://purl.org/dc/elements/1.1/"
   xmlns:cc="http://creativecommons.org/ns#"
   xmlns:rdf="http://www.w3.org/1999/02/22-rdf-syntax-ns#"
   xmlns:svg="http://www.w3.org/2000/svg"
   xmlns="http://www.w3.org/2000/svg"
   xmlns:sodipodi="http://sodipodi.sourceforge.net/DTD/sodipodi-0.dtd"
   xmlns:inkscape="http://www.inkscape.org/namespaces/inkscape"
   viewBox="0 0 64 64"
   id="svg2"
   version="1.1"
   inkscape:version="0.91 r13725"
   sodipodi:docname="application-x-font-pcf.svg">
  <metadata
     id="metadata19">
    <rdf:RDF>
      <cc:Work
         rdf:about="">
        <dc:format>image/svg+xml</dc:format>
        <dc:type
           rdf:resource="http://purl.org/dc/dcmitype/StillImage" />
        <dc:title></dc:title>
      </cc:Work>
    </rdf:RDF>
  </metadata>
  <sodipodi:namedview
     pagecolor="#ffffff"
     bordercolor="#666666"
     borderopacity="1"
     objecttolerance="10"
     gridtolerance="10"
     guidetolerance="10"
     inkscape:pageopacity="0"
     inkscape:pageshadow="2"
     inkscape:window-width="1280"
     inkscape:window-height="694"
     id="namedview17"
     showgrid="true"
     inkscape:zoom="3.6875"
     inkscape:cx="-12.20339"
     inkscape:cy="32"
     inkscape:window-x="0"
     inkscape:window-y="0"
     inkscape:window-maximized="1"
     inkscape:current-layer="svg2">
    <inkscape:grid
       type="xygrid"
       id="grid4137" />
  </sodipodi:namedview>
  <defs
     id="defs4">
    <linearGradient
       id="0"
       x1="-74.929"
       y1="52.2"
       x2="-75.26"
       y2="2.356"
       gradientUnits="userSpaceOnUse"
       gradientTransform="matrix(1.07499,0,0,1.02929,113.079,0.074)">
      <stop
         stop-color="#a04c9b"
         id="stop7" />
      <stop
         offset="1"
         stop-color="#d663cc"
         id="stop9" />
    </linearGradient>
  </defs>
  <rect
     style="fill:#ab37c8"
     id="rect13"
     rx="3.5939908"
     y="0.37906781"
     x="0.50847554"
     height="53.479149"
     width="63.254234" />
  <path
     style="fill:#eed7f4;fill-opacity:0.86199999"
     inkscape:connector-curvature="0"
     id="path15"
     d="m 39.986436,63.610252 q -5.47178,0 -9.188433,-2.480546 -3.647854,-2.480546 -3.647854,-6.56033 0,-4.409987 4.349026,-6.891682 4.349027,-2.535771 10.731306,-2.535771 5.681108,0 9.32896,1.654464 l 0,-0.772006 q 0,-2.977576 -2.595362,-4.741341 -2.595362,-1.818989 -6.383744,-1.818989 -2.806153,0 -5.120462,1.046983 -2.244045,1.046983 -3.085744,2.867125 l -5.899217,-1.984668 q 1.193018,-2.425319 4.69888,-4.465212 3.507326,-2.095117 9.258698,-2.095117 6.59307,0 10.942096,3.03165 4.349025,3.03165 4.349025,8.544997 l 0,16.319136 -6.172952,0 0,-3.748431 -0.281054,0 q -3.857181,4.636641 -11.293416,4.636641 m 1.052492,-4.636641 q 3.997706,0 7.225442,-2.312569 3.296536,-2.370094 3.296536,-5.568571 -2.73589,-1.763764 -8.206207,-1.763764 -4.698879,0 -7.084916,1.599237 -2.384571,1.59924 -2.384571,3.748432 0,1.984666 2.173781,3.1421 2.173781,1.162038 4.979935,1.162038" />
</svg>
