<?xml version="1.0" encoding="UTF-8" standalone="no"?>
<!-- Generator: Adobe Illustrator 12.0.0, SVG Export Plug-In . SVG Version: 6.00 Build 51448)  -->

<svg
   xmlns:dc="http://purl.org/dc/elements/1.1/"
   xmlns:cc="http://creativecommons.org/ns#"
   xmlns:rdf="http://www.w3.org/1999/02/22-rdf-syntax-ns#"
   xmlns:svg="http://www.w3.org/2000/svg"
   xmlns="http://www.w3.org/2000/svg"
   xmlns:sodipodi="http://sodipodi.sourceforge.net/DTD/sodipodi-0.dtd"
   xmlns:inkscape="http://www.inkscape.org/namespaces/inkscape"
   version="1.1"
   id="图层_1"
   width="248"
   height="248"
   viewBox="0 0 248 248"
   style="overflow:visible;enable-background:new 0 0 248 248;"
   xml:space="preserve"
   inkscape:version="0.91 r13725"
   sodipodi:docname="face-smile-grin.svg"><metadata
     id="metadata27"><rdf:RDF><cc:Work
         rdf:about=""><dc:format>image/svg+xml</dc:format><dc:type
           rdf:resource="http://purl.org/dc/dcmitype/StillImage" /><dc:title></dc:title></cc:Work></rdf:RDF></metadata><defs
     id="defs25" /><sodipodi:namedview
     pagecolor="#ffffff"
     bordercolor="#666666"
     borderopacity="1"
     objecttolerance="10"
     gridtolerance="10"
     guidetolerance="10"
     inkscape:pageopacity="0"
     inkscape:pageshadow="2"
     inkscape:window-width="1280"
     inkscape:window-height="694"
     id="namedview23"
     showgrid="false"
     inkscape:zoom="0.9516129"
     inkscape:cx="-47.288136"
     inkscape:cy="124"
     inkscape:window-x="0"
     inkscape:window-y="0"
     inkscape:window-maximized="1"
     inkscape:current-layer="图层_1" /><circle
     style="fill:#ffdd55"
     cx="124"
     cy="124"
     r="124"
     id="circle3" /><path
     style="fill:none;stroke:#000000;stroke-width:13;stroke-linecap:round;stroke-linejoin:round;"
     d="M52,83.668  c0-20.987,13.084-38,29.225-38c16.14,0,29.225,17.013,29.225,38"
     id="path5" /><path
     style="fill:#ff5555;stroke:#8F0000;stroke-width:15;stroke-linecap:round;stroke-linejoin:round"
     d="M194.888,152.515  c0,27.699-32.435,50.153-72.444,50.153C82.434,202.668,50,180.214,50,152.515"
     id="path7" /><path
     style="fill:none;stroke:#000000;stroke-width:13;stroke-linecap:round;stroke-linejoin:round;"
     d="M136,83.668  c0-20.987,13.084-38,29.225-38s29.225,17.013,29.225,38"
     id="path9" /><g
     id="g11"
     style="fill:#ffe680"><g
       style="opacity:0.03;fill:#ffe680"
       id="g13"><path
         d="M192.732,139.03c-22.262-18.04-57.309,28.247-72.421,18.091c0,0,0.032-7.102,8.922-18.139    c8.76-10.877-0.981-21.848-9.905-17.583c-14.714,7.032-30.166,45.792-61.664,62.722c-11.842,6.365-27.047,7.912-40.125,11.737    c11.043,17.224,25.94,31.739,43.471,42.335c6.138-5.77,11.976-11.36,20.405-15.292c9.582-4.468,46.28,10.618,70.694-1.052    C217.591,190.557,203.837,148.028,192.732,139.03z"
         id="path15"
         style="fill:#ffe680" /></g><g
       id="g17"
       style="fill:#ffe680"><path
         style="fill:#ffe680"
         d="M192.732,132.03c-22.262-18.04-57.309,28.247-72.421,18.091c0,0,0.032-7.102,8.922-18.139    c8.76-10.877-0.981-21.848-9.905-17.583c-14.714,7.032-30.166,45.792-61.664,62.722c-11.842,6.365-27.047,7.912-40.125,11.737    c11.043,17.224,25.94,31.739,43.471,42.335c6.138-5.77,11.976-11.36,20.405-15.292c9.582-4.468,46.28,10.618,70.694-1.052    C217.591,183.557,203.837,141.028,192.732,132.03z"
         id="path19" /></g></g></svg>