<?xml version="1.0" encoding="UTF-8" standalone="no"?>
<!-- Generator: Adobe Illustrator 12.0.0, SVG Export Plug-In . SVG Version: 6.00 Build 51448)  -->

<svg
   xmlns:dc="http://purl.org/dc/elements/1.1/"
   xmlns:cc="http://creativecommons.org/ns#"
   xmlns:rdf="http://www.w3.org/1999/02/22-rdf-syntax-ns#"
   xmlns:svg="http://www.w3.org/2000/svg"
   xmlns="http://www.w3.org/2000/svg"
   xmlns:sodipodi="http://sodipodi.sourceforge.net/DTD/sodipodi-0.dtd"
   xmlns:inkscape="http://www.inkscape.org/namespaces/inkscape"
   version="1.1"
   id="图层_1"
   width="248"
   height="248"
   viewBox="0 0 248 248"
   style="overflow:visible;enable-background:new 0 0 248 248;"
   xml:space="preserve"
   inkscape:version="0.91 r13725"
   sodipodi:docname="face-sleeping.svg"><metadata
     id="metadata51"><rdf:RDF><cc:Work
         rdf:about=""><dc:format>image/svg+xml</dc:format><dc:type
           rdf:resource="http://purl.org/dc/dcmitype/StillImage" /><dc:title></dc:title></cc:Work></rdf:RDF></metadata><defs
     id="defs49" /><sodipodi:namedview
     pagecolor="#ffffff"
     bordercolor="#666666"
     borderopacity="1"
     objecttolerance="10"
     gridtolerance="10"
     guidetolerance="10"
     inkscape:pageopacity="0"
     inkscape:pageshadow="2"
     inkscape:window-width="1280"
     inkscape:window-height="694"
     id="namedview47"
     showgrid="false"
     inkscape:zoom="0.9516129"
     inkscape:cx="-30.203543"
     inkscape:cy="124"
     inkscape:window-x="0"
     inkscape:window-y="0"
     inkscape:window-maximized="1"
     inkscape:current-layer="图层_1" /><g
     id="g7"
     style="opacity:0.02999998;fill:#80b3ff"><ellipse
       id="ellipse9"
       ry="48.807999"
       rx="49.115002"
       cy="101.573"
       cx="79.780998"
       style="fill:#80b3ff" /><circle
       id="circle11"
       r="11.226"
       cy="95.242996"
       cx="80.113998"
       style="fill:#80b3ff" /><path
       inkscape:connector-curvature="0"
       id="path13"
       d="m 99.039,124.721 c -10.815,0 -22.019,11.588 -38.629,3.862 -5.384,-2.505 -14.328,-2.69 -22.703,-0.44 8.674,13.813 24.097,23.01 41.689,23.01 16.087,0 30.368,-7.688 39.326,-19.566 -6.003,-3.905 -12.99,-6.866 -19.683,-6.866 z"
       style="opacity:0.6800001;fill:#80b3ff" /></g><g
     id="g29"
     style="opacity:0.02999998;fill:#80b3ff"><ellipse
       id="ellipse31"
       ry="48.806999"
       rx="49.115002"
       cy="99.737999"
       cx="165.437"
       style="fill:#80b3ff" /><circle
       id="circle33"
       r="11.225"
       cy="93.407997"
       cx="165.77"
       style="fill:#80b3ff" /><path
       inkscape:connector-curvature="0"
       id="path35"
       d="m 184.695,122.886 c -10.817,0 -22.02,11.589 -38.63,3.862 -5.384,-2.504 -14.327,-2.69 -22.704,-0.439 8.676,13.813 24.099,23.009 41.689,23.009 16.089,0 30.368,-7.688 39.327,-19.567 -6.002,-3.903 -12.989,-6.865 -19.682,-6.865 z"
       style="opacity:0.6800001;fill:#80b3ff" /></g><g
     style="overflow:visible"
     id="g4149"
     transform="matrix(0.98958806,0,0,0.99107971,2.3419307,1.631537)"><circle
       id="circle5"
       r="124"
       cy="124"
       cx="124"
       style="fill:#ffdd55" /><text
       id="text7"
       style="font-size:42.00040054px;font-family:Arial-Black;fill:#80b3ff"
       transform="translate(53.1689,80.4072)">Z</text>
<text
       id="text9"
       style="font-size:57.45600128px;font-family:Arial-Black;fill:#80b3ff"
       transform="translate(5.1689,58.3364)">Z</text>
<line
       id="line11"
       y2="129.668"
       x2="94"
       y1="129.668"
       x1="48"
       style="fill:none;stroke:#000000;stroke-width:14;stroke-linecap:round" /><line
       id="line13"
       y2="129.668"
       x2="199"
       y1="129.668"
       x1="153"
       style="fill:none;stroke:#000000;stroke-width:14;stroke-linecap:round" /><path
       inkscape:connector-curvature="0"
       id="path15"
       d="m 144,217.168 c 0,4.143 -8.507,7.5 -19,7.5 -10.493,0 -19,-3.357 -19,-7.5 0,-4.143 8.507,-3.5 19,-3.5 10.493,0 19,-0.643 19,3.5 z"
       style="fill:#ff2a2a" /></g></svg>