<?xml version="1.0" encoding="UTF-8" standalone="no"?>
<svg
   xmlns:dc="http://purl.org/dc/elements/1.1/"
   xmlns:cc="http://creativecommons.org/ns#"
   xmlns:rdf="http://www.w3.org/1999/02/22-rdf-syntax-ns#"
   xmlns:svg="http://www.w3.org/2000/svg"
   xmlns="http://www.w3.org/2000/svg"
   xmlns:xlink="http://www.w3.org/1999/xlink"
   xmlns:sodipodi="http://sodipodi.sourceforge.net/DTD/sodipodi-0.dtd"
   xmlns:inkscape="http://www.inkscape.org/namespaces/inkscape"
   viewBox="0 0 64 64"
   id="svg13202"
   version="1.1"
   inkscape:version="0.91 r13725"
   sodipodi:docname="certificate-server.svg">
  <metadata
     id="metadata13228">
    <rdf:RDF>
      <cc:Work
         rdf:about="">
        <dc:format>image/svg+xml</dc:format>
        <dc:type
           rdf:resource="http://purl.org/dc/dcmitype/StillImage" />
        <dc:title></dc:title>
      </cc:Work>
    </rdf:RDF>
  </metadata>
  <sodipodi:namedview
     pagecolor="#ffffff"
     bordercolor="#666666"
     borderopacity="1"
     objecttolerance="10"
     gridtolerance="10"
     guidetolerance="10"
     inkscape:pageopacity="0"
     inkscape:pageshadow="2"
     inkscape:window-width="1280"
     inkscape:window-height="694"
     id="namedview13226"
     showgrid="false"
     inkscape:zoom="3.6875"
     inkscape:cx="-8.3777663"
     inkscape:cy="32"
     inkscape:window-x="0"
     inkscape:window-y="0"
     inkscape:window-maximized="1"
     inkscape:current-layer="svg13202" />
  <defs
     id="defs13204">
    <linearGradient
       xlink:href="#1"
       id="3"
       x1="-19.915"
       y1="1048.7"
       x2="-19.996"
       y2="1025.51"
       gradientUnits="userSpaceOnUse"
       gradientTransform="translate(51.949,-1001.46)" />
    <linearGradient
       gradientUnits="userSpaceOnUse"
       y2="354.29"
       x2="-704.05"
       y1="647.77"
       x1="-701.19"
       id="2"
       gradientTransform="matrix(0.01590505,0,0,0.01845141,129.51168,-45.007092)">
      <stop
         stop-color="#93cfff"
         id="stop13208" />
      <stop
         offset="1"
         stop-color="#cde8fe"
         id="stop13210" />
    </linearGradient>
    <linearGradient
       xlink:href="#1"
       id="0"
       x1="59.12"
       y1="-13.295"
       x2="59.15"
       y2="-37.783"
       gradientUnits="userSpaceOnUse"
       gradientTransform="matrix(0.52660675,0,0,0.52570737,-19.441377,28.676662)" />
    <linearGradient
       id="1">
      <stop
         stop-color="#289bf7"
         id="stop13214" />
      <stop
         offset="1"
         stop-color="#71b9f1"
         id="stop13216" />
    </linearGradient>
  </defs>
  <rect
     style="fill:#80b3ff;stroke:none;stroke-width:0.32295448"
     id="rect13222"
     rx="1.2142509"
     width="58.487045"
     height="43.170807"
     x="3.0217602"
     y="10.17371" />
  <g
     id="g4187"
     transform="translate(24.135593,1.6271186)">
    <g
       style="fill:#ffffff"
       transform="matrix(0.07884745,0,0,0.06864407,12.260678,25.538135)"
       id="XMLID_503_">
      <g
         style="fill:#ffffff"
         id="XMLID_511_">
        <g
           style="fill:#ffffff"
           id="XMLID_1307_">
          <g
             style="fill:#ffffff"
             id="XMLID_1308_">
            <g
               style="fill:#ffffff"
               id="XMLID_1309_">
              <path
                 id="XMLID_1310_"
                 style="fill:#ffffff"
                 d="M 185,290 C 129.86,290 85,245.14 85,190 l 0,-90 C 85,44.86 129.86,0 185,0 240.14,0 285,44.86 285,100 l 0,90 c 0,55.14 -44.86,100 -100,100 z m 0,-250 c -33.084,0 -60,26.916 -60,60 l 0,90 c 0,33.084 26.916,60 60,60 33.084,0 60,-26.916 60,-60 l 0,-90 C 245,66.916 218.084,40 185,40 Z"
                 inkscape:connector-curvature="0" />
            </g>
          </g>
        </g>
      </g>
      <path
         id="XMLID_524_"
         style="fill:#ffffff"
         d="m 185,0 0,40 c 33.084,0 60,26.916 60,60 l 0,90 c 0,33.084 -26.916,60 -60,60 l 0,40 c 55.14,0 100,-44.86 100,-100 l 0,-90 C 285,44.86 240.14,0 185,0 Z"
         inkscape:connector-curvature="0" />
    </g>
    <g
       style="fill:#ffffff"
       transform="matrix(0.07884745,0,0,0.06864407,12.260678,25.538135)"
       id="XMLID_525_">
      <circle
         id="XMLID_526_"
         style="fill:#ffffff"
         cx="185"
         cy="245"
         r="125" />
      <path
         id="XMLID_531_"
         style="fill:#ffffff"
         d="m 185,120 0,250 c 69.036,0 125,-55.964 125,-125 0,-69.036 -55.964,-125 -125,-125 z"
         inkscape:connector-curvature="0" />
    </g>
    <g
       style="fill:#80b3ff"
       transform="matrix(0.07884745,0,0,0.06864407,12.260678,25.538135)"
       id="XMLID_532_">
      <path
         id="XMLID_535_"
         style="fill:#80b3ff"
         d="m 216.25,231.607 c 0,-17.259 -13.991,-31.25 -31.25,-31.25 -17.259,0 -31.25,13.991 -31.25,31.25 0,11.565 6.287,21.655 15.625,27.059 l 0,30.977 31.25,0 0,-30.977 c 9.338,-5.404 15.625,-15.494 15.625,-27.059 z"
         inkscape:connector-curvature="0" />
      <path
         id="XMLID_783_"
         style="fill:#80b3ff"
         d="m 185,200.357 0,89.286 15.625,0 0,-30.977 c 9.338,-5.404 15.625,-15.494 15.625,-27.059 0,-17.259 -13.991,-31.25 -31.25,-31.25 z"
         inkscape:connector-curvature="0" />
    </g>
  </g>
</svg>
