<?xml version="1.0" encoding="UTF-8" standalone="no"?>
<svg
   xmlns:dc="http://purl.org/dc/elements/1.1/"
   xmlns:cc="http://creativecommons.org/ns#"
   xmlns:rdf="http://www.w3.org/1999/02/22-rdf-syntax-ns#"
   xmlns:svg="http://www.w3.org/2000/svg"
   xmlns="http://www.w3.org/2000/svg"
   xmlns:xlink="http://www.w3.org/1999/xlink"
   xmlns:sodipodi="http://sodipodi.sourceforge.net/DTD/sodipodi-0.dtd"
   xmlns:inkscape="http://www.inkscape.org/namespaces/inkscape"
   viewBox="0 0 64 64"
   id="svg13202"
   version="1.1"
   inkscape:version="0.91 r13725"
   sodipodi:docname="folder-print.svg">
  <metadata
     id="metadata13228">
    <rdf:RDF>
      <cc:Work
         rdf:about="">
        <dc:format>image/svg+xml</dc:format>
        <dc:type
           rdf:resource="http://purl.org/dc/dcmitype/StillImage" />
        <dc:title></dc:title>
      </cc:Work>
    </rdf:RDF>
  </metadata>
  <sodipodi:namedview
     pagecolor="#ffffff"
     bordercolor="#666666"
     borderopacity="1"
     objecttolerance="10"
     gridtolerance="10"
     guidetolerance="10"
     inkscape:pageopacity="0"
     inkscape:pageshadow="2"
     inkscape:window-width="1280"
     inkscape:window-height="694"
     id="namedview13226"
     showgrid="false"
     inkscape:zoom="3.6875"
     inkscape:cx="-37.566619"
     inkscape:cy="32"
     inkscape:window-x="0"
     inkscape:window-y="0"
     inkscape:window-maximized="1"
     inkscape:current-layer="svg13202" />
  <defs
     id="defs13204">
    <linearGradient
       xlink:href="#1"
       id="3"
       x1="-19.915"
       y1="1048.7"
       x2="-19.996"
       y2="1025.51"
       gradientUnits="userSpaceOnUse"
       gradientTransform="translate(51.949,-1001.46)" />
    <linearGradient
       gradientUnits="userSpaceOnUse"
       y2="354.29"
       x2="-704.05"
       y1="647.77"
       x1="-701.19"
       id="2"
       gradientTransform="matrix(0.01590505,0,0,0.01845141,129.51168,-45.007092)">
      <stop
         stop-color="#93cfff"
         id="stop13208" />
      <stop
         offset="1"
         stop-color="#cde8fe"
         id="stop13210" />
    </linearGradient>
    <linearGradient
       xlink:href="#1"
       id="0"
       x1="59.12"
       y1="-13.295"
       x2="59.15"
       y2="-37.783"
       gradientUnits="userSpaceOnUse"
       gradientTransform="matrix(0.52660675,0,0,0.52570737,-19.441377,28.676662)" />
    <linearGradient
       id="1">
      <stop
         stop-color="#289bf7"
         id="stop13214" />
      <stop
         offset="1"
         stop-color="#71b9f1"
         id="stop13216" />
    </linearGradient>
  </defs>
  <rect
     style="fill:#80b3ff;stroke:none;stroke-width:0.32295448"
     id="rect13222"
     rx="1.2142509"
     width="58.487045"
     height="43.170807"
     x="3.0217602"
     y="10.17371" />
  <path
     inkscape:connector-curvature="0"
     style="fill:#ffffff"
     id="path26"
     d="m 40.711584,27.86733 0,0.660005 0,1.364008 0,4.848031 13.500087,0 0,-4.848031 0,-1.364008 0,-0.660005 -13.500087,0 m -2.020013,1.48801 c -0.394002,0 -0.714004,0.320002 -0.714004,0.714005 l 0,4.528028 1.738011,0 0,-5.242033 -1.024007,0 m 16.648107,0 0,5.242033 1.738011,0 0,-4.528028 c 0,-0.394003 -0.320002,-0.714005 -0.714004,-0.714005 l -1.024007,0 m -19.770127,6.520042 c -0.394002,0 -0.714004,0.320002 -0.714004,0.714004 l 0,11.106071 c 0,0.394003 0.320002,0.714005 0.714004,0.714005 l 3.738024,0 0,-4.238027 0,-1.852012 16.300105,0 0,1.852012 0,4.238027 3.738024,0 c 0.394002,0 0.714004,-0.320002 0.714004,-0.714005 l 0,-11.106071 c -2e-4,-0.394002 -0.324002,-0.714004 -0.718004,-0.714004 l -23.774153,0 m 20.714133,2.136013 c 0.188001,0 0.368002,0.058 0.516003,0.152001 0.262002,0.168001 0.434003,0.462003 0.434003,0.796005 0,0.334003 -0.170001,0.632004 -0.434003,0.800006 -0.148001,0.098 -0.328002,0.152001 -0.516003,0.152001 -0.526003,0 -0.950006,-0.424003 -0.950006,-0.950007 0,-0.526003 0.424003,-0.954006 0.950006,-0.954006 m -15.6281,5.586036 0,0.714005 0,6.840043 0,0.714005 13.606087,0 0,-0.714005 0,-6.840043 0,-0.714005 -13.606087,0" />
</svg>
