<?xml version="1.0" encoding="UTF-8" standalone="no"?>
<svg
   xmlns:dc="http://purl.org/dc/elements/1.1/"
   xmlns:cc="http://creativecommons.org/ns#"
   xmlns:rdf="http://www.w3.org/1999/02/22-rdf-syntax-ns#"
   xmlns:svg="http://www.w3.org/2000/svg"
   xmlns="http://www.w3.org/2000/svg"
   xmlns:xlink="http://www.w3.org/1999/xlink"
   xmlns:sodipodi="http://sodipodi.sourceforge.net/DTD/sodipodi-0.dtd"
   xmlns:inkscape="http://www.inkscape.org/namespaces/inkscape"
   viewBox="0 0 64 64"
   id="svg13202"
   version="1.1"
   inkscape:version="0.91 r13725"
   sodipodi:docname="folder-tar.svg">
  <metadata
     id="metadata13228">
    <rdf:RDF>
      <cc:Work
         rdf:about="">
        <dc:format>image/svg+xml</dc:format>
        <dc:type
           rdf:resource="http://purl.org/dc/dcmitype/StillImage" />
        <dc:title></dc:title>
      </cc:Work>
    </rdf:RDF>
  </metadata>
  <sodipodi:namedview
     pagecolor="#ffffff"
     bordercolor="#666666"
     borderopacity="1"
     objecttolerance="10"
     gridtolerance="10"
     guidetolerance="10"
     inkscape:pageopacity="0"
     inkscape:pageshadow="2"
     inkscape:window-width="1280"
     inkscape:window-height="694"
     id="namedview13226"
     showgrid="false"
     inkscape:zoom="3.6875"
     inkscape:cx="-66.903398"
     inkscape:cy="32"
     inkscape:window-x="0"
     inkscape:window-y="0"
     inkscape:window-maximized="1"
     inkscape:current-layer="svg13202" />
  <defs
     id="defs13204">
    <linearGradient
       xlink:href="#1"
       id="3"
       x1="-19.915"
       y1="1048.7"
       x2="-19.996"
       y2="1025.51"
       gradientUnits="userSpaceOnUse"
       gradientTransform="translate(51.949,-1001.46)" />
    <linearGradient
       gradientUnits="userSpaceOnUse"
       y2="354.29"
       x2="-704.05"
       y1="647.77"
       x1="-701.19"
       id="2"
       gradientTransform="matrix(0.01590505,0,0,0.01845141,129.51168,-45.007092)">
      <stop
         stop-color="#93cfff"
         id="stop13208" />
      <stop
         offset="1"
         stop-color="#cde8fe"
         id="stop13210" />
    </linearGradient>
    <linearGradient
       xlink:href="#1"
       id="0"
       x1="59.12"
       y1="-13.295"
       x2="59.15"
       y2="-37.783"
       gradientUnits="userSpaceOnUse"
       gradientTransform="matrix(0.52660675,0,0,0.52570737,-19.441377,28.676662)" />
    <linearGradient
       id="1">
      <stop
         stop-color="#289bf7"
         id="stop13214" />
      <stop
         offset="1"
         stop-color="#71b9f1"
         id="stop13216" />
    </linearGradient>
  </defs>
  <rect
     style="fill:#80b3ff;stroke:none;stroke-width:0.32295448"
     id="rect13222"
     rx="1.2142509"
     width="58.487045"
     height="43.170807"
     x="3.0217602"
     y="10.17371" />
  <path
     inkscape:connector-curvature="0"
     style="opacity:0.92900002;fill:#ffffff"
     id="path24"
     d="m 55.711638,22.151738 c -0.568757,0 -1.025012,0.458755 -1.025012,1.027512 l 0,0.256253 c 0,0.568757 0.456255,1.027513 1.025012,1.027513 l 2.57128,0 c 0.568757,0 1.025013,-0.458756 1.025013,-1.027513 l 0,-0.256253 c 0,-0.568757 -0.456256,-1.027512 -1.025013,-1.027512 l -2.57128,0 m -0.01,3.34254 c -0.568757,0 -1.025012,0.458755 -1.025012,1.027512 l 0,0.258753 c 0,0.568757 0.456255,1.025012 1.025012,1.025012 l 2.57128,0 c 0.568757,0 1.025013,-0.456255 1.025013,-1.025012 l 0,-0.258753 c 0,-0.568757 -0.456256,-1.027512 -1.025013,-1.027512 l -2.57128,0 m -0.02625,3.303789 c -0.568756,0 -1.027512,0.458756 -1.027512,1.027512 l 0,0.258754 c 0,0.568756 0.458756,1.025012 1.027512,1.025012 l 2.568781,0 c 0.568757,0 1.027512,-0.456256 1.027512,-1.025012 l 0,-0.258754 c 0,-0.568756 -0.458755,-1.027512 -1.027512,-1.027512 l -2.568781,0 m 0.04875,3.440041 c -0.568757,0 -1.025012,0.458756 -1.025012,1.027512 l 0,0.256254 c 0,0.568756 0.456255,1.027512 1.025012,1.027512 l 2.571281,0 c 0.568756,0 1.025012,-0.458756 1.025012,-1.027512 l 0,-0.256254 c 0,-0.568756 -0.456256,-1.027512 -1.025012,-1.027512 l -2.571281,0 m 0,3.37879 c -0.568757,0 -1.025012,0.456256 -1.025012,1.025013 l 0,0.258753 c 0,0.568757 0.456255,1.027512 1.025012,1.027512 l 2.571281,0 c 0.568756,0 1.025012,-0.458755 1.025012,-1.027512 l 0,-0.258753 c 0,-0.568757 -0.456256,-1.025013 -1.025012,-1.025013 l -2.571281,0 m 0,3.457542 c -0.568757,0 -1.025012,0.458755 -1.025012,1.027512 l 0,0.256253 c 0,0.568757 0.456255,1.027512 1.025012,1.027512 l 2.571281,0 c 0.568756,0 1.025012,-0.458755 1.025012,-1.027512 l 0,-0.256253 c 0,-0.568757 -0.456256,-1.027512 -1.025012,-1.027512 l -2.571281,0 m 0.207502,3.496291 c -0.405004,0 -0.735008,0.328754 -0.735008,0.735009 l 0,1.460018 -1.132514,3.340039 c -0.317504,0.931261 -0.166252,1.966274 0.405005,2.768783 0.571257,0.80001 1.498768,1.278766 2.48003,1.278766 0.981261,0 1.908772,-0.478756 2.480029,-1.278766 0.571257,-0.802509 0.722509,-1.835022 0.405005,-2.766283 l -1.132514,-3.342539 0,-1.460018 c 0,-0.406255 -0.330003,-0.735009 -0.735008,-0.735009 l -2.036275,0 m -0.09,4.892559 2.216277,0 0.381254,1.120013 c 0.162502,0.480006 0.085,1.015012 -0.210002,1.428767 -0.587507,0.82626 -1.970024,0.82626 -2.558781,0 -0.295003,-0.413755 -0.372504,-0.947511 -0.210002,-1.428767 L 55.84039,47.46329" />
</svg>
