<?xml version="1.0" encoding="UTF-8" standalone="no"?>
<svg
   xmlns:dc="http://purl.org/dc/elements/1.1/"
   xmlns:cc="http://creativecommons.org/ns#"
   xmlns:rdf="http://www.w3.org/1999/02/22-rdf-syntax-ns#"
   xmlns:svg="http://www.w3.org/2000/svg"
   xmlns="http://www.w3.org/2000/svg"
   xmlns:xlink="http://www.w3.org/1999/xlink"
   xmlns:sodipodi="http://sodipodi.sourceforge.net/DTD/sodipodi-0.dtd"
   xmlns:inkscape="http://www.inkscape.org/namespaces/inkscape"
   viewBox="0 0 64 64"
   id="svg13202"
   version="1.1"
   inkscape:version="0.91 r13725"
   sodipodi:docname="folder-private.svg">
  <metadata
     id="metadata13228">
    <rdf:RDF>
      <cc:Work
         rdf:about="">
        <dc:format>image/svg+xml</dc:format>
        <dc:type
           rdf:resource="http://purl.org/dc/dcmitype/StillImage" />
        <dc:title></dc:title>
      </cc:Work>
    </rdf:RDF>
  </metadata>
  <sodipodi:namedview
     pagecolor="#ffffff"
     bordercolor="#666666"
     borderopacity="1"
     objecttolerance="10"
     gridtolerance="10"
     guidetolerance="10"
     inkscape:pageopacity="0"
     inkscape:pageshadow="2"
     inkscape:window-width="1280"
     inkscape:window-height="694"
     id="namedview13226"
     showgrid="false"
     inkscape:zoom="3.6875"
     inkscape:cx="-21.503664"
     inkscape:cy="32"
     inkscape:window-x="0"
     inkscape:window-y="0"
     inkscape:window-maximized="1"
     inkscape:current-layer="svg13202" />
  <defs
     id="defs13204">
    <linearGradient
       xlink:href="#1"
       id="3"
       x1="-19.915"
       y1="1048.7"
       x2="-19.996"
       y2="1025.51"
       gradientUnits="userSpaceOnUse"
       gradientTransform="translate(51.949,-1001.46)" />
    <linearGradient
       gradientUnits="userSpaceOnUse"
       y2="354.29"
       x2="-704.05"
       y1="647.77"
       x1="-701.19"
       id="2"
       gradientTransform="matrix(0.01590505,0,0,0.01845141,129.51168,-45.007092)">
      <stop
         stop-color="#93cfff"
         id="stop13208" />
      <stop
         offset="1"
         stop-color="#cde8fe"
         id="stop13210" />
    </linearGradient>
    <linearGradient
       xlink:href="#1"
       id="0"
       x1="59.12"
       y1="-13.295"
       x2="59.15"
       y2="-37.783"
       gradientUnits="userSpaceOnUse"
       gradientTransform="matrix(0.52660675,0,0,0.52570737,-19.441377,28.676662)" />
    <linearGradient
       id="1">
      <stop
         stop-color="#289bf7"
         id="stop13214" />
      <stop
         offset="1"
         stop-color="#71b9f1"
         id="stop13216" />
    </linearGradient>
  </defs>
  <rect
     style="fill:#80b3ff;stroke:none;stroke-width:0.32295448"
     id="rect13222"
     rx="1.2142509"
     width="58.487045"
     height="43.170807"
     x="3.0217602"
     y="10.17371" />
  <g
     id="g3"
     transform="matrix(0.06195949,0,0,0.05211963,32.652969,27.660497)"
     style="fill:#ffffff">
    <path
       d="M 396.314,0 291.578,0 c -28.469,0 -51.542,23.074 -51.542,51.543 l 0,37.895 103.918,0 c 34.866,0 63.135,28.269 63.135,63.135 0,34.865 -28.268,63.134 -63.135,63.134 l -103.918,0 0,206.257 c 0,28.469 23.073,51.543 51.542,51.543 l 104.736,0 c 28.469,0 51.543,-23.074 51.543,-51.543 l 0,-370.421 C 447.857,23.074 424.783,0 396.314,0 Z m -29.903,335.493 0,29.247 c 0,11.405 -9.232,20.654 -20.652,20.654 -11.407,0 -20.655,-9.249 -20.655,-20.654 l 0,-29.247 c -8.353,-6.29 -13.81,-16.185 -13.81,-27.436 0,-19.028 15.428,-34.48 34.465,-34.48 19.034,0 34.463,15.452 34.463,34.48 0,11.252 -5.456,21.146 -13.811,27.436 z"
       id="path5"
       inkscape:connector-curvature="0"
       style="fill:#ffffff" />
    <path
       d="m 383.413,152.572 c 0,-21.796 -17.663,-39.459 -39.459,-39.459 l -278.847,0 c -21.796,0 -39.459,17.663 -39.459,39.459 0,21.795 17.663,39.458 39.459,39.458 l 278.847,0 c 21.796,0 39.459,-17.663 39.459,-39.458 z"
       id="path7"
       inkscape:connector-curvature="0"
       style="fill:#ffffff" />
  </g>
</svg>
