<?xml version="1.0" encoding="UTF-8" standalone="no"?>
<svg
   xmlns:dc="http://purl.org/dc/elements/1.1/"
   xmlns:cc="http://creativecommons.org/ns#"
   xmlns:rdf="http://www.w3.org/1999/02/22-rdf-syntax-ns#"
   xmlns:svg="http://www.w3.org/2000/svg"
   xmlns="http://www.w3.org/2000/svg"
   xmlns:xlink="http://www.w3.org/1999/xlink"
   xmlns:sodipodi="http://sodipodi.sourceforge.net/DTD/sodipodi-0.dtd"
   xmlns:inkscape="http://www.inkscape.org/namespaces/inkscape"
   viewBox="0 0 64 64"
   id="svg13202"
   version="1.1"
   inkscape:version="0.91 r13725"
   sodipodi:docname="folder-public.svg">
  <metadata
     id="metadata13228">
    <rdf:RDF>
      <cc:Work
         rdf:about="">
        <dc:format>image/svg+xml</dc:format>
        <dc:type
           rdf:resource="http://purl.org/dc/dcmitype/StillImage" />
        <dc:title></dc:title>
      </cc:Work>
    </rdf:RDF>
  </metadata>
  <sodipodi:namedview
     pagecolor="#ffffff"
     bordercolor="#666666"
     borderopacity="1"
     objecttolerance="10"
     gridtolerance="10"
     guidetolerance="10"
     inkscape:pageopacity="0"
     inkscape:pageshadow="2"
     inkscape:window-width="1280"
     inkscape:window-height="694"
     id="namedview13226"
     showgrid="false"
     inkscape:zoom="3.6875"
     inkscape:cx="-57.388767"
     inkscape:cy="32"
     inkscape:window-x="0"
     inkscape:window-y="0"
     inkscape:window-maximized="1"
     inkscape:current-layer="svg13202" />
  <defs
     id="defs13204">
    <linearGradient
       xlink:href="#1"
       id="3"
       x1="-19.915"
       y1="1048.7"
       x2="-19.996"
       y2="1025.51"
       gradientUnits="userSpaceOnUse"
       gradientTransform="translate(51.949,-1001.46)" />
    <linearGradient
       gradientUnits="userSpaceOnUse"
       y2="354.29"
       x2="-704.05"
       y1="647.77"
       x1="-701.19"
       id="2"
       gradientTransform="matrix(0.01590505,0,0,0.01845141,129.51168,-45.007092)">
      <stop
         stop-color="#93cfff"
         id="stop13208" />
      <stop
         offset="1"
         stop-color="#cde8fe"
         id="stop13210" />
    </linearGradient>
    <linearGradient
       xlink:href="#1"
       id="0"
       x1="59.12"
       y1="-13.295"
       x2="59.15"
       y2="-37.783"
       gradientUnits="userSpaceOnUse"
       gradientTransform="matrix(0.52660675,0,0,0.52570737,-19.441377,28.676662)" />
    <linearGradient
       id="1">
      <stop
         stop-color="#289bf7"
         id="stop13214" />
      <stop
         offset="1"
         stop-color="#71b9f1"
         id="stop13216" />
    </linearGradient>
  </defs>
  <rect
     style="fill:#80b3ff;stroke:none;stroke-width:0.32295448"
     id="rect13222"
     rx="1.2142509"
     width="58.487045"
     height="43.170807"
     x="3.0217602"
     y="10.17371" />
  <path
     inkscape:connector-curvature="0"
     style="fill:#ffffff;stroke:none;stroke-width:0.14"
     id="path29"
     d="m 48.301893,28.135551 c -0.230793,-5.93e-4 -0.460746,0.08802 -0.638095,0.264523 L 36.537582,39.466133 c -0.354697,0.352776 -0.354937,0.923576 -0.0022,1.27825 l 11.065103,11.124183 c 0.35278,0.354674 0.92365,0.357046 1.278227,0.0042 l 11.12506,-11.06848 c 0.354697,-0.352776 0.356973,-0.921559 0.0042,-1.276233 L 48.940467,28.403869 c -0.17639,-0.177336 -0.407302,-0.268081 -0.638095,-0.268674 m -1.935254,6.175357 c 0.09562,-4.74e-4 0.192207,0.01 0.289629,0.02942 0.779374,0.155036 1.286375,0.91029 1.131315,1.689623 -0.15494,0.779334 -0.912266,1.286316 -1.692001,1.131398 -0.779014,-0.155036 -1.286135,-0.912425 -1.131315,-1.691759 0.135528,-0.681946 0.733,-1.155002 1.402132,-1.15868 m 1.828127,2.810583 c 0.09287,0.0019 0.184538,0.01423 0.272853,0.0357 l 1.979351,0.363096 c 0.05836,0.01068 0.114558,0.02859 0.167882,0.05457 l 1.441555,0.698909 c 0.326297,0.158358 0.462664,0.551109 0.304368,0.877314 -0.113598,0.234037 -0.348226,0.371518 -0.59196,0.371518 -0.0961,0 -0.193046,-0.0223 -0.285435,-0.06714 l -1.362227,-0.661188 -0.602745,-0.109131 0.463862,2.184981 c 0.0093,0.04389 0.01642,0.08861 0.02097,0.132261 l 0.841207,2.164103 1.773603,1.486072 c 0.330851,0.277452 0.37411,0.771148 0.09658,1.10198 -0.1547,0.184454 -0.377105,0.279112 -0.600348,0.279112 -0.177228,0 -0.355176,-0.05978 -0.501608,-0.182556 l -1.926864,-1.616199 c -0.100777,-0.08446 -0.179026,-0.192165 -0.226718,-0.314818 l -0.600348,-1.544432 c -0.01306,0.0011 -0.02684,0.0015 -0.0399,0.0021 l -1.177569,1.032706 -0.335884,2.205976 c -0.05896,0.386938 -0.392563,0.665339 -0.772424,0.665339 -0.03918,0 -0.07969,-0.0023 -0.11959,-0.0084 -0.426836,-0.06512 -0.720179,-0.465227 -0.654872,-0.892022 l 0.379861,-2.489359 c 0.0278,-0.182438 0.119351,-0.348624 0.258115,-0.47021 l 1.143897,-1.003288 c -0.0023,-0.0095 -0.0043,-0.01767 -0.0064,-0.02728 l -0.444929,-2.096846 -0.593997,0.463923 c -0.06219,0.04851 -0.132532,0.08564 -0.207785,0.10913 l -1.689604,0.528927 c -0.06531,0.02052 -0.130256,0.02942 -0.195203,0.02942 -0.279444,0 -0.539595,-0.178879 -0.62755,-0.459652 -0.108446,-0.346133 0.08412,-0.714093 0.430309,-0.822748 l 1.576364,-0.493222 1.576365,-1.232106 c 0.01306,-0.0102 0.02624,-0.01827 0.0399,-0.02728 0.145953,-0.115299 0.319946,-0.202247 0.514191,-0.243527 0.09479,-0.02016 0.188372,-0.02704 0.281241,-0.02515" />
</svg>
