<?xml version="1.0" encoding="UTF-8" standalone="no"?>
<svg
   xmlns:dc="http://purl.org/dc/elements/1.1/"
   xmlns:cc="http://creativecommons.org/ns#"
   xmlns:rdf="http://www.w3.org/1999/02/22-rdf-syntax-ns#"
   xmlns:svg="http://www.w3.org/2000/svg"
   xmlns="http://www.w3.org/2000/svg"
   xmlns:xlink="http://www.w3.org/1999/xlink"
   xmlns:sodipodi="http://sodipodi.sourceforge.net/DTD/sodipodi-0.dtd"
   xmlns:inkscape="http://www.inkscape.org/namespaces/inkscape"
   viewBox="0 0 64 64"
   id="svg13202"
   version="1.1"
   inkscape:version="0.91 r13725"
   sodipodi:docname="folder-git.svg">
  <metadata
     id="metadata13228">
    <rdf:RDF>
      <cc:Work
         rdf:about="">
        <dc:format>image/svg+xml</dc:format>
        <dc:type
           rdf:resource="http://purl.org/dc/dcmitype/StillImage" />
        <dc:title></dc:title>
      </cc:Work>
    </rdf:RDF>
  </metadata>
  <sodipodi:namedview
     pagecolor="#ffffff"
     bordercolor="#666666"
     borderopacity="1"
     objecttolerance="10"
     gridtolerance="10"
     guidetolerance="10"
     inkscape:pageopacity="0"
     inkscape:pageshadow="2"
     inkscape:window-width="1280"
     inkscape:window-height="694"
     id="namedview13226"
     showgrid="false"
     inkscape:zoom="3.6875"
     inkscape:cx="-62.938968"
     inkscape:cy="32"
     inkscape:window-x="0"
     inkscape:window-y="0"
     inkscape:window-maximized="1"
     inkscape:current-layer="svg13202" />
  <defs
     id="defs13204">
    <linearGradient
       xlink:href="#1"
       id="3"
       x1="-19.915"
       y1="1048.7"
       x2="-19.996"
       y2="1025.51"
       gradientUnits="userSpaceOnUse"
       gradientTransform="translate(51.949,-1001.46)" />
    <linearGradient
       gradientUnits="userSpaceOnUse"
       y2="354.29"
       x2="-704.05"
       y1="647.77"
       x1="-701.19"
       id="2"
       gradientTransform="matrix(0.01590505,0,0,0.01845141,129.51168,-45.007092)">
      <stop
         stop-color="#93cfff"
         id="stop13208" />
      <stop
         offset="1"
         stop-color="#cde8fe"
         id="stop13210" />
    </linearGradient>
    <linearGradient
       xlink:href="#1"
       id="0"
       x1="59.12"
       y1="-13.295"
       x2="59.15"
       y2="-37.783"
       gradientUnits="userSpaceOnUse"
       gradientTransform="matrix(0.52660675,0,0,0.52570737,-19.441377,28.676662)" />
    <linearGradient
       id="1">
      <stop
         stop-color="#289bf7"
         id="stop13214" />
      <stop
         offset="1"
         stop-color="#71b9f1"
         id="stop13216" />
    </linearGradient>
  </defs>
  <rect
     style="fill:#80b3ff;stroke:none;stroke-width:0.32295448"
     id="rect13222"
     rx="1.2142509"
     width="58.487045"
     height="43.170807"
     x="3.0217602"
     y="10.17371" />
  <path
     inkscape:connector-curvature="0"
     style="fill:#ffffff"
     id="path24"
     d="m 59.696659,37.62105 -11.3519,-11.351568 c -0.65323,-0.653784 -1.713781,-0.653784 -2.368094,0 l -2.357261,2.357304 2.989908,2.989963 c 0.694937,-0.234538 1.491704,-0.07691 2.045812,0.476661 0.556816,0.557368 0.713353,1.361192 0.472319,2.058308 l 2.88212,2.881631 c 0.697645,-0.240497 1.501453,-0.08504 2.058811,0.472869 0.778351,0.777824 0.778351,2.038809 0,2.817716 -0.778892,0.778365 -2.039312,0.778365 -2.818746,0 -0.584982,-0.586076 -0.730144,-1.445691 -0.43332,-2.16664 l -2.688209,-2.687717 0,7.074079 c 0.189577,0.09371 0.368863,0.218831 0.526484,0.376454 0.778351,0.777824 0.778351,2.038808 0,2.818257 -0.778351,0.777824 -2.039854,0.777824 -2.817122,0 -0.778351,-0.779449 -0.778351,-2.039891 0,-2.818257 0.192286,-0.192289 0.414904,-0.337454 0.652688,-0.434953 l 0,-7.138537 c -0.237784,-0.0975 -0.459861,-0.24158 -0.652688,-0.434953 -0.589315,-0.589326 -0.731228,-1.454357 -0.428987,-2.177473 l -2.947659,-2.948256 -7.784052,7.783655 c -0.653772,0.654325 -0.653772,1.714895 0,2.368679 l 11.352442,11.351569 c 0.653772,0.653783 1.713781,0.653783 2.368094,0 L 59.696118,39.990813 c 0.653771,-0.653784 0.653771,-1.714896 0,-2.368679" />
</svg>
