<?xml version="1.0" encoding="UTF-8" standalone="no"?>
<svg
   xmlns:dc="http://purl.org/dc/elements/1.1/"
   xmlns:cc="http://creativecommons.org/ns#"
   xmlns:rdf="http://www.w3.org/1999/02/22-rdf-syntax-ns#"
   xmlns:svg="http://www.w3.org/2000/svg"
   xmlns="http://www.w3.org/2000/svg"
   xmlns:xlink="http://www.w3.org/1999/xlink"
   xmlns:sodipodi="http://sodipodi.sourceforge.net/DTD/sodipodi-0.dtd"
   xmlns:inkscape="http://www.inkscape.org/namespaces/inkscape"
   viewBox="0 0 64 64"
   id="svg13202"
   version="1.1"
   inkscape:version="0.91 r13725"
   sodipodi:docname="folder-games.svg">
  <metadata
     id="metadata13228">
    <rdf:RDF>
      <cc:Work
         rdf:about="">
        <dc:format>image/svg+xml</dc:format>
        <dc:type
           rdf:resource="http://purl.org/dc/dcmitype/StillImage" />
        <dc:title></dc:title>
      </cc:Work>
    </rdf:RDF>
  </metadata>
  <sodipodi:namedview
     pagecolor="#ffffff"
     bordercolor="#666666"
     borderopacity="1"
     objecttolerance="10"
     gridtolerance="10"
     guidetolerance="10"
     inkscape:pageopacity="0"
     inkscape:pageshadow="2"
     inkscape:window-width="1280"
     inkscape:window-height="694"
     id="namedview13226"
     showgrid="false"
     inkscape:zoom="3.6875"
     inkscape:cx="-59.767424"
     inkscape:cy="32"
     inkscape:window-x="0"
     inkscape:window-y="0"
     inkscape:window-maximized="1"
     inkscape:current-layer="svg13202" />
  <defs
     id="defs13204">
    <linearGradient
       xlink:href="#1"
       id="3"
       x1="-19.915"
       y1="1048.7"
       x2="-19.996"
       y2="1025.51"
       gradientUnits="userSpaceOnUse"
       gradientTransform="translate(51.949,-1001.46)" />
    <linearGradient
       gradientUnits="userSpaceOnUse"
       y2="354.29"
       x2="-704.05"
       y1="647.77"
       x1="-701.19"
       id="2"
       gradientTransform="matrix(0.01590505,0,0,0.01845141,129.51168,-45.007092)">
      <stop
         stop-color="#93cfff"
         id="stop13208" />
      <stop
         offset="1"
         stop-color="#cde8fe"
         id="stop13210" />
    </linearGradient>
    <linearGradient
       xlink:href="#1"
       id="0"
       x1="59.12"
       y1="-13.295"
       x2="59.15"
       y2="-37.783"
       gradientUnits="userSpaceOnUse"
       gradientTransform="matrix(0.52660675,0,0,0.52570737,-19.441377,28.676662)" />
    <linearGradient
       id="1">
      <stop
         stop-color="#289bf7"
         id="stop13214" />
      <stop
         offset="1"
         stop-color="#71b9f1"
         id="stop13216" />
    </linearGradient>
  </defs>
  <rect
     style="fill:#80b3ff;stroke:none;stroke-width:0.32295448"
     id="rect13222"
     rx="1.2142509"
     width="58.487045"
     height="43.170807"
     x="3.0217602"
     y="10.17371" />
  <path
     inkscape:connector-curvature="0"
     style="fill:#ffffff"
     id="path24"
     d="m 52.203047,34.390831 c -4.349055,0 -8.048868,3.926738 -8.048868,8.767992 l 0,8.120893 c 0,1.041538 0.330109,1.218134 1.105365,0.676236 0.466214,-0.326072 0.897991,-0.511624 1.498543,-0.511624 0.536726,0 1.020473,0.14872 1.47546,0.412857 0.770589,0.445274 1.532979,0.449815 2.294487,0.0011 0.448049,-0.264894 0.950843,-0.41437 1.486938,-0.41437 0.537482,0 1.043052,0.148719 1.488326,0.412856 0.756335,0.450572 1.535754,0.443761 2.308362,0 0.45814,-0.264137 0.976576,-0.412856 1.51368,-0.412856 0.552997,0 1.155568,0.157801 1.589994,0.43922 0.72253,0.466339 1.334435,0.193246 1.334435,-0.849049 l 0,-7.87492 c 7.57e-4,-4.842515 -3.698424,-8.769253 -8.046849,-8.769253 z M 39.363256,45.415467 c 1.041664,0 1.887685,-0.820919 1.887685,-1.835589 0,-1.012904 -0.844633,-1.834833 -1.887685,-1.834833 -1.041664,0 -1.887054,0.82155 -1.887054,1.834833 0,1.014166 0.844633,1.835589 1.887054,1.835589 m -6.918779,0 c 1.041664,0 1.887685,-0.820919 1.887685,-1.835589 0,-1.012904 -0.844633,-1.834833 -1.887685,-1.834833 -1.041664,0 -1.887054,0.82155 -1.887054,1.834833 0,1.014166 0.844633,1.835589 1.887054,1.835589 m -8.789435,6.974281 c 1.791945,0 3.460777,-0.507083 4.867112,-1.381612 0.818522,-0.508344 0.824829,-1.596554 0.137997,-2.264213 l -3.760612,-3.659321 c -0.688346,-0.66829 -0.689103,-1.752085 0,-2.420627 l 4.065492,-3.954615 c 0.688346,-0.66892 0.708024,-1.781097 -0.08451,-2.327157 -1.476594,-1.017949 -3.27964,-1.615853 -5.227241,-1.615853 -5.00082,10e-4 -9.055591,3.948182 -9.055591,8.812897 0,4.865851 4.055401,8.810249 9.056978,8.810249" />
</svg>
