<?xml version="1.0" encoding="UTF-8" standalone="no"?>
<!-- Generator: Adobe Illustrator 19.0.0, SVG Export Plug-In . SVG Version: 6.00 Build 0)  -->

<svg
   xmlns:dc="http://purl.org/dc/elements/1.1/"
   xmlns:cc="http://creativecommons.org/ns#"
   xmlns:rdf="http://www.w3.org/1999/02/22-rdf-syntax-ns#"
   xmlns:svg="http://www.w3.org/2000/svg"
   xmlns="http://www.w3.org/2000/svg"
   xmlns:sodipodi="http://sodipodi.sourceforge.net/DTD/sodipodi-0.dtd"
   xmlns:inkscape="http://www.inkscape.org/namespaces/inkscape"
   version="1.1"
   id="Capa_1"
   x="0px"
   y="0px"
   viewBox="0 0 59 59"
   style="enable-background:new 0 0 59 59;"
   xml:space="preserve"
   inkscape:version="0.91 r13725"
   sodipodi:docname="preferences-desktop-mouse.svg"><metadata
     id="metadata51"><rdf:RDF><cc:Work
         rdf:about=""><dc:format>image/svg+xml</dc:format><dc:type
           rdf:resource="http://purl.org/dc/dcmitype/StillImage" /><dc:title></dc:title></cc:Work></rdf:RDF></metadata><defs
     id="defs49" /><sodipodi:namedview
     pagecolor="#ffffff"
     bordercolor="#666666"
     borderopacity="1"
     objecttolerance="10"
     gridtolerance="10"
     guidetolerance="10"
     inkscape:pageopacity="0"
     inkscape:pageshadow="2"
     inkscape:window-width="1280"
     inkscape:window-height="694"
     id="namedview47"
     showgrid="false"
     inkscape:zoom="4"
     inkscape:cx="-51.625"
     inkscape:cy="29.5"
     inkscape:window-x="0"
     inkscape:window-y="0"
     inkscape:window-maximized="1"
     inkscape:current-layer="Capa_1" /><path
     inkscape:connector-curvature="0"
     style="fill:#b7b7c8"
     d="m 14.401,31.656 c 0.837,-2.99 1.17,-6.09 1.065,-9.193 C 15.302,17.602 13.746,12.091 14.738,8.229 15.18,5.136 17.624,2.714 20.721,2.301 l 0,0 c 7.029,-1.772 13.553,-1.702 19.527,0 l 0,0 c 3.097,0.413 5.542,2.835 5.983,5.928 1.484,5.777 1.683,11.808 0.584,17.67 l -0.673,3.588 c 0.858,2.478 1.342,5.178 1.342,8.012 0,11.874 -8.283,21.5 -18.5,21.5 -10.217,0 -17.5,-6.126 -17.5,-18 10e-4,-3.223 2.114,-6.476 2.917,-9.343 z"
     id="path3" /><path
     inkscape:connector-curvature="0"
     style="fill:#53536c"
     d="m 46.816,25.9 -0.673,3.588 c 0.858,2.478 1.342,5.178 1.342,8.012 0,3.021 -0.541,5.893 -1.509,8.501 -11.7,3.958 -1.552,-14.807 0.928,-20.655 -0.031,0.184 -0.053,0.37 -0.088,0.554 z"
     id="path5" /><path
     inkscape:connector-curvature="0"
     style="fill:#53536c"
     d="m 11.512,40.644 c 0.145,-3.107 2.116,-6.226 2.889,-8.988 0.837,-2.99 1.17,-6.09 1.065,-9.193 -0.002,-0.076 -0.008,-0.153 -0.011,-0.229 2.672,9.492 5.85,23.127 -3.943,18.41 z"
     id="path7" /><path
     inkscape:connector-curvature="0"
     style="fill:#38454f;stroke:#546a79;stroke-width:2;stroke-linecap:round;stroke-linejoin:round;stroke-miterlimit:10"
     d="m 30.485,21 0,0 c 1.1,0 2,-0.9 2,-2 l 0,-8 c 0,-1.1 -0.9,-2 -2,-2 l 0,0 c -1.1,0 -2,0.9 -2,2 l 0,8 c 0,1.1 0.9,2 2,2 z"
     id="path9" /><line
     style="fill:#ffffff;stroke:#546a79;stroke-width:2;stroke-linecap:round;stroke-linejoin:round;stroke-miterlimit:10"
     x1="30.485001"
     y1="9"
     x2="30.485001"
     y2="1"
     id="line11" /><line
     style="fill:#53536c;stroke:#546a79;stroke-width:2;stroke-linecap:round;stroke-linejoin:round;stroke-miterlimit:10"
     x1="30.485001"
     y1="21"
     x2="30.485001"
     y2="27"
     id="line13" /><circle
     style="fill:#53536c"
     cx="29.485001"
     cy="44"
     r="4"
     id="circle15" /><g
     id="g17" /><g
     id="g19" /><g
     id="g21" /><g
     id="g23" /><g
     id="g25" /><g
     id="g27" /><g
     id="g29" /><g
     id="g31" /><g
     id="g33" /><g
     id="g35" /><g
     id="g37" /><g
     id="g39" /><g
     id="g41" /><g
     id="g43" /><g
     id="g45" /></svg>