<?xml version="1.0" encoding="UTF-8" standalone="no"?>
<!-- Generator: Adobe Illustrator 19.0.0, SVG Export Plug-In . SVG Version: 6.00 Build 0)  -->

<svg
   xmlns:dc="http://purl.org/dc/elements/1.1/"
   xmlns:cc="http://creativecommons.org/ns#"
   xmlns:rdf="http://www.w3.org/1999/02/22-rdf-syntax-ns#"
   xmlns:svg="http://www.w3.org/2000/svg"
   xmlns="http://www.w3.org/2000/svg"
   xmlns:sodipodi="http://sodipodi.sourceforge.net/DTD/sodipodi-0.dtd"
   xmlns:inkscape="http://www.inkscape.org/namespaces/inkscape"
   version="1.1"
   id="Capa_1"
   x="0px"
   y="0px"
   viewBox="0 0 57 57"
   style="enable-background:new 0 0 57 57;"
   xml:space="preserve"
   inkscape:version="0.91 r13725"
   sodipodi:docname="preferences-system-network-sharing.svg"><metadata
     id="metadata51"><rdf:RDF><cc:Work
         rdf:about=""><dc:format>image/svg+xml</dc:format><dc:type
           rdf:resource="http://purl.org/dc/dcmitype/StillImage" /><dc:title></dc:title></cc:Work></rdf:RDF></metadata><defs
     id="defs49" /><sodipodi:namedview
     pagecolor="#ffffff"
     bordercolor="#666666"
     borderopacity="1"
     objecttolerance="10"
     gridtolerance="10"
     guidetolerance="10"
     inkscape:pageopacity="0"
     inkscape:pageshadow="2"
     inkscape:window-width="1280"
     inkscape:window-height="694"
     id="namedview47"
     showgrid="false"
     inkscape:zoom="4.1403509"
     inkscape:cx="-10.868644"
     inkscape:cy="28.5"
     inkscape:window-x="0"
     inkscape:window-y="0"
     inkscape:window-maximized="1"
     inkscape:current-layer="Capa_1" /><g
     id="g3"
     style="fill:#afc6e9"><path
       style="fill:#afc6e9"
       d="M42.111,8.847c-0.473-0.29-1.087-0.143-1.376,0.327c-0.29,0.471-0.143,1.086,0.327,1.376   C48.224,14.96,52.5,22.604,52.5,31c0,2.067-0.271,4.137-0.805,6.152c-0.141,0.533,0.177,1.081,0.711,1.223   c0.085,0.022,0.172,0.033,0.256,0.033c0.443,0,0.848-0.296,0.966-0.744C54.207,35.482,54.5,33.24,54.5,31   C54.5,21.905,49.869,13.623,42.111,8.847z"
       id="path5" /><path
       style="fill:#afc6e9"
       d="M37.671,53.182C34.756,54.388,31.671,55,28.5,55c-6.728,0-13.189-2.854-17.728-7.832   c-0.372-0.408-1.003-0.437-1.413-0.065c-0.408,0.372-0.437,1.005-0.065,1.413C14.211,53.907,21.211,57,28.5,57   c3.435,0,6.778-0.663,9.936-1.971c0.51-0.211,0.753-0.796,0.542-1.307C38.767,53.213,38.181,52.971,37.671,53.182z"
       id="path7" /><path
       style="fill:#afc6e9"
       d="M22.784,7.687c0.537-0.132,0.865-0.673,0.734-1.209c-0.13-0.536-0.674-0.862-1.208-0.734   C11.302,8.434,3.371,17.838,2.573,29.146c-0.039,0.551,0.376,1.029,0.927,1.067c0.024,0.002,0.048,0.003,0.071,0.003   c0.521,0,0.959-0.402,0.997-0.93C5.305,18.85,12.625,10.169,22.784,7.687z"
       id="path9" /></g><circle
     style="fill:#ffcc00"
     cx="28.5"
     cy="6"
     r="6"
     id="circle11" /><circle
     style="fill:#0066ff"
     cx="6.5"
     cy="43"
     r="6"
     id="circle13" /><circle
     style="fill:#37c837"
     cx="50.5"
     cy="43"
     r="6"
     id="circle15" /><g
     id="g17" /><g
     id="g19" /><g
     id="g21" /><g
     id="g23" /><g
     id="g25" /><g
     id="g27" /><g
     id="g29" /><g
     id="g31" /><g
     id="g33" /><g
     id="g35" /><g
     id="g37" /><g
     id="g39" /><g
     id="g41" /><g
     id="g43" /><g
     id="g45" /></svg>