<?xml version="1.0" encoding="UTF-8" standalone="no"?>
<svg
   xmlns:dc="http://purl.org/dc/elements/1.1/"
   xmlns:cc="http://creativecommons.org/ns#"
   xmlns:rdf="http://www.w3.org/1999/02/22-rdf-syntax-ns#"
   xmlns:svg="http://www.w3.org/2000/svg"
   xmlns="http://www.w3.org/2000/svg"
   xmlns:sodipodi="http://sodipodi.sourceforge.net/DTD/sodipodi-0.dtd"
   xmlns:inkscape="http://www.inkscape.org/namespaces/inkscape"
   viewBox="0 0 48 48"
   id="svg2"
   version="1.1"
   inkscape:version="0.91 r13725"
   sodipodi:docname="preferences-system-time.svg">
  <metadata
     id="metadata24">
    <rdf:RDF>
      <cc:Work
         rdf:about="">
        <dc:format>image/svg+xml</dc:format>
        <dc:type
           rdf:resource="http://purl.org/dc/dcmitype/StillImage" />
        <dc:title></dc:title>
      </cc:Work>
    </rdf:RDF>
  </metadata>
  <sodipodi:namedview
     pagecolor="#ffffff"
     bordercolor="#666666"
     borderopacity="1"
     objecttolerance="10"
     gridtolerance="10"
     guidetolerance="10"
     inkscape:pageopacity="0"
     inkscape:pageshadow="2"
     inkscape:window-width="1280"
     inkscape:window-height="694"
     id="namedview22"
     showgrid="false"
     inkscape:zoom="4.9166667"
     inkscape:cx="-27.935895"
     inkscape:cy="24"
     inkscape:window-x="0"
     inkscape:window-y="0"
     inkscape:window-maximized="1"
     inkscape:current-layer="svg2" />
  <defs
     id="defs4">
    <linearGradient
       id="0"
       x1="-28.999"
       y1="514.82"
       x2="-15.58"
       y2="-56.05"
       gradientUnits="userSpaceOnUse"
       gradientTransform="matrix(0.07843067,0,0,0.07848117,34.44901,6.5271227)">
      <stop
         stop-color="#d3d3d3"
         id="stop7" />
      <stop
         offset="1"
         stop-color="#fcf9f9"
         id="stop9" />
    </linearGradient>
    <linearGradient
       y2="501.79"
       x2="0"
       y1="545.79"
       gradientUnits="userSpaceOnUse"
       id="1"
       gradientTransform="matrix(1.04348,0,0,1.04399,-402.34,-522.84)">
      <stop
         stop-color="#197cf1"
         id="stop12" />
      <stop
         offset="1"
         stop-color="#20bcfa"
         id="stop14" />
    </linearGradient>
  </defs>
  <g
     id="g3"
     transform="matrix(0.21096251,0,0,0.12757126,-15.036586,0.27117074)">
    <path
       d="m 72.85,121.096 0,135.789 c 0,24.992 20.266,45.265 45.261,45.265 l 135.783,0 c 24.998,0 45.265,-20.272 45.265,-45.265 l 0,-135.789 c 0,-24.995 -20.267,-45.262 -45.265,-45.262 l -135.783,0 c -24.995,0 -45.261,20.267 -45.261,45.262 z m 70.331,25.163 c 3.393,-1.97 7.752,-0.805 9.722,2.594 l 36.167,31.9 64.71,-64.71 c 2.78,-2.78 7.284,-2.78 10.059,0 2.78,2.78 2.78,7.281 0,10.058 l -67.98,67.986 80.428,76.129 c 1.231,1.164 1.285,3.11 0.127,4.348 -0.613,0.636 -1.424,0.96 -2.234,0.96 -0.769,0 -1.525,-0.276 -2.113,-0.847 l -80.701,-76.381 c -0.094,0.061 -0.16,0.139 -0.259,0.198 -0.198,0.108 -0.405,0.156 -0.609,0.253 -0.198,0.09 -0.388,0.168 -0.592,0.239 -0.774,0.282 -1.561,0.469 -2.354,0.469 -0.817,0 -1.612,-0.192 -2.381,-0.469 -0.189,-0.071 -0.366,-0.144 -0.546,-0.222 -0.763,-0.343 -1.48,-0.781 -2.09,-1.387 -0.006,-0.013 -0.012,-0.013 -0.012,-0.013 -0.018,-0.024 -0.024,-0.048 -0.045,-0.072 -0.405,-0.42 -0.78,-0.876 -1.087,-1.405 l -40.806,-39.913 c -1.967,-3.395 -0.806,-7.749 2.596,-9.715 z"
       id="path5"
       inkscape:connector-curvature="0"
       style="fill:#006df0" />
    <rect
       x="127.593"
       width="116.826"
       height="66.611"
       id="rect7"
       y="0"
       style="fill:#006df0" />
    <rect
       x="127.593"
       y="311.93701"
       width="116.826"
       height="60.071999"
       id="rect9"
       style="fill:#006df0" />
  </g>
</svg>
