<?xml version="1.0" encoding="UTF-8" standalone="no"?>
<svg
   xmlns:dc="http://purl.org/dc/elements/1.1/"
   xmlns:cc="http://creativecommons.org/ns#"
   xmlns:rdf="http://www.w3.org/1999/02/22-rdf-syntax-ns#"
   xmlns:svg="http://www.w3.org/2000/svg"
   xmlns="http://www.w3.org/2000/svg"
   xmlns:xlink="http://www.w3.org/1999/xlink"
   xmlns:sodipodi="http://sodipodi.sourceforge.net/DTD/sodipodi-0.dtd"
   xmlns:inkscape="http://www.inkscape.org/namespaces/inkscape"
   viewBox="0 0 48 48"
   id="svg2"
   version="1.1"
   inkscape:version="0.91 r13725"
   sodipodi:docname="preferences-desktop-locale.svg">
  <metadata
     id="metadata54">
    <rdf:RDF>
      <cc:Work
         rdf:about="">
        <dc:format>image/svg+xml</dc:format>
        <dc:type
           rdf:resource="http://purl.org/dc/dcmitype/StillImage" />
        <dc:title></dc:title>
      </cc:Work>
    </rdf:RDF>
  </metadata>
  <sodipodi:namedview
     pagecolor="#ffffff"
     bordercolor="#666666"
     borderopacity="1"
     objecttolerance="10"
     gridtolerance="10"
     guidetolerance="10"
     inkscape:pageopacity="0"
     inkscape:pageshadow="2"
     inkscape:window-width="1280"
     inkscape:window-height="694"
     id="namedview52"
     showgrid="false"
     inkscape:zoom="4.9166667"
     inkscape:cx="-42.305085"
     inkscape:cy="24"
     inkscape:window-x="0"
     inkscape:window-y="0"
     inkscape:window-maximized="1"
     inkscape:current-layer="svg2" />
  <defs
     id="defs4">
    <linearGradient
       gradientUnits="userSpaceOnUse"
       y2="517.3"
       x2="0"
       y1="546.3"
       id="linearGradient6">
      <stop
         stop-color="#00cafe"
         id="stop8" />
      <stop
         offset="1"
         stop-color="#1460f3"
         id="stop10" />
    </linearGradient>
    <linearGradient
       gradientUnits="userSpaceOnUse"
       y2="517.62"
       x2="0"
       y1="545.62"
       id="linearGradient12">
      <stop
         stop-color="#d3d3d3"
         id="stop14" />
      <stop
         offset="1"
         stop-color="#fcf9f9"
         id="stop16" />
    </linearGradient>
    <linearGradient
       gradientUnits="userSpaceOnUse"
       y1="545.62"
       x2="0"
       y2="517.62"
       id="linearGradient18">
      <stop
         stop-color="#e3e3e3"
         id="stop20" />
      <stop
         offset="1"
         stop-color="#fcf9f9"
         id="stop22" />
    </linearGradient>
    <linearGradient
       gradientUnits="userSpaceOnUse"
       x2="11.758"
       x1="2.819"
       xlink:href="#1"
       id="linearGradient24" />
    <linearGradient
       id="1">
      <stop
         stop-color="#333538"
         id="stop27" />
      <stop
         offset="1"
         stop-color="#566069"
         id="stop29" />
    </linearGradient>
    <linearGradient
       gradientUnits="userSpaceOnUse"
       y2="505.33"
       x2="355.69"
       y1="547"
       x1="355.73"
       id="0">
      <stop
         stop-color="#1074f5"
         id="stop32" />
      <stop
         offset="1"
         stop-color="#02befd"
         id="stop34" />
    </linearGradient>
    <linearGradient
       gradientUnits="userSpaceOnUse"
       y2="517.22"
       x2="0"
       y1="545.22"
       xlink:href="#1"
       id="linearGradient36" />
  </defs>
  <g
     style="fill:#0066ff;fill-opacity:0.85"
     id="g46"
     transform="matrix(0.28584699,0,0,0.42510336,-33.168329,-70.07819)">
    <path
       inkscape:connector-curvature="0"
       id="path48"
       d="m 120.32,192.71 59.12,0 c -1.666,10.675 -7.326,22.05 -16.84,33.827 -6.06,-9.714 -9.964,-19.13 -12.188,-25.408 -0.562,-1.583 -2.058,-2.641 -3.736,-2.641 l -9.728,0 c -1.264,0 -2.453,0.603 -3.2,1.623 -0.746,1.021 -0.961,2.335 -0.579,3.542 2.305,7.258 7.614,21.507 17.429,35.986 -11.594,11.271 -23.14,19.394 -27.611,22.387 -1.778,1.192 -2.289,3.581 -1.153,5.396 l 4.882,7.808 c 0.565,0.903 1.473,1.542 2.515,1.771 0.28,0.063 0.564,0.093 0.846,0.093 0.769,0 1.527,-0.224 2.178,-0.651 4.601,-3.02 16.538,-11.28 29.04,-23.255 4.625,4.82 15.499,13.268 21.942,17.954 0.983,0.715 2.242,0.938 3.415,0.607 1.172,-0.334 2.124,-1.188 2.586,-2.312 l 3.642,-8.903 c 0.732,-1.789 0.065,-3.85 -1.579,-4.867 -4.198,-2.604 -12.1,-7.952 -18.552,-14.902 14.163,-16.575 22.24,-32.734 24.02,-48.05 l 3.121,0 c 2.189,0 3.964,-1.775 3.964,-3.965 l 0,-10.567 c 0,-2.189 -1.774,-3.964 -3.964,-3.964 l -30.872,0 0,-5.426 c 0,-2.19 -1.774,-3.965 -3.964,-3.965 l -9.89,0 c -2.189,0 -3.964,1.774 -3.964,3.965 l 0,5.426 -30.872,0 c -2.189,0 -3.964,1.774 -3.964,3.964 l 0,10.567 c -1e-4,2.184 1.774,3.959 3.963,3.959"
       style="fill:#0066ff" />
    <path
       inkscape:connector-curvature="0"
       id="path50"
       d="m 256.1,180.1 c -0.516,-1.66 -2.049,-2.791 -3.787,-2.791 l -22.03,0 c -1.743,0 -3.281,1.139 -3.791,2.805 l -26.318,86.05 c -0.369,1.202 -0.145,2.508 0.604,3.521 0.748,1.01 1.93,1.604 3.188,1.604 l 13.664,0 c 1.779,0 3.342,-1.188 3.819,-2.901 l 5.9,-21.23 26.923,0 6.389,21.307 c 0.502,1.678 2.047,2.825 3.797,2.825 l 14.523,0 c 1.262,0 2.444,-0.599 3.19,-1.61 0.748,-1.015 0.969,-2.323 0.594,-3.526 l -26.669,-86.06 m -25.697,51.19 9.917,-38.07 0.27,0 10.604,38.07 -20.791,0"
       style="fill:#0066ff" />
  </g>
</svg>
