<?xml version="1.0" encoding="UTF-8" standalone="no"?>
<svg
   xmlns:dc="http://purl.org/dc/elements/1.1/"
   xmlns:cc="http://creativecommons.org/ns#"
   xmlns:rdf="http://www.w3.org/1999/02/22-rdf-syntax-ns#"
   xmlns:svg="http://www.w3.org/2000/svg"
   xmlns="http://www.w3.org/2000/svg"
   xmlns:sodipodi="http://sodipodi.sourceforge.net/DTD/sodipodi-0.dtd"
   xmlns:inkscape="http://www.inkscape.org/namespaces/inkscape"
   viewBox="0 0 48 48"
   id="svg2"
   version="1.1"
   inkscape:version="0.91 r13725"
   sodipodi:docname="applications-education-preschool.svg">
  <metadata
     id="metadata29">
    <rdf:RDF>
      <cc:Work
         rdf:about="">
        <dc:format>image/svg+xml</dc:format>
        <dc:type
           rdf:resource="http://purl.org/dc/dcmitype/StillImage" />
        <dc:title></dc:title>
      </cc:Work>
    </rdf:RDF>
  </metadata>
  <sodipodi:namedview
     pagecolor="#ffffff"
     bordercolor="#666666"
     borderopacity="1"
     objecttolerance="10"
     gridtolerance="10"
     guidetolerance="10"
     inkscape:pageopacity="0"
     inkscape:pageshadow="2"
     inkscape:window-width="1280"
     inkscape:window-height="694"
     id="namedview27"
     showgrid="false"
     inkscape:zoom="4.9166667"
     inkscape:cx="-42.305085"
     inkscape:cy="24"
     inkscape:window-x="0"
     inkscape:window-y="0"
     inkscape:window-maximized="1"
     inkscape:current-layer="svg2" />
  <defs
     id="defs4">
    <linearGradient
       id="0"
       y1="547.29"
       x2="0"
       y2="516.19"
       gradientUnits="userSpaceOnUse"
       gradientTransform="matrix(1.54341,0,0,1.54341,-594.9,-796.9)">
      <stop
         stop-color="#ff9300"
         id="stop7" />
      <stop
         offset="1"
         stop-color="#ffd702"
         id="stop9" />
    </linearGradient>
    <linearGradient
       y2="517.8"
       x2="0"
       y1="545.8"
       gradientUnits="userSpaceOnUse"
       id="linearGradient11">
      <stop
         stop-color="#3889e9"
         id="stop13" />
      <stop
         offset="1"
         stop-color="#5ea5fb"
         id="stop15" />
    </linearGradient>
  </defs>
  <g
     style="fill:#ffd42a;fill-opacity:0.85500004"
     id="g21"
     transform="matrix(0.15775389,0,0,0.16787567,0.63606639,-0.9205799)">
    <path
       inkscape:connector-curvature="0"
       id="path23"
       d="m 298.18,149.09 c 0,-14.357 -33.491,-23.24 -37.697,-36.2 -4.36,-13.428 17.358,-40.27 9.225,-51.45 -8.215,-11.288 -40.514,1.117 -51.802,-7.098 C 206.73,46.208 208.595,11.618 195.169,7.262 182.213,3.056 163.445,32 149.089,32 134.732,32 115.959,3.056 103.009,7.263 c -13.426,4.36 -11.561,38.949 -22.737,47.08 -11.288,8.215 -43.586,-4.19 -51.801,7.098 -8.134,11.176 13.584,38.02 9.225,51.45 -4.207,12.955 -37.698,21.84 -37.698,36.2 0,14.357 33.491,23.24 37.698,36.2 4.359,13.427 -17.358,40.27 -9.225,51.45 8.215,11.287 40.513,-1.117 51.801,7.098 11.176,8.135 9.311,42.725 22.737,47.08 12.955,4.207 31.723,-24.737 46.08,-24.737 14.357,0 33.12,28.944 46.08,24.737 13.426,-4.359 11.561,-38.95 22.736,-47.08 11.288,-8.215 43.586,4.19 51.801,-7.098 8.134,-11.176 -13.584,-38.02 -9.225,-51.45 4.208,-12.955 37.7,-21.839 37.7,-36.2 m -149.09,98.74 c -54.44,0 -98.74,-44.29 -98.74,-98.74 0,-54.44 44.29,-98.74 98.74,-98.74 54.44,0 98.74,44.29 98.74,98.74 0,54.44 -44.29,98.74 -98.74,98.74"
       style="fill:#ffd42a" />
    <path
       inkscape:connector-curvature="0"
       id="path25"
       d="m 149.09,66.35 c -45.622,0 -82.74,37.12 -82.74,82.74 0,45.622 37.12,82.74 82.74,82.74 45.623,0 82.74,-37.12 82.74,-82.74 0,-45.622 -37.12,-82.74 -82.74,-82.74 m 25.333,49.907 c 4.418,0 8,3.582 8,8 0,4.419 -3.582,8 -8,8 -4.418,0 -8,-3.581 -8,-8 0,-4.418 3.582,-8 8,-8 m -50,0 c 4.418,0 8,3.582 8,8 0,4.419 -3.582,8 -8,8 -4.418,0 -8,-3.581 -8,-8 0,-4.418 3.582,-8 8,-8 m 71.27,50.562 c -6.173,17.727 -22.19,30.591 -40.815,32.77 -1.898,0.223 -3.794,0.332 -5.679,0.332 -16.852,0 -32.883,-8.708 -41.942,-23.17 -1.953,-3.118 -3.556,-6.458 -4.765,-9.928 -1.454,-4.172 0.75,-8.732 4.923,-10.187 4.173,-1.456 8.732,0.749 10.186,4.923 0.815,2.34 1.898,4.594 3.216,6.699 6.81,10.874 19.449,16.927 32.2,15.443 12.575,-1.473 23.396,-10.163 27.567,-22.14 1.452,-4.172 6.01,-6.378 10.186,-4.924 4.173,1.454 6.377,6.01 4.924,10.188"
       style="fill:#ffd42a" />
  </g>
</svg>
